<?xml version="1.0" encoding="UTF-8"?>
<svg height="600" width="800" xmlns="http://www.w3.org/2000/svg" xmlns:xlink="http://www.w3.org/1999/xlink">
    <g id="Notes" font-family="LucidaGrande, 'Lucida Grande', sans-serif" font-size="13">
        <rect fill="white" height="600.0" width="800.0" x="0.0" y="0.0" />
        <g font-size="13">
            <text x="18.0" y="176.0">Small</text>
            <text x="18.0" y="376.0">Medium</text>
            <text x="18.0" y="576.0">Large</text>
        </g>
        <g font-size="9">
            <text x="250.0" y="30.0">Ultralight</text>
            <text x="450.0" y="30.0">Regular</text>
            <text x="650.0" y="30.0">Black</text>
            <text id="template-version" fill="#505050" text-anchor="end" x="785.0" y="575.0">Template v.3.0</text>
            <a href="https://github.com/swhitty/SwiftDraw">
                <text fill="#505050" text-anchor="end" x="785.0" y="590.0">https://github.com/swhitty/SwiftDraw</text>
            </a>
        </g>
    </g>
    <g id="Guides" stroke="rgb(39, 170, 225)" stroke-width="0.5">
        <path id="Capline-S" d="M18,76 l800,0" />
        <path id="H-reference" d="M85,145.755 L87.685,145.755 L113.369,79.287 L114.052,79.287 L114.052,76 L112.148,76 L85,145.755 Z M95.693,121.536 L130.996,121.536 L130.263,119.313 L96.474,119.313 L95.693,121.536 Z M139.15,145.755 L141.787,145.755 L114.638,76 L113.466,76 L113.466,79.287 L139.15,145.755 Z" stroke="none" transform="translate(0,200)" />
        <path id="Baseline-S" d="M18,146 l800,0" />
        <path id="left-margin-Ultralight-M" d="M231.591,256 l0,110" />
        <path id="right-margin-Ultralight-M" d="M298.409,256 l0,110" />
        <path id="left-margin-Regular-M" d="M431.591,256 l0,110" />
        <path id="right-margin-Regular-M" d="M498.409,256 l0,110" />
        <path id="left-margin-Black-M" d="M631.591,256 l0,110" />
        <path id="right-margin-Black-M" d="M698.409,256 l0,110" />
        <path id="Capline-M" d="M18,276 l800,0" />
        <path id="Baseline-M" d="M18,346 l800,0" />
        <path id="Capline-L" d="M18,476 l800,0" />
        <path id="Baseline-L" d="M18,546 l800,0" />
    </g>
    <g id="Symbols">
        <g id="Ultralight-M" transform="translate(0,200)">
            <path d="M261.961,79.182 L261.961,85.545 C261.961,87.303 263.32,88.727 264.998,88.727 C266.675,88.727 268.035,87.303 268.035,85.545 L268.035,79.182 C268.035,77.425 266.675,76 264.998,76 C263.32,76 261.961,77.425 261.961,79.182 Z" />
            <path d="M241.376,90.754 L245.659,95.241 C246.845,96.483 248.768,96.483 249.954,95.241 C251.14,93.998 251.14,91.984 249.954,90.741 L245.671,86.255 C244.485,85.012 242.562,85.012 241.376,86.255 C240.19,87.497 240.19,89.512 241.376,90.754 Z" />
            <path d="M289.297,114.182 L295.372,114.182 C297.049,114.182 298.409,112.757 298.409,111 C298.409,109.243 297.049,107.818 295.372,107.818 L289.297,107.818 C287.619,107.818 286.26,109.243 286.26,111 C286.26,112.757 287.619,114.182 289.297,114.182 Z" />
            <path d="M284.324,86.255 L280.042,90.741 C278.856,91.984 278.856,93.998 280.042,95.241 C281.228,96.483 283.151,96.483 284.337,95.241 L288.62,90.754 C289.806,89.512 289.806,87.497 288.62,86.255 C287.434,85.012 285.511,85.012 284.324,86.255 Z" />
            <path d="M279.983,113.586 C280.937,107.535 278.485,101.448 273.681,97.942 C268.877,94.436 262.576,94.135 257.488,97.168 C256.03,98.037 255.52,99.98 256.35,101.507 C257.18,103.035 259.034,103.568 260.492,102.699 C263.546,100.879 267.326,101.059 270.208,103.163 C273.091,105.267 274.562,108.919 273.99,112.55 C273.716,114.284 274.837,115.921 276.492,116.208 C278.147,116.494 279.71,115.32 279.983,113.586 Z" />
            <path d="M240.092,134.547 C237.103,130.367 236.854,124.698 239.465,120.249 C242.077,115.8 247.018,113.474 251.928,114.382 C256.838,115.29 260.719,119.248 261.718,124.365 C262.007,125.846 263.251,126.909 264.694,126.909 L268.035,126.909 C270.562,126.905 272.825,128.535 273.724,131.004 C274.624,133.472 273.973,136.266 272.09,138.024 C270.837,139.193 270.726,141.204 271.842,142.517 C272.958,143.829 274.878,143.945 276.13,142.776 C279.897,139.26 281.198,133.672 279.4,128.734 C277.6,123.797 273.076,120.538 268.031,120.545 L264.694,120.545 L267.67,123.09 C266.171,115.414 260.349,109.477 252.984,108.115 C245.619,106.753 238.208,110.242 234.291,116.916 C230.374,123.59 230.746,132.093 235.231,138.362 C236.237,139.769 238.14,140.055 239.483,139.001 C240.825,137.947 241.098,135.953 240.092,134.547 Z" />
            <path d="M258.923,136.455 L258.923,142.818 C258.923,144.575 260.283,146 261.961,146 C263.638,146 264.998,144.575 264.998,142.818 L264.998,136.455 C264.998,134.697 263.638,133.273 261.961,133.273 C260.283,133.273 258.923,134.697 258.923,136.455 Z" />
            <path d="M246.774,133.273 L246.774,139.636 C246.774,141.394 248.133,142.818 249.811,142.818 C251.488,142.818 252.848,141.394 252.848,139.636 L252.848,133.273 C252.848,131.515 251.488,130.091 249.811,130.091 C248.133,130.091 246.774,131.515 246.774,133.273 Z" />
        </g>
        <g id="Regular-M" transform="translate(0,200)">
            <path d="M461.961,79.182 L461.961,85.545 C461.961,87.303 463.32,88.727 464.998,88.727 C466.675,88.727 468.035,87.303 468.035,85.545 L468.035,79.182 C468.035,77.425 466.675,76 464.998,76 C463.32,76 461.961,77.425 461.961,79.182 Z" />
            <path d="M441.376,90.754 L445.659,95.241 C446.845,96.483 448.768,96.483 449.954,95.241 C451.14,93.998 451.14,91.984 449.954,90.741 L445.671,86.255 C444.485,85.012 442.562,85.012 441.376,86.255 C440.19,87.497 440.19,89.512 441.376,90.754 Z" />
            <path d="M489.297,114.182 L495.372,114.182 C497.049,114.182 498.409,112.757 498.409,111 C498.409,109.243 497.049,107.818 495.372,107.818 L489.297,107.818 C487.619,107.818 486.26,109.243 486.26,111 C486.26,112.757 487.619,114.182 489.297,114.182 Z" />
            <path d="M484.324,86.255 L480.042,90.741 C478.856,91.984 478.856,93.998 480.042,95.241 C481.228,96.483 483.151,96.483 484.337,95.241 L488.62,90.754 C489.806,89.512 489.806,87.497 488.62,86.255 C487.434,85.012 485.511,85.012 484.324,86.255 Z" />
            <path d="M479.983,113.586 C480.937,107.535 478.485,101.448 473.681,97.942 C468.877,94.436 462.576,94.135 457.488,97.168 C456.03,98.037 455.52,99.98 456.35,101.507 C457.18,103.035 459.034,103.568 460.492,102.699 C463.546,100.879 467.326,101.059 470.208,103.163 C473.091,105.267 474.562,108.919 473.99,112.55 C473.716,114.284 474.837,115.921 476.492,116.208 C478.147,116.494 479.71,115.32 479.983,113.586 Z" />
            <path d="M440.092,134.547 C437.103,130.367 436.854,124.698 439.465,120.249 C442.077,115.8 447.018,113.474 451.928,114.382 C456.838,115.29 460.719,119.248 461.718,124.365 C462.007,125.846 463.251,126.909 464.694,126.909 L468.035,126.909 C470.562,126.905 472.825,128.535 473.724,131.004 C474.624,133.472 473.973,136.266 472.09,138.024 C470.837,139.193 470.726,141.204 471.842,142.517 C472.958,143.829 474.878,143.945 476.13,142.776 C479.897,139.26 481.198,133.672 479.4,128.734 C477.6,123.797 473.076,120.538 468.031,120.545 L464.694,120.545 L467.67,123.09 C466.171,115.414 460.349,109.477 452.984,108.115 C445.619,106.753 438.208,110.242 434.291,116.916 C430.374,123.59 430.746,132.093 435.231,138.362 C436.237,139.769 438.14,140.055 439.483,139.001 C440.825,137.947 441.098,135.953 440.092,134.547 Z" />
            <path d="M458.923,136.455 L458.923,142.818 C458.923,144.575 460.283,146 461.961,146 C463.638,146 464.998,144.575 464.998,142.818 L464.998,136.455 C464.998,134.697 463.638,133.273 461.961,133.273 C460.283,133.273 458.923,134.697 458.923,136.455 Z" />
            <path d="M446.774,133.273 L446.774,139.636 C446.774,141.394 448.133,142.818 449.811,142.818 C451.488,142.818 452.848,141.394 452.848,139.636 L452.848,133.273 C452.848,131.515 451.488,130.091 449.811,130.091 C448.133,130.091 446.774,131.515 446.774,133.273 Z" />
        </g>
        <g id="Black-M" transform="translate(0,200)">
            <path d="M661.96,79.182 L661.96,85.545 C661.96,87.303 663.32,88.727 664.998,88.727 C666.675,88.727 668.035,87.303 668.035,85.545 L668.035,79.182 C668.035,77.425 666.675,76 664.998,76 C663.32,76 661.96,77.425 661.96,79.182 Z" />
            <path d="M641.376,90.754 L645.659,95.241 C646.845,96.483 648.768,96.483 649.954,95.241 C651.14,93.998 651.14,91.984 649.954,90.741 L645.671,86.255 C644.485,85.012 642.562,85.012 641.376,86.255 C640.19,87.497 640.19,89.512 641.376,90.754 Z" />
            <path d="M689.297,114.182 L695.372,114.182 C697.049,114.182 698.409,112.757 698.409,111 C698.409,109.243 697.049,107.818 695.372,107.818 L689.297,107.818 C687.619,107.818 686.26,109.243 686.26,111 C686.26,112.757 687.619,114.182 689.297,114.182 Z" />
            <path d="M684.324,86.255 L680.042,90.741 C678.856,91.984 678.856,93.998 680.042,95.241 C681.228,96.483 683.151,96.483 684.337,95.241 L688.62,90.754 C689.806,89.512 689.806,87.497 688.62,86.255 C687.434,85.012 685.511,85.012 684.324,86.255 Z" />
            <path d="M679.983,113.586 C680.937,107.535 678.485,101.448 673.681,97.942 C668.877,94.436 662.576,94.135 657.488,97.168 C656.03,98.037 655.52,99.98 656.35,101.507 C657.18,103.035 659.034,103.568 660.492,102.699 C663.545,100.879 667.326,101.059 670.208,103.163 C673.091,105.267 674.562,108.919 673.99,112.55 C673.716,114.284 674.837,115.921 676.492,116.208 C678.147,116.494 679.71,115.32 679.983,113.586 Z" />
            <path d="M640.092,134.547 C637.103,130.367 636.854,124.698 639.465,120.249 C642.077,115.8 647.018,113.474 651.928,114.382 C656.837,115.29 660.719,119.248 661.718,124.365 C662.007,125.846 663.251,126.909 664.694,126.909 L668.035,126.909 C670.562,126.905 672.825,128.535 673.724,131.004 C674.624,133.472 673.973,136.266 672.09,138.024 C670.837,139.193 670.726,141.204 671.842,142.517 C672.958,143.829 674.878,143.945 676.13,142.776 C679.897,139.26 681.198,133.672 679.399,128.734 C677.6,123.797 673.076,120.538 668.031,120.545 L664.694,120.545 L667.67,123.09 C666.171,115.414 660.349,109.477 652.984,108.115 C645.619,106.753 638.208,110.242 634.291,116.916 C630.374,123.59 630.746,132.093 635.231,138.362 C636.237,139.769 638.14,140.055 639.483,139.001 C640.825,137.947 641.098,135.953 640.092,134.547 Z" />
            <path d="M658.923,136.455 L658.923,142.818 C658.923,144.575 660.283,146 661.96,146 C663.638,146 664.998,144.575 664.998,142.818 L664.998,136.455 C664.998,134.697 663.638,133.273 661.96,133.273 C660.283,133.273 658.923,134.697 658.923,136.455 Z" />
            <path d="M646.774,133.273 L646.774,139.636 C646.774,141.394 648.133,142.818 649.811,142.818 C651.488,142.818 652.848,141.394 652.848,139.636 L652.848,133.273 C652.848,131.515 651.488,130.091 649.811,130.091 C648.133,130.091 646.774,131.515 646.774,133.273 Z" />
        </g>
    </g>
</svg>