<?xml version="1.0" encoding="UTF-8"?>
<svg height="600" width="800" xmlns="http://www.w3.org/2000/svg" xmlns:xlink="http://www.w3.org/1999/xlink">
    <g id="Notes" font-family="LucidaGrande, 'Lucida Grande', sans-serif" font-size="13">
        <rect fill="white" height="600.0" width="800.0" x="0.0" y="0.0" />
        <g font-size="13">
            <text x="18.0" y="176.0">Small</text>
            <text x="18.0" y="376.0">Medium</text>
            <text x="18.0" y="576.0">Large</text>
        </g>
        <g font-size="9">
            <text x="250.0" y="30.0">Ultralight</text>
            <text x="450.0" y="30.0">Regular</text>
            <text x="650.0" y="30.0">Black</text>
            <text id="template-version" fill="#505050" text-anchor="end" x="785.0" y="575.0">Template v.3.0</text>
            <a href="https://github.com/swhitty/SwiftDraw">
                <text fill="#505050" text-anchor="end" x="785.0" y="590.0">https://github.com/swhitty/SwiftDraw</text>
            </a>
        </g>
    </g>
    <g id="Guides" stroke="rgb(39, 170, 225)" stroke-width="0.5">
        <path id="Capline-S" d="M18,76 l800,0" />
        <path id="H-reference" d="M85,145.755 L87.685,145.755 L113.369,79.287 L114.052,79.287 L114.052,76 L112.148,76 L85,145.755 Z M95.693,121.536 L130.996,121.536 L130.263,119.313 L96.474,119.313 L95.693,121.536 Z M139.15,145.755 L141.787,145.755 L114.638,76 L113.466,76 L113.466,79.287 L139.15,145.755 Z" stroke="none" transform="translate(0,200)" />
        <path id="Baseline-S" d="M18,146 l800,0" />
        <path id="left-margin-Ultralight-M" d="M225.625,256 l0,110" />
        <path id="right-margin-Ultralight-M" d="M304.375,256 l0,110" />
        <path id="left-margin-Regular-M" d="M425.625,256 l0,110" />
        <path id="right-margin-Regular-M" d="M504.375,256 l0,110" />
        <path id="left-margin-Black-M" d="M625.625,256 l0,110" />
        <path id="right-margin-Black-M" d="M704.375,256 l0,110" />
        <path id="Capline-M" d="M18,276 l800,0" />
        <path id="Baseline-M" d="M18,346 l800,0" />
        <path id="Capline-L" d="M18,476 l800,0" />
        <path id="Baseline-L" d="M18,546 l800,0" />
    </g>
    <g id="Symbols">
        <g id="Ultralight-M" transform="translate(0,200)">
            <path d="M230,84.75 L300,84.75 C302.416,84.75 304.375,82.791 304.375,80.375 C304.375,77.959 302.416,76 300,76 L230,76 C227.584,76 225.625,77.959 225.625,80.375 C225.625,82.791 227.584,84.75 230,84.75 Z" />
            <path d="M230,115.375 L300,115.375 C302.416,115.375 304.375,113.416 304.375,111 C304.375,108.584 302.416,106.625 300,106.625 L230,106.625 C227.584,106.625 225.625,108.584 225.625,111 C225.625,113.416 227.584,115.375 230,115.375 Z" />
            <path d="M230,146 L300,146 C302.416,146 304.375,144.041 304.375,141.625 C304.375,139.209 302.416,137.25 300,137.25 L230,137.25 C227.584,137.25 225.625,139.209 225.625,141.625 C225.625,144.041 227.584,146 230,146 Z" />
        </g>
        <g id="Regular-M" transform="translate(0,200)">
            <path d="M430,84.75 L500,84.75 C502.416,84.75 504.375,82.791 504.375,80.375 C504.375,77.959 502.416,76 500,76 L430,76 C427.584,76 425.625,77.959 425.625,80.375 C425.625,82.791 427.584,84.75 430,84.75 Z" />
            <path d="M430,115.375 L500,115.375 C502.416,115.375 504.375,113.416 504.375,111 C504.375,108.584 502.416,106.625 500,106.625 L430,106.625 C427.584,106.625 425.625,108.584 425.625,111 C425.625,113.416 427.584,115.375 430,115.375 Z" />
            <path d="M430,146 L500,146 C502.416,146 504.375,144.041 504.375,141.625 C504.375,139.209 502.416,137.25 500,137.25 L430,137.25 C427.584,137.25 425.625,139.209 425.625,141.625 C425.625,144.041 427.584,146 430,146 Z" />
        </g>
        <g id="Black-M" transform="translate(0,200)">
            <path d="M630,84.75 L700,84.75 C702.416,84.75 704.375,82.791 704.375,80.375 C704.375,77.959 702.416,76 700,76 L630,76 C627.584,76 625.625,77.959 625.625,80.375 C625.625,82.791 627.584,84.75 630,84.75 Z" />
            <path d="M630,115.375 L700,115.375 C702.416,115.375 704.375,113.416 704.375,111 C704.375,108.584 702.416,106.625 700,106.625 L630,106.625 C627.584,106.625 625.625,108.584 625.625,111 C625.625,113.416 627.584,115.375 630,115.375 Z" />
            <path d="M630,146 L700,146 C702.416,146 704.375,144.041 704.375,141.625 C704.375,139.209 702.416,137.25 700,137.25 L630,137.25 C627.584,137.25 625.625,139.209 625.625,141.625 C625.625,144.041 627.584,146 630,146 Z" />
        </g>
    </g>
</svg>