<?xml version="1.0" encoding="UTF-8"?>
<svg height="600" width="800" xmlns="http://www.w3.org/2000/svg" xmlns:xlink="http://www.w3.org/1999/xlink">
    <g id="Notes" font-family="LucidaGrande, 'Lucida Grande', sans-serif" font-size="13">
        <rect fill="white" height="600.0" width="800.0" x="0.0" y="0.0" />
        <g font-size="13">
            <text x="18.0" y="176.0">Small</text>
            <text x="18.0" y="376.0">Medium</text>
            <text x="18.0" y="576.0">Large</text>
        </g>
        <g font-size="9">
            <text x="250.0" y="30.0">Ultralight</text>
            <text x="450.0" y="30.0">Regular</text>
            <text x="650.0" y="30.0">Black</text>
            <text id="template-version" fill="#505050" text-anchor="end" x="785.0" y="575.0">Template v.3.0</text>
            <a href="https://github.com/swhitty/SwiftDraw">
                <text fill="#505050" text-anchor="end" x="785.0" y="590.0">https://github.com/swhitty/SwiftDraw</text>
            </a>
        </g>
    </g>
    <g id="Guides" stroke="rgb(39, 170, 225)" stroke-width="0.5">
        <path id="Capline-S" d="M18,76 l800,0" />
        <path id="H-reference" d="M85,145.755 L87.685,145.755 L113.369,79.287 L114.052,79.287 L114.052,76 L112.148,76 L85,145.755 Z M95.693,121.536 L130.996,121.536 L130.263,119.313 L96.474,119.313 L95.693,121.536 Z M139.15,145.755 L141.787,145.755 L114.638,76 L113.466,76 L113.466,79.287 L139.15,145.755 Z" stroke="none" transform="translate(0,200)" />
        <path id="Baseline-S" d="M18,146 l800,0" />
        <path id="left-margin-Ultralight-M" d="M236.364,256 l0,110" />
        <path id="right-margin-Ultralight-M" d="M293.636,256 l0,110" />
        <path id="left-margin-Regular-M" d="M436.364,256 l0,110" />
        <path id="right-margin-Regular-M" d="M493.636,256 l0,110" />
        <path id="left-margin-Black-M" d="M636.364,256 l0,110" />
        <path id="right-margin-Black-M" d="M693.636,256 l0,110" />
        <path id="Capline-M" d="M18,276 l800,0" />
        <path id="Baseline-M" d="M18,346 l800,0" />
        <path id="Capline-L" d="M18,476 l800,0" />
        <path id="Baseline-L" d="M18,546 l800,0" />
    </g>
    <g id="Symbols">
        <g id="Ultralight-M" transform="translate(0,200)">
            <path d="M239.545,114.182 L239.577,114.182 C241.335,114.182 242.759,112.757 242.759,111 C242.759,109.243 241.335,107.818 239.577,107.818 L239.545,107.818 C237.788,107.818 236.364,109.243 236.364,111 C236.364,112.757 237.788,114.182 239.545,114.182 Z" />
            <path d="M239.545,126.909 L239.577,126.909 C241.335,126.909 242.759,125.485 242.759,123.727 C242.759,121.97 241.335,120.545 239.577,120.545 L239.545,120.545 C237.788,120.545 236.364,121.97 236.364,123.727 C236.364,125.485 237.788,126.909 239.545,126.909 Z" />
            <path d="M239.545,139.636 L239.577,139.636 C241.335,139.636 242.759,138.212 242.759,136.455 C242.759,134.697 241.335,133.273 239.577,133.273 L239.545,133.273 C237.788,133.273 236.364,134.697 236.364,136.455 C236.364,138.212 237.788,139.636 239.545,139.636 Z" />
            <path d="M239.545,88.727 L239.577,88.727 C241.335,88.727 242.759,87.303 242.759,85.545 C242.759,83.788 241.335,82.364 239.577,82.364 L239.545,82.364 C237.788,82.364 236.364,83.788 236.364,85.545 C236.364,87.303 237.788,88.727 239.545,88.727 Z" />
            <path d="M239.545,101.455 L239.577,101.455 C241.335,101.455 242.759,100.03 242.759,98.273 C242.759,96.515 241.335,95.091 239.577,95.091 L239.545,95.091 C237.788,95.091 236.364,96.515 236.364,98.273 C236.364,100.03 237.788,101.455 239.545,101.455 Z" />
            <path d="M254.522,117.749 C256.311,119.539 258.739,120.545 261.27,120.545 L287.273,120.545 C288.96,120.545 290.579,119.875 291.772,118.682 C292.966,117.488 293.636,115.87 293.636,114.182 L293.636,107.818 C293.636,106.13 292.966,104.512 291.772,103.318 C290.579,102.125 288.96,101.455 287.273,101.455 L261.271,101.455 C258.739,101.455 256.311,102.461 254.522,104.251 L250.023,108.75 C248.78,109.993 248.78,112.007 250.023,113.25 L254.522,117.749 Z M259.022,113.249 L254.523,108.75 L254.523,113.25 L259.022,108.751 C259.619,108.154 260.428,107.818 261.272,107.818 L287.273,107.818 C287.273,107.818 287.273,107.818 287.273,107.818 C287.273,107.818 287.273,107.818 287.273,107.818 L287.273,114.182 C287.273,114.182 287.273,114.182 287.273,114.182 C287.273,114.182 287.273,114.182 287.273,114.182 L261.271,114.182 C260.428,114.182 259.619,113.846 259.022,113.25 Z" />
            <path d="M254.522,143.203 C256.311,144.993 258.739,145.999 261.27,146 L287.273,146 C288.96,146 290.579,145.33 291.772,144.136 C292.966,142.943 293.636,141.324 293.636,139.636 L293.636,133.273 C293.636,131.585 292.966,129.966 291.773,128.773 C290.579,127.58 288.96,126.909 287.273,126.909 L261.271,126.909 C258.739,126.91 256.311,127.916 254.522,129.706 L250.023,134.205 C248.78,135.447 248.78,137.462 250.023,138.704 L254.522,143.204 Z M259.022,138.704 L254.523,134.205 L254.523,138.704 L259.022,134.205 C259.619,133.608 260.428,133.273 261.272,133.273 L287.273,133.273 C287.273,133.273 287.273,133.273 287.273,133.273 C287.273,133.273 287.273,133.273 287.273,133.273 L287.273,139.636 C287.273,139.636 287.273,139.636 287.273,139.636 C287.273,139.636 287.273,139.636 287.273,139.636 L261.271,139.636 C260.428,139.636 259.619,139.301 259.022,138.704 Z" />
            <path d="M254.522,92.294 C256.311,94.084 258.739,95.09 261.27,95.091 L287.273,95.091 C288.96,95.091 290.579,94.42 291.772,93.227 C292.966,92.034 293.636,90.415 293.636,88.727 L293.636,82.364 C293.636,80.676 292.966,79.057 291.772,77.864 C290.579,76.67 288.96,76 287.273,76 L261.271,76 C258.739,76.001 256.311,77.007 254.522,78.797 L250.023,83.296 C248.78,84.538 248.78,86.553 250.023,87.795 L254.522,92.294 Z M259.022,87.795 L254.523,83.296 L254.523,87.795 L259.022,83.296 C259.619,82.699 260.428,82.364 261.272,82.364 L287.273,82.364 C287.273,82.364 287.273,82.364 287.273,82.364 C287.273,82.364 287.273,82.364 287.273,82.364 L287.273,88.727 C287.273,88.727 287.273,88.727 287.273,88.727 C287.273,88.727 287.273,88.727 287.273,88.727 L261.271,88.727 C260.428,88.727 259.619,88.392 259.022,87.795 Z" />
        </g>
        <g id="Regular-M" transform="translate(0,200)">
            <path d="M439.545,114.182 L439.577,114.182 C441.335,114.182 442.759,112.757 442.759,111 C442.759,109.243 441.335,107.818 439.577,107.818 L439.545,107.818 C437.788,107.818 436.364,109.243 436.364,111 C436.364,112.757 437.788,114.182 439.545,114.182 Z" />
            <path d="M439.545,126.909 L439.577,126.909 C441.335,126.909 442.759,125.485 442.759,123.727 C442.759,121.97 441.335,120.545 439.577,120.545 L439.545,120.545 C437.788,120.545 436.364,121.97 436.364,123.727 C436.364,125.485 437.788,126.909 439.545,126.909 Z" />
            <path d="M439.545,139.636 L439.577,139.636 C441.335,139.636 442.759,138.212 442.759,136.455 C442.759,134.697 441.335,133.273 439.577,133.273 L439.545,133.273 C437.788,133.273 436.364,134.697 436.364,136.455 C436.364,138.212 437.788,139.636 439.545,139.636 Z" />
            <path d="M439.545,88.727 L439.577,88.727 C441.335,88.727 442.759,87.303 442.759,85.545 C442.759,83.788 441.335,82.364 439.577,82.364 L439.545,82.364 C437.788,82.364 436.364,83.788 436.364,85.545 C436.364,87.303 437.788,88.727 439.545,88.727 Z" />
            <path d="M439.545,101.455 L439.577,101.455 C441.335,101.455 442.759,100.03 442.759,98.273 C442.759,96.515 441.335,95.091 439.577,95.091 L439.545,95.091 C437.788,95.091 436.364,96.515 436.364,98.273 C436.364,100.03 437.788,101.455 439.545,101.455 Z" />
            <path d="M454.522,117.749 C456.311,119.539 458.739,120.545 461.27,120.545 L487.273,120.545 C488.96,120.545 490.579,119.875 491.772,118.682 C492.966,117.488 493.636,115.87 493.636,114.182 L493.636,107.818 C493.636,106.13 492.966,104.512 491.773,103.318 C490.579,102.125 488.96,101.455 487.273,101.455 L461.271,101.455 C458.739,101.455 456.311,102.461 454.522,104.251 L450.023,108.75 C448.78,109.993 448.78,112.007 450.023,113.25 L454.522,117.749 Z M459.022,113.249 L454.523,108.75 L454.523,113.25 L459.022,108.751 C459.619,108.154 460.428,107.818 461.272,107.818 L487.273,107.818 C487.273,107.818 487.273,107.818 487.273,107.818 C487.273,107.818 487.273,107.818 487.273,107.818 L487.273,114.182 C487.273,114.182 487.273,114.182 487.273,114.182 C487.273,114.182 487.273,114.182 487.273,114.182 L461.271,114.182 C460.428,114.182 459.619,113.846 459.022,113.25 Z" />
            <path d="M454.522,143.203 C456.311,144.993 458.739,145.999 461.27,146 L487.273,146 C488.96,146 490.579,145.33 491.772,144.136 C492.966,142.943 493.636,141.324 493.636,139.636 L493.636,133.273 C493.636,131.585 492.966,129.966 491.773,128.773 C490.579,127.58 488.96,126.909 487.273,126.909 L461.271,126.909 C458.739,126.91 456.311,127.916 454.522,129.706 L450.023,134.205 C448.78,135.447 448.78,137.462 450.023,138.704 L454.522,143.204 Z M459.022,138.704 L454.523,134.205 L454.523,138.704 L459.022,134.205 C459.619,133.608 460.428,133.273 461.272,133.273 L487.273,133.273 C487.273,133.273 487.273,133.273 487.273,133.273 C487.273,133.273 487.273,133.273 487.273,133.273 L487.273,139.636 C487.273,139.636 487.273,139.636 487.273,139.636 C487.273,139.636 487.273,139.636 487.273,139.636 L461.271,139.636 C460.428,139.636 459.619,139.301 459.022,138.704 Z" />
            <path d="M454.522,92.294 C456.311,94.084 458.739,95.09 461.27,95.091 L487.273,95.091 C488.96,95.091 490.579,94.42 491.772,93.227 C492.966,92.034 493.636,90.415 493.636,88.727 L493.636,82.364 C493.636,80.676 492.966,79.057 491.773,77.864 C490.579,76.67 488.96,76 487.273,76 L461.271,76 C458.739,76.001 456.311,77.007 454.522,78.797 L450.023,83.296 C448.78,84.538 448.78,86.553 450.023,87.795 L454.522,92.294 Z M459.022,87.795 L454.523,83.296 L454.523,87.795 L459.022,83.296 C459.619,82.699 460.428,82.364 461.272,82.364 L487.273,82.364 C487.273,82.364 487.273,82.364 487.273,82.364 C487.273,82.364 487.273,82.364 487.273,82.364 L487.273,88.727 C487.273,88.727 487.273,88.727 487.273,88.727 C487.273,88.727 487.273,88.727 487.273,88.727 L461.271,88.727 C460.428,88.727 459.619,88.392 459.022,87.795 Z" />
        </g>
        <g id="Black-M" transform="translate(0,200)">
            <path d="M639.545,114.182 L639.577,114.182 C641.335,114.182 642.759,112.757 642.759,111 C642.759,109.243 641.335,107.818 639.577,107.818 L639.545,107.818 C637.788,107.818 636.364,109.243 636.364,111 C636.364,112.757 637.788,114.182 639.545,114.182 Z" />
            <path d="M639.545,126.909 L639.577,126.909 C641.335,126.909 642.759,125.485 642.759,123.727 C642.759,121.97 641.335,120.545 639.577,120.545 L639.545,120.545 C637.788,120.545 636.364,121.97 636.364,123.727 C636.364,125.485 637.788,126.909 639.545,126.909 Z" />
            <path d="M639.545,139.636 L639.577,139.636 C641.335,139.636 642.759,138.212 642.759,136.455 C642.759,134.697 641.335,133.273 639.577,133.273 L639.545,133.273 C637.788,133.273 636.364,134.697 636.364,136.455 C636.364,138.212 637.788,139.636 639.545,139.636 Z" />
            <path d="M639.545,88.727 L639.577,88.727 C641.335,88.727 642.759,87.303 642.759,85.545 C642.759,83.788 641.335,82.364 639.577,82.364 L639.545,82.364 C637.788,82.364 636.364,83.788 636.364,85.545 C636.364,87.303 637.788,88.727 639.545,88.727 Z" />
            <path d="M639.545,101.455 L639.577,101.455 C641.335,101.455 642.759,100.03 642.759,98.273 C642.759,96.515 641.335,95.091 639.577,95.091 L639.545,95.091 C637.788,95.091 636.364,96.515 636.364,98.273 C636.364,100.03 637.788,101.455 639.545,101.455 Z" />
            <path d="M654.522,117.749 C656.311,119.539 658.739,120.545 661.27,120.545 L687.273,120.545 C688.96,120.545 690.579,119.875 691.773,118.682 C692.966,117.488 693.636,115.87 693.636,114.182 L693.636,107.818 C693.636,106.13 692.966,104.512 691.773,103.318 C690.579,102.125 688.96,101.455 687.273,101.455 L661.271,101.455 C658.739,101.455 656.311,102.461 654.522,104.251 L650.023,108.75 C648.78,109.993 648.78,112.007 650.023,113.25 L654.522,117.749 Z M659.022,113.249 L654.523,108.75 L654.523,113.25 L659.022,108.751 C659.619,108.154 660.428,107.818 661.272,107.818 L687.273,107.818 C687.273,107.818 687.273,107.818 687.273,107.818 C687.273,107.818 687.273,107.818 687.273,107.818 L687.273,114.182 C687.273,114.182 687.273,114.182 687.273,114.182 C687.273,114.182 687.273,114.182 687.273,114.182 L661.271,114.182 C660.428,114.182 659.619,113.846 659.022,113.25 Z" />
            <path d="M654.522,143.203 C656.311,144.993 658.739,145.999 661.27,146 L687.273,146 C688.96,146 690.579,145.33 691.773,144.136 C692.966,142.943 693.636,141.324 693.636,139.636 L693.636,133.273 C693.636,131.585 692.966,129.966 691.773,128.773 C690.579,127.58 688.96,126.909 687.273,126.909 L661.271,126.909 C658.739,126.91 656.311,127.916 654.522,129.706 L650.023,134.205 C648.78,135.447 648.78,137.462 650.023,138.704 L654.522,143.204 Z M659.022,138.704 L654.523,134.205 L654.523,138.704 L659.022,134.205 C659.619,133.608 660.428,133.273 661.272,133.273 L687.273,133.273 C687.273,133.273 687.273,133.273 687.273,133.273 C687.273,133.273 687.273,133.273 687.273,133.273 L687.273,139.636 C687.273,139.636 687.273,139.636 687.273,139.636 C687.273,139.636 687.273,139.636 687.273,139.636 L661.271,139.636 C660.428,139.636 659.619,139.301 659.022,138.704 Z" />
            <path d="M654.522,92.294 C656.311,94.084 658.739,95.09 661.27,95.091 L687.273,95.091 C688.96,95.091 690.579,94.42 691.773,93.227 C692.966,92.034 693.636,90.415 693.636,88.727 L693.636,82.364 C693.636,80.676 692.966,79.057 691.773,77.864 C690.579,76.67 688.96,76 687.273,76 L661.271,76 C658.739,76.001 656.311,77.007 654.522,78.797 L650.023,83.296 C648.78,84.538 648.78,86.553 650.023,87.795 L654.522,92.294 Z M659.022,87.795 L654.523,83.296 L654.523,87.795 L659.022,83.296 C659.619,82.699 660.428,82.364 661.272,82.364 L687.273,82.364 C687.273,82.364 687.273,82.364 687.273,82.364 C687.273,82.364 687.273,82.364 687.273,82.364 L687.273,88.727 C687.273,88.727 687.273,88.727 687.273,88.727 C687.273,88.727 687.273,88.727 687.273,88.727 L661.271,88.727 C660.428,88.727 659.619,88.392 659.022,87.795 Z" />
        </g>
    </g>
</svg>