<?xml version="1.0" encoding="UTF-8"?>
<svg height="600" width="800" xmlns="http://www.w3.org/2000/svg" xmlns:xlink="http://www.w3.org/1999/xlink">
    <g id="Notes" font-family="LucidaGrande, 'Lucida Grande', sans-serif" font-size="13">
        <rect fill="white" height="600.0" width="800.0" x="0.0" y="0.0" />
        <g font-size="13">
            <text x="18.0" y="176.0">Small</text>
            <text x="18.0" y="376.0">Medium</text>
            <text x="18.0" y="576.0">Large</text>
        </g>
        <g font-size="9">
            <text x="250.0" y="30.0">Ultralight</text>
            <text x="450.0" y="30.0">Regular</text>
            <text x="650.0" y="30.0">Black</text>
            <text id="template-version" fill="#505050" text-anchor="end" x="785.0" y="575.0">Template v.3.0</text>
            <a href="https://github.com/swhitty/SwiftDraw">
                <text fill="#505050" text-anchor="end" x="785.0" y="590.0">https://github.com/swhitty/SwiftDraw</text>
            </a>
        </g>
    </g>
    <g id="Guides" stroke="rgb(39, 170, 225)" stroke-width="0.5">
        <path id="Capline-S" d="M18,76 l800,0" />
        <path id="H-reference" d="M85,145.755 L87.685,145.755 L113.369,79.287 L114.052,79.287 L114.052,76 L112.148,76 L85,145.755 Z M95.693,121.536 L130.996,121.536 L130.263,119.313 L96.474,119.313 L95.693,121.536 Z M139.15,145.755 L141.787,145.755 L114.638,76 L113.466,76 L113.466,79.287 L139.15,145.755 Z" stroke="none" transform="translate(0,200)" />
        <path id="Baseline-S" d="M18,146 l800,0" />
        <path id="left-margin-Ultralight-M" d="M221,256 l0,110" />
        <path id="right-margin-Ultralight-M" d="M309,256 l0,110" />
        <path id="left-margin-Regular-M" d="M421,256 l0,110" />
        <path id="right-margin-Regular-M" d="M509,256 l0,110" />
        <path id="left-margin-Black-M" d="M621,256 l0,110" />
        <path id="right-margin-Black-M" d="M709,256 l0,110" />
        <path id="Capline-M" d="M18,276 l800,0" />
        <path id="Baseline-M" d="M18,346 l800,0" />
        <path id="Capline-L" d="M18,476 l800,0" />
        <path id="Baseline-L" d="M18,546 l800,0" />
    </g>
    <g id="Symbols">
        <g id="Ultralight-M" transform="translate(0,200)">
            <path d="M258.327,95.907 C251.699,93.575 244.325,95.841 240.15,101.492 C235.974,107.143 235.974,114.857 240.15,120.508 C244.325,126.159 251.699,128.425 258.327,126.093 C260.411,125.36 261.506,123.077 260.773,120.993 C260.04,118.909 257.757,117.814 255.673,118.547 C252.358,119.713 248.671,118.58 246.584,115.754 C244.496,112.929 244.496,109.071 246.584,106.246 C248.671,103.42 252.358,102.287 255.673,103.453 C257.757,104.186 260.04,103.091 260.773,101.007 C261.506,98.923 260.411,96.64 258.327,95.907 Z" />
            <path d="M286.327,95.907 C279.699,93.575 272.325,95.841 268.15,101.492 C263.974,107.143 263.974,114.857 268.15,120.508 C272.325,126.159 279.699,128.425 286.327,126.093 C288.411,125.36 289.506,123.077 288.773,120.993 C288.04,118.909 285.757,117.814 283.673,118.547 C280.358,119.713 276.671,118.58 274.584,115.754 C272.496,112.929 272.496,109.071 274.584,106.246 C276.671,103.42 280.358,102.287 283.673,103.453 C285.757,104.186 288.04,103.091 288.773,101.007 C289.506,98.923 288.411,96.64 286.327,95.907 Z" />
            <path d="M301,111 L301,131 C301,132.061 300.579,133.078 299.828,133.828 C299.078,134.579 298.061,135 297,135 L233,135 C231.939,135 230.922,134.579 230.172,133.828 C229.421,133.078 229,132.061 229,131 L229,91 C229,89.939 229.421,88.922 230.172,88.172 C230.922,87.421 231.939,87 233,87 L297,87 C298.061,87 299.078,87.421 299.828,88.172 C300.579,88.922 301,89.939 301,91 L301,111 Z M309,111 L309,91 C309,87.817 307.736,84.765 305.485,82.515 C303.235,80.264 300.183,79 297,79 L233,79 C229.817,79 226.765,80.264 224.515,82.515 C222.264,84.765 221,87.817 221,91 L221,131 C221,134.183 222.264,137.235 224.515,139.485 C226.765,141.736 229.817,143 233,143 L297,143 C300.183,143 303.235,141.736 305.485,139.485 C307.736,137.235 309,134.183 309,131 L309,111 Z" />
        </g>
        <g id="Regular-M" transform="translate(0,200)">
            <path d="M458.327,95.907 C451.699,93.575 444.325,95.841 440.15,101.492 C435.974,107.143 435.974,114.857 440.15,120.508 C444.325,126.159 451.699,128.425 458.327,126.093 C460.411,125.36 461.506,123.077 460.773,120.993 C460.04,118.909 457.757,117.814 455.673,118.547 C452.358,119.713 448.671,118.58 446.584,115.754 C444.496,112.929 444.496,109.071 446.584,106.246 C448.671,103.42 452.358,102.287 455.673,103.453 C457.757,104.186 460.04,103.091 460.773,101.007 C461.506,98.923 460.411,96.64 458.327,95.907 Z" />
            <path d="M486.327,95.907 C479.699,93.575 472.325,95.841 468.15,101.492 C463.974,107.143 463.974,114.857 468.15,120.508 C472.325,126.159 479.699,128.425 486.327,126.093 C488.411,125.36 489.506,123.077 488.773,120.993 C488.04,118.909 485.757,117.814 483.673,118.547 C480.358,119.713 476.671,118.58 474.584,115.754 C472.496,112.929 472.496,109.071 474.584,106.246 C476.671,103.42 480.358,102.287 483.673,103.453 C485.757,104.186 488.04,103.091 488.773,101.007 C489.506,98.923 488.411,96.64 486.327,95.907 Z" />
            <path d="M501,111 L501,131 C501,132.061 500.579,133.078 499.828,133.828 C499.078,134.579 498.061,135 497,135 L433,135 C431.939,135 430.922,134.579 430.172,133.828 C429.421,133.078 429,132.061 429,131 L429,91 C429,89.939 429.421,88.922 430.172,88.172 C430.922,87.421 431.939,87 433,87 L497,87 C498.061,87 499.078,87.421 499.828,88.172 C500.579,88.922 501,89.939 501,91 L501,111 Z M509,111 L509,91 C509,87.817 507.736,84.765 505.485,82.515 C503.235,80.264 500.183,79 497,79 L433,79 C429.817,79 426.765,80.264 424.515,82.515 C422.264,84.765 421,87.817 421,91 L421,131 C421,134.183 422.264,137.235 424.515,139.485 C426.765,141.736 429.817,143 433,143 L497,143 C500.183,143 503.235,141.736 505.485,139.485 C507.736,137.235 509,134.183 509,131 L509,111 Z" />
        </g>
        <g id="Black-M" transform="translate(0,200)">
            <path d="M658.327,95.907 C651.699,93.575 644.325,95.841 640.15,101.492 C635.974,107.143 635.974,114.857 640.15,120.508 C644.325,126.159 651.699,128.425 658.327,126.093 C660.411,125.36 661.506,123.077 660.773,120.993 C660.04,118.909 657.757,117.814 655.673,118.547 C652.358,119.713 648.672,118.58 646.584,115.754 C644.496,112.929 644.496,109.071 646.584,106.246 C648.672,103.42 652.358,102.287 655.673,103.453 C657.757,104.186 660.04,103.091 660.773,101.007 C661.506,98.923 660.411,96.64 658.327,95.907 Z" />
            <path d="M686.327,95.907 C679.699,93.575 672.325,95.841 668.15,101.492 C663.974,107.143 663.974,114.857 668.15,120.508 C672.325,126.159 679.699,128.425 686.327,126.093 C688.411,125.36 689.506,123.077 688.773,120.993 C688.04,118.909 685.757,117.814 683.673,118.547 C680.358,119.713 676.672,118.58 674.584,115.754 C672.496,112.929 672.496,109.071 674.584,106.246 C676.672,103.42 680.358,102.287 683.673,103.453 C685.757,104.186 688.04,103.091 688.773,101.007 C689.506,98.923 688.411,96.64 686.327,95.907 Z" />
            <path d="M701,111 L701,131 C701,132.061 700.579,133.078 699.828,133.828 C699.078,134.579 698.061,135 697,135 L633,135 C631.939,135 630.922,134.579 630.172,133.828 C629.421,133.078 629,132.061 629,131 L629,91 C629,89.939 629.421,88.922 630.172,88.172 C630.922,87.421 631.939,87 633,87 L697,87 C698.061,87 699.078,87.421 699.828,88.172 C700.579,88.922 701,89.939 701,91 L701,111 Z M709,111 L709,91 C709,87.817 707.736,84.765 705.485,82.515 C703.235,80.264 700.183,79 697,79 L633,79 C629.817,79 626.765,80.264 624.515,82.515 C622.264,84.765 621,87.817 621,91 L621,131 C621,134.183 622.264,137.235 624.515,139.485 C626.765,141.736 629.817,143 633,143 L697,143 C700.183,143 703.235,141.736 705.485,139.485 C707.736,137.235 709,134.183 709,131 L709,111 Z" />
        </g>
    </g>
</svg>