<?xml version="1.0" encoding="UTF-8"?>
<svg height="600" width="800" xmlns="http://www.w3.org/2000/svg" xmlns:xlink="http://www.w3.org/1999/xlink">
    <g id="Notes" font-family="LucidaGrande, 'Lucida Grande', sans-serif" font-size="13">
        <rect fill="white" height="600.0" width="800.0" x="0.0" y="0.0" />
        <g font-size="13">
            <text x="18.0" y="176.0">Small</text>
            <text x="18.0" y="376.0">Medium</text>
            <text x="18.0" y="576.0">Large</text>
        </g>
        <g font-size="9">
            <text x="250.0" y="30.0">Ultralight</text>
            <text x="450.0" y="30.0">Regular</text>
            <text x="650.0" y="30.0">Black</text>
            <text id="template-version" fill="#505050" text-anchor="end" x="785.0" y="575.0">Template v.3.0</text>
            <a href="https://github.com/swhitty/SwiftDraw">
                <text fill="#505050" text-anchor="end" x="785.0" y="590.0">https://github.com/swhitty/SwiftDraw</text>
            </a>
        </g>
    </g>
    <g id="Guides" stroke="rgb(39, 170, 225)" stroke-width="0.5">
        <path id="Capline-S" d="M18,76 l800,0" />
        <path id="H-reference" d="M85,145.755 L87.685,145.755 L113.369,79.287 L114.052,79.287 L114.052,76 L112.148,76 L85,145.755 Z M95.693,121.536 L130.996,121.536 L130.263,119.313 L96.474,119.313 L95.693,121.536 Z M139.15,145.755 L141.787,145.755 L114.638,76 L113.466,76 L113.466,79.287 L139.15,145.755 Z" stroke="none" transform="translate(0,200)" />
        <path id="Baseline-S" d="M18,146 l800,0" />
        <path id="left-margin-Ultralight-M" d="M230,256 l0,110" />
        <path id="right-margin-Ultralight-M" d="M300,256 l0,110" />
        <path id="left-margin-Regular-M" d="M430,256 l0,110" />
        <path id="right-margin-Regular-M" d="M500,256 l0,110" />
        <path id="left-margin-Black-M" d="M630,256 l0,110" />
        <path id="right-margin-Black-M" d="M700,256 l0,110" />
        <path id="Capline-M" d="M18,276 l800,0" />
        <path id="Baseline-M" d="M18,346 l800,0" />
        <path id="Capline-L" d="M18,476 l800,0" />
        <path id="Baseline-L" d="M18,546 l800,0" />
    </g>
    <g id="Symbols">
        <g id="Ultralight-M" transform="translate(0,200)">
            <path d="M284.091,91.909 L284.091,98.273 C284.091,99.117 283.756,99.926 283.159,100.523 C282.562,101.119 281.753,101.455 280.909,101.455 L249.091,101.455 C248.247,101.455 247.438,101.119 246.841,100.523 C246.244,99.926 245.909,99.117 245.909,98.273 L245.909,85.545 C245.909,84.702 246.244,83.892 246.841,83.296 C247.438,82.699 248.247,82.364 249.091,82.364 L280.909,82.364 C281.753,82.364 282.562,82.699 283.159,83.296 C283.756,83.892 284.091,84.702 284.091,85.545 L284.091,91.909 Z M290.455,91.909 L290.455,85.545 C290.455,83.014 289.449,80.586 287.659,78.796 C285.869,77.006 283.441,76 280.909,76 L249.091,76 C246.559,76 244.131,77.006 242.341,78.796 C240.551,80.586 239.545,83.014 239.545,85.545 L239.545,98.273 C239.545,100.804 240.551,103.232 242.341,105.022 C244.131,106.812 246.559,107.818 249.091,107.818 L280.909,107.818 C283.441,107.818 285.869,106.812 287.659,105.022 C289.449,103.232 290.455,100.804 290.455,98.273 L290.455,91.909 Z" />
            <path d="M293.636,130.091 L293.636,136.455 C293.636,137.298 293.301,138.108 292.704,138.704 C292.108,139.301 291.298,139.636 290.455,139.636 L239.545,139.636 C238.702,139.636 237.892,139.301 237.296,138.704 C236.699,138.108 236.364,137.298 236.364,136.455 L236.364,123.727 C236.364,122.883 236.699,122.074 237.296,121.477 C237.892,120.881 238.702,120.545 239.545,120.545 L290.455,120.545 C291.298,120.545 292.108,120.881 292.704,121.477 C293.301,122.074 293.636,122.883 293.636,123.727 L293.636,130.091 Z M300,130.091 L300,123.727 C300,121.196 298.994,118.768 297.204,116.978 C295.414,115.188 292.986,114.182 290.455,114.182 L239.545,114.182 C237.014,114.182 234.586,115.188 232.796,116.978 C231.006,118.768 230,121.196 230,123.727 L230,136.455 C230,138.986 231.006,141.414 232.796,143.204 C234.586,144.994 237.014,146 239.545,146 L290.455,146 C292.986,146 295.414,144.994 297.204,143.204 C298.994,141.414 300,138.986 300,136.455 L300,130.091 Z" />
            <path d="M245.909,133.273 L252.273,133.273 C254.03,133.273 255.455,131.848 255.455,130.091 C255.455,128.334 254.03,126.909 252.273,126.909 L245.909,126.909 C244.152,126.909 242.727,128.334 242.727,130.091 C242.727,131.848 244.152,133.273 245.909,133.273 Z" />
            <path d="M265,133.273 L284.091,133.273 C285.848,133.273 287.273,131.848 287.273,130.091 C287.273,128.334 285.848,126.909 284.091,126.909 L265,126.909 C263.243,126.909 261.818,128.334 261.818,130.091 C261.818,131.848 263.243,133.273 265,133.273 Z" />
        </g>
        <g id="Regular-M" transform="translate(0,200)">
            <path d="M484.091,91.909 L484.091,98.273 C484.091,99.117 483.756,99.926 483.159,100.523 C482.562,101.119 481.753,101.455 480.909,101.455 L449.091,101.455 C448.247,101.455 447.438,101.119 446.841,100.523 C446.244,99.926 445.909,99.117 445.909,98.273 L445.909,85.545 C445.909,84.702 446.244,83.892 446.841,83.296 C447.438,82.699 448.247,82.364 449.091,82.364 L480.909,82.364 C481.753,82.364 482.562,82.699 483.159,83.296 C483.756,83.892 484.091,84.702 484.091,85.545 L484.091,91.909 Z M490.455,91.909 L490.455,85.545 C490.455,83.014 489.449,80.586 487.659,78.796 C485.869,77.006 483.441,76 480.909,76 L449.091,76 C446.559,76 444.131,77.006 442.341,78.796 C440.551,80.586 439.545,83.014 439.545,85.545 L439.545,98.273 C439.545,100.804 440.551,103.232 442.341,105.022 C444.131,106.812 446.559,107.818 449.091,107.818 L480.909,107.818 C483.441,107.818 485.869,106.812 487.659,105.022 C489.449,103.232 490.455,100.804 490.455,98.273 L490.455,91.909 Z" />
            <path d="M493.636,130.091 L493.636,136.455 C493.636,137.298 493.301,138.108 492.704,138.704 C492.108,139.301 491.298,139.636 490.455,139.636 L439.545,139.636 C438.702,139.636 437.892,139.301 437.296,138.704 C436.699,138.108 436.364,137.298 436.364,136.455 L436.364,123.727 C436.364,122.883 436.699,122.074 437.296,121.477 C437.892,120.881 438.702,120.545 439.545,120.545 L490.455,120.545 C491.298,120.545 492.108,120.881 492.704,121.477 C493.301,122.074 493.636,122.883 493.636,123.727 L493.636,130.091 Z M500,130.091 L500,123.727 C500,121.196 498.994,118.768 497.204,116.978 C495.414,115.188 492.986,114.182 490.455,114.182 L439.545,114.182 C437.014,114.182 434.586,115.188 432.796,116.978 C431.006,118.768 430,121.196 430,123.727 L430,136.455 C430,138.986 431.006,141.414 432.796,143.204 C434.586,144.994 437.014,146 439.545,146 L490.455,146 C492.986,146 495.414,144.994 497.204,143.204 C498.994,141.414 500,138.986 500,136.455 L500,130.091 Z" />
            <path d="M445.909,133.273 L452.273,133.273 C454.03,133.273 455.455,131.848 455.455,130.091 C455.455,128.334 454.03,126.909 452.273,126.909 L445.909,126.909 C444.152,126.909 442.727,128.334 442.727,130.091 C442.727,131.848 444.152,133.273 445.909,133.273 Z" />
            <path d="M465,133.273 L484.091,133.273 C485.848,133.273 487.273,131.848 487.273,130.091 C487.273,128.334 485.848,126.909 484.091,126.909 L465,126.909 C463.243,126.909 461.818,128.334 461.818,130.091 C461.818,131.848 463.243,133.273 465,133.273 Z" />
        </g>
        <g id="Black-M" transform="translate(0,200)">
            <path d="M684.091,91.909 L684.091,98.273 C684.091,99.117 683.756,99.926 683.159,100.523 C682.562,101.119 681.753,101.455 680.909,101.455 L649.091,101.455 C648.247,101.455 647.438,101.119 646.841,100.523 C646.244,99.926 645.909,99.117 645.909,98.273 L645.909,85.545 C645.909,84.702 646.244,83.892 646.841,83.296 C647.438,82.699 648.247,82.364 649.091,82.364 L680.909,82.364 C681.753,82.364 682.562,82.699 683.159,83.296 C683.756,83.892 684.091,84.702 684.091,85.545 L684.091,91.909 Z M690.455,91.909 L690.455,85.545 C690.455,83.014 689.449,80.586 687.659,78.796 C685.869,77.006 683.441,76 680.909,76 L649.091,76 C646.559,76 644.131,77.006 642.341,78.796 C640.551,80.586 639.545,83.014 639.545,85.545 L639.545,98.273 C639.545,100.804 640.551,103.232 642.341,105.022 C644.131,106.812 646.559,107.818 649.091,107.818 L680.909,107.818 C683.441,107.818 685.869,106.812 687.659,105.022 C689.449,103.232 690.455,100.804 690.455,98.273 L690.455,91.909 Z" />
            <path d="M693.636,130.091 L693.636,136.455 C693.636,137.298 693.301,138.108 692.704,138.704 C692.108,139.301 691.298,139.636 690.455,139.636 L639.545,139.636 C638.702,139.636 637.892,139.301 637.296,138.704 C636.699,138.108 636.364,137.298 636.364,136.455 L636.364,123.727 C636.364,122.883 636.699,122.074 637.296,121.477 C637.892,120.881 638.702,120.545 639.545,120.545 L690.455,120.545 C691.298,120.545 692.108,120.881 692.704,121.477 C693.301,122.074 693.636,122.883 693.636,123.727 L693.636,130.091 Z M700,130.091 L700,123.727 C700,121.196 698.994,118.768 697.204,116.978 C695.414,115.188 692.986,114.182 690.455,114.182 L639.545,114.182 C637.014,114.182 634.586,115.188 632.796,116.978 C631.006,118.768 630,121.196 630,123.727 L630,136.455 C630,138.986 631.006,141.414 632.796,143.204 C634.586,144.994 637.014,146 639.545,146 L690.455,146 C692.986,146 695.414,144.994 697.204,143.204 C698.994,141.414 700,138.986 700,136.455 L700,130.091 Z" />
            <path d="M645.909,133.273 L652.273,133.273 C654.03,133.273 655.455,131.848 655.455,130.091 C655.455,128.334 654.03,126.909 652.273,126.909 L645.909,126.909 C644.152,126.909 642.727,128.334 642.727,130.091 C642.727,131.848 644.152,133.273 645.909,133.273 Z" />
            <path d="M665,133.273 L684.091,133.273 C685.848,133.273 687.273,131.848 687.273,130.091 C687.273,128.334 685.848,126.909 684.091,126.909 L665,126.909 C663.243,126.909 661.818,128.334 661.818,130.091 C661.818,131.848 663.243,133.273 665,133.273 Z" />
        </g>
    </g>
</svg>