<?xml version="1.0" encoding="UTF-8"?>
<svg height="600" width="800" xmlns="http://www.w3.org/2000/svg" xmlns:xlink="http://www.w3.org/1999/xlink">
    <g id="Notes" font-family="LucidaGrande, 'Lucida Grande', sans-serif" font-size="13">
        <rect fill="white" height="600.0" width="800.0" x="0.0" y="0.0" />
        <g font-size="13">
            <text x="18.0" y="176.0">Small</text>
            <text x="18.0" y="376.0">Medium</text>
            <text x="18.0" y="576.0">Large</text>
        </g>
        <g font-size="9">
            <text x="250.0" y="30.0">Ultralight</text>
            <text x="450.0" y="30.0">Regular</text>
            <text x="650.0" y="30.0">Black</text>
            <text id="template-version" fill="#505050" text-anchor="end" x="785.0" y="575.0">Template v.3.0</text>
            <a href="https://github.com/swhitty/SwiftDraw">
                <text fill="#505050" text-anchor="end" x="785.0" y="590.0">https://github.com/swhitty/SwiftDraw</text>
            </a>
        </g>
    </g>
    <g id="Guides" stroke="rgb(39, 170, 225)" stroke-width="0.5">
        <path id="Capline-S" d="M18,76 l800,0" />
        <path id="H-reference" d="M85,145.755 L87.685,145.755 L113.369,79.287 L114.052,79.287 L114.052,76 L112.148,76 L85,145.755 Z M95.693,121.536 L130.996,121.536 L130.263,119.313 L96.474,119.313 L95.693,121.536 Z M139.15,145.755 L141.787,145.755 L114.638,76 L113.466,76 L113.466,79.287 L139.15,145.755 Z" stroke="none" transform="translate(0,200)" />
        <path id="Baseline-S" d="M18,146 l800,0" />
        <path id="left-margin-Ultralight-M" d="M230,256 l0,110" />
        <path id="right-margin-Ultralight-M" d="M300,256 l0,110" />
        <path id="left-margin-Regular-M" d="M430,256 l0,110" />
        <path id="right-margin-Regular-M" d="M500,256 l0,110" />
        <path id="left-margin-Black-M" d="M630,256 l0,110" />
        <path id="right-margin-Black-M" d="M700,256 l0,110" />
        <path id="Capline-M" d="M18,276 l800,0" />
        <path id="Baseline-M" d="M18,346 l800,0" />
        <path id="Capline-L" d="M18,476 l800,0" />
        <path id="Baseline-L" d="M18,546 l800,0" />
    </g>
    <g id="Symbols">
        <g id="Ultralight-M" transform="translate(0,200)">
            <path d="M281.475,130.975 L298.975,113.475 C300.342,112.108 300.342,109.892 298.975,108.525 L281.475,91.025 C280.108,89.658 277.892,89.658 276.525,91.025 C275.158,92.392 275.158,94.608 276.525,95.975 L294.025,113.475 L294.025,108.525 L276.525,126.025 C275.158,127.392 275.158,129.608 276.525,130.975 C277.892,132.342 280.108,132.342 281.475,130.975 Z" />
            <path d="M296.5,107.5 L254.5,107.5 C252.567,107.5 251,109.067 251,111 C251,112.933 252.567,114.5 254.5,114.5 L296.5,114.5 C298.433,114.5 300,112.933 300,111 C300,109.067 298.433,107.5 296.5,107.5 Z" />
            <path d="M254.5,139 L240.5,139 C239.572,139 238.682,138.631 238.025,137.975 C237.369,137.318 237,136.428 237,135.5 L237,86.5 C237,85.572 237.369,84.682 238.025,84.025 C238.682,83.369 239.572,83 240.5,83 L254.5,83 C256.433,83 258,81.433 258,79.5 C258,77.567 256.433,76 254.5,76 L240.5,76 C237.715,76 235.045,77.106 233.075,79.075 C231.106,81.045 230,83.715 230,86.5 L230,135.5 C230,138.285 231.106,140.955 233.075,142.925 C235.045,144.894 237.715,146 240.5,146 L254.5,146 C256.433,146 258,144.433 258,142.5 C258,140.567 256.433,139 254.5,139 Z" />
        </g>
        <g id="Regular-M" transform="translate(0,200)">
            <path d="M481.475,130.975 L498.975,113.475 C500.342,112.108 500.342,109.892 498.975,108.525 L481.475,91.025 C480.108,89.658 477.892,89.658 476.525,91.025 C475.158,92.392 475.158,94.608 476.525,95.975 L494.025,113.475 L494.025,108.525 L476.525,126.025 C475.158,127.392 475.158,129.608 476.525,130.975 C477.892,132.342 480.108,132.342 481.475,130.975 Z" />
            <path d="M496.5,107.5 L454.5,107.5 C452.567,107.5 451,109.067 451,111 C451,112.933 452.567,114.5 454.5,114.5 L496.5,114.5 C498.433,114.5 500,112.933 500,111 C500,109.067 498.433,107.5 496.5,107.5 Z" />
            <path d="M454.5,139 L440.5,139 C439.572,139 438.682,138.631 438.025,137.975 C437.369,137.318 437,136.428 437,135.5 L437,86.5 C437,85.572 437.369,84.682 438.025,84.025 C438.682,83.369 439.572,83 440.5,83 L454.5,83 C456.433,83 458,81.433 458,79.5 C458,77.567 456.433,76 454.5,76 L440.5,76 C437.715,76 435.045,77.106 433.075,79.075 C431.106,81.045 430,83.715 430,86.5 L430,135.5 C430,138.285 431.106,140.955 433.075,142.925 C435.045,144.894 437.715,146 440.5,146 L454.5,146 C456.433,146 458,144.433 458,142.5 C458,140.567 456.433,139 454.5,139 Z" />
        </g>
        <g id="Black-M" transform="translate(0,200)">
            <path d="M681.475,130.975 L698.975,113.475 C700.342,112.108 700.342,109.892 698.975,108.525 L681.475,91.025 C680.108,89.658 677.892,89.658 676.525,91.025 C675.158,92.392 675.158,94.608 676.525,95.975 L694.025,113.475 L694.025,108.525 L676.525,126.025 C675.158,127.392 675.158,129.608 676.525,130.975 C677.892,132.342 680.108,132.342 681.475,130.975 Z" />
            <path d="M696.5,107.5 L654.5,107.5 C652.567,107.5 651,109.067 651,111 C651,112.933 652.567,114.5 654.5,114.5 L696.5,114.5 C698.433,114.5 700,112.933 700,111 C700,109.067 698.433,107.5 696.5,107.5 Z" />
            <path d="M654.5,139 L640.5,139 C639.572,139 638.682,138.631 638.025,137.975 C637.369,137.318 637,136.428 637,135.5 L637,86.5 C637,85.572 637.369,84.682 638.025,84.025 C638.682,83.369 639.572,83 640.5,83 L654.5,83 C656.433,83 658,81.433 658,79.5 C658,77.567 656.433,76 654.5,76 L640.5,76 C637.715,76 635.044,77.106 633.075,79.075 C631.106,81.045 630,83.715 630,86.5 L630,135.5 C630,138.285 631.106,140.955 633.075,142.925 C635.044,144.894 637.715,146 640.5,146 L654.5,146 C656.433,146 658,144.433 658,142.5 C658,140.567 656.433,139 654.5,139 Z" />
        </g>
    </g>
</svg>