<?xml version="1.0" encoding="UTF-8"?>
<svg height="600" width="800" xmlns="http://www.w3.org/2000/svg" xmlns:xlink="http://www.w3.org/1999/xlink">
    <g id="Notes" font-family="LucidaGrande, 'Lucida Grande', sans-serif" font-size="13">
        <rect fill="white" height="600.0" width="800.0" x="0.0" y="0.0" />
        <g font-size="13">
            <text x="18.0" y="176.0">Small</text>
            <text x="18.0" y="376.0">Medium</text>
            <text x="18.0" y="576.0">Large</text>
        </g>
        <g font-size="9">
            <text x="250.0" y="30.0">Ultralight</text>
            <text x="450.0" y="30.0">Regular</text>
            <text x="650.0" y="30.0">Black</text>
            <text id="template-version" fill="#505050" text-anchor="end" x="785.0" y="575.0">Template v.3.0</text>
            <a href="https://github.com/swhitty/SwiftDraw">
                <text fill="#505050" text-anchor="end" x="785.0" y="590.0">https://github.com/swhitty/SwiftDraw</text>
            </a>
        </g>
    </g>
    <g id="Guides" stroke="rgb(39, 170, 225)" stroke-width="0.5">
        <path id="Capline-S" d="M18,76 l800,0" />
        <path id="H-reference" d="M85,145.755 L87.685,145.755 L113.369,79.287 L114.052,79.287 L114.052,76 L112.148,76 L85,145.755 Z M95.693,121.536 L130.996,121.536 L130.263,119.313 L96.474,119.313 L95.693,121.536 Z M139.15,145.755 L141.787,145.755 L114.638,76 L113.466,76 L113.466,79.287 L139.15,145.755 Z" stroke="none" transform="translate(0,200)" />
        <path id="Baseline-S" d="M18,146 l800,0" />
        <path id="left-margin-Ultralight-M" d="M233.182,256 l0,110" />
        <path id="right-margin-Ultralight-M" d="M296.818,256 l0,110" />
        <path id="left-margin-Regular-M" d="M433.182,256 l0,110" />
        <path id="right-margin-Regular-M" d="M496.818,256 l0,110" />
        <path id="left-margin-Black-M" d="M633.182,256 l0,110" />
        <path id="right-margin-Black-M" d="M696.818,256 l0,110" />
        <path id="Capline-M" d="M18,276 l800,0" />
        <path id="Baseline-M" d="M18,346 l800,0" />
        <path id="Capline-L" d="M18,476 l800,0" />
        <path id="Baseline-L" d="M18,546 l800,0" />
    </g>
    <g id="Symbols">
        <g id="Ultralight-M" transform="translate(0,200)">
            <path d="M239.543,114.181 C239.543,114.181 239.543,114.181 239.543,114.181 C239.543,114.181 239.543,114.181 239.543,114.181 L270.845,81.946 C270.48,82.375 269.669,82.525 269.014,82.174 C268.359,81.824 268.034,81.066 268.231,80.35 L262.161,99.377 C261.48,101.187 261.756,103.378 262.95,105.092 C264.143,106.807 266.102,107.826 268.191,107.819 L290.446,107.819 C290.457,107.819 290.457,107.819 290.457,107.819 C290.457,107.819 290.457,107.819 290.457,107.819 L259.155,140.054 C259.52,139.625 260.331,139.475 260.986,139.826 C261.641,140.176 261.966,140.934 261.769,141.65 L267.84,122.623 C268.52,120.813 268.244,118.622 267.05,116.908 C265.857,115.193 263.898,114.174 261.809,114.181 L239.554,114.181 Z M239.554,120.543 L261.819,120.543 C261.83,120.543 261.83,120.543 261.83,120.543 C261.83,120.543 261.83,120.543 261.83,120.543 L255.672,139.84 C255.044,142.112 256.02,144.384 257.985,145.436 C259.951,146.487 262.382,146.038 263.842,144.353 L295.209,112.039 C296.945,109.919 297.256,107.289 296.195,105.073 C295.134,102.856 292.892,101.448 290.435,101.457 L268.181,101.457 C268.17,101.457 268.17,101.457 268.17,101.457 C268.17,101.457 268.17,101.457 268.17,101.457 L274.328,82.16 C274.956,79.888 273.98,77.616 272.015,76.564 C270.049,75.513 267.618,75.962 266.158,77.647 L234.791,109.961 C233.055,112.081 232.744,114.711 233.805,116.927 C234.866,119.144 237.108,120.552 239.565,120.543 Z" />
        </g>
        <g id="Regular-M" transform="translate(0,200)">
            <path d="M439.543,114.181 C439.543,114.181 439.543,114.181 439.543,114.181 C439.543,114.181 439.543,114.181 439.543,114.181 L470.845,81.946 C470.48,82.375 469.669,82.525 469.014,82.174 C468.359,81.824 468.034,81.066 468.231,80.35 L462.161,99.377 C461.48,101.187 461.756,103.378 462.95,105.092 C464.143,106.807 466.102,107.826 468.191,107.819 L490.446,107.819 C490.457,107.819 490.457,107.819 490.457,107.819 C490.457,107.819 490.457,107.819 490.457,107.819 L459.155,140.054 C459.52,139.625 460.331,139.475 460.986,139.826 C461.641,140.176 461.966,140.934 461.769,141.65 L467.84,122.623 C468.52,120.813 468.244,118.622 467.05,116.908 C465.857,115.193 463.898,114.174 461.809,114.181 L439.554,114.181 Z M439.554,120.543 L461.819,120.543 C461.83,120.543 461.83,120.543 461.83,120.543 C461.83,120.543 461.83,120.543 461.83,120.543 L455.672,139.84 C455.044,142.112 456.02,144.384 457.985,145.436 C459.951,146.487 462.382,146.038 463.842,144.353 L495.209,112.039 C496.945,109.919 497.256,107.289 496.195,105.073 C495.134,102.856 492.892,101.448 490.435,101.457 L468.181,101.457 C468.17,101.457 468.17,101.457 468.17,101.457 C468.17,101.457 468.17,101.457 468.17,101.457 L474.328,82.16 C474.956,79.888 473.98,77.616 472.015,76.564 C470.049,75.513 467.618,75.962 466.158,77.647 L434.791,109.961 C433.055,112.081 432.744,114.711 433.805,116.927 C434.866,119.144 437.108,120.552 439.565,120.543 Z" />
        </g>
        <g id="Black-M" transform="translate(0,200)">
            <path d="M639.543,114.181 C639.543,114.181 639.543,114.181 639.543,114.181 C639.543,114.181 639.543,114.181 639.543,114.181 L670.845,81.946 C670.48,82.375 669.669,82.525 669.014,82.174 C668.359,81.824 668.034,81.066 668.231,80.35 L662.161,99.377 C661.48,101.187 661.756,103.378 662.95,105.092 C664.143,106.807 666.102,107.826 668.191,107.819 L690.446,107.819 C690.457,107.819 690.457,107.819 690.457,107.819 C690.457,107.819 690.457,107.819 690.457,107.819 L659.155,140.054 C659.52,139.625 660.331,139.475 660.986,139.826 C661.641,140.176 661.966,140.934 661.769,141.65 L667.839,122.623 C668.52,120.813 668.244,118.622 667.05,116.908 C665.857,115.193 663.898,114.174 661.809,114.181 L639.554,114.181 Z M639.554,120.543 L661.819,120.543 C661.83,120.543 661.83,120.543 661.83,120.543 C661.83,120.543 661.83,120.543 661.83,120.543 L655.672,139.84 C655.044,142.112 656.02,144.384 657.985,145.436 C659.951,146.487 662.382,146.038 663.842,144.353 L695.209,112.039 C696.945,109.919 697.256,107.289 696.195,105.073 C695.134,102.856 692.892,101.448 690.435,101.457 L668.181,101.457 C668.17,101.457 668.17,101.457 668.17,101.457 C668.17,101.457 668.17,101.457 668.17,101.457 L674.328,82.16 C674.956,79.888 673.98,77.616 672.015,76.564 C670.049,75.513 667.618,75.962 666.158,77.647 L634.791,109.961 C633.055,112.081 632.744,114.711 633.805,116.927 C634.866,119.144 637.108,120.552 639.565,120.543 Z" />
        </g>
    </g>
</svg>