<?xml version="1.0" encoding="UTF-8"?>
<svg height="600" width="800" xmlns="http://www.w3.org/2000/svg" xmlns:xlink="http://www.w3.org/1999/xlink">
    <g id="Notes" font-family="LucidaGrande, 'Lucida Grande', sans-serif" font-size="13">
        <rect fill="white" height="600.0" width="800.0" x="0.0" y="0.0" />
        <g font-size="13">
            <text x="18.0" y="176.0">Small</text>
            <text x="18.0" y="376.0">Medium</text>
            <text x="18.0" y="576.0">Large</text>
        </g>
        <g font-size="9">
            <text x="250.0" y="30.0">Ultralight</text>
            <text x="450.0" y="30.0">Regular</text>
            <text x="650.0" y="30.0">Black</text>
            <text id="template-version" fill="#505050" text-anchor="end" x="785.0" y="575.0">Template v.3.0</text>
            <a href="https://github.com/swhitty/SwiftDraw">
                <text fill="#505050" text-anchor="end" x="785.0" y="590.0">https://github.com/swhitty/SwiftDraw</text>
            </a>
        </g>
    </g>
    <g id="Guides" stroke="rgb(39, 170, 225)" stroke-width="0.5">
        <path id="Capline-S" d="M18,76 l800,0" />
        <path id="H-reference" d="M85,145.755 L87.685,145.755 L113.369,79.287 L114.052,79.287 L114.052,76 L112.148,76 L85,145.755 Z M95.693,121.536 L130.996,121.536 L130.263,119.313 L96.474,119.313 L95.693,121.536 Z M139.15,145.755 L141.787,145.755 L114.638,76 L113.466,76 L113.466,79.287 L139.15,145.755 Z" stroke="none" transform="translate(0,200)" />
        <path id="Baseline-S" d="M18,146 l800,0" />
        <path id="left-margin-Ultralight-M" d="M226.5,256 l0,110" />
        <path id="right-margin-Ultralight-M" d="M303.5,256 l0,110" />
        <path id="left-margin-Regular-M" d="M426.5,256 l0,110" />
        <path id="right-margin-Regular-M" d="M503.5,256 l0,110" />
        <path id="left-margin-Black-M" d="M626.5,256 l0,110" />
        <path id="right-margin-Black-M" d="M703.5,256 l0,110" />
        <path id="Capline-M" d="M18,276 l800,0" />
        <path id="Baseline-M" d="M18,346 l800,0" />
        <path id="Capline-L" d="M18,476 l800,0" />
        <path id="Baseline-L" d="M18,546 l800,0" />
    </g>
    <g id="Symbols">
        <g id="Ultralight-M" transform="translate(0,200)">
            <path d="M261.5,114.5 L261.5,142.5 C261.5,144.433 263.067,146 265,146 C266.933,146 268.5,144.433 268.5,142.5 L268.5,114.5 C268.5,112.567 266.933,111 265,111 C263.067,111 261.5,112.567 261.5,114.5 Z" />
            <path d="M261.5,79.5 L261.5,90 C261.5,91.933 263.067,93.5 265,93.5 C266.933,93.5 268.5,91.933 268.5,90 L268.5,79.5 C268.5,77.567 266.933,76 265,76 C263.067,76 261.5,77.567 261.5,79.5 Z" />
            <path d="M233.712,102.763 C233.576,102.627 233.5,102.442 233.5,102.25 C233.5,102.058 233.576,101.873 233.712,101.737 L240.924,94.526 C241.581,93.869 242.471,93.5 243.399,93.5 L286.602,93.5 C287.529,93.5 288.419,93.869 289.076,94.525 L296.286,101.736 C296.424,101.873 296.5,102.058 296.5,102.25 C296.5,102.442 296.424,102.627 296.288,102.763 L289.076,109.974 C288.419,110.631 287.529,111 286.601,111 L243.398,111 C242.471,111 241.581,110.631 240.924,109.975 L233.714,102.764 Z M228.764,107.714 L235.974,114.924 C237.943,116.893 240.613,117.999 243.397,118 L286.602,118 C289.387,117.999 292.057,116.893 294.026,114.923 L301.236,107.714 C302.685,106.267 303.5,104.3 303.5,102.25 C303.5,100.2 302.685,98.233 301.234,96.785 L294.026,89.576 C292.057,87.607 289.387,86.501 286.603,86.5 L243.398,86.5 C240.613,86.501 237.943,87.607 235.974,89.576 L228.764,96.786 C227.315,98.234 226.5,100.2 226.5,102.25 C226.5,104.3 227.315,106.266 228.766,107.715 Z" />
        </g>
        <g id="Regular-M" transform="translate(0,200)">
            <path d="M461.5,114.5 L461.5,142.5 C461.5,144.433 463.067,146 465,146 C466.933,146 468.5,144.433 468.5,142.5 L468.5,114.5 C468.5,112.567 466.933,111 465,111 C463.067,111 461.5,112.567 461.5,114.5 Z" />
            <path d="M461.5,79.5 L461.5,90 C461.5,91.933 463.067,93.5 465,93.5 C466.933,93.5 468.5,91.933 468.5,90 L468.5,79.5 C468.5,77.567 466.933,76 465,76 C463.067,76 461.5,77.567 461.5,79.5 Z" />
            <path d="M433.712,102.763 C433.576,102.627 433.5,102.442 433.5,102.25 C433.5,102.058 433.576,101.873 433.712,101.737 L440.924,94.526 C441.581,93.869 442.471,93.5 443.399,93.5 L486.602,93.5 C487.529,93.5 488.419,93.869 489.076,94.525 L496.286,101.736 C496.424,101.873 496.5,102.058 496.5,102.25 C496.5,102.442 496.424,102.627 496.288,102.763 L489.076,109.974 C488.419,110.631 487.529,111 486.601,111 L443.398,111 C442.471,111 441.581,110.631 440.924,109.975 L433.714,102.764 Z M428.764,107.714 L435.974,114.924 C437.943,116.893 440.613,117.999 443.397,118 L486.602,118 C489.387,117.999 492.057,116.893 494.026,114.923 L501.236,107.714 C502.685,106.267 503.5,104.3 503.5,102.25 C503.5,100.2 502.685,98.233 501.234,96.785 L494.026,89.576 C492.057,87.607 489.387,86.501 486.603,86.5 L443.398,86.5 C440.613,86.501 437.943,87.607 435.974,89.576 L428.764,96.786 C427.315,98.234 426.5,100.2 426.5,102.25 C426.5,104.3 427.315,106.266 428.766,107.715 Z" />
        </g>
        <g id="Black-M" transform="translate(0,200)">
            <path d="M661.5,114.5 L661.5,142.5 C661.5,144.433 663.067,146 665,146 C666.933,146 668.5,144.433 668.5,142.5 L668.5,114.5 C668.5,112.567 666.933,111 665,111 C663.067,111 661.5,112.567 661.5,114.5 Z" />
            <path d="M661.5,79.5 L661.5,90 C661.5,91.933 663.067,93.5 665,93.5 C666.933,93.5 668.5,91.933 668.5,90 L668.5,79.5 C668.5,77.567 666.933,76 665,76 C663.067,76 661.5,77.567 661.5,79.5 Z" />
            <path d="M633.712,102.763 C633.576,102.627 633.5,102.442 633.5,102.25 C633.5,102.058 633.576,101.873 633.712,101.737 L640.924,94.526 C641.581,93.869 642.471,93.5 643.399,93.5 L686.602,93.5 C687.529,93.5 688.419,93.869 689.076,94.525 L696.286,101.736 C696.424,101.873 696.5,102.058 696.5,102.25 C696.5,102.442 696.424,102.627 696.288,102.763 L689.076,109.974 C688.419,110.631 687.529,111 686.601,111 L643.398,111 C642.471,111 641.581,110.631 640.924,109.975 L633.714,102.764 Z M628.764,107.714 L635.974,114.924 C637.943,116.893 640.613,117.999 643.397,118 L686.602,118 C689.387,117.999 692.057,116.893 694.026,114.923 L701.236,107.714 C702.685,106.267 703.5,104.3 703.5,102.25 C703.5,100.2 702.685,98.233 701.234,96.785 L694.026,89.576 C692.057,87.607 689.387,86.501 686.603,86.5 L643.398,86.5 C640.613,86.501 637.943,87.607 635.974,89.576 L628.764,96.786 C627.315,98.234 626.5,100.2 626.5,102.25 C626.5,104.3 627.315,106.266 628.766,107.715 Z" />
        </g>
    </g>
</svg>