<?xml version="1.0" encoding="UTF-8"?>
<svg height="600" width="800" xmlns="http://www.w3.org/2000/svg" xmlns:xlink="http://www.w3.org/1999/xlink">
    <g id="Notes" font-family="LucidaGrande, 'Lucida Grande', sans-serif" font-size="13">
        <rect fill="white" height="600.0" width="800.0" x="0.0" y="0.0" />
        <g font-size="13">
            <text x="18.0" y="176.0">Small</text>
            <text x="18.0" y="376.0">Medium</text>
            <text x="18.0" y="576.0">Large</text>
        </g>
        <g font-size="9">
            <text x="250.0" y="30.0">Ultralight</text>
            <text x="450.0" y="30.0">Regular</text>
            <text x="650.0" y="30.0">Black</text>
            <text id="template-version" fill="#505050" text-anchor="end" x="785.0" y="575.0">Template v.3.0</text>
            <a href="https://github.com/swhitty/SwiftDraw">
                <text fill="#505050" text-anchor="end" x="785.0" y="590.0">https://github.com/swhitty/SwiftDraw</text>
            </a>
        </g>
    </g>
    <g id="Guides" stroke="rgb(39, 170, 225)" stroke-width="0.5">
        <path id="Capline-S" d="M18,76 l800,0" />
        <path id="H-reference" d="M85,145.755 L87.685,145.755 L113.369,79.287 L114.052,79.287 L114.052,76 L112.148,76 L85,145.755 Z M95.693,121.536 L130.996,121.536 L130.263,119.313 L96.474,119.313 L95.693,121.536 Z M139.15,145.755 L141.787,145.755 L114.638,76 L113.466,76 L113.466,79.287 L139.15,145.755 Z" stroke="none" transform="translate(0,200)" />
        <path id="Baseline-S" d="M18,146 l800,0" />
        <path id="left-margin-Ultralight-M" d="M233.182,256 l0,110" />
        <path id="right-margin-Ultralight-M" d="M296.818,256 l0,110" />
        <path id="left-margin-Regular-M" d="M433.182,256 l0,110" />
        <path id="right-margin-Regular-M" d="M496.818,256 l0,110" />
        <path id="left-margin-Black-M" d="M633.182,256 l0,110" />
        <path id="right-margin-Black-M" d="M696.818,256 l0,110" />
        <path id="Capline-M" d="M18,276 l800,0" />
        <path id="Baseline-M" d="M18,346 l800,0" />
        <path id="Capline-L" d="M18,476 l800,0" />
        <path id="Baseline-L" d="M18,546 l800,0" />
    </g>
    <g id="Symbols">
        <g id="Ultralight-M" transform="translate(0,200)">
            <path d="M271.364,117.364 L271.364,124.364 C271.364,125.461 271.929,126.48 272.859,127.062 L277.95,130.244 C279.44,131.175 281.403,130.722 282.335,129.232 C283.266,127.742 282.813,125.779 281.323,124.847 L276.232,121.665 L277.727,124.364 L277.727,117.364 C277.727,115.606 276.303,114.182 274.545,114.182 C272.788,114.182 271.364,115.606 271.364,117.364 Z" />
            <path d="M274.545,88.727 L280.909,88.727 C281.753,88.727 282.562,89.062 283.159,89.659 C283.756,90.256 284.091,91.065 284.091,91.909 L284.091,94.556 C284.091,96.314 285.515,97.738 287.273,97.738 C289.03,97.738 290.455,96.314 290.455,94.556 L290.455,91.909 C290.455,89.377 289.449,86.95 287.659,85.159 C285.869,83.369 283.441,82.364 280.909,82.364 L274.545,82.364 C272.788,82.364 271.364,83.788 271.364,85.545 C271.364,87.303 272.788,88.727 274.545,88.727 Z" />
            <path d="M249.091,82.364 L242.727,82.364 C240.196,82.364 237.768,83.369 235.978,85.159 C234.188,86.95 233.182,89.377 233.182,91.909 L233.182,136.455 C233.182,138.986 234.188,141.414 235.978,143.204 C237.768,144.994 240.196,146 242.727,146 L249.091,146 C250.848,146 252.273,144.575 252.273,142.818 C252.273,141.061 250.848,139.636 249.091,139.636 L242.727,139.636 C241.883,139.636 241.074,139.301 240.477,138.704 C239.881,138.108 239.545,137.298 239.545,136.455 L239.545,91.909 C239.545,91.065 239.881,90.256 240.477,89.659 C241.074,89.062 241.883,88.727 242.727,88.727 L249.091,88.727 C250.848,88.727 252.273,87.303 252.273,85.545 C252.273,83.788 250.848,82.364 249.091,82.364 Z" />
            <path d="M258.636,123.727 C258.636,114.941 265.759,107.818 274.545,107.818 C283.332,107.818 290.455,114.941 290.455,123.727 C290.455,132.514 283.332,139.636 274.545,139.636 C265.759,139.636 258.636,132.514 258.636,123.727 Z M252.273,123.727 C252.273,136.028 262.245,146 274.545,146 C286.846,146 296.818,136.028 296.818,123.727 C296.818,111.426 286.846,101.455 274.545,101.455 C262.245,101.455 252.273,111.426 252.273,123.727 Z" />
            <path d="M271.364,85.545 L271.364,88.727 C271.364,88.727 271.364,88.727 271.364,88.727 C271.364,88.727 271.364,88.727 271.364,88.727 L252.273,88.727 C252.273,88.727 252.273,88.727 252.273,88.727 C252.273,88.727 252.273,88.727 252.273,88.727 L252.273,82.364 C252.273,82.364 252.273,82.364 252.273,82.364 C252.273,82.364 252.273,82.364 252.273,82.364 L271.364,82.364 C271.364,82.364 271.364,82.364 271.364,82.364 C271.364,82.364 271.364,82.364 271.364,82.364 L271.364,85.545 Z M277.727,85.545 L277.727,82.364 C277.727,80.676 277.057,79.057 275.863,77.864 C274.67,76.67 273.051,76 271.364,76 L252.273,76 C250.585,76 248.966,76.67 247.773,77.864 C246.58,79.057 245.909,80.676 245.909,82.364 L245.909,88.727 C245.909,90.415 246.58,92.034 247.773,93.227 C248.966,94.42 250.585,95.091 252.273,95.091 L271.364,95.091 C273.051,95.091 274.67,94.42 275.863,93.227 C277.057,92.034 277.727,90.415 277.727,88.727 L277.727,85.545 Z" />
        </g>
        <g id="Regular-M" transform="translate(0,200)">
            <path d="M471.364,117.364 L471.364,124.364 C471.364,125.461 471.929,126.48 472.859,127.062 L477.95,130.244 C479.44,131.175 481.403,130.722 482.335,129.232 C483.266,127.742 482.813,125.779 481.323,124.847 L476.232,121.665 L477.727,124.364 L477.727,117.364 C477.727,115.606 476.303,114.182 474.545,114.182 C472.788,114.182 471.364,115.606 471.364,117.364 Z" />
            <path d="M474.545,88.727 L480.909,88.727 C481.753,88.727 482.562,89.062 483.159,89.659 C483.756,90.256 484.091,91.065 484.091,91.909 L484.091,94.556 C484.091,96.314 485.515,97.738 487.273,97.738 C489.03,97.738 490.455,96.314 490.455,94.556 L490.455,91.909 C490.455,89.377 489.449,86.95 487.659,85.159 C485.869,83.369 483.441,82.364 480.909,82.364 L474.545,82.364 C472.788,82.364 471.364,83.788 471.364,85.545 C471.364,87.303 472.788,88.727 474.545,88.727 Z" />
            <path d="M449.091,82.364 L442.727,82.364 C440.196,82.364 437.768,83.369 435.978,85.159 C434.188,86.95 433.182,89.377 433.182,91.909 L433.182,136.455 C433.182,138.986 434.188,141.414 435.978,143.204 C437.768,144.994 440.196,146 442.727,146 L449.091,146 C450.848,146 452.273,144.575 452.273,142.818 C452.273,141.061 450.848,139.636 449.091,139.636 L442.727,139.636 C441.883,139.636 441.074,139.301 440.477,138.704 C439.881,138.108 439.545,137.298 439.545,136.455 L439.545,91.909 C439.545,91.065 439.881,90.256 440.477,89.659 C441.074,89.062 441.883,88.727 442.727,88.727 L449.091,88.727 C450.848,88.727 452.273,87.303 452.273,85.545 C452.273,83.788 450.848,82.364 449.091,82.364 Z" />
            <path d="M458.636,123.727 C458.636,114.941 465.759,107.818 474.545,107.818 C483.332,107.818 490.455,114.941 490.455,123.727 C490.455,132.514 483.332,139.636 474.545,139.636 C465.759,139.636 458.636,132.514 458.636,123.727 Z M452.273,123.727 C452.273,136.028 462.245,146 474.545,146 C486.846,146 496.818,136.028 496.818,123.727 C496.818,111.426 486.846,101.455 474.545,101.455 C462.245,101.455 452.273,111.426 452.273,123.727 Z" />
            <path d="M471.364,85.545 L471.364,88.727 C471.364,88.727 471.364,88.727 471.364,88.727 C471.364,88.727 471.364,88.727 471.364,88.727 L452.273,88.727 C452.273,88.727 452.273,88.727 452.273,88.727 C452.273,88.727 452.273,88.727 452.273,88.727 L452.273,82.364 C452.273,82.364 452.273,82.364 452.273,82.364 C452.273,82.364 452.273,82.364 452.273,82.364 L471.364,82.364 C471.364,82.364 471.364,82.364 471.364,82.364 C471.364,82.364 471.364,82.364 471.364,82.364 L471.364,85.545 Z M477.727,85.545 L477.727,82.364 C477.727,80.676 477.057,79.057 475.863,77.864 C474.67,76.67 473.051,76 471.364,76 L452.273,76 C450.585,76 448.966,76.67 447.773,77.864 C446.58,79.057 445.909,80.676 445.909,82.364 L445.909,88.727 C445.909,90.415 446.58,92.034 447.773,93.227 C448.966,94.42 450.585,95.091 452.273,95.091 L471.364,95.091 C473.051,95.091 474.67,94.42 475.863,93.227 C477.057,92.034 477.727,90.415 477.727,88.727 L477.727,85.545 Z" />
        </g>
        <g id="Black-M" transform="translate(0,200)">
            <path d="M671.364,117.364 L671.364,124.364 C671.364,125.461 671.929,126.48 672.859,127.062 L677.95,130.244 C679.44,131.175 681.403,130.722 682.335,129.232 C683.266,127.742 682.813,125.779 681.323,124.847 L676.232,121.665 L677.727,124.364 L677.727,117.364 C677.727,115.606 676.303,114.182 674.545,114.182 C672.788,114.182 671.364,115.606 671.364,117.364 Z" />
            <path d="M674.545,88.727 L680.909,88.727 C681.753,88.727 682.562,89.062 683.159,89.659 C683.756,90.256 684.091,91.065 684.091,91.909 L684.091,94.556 C684.091,96.314 685.515,97.738 687.273,97.738 C689.03,97.738 690.455,96.314 690.455,94.556 L690.455,91.909 C690.455,89.377 689.449,86.95 687.659,85.159 C685.869,83.369 683.441,82.364 680.909,82.364 L674.545,82.364 C672.788,82.364 671.364,83.788 671.364,85.545 C671.364,87.303 672.788,88.727 674.545,88.727 Z" />
            <path d="M649.091,82.364 L642.727,82.364 C640.196,82.364 637.768,83.369 635.978,85.159 C634.188,86.95 633.182,89.377 633.182,91.909 L633.182,136.455 C633.182,138.986 634.188,141.414 635.978,143.204 C637.768,144.994 640.196,146 642.727,146 L649.091,146 C650.848,146 652.273,144.575 652.273,142.818 C652.273,141.061 650.848,139.636 649.091,139.636 L642.727,139.636 C641.883,139.636 641.074,139.301 640.477,138.704 C639.881,138.108 639.545,137.298 639.545,136.455 L639.545,91.909 C639.545,91.065 639.881,90.256 640.477,89.659 C641.074,89.062 641.883,88.727 642.727,88.727 L649.091,88.727 C650.848,88.727 652.273,87.303 652.273,85.545 C652.273,83.788 650.848,82.364 649.091,82.364 Z" />
            <path d="M658.636,123.727 C658.636,114.941 665.759,107.818 674.545,107.818 C683.332,107.818 690.455,114.941 690.455,123.727 C690.455,132.514 683.332,139.636 674.545,139.636 C665.759,139.636 658.636,132.514 658.636,123.727 Z M652.273,123.727 C652.273,136.028 662.245,146 674.545,146 C686.846,146 696.818,136.028 696.818,123.727 C696.818,111.426 686.846,101.455 674.545,101.455 C662.245,101.455 652.273,111.426 652.273,123.727 Z" />
            <path d="M671.364,85.545 L671.364,88.727 C671.364,88.727 671.364,88.727 671.364,88.727 C671.364,88.727 671.364,88.727 671.364,88.727 L652.273,88.727 C652.273,88.727 652.273,88.727 652.273,88.727 C652.273,88.727 652.273,88.727 652.273,88.727 L652.273,82.364 C652.273,82.364 652.273,82.364 652.273,82.364 C652.273,82.364 652.273,82.364 652.273,82.364 L671.364,82.364 C671.364,82.364 671.364,82.364 671.364,82.364 C671.364,82.364 671.364,82.364 671.364,82.364 L671.364,85.545 Z M677.727,85.545 L677.727,82.364 C677.727,80.676 677.057,79.057 675.863,77.864 C674.67,76.67 673.051,76 671.364,76 L652.273,76 C650.585,76 648.966,76.67 647.773,77.864 C646.58,79.057 645.909,80.676 645.909,82.364 L645.909,88.727 C645.909,90.415 646.58,92.034 647.773,93.227 C648.966,94.42 650.585,95.091 652.273,95.091 L671.364,95.091 C673.051,95.091 674.67,94.42 675.863,93.227 C677.057,92.034 677.727,90.415 677.727,88.727 L677.727,85.545 Z" />
        </g>
    </g>
</svg>