<?xml version="1.0" encoding="UTF-8"?>
<svg height="600" width="800" xmlns="http://www.w3.org/2000/svg" xmlns:xlink="http://www.w3.org/1999/xlink">
    <g id="Notes" font-family="LucidaGrande, 'Lucida Grande', sans-serif" font-size="13">
        <rect fill="white" height="600.0" width="800.0" x="0.0" y="0.0" />
        <g font-size="13">
            <text x="18.0" y="176.0">Small</text>
            <text x="18.0" y="376.0">Medium</text>
            <text x="18.0" y="576.0">Large</text>
        </g>
        <g font-size="9">
            <text x="250.0" y="30.0">Ultralight</text>
            <text x="450.0" y="30.0">Regular</text>
            <text x="650.0" y="30.0">Black</text>
            <text id="template-version" fill="#505050" text-anchor="end" x="785.0" y="575.0">Template v.3.0</text>
            <a href="https://github.com/swhitty/SwiftDraw">
                <text fill="#505050" text-anchor="end" x="785.0" y="590.0">https://github.com/swhitty/SwiftDraw</text>
            </a>
        </g>
    </g>
    <g id="Guides" stroke="rgb(39, 170, 225)" stroke-width="0.5">
        <path id="Capline-S" d="M18,76 l800,0" />
        <path id="H-reference" d="M85,145.755 L87.685,145.755 L113.369,79.287 L114.052,79.287 L114.052,76 L112.148,76 L85,145.755 Z M95.693,121.536 L130.996,121.536 L130.263,119.313 L96.474,119.313 L95.693,121.536 Z M139.15,145.755 L141.787,145.755 L114.638,76 L113.466,76 L113.466,79.287 L139.15,145.755 Z" stroke="none" transform="translate(0,200)" />
        <path id="Baseline-S" d="M18,146 l800,0" />
        <path id="left-margin-Ultralight-M" d="M230,256 l0,110" />
        <path id="right-margin-Ultralight-M" d="M300,256 l0,110" />
        <path id="left-margin-Regular-M" d="M430,256 l0,110" />
        <path id="right-margin-Regular-M" d="M500,256 l0,110" />
        <path id="left-margin-Black-M" d="M630,256 l0,110" />
        <path id="right-margin-Black-M" d="M700,256 l0,110" />
        <path id="Capline-M" d="M18,276 l800,0" />
        <path id="Baseline-M" d="M18,346 l800,0" />
        <path id="Capline-L" d="M18,476 l800,0" />
        <path id="Baseline-L" d="M18,546 l800,0" />
    </g>
    <g id="Symbols">
        <g id="Ultralight-M" transform="translate(0,200)">
            <path d="M271.364,126.909 L271.364,130.091 C271.364,130.935 271.028,131.744 270.432,132.341 C269.835,132.938 269.026,133.273 268.182,133.273 L252.273,133.273 C251.429,133.273 250.62,132.938 250.023,132.341 C249.426,131.744 249.091,130.935 249.091,130.091 L249.091,123.727 C249.091,122.883 249.426,122.074 250.023,121.477 C250.62,120.881 251.429,120.545 252.273,120.545 L268.182,120.545 C269.026,120.545 269.835,120.881 270.432,121.477 C271.028,122.074 271.364,122.883 271.364,123.727 L271.364,126.909 Z M277.727,126.909 L277.727,123.727 C277.727,121.196 276.722,118.768 274.931,116.978 C273.141,115.188 270.713,114.182 268.182,114.182 L252.273,114.182 C249.741,114.182 247.313,115.188 245.523,116.978 C243.733,118.768 242.727,121.196 242.727,123.727 L242.727,130.091 C242.727,132.623 243.733,135.05 245.523,136.841 C247.313,138.631 249.741,139.636 252.273,139.636 L268.182,139.636 C270.713,139.636 273.141,138.631 274.931,136.841 C276.722,135.05 277.727,132.623 277.727,130.091 L277.727,126.909 Z" />
            <path d="M293.636,95.091 L293.636,98.273 C293.636,99.117 293.301,99.926 292.704,100.523 C292.108,101.119 291.298,101.455 290.455,101.455 L252.273,101.455 C251.429,101.455 250.62,101.119 250.023,100.523 C249.426,99.926 249.091,99.117 249.091,98.273 L249.091,91.909 C249.091,91.065 249.426,90.256 250.023,89.659 C250.62,89.062 251.429,88.727 252.273,88.727 L290.455,88.727 C291.298,88.727 292.108,89.062 292.704,89.659 C293.301,90.256 293.636,91.065 293.636,91.909 L293.636,95.091 Z M300,95.091 L300,91.909 C300,89.377 298.994,86.95 297.204,85.159 C295.414,83.369 292.986,82.364 290.455,82.364 L252.273,82.364 C249.741,82.364 247.313,83.369 245.523,85.159 C243.733,86.95 242.727,89.377 242.727,91.909 L242.727,98.273 C242.727,100.804 243.733,103.232 245.523,105.022 C247.313,106.812 249.741,107.818 252.273,107.818 L290.455,107.818 C292.986,107.818 295.414,106.812 297.204,105.022 C298.994,103.232 300,100.804 300,98.273 L300,95.091 Z" />
            <path d="M230,79.182 L230,142.818 C230,144.575 231.425,146 233.182,146 C234.939,146 236.364,144.575 236.364,142.818 L236.364,79.182 C236.364,77.425 234.939,76 233.182,76 C231.425,76 230,77.425 230,79.182 Z" />
        </g>
        <g id="Regular-M" transform="translate(0,200)">
            <path d="M471.364,126.909 L471.364,130.091 C471.364,130.935 471.028,131.744 470.432,132.341 C469.835,132.938 469.026,133.273 468.182,133.273 L452.273,133.273 C451.429,133.273 450.62,132.938 450.023,132.341 C449.426,131.744 449.091,130.935 449.091,130.091 L449.091,123.727 C449.091,122.883 449.426,122.074 450.023,121.477 C450.62,120.881 451.429,120.545 452.273,120.545 L468.182,120.545 C469.026,120.545 469.835,120.881 470.432,121.477 C471.028,122.074 471.364,122.883 471.364,123.727 L471.364,126.909 Z M477.727,126.909 L477.727,123.727 C477.727,121.196 476.722,118.768 474.931,116.978 C473.141,115.188 470.713,114.182 468.182,114.182 L452.273,114.182 C449.741,114.182 447.313,115.188 445.523,116.978 C443.733,118.768 442.727,121.196 442.727,123.727 L442.727,130.091 C442.727,132.623 443.733,135.05 445.523,136.841 C447.313,138.631 449.741,139.636 452.273,139.636 L468.182,139.636 C470.713,139.636 473.141,138.631 474.931,136.841 C476.722,135.05 477.727,132.623 477.727,130.091 L477.727,126.909 Z" />
            <path d="M493.636,95.091 L493.636,98.273 C493.636,99.117 493.301,99.926 492.704,100.523 C492.108,101.119 491.298,101.455 490.455,101.455 L452.273,101.455 C451.429,101.455 450.62,101.119 450.023,100.523 C449.426,99.926 449.091,99.117 449.091,98.273 L449.091,91.909 C449.091,91.065 449.426,90.256 450.023,89.659 C450.62,89.062 451.429,88.727 452.273,88.727 L490.455,88.727 C491.298,88.727 492.108,89.062 492.704,89.659 C493.301,90.256 493.636,91.065 493.636,91.909 L493.636,95.091 Z M500,95.091 L500,91.909 C500,89.377 498.994,86.95 497.204,85.159 C495.414,83.369 492.986,82.364 490.455,82.364 L452.273,82.364 C449.741,82.364 447.313,83.369 445.523,85.159 C443.733,86.95 442.727,89.377 442.727,91.909 L442.727,98.273 C442.727,100.804 443.733,103.232 445.523,105.022 C447.313,106.812 449.741,107.818 452.273,107.818 L490.455,107.818 C492.986,107.818 495.414,106.812 497.204,105.022 C498.994,103.232 500,100.804 500,98.273 L500,95.091 Z" />
            <path d="M430,79.182 L430,142.818 C430,144.575 431.425,146 433.182,146 C434.939,146 436.364,144.575 436.364,142.818 L436.364,79.182 C436.364,77.425 434.939,76 433.182,76 C431.425,76 430,77.425 430,79.182 Z" />
        </g>
        <g id="Black-M" transform="translate(0,200)">
            <path d="M671.364,126.909 L671.364,130.091 C671.364,130.935 671.028,131.744 670.432,132.341 C669.835,132.938 669.026,133.273 668.182,133.273 L652.273,133.273 C651.429,133.273 650.62,132.938 650.023,132.341 C649.426,131.744 649.091,130.935 649.091,130.091 L649.091,123.727 C649.091,122.883 649.426,122.074 650.023,121.477 C650.62,120.881 651.429,120.545 652.273,120.545 L668.182,120.545 C669.026,120.545 669.835,120.881 670.432,121.477 C671.028,122.074 671.364,122.883 671.364,123.727 L671.364,126.909 Z M677.727,126.909 L677.727,123.727 C677.727,121.196 676.722,118.768 674.931,116.978 C673.141,115.188 670.713,114.182 668.182,114.182 L652.273,114.182 C649.741,114.182 647.313,115.188 645.523,116.978 C643.733,118.768 642.727,121.196 642.727,123.727 L642.727,130.091 C642.727,132.623 643.733,135.05 645.523,136.841 C647.313,138.631 649.741,139.636 652.273,139.636 L668.182,139.636 C670.713,139.636 673.141,138.631 674.931,136.841 C676.722,135.05 677.727,132.623 677.727,130.091 L677.727,126.909 Z" />
            <path d="M693.636,95.091 L693.636,98.273 C693.636,99.117 693.301,99.926 692.704,100.523 C692.108,101.119 691.298,101.455 690.455,101.455 L652.273,101.455 C651.429,101.455 650.62,101.119 650.023,100.523 C649.426,99.926 649.091,99.117 649.091,98.273 L649.091,91.909 C649.091,91.065 649.426,90.256 650.023,89.659 C650.62,89.062 651.429,88.727 652.273,88.727 L690.455,88.727 C691.298,88.727 692.108,89.062 692.704,89.659 C693.301,90.256 693.636,91.065 693.636,91.909 L693.636,95.091 Z M700,95.091 L700,91.909 C700,89.377 698.994,86.95 697.204,85.159 C695.414,83.369 692.986,82.364 690.455,82.364 L652.273,82.364 C649.741,82.364 647.313,83.369 645.523,85.159 C643.733,86.95 642.727,89.377 642.727,91.909 L642.727,98.273 C642.727,100.804 643.733,103.232 645.523,105.022 C647.313,106.812 649.741,107.818 652.273,107.818 L690.455,107.818 C692.986,107.818 695.414,106.812 697.204,105.022 C698.994,103.232 700,100.804 700,98.273 L700,95.091 Z" />
            <path d="M630,79.182 L630,142.818 C630,144.575 631.425,146 633.182,146 C634.939,146 636.364,144.575 636.364,142.818 L636.364,79.182 C636.364,77.425 634.939,76 633.182,76 C631.425,76 630,77.425 630,79.182 Z" />
        </g>
    </g>
</svg>