<?xml version="1.0" encoding="UTF-8"?>
<svg height="600" width="800" xmlns="http://www.w3.org/2000/svg" xmlns:xlink="http://www.w3.org/1999/xlink">
    <g id="Notes" font-family="LucidaGrande, 'Lucida Grande', sans-serif" font-size="13">
        <rect fill="white" height="600.0" width="800.0" x="0.0" y="0.0" />
        <g font-size="13">
            <text x="18.0" y="176.0">Small</text>
            <text x="18.0" y="376.0">Medium</text>
            <text x="18.0" y="576.0">Large</text>
        </g>
        <g font-size="9">
            <text x="250.0" y="30.0">Ultralight</text>
            <text x="450.0" y="30.0">Regular</text>
            <text x="650.0" y="30.0">Black</text>
            <text id="template-version" fill="#505050" text-anchor="end" x="785.0" y="575.0">Template v.3.0</text>
            <a href="https://github.com/swhitty/SwiftDraw">
                <text fill="#505050" text-anchor="end" x="785.0" y="590.0">https://github.com/swhitty/SwiftDraw</text>
            </a>
        </g>
    </g>
    <g id="Guides" stroke="rgb(39, 170, 225)" stroke-width="0.5">
        <path id="Capline-S" d="M18,76 l800,0" />
        <path id="H-reference" d="M85,145.755 L87.685,145.755 L113.369,79.287 L114.052,79.287 L114.052,76 L112.148,76 L85,145.755 Z M95.693,121.536 L130.996,121.536 L130.263,119.313 L96.474,119.313 L95.693,121.536 Z M139.15,145.755 L141.787,145.755 L114.638,76 L113.466,76 L113.466,79.287 L139.15,145.755 Z" stroke="none" transform="translate(0,200)" />
        <path id="Baseline-S" d="M18,146 l800,0" />
        <path id="left-margin-Ultralight-M" d="M231.667,256 l0,110" />
        <path id="right-margin-Ultralight-M" d="M298.333,256 l0,110" />
        <path id="left-margin-Regular-M" d="M431.667,256 l0,110" />
        <path id="right-margin-Regular-M" d="M498.333,256 l0,110" />
        <path id="left-margin-Black-M" d="M631.667,256 l0,110" />
        <path id="right-margin-Black-M" d="M698.333,256 l0,110" />
        <path id="Capline-M" d="M18,276 l800,0" />
        <path id="Baseline-M" d="M18,346 l800,0" />
        <path id="Capline-L" d="M18,476 l800,0" />
        <path id="Baseline-L" d="M18,546 l800,0" />
    </g>
    <g id="Symbols">
        <g id="Ultralight-M" transform="translate(0,200)">
            <path d="M256.34,141.228 C258.127,144.181 261.428,146 265,146 C268.572,146 271.873,144.181 273.66,141.228 C274.58,139.706 274.034,137.76 272.44,136.881 C270.846,136.002 268.807,136.523 267.887,138.045 C267.291,139.03 266.191,139.636 265,139.636 C263.809,139.636 262.709,139.03 262.113,138.045 C261.193,136.523 259.154,136.002 257.56,136.881 C255.966,137.76 255.42,139.706 256.34,141.228 Z" />
            <path d="M275,101.453 L294.999,101.453 C296.84,101.453 298.332,100.029 298.332,98.271 C298.332,96.514 296.84,95.089 294.999,95.089 L275,95.089 C273.159,95.089 271.666,96.514 271.666,98.271 C271.666,100.029 273.159,101.453 275,101.453 Z" />
            <path d="M281.666,88.726 L281.666,107.817 C281.666,109.574 283.158,110.999 284.999,110.999 C286.84,110.999 288.332,109.574 288.332,107.817 L288.332,88.726 C288.332,86.968 286.84,85.544 284.999,85.544 C283.158,85.544 281.666,86.968 281.666,88.726 Z" />
            <path d="M289.007,120.751 C289.85,121.822 290.763,122.841 291.741,123.802 C291.667,123.727 291.667,123.727 291.667,123.727 C291.667,123.727 291.667,123.727 291.667,123.727 L238.334,123.727 C238.333,123.727 238.333,123.727 238.333,123.727 C238.333,123.727 238.333,123.727 238.333,123.727 C245.602,116.576 248.334,111.056 248.334,98.271 C248.334,92.724 251.363,87.576 256.326,84.689 C261.289,81.801 267.47,81.59 272.637,84.133 C274.273,84.938 276.283,84.324 277.127,82.762 C277.971,81.2 277.328,79.281 275.692,78.476 C268.459,74.916 259.805,75.211 252.856,79.255 C245.908,83.298 241.668,90.505 241.668,98.271 C241.668,109.257 239.689,113.255 233.475,119.37 C231.626,121.308 231.169,123.997 232.237,126.301 C233.304,128.606 235.696,130.092 238.336,130.091 L291.666,130.091 C294.304,130.092 296.696,128.606 297.763,126.301 C298.831,123.997 298.374,121.308 296.598,119.444 C295.742,118.6 295.012,117.785 294.337,116.928 C293.231,115.523 291.142,115.24 289.67,116.295 C288.198,117.351 287.902,119.346 289.007,120.751 Z" />
        </g>
        <g id="Regular-M" transform="translate(0,200)">
            <path d="M456.34,141.228 C458.127,144.181 461.428,146 465,146 C468.572,146 471.873,144.181 473.66,141.228 C474.58,139.706 474.034,137.76 472.44,136.881 C470.846,136.002 468.807,136.523 467.887,138.045 C467.291,139.03 466.191,139.636 465,139.636 C463.809,139.636 462.709,139.03 462.113,138.045 C461.193,136.523 459.154,136.002 457.56,136.881 C455.966,137.76 455.42,139.706 456.34,141.228 Z" />
            <path d="M475,101.453 L494.999,101.453 C496.84,101.453 498.332,100.029 498.332,98.271 C498.332,96.514 496.84,95.089 494.999,95.089 L475,95.089 C473.159,95.089 471.666,96.514 471.666,98.271 C471.666,100.029 473.159,101.453 475,101.453 Z" />
            <path d="M481.666,88.726 L481.666,107.817 C481.666,109.574 483.158,110.999 484.999,110.999 C486.84,110.999 488.332,109.574 488.332,107.817 L488.332,88.726 C488.332,86.968 486.84,85.544 484.999,85.544 C483.158,85.544 481.666,86.968 481.666,88.726 Z" />
            <path d="M489.007,120.751 C489.85,121.822 490.763,122.841 491.741,123.802 C491.667,123.727 491.667,123.727 491.667,123.727 C491.667,123.727 491.667,123.727 491.667,123.727 L438.334,123.727 C438.333,123.727 438.333,123.727 438.333,123.727 C438.333,123.727 438.333,123.727 438.333,123.727 C445.602,116.576 448.334,111.056 448.334,98.271 C448.334,92.724 451.363,87.576 456.326,84.689 C461.289,81.801 467.47,81.59 472.637,84.133 C474.273,84.938 476.283,84.324 477.127,82.762 C477.97,81.2 477.328,79.281 475.692,78.476 C468.458,74.916 459.805,75.211 452.856,79.255 C445.908,83.298 441.668,90.505 441.668,98.271 C441.668,109.257 439.689,113.255 433.475,119.37 C431.626,121.308 431.169,123.997 432.236,126.301 C433.304,128.606 435.696,130.092 438.336,130.091 L491.666,130.091 C494.304,130.092 496.696,128.606 497.763,126.301 C498.831,123.997 498.374,121.308 496.598,119.444 C495.742,118.6 495.012,117.785 494.337,116.928 C493.231,115.523 491.142,115.24 489.67,116.295 C488.198,117.351 487.902,119.346 489.007,120.751 Z" />
        </g>
        <g id="Black-M" transform="translate(0,200)">
            <path d="M656.34,141.228 C658.127,144.181 661.428,146 665,146 C668.572,146 671.873,144.181 673.66,141.228 C674.58,139.706 674.034,137.76 672.44,136.881 C670.846,136.002 668.807,136.523 667.887,138.045 C667.291,139.03 666.191,139.636 665,139.636 C663.809,139.636 662.709,139.03 662.113,138.045 C661.193,136.523 659.154,136.002 657.56,136.881 C655.966,137.76 655.42,139.706 656.34,141.228 Z" />
            <path d="M675,101.453 L694.999,101.453 C696.84,101.453 698.332,100.029 698.332,98.271 C698.332,96.514 696.84,95.089 694.999,95.089 L675,95.089 C673.159,95.089 671.666,96.514 671.666,98.271 C671.666,100.029 673.159,101.453 675,101.453 Z" />
            <path d="M681.666,88.726 L681.666,107.817 C681.666,109.574 683.158,110.999 684.999,110.999 C686.84,110.999 688.332,109.574 688.332,107.817 L688.332,88.726 C688.332,86.968 686.84,85.544 684.999,85.544 C683.158,85.544 681.666,86.968 681.666,88.726 Z" />
            <path d="M689.008,120.751 C689.85,121.822 690.763,122.841 691.741,123.802 C691.667,123.727 691.667,123.727 691.667,123.727 C691.667,123.727 691.667,123.727 691.667,123.727 L638.334,123.727 C638.333,123.727 638.333,123.727 638.333,123.727 C638.333,123.727 638.333,123.727 638.333,123.727 C645.602,116.576 648.334,111.056 648.334,98.271 C648.334,92.724 651.363,87.576 656.326,84.689 C661.289,81.801 667.47,81.59 672.637,84.133 C674.273,84.938 676.283,84.324 677.127,82.762 C677.971,81.2 677.328,79.281 675.692,78.476 C668.459,74.916 659.805,75.211 652.856,79.255 C645.908,83.298 641.668,90.505 641.668,98.271 C641.668,109.257 639.689,113.255 633.475,119.37 C631.626,121.308 631.169,123.997 632.237,126.301 C633.304,128.606 635.696,130.092 638.336,130.091 L691.666,130.091 C694.304,130.092 696.696,128.606 697.763,126.301 C698.831,123.997 698.374,121.308 696.598,119.444 C695.742,118.6 695.012,117.785 694.337,116.928 C693.231,115.523 691.142,115.24 689.67,116.295 C688.198,117.351 687.902,119.346 689.008,120.751 Z" />
        </g>
    </g>
</svg>