<?xml version="1.0" encoding="UTF-8"?>
<svg height="600" width="800" xmlns="http://www.w3.org/2000/svg" xmlns:xlink="http://www.w3.org/1999/xlink">
    <g id="Notes" font-family="LucidaGrande, 'Lucida Grande', sans-serif" font-size="13">
        <rect fill="white" height="600.0" width="800.0" x="0.0" y="0.0" />
        <g font-size="13">
            <text x="18.0" y="176.0">Small</text>
            <text x="18.0" y="376.0">Medium</text>
            <text x="18.0" y="576.0">Large</text>
        </g>
        <g font-size="9">
            <text x="250.0" y="30.0">Ultralight</text>
            <text x="450.0" y="30.0">Regular</text>
            <text x="650.0" y="30.0">Black</text>
            <text id="template-version" fill="#505050" text-anchor="end" x="785.0" y="575.0">Template v.3.0</text>
            <a href="https://github.com/swhitty/SwiftDraw">
                <text fill="#505050" text-anchor="end" x="785.0" y="590.0">https://github.com/swhitty/SwiftDraw</text>
            </a>
        </g>
    </g>
    <g id="Guides" stroke="rgb(39, 170, 225)" stroke-width="0.5">
        <path id="Capline-S" d="M18,76 l800,0" />
        <path id="H-reference" d="M85,145.755 L87.685,145.755 L113.369,79.287 L114.052,79.287 L114.052,76 L112.148,76 L85,145.755 Z M95.693,121.536 L130.996,121.536 L130.263,119.313 L96.474,119.313 L95.693,121.536 Z M139.15,145.755 L141.787,145.755 L114.638,76 L113.466,76 L113.466,79.287 L139.15,145.755 Z" stroke="none" transform="translate(0,200)" />
        <path id="Baseline-S" d="M18,146 l800,0" />
        <path id="left-margin-Ultralight-M" d="M221,256 l0,110" />
        <path id="right-margin-Ultralight-M" d="M309,256 l0,110" />
        <path id="left-margin-Regular-M" d="M421,256 l0,110" />
        <path id="right-margin-Regular-M" d="M509,256 l0,110" />
        <path id="left-margin-Black-M" d="M621,256 l0,110" />
        <path id="right-margin-Black-M" d="M709,256 l0,110" />
        <path id="Capline-M" d="M18,276 l800,0" />
        <path id="Baseline-M" d="M18,346 l800,0" />
        <path id="Capline-L" d="M18,476 l800,0" />
        <path id="Baseline-L" d="M18,546 l800,0" />
    </g>
    <g id="Symbols">
        <g id="Ultralight-M" transform="translate(0,200)">
            <path d="M301,131 C301,132.061 300.579,133.078 299.828,133.828 C299.078,134.579 298.061,135 297,135 L233,135 C231.939,135 230.922,134.579 230.172,133.828 C229.421,133.078 229,132.061 229,131 L229,101 C229,93.209 235.209,87 243,87 L289,87 C295.591,87 301,92.409 301,99 L301,131 Z M309,131 L309,99 C309,87.991 300.009,79 289,79 L243,79 C230.791,79 221,88.791 221,101 L221,131 C221,134.183 222.264,137.235 224.515,139.485 C226.765,141.736 229.817,143 233,143 L297,143 C300.183,143 303.235,141.736 305.485,139.485 C307.736,137.235 309,134.183 309,131 Z" />
            <path d="M277,103 L289,103 L285,99 L285,107 C285,109.209 286.791,111 289,111 C291.209,111 293,109.209 293,107 L293,99 C293,96.791 291.209,95 289,95 L277,95 C274.791,95 273,96.791 273,99 C273,101.209 274.791,103 277,103 Z" />
            <path d="M243,87 C250.791,87 257,93.209 257,101 L257,131 C257,132.061 256.579,133.078 255.828,133.828 C255.078,134.579 254.061,135 253,135 C250.791,135 249,136.791 249,139 C249,141.209 250.791,143 253,143 C256.183,143 259.235,141.736 261.485,139.485 C263.736,137.235 265,134.183 265,131 L265,101 C265,88.791 255.209,79 243,79 C240.791,79 239,80.791 239,83 C239,85.209 240.791,87 243,87 Z" />
            <path d="M241,107 L245,107 C247.209,107 249,105.209 249,103 C249,100.791 247.209,99 245,99 L241,99 C238.791,99 237,100.791 237,103 C237,105.209 238.791,107 241,107 Z" />
        </g>
        <g id="Regular-M" transform="translate(0,200)">
            <path d="M501,131 C501,132.061 500.579,133.078 499.828,133.828 C499.078,134.579 498.061,135 497,135 L433,135 C431.939,135 430.922,134.579 430.172,133.828 C429.421,133.078 429,132.061 429,131 L429,101 C429,93.209 435.209,87 443,87 L489,87 C495.591,87 501,92.409 501,99 L501,131 Z M509,131 L509,99 C509,87.991 500.009,79 489,79 L443,79 C430.791,79 421,88.791 421,101 L421,131 C421,134.183 422.264,137.235 424.515,139.485 C426.765,141.736 429.817,143 433,143 L497,143 C500.183,143 503.235,141.736 505.485,139.485 C507.736,137.235 509,134.183 509,131 Z" />
            <path d="M477,103 L489,103 L485,99 L485,107 C485,109.209 486.791,111 489,111 C491.209,111 493,109.209 493,107 L493,99 C493,96.791 491.209,95 489,95 L477,95 C474.791,95 473,96.791 473,99 C473,101.209 474.791,103 477,103 Z" />
            <path d="M443,87 C450.791,87 457,93.209 457,101 L457,131 C457,132.061 456.579,133.078 455.828,133.828 C455.078,134.579 454.061,135 453,135 C450.791,135 449,136.791 449,139 C449,141.209 450.791,143 453,143 C456.183,143 459.235,141.736 461.485,139.485 C463.736,137.235 465,134.183 465,131 L465,101 C465,88.791 455.209,79 443,79 C440.791,79 439,80.791 439,83 C439,85.209 440.791,87 443,87 Z" />
            <path d="M441,107 L445,107 C447.209,107 449,105.209 449,103 C449,100.791 447.209,99 445,99 L441,99 C438.791,99 437,100.791 437,103 C437,105.209 438.791,107 441,107 Z" />
        </g>
        <g id="Black-M" transform="translate(0,200)">
            <path d="M701,131 C701,132.061 700.579,133.078 699.828,133.828 C699.078,134.579 698.061,135 697,135 L633,135 C631.939,135 630.922,134.579 630.172,133.828 C629.421,133.078 629,132.061 629,131 L629,101 C629,93.209 635.209,87 643,87 L689,87 C695.591,87 701,92.409 701,99 L701,131 Z M709,131 L709,99 C709,87.991 700.009,79 689,79 L643,79 C630.791,79 621,88.791 621,101 L621,131 C621,134.183 622.264,137.235 624.515,139.485 C626.765,141.736 629.817,143 633,143 L697,143 C700.183,143 703.235,141.736 705.485,139.485 C707.736,137.235 709,134.183 709,131 Z" />
            <path d="M677,103 L689,103 L685,99 L685,107 C685,109.209 686.791,111 689,111 C691.209,111 693,109.209 693,107 L693,99 C693,96.791 691.209,95 689,95 L677,95 C674.791,95 673,96.791 673,99 C673,101.209 674.791,103 677,103 Z" />
            <path d="M643,87 C650.791,87 657,93.209 657,101 L657,131 C657,132.061 656.579,133.078 655.828,133.828 C655.078,134.579 654.061,135 653,135 C650.791,135 649,136.791 649,139 C649,141.209 650.791,143 653,143 C656.183,143 659.235,141.736 661.485,139.485 C663.736,137.235 665,134.183 665,131 L665,101 C665,88.791 655.209,79 643,79 C640.791,79 639,80.791 639,83 C639,85.209 640.791,87 643,87 Z" />
            <path d="M641,107 L645,107 C647.209,107 649,105.209 649,103 C649,100.791 647.209,99 645,99 L641,99 C638.791,99 637,100.791 637,103 C637,105.209 638.791,107 641,107 Z" />
        </g>
    </g>
</svg>