<?xml version="1.0" encoding="UTF-8"?>
<svg height="600" width="800" xmlns="http://www.w3.org/2000/svg" xmlns:xlink="http://www.w3.org/1999/xlink">
    <g id="Notes" font-family="LucidaGrande, 'Lucida Grande', sans-serif" font-size="13">
        <rect fill="white" height="600.0" width="800.0" x="0.0" y="0.0" />
        <g font-size="13">
            <text x="18.0" y="176.0">Small</text>
            <text x="18.0" y="376.0">Medium</text>
            <text x="18.0" y="576.0">Large</text>
        </g>
        <g font-size="9">
            <text x="250.0" y="30.0">Ultralight</text>
            <text x="450.0" y="30.0">Regular</text>
            <text x="650.0" y="30.0">Black</text>
            <text id="template-version" fill="#505050" text-anchor="end" x="785.0" y="575.0">Template v.3.0</text>
            <a href="https://github.com/swhitty/SwiftDraw">
                <text fill="#505050" text-anchor="end" x="785.0" y="590.0">https://github.com/swhitty/SwiftDraw</text>
            </a>
        </g>
    </g>
    <g id="Guides" stroke="rgb(39, 170, 225)" stroke-width="0.5">
        <path id="Capline-S" d="M18,76 l800,0" />
        <path id="H-reference" d="M85,145.755 L87.685,145.755 L113.369,79.287 L114.052,79.287 L114.052,76 L112.148,76 L85,145.755 Z M95.693,121.536 L130.996,121.536 L130.263,119.313 L96.474,119.313 L95.693,121.536 Z M139.15,145.755 L141.787,145.755 L114.638,76 L113.466,76 L113.466,79.287 L139.15,145.755 Z" stroke="none" transform="translate(0,200)" />
        <path id="Baseline-S" d="M18,146 l800,0" />
        <path id="left-margin-Ultralight-M" d="M230,256 l0,110" />
        <path id="right-margin-Ultralight-M" d="M300,256 l0,110" />
        <path id="left-margin-Regular-M" d="M430,256 l0,110" />
        <path id="right-margin-Regular-M" d="M500,256 l0,110" />
        <path id="left-margin-Black-M" d="M630,256 l0,110" />
        <path id="right-margin-Black-M" d="M700,256 l0,110" />
        <path id="Capline-M" d="M18,276 l800,0" />
        <path id="Baseline-M" d="M18,346 l800,0" />
        <path id="Capline-L" d="M18,476 l800,0" />
        <path id="Baseline-L" d="M18,546 l800,0" />
    </g>
    <g id="Symbols">
        <g id="Ultralight-M" transform="translate(0,200)">
            <path d="M293.636,133.273 L293.636,139.636 C293.636,139.636 293.636,139.636 293.636,139.636 C293.636,139.636 293.636,139.636 293.636,139.636 L280.909,139.636 C280.909,139.636 280.909,139.636 280.909,139.636 C280.909,139.636 280.909,139.636 280.909,139.636 L280.909,126.909 C280.909,126.909 280.909,126.909 280.909,126.909 C280.909,126.909 280.909,126.909 280.909,126.909 L293.636,126.909 C293.636,126.909 293.636,126.909 293.636,126.909 C293.636,126.909 293.636,126.909 293.636,126.909 L293.636,133.273 Z M300,133.273 L300,126.909 C300,125.221 299.33,123.603 298.136,122.409 C296.943,121.216 295.324,120.545 293.636,120.545 L280.909,120.545 C279.221,120.545 277.603,121.216 276.409,122.409 C275.216,123.603 274.545,125.221 274.545,126.909 L274.545,139.636 C274.545,141.324 275.216,142.943 276.409,144.136 C277.603,145.33 279.221,146 280.909,146 L293.636,146 C295.324,146 296.943,145.33 298.136,144.136 C299.33,142.943 300,141.324 300,139.636 L300,133.273 Z" />
            <path d="M249.091,133.273 L249.091,139.636 C249.091,139.636 249.091,139.636 249.091,139.636 C249.091,139.636 249.091,139.636 249.091,139.636 L236.364,139.636 C236.364,139.636 236.364,139.636 236.364,139.636 C236.364,139.636 236.364,139.636 236.364,139.636 L236.364,126.909 C236.364,126.909 236.364,126.909 236.364,126.909 C236.364,126.909 236.364,126.909 236.364,126.909 L249.091,126.909 C249.091,126.909 249.091,126.909 249.091,126.909 C249.091,126.909 249.091,126.909 249.091,126.909 L249.091,133.273 Z M255.455,133.273 L255.455,126.909 C255.455,125.221 254.784,123.603 253.591,122.409 C252.397,121.216 250.779,120.545 249.091,120.545 L236.364,120.545 C234.676,120.545 233.057,121.216 231.864,122.409 C230.67,123.603 230,125.221 230,126.909 L230,139.636 C230,141.324 230.67,142.943 231.864,144.136 C233.057,145.33 234.676,146 236.364,146 L249.091,146 C250.779,146 252.397,145.33 253.591,144.136 C254.784,142.943 255.455,141.324 255.455,139.636 L255.455,133.273 Z" />
            <path d="M271.364,88.727 L271.364,95.091 C271.364,95.091 271.364,95.091 271.364,95.091 C271.364,95.091 271.364,95.091 271.364,95.091 L258.636,95.091 C258.636,95.091 258.636,95.091 258.636,95.091 C258.636,95.091 258.636,95.091 258.636,95.091 L258.636,82.364 C258.636,82.364 258.636,82.364 258.636,82.364 C258.636,82.364 258.636,82.364 258.636,82.364 L271.364,82.364 C271.364,82.364 271.364,82.364 271.364,82.364 C271.364,82.364 271.364,82.364 271.364,82.364 L271.364,88.727 Z M277.727,88.727 L277.727,82.364 C277.727,80.676 277.057,79.057 275.863,77.864 C274.67,76.67 273.051,76 271.364,76 L258.636,76 C256.949,76 255.33,76.67 254.137,77.864 C252.943,79.057 252.273,80.676 252.273,82.364 L252.273,95.091 C252.273,96.779 252.943,98.397 254.137,99.591 C255.33,100.784 256.949,101.455 258.636,101.455 L271.364,101.455 C273.051,101.455 274.67,100.784 275.863,99.591 C277.057,98.397 277.727,96.779 277.727,95.091 L277.727,88.727 Z" />
            <path d="M245.909,123.727 L245.909,114.182 C245.909,114.182 245.909,114.182 245.909,114.182 C245.909,114.182 245.909,114.182 245.909,114.182 L284.091,114.182 C284.091,114.182 284.091,114.182 284.091,114.182 C284.091,114.182 284.091,114.182 284.091,114.182 L284.091,123.727 C284.091,125.485 285.515,126.909 287.273,126.909 C289.03,126.909 290.455,125.485 290.455,123.727 L290.455,114.182 C290.455,112.494 289.784,110.875 288.591,109.682 C287.397,108.489 285.779,107.818 284.091,107.818 L245.909,107.818 C244.221,107.818 242.603,108.489 241.409,109.682 C240.216,110.875 239.545,112.494 239.545,114.182 L239.545,123.727 C239.545,125.485 240.97,126.909 242.727,126.909 C244.485,126.909 245.909,125.485 245.909,123.727 Z" />
            <path d="M268.182,111 L268.182,98.273 C268.182,96.515 266.757,95.091 265,95.091 C263.243,95.091 261.818,96.515 261.818,98.273 L261.818,111 C261.818,112.757 263.243,114.182 265,114.182 C266.757,114.182 268.182,112.757 268.182,111 Z" />
        </g>
        <g id="Regular-M" transform="translate(0,200)">
            <path d="M493.636,133.273 L493.636,139.636 C493.636,139.636 493.636,139.636 493.636,139.636 C493.636,139.636 493.636,139.636 493.636,139.636 L480.909,139.636 C480.909,139.636 480.909,139.636 480.909,139.636 C480.909,139.636 480.909,139.636 480.909,139.636 L480.909,126.909 C480.909,126.909 480.909,126.909 480.909,126.909 C480.909,126.909 480.909,126.909 480.909,126.909 L493.636,126.909 C493.636,126.909 493.636,126.909 493.636,126.909 C493.636,126.909 493.636,126.909 493.636,126.909 L493.636,133.273 Z M500,133.273 L500,126.909 C500,125.221 499.33,123.603 498.136,122.409 C496.943,121.216 495.324,120.545 493.636,120.545 L480.909,120.545 C479.221,120.545 477.603,121.216 476.409,122.409 C475.216,123.603 474.545,125.221 474.545,126.909 L474.545,139.636 C474.545,141.324 475.216,142.943 476.409,144.136 C477.603,145.33 479.221,146 480.909,146 L493.636,146 C495.324,146 496.943,145.33 498.136,144.136 C499.33,142.943 500,141.324 500,139.636 L500,133.273 Z" />
            <path d="M449.091,133.273 L449.091,139.636 C449.091,139.636 449.091,139.636 449.091,139.636 C449.091,139.636 449.091,139.636 449.091,139.636 L436.364,139.636 C436.364,139.636 436.364,139.636 436.364,139.636 C436.364,139.636 436.364,139.636 436.364,139.636 L436.364,126.909 C436.364,126.909 436.364,126.909 436.364,126.909 C436.364,126.909 436.364,126.909 436.364,126.909 L449.091,126.909 C449.091,126.909 449.091,126.909 449.091,126.909 C449.091,126.909 449.091,126.909 449.091,126.909 L449.091,133.273 Z M455.455,133.273 L455.455,126.909 C455.455,125.221 454.784,123.603 453.591,122.409 C452.397,121.216 450.779,120.545 449.091,120.545 L436.364,120.545 C434.676,120.545 433.057,121.216 431.864,122.409 C430.67,123.603 430,125.221 430,126.909 L430,139.636 C430,141.324 430.67,142.943 431.864,144.136 C433.057,145.33 434.676,146 436.364,146 L449.091,146 C450.779,146 452.397,145.33 453.591,144.136 C454.784,142.943 455.455,141.324 455.455,139.636 L455.455,133.273 Z" />
            <path d="M471.364,88.727 L471.364,95.091 C471.364,95.091 471.364,95.091 471.364,95.091 C471.364,95.091 471.364,95.091 471.364,95.091 L458.636,95.091 C458.636,95.091 458.636,95.091 458.636,95.091 C458.636,95.091 458.636,95.091 458.636,95.091 L458.636,82.364 C458.636,82.364 458.636,82.364 458.636,82.364 C458.636,82.364 458.636,82.364 458.636,82.364 L471.364,82.364 C471.364,82.364 471.364,82.364 471.364,82.364 C471.364,82.364 471.364,82.364 471.364,82.364 L471.364,88.727 Z M477.727,88.727 L477.727,82.364 C477.727,80.676 477.057,79.057 475.863,77.864 C474.67,76.67 473.051,76 471.364,76 L458.636,76 C456.949,76 455.33,76.67 454.137,77.864 C452.943,79.057 452.273,80.676 452.273,82.364 L452.273,95.091 C452.273,96.779 452.943,98.397 454.137,99.591 C455.33,100.784 456.949,101.455 458.636,101.455 L471.364,101.455 C473.051,101.455 474.67,100.784 475.863,99.591 C477.057,98.397 477.727,96.779 477.727,95.091 L477.727,88.727 Z" />
            <path d="M445.909,123.727 L445.909,114.182 C445.909,114.182 445.909,114.182 445.909,114.182 C445.909,114.182 445.909,114.182 445.909,114.182 L484.091,114.182 C484.091,114.182 484.091,114.182 484.091,114.182 C484.091,114.182 484.091,114.182 484.091,114.182 L484.091,123.727 C484.091,125.485 485.515,126.909 487.273,126.909 C489.03,126.909 490.455,125.485 490.455,123.727 L490.455,114.182 C490.455,112.494 489.784,110.875 488.591,109.682 C487.397,108.489 485.779,107.818 484.091,107.818 L445.909,107.818 C444.221,107.818 442.603,108.489 441.409,109.682 C440.216,110.875 439.545,112.494 439.545,114.182 L439.545,123.727 C439.545,125.485 440.97,126.909 442.727,126.909 C444.485,126.909 445.909,125.485 445.909,123.727 Z" />
            <path d="M468.182,111 L468.182,98.273 C468.182,96.515 466.757,95.091 465,95.091 C463.243,95.091 461.818,96.515 461.818,98.273 L461.818,111 C461.818,112.757 463.243,114.182 465,114.182 C466.757,114.182 468.182,112.757 468.182,111 Z" />
        </g>
        <g id="Black-M" transform="translate(0,200)">
            <path d="M693.636,133.273 L693.636,139.636 C693.636,139.636 693.636,139.636 693.636,139.636 C693.636,139.636 693.636,139.636 693.636,139.636 L680.909,139.636 C680.909,139.636 680.909,139.636 680.909,139.636 C680.909,139.636 680.909,139.636 680.909,139.636 L680.909,126.909 C680.909,126.909 680.909,126.909 680.909,126.909 C680.909,126.909 680.909,126.909 680.909,126.909 L693.636,126.909 C693.636,126.909 693.636,126.909 693.636,126.909 C693.636,126.909 693.636,126.909 693.636,126.909 L693.636,133.273 Z M700,133.273 L700,126.909 C700,125.221 699.33,123.603 698.136,122.409 C696.943,121.216 695.324,120.545 693.636,120.545 L680.909,120.545 C679.221,120.545 677.603,121.216 676.409,122.409 C675.216,123.603 674.545,125.221 674.545,126.909 L674.545,139.636 C674.545,141.324 675.216,142.943 676.409,144.136 C677.603,145.33 679.221,146 680.909,146 L693.636,146 C695.324,146 696.943,145.33 698.136,144.136 C699.33,142.943 700,141.324 700,139.636 L700,133.273 Z" />
            <path d="M649.091,133.273 L649.091,139.636 C649.091,139.636 649.091,139.636 649.091,139.636 C649.091,139.636 649.091,139.636 649.091,139.636 L636.364,139.636 C636.364,139.636 636.364,139.636 636.364,139.636 C636.364,139.636 636.364,139.636 636.364,139.636 L636.364,126.909 C636.364,126.909 636.364,126.909 636.364,126.909 C636.364,126.909 636.364,126.909 636.364,126.909 L649.091,126.909 C649.091,126.909 649.091,126.909 649.091,126.909 C649.091,126.909 649.091,126.909 649.091,126.909 L649.091,133.273 Z M655.455,133.273 L655.455,126.909 C655.455,125.221 654.784,123.603 653.591,122.409 C652.397,121.216 650.779,120.545 649.091,120.545 L636.364,120.545 C634.676,120.545 633.057,121.216 631.864,122.409 C630.67,123.603 630,125.221 630,126.909 L630,139.636 C630,141.324 630.67,142.943 631.864,144.136 C633.057,145.33 634.676,146 636.364,146 L649.091,146 C650.779,146 652.397,145.33 653.591,144.136 C654.784,142.943 655.455,141.324 655.455,139.636 L655.455,133.273 Z" />
            <path d="M671.364,88.727 L671.364,95.091 C671.364,95.091 671.364,95.091 671.364,95.091 C671.364,95.091 671.364,95.091 671.364,95.091 L658.636,95.091 C658.636,95.091 658.636,95.091 658.636,95.091 C658.636,95.091 658.636,95.091 658.636,95.091 L658.636,82.364 C658.636,82.364 658.636,82.364 658.636,82.364 C658.636,82.364 658.636,82.364 658.636,82.364 L671.364,82.364 C671.364,82.364 671.364,82.364 671.364,82.364 C671.364,82.364 671.364,82.364 671.364,82.364 L671.364,88.727 Z M677.727,88.727 L677.727,82.364 C677.727,80.676 677.057,79.057 675.863,77.864 C674.67,76.67 673.051,76 671.364,76 L658.636,76 C656.949,76 655.33,76.67 654.137,77.864 C652.943,79.057 652.273,80.676 652.273,82.364 L652.273,95.091 C652.273,96.779 652.943,98.397 654.137,99.591 C655.33,100.784 656.949,101.455 658.636,101.455 L671.364,101.455 C673.051,101.455 674.67,100.784 675.863,99.591 C677.057,98.397 677.727,96.779 677.727,95.091 L677.727,88.727 Z" />
            <path d="M645.909,123.727 L645.909,114.182 C645.909,114.182 645.909,114.182 645.909,114.182 C645.909,114.182 645.909,114.182 645.909,114.182 L684.091,114.182 C684.091,114.182 684.091,114.182 684.091,114.182 C684.091,114.182 684.091,114.182 684.091,114.182 L684.091,123.727 C684.091,125.485 685.515,126.909 687.273,126.909 C689.03,126.909 690.455,125.485 690.455,123.727 L690.455,114.182 C690.455,112.494 689.784,110.875 688.591,109.682 C687.397,108.489 685.779,107.818 684.091,107.818 L645.909,107.818 C644.221,107.818 642.603,108.489 641.409,109.682 C640.216,110.875 639.545,112.494 639.545,114.182 L639.545,123.727 C639.545,125.485 640.97,126.909 642.727,126.909 C644.485,126.909 645.909,125.485 645.909,123.727 Z" />
            <path d="M668.182,111 L668.182,98.273 C668.182,96.515 666.757,95.091 665,95.091 C663.243,95.091 661.818,96.515 661.818,98.273 L661.818,111 C661.818,112.757 663.243,114.182 665,114.182 C666.757,114.182 668.182,112.757 668.182,111 Z" />
        </g>
    </g>
</svg>