<?xml version="1.0" encoding="UTF-8"?>
<svg height="600" width="800" xmlns="http://www.w3.org/2000/svg" xmlns:xlink="http://www.w3.org/1999/xlink">
    <g id="Notes" font-family="LucidaGrande, 'Lucida Grande', sans-serif" font-size="13">
        <rect fill="white" height="600.0" width="800.0" x="0.0" y="0.0" />
        <g font-size="13">
            <text x="18.0" y="176.0">Small</text>
            <text x="18.0" y="376.0">Medium</text>
            <text x="18.0" y="576.0">Large</text>
        </g>
        <g font-size="9">
            <text x="250.0" y="30.0">Ultralight</text>
            <text x="450.0" y="30.0">Regular</text>
            <text x="650.0" y="30.0">Black</text>
            <text id="template-version" fill="#505050" text-anchor="end" x="785.0" y="575.0">Template v.3.0</text>
            <a href="https://github.com/swhitty/SwiftDraw">
                <text fill="#505050" text-anchor="end" x="785.0" y="590.0">https://github.com/swhitty/SwiftDraw</text>
            </a>
        </g>
    </g>
    <g id="Guides" stroke="rgb(39, 170, 225)" stroke-width="0.5">
        <path id="Capline-S" d="M18,76 l800,0" />
        <path id="H-reference" d="M85,145.755 L87.685,145.755 L113.369,79.287 L114.052,79.287 L114.052,76 L112.148,76 L85,145.755 Z M95.693,121.536 L130.996,121.536 L130.263,119.313 L96.474,119.313 L95.693,121.536 Z M139.15,145.755 L141.787,145.755 L114.638,76 L113.466,76 L113.466,79.287 L139.15,145.755 Z" stroke="none" transform="translate(0,200)" />
        <path id="Baseline-S" d="M18,146 l800,0" />
        <path id="left-margin-Ultralight-M" d="M226.5,256 l0,110" />
        <path id="right-margin-Ultralight-M" d="M303.5,256 l0,110" />
        <path id="left-margin-Regular-M" d="M426.5,256 l0,110" />
        <path id="right-margin-Regular-M" d="M503.5,256 l0,110" />
        <path id="left-margin-Black-M" d="M626.5,256 l0,110" />
        <path id="right-margin-Black-M" d="M703.5,256 l0,110" />
        <path id="Capline-M" d="M18,276 l800,0" />
        <path id="Baseline-M" d="M18,346 l800,0" />
        <path id="Capline-L" d="M18,476 l800,0" />
        <path id="Baseline-L" d="M18,546 l800,0" />
    </g>
    <g id="Symbols">
        <g id="Ultralight-M" transform="translate(0,200)">
            <path d="M226.5,104 L226.5,114.5 C226.5,116.433 228.067,118 230,118 C231.933,118 233.5,116.433 233.5,114.5 L233.5,104 C233.5,102.067 231.933,100.5 230,100.5 C228.067,100.5 226.5,102.067 226.5,104 Z" />
            <path d="M240.5,90 L240.5,128.5 C240.5,130.433 242.067,132 244,132 C245.933,132 247.5,130.433 247.5,128.5 L247.5,90 C247.5,88.067 245.933,86.5 244,86.5 C242.067,86.5 240.5,88.067 240.5,90 Z" />
            <path d="M254.5,79.5 L254.5,142.5 C254.5,144.433 256.067,146 258,146 C259.933,146 261.5,144.433 261.5,142.5 L261.5,79.5 C261.5,77.567 259.933,76 258,76 C256.067,76 254.5,77.567 254.5,79.5 Z" />
            <path d="M268.5,97 L268.5,121.5 C268.5,123.433 270.067,125 272,125 C273.933,125 275.5,123.433 275.5,121.5 L275.5,97 C275.5,95.067 273.933,93.5 272,93.5 C270.067,93.5 268.5,95.067 268.5,97 Z" />
            <path d="M282.5,86.5 L282.5,132 C282.5,133.933 284.067,135.5 286,135.5 C287.933,135.5 289.5,133.933 289.5,132 L289.5,86.5 C289.5,84.567 287.933,83 286,83 C284.067,83 282.5,84.567 282.5,86.5 Z" />
            <path d="M296.5,104 L296.5,114.5 C296.5,116.433 298.067,118 300,118 C301.933,118 303.5,116.433 303.5,114.5 L303.5,104 C303.5,102.067 301.933,100.5 300,100.5 C298.067,100.5 296.5,102.067 296.5,104 Z" />
        </g>
        <g id="Regular-M" transform="translate(0,200)">
            <path d="M426.5,104 L426.5,114.5 C426.5,116.433 428.067,118 430,118 C431.933,118 433.5,116.433 433.5,114.5 L433.5,104 C433.5,102.067 431.933,100.5 430,100.5 C428.067,100.5 426.5,102.067 426.5,104 Z" />
            <path d="M440.5,90 L440.5,128.5 C440.5,130.433 442.067,132 444,132 C445.933,132 447.5,130.433 447.5,128.5 L447.5,90 C447.5,88.067 445.933,86.5 444,86.5 C442.067,86.5 440.5,88.067 440.5,90 Z" />
            <path d="M454.5,79.5 L454.5,142.5 C454.5,144.433 456.067,146 458,146 C459.933,146 461.5,144.433 461.5,142.5 L461.5,79.5 C461.5,77.567 459.933,76 458,76 C456.067,76 454.5,77.567 454.5,79.5 Z" />
            <path d="M468.5,97 L468.5,121.5 C468.5,123.433 470.067,125 472,125 C473.933,125 475.5,123.433 475.5,121.5 L475.5,97 C475.5,95.067 473.933,93.5 472,93.5 C470.067,93.5 468.5,95.067 468.5,97 Z" />
            <path d="M482.5,86.5 L482.5,132 C482.5,133.933 484.067,135.5 486,135.5 C487.933,135.5 489.5,133.933 489.5,132 L489.5,86.5 C489.5,84.567 487.933,83 486,83 C484.067,83 482.5,84.567 482.5,86.5 Z" />
            <path d="M496.5,104 L496.5,114.5 C496.5,116.433 498.067,118 500,118 C501.933,118 503.5,116.433 503.5,114.5 L503.5,104 C503.5,102.067 501.933,100.5 500,100.5 C498.067,100.5 496.5,102.067 496.5,104 Z" />
        </g>
        <g id="Black-M" transform="translate(0,200)">
            <path d="M626.5,104 L626.5,114.5 C626.5,116.433 628.067,118 630,118 C631.933,118 633.5,116.433 633.5,114.5 L633.5,104 C633.5,102.067 631.933,100.5 630,100.5 C628.067,100.5 626.5,102.067 626.5,104 Z" />
            <path d="M640.5,90 L640.5,128.5 C640.5,130.433 642.067,132 644,132 C645.933,132 647.5,130.433 647.5,128.5 L647.5,90 C647.5,88.067 645.933,86.5 644,86.5 C642.067,86.5 640.5,88.067 640.5,90 Z" />
            <path d="M654.5,79.5 L654.5,142.5 C654.5,144.433 656.067,146 658,146 C659.933,146 661.5,144.433 661.5,142.5 L661.5,79.5 C661.5,77.567 659.933,76 658,76 C656.067,76 654.5,77.567 654.5,79.5 Z" />
            <path d="M668.5,97 L668.5,121.5 C668.5,123.433 670.067,125 672,125 C673.933,125 675.5,123.433 675.5,121.5 L675.5,97 C675.5,95.067 673.933,93.5 672,93.5 C670.067,93.5 668.5,95.067 668.5,97 Z" />
            <path d="M682.5,86.5 L682.5,132 C682.5,133.933 684.067,135.5 686,135.5 C687.933,135.5 689.5,133.933 689.5,132 L689.5,86.5 C689.5,84.567 687.933,83 686,83 C684.067,83 682.5,84.567 682.5,86.5 Z" />
            <path d="M696.5,104 L696.5,114.5 C696.5,116.433 698.067,118 700,118 C701.933,118 703.5,116.433 703.5,114.5 L703.5,104 C703.5,102.067 701.933,100.5 700,100.5 C698.067,100.5 696.5,102.067 696.5,104 Z" />
        </g>
    </g>
</svg>