<?xml version="1.0" encoding="UTF-8"?>
<svg height="600" width="800" xmlns="http://www.w3.org/2000/svg" xmlns:xlink="http://www.w3.org/1999/xlink">
    <g id="Notes" font-family="LucidaGrande, 'Lucida Grande', sans-serif" font-size="13">
        <rect fill="white" height="600.0" width="800.0" x="0.0" y="0.0" />
        <g font-size="13">
            <text x="18.0" y="176.0">Small</text>
            <text x="18.0" y="376.0">Medium</text>
            <text x="18.0" y="576.0">Large</text>
        </g>
        <g font-size="9">
            <text x="250.0" y="30.0">Ultralight</text>
            <text x="450.0" y="30.0">Regular</text>
            <text x="650.0" y="30.0">Black</text>
            <text id="template-version" fill="#505050" text-anchor="end" x="785.0" y="575.0">Template v.3.0</text>
            <a href="https://github.com/swhitty/SwiftDraw">
                <text fill="#505050" text-anchor="end" x="785.0" y="590.0">https://github.com/swhitty/SwiftDraw</text>
            </a>
        </g>
    </g>
    <g id="Guides" stroke="rgb(39, 170, 225)" stroke-width="0.5">
        <path id="Capline-S" d="M18,76 l800,0" />
        <path id="H-reference" d="M85,145.755 L87.685,145.755 L113.369,79.287 L114.052,79.287 L114.052,76 L112.148,76 L85,145.755 Z M95.693,121.536 L130.996,121.536 L130.263,119.313 L96.474,119.313 L95.693,121.536 Z M139.15,145.755 L141.787,145.755 L114.638,76 L113.466,76 L113.466,79.287 L139.15,145.755 Z" stroke="none" transform="translate(0,200)" />
        <path id="Baseline-S" d="M18,146 l800,0" />
        <path id="left-margin-Ultralight-M" d="M224.474,256 l0,110" />
        <path id="right-margin-Ultralight-M" d="M305.526,256 l0,110" />
        <path id="left-margin-Regular-M" d="M424.474,256 l0,110" />
        <path id="right-margin-Regular-M" d="M505.526,256 l0,110" />
        <path id="left-margin-Black-M" d="M624.474,256 l0,110" />
        <path id="right-margin-Black-M" d="M705.526,256 l0,110" />
        <path id="Capline-M" d="M18,276 l800,0" />
        <path id="Baseline-M" d="M18,346 l800,0" />
        <path id="Capline-L" d="M18,476 l800,0" />
        <path id="Baseline-L" d="M18,546 l800,0" />
    </g>
    <g id="Symbols">
        <g id="Ultralight-M" transform="translate(0,200)">
            <path d="M305.526,112.842 L305.526,87.053 C305.526,84.121 304.362,81.31 302.289,79.237 C300.216,77.164 297.405,76 294.474,76 L235.526,76 C232.595,76 229.784,77.164 227.711,79.237 C225.638,81.31 224.474,84.121 224.474,87.053 L224.474,131.263 C224.474,137.351 229.439,142.316 235.526,142.316 L265,142.316 C267.035,142.316 268.684,140.666 268.684,138.632 C268.684,136.597 267.035,134.947 265,134.947 L235.526,134.947 C233.508,134.947 231.842,133.281 231.842,131.263 L231.842,87.053 C231.842,86.076 232.23,85.138 232.921,84.448 C233.612,83.757 234.549,83.368 235.526,83.368 L294.474,83.368 C295.451,83.368 296.388,83.757 297.079,84.447 C297.77,85.138 298.158,86.076 298.158,87.053 L298.158,112.842 C298.158,114.877 299.807,116.526 301.842,116.526 C303.877,116.526 305.526,114.877 305.526,112.842 Z" />
            <path d="M299.866,87.627 L266.819,108.627 C265.714,109.319 264.286,109.319 263.161,108.615 L230.134,87.627 C228.417,86.536 226.14,87.044 225.048,88.761 C223.957,90.478 224.465,92.755 226.182,93.846 L259.229,114.846 C262.766,117.063 267.234,117.063 270.751,114.859 L303.818,93.846 C305.535,92.755 306.043,90.478 304.952,88.761 C303.86,87.044 301.583,86.536 299.866,87.627 Z" />
            <path d="M277.132,137.553 L284.5,144.921 C285.939,146.36 288.272,146.36 289.71,144.921 L304.447,130.184 C305.886,128.745 305.886,126.413 304.447,124.974 C303.008,123.535 300.676,123.535 299.237,124.974 L284.5,139.711 L289.71,139.711 L282.342,132.342 C280.903,130.903 278.57,130.903 277.132,132.342 C275.693,133.781 275.693,136.114 277.132,137.553 Z" />
        </g>
        <g id="Regular-M" transform="translate(0,200)">
            <path d="M505.526,112.842 L505.526,87.053 C505.526,84.121 504.362,81.31 502.289,79.237 C500.216,77.164 497.405,76 494.474,76 L435.526,76 C432.595,76 429.784,77.164 427.711,79.237 C425.638,81.31 424.474,84.121 424.474,87.053 L424.474,131.263 C424.474,137.351 429.439,142.316 435.526,142.316 L465,142.316 C467.035,142.316 468.684,140.666 468.684,138.632 C468.684,136.597 467.035,134.947 465,134.947 L435.526,134.947 C433.508,134.947 431.842,133.281 431.842,131.263 L431.842,87.053 C431.842,86.076 432.23,85.138 432.921,84.448 C433.612,83.757 434.549,83.368 435.526,83.368 L494.474,83.368 C495.451,83.368 496.388,83.757 497.079,84.447 C497.77,85.138 498.158,86.076 498.158,87.053 L498.158,112.842 C498.158,114.877 499.807,116.526 501.842,116.526 C503.877,116.526 505.526,114.877 505.526,112.842 Z" />
            <path d="M499.866,87.627 L466.819,108.627 C465.714,109.319 464.286,109.319 463.161,108.615 L430.134,87.627 C428.417,86.536 426.14,87.044 425.048,88.761 C423.957,90.478 424.465,92.755 426.182,93.846 L459.229,114.846 C462.766,117.063 467.234,117.063 470.751,114.859 L503.818,93.846 C505.535,92.755 506.043,90.478 504.952,88.761 C503.86,87.044 501.583,86.536 499.866,87.627 Z" />
            <path d="M477.132,137.553 L484.5,144.921 C485.939,146.36 488.272,146.36 489.71,144.921 L504.447,130.184 C505.886,128.745 505.886,126.413 504.447,124.974 C503.008,123.535 500.676,123.535 499.237,124.974 L484.5,139.711 L489.71,139.711 L482.342,132.342 C480.903,130.903 478.57,130.903 477.132,132.342 C475.693,133.781 475.693,136.114 477.132,137.553 Z" />
        </g>
        <g id="Black-M" transform="translate(0,200)">
            <path d="M705.526,112.842 L705.526,87.053 C705.526,84.121 704.362,81.31 702.289,79.237 C700.216,77.164 697.405,76 694.474,76 L635.526,76 C632.595,76 629.784,77.164 627.711,79.237 C625.638,81.31 624.474,84.121 624.474,87.053 L624.474,131.263 C624.474,137.351 629.439,142.316 635.526,142.316 L665,142.316 C667.035,142.316 668.684,140.666 668.684,138.632 C668.684,136.597 667.035,134.947 665,134.947 L635.526,134.947 C633.508,134.947 631.842,133.281 631.842,131.263 L631.842,87.053 C631.842,86.076 632.23,85.138 632.921,84.448 C633.612,83.757 634.549,83.368 635.526,83.368 L694.474,83.368 C695.451,83.368 696.388,83.757 697.079,84.447 C697.77,85.138 698.158,86.076 698.158,87.053 L698.158,112.842 C698.158,114.877 699.807,116.526 701.842,116.526 C703.877,116.526 705.526,114.877 705.526,112.842 Z" />
            <path d="M699.866,87.627 L666.819,108.627 C665.714,109.319 664.286,109.319 663.161,108.615 L630.134,87.627 C628.417,86.536 626.14,87.044 625.048,88.761 C623.957,90.478 624.465,92.755 626.182,93.846 L659.229,114.846 C662.766,117.063 667.234,117.063 670.751,114.859 L703.818,93.846 C705.535,92.755 706.043,90.478 704.952,88.761 C703.86,87.044 701.583,86.536 699.866,87.627 Z" />
            <path d="M677.132,137.553 L684.5,144.921 C685.939,146.36 688.272,146.36 689.71,144.921 L704.447,130.184 C705.886,128.745 705.886,126.413 704.447,124.974 C703.008,123.535 700.676,123.535 699.237,124.974 L684.5,139.711 L689.71,139.711 L682.342,132.342 C680.903,130.903 678.57,130.903 677.132,132.342 C675.693,133.781 675.693,136.114 677.132,137.553 Z" />
        </g>
    </g>
</svg>