<?xml version="1.0" encoding="UTF-8"?>
<svg height="600" width="800" xmlns="http://www.w3.org/2000/svg" xmlns:xlink="http://www.w3.org/1999/xlink">
    <g id="Notes" font-family="LucidaGrande, 'Lucida Grande', sans-serif" font-size="13">
        <rect fill="white" height="600.0" width="800.0" x="0.0" y="0.0" />
        <g font-size="13">
            <text x="18.0" y="176.0">Small</text>
            <text x="18.0" y="376.0">Medium</text>
            <text x="18.0" y="576.0">Large</text>
        </g>
        <g font-size="9">
            <text x="250.0" y="30.0">Ultralight</text>
            <text x="450.0" y="30.0">Regular</text>
            <text x="650.0" y="30.0">Black</text>
            <text id="template-version" fill="#505050" text-anchor="end" x="785.0" y="575.0">Template v.3.0</text>
            <a href="https://github.com/swhitty/SwiftDraw">
                <text fill="#505050" text-anchor="end" x="785.0" y="590.0">https://github.com/swhitty/SwiftDraw</text>
            </a>
        </g>
    </g>
    <g id="Guides" stroke="rgb(39, 170, 225)" stroke-width="0.5">
        <path id="Capline-S" d="M18,76 l800,0" />
        <path id="H-reference" d="M85,145.755 L87.685,145.755 L113.369,79.287 L114.052,79.287 L114.052,76 L112.148,76 L85,145.755 Z M95.693,121.536 L130.996,121.536 L130.263,119.313 L96.474,119.313 L95.693,121.536 Z M139.15,145.755 L141.787,145.755 L114.638,76 L113.466,76 L113.466,79.287 L139.15,145.755 Z" stroke="none" transform="translate(0,200)" />
        <path id="Baseline-S" d="M18,146 l800,0" />
        <path id="left-margin-Ultralight-M" d="M233.333,256 l0,110" />
        <path id="right-margin-Ultralight-M" d="M296.667,256 l0,110" />
        <path id="left-margin-Regular-M" d="M433.333,256 l0,110" />
        <path id="right-margin-Regular-M" d="M496.667,256 l0,110" />
        <path id="left-margin-Black-M" d="M633.333,256 l0,110" />
        <path id="right-margin-Black-M" d="M696.667,256 l0,110" />
        <path id="Capline-M" d="M18,276 l800,0" />
        <path id="Baseline-M" d="M18,346 l800,0" />
        <path id="Capline-L" d="M18,476 l800,0" />
        <path id="Baseline-L" d="M18,546 l800,0" />
    </g>
    <g id="Symbols">
        <g id="Ultralight-M" transform="translate(0,200)">
            <path d="M260.759,86.241 C260.967,84.048 262.804,82.374 265.002,82.374 C267.199,82.374 269.036,84.048 269.244,86.241 C269.548,89.677 271.515,92.768 274.515,94.502 C277.515,96.236 281.17,96.396 284.31,94.931 C286.278,94.036 288.637,94.794 289.733,96.696 C290.83,98.599 290.308,101.025 288.525,102.304 C285.716,104.279 284.029,107.531 284.029,111 C284.029,114.469 285.716,117.721 288.55,119.714 C290.308,120.975 290.83,123.401 289.733,125.304 C288.637,127.206 286.278,127.964 284.281,127.056 C281.17,125.604 277.515,125.764 274.515,127.498 C271.515,129.232 269.547,132.323 269.242,135.78 C269.036,137.952 267.199,139.626 265.002,139.626 C262.804,139.626 260.967,137.952 260.759,135.759 C260.456,132.323 258.488,129.231 255.487,127.496 C252.486,125.761 248.829,125.602 245.689,127.07 C243.722,127.964 241.363,127.206 240.267,125.304 C239.17,123.401 239.692,120.975 241.475,119.696 C244.284,117.721 245.971,114.469 245.971,111 C245.971,107.531 244.284,104.279 241.45,102.286 C239.697,101.026 239.176,98.602 240.272,96.701 C241.367,94.8 243.723,94.041 245.719,94.946 C248.827,96.396 252.482,96.236 255.482,94.502 C258.482,92.768 260.449,89.677 260.754,86.22 C260.909,84.466 259.616,82.919 257.866,82.764 C256.117,82.609 254.573,83.905 254.418,85.658 C254.296,87.045 253.506,88.285 252.303,88.981 C251.099,89.677 249.633,89.741 248.373,89.153 C243.366,86.883 237.494,88.774 234.763,93.513 C232.032,98.252 233.332,104.294 237.769,107.484 C238.933,108.304 239.61,109.608 239.61,111 C239.61,112.392 238.933,113.696 237.796,114.496 C233.328,117.703 232.025,123.75 234.759,128.492 C237.493,133.235 243.372,135.124 248.348,132.86 C249.637,132.258 251.105,132.321 252.309,133.017 C253.513,133.713 254.302,134.954 254.424,136.341 C254.945,141.827 259.524,146 265.002,146 C270.479,146 275.058,141.827 275.577,136.363 C275.701,134.955 276.49,133.715 277.694,133.019 C278.898,132.323 280.364,132.259 281.624,132.847 C286.628,135.124 292.507,133.235 295.241,128.492 C297.975,123.75 296.672,117.703 292.229,114.514 C291.067,113.696 290.39,112.392 290.39,111 C290.39,109.608 291.067,108.304 292.204,107.504 C296.672,104.297 297.975,98.25 295.241,93.508 C292.507,88.765 286.628,86.876 281.652,89.14 C280.364,89.741 278.898,89.677 277.694,88.981 C276.49,88.285 275.701,87.045 275.579,85.658 C275.058,80.173 270.479,76 265.002,76 C259.524,76 254.945,80.173 254.426,85.637 C254.26,87.39 255.543,88.945 257.292,89.112 C259.04,89.278 260.593,87.993 260.759,86.241 Z" />
            <path d="M258.639,111.002 C258.639,107.481 261.487,104.628 265,104.628 C268.513,104.628 271.361,107.481 271.361,111.002 C271.361,114.522 268.513,117.376 265,117.376 C261.487,117.376 258.639,114.522 258.639,111.002 Z M252.278,111.002 C252.278,118.042 257.974,123.75 265,123.75 C272.026,123.75 277.722,118.042 277.722,111.002 C277.722,103.961 272.026,98.254 265,98.254 C257.974,98.254 252.278,103.961 252.278,111.002 Z" />
        </g>
        <g id="Regular-M" transform="translate(0,200)">
            <path d="M460.759,86.241 C460.967,84.048 462.804,82.374 465.002,82.374 C467.199,82.374 469.036,84.048 469.244,86.241 C469.548,89.677 471.515,92.768 474.515,94.502 C477.515,96.236 481.17,96.396 484.31,94.931 C486.278,94.036 488.637,94.794 489.733,96.696 C490.83,98.599 490.308,101.025 488.525,102.304 C485.716,104.279 484.029,107.531 484.029,111 C484.029,114.469 485.716,117.721 488.55,119.714 C490.308,120.975 490.83,123.401 489.733,125.304 C488.637,127.206 486.278,127.964 484.281,127.056 C481.17,125.604 477.515,125.764 474.515,127.498 C471.515,129.232 469.548,132.323 469.242,135.78 C469.036,137.952 467.199,139.626 465.002,139.626 C462.804,139.626 460.967,137.952 460.759,135.759 C460.456,132.323 458.488,129.231 455.487,127.496 C452.486,125.761 448.829,125.602 445.689,127.07 C443.722,127.964 441.363,127.206 440.267,125.304 C439.17,123.401 439.692,120.975 441.475,119.696 C444.284,117.721 445.971,114.469 445.971,111 C445.971,107.531 444.284,104.279 441.45,102.286 C439.697,101.026 439.176,98.602 440.272,96.701 C441.367,94.8 443.723,94.041 445.719,94.946 C448.827,96.396 452.482,96.236 455.482,94.502 C458.482,92.768 460.449,89.677 460.754,86.22 C460.909,84.466 459.616,82.919 457.867,82.764 C456.117,82.609 454.573,83.905 454.418,85.658 C454.296,87.045 453.506,88.285 452.303,88.981 C451.099,89.677 449.633,89.741 448.373,89.153 C443.366,86.883 437.494,88.774 434.763,93.513 C432.032,98.252 433.332,104.294 437.769,107.484 C438.933,108.304 439.61,109.608 439.61,111 C439.61,112.392 438.933,113.696 437.796,114.496 C433.328,117.703 432.025,123.75 434.759,128.492 C437.493,133.235 443.372,135.124 448.348,132.86 C449.637,132.258 451.105,132.321 452.309,133.017 C453.513,133.713 454.302,134.954 454.424,136.341 C454.945,141.827 459.524,146 465.002,146 C470.479,146 475.058,141.827 475.577,136.363 C475.701,134.955 476.49,133.715 477.694,133.019 C478.898,132.323 480.364,132.259 481.624,132.847 C486.628,135.124 492.507,133.235 495.241,128.492 C497.975,123.75 496.672,117.703 492.229,114.514 C491.067,113.696 490.39,112.392 490.39,111 C490.39,109.608 491.067,108.304 492.204,107.504 C496.672,104.297 497.975,98.25 495.241,93.508 C492.507,88.765 486.628,86.876 481.652,89.14 C480.364,89.741 478.898,89.677 477.694,88.981 C476.491,88.285 475.701,87.045 475.579,85.658 C475.058,80.173 470.479,76 465.002,76 C459.524,76 454.945,80.173 454.426,85.637 C454.26,87.39 455.543,88.945 457.292,89.112 C459.04,89.278 460.593,87.993 460.759,86.241 Z" />
            <path d="M458.639,111.002 C458.639,107.481 461.487,104.628 465,104.628 C468.513,104.628 471.361,107.481 471.361,111.002 C471.361,114.522 468.513,117.376 465,117.376 C461.487,117.376 458.639,114.522 458.639,111.002 Z M452.278,111.002 C452.278,118.042 457.974,123.75 465,123.75 C472.026,123.75 477.722,118.042 477.722,111.002 C477.722,103.961 472.026,98.254 465,98.254 C457.974,98.254 452.278,103.961 452.278,111.002 Z" />
        </g>
        <g id="Black-M" transform="translate(0,200)">
            <path d="M660.759,86.241 C660.967,84.048 662.804,82.374 665.002,82.374 C667.199,82.374 669.036,84.048 669.244,86.241 C669.547,89.677 671.515,92.768 674.515,94.502 C677.515,96.236 681.17,96.396 684.31,94.931 C686.278,94.036 688.636,94.794 689.733,96.696 C690.83,98.599 690.308,101.025 688.525,102.304 C685.716,104.279 684.029,107.531 684.029,111 C684.029,114.469 685.716,117.721 688.55,119.714 C690.308,120.975 690.83,123.401 689.733,125.304 C688.636,127.206 686.278,127.964 684.281,127.056 C681.17,125.604 677.515,125.764 674.515,127.498 C671.515,129.232 669.547,132.323 669.242,135.78 C669.036,137.952 667.199,139.626 665.002,139.626 C662.804,139.626 660.967,137.952 660.759,135.759 C660.456,132.323 658.488,129.231 655.487,127.496 C652.486,125.761 648.829,125.602 645.689,127.07 C643.722,127.964 641.363,127.206 640.267,125.304 C639.17,123.401 639.692,120.975 641.475,119.696 C644.284,117.721 645.971,114.469 645.971,111 C645.971,107.531 644.284,104.279 641.45,102.286 C639.697,101.026 639.176,98.602 640.272,96.701 C641.367,94.8 643.723,94.041 645.719,94.946 C648.827,96.396 652.482,96.236 655.482,94.502 C658.482,92.768 660.449,89.677 660.754,86.22 C660.909,84.466 659.616,82.919 657.866,82.764 C656.117,82.609 654.573,83.905 654.418,85.658 C654.296,87.045 653.506,88.285 652.303,88.981 C651.099,89.677 649.633,89.741 648.373,89.153 C643.366,86.883 637.494,88.774 634.763,93.513 C632.032,98.252 633.332,104.294 637.768,107.484 C638.933,108.304 639.61,109.608 639.61,111 C639.61,112.392 638.933,113.696 637.796,114.496 C633.328,117.703 632.025,123.75 634.759,128.492 C637.493,133.235 643.372,135.124 648.348,132.86 C649.637,132.258 651.104,132.321 652.309,133.017 C653.513,133.713 654.302,134.954 654.424,136.341 C654.945,141.827 659.524,146 665.002,146 C670.479,146 675.058,141.827 675.577,136.363 C675.701,134.955 676.49,133.715 677.694,133.019 C678.898,132.323 680.364,132.259 681.624,132.847 C686.628,135.124 692.507,133.235 695.241,128.492 C697.975,123.75 696.672,117.703 692.229,114.514 C691.067,113.696 690.39,112.392 690.39,111 C690.39,109.608 691.067,108.304 692.204,107.504 C696.672,104.297 697.975,98.25 695.241,93.508 C692.507,88.765 686.628,86.876 681.652,89.14 C680.364,89.741 678.898,89.677 677.694,88.981 C676.49,88.285 675.701,87.045 675.579,85.658 C675.058,80.173 670.479,76 665.002,76 C659.524,76 654.945,80.173 654.426,85.637 C654.26,87.39 655.543,88.945 657.292,89.112 C659.04,89.278 660.593,87.993 660.759,86.241 Z" />
            <path d="M658.639,111.002 C658.639,107.481 661.487,104.628 665,104.628 C668.513,104.628 671.361,107.481 671.361,111.002 C671.361,114.522 668.513,117.376 665,117.376 C661.487,117.376 658.639,114.522 658.639,111.002 Z M652.278,111.002 C652.278,118.042 657.974,123.75 665,123.75 C672.026,123.75 677.722,118.042 677.722,111.002 C677.722,103.961 672.026,98.254 665,98.254 C657.974,98.254 652.278,103.961 652.278,111.002 Z" />
        </g>
    </g>
</svg>