<?xml version="1.0" encoding="UTF-8"?>
<svg height="600" width="800" xmlns="http://www.w3.org/2000/svg" xmlns:xlink="http://www.w3.org/1999/xlink">
    <g id="Notes" font-family="LucidaGrande, 'Lucida Grande', sans-serif" font-size="13">
        <rect fill="white" height="600.0" width="800.0" x="0.0" y="0.0" />
        <g font-size="13">
            <text x="18.0" y="176.0">Small</text>
            <text x="18.0" y="376.0">Medium</text>
            <text x="18.0" y="576.0">Large</text>
        </g>
        <g font-size="9">
            <text x="250.0" y="30.0">Ultralight</text>
            <text x="450.0" y="30.0">Regular</text>
            <text x="650.0" y="30.0">Black</text>
            <text id="template-version" fill="#505050" text-anchor="end" x="785.0" y="575.0">Template v.3.0</text>
            <a href="https://github.com/swhitty/SwiftDraw">
                <text fill="#505050" text-anchor="end" x="785.0" y="590.0">https://github.com/swhitty/SwiftDraw</text>
            </a>
        </g>
    </g>
    <g id="Guides" stroke="rgb(39, 170, 225)" stroke-width="0.5">
        <path id="Capline-S" d="M18,76 l800,0" />
        <path id="H-reference" d="M85,145.755 L87.685,145.755 L113.369,79.287 L114.052,79.287 L114.052,76 L112.148,76 L85,145.755 Z M95.693,121.536 L130.996,121.536 L130.263,119.313 L96.474,119.313 L95.693,121.536 Z M139.15,145.755 L141.787,145.755 L114.638,76 L113.466,76 L113.466,79.287 L139.15,145.755 Z" stroke="none" transform="translate(0,200)" />
        <path id="Baseline-S" d="M18,146 l800,0" />
        <path id="left-margin-Ultralight-M" d="M231.667,256 l0,110" />
        <path id="right-margin-Ultralight-M" d="M298.333,256 l0,110" />
        <path id="left-margin-Regular-M" d="M431.667,256 l0,110" />
        <path id="right-margin-Regular-M" d="M498.333,256 l0,110" />
        <path id="left-margin-Black-M" d="M631.667,256 l0,110" />
        <path id="right-margin-Black-M" d="M698.333,256 l0,110" />
        <path id="Capline-M" d="M18,276 l800,0" />
        <path id="Baseline-M" d="M18,346 l800,0" />
        <path id="Capline-L" d="M18,476 l800,0" />
        <path id="Baseline-L" d="M18,546 l800,0" />
    </g>
    <g id="Symbols">
        <g id="Ultralight-M" transform="translate(0,200)">
            <path d="M267.439,142.818 L267.439,110.997 C267.439,109.239 265.983,107.815 264.187,107.815 C262.391,107.815 260.935,109.239 260.935,110.997 L260.935,142.818 C260.935,144.575 262.391,146 264.187,146 C265.983,146 267.439,144.575 267.439,142.818 Z" />
            <path d="M276.522,121.202 L292.782,137.113 C294.052,138.355 296.111,138.355 297.381,137.113 C298.651,135.87 298.651,133.855 297.381,132.612 L281.121,116.702 C279.851,115.459 277.792,115.459 276.522,116.702 C275.252,117.945 275.252,119.959 276.522,121.202 Z" />
            <path d="M281.121,137.113 L297.381,121.202 C298.651,119.959 298.651,117.945 297.381,116.702 C296.111,115.459 294.052,115.459 292.782,116.702 L276.522,132.612 C275.252,133.855 275.252,135.87 276.522,137.113 C277.792,138.355 279.851,138.355 281.121,137.113 Z" />
            <path d="M296.707,106.224 L296.707,98.268 C296.704,94.858 294.845,91.711 291.829,90.007 L269.052,77.272 C266.046,75.574 262.327,75.574 259.309,77.279 L236.557,90 C233.529,91.711 231.67,94.858 231.667,98.265 L231.667,123.725 C231.672,127.136 233.531,130.28 236.545,131.983 L259.322,144.718 C262.325,146.417 266.044,146.419 269.064,144.715 L269.471,144.489 C271.032,143.619 271.577,141.676 270.688,140.149 C269.8,138.622 267.814,138.088 266.253,138.958 L265.83,139.193 C264.808,139.77 263.568,139.77 262.562,139.201 L239.784,126.464 C238.792,125.904 238.173,124.856 238.171,123.72 L238.171,98.268 C238.172,97.136 238.792,96.087 239.797,95.519 L262.548,82.798 C263.567,82.222 264.807,82.222 265.813,82.791 L288.59,95.526 C289.582,96.087 290.202,97.136 290.203,98.272 L290.203,106.224 C290.203,107.981 291.659,109.406 293.455,109.406 C295.251,109.406 296.707,107.981 296.707,106.224 Z" />
            <path d="M234.243,97.846 L262.568,113.756 C263.571,114.32 264.803,114.32 265.806,113.756 L294.131,97.846 C295.689,96.971 296.227,95.026 295.333,93.502 C294.438,91.978 292.451,91.451 290.893,92.326 L262.568,108.237 L265.806,108.237 L237.481,92.326 C235.923,91.451 233.936,91.978 233.041,93.502 C232.147,95.026 232.685,96.971 234.243,97.846 Z" />
            <path d="M247.938,89.161 L277.196,105.542 C278.755,106.415 280.742,105.886 281.634,104.361 C282.526,102.835 281.985,100.891 280.426,100.019 L251.168,83.637 C249.609,82.764 247.622,83.293 246.73,84.819 C245.838,86.344 246.379,88.288 247.938,89.161 Z" />
        </g>
        <g id="Regular-M" transform="translate(0,200)">
            <path d="M467.439,142.818 L467.439,110.997 C467.439,109.239 465.983,107.815 464.187,107.815 C462.391,107.815 460.935,109.239 460.935,110.997 L460.935,142.818 C460.935,144.575 462.391,146 464.187,146 C465.983,146 467.439,144.575 467.439,142.818 Z" />
            <path d="M476.522,121.202 L492.782,137.113 C494.052,138.355 496.111,138.355 497.381,137.113 C498.651,135.87 498.651,133.855 497.381,132.612 L481.121,116.702 C479.851,115.459 477.792,115.459 476.522,116.702 C475.252,117.945 475.252,119.959 476.522,121.202 Z" />
            <path d="M481.121,137.113 L497.381,121.202 C498.651,119.959 498.651,117.945 497.381,116.702 C496.111,115.459 494.052,115.459 492.782,116.702 L476.522,132.612 C475.252,133.855 475.252,135.87 476.522,137.113 C477.792,138.355 479.851,138.355 481.121,137.113 Z" />
            <path d="M496.707,106.224 L496.707,98.268 C496.704,94.858 494.845,91.711 491.829,90.007 L469.052,77.272 C466.046,75.574 462.327,75.574 459.309,77.279 L436.557,90 C433.529,91.711 431.67,94.858 431.667,98.265 L431.667,123.725 C431.672,127.136 433.531,130.28 436.545,131.983 L459.322,144.718 C462.325,146.417 466.044,146.419 469.064,144.715 L469.471,144.489 C471.032,143.619 471.577,141.676 470.688,140.149 C469.8,138.622 467.814,138.088 466.253,138.958 L465.83,139.193 C464.808,139.77 463.568,139.77 462.562,139.201 L439.784,126.464 C438.792,125.904 438.173,124.856 438.171,123.72 L438.171,98.268 C438.172,97.136 438.792,96.087 439.797,95.519 L462.548,82.798 C463.567,82.222 464.807,82.222 465.813,82.791 L488.59,95.526 C489.582,96.087 490.202,97.136 490.203,98.272 L490.203,106.224 C490.203,107.981 491.659,109.406 493.455,109.406 C495.251,109.406 496.707,107.981 496.707,106.224 Z" />
            <path d="M434.243,97.846 L462.568,113.756 C463.571,114.32 464.803,114.32 465.806,113.756 L494.131,97.846 C495.689,96.971 496.227,95.026 495.333,93.502 C494.438,91.978 492.451,91.451 490.893,92.326 L462.568,108.237 L465.806,108.237 L437.481,92.326 C435.923,91.451 433.936,91.978 433.041,93.502 C432.147,95.026 432.685,96.971 434.243,97.846 Z" />
            <path d="M447.938,89.161 L477.196,105.542 C478.755,106.415 480.742,105.886 481.634,104.361 C482.526,102.835 481.985,100.891 480.426,100.019 L451.168,83.637 C449.609,82.764 447.622,83.293 446.73,84.819 C445.838,86.344 446.379,88.288 447.938,89.161 Z" />
        </g>
        <g id="Black-M" transform="translate(0,200)">
            <path d="M667.439,142.818 L667.439,110.997 C667.439,109.239 665.983,107.815 664.187,107.815 C662.391,107.815 660.935,109.239 660.935,110.997 L660.935,142.818 C660.935,144.575 662.391,146 664.187,146 C665.983,146 667.439,144.575 667.439,142.818 Z" />
            <path d="M676.522,121.202 L692.782,137.113 C694.052,138.355 696.111,138.355 697.381,137.113 C698.651,135.87 698.651,133.855 697.381,132.612 L681.121,116.702 C679.851,115.459 677.792,115.459 676.522,116.702 C675.252,117.945 675.252,119.959 676.522,121.202 Z" />
            <path d="M681.121,137.113 L697.381,121.202 C698.651,119.959 698.651,117.945 697.381,116.702 C696.111,115.459 694.052,115.459 692.782,116.702 L676.522,132.612 C675.252,133.855 675.252,135.87 676.522,137.113 C677.792,138.355 679.851,138.355 681.121,137.113 Z" />
            <path d="M696.707,106.224 L696.707,98.268 C696.704,94.858 694.845,91.711 691.829,90.007 L669.052,77.272 C666.046,75.574 662.327,75.574 659.309,77.279 L636.557,90 C633.529,91.711 631.67,94.858 631.667,98.265 L631.667,123.725 C631.672,127.136 633.531,130.28 636.545,131.983 L659.322,144.718 C662.325,146.417 666.044,146.419 669.064,144.715 L669.471,144.489 C671.032,143.619 671.577,141.676 670.688,140.149 C669.8,138.622 667.814,138.088 666.253,138.958 L665.83,139.193 C664.808,139.77 663.568,139.77 662.562,139.201 L639.784,126.464 C638.792,125.904 638.173,124.856 638.171,123.72 L638.171,98.268 C638.172,97.136 638.792,96.087 639.797,95.519 L662.548,82.798 C663.567,82.222 664.807,82.222 665.813,82.791 L688.59,95.526 C689.582,96.087 690.202,97.136 690.203,98.272 L690.203,106.224 C690.203,107.981 691.659,109.406 693.455,109.406 C695.251,109.406 696.707,107.981 696.707,106.224 Z" />
            <path d="M634.243,97.846 L662.568,113.756 C663.571,114.32 664.803,114.32 665.806,113.756 L694.131,97.846 C695.689,96.971 696.227,95.026 695.333,93.502 C694.438,91.978 692.451,91.451 690.893,92.326 L662.568,108.237 L665.806,108.237 L637.481,92.326 C635.923,91.451 633.936,91.978 633.041,93.502 C632.147,95.026 632.685,96.971 634.243,97.846 Z" />
            <path d="M647.938,89.161 L677.196,105.542 C678.755,106.415 680.742,105.886 681.634,104.361 C682.526,102.835 681.985,100.891 680.427,100.019 L651.168,83.637 C649.609,82.764 647.622,83.293 646.73,84.819 C645.838,86.344 646.379,88.288 647.938,89.161 Z" />
        </g>
    </g>
</svg>