<?xml version="1.0" encoding="UTF-8"?>
<svg height="600" width="800" xmlns="http://www.w3.org/2000/svg" xmlns:xlink="http://www.w3.org/1999/xlink">
    <g id="Notes" font-family="LucidaGrande, 'Lucida Grande', sans-serif" font-size="13">
        <rect fill="white" height="600.0" width="800.0" x="0.0" y="0.0" />
        <g font-size="13">
            <text x="18.0" y="176.0">Small</text>
            <text x="18.0" y="376.0">Medium</text>
            <text x="18.0" y="576.0">Large</text>
        </g>
        <g font-size="9">
            <text x="250.0" y="30.0">Ultralight</text>
            <text x="450.0" y="30.0">Regular</text>
            <text x="650.0" y="30.0">Black</text>
            <text id="template-version" fill="#505050" text-anchor="end" x="785.0" y="575.0">Template v.3.0</text>
            <a href="https://github.com/swhitty/SwiftDraw">
                <text fill="#505050" text-anchor="end" x="785.0" y="590.0">https://github.com/swhitty/SwiftDraw</text>
            </a>
        </g>
    </g>
    <g id="Guides" stroke="rgb(39, 170, 225)" stroke-width="0.5">
        <path id="Capline-S" d="M18,76 l800,0" />
        <path id="H-reference" d="M85,145.755 L87.685,145.755 L113.369,79.287 L114.052,79.287 L114.052,76 L112.148,76 L85,145.755 Z M95.693,121.536 L130.996,121.536 L130.263,119.313 L96.474,119.313 L95.693,121.536 Z M139.15,145.755 L141.787,145.755 L114.638,76 L113.466,76 L113.466,79.287 L139.15,145.755 Z" stroke="none" transform="translate(0,200)" />
        <path id="Baseline-S" d="M18,146 l800,0" />
        <path id="left-margin-Ultralight-M" d="M230,256 l0,110" />
        <path id="right-margin-Ultralight-M" d="M300,256 l0,110" />
        <path id="left-margin-Regular-M" d="M430,256 l0,110" />
        <path id="right-margin-Regular-M" d="M500,256 l0,110" />
        <path id="left-margin-Black-M" d="M630,256 l0,110" />
        <path id="right-margin-Black-M" d="M700,256 l0,110" />
        <path id="Capline-M" d="M18,276 l800,0" />
        <path id="Baseline-M" d="M18,346 l800,0" />
        <path id="Capline-L" d="M18,476 l800,0" />
        <path id="Baseline-L" d="M18,546 l800,0" />
    </g>
    <g id="Symbols">
        <g id="Ultralight-M" transform="translate(0,200)">
            <path d="M236.364,111 C236.364,95.185 249.185,82.364 265,82.364 C280.815,82.364 293.636,95.185 293.636,111 C293.636,126.815 280.815,139.636 265,139.636 C249.185,139.636 236.364,126.815 236.364,111 Z M230,111 C230,130.33 245.67,146 265,146 C284.33,146 300,130.33 300,111 C300,91.67 284.33,76 265,76 C245.67,76 230,91.67 230,111 Z" />
            <path d="M265.006,98.037 C265.006,98.037 265.006,98.037 265.006,98.037 C265.006,98.037 265.006,98.037 265.006,98.037 L265.217,98.567 L267.562,103.187 C268.489,105.011 270.234,106.277 272.253,106.593 L277.451,107.408 L277.931,107.446 C277.931,107.446 277.931,107.446 277.931,107.446 C277.931,107.446 277.931,107.446 277.931,107.446 L277.569,107.757 L273.839,111.473 C272.392,112.914 271.724,114.964 272.046,116.983 L272.871,122.119 L273.011,122.672 C273.011,122.672 273.011,122.672 273.011,122.672 C273.011,122.672 273.011,122.672 273.011,122.672 L272.559,122.39 L267.898,120.004 C266.077,119.071 263.917,119.071 262.095,120.005 L257.435,122.39 L256.992,122.665 C256.992,122.665 256.992,122.665 256.992,122.665 C256.992,122.665 256.992,122.665 256.992,122.665 L257.13,122.12 L257.951,116.988 C258.274,114.968 257.606,112.915 256.156,111.472 L252.479,107.808 L252.045,107.446 C252.045,107.446 252.045,107.446 252.045,107.446 C252.045,107.446 252.045,107.446 252.045,107.446 L252.546,107.408 L257.742,106.593 C259.76,106.277 261.505,105.011 262.431,103.189 L264.817,98.492 L265.006,98.037 Z M258.955,96.065 L261.98,97.051 L259.144,95.61 L256.757,100.306 C256.757,100.306 256.757,100.306 256.757,100.306 L251.56,101.121 L252.053,104.264 L252.061,101.082 C249.275,101.075 246.808,102.882 245.974,105.54 C245.139,108.198 246.131,111.09 248.421,112.677 L250.233,110.061 L247.987,112.315 L251.665,115.981 C251.667,115.982 251.667,115.982 251.667,115.982 L250.846,121.115 L253.988,121.618 L250.983,120.571 C250.064,123.207 250.971,126.134 253.22,127.789 C255.468,129.444 258.532,129.441 260.777,127.781 L258.885,125.223 L260.335,128.055 L264.996,125.669 C264.997,125.668 264.997,125.668 264.997,125.668 L269.659,128.055 L271.109,125.223 L269.207,127.773 C271.452,129.448 274.527,129.458 276.783,127.798 C279.039,126.138 279.944,123.198 279.013,120.557 L276.012,121.615 L279.154,121.11 L278.33,115.978 C278.33,115.982 278.33,115.982 278.33,115.982 L282.061,112.264 L279.815,110.01 L281.698,112.575 C283.911,110.949 284.832,108.087 283.982,105.476 C283.132,102.864 280.702,101.093 277.956,101.082 L277.944,104.264 L278.436,101.121 L273.237,100.306 C273.236,100.306 273.236,100.306 273.236,100.306 L270.892,95.687 L268.055,97.127 L271.104,96.217 C270.307,93.55 267.869,91.709 265.086,91.674 C262.302,91.639 259.818,93.418 258.955,96.065 Z" />
        </g>
        <g id="Regular-M" transform="translate(0,200)">
            <path d="M436.364,111 C436.364,95.185 449.185,82.364 465,82.364 C480.815,82.364 493.636,95.185 493.636,111 C493.636,126.815 480.815,139.636 465,139.636 C449.185,139.636 436.364,126.815 436.364,111 Z M430,111 C430,130.33 445.67,146 465,146 C484.33,146 500,130.33 500,111 C500,91.67 484.33,76 465,76 C445.67,76 430,91.67 430,111 Z" />
            <path d="M465.006,98.037 C465.006,98.037 465.006,98.037 465.006,98.037 C465.006,98.037 465.006,98.037 465.006,98.037 L465.217,98.567 L467.562,103.187 C468.489,105.011 470.234,106.277 472.253,106.593 L477.451,107.408 L477.931,107.446 C477.931,107.446 477.931,107.446 477.931,107.446 C477.931,107.446 477.931,107.446 477.931,107.446 L477.569,107.757 L473.839,111.473 C472.392,112.914 471.724,114.964 472.046,116.983 L472.871,122.119 L473.011,122.672 C473.011,122.672 473.011,122.672 473.011,122.672 C473.011,122.672 473.011,122.672 473.011,122.672 L472.559,122.39 L467.898,120.004 C466.077,119.071 463.917,119.071 462.095,120.005 L457.435,122.39 L456.992,122.665 C456.992,122.665 456.992,122.665 456.992,122.665 C456.992,122.665 456.992,122.665 456.992,122.665 L457.13,122.12 L457.951,116.988 C458.274,114.968 457.606,112.915 456.156,111.472 L452.479,107.808 L452.045,107.446 C452.045,107.446 452.045,107.446 452.045,107.446 C452.045,107.446 452.045,107.446 452.045,107.446 L452.546,107.408 L457.742,106.593 C459.76,106.277 461.505,105.011 462.431,103.189 L464.817,98.492 L465.006,98.037 Z M458.955,96.065 L461.98,97.051 L459.144,95.61 L456.757,100.306 C456.757,100.306 456.757,100.306 456.757,100.306 L451.56,101.121 L452.053,104.264 L452.061,101.082 C449.275,101.075 446.808,102.882 445.974,105.54 C445.139,108.198 446.131,111.09 448.421,112.677 L450.233,110.061 L447.987,112.315 L451.665,115.981 C451.667,115.982 451.667,115.982 451.667,115.982 L450.846,121.115 L453.988,121.618 L450.983,120.571 C450.064,123.207 450.971,126.134 453.22,127.789 C455.468,129.444 458.532,129.441 460.777,127.781 L458.885,125.223 L460.335,128.055 L464.996,125.669 C464.997,125.668 464.997,125.668 464.997,125.668 L469.659,128.055 L471.109,125.223 L469.207,127.773 C471.452,129.448 474.527,129.458 476.783,127.798 C479.039,126.138 479.944,123.198 479.013,120.557 L476.012,121.615 L479.154,121.11 L478.33,115.978 C478.33,115.982 478.33,115.982 478.33,115.982 L482.061,112.264 L479.815,110.01 L481.698,112.575 C483.911,110.949 484.832,108.087 483.982,105.476 C483.132,102.864 480.702,101.093 477.956,101.082 L477.944,104.264 L478.436,101.121 L473.237,100.306 C473.236,100.306 473.236,100.306 473.236,100.306 L470.892,95.687 L468.055,97.127 L471.104,96.217 C470.307,93.55 467.869,91.709 465.086,91.674 C462.302,91.639 459.818,93.418 458.955,96.065 Z" />
        </g>
        <g id="Black-M" transform="translate(0,200)">
            <path d="M636.364,111 C636.364,95.185 649.185,82.364 665,82.364 C680.815,82.364 693.636,95.185 693.636,111 C693.636,126.815 680.815,139.636 665,139.636 C649.185,139.636 636.364,126.815 636.364,111 Z M630,111 C630,130.33 645.67,146 665,146 C684.33,146 700,130.33 700,111 C700,91.67 684.33,76 665,76 C645.67,76 630,91.67 630,111 Z" />
            <path d="M665.006,98.037 C665.006,98.037 665.006,98.037 665.006,98.037 C665.006,98.037 665.006,98.037 665.006,98.037 L665.217,98.567 L667.562,103.187 C668.489,105.011 670.234,106.277 672.253,106.593 L677.451,107.408 L677.931,107.446 C677.931,107.446 677.931,107.446 677.931,107.446 C677.931,107.446 677.931,107.446 677.931,107.446 L677.568,107.757 L673.839,111.473 C672.392,112.914 671.724,114.964 672.046,116.983 L672.871,122.119 L673.011,122.672 C673.011,122.672 673.011,122.672 673.011,122.672 C673.011,122.672 673.011,122.672 673.011,122.672 L672.559,122.39 L667.898,120.004 C666.077,119.071 663.917,119.071 662.095,120.005 L657.435,122.39 L656.992,122.665 C656.992,122.665 656.992,122.665 656.992,122.665 C656.992,122.665 656.992,122.665 656.992,122.665 L657.13,122.12 L657.951,116.988 C658.274,114.968 657.606,112.915 656.156,111.472 L652.479,107.808 L652.045,107.446 C652.045,107.446 652.045,107.446 652.045,107.446 C652.045,107.446 652.045,107.446 652.045,107.446 L652.546,107.408 L657.742,106.593 C659.76,106.277 661.505,105.011 662.431,103.189 L664.817,98.492 L665.006,98.037 Z M658.955,96.065 L661.98,97.051 L659.144,95.61 L656.757,100.306 C656.757,100.306 656.757,100.306 656.757,100.306 L651.56,101.121 L652.053,104.264 L652.061,101.082 C649.275,101.075 646.808,102.882 645.974,105.54 C645.139,108.198 646.131,111.09 648.421,112.677 L650.233,110.061 L647.987,112.315 L651.665,115.981 C651.667,115.982 651.667,115.982 651.667,115.982 L650.846,121.115 L653.988,121.618 L650.983,120.571 C650.065,123.207 650.971,126.134 653.22,127.789 C655.468,129.444 658.532,129.441 660.777,127.781 L658.885,125.223 L660.334,128.055 L664.996,125.669 C664.997,125.668 664.997,125.668 664.997,125.668 L669.659,128.055 L671.109,125.223 L669.207,127.773 C671.452,129.448 674.527,129.458 676.783,127.798 C679.039,126.138 679.944,123.198 679.013,120.557 L676.012,121.615 L679.154,121.11 L678.33,115.978 C678.33,115.982 678.33,115.982 678.33,115.982 L682.061,112.264 L679.815,110.01 L681.698,112.575 C683.911,110.949 684.832,108.087 683.982,105.476 C683.132,102.864 680.702,101.093 677.956,101.082 L677.944,104.264 L678.436,101.121 L673.237,100.306 C673.236,100.306 673.236,100.306 673.236,100.306 L670.892,95.687 L668.055,97.127 L671.104,96.217 C670.307,93.55 667.869,91.709 665.086,91.674 C662.302,91.639 659.818,93.418 658.955,96.065 Z" />
        </g>
    </g>
</svg>