<?xml version="1.0" encoding="UTF-8"?>
<svg height="600" width="800" xmlns="http://www.w3.org/2000/svg" xmlns:xlink="http://www.w3.org/1999/xlink">
    <g id="Notes" font-family="LucidaGrande, 'Lucida Grande', sans-serif" font-size="13">
        <rect fill="white" height="600.0" width="800.0" x="0.0" y="0.0" />
        <g font-size="13">
            <text x="18.0" y="176.0">Small</text>
            <text x="18.0" y="376.0">Medium</text>
            <text x="18.0" y="576.0">Large</text>
        </g>
        <g font-size="9">
            <text x="250.0" y="30.0">Ultralight</text>
            <text x="450.0" y="30.0">Regular</text>
            <text x="650.0" y="30.0">Black</text>
            <text id="template-version" fill="#505050" text-anchor="end" x="785.0" y="575.0">Template v.3.0</text>
            <a href="https://github.com/swhitty/SwiftDraw">
                <text fill="#505050" text-anchor="end" x="785.0" y="590.0">https://github.com/swhitty/SwiftDraw</text>
            </a>
        </g>
    </g>
    <g id="Guides" stroke="rgb(39, 170, 225)" stroke-width="0.5">
        <path id="Capline-S" d="M18,76 l800,0" />
        <path id="H-reference" d="M85,145.755 L87.685,145.755 L113.369,79.287 L114.052,79.287 L114.052,76 L112.148,76 L85,145.755 Z M95.693,121.536 L130.996,121.536 L130.263,119.313 L96.474,119.313 L95.693,121.536 Z M139.15,145.755 L141.787,145.755 L114.638,76 L113.466,76 L113.466,79.287 L139.15,145.755 Z" stroke="none" transform="translate(0,200)" />
        <path id="Baseline-S" d="M18,146 l800,0" />
        <path id="left-margin-Ultralight-M" d="M226.111,256 l0,110" />
        <path id="right-margin-Ultralight-M" d="M303.889,256 l0,110" />
        <path id="left-margin-Regular-M" d="M426.111,256 l0,110" />
        <path id="right-margin-Regular-M" d="M503.889,256 l0,110" />
        <path id="left-margin-Black-M" d="M626.111,256 l0,110" />
        <path id="right-margin-Black-M" d="M703.889,256 l0,110" />
        <path id="Capline-M" d="M18,276 l800,0" />
        <path id="Baseline-M" d="M18,346 l800,0" />
        <path id="Capline-L" d="M18,476 l800,0" />
        <path id="Baseline-L" d="M18,546 l800,0" />
    </g>
    <g id="Symbols">
        <g id="Ultralight-M" transform="translate(0,200)">
            <path d="M227.25,129.305 L242.806,144.861 C244.324,146.38 246.787,146.38 248.305,144.861 L263.861,129.305 C265.38,127.787 265.38,125.324 263.861,123.806 C262.342,122.287 259.88,122.287 258.361,123.806 L242.806,139.361 L248.305,139.361 L232.75,123.806 C231.231,122.287 228.769,122.287 227.25,123.806 C225.731,125.324 225.731,127.787 227.25,129.305 Z" />
            <path d="M249.444,142.111 L249.444,79.889 C249.444,77.741 247.703,76 245.556,76 C243.408,76 241.667,77.741 241.667,79.889 L241.667,142.111 C241.667,144.259 243.408,146 245.556,146 C247.703,146 249.444,144.259 249.444,142.111 Z" />
            <path d="M261.111,83.778 L276.667,83.778 C278.814,83.778 280.556,82.037 280.556,79.889 C280.556,77.741 278.814,76 276.667,76 L261.111,76 C258.963,76 257.222,77.741 257.222,79.889 C257.222,82.037 258.963,83.778 261.111,83.778 Z" />
            <path d="M261.111,99.333 L288.333,99.333 C290.481,99.333 292.222,97.592 292.222,95.444 C292.222,93.297 290.481,91.556 288.333,91.556 L261.111,91.556 C258.963,91.556 257.222,93.297 257.222,95.444 C257.222,97.592 258.963,99.333 261.111,99.333 Z" />
            <path d="M261.111,114.889 L300,114.889 C302.148,114.889 303.889,113.148 303.889,111 C303.889,108.852 302.148,107.111 300,107.111 L261.111,107.111 C258.963,107.111 257.222,108.852 257.222,111 C257.222,113.148 258.963,114.889 261.111,114.889 Z" />
        </g>
        <g id="Regular-M" transform="translate(0,200)">
            <path d="M427.25,129.305 L442.806,144.861 C444.324,146.38 446.787,146.38 448.305,144.861 L463.861,129.305 C465.38,127.787 465.38,125.324 463.861,123.806 C462.342,122.287 459.88,122.287 458.361,123.806 L442.806,139.361 L448.305,139.361 L432.75,123.806 C431.231,122.287 428.769,122.287 427.25,123.806 C425.731,125.324 425.731,127.787 427.25,129.305 Z" />
            <path d="M449.444,142.111 L449.444,79.889 C449.444,77.741 447.703,76 445.556,76 C443.408,76 441.667,77.741 441.667,79.889 L441.667,142.111 C441.667,144.259 443.408,146 445.556,146 C447.703,146 449.444,144.259 449.444,142.111 Z" />
            <path d="M461.111,83.778 L476.667,83.778 C478.814,83.778 480.556,82.037 480.556,79.889 C480.556,77.741 478.814,76 476.667,76 L461.111,76 C458.963,76 457.222,77.741 457.222,79.889 C457.222,82.037 458.963,83.778 461.111,83.778 Z" />
            <path d="M461.111,99.333 L488.333,99.333 C490.481,99.333 492.222,97.592 492.222,95.444 C492.222,93.297 490.481,91.556 488.333,91.556 L461.111,91.556 C458.963,91.556 457.222,93.297 457.222,95.444 C457.222,97.592 458.963,99.333 461.111,99.333 Z" />
            <path d="M461.111,114.889 L500,114.889 C502.148,114.889 503.889,113.148 503.889,111 C503.889,108.852 502.148,107.111 500,107.111 L461.111,107.111 C458.963,107.111 457.222,108.852 457.222,111 C457.222,113.148 458.963,114.889 461.111,114.889 Z" />
        </g>
        <g id="Black-M" transform="translate(0,200)">
            <path d="M627.25,129.305 L642.806,144.861 C644.324,146.38 646.787,146.38 648.305,144.861 L663.861,129.305 C665.38,127.787 665.38,125.324 663.861,123.806 C662.342,122.287 659.88,122.287 658.361,123.806 L642.806,139.361 L648.305,139.361 L632.75,123.806 C631.231,122.287 628.769,122.287 627.25,123.806 C625.731,125.324 625.731,127.787 627.25,129.305 Z" />
            <path d="M649.444,142.111 L649.444,79.889 C649.444,77.741 647.703,76 645.556,76 C643.408,76 641.667,77.741 641.667,79.889 L641.667,142.111 C641.667,144.259 643.408,146 645.556,146 C647.703,146 649.444,144.259 649.444,142.111 Z" />
            <path d="M661.111,83.778 L676.667,83.778 C678.814,83.778 680.556,82.037 680.556,79.889 C680.556,77.741 678.814,76 676.667,76 L661.111,76 C658.963,76 657.222,77.741 657.222,79.889 C657.222,82.037 658.963,83.778 661.111,83.778 Z" />
            <path d="M661.111,99.333 L688.333,99.333 C690.481,99.333 692.222,97.592 692.222,95.444 C692.222,93.297 690.481,91.556 688.333,91.556 L661.111,91.556 C658.963,91.556 657.222,93.297 657.222,95.444 C657.222,97.592 658.963,99.333 661.111,99.333 Z" />
            <path d="M661.111,114.889 L700,114.889 C702.148,114.889 703.889,113.148 703.889,111 C703.889,108.852 702.148,107.111 700,107.111 L661.111,107.111 C658.963,107.111 657.222,108.852 657.222,111 C657.222,113.148 658.963,114.889 661.111,114.889 Z" />
        </g>
    </g>
</svg>