<?xml version="1.0" encoding="UTF-8"?>
<svg height="600" width="800" xmlns="http://www.w3.org/2000/svg" xmlns:xlink="http://www.w3.org/1999/xlink">
    <g id="Notes" font-family="LucidaGrande, 'Lucida Grande', sans-serif" font-size="13">
        <rect fill="white" height="600.0" width="800.0" x="0.0" y="0.0" />
        <g font-size="13">
            <text x="18.0" y="176.0">Small</text>
            <text x="18.0" y="376.0">Medium</text>
            <text x="18.0" y="576.0">Large</text>
        </g>
        <g font-size="9">
            <text x="250.0" y="30.0">Ultralight</text>
            <text x="450.0" y="30.0">Regular</text>
            <text x="650.0" y="30.0">Black</text>
            <text id="template-version" fill="#505050" text-anchor="end" x="785.0" y="575.0">Template v.3.0</text>
            <a href="https://github.com/swhitty/SwiftDraw">
                <text fill="#505050" text-anchor="end" x="785.0" y="590.0">https://github.com/swhitty/SwiftDraw</text>
            </a>
        </g>
    </g>
    <g id="Guides" stroke="rgb(39, 170, 225)" stroke-width="0.5">
        <path id="Capline-S" d="M18,76 l800,0" />
        <path id="H-reference" d="M85,145.755 L87.685,145.755 L113.369,79.287 L114.052,79.287 L114.052,76 L112.148,76 L85,145.755 Z M95.693,121.536 L130.996,121.536 L130.263,119.313 L96.474,119.313 L95.693,121.536 Z M139.15,145.755 L141.787,145.755 L114.638,76 L113.466,76 L113.466,79.287 L139.15,145.755 Z" stroke="none" transform="translate(0,200)" />
        <path id="Baseline-S" d="M18,146 l800,0" />
        <path id="left-margin-Ultralight-M" d="M226.5,256 l0,110" />
        <path id="right-margin-Ultralight-M" d="M303.5,256 l0,110" />
        <path id="left-margin-Regular-M" d="M426.5,256 l0,110" />
        <path id="right-margin-Regular-M" d="M503.5,256 l0,110" />
        <path id="left-margin-Black-M" d="M626.5,256 l0,110" />
        <path id="right-margin-Black-M" d="M703.5,256 l0,110" />
        <path id="Capline-M" d="M18,276 l800,0" />
        <path id="Baseline-M" d="M18,346 l800,0" />
        <path id="Capline-L" d="M18,476 l800,0" />
        <path id="Baseline-L" d="M18,546 l800,0" />
    </g>
    <g id="Symbols">
        <g id="Ultralight-M" transform="translate(0,200)">
            <path d="M261.5,86.5 L261.5,79.5 C261.5,77.567 259.933,76 258,76 C256.067,76 254.5,77.567 254.5,79.5 L254.5,86.5 C254.5,88.433 256.067,90 258,90 C259.933,90 261.5,88.433 261.5,86.5 Z" />
            <path d="M275.5,86.5 L275.5,79.5 C275.5,77.567 273.933,76 272,76 C270.067,76 268.5,77.567 268.5,79.5 L268.5,86.5 C268.5,88.433 270.067,90 272,90 C273.933,90 275.5,88.433 275.5,86.5 Z" />
            <path d="M279,142.5 L279,132 C279,124.268 272.732,118 265,118 C257.268,118 251,124.268 251,132 L251,142.5 C251,144.433 252.567,146 254.5,146 C256.433,146 258,144.433 258,142.5 L258,132 C258,128.134 261.134,125 265,125 C268.866,125 272,128.134 272,132 L272,142.5 C272,144.433 273.567,146 275.5,146 C277.433,146 279,144.433 279,142.5 Z" />
            <path d="M282.5,79.5 L282.5,107.5 C282.5,109.433 284.067,111 286,111 C287.933,111 289.5,109.433 289.5,107.5 L289.5,79.5 C289.5,77.567 287.933,76 286,76 C284.067,76 282.5,77.567 282.5,79.5 Z" />
            <path d="M286,83 L244,83 C242.067,83 240.5,84.567 240.5,86.5 C240.5,88.433 242.067,90 244,90 L286,90 C287.933,90 289.5,88.433 289.5,86.5 C289.5,84.567 287.933,83 286,83 Z" />
            <path d="M300,104 L230,104 C228.067,104 226.5,105.567 226.5,107.5 C226.5,109.433 228.067,111 230,111 L300,111 C301.933,111 303.5,109.433 303.5,107.5 C303.5,105.567 301.933,104 300,104 Z" />
            <path d="M296.5,100.5 L296.5,135.5 C296.5,136.428 296.131,137.318 295.475,137.975 C294.818,138.631 293.928,139 293,139 L237,139 C236.072,139 235.182,138.631 234.525,137.975 C233.869,137.318 233.5,136.428 233.5,135.5 L233.5,100.5 C233.5,98.567 231.933,97 230,97 C228.067,97 226.5,98.567 226.5,100.5 L226.5,135.5 C226.5,138.285 227.606,140.955 229.575,142.925 C231.545,144.894 234.215,146 237,146 L293,146 C295.785,146 298.455,144.894 300.425,142.925 C302.394,140.955 303.5,138.285 303.5,135.5 L303.5,100.5 C303.5,98.567 301.933,97 300,97 C298.067,97 296.5,98.567 296.5,100.5 Z" />
            <path d="M240.5,79.5 L240.5,107.5 C240.5,109.433 242.067,111 244,111 C245.933,111 247.5,109.433 247.5,107.5 L247.5,79.5 C247.5,77.567 245.933,76 244,76 C242.067,76 240.5,77.567 240.5,79.5 Z" />
        </g>
        <g id="Regular-M" transform="translate(0,200)">
            <path d="M461.5,86.5 L461.5,79.5 C461.5,77.567 459.933,76 458,76 C456.067,76 454.5,77.567 454.5,79.5 L454.5,86.5 C454.5,88.433 456.067,90 458,90 C459.933,90 461.5,88.433 461.5,86.5 Z" />
            <path d="M475.5,86.5 L475.5,79.5 C475.5,77.567 473.933,76 472,76 C470.067,76 468.5,77.567 468.5,79.5 L468.5,86.5 C468.5,88.433 470.067,90 472,90 C473.933,90 475.5,88.433 475.5,86.5 Z" />
            <path d="M479,142.5 L479,132 C479,124.268 472.732,118 465,118 C457.268,118 451,124.268 451,132 L451,142.5 C451,144.433 452.567,146 454.5,146 C456.433,146 458,144.433 458,142.5 L458,132 C458,128.134 461.134,125 465,125 C468.866,125 472,128.134 472,132 L472,142.5 C472,144.433 473.567,146 475.5,146 C477.433,146 479,144.433 479,142.5 Z" />
            <path d="M482.5,79.5 L482.5,107.5 C482.5,109.433 484.067,111 486,111 C487.933,111 489.5,109.433 489.5,107.5 L489.5,79.5 C489.5,77.567 487.933,76 486,76 C484.067,76 482.5,77.567 482.5,79.5 Z" />
            <path d="M486,83 L444,83 C442.067,83 440.5,84.567 440.5,86.5 C440.5,88.433 442.067,90 444,90 L486,90 C487.933,90 489.5,88.433 489.5,86.5 C489.5,84.567 487.933,83 486,83 Z" />
            <path d="M500,104 L430,104 C428.067,104 426.5,105.567 426.5,107.5 C426.5,109.433 428.067,111 430,111 L500,111 C501.933,111 503.5,109.433 503.5,107.5 C503.5,105.567 501.933,104 500,104 Z" />
            <path d="M496.5,100.5 L496.5,135.5 C496.5,136.428 496.131,137.318 495.475,137.975 C494.818,138.631 493.928,139 493,139 L437,139 C436.072,139 435.182,138.631 434.525,137.975 C433.869,137.318 433.5,136.428 433.5,135.5 L433.5,100.5 C433.5,98.567 431.933,97 430,97 C428.067,97 426.5,98.567 426.5,100.5 L426.5,135.5 C426.5,138.285 427.606,140.955 429.575,142.925 C431.545,144.894 434.215,146 437,146 L493,146 C495.785,146 498.455,144.894 500.425,142.925 C502.394,140.955 503.5,138.285 503.5,135.5 L503.5,100.5 C503.5,98.567 501.933,97 500,97 C498.067,97 496.5,98.567 496.5,100.5 Z" />
            <path d="M440.5,79.5 L440.5,107.5 C440.5,109.433 442.067,111 444,111 C445.933,111 447.5,109.433 447.5,107.5 L447.5,79.5 C447.5,77.567 445.933,76 444,76 C442.067,76 440.5,77.567 440.5,79.5 Z" />
        </g>
        <g id="Black-M" transform="translate(0,200)">
            <path d="M661.5,86.5 L661.5,79.5 C661.5,77.567 659.933,76 658,76 C656.067,76 654.5,77.567 654.5,79.5 L654.5,86.5 C654.5,88.433 656.067,90 658,90 C659.933,90 661.5,88.433 661.5,86.5 Z" />
            <path d="M675.5,86.5 L675.5,79.5 C675.5,77.567 673.933,76 672,76 C670.067,76 668.5,77.567 668.5,79.5 L668.5,86.5 C668.5,88.433 670.067,90 672,90 C673.933,90 675.5,88.433 675.5,86.5 Z" />
            <path d="M679,142.5 L679,132 C679,124.268 672.732,118 665,118 C657.268,118 651,124.268 651,132 L651,142.5 C651,144.433 652.567,146 654.5,146 C656.433,146 658,144.433 658,142.5 L658,132 C658,128.134 661.134,125 665,125 C668.866,125 672,128.134 672,132 L672,142.5 C672,144.433 673.567,146 675.5,146 C677.433,146 679,144.433 679,142.5 Z" />
            <path d="M682.5,79.5 L682.5,107.5 C682.5,109.433 684.067,111 686,111 C687.933,111 689.5,109.433 689.5,107.5 L689.5,79.5 C689.5,77.567 687.933,76 686,76 C684.067,76 682.5,77.567 682.5,79.5 Z" />
            <path d="M686,83 L644,83 C642.067,83 640.5,84.567 640.5,86.5 C640.5,88.433 642.067,90 644,90 L686,90 C687.933,90 689.5,88.433 689.5,86.5 C689.5,84.567 687.933,83 686,83 Z" />
            <path d="M700,104 L630,104 C628.067,104 626.5,105.567 626.5,107.5 C626.5,109.433 628.067,111 630,111 L700,111 C701.933,111 703.5,109.433 703.5,107.5 C703.5,105.567 701.933,104 700,104 Z" />
            <path d="M696.5,100.5 L696.5,135.5 C696.5,136.428 696.131,137.318 695.475,137.975 C694.818,138.631 693.928,139 693,139 L637,139 C636.072,139 635.182,138.631 634.525,137.975 C633.869,137.318 633.5,136.428 633.5,135.5 L633.5,100.5 C633.5,98.567 631.933,97 630,97 C628.067,97 626.5,98.567 626.5,100.5 L626.5,135.5 C626.5,138.285 627.606,140.955 629.575,142.925 C631.544,144.894 634.215,146 637,146 L693,146 C695.785,146 698.456,144.894 700.425,142.925 C702.394,140.955 703.5,138.285 703.5,135.5 L703.5,100.5 C703.5,98.567 701.933,97 700,97 C698.067,97 696.5,98.567 696.5,100.5 Z" />
            <path d="M640.5,79.5 L640.5,107.5 C640.5,109.433 642.067,111 644,111 C645.933,111 647.5,109.433 647.5,107.5 L647.5,79.5 C647.5,77.567 645.933,76 644,76 C642.067,76 640.5,77.567 640.5,79.5 Z" />
        </g>
    </g>
</svg>