<?xml version="1.0" encoding="UTF-8"?>
<svg height="600" width="800" xmlns="http://www.w3.org/2000/svg" xmlns:xlink="http://www.w3.org/1999/xlink">
    <g id="Notes" font-family="LucidaGrande, 'Lucida Grande', sans-serif" font-size="13">
        <rect fill="white" height="600.0" width="800.0" x="0.0" y="0.0" />
        <g font-size="13">
            <text x="18.0" y="176.0">Small</text>
            <text x="18.0" y="376.0">Medium</text>
            <text x="18.0" y="576.0">Large</text>
        </g>
        <g font-size="9">
            <text x="250.0" y="30.0">Ultralight</text>
            <text x="450.0" y="30.0">Regular</text>
            <text x="650.0" y="30.0">Black</text>
            <text id="template-version" fill="#505050" text-anchor="end" x="785.0" y="575.0">Template v.3.0</text>
            <a href="https://github.com/swhitty/SwiftDraw">
                <text fill="#505050" text-anchor="end" x="785.0" y="590.0">https://github.com/swhitty/SwiftDraw</text>
            </a>
        </g>
    </g>
    <g id="Guides" stroke="rgb(39, 170, 225)" stroke-width="0.5">
        <path id="Capline-S" d="M18,76 l800,0" />
        <path id="H-reference" d="M85,145.755 L87.685,145.755 L113.369,79.287 L114.052,79.287 L114.052,76 L112.148,76 L85,145.755 Z M95.693,121.536 L130.996,121.536 L130.263,119.313 L96.474,119.313 L95.693,121.536 Z M139.15,145.755 L141.787,145.755 L114.638,76 L113.466,76 L113.466,79.287 L139.15,145.755 Z" stroke="none" transform="translate(0,200)" />
        <path id="Baseline-S" d="M18,146 l800,0" />
        <path id="left-margin-Ultralight-M" d="M237.778,256 l0,110" />
        <path id="right-margin-Ultralight-M" d="M292.222,256 l0,110" />
        <path id="left-margin-Regular-M" d="M437.778,256 l0,110" />
        <path id="right-margin-Regular-M" d="M492.222,256 l0,110" />
        <path id="left-margin-Black-M" d="M637.778,256 l0,110" />
        <path id="right-margin-Black-M" d="M692.222,256 l0,110" />
        <path id="Capline-M" d="M18,276 l800,0" />
        <path id="Baseline-M" d="M18,346 l800,0" />
        <path id="Capline-L" d="M18,476 l800,0" />
        <path id="Baseline-L" d="M18,546 l800,0" />
    </g>
    <g id="Symbols">
        <g id="Ultralight-M" transform="translate(0,200)">
            <path d="M272.778,114.889 L280.556,114.889 L276.667,111 L276.667,142.111 C276.667,144.259 278.408,146 280.556,146 C282.703,146 284.444,144.259 284.444,142.111 L284.444,111 C284.444,108.853 282.703,107.112 280.556,107.112 L272.778,107.112 C270.63,107.112 268.889,108.853 268.889,111 C268.889,113.148 270.63,114.889 272.778,114.889 Z" />
            <path d="M272.778,146 L288.333,146 C290.481,146 292.222,144.259 292.222,142.111 C292.222,139.963 290.481,138.222 288.333,138.222 L272.778,138.222 C270.63,138.222 268.889,139.963 268.889,142.111 C268.889,144.259 270.63,146 272.778,146 Z" />
            <path d="M241.667,114.889 L257.222,114.889 C259.37,114.889 261.111,113.148 261.111,111 C261.111,108.853 259.37,107.112 257.222,107.112 L241.667,107.112 C239.519,107.112 237.778,108.853 237.778,111 C237.778,113.148 239.519,114.889 241.667,114.889 Z" />
            <path d="M241.667,146 L257.222,146 C259.37,146 261.111,144.259 261.111,142.111 C261.111,139.963 259.37,138.222 257.222,138.222 L241.667,138.222 C239.519,138.222 237.778,139.963 237.778,142.111 C237.778,144.259 239.519,146 241.667,146 Z" />
            <path d="M253.333,142.111 L253.333,95.445 C253.333,90.165 256.88,85.544 261.98,84.177 C267.08,82.81 272.463,85.039 275.103,89.611 C276.177,91.471 278.556,92.108 280.416,91.034 C282.275,89.96 282.913,87.582 281.838,85.722 C277.438,78.101 268.467,74.386 259.967,76.664 C251.466,78.942 245.556,86.645 245.556,95.445 L245.556,142.111 C245.556,144.259 247.297,146 249.444,146 C251.592,146 253.333,144.259 253.333,142.111 Z" />
        </g>
        <g id="Regular-M" transform="translate(0,200)">
            <path d="M472.778,114.889 L480.556,114.889 L476.667,111 L476.667,142.111 C476.667,144.259 478.408,146 480.556,146 C482.703,146 484.444,144.259 484.444,142.111 L484.444,111 C484.444,108.853 482.703,107.112 480.556,107.112 L472.778,107.112 C470.63,107.112 468.889,108.853 468.889,111 C468.889,113.148 470.63,114.889 472.778,114.889 Z" />
            <path d="M472.778,146 L488.333,146 C490.481,146 492.222,144.259 492.222,142.111 C492.222,139.963 490.481,138.222 488.333,138.222 L472.778,138.222 C470.63,138.222 468.889,139.963 468.889,142.111 C468.889,144.259 470.63,146 472.778,146 Z" />
            <path d="M441.667,114.889 L457.222,114.889 C459.37,114.889 461.111,113.148 461.111,111 C461.111,108.853 459.37,107.112 457.222,107.112 L441.667,107.112 C439.519,107.112 437.778,108.853 437.778,111 C437.778,113.148 439.519,114.889 441.667,114.889 Z" />
            <path d="M441.667,146 L457.222,146 C459.37,146 461.111,144.259 461.111,142.111 C461.111,139.963 459.37,138.222 457.222,138.222 L441.667,138.222 C439.519,138.222 437.778,139.963 437.778,142.111 C437.778,144.259 439.519,146 441.667,146 Z" />
            <path d="M453.333,142.111 L453.333,95.445 C453.333,90.165 456.88,85.544 461.98,84.177 C467.08,82.81 472.463,85.039 475.103,89.611 C476.177,91.471 478.556,92.108 480.416,91.034 C482.275,89.96 482.913,87.582 481.838,85.722 C477.438,78.101 468.467,74.386 459.967,76.664 C451.466,78.942 445.556,86.645 445.556,95.445 L445.556,142.111 C445.556,144.259 447.297,146 449.444,146 C451.592,146 453.333,144.259 453.333,142.111 Z" />
        </g>
        <g id="Black-M" transform="translate(0,200)">
            <path d="M672.778,114.889 L680.556,114.889 L676.667,111 L676.667,142.111 C676.667,144.259 678.408,146 680.556,146 C682.703,146 684.444,144.259 684.444,142.111 L684.444,111 C684.444,108.853 682.703,107.112 680.556,107.112 L672.778,107.112 C670.63,107.112 668.889,108.853 668.889,111 C668.889,113.148 670.63,114.889 672.778,114.889 Z" />
            <path d="M672.778,146 L688.333,146 C690.481,146 692.222,144.259 692.222,142.111 C692.222,139.963 690.481,138.222 688.333,138.222 L672.778,138.222 C670.63,138.222 668.889,139.963 668.889,142.111 C668.889,144.259 670.63,146 672.778,146 Z" />
            <path d="M641.667,114.889 L657.222,114.889 C659.37,114.889 661.111,113.148 661.111,111 C661.111,108.853 659.37,107.112 657.222,107.112 L641.667,107.112 C639.519,107.112 637.778,108.853 637.778,111 C637.778,113.148 639.519,114.889 641.667,114.889 Z" />
            <path d="M641.667,146 L657.222,146 C659.37,146 661.111,144.259 661.111,142.111 C661.111,139.963 659.37,138.222 657.222,138.222 L641.667,138.222 C639.519,138.222 637.778,139.963 637.778,142.111 C637.778,144.259 639.519,146 641.667,146 Z" />
            <path d="M653.333,142.111 L653.333,95.445 C653.333,90.165 656.88,85.544 661.98,84.177 C667.08,82.81 672.463,85.039 675.103,89.611 C676.177,91.471 678.556,92.108 680.416,91.034 C682.275,89.96 682.913,87.582 681.838,85.722 C677.438,78.101 668.467,74.386 659.966,76.664 C651.466,78.942 645.556,86.645 645.556,95.445 L645.556,142.111 C645.556,144.259 647.297,146 649.444,146 C651.592,146 653.333,144.259 653.333,142.111 Z" />
        </g>
    </g>
</svg>