<?xml version="1.0" encoding="UTF-8"?>
<svg height="600" width="800" xmlns="http://www.w3.org/2000/svg" xmlns:xlink="http://www.w3.org/1999/xlink">
    <g id="Notes" font-family="LucidaGrande, 'Lucida Grande', sans-serif" font-size="13">
        <rect fill="white" height="600.0" width="800.0" x="0.0" y="0.0" />
        <g font-size="13">
            <text x="18.0" y="176.0">Small</text>
            <text x="18.0" y="376.0">Medium</text>
            <text x="18.0" y="576.0">Large</text>
        </g>
        <g font-size="9">
            <text x="250.0" y="30.0">Ultralight</text>
            <text x="450.0" y="30.0">Regular</text>
            <text x="650.0" y="30.0">Black</text>
            <text id="template-version" fill="#505050" text-anchor="end" x="785.0" y="575.0">Template v.3.0</text>
            <a href="https://github.com/swhitty/SwiftDraw">
                <text fill="#505050" text-anchor="end" x="785.0" y="590.0">https://github.com/swhitty/SwiftDraw</text>
            </a>
        </g>
    </g>
    <g id="Guides" stroke="rgb(39, 170, 225)" stroke-width="0.5">
        <path id="Capline-S" d="M18,76 l800,0" />
        <path id="H-reference" d="M85,145.755 L87.685,145.755 L113.369,79.287 L114.052,79.287 L114.052,76 L112.148,76 L85,145.755 Z M95.693,121.536 L130.996,121.536 L130.263,119.313 L96.474,119.313 L95.693,121.536 Z M139.15,145.755 L141.787,145.755 L114.638,76 L113.466,76 L113.466,79.287 L139.15,145.755 Z" stroke="none" transform="translate(0,200)" />
        <path id="Baseline-S" d="M18,146 l800,0" />
        <path id="left-margin-Ultralight-M" d="M233.182,256 l0,110" />
        <path id="right-margin-Ultralight-M" d="M296.818,256 l0,110" />
        <path id="left-margin-Regular-M" d="M433.182,256 l0,110" />
        <path id="right-margin-Regular-M" d="M496.818,256 l0,110" />
        <path id="left-margin-Black-M" d="M633.182,256 l0,110" />
        <path id="right-margin-Black-M" d="M696.818,256 l0,110" />
        <path id="Capline-M" d="M18,276 l800,0" />
        <path id="Baseline-M" d="M18,346 l800,0" />
        <path id="Capline-L" d="M18,476 l800,0" />
        <path id="Baseline-L" d="M18,546 l800,0" />
    </g>
    <g id="Symbols">
        <g id="Ultralight-M" transform="translate(0,200)">
            <path d="M275.034,123.499 L272.196,122.281 C270.627,121.607 268.828,122.377 268.177,124 C267.527,125.623 268.27,127.485 269.839,128.158 L272.677,129.377 C274.246,130.051 276.045,129.281 276.695,127.658 C277.346,126.035 276.602,124.173 275.034,123.499 Z" />
            <path d="M272.677,130.805 L269.839,132.023 C268.27,132.697 267.527,134.559 268.177,136.182 C268.828,137.805 270.627,138.575 272.196,137.901 L275.034,136.682 C276.602,136.009 277.346,134.147 276.695,132.524 C276.045,130.901 274.246,130.131 272.677,130.805 Z" />
            <path d="M273.154,79.182 L273.154,91.909 C273.154,93.666 274.531,95.091 276.229,95.091 C277.927,95.091 279.304,93.666 279.304,91.909 L279.304,79.182 C279.304,77.425 277.927,76 276.229,76 C274.531,76 273.154,77.425 273.154,79.182 Z" />
            <path d="M274.833,119.551 L276.008,122.488 C276.657,124.111 278.456,124.883 280.025,124.211 C281.594,123.539 282.339,121.678 281.69,120.054 L280.516,117.117 C279.866,115.494 278.068,114.722 276.499,115.394 C274.929,116.066 274.184,117.927 274.833,119.551 Z" />
            <path d="M276.008,137.693 L274.831,140.633 C274.181,142.256 274.925,144.117 276.494,144.79 C278.063,145.463 279.862,144.693 280.512,143.069 L281.689,140.129 C282.34,138.506 281.595,136.644 280.026,135.972 C278.458,135.299 276.659,136.069 276.008,137.693 Z" />
            <path d="M288.749,122.49 L289.926,119.554 C290.577,117.93 289.833,116.069 288.265,115.395 C286.696,114.722 284.897,115.492 284.246,117.115 L283.069,120.051 C282.418,121.675 283.162,123.536 284.73,124.21 C286.299,124.883 288.098,124.113 288.749,122.49 Z" />
            <path d="M289.925,140.635 L288.75,137.695 C288.102,136.071 286.303,135.299 284.734,135.97 C283.165,136.642 282.418,138.503 283.067,140.127 L284.242,143.067 C284.891,144.691 286.689,145.463 288.258,144.791 C289.827,144.12 290.574,142.259 289.925,140.635 Z" />
            <path d="M292.08,129.378 L294.921,128.159 C296.49,127.486 297.234,125.625 296.584,124.001 C295.934,122.378 294.135,121.607 292.566,122.28 L289.725,123.499 C288.156,124.172 287.412,126.033 288.062,127.657 C288.712,129.28 290.511,130.05 292.08,129.378 Z" />
            <path d="M289.725,136.683 L292.566,137.902 C294.135,138.574 295.934,137.804 296.584,136.181 C297.234,134.557 296.49,132.696 294.921,132.023 L292.08,130.804 C290.511,130.131 288.712,130.902 288.062,132.525 C287.412,134.149 288.156,136.01 289.725,136.683 Z" />
            <path d="M294.678,106.52 L294.678,91.909 C294.678,89.377 293.706,86.95 291.976,85.159 C290.246,83.369 287.9,82.364 285.454,82.364 L242.406,82.364 C239.96,82.364 237.614,83.369 235.884,85.159 C234.154,86.95 233.182,89.377 233.182,91.909 L233.182,136.455 C233.182,138.986 234.154,141.414 235.884,143.204 C237.614,144.994 239.96,146 242.406,146 L260.855,146 C262.553,146 263.93,144.575 263.93,142.818 C263.93,141.061 262.553,139.636 260.855,139.636 L242.406,139.636 C241.591,139.636 240.809,139.301 240.232,138.704 C239.655,138.108 239.331,137.298 239.331,136.455 L239.331,91.909 C239.331,91.065 239.655,90.256 240.232,89.659 C240.809,89.062 241.591,88.727 242.406,88.727 L285.454,88.727 C286.269,88.727 287.051,89.062 287.628,89.659 C288.205,90.256 288.529,91.065 288.529,91.909 L288.529,106.52 C288.529,108.277 289.905,109.702 291.603,109.702 C293.301,109.702 294.678,108.277 294.678,106.52 Z" />
            <path d="M236.257,107.818 L291.603,107.818 C293.301,107.818 294.678,106.394 294.678,104.636 C294.678,102.879 293.301,101.455 291.603,101.455 L236.257,101.455 C234.558,101.455 233.182,102.879 233.182,104.636 C233.182,106.394 234.558,107.818 236.257,107.818 Z" />
            <path d="M248.556,79.182 L248.556,91.909 C248.556,93.666 249.933,95.091 251.631,95.091 C253.329,95.091 254.706,93.666 254.706,91.909 L254.706,79.182 C254.706,77.425 253.329,76 251.631,76 C249.933,76 248.556,77.425 248.556,79.182 Z" />
            <path d="M276.229,130.091 C276.229,126.576 278.983,123.727 282.379,123.727 C285.775,123.727 288.529,126.576 288.529,130.091 C288.529,133.605 285.775,136.455 282.379,136.455 C278.983,136.455 276.229,133.605 276.229,130.091 Z M270.08,130.091 C270.08,137.12 275.586,142.818 282.379,142.818 C289.172,142.818 294.678,137.12 294.678,130.091 C294.678,123.062 289.172,117.364 282.379,117.364 C275.586,117.364 270.08,123.062 270.08,130.091 Z" />
        </g>
        <g id="Regular-M" transform="translate(0,200)">
            <path d="M475.034,123.499 L472.196,122.281 C470.627,121.607 468.828,122.377 468.177,124 C467.527,125.623 468.27,127.485 469.839,128.158 L472.677,129.377 C474.246,130.051 476.045,129.281 476.695,127.658 C477.346,126.035 476.602,124.173 475.034,123.499 Z" />
            <path d="M472.677,130.805 L469.839,132.023 C468.27,132.697 467.527,134.559 468.177,136.182 C468.828,137.805 470.627,138.575 472.196,137.901 L475.034,136.682 C476.602,136.009 477.346,134.147 476.695,132.524 C476.045,130.901 474.246,130.131 472.677,130.805 Z" />
            <path d="M473.154,79.182 L473.154,91.909 C473.154,93.666 474.531,95.091 476.229,95.091 C477.927,95.091 479.304,93.666 479.304,91.909 L479.304,79.182 C479.304,77.425 477.927,76 476.229,76 C474.531,76 473.154,77.425 473.154,79.182 Z" />
            <path d="M474.833,119.551 L476.008,122.488 C476.657,124.111 478.456,124.883 480.025,124.211 C481.594,123.539 482.339,121.678 481.69,120.054 L480.516,117.117 C479.866,115.494 478.068,114.722 476.499,115.394 C474.929,116.066 474.184,117.927 474.833,119.551 Z" />
            <path d="M476.008,137.693 L474.831,140.633 C474.181,142.256 474.925,144.117 476.494,144.79 C478.063,145.463 479.862,144.693 480.512,143.069 L481.689,140.129 C482.34,138.506 481.595,136.644 480.026,135.972 C478.458,135.299 476.659,136.069 476.008,137.693 Z" />
            <path d="M488.749,122.49 L489.926,119.554 C490.577,117.93 489.833,116.069 488.265,115.395 C486.696,114.722 484.897,115.492 484.246,117.115 L483.069,120.051 C482.418,121.675 483.162,123.536 484.73,124.21 C486.299,124.883 488.098,124.113 488.749,122.49 Z" />
            <path d="M489.925,140.635 L488.75,137.695 C488.102,136.071 486.303,135.299 484.734,135.97 C483.165,136.642 482.418,138.503 483.067,140.127 L484.242,143.067 C484.891,144.691 486.689,145.463 488.258,144.791 C489.827,144.12 490.574,142.259 489.925,140.635 Z" />
            <path d="M492.08,129.378 L494.921,128.159 C496.49,127.486 497.234,125.625 496.584,124.001 C495.934,122.378 494.135,121.607 492.566,122.28 L489.725,123.499 C488.156,124.172 487.412,126.033 488.062,127.657 C488.712,129.28 490.511,130.05 492.08,129.378 Z" />
            <path d="M489.725,136.683 L492.566,137.902 C494.135,138.574 495.934,137.804 496.584,136.181 C497.234,134.557 496.49,132.696 494.921,132.023 L492.08,130.804 C490.511,130.131 488.712,130.902 488.062,132.525 C487.412,134.149 488.156,136.01 489.725,136.683 Z" />
            <path d="M494.678,106.52 L494.678,91.909 C494.678,89.377 493.706,86.95 491.976,85.159 C490.246,83.369 487.9,82.364 485.454,82.364 L442.406,82.364 C439.96,82.364 437.614,83.369 435.884,85.159 C434.154,86.95 433.182,89.377 433.182,91.909 L433.182,136.455 C433.182,138.986 434.154,141.414 435.884,143.204 C437.614,144.994 439.96,146 442.406,146 L460.855,146 C462.553,146 463.93,144.575 463.93,142.818 C463.93,141.061 462.553,139.636 460.855,139.636 L442.406,139.636 C441.591,139.636 440.809,139.301 440.232,138.704 C439.655,138.108 439.331,137.298 439.331,136.455 L439.331,91.909 C439.331,91.065 439.655,90.256 440.232,89.659 C440.809,89.062 441.591,88.727 442.406,88.727 L485.454,88.727 C486.269,88.727 487.051,89.062 487.628,89.659 C488.205,90.256 488.529,91.065 488.529,91.909 L488.529,106.52 C488.529,108.277 489.905,109.702 491.603,109.702 C493.301,109.702 494.678,108.277 494.678,106.52 Z" />
            <path d="M436.257,107.818 L491.603,107.818 C493.301,107.818 494.678,106.394 494.678,104.636 C494.678,102.879 493.301,101.455 491.603,101.455 L436.257,101.455 C434.558,101.455 433.182,102.879 433.182,104.636 C433.182,106.394 434.558,107.818 436.257,107.818 Z" />
            <path d="M448.556,79.182 L448.556,91.909 C448.556,93.666 449.933,95.091 451.631,95.091 C453.329,95.091 454.706,93.666 454.706,91.909 L454.706,79.182 C454.706,77.425 453.329,76 451.631,76 C449.933,76 448.556,77.425 448.556,79.182 Z" />
            <path d="M476.229,130.091 C476.229,126.576 478.983,123.727 482.379,123.727 C485.775,123.727 488.529,126.576 488.529,130.091 C488.529,133.605 485.775,136.455 482.379,136.455 C478.983,136.455 476.229,133.605 476.229,130.091 Z M470.08,130.091 C470.08,137.12 475.586,142.818 482.379,142.818 C489.172,142.818 494.678,137.12 494.678,130.091 C494.678,123.062 489.172,117.364 482.379,117.364 C475.586,117.364 470.08,123.062 470.08,130.091 Z" />
        </g>
        <g id="Black-M" transform="translate(0,200)">
            <path d="M675.034,123.499 L672.196,122.281 C670.627,121.607 668.828,122.377 668.177,124 C667.527,125.623 668.27,127.485 669.839,128.158 L672.677,129.377 C674.245,130.051 676.045,129.281 676.695,127.658 C677.346,126.035 676.602,124.173 675.034,123.499 Z" />
            <path d="M672.677,130.805 L669.839,132.023 C668.27,132.697 667.527,134.559 668.177,136.182 C668.828,137.805 670.627,138.575 672.196,137.901 L675.034,136.682 C676.602,136.009 677.346,134.147 676.695,132.524 C676.045,130.901 674.245,130.131 672.677,130.805 Z" />
            <path d="M673.154,79.182 L673.154,91.909 C673.154,93.666 674.531,95.091 676.229,95.091 C677.927,95.091 679.304,93.666 679.304,91.909 L679.304,79.182 C679.304,77.425 677.927,76 676.229,76 C674.531,76 673.154,77.425 673.154,79.182 Z" />
            <path d="M674.833,119.551 L676.008,122.488 C676.657,124.111 678.456,124.883 680.025,124.211 C681.594,123.539 682.339,121.678 681.69,120.054 L680.516,117.117 C679.866,115.494 678.068,114.722 676.499,115.394 C674.929,116.066 674.184,117.927 674.833,119.551 Z" />
            <path d="M676.008,137.693 L674.831,140.633 C674.181,142.256 674.925,144.117 676.494,144.79 C678.063,145.463 679.862,144.693 680.512,143.069 L681.689,140.129 C682.34,138.506 681.595,136.644 680.026,135.972 C678.458,135.299 676.659,136.069 676.008,137.693 Z" />
            <path d="M688.749,122.49 L689.926,119.554 C690.577,117.93 689.833,116.069 688.265,115.395 C686.696,114.722 684.897,115.492 684.246,117.115 L683.069,120.051 C682.418,121.675 683.162,123.536 684.73,124.21 C686.299,124.883 688.098,124.113 688.749,122.49 Z" />
            <path d="M689.925,140.635 L688.75,137.695 C688.102,136.071 686.303,135.299 684.734,135.97 C683.165,136.642 682.418,138.503 683.067,140.127 L684.242,143.067 C684.891,144.691 686.689,145.463 688.258,144.791 C689.827,144.12 690.574,142.259 689.925,140.635 Z" />
            <path d="M692.08,129.378 L694.921,128.159 C696.49,127.486 697.234,125.625 696.584,124.001 C695.934,122.378 694.135,121.607 692.566,122.28 L689.725,123.499 C688.156,124.172 687.411,126.033 688.062,127.657 C688.712,129.28 690.511,130.05 692.08,129.378 Z" />
            <path d="M689.725,136.683 L692.566,137.902 C694.135,138.574 695.934,137.804 696.584,136.181 C697.234,134.557 696.49,132.696 694.921,132.023 L692.08,130.804 C690.511,130.131 688.712,130.902 688.062,132.525 C687.411,134.149 688.156,136.01 689.725,136.683 Z" />
            <path d="M694.678,106.52 L694.678,91.909 C694.678,89.377 693.706,86.95 691.976,85.159 C690.246,83.369 687.9,82.364 685.454,82.364 L642.406,82.364 C639.96,82.364 637.614,83.369 635.884,85.159 C634.154,86.95 633.182,89.377 633.182,91.909 L633.182,136.455 C633.182,138.986 634.154,141.414 635.884,143.204 C637.614,144.994 639.96,146 642.406,146 L660.855,146 C662.553,146 663.93,144.575 663.93,142.818 C663.93,141.061 662.553,139.636 660.855,139.636 L642.406,139.636 C641.591,139.636 640.809,139.301 640.232,138.704 C639.655,138.108 639.331,137.298 639.331,136.455 L639.331,91.909 C639.331,91.065 639.655,90.256 640.232,89.659 C640.809,89.062 641.591,88.727 642.406,88.727 L685.454,88.727 C686.269,88.727 687.051,89.062 687.628,89.659 C688.205,90.256 688.529,91.065 688.529,91.909 L688.529,106.52 C688.529,108.277 689.905,109.702 691.603,109.702 C693.301,109.702 694.678,108.277 694.678,106.52 Z" />
            <path d="M636.257,107.818 L691.603,107.818 C693.301,107.818 694.678,106.394 694.678,104.636 C694.678,102.879 693.301,101.455 691.603,101.455 L636.257,101.455 C634.558,101.455 633.182,102.879 633.182,104.636 C633.182,106.394 634.558,107.818 636.257,107.818 Z" />
            <path d="M648.556,79.182 L648.556,91.909 C648.556,93.666 649.933,95.091 651.631,95.091 C653.329,95.091 654.706,93.666 654.706,91.909 L654.706,79.182 C654.706,77.425 653.329,76 651.631,76 C649.933,76 648.556,77.425 648.556,79.182 Z" />
            <path d="M676.229,130.091 C676.229,126.576 678.983,123.727 682.379,123.727 C685.775,123.727 688.529,126.576 688.529,130.091 C688.529,133.605 685.775,136.455 682.379,136.455 C678.982,136.455 676.229,133.605 676.229,130.091 Z M670.08,130.091 C670.08,137.12 675.586,142.818 682.379,142.818 C689.172,142.818 694.678,137.12 694.678,130.091 C694.678,123.062 689.172,117.364 682.379,117.364 C675.586,117.364 670.08,123.062 670.08,130.091 Z" />
        </g>
    </g>
</svg>