<?xml version="1.0" encoding="UTF-8"?>
<svg height="600" width="800" xmlns="http://www.w3.org/2000/svg" xmlns:xlink="http://www.w3.org/1999/xlink">
    <g id="Notes" font-family="LucidaGrande, 'Lucida Grande', sans-serif" font-size="13">
        <rect fill="white" height="600.0" width="800.0" x="0.0" y="0.0" />
        <g font-size="13">
            <text x="18.0" y="176.0">Small</text>
            <text x="18.0" y="376.0">Medium</text>
            <text x="18.0" y="576.0">Large</text>
        </g>
        <g font-size="9">
            <text x="250.0" y="30.0">Ultralight</text>
            <text x="450.0" y="30.0">Regular</text>
            <text x="650.0" y="30.0">Black</text>
            <text id="template-version" fill="#505050" text-anchor="end" x="785.0" y="575.0">Template v.3.0</text>
            <a href="https://github.com/swhitty/SwiftDraw">
                <text fill="#505050" text-anchor="end" x="785.0" y="590.0">https://github.com/swhitty/SwiftDraw</text>
            </a>
        </g>
    </g>
    <g id="Guides" stroke="rgb(39, 170, 225)" stroke-width="0.5">
        <path id="Capline-S" d="M18,76 l800,0" />
        <path id="H-reference" d="M85,145.755 L87.685,145.755 L113.369,79.287 L114.052,79.287 L114.052,76 L112.148,76 L85,145.755 Z M95.693,121.536 L130.996,121.536 L130.263,119.313 L96.474,119.313 L95.693,121.536 Z M139.15,145.755 L141.787,145.755 L114.638,76 L113.466,76 L113.466,79.287 L139.15,145.755 Z" stroke="none" transform="translate(0,200)" />
        <path id="Baseline-S" d="M18,146 l800,0" />
        <path id="left-margin-Ultralight-M" d="M221,256 l0,110" />
        <path id="right-margin-Ultralight-M" d="M309,256 l0,110" />
        <path id="left-margin-Regular-M" d="M421,256 l0,110" />
        <path id="right-margin-Regular-M" d="M509,256 l0,110" />
        <path id="left-margin-Black-M" d="M621,256 l0,110" />
        <path id="right-margin-Black-M" d="M709,256 l0,110" />
        <path id="Capline-M" d="M18,276 l800,0" />
        <path id="Baseline-M" d="M18,346 l800,0" />
        <path id="Capline-L" d="M18,476 l800,0" />
        <path id="Baseline-L" d="M18,546 l800,0" />
    </g>
    <g id="Symbols">
        <g id="Ultralight-M" transform="translate(0,200)">
            <path d="M245,139 L245,83.001 C245,80.792 243.209,79.001 241,79.001 C238.791,79.001 237,80.792 237,83.001 L237,139 C237,141.209 238.791,143 241,143 C243.209,143 245,141.209 245,139 Z" />
            <path d="M261,139 L261,90.201 C261,87.991 259.209,86.201 257,86.201 C254.791,86.201 253,87.991 253,90.201 L253,139 C253,141.209 254.791,143 257,143 C259.209,143 261,141.209 261,139 Z" />
            <path d="M277,139 L277,107.8 C277,105.591 275.209,103.8 273,103.8 C270.791,103.8 269,105.591 269,107.8 L269,139 C269,141.209 270.791,143 273,143 C275.209,143 277,141.209 277,139 Z" />
            <path d="M285,83.001 L285,99 C285,101.21 286.791,103 289,103 C291.209,103 293,101.21 293,99 L293,83.001 C293,80.792 291.209,79.001 289,79.001 C286.791,79.001 285,80.792 285,83.001 Z" />
            <path d="M293,139 L293,115 C293,112.791 291.209,111 289,111 C286.791,111 285,112.791 285,115 L285,139 C285,141.209 286.791,143 289,143 C291.209,143 293,141.209 293,139 Z" />
            <path d="M309,139 L309,99 C309,96.791 307.209,95.001 305,95.001 C302.791,95.001 301,96.791 301,99 L301,139 C301,141.209 302.791,143 305,143 C307.209,143 309,141.209 309,139 Z" />
            <path d="M229,139 L229,99 C229,95.818 230.264,92.766 232.515,90.515 C234.765,88.265 237.817,87.001 241,87.001 C247.526,87.001 254.488,91.638 261.799,101.399 C270.473,112.978 279.511,119 289,119 C298.206,118.992 306.214,112.706 308.408,103.769 C310.602,94.833 306.416,85.553 298.264,81.284 C290.113,77.014 280.1,78.858 274.004,85.751 C272.54,87.405 272.695,89.933 274.35,91.397 C276.005,92.86 278.533,92.705 279.996,91.051 C283.654,86.915 289.662,85.809 294.552,88.37 C299.443,90.932 301.955,96.5 300.639,101.862 C299.322,107.224 294.517,110.995 288.996,111 C282.474,111 275.512,106.363 268.201,96.602 C259.527,85.023 250.489,79.001 241,79.001 C235.696,79.001 230.609,81.108 226.858,84.859 C223.107,88.609 221,93.696 221,99 L221,139 C221,141.209 222.791,143 225,143 C227.209,143 229,141.209 229,139 Z" />
        </g>
        <g id="Regular-M" transform="translate(0,200)">
            <path d="M445,139 L445,83.001 C445,80.792 443.209,79.001 441,79.001 C438.791,79.001 437,80.792 437,83.001 L437,139 C437,141.209 438.791,143 441,143 C443.209,143 445,141.209 445,139 Z" />
            <path d="M461,139 L461,90.201 C461,87.991 459.209,86.201 457,86.201 C454.791,86.201 453,87.991 453,90.201 L453,139 C453,141.209 454.791,143 457,143 C459.209,143 461,141.209 461,139 Z" />
            <path d="M477,139 L477,107.8 C477,105.591 475.209,103.8 473,103.8 C470.791,103.8 469,105.591 469,107.8 L469,139 C469,141.209 470.791,143 473,143 C475.209,143 477,141.209 477,139 Z" />
            <path d="M485,83.001 L485,99 C485,101.21 486.791,103 489,103 C491.209,103 493,101.21 493,99 L493,83.001 C493,80.792 491.209,79.001 489,79.001 C486.791,79.001 485,80.792 485,83.001 Z" />
            <path d="M493,139 L493,115 C493,112.791 491.209,111 489,111 C486.791,111 485,112.791 485,115 L485,139 C485,141.209 486.791,143 489,143 C491.209,143 493,141.209 493,139 Z" />
            <path d="M509,139 L509,99 C509,96.791 507.209,95.001 505,95.001 C502.791,95.001 501,96.791 501,99 L501,139 C501,141.209 502.791,143 505,143 C507.209,143 509,141.209 509,139 Z" />
            <path d="M429,139 L429,99 C429,95.818 430.264,92.766 432.515,90.515 C434.765,88.265 437.817,87.001 441,87.001 C447.526,87.001 454.488,91.638 461.799,101.399 C470.473,112.978 479.511,119 489,119 C498.206,118.992 506.214,112.706 508.408,103.769 C510.602,94.833 506.416,85.553 498.264,81.284 C490.113,77.014 480.1,78.858 474.004,85.751 C472.54,87.405 472.695,89.933 474.35,91.397 C476.005,92.86 478.533,92.705 479.996,91.051 C483.654,86.915 489.662,85.809 494.552,88.37 C499.443,90.932 501.955,96.5 500.639,101.862 C499.322,107.224 494.517,110.995 488.996,111 C482.474,111 475.512,106.363 468.201,96.602 C459.527,85.023 450.489,79.001 441,79.001 C435.696,79.001 430.609,81.108 426.858,84.859 C423.107,88.609 421,93.696 421,99 L421,139 C421,141.209 422.791,143 425,143 C427.209,143 429,141.209 429,139 Z" />
        </g>
        <g id="Black-M" transform="translate(0,200)">
            <path d="M645,139 L645,83.001 C645,80.792 643.209,79.001 641,79.001 C638.791,79.001 637,80.792 637,83.001 L637,139 C637,141.209 638.791,143 641,143 C643.209,143 645,141.209 645,139 Z" />
            <path d="M661,139 L661,90.201 C661,87.991 659.209,86.201 657,86.201 C654.791,86.201 653,87.991 653,90.201 L653,139 C653,141.209 654.791,143 657,143 C659.209,143 661,141.209 661,139 Z" />
            <path d="M677,139 L677,107.8 C677,105.591 675.209,103.8 673,103.8 C670.791,103.8 669,105.591 669,107.8 L669,139 C669,141.209 670.791,143 673,143 C675.209,143 677,141.209 677,139 Z" />
            <path d="M685,83.001 L685,99 C685,101.21 686.791,103 689,103 C691.209,103 693,101.21 693,99 L693,83.001 C693,80.792 691.209,79.001 689,79.001 C686.791,79.001 685,80.792 685,83.001 Z" />
            <path d="M693,139 L693,115 C693,112.791 691.209,111 689,111 C686.791,111 685,112.791 685,115 L685,139 C685,141.209 686.791,143 689,143 C691.209,143 693,141.209 693,139 Z" />
            <path d="M709,139 L709,99 C709,96.791 707.209,95.001 705,95.001 C702.791,95.001 701,96.791 701,99 L701,139 C701,141.209 702.791,143 705,143 C707.209,143 709,141.209 709,139 Z" />
            <path d="M629,139 L629,99 C629,95.818 630.264,92.766 632.515,90.515 C634.765,88.265 637.817,87.001 641,87.001 C647.526,87.001 654.488,91.638 661.799,101.399 C670.473,112.978 679.511,119 689,119 C698.206,118.992 706.214,112.706 708.408,103.769 C710.602,94.833 706.416,85.553 698.264,81.284 C690.113,77.014 680.1,78.858 674.004,85.751 C672.54,87.405 672.695,89.933 674.35,91.397 C676.005,92.86 678.533,92.705 679.996,91.051 C683.654,86.915 689.662,85.809 694.552,88.37 C699.443,90.932 701.955,96.5 700.639,101.862 C699.322,107.224 694.517,110.995 688.996,111 C682.474,111 675.512,106.363 668.201,96.602 C659.527,85.023 650.489,79.001 641,79.001 C635.696,79.001 630.609,81.108 626.858,84.859 C623.107,88.609 621,93.696 621,99 L621,139 C621,141.209 622.791,143 625,143 C627.209,143 629,141.209 629,139 Z" />
        </g>
    </g>
</svg>