<?xml version="1.0" encoding="UTF-8"?>
<svg height="600" width="800" xmlns="http://www.w3.org/2000/svg" xmlns:xlink="http://www.w3.org/1999/xlink">
    <g id="Notes" font-family="LucidaGrande, 'Lucida Grande', sans-serif" font-size="13">
        <rect fill="white" height="600.0" width="800.0" x="0.0" y="0.0" />
        <g font-size="13">
            <text x="18.0" y="176.0">Small</text>
            <text x="18.0" y="376.0">Medium</text>
            <text x="18.0" y="576.0">Large</text>
        </g>
        <g font-size="9">
            <text x="250.0" y="30.0">Ultralight</text>
            <text x="450.0" y="30.0">Regular</text>
            <text x="650.0" y="30.0">Black</text>
            <text id="template-version" fill="#505050" text-anchor="end" x="785.0" y="575.0">Template v.3.0</text>
            <a href="https://github.com/swhitty/SwiftDraw">
                <text fill="#505050" text-anchor="end" x="785.0" y="590.0">https://github.com/swhitty/SwiftDraw</text>
            </a>
        </g>
    </g>
    <g id="Guides" stroke="rgb(39, 170, 225)" stroke-width="0.5">
        <path id="Capline-S" d="M18,76 l800,0" />
        <path id="H-reference" d="M85,145.755 L87.685,145.755 L113.369,79.287 L114.052,79.287 L114.052,76 L112.148,76 L85,145.755 Z M95.693,121.536 L130.996,121.536 L130.263,119.313 L96.474,119.313 L95.693,121.536 Z M139.15,145.755 L141.787,145.755 L114.638,76 L113.466,76 L113.466,79.287 L139.15,145.755 Z" stroke="none" transform="translate(0,200)" />
        <path id="Baseline-S" d="M18,146 l800,0" />
        <path id="left-margin-Ultralight-M" d="M234.773,256 l0,110" />
        <path id="right-margin-Ultralight-M" d="M295.227,256 l0,110" />
        <path id="left-margin-Regular-M" d="M434.773,256 l0,110" />
        <path id="right-margin-Regular-M" d="M495.227,256 l0,110" />
        <path id="left-margin-Black-M" d="M634.773,256 l0,110" />
        <path id="right-margin-Black-M" d="M695.227,256 l0,110" />
        <path id="Capline-M" d="M18,276 l800,0" />
        <path id="Baseline-M" d="M18,346 l800,0" />
        <path id="Capline-L" d="M18,476 l800,0" />
        <path id="Baseline-L" d="M18,546 l800,0" />
    </g>
    <g id="Symbols">
        <g id="Ultralight-M" transform="translate(0,200)">
            <path d="M255.455,79.182 L255.455,91.909 C255.455,93.666 256.879,95.091 258.636,95.091 C260.394,95.091 261.818,93.666 261.818,91.909 L261.818,79.182 C261.818,77.425 260.394,76 258.636,76 C256.879,76 255.455,77.425 255.455,79.182 Z" />
            <path d="M269.773,76 L247.5,76 C244.968,76 242.54,77.006 240.75,78.796 C238.96,80.586 237.955,83.014 237.955,85.545 C237.955,87.303 239.379,88.727 241.136,88.727 C242.894,88.727 244.318,87.303 244.318,85.545 C244.318,84.702 244.653,83.892 245.25,83.296 C245.847,82.699 246.656,82.364 247.5,82.364 L269.773,82.364 C271.53,82.364 272.955,80.939 272.955,79.182 C272.955,77.425 271.53,76 269.773,76 Z" />
            <path d="M288.624,117.323 C285.467,114.731 283.284,111.146 282.43,107.153 C281.711,103.791 276.911,103.8 276.204,107.164 C275.366,111.156 273.184,114.739 270.022,117.315 C265.743,120.738 263.409,125.17 263.409,129.932 C263.409,138.751 270.559,146 279.318,146 C288.077,146 295.227,138.751 295.227,129.932 C295.227,125.184 292.906,120.816 288.616,117.316 C287.254,116.206 285.25,116.409 284.139,117.771 C283.028,119.132 283.232,121.137 284.593,122.247 C287.475,124.599 288.864,127.211 288.864,129.932 C288.864,135.256 284.543,139.636 279.318,139.636 C274.093,139.636 269.773,135.256 269.773,129.932 C269.773,127.195 271.167,124.549 274.019,122.266 C278.333,118.752 281.294,113.889 282.432,108.472 L276.207,108.484 C277.362,113.886 280.316,118.736 284.586,122.241 C285.944,123.356 287.949,123.159 289.064,121.801 C290.179,120.443 289.982,118.438 288.624,117.323 Z" />
            <path d="M255.795,136.455 L244.318,136.455 C243.474,136.455 242.665,136.119 242.068,135.523 C241.472,134.926 241.136,134.117 241.136,133.273 L241.136,111 C241.136,110.156 241.472,109.347 242.068,108.75 C242.665,108.153 243.474,107.818 244.318,107.818 L266.591,107.818 C268.348,107.818 269.773,106.394 269.773,104.636 L269.773,95.091 C269.773,93.403 269.102,91.785 267.909,90.591 C266.715,89.398 265.097,88.727 263.409,88.727 L253.864,88.727 C252.176,88.727 250.557,89.398 249.364,90.591 C248.17,91.785 247.5,93.403 247.5,95.091 L247.5,104.636 C247.5,106.394 248.925,107.818 250.682,107.818 C252.439,107.818 253.864,106.394 253.864,104.636 L253.864,95.091 C253.864,95.091 253.864,95.091 253.864,95.091 C253.864,95.091 253.864,95.091 253.864,95.091 L263.409,95.091 C263.409,95.091 263.409,95.091 263.409,95.091 C263.409,95.091 263.409,95.091 263.409,95.091 L263.409,104.636 L266.591,101.455 L244.318,101.455 C241.787,101.455 239.359,102.46 237.569,104.25 C235.778,106.04 234.773,108.468 234.773,111 L234.773,133.273 C234.773,135.804 235.778,138.232 237.569,140.022 C239.359,141.812 241.787,142.818 244.318,142.818 L255.795,142.818 C257.552,142.818 258.977,141.394 258.977,139.636 C258.977,137.879 257.552,136.455 255.795,136.455 Z" />
        </g>
        <g id="Regular-M" transform="translate(0,200)">
            <path d="M455.455,79.182 L455.455,91.909 C455.455,93.666 456.879,95.091 458.636,95.091 C460.394,95.091 461.818,93.666 461.818,91.909 L461.818,79.182 C461.818,77.425 460.394,76 458.636,76 C456.879,76 455.455,77.425 455.455,79.182 Z" />
            <path d="M469.773,76 L447.5,76 C444.968,76 442.54,77.006 440.75,78.796 C438.96,80.586 437.955,83.014 437.955,85.545 C437.955,87.303 439.379,88.727 441.136,88.727 C442.894,88.727 444.318,87.303 444.318,85.545 C444.318,84.702 444.653,83.892 445.25,83.296 C445.847,82.699 446.656,82.364 447.5,82.364 L469.773,82.364 C471.53,82.364 472.955,80.939 472.955,79.182 C472.955,77.425 471.53,76 469.773,76 Z" />
            <path d="M488.624,117.323 C485.467,114.731 483.284,111.146 482.43,107.153 C481.711,103.791 476.911,103.8 476.204,107.164 C475.366,111.156 473.184,114.739 470.022,117.315 C465.743,120.738 463.409,125.17 463.409,129.932 C463.409,138.751 470.559,146 479.318,146 C488.077,146 495.227,138.751 495.227,129.932 C495.227,125.184 492.906,120.816 488.616,117.316 C487.254,116.206 485.25,116.409 484.139,117.771 C483.028,119.132 483.232,121.137 484.593,122.247 C487.475,124.599 488.864,127.211 488.864,129.932 C488.864,135.256 484.543,139.636 479.318,139.636 C474.093,139.636 469.773,135.256 469.773,129.932 C469.773,127.195 471.167,124.549 474.019,122.266 C478.333,118.752 481.294,113.889 482.432,108.472 L476.207,108.484 C477.362,113.886 480.316,118.736 484.586,122.241 C485.944,123.356 487.949,123.159 489.064,121.801 C490.179,120.443 489.982,118.438 488.624,117.323 Z" />
            <path d="M455.795,136.455 L444.318,136.455 C443.474,136.455 442.665,136.119 442.068,135.523 C441.472,134.926 441.136,134.117 441.136,133.273 L441.136,111 C441.136,110.156 441.472,109.347 442.068,108.75 C442.665,108.153 443.474,107.818 444.318,107.818 L466.591,107.818 C468.348,107.818 469.773,106.394 469.773,104.636 L469.773,95.091 C469.773,93.403 469.102,91.785 467.909,90.591 C466.715,89.398 465.097,88.727 463.409,88.727 L453.864,88.727 C452.176,88.727 450.557,89.398 449.364,90.591 C448.17,91.785 447.5,93.403 447.5,95.091 L447.5,104.636 C447.5,106.394 448.925,107.818 450.682,107.818 C452.439,107.818 453.864,106.394 453.864,104.636 L453.864,95.091 C453.864,95.091 453.864,95.091 453.864,95.091 C453.864,95.091 453.864,95.091 453.864,95.091 L463.409,95.091 C463.409,95.091 463.409,95.091 463.409,95.091 C463.409,95.091 463.409,95.091 463.409,95.091 L463.409,104.636 L466.591,101.455 L444.318,101.455 C441.787,101.455 439.359,102.46 437.569,104.25 C435.778,106.04 434.773,108.468 434.773,111 L434.773,133.273 C434.773,135.804 435.778,138.232 437.569,140.022 C439.359,141.812 441.787,142.818 444.318,142.818 L455.795,142.818 C457.552,142.818 458.977,141.394 458.977,139.636 C458.977,137.879 457.552,136.455 455.795,136.455 Z" />
        </g>
        <g id="Black-M" transform="translate(0,200)">
            <path d="M655.455,79.182 L655.455,91.909 C655.455,93.666 656.879,95.091 658.636,95.091 C660.394,95.091 661.818,93.666 661.818,91.909 L661.818,79.182 C661.818,77.425 660.394,76 658.636,76 C656.879,76 655.455,77.425 655.455,79.182 Z" />
            <path d="M669.773,76 L647.5,76 C644.968,76 642.54,77.006 640.75,78.796 C638.96,80.586 637.955,83.014 637.955,85.545 C637.955,87.303 639.379,88.727 641.136,88.727 C642.894,88.727 644.318,87.303 644.318,85.545 C644.318,84.702 644.653,83.892 645.25,83.296 C645.847,82.699 646.656,82.364 647.5,82.364 L669.773,82.364 C671.53,82.364 672.955,80.939 672.955,79.182 C672.955,77.425 671.53,76 669.773,76 Z" />
            <path d="M688.624,117.323 C685.467,114.731 683.284,111.146 682.43,107.153 C681.711,103.791 676.911,103.8 676.204,107.164 C675.366,111.156 673.184,114.739 670.022,117.315 C665.743,120.738 663.409,125.17 663.409,129.932 C663.409,138.751 670.559,146 679.318,146 C688.077,146 695.227,138.751 695.227,129.932 C695.227,125.184 692.906,120.816 688.616,117.316 C687.254,116.206 685.25,116.409 684.139,117.771 C683.028,119.132 683.232,121.137 684.593,122.247 C687.475,124.599 688.864,127.211 688.864,129.932 C688.864,135.256 684.543,139.636 679.318,139.636 C674.093,139.636 669.773,135.256 669.773,129.932 C669.773,127.195 671.167,124.549 674.019,122.266 C678.333,118.752 681.294,113.889 682.432,108.472 L676.207,108.484 C677.362,113.886 680.316,118.736 684.586,122.241 C685.944,123.356 687.949,123.159 689.064,121.801 C690.179,120.443 689.982,118.438 688.624,117.323 Z" />
            <path d="M655.795,136.455 L644.318,136.455 C643.474,136.455 642.665,136.119 642.068,135.523 C641.472,134.926 641.136,134.117 641.136,133.273 L641.136,111 C641.136,110.156 641.472,109.347 642.068,108.75 C642.665,108.153 643.474,107.818 644.318,107.818 L666.591,107.818 C668.348,107.818 669.773,106.394 669.773,104.636 L669.773,95.091 C669.773,93.403 669.102,91.785 667.909,90.591 C666.715,89.398 665.097,88.727 663.409,88.727 L653.864,88.727 C652.176,88.727 650.557,89.398 649.364,90.591 C648.17,91.785 647.5,93.403 647.5,95.091 L647.5,104.636 C647.5,106.394 648.924,107.818 650.682,107.818 C652.439,107.818 653.864,106.394 653.864,104.636 L653.864,95.091 C653.864,95.091 653.864,95.091 653.864,95.091 C653.864,95.091 653.864,95.091 653.864,95.091 L663.409,95.091 C663.409,95.091 663.409,95.091 663.409,95.091 C663.409,95.091 663.409,95.091 663.409,95.091 L663.409,104.636 L666.591,101.455 L644.318,101.455 C641.787,101.455 639.359,102.46 637.568,104.25 C635.778,106.04 634.773,108.468 634.773,111 L634.773,133.273 C634.773,135.804 635.778,138.232 637.568,140.022 C639.359,141.812 641.787,142.818 644.318,142.818 L655.795,142.818 C657.552,142.818 658.977,141.394 658.977,139.636 C658.977,137.879 657.552,136.455 655.795,136.455 Z" />
        </g>
    </g>
</svg>