<?xml version="1.0" encoding="UTF-8"?>
<svg height="600" width="800" xmlns="http://www.w3.org/2000/svg" xmlns:xlink="http://www.w3.org/1999/xlink">
    <g id="Notes" font-family="LucidaGrande, 'Lucida Grande', sans-serif" font-size="13">
        <rect fill="white" height="600.0" width="800.0" x="0.0" y="0.0" />
        <g font-size="13">
            <text x="18.0" y="176.0">Small</text>
            <text x="18.0" y="376.0">Medium</text>
            <text x="18.0" y="576.0">Large</text>
        </g>
        <g font-size="9">
            <text x="250.0" y="30.0">Ultralight</text>
            <text x="450.0" y="30.0">Regular</text>
            <text x="650.0" y="30.0">Black</text>
            <text id="template-version" fill="#505050" text-anchor="end" x="785.0" y="575.0">Template v.3.0</text>
            <a href="https://github.com/swhitty/SwiftDraw">
                <text fill="#505050" text-anchor="end" x="785.0" y="590.0">https://github.com/swhitty/SwiftDraw</text>
            </a>
        </g>
    </g>
    <g id="Guides" stroke="rgb(39, 170, 225)" stroke-width="0.5">
        <path id="Capline-S" d="M18,76 l800,0" />
        <path id="H-reference" d="M85,145.755 L87.685,145.755 L113.369,79.287 L114.052,79.287 L114.052,76 L112.148,76 L85,145.755 Z M95.693,121.536 L130.996,121.536 L130.263,119.313 L96.474,119.313 L95.693,121.536 Z M139.15,145.755 L141.787,145.755 L114.638,76 L113.466,76 L113.466,79.287 L139.15,145.755 Z" stroke="none" transform="translate(0,200)" />
        <path id="Baseline-S" d="M18,146 l800,0" />
        <path id="left-margin-Ultralight-M" d="M236.364,256 l0,110" />
        <path id="right-margin-Ultralight-M" d="M293.636,256 l0,110" />
        <path id="left-margin-Regular-M" d="M436.364,256 l0,110" />
        <path id="right-margin-Regular-M" d="M493.636,256 l0,110" />
        <path id="left-margin-Black-M" d="M636.364,256 l0,110" />
        <path id="right-margin-Black-M" d="M693.636,256 l0,110" />
        <path id="Capline-M" d="M18,276 l800,0" />
        <path id="Baseline-M" d="M18,346 l800,0" />
        <path id="Capline-L" d="M18,476 l800,0" />
        <path id="Baseline-L" d="M18,546 l800,0" />
    </g>
    <g id="Symbols">
        <g id="Ultralight-M" transform="translate(0,200)">
            <path d="M265,107.818 L265.032,107.818 C266.789,107.818 268.214,106.394 268.214,104.636 C268.214,102.879 266.789,101.455 265.032,101.455 L265,101.455 C263.243,101.455 261.818,102.879 261.818,104.636 C261.818,106.394 263.243,107.818 265,107.818 Z" />
            <path d="M265,120.545 L265.032,120.545 C266.789,120.545 268.214,119.121 268.214,117.364 C268.214,115.606 266.789,114.182 265.032,114.182 L265,114.182 C263.243,114.182 261.818,115.606 261.818,117.364 C261.818,119.121 263.243,120.545 265,120.545 Z" />
            <path d="M265,95.091 L265.032,95.091 C266.789,95.091 268.214,93.666 268.214,91.909 C268.214,90.152 266.789,88.727 265.032,88.727 L265,88.727 C263.243,88.727 261.818,90.152 261.818,91.909 C261.818,93.666 263.243,95.091 265,95.091 Z" />
            <path d="M277.727,107.818 L277.759,107.818 C279.516,107.818 280.941,106.394 280.941,104.636 C280.941,102.879 279.516,101.455 277.759,101.455 L277.727,101.455 C275.97,101.455 274.545,102.879 274.545,104.636 C274.545,106.394 275.97,107.818 277.727,107.818 Z" />
            <path d="M277.727,120.545 L277.759,120.545 C279.516,120.545 280.941,119.121 280.941,117.364 C280.941,115.606 279.516,114.182 277.759,114.182 L277.727,114.182 C275.97,114.182 274.545,115.606 274.545,117.364 C274.545,119.121 275.97,120.545 277.727,120.545 Z" />
            <path d="M277.727,95.091 L277.759,95.091 C279.516,95.091 280.941,93.666 280.941,91.909 C280.941,90.152 279.516,88.727 277.759,88.727 L277.727,88.727 C275.97,88.727 274.545,90.152 274.545,91.909 C274.545,93.666 275.97,95.091 277.727,95.091 Z" />
            <path d="M252.273,107.818 L252.305,107.818 C254.062,107.818 255.486,106.394 255.486,104.636 C255.486,102.879 254.062,101.455 252.305,101.455 L252.273,101.455 C250.515,101.455 249.091,102.879 249.091,104.636 C249.091,106.394 250.515,107.818 252.273,107.818 Z" />
            <path d="M252.273,120.545 L252.305,120.545 C254.062,120.545 255.486,119.121 255.486,117.364 C255.486,115.606 254.062,114.182 252.305,114.182 L252.273,114.182 C250.515,114.182 249.091,115.606 249.091,117.364 C249.091,119.121 250.515,120.545 252.273,120.545 Z" />
            <path d="M252.273,95.091 L252.305,95.091 C254.062,95.091 255.486,93.666 255.486,91.909 C255.486,90.152 254.062,88.727 252.305,88.727 L252.273,88.727 C250.515,88.727 249.091,90.152 249.091,91.909 C249.091,93.666 250.515,95.091 252.273,95.091 Z" />
            <path d="M258.636,142.818 L258.636,133.273 C258.636,133.273 258.636,133.273 258.636,133.273 C258.636,133.273 258.636,133.273 258.636,133.273 L271.364,133.273 C271.364,133.273 271.364,133.273 271.364,133.273 C271.364,133.273 271.364,133.273 271.364,133.273 L271.364,142.818 C271.364,144.575 272.788,146 274.545,146 C276.303,146 277.727,144.575 277.727,142.818 L277.727,133.273 C277.727,131.585 277.057,129.966 275.863,128.773 C274.67,127.58 273.051,126.909 271.364,126.909 L258.636,126.909 C256.949,126.909 255.33,127.58 254.137,128.773 C252.943,129.966 252.273,131.585 252.273,133.273 L252.273,142.818 C252.273,144.575 253.697,146 255.455,146 C257.212,146 258.636,144.575 258.636,142.818 Z" />
            <path d="M287.273,111 L287.273,136.455 C287.273,137.298 286.938,138.108 286.341,138.704 C285.744,139.301 284.935,139.636 284.091,139.636 L245.909,139.636 C245.065,139.636 244.256,139.301 243.659,138.704 C243.062,138.108 242.727,137.298 242.727,136.455 L242.727,85.545 C242.727,84.702 243.062,83.892 243.659,83.296 C244.256,82.699 245.065,82.364 245.909,82.364 L284.091,82.364 C284.935,82.364 285.744,82.699 286.341,83.296 C286.938,83.892 287.273,84.702 287.273,85.545 L287.273,111 Z M293.636,111 L293.636,85.545 C293.636,83.014 292.631,80.586 290.841,78.796 C289.05,77.006 286.623,76 284.091,76 L245.909,76 C243.377,76 240.95,77.006 239.159,78.796 C237.369,80.586 236.364,83.014 236.364,85.545 L236.364,136.455 C236.364,138.986 237.369,141.414 239.159,143.204 C240.95,144.994 243.377,146 245.909,146 L284.091,146 C286.623,146 289.05,144.994 290.841,143.204 C292.631,141.414 293.636,138.986 293.636,136.455 L293.636,111 Z" />
        </g>
        <g id="Regular-M" transform="translate(0,200)">
            <path d="M465,107.818 L465.032,107.818 C466.789,107.818 468.214,106.394 468.214,104.636 C468.214,102.879 466.789,101.455 465.032,101.455 L465,101.455 C463.243,101.455 461.818,102.879 461.818,104.636 C461.818,106.394 463.243,107.818 465,107.818 Z" />
            <path d="M465,120.545 L465.032,120.545 C466.789,120.545 468.214,119.121 468.214,117.364 C468.214,115.606 466.789,114.182 465.032,114.182 L465,114.182 C463.243,114.182 461.818,115.606 461.818,117.364 C461.818,119.121 463.243,120.545 465,120.545 Z" />
            <path d="M465,95.091 L465.032,95.091 C466.789,95.091 468.214,93.666 468.214,91.909 C468.214,90.152 466.789,88.727 465.032,88.727 L465,88.727 C463.243,88.727 461.818,90.152 461.818,91.909 C461.818,93.666 463.243,95.091 465,95.091 Z" />
            <path d="M477.727,107.818 L477.759,107.818 C479.516,107.818 480.941,106.394 480.941,104.636 C480.941,102.879 479.516,101.455 477.759,101.455 L477.727,101.455 C475.97,101.455 474.545,102.879 474.545,104.636 C474.545,106.394 475.97,107.818 477.727,107.818 Z" />
            <path d="M477.727,120.545 L477.759,120.545 C479.516,120.545 480.941,119.121 480.941,117.364 C480.941,115.606 479.516,114.182 477.759,114.182 L477.727,114.182 C475.97,114.182 474.545,115.606 474.545,117.364 C474.545,119.121 475.97,120.545 477.727,120.545 Z" />
            <path d="M477.727,95.091 L477.759,95.091 C479.516,95.091 480.941,93.666 480.941,91.909 C480.941,90.152 479.516,88.727 477.759,88.727 L477.727,88.727 C475.97,88.727 474.545,90.152 474.545,91.909 C474.545,93.666 475.97,95.091 477.727,95.091 Z" />
            <path d="M452.273,107.818 L452.305,107.818 C454.062,107.818 455.486,106.394 455.486,104.636 C455.486,102.879 454.062,101.455 452.305,101.455 L452.273,101.455 C450.515,101.455 449.091,102.879 449.091,104.636 C449.091,106.394 450.515,107.818 452.273,107.818 Z" />
            <path d="M452.273,120.545 L452.305,120.545 C454.062,120.545 455.486,119.121 455.486,117.364 C455.486,115.606 454.062,114.182 452.305,114.182 L452.273,114.182 C450.515,114.182 449.091,115.606 449.091,117.364 C449.091,119.121 450.515,120.545 452.273,120.545 Z" />
            <path d="M452.273,95.091 L452.305,95.091 C454.062,95.091 455.486,93.666 455.486,91.909 C455.486,90.152 454.062,88.727 452.305,88.727 L452.273,88.727 C450.515,88.727 449.091,90.152 449.091,91.909 C449.091,93.666 450.515,95.091 452.273,95.091 Z" />
            <path d="M458.636,142.818 L458.636,133.273 C458.636,133.273 458.636,133.273 458.636,133.273 C458.636,133.273 458.636,133.273 458.636,133.273 L471.364,133.273 C471.364,133.273 471.364,133.273 471.364,133.273 C471.364,133.273 471.364,133.273 471.364,133.273 L471.364,142.818 C471.364,144.575 472.788,146 474.545,146 C476.303,146 477.727,144.575 477.727,142.818 L477.727,133.273 C477.727,131.585 477.057,129.966 475.863,128.773 C474.67,127.58 473.051,126.909 471.364,126.909 L458.636,126.909 C456.949,126.909 455.33,127.58 454.137,128.773 C452.943,129.966 452.273,131.585 452.273,133.273 L452.273,142.818 C452.273,144.575 453.697,146 455.455,146 C457.212,146 458.636,144.575 458.636,142.818 Z" />
            <path d="M487.273,111 L487.273,136.455 C487.273,137.298 486.938,138.108 486.341,138.704 C485.744,139.301 484.935,139.636 484.091,139.636 L445.909,139.636 C445.065,139.636 444.256,139.301 443.659,138.704 C443.062,138.108 442.727,137.298 442.727,136.455 L442.727,85.545 C442.727,84.702 443.062,83.892 443.659,83.296 C444.256,82.699 445.065,82.364 445.909,82.364 L484.091,82.364 C484.935,82.364 485.744,82.699 486.341,83.296 C486.938,83.892 487.273,84.702 487.273,85.545 L487.273,111 Z M493.636,111 L493.636,85.545 C493.636,83.014 492.631,80.586 490.841,78.796 C489.05,77.006 486.623,76 484.091,76 L445.909,76 C443.378,76 440.95,77.006 439.159,78.796 C437.369,80.586 436.364,83.014 436.364,85.545 L436.364,136.455 C436.364,138.986 437.369,141.414 439.159,143.204 C440.95,144.994 443.378,146 445.909,146 L484.091,146 C486.623,146 489.05,144.994 490.841,143.204 C492.631,141.414 493.636,138.986 493.636,136.455 L493.636,111 Z" />
        </g>
        <g id="Black-M" transform="translate(0,200)">
            <path d="M665,107.818 L665.032,107.818 C666.789,107.818 668.214,106.394 668.214,104.636 C668.214,102.879 666.789,101.455 665.032,101.455 L665,101.455 C663.243,101.455 661.818,102.879 661.818,104.636 C661.818,106.394 663.243,107.818 665,107.818 Z" />
            <path d="M665,120.545 L665.032,120.545 C666.789,120.545 668.214,119.121 668.214,117.364 C668.214,115.606 666.789,114.182 665.032,114.182 L665,114.182 C663.243,114.182 661.818,115.606 661.818,117.364 C661.818,119.121 663.243,120.545 665,120.545 Z" />
            <path d="M665,95.091 L665.032,95.091 C666.789,95.091 668.214,93.666 668.214,91.909 C668.214,90.152 666.789,88.727 665.032,88.727 L665,88.727 C663.243,88.727 661.818,90.152 661.818,91.909 C661.818,93.666 663.243,95.091 665,95.091 Z" />
            <path d="M677.727,107.818 L677.759,107.818 C679.516,107.818 680.941,106.394 680.941,104.636 C680.941,102.879 679.516,101.455 677.759,101.455 L677.727,101.455 C675.97,101.455 674.545,102.879 674.545,104.636 C674.545,106.394 675.97,107.818 677.727,107.818 Z" />
            <path d="M677.727,120.545 L677.759,120.545 C679.516,120.545 680.941,119.121 680.941,117.364 C680.941,115.606 679.516,114.182 677.759,114.182 L677.727,114.182 C675.97,114.182 674.545,115.606 674.545,117.364 C674.545,119.121 675.97,120.545 677.727,120.545 Z" />
            <path d="M677.727,95.091 L677.759,95.091 C679.516,95.091 680.941,93.666 680.941,91.909 C680.941,90.152 679.516,88.727 677.759,88.727 L677.727,88.727 C675.97,88.727 674.545,90.152 674.545,91.909 C674.545,93.666 675.97,95.091 677.727,95.091 Z" />
            <path d="M652.273,107.818 L652.305,107.818 C654.062,107.818 655.486,106.394 655.486,104.636 C655.486,102.879 654.062,101.455 652.305,101.455 L652.273,101.455 C650.515,101.455 649.091,102.879 649.091,104.636 C649.091,106.394 650.515,107.818 652.273,107.818 Z" />
            <path d="M652.273,120.545 L652.305,120.545 C654.062,120.545 655.486,119.121 655.486,117.364 C655.486,115.606 654.062,114.182 652.305,114.182 L652.273,114.182 C650.515,114.182 649.091,115.606 649.091,117.364 C649.091,119.121 650.515,120.545 652.273,120.545 Z" />
            <path d="M652.273,95.091 L652.305,95.091 C654.062,95.091 655.486,93.666 655.486,91.909 C655.486,90.152 654.062,88.727 652.305,88.727 L652.273,88.727 C650.515,88.727 649.091,90.152 649.091,91.909 C649.091,93.666 650.515,95.091 652.273,95.091 Z" />
            <path d="M658.636,142.818 L658.636,133.273 C658.636,133.273 658.636,133.273 658.636,133.273 C658.636,133.273 658.636,133.273 658.636,133.273 L671.364,133.273 C671.364,133.273 671.364,133.273 671.364,133.273 C671.364,133.273 671.364,133.273 671.364,133.273 L671.364,142.818 C671.364,144.575 672.788,146 674.545,146 C676.303,146 677.727,144.575 677.727,142.818 L677.727,133.273 C677.727,131.585 677.057,129.966 675.863,128.773 C674.67,127.58 673.051,126.909 671.364,126.909 L658.636,126.909 C656.949,126.909 655.33,127.58 654.137,128.773 C652.943,129.966 652.273,131.585 652.273,133.273 L652.273,142.818 C652.273,144.575 653.697,146 655.455,146 C657.212,146 658.636,144.575 658.636,142.818 Z" />
            <path d="M687.273,111 L687.273,136.455 C687.273,137.298 686.938,138.108 686.341,138.704 C685.744,139.301 684.935,139.636 684.091,139.636 L645.909,139.636 C645.065,139.636 644.256,139.301 643.659,138.704 C643.062,138.108 642.727,137.298 642.727,136.455 L642.727,85.545 C642.727,84.702 643.062,83.892 643.659,83.296 C644.256,82.699 645.065,82.364 645.909,82.364 L684.091,82.364 C684.935,82.364 685.744,82.699 686.341,83.296 C686.938,83.892 687.273,84.702 687.273,85.545 L687.273,111 Z M693.636,111 L693.636,85.545 C693.636,83.014 692.631,80.586 690.841,78.796 C689.05,77.006 686.623,76 684.091,76 L645.909,76 C643.378,76 640.95,77.006 639.159,78.796 C637.369,80.586 636.364,83.014 636.364,85.545 L636.364,136.455 C636.364,138.986 637.369,141.414 639.159,143.204 C640.95,144.994 643.378,146 645.909,146 L684.091,146 C686.623,146 689.05,144.994 690.841,143.204 C692.631,141.414 693.636,138.986 693.636,136.455 L693.636,111 Z" />
        </g>
    </g>
</svg>