<?xml version="1.0" encoding="UTF-8"?>
<svg height="600" width="800" xmlns="http://www.w3.org/2000/svg" xmlns:xlink="http://www.w3.org/1999/xlink">
    <g id="Notes" font-family="LucidaGrande, 'Lucida Grande', sans-serif" font-size="13">
        <rect fill="white" height="600.0" width="800.0" x="0.0" y="0.0" />
        <g font-size="13">
            <text x="18.0" y="176.0">Small</text>
            <text x="18.0" y="376.0">Medium</text>
            <text x="18.0" y="576.0">Large</text>
        </g>
        <g font-size="9">
            <text x="250.0" y="30.0">Ultralight</text>
            <text x="450.0" y="30.0">Regular</text>
            <text x="650.0" y="30.0">Black</text>
            <text id="template-version" fill="#505050" text-anchor="end" x="785.0" y="575.0">Template v.3.0</text>
            <a href="https://github.com/swhitty/SwiftDraw">
                <text fill="#505050" text-anchor="end" x="785.0" y="590.0">https://github.com/swhitty/SwiftDraw</text>
            </a>
        </g>
    </g>
    <g id="Guides" stroke="rgb(39, 170, 225)" stroke-width="0.5">
        <path id="Capline-S" d="M18,76 l800,0" />
        <path id="H-reference" d="M85,145.755 L87.685,145.755 L113.369,79.287 L114.052,79.287 L114.052,76 L112.148,76 L85,145.755 Z M95.693,121.536 L130.996,121.536 L130.263,119.313 L96.474,119.313 L95.693,121.536 Z M139.15,145.755 L141.787,145.755 L114.638,76 L113.466,76 L113.466,79.287 L139.15,145.755 Z" stroke="none" transform="translate(0,200)" />
        <path id="Baseline-S" d="M18,146 l800,0" />
        <path id="left-margin-Ultralight-M" d="M226.316,256 l0,110" />
        <path id="right-margin-Ultralight-M" d="M303.684,256 l0,110" />
        <path id="left-margin-Regular-M" d="M426.316,256 l0,110" />
        <path id="right-margin-Regular-M" d="M503.684,256 l0,110" />
        <path id="left-margin-Black-M" d="M626.316,256 l0,110" />
        <path id="right-margin-Black-M" d="M703.684,256 l0,110" />
        <path id="Capline-M" d="M18,276 l800,0" />
        <path id="Baseline-M" d="M18,346 l800,0" />
        <path id="Capline-L" d="M18,476 l800,0" />
        <path id="Baseline-L" d="M18,546 l800,0" />
    </g>
    <g id="Symbols">
        <g id="Ultralight-M" transform="translate(0,200)">
            <path d="M256.099,128.228 C258.534,129.678 261.672,130.486 265,130.486 C268.328,130.486 271.466,129.678 273.901,128.228 C275.577,127.229 276.121,125.07 275.115,123.405 C274.109,121.74 271.935,121.2 270.258,122.199 C268.961,122.972 267.083,123.456 265,123.456 C262.917,123.456 261.039,122.972 259.742,122.199 C258.065,121.2 255.891,121.74 254.885,123.405 C253.879,125.07 254.423,127.229 256.099,128.228 Z" />
            <path d="M275.62,114.668 L275.655,114.668 C277.61,114.668 279.195,113.094 279.195,111.153 C279.195,109.211 277.61,107.637 275.655,107.637 L275.62,107.637 C273.665,107.637 272.08,109.211 272.08,111.153 C272.08,113.094 273.665,114.668 275.62,114.668 Z" />
            <path d="M288.207,94.911 C290.414,98.096 291.935,101.699 292.676,105.494 C292.888,106.582 293.604,107.506 294.608,107.989 C295.829,108.576 296.605,109.805 296.605,111.153 C296.605,112.5 295.829,113.729 294.608,114.316 C293.626,114.788 292.918,115.684 292.689,116.743 C289.89,129.708 278.352,138.969 265,138.97 C251.648,138.97 240.11,129.708 237.311,116.743 C237.082,115.684 236.374,114.788 235.392,114.316 C234.171,113.729 233.395,112.5 233.395,111.153 C233.395,109.805 234.171,108.576 235.392,107.989 C236.385,107.511 237.097,106.601 237.318,105.528 C240.005,92.456 251.572,83.057 265.007,83.031 C270.279,83.031 273.85,85.584 273.85,88.303 C273.85,91.4 272.084,93.576 270.31,93.576 C269.547,93.576 268.876,93.401 268.493,93.159 C268.431,93.12 268.54,93.288 268.54,93.576 C268.54,91.635 266.955,90.061 265,90.061 C263.045,90.061 261.46,91.635 261.46,93.576 C261.46,97.965 265.64,100.607 270.31,100.607 C276.372,100.607 280.929,94.989 280.929,88.303 C280.929,81.11 273.782,76 265,76 C248.199,76.034 233.74,87.781 230.381,104.122 L233.849,104.825 L232.306,101.661 C228.643,103.423 226.316,107.11 226.316,111.153 C226.316,115.195 228.643,118.882 232.306,120.644 L233.849,117.48 L230.388,118.217 C233.887,134.423 248.31,146 265,146 C281.69,146 296.113,134.423 299.612,118.217 L296.151,117.48 L297.694,120.644 C301.357,118.882 303.684,115.195 303.684,111.153 C303.684,107.11 301.357,103.423 297.694,101.661 L296.151,104.825 L299.626,104.156 C298.7,99.412 296.798,94.908 294.041,90.927 C292.933,89.327 290.729,88.922 289.118,90.023 C287.507,91.123 287.1,93.311 288.207,94.911 Z" />
            <path d="M254.38,114.668 L254.416,114.668 C256.371,114.668 257.956,113.094 257.956,111.153 C257.956,109.211 256.371,107.637 254.416,107.637 L254.38,107.637 C252.425,107.637 250.841,109.211 250.841,111.153 C250.841,113.094 252.425,114.668 254.38,114.668 Z" />
        </g>
        <g id="Regular-M" transform="translate(0,200)">
            <path d="M456.099,128.228 C458.534,129.678 461.672,130.486 465,130.486 C468.328,130.486 471.466,129.678 473.901,128.228 C475.577,127.229 476.121,125.07 475.115,123.405 C474.109,121.74 471.935,121.2 470.258,122.199 C468.961,122.972 467.083,123.456 465,123.456 C462.917,123.456 461.039,122.972 459.742,122.199 C458.065,121.2 455.891,121.74 454.885,123.405 C453.879,125.07 454.423,127.229 456.099,128.228 Z" />
            <path d="M475.62,114.668 L475.655,114.668 C477.61,114.668 479.195,113.094 479.195,111.153 C479.195,109.211 477.61,107.637 475.655,107.637 L475.62,107.637 C473.665,107.637 472.08,109.211 472.08,111.153 C472.08,113.094 473.665,114.668 475.62,114.668 Z" />
            <path d="M488.207,94.911 C490.414,98.096 491.935,101.699 492.676,105.494 C492.888,106.582 493.604,107.506 494.608,107.989 C495.829,108.576 496.605,109.805 496.605,111.153 C496.605,112.5 495.829,113.729 494.608,114.316 C493.626,114.788 492.918,115.684 492.689,116.743 C489.89,129.708 478.352,138.969 465,138.97 C451.648,138.97 440.11,129.708 437.311,116.743 C437.082,115.684 436.374,114.788 435.392,114.316 C434.171,113.729 433.396,112.5 433.396,111.153 C433.396,109.805 434.171,108.576 435.392,107.989 C436.385,107.511 437.097,106.601 437.318,105.528 C440.005,92.456 451.572,83.057 465.007,83.031 C470.279,83.031 473.85,85.584 473.85,88.303 C473.85,91.4 472.084,93.576 470.31,93.576 C469.547,93.576 468.876,93.401 468.493,93.159 C468.431,93.12 468.54,93.288 468.54,93.576 C468.54,91.635 466.955,90.061 465,90.061 C463.045,90.061 461.46,91.635 461.46,93.576 C461.46,97.965 465.64,100.607 470.31,100.607 C476.372,100.607 480.929,94.989 480.929,88.303 C480.929,81.11 473.782,76 465,76 C448.199,76.034 433.74,87.781 430.381,104.122 L433.849,104.825 L432.306,101.661 C428.643,103.423 426.316,107.11 426.316,111.153 C426.316,115.195 428.643,118.882 432.306,120.644 L433.849,117.48 L430.388,118.217 C433.887,134.423 448.31,146 465,146 C481.69,146 496.113,134.423 499.612,118.217 L496.151,117.48 L497.694,120.644 C501.357,118.882 503.684,115.195 503.684,111.153 C503.684,107.11 501.357,103.423 497.694,101.661 L496.151,104.825 L499.626,104.156 C498.7,99.412 496.798,94.908 494.041,90.927 C492.933,89.327 490.729,88.922 489.118,90.023 C487.507,91.123 487.1,93.311 488.207,94.911 Z" />
            <path d="M454.38,114.668 L454.416,114.668 C456.371,114.668 457.956,113.094 457.956,111.153 C457.956,109.211 456.371,107.637 454.416,107.637 L454.38,107.637 C452.425,107.637 450.841,109.211 450.841,111.153 C450.841,113.094 452.425,114.668 454.38,114.668 Z" />
        </g>
        <g id="Black-M" transform="translate(0,200)">
            <path d="M656.099,128.228 C658.534,129.678 661.672,130.486 665,130.486 C668.328,130.486 671.466,129.678 673.901,128.228 C675.577,127.229 676.121,125.07 675.115,123.405 C674.109,121.74 671.935,121.2 670.258,122.199 C668.961,122.972 667.083,123.456 665,123.456 C662.917,123.456 661.039,122.972 659.742,122.199 C658.065,121.2 655.891,121.74 654.885,123.405 C653.879,125.07 654.423,127.229 656.099,128.228 Z" />
            <path d="M675.62,114.668 L675.655,114.668 C677.61,114.668 679.195,113.094 679.195,111.153 C679.195,109.211 677.61,107.637 675.655,107.637 L675.62,107.637 C673.665,107.637 672.08,109.211 672.08,111.153 C672.08,113.094 673.665,114.668 675.62,114.668 Z" />
            <path d="M688.207,94.911 C690.414,98.096 691.935,101.699 692.676,105.494 C692.888,106.582 693.604,107.506 694.608,107.989 C695.829,108.576 696.605,109.805 696.605,111.153 C696.605,112.5 695.829,113.729 694.608,114.316 C693.626,114.788 692.918,115.684 692.689,116.743 C689.89,129.708 678.352,138.969 665,138.97 C651.648,138.97 640.11,129.708 637.311,116.743 C637.082,115.684 636.374,114.788 635.392,114.316 C634.171,113.729 633.396,112.5 633.396,111.153 C633.396,109.805 634.171,108.576 635.392,107.989 C636.385,107.511 637.097,106.601 637.318,105.528 C640.005,92.456 651.572,83.057 665.007,83.031 C670.279,83.031 673.85,85.584 673.85,88.303 C673.85,91.4 672.084,93.576 670.31,93.576 C669.547,93.576 668.876,93.401 668.493,93.159 C668.431,93.12 668.54,93.288 668.54,93.576 C668.54,91.635 666.955,90.061 665,90.061 C663.045,90.061 661.46,91.635 661.46,93.576 C661.46,97.965 665.64,100.607 670.31,100.607 C676.372,100.607 680.929,94.989 680.929,88.303 C680.929,81.11 673.782,76 665,76 C648.199,76.034 633.74,87.781 630.381,104.122 L633.849,104.825 L632.306,101.661 C628.643,103.423 626.316,107.11 626.316,111.153 C626.316,115.195 628.643,118.882 632.306,120.644 L633.849,117.48 L630.388,118.217 C633.887,134.423 648.31,146 665,146 C681.69,146 696.113,134.423 699.612,118.217 L696.151,117.48 L697.694,120.644 C701.357,118.882 703.684,115.195 703.684,111.153 C703.684,107.11 701.357,103.423 697.694,101.661 L696.151,104.825 L699.626,104.156 C698.7,99.412 696.798,94.908 694.041,90.927 C692.933,89.327 690.729,88.922 689.118,90.023 C687.507,91.123 687.1,93.311 688.207,94.911 Z" />
            <path d="M654.38,114.668 L654.416,114.668 C656.371,114.668 657.956,113.094 657.956,111.153 C657.956,109.211 656.371,107.637 654.416,107.637 L654.38,107.637 C652.425,107.637 650.841,109.211 650.841,111.153 C650.841,113.094 652.425,114.668 654.38,114.668 Z" />
        </g>
    </g>
</svg>