<?xml version="1.0" encoding="UTF-8"?>
<svg height="600" width="800" xmlns="http://www.w3.org/2000/svg" xmlns:xlink="http://www.w3.org/1999/xlink">
    <g id="Notes" font-family="LucidaGrande, 'Lucida Grande', sans-serif" font-size="13">
        <rect fill="white" height="600.0" width="800.0" x="0.0" y="0.0" />
        <g font-size="13">
            <text x="18.0" y="176.0">Small</text>
            <text x="18.0" y="376.0">Medium</text>
            <text x="18.0" y="576.0">Large</text>
        </g>
        <g font-size="9">
            <text x="250.0" y="30.0">Ultralight</text>
            <text x="450.0" y="30.0">Regular</text>
            <text x="650.0" y="30.0">Black</text>
            <text id="template-version" fill="#505050" text-anchor="end" x="785.0" y="575.0">Template v.3.0</text>
            <a href="https://github.com/swhitty/SwiftDraw">
                <text fill="#505050" text-anchor="end" x="785.0" y="590.0">https://github.com/swhitty/SwiftDraw</text>
            </a>
        </g>
    </g>
    <g id="Guides" stroke="rgb(39, 170, 225)" stroke-width="0.5">
        <path id="Capline-S" d="M18,76 l800,0" />
        <path id="H-reference" d="M85,145.755 L87.685,145.755 L113.369,79.287 L114.052,79.287 L114.052,76 L112.148,76 L85,145.755 Z M95.693,121.536 L130.996,121.536 L130.263,119.313 L96.474,119.313 L95.693,121.536 Z M139.15,145.755 L141.787,145.755 L114.638,76 L113.466,76 L113.466,79.287 L139.15,145.755 Z" stroke="none" transform="translate(0,200)" />
        <path id="Baseline-S" d="M18,146 l800,0" />
        <path id="left-margin-Ultralight-M" d="M230,256 l0,110" />
        <path id="right-margin-Ultralight-M" d="M300,256 l0,110" />
        <path id="left-margin-Regular-M" d="M430,256 l0,110" />
        <path id="right-margin-Regular-M" d="M500,256 l0,110" />
        <path id="left-margin-Black-M" d="M630,256 l0,110" />
        <path id="right-margin-Black-M" d="M700,256 l0,110" />
        <path id="Capline-M" d="M18,276 l800,0" />
        <path id="Baseline-M" d="M18,346 l800,0" />
        <path id="Capline-L" d="M18,476 l800,0" />
        <path id="Baseline-L" d="M18,546 l800,0" />
    </g>
    <g id="Symbols">
        <g id="Ultralight-M" transform="translate(0,200)">
            <path d="M260.93,132.667 L260.93,87.667 C260.93,84.905 263.117,82.667 265.814,82.667 C268.511,82.667 270.698,84.905 270.698,87.667 L270.698,126 C270.698,128.652 271.727,131.196 273.559,133.071 C275.39,134.946 277.875,136 280.465,136 L296.744,136 C299.645,136 301.097,132.41 299.046,130.31 L289.279,120.31 C288.007,119.008 285.946,119.008 284.675,120.31 C283.403,121.611 283.403,123.722 284.675,125.024 L294.442,135.024 L296.744,129.333 L280.465,129.333 C279.602,129.333 278.773,128.982 278.163,128.357 C277.552,127.732 277.209,126.884 277.209,126 L277.209,87.667 C277.209,81.223 272.107,76 265.814,76 C259.52,76 254.419,81.223 254.419,87.667 L254.419,132.667 C254.419,134.508 255.876,136 257.674,136 C259.473,136 260.93,134.508 260.93,132.667 Z" />
            <path d="M294.442,130.31 L284.675,140.31 C283.403,141.611 283.403,143.722 284.675,145.024 C285.946,146.325 288.007,146.325 289.279,145.024 L299.046,135.024 C300.318,133.722 300.318,131.611 299.046,130.31 C297.775,129.008 295.713,129.008 294.442,130.31 Z" />
            <path d="M244.651,132.667 L244.651,87.667 C244.651,84.905 246.838,82.667 249.535,82.667 C252.232,82.667 254.419,84.905 254.419,87.667 C254.419,89.508 255.876,91 257.674,91 C259.473,91 260.93,89.508 260.93,87.667 C260.93,81.223 255.828,76 249.535,76 C243.241,76 238.14,81.223 238.14,87.667 L238.14,132.667 C238.14,134.508 239.597,136 241.395,136 C243.193,136 244.651,134.508 244.651,132.667 Z" />
            <path d="M244.651,87.667 C244.651,84.572 243.451,81.605 241.314,79.417 C239.176,77.229 236.278,76 233.256,76 C231.458,76 230,77.492 230,79.333 C230,81.174 231.458,82.667 233.256,82.667 C234.551,82.667 235.793,83.193 236.709,84.131 C237.625,85.069 238.14,86.341 238.14,87.667 C238.14,89.508 239.597,91 241.395,91 C243.193,91 244.651,89.508 244.651,87.667 Z" />
        </g>
        <g id="Regular-M" transform="translate(0,200)">
            <path d="M460.93,132.667 L460.93,87.667 C460.93,84.905 463.117,82.667 465.814,82.667 C468.511,82.667 470.698,84.905 470.698,87.667 L470.698,126 C470.698,128.652 471.727,131.196 473.559,133.071 C475.39,134.946 477.875,136 480.465,136 L496.744,136 C499.645,136 501.097,132.41 499.046,130.31 L489.279,120.31 C488.007,119.008 485.946,119.008 484.675,120.31 C483.403,121.611 483.403,123.722 484.675,125.024 L494.442,135.024 L496.744,129.333 L480.465,129.333 C479.602,129.333 478.773,128.982 478.163,128.357 C477.552,127.732 477.209,126.884 477.209,126 L477.209,87.667 C477.209,81.223 472.107,76 465.814,76 C459.52,76 454.419,81.223 454.419,87.667 L454.419,132.667 C454.419,134.508 455.876,136 457.674,136 C459.473,136 460.93,134.508 460.93,132.667 Z" />
            <path d="M494.442,130.31 L484.675,140.31 C483.403,141.611 483.403,143.722 484.675,145.024 C485.946,146.325 488.007,146.325 489.279,145.024 L499.046,135.024 C500.318,133.722 500.318,131.611 499.046,130.31 C497.775,129.008 495.713,129.008 494.442,130.31 Z" />
            <path d="M444.651,132.667 L444.651,87.667 C444.651,84.905 446.838,82.667 449.535,82.667 C452.232,82.667 454.419,84.905 454.419,87.667 C454.419,89.508 455.876,91 457.674,91 C459.473,91 460.93,89.508 460.93,87.667 C460.93,81.223 455.828,76 449.535,76 C443.241,76 438.14,81.223 438.14,87.667 L438.14,132.667 C438.14,134.508 439.597,136 441.395,136 C443.193,136 444.651,134.508 444.651,132.667 Z" />
            <path d="M444.651,87.667 C444.651,84.572 443.451,81.605 441.314,79.417 C439.177,77.229 436.278,76 433.256,76 C431.458,76 430,77.492 430,79.333 C430,81.174 431.458,82.667 433.256,82.667 C434.551,82.667 435.793,83.193 436.709,84.131 C437.625,85.069 438.14,86.341 438.14,87.667 C438.14,89.508 439.597,91 441.395,91 C443.193,91 444.651,89.508 444.651,87.667 Z" />
        </g>
        <g id="Black-M" transform="translate(0,200)">
            <path d="M660.93,132.667 L660.93,87.667 C660.93,84.905 663.117,82.667 665.814,82.667 C668.511,82.667 670.698,84.905 670.698,87.667 L670.698,126 C670.698,128.652 671.727,131.196 673.558,133.071 C675.39,134.946 677.875,136 680.465,136 L696.744,136 C699.645,136 701.097,132.41 699.046,130.31 L689.279,120.31 C688.007,119.008 685.946,119.008 684.675,120.31 C683.403,121.611 683.403,123.722 684.675,125.024 L694.442,135.024 L696.744,129.333 L680.465,129.333 C679.602,129.333 678.773,128.982 678.163,128.357 C677.552,127.732 677.209,126.884 677.209,126 L677.209,87.667 C677.209,81.223 672.107,76 665.814,76 C659.52,76 654.419,81.223 654.419,87.667 L654.419,132.667 C654.419,134.508 655.876,136 657.674,136 C659.473,136 660.93,134.508 660.93,132.667 Z" />
            <path d="M694.442,130.31 L684.675,140.31 C683.403,141.611 683.403,143.722 684.675,145.024 C685.946,146.325 688.007,146.325 689.279,145.024 L699.046,135.024 C700.318,133.722 700.318,131.611 699.046,130.31 C697.775,129.008 695.713,129.008 694.442,130.31 Z" />
            <path d="M644.651,132.667 L644.651,87.667 C644.651,84.905 646.838,82.667 649.535,82.667 C652.232,82.667 654.419,84.905 654.419,87.667 C654.419,89.508 655.876,91 657.674,91 C659.473,91 660.93,89.508 660.93,87.667 C660.93,81.223 655.828,76 649.535,76 C643.241,76 638.14,81.223 638.14,87.667 L638.14,132.667 C638.14,134.508 639.597,136 641.395,136 C643.193,136 644.651,134.508 644.651,132.667 Z" />
            <path d="M644.651,87.667 C644.651,84.572 643.451,81.605 641.314,79.417 C639.177,77.229 636.278,76 633.256,76 C631.458,76 630,77.492 630,79.333 C630,81.174 631.458,82.667 633.256,82.667 C634.551,82.667 635.793,83.193 636.709,84.131 C637.625,85.069 638.14,86.341 638.14,87.667 C638.14,89.508 639.597,91 641.395,91 C643.193,91 644.651,89.508 644.651,87.667 Z" />
        </g>
    </g>
</svg>