<?xml version="1.0" encoding="UTF-8"?>
<svg height="600" width="800" xmlns="http://www.w3.org/2000/svg" xmlns:xlink="http://www.w3.org/1999/xlink">
    <g id="Notes" font-family="LucidaGrande, 'Lucida Grande', sans-serif" font-size="13">
        <rect fill="white" height="600.0" width="800.0" x="0.0" y="0.0" />
        <g font-size="13">
            <text x="18.0" y="176.0">Small</text>
            <text x="18.0" y="376.0">Medium</text>
            <text x="18.0" y="576.0">Large</text>
        </g>
        <g font-size="9">
            <text x="250.0" y="30.0">Ultralight</text>
            <text x="450.0" y="30.0">Regular</text>
            <text x="650.0" y="30.0">Black</text>
            <text id="template-version" fill="#505050" text-anchor="end" x="785.0" y="575.0">Template v.3.0</text>
            <a href="https://github.com/swhitty/SwiftDraw">
                <text fill="#505050" text-anchor="end" x="785.0" y="590.0">https://github.com/swhitty/SwiftDraw</text>
            </a>
        </g>
    </g>
    <g id="Guides" stroke="rgb(39, 170, 225)" stroke-width="0.5">
        <path id="Capline-S" d="M18,76 l800,0" />
        <path id="H-reference" d="M85,145.755 L87.685,145.755 L113.369,79.287 L114.052,79.287 L114.052,76 L112.148,76 L85,145.755 Z M95.693,121.536 L130.996,121.536 L130.263,119.313 L96.474,119.313 L95.693,121.536 Z M139.15,145.755 L141.787,145.755 L114.638,76 L113.466,76 L113.466,79.287 L139.15,145.755 Z" stroke="none" transform="translate(0,200)" />
        <path id="Baseline-S" d="M18,146 l800,0" />
        <path id="left-margin-Ultralight-M" d="M225.625,256 l0,110" />
        <path id="right-margin-Ultralight-M" d="M304.375,256 l0,110" />
        <path id="left-margin-Regular-M" d="M425.625,256 l0,110" />
        <path id="right-margin-Regular-M" d="M504.375,256 l0,110" />
        <path id="left-margin-Black-M" d="M625.625,256 l0,110" />
        <path id="right-margin-Black-M" d="M704.375,256 l0,110" />
        <path id="Capline-M" d="M18,276 l800,0" />
        <path id="Baseline-M" d="M18,346 l800,0" />
        <path id="Capline-L" d="M18,476 l800,0" />
        <path id="Baseline-L" d="M18,546 l800,0" />
    </g>
    <g id="Symbols">
        <g id="Ultralight-M" transform="translate(0,200)">
            <path d="M226.906,83.469 L261.906,118.469 C263.615,120.177 266.385,120.177 268.094,118.469 C269.802,116.76 269.802,113.99 268.094,112.281 L233.094,77.281 C231.385,75.573 228.615,75.573 226.906,77.281 C225.198,78.99 225.198,81.76 226.906,83.469 Z" />
            <path d="M261.906,77.281 L226.906,112.281 C225.198,113.99 225.198,116.76 226.906,118.469 C228.615,120.177 231.385,120.177 233.094,118.469 L268.094,83.469 C269.802,81.76 269.802,78.99 268.094,77.281 C266.385,75.573 263.615,75.573 261.906,77.281 Z" />
            <path d="M300,137.25 L282.5,137.25 L286.875,141.625 C286.875,137.166 287.442,136.289 290.929,134.644 C292.547,133.881 293.207,133.562 294.13,133.082 C300.633,129.702 304.375,125.828 304.375,119.75 C304.375,116.641 303.252,113.616 301.215,111.251 C296.925,106.393 289.879,105.209 284.284,108.373 C281.523,109.95 279.429,112.439 278.378,115.397 C277.568,117.673 278.758,120.175 281.034,120.985 C283.311,121.794 285.813,120.605 286.622,118.328 C286.97,117.351 287.674,116.513 288.608,115.98 C290.588,114.861 293.102,115.283 294.621,117.002 C295.254,117.738 295.625,118.737 295.625,119.75 C295.625,121.594 293.976,123.301 290.094,125.319 C289.306,125.729 288.71,126.017 287.196,126.731 C280.674,129.807 278.125,133.748 278.125,141.625 C278.125,144.041 280.084,146 282.5,146 L300,146 C302.416,146 304.375,144.041 304.375,141.625 C304.375,139.209 302.416,137.25 300,137.25 Z" />
        </g>
        <g id="Regular-M" transform="translate(0,200)">
            <path d="M426.906,83.469 L461.906,118.469 C463.615,120.177 466.385,120.177 468.094,118.469 C469.802,116.76 469.802,113.99 468.094,112.281 L433.094,77.281 C431.385,75.573 428.615,75.573 426.906,77.281 C425.198,78.99 425.198,81.76 426.906,83.469 Z" />
            <path d="M461.906,77.281 L426.906,112.281 C425.198,113.99 425.198,116.76 426.906,118.469 C428.615,120.177 431.385,120.177 433.094,118.469 L468.094,83.469 C469.802,81.76 469.802,78.99 468.094,77.281 C466.385,75.573 463.615,75.573 461.906,77.281 Z" />
            <path d="M500,137.25 L482.5,137.25 L486.875,141.625 C486.875,137.166 487.442,136.289 490.929,134.644 C492.547,133.881 493.207,133.562 494.13,133.082 C500.633,129.702 504.375,125.828 504.375,119.75 C504.375,116.641 503.252,113.616 501.215,111.251 C496.925,106.393 489.879,105.209 484.284,108.373 C481.523,109.95 479.429,112.439 478.378,115.397 C477.568,117.673 478.758,120.175 481.034,120.985 C483.311,121.794 485.813,120.605 486.622,118.328 C486.97,117.351 487.674,116.513 488.608,115.98 C490.588,114.861 493.102,115.283 494.621,117.002 C495.254,117.738 495.625,118.737 495.625,119.75 C495.625,121.594 493.976,123.301 490.094,125.319 C489.306,125.729 488.71,126.017 487.196,126.731 C480.674,129.807 478.125,133.748 478.125,141.625 C478.125,144.041 480.084,146 482.5,146 L500,146 C502.416,146 504.375,144.041 504.375,141.625 C504.375,139.209 502.416,137.25 500,137.25 Z" />
        </g>
        <g id="Black-M" transform="translate(0,200)">
            <path d="M626.906,83.469 L661.906,118.469 C663.615,120.177 666.385,120.177 668.094,118.469 C669.802,116.76 669.802,113.99 668.094,112.281 L633.094,77.281 C631.385,75.573 628.615,75.573 626.906,77.281 C625.198,78.99 625.198,81.76 626.906,83.469 Z" />
            <path d="M661.906,77.281 L626.906,112.281 C625.198,113.99 625.198,116.76 626.906,118.469 C628.615,120.177 631.385,120.177 633.094,118.469 L668.094,83.469 C669.802,81.76 669.802,78.99 668.094,77.281 C666.385,75.573 663.615,75.573 661.906,77.281 Z" />
            <path d="M700,137.25 L682.5,137.25 L686.875,141.625 C686.875,137.166 687.442,136.289 690.929,134.644 C692.547,133.881 693.207,133.562 694.13,133.082 C700.633,129.702 704.375,125.828 704.375,119.75 C704.375,116.641 703.252,113.616 701.215,111.251 C696.925,106.393 689.879,105.209 684.284,108.373 C681.523,109.95 679.429,112.439 678.378,115.397 C677.568,117.673 678.758,120.175 681.034,120.985 C683.311,121.794 685.813,120.605 686.622,118.328 C686.97,117.351 687.674,116.513 688.608,115.98 C690.588,114.861 693.102,115.283 694.621,117.002 C695.254,117.738 695.625,118.737 695.625,119.75 C695.625,121.594 693.976,123.301 690.094,125.319 C689.306,125.729 688.71,126.017 687.196,126.731 C680.674,129.807 678.125,133.748 678.125,141.625 C678.125,144.041 680.084,146 682.5,146 L700,146 C702.416,146 704.375,144.041 704.375,141.625 C704.375,139.209 702.416,137.25 700,137.25 Z" />
        </g>
    </g>
</svg>