<?xml version="1.0" encoding="UTF-8"?>
<svg height="600" width="800" xmlns="http://www.w3.org/2000/svg" xmlns:xlink="http://www.w3.org/1999/xlink">
    <g id="Notes" font-family="LucidaGrande, 'Lucida Grande', sans-serif" font-size="13">
        <rect fill="white" height="600.0" width="800.0" x="0.0" y="0.0" />
        <g font-size="13">
            <text x="18.0" y="176.0">Small</text>
            <text x="18.0" y="376.0">Medium</text>
            <text x="18.0" y="576.0">Large</text>
        </g>
        <g font-size="9">
            <text x="250.0" y="30.0">Ultralight</text>
            <text x="450.0" y="30.0">Regular</text>
            <text x="650.0" y="30.0">Black</text>
            <text id="template-version" fill="#505050" text-anchor="end" x="785.0" y="575.0">Template v.3.0</text>
            <a href="https://github.com/swhitty/SwiftDraw">
                <text fill="#505050" text-anchor="end" x="785.0" y="590.0">https://github.com/swhitty/SwiftDraw</text>
            </a>
        </g>
    </g>
    <g id="Guides" stroke="rgb(39, 170, 225)" stroke-width="0.5">
        <path id="Capline-S" d="M18,76 l800,0" />
        <path id="H-reference" d="M85,145.755 L87.685,145.755 L113.369,79.287 L114.052,79.287 L114.052,76 L112.148,76 L85,145.755 Z M95.693,121.536 L130.996,121.536 L130.263,119.313 L96.474,119.313 L95.693,121.536 Z M139.15,145.755 L141.787,145.755 L114.638,76 L113.466,76 L113.466,79.287 L139.15,145.755 Z" stroke="none" transform="translate(0,200)" />
        <path id="Baseline-S" d="M18,146 l800,0" />
        <path id="left-margin-Ultralight-M" d="M222.222,256 l0,110" />
        <path id="right-margin-Ultralight-M" d="M307.778,256 l0,110" />
        <path id="left-margin-Regular-M" d="M422.222,256 l0,110" />
        <path id="right-margin-Regular-M" d="M507.778,256 l0,110" />
        <path id="left-margin-Black-M" d="M622.222,256 l0,110" />
        <path id="right-margin-Black-M" d="M707.778,256 l0,110" />
        <path id="Capline-M" d="M18,276 l800,0" />
        <path id="Baseline-M" d="M18,346 l800,0" />
        <path id="Capline-L" d="M18,476 l800,0" />
        <path id="Baseline-L" d="M18,546 l800,0" />
    </g>
    <g id="Symbols">
        <g id="Ultralight-M" transform="translate(0,200)">
            <path d="M239.722,146 L249.444,146 C251.592,146 253.333,144.259 253.333,142.111 C253.333,139.963 251.592,138.222 249.444,138.222 L239.722,138.222 C237.574,138.222 235.833,139.963 235.833,142.111 C235.833,144.259 237.574,146 239.722,146 Z" />
            <path d="M284.444,103.222 L284.483,103.222 C286.631,103.222 288.372,101.481 288.372,99.333 C288.372,97.186 286.631,95.444 284.483,95.444 L284.444,95.444 C282.297,95.444 280.556,97.186 280.556,99.333 C280.556,101.481 282.297,103.222 284.444,103.222 Z" />
            <path d="M300,111 L300,134.333 C300,135.365 299.59,136.354 298.861,137.083 C298.132,137.812 297.143,138.222 296.111,138.222 L272.778,138.222 C271.746,138.222 270.757,137.812 270.028,137.083 C269.299,136.354 268.889,135.365 268.889,134.333 L268.889,87.667 C268.889,86.635 269.299,85.646 270.028,84.917 C270.757,84.188 271.746,83.778 272.778,83.778 L296.111,83.778 C297.143,83.778 298.132,84.188 298.861,84.917 C299.59,85.646 300,86.635 300,87.667 L300,111 Z M307.778,111 L307.778,87.667 C307.778,84.572 306.549,81.605 304.361,79.417 C302.173,77.229 299.205,76 296.111,76 L272.778,76 C269.684,76 266.716,77.229 264.528,79.417 C262.34,81.605 261.111,84.572 261.111,87.667 L261.111,134.333 C261.111,137.428 262.34,140.395 264.528,142.583 C266.716,144.771 269.684,146 272.778,146 L296.111,146 C299.205,146 302.173,144.771 304.361,142.583 C306.549,140.395 307.778,137.428 307.778,134.333 L307.778,111 Z" />
            <path d="M249.444,83.778 L233.889,83.778 C230.795,83.778 227.827,85.007 225.639,87.195 C223.451,89.383 222.222,92.35 222.222,95.444 L222.222,118.778 C222.222,121.872 223.451,124.839 225.639,127.027 C227.827,129.215 230.795,130.444 233.889,130.444 L249.444,130.444 C251.592,130.444 253.333,128.703 253.333,126.556 C253.333,124.408 251.592,122.667 249.444,122.667 L233.889,122.667 C232.857,122.667 231.868,122.257 231.139,121.528 C230.41,120.798 230,119.809 230,118.778 L230,95.444 C230,94.413 230.41,93.424 231.139,92.695 C231.868,91.965 232.857,91.556 233.889,91.556 L249.444,91.556 C251.592,91.556 253.333,89.814 253.333,87.667 C253.333,85.519 251.592,83.778 249.444,83.778 Z" />
            <path d="M284.444,122.667 C284.444,122.667 284.444,122.667 284.444,122.667 C284.444,122.667 284.444,122.667 284.444,122.667 C284.444,122.667 284.444,122.667 284.444,122.667 C284.444,122.667 284.444,122.667 284.444,122.667 Z M276.667,122.667 C276.667,126.962 280.149,130.444 284.444,130.444 C288.74,130.444 292.222,126.962 292.222,122.667 C292.222,118.371 288.74,114.889 284.444,114.889 C280.149,114.889 276.667,118.371 276.667,122.667 Z" />
        </g>
        <g id="Regular-M" transform="translate(0,200)">
            <path d="M439.722,146 L449.444,146 C451.592,146 453.333,144.259 453.333,142.111 C453.333,139.963 451.592,138.222 449.444,138.222 L439.722,138.222 C437.574,138.222 435.833,139.963 435.833,142.111 C435.833,144.259 437.574,146 439.722,146 Z" />
            <path d="M484.444,103.222 L484.483,103.222 C486.631,103.222 488.372,101.481 488.372,99.333 C488.372,97.186 486.631,95.444 484.483,95.444 L484.444,95.444 C482.297,95.444 480.556,97.186 480.556,99.333 C480.556,101.481 482.297,103.222 484.444,103.222 Z" />
            <path d="M500,111 L500,134.333 C500,135.365 499.59,136.354 498.861,137.083 C498.132,137.812 497.143,138.222 496.111,138.222 L472.778,138.222 C471.746,138.222 470.757,137.812 470.028,137.083 C469.299,136.354 468.889,135.365 468.889,134.333 L468.889,87.667 C468.889,86.635 469.299,85.646 470.028,84.917 C470.757,84.188 471.746,83.778 472.778,83.778 L496.111,83.778 C497.143,83.778 498.132,84.188 498.861,84.917 C499.59,85.646 500,86.635 500,87.667 L500,111 Z M507.778,111 L507.778,87.667 C507.778,84.572 506.549,81.605 504.361,79.417 C502.173,77.229 499.205,76 496.111,76 L472.778,76 C469.684,76 466.716,77.229 464.528,79.417 C462.34,81.605 461.111,84.572 461.111,87.667 L461.111,134.333 C461.111,137.428 462.34,140.395 464.528,142.583 C466.716,144.771 469.684,146 472.778,146 L496.111,146 C499.205,146 502.173,144.771 504.361,142.583 C506.549,140.395 507.778,137.428 507.778,134.333 L507.778,111 Z" />
            <path d="M449.444,83.778 L433.889,83.778 C430.795,83.778 427.827,85.007 425.639,87.195 C423.451,89.383 422.222,92.35 422.222,95.444 L422.222,118.778 C422.222,121.872 423.451,124.839 425.639,127.027 C427.827,129.215 430.795,130.444 433.889,130.444 L449.444,130.444 C451.592,130.444 453.333,128.703 453.333,126.556 C453.333,124.408 451.592,122.667 449.444,122.667 L433.889,122.667 C432.858,122.667 431.868,122.257 431.139,121.528 C430.41,120.798 430,119.809 430,118.778 L430,95.444 C430,94.413 430.41,93.424 431.139,92.695 C431.868,91.965 432.857,91.556 433.889,91.556 L449.444,91.556 C451.592,91.556 453.333,89.814 453.333,87.667 C453.333,85.519 451.592,83.778 449.444,83.778 Z" />
            <path d="M484.444,122.667 C484.444,122.667 484.444,122.667 484.444,122.667 C484.444,122.667 484.444,122.667 484.444,122.667 C484.444,122.667 484.444,122.667 484.444,122.667 C484.444,122.667 484.444,122.667 484.444,122.667 Z M476.667,122.667 C476.667,126.962 480.149,130.444 484.444,130.444 C488.74,130.444 492.222,126.962 492.222,122.667 C492.222,118.371 488.74,114.889 484.444,114.889 C480.149,114.889 476.667,118.371 476.667,122.667 Z" />
        </g>
        <g id="Black-M" transform="translate(0,200)">
            <path d="M639.722,146 L649.444,146 C651.592,146 653.333,144.259 653.333,142.111 C653.333,139.963 651.592,138.222 649.444,138.222 L639.722,138.222 C637.574,138.222 635.833,139.963 635.833,142.111 C635.833,144.259 637.574,146 639.722,146 Z" />
            <path d="M684.444,103.222 L684.483,103.222 C686.631,103.222 688.372,101.481 688.372,99.333 C688.372,97.186 686.631,95.444 684.483,95.444 L684.444,95.444 C682.297,95.444 680.556,97.186 680.556,99.333 C680.556,101.481 682.297,103.222 684.444,103.222 Z" />
            <path d="M700,111 L700,134.333 C700,135.365 699.59,136.354 698.861,137.083 C698.132,137.812 697.143,138.222 696.111,138.222 L672.778,138.222 C671.746,138.222 670.757,137.812 670.028,137.083 C669.299,136.354 668.889,135.365 668.889,134.333 L668.889,87.667 C668.889,86.635 669.299,85.646 670.028,84.917 C670.757,84.188 671.746,83.778 672.778,83.778 L696.111,83.778 C697.143,83.778 698.132,84.188 698.861,84.917 C699.59,85.646 700,86.635 700,87.667 L700,111 Z M707.778,111 L707.778,87.667 C707.778,84.572 706.549,81.605 704.361,79.417 C702.173,77.229 699.205,76 696.111,76 L672.778,76 C669.684,76 666.716,77.229 664.528,79.417 C662.34,81.605 661.111,84.572 661.111,87.667 L661.111,134.333 C661.111,137.428 662.34,140.395 664.528,142.583 C666.716,144.771 669.684,146 672.778,146 L696.111,146 C699.205,146 702.173,144.771 704.361,142.583 C706.549,140.395 707.778,137.428 707.778,134.333 L707.778,111 Z" />
            <path d="M649.444,83.778 L633.889,83.778 C630.795,83.778 627.827,85.007 625.639,87.195 C623.451,89.383 622.222,92.35 622.222,95.444 L622.222,118.778 C622.222,121.872 623.451,124.839 625.639,127.027 C627.827,129.215 630.795,130.444 633.889,130.444 L649.444,130.444 C651.592,130.444 653.333,128.703 653.333,126.556 C653.333,124.408 651.592,122.667 649.444,122.667 L633.889,122.667 C632.857,122.667 631.868,122.257 631.139,121.528 C630.41,120.798 630,119.809 630,118.778 L630,95.444 C630,94.413 630.41,93.424 631.139,92.695 C631.868,91.965 632.857,91.556 633.889,91.556 L649.444,91.556 C651.592,91.556 653.333,89.814 653.333,87.667 C653.333,85.519 651.592,83.778 649.444,83.778 Z" />
            <path d="M684.444,122.667 C684.444,122.667 684.444,122.667 684.444,122.667 C684.444,122.667 684.444,122.667 684.444,122.667 C684.444,122.667 684.444,122.667 684.444,122.667 C684.444,122.667 684.444,122.667 684.444,122.667 Z M676.667,122.667 C676.667,126.962 680.149,130.444 684.444,130.444 C688.74,130.444 692.222,126.962 692.222,122.667 C692.222,118.371 688.74,114.889 684.444,114.889 C680.149,114.889 676.667,118.371 676.667,122.667 Z" />
        </g>
    </g>
</svg>