<?xml version="1.0" encoding="UTF-8"?>
<svg height="600" width="800" xmlns="http://www.w3.org/2000/svg" xmlns:xlink="http://www.w3.org/1999/xlink">
    <g id="Notes" font-family="LucidaGrande, 'Lucida Grande', sans-serif" font-size="13">
        <rect fill="white" height="600.0" width="800.0" x="0.0" y="0.0" />
        <g font-size="13">
            <text x="18.0" y="176.0">Small</text>
            <text x="18.0" y="376.0">Medium</text>
            <text x="18.0" y="576.0">Large</text>
        </g>
        <g font-size="9">
            <text x="250.0" y="30.0">Ultralight</text>
            <text x="450.0" y="30.0">Regular</text>
            <text x="650.0" y="30.0">Black</text>
            <text id="template-version" fill="#505050" text-anchor="end" x="785.0" y="575.0">Template v.3.0</text>
            <a href="https://github.com/swhitty/SwiftDraw">
                <text fill="#505050" text-anchor="end" x="785.0" y="590.0">https://github.com/swhitty/SwiftDraw</text>
            </a>
        </g>
    </g>
    <g id="Guides" stroke="rgb(39, 170, 225)" stroke-width="0.5">
        <path id="Capline-S" d="M18,76 l800,0" />
        <path id="H-reference" d="M85,145.755 L87.685,145.755 L113.369,79.287 L114.052,79.287 L114.052,76 L112.148,76 L85,145.755 Z M95.693,121.536 L130.996,121.536 L130.263,119.313 L96.474,119.313 L95.693,121.536 Z M139.15,145.755 L141.787,145.755 L114.638,76 L113.466,76 L113.466,79.287 L139.15,145.755 Z" stroke="none" transform="translate(0,200)" />
        <path id="Baseline-S" d="M18,146 l800,0" />
        <path id="left-margin-Ultralight-M" d="M236.364,256 l0,110" />
        <path id="right-margin-Ultralight-M" d="M293.636,256 l0,110" />
        <path id="left-margin-Regular-M" d="M436.364,256 l0,110" />
        <path id="right-margin-Regular-M" d="M493.636,256 l0,110" />
        <path id="left-margin-Black-M" d="M636.364,256 l0,110" />
        <path id="right-margin-Black-M" d="M693.636,256 l0,110" />
        <path id="Capline-M" d="M18,276 l800,0" />
        <path id="Baseline-M" d="M18,346 l800,0" />
        <path id="Capline-L" d="M18,476 l800,0" />
        <path id="Baseline-L" d="M18,546 l800,0" />
    </g>
    <g id="Symbols">
        <g id="Ultralight-M" transform="translate(0,200)">
            <path d="M268.182,114.182 L268.182,95.091 C268.182,93.334 266.757,91.909 265,91.909 C263.243,91.909 261.818,93.334 261.818,95.091 L261.818,114.182 C261.818,115.939 263.243,117.364 265,117.364 C266.757,117.364 268.182,115.939 268.182,114.182 Z" />
            <path d="M242.727,134.864 L242.727,87.136 C242.727,85.871 243.23,84.657 244.125,83.762 C245.02,82.866 246.234,82.364 247.5,82.364 L287.273,82.364 C287.273,82.364 287.273,82.364 287.273,82.364 C287.273,82.364 287.273,82.364 287.273,82.364 L287.273,139.636 C287.273,139.636 287.273,139.636 287.273,139.636 C287.273,139.636 287.273,139.636 287.273,139.636 L247.5,139.636 C244.864,139.636 242.727,137.5 242.727,134.864 C242.727,132.228 244.864,130.091 247.5,130.091 L290.455,130.091 C292.212,130.091 293.636,128.666 293.636,126.909 C293.636,125.152 292.212,123.727 290.455,123.727 L247.5,123.727 C241.35,123.727 236.364,128.713 236.364,134.864 C236.364,141.014 241.35,146 247.5,146 L287.273,146 C288.96,146 290.579,145.33 291.772,144.136 C292.966,142.943 293.636,141.324 293.636,139.636 L293.636,82.364 C293.636,80.676 292.966,79.057 291.772,77.864 C290.579,76.67 288.96,76 287.273,76 L247.5,76 C244.546,76 241.714,77.173 239.625,79.262 C237.537,81.35 236.364,84.183 236.364,87.136 L236.364,134.864 C236.364,136.621 237.788,138.045 239.545,138.045 C241.303,138.045 242.727,136.621 242.727,134.864 Z" />
            <path d="M253.205,106.886 L262.75,116.432 C263.993,117.674 266.007,117.674 267.25,116.432 L276.795,106.886 C278.038,105.644 278.038,103.629 276.795,102.386 C275.553,101.144 273.538,101.144 272.296,102.386 L262.75,111.932 L267.25,111.932 L257.704,102.386 C256.462,101.144 254.447,101.144 253.205,102.386 C251.962,103.629 251.962,105.644 253.205,106.886 Z" />
        </g>
        <g id="Regular-M" transform="translate(0,200)">
            <path d="M468.182,114.182 L468.182,95.091 C468.182,93.334 466.757,91.909 465,91.909 C463.243,91.909 461.818,93.334 461.818,95.091 L461.818,114.182 C461.818,115.939 463.243,117.364 465,117.364 C466.757,117.364 468.182,115.939 468.182,114.182 Z" />
            <path d="M442.727,134.864 L442.727,87.136 C442.727,85.871 443.23,84.657 444.125,83.762 C445.02,82.866 446.234,82.364 447.5,82.364 L487.273,82.364 C487.273,82.364 487.273,82.364 487.273,82.364 C487.273,82.364 487.273,82.364 487.273,82.364 L487.273,139.636 C487.273,139.636 487.273,139.636 487.273,139.636 C487.273,139.636 487.273,139.636 487.273,139.636 L447.5,139.636 C444.864,139.636 442.727,137.5 442.727,134.864 C442.727,132.228 444.864,130.091 447.5,130.091 L490.455,130.091 C492.212,130.091 493.636,128.666 493.636,126.909 C493.636,125.152 492.212,123.727 490.455,123.727 L447.5,123.727 C441.35,123.727 436.364,128.713 436.364,134.864 C436.364,141.014 441.35,146 447.5,146 L487.273,146 C488.96,146 490.579,145.33 491.772,144.136 C492.966,142.943 493.636,141.324 493.636,139.636 L493.636,82.364 C493.636,80.676 492.966,79.057 491.773,77.864 C490.579,76.67 488.96,76 487.273,76 L447.5,76 C444.546,76 441.714,77.173 439.625,79.262 C437.537,81.35 436.364,84.183 436.364,87.136 L436.364,134.864 C436.364,136.621 437.788,138.045 439.545,138.045 C441.303,138.045 442.727,136.621 442.727,134.864 Z" />
            <path d="M453.205,106.886 L462.75,116.432 C463.993,117.674 466.007,117.674 467.25,116.432 L476.795,106.886 C478.038,105.644 478.038,103.629 476.795,102.386 C475.553,101.144 473.538,101.144 472.296,102.386 L462.75,111.932 L467.25,111.932 L457.704,102.386 C456.462,101.144 454.447,101.144 453.205,102.386 C451.962,103.629 451.962,105.644 453.205,106.886 Z" />
        </g>
        <g id="Black-M" transform="translate(0,200)">
            <path d="M668.182,114.182 L668.182,95.091 C668.182,93.334 666.757,91.909 665,91.909 C663.243,91.909 661.818,93.334 661.818,95.091 L661.818,114.182 C661.818,115.939 663.243,117.364 665,117.364 C666.757,117.364 668.182,115.939 668.182,114.182 Z" />
            <path d="M642.727,134.864 L642.727,87.136 C642.727,85.871 643.23,84.657 644.125,83.762 C645.02,82.866 646.234,82.364 647.5,82.364 L687.273,82.364 C687.273,82.364 687.273,82.364 687.273,82.364 C687.273,82.364 687.273,82.364 687.273,82.364 L687.273,139.636 C687.273,139.636 687.273,139.636 687.273,139.636 C687.273,139.636 687.273,139.636 687.273,139.636 L647.5,139.636 C644.864,139.636 642.727,137.5 642.727,134.864 C642.727,132.228 644.864,130.091 647.5,130.091 L690.455,130.091 C692.212,130.091 693.636,128.666 693.636,126.909 C693.636,125.152 692.212,123.727 690.455,123.727 L647.5,123.727 C641.35,123.727 636.364,128.713 636.364,134.864 C636.364,141.014 641.35,146 647.5,146 L687.273,146 C688.96,146 690.579,145.33 691.773,144.136 C692.966,142.943 693.636,141.324 693.636,139.636 L693.636,82.364 C693.636,80.676 692.966,79.057 691.773,77.864 C690.579,76.67 688.96,76 687.273,76 L647.5,76 C644.546,76 641.714,77.173 639.625,79.262 C637.537,81.35 636.364,84.183 636.364,87.136 L636.364,134.864 C636.364,136.621 637.788,138.045 639.545,138.045 C641.303,138.045 642.727,136.621 642.727,134.864 Z" />
            <path d="M653.205,106.886 L662.75,116.432 C663.993,117.674 666.007,117.674 667.25,116.432 L676.795,106.886 C678.038,105.644 678.038,103.629 676.795,102.386 C675.553,101.144 673.538,101.144 672.296,102.386 L662.75,111.932 L667.25,111.932 L657.704,102.386 C656.462,101.144 654.447,101.144 653.205,102.386 C651.962,103.629 651.962,105.644 653.205,106.886 Z" />
        </g>
    </g>
</svg>