<?xml version="1.0" encoding="UTF-8"?>
<svg height="600" width="800" xmlns="http://www.w3.org/2000/svg" xmlns:xlink="http://www.w3.org/1999/xlink">
    <g id="Notes" font-family="LucidaGrande, 'Lucida Grande', sans-serif" font-size="13">
        <rect fill="white" height="600.0" width="800.0" x="0.0" y="0.0" />
        <g font-size="13">
            <text x="18.0" y="176.0">Small</text>
            <text x="18.0" y="376.0">Medium</text>
            <text x="18.0" y="576.0">Large</text>
        </g>
        <g font-size="9">
            <text x="250.0" y="30.0">Ultralight</text>
            <text x="450.0" y="30.0">Regular</text>
            <text x="650.0" y="30.0">Black</text>
            <text id="template-version" fill="#505050" text-anchor="end" x="785.0" y="575.0">Template v.3.0</text>
            <a href="https://github.com/swhitty/SwiftDraw">
                <text fill="#505050" text-anchor="end" x="785.0" y="590.0">https://github.com/swhitty/SwiftDraw</text>
            </a>
        </g>
    </g>
    <g id="Guides" stroke="rgb(39, 170, 225)" stroke-width="0.5">
        <path id="Capline-S" d="M18,76 l800,0" />
        <path id="H-reference" d="M85,145.755 L87.685,145.755 L113.369,79.287 L114.052,79.287 L114.052,76 L112.148,76 L85,145.755 Z M95.693,121.536 L130.996,121.536 L130.263,119.313 L96.474,119.313 L95.693,121.536 Z M139.15,145.755 L141.787,145.755 L114.638,76 L113.466,76 L113.466,79.287 L139.15,145.755 Z" stroke="none" transform="translate(0,200)" />
        <path id="Baseline-S" d="M18,146 l800,0" />
        <path id="left-margin-Ultralight-M" d="M231.667,256 l0,110" />
        <path id="right-margin-Ultralight-M" d="M298.333,256 l0,110" />
        <path id="left-margin-Regular-M" d="M431.667,256 l0,110" />
        <path id="right-margin-Regular-M" d="M498.333,256 l0,110" />
        <path id="left-margin-Black-M" d="M631.667,256 l0,110" />
        <path id="right-margin-Black-M" d="M698.333,256 l0,110" />
        <path id="Capline-M" d="M18,276 l800,0" />
        <path id="Baseline-M" d="M18,346 l800,0" />
        <path id="Capline-L" d="M18,476 l800,0" />
        <path id="Baseline-L" d="M18,546 l800,0" />
    </g>
    <g id="Symbols">
        <g id="Ultralight-M" transform="translate(0,200)">
            <path d="M261.55,79.187 L261.55,111.059 C261.55,112.82 263.043,114.247 264.884,114.247 C266.725,114.247 268.217,112.82 268.217,111.059 L268.217,79.187 C268.217,77.427 266.725,76 264.884,76 C263.043,76 261.55,77.427 261.55,79.187 Z" />
            <path d="M283.86,96.102 C294.255,106.045 294.271,122.159 283.894,132.121 C273.518,142.083 256.666,142.133 246.224,132.234 C235.782,122.334 235.692,106.221 246.023,96.215 C247.316,94.962 247.302,92.944 245.992,91.708 C244.682,90.471 242.572,90.484 241.278,91.737 C228.365,104.244 228.478,124.386 241.53,136.76 C254.582,149.135 275.647,149.072 288.618,136.619 C301.589,124.167 301.569,104.025 288.575,91.595 C287.273,90.35 285.163,90.35 283.861,91.594 C282.559,92.839 282.558,94.857 283.86,96.102 Z" />
        </g>
        <g id="Regular-M" transform="translate(0,200)">
            <path d="M461.55,79.187 L461.55,111.059 C461.55,112.82 463.043,114.247 464.884,114.247 C466.725,114.247 468.217,112.82 468.217,111.059 L468.217,79.187 C468.217,77.427 466.725,76 464.884,76 C463.043,76 461.55,77.427 461.55,79.187 Z" />
            <path d="M483.86,96.102 C494.255,106.045 494.271,122.159 483.894,132.121 C473.518,142.083 456.666,142.133 446.224,132.234 C435.782,122.334 435.692,106.221 446.023,96.215 C447.316,94.962 447.302,92.944 445.992,91.708 C444.682,90.471 442.572,90.484 441.278,91.737 C428.365,104.244 428.478,124.386 441.53,136.76 C454.582,149.135 475.647,149.072 488.618,136.619 C501.589,124.167 501.569,104.025 488.575,91.595 C487.273,90.35 485.163,90.35 483.861,91.594 C482.559,92.839 482.558,94.857 483.86,96.102 Z" />
        </g>
        <g id="Black-M" transform="translate(0,200)">
            <path d="M661.55,79.187 L661.55,111.059 C661.55,112.82 663.043,114.247 664.884,114.247 C666.725,114.247 668.217,112.82 668.217,111.059 L668.217,79.187 C668.217,77.427 666.725,76 664.884,76 C663.043,76 661.55,77.427 661.55,79.187 Z" />
            <path d="M683.86,96.102 C694.255,106.045 694.271,122.159 683.894,132.121 C673.518,142.083 656.666,142.133 646.224,132.234 C635.782,122.334 635.692,106.221 646.023,96.215 C647.316,94.962 647.302,92.944 645.992,91.708 C644.682,90.471 642.572,90.484 641.278,91.737 C628.365,104.244 628.478,124.386 641.53,136.76 C654.582,149.135 675.647,149.072 688.618,136.619 C701.589,124.167 701.569,104.025 688.575,91.595 C687.273,90.35 685.163,90.35 683.861,91.594 C682.559,92.839 682.558,94.857 683.86,96.102 Z" />
        </g>
    </g>
</svg>