<?xml version="1.0" encoding="UTF-8"?>
<svg height="600" width="800" xmlns="http://www.w3.org/2000/svg" xmlns:xlink="http://www.w3.org/1999/xlink">
    <g id="Notes" font-family="LucidaGrande, 'Lucida Grande', sans-serif" font-size="13">
        <rect fill="white" height="600.0" width="800.0" x="0.0" y="0.0" />
        <g font-size="13">
            <text x="18.0" y="176.0">Small</text>
            <text x="18.0" y="376.0">Medium</text>
            <text x="18.0" y="576.0">Large</text>
        </g>
        <g font-size="9">
            <text x="250.0" y="30.0">Ultralight</text>
            <text x="450.0" y="30.0">Regular</text>
            <text x="650.0" y="30.0">Black</text>
            <text id="template-version" fill="#505050" text-anchor="end" x="785.0" y="575.0">Template v.3.0</text>
            <a href="https://github.com/swhitty/SwiftDraw">
                <text fill="#505050" text-anchor="end" x="785.0" y="590.0">https://github.com/swhitty/SwiftDraw</text>
            </a>
        </g>
    </g>
    <g id="Guides" stroke="rgb(39, 170, 225)" stroke-width="0.5">
        <path id="Capline-S" d="M18,76 l800,0" />
        <path id="H-reference" d="M85,145.755 L87.685,145.755 L113.369,79.287 L114.052,79.287 L114.052,76 L112.148,76 L85,145.755 Z M95.693,121.536 L130.996,121.536 L130.263,119.313 L96.474,119.313 L95.693,121.536 Z M139.15,145.755 L141.787,145.755 L114.638,76 L113.466,76 L113.466,79.287 L139.15,145.755 Z" stroke="none" transform="translate(0,200)" />
        <path id="Baseline-S" d="M18,146 l800,0" />
        <path id="left-margin-Ultralight-M" d="M222.222,256 l0,110" />
        <path id="right-margin-Ultralight-M" d="M307.778,256 l0,110" />
        <path id="left-margin-Regular-M" d="M422.222,256 l0,110" />
        <path id="right-margin-Regular-M" d="M507.778,256 l0,110" />
        <path id="left-margin-Black-M" d="M622.222,256 l0,110" />
        <path id="right-margin-Black-M" d="M707.778,256 l0,110" />
        <path id="Capline-M" d="M18,276 l800,0" />
        <path id="Baseline-M" d="M18,346 l800,0" />
        <path id="Capline-L" d="M18,476 l800,0" />
        <path id="Baseline-L" d="M18,546 l800,0" />
    </g>
    <g id="Symbols">
        <g id="Ultralight-M" transform="translate(0,200)">
            <path d="M300,91.556 L300,95.444 C300,96.476 299.59,97.465 298.861,98.194 C298.132,98.924 297.143,99.333 296.111,99.333 L233.889,99.333 C232.857,99.333 231.868,98.924 231.139,98.194 C230.41,97.465 230,96.476 230,95.444 L230,87.667 C230,86.635 230.41,85.646 231.139,84.917 C231.868,84.188 232.857,83.778 233.889,83.778 L296.111,83.778 C297.143,83.778 298.132,84.188 298.861,84.917 C299.59,85.646 300,86.635 300,87.667 L300,91.556 Z M307.778,91.556 L307.778,87.667 C307.778,84.572 306.549,81.605 304.361,79.417 C302.173,77.229 299.205,76 296.111,76 L233.889,76 C230.795,76 227.827,77.229 225.639,79.417 C223.451,81.605 222.222,84.572 222.222,87.667 L222.222,95.444 C222.222,98.539 223.451,101.506 225.639,103.694 C227.827,105.882 230.795,107.111 233.889,107.111 L296.111,107.111 C299.205,107.111 302.173,105.882 304.361,103.694 C306.549,101.506 307.778,98.539 307.778,95.444 L307.778,91.556 Z" />
            <path d="M300,130.444 L300,134.333 C300,135.365 299.59,136.354 298.861,137.083 C298.132,137.812 297.143,138.222 296.111,138.222 L233.889,138.222 C232.857,138.222 231.868,137.812 231.139,137.083 C230.41,136.354 230,135.365 230,134.333 L230,126.556 C230,125.524 230.41,124.535 231.139,123.806 C231.868,123.076 232.857,122.667 233.889,122.667 L296.111,122.667 C297.143,122.667 298.132,123.076 298.861,123.806 C299.59,124.535 300,125.524 300,126.556 L300,130.444 Z M307.778,130.444 L307.778,126.556 C307.778,123.461 306.549,120.494 304.361,118.306 C302.173,116.118 299.205,114.889 296.111,114.889 L233.889,114.889 C230.795,114.889 227.827,116.118 225.639,118.306 C223.451,120.494 222.222,123.461 222.222,126.556 L222.222,134.333 C222.222,137.428 223.451,140.395 225.639,142.583 C227.827,144.771 230.795,146 233.889,146 L296.111,146 C299.205,146 302.173,144.771 304.361,142.583 C306.549,140.395 307.778,137.428 307.778,134.333 L307.778,130.444 Z" />
        </g>
        <g id="Regular-M" transform="translate(0,200)">
            <path d="M500,91.556 L500,95.444 C500,96.476 499.59,97.465 498.861,98.194 C498.132,98.924 497.143,99.333 496.111,99.333 L433.889,99.333 C432.857,99.333 431.868,98.924 431.139,98.194 C430.41,97.465 430,96.476 430,95.444 L430,87.667 C430,86.635 430.41,85.646 431.139,84.917 C431.868,84.188 432.857,83.778 433.889,83.778 L496.111,83.778 C497.143,83.778 498.132,84.188 498.861,84.917 C499.59,85.646 500,86.635 500,87.667 L500,91.556 Z M507.778,91.556 L507.778,87.667 C507.778,84.572 506.549,81.605 504.361,79.417 C502.173,77.229 499.205,76 496.111,76 L433.889,76 C430.795,76 427.827,77.229 425.639,79.417 C423.451,81.605 422.222,84.572 422.222,87.667 L422.222,95.444 C422.222,98.539 423.451,101.506 425.639,103.694 C427.827,105.882 430.795,107.111 433.889,107.111 L496.111,107.111 C499.205,107.111 502.173,105.882 504.361,103.694 C506.549,101.506 507.778,98.539 507.778,95.444 L507.778,91.556 Z" />
            <path d="M500,130.444 L500,134.333 C500,135.365 499.59,136.354 498.861,137.083 C498.132,137.812 497.143,138.222 496.111,138.222 L433.889,138.222 C432.858,138.222 431.868,137.812 431.139,137.083 C430.41,136.354 430,135.365 430,134.333 L430,126.556 C430,125.524 430.41,124.535 431.139,123.806 C431.868,123.076 432.857,122.667 433.889,122.667 L496.111,122.667 C497.143,122.667 498.132,123.076 498.861,123.806 C499.59,124.535 500,125.524 500,126.556 L500,130.444 Z M507.778,130.444 L507.778,126.556 C507.778,123.461 506.549,120.494 504.361,118.306 C502.173,116.118 499.205,114.889 496.111,114.889 L433.889,114.889 C430.795,114.889 427.827,116.118 425.639,118.306 C423.451,120.494 422.222,123.461 422.222,126.556 L422.222,134.333 C422.222,137.428 423.451,140.395 425.639,142.583 C427.827,144.771 430.795,146 433.889,146 L496.111,146 C499.205,146 502.173,144.771 504.361,142.583 C506.549,140.395 507.778,137.428 507.778,134.333 L507.778,130.444 Z" />
        </g>
        <g id="Black-M" transform="translate(0,200)">
            <path d="M700,91.556 L700,95.444 C700,96.476 699.59,97.465 698.861,98.194 C698.132,98.924 697.143,99.333 696.111,99.333 L633.889,99.333 C632.857,99.333 631.868,98.924 631.139,98.194 C630.41,97.465 630,96.476 630,95.444 L630,87.667 C630,86.635 630.41,85.646 631.139,84.917 C631.868,84.188 632.857,83.778 633.889,83.778 L696.111,83.778 C697.143,83.778 698.132,84.188 698.861,84.917 C699.59,85.646 700,86.635 700,87.667 L700,91.556 Z M707.778,91.556 L707.778,87.667 C707.778,84.572 706.549,81.605 704.361,79.417 C702.173,77.229 699.205,76 696.111,76 L633.889,76 C630.795,76 627.827,77.229 625.639,79.417 C623.451,81.605 622.222,84.572 622.222,87.667 L622.222,95.444 C622.222,98.539 623.451,101.506 625.639,103.694 C627.827,105.882 630.795,107.111 633.889,107.111 L696.111,107.111 C699.205,107.111 702.173,105.882 704.361,103.694 C706.549,101.506 707.778,98.539 707.778,95.444 L707.778,91.556 Z" />
            <path d="M700,130.444 L700,134.333 C700,135.365 699.59,136.354 698.861,137.083 C698.132,137.812 697.143,138.222 696.111,138.222 L633.889,138.222 C632.857,138.222 631.868,137.812 631.139,137.083 C630.41,136.354 630,135.365 630,134.333 L630,126.556 C630,125.524 630.41,124.535 631.139,123.806 C631.868,123.076 632.857,122.667 633.889,122.667 L696.111,122.667 C697.143,122.667 698.132,123.076 698.861,123.806 C699.59,124.535 700,125.524 700,126.556 L700,130.444 Z M707.778,130.444 L707.778,126.556 C707.778,123.461 706.549,120.494 704.361,118.306 C702.173,116.118 699.205,114.889 696.111,114.889 L633.889,114.889 C630.795,114.889 627.827,116.118 625.639,118.306 C623.451,120.494 622.222,123.461 622.222,126.556 L622.222,134.333 C622.222,137.428 623.451,140.395 625.639,142.583 C627.827,144.771 630.795,146 633.889,146 L696.111,146 C699.205,146 702.173,144.771 704.361,142.583 C706.549,140.395 707.778,137.428 707.778,134.333 L707.778,130.444 Z" />
        </g>
    </g>
</svg>