<?xml version="1.0" encoding="UTF-8"?>
<svg height="600" width="800" xmlns="http://www.w3.org/2000/svg" xmlns:xlink="http://www.w3.org/1999/xlink">
    <g id="Notes" font-family="LucidaGrande, 'Lucida Grande', sans-serif" font-size="13">
        <rect fill="white" height="600.0" width="800.0" x="0.0" y="0.0" />
        <g font-size="13">
            <text x="18.0" y="176.0">Small</text>
            <text x="18.0" y="376.0">Medium</text>
            <text x="18.0" y="576.0">Large</text>
        </g>
        <g font-size="9">
            <text x="250.0" y="30.0">Ultralight</text>
            <text x="450.0" y="30.0">Regular</text>
            <text x="650.0" y="30.0">Black</text>
            <text id="template-version" fill="#505050" text-anchor="end" x="785.0" y="575.0">Template v.3.0</text>
            <a href="https://github.com/swhitty/SwiftDraw">
                <text fill="#505050" text-anchor="end" x="785.0" y="590.0">https://github.com/swhitty/SwiftDraw</text>
            </a>
        </g>
    </g>
    <g id="Guides" stroke="rgb(39, 170, 225)" stroke-width="0.5">
        <path id="Capline-S" d="M18,76 l800,0" />
        <path id="H-reference" d="M85,145.755 L87.685,145.755 L113.369,79.287 L114.052,79.287 L114.052,76 L112.148,76 L85,145.755 Z M95.693,121.536 L130.996,121.536 L130.263,119.313 L96.474,119.313 L95.693,121.536 Z M139.15,145.755 L141.787,145.755 L114.638,76 L113.466,76 L113.466,79.287 L139.15,145.755 Z" stroke="none" transform="translate(0,200)" />
        <path id="Baseline-S" d="M18,146 l800,0" />
        <path id="left-margin-Ultralight-M" d="M230,256 l0,110" />
        <path id="right-margin-Ultralight-M" d="M300,256 l0,110" />
        <path id="left-margin-Regular-M" d="M430,256 l0,110" />
        <path id="right-margin-Regular-M" d="M500,256 l0,110" />
        <path id="left-margin-Black-M" d="M630,256 l0,110" />
        <path id="right-margin-Black-M" d="M700,256 l0,110" />
        <path id="Capline-M" d="M18,276 l800,0" />
        <path id="Baseline-M" d="M18,346 l800,0" />
        <path id="Capline-L" d="M18,476 l800,0" />
        <path id="Baseline-L" d="M18,546 l800,0" />
    </g>
    <g id="Symbols">
        <g id="Ultralight-M" transform="translate(0,200)">
            <path d="M235.432,129.159 L283.159,81.432 C284.402,80.189 284.402,78.175 283.159,76.932 C281.916,75.689 279.902,75.689 278.659,76.932 L230.932,124.659 C229.689,125.902 229.689,127.916 230.932,129.159 C232.175,130.402 234.189,130.402 235.432,129.159 Z" />
            <path d="M230.932,119.614 L256.386,145.068 C257.629,146.311 259.644,146.311 260.886,145.068 C262.129,143.825 262.129,141.811 260.886,140.568 L235.432,115.114 C234.189,113.871 232.175,113.871 230.932,115.114 C229.689,116.356 229.689,118.371 230.932,119.614 Z" />
            <path d="M240.477,110.068 L265.932,135.523 C267.174,136.765 269.189,136.765 270.432,135.523 C271.674,134.28 271.674,132.265 270.432,131.023 L244.977,105.568 C243.735,104.326 241.72,104.326 240.477,105.568 C239.235,106.811 239.235,108.825 240.477,110.068 Z" />
            <path d="M250.023,100.523 L275.477,125.977 C276.72,127.22 278.735,127.22 279.977,125.977 C281.22,124.735 281.22,122.72 279.977,121.477 L254.523,96.023 C253.28,94.78 251.265,94.78 250.023,96.023 C248.78,97.265 248.78,99.28 250.023,100.523 Z" />
            <path d="M259.568,90.977 L285.023,116.432 C286.265,117.674 288.28,117.674 289.523,116.432 C290.765,115.189 290.765,113.175 289.523,111.932 L264.068,86.477 C262.826,85.235 260.811,85.235 259.568,86.477 C258.326,87.72 258.326,89.735 259.568,90.977 Z" />
            <path d="M269.114,81.432 L294.568,106.886 C295.811,108.129 297.826,108.129 299.068,106.886 C300.311,105.644 300.311,103.629 299.068,102.386 L273.614,76.932 C272.371,75.689 270.356,75.689 269.114,76.932 C267.871,78.175 267.871,80.189 269.114,81.432 Z" />
            <path d="M251.341,145.068 L299.068,97.341 C300.311,96.098 300.311,94.084 299.068,92.841 C297.826,91.598 295.811,91.598 294.568,92.841 L246.841,140.568 C245.598,141.811 245.598,143.825 246.841,145.068 C248.084,146.311 250.098,146.311 251.341,145.068 Z" />
        </g>
        <g id="Regular-M" transform="translate(0,200)">
            <path d="M435.432,129.159 L483.159,81.432 C484.402,80.189 484.402,78.175 483.159,76.932 C481.916,75.689 479.902,75.689 478.659,76.932 L430.932,124.659 C429.689,125.902 429.689,127.916 430.932,129.159 C432.174,130.402 434.189,130.402 435.432,129.159 Z" />
            <path d="M430.932,119.614 L456.386,145.068 C457.629,146.311 459.644,146.311 460.886,145.068 C462.129,143.825 462.129,141.811 460.886,140.568 L435.432,115.114 C434.189,113.871 432.174,113.871 430.932,115.114 C429.689,116.356 429.689,118.371 430.932,119.614 Z" />
            <path d="M440.477,110.068 L465.932,135.523 C467.174,136.765 469.189,136.765 470.432,135.523 C471.674,134.28 471.674,132.265 470.432,131.023 L444.977,105.568 C443.735,104.326 441.72,104.326 440.477,105.568 C439.235,106.811 439.235,108.825 440.477,110.068 Z" />
            <path d="M450.023,100.523 L475.477,125.977 C476.72,127.22 478.735,127.22 479.977,125.977 C481.22,124.735 481.22,122.72 479.977,121.477 L454.523,96.023 C453.28,94.78 451.265,94.78 450.023,96.023 C448.78,97.265 448.78,99.28 450.023,100.523 Z" />
            <path d="M459.568,90.977 L485.023,116.432 C486.265,117.674 488.28,117.674 489.523,116.432 C490.765,115.189 490.765,113.175 489.523,111.932 L464.068,86.477 C462.826,85.235 460.811,85.235 459.568,86.477 C458.326,87.72 458.326,89.735 459.568,90.977 Z" />
            <path d="M469.114,81.432 L494.568,106.886 C495.811,108.129 497.826,108.129 499.068,106.886 C500.311,105.644 500.311,103.629 499.068,102.386 L473.614,76.932 C472.371,75.689 470.356,75.689 469.114,76.932 C467.871,78.175 467.871,80.189 469.114,81.432 Z" />
            <path d="M451.341,145.068 L499.068,97.341 C500.311,96.098 500.311,94.084 499.068,92.841 C497.826,91.598 495.811,91.598 494.568,92.841 L446.841,140.568 C445.598,141.811 445.598,143.825 446.841,145.068 C448.084,146.311 450.098,146.311 451.341,145.068 Z" />
        </g>
        <g id="Black-M" transform="translate(0,200)">
            <path d="M635.432,129.159 L683.159,81.432 C684.402,80.189 684.402,78.175 683.159,76.932 C681.916,75.689 679.902,75.689 678.659,76.932 L630.932,124.659 C629.689,125.902 629.689,127.916 630.932,129.159 C632.174,130.402 634.189,130.402 635.432,129.159 Z" />
            <path d="M630.932,119.614 L656.386,145.068 C657.629,146.311 659.644,146.311 660.886,145.068 C662.129,143.825 662.129,141.811 660.886,140.568 L635.432,115.114 C634.189,113.871 632.174,113.871 630.932,115.114 C629.689,116.356 629.689,118.371 630.932,119.614 Z" />
            <path d="M640.477,110.068 L665.932,135.523 C667.174,136.765 669.189,136.765 670.432,135.523 C671.674,134.28 671.674,132.265 670.432,131.023 L644.977,105.568 C643.735,104.326 641.72,104.326 640.477,105.568 C639.235,106.811 639.235,108.825 640.477,110.068 Z" />
            <path d="M650.023,100.523 L675.477,125.977 C676.72,127.22 678.735,127.22 679.977,125.977 C681.22,124.735 681.22,122.72 679.977,121.477 L654.523,96.023 C653.28,94.78 651.265,94.78 650.023,96.023 C648.78,97.265 648.78,99.28 650.023,100.523 Z" />
            <path d="M659.568,90.977 L685.023,116.432 C686.265,117.674 688.28,117.674 689.523,116.432 C690.765,115.189 690.765,113.175 689.523,111.932 L664.068,86.477 C662.826,85.235 660.811,85.235 659.568,86.477 C658.326,87.72 658.326,89.735 659.568,90.977 Z" />
            <path d="M669.114,81.432 L694.568,106.886 C695.811,108.129 697.826,108.129 699.068,106.886 C700.311,105.644 700.311,103.629 699.068,102.386 L673.614,76.932 C672.371,75.689 670.356,75.689 669.114,76.932 C667.871,78.175 667.871,80.189 669.114,81.432 Z" />
            <path d="M651.341,145.068 L699.068,97.341 C700.311,96.098 700.311,94.084 699.068,92.841 C697.826,91.598 695.811,91.598 694.568,92.841 L646.841,140.568 C645.598,141.811 645.598,143.825 646.841,145.068 C648.084,146.311 650.098,146.311 651.341,145.068 Z" />
        </g>
    </g>
</svg>