<?xml version="1.0" encoding="UTF-8"?>
<svg height="600" width="800" xmlns="http://www.w3.org/2000/svg" xmlns:xlink="http://www.w3.org/1999/xlink">
    <g id="Notes" font-family="LucidaGrande, 'Lucida Grande', sans-serif" font-size="13">
        <rect fill="white" height="600.0" width="800.0" x="0.0" y="0.0" />
        <g font-size="13">
            <text x="18.0" y="176.0">Small</text>
            <text x="18.0" y="376.0">Medium</text>
            <text x="18.0" y="576.0">Large</text>
        </g>
        <g font-size="9">
            <text x="250.0" y="30.0">Ultralight</text>
            <text x="450.0" y="30.0">Regular</text>
            <text x="650.0" y="30.0">Black</text>
            <text id="template-version" fill="#505050" text-anchor="end" x="785.0" y="575.0">Template v.3.0</text>
            <a href="https://github.com/swhitty/SwiftDraw">
                <text fill="#505050" text-anchor="end" x="785.0" y="590.0">https://github.com/swhitty/SwiftDraw</text>
            </a>
        </g>
    </g>
    <g id="Guides" stroke="rgb(39, 170, 225)" stroke-width="0.5">
        <path id="Capline-S" d="M18,76 l800,0" />
        <path id="H-reference" d="M85,145.755 L87.685,145.755 L113.369,79.287 L114.052,79.287 L114.052,76 L112.148,76 L85,145.755 Z M95.693,121.536 L130.996,121.536 L130.263,119.313 L96.474,119.313 L95.693,121.536 Z M139.15,145.755 L141.787,145.755 L114.638,76 L113.466,76 L113.466,79.287 L139.15,145.755 Z" stroke="none" transform="translate(0,200)" />
        <path id="Baseline-S" d="M18,146 l800,0" />
        <path id="left-margin-Ultralight-M" d="M221,256 l0,110" />
        <path id="right-margin-Ultralight-M" d="M309,256 l0,110" />
        <path id="left-margin-Regular-M" d="M421,256 l0,110" />
        <path id="right-margin-Regular-M" d="M509,256 l0,110" />
        <path id="left-margin-Black-M" d="M621,256 l0,110" />
        <path id="right-margin-Black-M" d="M709,256 l0,110" />
        <path id="Capline-M" d="M18,276 l800,0" />
        <path id="Baseline-M" d="M18,346 l800,0" />
        <path id="Capline-L" d="M18,476 l800,0" />
        <path id="Baseline-L" d="M18,546 l800,0" />
    </g>
    <g id="Symbols">
        <g id="Ultralight-M" transform="translate(0,200)">
            <path d="M265,145.222 L265.098,145.222 C270.498,145.222 274.876,140.845 274.876,135.445 C274.876,130.045 270.498,125.667 265.098,125.667 L265,125.667 C259.6,125.667 255.222,130.045 255.222,135.445 C255.222,140.845 259.6,145.222 265,145.222 Z" />
            <path d="M237.622,107.512 C252.83,92.606 277.17,92.606 292.378,107.512 C296.234,111.292 302.425,111.23 306.205,107.374 C309.985,103.518 309.923,97.327 306.067,93.547 C283.255,71.188 246.745,71.188 223.933,93.547 C220.077,97.327 220.015,103.518 223.795,107.374 C227.575,111.23 233.766,111.292 237.622,107.512 Z" />
        </g>
        <g id="Regular-M" transform="translate(0,200)">
            <path d="M465,145.222 L465.098,145.222 C470.498,145.222 474.876,140.845 474.876,135.445 C474.876,130.045 470.498,125.667 465.098,125.667 L465,125.667 C459.6,125.667 455.222,130.045 455.222,135.445 C455.222,140.845 459.6,145.222 465,145.222 Z" />
            <path d="M437.622,107.512 C452.83,92.606 477.17,92.606 492.378,107.512 C496.234,111.292 502.425,111.23 506.205,107.374 C509.985,103.518 509.923,97.327 506.067,93.547 C483.255,71.188 446.745,71.188 423.933,93.547 C420.077,97.327 420.015,103.518 423.795,107.374 C427.575,111.23 433.766,111.292 437.622,107.512 Z" />
        </g>
        <g id="Black-M" transform="translate(0,200)">
            <path d="M665,145.222 L665.098,145.222 C670.498,145.222 674.876,140.845 674.876,135.445 C674.876,130.045 670.498,125.667 665.098,125.667 L665,125.667 C659.6,125.667 655.222,130.045 655.222,135.445 C655.222,140.845 659.6,145.222 665,145.222 Z" />
            <path d="M637.622,107.512 C652.83,92.606 677.17,92.606 692.378,107.512 C696.234,111.292 702.425,111.23 706.205,107.374 C709.985,103.518 709.923,97.327 706.067,93.547 C683.255,71.188 646.745,71.188 623.933,93.547 C620.077,97.327 620.015,103.518 623.795,107.374 C627.575,111.23 633.766,111.292 637.622,107.512 Z" />
        </g>
    </g>
</svg>