<?xml version="1.0" encoding="UTF-8"?>
<svg height="600" width="800" xmlns="http://www.w3.org/2000/svg" xmlns:xlink="http://www.w3.org/1999/xlink">
    <g id="Notes" font-family="LucidaGrande, 'Lucida Grande', sans-serif" font-size="13">
        <rect fill="white" height="600.0" width="800.0" x="0.0" y="0.0" />
        <g font-size="13">
            <text x="18.0" y="176.0">Small</text>
            <text x="18.0" y="376.0">Medium</text>
            <text x="18.0" y="576.0">Large</text>
        </g>
        <g font-size="9">
            <text x="250.0" y="30.0">Ultralight</text>
            <text x="450.0" y="30.0">Regular</text>
            <text x="650.0" y="30.0">Black</text>
            <text id="template-version" fill="#505050" text-anchor="end" x="785.0" y="575.0">Template v.3.0</text>
            <a href="https://github.com/swhitty/SwiftDraw">
                <text fill="#505050" text-anchor="end" x="785.0" y="590.0">https://github.com/swhitty/SwiftDraw</text>
            </a>
        </g>
    </g>
    <g id="Guides" stroke="rgb(39, 170, 225)" stroke-width="0.5">
        <path id="Capline-S" d="M18,76 l800,0" />
        <path id="H-reference" d="M85,145.755 L87.685,145.755 L113.369,79.287 L114.052,79.287 L114.052,76 L112.148,76 L85,145.755 Z M95.693,121.536 L130.996,121.536 L130.263,119.313 L96.474,119.313 L95.693,121.536 Z M139.15,145.755 L141.787,145.755 L114.638,76 L113.466,76 L113.466,79.287 L139.15,145.755 Z" stroke="none" transform="translate(0,200)" />
        <path id="Baseline-S" d="M18,146 l800,0" />
        <path id="left-margin-Ultralight-M" d="M221.25,256 l0,110" />
        <path id="right-margin-Ultralight-M" d="M308.75,256 l0,110" />
        <path id="left-margin-Regular-M" d="M421.25,256 l0,110" />
        <path id="right-margin-Regular-M" d="M508.75,256 l0,110" />
        <path id="left-margin-Black-M" d="M621.25,256 l0,110" />
        <path id="right-margin-Black-M" d="M708.75,256 l0,110" />
        <path id="Capline-M" d="M18,276 l800,0" />
        <path id="Baseline-M" d="M18,346 l800,0" />
        <path id="Capline-L" d="M18,476 l800,0" />
        <path id="Baseline-L" d="M18,546 l800,0" />
    </g>
    <g id="Symbols">
        <g id="Ultralight-M" transform="translate(0,200)">
            <path d="M304.375,76 L225.625,76 C223.209,76 221.25,77.959 221.25,80.375 C221.25,82.791 223.209,84.75 225.625,84.75 L304.375,84.75 C306.791,84.75 308.75,82.791 308.75,80.375 C308.75,77.959 306.791,76 304.375,76 Z" />
            <path d="M304.375,106.625 L251.875,106.625 C249.459,106.625 247.5,108.584 247.5,111 C247.5,113.416 249.459,115.375 251.875,115.375 L304.375,115.375 C306.791,115.375 308.75,113.416 308.75,111 C308.75,108.584 306.791,106.625 304.375,106.625 Z" />
            <path d="M304.375,137.25 L243.125,137.25 C240.709,137.25 238.75,139.209 238.75,141.625 C238.75,144.041 240.709,146 243.125,146 L304.375,146 C306.791,146 308.75,144.041 308.75,141.625 C308.75,139.209 306.791,137.25 304.375,137.25 Z" />
        </g>
        <g id="Regular-M" transform="translate(0,200)">
            <path d="M504.375,76 L425.625,76 C423.209,76 421.25,77.959 421.25,80.375 C421.25,82.791 423.209,84.75 425.625,84.75 L504.375,84.75 C506.791,84.75 508.75,82.791 508.75,80.375 C508.75,77.959 506.791,76 504.375,76 Z" />
            <path d="M504.375,106.625 L451.875,106.625 C449.459,106.625 447.5,108.584 447.5,111 C447.5,113.416 449.459,115.375 451.875,115.375 L504.375,115.375 C506.791,115.375 508.75,113.416 508.75,111 C508.75,108.584 506.791,106.625 504.375,106.625 Z" />
            <path d="M504.375,137.25 L443.125,137.25 C440.709,137.25 438.75,139.209 438.75,141.625 C438.75,144.041 440.709,146 443.125,146 L504.375,146 C506.791,146 508.75,144.041 508.75,141.625 C508.75,139.209 506.791,137.25 504.375,137.25 Z" />
        </g>
        <g id="Black-M" transform="translate(0,200)">
            <path d="M704.375,76 L625.625,76 C623.209,76 621.25,77.959 621.25,80.375 C621.25,82.791 623.209,84.75 625.625,84.75 L704.375,84.75 C706.791,84.75 708.75,82.791 708.75,80.375 C708.75,77.959 706.791,76 704.375,76 Z" />
            <path d="M704.375,106.625 L651.875,106.625 C649.459,106.625 647.5,108.584 647.5,111 C647.5,113.416 649.459,115.375 651.875,115.375 L704.375,115.375 C706.791,115.375 708.75,113.416 708.75,111 C708.75,108.584 706.791,106.625 704.375,106.625 Z" />
            <path d="M704.375,137.25 L643.125,137.25 C640.709,137.25 638.75,139.209 638.75,141.625 C638.75,144.041 640.709,146 643.125,146 L704.375,146 C706.791,146 708.75,144.041 708.75,141.625 C708.75,139.209 706.791,137.25 704.375,137.25 Z" />
        </g>
    </g>
</svg>