<?xml version="1.0" encoding="UTF-8"?>
<svg height="600" width="800" xmlns="http://www.w3.org/2000/svg" xmlns:xlink="http://www.w3.org/1999/xlink">
    <g id="Notes" font-family="LucidaGrande, 'Lucida Grande', sans-serif" font-size="13">
        <rect fill="white" height="600.0" width="800.0" x="0.0" y="0.0" />
        <g font-size="13">
            <text x="18.0" y="176.0">Small</text>
            <text x="18.0" y="376.0">Medium</text>
            <text x="18.0" y="576.0">Large</text>
        </g>
        <g font-size="9">
            <text x="250.0" y="30.0">Ultralight</text>
            <text x="450.0" y="30.0">Regular</text>
            <text x="650.0" y="30.0">Black</text>
            <text id="template-version" fill="#505050" text-anchor="end" x="785.0" y="575.0">Template v.3.0</text>
            <a href="https://github.com/swhitty/SwiftDraw">
                <text fill="#505050" text-anchor="end" x="785.0" y="590.0">https://github.com/swhitty/SwiftDraw</text>
            </a>
        </g>
    </g>
    <g id="Guides" stroke="rgb(39, 170, 225)" stroke-width="0.5">
        <path id="Capline-S" d="M18,76 l800,0" />
        <path id="H-reference" d="M85,145.755 L87.685,145.755 L113.369,79.287 L114.052,79.287 L114.052,76 L112.148,76 L85,145.755 Z M95.693,121.536 L130.996,121.536 L130.263,119.313 L96.474,119.313 L95.693,121.536 Z M139.15,145.755 L141.787,145.755 L114.638,76 L113.466,76 L113.466,79.287 L139.15,145.755 Z" stroke="none" transform="translate(0,200)" />
        <path id="Baseline-S" d="M18,146 l800,0" />
        <path id="left-margin-Ultralight-M" d="M234.773,256 l0,110" />
        <path id="right-margin-Ultralight-M" d="M295.227,256 l0,110" />
        <path id="left-margin-Regular-M" d="M434.773,256 l0,110" />
        <path id="right-margin-Regular-M" d="M495.227,256 l0,110" />
        <path id="left-margin-Black-M" d="M634.773,256 l0,110" />
        <path id="right-margin-Black-M" d="M695.227,256 l0,110" />
        <path id="Capline-M" d="M18,276 l800,0" />
        <path id="Baseline-M" d="M18,346 l800,0" />
        <path id="Capline-L" d="M18,476 l800,0" />
        <path id="Baseline-L" d="M18,546 l800,0" />
    </g>
    <g id="Symbols">
        <g id="Ultralight-M" transform="translate(0,200)">
            <path d="M272.955,85.545 L272.955,88.727 C272.955,88.727 272.955,88.727 272.955,88.727 C272.955,88.727 272.955,88.727 272.955,88.727 L253.864,88.727 C253.864,88.727 253.864,88.727 253.864,88.727 C253.864,88.727 253.864,88.727 253.864,88.727 L253.864,82.364 C253.864,82.364 253.864,82.364 253.864,82.364 C253.864,82.364 253.864,82.364 253.864,82.364 L272.955,82.364 C272.955,82.364 272.955,82.364 272.955,82.364 C272.955,82.364 272.955,82.364 272.955,82.364 L272.955,85.545 Z M279.318,85.545 L279.318,82.364 C279.318,80.676 278.648,79.057 277.454,77.864 C276.261,76.67 274.642,76 272.955,76 L253.864,76 C252.176,76 250.557,76.67 249.364,77.864 C248.17,79.057 247.5,80.676 247.5,82.364 L247.5,88.727 C247.5,90.415 248.17,92.034 249.364,93.227 C250.557,94.42 252.176,95.091 253.864,95.091 L272.955,95.091 C274.642,95.091 276.261,94.42 277.454,93.227 C278.648,92.034 279.318,90.415 279.318,88.727 L279.318,85.545 Z" />
            <path d="M250.682,82.364 L244.318,82.364 C241.787,82.364 239.359,83.369 237.569,85.159 C235.778,86.95 234.773,89.377 234.773,91.909 L234.773,136.455 C234.773,138.986 235.778,141.414 237.569,143.204 C239.359,144.994 241.787,146 244.318,146 L282.5,146 C285.032,146 287.46,144.994 289.25,143.204 C291.04,141.414 292.045,138.986 292.045,136.455 L292.045,130.091 C292.045,128.334 290.621,126.909 288.864,126.909 C287.106,126.909 285.682,128.334 285.682,130.091 L285.682,136.455 C285.682,137.298 285.347,138.108 284.75,138.704 C284.153,139.301 283.344,139.636 282.5,139.636 L244.318,139.636 C243.474,139.636 242.665,139.301 242.068,138.704 C241.472,138.108 241.136,137.298 241.136,136.455 L241.136,91.909 C241.136,91.065 241.472,90.256 242.068,89.659 C242.665,89.062 243.474,88.727 244.318,88.727 L250.682,88.727 C252.439,88.727 253.864,87.303 253.864,85.545 C253.864,83.788 252.439,82.364 250.682,82.364 Z" />
            <path d="M276.136,88.727 L282.5,88.727 C283.344,88.727 284.153,89.062 284.75,89.659 C285.347,90.256 285.682,91.065 285.682,91.909 L285.682,104.636 C285.682,106.394 287.106,107.818 288.864,107.818 C290.621,107.818 292.045,106.394 292.045,104.636 L292.045,91.909 C292.045,89.377 291.04,86.95 289.25,85.159 C287.46,83.369 285.032,82.364 282.5,82.364 L276.136,82.364 C274.379,82.364 272.955,83.788 272.955,85.545 C272.955,87.303 274.379,88.727 276.136,88.727 Z" />
            <path d="M292.045,114.182 L260.227,114.182 C258.47,114.182 257.045,115.606 257.045,117.364 C257.045,119.121 258.47,120.545 260.227,120.545 L292.045,120.545 C293.803,120.545 295.227,119.121 295.227,117.364 C295.227,115.606 293.803,114.182 292.045,114.182 Z" />
            <path d="M270.705,102.386 L257.977,115.114 C256.735,116.356 256.735,118.371 257.977,119.614 L270.705,132.341 C271.947,133.583 273.962,133.583 275.204,132.341 C276.447,131.098 276.447,129.084 275.204,127.841 L262.477,115.114 L262.477,119.614 L275.204,106.886 C276.447,105.644 276.447,103.629 275.204,102.386 C273.962,101.144 271.947,101.144 270.705,102.386 Z" />
        </g>
        <g id="Regular-M" transform="translate(0,200)">
            <path d="M472.955,85.545 L472.955,88.727 C472.955,88.727 472.955,88.727 472.955,88.727 C472.955,88.727 472.955,88.727 472.955,88.727 L453.864,88.727 C453.864,88.727 453.864,88.727 453.864,88.727 C453.864,88.727 453.864,88.727 453.864,88.727 L453.864,82.364 C453.864,82.364 453.864,82.364 453.864,82.364 C453.864,82.364 453.864,82.364 453.864,82.364 L472.955,82.364 C472.955,82.364 472.955,82.364 472.955,82.364 C472.955,82.364 472.955,82.364 472.955,82.364 L472.955,85.545 Z M479.318,85.545 L479.318,82.364 C479.318,80.676 478.648,79.057 477.454,77.864 C476.261,76.67 474.642,76 472.955,76 L453.864,76 C452.176,76 450.557,76.67 449.364,77.864 C448.17,79.057 447.5,80.676 447.5,82.364 L447.5,88.727 C447.5,90.415 448.17,92.034 449.364,93.227 C450.557,94.42 452.176,95.091 453.864,95.091 L472.955,95.091 C474.642,95.091 476.261,94.42 477.454,93.227 C478.648,92.034 479.318,90.415 479.318,88.727 L479.318,85.545 Z" />
            <path d="M450.682,82.364 L444.318,82.364 C441.787,82.364 439.359,83.369 437.569,85.159 C435.778,86.95 434.773,89.377 434.773,91.909 L434.773,136.455 C434.773,138.986 435.778,141.414 437.569,143.204 C439.359,144.994 441.787,146 444.318,146 L482.5,146 C485.032,146 487.46,144.994 489.25,143.204 C491.04,141.414 492.045,138.986 492.045,136.455 L492.045,130.091 C492.045,128.334 490.621,126.909 488.864,126.909 C487.106,126.909 485.682,128.334 485.682,130.091 L485.682,136.455 C485.682,137.298 485.347,138.108 484.75,138.704 C484.153,139.301 483.344,139.636 482.5,139.636 L444.318,139.636 C443.474,139.636 442.665,139.301 442.068,138.704 C441.472,138.108 441.136,137.298 441.136,136.455 L441.136,91.909 C441.136,91.065 441.472,90.256 442.068,89.659 C442.665,89.062 443.474,88.727 444.318,88.727 L450.682,88.727 C452.439,88.727 453.864,87.303 453.864,85.545 C453.864,83.788 452.439,82.364 450.682,82.364 Z" />
            <path d="M476.136,88.727 L482.5,88.727 C483.344,88.727 484.153,89.062 484.75,89.659 C485.347,90.256 485.682,91.065 485.682,91.909 L485.682,104.636 C485.682,106.394 487.106,107.818 488.864,107.818 C490.621,107.818 492.045,106.394 492.045,104.636 L492.045,91.909 C492.045,89.377 491.04,86.95 489.25,85.159 C487.46,83.369 485.032,82.364 482.5,82.364 L476.136,82.364 C474.379,82.364 472.955,83.788 472.955,85.545 C472.955,87.303 474.379,88.727 476.136,88.727 Z" />
            <path d="M492.045,114.182 L460.227,114.182 C458.47,114.182 457.045,115.606 457.045,117.364 C457.045,119.121 458.47,120.545 460.227,120.545 L492.045,120.545 C493.803,120.545 495.227,119.121 495.227,117.364 C495.227,115.606 493.803,114.182 492.045,114.182 Z" />
            <path d="M470.705,102.386 L457.977,115.114 C456.735,116.356 456.735,118.371 457.977,119.614 L470.705,132.341 C471.947,133.583 473.962,133.583 475.204,132.341 C476.447,131.098 476.447,129.084 475.204,127.841 L462.477,115.114 L462.477,119.614 L475.204,106.886 C476.447,105.644 476.447,103.629 475.204,102.386 C473.962,101.144 471.947,101.144 470.705,102.386 Z" />
        </g>
        <g id="Black-M" transform="translate(0,200)">
            <path d="M672.955,85.545 L672.955,88.727 C672.955,88.727 672.955,88.727 672.955,88.727 C672.955,88.727 672.955,88.727 672.955,88.727 L653.864,88.727 C653.864,88.727 653.864,88.727 653.864,88.727 C653.864,88.727 653.864,88.727 653.864,88.727 L653.864,82.364 C653.864,82.364 653.864,82.364 653.864,82.364 C653.864,82.364 653.864,82.364 653.864,82.364 L672.955,82.364 C672.955,82.364 672.955,82.364 672.955,82.364 C672.955,82.364 672.955,82.364 672.955,82.364 L672.955,85.545 Z M679.318,85.545 L679.318,82.364 C679.318,80.676 678.648,79.057 677.454,77.864 C676.261,76.67 674.642,76 672.955,76 L653.864,76 C652.176,76 650.557,76.67 649.364,77.864 C648.17,79.057 647.5,80.676 647.5,82.364 L647.5,88.727 C647.5,90.415 648.17,92.034 649.364,93.227 C650.557,94.42 652.176,95.091 653.864,95.091 L672.955,95.091 C674.642,95.091 676.261,94.42 677.454,93.227 C678.648,92.034 679.318,90.415 679.318,88.727 L679.318,85.545 Z" />
            <path d="M650.682,82.364 L644.318,82.364 C641.787,82.364 639.359,83.369 637.568,85.159 C635.778,86.95 634.773,89.377 634.773,91.909 L634.773,136.455 C634.773,138.986 635.778,141.414 637.568,143.204 C639.359,144.994 641.787,146 644.318,146 L682.5,146 C685.032,146 687.46,144.994 689.25,143.204 C691.04,141.414 692.045,138.986 692.045,136.455 L692.045,130.091 C692.045,128.334 690.621,126.909 688.864,126.909 C687.106,126.909 685.682,128.334 685.682,130.091 L685.682,136.455 C685.682,137.298 685.347,138.108 684.75,138.704 C684.153,139.301 683.344,139.636 682.5,139.636 L644.318,139.636 C643.474,139.636 642.665,139.301 642.068,138.704 C641.472,138.108 641.136,137.298 641.136,136.455 L641.136,91.909 C641.136,91.065 641.472,90.256 642.068,89.659 C642.665,89.062 643.474,88.727 644.318,88.727 L650.682,88.727 C652.439,88.727 653.864,87.303 653.864,85.545 C653.864,83.788 652.439,82.364 650.682,82.364 Z" />
            <path d="M676.136,88.727 L682.5,88.727 C683.344,88.727 684.153,89.062 684.75,89.659 C685.347,90.256 685.682,91.065 685.682,91.909 L685.682,104.636 C685.682,106.394 687.106,107.818 688.864,107.818 C690.621,107.818 692.045,106.394 692.045,104.636 L692.045,91.909 C692.045,89.377 691.04,86.95 689.25,85.159 C687.46,83.369 685.032,82.364 682.5,82.364 L676.136,82.364 C674.379,82.364 672.955,83.788 672.955,85.545 C672.955,87.303 674.379,88.727 676.136,88.727 Z" />
            <path d="M692.045,114.182 L660.227,114.182 C658.47,114.182 657.045,115.606 657.045,117.364 C657.045,119.121 658.47,120.545 660.227,120.545 L692.045,120.545 C693.803,120.545 695.227,119.121 695.227,117.364 C695.227,115.606 693.803,114.182 692.045,114.182 Z" />
            <path d="M670.705,102.386 L657.977,115.114 C656.735,116.356 656.735,118.371 657.977,119.614 L670.705,132.341 C671.947,133.583 673.962,133.583 675.204,132.341 C676.447,131.098 676.447,129.084 675.204,127.841 L662.477,115.114 L662.477,119.614 L675.204,106.886 C676.447,105.644 676.447,103.629 675.204,102.386 C673.962,101.144 671.947,101.144 670.705,102.386 Z" />
        </g>
    </g>
</svg>