<?xml version="1.0" encoding="UTF-8"?>
<svg height="600" width="800" xmlns="http://www.w3.org/2000/svg" xmlns:xlink="http://www.w3.org/1999/xlink">
    <g id="Notes" font-family="LucidaGrande, 'Lucida Grande', sans-serif" font-size="13">
        <rect fill="white" height="600.0" width="800.0" x="0.0" y="0.0" />
        <g font-size="13">
            <text x="18.0" y="176.0">Small</text>
            <text x="18.0" y="376.0">Medium</text>
            <text x="18.0" y="576.0">Large</text>
        </g>
        <g font-size="9">
            <text x="250.0" y="30.0">Ultralight</text>
            <text x="450.0" y="30.0">Regular</text>
            <text x="650.0" y="30.0">Black</text>
            <text id="template-version" fill="#505050" text-anchor="end" x="785.0" y="575.0">Template v.3.0</text>
            <a href="https://github.com/swhitty/SwiftDraw">
                <text fill="#505050" text-anchor="end" x="785.0" y="590.0">https://github.com/swhitty/SwiftDraw</text>
            </a>
        </g>
    </g>
    <g id="Guides" stroke="rgb(39, 170, 225)" stroke-width="0.5">
        <path id="Capline-S" d="M18,76 l800,0" />
        <path id="H-reference" d="M85,145.755 L87.685,145.755 L113.369,79.287 L114.052,79.287 L114.052,76 L112.148,76 L85,145.755 Z M95.693,121.536 L130.996,121.536 L130.263,119.313 L96.474,119.313 L95.693,121.536 Z M139.15,145.755 L141.787,145.755 L114.638,76 L113.466,76 L113.466,79.287 L139.15,145.755 Z" stroke="none" transform="translate(0,200)" />
        <path id="Baseline-S" d="M18,146 l800,0" />
        <path id="left-margin-Ultralight-M" d="M230,256 l0,110" />
        <path id="right-margin-Ultralight-M" d="M300,256 l0,110" />
        <path id="left-margin-Regular-M" d="M430,256 l0,110" />
        <path id="right-margin-Regular-M" d="M500,256 l0,110" />
        <path id="left-margin-Black-M" d="M630,256 l0,110" />
        <path id="right-margin-Black-M" d="M700,256 l0,110" />
        <path id="Capline-M" d="M18,276 l800,0" />
        <path id="Baseline-M" d="M18,346 l800,0" />
        <path id="Capline-L" d="M18,476 l800,0" />
        <path id="Baseline-L" d="M18,546 l800,0" />
    </g>
    <g id="Symbols">
        <g id="Ultralight-M" transform="translate(0,200)">
            <path d="M255.456,111.002 C255.456,105.73 259.729,101.457 265.001,101.457 C270.273,101.457 274.546,105.73 274.546,111.002 C274.546,116.273 270.273,120.547 265.001,120.547 C259.729,120.547 255.456,116.273 255.456,111.002 Z M249.092,111.002 C249.092,119.787 256.215,126.91 265.001,126.91 C273.787,126.91 280.91,119.787 280.91,111.002 C280.91,102.216 273.787,95.093 265.001,95.093 C256.215,95.093 249.092,102.216 249.092,111.002 Z" />
            <path d="M274.546,98.275 L274.546,114.183 C274.546,121.212 280.244,126.91 287.273,126.91 C294.302,126.91 300,121.212 300,114.183 L300,111.002 C300,94.77 288.84,80.669 273.042,76.939 C257.244,73.21 240.956,80.832 233.697,95.35 C226.438,109.868 230.113,127.471 242.575,137.872 C255.037,148.272 273.015,148.739 286,139 C287.406,137.946 287.691,135.952 286.637,134.546 C285.582,133.14 283.588,132.855 282.182,133.91 C271.558,141.878 256.849,141.495 246.653,132.986 C236.456,124.477 233.449,110.074 239.388,98.196 C245.328,86.317 258.655,80.081 271.58,83.132 C284.505,86.184 293.637,97.721 293.637,111.002 L293.637,114.183 C293.637,117.698 290.788,120.547 287.273,120.547 C283.759,120.547 280.91,117.698 280.91,114.183 L280.91,98.275 C280.91,96.518 279.485,95.093 277.728,95.093 C275.971,95.093 274.546,96.518 274.546,98.275 Z" />
        </g>
        <g id="Regular-M" transform="translate(0,200)">
            <path d="M455.456,111.002 C455.456,105.73 459.729,101.457 465.001,101.457 C470.273,101.457 474.546,105.73 474.546,111.002 C474.546,116.273 470.273,120.547 465.001,120.547 C459.729,120.547 455.456,116.273 455.456,111.002 Z M449.092,111.002 C449.092,119.787 456.215,126.91 465.001,126.91 C473.787,126.91 480.91,119.787 480.91,111.002 C480.91,102.216 473.787,95.093 465.001,95.093 C456.215,95.093 449.092,102.216 449.092,111.002 Z" />
            <path d="M474.546,98.275 L474.546,114.183 C474.546,121.212 480.244,126.91 487.273,126.91 C494.302,126.91 500,121.212 500,114.183 L500,111.002 C500,94.77 488.84,80.669 473.042,76.939 C457.244,73.21 440.956,80.832 433.697,95.35 C426.438,109.868 430.113,127.471 442.575,137.872 C455.037,148.272 473.015,148.739 486,139 C487.406,137.946 487.691,135.952 486.637,134.546 C485.582,133.14 483.588,132.855 482.182,133.91 C471.558,141.878 456.849,141.495 446.653,132.986 C436.457,124.477 433.449,110.074 439.388,98.196 C445.328,86.317 458.655,80.081 471.58,83.132 C484.505,86.184 493.637,97.721 493.637,111.002 L493.637,114.183 C493.637,117.698 490.788,120.547 487.273,120.547 C483.759,120.547 480.91,117.698 480.91,114.183 L480.91,98.275 C480.91,96.518 479.485,95.093 477.728,95.093 C475.971,95.093 474.546,96.518 474.546,98.275 Z" />
        </g>
        <g id="Black-M" transform="translate(0,200)">
            <path d="M655.456,111.002 C655.456,105.73 659.729,101.457 665.001,101.457 C670.273,101.457 674.546,105.73 674.546,111.002 C674.546,116.273 670.273,120.547 665.001,120.547 C659.729,120.547 655.456,116.273 655.456,111.002 Z M649.092,111.002 C649.092,119.787 656.215,126.91 665.001,126.91 C673.787,126.91 680.91,119.787 680.91,111.002 C680.91,102.216 673.787,95.093 665.001,95.093 C656.215,95.093 649.092,102.216 649.092,111.002 Z" />
            <path d="M674.546,98.275 L674.546,114.183 C674.546,121.212 680.244,126.91 687.273,126.91 C694.302,126.91 700,121.212 700,114.183 L700,111.002 C700,94.77 688.84,80.669 673.042,76.939 C657.244,73.21 640.956,80.832 633.697,95.35 C626.438,109.868 630.113,127.471 642.575,137.872 C655.037,148.272 673.015,148.739 686,139 C687.406,137.946 687.691,135.952 686.637,134.546 C685.582,133.14 683.588,132.855 682.182,133.91 C671.558,141.878 656.849,141.495 646.653,132.986 C636.456,124.477 633.449,110.074 639.388,98.196 C645.328,86.317 658.655,80.081 671.58,83.132 C684.505,86.184 693.637,97.721 693.637,111.002 L693.637,114.183 C693.637,117.698 690.787,120.547 687.273,120.547 C683.759,120.547 680.91,117.698 680.91,114.183 L680.91,98.275 C680.91,96.518 679.485,95.093 677.728,95.093 C675.971,95.093 674.546,96.518 674.546,98.275 Z" />
        </g>
    </g>
</svg>