<?xml version="1.0" encoding="UTF-8"?>
<svg height="600" width="800" xmlns="http://www.w3.org/2000/svg" xmlns:xlink="http://www.w3.org/1999/xlink">
    <g id="Notes" font-family="LucidaGrande, 'Lucida Grande', sans-serif" font-size="13">
        <rect fill="white" height="600.0" width="800.0" x="0.0" y="0.0" />
        <g font-size="13">
            <text x="18.0" y="176.0">Small</text>
            <text x="18.0" y="376.0">Medium</text>
            <text x="18.0" y="576.0">Large</text>
        </g>
        <g font-size="9">
            <text x="250.0" y="30.0">Ultralight</text>
            <text x="450.0" y="30.0">Regular</text>
            <text x="650.0" y="30.0">Black</text>
            <text id="template-version" fill="#505050" text-anchor="end" x="785.0" y="575.0">Template v.3.0</text>
            <a href="https://github.com/swhitty/SwiftDraw">
                <text fill="#505050" text-anchor="end" x="785.0" y="590.0">https://github.com/swhitty/SwiftDraw</text>
            </a>
        </g>
    </g>
    <g id="Guides" stroke="rgb(39, 170, 225)" stroke-width="0.5">
        <path id="Capline-S" d="M18,76 l800,0" />
        <path id="H-reference" d="M85,145.755 L87.685,145.755 L113.369,79.287 L114.052,79.287 L114.052,76 L112.148,76 L85,145.755 Z M95.693,121.536 L130.996,121.536 L130.263,119.313 L96.474,119.313 L95.693,121.536 Z M139.15,145.755 L141.787,145.755 L114.638,76 L113.466,76 L113.466,79.287 L139.15,145.755 Z" stroke="none" transform="translate(0,200)" />
        <path id="Baseline-S" d="M18,146 l800,0" />
        <path id="left-margin-Ultralight-M" d="M231.591,256 l0,110" />
        <path id="right-margin-Ultralight-M" d="M298.409,256 l0,110" />
        <path id="left-margin-Regular-M" d="M431.591,256 l0,110" />
        <path id="right-margin-Regular-M" d="M498.409,256 l0,110" />
        <path id="left-margin-Black-M" d="M631.591,256 l0,110" />
        <path id="right-margin-Black-M" d="M698.409,256 l0,110" />
        <path id="Capline-M" d="M18,276 l800,0" />
        <path id="Baseline-M" d="M18,346 l800,0" />
        <path id="Capline-L" d="M18,476 l800,0" />
        <path id="Baseline-L" d="M18,546 l800,0" />
    </g>
    <g id="Symbols">
        <g id="Ultralight-M" transform="translate(0,200)">
            <path d="M292.031,80.809 L278.417,76.163 C276.404,75.477 274.325,77.01 274.325,79.182 C274.325,84.454 270.15,88.727 265,88.727 C259.85,88.727 255.675,84.454 255.675,79.182 C255.675,77.01 253.596,75.477 251.583,76.163 L237.969,80.809 C233.609,82.296 230.957,86.813 231.721,91.452 L233.523,102.488 C234.01,105.561 236.619,107.827 239.676,107.818 L246.35,107.818 L243.241,104.636 L243.241,136.455 C243.241,141.712 247.43,146 252.566,146 L277.434,146 C279.907,146 282.279,144.994 284.027,143.204 C285.776,141.414 286.759,138.986 286.759,136.455 L286.759,104.636 L283.65,107.818 L290.333,107.818 C293.381,107.827 295.99,105.561 296.479,102.473 L298.279,91.447 C299.043,86.813 296.391,82.296 292.031,80.809 Z M290.066,86.846 C291.519,87.342 292.403,88.847 292.148,90.394 L290.345,101.439 C290.342,101.455 290.342,101.455 290.342,101.455 L283.65,101.455 C281.934,101.455 280.542,102.879 280.542,104.636 L280.542,136.455 C280.542,137.298 280.214,138.108 279.632,138.704 C279.049,139.301 278.258,139.636 277.434,139.636 L252.566,139.636 C250.864,139.636 249.458,138.197 249.458,136.455 L249.458,104.636 C249.458,102.879 248.066,101.455 246.35,101.455 L239.667,101.455 C239.658,101.455 239.658,101.455 239.658,101.455 L237.852,90.398 C237.597,88.847 238.481,87.342 239.934,86.846 L253.549,82.2 L249.458,79.182 C249.458,87.968 256.416,95.091 265,95.091 C273.584,95.091 280.542,87.968 280.542,79.182 L276.451,82.2 L290.065,86.846 Z" />
        </g>
        <g id="Regular-M" transform="translate(0,200)">
            <path d="M492.031,80.809 L478.417,76.163 C476.404,75.477 474.325,77.01 474.325,79.182 C474.325,84.454 470.15,88.727 465,88.727 C459.85,88.727 455.675,84.454 455.675,79.182 C455.675,77.01 453.596,75.477 451.583,76.163 L437.969,80.809 C433.609,82.296 430.957,86.813 431.721,91.452 L433.523,102.488 C434.01,105.561 436.619,107.827 439.676,107.818 L446.35,107.818 L443.241,104.636 L443.241,136.455 C443.241,141.712 447.43,146 452.566,146 L477.434,146 C479.907,146 482.279,144.994 484.027,143.204 C485.776,141.414 486.759,138.986 486.759,136.455 L486.759,104.636 L483.65,107.818 L490.333,107.818 C493.381,107.827 495.99,105.561 496.479,102.473 L498.279,91.447 C499.043,86.813 496.391,82.296 492.031,80.809 Z M490.066,86.846 C491.519,87.342 492.403,88.847 492.148,90.394 L490.345,101.439 C490.342,101.455 490.342,101.455 490.342,101.455 L483.65,101.455 C481.934,101.455 480.542,102.879 480.542,104.636 L480.542,136.455 C480.542,137.298 480.214,138.108 479.632,138.704 C479.049,139.301 478.258,139.636 477.434,139.636 L452.566,139.636 C450.864,139.636 449.458,138.197 449.458,136.455 L449.458,104.636 C449.458,102.879 448.066,101.455 446.35,101.455 L439.667,101.455 C439.658,101.455 439.658,101.455 439.658,101.455 L437.852,90.398 C437.597,88.847 438.481,87.342 439.934,86.846 L453.549,82.2 L449.458,79.182 C449.458,87.968 456.416,95.091 465,95.091 C473.584,95.091 480.542,87.968 480.542,79.182 L476.451,82.2 L490.065,86.846 Z" />
        </g>
        <g id="Black-M" transform="translate(0,200)">
            <path d="M692.031,80.809 L678.417,76.163 C676.404,75.477 674.325,77.01 674.325,79.182 C674.325,84.454 670.15,88.727 665,88.727 C659.85,88.727 655.675,84.454 655.675,79.182 C655.675,77.01 653.596,75.477 651.583,76.163 L637.969,80.809 C633.609,82.296 630.957,86.813 631.721,91.452 L633.523,102.488 C634.01,105.561 636.619,107.827 639.676,107.818 L646.35,107.818 L643.241,104.636 L643.241,136.455 C643.241,141.712 647.43,146 652.566,146 L677.434,146 C679.907,146 682.279,144.994 684.027,143.204 C685.776,141.414 686.759,138.986 686.759,136.455 L686.759,104.636 L683.65,107.818 L690.333,107.818 C693.381,107.827 695.99,105.561 696.479,102.473 L698.279,91.447 C699.043,86.813 696.391,82.296 692.031,80.809 Z M690.066,86.846 C691.519,87.342 692.403,88.847 692.148,90.394 L690.345,101.439 C690.342,101.455 690.342,101.455 690.342,101.455 L683.65,101.455 C681.934,101.455 680.542,102.879 680.542,104.636 L680.542,136.455 C680.542,137.298 680.214,138.108 679.631,138.704 C679.049,139.301 678.258,139.636 677.434,139.636 L652.566,139.636 C650.864,139.636 649.458,138.197 649.458,136.455 L649.458,104.636 C649.458,102.879 648.066,101.455 646.35,101.455 L639.667,101.455 C639.658,101.455 639.658,101.455 639.658,101.455 L637.852,90.398 C637.597,88.847 638.481,87.342 639.934,86.846 L653.549,82.2 L649.458,79.182 C649.458,87.968 656.416,95.091 665,95.091 C673.584,95.091 680.542,87.968 680.542,79.182 L676.451,82.2 L690.065,86.846 Z" />
        </g>
    </g>
</svg>