<?xml version="1.0" encoding="UTF-8"?>
<svg height="600" width="800" xmlns="http://www.w3.org/2000/svg" xmlns:xlink="http://www.w3.org/1999/xlink">
    <g id="Notes" font-family="LucidaGrande, 'Lucida Grande', sans-serif" font-size="13">
        <rect fill="white" height="600.0" width="800.0" x="0.0" y="0.0" />
        <g font-size="13">
            <text x="18.0" y="176.0">Small</text>
            <text x="18.0" y="376.0">Medium</text>
            <text x="18.0" y="576.0">Large</text>
        </g>
        <g font-size="9">
            <text x="250.0" y="30.0">Ultralight</text>
            <text x="450.0" y="30.0">Regular</text>
            <text x="650.0" y="30.0">Black</text>
            <text id="template-version" fill="#505050" text-anchor="end" x="785.0" y="575.0">Template v.3.0</text>
            <a href="https://github.com/swhitty/SwiftDraw">
                <text fill="#505050" text-anchor="end" x="785.0" y="590.0">https://github.com/swhitty/SwiftDraw</text>
            </a>
        </g>
    </g>
    <g id="Guides" stroke="rgb(39, 170, 225)" stroke-width="0.5">
        <path id="Capline-S" d="M18,76 l800,0" />
        <path id="H-reference" d="M85,145.755 L87.685,145.755 L113.369,79.287 L114.052,79.287 L114.052,76 L112.148,76 L85,145.755 Z M95.693,121.536 L130.996,121.536 L130.263,119.313 L96.474,119.313 L95.693,121.536 Z M139.15,145.755 L141.787,145.755 L114.638,76 L113.466,76 L113.466,79.287 L139.15,145.755 Z" stroke="none" transform="translate(0,200)" />
        <path id="Baseline-S" d="M18,146 l800,0" />
        <path id="left-margin-Ultralight-M" d="M230,256 l0,110" />
        <path id="right-margin-Ultralight-M" d="M300,256 l0,110" />
        <path id="left-margin-Regular-M" d="M430,256 l0,110" />
        <path id="right-margin-Regular-M" d="M500,256 l0,110" />
        <path id="left-margin-Black-M" d="M630,256 l0,110" />
        <path id="right-margin-Black-M" d="M700,256 l0,110" />
        <path id="Capline-M" d="M18,276 l800,0" />
        <path id="Baseline-M" d="M18,346 l800,0" />
        <path id="Capline-L" d="M18,476 l800,0" />
        <path id="Baseline-L" d="M18,546 l800,0" />
    </g>
    <g id="Symbols">
        <g id="Ultralight-M" transform="translate(0,200)">
            <path d="M270.316,142.388 C284.203,128.469 287.696,108.91 277.351,98.542 C267.006,88.173 247.492,91.674 233.604,105.592 C232.379,106.82 232.379,108.811 233.604,110.039 C234.829,111.267 236.816,111.267 238.041,110.039 C249.749,98.304 265.434,95.491 272.914,102.988 C280.394,110.485 277.587,126.206 265.879,137.941 C264.654,139.169 264.654,141.16 265.879,142.388 C267.104,143.615 269.091,143.615 270.316,142.388 Z" />
            <path d="M270.316,142.388 C277.191,135.497 273.84,122.062 263.862,112.061 C253.884,102.06 240.479,98.702 233.604,105.592 C226.729,112.483 230.08,125.918 240.058,135.919 C250.036,145.92 263.441,149.278 270.316,142.388 C271.541,141.16 271.541,139.169 270.316,137.941 C269.091,136.713 267.104,136.713 265.879,137.941 C262.058,141.771 252.341,139.337 244.495,131.473 C236.648,123.608 234.219,113.869 238.041,110.039 C241.862,106.209 251.579,108.643 259.426,116.507 C267.272,124.372 269.701,134.111 265.879,137.941 C264.654,139.169 264.654,141.16 265.879,142.388 C267.104,143.615 269.091,143.615 270.316,142.388 Z" />
            <path d="M281.048,108.715 L287.432,102.317 L285.214,100.093 L283.693,102.844 C287.506,104.961 292.207,104.618 295.674,101.97 C299.141,99.322 300.717,94.87 299.691,90.624 C298.665,86.378 295.231,83.142 290.939,82.377 L290.39,85.473 L293.467,84.859 C292.627,80.625 289.395,77.275 285.201,76.29 C281.008,75.306 276.627,76.87 273.999,80.29 C271.371,83.71 270.98,88.354 273,92.167 L275.771,90.692 L273.552,88.469 L267.203,94.836 C265.978,96.065 265.978,98.055 267.204,99.283 C268.429,100.511 270.415,100.51 271.64,99.282 L277.99,92.915 C278.964,91.938 279.188,90.438 278.542,89.217 C277.676,87.583 277.843,85.593 278.97,84.127 C280.096,82.662 281.974,81.991 283.771,82.413 C285.568,82.835 286.953,84.271 287.313,86.086 C287.565,87.356 288.569,88.341 289.841,88.568 C291.681,88.896 293.153,90.284 293.593,92.104 C294.033,93.924 293.357,95.833 291.871,96.969 C290.384,98.104 288.369,98.251 286.734,97.343 C285.51,96.663 283.985,96.878 282.996,97.87 L276.611,104.269 C275.386,105.497 275.386,107.487 276.611,108.715 C277.837,109.943 279.823,109.943 281.048,108.715 Z" />
            <path d="M255.747,123.339 L252.61,120.195 C251.385,118.967 249.398,118.967 248.173,120.195 C246.948,121.422 246.948,123.413 248.173,124.641 L251.31,127.785 C252.535,129.013 254.522,129.013 255.747,127.785 C256.972,126.558 256.972,124.567 255.747,123.339 Z" />
        </g>
        <g id="Regular-M" transform="translate(0,200)">
            <path d="M470.316,142.388 C484.203,128.469 487.696,108.91 477.351,98.542 C467.006,88.173 447.492,91.674 433.604,105.592 C432.379,106.82 432.379,108.811 433.604,110.039 C434.829,111.267 436.816,111.267 438.041,110.039 C449.749,98.304 465.434,95.491 472.914,102.988 C480.394,110.485 477.587,126.206 465.879,137.941 C464.654,139.169 464.654,141.16 465.879,142.388 C467.104,143.615 469.091,143.615 470.316,142.388 Z" />
            <path d="M470.316,142.388 C477.191,135.497 473.84,122.062 463.862,112.061 C453.884,102.06 440.479,98.702 433.604,105.592 C426.729,112.483 430.08,125.918 440.058,135.919 C450.036,145.92 463.441,149.278 470.316,142.388 C471.541,141.16 471.541,139.169 470.316,137.941 C469.091,136.713 467.104,136.713 465.879,137.941 C462.058,141.771 452.341,139.337 444.495,131.473 C436.648,123.608 434.219,113.869 438.041,110.039 C441.862,106.209 451.579,108.643 459.426,116.507 C467.272,124.372 469.701,134.111 465.879,137.941 C464.654,139.169 464.654,141.16 465.879,142.388 C467.104,143.615 469.091,143.615 470.316,142.388 Z" />
            <path d="M481.048,108.715 L487.432,102.317 L485.214,100.093 L483.693,102.844 C487.506,104.961 492.207,104.618 495.674,101.97 C499.141,99.322 500.717,94.87 499.691,90.624 C498.665,86.378 495.231,83.142 490.939,82.377 L490.39,85.473 L493.467,84.859 C492.627,80.625 489.395,77.275 485.201,76.29 C481.008,75.306 476.627,76.87 473.999,80.29 C471.371,83.71 470.98,88.354 473,92.167 L475.771,90.692 L473.552,88.469 L467.203,94.836 C465.978,96.065 465.978,98.055 467.204,99.283 C468.429,100.511 470.415,100.51 471.64,99.282 L477.99,92.915 C478.964,91.938 479.188,90.438 478.542,89.217 C477.676,87.583 477.843,85.593 478.97,84.127 C480.096,82.662 481.974,81.991 483.771,82.413 C485.568,82.835 486.953,84.271 487.313,86.086 C487.565,87.356 488.569,88.341 489.841,88.568 C491.681,88.896 493.153,90.284 493.593,92.104 C494.033,93.924 493.357,95.833 491.871,96.969 C490.384,98.104 488.369,98.251 486.734,97.343 C485.51,96.663 483.985,96.878 482.996,97.87 L476.611,104.269 C475.386,105.497 475.386,107.487 476.611,108.715 C477.837,109.943 479.823,109.943 481.048,108.715 Z" />
            <path d="M455.747,123.339 L452.61,120.195 C451.385,118.967 449.398,118.967 448.173,120.195 C446.948,121.422 446.948,123.413 448.173,124.641 L451.31,127.785 C452.535,129.013 454.522,129.013 455.747,127.785 C456.972,126.558 456.972,124.567 455.747,123.339 Z" />
        </g>
        <g id="Black-M" transform="translate(0,200)">
            <path d="M670.316,142.388 C684.203,128.469 687.695,108.91 677.351,98.542 C667.006,88.173 647.492,91.674 633.604,105.592 C632.379,106.82 632.379,108.811 633.604,110.039 C634.829,111.267 636.816,111.267 638.041,110.039 C649.749,98.304 665.434,95.491 672.914,102.988 C680.394,110.485 677.587,126.206 665.879,137.941 C664.654,139.169 664.654,141.16 665.879,142.388 C667.104,143.615 669.091,143.615 670.316,142.388 Z" />
            <path d="M670.316,142.388 C677.191,135.497 673.84,122.062 663.862,112.061 C653.884,102.06 640.479,98.702 633.604,105.592 C626.729,112.483 630.08,125.918 640.058,135.919 C650.036,145.92 663.441,149.278 670.316,142.388 C671.541,141.16 671.541,139.169 670.316,137.941 C669.091,136.713 667.104,136.713 665.879,137.941 C662.058,141.771 652.341,139.337 644.495,131.473 C636.648,123.608 634.219,113.869 638.041,110.039 C641.862,106.209 651.579,108.643 659.426,116.507 C667.272,124.372 669.701,134.111 665.879,137.941 C664.654,139.169 664.654,141.16 665.879,142.388 C667.104,143.615 669.091,143.615 670.316,142.388 Z" />
            <path d="M681.048,108.715 L687.432,102.317 L685.214,100.093 L683.693,102.844 C687.506,104.961 692.207,104.618 695.674,101.97 C699.141,99.322 700.717,94.87 699.691,90.624 C698.665,86.378 695.231,83.142 690.939,82.377 L690.39,85.473 L693.467,84.859 C692.627,80.625 689.395,77.275 685.201,76.29 C681.008,75.306 676.627,76.87 673.999,80.29 C671.371,83.71 670.98,88.354 673,92.167 L675.771,90.692 L673.552,88.469 L667.203,94.836 C665.978,96.065 665.978,98.055 667.204,99.283 C668.429,100.511 670.415,100.51 671.64,99.282 L677.99,92.915 C678.964,91.938 679.188,90.438 678.542,89.217 C677.676,87.583 677.843,85.593 678.97,84.127 C680.096,82.662 681.974,81.991 683.771,82.413 C685.568,82.835 686.953,84.271 687.313,86.086 C687.565,87.356 688.569,88.341 689.841,88.568 C691.681,88.896 693.153,90.284 693.593,92.104 C694.033,93.924 693.357,95.833 691.871,96.969 C690.384,98.104 688.369,98.251 686.734,97.343 C685.51,96.663 683.985,96.878 682.996,97.87 L676.611,104.269 C675.386,105.497 675.386,107.487 676.611,108.715 C677.837,109.943 679.823,109.943 681.048,108.715 Z" />
            <path d="M655.747,123.339 L652.61,120.195 C651.385,118.967 649.398,118.967 648.173,120.195 C646.948,121.422 646.948,123.413 648.173,124.641 L651.31,127.785 C652.535,129.013 654.522,129.013 655.747,127.785 C656.972,126.558 656.972,124.567 655.747,123.339 Z" />
        </g>
    </g>
</svg>