<?xml version="1.0" encoding="UTF-8"?>
<svg height="600" width="800" xmlns="http://www.w3.org/2000/svg" xmlns:xlink="http://www.w3.org/1999/xlink">
    <g id="Notes" font-family="LucidaGrande, 'Lucida Grande', sans-serif" font-size="13">
        <rect fill="white" height="600.0" width="800.0" x="0.0" y="0.0" />
        <g font-size="13">
            <text x="18.0" y="176.0">Small</text>
            <text x="18.0" y="376.0">Medium</text>
            <text x="18.0" y="576.0">Large</text>
        </g>
        <g font-size="9">
            <text x="250.0" y="30.0">Ultralight</text>
            <text x="450.0" y="30.0">Regular</text>
            <text x="650.0" y="30.0">Black</text>
            <text id="template-version" fill="#505050" text-anchor="end" x="785.0" y="575.0">Template v.3.0</text>
            <a href="https://github.com/swhitty/SwiftDraw">
                <text fill="#505050" text-anchor="end" x="785.0" y="590.0">https://github.com/swhitty/SwiftDraw</text>
            </a>
        </g>
    </g>
    <g id="Guides" stroke="rgb(39, 170, 225)" stroke-width="0.5">
        <path id="Capline-S" d="M18,76 l800,0" />
        <path id="H-reference" d="M85,145.755 L87.685,145.755 L113.369,79.287 L114.052,79.287 L114.052,76 L112.148,76 L85,145.755 Z M95.693,121.536 L130.996,121.536 L130.263,119.313 L96.474,119.313 L95.693,121.536 Z M139.15,145.755 L141.787,145.755 L114.638,76 L113.466,76 L113.466,79.287 L139.15,145.755 Z" stroke="none" transform="translate(0,200)" />
        <path id="Baseline-S" d="M18,146 l800,0" />
        <path id="left-margin-Ultralight-M" d="M221.25,256 l0,110" />
        <path id="right-margin-Ultralight-M" d="M308.75,256 l0,110" />
        <path id="left-margin-Regular-M" d="M421.25,256 l0,110" />
        <path id="right-margin-Regular-M" d="M508.75,256 l0,110" />
        <path id="left-margin-Black-M" d="M621.25,256 l0,110" />
        <path id="right-margin-Black-M" d="M708.75,256 l0,110" />
        <path id="Capline-M" d="M18,276 l800,0" />
        <path id="Baseline-M" d="M18,346 l800,0" />
        <path id="Capline-L" d="M18,476 l800,0" />
        <path id="Baseline-L" d="M18,546 l800,0" />
    </g>
    <g id="Symbols">
        <g id="Ultralight-M" transform="translate(0,200)">
            <path d="M225.625,84.75 L260.625,84.75 C263.041,84.75 265,82.791 265,80.375 C265,77.959 263.041,76 260.625,76 L225.625,76 C223.209,76 221.25,77.959 221.25,80.375 C221.25,82.791 223.209,84.75 225.625,84.75 Z" />
            <path d="M225.625,115.375 L260.625,115.375 C263.041,115.375 265,113.416 265,111 C265,108.584 263.041,106.625 260.625,106.625 L225.625,106.625 C223.209,106.625 221.25,108.584 221.25,111 C221.25,113.416 223.209,115.375 225.625,115.375 Z" />
            <path d="M225.625,146 L260.625,146 C263.041,146 265,144.041 265,141.625 C265,139.209 263.041,137.25 260.625,137.25 L225.625,137.25 C223.209,137.25 221.25,139.209 221.25,141.625 C221.25,144.041 223.209,146 225.625,146 Z" />
            <path d="M275.031,83.469 L288.156,96.594 C289.865,98.302 292.635,98.302 294.344,96.594 L307.469,83.469 C309.177,81.76 309.177,78.99 307.469,77.281 C305.76,75.573 302.99,75.573 301.281,77.281 L288.156,90.406 L294.344,90.406 L281.219,77.281 C279.51,75.573 276.74,75.573 275.031,77.281 C273.323,78.99 273.323,81.76 275.031,83.469 Z" />
            <path d="M281.219,144.719 L294.344,131.594 L288.156,131.594 L301.281,144.719 C302.99,146.427 305.76,146.427 307.469,144.719 C309.177,143.01 309.177,140.24 307.469,138.531 L294.344,125.406 C292.635,123.698 289.865,123.698 288.156,125.406 L275.031,138.531 C273.323,140.24 273.323,143.01 275.031,144.719 C276.74,146.427 279.51,146.427 281.219,144.719 Z" />
        </g>
        <g id="Regular-M" transform="translate(0,200)">
            <path d="M425.625,84.75 L460.625,84.75 C463.041,84.75 465,82.791 465,80.375 C465,77.959 463.041,76 460.625,76 L425.625,76 C423.209,76 421.25,77.959 421.25,80.375 C421.25,82.791 423.209,84.75 425.625,84.75 Z" />
            <path d="M425.625,115.375 L460.625,115.375 C463.041,115.375 465,113.416 465,111 C465,108.584 463.041,106.625 460.625,106.625 L425.625,106.625 C423.209,106.625 421.25,108.584 421.25,111 C421.25,113.416 423.209,115.375 425.625,115.375 Z" />
            <path d="M425.625,146 L460.625,146 C463.041,146 465,144.041 465,141.625 C465,139.209 463.041,137.25 460.625,137.25 L425.625,137.25 C423.209,137.25 421.25,139.209 421.25,141.625 C421.25,144.041 423.209,146 425.625,146 Z" />
            <path d="M475.031,83.469 L488.156,96.594 C489.865,98.302 492.635,98.302 494.344,96.594 L507.469,83.469 C509.177,81.76 509.177,78.99 507.469,77.281 C505.76,75.573 502.99,75.573 501.281,77.281 L488.156,90.406 L494.344,90.406 L481.219,77.281 C479.51,75.573 476.74,75.573 475.031,77.281 C473.323,78.99 473.323,81.76 475.031,83.469 Z" />
            <path d="M481.219,144.719 L494.344,131.594 L488.156,131.594 L501.281,144.719 C502.99,146.427 505.76,146.427 507.469,144.719 C509.177,143.01 509.177,140.24 507.469,138.531 L494.344,125.406 C492.635,123.698 489.865,123.698 488.156,125.406 L475.031,138.531 C473.323,140.24 473.323,143.01 475.031,144.719 C476.74,146.427 479.51,146.427 481.219,144.719 Z" />
        </g>
        <g id="Black-M" transform="translate(0,200)">
            <path d="M625.625,84.75 L660.625,84.75 C663.041,84.75 665,82.791 665,80.375 C665,77.959 663.041,76 660.625,76 L625.625,76 C623.209,76 621.25,77.959 621.25,80.375 C621.25,82.791 623.209,84.75 625.625,84.75 Z" />
            <path d="M625.625,115.375 L660.625,115.375 C663.041,115.375 665,113.416 665,111 C665,108.584 663.041,106.625 660.625,106.625 L625.625,106.625 C623.209,106.625 621.25,108.584 621.25,111 C621.25,113.416 623.209,115.375 625.625,115.375 Z" />
            <path d="M625.625,146 L660.625,146 C663.041,146 665,144.041 665,141.625 C665,139.209 663.041,137.25 660.625,137.25 L625.625,137.25 C623.209,137.25 621.25,139.209 621.25,141.625 C621.25,144.041 623.209,146 625.625,146 Z" />
            <path d="M675.031,83.469 L688.156,96.594 C689.865,98.302 692.635,98.302 694.344,96.594 L707.469,83.469 C709.177,81.76 709.177,78.99 707.469,77.281 C705.76,75.573 702.99,75.573 701.281,77.281 L688.156,90.406 L694.344,90.406 L681.219,77.281 C679.51,75.573 676.74,75.573 675.031,77.281 C673.323,78.99 673.323,81.76 675.031,83.469 Z" />
            <path d="M681.219,144.719 L694.344,131.594 L688.156,131.594 L701.281,144.719 C702.99,146.427 705.76,146.427 707.469,144.719 C709.177,143.01 709.177,140.24 707.469,138.531 L694.344,125.406 C692.635,123.698 689.865,123.698 688.156,125.406 L675.031,138.531 C673.323,140.24 673.323,143.01 675.031,144.719 C676.74,146.427 679.51,146.427 681.219,144.719 Z" />
        </g>
    </g>
</svg>