<?xml version="1.0" encoding="UTF-8"?>
<svg height="600" width="800" xmlns="http://www.w3.org/2000/svg" xmlns:xlink="http://www.w3.org/1999/xlink">
    <g id="Notes" font-family="LucidaGrande, 'Lucida Grande', sans-serif" font-size="13">
        <rect fill="white" height="600.0" width="800.0" x="0.0" y="0.0" />
        <g font-size="13">
            <text x="18.0" y="176.0">Small</text>
            <text x="18.0" y="376.0">Medium</text>
            <text x="18.0" y="576.0">Large</text>
        </g>
        <g font-size="9">
            <text x="250.0" y="30.0">Ultralight</text>
            <text x="450.0" y="30.0">Regular</text>
            <text x="650.0" y="30.0">Black</text>
            <text id="template-version" fill="#505050" text-anchor="end" x="785.0" y="575.0">Template v.3.0</text>
            <a href="https://github.com/swhitty/SwiftDraw">
                <text fill="#505050" text-anchor="end" x="785.0" y="590.0">https://github.com/swhitty/SwiftDraw</text>
            </a>
        </g>
    </g>
    <g id="Guides" stroke="rgb(39, 170, 225)" stroke-width="0.5">
        <path id="Capline-S" d="M18,76 l800,0" />
        <path id="H-reference" d="M85,145.755 L87.685,145.755 L113.369,79.287 L114.052,79.287 L114.052,76 L112.148,76 L85,145.755 Z M95.693,121.536 L130.996,121.536 L130.263,119.313 L96.474,119.313 L95.693,121.536 Z M139.15,145.755 L141.787,145.755 L114.638,76 L113.466,76 L113.466,79.287 L139.15,145.755 Z" stroke="none" transform="translate(0,200)" />
        <path id="Baseline-S" d="M18,146 l800,0" />
        <path id="left-margin-Ultralight-M" d="M230,256 l0,110" />
        <path id="right-margin-Ultralight-M" d="M300,256 l0,110" />
        <path id="left-margin-Regular-M" d="M430,256 l0,110" />
        <path id="right-margin-Regular-M" d="M500,256 l0,110" />
        <path id="left-margin-Black-M" d="M630,256 l0,110" />
        <path id="right-margin-Black-M" d="M700,256 l0,110" />
        <path id="Capline-M" d="M18,276 l800,0" />
        <path id="Baseline-M" d="M18,346 l800,0" />
        <path id="Capline-L" d="M18,476 l800,0" />
        <path id="Baseline-L" d="M18,546 l800,0" />
    </g>
    <g id="Symbols">
        <g id="Ultralight-M" transform="translate(0,200)">
            <path d="M282.488,146 C284.344,146 286.124,145.263 287.436,143.95 C288.748,142.638 289.486,140.858 289.486,139.001 L289.486,120.28 C289.486,120.211 289.655,119.979 290.043,119.793 C297.72,116.13 301.649,107.464 299.345,99.268 C297.041,91.071 289.172,85.724 280.704,86.601 L284.278,88.698 C280.964,80.993 273.382,76 264.995,76 C256.609,76 249.027,80.993 245.712,88.698 L249.284,86.6 C240.821,85.73 232.959,91.076 230.655,99.268 C228.352,107.46 232.275,116.122 239.951,119.791 C240.334,119.975 240.505,120.21 240.505,120.277 L240.505,139.001 C240.505,140.858 241.242,142.638 242.554,143.95 C243.867,145.263 245.646,146 247.502,146 L282.488,146 Z M282.488,139.001 L247.502,139.001 C247.502,139.001 247.502,139.001 247.502,139.001 C247.502,139.001 247.502,139.001 247.502,139.001 L247.502,120.277 C247.502,117.312 245.642,114.765 242.979,113.481 C238.363,111.275 236.009,106.078 237.391,101.163 C238.773,96.248 243.49,93.04 248.568,93.562 C250.089,93.719 251.536,92.869 252.14,91.464 C254.35,86.327 259.404,82.999 264.995,82.999 C270.586,82.999 275.641,86.327 277.851,91.464 C278.455,92.87 279.903,93.72 281.425,93.562 C286.505,93.036 291.226,96.245 292.609,101.162 C293.992,106.08 291.634,111.28 287.024,113.479 C284.351,114.761 282.488,117.311 282.488,120.28 L282.488,139.001 C282.488,139.001 282.488,139.001 282.488,139.001 C282.488,139.001 282.488,139.001 282.488,139.001 Z" />
            <path d="M244.004,132.003 L285.987,132.003 C287.919,132.003 289.486,130.436 289.486,128.504 C289.486,126.571 287.919,125.004 285.987,125.004 L244.004,125.004 C242.071,125.004 240.505,126.571 240.505,128.504 C240.505,130.436 242.071,132.003 244.004,132.003 Z" />
        </g>
        <g id="Regular-M" transform="translate(0,200)">
            <path d="M482.488,146 C484.344,146 486.124,145.263 487.436,143.95 C488.748,142.638 489.486,140.858 489.486,139.001 L489.486,120.28 C489.486,120.211 489.655,119.979 490.043,119.793 C497.72,116.13 501.649,107.464 499.345,99.268 C497.041,91.071 489.172,85.724 480.704,86.601 L484.278,88.698 C480.964,80.993 473.382,76 464.995,76 C456.609,76 449.027,80.993 445.712,88.698 L449.284,86.6 C440.821,85.73 432.959,91.076 430.655,99.268 C428.352,107.46 432.275,116.122 439.951,119.791 C440.334,119.975 440.505,120.21 440.505,120.277 L440.505,139.001 C440.505,140.858 441.242,142.638 442.554,143.95 C443.867,145.263 445.646,146 447.502,146 L482.488,146 Z M482.488,139.001 L447.502,139.001 C447.502,139.001 447.502,139.001 447.502,139.001 C447.502,139.001 447.502,139.001 447.502,139.001 L447.502,120.277 C447.502,117.312 445.642,114.765 442.979,113.481 C438.363,111.275 436.009,106.078 437.391,101.163 C438.773,96.248 443.49,93.04 448.568,93.562 C450.089,93.719 451.536,92.869 452.14,91.464 C454.35,86.327 459.404,82.999 464.995,82.999 C470.586,82.999 475.641,86.327 477.851,91.464 C478.455,92.87 479.903,93.72 481.425,93.562 C486.505,93.036 491.226,96.245 492.609,101.162 C493.992,106.08 491.634,111.28 487.024,113.479 C484.351,114.761 482.488,117.311 482.488,120.28 L482.488,139.001 C482.488,139.001 482.488,139.001 482.488,139.001 C482.488,139.001 482.488,139.001 482.488,139.001 Z" />
            <path d="M444.004,132.003 L485.987,132.003 C487.919,132.003 489.486,130.436 489.486,128.504 C489.486,126.571 487.919,125.004 485.987,125.004 L444.004,125.004 C442.071,125.004 440.505,126.571 440.505,128.504 C440.505,130.436 442.071,132.003 444.004,132.003 Z" />
        </g>
        <g id="Black-M" transform="translate(0,200)">
            <path d="M682.488,146 C684.344,146 686.124,145.263 687.436,143.95 C688.748,142.638 689.486,140.858 689.486,139.001 L689.486,120.28 C689.486,120.211 689.655,119.979 690.043,119.793 C697.72,116.13 701.649,107.464 699.345,99.268 C697.041,91.071 689.172,85.724 680.704,86.601 L684.278,88.698 C680.964,80.993 673.382,76 664.995,76 C656.609,76 649.027,80.993 645.712,88.698 L649.284,86.6 C640.821,85.73 632.959,91.076 630.655,99.268 C628.352,107.46 632.275,116.122 639.951,119.791 C640.334,119.975 640.505,120.21 640.505,120.277 L640.505,139.001 C640.505,140.858 641.242,142.638 642.555,143.95 C643.867,145.263 645.646,146 647.502,146 L682.488,146 Z M682.488,139.001 L647.502,139.001 C647.502,139.001 647.502,139.001 647.502,139.001 C647.502,139.001 647.502,139.001 647.502,139.001 L647.502,120.277 C647.502,117.312 645.642,114.765 642.979,113.481 C638.363,111.275 636.009,106.078 637.391,101.163 C638.773,96.248 643.49,93.04 648.568,93.562 C650.089,93.719 651.536,92.869 652.14,91.464 C654.35,86.327 659.404,82.999 664.995,82.999 C670.586,82.999 675.641,86.327 677.851,91.464 C678.455,92.87 679.903,93.72 681.425,93.562 C686.505,93.036 691.226,96.245 692.609,101.162 C693.992,106.08 691.634,111.28 687.024,113.479 C684.351,114.761 682.488,117.311 682.488,120.28 L682.488,139.001 C682.488,139.001 682.488,139.001 682.488,139.001 C682.488,139.001 682.488,139.001 682.488,139.001 Z" />
            <path d="M644.004,132.003 L685.987,132.003 C687.919,132.003 689.486,130.436 689.486,128.504 C689.486,126.571 687.919,125.004 685.987,125.004 L644.004,125.004 C642.071,125.004 640.505,126.571 640.505,128.504 C640.505,130.436 642.071,132.003 644.004,132.003 Z" />
        </g>
    </g>
</svg>