<?xml version="1.0" encoding="UTF-8"?>
<svg height="600" width="800" xmlns="http://www.w3.org/2000/svg" xmlns:xlink="http://www.w3.org/1999/xlink">
    <g id="Notes" font-family="LucidaGrande, 'Lucida Grande', sans-serif" font-size="13">
        <rect fill="white" height="600.0" width="800.0" x="0.0" y="0.0" />
        <g font-size="13">
            <text x="18.0" y="176.0">Small</text>
            <text x="18.0" y="376.0">Medium</text>
            <text x="18.0" y="576.0">Large</text>
        </g>
        <g font-size="9">
            <text x="250.0" y="30.0">Ultralight</text>
            <text x="450.0" y="30.0">Regular</text>
            <text x="650.0" y="30.0">Black</text>
            <text id="template-version" fill="#505050" text-anchor="end" x="785.0" y="575.0">Template v.3.0</text>
            <a href="https://github.com/swhitty/SwiftDraw">
                <text fill="#505050" text-anchor="end" x="785.0" y="590.0">https://github.com/swhitty/SwiftDraw</text>
            </a>
        </g>
    </g>
    <g id="Guides" stroke="rgb(39, 170, 225)" stroke-width="0.5">
        <path id="Capline-S" d="M18,76 l800,0" />
        <path id="H-reference" d="M85,145.755 L87.685,145.755 L113.369,79.287 L114.052,79.287 L114.052,76 L112.148,76 L85,145.755 Z M95.693,121.536 L130.996,121.536 L130.263,119.313 L96.474,119.313 L95.693,121.536 Z M139.15,145.755 L141.787,145.755 L114.638,76 L113.466,76 L113.466,79.287 L139.15,145.755 Z" stroke="none" transform="translate(0,200)" />
        <path id="Baseline-S" d="M18,146 l800,0" />
        <path id="left-margin-Ultralight-M" d="M222.222,256 l0,110" />
        <path id="right-margin-Ultralight-M" d="M307.778,256 l0,110" />
        <path id="left-margin-Regular-M" d="M422.222,256 l0,110" />
        <path id="right-margin-Regular-M" d="M507.778,256 l0,110" />
        <path id="left-margin-Black-M" d="M622.222,256 l0,110" />
        <path id="right-margin-Black-M" d="M707.778,256 l0,110" />
        <path id="Capline-M" d="M18,276 l800,0" />
        <path id="Baseline-M" d="M18,346 l800,0" />
        <path id="Capline-L" d="M18,476 l800,0" />
        <path id="Baseline-L" d="M18,546 l800,0" />
    </g>
    <g id="Symbols">
        <g id="Ultralight-M" transform="translate(0,200)">
            <path d="M268.889,79.889 L268.889,142.111 L272.778,138.222 L230,138.222 C230,138.222 230,138.222 230,138.222 C230,138.222 230,138.222 230,138.222 L230,83.778 C230,83.778 230,83.778 230,83.778 C230,83.778 230,83.778 230,83.778 L272.778,83.778 L268.889,79.889 Z M276.667,79.889 C276.667,77.741 274.926,76 272.778,76 L230,76 C227.937,76 225.959,76.819 224.5,78.278 C223.042,79.737 222.222,81.715 222.222,83.778 L222.222,138.222 C222.222,140.285 223.042,142.263 224.5,143.722 C225.959,145.181 227.937,146 230,146 L272.778,146 C274.926,146 276.667,144.259 276.667,142.111 L276.667,79.889 Z" />
            <path d="M245.556,111 C245.556,95.966 257.743,83.778 272.778,83.778 C287.812,83.778 300,95.966 300,111 C300,126.034 287.812,138.222 272.778,138.222 C257.743,138.222 245.556,126.034 245.556,111 Z M237.778,111 C237.778,130.33 253.448,146 272.778,146 C292.108,146 307.778,130.33 307.778,111 C307.778,91.67 292.108,76 272.778,76 C253.448,76 237.778,91.67 237.778,111 Z" />
        </g>
        <g id="Regular-M" transform="translate(0,200)">
            <path d="M468.889,79.889 L468.889,142.111 L472.778,138.222 L430,138.222 C430,138.222 430,138.222 430,138.222 C430,138.222 430,138.222 430,138.222 L430,83.778 C430,83.778 430,83.778 430,83.778 C430,83.778 430,83.778 430,83.778 L472.778,83.778 L468.889,79.889 Z M476.667,79.889 C476.667,77.741 474.926,76 472.778,76 L430,76 C427.937,76 425.959,76.819 424.5,78.278 C423.042,79.737 422.222,81.715 422.222,83.778 L422.222,138.222 C422.222,140.285 423.042,142.263 424.5,143.722 C425.959,145.181 427.937,146 430,146 L472.778,146 C474.926,146 476.667,144.259 476.667,142.111 L476.667,79.889 Z" />
            <path d="M445.556,111 C445.556,95.966 457.743,83.778 472.778,83.778 C487.812,83.778 500,95.966 500,111 C500,126.034 487.812,138.222 472.778,138.222 C457.743,138.222 445.556,126.034 445.556,111 Z M437.778,111 C437.778,130.33 453.448,146 472.778,146 C492.108,146 507.778,130.33 507.778,111 C507.778,91.67 492.108,76 472.778,76 C453.448,76 437.778,91.67 437.778,111 Z" />
        </g>
        <g id="Black-M" transform="translate(0,200)">
            <path d="M668.889,79.889 L668.889,142.111 L672.778,138.222 L630,138.222 C630,138.222 630,138.222 630,138.222 C630,138.222 630,138.222 630,138.222 L630,83.778 C630,83.778 630,83.778 630,83.778 C630,83.778 630,83.778 630,83.778 L672.778,83.778 L668.889,79.889 Z M676.667,79.889 C676.667,77.741 674.926,76 672.778,76 L630,76 C627.937,76 625.959,76.819 624.5,78.278 C623.042,79.737 622.222,81.715 622.222,83.778 L622.222,138.222 C622.222,140.285 623.042,142.263 624.5,143.722 C625.959,145.181 627.937,146 630,146 L672.778,146 C674.926,146 676.667,144.259 676.667,142.111 L676.667,79.889 Z" />
            <path d="M645.556,111 C645.556,95.966 657.743,83.778 672.778,83.778 C687.812,83.778 700,95.966 700,111 C700,126.034 687.812,138.222 672.778,138.222 C657.743,138.222 645.556,126.034 645.556,111 Z M637.778,111 C637.778,130.33 653.448,146 672.778,146 C692.108,146 707.778,130.33 707.778,111 C707.778,91.67 692.108,76 672.778,76 C653.448,76 637.778,91.67 637.778,111 Z" />
        </g>
    </g>
</svg>