<?xml version="1.0" encoding="UTF-8"?>
<svg height="600" width="800" xmlns="http://www.w3.org/2000/svg" xmlns:xlink="http://www.w3.org/1999/xlink">
    <g id="Notes" font-family="LucidaGrande, 'Lucida Grande', sans-serif" font-size="13">
        <rect fill="white" height="600.0" width="800.0" x="0.0" y="0.0" />
        <g font-size="13">
            <text x="18.0" y="176.0">Small</text>
            <text x="18.0" y="376.0">Medium</text>
            <text x="18.0" y="576.0">Large</text>
        </g>
        <g font-size="9">
            <text x="250.0" y="30.0">Ultralight</text>
            <text x="450.0" y="30.0">Regular</text>
            <text x="650.0" y="30.0">Black</text>
            <text id="template-version" fill="#505050" text-anchor="end" x="785.0" y="575.0">Template v.3.0</text>
            <a href="https://github.com/swhitty/SwiftDraw">
                <text fill="#505050" text-anchor="end" x="785.0" y="590.0">https://github.com/swhitty/SwiftDraw</text>
            </a>
        </g>
    </g>
    <g id="Guides" stroke="rgb(39, 170, 225)" stroke-width="0.5">
        <path id="Capline-S" d="M18,76 l800,0" />
        <path id="H-reference" d="M85,145.755 L87.685,145.755 L113.369,79.287 L114.052,79.287 L114.052,76 L112.148,76 L85,145.755 Z M95.693,121.536 L130.996,121.536 L130.263,119.313 L96.474,119.313 L95.693,121.536 Z M139.15,145.755 L141.787,145.755 L114.638,76 L113.466,76 L113.466,79.287 L139.15,145.755 Z" stroke="none" transform="translate(0,200)" />
        <path id="Baseline-S" d="M18,146 l800,0" />
        <path id="left-margin-Ultralight-M" d="M230,256 l0,110" />
        <path id="right-margin-Ultralight-M" d="M300,256 l0,110" />
        <path id="left-margin-Regular-M" d="M430,256 l0,110" />
        <path id="right-margin-Regular-M" d="M500,256 l0,110" />
        <path id="left-margin-Black-M" d="M630,256 l0,110" />
        <path id="right-margin-Black-M" d="M700,256 l0,110" />
        <path id="Capline-M" d="M18,276 l800,0" />
        <path id="Baseline-M" d="M18,346 l800,0" />
        <path id="Capline-L" d="M18,476 l800,0" />
        <path id="Baseline-L" d="M18,546 l800,0" />
    </g>
    <g id="Symbols">
        <g id="Ultralight-M" transform="translate(0,200)">
            <path d="M289.523,90.977 L299.068,81.432 C300.311,80.189 300.311,78.175 299.068,76.932 C297.826,75.689 295.811,75.689 294.568,76.932 L285.023,86.477 C283.78,87.72 283.78,89.735 285.023,90.977 C286.265,92.22 288.28,92.22 289.523,90.977 Z" />
            <path d="M235.432,145.068 L244.977,135.523 C246.22,134.28 246.22,132.265 244.977,131.023 C243.735,129.78 241.72,129.78 240.477,131.023 L230.932,140.568 C229.689,141.811 229.689,143.825 230.932,145.068 C232.175,146.311 234.189,146.311 235.432,145.068 Z" />
            <path d="M244.61,139.655 C246.64,141.692 249.397,142.837 252.273,142.837 C255.148,142.837 257.906,141.692 259.936,139.655 L267.25,132.341 C268.492,131.098 268.492,129.084 267.25,127.841 L248.159,108.75 C246.916,107.508 244.902,107.508 243.659,108.75 L236.341,116.068 C234.308,118.094 233.163,120.852 233.163,123.727 C233.163,126.603 234.308,129.36 236.345,131.39 L244.614,139.659 Z M249.114,135.159 L240.841,126.886 C239.998,126.047 239.527,124.911 239.527,123.727 C239.527,122.543 239.998,121.408 240.837,120.572 L248.159,113.25 L243.659,113.25 L262.75,132.341 L262.75,127.841 L255.432,135.159 C254.592,136.002 253.457,136.473 252.273,136.473 C251.089,136.473 249.953,136.002 249.117,135.163 Z" />
            <path d="M252.932,118.023 L260.886,110.068 C262.129,108.825 262.129,106.811 260.886,105.568 C259.644,104.326 257.629,104.326 256.386,105.568 L248.432,113.523 C247.189,114.765 247.189,116.78 248.432,118.023 C249.675,119.265 251.689,119.265 252.932,118.023 Z" />
            <path d="M262.477,127.568 L270.432,119.614 C271.674,118.371 271.674,116.356 270.432,115.114 C269.189,113.871 267.174,113.871 265.932,115.114 L257.977,123.068 C256.735,124.311 256.735,126.325 257.977,127.568 C259.22,128.811 261.235,128.811 262.477,127.568 Z" />
            <path d="M262.75,94.159 L281.841,113.25 C283.084,114.492 285.098,114.492 286.341,113.25 L293.659,105.932 C295.692,103.906 296.837,101.148 296.837,98.273 C296.837,95.397 295.692,92.64 293.655,90.61 L285.386,82.341 C283.36,80.308 280.603,79.163 277.727,79.163 C274.852,79.163 272.094,80.308 270.064,82.345 L262.75,89.659 C261.508,90.902 261.508,92.916 262.75,94.159 Z M267.25,89.659 L267.25,94.159 L274.568,86.841 C275.408,85.998 276.543,85.527 277.727,85.527 C278.911,85.527 280.047,85.998 280.883,86.837 L289.159,95.114 C290.002,95.953 290.473,97.089 290.473,98.273 C290.473,99.457 290.002,100.592 289.163,101.428 L281.841,108.75 L286.341,108.75 L267.25,89.659 Z" />
        </g>
        <g id="Regular-M" transform="translate(0,200)">
            <path d="M489.523,90.977 L499.068,81.432 C500.311,80.189 500.311,78.175 499.068,76.932 C497.826,75.689 495.811,75.689 494.568,76.932 L485.023,86.477 C483.78,87.72 483.78,89.735 485.023,90.977 C486.265,92.22 488.28,92.22 489.523,90.977 Z" />
            <path d="M435.432,145.068 L444.977,135.523 C446.22,134.28 446.22,132.265 444.977,131.023 C443.735,129.78 441.72,129.78 440.477,131.023 L430.932,140.568 C429.689,141.811 429.689,143.825 430.932,145.068 C432.174,146.311 434.189,146.311 435.432,145.068 Z" />
            <path d="M444.61,139.655 C446.64,141.692 449.397,142.837 452.273,142.837 C455.148,142.837 457.906,141.692 459.936,139.655 L467.25,132.341 C468.492,131.098 468.492,129.084 467.25,127.841 L448.159,108.75 C446.916,107.508 444.902,107.508 443.659,108.75 L436.341,116.068 C434.308,118.094 433.163,120.852 433.163,123.727 C433.163,126.603 434.308,129.36 436.345,131.39 L444.614,139.659 Z M449.114,135.159 L440.841,126.886 C439.998,126.047 439.527,124.911 439.527,123.727 C439.527,122.543 439.998,121.408 440.837,120.572 L448.159,113.25 L443.659,113.25 L462.75,132.341 L462.75,127.841 L455.432,135.159 C454.592,136.002 453.457,136.473 452.273,136.473 C451.089,136.473 449.953,136.002 449.117,135.163 Z" />
            <path d="M452.932,118.023 L460.886,110.068 C462.129,108.825 462.129,106.811 460.886,105.568 C459.644,104.326 457.629,104.326 456.386,105.568 L448.432,113.523 C447.189,114.765 447.189,116.78 448.432,118.023 C449.674,119.265 451.689,119.265 452.932,118.023 Z" />
            <path d="M462.477,127.568 L470.432,119.614 C471.674,118.371 471.674,116.356 470.432,115.114 C469.189,113.871 467.174,113.871 465.932,115.114 L457.977,123.068 C456.735,124.311 456.735,126.325 457.977,127.568 C459.22,128.811 461.235,128.811 462.477,127.568 Z" />
            <path d="M462.75,94.159 L481.841,113.25 C483.084,114.492 485.098,114.492 486.341,113.25 L493.659,105.932 C495.692,103.906 496.837,101.148 496.837,98.273 C496.837,95.397 495.692,92.64 493.655,90.61 L485.386,82.341 C483.36,80.308 480.603,79.163 477.727,79.163 C474.852,79.163 472.094,80.308 470.064,82.345 L462.75,89.659 C461.508,90.902 461.508,92.916 462.75,94.159 Z M467.25,89.659 L467.25,94.159 L474.568,86.841 C475.408,85.998 476.543,85.527 477.727,85.527 C478.911,85.527 480.047,85.998 480.883,86.837 L489.159,95.114 C490.002,95.953 490.473,97.089 490.473,98.273 C490.473,99.457 490.002,100.592 489.163,101.428 L481.841,108.75 L486.341,108.75 L467.25,89.659 Z" />
        </g>
        <g id="Black-M" transform="translate(0,200)">
            <path d="M689.523,90.977 L699.068,81.432 C700.311,80.189 700.311,78.175 699.068,76.932 C697.826,75.689 695.811,75.689 694.568,76.932 L685.023,86.477 C683.78,87.72 683.78,89.735 685.023,90.977 C686.265,92.22 688.28,92.22 689.523,90.977 Z" />
            <path d="M635.432,145.068 L644.977,135.523 C646.22,134.28 646.22,132.265 644.977,131.023 C643.735,129.78 641.72,129.78 640.477,131.023 L630.932,140.568 C629.689,141.811 629.689,143.825 630.932,145.068 C632.174,146.311 634.189,146.311 635.432,145.068 Z" />
            <path d="M644.61,139.655 C646.64,141.692 649.397,142.837 652.273,142.837 C655.148,142.837 657.906,141.692 659.936,139.655 L667.25,132.341 C668.492,131.098 668.492,129.084 667.25,127.841 L648.159,108.75 C646.916,107.508 644.902,107.508 643.659,108.75 L636.341,116.068 C634.308,118.094 633.163,120.852 633.163,123.727 C633.163,126.603 634.308,129.36 636.345,131.39 L644.614,139.659 Z M649.114,135.159 L640.841,126.886 C639.998,126.047 639.527,124.911 639.527,123.727 C639.527,122.543 639.998,121.408 640.837,120.572 L648.159,113.25 L643.659,113.25 L662.75,132.341 L662.75,127.841 L655.432,135.159 C654.592,136.002 653.457,136.473 652.273,136.473 C651.089,136.473 649.953,136.002 649.117,135.163 Z" />
            <path d="M652.932,118.023 L660.886,110.068 C662.129,108.825 662.129,106.811 660.886,105.568 C659.644,104.326 657.629,104.326 656.386,105.568 L648.432,113.523 C647.189,114.765 647.189,116.78 648.432,118.023 C649.674,119.265 651.689,119.265 652.932,118.023 Z" />
            <path d="M662.477,127.568 L670.432,119.614 C671.674,118.371 671.674,116.356 670.432,115.114 C669.189,113.871 667.174,113.871 665.932,115.114 L657.977,123.068 C656.735,124.311 656.735,126.325 657.977,127.568 C659.22,128.811 661.235,128.811 662.477,127.568 Z" />
            <path d="M662.75,94.159 L681.841,113.25 C683.084,114.492 685.098,114.492 686.341,113.25 L693.659,105.932 C695.692,103.906 696.837,101.148 696.837,98.273 C696.837,95.397 695.692,92.64 693.655,90.61 L685.386,82.341 C683.36,80.308 680.603,79.163 677.727,79.163 C674.852,79.163 672.094,80.308 670.064,82.345 L662.75,89.659 C661.508,90.902 661.508,92.916 662.75,94.159 Z M667.25,89.659 L667.25,94.159 L674.568,86.841 C675.408,85.998 676.543,85.527 677.727,85.527 C678.911,85.527 680.047,85.998 680.883,86.837 L689.159,95.114 C690.002,95.953 690.473,97.089 690.473,98.273 C690.473,99.457 690.002,100.592 689.163,101.428 L681.841,108.75 L686.341,108.75 L667.25,89.659 Z" />
        </g>
    </g>
</svg>