<?xml version="1.0" encoding="UTF-8"?>
<svg height="600" width="800" xmlns="http://www.w3.org/2000/svg" xmlns:xlink="http://www.w3.org/1999/xlink">
    <g id="Notes" font-family="LucidaGrande, 'Lucida Grande', sans-serif" font-size="13">
        <rect fill="white" height="600.0" width="800.0" x="0.0" y="0.0" />
        <g font-size="13">
            <text x="18.0" y="176.0">Small</text>
            <text x="18.0" y="376.0">Medium</text>
            <text x="18.0" y="576.0">Large</text>
        </g>
        <g font-size="9">
            <text x="250.0" y="30.0">Ultralight</text>
            <text x="450.0" y="30.0">Regular</text>
            <text x="650.0" y="30.0">Black</text>
            <text id="template-version" fill="#505050" text-anchor="end" x="785.0" y="575.0">Template v.3.0</text>
            <a href="https://github.com/swhitty/SwiftDraw">
                <text fill="#505050" text-anchor="end" x="785.0" y="590.0">https://github.com/swhitty/SwiftDraw</text>
            </a>
        </g>
    </g>
    <g id="Guides" stroke="rgb(39, 170, 225)" stroke-width="0.5">
        <path id="Capline-S" d="M18,76 l800,0" />
        <path id="H-reference" d="M85,145.755 L87.685,145.755 L113.369,79.287 L114.052,79.287 L114.052,76 L112.148,76 L85,145.755 Z M95.693,121.536 L130.996,121.536 L130.263,119.313 L96.474,119.313 L95.693,121.536 Z M139.15,145.755 L141.787,145.755 L114.638,76 L113.466,76 L113.466,79.287 L139.15,145.755 Z" stroke="none" transform="translate(0,200)" />
        <path id="Baseline-S" d="M18,146 l800,0" />
        <path id="left-margin-Ultralight-M" d="M230,256 l0,110" />
        <path id="right-margin-Ultralight-M" d="M300,256 l0,110" />
        <path id="left-margin-Regular-M" d="M430,256 l0,110" />
        <path id="right-margin-Regular-M" d="M500,256 l0,110" />
        <path id="left-margin-Black-M" d="M630,256 l0,110" />
        <path id="right-margin-Black-M" d="M700,256 l0,110" />
        <path id="Capline-M" d="M18,276 l800,0" />
        <path id="Baseline-M" d="M18,346 l800,0" />
        <path id="Capline-L" d="M18,476 l800,0" />
        <path id="Baseline-L" d="M18,546 l800,0" />
    </g>
    <g id="Symbols">
        <g id="Ultralight-M" transform="translate(0,200)">
            <path d="M293.636,111 C293.636,118.029 287.938,123.727 280.909,123.727 C273.88,123.727 268.182,118.029 268.182,111 C268.182,100.456 259.635,91.909 249.091,91.909 C238.547,91.909 230,100.456 230,111 C230,112.757 231.425,114.182 233.182,114.182 C234.939,114.182 236.364,112.757 236.364,111 C236.364,103.971 242.062,98.273 249.091,98.273 C256.12,98.273 261.818,103.971 261.818,111 C261.818,121.544 270.365,130.091 280.909,130.091 C291.453,130.091 300,121.544 300,111 C300,109.243 298.575,107.818 296.818,107.818 C295.061,107.818 293.636,109.243 293.636,111 Z" />
            <path d="M250.676,135.923 C244.556,132.406 242.446,124.592 245.963,118.472 C249.481,112.351 257.294,110.241 263.415,113.759 C272.475,119.028 284.11,115.95 289.388,106.876 C294.666,97.801 291.588,86.166 282.513,80.888 C280.994,80.005 279.046,80.52 278.163,82.039 C277.279,83.558 277.795,85.506 279.314,86.389 C285.35,89.9 287.398,97.64 283.887,103.676 C280.376,109.713 272.636,111.76 266.6,108.25 C257.418,102.973 245.715,106.133 240.446,115.301 C235.177,124.469 238.338,136.172 247.505,141.441 C249.029,142.316 250.974,141.791 251.85,140.267 C252.725,138.744 252.2,136.799 250.676,135.923 Z" />
            <path d="M250.691,86.069 C256.727,82.558 264.467,84.605 267.978,90.642 C271.489,96.678 269.441,104.418 263.405,107.929 C254.329,113.203 251.248,124.837 256.523,133.914 C261.798,142.99 273.432,146.071 282.508,140.796 C284.027,139.913 284.543,137.966 283.66,136.447 C282.777,134.927 280.83,134.411 279.31,135.294 C273.273,138.803 265.534,136.754 262.025,130.716 C258.516,124.678 260.565,116.939 266.603,113.43 C275.679,108.152 278.756,96.517 273.479,87.442 C268.201,78.368 256.566,75.29 247.491,80.568 C245.972,81.451 245.457,83.399 246.34,84.918 C247.224,86.437 249.172,86.952 250.691,86.069 Z" />
            <path d="M236.364,111 C236.364,95.185 249.185,82.364 265,82.364 C280.815,82.364 293.636,95.185 293.636,111 C293.636,126.815 280.815,139.636 265,139.636 C249.185,139.636 236.364,126.815 236.364,111 Z M230,111 C230,130.33 245.67,146 265,146 C284.33,146 300,130.33 300,111 C300,91.67 284.33,76 265,76 C245.67,76 230,91.67 230,111 Z" />
        </g>
        <g id="Regular-M" transform="translate(0,200)">
            <path d="M493.636,111 C493.636,118.029 487.938,123.727 480.909,123.727 C473.88,123.727 468.182,118.029 468.182,111 C468.182,100.456 459.635,91.909 449.091,91.909 C438.547,91.909 430,100.456 430,111 C430,112.757 431.425,114.182 433.182,114.182 C434.939,114.182 436.364,112.757 436.364,111 C436.364,103.971 442.062,98.273 449.091,98.273 C456.12,98.273 461.818,103.971 461.818,111 C461.818,121.544 470.365,130.091 480.909,130.091 C491.453,130.091 500,121.544 500,111 C500,109.243 498.575,107.818 496.818,107.818 C495.061,107.818 493.636,109.243 493.636,111 Z" />
            <path d="M450.676,135.923 C444.556,132.406 442.446,124.592 445.963,118.472 C449.481,112.351 457.294,110.241 463.415,113.759 C472.475,119.028 484.11,115.95 489.388,106.876 C494.666,97.801 491.588,86.166 482.513,80.888 C480.994,80.005 479.046,80.52 478.163,82.039 C477.279,83.558 477.795,85.506 479.314,86.389 C485.35,89.9 487.398,97.64 483.887,103.676 C480.376,109.713 472.636,111.76 466.6,108.25 C457.418,102.973 445.715,106.133 440.446,115.301 C435.177,124.469 438.338,136.172 447.505,141.441 C449.029,142.316 450.974,141.791 451.85,140.267 C452.725,138.744 452.2,136.799 450.676,135.923 Z" />
            <path d="M450.691,86.069 C456.727,82.558 464.467,84.605 467.978,90.642 C471.489,96.678 469.441,104.418 463.405,107.929 C454.329,113.203 451.248,124.837 456.523,133.914 C461.798,142.99 473.432,146.071 482.508,140.796 C484.027,139.913 484.543,137.966 483.66,136.447 C482.777,134.927 480.83,134.411 479.31,135.294 C473.273,138.803 465.534,136.754 462.025,130.716 C458.516,124.678 460.565,116.939 466.603,113.43 C475.679,108.152 478.756,96.517 473.479,87.442 C468.201,78.368 456.566,75.29 447.491,80.568 C445.972,81.451 445.457,83.399 446.34,84.918 C447.224,86.437 449.172,86.952 450.691,86.069 Z" />
            <path d="M436.364,111 C436.364,95.185 449.185,82.364 465,82.364 C480.815,82.364 493.636,95.185 493.636,111 C493.636,126.815 480.815,139.636 465,139.636 C449.185,139.636 436.364,126.815 436.364,111 Z M430,111 C430,130.33 445.67,146 465,146 C484.33,146 500,130.33 500,111 C500,91.67 484.33,76 465,76 C445.67,76 430,91.67 430,111 Z" />
        </g>
        <g id="Black-M" transform="translate(0,200)">
            <path d="M693.636,111 C693.636,118.029 687.938,123.727 680.909,123.727 C673.88,123.727 668.182,118.029 668.182,111 C668.182,100.456 659.635,91.909 649.091,91.909 C638.547,91.909 630,100.456 630,111 C630,112.757 631.425,114.182 633.182,114.182 C634.939,114.182 636.364,112.757 636.364,111 C636.364,103.971 642.062,98.273 649.091,98.273 C656.12,98.273 661.818,103.971 661.818,111 C661.818,121.544 670.365,130.091 680.909,130.091 C691.453,130.091 700,121.544 700,111 C700,109.243 698.575,107.818 696.818,107.818 C695.061,107.818 693.636,109.243 693.636,111 Z" />
            <path d="M650.676,135.923 C644.556,132.406 642.446,124.592 645.963,118.472 C649.481,112.351 657.294,110.241 663.415,113.759 C672.475,119.028 684.11,115.95 689.388,106.876 C694.666,97.801 691.588,86.166 682.513,80.888 C680.994,80.005 679.046,80.52 678.163,82.039 C677.279,83.558 677.795,85.506 679.314,86.389 C685.35,89.9 687.398,97.64 683.887,103.676 C680.376,109.713 672.636,111.76 666.6,108.25 C657.418,102.973 645.715,106.133 640.446,115.301 C635.177,124.469 638.338,136.172 647.505,141.441 C649.029,142.316 650.974,141.791 651.85,140.267 C652.725,138.744 652.2,136.799 650.676,135.923 Z" />
            <path d="M650.691,86.069 C656.727,82.558 664.467,84.605 667.978,90.642 C671.489,96.678 669.441,104.418 663.405,107.929 C654.329,113.203 651.248,124.837 656.523,133.914 C661.798,142.99 673.432,146.071 682.508,140.796 C684.027,139.913 684.543,137.966 683.66,136.447 C682.777,134.927 680.83,134.411 679.31,135.294 C673.273,138.803 665.534,136.754 662.025,130.716 C658.516,124.678 660.565,116.939 666.603,113.43 C675.679,108.152 678.756,96.517 673.479,87.442 C668.201,78.368 656.566,75.29 647.491,80.568 C645.972,81.451 645.457,83.399 646.34,84.918 C647.224,86.437 649.172,86.952 650.691,86.069 Z" />
            <path d="M636.364,111 C636.364,95.185 649.185,82.364 665,82.364 C680.815,82.364 693.636,95.185 693.636,111 C693.636,126.815 680.815,139.636 665,139.636 C649.185,139.636 636.364,126.815 636.364,111 Z M630,111 C630,130.33 645.67,146 665,146 C684.33,146 700,130.33 700,111 C700,91.67 684.33,76 665,76 C645.67,76 630,91.67 630,111 Z" />
        </g>
    </g>
</svg>