<?xml version="1.0" encoding="UTF-8"?>
<svg height="600" width="800" xmlns="http://www.w3.org/2000/svg" xmlns:xlink="http://www.w3.org/1999/xlink">
    <g id="Notes" font-family="LucidaGrande, 'Lucida Grande', sans-serif" font-size="13">
        <rect fill="white" height="600.0" width="800.0" x="0.0" y="0.0" />
        <g font-size="13">
            <text x="18.0" y="176.0">Small</text>
            <text x="18.0" y="376.0">Medium</text>
            <text x="18.0" y="576.0">Large</text>
        </g>
        <g font-size="9">
            <text x="250.0" y="30.0">Ultralight</text>
            <text x="450.0" y="30.0">Regular</text>
            <text x="650.0" y="30.0">Black</text>
            <text id="template-version" fill="#505050" text-anchor="end" x="785.0" y="575.0">Template v.3.0</text>
            <a href="https://github.com/swhitty/SwiftDraw">
                <text fill="#505050" text-anchor="end" x="785.0" y="590.0">https://github.com/swhitty/SwiftDraw</text>
            </a>
        </g>
    </g>
    <g id="Guides" stroke="rgb(39, 170, 225)" stroke-width="0.5">
        <path id="Capline-S" d="M18,76 l800,0" />
        <path id="H-reference" d="M85,145.755 L87.685,145.755 L113.369,79.287 L114.052,79.287 L114.052,76 L112.148,76 L85,145.755 Z M95.693,121.536 L130.996,121.536 L130.263,119.313 L96.474,119.313 L95.693,121.536 Z M139.15,145.755 L141.787,145.755 L114.638,76 L113.466,76 L113.466,79.287 L139.15,145.755 Z" stroke="none" transform="translate(0,200)" />
        <path id="Baseline-S" d="M18,146 l800,0" />
        <path id="left-margin-Ultralight-M" d="M226.5,256 l0,110" />
        <path id="right-margin-Ultralight-M" d="M303.5,256 l0,110" />
        <path id="left-margin-Regular-M" d="M426.5,256 l0,110" />
        <path id="right-margin-Regular-M" d="M503.5,256 l0,110" />
        <path id="left-margin-Black-M" d="M626.5,256 l0,110" />
        <path id="right-margin-Black-M" d="M703.5,256 l0,110" />
        <path id="Capline-M" d="M18,276 l800,0" />
        <path id="Baseline-M" d="M18,346 l800,0" />
        <path id="Capline-L" d="M18,476 l800,0" />
        <path id="Baseline-L" d="M18,546 l800,0" />
    </g>
    <g id="Symbols">
        <g id="Ultralight-M" transform="translate(0,200)">
            <path d="M233.5,142.5 C233.5,132.867 239.143,124.13 247.921,120.168 C256.7,116.206 266.985,117.754 274.208,124.126 C275.657,125.404 277.869,125.266 279.148,123.816 C280.427,122.367 280.288,120.155 278.839,118.876 C269.552,110.685 256.328,108.693 245.042,113.787 C233.755,118.881 226.5,130.116 226.5,142.5 C226.5,144.433 228.067,146 230,146 C231.933,146 233.5,144.433 233.5,142.5 Z" />
            <path d="M244,97 C244,89.268 250.268,83 258,83 C265.732,83 272,89.268 272,97 C272,104.732 265.732,111 258,111 C250.268,111 244,104.732 244,97 Z M237,97 C237,108.598 246.402,118 258,118 C269.598,118 279,108.598 279,97 C279,85.402 269.598,76 258,76 C246.402,76 237,85.402 237,97 Z" />
            <path d="M300,132 L279,132 C277.067,132 275.5,133.567 275.5,135.5 C275.5,137.433 277.067,139 279,139 L300,139 C301.933,139 303.5,137.433 303.5,135.5 C303.5,133.567 301.933,132 300,132 Z" />
        </g>
        <g id="Regular-M" transform="translate(0,200)">
            <path d="M433.5,142.5 C433.5,132.867 439.143,124.13 447.921,120.168 C456.7,116.206 466.985,117.754 474.208,124.126 C475.657,125.404 477.869,125.266 479.148,123.816 C480.427,122.367 480.288,120.155 478.839,118.876 C469.552,110.685 456.328,108.693 445.042,113.787 C433.755,118.881 426.5,130.116 426.5,142.5 C426.5,144.433 428.067,146 430,146 C431.933,146 433.5,144.433 433.5,142.5 Z" />
            <path d="M444,97 C444,89.268 450.268,83 458,83 C465.732,83 472,89.268 472,97 C472,104.732 465.732,111 458,111 C450.268,111 444,104.732 444,97 Z M437,97 C437,108.598 446.402,118 458,118 C469.598,118 479,108.598 479,97 C479,85.402 469.598,76 458,76 C446.402,76 437,85.402 437,97 Z" />
            <path d="M500,132 L479,132 C477.067,132 475.5,133.567 475.5,135.5 C475.5,137.433 477.067,139 479,139 L500,139 C501.933,139 503.5,137.433 503.5,135.5 C503.5,133.567 501.933,132 500,132 Z" />
        </g>
        <g id="Black-M" transform="translate(0,200)">
            <path d="M633.5,142.5 C633.5,132.867 639.143,124.13 647.921,120.168 C656.7,116.206 666.985,117.754 674.208,124.126 C675.657,125.404 677.869,125.266 679.148,123.816 C680.427,122.367 680.288,120.155 678.839,118.876 C669.552,110.685 656.328,108.693 645.042,113.787 C633.755,118.881 626.5,130.116 626.5,142.5 C626.5,144.433 628.067,146 630,146 C631.933,146 633.5,144.433 633.5,142.5 Z" />
            <path d="M644,97 C644,89.268 650.268,83 658,83 C665.732,83 672,89.268 672,97 C672,104.732 665.732,111 658,111 C650.268,111 644,104.732 644,97 Z M637,97 C637,108.598 646.402,118 658,118 C669.598,118 679,108.598 679,97 C679,85.402 669.598,76 658,76 C646.402,76 637,85.402 637,97 Z" />
            <path d="M700,132 L679,132 C677.067,132 675.5,133.567 675.5,135.5 C675.5,137.433 677.067,139 679,139 L700,139 C701.933,139 703.5,137.433 703.5,135.5 C703.5,133.567 701.933,132 700,132 Z" />
        </g>
    </g>
</svg>