<?xml version="1.0" encoding="UTF-8"?>
<svg height="600" width="800" xmlns="http://www.w3.org/2000/svg" xmlns:xlink="http://www.w3.org/1999/xlink">
    <g id="Notes" font-family="LucidaGrande, 'Lucida Grande', sans-serif" font-size="13">
        <rect fill="white" height="600.0" width="800.0" x="0.0" y="0.0" />
        <g font-size="13">
            <text x="18.0" y="176.0">Small</text>
            <text x="18.0" y="376.0">Medium</text>
            <text x="18.0" y="576.0">Large</text>
        </g>
        <g font-size="9">
            <text x="250.0" y="30.0">Ultralight</text>
            <text x="450.0" y="30.0">Regular</text>
            <text x="650.0" y="30.0">Black</text>
            <text id="template-version" fill="#505050" text-anchor="end" x="785.0" y="575.0">Template v.3.0</text>
            <a href="https://github.com/swhitty/SwiftDraw">
                <text fill="#505050" text-anchor="end" x="785.0" y="590.0">https://github.com/swhitty/SwiftDraw</text>
            </a>
        </g>
    </g>
    <g id="Guides" stroke="rgb(39, 170, 225)" stroke-width="0.5">
        <path id="Capline-S" d="M18,76 l800,0" />
        <path id="H-reference" d="M85,145.755 L87.685,145.755 L113.369,79.287 L114.052,79.287 L114.052,76 L112.148,76 L85,145.755 Z M95.693,121.536 L130.996,121.536 L130.263,119.313 L96.474,119.313 L95.693,121.536 Z M139.15,145.755 L141.787,145.755 L114.638,76 L113.466,76 L113.466,79.287 L139.15,145.755 Z" stroke="none" transform="translate(0,200)" />
        <path id="Baseline-S" d="M18,146 l800,0" />
        <path id="left-margin-Ultralight-M" d="M226.5,256 l0,110" />
        <path id="right-margin-Ultralight-M" d="M303.5,256 l0,110" />
        <path id="left-margin-Regular-M" d="M426.5,256 l0,110" />
        <path id="right-margin-Regular-M" d="M503.5,256 l0,110" />
        <path id="left-margin-Black-M" d="M626.5,256 l0,110" />
        <path id="right-margin-Black-M" d="M703.5,256 l0,110" />
        <path id="Capline-M" d="M18,276 l800,0" />
        <path id="Baseline-M" d="M18,346 l800,0" />
        <path id="Capline-L" d="M18,476 l800,0" />
        <path id="Baseline-L" d="M18,546 l800,0" />
    </g>
    <g id="Symbols">
        <g id="Ultralight-M" transform="translate(0,200)">
            <path d="M279,135.5 C279,136.428 278.631,137.318 277.975,137.975 C277.318,138.631 276.428,139 275.5,139 L237,139 C236.072,139 235.182,138.631 234.525,137.975 C233.869,137.318 233.5,136.428 233.5,135.5 L233.5,107.5 C233.5,106.25 234.167,105.094 235.25,104.469 C236.924,103.503 237.497,101.362 236.531,99.688 C235.564,98.014 233.424,97.44 231.75,98.407 C228.501,100.283 226.5,103.749 226.5,107.5 L226.5,135.5 C226.5,138.285 227.606,140.955 229.575,142.925 C231.545,144.894 234.215,146 237,146 L275.5,146 C278.285,146 280.955,144.894 282.925,142.925 C284.894,140.955 286,138.285 286,135.5 C286,133.567 284.433,132 282.5,132 C280.567,132 279,133.567 279,135.5 Z" />
            <path d="M298.09,85.317 L275.624,99.943 C274.489,100.672 273.011,100.672 271.858,99.932 L249.41,85.317 C247.79,84.262 245.621,84.72 244.567,86.34 C243.512,87.96 243.97,90.129 245.59,91.183 L268.057,105.81 C271.532,108.042 275.968,108.042 279.425,105.821 L301.91,91.183 C303.53,90.129 303.988,87.96 302.933,86.34 C301.879,84.72 299.71,84.262 298.09,85.317 Z" />
            <path d="M296.5,100.5 L296.5,114.5 C296.5,115.428 296.131,116.318 295.475,116.975 C294.818,117.631 293.928,118 293,118 L254.5,118 C253.572,118 252.682,117.631 252.025,116.975 C251.369,116.318 251,115.428 251,114.5 L251,86.5 C251,85.572 251.369,84.682 252.025,84.025 C252.682,83.369 253.572,83 254.5,83 L293,83 C293.928,83 294.818,83.369 295.475,84.025 C296.131,84.682 296.5,85.572 296.5,86.5 L296.5,100.5 Z M303.5,100.5 L303.5,86.5 C303.5,83.715 302.394,81.045 300.425,79.075 C298.456,77.106 295.785,76 293,76 L254.5,76 C251.715,76 249.045,77.106 247.075,79.075 C245.106,81.045 244,83.715 244,86.5 L244,114.5 C244,117.285 245.106,119.955 247.075,121.925 C249.045,123.894 251.715,125 254.5,125 L293,125 C295.785,125 298.456,123.894 300.425,121.925 C302.394,119.955 303.5,117.285 303.5,114.5 L303.5,100.5 Z" />
        </g>
        <g id="Regular-M" transform="translate(0,200)">
            <path d="M479,135.5 C479,136.428 478.631,137.318 477.975,137.975 C477.318,138.631 476.428,139 475.5,139 L437,139 C436.072,139 435.182,138.631 434.525,137.975 C433.869,137.318 433.5,136.428 433.5,135.5 L433.5,107.5 C433.5,106.25 434.167,105.094 435.25,104.469 C436.924,103.503 437.497,101.362 436.531,99.688 C435.564,98.014 433.424,97.44 431.75,98.407 C428.501,100.283 426.5,103.749 426.5,107.5 L426.5,135.5 C426.5,138.285 427.606,140.955 429.575,142.925 C431.545,144.894 434.215,146 437,146 L475.5,146 C478.285,146 480.955,144.894 482.925,142.925 C484.894,140.955 486,138.285 486,135.5 C486,133.567 484.433,132 482.5,132 C480.567,132 479,133.567 479,135.5 Z" />
            <path d="M498.09,85.317 L475.624,99.943 C474.489,100.672 473.011,100.672 471.858,99.932 L449.41,85.317 C447.79,84.262 445.621,84.72 444.567,86.34 C443.512,87.96 443.97,90.129 445.59,91.183 L468.057,105.81 C471.532,108.042 475.968,108.042 479.425,105.821 L501.91,91.183 C503.53,90.129 503.988,87.96 502.933,86.34 C501.879,84.72 499.71,84.262 498.09,85.317 Z" />
            <path d="M496.5,100.5 L496.5,114.5 C496.5,115.428 496.131,116.318 495.475,116.975 C494.818,117.631 493.928,118 493,118 L454.5,118 C453.572,118 452.682,117.631 452.025,116.975 C451.369,116.318 451,115.428 451,114.5 L451,86.5 C451,85.572 451.369,84.682 452.025,84.025 C452.682,83.369 453.572,83 454.5,83 L493,83 C493.928,83 494.818,83.369 495.475,84.025 C496.131,84.682 496.5,85.572 496.5,86.5 L496.5,100.5 Z M503.5,100.5 L503.5,86.5 C503.5,83.715 502.394,81.045 500.425,79.075 C498.456,77.106 495.785,76 493,76 L454.5,76 C451.715,76 449.045,77.106 447.075,79.075 C445.106,81.045 444,83.715 444,86.5 L444,114.5 C444,117.285 445.106,119.955 447.075,121.925 C449.044,123.894 451.715,125 454.5,125 L493,125 C495.785,125 498.456,123.894 500.425,121.925 C502.394,119.955 503.5,117.285 503.5,114.5 L503.5,100.5 Z" />
        </g>
        <g id="Black-M" transform="translate(0,200)">
            <path d="M679,135.5 C679,136.428 678.631,137.318 677.975,137.975 C677.318,138.631 676.428,139 675.5,139 L637,139 C636.072,139 635.182,138.631 634.525,137.975 C633.869,137.318 633.5,136.428 633.5,135.5 L633.5,107.5 C633.5,106.25 634.167,105.094 635.25,104.469 C636.924,103.503 637.497,101.362 636.531,99.688 C635.564,98.014 633.424,97.44 631.75,98.407 C628.501,100.283 626.5,103.749 626.5,107.5 L626.5,135.5 C626.5,138.285 627.606,140.955 629.575,142.925 C631.544,144.894 634.215,146 637,146 L675.5,146 C678.285,146 680.956,144.894 682.925,142.925 C684.894,140.955 686,138.285 686,135.5 C686,133.567 684.433,132 682.5,132 C680.567,132 679,133.567 679,135.5 Z" />
            <path d="M698.09,85.317 L675.624,99.943 C674.489,100.672 673.011,100.672 671.858,99.932 L649.41,85.317 C647.79,84.262 645.621,84.72 644.567,86.34 C643.512,87.96 643.97,90.129 645.59,91.183 L668.057,105.81 C671.532,108.042 675.968,108.042 679.425,105.821 L701.91,91.183 C703.53,90.129 703.988,87.96 702.933,86.34 C701.879,84.72 699.71,84.262 698.09,85.317 Z" />
            <path d="M696.5,100.5 L696.5,114.5 C696.5,115.428 696.131,116.318 695.475,116.975 C694.818,117.631 693.928,118 693,118 L654.5,118 C653.572,118 652.682,117.631 652.025,116.975 C651.369,116.318 651,115.428 651,114.5 L651,86.5 C651,85.572 651.369,84.682 652.025,84.025 C652.682,83.369 653.572,83 654.5,83 L693,83 C693.928,83 694.818,83.369 695.475,84.025 C696.131,84.682 696.5,85.572 696.5,86.5 L696.5,100.5 Z M703.5,100.5 L703.5,86.5 C703.5,83.715 702.394,81.045 700.425,79.075 C698.456,77.106 695.785,76 693,76 L654.5,76 C651.715,76 649.044,77.106 647.075,79.075 C645.106,81.045 644,83.715 644,86.5 L644,114.5 C644,117.285 645.106,119.955 647.075,121.925 C649.044,123.894 651.715,125 654.5,125 L693,125 C695.785,125 698.456,123.894 700.425,121.925 C702.394,119.955 703.5,117.285 703.5,114.5 L703.5,100.5 Z" />
        </g>
    </g>
</svg>