<?xml version="1.0" encoding="UTF-8"?>
<svg height="600" width="800" xmlns="http://www.w3.org/2000/svg" xmlns:xlink="http://www.w3.org/1999/xlink">
    <g id="Notes" font-family="LucidaGrande, 'Lucida Grande', sans-serif" font-size="13">
        <rect fill="white" height="600.0" width="800.0" x="0.0" y="0.0" />
        <g font-size="13">
            <text x="18.0" y="176.0">Small</text>
            <text x="18.0" y="376.0">Medium</text>
            <text x="18.0" y="576.0">Large</text>
        </g>
        <g font-size="9">
            <text x="250.0" y="30.0">Ultralight</text>
            <text x="450.0" y="30.0">Regular</text>
            <text x="650.0" y="30.0">Black</text>
            <text id="template-version" fill="#505050" text-anchor="end" x="785.0" y="575.0">Template v.3.0</text>
            <a href="https://github.com/swhitty/SwiftDraw">
                <text fill="#505050" text-anchor="end" x="785.0" y="590.0">https://github.com/swhitty/SwiftDraw</text>
            </a>
        </g>
    </g>
    <g id="Guides" stroke="rgb(39, 170, 225)" stroke-width="0.5">
        <path id="Capline-S" d="M18,76 l800,0" />
        <path id="H-reference" d="M85,145.755 L87.685,145.755 L113.369,79.287 L114.052,79.287 L114.052,76 L112.148,76 L85,145.755 Z M95.693,121.536 L130.996,121.536 L130.263,119.313 L96.474,119.313 L95.693,121.536 Z M139.15,145.755 L141.787,145.755 L114.638,76 L113.466,76 L113.466,79.287 L139.15,145.755 Z" stroke="none" transform="translate(0,200)" />
        <path id="Baseline-S" d="M18,146 l800,0" />
        <path id="left-margin-Ultralight-M" d="M222.222,256 l0,110" />
        <path id="right-margin-Ultralight-M" d="M307.778,256 l0,110" />
        <path id="left-margin-Regular-M" d="M422.222,256 l0,110" />
        <path id="right-margin-Regular-M" d="M507.778,256 l0,110" />
        <path id="left-margin-Black-M" d="M622.222,256 l0,110" />
        <path id="right-margin-Black-M" d="M707.778,256 l0,110" />
        <path id="Capline-M" d="M18,276 l800,0" />
        <path id="Baseline-M" d="M18,346 l800,0" />
        <path id="Capline-L" d="M18,476 l800,0" />
        <path id="Baseline-L" d="M18,546 l800,0" />
    </g>
    <g id="Symbols">
        <g id="Ultralight-M" transform="translate(0,200)">
            <path d="M261.111,79.889 L261.111,126.556 C261.111,128.703 262.852,130.444 265,130.444 C267.148,130.444 268.889,128.703 268.889,126.556 L268.889,79.889 C268.889,77.741 267.148,76 265,76 C262.852,76 261.111,77.741 261.111,79.889 Z" />
            <path d="M246.695,113.75 L262.25,129.305 C263.769,130.824 266.231,130.824 267.75,129.305 L283.305,113.75 C284.824,112.231 284.824,109.769 283.305,108.25 C281.787,106.731 279.324,106.731 277.806,108.25 L262.25,123.806 L267.75,123.806 L252.194,108.25 C250.676,106.731 248.213,106.731 246.695,108.25 C245.176,109.769 245.176,112.231 246.695,113.75 Z" />
            <path d="M249.444,83.778 L233.889,83.778 C230.795,83.778 227.827,85.007 225.639,87.195 C223.451,89.383 222.222,92.35 222.222,95.444 L222.222,134.333 C222.222,137.428 223.451,140.395 225.639,142.583 C227.827,144.771 230.795,146 233.889,146 L296.111,146 C299.205,146 302.173,144.771 304.361,142.583 C306.549,140.395 307.778,137.428 307.778,134.333 L307.778,95.444 C307.778,92.35 306.549,89.383 304.361,87.195 C302.173,85.007 299.205,83.778 296.111,83.778 L280.556,83.778 C278.408,83.778 276.667,85.519 276.667,87.667 C276.667,89.814 278.408,91.556 280.556,91.556 L296.111,91.556 C297.143,91.556 298.132,91.965 298.861,92.695 C299.59,93.424 300,94.413 300,95.444 L300,134.333 C300,135.365 299.59,136.354 298.861,137.083 C298.132,137.812 297.143,138.222 296.111,138.222 L233.889,138.222 C232.857,138.222 231.868,137.812 231.139,137.083 C230.41,136.354 230,135.365 230,134.333 L230,95.444 C230,94.413 230.41,93.424 231.139,92.695 C231.868,91.965 232.857,91.556 233.889,91.556 L249.444,91.556 C251.592,91.556 253.333,89.814 253.333,87.667 C253.333,85.519 251.592,83.778 249.444,83.778 Z" />
        </g>
        <g id="Regular-M" transform="translate(0,200)">
            <path d="M461.111,79.889 L461.111,126.556 C461.111,128.703 462.852,130.444 465,130.444 C467.148,130.444 468.889,128.703 468.889,126.556 L468.889,79.889 C468.889,77.741 467.148,76 465,76 C462.852,76 461.111,77.741 461.111,79.889 Z" />
            <path d="M446.695,113.75 L462.25,129.305 C463.769,130.824 466.231,130.824 467.75,129.305 L483.305,113.75 C484.824,112.231 484.824,109.769 483.305,108.25 C481.787,106.731 479.324,106.731 477.806,108.25 L462.25,123.806 L467.75,123.806 L452.194,108.25 C450.676,106.731 448.213,106.731 446.695,108.25 C445.176,109.769 445.176,112.231 446.695,113.75 Z" />
            <path d="M449.444,83.778 L433.889,83.778 C430.795,83.778 427.827,85.007 425.639,87.195 C423.451,89.383 422.222,92.35 422.222,95.444 L422.222,134.333 C422.222,137.428 423.451,140.395 425.639,142.583 C427.827,144.771 430.795,146 433.889,146 L496.111,146 C499.205,146 502.173,144.771 504.361,142.583 C506.549,140.395 507.778,137.428 507.778,134.333 L507.778,95.444 C507.778,92.35 506.549,89.383 504.361,87.195 C502.173,85.007 499.205,83.778 496.111,83.778 L480.556,83.778 C478.408,83.778 476.667,85.519 476.667,87.667 C476.667,89.814 478.408,91.556 480.556,91.556 L496.111,91.556 C497.143,91.556 498.132,91.965 498.861,92.695 C499.59,93.424 500,94.413 500,95.444 L500,134.333 C500,135.365 499.59,136.354 498.861,137.083 C498.132,137.812 497.143,138.222 496.111,138.222 L433.889,138.222 C432.857,138.222 431.868,137.812 431.139,137.083 C430.41,136.354 430,135.365 430,134.333 L430,95.444 C430,94.413 430.41,93.424 431.139,92.695 C431.868,91.965 432.857,91.556 433.889,91.556 L449.444,91.556 C451.592,91.556 453.333,89.814 453.333,87.667 C453.333,85.519 451.592,83.778 449.444,83.778 Z" />
        </g>
        <g id="Black-M" transform="translate(0,200)">
            <path d="M661.111,79.889 L661.111,126.556 C661.111,128.703 662.852,130.444 665,130.444 C667.148,130.444 668.889,128.703 668.889,126.556 L668.889,79.889 C668.889,77.741 667.148,76 665,76 C662.852,76 661.111,77.741 661.111,79.889 Z" />
            <path d="M646.695,113.75 L662.25,129.305 C663.769,130.824 666.231,130.824 667.75,129.305 L683.305,113.75 C684.824,112.231 684.824,109.769 683.305,108.25 C681.787,106.731 679.324,106.731 677.806,108.25 L662.25,123.806 L667.75,123.806 L652.194,108.25 C650.676,106.731 648.213,106.731 646.695,108.25 C645.176,109.769 645.176,112.231 646.695,113.75 Z" />
            <path d="M649.444,83.778 L633.889,83.778 C630.795,83.778 627.827,85.007 625.639,87.195 C623.451,89.383 622.222,92.35 622.222,95.444 L622.222,134.333 C622.222,137.428 623.451,140.395 625.639,142.583 C627.827,144.771 630.795,146 633.889,146 L696.111,146 C699.205,146 702.173,144.771 704.361,142.583 C706.549,140.395 707.778,137.428 707.778,134.333 L707.778,95.444 C707.778,92.35 706.549,89.383 704.361,87.195 C702.173,85.007 699.205,83.778 696.111,83.778 L680.556,83.778 C678.408,83.778 676.667,85.519 676.667,87.667 C676.667,89.814 678.408,91.556 680.556,91.556 L696.111,91.556 C697.143,91.556 698.132,91.965 698.861,92.695 C699.59,93.424 700,94.413 700,95.444 L700,134.333 C700,135.365 699.59,136.354 698.861,137.083 C698.132,137.812 697.143,138.222 696.111,138.222 L633.889,138.222 C632.857,138.222 631.868,137.812 631.139,137.083 C630.41,136.354 630,135.365 630,134.333 L630,95.444 C630,94.413 630.41,93.424 631.139,92.695 C631.868,91.965 632.857,91.556 633.889,91.556 L649.444,91.556 C651.592,91.556 653.333,89.814 653.333,87.667 C653.333,85.519 651.592,83.778 649.444,83.778 Z" />
        </g>
    </g>
</svg>