<?xml version="1.0" encoding="UTF-8"?>
<svg height="600" width="800" xmlns="http://www.w3.org/2000/svg" xmlns:xlink="http://www.w3.org/1999/xlink">
    <g id="Notes" font-family="LucidaGrande, 'Lucida Grande', sans-serif" font-size="13">
        <rect fill="white" height="600.0" width="800.0" x="0.0" y="0.0" />
        <g font-size="13">
            <text x="18.0" y="176.0">Small</text>
            <text x="18.0" y="376.0">Medium</text>
            <text x="18.0" y="576.0">Large</text>
        </g>
        <g font-size="9">
            <text x="250.0" y="30.0">Ultralight</text>
            <text x="450.0" y="30.0">Regular</text>
            <text x="650.0" y="30.0">Black</text>
            <text id="template-version" fill="#505050" text-anchor="end" x="785.0" y="575.0">Template v.3.0</text>
            <a href="https://github.com/swhitty/SwiftDraw">
                <text fill="#505050" text-anchor="end" x="785.0" y="590.0">https://github.com/swhitty/SwiftDraw</text>
            </a>
        </g>
    </g>
    <g id="Guides" stroke="rgb(39, 170, 225)" stroke-width="0.5">
        <path id="Capline-S" d="M18,76 l800,0" />
        <path id="H-reference" d="M85,145.755 L87.685,145.755 L113.369,79.287 L114.052,79.287 L114.052,76 L112.148,76 L85,145.755 Z M95.693,121.536 L130.996,121.536 L130.263,119.313 L96.474,119.313 L95.693,121.536 Z M139.15,145.755 L141.787,145.755 L114.638,76 L113.466,76 L113.466,79.287 L139.15,145.755 Z" stroke="none" transform="translate(0,200)" />
        <path id="Baseline-S" d="M18,146 l800,0" />
        <path id="left-margin-Ultralight-M" d="M230,256 l0,110" />
        <path id="right-margin-Ultralight-M" d="M300,256 l0,110" />
        <path id="left-margin-Regular-M" d="M430,256 l0,110" />
        <path id="right-margin-Regular-M" d="M500,256 l0,110" />
        <path id="left-margin-Black-M" d="M630,256 l0,110" />
        <path id="right-margin-Black-M" d="M700,256 l0,110" />
        <path id="Capline-M" d="M18,276 l800,0" />
        <path id="Baseline-M" d="M18,346 l800,0" />
        <path id="Capline-L" d="M18,476 l800,0" />
        <path id="Baseline-L" d="M18,546 l800,0" />
    </g>
    <g id="Symbols">
        <g id="Ultralight-M" transform="translate(0,200)">
            <path d="M263.672,76.82 C256.16,74.313 247.948,77.714 244.407,84.798 L231.681,110.25 C228.093,117.426 230.41,126.151 237.086,130.601 L256.176,143.328 C261.519,146.891 268.482,146.891 273.826,143.327 L292.916,130.601 C298.883,126.622 301.45,119.143 299.184,112.338 L292.82,93.248 C291.237,88.497 287.509,84.769 282.758,83.186 L263.672,76.82 Z M261.659,82.856 L280.745,89.222 C283.597,90.173 285.833,92.409 286.783,95.26 L293.147,114.35 C294.506,118.432 292.966,122.919 289.386,125.307 L270.296,138.033 C267.089,140.171 262.912,140.171 259.706,138.033 L240.615,125.306 C236.61,122.636 235.22,117.402 237.372,113.096 L250.099,87.643 C252.224,83.392 257.151,81.352 261.658,82.856 Z" />
            <path d="M268.094,143.445 L274.49,111.629 L270.171,113.949 L295.058,124.079 C296.685,124.742 298.542,123.959 299.204,122.332 C299.867,120.704 299.084,118.848 297.457,118.185 L272.57,108.055 C270.721,107.303 268.644,108.418 268.251,110.375 L261.856,142.191 C261.51,143.914 262.625,145.591 264.348,145.938 C266.071,146.284 267.748,145.168 268.094,143.445 Z" />
            <path d="M274.134,109.426 L256.54,78.57 C255.669,77.044 253.726,76.512 252.2,77.383 C250.673,78.253 250.141,80.196 251.012,81.723 L268.606,112.578 C269.477,114.104 271.42,114.636 272.946,113.766 C274.473,112.895 275.005,110.952 274.134,109.426 Z" />
        </g>
        <g id="Regular-M" transform="translate(0,200)">
            <path d="M463.672,76.82 C456.16,74.313 447.948,77.714 444.407,84.798 L431.681,110.25 C428.093,117.426 430.41,126.151 437.086,130.601 L456.176,143.328 C461.519,146.891 468.482,146.891 473.826,143.327 L492.916,130.601 C498.883,126.622 501.45,119.143 499.184,112.338 L492.82,93.248 C491.237,88.497 487.509,84.769 482.758,83.186 L463.672,76.82 Z M461.659,82.856 L480.745,89.222 C483.597,90.173 485.833,92.409 486.783,95.26 L493.147,114.35 C494.506,118.432 492.966,122.919 489.386,125.307 L470.296,138.033 C467.089,140.171 462.912,140.171 459.706,138.033 L440.615,125.306 C436.61,122.636 435.22,117.402 437.372,113.096 L450.099,87.643 C452.224,83.392 457.151,81.352 461.658,82.856 Z" />
            <path d="M468.094,143.445 L474.49,111.629 L470.171,113.949 L495.058,124.079 C496.685,124.742 498.542,123.959 499.204,122.332 C499.867,120.704 499.084,118.848 497.457,118.185 L472.57,108.055 C470.721,107.303 468.644,108.418 468.251,110.375 L461.856,142.191 C461.51,143.914 462.625,145.591 464.348,145.938 C466.071,146.284 467.748,145.168 468.094,143.445 Z" />
            <path d="M474.134,109.426 L456.54,78.57 C455.669,77.044 453.726,76.512 452.2,77.383 C450.673,78.253 450.141,80.196 451.012,81.723 L468.606,112.578 C469.477,114.104 471.42,114.636 472.946,113.766 C474.473,112.895 475.005,110.952 474.134,109.426 Z" />
        </g>
        <g id="Black-M" transform="translate(0,200)">
            <path d="M663.672,76.82 C656.16,74.313 647.948,77.714 644.407,84.798 L631.681,110.25 C628.093,117.426 630.41,126.151 637.086,130.601 L656.176,143.328 C661.519,146.891 668.482,146.891 673.826,143.327 L692.916,130.601 C698.883,126.622 701.45,119.143 699.184,112.338 L692.82,93.248 C691.237,88.497 687.509,84.769 682.758,83.186 L663.672,76.82 Z M661.659,82.856 L680.745,89.222 C683.597,90.173 685.833,92.409 686.783,95.26 L693.147,114.35 C694.506,118.432 692.966,122.919 689.386,125.307 L670.296,138.033 C667.089,140.171 662.912,140.171 659.706,138.033 L640.615,125.306 C636.61,122.636 635.22,117.402 637.372,113.096 L650.099,87.643 C652.224,83.392 657.151,81.352 661.658,82.856 Z" />
            <path d="M668.094,143.445 L674.49,111.629 L670.171,113.949 L695.058,124.079 C696.685,124.742 698.542,123.959 699.204,122.332 C699.867,120.704 699.084,118.848 697.457,118.185 L672.57,108.055 C670.721,107.303 668.644,108.418 668.251,110.375 L661.856,142.191 C661.51,143.914 662.625,145.591 664.348,145.938 C666.071,146.284 667.748,145.168 668.094,143.445 Z" />
            <path d="M674.134,109.426 L656.54,78.57 C655.669,77.044 653.726,76.512 652.2,77.383 C650.673,78.253 650.141,80.196 651.012,81.723 L668.606,112.578 C669.477,114.104 671.42,114.636 672.946,113.766 C674.473,112.895 675.005,110.952 674.134,109.426 Z" />
        </g>
    </g>
</svg>