<?xml version="1.0" encoding="UTF-8"?>
<svg height="600" width="800" xmlns="http://www.w3.org/2000/svg" xmlns:xlink="http://www.w3.org/1999/xlink">
    <g id="Notes" font-family="LucidaGrande, 'Lucida Grande', sans-serif" font-size="13">
        <rect fill="white" height="600.0" width="800.0" x="0.0" y="0.0" />
        <g font-size="13">
            <text x="18.0" y="176.0">Small</text>
            <text x="18.0" y="376.0">Medium</text>
            <text x="18.0" y="576.0">Large</text>
        </g>
        <g font-size="9">
            <text x="250.0" y="30.0">Ultralight</text>
            <text x="450.0" y="30.0">Regular</text>
            <text x="650.0" y="30.0">Black</text>
            <text id="template-version" fill="#505050" text-anchor="end" x="785.0" y="575.0">Template v.3.0</text>
            <a href="https://github.com/swhitty/SwiftDraw">
                <text fill="#505050" text-anchor="end" x="785.0" y="590.0">https://github.com/swhitty/SwiftDraw</text>
            </a>
        </g>
    </g>
    <g id="Guides" stroke="rgb(39, 170, 225)" stroke-width="0.5">
        <path id="Capline-S" d="M18,76 l800,0" />
        <path id="H-reference" d="M85,145.755 L87.685,145.755 L113.369,79.287 L114.052,79.287 L114.052,76 L112.148,76 L85,145.755 Z M95.693,121.536 L130.996,121.536 L130.263,119.313 L96.474,119.313 L95.693,121.536 Z M139.15,145.755 L141.787,145.755 L114.638,76 L113.466,76 L113.466,79.287 L139.15,145.755 Z" stroke="none" transform="translate(0,200)" />
        <path id="Baseline-S" d="M18,146 l800,0" />
        <path id="left-margin-Ultralight-M" d="M231.75,256 l0,110" />
        <path id="right-margin-Ultralight-M" d="M298.25,256 l0,110" />
        <path id="left-margin-Regular-M" d="M431.75,256 l0,110" />
        <path id="right-margin-Regular-M" d="M498.25,256 l0,110" />
        <path id="left-margin-Black-M" d="M631.75,256 l0,110" />
        <path id="right-margin-Black-M" d="M698.25,256 l0,110" />
        <path id="Capline-M" d="M18,276 l800,0" />
        <path id="Baseline-M" d="M18,346 l800,0" />
        <path id="Capline-L" d="M18,476 l800,0" />
        <path id="Baseline-L" d="M18,546 l800,0" />
    </g>
    <g id="Symbols">
        <g id="Ultralight-M" transform="translate(0,200)">
            <path d="M238.75,90 C238.75,86.134 241.884,83 245.75,83 C249.616,83 252.75,86.134 252.75,90 C252.75,93.866 249.616,97 245.75,97 C241.884,97 238.75,93.866 238.75,90 Z M231.75,90 C231.75,97.732 238.018,104 245.75,104 C253.482,104 259.75,97.732 259.75,90 C259.75,82.268 253.482,76 245.75,76 C238.018,76 231.75,82.268 231.75,90 Z" />
            <path d="M250.695,99.895 L264.275,113.475 C265.642,114.842 267.858,114.842 269.225,113.475 C270.592,112.108 270.592,109.892 269.225,108.525 L255.645,94.945 C254.278,93.578 252.062,93.578 250.695,94.945 C249.328,96.312 249.328,98.528 250.695,99.895 Z" />
            <path d="M292.275,80.525 L250.695,122.105 C249.328,123.472 249.328,125.688 250.695,127.055 C252.062,128.422 254.278,128.422 255.645,127.055 L297.225,85.475 C298.592,84.108 298.592,81.892 297.225,80.525 C295.858,79.158 293.642,79.158 292.275,80.525 Z" />
            <path d="M238.75,132 C238.75,128.134 241.884,125 245.75,125 C249.616,125 252.75,128.134 252.75,132 C252.75,135.866 249.616,139 245.75,139 C241.884,139 238.75,135.866 238.75,132 Z M231.75,132 C231.75,139.732 238.018,146 245.75,146 C253.482,146 259.75,139.732 259.75,132 C259.75,124.268 253.482,118 245.75,118 C238.018,118 231.75,124.268 231.75,132 Z" />
            <path d="M274.075,123.275 L292.275,141.475 C293.642,142.842 295.858,142.842 297.225,141.475 C298.592,140.108 298.592,137.892 297.225,136.525 L279.025,118.325 C277.658,116.958 275.442,116.958 274.075,118.325 C272.708,119.692 272.708,121.908 274.075,123.275 Z" />
        </g>
        <g id="Regular-M" transform="translate(0,200)">
            <path d="M438.75,90 C438.75,86.134 441.884,83 445.75,83 C449.616,83 452.75,86.134 452.75,90 C452.75,93.866 449.616,97 445.75,97 C441.884,97 438.75,93.866 438.75,90 Z M431.75,90 C431.75,97.732 438.018,104 445.75,104 C453.482,104 459.75,97.732 459.75,90 C459.75,82.268 453.482,76 445.75,76 C438.018,76 431.75,82.268 431.75,90 Z" />
            <path d="M450.695,99.895 L464.275,113.475 C465.642,114.842 467.858,114.842 469.225,113.475 C470.592,112.108 470.592,109.892 469.225,108.525 L455.645,94.945 C454.278,93.578 452.062,93.578 450.695,94.945 C449.328,96.312 449.328,98.528 450.695,99.895 Z" />
            <path d="M492.275,80.525 L450.695,122.105 C449.328,123.472 449.328,125.688 450.695,127.055 C452.062,128.422 454.278,128.422 455.645,127.055 L497.225,85.475 C498.592,84.108 498.592,81.892 497.225,80.525 C495.858,79.158 493.642,79.158 492.275,80.525 Z" />
            <path d="M438.75,132 C438.75,128.134 441.884,125 445.75,125 C449.616,125 452.75,128.134 452.75,132 C452.75,135.866 449.616,139 445.75,139 C441.884,139 438.75,135.866 438.75,132 Z M431.75,132 C431.75,139.732 438.018,146 445.75,146 C453.482,146 459.75,139.732 459.75,132 C459.75,124.268 453.482,118 445.75,118 C438.018,118 431.75,124.268 431.75,132 Z" />
            <path d="M474.075,123.275 L492.275,141.475 C493.642,142.842 495.858,142.842 497.225,141.475 C498.592,140.108 498.592,137.892 497.225,136.525 L479.025,118.325 C477.658,116.958 475.442,116.958 474.075,118.325 C472.708,119.692 472.708,121.908 474.075,123.275 Z" />
        </g>
        <g id="Black-M" transform="translate(0,200)">
            <path d="M638.75,90 C638.75,86.134 641.884,83 645.75,83 C649.616,83 652.75,86.134 652.75,90 C652.75,93.866 649.616,97 645.75,97 C641.884,97 638.75,93.866 638.75,90 Z M631.75,90 C631.75,97.732 638.018,104 645.75,104 C653.482,104 659.75,97.732 659.75,90 C659.75,82.268 653.482,76 645.75,76 C638.018,76 631.75,82.268 631.75,90 Z" />
            <path d="M650.695,99.895 L664.275,113.475 C665.642,114.842 667.858,114.842 669.225,113.475 C670.592,112.108 670.592,109.892 669.225,108.525 L655.645,94.945 C654.278,93.578 652.062,93.578 650.695,94.945 C649.328,96.312 649.328,98.528 650.695,99.895 Z" />
            <path d="M692.275,80.525 L650.695,122.105 C649.328,123.472 649.328,125.688 650.695,127.055 C652.062,128.422 654.278,128.422 655.645,127.055 L697.225,85.475 C698.592,84.108 698.592,81.892 697.225,80.525 C695.858,79.158 693.642,79.158 692.275,80.525 Z" />
            <path d="M638.75,132 C638.75,128.134 641.884,125 645.75,125 C649.616,125 652.75,128.134 652.75,132 C652.75,135.866 649.616,139 645.75,139 C641.884,139 638.75,135.866 638.75,132 Z M631.75,132 C631.75,139.732 638.018,146 645.75,146 C653.482,146 659.75,139.732 659.75,132 C659.75,124.268 653.482,118 645.75,118 C638.018,118 631.75,124.268 631.75,132 Z" />
            <path d="M674.075,123.275 L692.275,141.475 C693.642,142.842 695.858,142.842 697.225,141.475 C698.592,140.108 698.592,137.892 697.225,136.525 L679.025,118.325 C677.658,116.958 675.442,116.958 674.075,118.325 C672.708,119.692 672.708,121.908 674.075,123.275 Z" />
        </g>
    </g>
</svg>