<?xml version="1.0" encoding="UTF-8"?>
<svg height="600" width="800" xmlns="http://www.w3.org/2000/svg" xmlns:xlink="http://www.w3.org/1999/xlink">
    <g id="Notes" font-family="LucidaGrande, 'Lucida Grande', sans-serif" font-size="13">
        <rect fill="white" height="600.0" width="800.0" x="0.0" y="0.0" />
        <g font-size="13">
            <text x="18.0" y="176.0">Small</text>
            <text x="18.0" y="376.0">Medium</text>
            <text x="18.0" y="576.0">Large</text>
        </g>
        <g font-size="9">
            <text x="250.0" y="30.0">Ultralight</text>
            <text x="450.0" y="30.0">Regular</text>
            <text x="650.0" y="30.0">Black</text>
            <text id="template-version" fill="#505050" text-anchor="end" x="785.0" y="575.0">Template v.3.0</text>
            <a href="https://github.com/swhitty/SwiftDraw">
                <text fill="#505050" text-anchor="end" x="785.0" y="590.0">https://github.com/swhitty/SwiftDraw</text>
            </a>
        </g>
    </g>
    <g id="Guides" stroke="rgb(39, 170, 225)" stroke-width="0.5">
        <path id="Capline-S" d="M18,76 l800,0" />
        <path id="H-reference" d="M85,145.755 L87.685,145.755 L113.369,79.287 L114.052,79.287 L114.052,76 L112.148,76 L85,145.755 Z M95.693,121.536 L130.996,121.536 L130.263,119.313 L96.474,119.313 L95.693,121.536 Z M139.15,145.755 L141.787,145.755 L114.638,76 L113.466,76 L113.466,79.287 L139.15,145.755 Z" stroke="none" transform="translate(0,200)" />
        <path id="Baseline-S" d="M18,146 l800,0" />
        <path id="left-margin-Ultralight-M" d="M224.474,256 l0,110" />
        <path id="right-margin-Ultralight-M" d="M305.526,256 l0,110" />
        <path id="left-margin-Regular-M" d="M424.474,256 l0,110" />
        <path id="right-margin-Regular-M" d="M505.526,256 l0,110" />
        <path id="left-margin-Black-M" d="M624.474,256 l0,110" />
        <path id="right-margin-Black-M" d="M705.526,256 l0,110" />
        <path id="Capline-M" d="M18,276 l800,0" />
        <path id="Baseline-M" d="M18,346 l800,0" />
        <path id="Capline-L" d="M18,476 l800,0" />
        <path id="Baseline-L" d="M18,546 l800,0" />
    </g>
    <g id="Symbols">
        <g id="Ultralight-M" transform="translate(0,200)">
            <path d="M294.474,146 C297.405,146 300.216,144.836 302.289,142.763 C304.362,140.69 305.526,137.879 305.526,134.947 L305.526,98.105 C305.526,95.174 304.362,92.363 302.289,90.29 C300.216,88.217 297.405,87.053 294.474,87.053 L265.368,87.053 C264.08,87.065 262.908,86.441 262.219,85.395 L259.212,80.939 C257.19,77.869 253.723,76.001 250.006,76 L235.526,76 C232.595,76 229.784,77.164 227.711,79.237 C225.638,81.31 224.474,84.121 224.474,87.053 L224.474,134.947 C224.474,137.879 225.638,140.69 227.711,142.763 C229.784,144.836 232.595,146 235.526,146 L294.474,146 Z M294.474,138.632 L235.526,138.632 C234.549,138.632 233.612,138.243 232.921,137.553 C232.23,136.862 231.842,135.924 231.842,134.947 L231.842,87.053 C231.842,86.076 232.23,85.138 232.921,84.448 C233.612,83.757 234.549,83.368 235.526,83.368 L250.005,83.368 C251.244,83.369 252.4,83.992 253.081,85.026 L256.088,89.482 C258.131,92.584 261.648,94.458 265.405,94.421 L294.474,94.421 C295.451,94.421 296.388,94.809 297.079,95.5 C297.77,96.191 298.158,97.128 298.158,98.105 L298.158,134.947 C298.158,135.924 297.77,136.862 297.079,137.552 C296.388,138.243 295.451,138.632 294.474,138.632 Z" />
            <path d="M228.158,109.158 L301.842,109.158 C303.877,109.158 305.526,107.508 305.526,105.474 C305.526,103.439 303.877,101.789 301.842,101.789 L228.158,101.789 C226.123,101.789 224.474,103.439 224.474,105.474 C224.474,107.508 226.123,109.158 228.158,109.158 Z" />
        </g>
        <g id="Regular-M" transform="translate(0,200)">
            <path d="M494.474,146 C497.405,146 500.216,144.836 502.289,142.763 C504.362,140.69 505.526,137.879 505.526,134.947 L505.526,98.105 C505.526,95.174 504.362,92.363 502.289,90.29 C500.216,88.217 497.405,87.053 494.474,87.053 L465.368,87.053 C464.08,87.065 462.908,86.441 462.219,85.395 L459.212,80.939 C457.191,77.869 453.723,76.001 450.006,76 L435.526,76 C432.595,76 429.784,77.164 427.711,79.237 C425.638,81.31 424.474,84.121 424.474,87.053 L424.474,134.947 C424.474,137.879 425.638,140.69 427.711,142.763 C429.784,144.836 432.595,146 435.526,146 L494.474,146 Z M494.474,138.632 L435.526,138.632 C434.549,138.632 433.612,138.243 432.921,137.553 C432.23,136.862 431.842,135.924 431.842,134.947 L431.842,87.053 C431.842,86.076 432.23,85.138 432.921,84.448 C433.612,83.757 434.549,83.368 435.526,83.368 L450.005,83.368 C451.244,83.369 452.4,83.992 453.081,85.026 L456.088,89.482 C458.131,92.584 461.648,94.458 465.405,94.421 L494.474,94.421 C495.451,94.421 496.388,94.809 497.079,95.5 C497.77,96.191 498.158,97.128 498.158,98.105 L498.158,134.947 C498.158,135.924 497.77,136.862 497.079,137.552 C496.388,138.243 495.451,138.632 494.474,138.632 Z" />
            <path d="M428.158,109.158 L501.842,109.158 C503.877,109.158 505.526,107.508 505.526,105.474 C505.526,103.439 503.877,101.789 501.842,101.789 L428.158,101.789 C426.123,101.789 424.474,103.439 424.474,105.474 C424.474,107.508 426.123,109.158 428.158,109.158 Z" />
        </g>
        <g id="Black-M" transform="translate(0,200)">
            <path d="M694.474,146 C697.405,146 700.216,144.836 702.289,142.763 C704.362,140.69 705.526,137.879 705.526,134.947 L705.526,98.105 C705.526,95.174 704.362,92.363 702.289,90.29 C700.216,88.217 697.405,87.053 694.474,87.053 L665.368,87.053 C664.08,87.065 662.908,86.441 662.219,85.395 L659.212,80.939 C657.191,77.869 653.723,76.001 650.006,76 L635.526,76 C632.595,76 629.784,77.164 627.711,79.237 C625.638,81.31 624.474,84.121 624.474,87.053 L624.474,134.947 C624.474,137.879 625.638,140.69 627.711,142.763 C629.784,144.836 632.595,146 635.526,146 L694.474,146 Z M694.474,138.632 L635.526,138.632 C634.549,138.632 633.612,138.243 632.921,137.553 C632.23,136.862 631.842,135.924 631.842,134.947 L631.842,87.053 C631.842,86.076 632.23,85.138 632.921,84.448 C633.612,83.757 634.549,83.368 635.526,83.368 L650.005,83.368 C651.244,83.369 652.4,83.992 653.081,85.026 L656.088,89.482 C658.131,92.584 661.648,94.458 665.405,94.421 L694.474,94.421 C695.451,94.421 696.388,94.809 697.079,95.5 C697.77,96.191 698.158,97.128 698.158,98.105 L698.158,134.947 C698.158,135.924 697.77,136.862 697.079,137.552 C696.388,138.243 695.451,138.632 694.474,138.632 Z" />
            <path d="M628.158,109.158 L701.842,109.158 C703.877,109.158 705.526,107.508 705.526,105.474 C705.526,103.439 703.877,101.789 701.842,101.789 L628.158,101.789 C626.123,101.789 624.474,103.439 624.474,105.474 C624.474,107.508 626.123,109.158 628.158,109.158 Z" />
        </g>
    </g>
</svg>