<?xml version="1.0" encoding="UTF-8"?>
<svg height="600" width="800" xmlns="http://www.w3.org/2000/svg" xmlns:xlink="http://www.w3.org/1999/xlink">
    <g id="Notes" font-family="LucidaGrande, 'Lucida Grande', sans-serif" font-size="13">
        <rect fill="white" height="600.0" width="800.0" x="0.0" y="0.0" />
        <g font-size="13">
            <text x="18.0" y="176.0">Small</text>
            <text x="18.0" y="376.0">Medium</text>
            <text x="18.0" y="576.0">Large</text>
        </g>
        <g font-size="9">
            <text x="250.0" y="30.0">Ultralight</text>
            <text x="450.0" y="30.0">Regular</text>
            <text x="650.0" y="30.0">Black</text>
            <text id="template-version" fill="#505050" text-anchor="end" x="785.0" y="575.0">Template v.3.0</text>
            <a href="https://github.com/swhitty/SwiftDraw">
                <text fill="#505050" text-anchor="end" x="785.0" y="590.0">https://github.com/swhitty/SwiftDraw</text>
            </a>
        </g>
    </g>
    <g id="Guides" stroke="rgb(39, 170, 225)" stroke-width="0.5">
        <path id="Capline-S" d="M18,76 l800,0" />
        <path id="H-reference" d="M85,145.755 L87.685,145.755 L113.369,79.287 L114.052,79.287 L114.052,76 L112.148,76 L85,145.755 Z M95.693,121.536 L130.996,121.536 L130.263,119.313 L96.474,119.313 L95.693,121.536 Z M139.15,145.755 L141.787,145.755 L114.638,76 L113.466,76 L113.466,79.287 L139.15,145.755 Z" stroke="none" transform="translate(0,200)" />
        <path id="Baseline-S" d="M18,146 l800,0" />
        <path id="left-margin-Ultralight-M" d="M234.773,256 l0,110" />
        <path id="right-margin-Ultralight-M" d="M295.227,256 l0,110" />
        <path id="left-margin-Regular-M" d="M434.773,256 l0,110" />
        <path id="right-margin-Regular-M" d="M495.227,256 l0,110" />
        <path id="left-margin-Black-M" d="M634.773,256 l0,110" />
        <path id="right-margin-Black-M" d="M695.227,256 l0,110" />
        <path id="Capline-M" d="M18,276 l800,0" />
        <path id="Baseline-M" d="M18,346 l800,0" />
        <path id="Capline-L" d="M18,476 l800,0" />
        <path id="Baseline-L" d="M18,546 l800,0" />
    </g>
    <g id="Symbols">
        <g id="Ultralight-M" transform="translate(0,200)">
            <path d="M274.143,88.706 L280.2,88.706 C281.003,88.706 281.773,89.041 282.341,89.637 C282.909,90.233 283.228,91.041 283.228,91.883 L283.228,98.236 C283.228,99.991 284.584,101.413 286.257,101.413 C287.929,101.413 289.285,99.991 289.285,98.236 L289.285,91.883 C289.285,89.356 288.328,86.932 286.624,85.144 C284.92,83.357 282.609,82.353 280.2,82.353 L274.143,82.353 C272.47,82.353 271.114,83.775 271.114,85.53 C271.114,87.284 272.47,88.706 274.143,88.706 Z" />
            <path d="M292.456,124.828 C294.847,122.321 295.78,118.666 294.905,115.241 C294.029,111.816 291.478,109.141 288.213,108.224 C284.947,107.307 281.463,108.287 279.073,110.796 L263.901,126.716 C262.822,127.848 262.032,129.247 261.604,130.785 L259.068,139.903 C258.604,141.573 259.044,143.376 260.217,144.606 C261.39,145.836 263.109,146.298 264.701,145.811 L273.393,143.152 C274.86,142.703 276.194,141.874 277.273,140.741 L292.455,124.829 Z M288.174,120.335 L272.991,136.248 C272.63,136.627 272.185,136.904 271.696,137.053 L263.006,139.712 C263.536,139.55 264.109,139.703 264.5,140.114 C264.891,140.524 265.038,141.125 264.883,141.681 L267.418,132.564 C267.56,132.053 267.824,131.586 268.184,131.209 L283.357,115.287 C284.218,114.384 285.471,114.031 286.646,114.361 C287.821,114.691 288.739,115.654 289.054,116.886 C289.369,118.118 289.033,119.433 288.173,120.336 Z" />
            <path d="M249.915,139.532 L243.858,139.532 C243.055,139.532 242.285,139.198 241.717,138.602 C241.149,138.006 240.83,137.198 240.83,136.356 L240.83,91.883 C240.83,91.041 241.149,90.233 241.717,89.637 C242.285,89.041 243.055,88.706 243.858,88.706 L249.915,88.706 C251.588,88.706 252.943,87.284 252.943,85.53 C252.943,83.775 251.588,82.353 249.915,82.353 L243.858,82.353 C241.449,82.353 239.138,83.357 237.434,85.144 C235.73,86.932 234.773,89.356 234.773,91.883 L234.773,136.356 C234.773,138.883 235.73,141.307 237.434,143.094 C239.138,144.882 241.449,145.886 243.858,145.886 L249.915,145.886 C251.588,145.886 252.943,144.463 252.943,142.709 C252.943,140.955 251.588,139.532 249.915,139.532 Z" />
            <path d="M271.114,85.53 L271.114,88.706 C271.114,88.706 271.114,88.706 271.114,88.706 C271.114,88.706 271.114,88.706 271.114,88.706 L252.943,88.706 C252.943,88.706 252.943,88.706 252.943,88.706 C252.943,88.706 252.943,88.706 252.943,88.706 L252.943,82.353 C252.943,82.353 252.943,82.353 252.943,82.353 C252.943,82.353 252.943,82.353 252.943,82.353 L271.114,82.353 C271.114,82.353 271.114,82.353 271.114,82.353 C271.114,82.353 271.114,82.353 271.114,82.353 L271.114,85.53 Z M277.171,85.53 L277.171,82.353 C277.171,80.668 276.533,79.052 275.397,77.861 C274.261,76.669 272.721,76 271.114,76 L252.943,76 C251.337,76 249.796,76.669 248.661,77.861 C247.525,79.052 246.887,80.668 246.887,82.353 L246.887,88.706 C246.887,90.391 247.525,92.007 248.661,93.199 C249.796,94.39 251.337,95.06 252.943,95.06 L271.114,95.06 C272.721,95.06 274.261,94.39 275.397,93.199 C276.533,92.007 277.171,90.391 277.171,88.706 L277.171,85.53 Z" />
        </g>
        <g id="Regular-M" transform="translate(0,200)">
            <path d="M474.143,88.706 L480.2,88.706 C481.003,88.706 481.773,89.041 482.341,89.637 C482.909,90.233 483.228,91.041 483.228,91.883 L483.228,98.236 C483.228,99.991 484.584,101.413 486.257,101.413 C487.929,101.413 489.285,99.991 489.285,98.236 L489.285,91.883 C489.285,89.356 488.328,86.932 486.624,85.144 C484.92,83.357 482.609,82.353 480.2,82.353 L474.143,82.353 C472.47,82.353 471.114,83.775 471.114,85.53 C471.114,87.284 472.47,88.706 474.143,88.706 Z" />
            <path d="M492.456,124.828 C494.847,122.321 495.78,118.666 494.905,115.241 C494.029,111.816 491.478,109.141 488.213,108.224 C484.947,107.307 481.463,108.287 479.073,110.796 L463.901,126.716 C462.822,127.848 462.032,129.247 461.604,130.785 L459.068,139.903 C458.604,141.573 459.044,143.376 460.217,144.606 C461.39,145.836 463.109,146.298 464.701,145.811 L473.393,143.152 C474.86,142.703 476.194,141.874 477.273,140.741 L492.455,124.829 Z M488.174,120.335 L472.991,136.248 C472.63,136.627 472.185,136.904 471.696,137.053 L463.006,139.712 C463.536,139.55 464.109,139.703 464.5,140.114 C464.891,140.524 465.038,141.125 464.883,141.681 L467.418,132.564 C467.56,132.053 467.824,131.586 468.184,131.209 L483.357,115.287 C484.218,114.384 485.471,114.031 486.646,114.361 C487.821,114.691 488.739,115.654 489.054,116.886 C489.369,118.118 489.033,119.433 488.173,120.336 Z" />
            <path d="M449.915,139.532 L443.858,139.532 C443.055,139.532 442.285,139.198 441.717,138.602 C441.149,138.006 440.83,137.198 440.83,136.356 L440.83,91.883 C440.83,91.041 441.149,90.233 441.717,89.637 C442.285,89.041 443.055,88.706 443.858,88.706 L449.915,88.706 C451.588,88.706 452.943,87.284 452.943,85.53 C452.943,83.775 451.588,82.353 449.915,82.353 L443.858,82.353 C441.449,82.353 439.138,83.357 437.434,85.144 C435.73,86.932 434.773,89.356 434.773,91.883 L434.773,136.356 C434.773,138.883 435.73,141.307 437.434,143.094 C439.138,144.882 441.449,145.886 443.858,145.886 L449.915,145.886 C451.588,145.886 452.943,144.463 452.943,142.709 C452.943,140.955 451.588,139.532 449.915,139.532 Z" />
            <path d="M471.114,85.53 L471.114,88.706 C471.114,88.706 471.114,88.706 471.114,88.706 C471.114,88.706 471.114,88.706 471.114,88.706 L452.943,88.706 C452.943,88.706 452.943,88.706 452.943,88.706 C452.943,88.706 452.943,88.706 452.943,88.706 L452.943,82.353 C452.943,82.353 452.943,82.353 452.943,82.353 C452.943,82.353 452.943,82.353 452.943,82.353 L471.114,82.353 C471.114,82.353 471.114,82.353 471.114,82.353 C471.114,82.353 471.114,82.353 471.114,82.353 L471.114,85.53 Z M477.171,85.53 L477.171,82.353 C477.171,80.668 476.533,79.052 475.397,77.861 C474.261,76.669 472.721,76 471.114,76 L452.943,76 C451.337,76 449.796,76.669 448.661,77.861 C447.525,79.052 446.887,80.668 446.887,82.353 L446.887,88.706 C446.887,90.391 447.525,92.007 448.661,93.199 C449.796,94.39 451.337,95.06 452.943,95.06 L471.114,95.06 C472.721,95.06 474.261,94.39 475.397,93.199 C476.533,92.007 477.171,90.391 477.171,88.706 L477.171,85.53 Z" />
        </g>
        <g id="Black-M" transform="translate(0,200)">
            <path d="M674.143,88.706 L680.2,88.706 C681.003,88.706 681.773,89.041 682.341,89.637 C682.909,90.233 683.228,91.041 683.228,91.883 L683.228,98.236 C683.228,99.991 684.584,101.413 686.257,101.413 C687.929,101.413 689.285,99.991 689.285,98.236 L689.285,91.883 C689.285,89.356 688.328,86.932 686.624,85.144 C684.92,83.357 682.609,82.353 680.2,82.353 L674.143,82.353 C672.47,82.353 671.114,83.775 671.114,85.53 C671.114,87.284 672.47,88.706 674.143,88.706 Z" />
            <path d="M692.456,124.828 C694.847,122.321 695.78,118.666 694.905,115.241 C694.029,111.816 691.478,109.141 688.213,108.224 C684.947,107.307 681.463,108.287 679.073,110.796 L663.901,126.716 C662.822,127.848 662.032,129.247 661.604,130.785 L659.068,139.903 C658.604,141.573 659.044,143.376 660.217,144.606 C661.39,145.836 663.109,146.298 664.701,145.811 L673.393,143.152 C674.86,142.703 676.194,141.874 677.273,140.741 L692.455,124.829 Z M688.174,120.335 L672.991,136.248 C672.63,136.627 672.185,136.904 671.696,137.053 L663.006,139.712 C663.536,139.55 664.109,139.703 664.5,140.114 C664.891,140.524 665.038,141.125 664.883,141.681 L667.418,132.564 C667.56,132.053 667.824,131.586 668.184,131.209 L683.357,115.287 C684.218,114.384 685.471,114.031 686.646,114.361 C687.821,114.691 688.739,115.654 689.054,116.886 C689.369,118.118 689.033,119.433 688.173,120.336 Z" />
            <path d="M649.915,139.532 L643.858,139.532 C643.055,139.532 642.285,139.198 641.717,138.602 C641.149,138.006 640.83,137.198 640.83,136.356 L640.83,91.883 C640.83,91.041 641.149,90.233 641.717,89.637 C642.285,89.041 643.055,88.706 643.858,88.706 L649.915,88.706 C651.588,88.706 652.943,87.284 652.943,85.53 C652.943,83.775 651.588,82.353 649.915,82.353 L643.858,82.353 C641.448,82.353 639.138,83.357 637.434,85.144 C635.73,86.932 634.773,89.356 634.773,91.883 L634.773,136.356 C634.773,138.883 635.73,141.307 637.434,143.094 C639.138,144.882 641.448,145.886 643.858,145.886 L649.915,145.886 C651.588,145.886 652.943,144.463 652.943,142.709 C652.943,140.955 651.588,139.532 649.915,139.532 Z" />
            <path d="M671.114,85.53 L671.114,88.706 C671.114,88.706 671.114,88.706 671.114,88.706 C671.114,88.706 671.114,88.706 671.114,88.706 L652.943,88.706 C652.943,88.706 652.943,88.706 652.943,88.706 C652.943,88.706 652.943,88.706 652.943,88.706 L652.943,82.353 C652.943,82.353 652.943,82.353 652.943,82.353 C652.943,82.353 652.943,82.353 652.943,82.353 L671.114,82.353 C671.114,82.353 671.114,82.353 671.114,82.353 C671.114,82.353 671.114,82.353 671.114,82.353 L671.114,85.53 Z M677.171,85.53 L677.171,82.353 C677.171,80.668 676.533,79.052 675.397,77.861 C674.261,76.669 672.721,76 671.114,76 L652.943,76 C651.337,76 649.796,76.669 648.661,77.861 C647.525,79.052 646.887,80.668 646.887,82.353 L646.887,88.706 C646.887,90.391 647.525,92.007 648.661,93.199 C649.796,94.39 651.337,95.06 652.943,95.06 L671.114,95.06 C672.721,95.06 674.261,94.39 675.397,93.199 C676.533,92.007 677.171,90.391 677.171,88.706 L677.171,85.53 Z" />
        </g>
    </g>
</svg>