<?xml version="1.0" encoding="UTF-8"?>
<svg height="600" width="800" xmlns="http://www.w3.org/2000/svg" xmlns:xlink="http://www.w3.org/1999/xlink">
    <g id="Notes" font-family="LucidaGrande, 'Lucida Grande', sans-serif" font-size="13">
        <rect fill="white" height="600.0" width="800.0" x="0.0" y="0.0" />
        <g font-size="13">
            <text x="18.0" y="176.0">Small</text>
            <text x="18.0" y="376.0">Medium</text>
            <text x="18.0" y="576.0">Large</text>
        </g>
        <g font-size="9">
            <text x="250.0" y="30.0">Ultralight</text>
            <text x="450.0" y="30.0">Regular</text>
            <text x="650.0" y="30.0">Black</text>
            <text id="template-version" fill="#505050" text-anchor="end" x="785.0" y="575.0">Template v.3.0</text>
            <a href="https://github.com/swhitty/SwiftDraw">
                <text fill="#505050" text-anchor="end" x="785.0" y="590.0">https://github.com/swhitty/SwiftDraw</text>
            </a>
        </g>
    </g>
    <g id="Guides" stroke="rgb(39, 170, 225)" stroke-width="0.5">
        <path id="Capline-S" d="M18,76 l800,0" />
        <path id="H-reference" d="M85,145.755 L87.685,145.755 L113.369,79.287 L114.052,79.287 L114.052,76 L112.148,76 L85,145.755 Z M95.693,121.536 L130.996,121.536 L130.263,119.313 L96.474,119.313 L95.693,121.536 Z M139.15,145.755 L141.787,145.755 L114.638,76 L113.466,76 L113.466,79.287 L139.15,145.755 Z" stroke="none" transform="translate(0,200)" />
        <path id="Baseline-S" d="M18,146 l800,0" />
        <path id="left-margin-Ultralight-M" d="M236.364,256 l0,110" />
        <path id="right-margin-Ultralight-M" d="M293.636,256 l0,110" />
        <path id="left-margin-Regular-M" d="M436.364,256 l0,110" />
        <path id="right-margin-Regular-M" d="M493.636,256 l0,110" />
        <path id="left-margin-Black-M" d="M636.364,256 l0,110" />
        <path id="right-margin-Black-M" d="M693.636,256 l0,110" />
        <path id="Capline-M" d="M18,276 l800,0" />
        <path id="Baseline-M" d="M18,346 l800,0" />
        <path id="Capline-L" d="M18,476 l800,0" />
        <path id="Baseline-L" d="M18,546 l800,0" />
    </g>
    <g id="Symbols">
        <g id="Ultralight-M" transform="translate(0,200)">
            <path d="M258.636,82.364 L271.364,82.364 C273.121,82.364 274.545,80.939 274.545,79.182 C274.545,77.425 273.121,76 271.364,76 L258.636,76 C256.879,76 255.455,77.425 255.455,79.182 C255.455,80.939 256.879,82.364 258.636,82.364 Z" />
            <path d="M267.25,119.614 L276.795,110.068 C278.038,108.825 278.038,106.811 276.795,105.568 C275.553,104.326 273.538,104.326 272.296,105.568 L262.75,115.114 C261.508,116.356 261.508,118.371 262.75,119.614 C263.993,120.856 266.007,120.856 267.25,119.614 Z" />
            <path d="M242.727,117.364 C242.727,105.063 252.699,95.091 265,95.091 C277.301,95.091 287.273,105.063 287.273,117.364 C287.273,129.665 277.301,139.636 265,139.636 C252.699,139.636 242.727,129.665 242.727,117.364 Z M236.364,117.364 C236.364,133.179 249.185,146 265,146 C280.815,146 293.636,133.179 293.636,117.364 C293.636,101.548 280.815,88.727 265,88.727 C249.185,88.727 236.364,101.548 236.364,117.364 Z" />
        </g>
        <g id="Regular-M" transform="translate(0,200)">
            <path d="M458.636,82.364 L471.364,82.364 C473.121,82.364 474.545,80.939 474.545,79.182 C474.545,77.425 473.121,76 471.364,76 L458.636,76 C456.879,76 455.455,77.425 455.455,79.182 C455.455,80.939 456.879,82.364 458.636,82.364 Z" />
            <path d="M467.25,119.614 L476.795,110.068 C478.038,108.825 478.038,106.811 476.795,105.568 C475.553,104.326 473.538,104.326 472.296,105.568 L462.75,115.114 C461.508,116.356 461.508,118.371 462.75,119.614 C463.993,120.856 466.007,120.856 467.25,119.614 Z" />
            <path d="M442.727,117.364 C442.727,105.063 452.699,95.091 465,95.091 C477.301,95.091 487.273,105.063 487.273,117.364 C487.273,129.665 477.301,139.636 465,139.636 C452.699,139.636 442.727,129.665 442.727,117.364 Z M436.364,117.364 C436.364,133.179 449.185,146 465,146 C480.815,146 493.636,133.179 493.636,117.364 C493.636,101.548 480.815,88.727 465,88.727 C449.185,88.727 436.364,101.548 436.364,117.364 Z" />
        </g>
        <g id="Black-M" transform="translate(0,200)">
            <path d="M658.636,82.364 L671.364,82.364 C673.121,82.364 674.545,80.939 674.545,79.182 C674.545,77.425 673.121,76 671.364,76 L658.636,76 C656.879,76 655.455,77.425 655.455,79.182 C655.455,80.939 656.879,82.364 658.636,82.364 Z" />
            <path d="M667.25,119.614 L676.795,110.068 C678.038,108.825 678.038,106.811 676.795,105.568 C675.553,104.326 673.538,104.326 672.296,105.568 L662.75,115.114 C661.508,116.356 661.508,118.371 662.75,119.614 C663.993,120.856 666.007,120.856 667.25,119.614 Z" />
            <path d="M642.727,117.364 C642.727,105.063 652.699,95.091 665,95.091 C677.301,95.091 687.273,105.063 687.273,117.364 C687.273,129.665 677.301,139.636 665,139.636 C652.699,139.636 642.727,129.665 642.727,117.364 Z M636.364,117.364 C636.364,133.179 649.185,146 665,146 C680.815,146 693.636,133.179 693.636,117.364 C693.636,101.548 680.815,88.727 665,88.727 C649.185,88.727 636.364,101.548 636.364,117.364 Z" />
        </g>
    </g>
</svg>