<?xml version="1.0" encoding="UTF-8"?>
<svg height="600" width="800" xmlns="http://www.w3.org/2000/svg" xmlns:xlink="http://www.w3.org/1999/xlink">
    <g id="Notes" font-family="LucidaGrande, 'Lucida Grande', sans-serif" font-size="13">
        <rect fill="white" height="600.0" width="800.0" x="0.0" y="0.0" />
        <g font-size="13">
            <text x="18.0" y="176.0">Small</text>
            <text x="18.0" y="376.0">Medium</text>
            <text x="18.0" y="576.0">Large</text>
        </g>
        <g font-size="9">
            <text x="250.0" y="30.0">Ultralight</text>
            <text x="450.0" y="30.0">Regular</text>
            <text x="650.0" y="30.0">Black</text>
            <text id="template-version" fill="#505050" text-anchor="end" x="785.0" y="575.0">Template v.3.0</text>
            <a href="https://github.com/swhitty/SwiftDraw">
                <text fill="#505050" text-anchor="end" x="785.0" y="590.0">https://github.com/swhitty/SwiftDraw</text>
            </a>
        </g>
    </g>
    <g id="Guides" stroke="rgb(39, 170, 225)" stroke-width="0.5">
        <path id="Capline-S" d="M18,76 l800,0" />
        <path id="H-reference" d="M85,145.755 L87.685,145.755 L113.369,79.287 L114.052,79.287 L114.052,76 L112.148,76 L85,145.755 Z M95.693,121.536 L130.996,121.536 L130.263,119.313 L96.474,119.313 L95.693,121.536 Z M139.15,145.755 L141.787,145.755 L114.638,76 L113.466,76 L113.466,79.287 L139.15,145.755 Z" stroke="none" transform="translate(0,200)" />
        <path id="Baseline-S" d="M18,146 l800,0" />
        <path id="left-margin-Ultralight-M" d="M224.474,256 l0,110" />
        <path id="right-margin-Ultralight-M" d="M305.526,256 l0,110" />
        <path id="left-margin-Regular-M" d="M424.474,256 l0,110" />
        <path id="right-margin-Regular-M" d="M505.526,256 l0,110" />
        <path id="left-margin-Black-M" d="M624.474,256 l0,110" />
        <path id="right-margin-Black-M" d="M705.526,256 l0,110" />
        <path id="Capline-M" d="M18,276 l800,0" />
        <path id="Baseline-M" d="M18,346 l800,0" />
        <path id="Capline-L" d="M18,476 l800,0" />
        <path id="Baseline-L" d="M18,546 l800,0" />
    </g>
    <g id="Symbols">
        <g id="Ultralight-M" transform="translate(0,200)">
            <path d="M246.187,121.858 L251.528,111.174 C252.15,109.939 253.426,109.155 254.819,109.158 L294.462,109.158 C295.609,109.156 296.686,109.682 297.386,110.583 C298.085,111.485 298.327,112.659 298.042,113.763 L292.333,135.868 C291.912,137.497 290.441,138.635 288.759,138.632 L235.525,138.632 C234.548,138.632 233.611,138.243 232.92,137.552 C232.229,136.862 231.841,135.924 231.841,134.947 L231.841,87.053 C231.841,85.035 233.507,83.368 235.525,83.368 L250.001,83.368 C251.214,83.375 252.362,83.997 253.04,85.026 L256.095,89.5 C258.093,92.535 261.536,94.402 265.232,94.421 L287.095,94.421 C289.13,94.421 290.779,96.071 290.779,98.105 L290.779,105.474 C290.779,107.508 292.428,109.158 294.462,109.158 C296.497,109.158 298.146,107.508 298.146,105.474 L298.146,98.105 C298.146,92.001 293.198,87.053 287.095,87.053 L265.251,87.053 C264.038,87.046 262.891,86.424 262.213,85.395 L259.157,80.921 C257.159,77.886 253.717,76.019 250.02,76 L235.525,76 C229.438,76 224.474,80.965 224.474,87.053 L224.474,134.947 C224.474,137.879 225.638,140.69 227.71,142.763 C229.783,144.836 232.594,146 235.525,146 L288.753,146 C293.793,146.009 298.204,142.597 299.466,137.711 L305.175,115.606 C306.031,112.292 305.303,108.769 303.206,106.066 C301.108,103.363 297.877,101.783 294.456,101.789 L254.827,101.789 C250.653,101.781 246.825,104.134 244.943,107.868 L239.597,118.563 C238.687,120.383 239.425,122.596 241.244,123.506 C243.064,124.416 245.277,123.678 246.187,121.858 Z" />
            <path d="M272.361,123.895 C272.361,123.895 272.361,123.895 272.361,123.895 C272.361,123.895 272.361,123.895 272.361,123.895 C272.361,123.895 272.361,123.895 272.361,123.895 C272.361,123.895 272.361,123.895 272.361,123.895 Z M264.993,123.895 C264.993,127.964 268.292,131.263 272.361,131.263 C276.43,131.263 279.728,127.964 279.728,123.895 C279.728,119.825 276.43,116.526 272.361,116.526 C268.292,116.526 264.993,119.825 264.993,123.895 Z" />
        </g>
        <g id="Regular-M" transform="translate(0,200)">
            <path d="M446.187,121.858 L451.528,111.174 C452.15,109.939 453.426,109.155 454.819,109.158 L494.462,109.158 C495.609,109.156 496.686,109.682 497.386,110.583 C498.085,111.485 498.327,112.659 498.042,113.763 L492.333,135.868 C491.912,137.497 490.441,138.635 488.759,138.632 L435.525,138.632 C434.548,138.632 433.611,138.243 432.92,137.552 C432.229,136.862 431.841,135.924 431.841,134.947 L431.841,87.053 C431.841,85.035 433.507,83.368 435.525,83.368 L450.001,83.368 C451.214,83.375 452.362,83.997 453.04,85.026 L456.095,89.5 C458.093,92.535 461.536,94.402 465.232,94.421 L487.095,94.421 C489.13,94.421 490.779,96.071 490.779,98.105 L490.779,105.474 C490.779,107.508 492.428,109.158 494.462,109.158 C496.497,109.158 498.146,107.508 498.146,105.474 L498.146,98.105 C498.146,92.001 493.198,87.053 487.095,87.053 L465.251,87.053 C464.038,87.046 462.891,86.424 462.213,85.395 L459.157,80.921 C457.159,77.886 453.717,76.019 450.02,76 L435.525,76 C429.438,76 424.474,80.965 424.474,87.053 L424.474,134.947 C424.474,137.879 425.638,140.69 427.71,142.763 C429.783,144.836 432.594,146 435.525,146 L488.753,146 C493.793,146.009 498.204,142.597 499.466,137.711 L505.175,115.606 C506.031,112.292 505.303,108.769 503.206,106.066 C501.108,103.363 497.877,101.783 494.456,101.789 L454.827,101.789 C450.653,101.781 446.825,104.134 444.943,107.868 L439.597,118.563 C438.687,120.383 439.425,122.596 441.244,123.506 C443.064,124.416 445.277,123.678 446.187,121.858 Z" />
            <path d="M472.361,123.895 C472.361,123.895 472.361,123.895 472.361,123.895 C472.361,123.895 472.361,123.895 472.361,123.895 C472.361,123.895 472.361,123.895 472.361,123.895 C472.361,123.895 472.361,123.895 472.361,123.895 Z M464.994,123.895 C464.994,127.964 468.292,131.263 472.361,131.263 C476.43,131.263 479.728,127.964 479.728,123.895 C479.728,119.825 476.43,116.526 472.361,116.526 C468.292,116.526 464.994,119.825 464.994,123.895 Z" />
        </g>
        <g id="Black-M" transform="translate(0,200)">
            <path d="M646.187,121.858 L651.528,111.174 C652.15,109.939 653.426,109.155 654.819,109.158 L694.462,109.158 C695.609,109.156 696.686,109.682 697.386,110.583 C698.085,111.485 698.327,112.659 698.042,113.763 L692.333,135.868 C691.912,137.497 690.441,138.635 688.759,138.632 L635.525,138.632 C634.548,138.632 633.611,138.243 632.92,137.552 C632.229,136.862 631.841,135.924 631.841,134.947 L631.841,87.053 C631.841,85.035 633.507,83.368 635.525,83.368 L650.001,83.368 C651.214,83.375 652.362,83.997 653.04,85.026 L656.095,89.5 C658.093,92.535 661.536,94.402 665.232,94.421 L687.095,94.421 C689.13,94.421 690.779,96.071 690.779,98.105 L690.779,105.474 C690.779,107.508 692.428,109.158 694.462,109.158 C696.497,109.158 698.146,107.508 698.146,105.474 L698.146,98.105 C698.146,92.001 693.198,87.053 687.095,87.053 L665.251,87.053 C664.038,87.046 662.891,86.424 662.213,85.395 L659.157,80.921 C657.159,77.886 653.717,76.019 650.02,76 L635.525,76 C629.438,76 624.474,80.965 624.474,87.053 L624.474,134.947 C624.474,137.879 625.638,140.69 627.71,142.763 C629.783,144.836 632.594,146 635.525,146 L688.753,146 C693.793,146.009 698.204,142.597 699.466,137.711 L705.175,115.606 C706.031,112.292 705.303,108.769 703.206,106.066 C701.108,103.363 697.877,101.783 694.456,101.789 L654.827,101.789 C650.653,101.781 646.825,104.134 644.943,107.868 L639.597,118.563 C638.687,120.383 639.425,122.596 641.244,123.506 C643.064,124.416 645.277,123.678 646.187,121.858 Z" />
            <path d="M672.361,123.895 C672.361,123.895 672.361,123.895 672.361,123.895 C672.361,123.895 672.361,123.895 672.361,123.895 C672.361,123.895 672.361,123.895 672.361,123.895 C672.361,123.895 672.361,123.895 672.361,123.895 Z M664.994,123.895 C664.994,127.964 668.292,131.263 672.361,131.263 C676.43,131.263 679.728,127.964 679.728,123.895 C679.728,119.825 676.43,116.526 672.361,116.526 C668.292,116.526 664.994,119.825 664.994,123.895 Z" />
        </g>
    </g>
</svg>