<?xml version="1.0" encoding="UTF-8"?>
<svg height="600" width="800" xmlns="http://www.w3.org/2000/svg" xmlns:xlink="http://www.w3.org/1999/xlink">
    <g id="Notes" font-family="LucidaGrande, 'Lucida Grande', sans-serif" font-size="13">
        <rect fill="white" height="600.0" width="800.0" x="0.0" y="0.0" />
        <g font-size="13">
            <text x="18.0" y="176.0">Small</text>
            <text x="18.0" y="376.0">Medium</text>
            <text x="18.0" y="576.0">Large</text>
        </g>
        <g font-size="9">
            <text x="250.0" y="30.0">Ultralight</text>
            <text x="450.0" y="30.0">Regular</text>
            <text x="650.0" y="30.0">Black</text>
            <text id="template-version" fill="#505050" text-anchor="end" x="785.0" y="575.0">Template v.3.0</text>
            <a href="https://github.com/swhitty/SwiftDraw">
                <text fill="#505050" text-anchor="end" x="785.0" y="590.0">https://github.com/swhitty/SwiftDraw</text>
            </a>
        </g>
    </g>
    <g id="Guides" stroke="rgb(39, 170, 225)" stroke-width="0.5">
        <path id="Capline-S" d="M18,76 l800,0" />
        <path id="H-reference" d="M85,145.755 L87.685,145.755 L113.369,79.287 L114.052,79.287 L114.052,76 L112.148,76 L85,145.755 Z M95.693,121.536 L130.996,121.536 L130.263,119.313 L96.474,119.313 L95.693,121.536 Z M139.15,145.755 L141.787,145.755 L114.638,76 L113.466,76 L113.466,79.287 L139.15,145.755 Z" stroke="none" transform="translate(0,200)" />
        <path id="Baseline-S" d="M18,146 l800,0" />
        <path id="left-margin-Ultralight-M" d="M230,256 l0,110" />
        <path id="right-margin-Ultralight-M" d="M300,256 l0,110" />
        <path id="left-margin-Regular-M" d="M430,256 l0,110" />
        <path id="right-margin-Regular-M" d="M500,256 l0,110" />
        <path id="left-margin-Black-M" d="M630,256 l0,110" />
        <path id="right-margin-Black-M" d="M700,256 l0,110" />
        <path id="Capline-M" d="M18,276 l800,0" />
        <path id="Baseline-M" d="M18,346 l800,0" />
        <path id="Capline-L" d="M18,476 l800,0" />
        <path id="Baseline-L" d="M18,546 l800,0" />
    </g>
    <g id="Symbols">
        <g id="Ultralight-M" transform="translate(0,200)">
            <path d="M270.314,101.455 L284.091,101.455 C284.935,101.455 285.744,101.79 286.341,102.386 C286.938,102.983 287.273,103.792 287.273,104.636 L287.273,118.414 C287.273,120.171 288.697,121.595 290.455,121.595 C292.212,121.595 293.636,120.171 293.636,118.414 L293.636,104.636 C293.636,102.105 292.631,99.677 290.841,97.887 C289.05,96.097 286.623,95.091 284.091,95.091 L270.314,95.091 C268.556,95.091 267.132,96.515 267.132,98.273 C267.132,100.03 268.556,101.455 270.314,101.455 Z" />
            <path d="M233.182,120.545 L239.545,120.545 C241.303,120.545 242.727,119.121 242.727,117.364 C242.727,115.606 241.303,114.182 239.545,114.182 L233.182,114.182 C231.425,114.182 230,115.606 230,117.364 C230,119.121 231.425,120.545 233.182,120.545 Z" />
            <path d="M290.455,120.545 L296.818,120.545 C298.575,120.545 300,119.121 300,117.364 C300,115.606 298.575,114.182 296.818,114.182 L290.455,114.182 C288.697,114.182 287.273,115.606 287.273,117.364 C287.273,119.121 288.697,120.545 290.455,120.545 Z" />
            <path d="M299.068,140.568 L235.432,76.932 C234.189,75.689 232.175,75.689 230.932,76.932 C229.689,78.175 229.689,80.189 230.932,81.432 L294.568,145.068 C295.811,146.311 297.826,146.311 299.068,145.068 C300.311,143.825 300.311,141.811 299.068,140.568 Z" />
            <path d="M252.273,95.091 L245.909,95.091 C243.377,95.091 240.95,96.097 239.159,97.887 C237.369,99.677 236.364,102.105 236.364,104.636 L236.364,130.091 C236.364,132.623 237.369,135.05 239.159,136.841 C240.95,138.631 243.377,139.636 245.909,139.636 L284.091,139.636 C286.623,139.636 289.051,138.63 290.84,136.84 C292.083,135.597 292.082,133.582 290.84,132.34 C289.597,131.097 287.582,131.098 286.34,132.34 C285.743,132.937 284.934,133.273 284.09,133.273 L245.909,133.273 C245.065,133.273 244.256,132.938 243.659,132.341 C243.062,131.744 242.727,130.935 242.727,130.091 L242.727,104.636 C242.727,103.792 243.062,102.983 243.659,102.386 C244.256,101.79 245.065,101.455 245.909,101.455 L252.273,101.455 C254.03,101.455 255.455,100.03 255.455,98.273 C255.455,96.515 254.03,95.091 252.273,95.091 Z" />
            <path d="M252.273,114.182 L252.273,120.545 C252.273,122.303 253.697,123.727 255.455,123.727 C257.212,123.727 258.636,122.303 258.636,120.545 L258.636,114.182 C258.636,112.425 257.212,111 255.455,111 C253.697,111 252.273,112.425 252.273,114.182 Z" />
            <path d="M257.586,88.727 L265,88.727 L261.818,85.545 L261.818,92.959 C261.818,94.716 263.243,96.141 265,96.141 C266.757,96.141 268.182,94.716 268.182,92.959 L268.182,85.545 C268.182,83.788 266.757,82.364 265,82.364 L257.586,82.364 C255.829,82.364 254.405,83.788 254.405,85.545 C254.405,87.303 255.829,88.727 257.586,88.727 Z" />
        </g>
        <g id="Regular-M" transform="translate(0,200)">
            <path d="M470.314,101.455 L484.091,101.455 C484.935,101.455 485.744,101.79 486.341,102.386 C486.938,102.983 487.273,103.792 487.273,104.636 L487.273,118.414 C487.273,120.171 488.697,121.595 490.455,121.595 C492.212,121.595 493.636,120.171 493.636,118.414 L493.636,104.636 C493.636,102.105 492.631,99.677 490.841,97.887 C489.05,96.097 486.623,95.091 484.091,95.091 L470.314,95.091 C468.556,95.091 467.132,96.515 467.132,98.273 C467.132,100.03 468.556,101.455 470.314,101.455 Z" />
            <path d="M433.182,120.545 L439.545,120.545 C441.303,120.545 442.727,119.121 442.727,117.364 C442.727,115.606 441.303,114.182 439.545,114.182 L433.182,114.182 C431.425,114.182 430,115.606 430,117.364 C430,119.121 431.425,120.545 433.182,120.545 Z" />
            <path d="M490.455,120.545 L496.818,120.545 C498.575,120.545 500,119.121 500,117.364 C500,115.606 498.575,114.182 496.818,114.182 L490.455,114.182 C488.697,114.182 487.273,115.606 487.273,117.364 C487.273,119.121 488.697,120.545 490.455,120.545 Z" />
            <path d="M499.068,140.568 L435.432,76.932 C434.189,75.689 432.174,75.689 430.932,76.932 C429.689,78.175 429.689,80.189 430.932,81.432 L494.568,145.068 C495.811,146.311 497.826,146.311 499.068,145.068 C500.311,143.825 500.311,141.811 499.068,140.568 Z" />
            <path d="M452.273,95.091 L445.909,95.091 C443.377,95.091 440.95,96.097 439.159,97.887 C437.369,99.677 436.364,102.105 436.364,104.636 L436.364,130.091 C436.364,132.623 437.369,135.05 439.159,136.841 C440.95,138.631 443.377,139.636 445.909,139.636 L484.091,139.636 C486.623,139.636 489.051,138.63 490.84,136.84 C492.083,135.597 492.082,133.582 490.84,132.34 C489.597,131.097 487.582,131.098 486.34,132.34 C485.743,132.937 484.934,133.273 484.09,133.273 L445.909,133.273 C445.065,133.273 444.256,132.938 443.659,132.341 C443.062,131.744 442.727,130.935 442.727,130.091 L442.727,104.636 C442.727,103.792 443.062,102.983 443.659,102.386 C444.256,101.79 445.065,101.455 445.909,101.455 L452.273,101.455 C454.03,101.455 455.455,100.03 455.455,98.273 C455.455,96.515 454.03,95.091 452.273,95.091 Z" />
            <path d="M452.273,114.182 L452.273,120.545 C452.273,122.303 453.697,123.727 455.455,123.727 C457.212,123.727 458.636,122.303 458.636,120.545 L458.636,114.182 C458.636,112.425 457.212,111 455.455,111 C453.697,111 452.273,112.425 452.273,114.182 Z" />
            <path d="M457.586,88.727 L465,88.727 L461.818,85.545 L461.818,92.959 C461.818,94.716 463.243,96.141 465,96.141 C466.757,96.141 468.182,94.716 468.182,92.959 L468.182,85.545 C468.182,83.788 466.757,82.364 465,82.364 L457.586,82.364 C455.829,82.364 454.405,83.788 454.405,85.545 C454.405,87.303 455.829,88.727 457.586,88.727 Z" />
        </g>
        <g id="Black-M" transform="translate(0,200)">
            <path d="M670.314,101.455 L684.091,101.455 C684.935,101.455 685.744,101.79 686.341,102.386 C686.938,102.983 687.273,103.792 687.273,104.636 L687.273,118.414 C687.273,120.171 688.697,121.595 690.455,121.595 C692.212,121.595 693.636,120.171 693.636,118.414 L693.636,104.636 C693.636,102.105 692.631,99.677 690.841,97.887 C689.05,96.097 686.622,95.091 684.091,95.091 L670.314,95.091 C668.556,95.091 667.132,96.515 667.132,98.273 C667.132,100.03 668.556,101.455 670.314,101.455 Z" />
            <path d="M633.182,120.545 L639.545,120.545 C641.303,120.545 642.727,119.121 642.727,117.364 C642.727,115.606 641.303,114.182 639.545,114.182 L633.182,114.182 C631.425,114.182 630,115.606 630,117.364 C630,119.121 631.425,120.545 633.182,120.545 Z" />
            <path d="M690.455,120.545 L696.818,120.545 C698.575,120.545 700,119.121 700,117.364 C700,115.606 698.575,114.182 696.818,114.182 L690.455,114.182 C688.697,114.182 687.273,115.606 687.273,117.364 C687.273,119.121 688.697,120.545 690.455,120.545 Z" />
            <path d="M699.068,140.568 L635.432,76.932 C634.189,75.689 632.174,75.689 630.932,76.932 C629.689,78.175 629.689,80.189 630.932,81.432 L694.568,145.068 C695.811,146.311 697.826,146.311 699.068,145.068 C700.311,143.825 700.311,141.811 699.068,140.568 Z" />
            <path d="M652.273,95.091 L645.909,95.091 C643.378,95.091 640.95,96.097 639.159,97.887 C637.369,99.677 636.364,102.105 636.364,104.636 L636.364,130.091 C636.364,132.623 637.369,135.05 639.159,136.841 C640.95,138.631 643.378,139.636 645.909,139.636 L684.091,139.636 C686.623,139.636 689.051,138.63 690.84,136.84 C692.083,135.597 692.082,133.582 690.84,132.34 C689.597,131.097 687.582,131.098 686.34,132.34 C685.743,132.937 684.934,133.273 684.09,133.273 L645.909,133.273 C645.065,133.273 644.256,132.938 643.659,132.341 C643.062,131.744 642.727,130.935 642.727,130.091 L642.727,104.636 C642.727,103.792 643.062,102.983 643.659,102.386 C644.256,101.79 645.065,101.455 645.909,101.455 L652.273,101.455 C654.03,101.455 655.455,100.03 655.455,98.273 C655.455,96.515 654.03,95.091 652.273,95.091 Z" />
            <path d="M652.273,114.182 L652.273,120.545 C652.273,122.303 653.697,123.727 655.455,123.727 C657.212,123.727 658.636,122.303 658.636,120.545 L658.636,114.182 C658.636,112.425 657.212,111 655.455,111 C653.697,111 652.273,112.425 652.273,114.182 Z" />
            <path d="M657.586,88.727 L665,88.727 L661.818,85.545 L661.818,92.959 C661.818,94.716 663.243,96.141 665,96.141 C666.757,96.141 668.182,94.716 668.182,92.959 L668.182,85.545 C668.182,83.788 666.757,82.364 665,82.364 L657.586,82.364 C655.829,82.364 654.405,83.788 654.405,85.545 C654.405,87.303 655.829,88.727 657.586,88.727 Z" />
        </g>
    </g>
</svg>