<?xml version="1.0" encoding="UTF-8"?>
<svg height="600" width="800" xmlns="http://www.w3.org/2000/svg" xmlns:xlink="http://www.w3.org/1999/xlink">
    <g id="Notes" font-family="LucidaGrande, 'Lucida Grande', sans-serif" font-size="13">
        <rect fill="white" height="600.0" width="800.0" x="0.0" y="0.0" />
        <g font-size="13">
            <text x="18.0" y="176.0">Small</text>
            <text x="18.0" y="376.0">Medium</text>
            <text x="18.0" y="576.0">Large</text>
        </g>
        <g font-size="9">
            <text x="250.0" y="30.0">Ultralight</text>
            <text x="450.0" y="30.0">Regular</text>
            <text x="650.0" y="30.0">Black</text>
            <text id="template-version" fill="#505050" text-anchor="end" x="785.0" y="575.0">Template v.3.0</text>
            <a href="https://github.com/swhitty/SwiftDraw">
                <text fill="#505050" text-anchor="end" x="785.0" y="590.0">https://github.com/swhitty/SwiftDraw</text>
            </a>
        </g>
    </g>
    <g id="Guides" stroke="rgb(39, 170, 225)" stroke-width="0.5">
        <path id="Capline-S" d="M18,76 l800,0" />
        <path id="H-reference" d="M85,145.755 L87.685,145.755 L113.369,79.287 L114.052,79.287 L114.052,76 L112.148,76 L85,145.755 Z M95.693,121.536 L130.996,121.536 L130.263,119.313 L96.474,119.313 L95.693,121.536 Z M139.15,145.755 L141.787,145.755 L114.638,76 L113.466,76 L113.466,79.287 L139.15,145.755 Z" stroke="none" transform="translate(0,200)" />
        <path id="Baseline-S" d="M18,146 l800,0" />
        <path id="left-margin-Ultralight-M" d="M230,256 l0,110" />
        <path id="right-margin-Ultralight-M" d="M300,256 l0,110" />
        <path id="left-margin-Regular-M" d="M430,256 l0,110" />
        <path id="right-margin-Regular-M" d="M500,256 l0,110" />
        <path id="left-margin-Black-M" d="M630,256 l0,110" />
        <path id="right-margin-Black-M" d="M700,256 l0,110" />
        <path id="Capline-M" d="M18,276 l800,0" />
        <path id="Baseline-M" d="M18,346 l800,0" />
        <path id="Capline-L" d="M18,476 l800,0" />
        <path id="Baseline-L" d="M18,546 l800,0" />
    </g>
    <g id="Symbols">
        <g id="Ultralight-M" transform="translate(0,200)">
            <path d="M268.494,83.648 C270.328,81.948 273.161,81.948 274.995,83.648 L292.435,101.092 C294.052,102.839 294.052,105.672 292.352,107.506 L280.644,119.21 C278.897,120.827 276.063,120.827 274.23,119.127 L256.79,101.684 C255.173,99.937 255.173,97.103 256.873,95.269 L268.581,83.565 Z M264.074,79.059 L252.284,90.849 C248.233,95.213 248.233,101.826 252.2,106.104 L269.81,123.716 C274.174,127.767 280.787,127.767 285.064,123.8 L296.941,111.926 C300.992,107.562 300.992,100.949 297.024,96.671 L279.415,79.059 C275.051,75.008 268.438,75.008 264.16,78.976 Z" />
            <path d="M269.173,97.268 L278.732,106.827 C279.977,108.072 281.994,108.072 283.239,106.827 C284.483,105.583 284.483,103.565 283.239,102.321 L273.679,92.761 C272.435,91.517 270.417,91.517 269.173,92.761 C267.928,94.006 267.928,96.023 269.173,97.268 Z" />
            <path d="M254.514,104.233 L232.801,125.946 C231.008,127.738 230.001,130.17 230,132.705 L230,139.627 C230,141.317 230.671,142.938 231.867,144.133 C233.062,145.329 234.683,146 236.373,146 L245.933,146 C247.623,146 249.244,145.329 250.44,144.133 C251.635,142.938 252.306,141.317 252.306,139.627 L252.306,136.44 C252.306,136.44 252.306,136.44 252.306,136.44 C252.306,136.44 252.306,136.44 252.306,136.44 L255.493,136.44 C257.183,136.44 258.804,135.769 259.999,134.574 C261.195,133.378 261.866,131.757 261.866,130.067 L261.866,126.88 C261.866,126.88 261.866,126.88 261.866,126.88 C261.866,126.88 261.866,126.88 261.866,126.88 L262.414,126.88 C264.95,126.88 267.381,125.872 269.174,124.079 L271.767,121.486 C273.012,120.241 273.012,118.224 271.767,116.979 C270.523,115.735 268.505,115.735 267.261,116.979 L264.667,119.573 C264.069,120.171 263.259,120.507 262.413,120.507 L261.866,120.507 C260.176,120.507 258.555,121.179 257.359,122.374 C256.164,123.569 255.493,125.19 255.493,126.88 L255.493,130.067 C255.493,130.067 255.493,130.067 255.493,130.067 C255.493,130.067 255.493,130.067 255.493,130.067 L252.306,130.067 C250.616,130.067 248.995,130.738 247.8,131.934 C246.604,133.129 245.933,134.75 245.933,136.44 L245.933,139.627 C245.933,139.627 245.933,139.627 245.933,139.627 C245.933,139.627 245.933,139.627 245.933,139.627 L236.373,139.627 C236.373,139.627 236.373,139.627 236.373,139.627 C236.373,139.627 236.373,139.627 236.373,139.627 L236.373,132.705 C236.373,131.861 236.709,131.051 237.307,130.453 L259.021,108.739 C260.265,107.495 260.265,105.477 259.021,104.233 C257.776,102.988 255.759,102.988 254.514,104.233 Z" />
        </g>
        <g id="Regular-M" transform="translate(0,200)">
            <path d="M468.494,83.648 C470.328,81.948 473.161,81.948 474.995,83.648 L492.435,101.092 C494.052,102.839 494.052,105.672 492.352,107.506 L480.644,119.21 C478.897,120.827 476.063,120.827 474.23,119.127 L456.79,101.684 C455.173,99.937 455.173,97.103 456.873,95.269 L468.581,83.565 Z M464.074,79.059 L452.284,90.849 C448.233,95.213 448.233,101.826 452.2,106.104 L469.81,123.716 C474.174,127.767 480.787,127.767 485.064,123.8 L496.941,111.926 C500.992,107.562 500.992,100.949 497.024,96.671 L479.415,79.059 C475.051,75.008 468.438,75.008 464.16,78.976 Z" />
            <path d="M469.173,97.268 L478.732,106.827 C479.977,108.072 481.994,108.072 483.239,106.827 C484.483,105.583 484.483,103.565 483.239,102.321 L473.679,92.761 C472.435,91.517 470.417,91.517 469.173,92.761 C467.928,94.006 467.928,96.023 469.173,97.268 Z" />
            <path d="M454.514,104.233 L432.801,125.946 C431.008,127.738 430.001,130.17 430,132.705 L430,139.627 C430,141.317 430.671,142.938 431.867,144.133 C433.062,145.329 434.683,146 436.373,146 L445.933,146 C447.623,146 449.244,145.329 450.44,144.133 C451.635,142.938 452.306,141.317 452.306,139.627 L452.306,136.44 C452.306,136.44 452.306,136.44 452.306,136.44 C452.306,136.44 452.306,136.44 452.306,136.44 L455.493,136.44 C457.183,136.44 458.804,135.769 459.999,134.574 C461.195,133.378 461.866,131.757 461.866,130.067 L461.866,126.88 C461.866,126.88 461.866,126.88 461.866,126.88 C461.866,126.88 461.866,126.88 461.866,126.88 L462.414,126.88 C464.95,126.88 467.381,125.872 469.174,124.079 L471.767,121.486 C473.012,120.241 473.012,118.224 471.767,116.979 C470.523,115.735 468.505,115.735 467.261,116.979 L464.667,119.573 C464.069,120.171 463.259,120.507 462.413,120.507 L461.866,120.507 C460.176,120.507 458.555,121.179 457.359,122.374 C456.164,123.569 455.493,125.19 455.493,126.88 L455.493,130.067 C455.493,130.067 455.493,130.067 455.493,130.067 C455.493,130.067 455.493,130.067 455.493,130.067 L452.306,130.067 C450.616,130.067 448.995,130.738 447.8,131.934 C446.604,133.129 445.933,134.75 445.933,136.44 L445.933,139.627 C445.933,139.627 445.933,139.627 445.933,139.627 C445.933,139.627 445.933,139.627 445.933,139.627 L436.373,139.627 C436.373,139.627 436.373,139.627 436.373,139.627 C436.373,139.627 436.373,139.627 436.373,139.627 L436.373,132.705 C436.373,131.861 436.709,131.051 437.307,130.453 L459.021,108.739 C460.265,107.495 460.265,105.477 459.021,104.233 C457.776,102.988 455.759,102.988 454.514,104.233 Z" />
        </g>
        <g id="Black-M" transform="translate(0,200)">
            <path d="M668.494,83.648 C670.328,81.948 673.161,81.948 674.995,83.648 L692.435,101.092 C694.052,102.839 694.052,105.672 692.352,107.506 L680.644,119.21 C678.897,120.827 676.063,120.827 674.23,119.127 L656.79,101.684 C655.173,99.937 655.173,97.103 656.873,95.269 L668.581,83.565 Z M664.074,79.059 L652.284,90.849 C648.233,95.213 648.233,101.826 652.2,106.104 L669.81,123.716 C674.174,127.767 680.787,127.767 685.065,123.8 L696.941,111.926 C700.992,107.562 700.992,100.949 697.024,96.671 L679.415,79.059 C675.051,75.008 668.438,75.008 664.16,78.976 Z" />
            <path d="M669.173,97.268 L678.732,106.827 C679.977,108.072 681.994,108.072 683.239,106.827 C684.483,105.583 684.483,103.565 683.239,102.321 L673.679,92.761 C672.435,91.517 670.417,91.517 669.173,92.761 C667.928,94.006 667.928,96.023 669.173,97.268 Z" />
            <path d="M654.514,104.233 L632.801,125.946 C631.008,127.738 630.001,130.17 630,132.705 L630,139.627 C630,141.317 630.671,142.938 631.867,144.133 C633.062,145.329 634.683,146 636.373,146 L645.933,146 C647.623,146 649.244,145.329 650.44,144.133 C651.635,142.938 652.306,141.317 652.306,139.627 L652.306,136.44 C652.306,136.44 652.306,136.44 652.306,136.44 C652.306,136.44 652.306,136.44 652.306,136.44 L655.493,136.44 C657.183,136.44 658.804,135.769 659.999,134.574 C661.195,133.378 661.866,131.757 661.866,130.067 L661.866,126.88 C661.866,126.88 661.866,126.88 661.866,126.88 C661.866,126.88 661.866,126.88 661.866,126.88 L662.414,126.88 C664.95,126.88 667.381,125.872 669.174,124.079 L671.767,121.486 C673.012,120.241 673.012,118.224 671.767,116.979 C670.523,115.735 668.505,115.735 667.261,116.979 L664.667,119.573 C664.069,120.171 663.258,120.507 662.413,120.507 L661.866,120.507 C660.176,120.507 658.555,121.179 657.359,122.374 C656.164,123.569 655.493,125.19 655.493,126.88 L655.493,130.067 C655.493,130.067 655.493,130.067 655.493,130.067 C655.493,130.067 655.493,130.067 655.493,130.067 L652.306,130.067 C650.616,130.067 648.995,130.738 647.8,131.934 C646.604,133.129 645.933,134.75 645.933,136.44 L645.933,139.627 C645.933,139.627 645.933,139.627 645.933,139.627 C645.933,139.627 645.933,139.627 645.933,139.627 L636.373,139.627 C636.373,139.627 636.373,139.627 636.373,139.627 C636.373,139.627 636.373,139.627 636.373,139.627 L636.373,132.705 C636.373,131.861 636.709,131.051 637.307,130.453 L659.021,108.739 C660.265,107.495 660.265,105.477 659.021,104.233 C657.776,102.988 655.759,102.988 654.514,104.233 Z" />
        </g>
    </g>
</svg>