<?xml version="1.0" encoding="UTF-8"?>
<svg height="600" width="800" xmlns="http://www.w3.org/2000/svg" xmlns:xlink="http://www.w3.org/1999/xlink">
    <g id="Notes" font-family="LucidaGrande, 'Lucida Grande', sans-serif" font-size="13">
        <rect fill="white" height="600.0" width="800.0" x="0.0" y="0.0" />
        <g font-size="13">
            <text x="18.0" y="176.0">Small</text>
            <text x="18.0" y="376.0">Medium</text>
            <text x="18.0" y="576.0">Large</text>
        </g>
        <g font-size="9">
            <text x="250.0" y="30.0">Ultralight</text>
            <text x="450.0" y="30.0">Regular</text>
            <text x="650.0" y="30.0">Black</text>
            <text id="template-version" fill="#505050" text-anchor="end" x="785.0" y="575.0">Template v.3.0</text>
            <a href="https://github.com/swhitty/SwiftDraw">
                <text fill="#505050" text-anchor="end" x="785.0" y="590.0">https://github.com/swhitty/SwiftDraw</text>
            </a>
        </g>
    </g>
    <g id="Guides" stroke="rgb(39, 170, 225)" stroke-width="0.5">
        <path id="Capline-S" d="M18,76 l800,0" />
        <path id="H-reference" d="M85,145.755 L87.685,145.755 L113.369,79.287 L114.052,79.287 L114.052,76 L112.148,76 L85,145.755 Z M95.693,121.536 L130.996,121.536 L130.263,119.313 L96.474,119.313 L95.693,121.536 Z M139.15,145.755 L141.787,145.755 L114.638,76 L113.466,76 L113.466,79.287 L139.15,145.755 Z" stroke="none" transform="translate(0,200)" />
        <path id="Baseline-S" d="M18,146 l800,0" />
        <path id="left-margin-Ultralight-M" d="M221.25,256 l0,110" />
        <path id="right-margin-Ultralight-M" d="M308.75,256 l0,110" />
        <path id="left-margin-Regular-M" d="M421.25,256 l0,110" />
        <path id="right-margin-Regular-M" d="M508.75,256 l0,110" />
        <path id="left-margin-Black-M" d="M621.25,256 l0,110" />
        <path id="right-margin-Black-M" d="M708.75,256 l0,110" />
        <path id="Capline-M" d="M18,276 l800,0" />
        <path id="Baseline-M" d="M18,346 l800,0" />
        <path id="Capline-L" d="M18,476 l800,0" />
        <path id="Baseline-L" d="M18,546 l800,0" />
    </g>
    <g id="Symbols">
        <g id="Ultralight-M" transform="translate(0,200)">
            <path d="M248.781,81.656 L222.531,107.906 C220.823,109.615 220.823,112.385 222.531,114.094 L248.781,140.344 C250.49,142.052 253.26,142.052 254.969,140.344 C256.677,138.635 256.677,135.865 254.969,134.156 L228.719,107.906 L228.719,114.094 L254.969,87.844 C256.677,86.135 256.677,83.365 254.969,81.656 C253.26,79.948 250.49,79.948 248.781,81.656 Z" />
            <path d="M225.625,115.375 L286.875,115.375 C289.291,115.375 291.25,113.416 291.25,111 C291.25,108.584 289.291,106.625 286.875,106.625 L225.625,106.625 C223.209,106.625 221.25,108.584 221.25,111 C221.25,113.416 223.209,115.375 225.625,115.375 Z" />
            <path d="M308.75,141.625 L308.75,80.375 C308.75,77.959 306.791,76 304.375,76 C301.959,76 300,77.959 300,80.375 L300,141.625 C300,144.041 301.959,146 304.375,146 C306.791,146 308.75,144.041 308.75,141.625 Z" />
        </g>
        <g id="Regular-M" transform="translate(0,200)">
            <path d="M448.781,81.656 L422.531,107.906 C420.823,109.615 420.823,112.385 422.531,114.094 L448.781,140.344 C450.49,142.052 453.26,142.052 454.969,140.344 C456.677,138.635 456.677,135.865 454.969,134.156 L428.719,107.906 L428.719,114.094 L454.969,87.844 C456.677,86.135 456.677,83.365 454.969,81.656 C453.26,79.948 450.49,79.948 448.781,81.656 Z" />
            <path d="M425.625,115.375 L486.875,115.375 C489.291,115.375 491.25,113.416 491.25,111 C491.25,108.584 489.291,106.625 486.875,106.625 L425.625,106.625 C423.209,106.625 421.25,108.584 421.25,111 C421.25,113.416 423.209,115.375 425.625,115.375 Z" />
            <path d="M508.75,141.625 L508.75,80.375 C508.75,77.959 506.791,76 504.375,76 C501.959,76 500,77.959 500,80.375 L500,141.625 C500,144.041 501.959,146 504.375,146 C506.791,146 508.75,144.041 508.75,141.625 Z" />
        </g>
        <g id="Black-M" transform="translate(0,200)">
            <path d="M648.781,81.656 L622.531,107.906 C620.823,109.615 620.823,112.385 622.531,114.094 L648.781,140.344 C650.49,142.052 653.26,142.052 654.969,140.344 C656.677,138.635 656.677,135.865 654.969,134.156 L628.719,107.906 L628.719,114.094 L654.969,87.844 C656.677,86.135 656.677,83.365 654.969,81.656 C653.26,79.948 650.49,79.948 648.781,81.656 Z" />
            <path d="M625.625,115.375 L686.875,115.375 C689.291,115.375 691.25,113.416 691.25,111 C691.25,108.584 689.291,106.625 686.875,106.625 L625.625,106.625 C623.209,106.625 621.25,108.584 621.25,111 C621.25,113.416 623.209,115.375 625.625,115.375 Z" />
            <path d="M708.75,141.625 L708.75,80.375 C708.75,77.959 706.791,76 704.375,76 C701.959,76 700,77.959 700,80.375 L700,141.625 C700,144.041 701.959,146 704.375,146 C706.791,146 708.75,144.041 708.75,141.625 Z" />
        </g>
    </g>
</svg>