<?xml version="1.0" encoding="UTF-8"?>
<svg height="600" width="800" xmlns="http://www.w3.org/2000/svg" xmlns:xlink="http://www.w3.org/1999/xlink">
    <g id="Notes" font-family="LucidaGrande, 'Lucida Grande', sans-serif" font-size="13">
        <rect fill="white" height="600.0" width="800.0" x="0.0" y="0.0" />
        <g font-size="13">
            <text x="18.0" y="176.0">Small</text>
            <text x="18.0" y="376.0">Medium</text>
            <text x="18.0" y="576.0">Large</text>
        </g>
        <g font-size="9">
            <text x="250.0" y="30.0">Ultralight</text>
            <text x="450.0" y="30.0">Regular</text>
            <text x="650.0" y="30.0">Black</text>
            <text id="template-version" fill="#505050" text-anchor="end" x="785.0" y="575.0">Template v.3.0</text>
            <a href="https://github.com/swhitty/SwiftDraw">
                <text fill="#505050" text-anchor="end" x="785.0" y="590.0">https://github.com/swhitty/SwiftDraw</text>
            </a>
        </g>
    </g>
    <g id="Guides" stroke="rgb(39, 170, 225)" stroke-width="0.5">
        <path id="Capline-S" d="M18,76 l800,0" />
        <path id="H-reference" d="M85,145.755 L87.685,145.755 L113.369,79.287 L114.052,79.287 L114.052,76 L112.148,76 L85,145.755 Z M95.693,121.536 L130.996,121.536 L130.263,119.313 L96.474,119.313 L95.693,121.536 Z M139.15,145.755 L141.787,145.755 L114.638,76 L113.466,76 L113.466,79.287 L139.15,145.755 Z" stroke="none" transform="translate(0,200)" />
        <path id="Baseline-S" d="M18,146 l800,0" />
        <path id="left-margin-Ultralight-M" d="M249.091,256 l0,110" />
        <path id="right-margin-Ultralight-M" d="M280.909,256 l0,110" />
        <path id="left-margin-Regular-M" d="M449.091,256 l0,110" />
        <path id="right-margin-Regular-M" d="M480.909,256 l0,110" />
        <path id="left-margin-Black-M" d="M649.091,256 l0,110" />
        <path id="right-margin-Black-M" d="M680.909,256 l0,110" />
        <path id="Capline-M" d="M18,276 l800,0" />
        <path id="Baseline-M" d="M18,346 l800,0" />
        <path id="Capline-L" d="M18,476 l800,0" />
        <path id="Baseline-L" d="M18,546 l800,0" />
    </g>
    <g id="Symbols">
        <g id="Ultralight-M" transform="translate(0,200)">
            <path d="M255.455,130.091 C255.455,124.819 259.728,120.545 265,120.545 C270.272,120.545 274.545,124.819 274.545,130.091 C274.545,135.363 270.272,139.636 265,139.636 C259.728,139.636 255.455,135.363 255.455,130.091 Z M249.091,130.091 C249.091,138.877 256.214,146 265,146 C273.786,146 280.909,138.877 280.909,130.091 C280.909,121.305 273.786,114.182 265,114.182 C256.214,114.182 249.091,121.305 249.091,130.091 Z" />
            <path d="M280.909,130.091 L280.909,79.182 C280.909,77.425 279.485,76 277.727,76 C275.97,76 274.545,77.425 274.545,79.182 L274.545,130.091 C274.545,131.848 275.97,133.273 277.727,133.273 C279.485,133.273 280.909,131.848 280.909,130.091 Z" />
        </g>
        <g id="Regular-M" transform="translate(0,200)">
            <path d="M455.455,130.091 C455.455,124.819 459.728,120.545 465,120.545 C470.272,120.545 474.545,124.819 474.545,130.091 C474.545,135.363 470.272,139.636 465,139.636 C459.728,139.636 455.455,135.363 455.455,130.091 Z M449.091,130.091 C449.091,138.877 456.214,146 465,146 C473.786,146 480.909,138.877 480.909,130.091 C480.909,121.305 473.786,114.182 465,114.182 C456.214,114.182 449.091,121.305 449.091,130.091 Z" />
            <path d="M480.909,130.091 L480.909,79.182 C480.909,77.425 479.485,76 477.727,76 C475.97,76 474.545,77.425 474.545,79.182 L474.545,130.091 C474.545,131.848 475.97,133.273 477.727,133.273 C479.485,133.273 480.909,131.848 480.909,130.091 Z" />
        </g>
        <g id="Black-M" transform="translate(0,200)">
            <path d="M655.455,130.091 C655.455,124.819 659.728,120.545 665,120.545 C670.272,120.545 674.545,124.819 674.545,130.091 C674.545,135.363 670.272,139.636 665,139.636 C659.728,139.636 655.455,135.363 655.455,130.091 Z M649.091,130.091 C649.091,138.877 656.214,146 665,146 C673.786,146 680.909,138.877 680.909,130.091 C680.909,121.305 673.786,114.182 665,114.182 C656.214,114.182 649.091,121.305 649.091,130.091 Z" />
            <path d="M680.909,130.091 L680.909,79.182 C680.909,77.425 679.484,76 677.727,76 C675.97,76 674.545,77.425 674.545,79.182 L674.545,130.091 C674.545,131.848 675.97,133.273 677.727,133.273 C679.484,133.273 680.909,131.848 680.909,130.091 Z" />
        </g>
    </g>
</svg>