<?xml version="1.0" encoding="UTF-8"?>
<svg height="600" width="800" xmlns="http://www.w3.org/2000/svg" xmlns:xlink="http://www.w3.org/1999/xlink">
    <g id="Notes" font-family="LucidaGrande, 'Lucida Grande', sans-serif" font-size="13">
        <rect fill="white" height="600.0" width="800.0" x="0.0" y="0.0" />
        <g font-size="13">
            <text x="18.0" y="176.0">Small</text>
            <text x="18.0" y="376.0">Medium</text>
            <text x="18.0" y="576.0">Large</text>
        </g>
        <g font-size="9">
            <text x="250.0" y="30.0">Ultralight</text>
            <text x="450.0" y="30.0">Regular</text>
            <text x="650.0" y="30.0">Black</text>
            <text id="template-version" fill="#505050" text-anchor="end" x="785.0" y="575.0">Template v.3.0</text>
            <a href="https://github.com/swhitty/SwiftDraw">
                <text fill="#505050" text-anchor="end" x="785.0" y="590.0">https://github.com/swhitty/SwiftDraw</text>
            </a>
        </g>
    </g>
    <g id="Guides" stroke="rgb(39, 170, 225)" stroke-width="0.5">
        <path id="Capline-S" d="M18,76 l800,0" />
        <path id="H-reference" d="M85,145.755 L87.685,145.755 L113.369,79.287 L114.052,79.287 L114.052,76 L112.148,76 L85,145.755 Z M95.693,121.536 L130.996,121.536 L130.263,119.313 L96.474,119.313 L95.693,121.536 Z M139.15,145.755 L141.787,145.755 L114.638,76 L113.466,76 L113.466,79.287 L139.15,145.755 Z" stroke="none" transform="translate(0,200)" />
        <path id="Baseline-S" d="M18,146 l800,0" />
        <path id="left-margin-Ultralight-M" d="M230,256 l0,110" />
        <path id="right-margin-Ultralight-M" d="M300,256 l0,110" />
        <path id="left-margin-Regular-M" d="M430,256 l0,110" />
        <path id="right-margin-Regular-M" d="M500,256 l0,110" />
        <path id="left-margin-Black-M" d="M630,256 l0,110" />
        <path id="right-margin-Black-M" d="M700,256 l0,110" />
        <path id="Capline-M" d="M18,276 l800,0" />
        <path id="Baseline-M" d="M18,346 l800,0" />
        <path id="Capline-L" d="M18,476 l800,0" />
        <path id="Baseline-L" d="M18,546 l800,0" />
    </g>
    <g id="Symbols">
        <g id="Ultralight-M" transform="translate(0,200)">
            <path d="M256.734,141.227 C258.439,144.181 261.59,146 265,146 C268.41,146 271.561,144.181 273.266,141.227 C274.145,139.706 273.624,137.76 272.102,136.881 C270.58,136.002 268.634,136.524 267.755,138.045 C267.187,139.03 266.137,139.636 265,139.636 C263.863,139.636 262.813,139.03 262.245,138.045 C261.366,136.524 259.42,136.002 257.898,136.881 C256.376,137.76 255.855,139.706 256.734,141.227 Z" />
            <path d="M280.909,123.728 L239.545,123.728 C239.544,123.728 239.544,123.728 239.544,123.728 C239.544,123.728 239.544,123.728 239.544,123.728 C246.483,116.577 249.091,111.057 249.091,98.273 C249.091,96.704 249.322,95.148 249.776,93.65 C250.286,91.968 249.337,90.192 247.655,89.681 C245.974,89.171 244.197,90.121 243.687,91.802 C243.05,93.9 242.727,96.078 242.727,98.273 C242.727,109.259 240.839,113.257 234.907,119.371 C233.142,121.309 232.705,123.997 233.725,126.302 C234.744,128.606 237.027,130.092 239.547,130.091 L280.909,130.091 C282.666,130.091 284.091,128.667 284.091,126.909 C284.091,125.152 282.666,123.728 280.909,123.728 Z" />
            <path d="M230.932,81.432 L294.568,145.068 C295.811,146.311 297.826,146.311 299.068,145.068 C300.311,143.826 300.311,141.811 299.068,140.568 L235.432,76.933 C234.189,75.69 232.175,75.69 230.932,76.933 C229.689,78.175 229.689,80.19 230.932,81.432 Z" />
            <path d="M256.165,85.042 C261.046,81.783 267.326,81.476 272.502,84.243 C277.678,87.011 280.909,92.404 280.909,98.273 C280.909,106.622 283.07,113.615 286.88,119.295 C287.859,120.755 289.835,121.144 291.295,120.165 C292.754,119.187 293.144,117.21 292.165,115.751 C289.053,111.111 287.273,105.35 287.273,98.273 C287.273,90.056 282.749,82.506 275.502,78.632 C268.256,74.757 259.465,75.187 252.631,79.75 C251.17,80.726 250.776,82.702 251.752,84.163 C252.728,85.624 254.704,86.018 256.165,85.042 Z" />
        </g>
        <g id="Regular-M" transform="translate(0,200)">
            <path d="M456.734,141.227 C458.439,144.181 461.59,146 465,146 C468.41,146 471.561,144.181 473.266,141.227 C474.145,139.706 473.624,137.76 472.102,136.881 C470.58,136.002 468.634,136.524 467.755,138.045 C467.187,139.03 466.137,139.636 465,139.636 C463.863,139.636 462.813,139.03 462.245,138.045 C461.366,136.524 459.42,136.002 457.898,136.881 C456.376,137.76 455.855,139.706 456.734,141.227 Z" />
            <path d="M480.909,123.728 L439.545,123.728 C439.544,123.728 439.544,123.728 439.544,123.728 C439.544,123.728 439.544,123.728 439.544,123.728 C446.483,116.577 449.091,111.057 449.091,98.273 C449.091,96.704 449.322,95.148 449.776,93.65 C450.286,91.968 449.337,90.192 447.655,89.681 C445.974,89.171 444.197,90.121 443.687,91.802 C443.05,93.9 442.727,96.078 442.727,98.273 C442.727,109.259 440.839,113.257 434.907,119.371 C433.142,121.309 432.705,123.997 433.725,126.302 C434.744,128.606 437.027,130.092 439.547,130.091 L480.909,130.091 C482.666,130.091 484.091,128.667 484.091,126.909 C484.091,125.152 482.666,123.728 480.909,123.728 Z" />
            <path d="M430.932,81.432 L494.568,145.068 C495.811,146.311 497.826,146.311 499.068,145.068 C500.311,143.826 500.311,141.811 499.068,140.568 L435.432,76.933 C434.189,75.69 432.174,75.69 430.932,76.933 C429.689,78.175 429.689,80.19 430.932,81.432 Z" />
            <path d="M456.165,85.042 C461.046,81.783 467.326,81.476 472.502,84.243 C477.678,87.011 480.909,92.404 480.909,98.273 C480.909,106.622 483.07,113.615 486.88,119.295 C487.859,120.755 489.835,121.144 491.295,120.165 C492.754,119.187 493.144,117.21 492.165,115.751 C489.053,111.111 487.273,105.35 487.273,98.273 C487.273,90.056 482.749,82.506 475.502,78.632 C468.256,74.757 459.465,75.187 452.631,79.75 C451.17,80.726 450.776,82.702 451.752,84.163 C452.728,85.624 454.704,86.018 456.165,85.042 Z" />
        </g>
        <g id="Black-M" transform="translate(0,200)">
            <path d="M656.734,141.227 C658.439,144.181 661.59,146 665,146 C668.41,146 671.561,144.181 673.266,141.227 C674.145,139.706 673.624,137.76 672.102,136.881 C670.58,136.002 668.634,136.524 667.755,138.045 C667.187,139.03 666.137,139.636 665,139.636 C663.863,139.636 662.813,139.03 662.245,138.045 C661.366,136.524 659.42,136.002 657.898,136.881 C656.376,137.76 655.855,139.706 656.734,141.227 Z" />
            <path d="M680.909,123.728 L639.545,123.728 C639.544,123.728 639.544,123.728 639.544,123.728 C639.544,123.728 639.544,123.728 639.544,123.728 C646.483,116.577 649.091,111.057 649.091,98.273 C649.091,96.704 649.322,95.148 649.776,93.65 C650.286,91.968 649.337,90.192 647.655,89.681 C645.974,89.171 644.197,90.121 643.687,91.802 C643.05,93.9 642.727,96.078 642.727,98.273 C642.727,109.259 640.839,113.257 634.907,119.371 C633.142,121.309 632.705,123.997 633.725,126.302 C634.744,128.606 637.027,130.092 639.547,130.091 L680.909,130.091 C682.666,130.091 684.091,128.667 684.091,126.909 C684.091,125.152 682.666,123.728 680.909,123.728 Z" />
            <path d="M630.932,81.432 L694.568,145.068 C695.811,146.311 697.826,146.311 699.068,145.068 C700.311,143.826 700.311,141.811 699.068,140.568 L635.432,76.933 C634.189,75.69 632.174,75.69 630.932,76.933 C629.689,78.175 629.689,80.19 630.932,81.432 Z" />
            <path d="M656.165,85.042 C661.046,81.783 667.326,81.476 672.502,84.243 C677.678,87.011 680.909,92.404 680.909,98.273 C680.909,106.622 683.07,113.615 686.88,119.295 C687.859,120.755 689.835,121.144 691.295,120.165 C692.754,119.187 693.144,117.21 692.165,115.751 C689.053,111.111 687.273,105.35 687.273,98.273 C687.273,90.056 682.749,82.506 675.502,78.632 C668.256,74.757 659.465,75.187 652.631,79.75 C651.17,80.726 650.776,82.702 651.752,84.163 C652.728,85.624 654.704,86.018 656.165,85.042 Z" />
        </g>
    </g>
</svg>