<?xml version="1.0" encoding="UTF-8"?>
<svg height="600" width="800" xmlns="http://www.w3.org/2000/svg" xmlns:xlink="http://www.w3.org/1999/xlink">
    <g id="Notes" font-family="LucidaGrande, 'Lucida Grande', sans-serif" font-size="13">
        <rect fill="white" height="600.0" width="800.0" x="0.0" y="0.0" />
        <g font-size="13">
            <text x="18.0" y="176.0">Small</text>
            <text x="18.0" y="376.0">Medium</text>
            <text x="18.0" y="576.0">Large</text>
        </g>
        <g font-size="9">
            <text x="250.0" y="30.0">Ultralight</text>
            <text x="450.0" y="30.0">Regular</text>
            <text x="650.0" y="30.0">Black</text>
            <text id="template-version" fill="#505050" text-anchor="end" x="785.0" y="575.0">Template v.3.0</text>
            <a href="https://github.com/swhitty/SwiftDraw">
                <text fill="#505050" text-anchor="end" x="785.0" y="590.0">https://github.com/swhitty/SwiftDraw</text>
            </a>
        </g>
    </g>
    <g id="Guides" stroke="rgb(39, 170, 225)" stroke-width="0.5">
        <path id="Capline-S" d="M18,76 l800,0" />
        <path id="H-reference" d="M85,145.755 L87.685,145.755 L113.369,79.287 L114.052,79.287 L114.052,76 L112.148,76 L85,145.755 Z M95.693,121.536 L130.996,121.536 L130.263,119.313 L96.474,119.313 L95.693,121.536 Z M139.15,145.755 L141.787,145.755 L114.638,76 L113.466,76 L113.466,79.287 L139.15,145.755 Z" stroke="none" transform="translate(0,200)" />
        <path id="Baseline-S" d="M18,146 l800,0" />
        <path id="left-margin-Ultralight-M" d="M221,256 l0,110" />
        <path id="right-margin-Ultralight-M" d="M309,256 l0,110" />
        <path id="left-margin-Regular-M" d="M421,256 l0,110" />
        <path id="right-margin-Regular-M" d="M509,256 l0,110" />
        <path id="left-margin-Black-M" d="M621,256 l0,110" />
        <path id="right-margin-Black-M" d="M709,256 l0,110" />
        <path id="Capline-M" d="M18,276 l800,0" />
        <path id="Baseline-M" d="M18,346 l800,0" />
        <path id="Capline-L" d="M18,476 l800,0" />
        <path id="Baseline-L" d="M18,546 l800,0" />
    </g>
    <g id="Symbols">
        <g id="Ultralight-M" transform="translate(0,200)">
            <path d="M260.951,111.113 L268.941,111.113 C275.561,111.113 280.927,105.763 280.927,99.162 C280.927,92.561 275.561,87.211 268.941,87.211 L256.956,87.211 C253.333,87.211 250.161,88.542 248.167,91.194 L251.363,93.585 L248.59,90.717 L226.217,112.229 C224.629,113.757 224.583,116.279 226.114,117.862 C227.646,119.446 230.175,119.492 231.763,117.965 L254.136,96.452 L254.559,95.975 C254.915,95.501 255.685,95.178 256.956,95.178 L268.941,95.178 C271.148,95.178 272.936,96.962 272.936,99.162 C272.936,101.362 271.148,103.146 268.941,103.146 L260.951,103.146 C258.745,103.146 256.956,104.929 256.956,107.13 C256.956,109.33 258.745,111.113 260.951,111.113 Z" />
            <path d="M247.601,134.031 L253.994,128.453 L254.559,127.845 C254.915,127.372 255.685,127.049 256.956,127.049 L272.936,127.049 C278.546,127.049 283.605,124.925 287.129,120.908 L305.262,103.634 C310.058,99.114 310.273,91.545 305.724,86.745 C301.174,81.945 293.584,81.731 288.77,86.267 L272.016,101.78 C270.399,103.277 270.305,105.798 271.807,107.41 C273.308,109.023 275.836,109.116 277.453,107.619 L294.232,92.082 C295.864,90.544 298.398,90.615 299.916,92.218 C301.435,93.82 301.363,96.346 299.756,97.86 L281.361,115.405 C279.164,117.885 276.316,119.081 272.936,119.081 L256.956,119.081 C253.333,119.081 250.161,120.413 248.167,123.065 L251.363,125.455 L248.732,122.457 L242.34,128.034 C240.679,129.483 240.511,132 241.964,133.656 C243.417,135.312 245.941,135.479 247.601,134.031 Z" />
            <path d="M222.17,113.93 L246.141,137.833 C247.701,139.389 250.231,139.389 251.791,137.833 C253.351,136.277 253.351,133.755 251.791,132.199 L227.82,108.296 C226.26,106.741 223.73,106.741 222.17,108.296 C220.61,109.852 220.61,112.375 222.17,113.93 Z" />
        </g>
        <g id="Regular-M" transform="translate(0,200)">
            <path d="M460.951,111.113 L468.941,111.113 C475.561,111.113 480.927,105.763 480.927,99.162 C480.927,92.561 475.561,87.211 468.941,87.211 L456.956,87.211 C453.333,87.211 450.161,88.542 448.167,91.194 L451.363,93.585 L448.59,90.717 L426.217,112.229 C424.629,113.757 424.583,116.279 426.114,117.862 C427.646,119.446 430.175,119.492 431.763,117.965 L454.136,96.452 L454.559,95.975 C454.915,95.501 455.685,95.178 456.956,95.178 L468.941,95.178 C471.148,95.178 472.936,96.962 472.936,99.162 C472.936,101.362 471.148,103.146 468.941,103.146 L460.951,103.146 C458.745,103.146 456.956,104.929 456.956,107.13 C456.956,109.33 458.745,111.113 460.951,111.113 Z" />
            <path d="M447.601,134.031 L453.994,128.453 L454.559,127.845 C454.915,127.372 455.685,127.049 456.956,127.049 L472.936,127.049 C478.546,127.049 483.605,124.925 487.129,120.908 L505.262,103.634 C510.058,99.114 510.273,91.545 505.724,86.745 C501.174,81.945 493.584,81.731 488.77,86.267 L472.016,101.78 C470.399,103.277 470.305,105.798 471.807,107.41 C473.308,109.023 475.836,109.116 477.453,107.619 L494.232,92.082 C495.864,90.544 498.398,90.615 499.916,92.218 C501.435,93.82 501.363,96.346 499.756,97.86 L481.361,115.405 C479.164,117.885 476.316,119.081 472.936,119.081 L456.956,119.081 C453.333,119.081 450.161,120.413 448.167,123.065 L451.363,125.455 L448.732,122.457 L442.34,128.034 C440.679,129.483 440.511,132 441.964,133.656 C443.417,135.312 445.941,135.479 447.601,134.031 Z" />
            <path d="M422.17,113.93 L446.141,137.833 C447.701,139.389 450.231,139.389 451.791,137.833 C453.351,136.277 453.351,133.755 451.791,132.199 L427.82,108.296 C426.26,106.741 423.73,106.741 422.17,108.296 C420.61,109.852 420.61,112.375 422.17,113.93 Z" />
        </g>
        <g id="Black-M" transform="translate(0,200)">
            <path d="M660.951,111.113 L668.941,111.113 C675.561,111.113 680.927,105.763 680.927,99.162 C680.927,92.561 675.561,87.211 668.941,87.211 L656.956,87.211 C653.333,87.211 650.161,88.542 648.167,91.194 L651.363,93.585 L648.59,90.717 L626.217,112.229 C624.629,113.757 624.583,116.279 626.114,117.862 C627.646,119.446 630.175,119.492 631.763,117.965 L654.136,96.452 L654.559,95.975 C654.915,95.501 655.685,95.178 656.956,95.178 L668.941,95.178 C671.148,95.178 672.936,96.962 672.936,99.162 C672.936,101.362 671.148,103.146 668.941,103.146 L660.951,103.146 C658.745,103.146 656.956,104.929 656.956,107.13 C656.956,109.33 658.745,111.113 660.951,111.113 Z" />
            <path d="M647.602,134.031 L653.994,128.453 L654.559,127.845 C654.915,127.372 655.685,127.049 656.956,127.049 L672.936,127.049 C678.546,127.049 683.605,124.925 687.129,120.908 L705.262,103.634 C710.058,99.114 710.273,91.545 705.724,86.745 C701.174,81.945 693.584,81.731 688.77,86.267 L672.016,101.78 C670.399,103.277 670.305,105.798 671.807,107.41 C673.308,109.023 675.836,109.116 677.453,107.619 L694.232,92.082 C695.864,90.544 698.398,90.615 699.916,92.218 C701.435,93.82 701.363,96.346 699.756,97.86 L681.361,115.405 C679.164,117.885 676.316,119.081 672.936,119.081 L656.956,119.081 C653.333,119.081 650.161,120.413 648.167,123.065 L651.363,125.455 L648.732,122.457 L642.34,128.034 C640.679,129.483 640.511,132 641.964,133.656 C643.417,135.312 645.941,135.479 647.602,134.031 Z" />
            <path d="M622.17,113.93 L646.141,137.833 C647.701,139.389 650.231,139.389 651.791,137.833 C653.351,136.277 653.351,133.755 651.791,132.199 L627.82,108.296 C626.26,106.741 623.73,106.741 622.17,108.296 C620.61,109.852 620.61,112.375 622.17,113.93 Z" />
        </g>
    </g>
</svg>