<?xml version="1.0" encoding="UTF-8"?>
<svg height="600" width="800" xmlns="http://www.w3.org/2000/svg" xmlns:xlink="http://www.w3.org/1999/xlink">
    <g id="Notes" font-family="LucidaGrande, 'Lucida Grande', sans-serif" font-size="13">
        <rect fill="white" height="600.0" width="800.0" x="0.0" y="0.0" />
        <g font-size="13">
            <text x="18.0" y="176.0">Small</text>
            <text x="18.0" y="376.0">Medium</text>
            <text x="18.0" y="576.0">Large</text>
        </g>
        <g font-size="9">
            <text x="250.0" y="30.0">Ultralight</text>
            <text x="450.0" y="30.0">Regular</text>
            <text x="650.0" y="30.0">Black</text>
            <text id="template-version" fill="#505050" text-anchor="end" x="785.0" y="575.0">Template v.3.0</text>
            <a href="https://github.com/swhitty/SwiftDraw">
                <text fill="#505050" text-anchor="end" x="785.0" y="590.0">https://github.com/swhitty/SwiftDraw</text>
            </a>
        </g>
    </g>
    <g id="Guides" stroke="rgb(39, 170, 225)" stroke-width="0.5">
        <path id="Capline-S" d="M18,76 l800,0" />
        <path id="H-reference" d="M85,145.755 L87.685,145.755 L113.369,79.287 L114.052,79.287 L114.052,76 L112.148,76 L85,145.755 Z M95.693,121.536 L130.996,121.536 L130.263,119.313 L96.474,119.313 L95.693,121.536 Z M139.15,145.755 L141.787,145.755 L114.638,76 L113.466,76 L113.466,79.287 L139.15,145.755 Z" stroke="none" transform="translate(0,200)" />
        <path id="Baseline-S" d="M18,146 l800,0" />
        <path id="left-margin-Ultralight-M" d="M230,256 l0,110" />
        <path id="right-margin-Ultralight-M" d="M300,256 l0,110" />
        <path id="left-margin-Regular-M" d="M430,256 l0,110" />
        <path id="right-margin-Regular-M" d="M500,256 l0,110" />
        <path id="left-margin-Black-M" d="M630,256 l0,110" />
        <path id="right-margin-Black-M" d="M700,256 l0,110" />
        <path id="Capline-M" d="M18,276 l800,0" />
        <path id="Baseline-M" d="M18,346 l800,0" />
        <path id="Capline-L" d="M18,476 l800,0" />
        <path id="Baseline-L" d="M18,546 l800,0" />
    </g>
    <g id="Symbols">
        <g id="Ultralight-M" transform="translate(0,200)">
            <path d="M230.932,81.432 L294.568,145.059 C295.811,146.301 297.826,146.301 299.068,145.059 C300.311,143.817 300.311,141.802 299.068,140.56 L235.432,76.933 C234.189,75.691 232.175,75.691 230.932,76.933 C229.689,78.176 229.689,80.19 230.932,81.432 Z" />
            <path d="M242.727,85.545 C241.04,85.545 239.421,86.216 238.227,87.409 C237.034,88.602 236.364,90.221 236.364,91.908 L236.364,114.177 C236.364,129.951 245.953,139.77 262.911,145.626 C264.211,146.111 265.717,146.133 267.103,145.663 C275.978,142.567 282.731,138.48 287.32,132.859 C288.431,131.498 288.228,129.494 286.866,128.383 C285.505,127.272 283.5,127.475 282.389,128.836 C278.655,133.411 272.868,136.913 265.034,139.647 C265.061,139.637 265.061,139.637 265.061,139.637 C250.327,134.549 242.727,126.767 242.727,114.177 L242.727,91.908 C242.727,91.908 242.727,91.908 242.727,91.908 C242.727,91.908 242.727,91.908 242.727,91.908 C244.485,91.908 245.909,90.484 245.909,88.727 C245.909,86.97 244.485,85.545 242.727,85.545 Z" />
            <path d="M258.021,87.198 C260.384,85.842 262.609,84.261 264.667,82.477 C264.851,82.319 265.149,82.319 265.351,82.492 C271.709,88.05 280.324,91.908 287.273,91.908 C287.273,91.908 287.273,91.908 287.273,91.908 C287.273,91.908 287.273,91.908 287.273,91.908 L287.273,114.177 C287.275,115.389 287.198,116.595 287.044,117.792 C286.82,119.535 288.051,121.129 289.794,121.353 C291.537,121.578 293.132,120.347 293.356,118.604 C293.545,117.134 293.639,115.654 293.636,114.172 L293.636,91.908 C293.636,90.221 292.966,88.602 291.772,87.409 C290.579,86.216 288.96,85.545 287.273,85.545 C282.025,85.545 274.822,82.32 269.512,77.678 C266.902,75.448 263.098,75.448 260.515,77.655 C258.75,79.186 256.86,80.528 254.854,81.679 C253.33,82.553 252.803,84.498 253.678,86.022 C254.553,87.546 256.497,88.072 258.021,87.198 Z" />
        </g>
        <g id="Regular-M" transform="translate(0,200)">
            <path d="M430.932,81.432 L494.568,145.059 C495.811,146.301 497.826,146.301 499.068,145.059 C500.311,143.817 500.311,141.802 499.068,140.56 L435.432,76.933 C434.189,75.691 432.174,75.691 430.932,76.933 C429.689,78.176 429.689,80.19 430.932,81.432 Z" />
            <path d="M442.727,85.545 C441.04,85.545 439.421,86.216 438.228,87.409 C437.034,88.602 436.364,90.221 436.364,91.908 L436.364,114.177 C436.364,129.951 445.953,139.77 462.911,145.626 C464.211,146.111 465.717,146.133 467.103,145.663 C475.978,142.567 482.731,138.48 487.32,132.859 C488.431,131.498 488.228,129.494 486.866,128.383 C485.505,127.272 483.5,127.475 482.389,128.836 C478.655,133.411 472.868,136.913 465.034,139.647 C465.061,139.637 465.061,139.637 465.061,139.637 C450.327,134.549 442.727,126.767 442.727,114.177 L442.727,91.908 C442.727,91.908 442.727,91.908 442.727,91.908 C442.727,91.908 442.727,91.908 442.727,91.908 C444.485,91.908 445.909,90.484 445.909,88.727 C445.909,86.97 444.485,85.545 442.727,85.545 Z" />
            <path d="M458.021,87.198 C460.384,85.842 462.609,84.261 464.667,82.477 C464.851,82.319 465.149,82.319 465.351,82.492 C471.709,88.05 480.324,91.908 487.273,91.908 C487.273,91.908 487.273,91.908 487.273,91.908 C487.273,91.908 487.273,91.908 487.273,91.908 L487.273,114.177 C487.275,115.389 487.198,116.595 487.044,117.792 C486.82,119.535 488.051,121.129 489.794,121.353 C491.537,121.578 493.132,120.347 493.356,118.604 C493.545,117.134 493.639,115.654 493.636,114.172 L493.636,91.908 C493.636,90.221 492.966,88.602 491.772,87.409 C490.579,86.216 488.96,85.545 487.273,85.545 C482.025,85.545 474.822,82.32 469.512,77.678 C466.902,75.448 463.098,75.448 460.515,77.655 C458.75,79.186 456.86,80.528 454.854,81.679 C453.33,82.553 452.803,84.498 453.678,86.022 C454.553,87.546 456.497,88.072 458.021,87.198 Z" />
        </g>
        <g id="Black-M" transform="translate(0,200)">
            <path d="M630.932,81.432 L694.568,145.059 C695.811,146.301 697.826,146.301 699.068,145.059 C700.311,143.817 700.311,141.802 699.068,140.56 L635.432,76.933 C634.189,75.691 632.174,75.691 630.932,76.933 C629.689,78.176 629.689,80.19 630.932,81.432 Z" />
            <path d="M642.727,85.545 C641.04,85.545 639.421,86.216 638.227,87.409 C637.034,88.602 636.364,90.221 636.364,91.908 L636.364,114.177 C636.364,129.951 645.953,139.77 662.911,145.626 C664.211,146.111 665.717,146.133 667.103,145.663 C675.978,142.567 682.731,138.48 687.32,132.859 C688.431,131.498 688.228,129.494 686.866,128.383 C685.505,127.272 683.5,127.475 682.389,128.836 C678.655,133.411 672.868,136.913 665.034,139.647 C665.061,139.637 665.061,139.637 665.061,139.637 C650.327,134.549 642.727,126.767 642.727,114.177 L642.727,91.908 C642.727,91.908 642.727,91.908 642.727,91.908 C642.727,91.908 642.727,91.908 642.727,91.908 C644.485,91.908 645.909,90.484 645.909,88.727 C645.909,86.97 644.485,85.545 642.727,85.545 Z" />
            <path d="M658.021,87.198 C660.384,85.842 662.609,84.261 664.667,82.477 C664.851,82.319 665.149,82.319 665.351,82.492 C671.709,88.05 680.324,91.908 687.273,91.908 C687.273,91.908 687.273,91.908 687.273,91.908 C687.273,91.908 687.273,91.908 687.273,91.908 L687.273,114.177 C687.275,115.389 687.198,116.595 687.044,117.792 C686.82,119.535 688.051,121.129 689.794,121.353 C691.537,121.578 693.132,120.347 693.356,118.604 C693.545,117.134 693.639,115.654 693.636,114.172 L693.636,91.908 C693.636,90.221 692.966,88.602 691.773,87.409 C690.579,86.216 688.96,85.545 687.273,85.545 C682.025,85.545 674.822,82.32 669.512,77.678 C666.902,75.448 663.098,75.448 660.515,77.655 C658.75,79.186 656.86,80.528 654.854,81.679 C653.33,82.553 652.803,84.498 653.678,86.022 C654.552,87.546 656.497,88.072 658.021,87.198 Z" />
        </g>
    </g>
</svg>