<?xml version="1.0" encoding="UTF-8"?>
<svg height="600" width="800" xmlns="http://www.w3.org/2000/svg" xmlns:xlink="http://www.w3.org/1999/xlink">
    <g id="Notes" font-family="LucidaGrande, 'Lucida Grande', sans-serif" font-size="13">
        <rect fill="white" height="600.0" width="800.0" x="0.0" y="0.0" />
        <g font-size="13">
            <text x="18.0" y="176.0">Small</text>
            <text x="18.0" y="376.0">Medium</text>
            <text x="18.0" y="576.0">Large</text>
        </g>
        <g font-size="9">
            <text x="250.0" y="30.0">Ultralight</text>
            <text x="450.0" y="30.0">Regular</text>
            <text x="650.0" y="30.0">Black</text>
            <text id="template-version" fill="#505050" text-anchor="end" x="785.0" y="575.0">Template v.3.0</text>
            <a href="https://github.com/swhitty/SwiftDraw">
                <text fill="#505050" text-anchor="end" x="785.0" y="590.0">https://github.com/swhitty/SwiftDraw</text>
            </a>
        </g>
    </g>
    <g id="Guides" stroke="rgb(39, 170, 225)" stroke-width="0.5">
        <path id="Capline-S" d="M18,76 l800,0" />
        <path id="H-reference" d="M85,145.755 L87.685,145.755 L113.369,79.287 L114.052,79.287 L114.052,76 L112.148,76 L85,145.755 Z M95.693,121.536 L130.996,121.536 L130.263,119.313 L96.474,119.313 L95.693,121.536 Z M139.15,145.755 L141.787,145.755 L114.638,76 L113.466,76 L113.466,79.287 L139.15,145.755 Z" stroke="none" transform="translate(0,200)" />
        <path id="Baseline-S" d="M18,146 l800,0" />
        <path id="left-margin-Ultralight-M" d="M221,256 l0,110" />
        <path id="right-margin-Ultralight-M" d="M309,256 l0,110" />
        <path id="left-margin-Regular-M" d="M421,256 l0,110" />
        <path id="right-margin-Regular-M" d="M509,256 l0,110" />
        <path id="left-margin-Black-M" d="M621,256 l0,110" />
        <path id="right-margin-Black-M" d="M709,256 l0,110" />
        <path id="Capline-M" d="M18,276 l800,0" />
        <path id="Baseline-M" d="M18,346 l800,0" />
        <path id="Capline-L" d="M18,476 l800,0" />
        <path id="Baseline-L" d="M18,546 l800,0" />
    </g>
    <g id="Symbols">
        <g id="Ultralight-M" transform="translate(0,200)">
            <path d="M228.997,110.999 L262.485,85.396 C263.951,84.276 266.049,84.276 267.516,85.397 L300.999,110.999 C302.716,112.312 305.235,112.062 306.625,110.44 C308.015,108.818 307.75,106.44 306.033,105.127 L272.549,79.524 C268.146,76.159 261.854,76.159 257.452,79.523 L223.963,105.127 C222.246,106.439 221.981,108.818 223.371,110.44 C224.761,112.062 227.28,112.312 228.997,110.999 Z" />
            <path d="M301,126.11 C301,126.11 301,126.11 301,126.11 C301,126.11 301,126.11 301,126.11 L301,133.666 C301,133.666 301,133.666 301,133.666 C301,133.666 301,133.666 301,133.666 L280,133.666 C277.791,133.666 276,135.358 276,137.444 C276,139.531 277.791,141.222 280,141.222 L301,141.222 C303.122,141.222 305.157,140.426 306.657,139.009 C308.157,137.592 309,135.67 309,133.666 L309,126.11 C309,124.106 308.157,122.184 306.657,120.767 C305.157,119.35 303.122,118.554 301,118.554 C298.791,118.554 297,120.246 297,122.332 C297,124.419 298.791,126.11 301,126.11 Z" />
            <path d="M229,118.554 C226.878,118.554 224.843,119.35 223.343,120.767 C221.843,122.184 221,124.106 221,126.11 L221,133.666 C221,135.67 221.843,137.592 223.343,139.009 C224.843,140.426 226.878,141.222 229,141.222 L265,141.222 C267.209,141.222 269,139.531 269,137.444 C269,135.358 267.209,133.666 265,133.666 L229,133.666 C229,133.666 229,133.666 229,133.666 C229,133.666 229,133.666 229,133.666 L229,126.11 C229,126.11 229,126.11 229,126.11 C229,126.11 229,126.11 229,126.11 C231.209,126.11 233,124.419 233,122.332 C233,120.246 231.209,118.554 229,118.554 Z" />
            <path d="M241.279,125.354 L265.799,142.733 C268.346,144.537 271.546,145.311 274.697,144.886 C277.848,144.461 280.69,142.871 282.6,140.466 L295.2,124.599 C296.525,122.93 296.167,120.562 294.4,119.31 C292.633,118.058 290.125,118.396 288.8,120.066 L276.2,135.933 C275.563,136.734 274.616,137.264 273.566,137.406 C272.515,137.548 271.449,137.29 270.6,136.688 L246.081,119.311 C244.314,118.058 241.807,118.396 240.481,120.065 C239.155,121.734 239.512,124.102 241.279,125.354 Z" />
            <path d="M301,114.776 L301,118.554 C301,118.554 301,118.554 301,118.554 C301,118.554 301,118.554 301,118.554 L229,118.554 C229,118.554 229,118.554 229,118.554 C229,118.554 229,118.554 229,118.554 L229,110.998 C229,110.998 229,110.998 229,110.998 C229,110.998 229,110.998 229,110.998 L301,110.998 C301,110.998 301,110.998 301,110.998 C301,110.998 301,110.998 301,110.998 L301,114.776 Z M309,114.776 L309,110.998 C309,108.995 308.157,107.073 306.657,105.656 C305.157,104.239 303.122,103.443 301,103.443 L229,103.443 C226.878,103.443 224.843,104.239 223.343,105.656 C221.843,107.073 221,108.995 221,110.998 L221,118.554 C221,120.558 221.843,122.48 223.343,123.897 C224.843,125.314 226.878,126.11 229,126.11 L301,126.11 C303.122,126.11 305.157,125.314 306.657,123.897 C308.157,122.48 309,120.558 309,118.554 L309,114.776 Z" />
        </g>
        <g id="Regular-M" transform="translate(0,200)">
            <path d="M428.997,110.999 L462.485,85.396 C463.951,84.276 466.049,84.276 467.516,85.397 L500.999,110.999 C502.716,112.312 505.235,112.062 506.625,110.44 C508.015,108.818 507.75,106.44 506.033,105.127 L472.549,79.524 C468.146,76.159 461.854,76.159 457.452,79.523 L423.963,105.127 C422.246,106.439 421.981,108.818 423.371,110.44 C424.761,112.062 427.28,112.312 428.997,110.999 Z" />
            <path d="M501,126.11 C501,126.11 501,126.11 501,126.11 C501,126.11 501,126.11 501,126.11 L501,133.666 C501,133.666 501,133.666 501,133.666 C501,133.666 501,133.666 501,133.666 L480,133.666 C477.791,133.666 476,135.358 476,137.444 C476,139.531 477.791,141.222 480,141.222 L501,141.222 C503.122,141.222 505.157,140.426 506.657,139.009 C508.157,137.592 509,135.67 509,133.666 L509,126.11 C509,124.106 508.157,122.184 506.657,120.767 C505.157,119.35 503.122,118.554 501,118.554 C498.791,118.554 497,120.246 497,122.332 C497,124.419 498.791,126.11 501,126.11 Z" />
            <path d="M429,118.554 C426.878,118.554 424.843,119.35 423.343,120.767 C421.843,122.184 421,124.106 421,126.11 L421,133.666 C421,135.67 421.843,137.592 423.343,139.009 C424.843,140.426 426.878,141.222 429,141.222 L465,141.222 C467.209,141.222 469,139.531 469,137.444 C469,135.358 467.209,133.666 465,133.666 L429,133.666 C429,133.666 429,133.666 429,133.666 C429,133.666 429,133.666 429,133.666 L429,126.11 C429,126.11 429,126.11 429,126.11 C429,126.11 429,126.11 429,126.11 C431.209,126.11 433,124.419 433,122.332 C433,120.246 431.209,118.554 429,118.554 Z" />
            <path d="M441.279,125.354 L465.799,142.733 C468.346,144.537 471.546,145.311 474.697,144.886 C477.848,144.461 480.69,142.871 482.6,140.466 L495.2,124.599 C496.525,122.93 496.167,120.562 494.4,119.31 C492.633,118.058 490.125,118.396 488.8,120.066 L476.2,135.933 C475.563,136.734 474.616,137.264 473.566,137.406 C472.515,137.548 471.449,137.29 470.6,136.688 L446.081,119.311 C444.314,118.058 441.807,118.396 440.481,120.065 C439.155,121.734 439.512,124.102 441.279,125.354 Z" />
            <path d="M501,114.776 L501,118.554 C501,118.554 501,118.554 501,118.554 C501,118.554 501,118.554 501,118.554 L429,118.554 C429,118.554 429,118.554 429,118.554 C429,118.554 429,118.554 429,118.554 L429,110.998 C429,110.998 429,110.998 429,110.998 C429,110.998 429,110.998 429,110.998 L501,110.998 C501,110.998 501,110.998 501,110.998 C501,110.998 501,110.998 501,110.998 L501,114.776 Z M509,114.776 L509,110.998 C509,108.995 508.157,107.073 506.657,105.656 C505.157,104.239 503.122,103.443 501,103.443 L429,103.443 C426.878,103.443 424.843,104.239 423.343,105.656 C421.843,107.073 421,108.995 421,110.998 L421,118.554 C421,120.558 421.843,122.48 423.343,123.897 C424.843,125.314 426.878,126.11 429,126.11 L501,126.11 C503.122,126.11 505.157,125.314 506.657,123.897 C508.157,122.48 509,120.558 509,118.554 L509,114.776 Z" />
        </g>
        <g id="Black-M" transform="translate(0,200)">
            <path d="M628.997,110.999 L662.485,85.396 C663.951,84.276 666.049,84.276 667.516,85.397 L700.999,110.999 C702.716,112.312 705.235,112.062 706.625,110.44 C708.015,108.818 707.75,106.44 706.033,105.127 L672.549,79.524 C668.146,76.159 661.854,76.159 657.452,79.523 L623.963,105.127 C622.246,106.439 621.981,108.818 623.371,110.44 C624.761,112.062 627.28,112.312 628.997,110.999 Z" />
            <path d="M701,126.11 C701,126.11 701,126.11 701,126.11 C701,126.11 701,126.11 701,126.11 L701,133.666 C701,133.666 701,133.666 701,133.666 C701,133.666 701,133.666 701,133.666 L680,133.666 C677.791,133.666 676,135.358 676,137.444 C676,139.531 677.791,141.222 680,141.222 L701,141.222 C703.122,141.222 705.157,140.426 706.657,139.009 C708.157,137.592 709,135.67 709,133.666 L709,126.11 C709,124.106 708.157,122.184 706.657,120.767 C705.157,119.35 703.122,118.554 701,118.554 C698.791,118.554 697,120.246 697,122.332 C697,124.419 698.791,126.11 701,126.11 Z" />
            <path d="M629,118.554 C626.878,118.554 624.843,119.35 623.343,120.767 C621.843,122.184 621,124.106 621,126.11 L621,133.666 C621,135.67 621.843,137.592 623.343,139.009 C624.843,140.426 626.878,141.222 629,141.222 L665,141.222 C667.209,141.222 669,139.531 669,137.444 C669,135.358 667.209,133.666 665,133.666 L629,133.666 C629,133.666 629,133.666 629,133.666 C629,133.666 629,133.666 629,133.666 L629,126.11 C629,126.11 629,126.11 629,126.11 C629,126.11 629,126.11 629,126.11 C631.209,126.11 633,124.419 633,122.332 C633,120.246 631.209,118.554 629,118.554 Z" />
            <path d="M641.279,125.354 L665.799,142.733 C668.346,144.537 671.546,145.311 674.697,144.886 C677.848,144.461 680.69,142.871 682.6,140.466 L695.2,124.599 C696.526,122.93 696.167,120.562 694.4,119.31 C692.633,118.058 690.125,118.396 688.8,120.066 L676.2,135.933 C675.563,136.734 674.616,137.264 673.566,137.406 C672.516,137.548 671.449,137.29 670.6,136.688 L646.081,119.311 C644.314,118.058 641.807,118.396 640.481,120.065 C639.155,121.734 639.512,124.102 641.279,125.354 Z" />
            <path d="M701,114.776 L701,118.554 C701,118.554 701,118.554 701,118.554 C701,118.554 701,118.554 701,118.554 L629,118.554 C629,118.554 629,118.554 629,118.554 C629,118.554 629,118.554 629,118.554 L629,110.998 C629,110.998 629,110.998 629,110.998 C629,110.998 629,110.998 629,110.998 L701,110.998 C701,110.998 701,110.998 701,110.998 C701,110.998 701,110.998 701,110.998 L701,114.776 Z M709,114.776 L709,110.998 C709,108.995 708.157,107.073 706.657,105.656 C705.157,104.239 703.122,103.443 701,103.443 L629,103.443 C626.878,103.443 624.843,104.239 623.343,105.656 C621.843,107.073 621,108.995 621,110.998 L621,118.554 C621,120.558 621.843,122.48 623.343,123.897 C624.843,125.314 626.878,126.11 629,126.11 L701,126.11 C703.122,126.11 705.157,125.314 706.657,123.897 C708.157,122.48 709,120.558 709,118.554 L709,114.776 Z" />
        </g>
    </g>
</svg>