<?xml version="1.0" encoding="UTF-8"?>
<svg height="600" width="800" xmlns="http://www.w3.org/2000/svg" xmlns:xlink="http://www.w3.org/1999/xlink">
    <g id="Notes" font-family="LucidaGrande, 'Lucida Grande', sans-serif" font-size="13">
        <rect fill="white" height="600.0" width="800.0" x="0.0" y="0.0" />
        <g font-size="13">
            <text x="18.0" y="176.0">Small</text>
            <text x="18.0" y="376.0">Medium</text>
            <text x="18.0" y="576.0">Large</text>
        </g>
        <g font-size="9">
            <text x="250.0" y="30.0">Ultralight</text>
            <text x="450.0" y="30.0">Regular</text>
            <text x="650.0" y="30.0">Black</text>
            <text id="template-version" fill="#505050" text-anchor="end" x="785.0" y="575.0">Template v.3.0</text>
            <a href="https://github.com/swhitty/SwiftDraw">
                <text fill="#505050" text-anchor="end" x="785.0" y="590.0">https://github.com/swhitty/SwiftDraw</text>
            </a>
        </g>
    </g>
    <g id="Guides" stroke="rgb(39, 170, 225)" stroke-width="0.5">
        <path id="Capline-S" d="M18,76 l800,0" />
        <path id="H-reference" d="M85,145.755 L87.685,145.755 L113.369,79.287 L114.052,79.287 L114.052,76 L112.148,76 L85,145.755 Z M95.693,121.536 L130.996,121.536 L130.263,119.313 L96.474,119.313 L95.693,121.536 Z M139.15,145.755 L141.787,145.755 L114.638,76 L113.466,76 L113.466,79.287 L139.15,145.755 Z" stroke="none" transform="translate(0,200)" />
        <path id="Baseline-S" d="M18,146 l800,0" />
        <path id="left-margin-Ultralight-M" d="M222.222,256 l0,110" />
        <path id="right-margin-Ultralight-M" d="M307.778,256 l0,110" />
        <path id="left-margin-Regular-M" d="M422.222,256 l0,110" />
        <path id="right-margin-Regular-M" d="M507.778,256 l0,110" />
        <path id="left-margin-Black-M" d="M622.222,256 l0,110" />
        <path id="right-margin-Black-M" d="M707.778,256 l0,110" />
        <path id="Capline-M" d="M18,276 l800,0" />
        <path id="Baseline-M" d="M18,346 l800,0" />
        <path id="Capline-L" d="M18,476 l800,0" />
        <path id="Baseline-L" d="M18,546 l800,0" />
    </g>
    <g id="Symbols">
        <g id="Ultralight-M" transform="translate(0,200)">
            <path d="M300,111 L300,134.333 C300,135.365 299.59,136.354 298.861,137.083 C298.132,137.812 297.143,138.222 296.111,138.222 L233.889,138.222 C232.857,138.222 231.868,137.812 231.139,137.083 C230.41,136.354 230,135.365 230,134.333 L230,87.667 C230,86.635 230.41,85.646 231.139,84.917 C231.868,84.188 232.857,83.778 233.889,83.778 L296.111,83.778 C297.143,83.778 298.132,84.188 298.861,84.917 C299.59,85.646 300,86.635 300,87.667 L300,111 Z M307.778,111 L307.778,87.667 C307.778,84.572 306.549,81.605 304.361,79.417 C302.173,77.229 299.205,76 296.111,76 L233.889,76 C230.795,76 227.827,77.229 225.639,79.417 C223.451,81.605 222.222,84.572 222.222,87.667 L222.222,134.333 C222.222,137.428 223.451,140.395 225.639,142.583 C227.827,144.771 230.795,146 233.889,146 L296.111,146 C299.205,146 302.173,144.771 304.361,142.583 C306.549,140.395 307.778,137.428 307.778,134.333 L307.778,111 Z" />
            <path d="M226.111,99.333 L303.889,99.333 C306.037,99.333 307.778,97.592 307.778,95.444 C307.778,93.297 306.037,91.556 303.889,91.556 L226.111,91.556 C223.963,91.556 222.222,93.297 222.222,95.444 C222.222,97.592 223.963,99.333 226.111,99.333 Z" />
            <path d="M245.556,118.778 C245.556,116.63 247.297,114.889 249.444,114.889 C251.592,114.889 253.333,116.63 253.333,118.778 C253.333,120.926 251.592,122.667 249.444,122.667 C247.297,122.667 245.556,120.926 245.556,118.778 Z M237.778,118.778 C237.778,125.221 243.001,130.444 249.444,130.444 C255.888,130.444 261.111,125.221 261.111,118.778 C261.111,112.334 255.888,107.111 249.444,107.111 C243.001,107.111 237.778,112.334 237.778,118.778 Z" />
            <path d="M249.444,114.889 L280.556,114.889 C282.703,114.889 284.444,113.148 284.444,111 C284.444,108.852 282.703,107.111 280.556,107.111 L249.444,107.111 C247.297,107.111 245.556,108.852 245.556,111 C245.556,113.148 247.297,114.889 249.444,114.889 Z" />
            <path d="M276.667,118.778 C276.667,116.63 278.408,114.889 280.556,114.889 C282.703,114.889 284.444,116.63 284.444,118.778 C284.444,120.926 282.703,122.667 280.556,122.667 C278.408,122.667 276.667,120.926 276.667,118.778 Z M268.889,118.778 C268.889,125.221 274.112,130.444 280.556,130.444 C286.999,130.444 292.222,125.221 292.222,118.778 C292.222,112.334 286.999,107.111 280.556,107.111 C274.112,107.111 268.889,112.334 268.889,118.778 Z" />
        </g>
        <g id="Regular-M" transform="translate(0,200)">
            <path d="M500,111 L500,134.333 C500,135.365 499.59,136.354 498.861,137.083 C498.132,137.812 497.143,138.222 496.111,138.222 L433.889,138.222 C432.858,138.222 431.868,137.812 431.139,137.083 C430.41,136.354 430,135.365 430,134.333 L430,87.667 C430,86.635 430.41,85.646 431.139,84.917 C431.868,84.188 432.857,83.778 433.889,83.778 L496.111,83.778 C497.143,83.778 498.132,84.188 498.861,84.917 C499.59,85.646 500,86.635 500,87.667 L500,111 Z M507.778,111 L507.778,87.667 C507.778,84.572 506.549,81.605 504.361,79.417 C502.173,77.229 499.205,76 496.111,76 L433.889,76 C430.795,76 427.827,77.229 425.639,79.417 C423.451,81.605 422.222,84.572 422.222,87.667 L422.222,134.333 C422.222,137.428 423.451,140.395 425.639,142.583 C427.827,144.771 430.795,146 433.889,146 L496.111,146 C499.205,146 502.173,144.771 504.361,142.583 C506.549,140.395 507.778,137.428 507.778,134.333 L507.778,111 Z" />
            <path d="M426.111,99.333 L503.889,99.333 C506.037,99.333 507.778,97.592 507.778,95.444 C507.778,93.297 506.037,91.556 503.889,91.556 L426.111,91.556 C423.963,91.556 422.222,93.297 422.222,95.444 C422.222,97.592 423.963,99.333 426.111,99.333 Z" />
            <path d="M445.556,118.778 C445.556,116.63 447.297,114.889 449.444,114.889 C451.592,114.889 453.333,116.63 453.333,118.778 C453.333,120.926 451.592,122.667 449.444,122.667 C447.297,122.667 445.556,120.926 445.556,118.778 Z M437.778,118.778 C437.778,125.221 443.001,130.444 449.444,130.444 C455.888,130.444 461.111,125.221 461.111,118.778 C461.111,112.334 455.888,107.111 449.444,107.111 C443.001,107.111 437.778,112.334 437.778,118.778 Z" />
            <path d="M449.444,114.889 L480.556,114.889 C482.703,114.889 484.444,113.148 484.444,111 C484.444,108.852 482.703,107.111 480.556,107.111 L449.444,107.111 C447.297,107.111 445.556,108.852 445.556,111 C445.556,113.148 447.297,114.889 449.444,114.889 Z" />
            <path d="M476.667,118.778 C476.667,116.63 478.408,114.889 480.556,114.889 C482.703,114.889 484.444,116.63 484.444,118.778 C484.444,120.926 482.703,122.667 480.556,122.667 C478.408,122.667 476.667,120.926 476.667,118.778 Z M468.889,118.778 C468.889,125.221 474.112,130.444 480.556,130.444 C486.999,130.444 492.222,125.221 492.222,118.778 C492.222,112.334 486.999,107.111 480.556,107.111 C474.112,107.111 468.889,112.334 468.889,118.778 Z" />
        </g>
        <g id="Black-M" transform="translate(0,200)">
            <path d="M700,111 L700,134.333 C700,135.365 699.59,136.354 698.861,137.083 C698.132,137.812 697.143,138.222 696.111,138.222 L633.889,138.222 C632.857,138.222 631.868,137.812 631.139,137.083 C630.41,136.354 630,135.365 630,134.333 L630,87.667 C630,86.635 630.41,85.646 631.139,84.917 C631.868,84.188 632.857,83.778 633.889,83.778 L696.111,83.778 C697.143,83.778 698.132,84.188 698.861,84.917 C699.59,85.646 700,86.635 700,87.667 L700,111 Z M707.778,111 L707.778,87.667 C707.778,84.572 706.549,81.605 704.361,79.417 C702.173,77.229 699.205,76 696.111,76 L633.889,76 C630.795,76 627.827,77.229 625.639,79.417 C623.451,81.605 622.222,84.572 622.222,87.667 L622.222,134.333 C622.222,137.428 623.451,140.395 625.639,142.583 C627.827,144.771 630.795,146 633.889,146 L696.111,146 C699.205,146 702.173,144.771 704.361,142.583 C706.549,140.395 707.778,137.428 707.778,134.333 L707.778,111 Z" />
            <path d="M626.111,99.333 L703.889,99.333 C706.037,99.333 707.778,97.592 707.778,95.444 C707.778,93.297 706.037,91.556 703.889,91.556 L626.111,91.556 C623.963,91.556 622.222,93.297 622.222,95.444 C622.222,97.592 623.963,99.333 626.111,99.333 Z" />
            <path d="M645.556,118.778 C645.556,116.63 647.297,114.889 649.444,114.889 C651.592,114.889 653.333,116.63 653.333,118.778 C653.333,120.926 651.592,122.667 649.444,122.667 C647.297,122.667 645.556,120.926 645.556,118.778 Z M637.778,118.778 C637.778,125.221 643.001,130.444 649.444,130.444 C655.888,130.444 661.111,125.221 661.111,118.778 C661.111,112.334 655.888,107.111 649.444,107.111 C643.001,107.111 637.778,112.334 637.778,118.778 Z" />
            <path d="M649.444,114.889 L680.556,114.889 C682.703,114.889 684.444,113.148 684.444,111 C684.444,108.852 682.703,107.111 680.556,107.111 L649.444,107.111 C647.297,107.111 645.556,108.852 645.556,111 C645.556,113.148 647.297,114.889 649.444,114.889 Z" />
            <path d="M676.667,118.778 C676.667,116.63 678.408,114.889 680.556,114.889 C682.703,114.889 684.444,116.63 684.444,118.778 C684.444,120.926 682.703,122.667 680.556,122.667 C678.408,122.667 676.667,120.926 676.667,118.778 Z M668.889,118.778 C668.889,125.221 674.112,130.444 680.556,130.444 C686.999,130.444 692.222,125.221 692.222,118.778 C692.222,112.334 686.999,107.111 680.556,107.111 C674.112,107.111 668.889,112.334 668.889,118.778 Z" />
        </g>
    </g>
</svg>