<?xml version="1.0" encoding="UTF-8"?>
<svg height="600" width="800" xmlns="http://www.w3.org/2000/svg" xmlns:xlink="http://www.w3.org/1999/xlink">
    <g id="Notes" font-family="LucidaGrande, 'Lucida Grande', sans-serif" font-size="13">
        <rect fill="white" height="600.0" width="800.0" x="0.0" y="0.0" />
        <g font-size="13">
            <text x="18.0" y="176.0">Small</text>
            <text x="18.0" y="376.0">Medium</text>
            <text x="18.0" y="576.0">Large</text>
        </g>
        <g font-size="9">
            <text x="250.0" y="30.0">Ultralight</text>
            <text x="450.0" y="30.0">Regular</text>
            <text x="650.0" y="30.0">Black</text>
            <text id="template-version" fill="#505050" text-anchor="end" x="785.0" y="575.0">Template v.3.0</text>
            <a href="https://github.com/swhitty/SwiftDraw">
                <text fill="#505050" text-anchor="end" x="785.0" y="590.0">https://github.com/swhitty/SwiftDraw</text>
            </a>
        </g>
    </g>
    <g id="Guides" stroke="rgb(39, 170, 225)" stroke-width="0.5">
        <path id="Capline-S" d="M18,76 l800,0" />
        <path id="H-reference" d="M85,145.755 L87.685,145.755 L113.369,79.287 L114.052,79.287 L114.052,76 L112.148,76 L85,145.755 Z M95.693,121.536 L130.996,121.536 L130.263,119.313 L96.474,119.313 L95.693,121.536 Z M139.15,145.755 L141.787,145.755 L114.638,76 L113.466,76 L113.466,79.287 L139.15,145.755 Z" stroke="none" transform="translate(0,200)" />
        <path id="Baseline-S" d="M18,146 l800,0" />
        <path id="left-margin-Ultralight-M" d="M226.316,256 l0,110" />
        <path id="right-margin-Ultralight-M" d="M303.684,256 l0,110" />
        <path id="left-margin-Regular-M" d="M426.316,256 l0,110" />
        <path id="right-margin-Regular-M" d="M503.684,256 l0,110" />
        <path id="left-margin-Black-M" d="M626.316,256 l0,110" />
        <path id="right-margin-Black-M" d="M703.684,256 l0,110" />
        <path id="Capline-M" d="M18,276 l800,0" />
        <path id="Baseline-M" d="M18,346 l800,0" />
        <path id="Capline-L" d="M18,476 l800,0" />
        <path id="Baseline-L" d="M18,546 l800,0" />
    </g>
    <g id="Symbols">
        <g id="Ultralight-M" transform="translate(0,200)">
            <path d="M257.32,108.907 L235.161,113.57 C235.275,113.546 235.4,113.624 235.43,113.748 L233.49,106.083 C233.464,105.979 233.534,105.852 233.657,105.81 L282.028,90.119 C283.909,89.508 284.933,87.509 284.314,85.653 C283.696,83.797 281.669,82.787 279.788,83.397 L231.369,99.105 C227.697,100.353 225.62,104.104 226.528,107.778 L228.458,115.404 C229.299,118.99 232.964,121.281 236.67,120.487 L258.816,115.827 C260.753,115.42 261.988,113.54 261.575,111.629 C261.162,109.719 259.257,108.5 257.32,108.907 Z" />
            <path d="M271.348,113.188 L286.88,109.919 C288.817,109.512 290.052,107.632 289.639,105.721 C289.226,103.811 287.321,102.592 285.384,102.999 L269.852,106.268 C267.915,106.676 266.68,108.555 267.093,110.466 C267.506,112.377 269.411,113.596 271.348,113.188 Z" />
            <path d="M282.555,140.88 L271.422,118.911 C270.537,117.164 268.383,116.455 266.612,117.329 C264.84,118.203 264.123,120.328 265.008,122.075 L276.141,144.044 C277.027,145.792 279.181,146.5 280.952,145.627 C282.723,144.753 283.441,142.628 282.555,140.88 Z" />
            <path d="M284.566,88.327 C284.086,86.432 285.254,84.512 287.174,84.038 L291.081,83.076 C291.08,83.076 291.08,83.076 291.08,83.076 L296.512,104.512 C296.512,104.514 296.512,104.514 296.512,104.514 L292.607,105.475 C290.686,105.949 288.739,104.797 288.259,102.902 L284.566,88.327 Z M277.609,90.043 L281.302,104.618 C282.743,110.304 288.582,113.76 294.345,112.34 L298.252,111.378 C302.097,110.427 304.431,106.585 303.468,102.794 L298.037,81.358 C297.073,77.568 293.184,75.266 289.345,76.211 L285.436,77.174 C279.672,78.596 276.169,84.357 277.609,90.042 Z" />
            <path d="M240.581,99.57 L244.575,115.334 C245.055,117.229 247.002,118.382 248.923,117.908 C250.844,117.434 252.012,115.513 251.532,113.618 L247.538,97.854 C247.058,95.958 245.111,94.806 243.19,95.28 C241.269,95.754 240.101,97.674 240.581,99.57 Z" />
            <path d="M253.871,144.044 L265.004,122.075 C265.89,120.328 265.172,118.203 263.401,117.329 C261.629,116.455 259.476,117.164 258.59,118.911 L247.457,140.88 C246.571,142.628 247.289,144.753 249.06,145.627 C250.832,146.5 252.985,145.792 253.871,144.044 Z" />
            <path d="M261.421,114.161 C261.421,112.207 263.026,110.623 265.006,110.623 C266.986,110.623 268.592,112.207 268.592,114.161 C268.592,116.115 266.986,117.699 265.006,117.699 C263.026,117.699 261.421,116.115 261.421,114.161 Z M254.249,114.161 C254.249,120.022 259.065,124.774 265.006,124.774 C270.947,124.774 275.763,120.022 275.763,114.161 C275.763,108.299 270.947,103.548 265.006,103.548 C259.065,103.548 254.249,108.299 254.249,114.161 Z" />
        </g>
        <g id="Regular-M" transform="translate(0,200)">
            <path d="M457.32,108.907 L435.161,113.57 C435.275,113.546 435.4,113.624 435.43,113.748 L433.49,106.083 C433.464,105.979 433.534,105.852 433.657,105.81 L482.028,90.119 C483.909,89.508 484.933,87.509 484.314,85.653 C483.696,83.797 481.669,82.787 479.788,83.397 L431.369,99.105 C427.697,100.353 425.62,104.104 426.528,107.778 L428.458,115.404 C429.299,118.99 432.964,121.281 436.67,120.487 L458.816,115.827 C460.753,115.42 461.988,113.54 461.575,111.629 C461.162,109.719 459.257,108.5 457.32,108.907 Z" />
            <path d="M471.348,113.188 L486.88,109.919 C488.817,109.512 490.052,107.632 489.639,105.721 C489.226,103.811 487.321,102.592 485.384,102.999 L469.852,106.268 C467.915,106.676 466.68,108.555 467.093,110.466 C467.506,112.377 469.411,113.596 471.348,113.188 Z" />
            <path d="M482.555,140.88 L471.422,118.911 C470.537,117.164 468.383,116.455 466.612,117.329 C464.84,118.203 464.123,120.328 465.008,122.075 L476.141,144.044 C477.027,145.792 479.181,146.5 480.952,145.627 C482.723,144.753 483.441,142.628 482.555,140.88 Z" />
            <path d="M484.566,88.327 C484.086,86.432 485.254,84.512 487.174,84.038 L491.081,83.076 C491.08,83.076 491.08,83.076 491.08,83.076 L496.512,104.512 C496.512,104.514 496.512,104.514 496.512,104.514 L492.607,105.475 C490.686,105.949 488.739,104.797 488.259,102.902 L484.566,88.327 Z M477.609,90.043 L481.302,104.618 C482.743,110.304 488.582,113.76 494.345,112.34 L498.252,111.378 C502.097,110.427 504.431,106.585 503.468,102.794 L498.037,81.358 C497.073,77.568 493.184,75.266 489.345,76.211 L485.436,77.174 C479.672,78.596 476.169,84.357 477.609,90.042 Z" />
            <path d="M440.581,99.57 L444.575,115.334 C445.055,117.229 447.002,118.382 448.923,117.908 C450.844,117.434 452.012,115.513 451.532,113.618 L447.538,97.854 C447.058,95.958 445.111,94.806 443.19,95.28 C441.269,95.754 440.101,97.674 440.581,99.57 Z" />
            <path d="M453.871,144.044 L465.004,122.075 C465.89,120.328 465.172,118.203 463.401,117.329 C461.629,116.455 459.476,117.164 458.59,118.911 L447.457,140.88 C446.571,142.628 447.289,144.753 449.06,145.627 C450.832,146.5 452.985,145.792 453.871,144.044 Z" />
            <path d="M461.421,114.161 C461.421,112.207 463.026,110.623 465.006,110.623 C466.986,110.623 468.592,112.207 468.592,114.161 C468.592,116.115 466.986,117.699 465.006,117.699 C463.026,117.699 461.421,116.115 461.421,114.161 Z M454.249,114.161 C454.249,120.022 459.065,124.774 465.006,124.774 C470.947,124.774 475.763,120.022 475.763,114.161 C475.763,108.299 470.947,103.548 465.006,103.548 C459.065,103.548 454.249,108.299 454.249,114.161 Z" />
        </g>
        <g id="Black-M" transform="translate(0,200)">
            <path d="M657.32,108.907 L635.161,113.57 C635.275,113.546 635.4,113.624 635.43,113.748 L633.49,106.083 C633.464,105.979 633.534,105.852 633.657,105.81 L682.028,90.119 C683.909,89.508 684.933,87.509 684.314,85.653 C683.696,83.797 681.669,82.787 679.788,83.397 L631.369,99.105 C627.697,100.353 625.62,104.104 626.528,107.778 L628.458,115.404 C629.299,118.99 632.964,121.281 636.67,120.487 L658.816,115.827 C660.753,115.42 661.988,113.54 661.575,111.629 C661.162,109.719 659.257,108.5 657.32,108.907 Z" />
            <path d="M671.348,113.188 L686.88,109.919 C688.817,109.512 690.052,107.632 689.639,105.721 C689.226,103.811 687.321,102.592 685.384,102.999 L669.852,106.268 C667.915,106.676 666.68,108.555 667.093,110.466 C667.506,112.377 669.411,113.596 671.348,113.188 Z" />
            <path d="M682.555,140.88 L671.422,118.911 C670.537,117.164 668.383,116.455 666.612,117.329 C664.841,118.203 664.123,120.328 665.008,122.075 L676.141,144.044 C677.027,145.792 679.181,146.5 680.952,145.627 C682.723,144.753 683.441,142.628 682.555,140.88 Z" />
            <path d="M684.566,88.327 C684.086,86.432 685.254,84.512 687.174,84.038 L691.081,83.076 C691.08,83.076 691.08,83.076 691.08,83.076 L696.512,104.512 C696.512,104.514 696.512,104.514 696.512,104.514 L692.607,105.475 C690.685,105.949 688.739,104.797 688.259,102.902 L684.566,88.327 Z M677.609,90.043 L681.302,104.618 C682.743,110.304 688.582,113.76 694.345,112.34 L698.252,111.378 C702.097,110.427 704.431,106.585 703.468,102.794 L698.037,81.358 C697.073,77.568 693.184,75.266 689.345,76.211 L685.436,77.174 C679.672,78.596 676.169,84.357 677.609,90.042 Z" />
            <path d="M640.581,99.57 L644.575,115.334 C645.055,117.229 647.002,118.382 648.923,117.908 C650.844,117.434 652.012,115.513 651.532,113.618 L647.538,97.854 C647.057,95.958 645.111,94.806 643.19,95.28 C641.269,95.754 640.101,97.674 640.581,99.57 Z" />
            <path d="M653.871,144.044 L665.004,122.075 C665.89,120.328 665.172,118.203 663.401,117.329 C661.629,116.455 659.476,117.164 658.59,118.911 L647.457,140.88 C646.571,142.628 647.289,144.753 649.06,145.627 C650.832,146.5 652.985,145.792 653.871,144.044 Z" />
            <path d="M661.421,114.161 C661.421,112.207 663.026,110.623 665.006,110.623 C666.986,110.623 668.592,112.207 668.592,114.161 C668.592,116.115 666.986,117.699 665.006,117.699 C663.026,117.699 661.421,116.115 661.421,114.161 Z M654.249,114.161 C654.249,120.022 659.065,124.774 665.006,124.774 C670.947,124.774 675.763,120.022 675.763,114.161 C675.763,108.299 670.947,103.548 665.006,103.548 C659.065,103.548 654.249,108.299 654.249,114.161 Z" />
        </g>
    </g>
</svg>