<?xml version="1.0" encoding="UTF-8"?>
<svg height="600" width="800" xmlns="http://www.w3.org/2000/svg" xmlns:xlink="http://www.w3.org/1999/xlink">
    <g id="Notes" font-family="LucidaGrande, 'Lucida Grande', sans-serif" font-size="13">
        <rect fill="white" height="600.0" width="800.0" x="0.0" y="0.0" />
        <g font-size="13">
            <text x="18.0" y="176.0">Small</text>
            <text x="18.0" y="376.0">Medium</text>
            <text x="18.0" y="576.0">Large</text>
        </g>
        <g font-size="9">
            <text x="250.0" y="30.0">Ultralight</text>
            <text x="450.0" y="30.0">Regular</text>
            <text x="650.0" y="30.0">Black</text>
            <text id="template-version" fill="#505050" text-anchor="end" x="785.0" y="575.0">Template v.3.0</text>
            <a href="https://github.com/swhitty/SwiftDraw">
                <text fill="#505050" text-anchor="end" x="785.0" y="590.0">https://github.com/swhitty/SwiftDraw</text>
            </a>
        </g>
    </g>
    <g id="Guides" stroke="rgb(39, 170, 225)" stroke-width="0.5">
        <path id="Capline-S" d="M18,76 l800,0" />
        <path id="H-reference" d="M85,145.755 L87.685,145.755 L113.369,79.287 L114.052,79.287 L114.052,76 L112.148,76 L85,145.755 Z M95.693,121.536 L130.996,121.536 L130.263,119.313 L96.474,119.313 L95.693,121.536 Z M139.15,145.755 L141.787,145.755 L114.638,76 L113.466,76 L113.466,79.287 L139.15,145.755 Z" stroke="none" transform="translate(0,200)" />
        <path id="Baseline-S" d="M18,146 l800,0" />
        <path id="left-margin-Ultralight-M" d="M226.316,256 l0,110" />
        <path id="right-margin-Ultralight-M" d="M303.684,256 l0,110" />
        <path id="left-margin-Regular-M" d="M426.316,256 l0,110" />
        <path id="right-margin-Regular-M" d="M503.684,256 l0,110" />
        <path id="left-margin-Black-M" d="M626.316,256 l0,110" />
        <path id="right-margin-Black-M" d="M703.684,256 l0,110" />
        <path id="Capline-M" d="M18,276 l800,0" />
        <path id="Baseline-M" d="M18,346 l800,0" />
        <path id="Capline-L" d="M18,476 l800,0" />
        <path id="Baseline-L" d="M18,546 l800,0" />
    </g>
    <g id="Symbols">
        <g id="Ultralight-M" transform="translate(0,200)">
            <path d="M283.307,112.86 L296.449,112.86 C296.447,112.86 296.447,112.86 296.447,112.86 C296.447,112.86 296.447,112.86 296.447,112.86 L289.087,127.843 C289.088,127.842 289.088,127.842 289.088,127.842 C289.088,127.842 289.088,127.842 289.088,127.842 L281.401,116.904 C280.239,115.25 277.979,114.868 276.353,116.051 C274.728,117.234 274.352,119.534 275.515,121.188 L283.2,132.124 C284.675,134.224 287.124,135.386 289.654,135.184 C292.184,134.982 294.425,133.446 295.56,131.136 L302.921,116.153 C304.042,113.87 303.922,111.16 302.604,108.99 C301.286,106.819 298.958,105.497 296.451,105.496 L283.307,105.496 C281.308,105.496 279.688,107.144 279.688,109.178 C279.688,111.212 281.308,112.86 283.307,112.86 Z" />
            <path d="M282.975,101.619 C282.975,101.619 282.975,101.619 282.975,101.619 L271.737,124.488 C271.737,124.488 271.737,124.488 271.737,124.488 C271.737,124.488 271.737,124.488 271.737,124.488 L237.379,106.99 C233.972,105.243 232.589,101.011 234.295,97.527 L239.293,87.245 C240.11,85.587 241.557,84.314 243.306,83.724 C245.056,83.133 246.963,83.275 248.61,84.116 L282.975,101.619 Z M286.215,95.034 L251.854,77.532 C248.495,75.817 244.6,75.529 241.028,76.734 C237.457,77.939 234.503,80.539 232.815,83.961 L227.813,94.253 C224.335,101.356 227.157,109.996 234.132,113.571 L268.498,131.073 C270.215,131.948 272.203,132.092 274.024,131.475 C275.846,130.857 277.351,129.529 278.21,127.781 L289.449,104.911 C291.234,101.273 289.786,96.853 286.215,95.034 Z" />
            <path d="M229.934,138.636 L243.54,138.636 C247.641,138.665 251.427,136.31 253.284,132.56 L258.505,121.862 C259.393,120.041 258.663,117.831 256.873,116.927 C255.083,116.022 252.911,116.766 252.023,118.587 L246.812,129.265 C246.203,130.496 244.941,131.281 243.565,131.271 L229.934,131.271 C227.936,131.271 226.316,132.92 226.316,134.953 C226.316,136.987 227.936,138.636 229.934,138.636 Z" />
            <path d="M233.553,142.318 L233.553,127.589 C233.553,125.555 231.933,123.907 229.934,123.907 C227.936,123.907 226.316,125.555 226.316,127.589 L226.316,142.318 C226.316,144.351 227.936,146 229.934,146 C231.933,146 233.553,144.351 233.553,142.318 Z" />
            <path d="M248.027,101.814 L248.063,101.814 C250.061,101.814 251.681,100.165 251.681,98.132 C251.681,96.098 250.061,94.449 248.063,94.449 L248.027,94.449 C246.028,94.449 244.408,96.098 244.408,98.132 C244.408,100.165 246.028,101.814 248.027,101.814 Z" />
        </g>
        <g id="Regular-M" transform="translate(0,200)">
            <path d="M483.307,112.86 L496.449,112.86 C496.447,112.86 496.447,112.86 496.447,112.86 C496.447,112.86 496.447,112.86 496.447,112.86 L489.087,127.843 C489.088,127.842 489.088,127.842 489.088,127.842 C489.088,127.842 489.088,127.842 489.088,127.842 L481.401,116.904 C480.239,115.25 477.979,114.868 476.353,116.051 C474.728,117.234 474.352,119.534 475.515,121.188 L483.2,132.124 C484.675,134.224 487.124,135.386 489.654,135.184 C492.184,134.982 494.425,133.446 495.56,131.136 L502.921,116.153 C504.042,113.87 503.922,111.16 502.604,108.99 C501.286,106.819 498.958,105.497 496.451,105.496 L483.307,105.496 C481.308,105.496 479.688,107.144 479.688,109.178 C479.688,111.212 481.308,112.86 483.307,112.86 Z" />
            <path d="M482.975,101.619 C482.975,101.619 482.975,101.619 482.975,101.619 L471.737,124.488 C471.737,124.488 471.737,124.488 471.737,124.488 C471.737,124.488 471.737,124.488 471.737,124.488 L437.379,106.99 C433.972,105.243 432.589,101.011 434.295,97.527 L439.293,87.245 C440.11,85.587 441.557,84.314 443.306,83.724 C445.056,83.133 446.964,83.275 448.61,84.116 L482.975,101.619 Z M486.215,95.034 L451.854,77.532 C448.495,75.817 444.6,75.529 441.028,76.734 C437.457,77.939 434.503,80.539 432.815,83.961 L427.813,94.253 C424.335,101.356 427.157,109.996 434.132,113.571 L468.498,131.073 C470.215,131.948 472.203,132.092 474.024,131.475 C475.846,130.857 477.351,129.529 478.21,127.781 L489.449,104.911 C491.234,101.273 489.786,96.853 486.215,95.034 Z" />
            <path d="M429.934,138.636 L443.54,138.636 C447.641,138.665 451.427,136.31 453.284,132.56 L458.505,121.862 C459.393,120.041 458.663,117.831 456.873,116.927 C455.083,116.022 452.911,116.766 452.023,118.587 L446.812,129.265 C446.203,130.496 444.941,131.281 443.565,131.271 L429.934,131.271 C427.936,131.271 426.316,132.92 426.316,134.953 C426.316,136.987 427.936,138.636 429.934,138.636 Z" />
            <path d="M433.553,142.318 L433.553,127.589 C433.553,125.555 431.933,123.907 429.934,123.907 C427.936,123.907 426.316,125.555 426.316,127.589 L426.316,142.318 C426.316,144.351 427.936,146 429.934,146 C431.933,146 433.553,144.351 433.553,142.318 Z" />
            <path d="M448.027,101.814 L448.063,101.814 C450.061,101.814 451.681,100.165 451.681,98.132 C451.681,96.098 450.061,94.449 448.063,94.449 L448.027,94.449 C446.028,94.449 444.408,96.098 444.408,98.132 C444.408,100.165 446.028,101.814 448.027,101.814 Z" />
        </g>
        <g id="Black-M" transform="translate(0,200)">
            <path d="M683.307,112.86 L696.449,112.86 C696.447,112.86 696.447,112.86 696.447,112.86 C696.447,112.86 696.447,112.86 696.447,112.86 L689.087,127.843 C689.088,127.842 689.088,127.842 689.088,127.842 C689.088,127.842 689.088,127.842 689.088,127.842 L681.401,116.904 C680.239,115.25 677.979,114.868 676.353,116.051 C674.728,117.234 674.352,119.534 675.515,121.188 L683.2,132.124 C684.675,134.224 687.124,135.386 689.654,135.184 C692.184,134.982 694.425,133.446 695.56,131.136 L702.921,116.153 C704.042,113.87 703.922,111.16 702.604,108.99 C701.286,106.819 698.958,105.497 696.451,105.496 L683.307,105.496 C681.308,105.496 679.688,107.144 679.688,109.178 C679.688,111.212 681.308,112.86 683.307,112.86 Z" />
            <path d="M682.975,101.619 C682.975,101.619 682.975,101.619 682.975,101.619 L671.737,124.488 C671.737,124.488 671.737,124.488 671.737,124.488 C671.737,124.488 671.737,124.488 671.737,124.488 L637.38,106.99 C633.972,105.243 632.589,101.011 634.295,97.527 L639.293,87.245 C640.11,85.587 641.557,84.314 643.306,83.724 C645.056,83.133 646.964,83.275 648.61,84.116 L682.975,101.619 Z M686.215,95.034 L651.854,77.532 C648.495,75.817 644.6,75.529 641.028,76.734 C637.457,77.939 634.503,80.539 632.815,83.961 L627.813,94.253 C624.335,101.356 627.157,109.996 634.132,113.571 L668.498,131.073 C670.215,131.948 672.203,132.092 674.024,131.475 C675.846,130.857 677.351,129.529 678.21,127.781 L689.449,104.911 C691.234,101.273 689.786,96.853 686.215,95.034 Z" />
            <path d="M629.934,138.636 L643.54,138.636 C647.641,138.665 651.427,136.31 653.284,132.56 L658.505,121.862 C659.393,120.041 658.663,117.831 656.873,116.927 C655.083,116.022 652.911,116.766 652.023,118.587 L646.812,129.265 C646.203,130.496 644.941,131.281 643.565,131.271 L629.934,131.271 C627.936,131.271 626.316,132.92 626.316,134.953 C626.316,136.987 627.936,138.636 629.934,138.636 Z" />
            <path d="M633.553,142.318 L633.553,127.589 C633.553,125.555 631.933,123.907 629.934,123.907 C627.936,123.907 626.316,125.555 626.316,127.589 L626.316,142.318 C626.316,144.351 627.936,146 629.934,146 C631.933,146 633.553,144.351 633.553,142.318 Z" />
            <path d="M648.027,101.814 L648.063,101.814 C650.061,101.814 651.681,100.165 651.681,98.132 C651.681,96.098 650.061,94.449 648.063,94.449 L648.027,94.449 C646.028,94.449 644.408,96.098 644.408,98.132 C644.408,100.165 646.028,101.814 648.027,101.814 Z" />
        </g>
    </g>
</svg>