<?xml version="1.0" encoding="UTF-8"?>
<svg height="600" width="800" xmlns="http://www.w3.org/2000/svg" xmlns:xlink="http://www.w3.org/1999/xlink">
    <g id="Notes" font-family="LucidaGrande, 'Lucida Grande', sans-serif" font-size="13">
        <rect fill="white" height="600.0" width="800.0" x="0.0" y="0.0" />
        <g font-size="13">
            <text x="18.0" y="176.0">Small</text>
            <text x="18.0" y="376.0">Medium</text>
            <text x="18.0" y="576.0">Large</text>
        </g>
        <g font-size="9">
            <text x="250.0" y="30.0">Ultralight</text>
            <text x="450.0" y="30.0">Regular</text>
            <text x="650.0" y="30.0">Black</text>
            <text id="template-version" fill="#505050" text-anchor="end" x="785.0" y="575.0">Template v.3.0</text>
            <a href="https://github.com/swhitty/SwiftDraw">
                <text fill="#505050" text-anchor="end" x="785.0" y="590.0">https://github.com/swhitty/SwiftDraw</text>
            </a>
        </g>
    </g>
    <g id="Guides" stroke="rgb(39, 170, 225)" stroke-width="0.5">
        <path id="Capline-S" d="M18,76 l800,0" />
        <path id="H-reference" d="M85,145.755 L87.685,145.755 L113.369,79.287 L114.052,79.287 L114.052,76 L112.148,76 L85,145.755 Z M95.693,121.536 L130.996,121.536 L130.263,119.313 L96.474,119.313 L95.693,121.536 Z M139.15,145.755 L141.787,145.755 L114.638,76 L113.466,76 L113.466,79.287 L139.15,145.755 Z" stroke="none" transform="translate(0,200)" />
        <path id="Baseline-S" d="M18,146 l800,0" />
        <path id="left-margin-Ultralight-M" d="M228.25,256 l0,110" />
        <path id="right-margin-Ultralight-M" d="M301.75,256 l0,110" />
        <path id="left-margin-Regular-M" d="M428.25,256 l0,110" />
        <path id="right-margin-Regular-M" d="M501.75,256 l0,110" />
        <path id="left-margin-Black-M" d="M628.25,256 l0,110" />
        <path id="right-margin-Black-M" d="M701.75,256 l0,110" />
        <path id="Capline-M" d="M18,276 l800,0" />
        <path id="Baseline-M" d="M18,346 l800,0" />
        <path id="Capline-L" d="M18,476 l800,0" />
        <path id="Baseline-L" d="M18,546 l800,0" />
    </g>
    <g id="Symbols">
        <g id="Ultralight-M" transform="translate(0,200)">
            <path d="M268.606,125.861 C272.321,125.861 275.332,128.866 275.332,132.574 C275.332,136.281 272.321,139.287 268.606,139.287 L248.427,139.287 C241.348,139.285 235.481,133.809 235.007,126.759 C234.533,119.71 239.615,113.5 246.63,112.555 C253.646,111.61 260.195,116.253 261.611,123.175 C261.931,124.738 263.308,125.861 264.906,125.861 L268.606,125.861 Z M268.606,119.147 L264.906,119.147 L268.202,121.833 C266.078,111.449 256.254,104.484 245.731,105.902 C235.207,107.32 227.585,116.634 228.296,127.209 C229.007,137.783 237.807,145.998 248.426,146 L268.606,146 C276.036,146 282.059,139.989 282.059,132.574 C282.059,125.159 276.036,119.147 268.606,119.147 Z" />
            <path d="M288.02,120.591 C294.851,117.648 299.886,111.656 301.6,104.43 C302.828,99.252 297.106,96.309 292.789,98.182 C288.996,99.819 284.579,98.978 281.653,96.057 C278.727,93.136 277.885,88.728 279.529,84.938 C281.398,80.63 278.449,74.933 273.265,76.148 C263.323,78.505 256.043,86.982 255.231,97.14 C255.083,98.988 256.464,100.605 258.316,100.753 C260.167,100.9 261.788,99.522 261.936,97.674 C262.516,90.419 267.716,84.364 274.812,82.681 C273.616,82.961 273.312,82.373 273.356,82.271 C270.616,88.589 272.02,95.935 276.897,100.804 C281.773,105.672 289.134,107.074 295.465,104.341 C295.366,104.384 294.771,104.078 295.054,102.883 C293.83,108.045 290.233,112.326 285.354,114.428 C283.649,115.162 282.863,117.138 283.599,118.84 C284.335,120.542 286.314,121.326 288.02,120.591 Z" />
        </g>
        <g id="Regular-M" transform="translate(0,200)">
            <path d="M468.606,125.861 C472.321,125.861 475.332,128.866 475.332,132.574 C475.332,136.281 472.321,139.287 468.606,139.287 L448.427,139.287 C441.348,139.285 435.481,133.809 435.007,126.759 C434.533,119.71 439.615,113.5 446.63,112.555 C453.646,111.61 460.195,116.253 461.611,123.175 C461.931,124.738 463.308,125.861 464.906,125.861 L468.606,125.861 Z M468.606,119.147 L464.906,119.147 L468.202,121.833 C466.078,111.449 456.254,104.484 445.731,105.902 C435.207,107.32 427.585,116.634 428.296,127.209 C429.007,137.783 437.807,145.998 448.426,146 L468.606,146 C476.036,146 482.059,139.989 482.059,132.574 C482.059,125.159 476.036,119.147 468.606,119.147 Z" />
            <path d="M488.02,120.591 C494.851,117.648 499.886,111.656 501.6,104.43 C502.828,99.252 497.106,96.309 492.789,98.182 C488.996,99.819 484.579,98.978 481.653,96.057 C478.727,93.136 477.885,88.728 479.529,84.938 C481.398,80.63 478.449,74.933 473.265,76.148 C463.323,78.505 456.043,86.982 455.231,97.14 C455.083,98.988 456.464,100.605 458.316,100.753 C460.167,100.9 461.788,99.522 461.936,97.674 C462.516,90.419 467.716,84.364 474.812,82.681 C473.616,82.961 473.312,82.373 473.356,82.271 C470.616,88.589 472.02,95.935 476.897,100.804 C481.773,105.672 489.134,107.074 495.465,104.341 C495.366,104.384 494.771,104.078 495.054,102.883 C493.83,108.045 490.233,112.326 485.354,114.428 C483.649,115.162 482.863,117.138 483.599,118.84 C484.335,120.542 486.314,121.326 488.02,120.591 Z" />
        </g>
        <g id="Black-M" transform="translate(0,200)">
            <path d="M668.606,125.861 C672.321,125.861 675.332,128.866 675.332,132.574 C675.332,136.281 672.321,139.287 668.606,139.287 L648.427,139.287 C641.348,139.285 635.481,133.809 635.007,126.759 C634.533,119.71 639.615,113.5 646.63,112.555 C653.646,111.61 660.195,116.253 661.611,123.175 C661.931,124.738 663.308,125.861 664.906,125.861 L668.606,125.861 Z M668.606,119.147 L664.906,119.147 L668.202,121.833 C666.078,111.449 656.254,104.484 645.731,105.902 C635.207,107.32 627.585,116.634 628.296,127.209 C629.007,137.783 637.807,145.998 648.426,146 L668.606,146 C676.036,146 682.059,139.989 682.059,132.574 C682.059,125.159 676.036,119.147 668.606,119.147 Z" />
            <path d="M688.02,120.591 C694.851,117.648 699.886,111.656 701.6,104.43 C702.828,99.252 697.106,96.309 692.789,98.182 C688.996,99.819 684.579,98.978 681.653,96.057 C678.727,93.136 677.885,88.728 679.529,84.938 C681.398,80.63 678.449,74.933 673.265,76.148 C663.323,78.505 656.043,86.982 655.231,97.14 C655.083,98.988 656.464,100.605 658.316,100.753 C660.167,100.9 661.788,99.522 661.936,97.674 C662.516,90.419 667.716,84.364 674.812,82.681 C673.616,82.961 673.312,82.373 673.356,82.271 C670.616,88.589 672.02,95.935 676.897,100.804 C681.773,105.672 689.134,107.074 695.465,104.341 C695.366,104.384 694.771,104.078 695.054,102.883 C693.83,108.045 690.233,112.326 685.354,114.428 C683.649,115.162 682.863,117.138 683.599,118.84 C684.335,120.542 686.314,121.326 688.02,120.591 Z" />
        </g>
    </g>
</svg>