<?xml version="1.0" encoding="UTF-8"?>
<svg height="600" width="800" xmlns="http://www.w3.org/2000/svg" xmlns:xlink="http://www.w3.org/1999/xlink">
    <g id="Notes" font-family="LucidaGrande, 'Lucida Grande', sans-serif" font-size="13">
        <rect fill="white" height="600.0" width="800.0" x="0.0" y="0.0" />
        <g font-size="13">
            <text x="18.0" y="176.0">Small</text>
            <text x="18.0" y="376.0">Medium</text>
            <text x="18.0" y="576.0">Large</text>
        </g>
        <g font-size="9">
            <text x="250.0" y="30.0">Ultralight</text>
            <text x="450.0" y="30.0">Regular</text>
            <text x="650.0" y="30.0">Black</text>
            <text id="template-version" fill="#505050" text-anchor="end" x="785.0" y="575.0">Template v.3.0</text>
            <a href="https://github.com/swhitty/SwiftDraw">
                <text fill="#505050" text-anchor="end" x="785.0" y="590.0">https://github.com/swhitty/SwiftDraw</text>
            </a>
        </g>
    </g>
    <g id="Guides" stroke="rgb(39, 170, 225)" stroke-width="0.5">
        <path id="Capline-S" d="M18,76 l800,0" />
        <path id="H-reference" d="M85,145.755 L87.685,145.755 L113.369,79.287 L114.052,79.287 L114.052,76 L112.148,76 L85,145.755 Z M95.693,121.536 L130.996,121.536 L130.263,119.313 L96.474,119.313 L95.693,121.536 Z M139.15,145.755 L141.787,145.755 L114.638,76 L113.466,76 L113.466,79.287 L139.15,145.755 Z" stroke="none" transform="translate(0,200)" />
        <path id="Baseline-S" d="M18,146 l800,0" />
        <path id="left-margin-Ultralight-M" d="M230,256 l0,110" />
        <path id="right-margin-Ultralight-M" d="M300,256 l0,110" />
        <path id="left-margin-Regular-M" d="M430,256 l0,110" />
        <path id="right-margin-Regular-M" d="M500,256 l0,110" />
        <path id="left-margin-Black-M" d="M630,256 l0,110" />
        <path id="right-margin-Black-M" d="M700,256 l0,110" />
        <path id="Capline-M" d="M18,276 l800,0" />
        <path id="Baseline-M" d="M18,346 l800,0" />
        <path id="Capline-L" d="M18,476 l800,0" />
        <path id="Baseline-L" d="M18,546 l800,0" />
    </g>
    <g id="Symbols">
        <g id="Ultralight-M" transform="translate(0,200)">
            <path d="M261.5,79.5 L261.5,100.5 C261.5,102.433 263.067,104 265,104 C266.933,104 268.5,102.433 268.5,100.5 L268.5,79.5 C268.5,77.567 266.933,76 265,76 C263.067,76 261.5,77.567 261.5,79.5 Z" />
            <path d="M281.684,83 C283.015,82.991 284.236,83.737 284.834,84.925 L292.632,100.587 C292.874,101.072 293,101.606 293,102.147 L293,135.5 C293,136.428 292.631,137.319 291.975,137.975 C291.318,138.631 290.428,139 289.5,139 L240.5,139 C239.572,139 238.682,138.631 238.025,137.975 C237.369,137.319 237,136.428 237,135.5 L237,102.152 C237,101.608 237.127,101.073 237.37,100.587 L245.205,84.915 C245.797,83.743 247.009,82.998 248.333,83 L281.66,83 Z M281.66,76 L248.34,76 C244.374,75.992 240.737,78.227 238.949,81.775 L231.109,97.456 C230.38,98.913 230.001,100.52 230,102.151 L230,135.5 C230,138.285 231.106,140.956 233.075,142.925 C235.045,144.894 237.715,146 240.5,146 L289.5,146 C292.285,146 294.955,144.894 296.925,142.925 C298.894,140.955 300,138.285 300,135.5 L300,102.145 C299.999,100.52 299.622,98.918 298.897,97.465 L291.093,81.79 C289.289,78.21 285.627,75.972 281.636,76 Z" />
            <path d="M233.689,104.046 L296.315,104.046 C298.247,104.046 299.815,102.479 299.815,100.546 C299.815,98.613 298.247,97.046 296.315,97.046 L233.689,97.046 C231.756,97.046 230.189,98.613 230.189,100.546 C230.189,102.479 231.756,104.046 233.689,104.046 Z" />
        </g>
        <g id="Regular-M" transform="translate(0,200)">
            <path d="M461.5,79.5 L461.5,100.5 C461.5,102.433 463.067,104 465,104 C466.933,104 468.5,102.433 468.5,100.5 L468.5,79.5 C468.5,77.567 466.933,76 465,76 C463.067,76 461.5,77.567 461.5,79.5 Z" />
            <path d="M481.684,83 C483.015,82.991 484.236,83.737 484.834,84.925 L492.632,100.587 C492.874,101.072 493,101.606 493,102.147 L493,135.5 C493,136.428 492.631,137.319 491.975,137.975 C491.318,138.631 490.428,139 489.5,139 L440.5,139 C439.572,139 438.682,138.631 438.025,137.975 C437.369,137.319 437,136.428 437,135.5 L437,102.152 C437,101.608 437.127,101.073 437.37,100.587 L445.206,84.915 C445.797,83.743 447.009,82.998 448.333,83 L481.66,83 Z M481.66,76 L448.34,76 C444.374,75.992 440.737,78.227 438.949,81.775 L431.109,97.456 C430.38,98.913 430.001,100.52 430,102.151 L430,135.5 C430,138.285 431.106,140.956 433.075,142.925 C435.045,144.894 437.715,146 440.5,146 L489.5,146 C492.285,146 494.955,144.894 496.925,142.925 C498.894,140.955 500,138.285 500,135.5 L500,102.145 C499.999,100.52 499.622,98.918 498.897,97.465 L491.093,81.79 C489.289,78.21 485.627,75.972 481.636,76 Z" />
            <path d="M433.689,104.046 L496.315,104.046 C498.247,104.046 499.815,102.479 499.815,100.546 C499.815,98.613 498.247,97.046 496.315,97.046 L433.689,97.046 C431.756,97.046 430.189,98.613 430.189,100.546 C430.189,102.479 431.756,104.046 433.689,104.046 Z" />
        </g>
        <g id="Black-M" transform="translate(0,200)">
            <path d="M661.5,79.5 L661.5,100.5 C661.5,102.433 663.067,104 665,104 C666.933,104 668.5,102.433 668.5,100.5 L668.5,79.5 C668.5,77.567 666.933,76 665,76 C663.067,76 661.5,77.567 661.5,79.5 Z" />
            <path d="M681.684,83 C683.015,82.991 684.236,83.737 684.834,84.925 L692.632,100.587 C692.874,101.072 693,101.606 693,102.147 L693,135.5 C693,136.428 692.631,137.319 691.975,137.975 C691.318,138.631 690.428,139 689.5,139 L640.5,139 C639.572,139 638.682,138.631 638.025,137.975 C637.369,137.319 637,136.428 637,135.5 L637,102.152 C637,101.608 637.127,101.073 637.37,100.587 L645.206,84.915 C645.797,83.743 647.009,82.998 648.333,83 L681.66,83 Z M681.66,76 L648.34,76 C644.374,75.992 640.737,78.227 638.949,81.775 L631.109,97.456 C630.38,98.913 630.001,100.52 630,102.151 L630,135.5 C630,138.285 631.106,140.956 633.075,142.925 C635.044,144.894 637.715,146 640.5,146 L689.5,146 C692.285,146 694.955,144.894 696.925,142.925 C698.894,140.955 700,138.285 700,135.5 L700,102.145 C699.999,100.52 699.622,98.918 698.898,97.465 L691.093,81.79 C689.289,78.21 685.627,75.972 681.636,76 Z" />
            <path d="M633.689,104.046 L696.315,104.046 C698.247,104.046 699.815,102.479 699.815,100.546 C699.815,98.613 698.247,97.046 696.315,97.046 L633.689,97.046 C631.756,97.046 630.189,98.613 630.189,100.546 C630.189,102.479 631.756,104.046 633.689,104.046 Z" />
        </g>
    </g>
</svg>