<?xml version="1.0" encoding="UTF-8"?>
<svg height="600" width="800" xmlns="http://www.w3.org/2000/svg" xmlns:xlink="http://www.w3.org/1999/xlink">
    <g id="Notes" font-family="LucidaGrande, 'Lucida Grande', sans-serif" font-size="13">
        <rect fill="white" height="600.0" width="800.0" x="0.0" y="0.0" />
        <g font-size="13">
            <text x="18.0" y="176.0">Small</text>
            <text x="18.0" y="376.0">Medium</text>
            <text x="18.0" y="576.0">Large</text>
        </g>
        <g font-size="9">
            <text x="250.0" y="30.0">Ultralight</text>
            <text x="450.0" y="30.0">Regular</text>
            <text x="650.0" y="30.0">Black</text>
            <text id="template-version" fill="#505050" text-anchor="end" x="785.0" y="575.0">Template v.3.0</text>
            <a href="https://github.com/swhitty/SwiftDraw">
                <text fill="#505050" text-anchor="end" x="785.0" y="590.0">https://github.com/swhitty/SwiftDraw</text>
            </a>
        </g>
    </g>
    <g id="Guides" stroke="rgb(39, 170, 225)" stroke-width="0.5">
        <path id="Capline-S" d="M18,76 l800,0" />
        <path id="H-reference" d="M85,145.755 L87.685,145.755 L113.369,79.287 L114.052,79.287 L114.052,76 L112.148,76 L85,145.755 Z M95.693,121.536 L130.996,121.536 L130.263,119.313 L96.474,119.313 L95.693,121.536 Z M139.15,145.755 L141.787,145.755 L114.638,76 L113.466,76 L113.466,79.287 L139.15,145.755 Z" stroke="none" transform="translate(0,200)" />
        <path id="Baseline-S" d="M18,146 l800,0" />
        <path id="left-margin-Ultralight-M" d="M230,256 l0,110" />
        <path id="right-margin-Ultralight-M" d="M300,256 l0,110" />
        <path id="left-margin-Regular-M" d="M430,256 l0,110" />
        <path id="right-margin-Regular-M" d="M500,256 l0,110" />
        <path id="left-margin-Black-M" d="M630,256 l0,110" />
        <path id="right-margin-Black-M" d="M700,256 l0,110" />
        <path id="Capline-M" d="M18,276 l800,0" />
        <path id="Baseline-M" d="M18,346 l800,0" />
        <path id="Capline-L" d="M18,476 l800,0" />
        <path id="Baseline-L" d="M18,546 l800,0" />
    </g>
    <g id="Symbols">
        <g id="Ultralight-M" transform="translate(0,200)">
            <path d="M261.5,79.5 L261.5,139 C261.5,139 261.5,139 261.5,139 C261.5,139 261.5,139 261.5,139 L240.5,139 C239.572,139 238.682,138.631 238.025,137.975 C237.369,137.318 237,136.428 237,135.5 L237,86.5 C237,85.572 237.369,84.682 238.025,84.025 C238.682,83.369 239.572,83 240.5,83 L289.5,83 C290.428,83 291.318,83.369 291.975,84.025 C292.631,84.682 293,85.572 293,86.5 L293,107.5 C293,107.5 293,107.5 293,107.5 C293,107.5 293,107.5 293,107.5 L233.5,107.5 C231.567,107.5 230,109.067 230,111 C230,112.933 231.567,114.5 233.5,114.5 L293,114.5 C294.857,114.5 296.637,113.763 297.95,112.45 C299.263,111.137 300,109.357 300,107.5 L300,86.5 C300,83.715 298.894,81.045 296.925,79.075 C294.956,77.106 292.285,76 289.5,76 L240.5,76 C237.715,76 235.045,77.106 233.075,79.075 C231.106,81.045 230,83.715 230,86.5 L230,135.5 C230,138.285 231.106,140.955 233.075,142.925 C235.045,144.894 237.715,146 240.5,146 L261.5,146 C263.357,146 265.137,145.263 266.45,143.95 C267.763,142.637 268.5,140.857 268.5,139 L268.5,79.5 C268.5,77.567 266.933,76 265,76 C263.067,76 261.5,77.567 261.5,79.5 Z" />
            <path d="M276.525,127.475 L294.025,144.975 C295.392,146.342 297.608,146.342 298.975,144.975 C300.342,143.608 300.342,141.392 298.975,140.025 L281.475,122.525 C280.108,121.158 277.892,121.158 276.525,122.525 C275.158,123.892 275.158,126.108 276.525,127.475 Z" />
            <path d="M281.475,144.975 L298.975,127.475 C300.342,126.108 300.342,123.892 298.975,122.525 C297.608,121.158 295.392,121.158 294.025,122.525 L276.525,140.025 C275.158,141.392 275.158,143.608 276.525,144.975 C277.892,146.342 280.108,146.342 281.475,144.975 Z" />
        </g>
        <g id="Regular-M" transform="translate(0,200)">
            <path d="M461.5,79.5 L461.5,139 C461.5,139 461.5,139 461.5,139 C461.5,139 461.5,139 461.5,139 L440.5,139 C439.572,139 438.682,138.631 438.025,137.975 C437.369,137.318 437,136.428 437,135.5 L437,86.5 C437,85.572 437.369,84.682 438.025,84.025 C438.682,83.369 439.572,83 440.5,83 L489.5,83 C490.428,83 491.318,83.369 491.975,84.025 C492.631,84.682 493,85.572 493,86.5 L493,107.5 C493,107.5 493,107.5 493,107.5 C493,107.5 493,107.5 493,107.5 L433.5,107.5 C431.567,107.5 430,109.067 430,111 C430,112.933 431.567,114.5 433.5,114.5 L493,114.5 C494.857,114.5 496.637,113.763 497.95,112.45 C499.263,111.137 500,109.357 500,107.5 L500,86.5 C500,83.715 498.894,81.045 496.925,79.075 C494.956,77.106 492.285,76 489.5,76 L440.5,76 C437.715,76 435.045,77.106 433.075,79.075 C431.106,81.045 430,83.715 430,86.5 L430,135.5 C430,138.285 431.106,140.955 433.075,142.925 C435.045,144.894 437.715,146 440.5,146 L461.5,146 C463.357,146 465.137,145.263 466.45,143.95 C467.763,142.637 468.5,140.857 468.5,139 L468.5,79.5 C468.5,77.567 466.933,76 465,76 C463.067,76 461.5,77.567 461.5,79.5 Z" />
            <path d="M476.525,127.475 L494.025,144.975 C495.392,146.342 497.608,146.342 498.975,144.975 C500.342,143.608 500.342,141.392 498.975,140.025 L481.475,122.525 C480.108,121.158 477.892,121.158 476.525,122.525 C475.158,123.892 475.158,126.108 476.525,127.475 Z" />
            <path d="M481.475,144.975 L498.975,127.475 C500.342,126.108 500.342,123.892 498.975,122.525 C497.608,121.158 495.392,121.158 494.025,122.525 L476.525,140.025 C475.158,141.392 475.158,143.608 476.525,144.975 C477.892,146.342 480.108,146.342 481.475,144.975 Z" />
        </g>
        <g id="Black-M" transform="translate(0,200)">
            <path d="M661.5,79.5 L661.5,139 C661.5,139 661.5,139 661.5,139 C661.5,139 661.5,139 661.5,139 L640.5,139 C639.572,139 638.682,138.631 638.025,137.975 C637.369,137.318 637,136.428 637,135.5 L637,86.5 C637,85.572 637.369,84.682 638.025,84.025 C638.682,83.369 639.572,83 640.5,83 L689.5,83 C690.428,83 691.318,83.369 691.975,84.025 C692.631,84.682 693,85.572 693,86.5 L693,107.5 C693,107.5 693,107.5 693,107.5 C693,107.5 693,107.5 693,107.5 L633.5,107.5 C631.567,107.5 630,109.067 630,111 C630,112.933 631.567,114.5 633.5,114.5 L693,114.5 C694.857,114.5 696.637,113.763 697.95,112.45 C699.263,111.137 700,109.357 700,107.5 L700,86.5 C700,83.715 698.894,81.045 696.925,79.075 C694.956,77.106 692.285,76 689.5,76 L640.5,76 C637.715,76 635.044,77.106 633.075,79.075 C631.106,81.045 630,83.715 630,86.5 L630,135.5 C630,138.285 631.106,140.955 633.075,142.925 C635.044,144.894 637.715,146 640.5,146 L661.5,146 C663.357,146 665.137,145.263 666.45,143.95 C667.763,142.637 668.5,140.857 668.5,139 L668.5,79.5 C668.5,77.567 666.933,76 665,76 C663.067,76 661.5,77.567 661.5,79.5 Z" />
            <path d="M676.525,127.475 L694.025,144.975 C695.392,146.342 697.608,146.342 698.975,144.975 C700.342,143.608 700.342,141.392 698.975,140.025 L681.475,122.525 C680.108,121.158 677.892,121.158 676.525,122.525 C675.158,123.892 675.158,126.108 676.525,127.475 Z" />
            <path d="M681.475,144.975 L698.975,127.475 C700.342,126.108 700.342,123.892 698.975,122.525 C697.608,121.158 695.392,121.158 694.025,122.525 L676.525,140.025 C675.158,141.392 675.158,143.608 676.525,144.975 C677.892,146.342 680.108,146.342 681.475,144.975 Z" />
        </g>
    </g>
</svg>