<?xml version="1.0" encoding="UTF-8"?>
<svg height="600" width="800" xmlns="http://www.w3.org/2000/svg" xmlns:xlink="http://www.w3.org/1999/xlink">
    <g id="Notes" font-family="LucidaGrande, 'Lucida Grande', sans-serif" font-size="13">
        <rect fill="white" height="600.0" width="800.0" x="0.0" y="0.0" />
        <g font-size="13">
            <text x="18.0" y="176.0">Small</text>
            <text x="18.0" y="376.0">Medium</text>
            <text x="18.0" y="576.0">Large</text>
        </g>
        <g font-size="9">
            <text x="250.0" y="30.0">Ultralight</text>
            <text x="450.0" y="30.0">Regular</text>
            <text x="650.0" y="30.0">Black</text>
            <text id="template-version" fill="#505050" text-anchor="end" x="785.0" y="575.0">Template v.3.0</text>
            <a href="https://github.com/swhitty/SwiftDraw">
                <text fill="#505050" text-anchor="end" x="785.0" y="590.0">https://github.com/swhitty/SwiftDraw</text>
            </a>
        </g>
    </g>
    <g id="Guides" stroke="rgb(39, 170, 225)" stroke-width="0.5">
        <path id="Capline-S" d="M18,76 l800,0" />
        <path id="H-reference" d="M85,145.755 L87.685,145.755 L113.369,79.287 L114.052,79.287 L114.052,76 L112.148,76 L85,145.755 Z M95.693,121.536 L130.996,121.536 L130.263,119.313 L96.474,119.313 L95.693,121.536 Z M139.15,145.755 L141.787,145.755 L114.638,76 L113.466,76 L113.466,79.287 L139.15,145.755 Z" stroke="none" transform="translate(0,200)" />
        <path id="Baseline-S" d="M18,146 l800,0" />
        <path id="left-margin-Ultralight-M" d="M230,256 l0,110" />
        <path id="right-margin-Ultralight-M" d="M300,256 l0,110" />
        <path id="left-margin-Regular-M" d="M430,256 l0,110" />
        <path id="right-margin-Regular-M" d="M500,256 l0,110" />
        <path id="left-margin-Black-M" d="M630,256 l0,110" />
        <path id="right-margin-Black-M" d="M700,256 l0,110" />
        <path id="Capline-M" d="M18,276 l800,0" />
        <path id="Baseline-M" d="M18,346 l800,0" />
        <path id="Capline-L" d="M18,476 l800,0" />
        <path id="Baseline-L" d="M18,546 l800,0" />
    </g>
    <g id="Symbols">
        <g id="Ultralight-M" transform="translate(0,200)">
            <path d="M248.579,84.45 C255.001,81.877 259.707,82.811 261.212,85.374 C262.404,87.403 261.05,90.151 256.48,91.867 C242.323,96.027 233.419,102.795 230.774,110.74 C228.276,118.245 232.05,125.54 239.255,127.945 C248.031,131.467 253.991,127.514 266.349,114.429 C266.752,114.002 266.752,114.002 267.154,113.577 C277.276,102.878 281.918,100.176 287.134,103.31 C300.343,111.247 288.43,142.826 276.14,138.724 L276.594,138.912 C270.896,136.059 270.254,129.673 274.13,126.129 C278.379,122.244 285.51,124.778 292.897,136.883 C293.896,138.52 296.031,139.036 297.666,138.036 C299.301,137.035 299.816,134.897 298.817,133.26 C289.427,117.873 277.504,113.636 269.452,120.998 C262.077,127.742 263.313,140.03 273.492,145.127 L273.946,145.315 C294.52,152.183 310.677,109.353 290.704,97.352 C281.343,91.728 274.498,95.711 262.117,108.798 C261.712,109.227 261.712,109.227 261.308,109.655 C251.101,120.463 246.635,123.424 241.641,121.424 C237.837,120.148 236.084,116.759 237.356,112.938 C239.167,107.497 246.252,102.113 258.677,98.453 C267.199,95.262 270.79,87.976 267.192,81.851 C263.719,75.938 255.311,74.27 246.002,77.999 C244.223,78.711 243.358,80.733 244.07,82.514 C244.781,84.296 246.8,85.162 248.579,84.45 Z" />
        </g>
        <g id="Regular-M" transform="translate(0,200)">
            <path d="M448.579,84.45 C455.001,81.877 459.707,82.811 461.212,85.374 C462.404,87.403 461.05,90.151 456.48,91.867 C442.323,96.027 433.419,102.795 430.774,110.74 C428.276,118.245 432.05,125.54 439.255,127.945 C448.031,131.467 453.991,127.514 466.349,114.429 C466.752,114.002 466.752,114.002 467.154,113.577 C477.276,102.878 481.918,100.176 487.134,103.31 C500.343,111.247 488.43,142.826 476.14,138.724 L476.594,138.912 C470.896,136.059 470.254,129.673 474.13,126.129 C478.379,122.244 485.51,124.778 492.897,136.883 C493.896,138.52 496.031,139.036 497.666,138.036 C499.301,137.035 499.816,134.897 498.817,133.26 C489.427,117.873 477.504,113.636 469.452,120.998 C462.077,127.742 463.313,140.03 473.492,145.127 L473.946,145.315 C494.52,152.183 510.677,109.353 490.704,97.352 C481.343,91.728 474.498,95.711 462.117,108.798 C461.712,109.227 461.712,109.227 461.308,109.655 C451.101,120.463 446.635,123.424 441.641,121.424 C437.837,120.148 436.084,116.759 437.356,112.938 C439.167,107.497 446.252,102.113 458.677,98.453 C467.199,95.262 470.79,87.976 467.192,81.851 C463.719,75.938 455.311,74.27 446.002,77.999 C444.223,78.711 443.358,80.733 444.07,82.514 C444.781,84.296 446.8,85.162 448.579,84.45 Z" />
        </g>
        <g id="Black-M" transform="translate(0,200)">
            <path d="M648.579,84.45 C655.001,81.877 659.706,82.811 661.212,85.374 C662.404,87.403 661.05,90.151 656.48,91.867 C642.323,96.027 633.419,102.795 630.774,110.74 C628.276,118.245 632.05,125.54 639.255,127.945 C648.031,131.467 653.991,127.514 666.349,114.429 C666.752,114.002 666.752,114.002 667.154,113.577 C677.276,102.878 681.918,100.176 687.134,103.31 C700.343,111.247 688.43,142.826 676.14,138.724 L676.594,138.912 C670.896,136.059 670.254,129.673 674.13,126.129 C678.379,122.244 685.51,124.778 692.897,136.883 C693.896,138.52 696.031,139.036 697.666,138.036 C699.301,137.035 699.816,134.897 698.817,133.26 C689.427,117.873 677.504,113.636 669.452,120.998 C662.077,127.742 663.313,140.03 673.492,145.127 L673.946,145.315 C694.52,152.183 710.677,109.353 690.704,97.352 C681.343,91.728 674.498,95.711 662.117,108.798 C661.712,109.227 661.712,109.227 661.308,109.655 C651.101,120.463 646.635,123.424 641.641,121.424 C637.837,120.148 636.084,116.759 637.356,112.938 C639.167,107.497 646.252,102.113 658.677,98.453 C667.199,95.262 670.79,87.976 667.192,81.851 C663.719,75.938 655.311,74.27 646.002,77.999 C644.223,78.711 643.358,80.733 644.07,82.514 C644.781,84.296 646.8,85.162 648.579,84.45 Z" />
        </g>
    </g>
</svg>