<?xml version="1.0" encoding="UTF-8"?>
<svg height="600" width="800" xmlns="http://www.w3.org/2000/svg" xmlns:xlink="http://www.w3.org/1999/xlink">
    <g id="Notes" font-family="LucidaGrande, 'Lucida Grande', sans-serif" font-size="13">
        <rect fill="white" height="600.0" width="800.0" x="0.0" y="0.0" />
        <g font-size="13">
            <text x="18.0" y="176.0">Small</text>
            <text x="18.0" y="376.0">Medium</text>
            <text x="18.0" y="576.0">Large</text>
        </g>
        <g font-size="9">
            <text x="250.0" y="30.0">Ultralight</text>
            <text x="450.0" y="30.0">Regular</text>
            <text x="650.0" y="30.0">Black</text>
            <text id="template-version" fill="#505050" text-anchor="end" x="785.0" y="575.0">Template v.3.0</text>
            <a href="https://github.com/swhitty/SwiftDraw">
                <text fill="#505050" text-anchor="end" x="785.0" y="590.0">https://github.com/swhitty/SwiftDraw</text>
            </a>
        </g>
    </g>
    <g id="Guides" stroke="rgb(39, 170, 225)" stroke-width="0.5">
        <path id="Capline-S" d="M18,76 l800,0" />
        <path id="H-reference" d="M85,145.755 L87.685,145.755 L113.369,79.287 L114.052,79.287 L114.052,76 L112.148,76 L85,145.755 Z M95.693,121.536 L130.996,121.536 L130.263,119.313 L96.474,119.313 L95.693,121.536 Z M139.15,145.755 L141.787,145.755 L114.638,76 L113.466,76 L113.466,79.287 L139.15,145.755 Z" stroke="none" transform="translate(0,200)" />
        <path id="Baseline-S" d="M18,146 l800,0" />
        <path id="left-margin-Ultralight-M" d="M228.333,256 l0,110" />
        <path id="right-margin-Ultralight-M" d="M301.667,256 l0,110" />
        <path id="left-margin-Regular-M" d="M428.333,256 l0,110" />
        <path id="right-margin-Regular-M" d="M501.667,256 l0,110" />
        <path id="left-margin-Black-M" d="M628.333,256 l0,110" />
        <path id="right-margin-Black-M" d="M701.667,256 l0,110" />
        <path id="Capline-M" d="M18,276 l800,0" />
        <path id="Baseline-M" d="M18,346 l800,0" />
        <path id="Capline-L" d="M18,476 l800,0" />
        <path id="Baseline-L" d="M18,546 l800,0" />
    </g>
    <g id="Symbols">
        <g id="Ultralight-M" transform="translate(0,200)">
            <path d="M285,129.333 C281.464,129.333 278.072,127.929 275.572,125.428 C273.071,122.928 271.667,119.536 271.667,116 L265,116 L265,142.667 C265,144.508 266.492,146 268.333,146 C270.174,146 271.667,144.508 271.667,142.667 L271.667,116 C271.667,111.556 265,111.556 265,116 C265,121.304 267.107,126.391 270.858,130.142 C274.609,133.893 279.696,136 285,136 C286.841,136 288.333,134.508 288.333,132.667 C288.333,130.826 286.841,129.333 285,129.333 Z" />
            <path d="M255,132.667 L238.333,132.667 C237.449,132.667 236.601,132.316 235.976,131.69 C235.351,131.065 235,130.217 235,129.333 L235,86 C235,85.116 235.351,84.268 235.976,83.643 C236.601,83.018 237.449,82.667 238.333,82.667 L251.333,82.667 C252.499,82.656 253.56,83.221 254.183,84.167 L256.904,88.199 C258.732,90.976 261.87,92.666 265.233,92.667 L291.667,92.667 C292.551,92.667 293.399,93.018 294.024,93.643 C294.649,94.268 295,95.116 295,96 L295,112.667 C295,114.508 296.492,116 298.333,116 C300.174,116 301.667,114.508 301.667,112.667 L301.667,96 C301.667,93.348 300.613,90.805 298.738,88.929 C296.862,87.054 294.319,86 291.667,86 L265.233,86 C264.113,86 263.067,85.436 262.451,84.5 L259.729,80.469 C257.882,77.662 254.699,75.967 251.301,76 L238.333,76 C235.681,76 233.138,77.054 231.262,78.929 C229.387,80.805 228.333,83.348 228.333,86 L228.333,129.333 C228.333,131.986 229.387,134.529 231.262,136.404 C233.138,138.28 235.681,139.333 238.333,139.333 L255,139.333 C256.841,139.333 258.333,137.841 258.333,136 C258.333,134.159 256.841,132.667 255,132.667 Z" />
            <path d="M265,109.333 C265,107.493 266.492,106 268.333,106 C270.174,106 271.667,107.493 271.667,109.333 C271.667,111.174 270.174,112.667 268.333,112.667 C266.492,112.667 265,111.174 265,109.333 Z M258.333,109.333 C258.333,114.856 262.81,119.333 268.333,119.333 C273.856,119.333 278.333,114.856 278.333,109.333 C278.333,103.811 273.856,99.334 268.333,99.334 C262.81,99.334 258.333,103.811 258.333,109.333 Z" />
            <path d="M288.333,132.667 C288.333,130.826 289.826,129.333 291.667,129.333 C293.508,129.333 295,130.826 295,132.667 C295,134.508 293.508,136 291.667,136 C289.826,136 288.333,134.508 288.333,132.667 Z M281.667,132.667 C281.667,138.19 286.144,142.667 291.667,142.667 C297.19,142.667 301.667,138.19 301.667,132.667 C301.667,127.144 297.19,122.667 291.667,122.667 C286.144,122.667 281.667,127.144 281.667,132.667 Z" />
        </g>
        <g id="Regular-M" transform="translate(0,200)">
            <path d="M485,129.333 C481.464,129.333 478.072,127.929 475.572,125.428 C473.071,122.928 471.667,119.536 471.667,116 L465,116 L465,142.667 C465,144.508 466.492,146 468.333,146 C470.174,146 471.667,144.508 471.667,142.667 L471.667,116 C471.667,111.556 465,111.556 465,116 C465,121.304 467.107,126.391 470.858,130.142 C474.609,133.893 479.696,136 485,136 C486.841,136 488.333,134.508 488.333,132.667 C488.333,130.826 486.841,129.333 485,129.333 Z" />
            <path d="M455,132.667 L438.333,132.667 C437.449,132.667 436.601,132.316 435.976,131.69 C435.351,131.065 435,130.217 435,129.333 L435,86 C435,85.116 435.351,84.268 435.976,83.643 C436.601,83.018 437.449,82.667 438.333,82.667 L451.333,82.667 C452.499,82.656 453.56,83.221 454.183,84.167 L456.904,88.199 C458.732,90.976 461.87,92.666 465.233,92.667 L491.667,92.667 C492.551,92.667 493.399,93.018 494.024,93.643 C494.649,94.268 495,95.116 495,96 L495,112.667 C495,114.508 496.492,116 498.333,116 C500.174,116 501.667,114.508 501.667,112.667 L501.667,96 C501.667,93.348 500.613,90.805 498.738,88.929 C496.862,87.054 494.319,86 491.667,86 L465.233,86 C464.113,86 463.067,85.436 462.451,84.5 L459.729,80.469 C457.882,77.662 454.699,75.967 451.301,76 L438.333,76 C435.681,76 433.138,77.054 431.262,78.929 C429.387,80.805 428.333,83.348 428.333,86 L428.333,129.333 C428.333,131.986 429.387,134.529 431.262,136.404 C433.138,138.28 435.681,139.333 438.333,139.333 L455,139.333 C456.841,139.333 458.333,137.841 458.333,136 C458.333,134.159 456.841,132.667 455,132.667 Z" />
            <path d="M465,109.333 C465,107.493 466.492,106 468.333,106 C470.174,106 471.667,107.493 471.667,109.333 C471.667,111.174 470.174,112.667 468.333,112.667 C466.492,112.667 465,111.174 465,109.333 Z M458.333,109.333 C458.333,114.856 462.81,119.333 468.333,119.333 C473.856,119.333 478.333,114.856 478.333,109.333 C478.333,103.811 473.856,99.334 468.333,99.334 C462.81,99.334 458.333,103.811 458.333,109.333 Z" />
            <path d="M488.333,132.667 C488.333,130.826 489.826,129.333 491.667,129.333 C493.508,129.333 495,130.826 495,132.667 C495,134.508 493.508,136 491.667,136 C489.826,136 488.333,134.508 488.333,132.667 Z M481.667,132.667 C481.667,138.19 486.144,142.667 491.667,142.667 C497.19,142.667 501.667,138.19 501.667,132.667 C501.667,127.144 497.19,122.667 491.667,122.667 C486.144,122.667 481.667,127.144 481.667,132.667 Z" />
        </g>
        <g id="Black-M" transform="translate(0,200)">
            <path d="M685,129.333 C681.464,129.333 678.072,127.929 675.572,125.428 C673.071,122.928 671.667,119.536 671.667,116 L665,116 L665,142.667 C665,144.508 666.492,146 668.333,146 C670.174,146 671.667,144.508 671.667,142.667 L671.667,116 C671.667,111.556 665,111.556 665,116 C665,121.304 667.107,126.391 670.858,130.142 C674.609,133.893 679.696,136 685,136 C686.841,136 688.333,134.508 688.333,132.667 C688.333,130.826 686.841,129.333 685,129.333 Z" />
            <path d="M655,132.667 L638.333,132.667 C637.449,132.667 636.601,132.316 635.976,131.69 C635.351,131.065 635,130.217 635,129.333 L635,86 C635,85.116 635.351,84.268 635.976,83.643 C636.601,83.018 637.449,82.667 638.333,82.667 L651.333,82.667 C652.499,82.656 653.56,83.221 654.183,84.167 L656.904,88.199 C658.732,90.976 661.87,92.666 665.233,92.667 L691.667,92.667 C692.551,92.667 693.399,93.018 694.024,93.643 C694.649,94.268 695,95.116 695,96 L695,112.667 C695,114.508 696.492,116 698.333,116 C700.174,116 701.667,114.508 701.667,112.667 L701.667,96 C701.667,93.348 700.613,90.805 698.738,88.929 C696.862,87.054 694.319,86 691.667,86 L665.233,86 C664.113,86 663.067,85.436 662.451,84.5 L659.729,80.469 C657.882,77.662 654.699,75.967 651.301,76 L638.333,76 C635.681,76 633.138,77.054 631.262,78.929 C629.387,80.805 628.333,83.348 628.333,86 L628.333,129.333 C628.333,131.986 629.387,134.529 631.262,136.404 C633.138,138.28 635.681,139.333 638.333,139.333 L655,139.333 C656.841,139.333 658.333,137.841 658.333,136 C658.333,134.159 656.841,132.667 655,132.667 Z" />
            <path d="M665,109.333 C665,107.493 666.492,106 668.333,106 C670.174,106 671.667,107.493 671.667,109.333 C671.667,111.174 670.174,112.667 668.333,112.667 C666.492,112.667 665,111.174 665,109.333 Z M658.333,109.333 C658.333,114.856 662.81,119.333 668.333,119.333 C673.856,119.333 678.333,114.856 678.333,109.333 C678.333,103.811 673.856,99.334 668.333,99.334 C662.81,99.334 658.333,103.811 658.333,109.333 Z" />
            <path d="M688.333,132.667 C688.333,130.826 689.826,129.333 691.667,129.333 C693.508,129.333 695,130.826 695,132.667 C695,134.508 693.508,136 691.667,136 C689.826,136 688.333,134.508 688.333,132.667 Z M681.667,132.667 C681.667,138.19 686.144,142.667 691.667,142.667 C697.19,142.667 701.667,138.19 701.667,132.667 C701.667,127.144 697.19,122.667 691.667,122.667 C686.144,122.667 681.667,127.144 681.667,132.667 Z" />
        </g>
    </g>
</svg>