<?xml version="1.0" encoding="UTF-8"?>
<svg height="600" width="800" xmlns="http://www.w3.org/2000/svg" xmlns:xlink="http://www.w3.org/1999/xlink">
    <g id="Notes" font-family="LucidaGrande, 'Lucida Grande', sans-serif" font-size="13">
        <rect fill="white" height="600.0" width="800.0" x="0.0" y="0.0" />
        <g font-size="13">
            <text x="18.0" y="176.0">Small</text>
            <text x="18.0" y="376.0">Medium</text>
            <text x="18.0" y="576.0">Large</text>
        </g>
        <g font-size="9">
            <text x="250.0" y="30.0">Ultralight</text>
            <text x="450.0" y="30.0">Regular</text>
            <text x="650.0" y="30.0">Black</text>
            <text id="template-version" fill="#505050" text-anchor="end" x="785.0" y="575.0">Template v.3.0</text>
            <a href="https://github.com/swhitty/SwiftDraw">
                <text fill="#505050" text-anchor="end" x="785.0" y="590.0">https://github.com/swhitty/SwiftDraw</text>
            </a>
        </g>
    </g>
    <g id="Guides" stroke="rgb(39, 170, 225)" stroke-width="0.5">
        <path id="Capline-S" d="M18,76 l800,0" />
        <path id="H-reference" d="M85,145.755 L87.685,145.755 L113.369,79.287 L114.052,79.287 L114.052,76 L112.148,76 L85,145.755 Z M95.693,121.536 L130.996,121.536 L130.263,119.313 L96.474,119.313 L95.693,121.536 Z M139.15,145.755 L141.787,145.755 L114.638,76 L113.466,76 L113.466,79.287 L139.15,145.755 Z" stroke="none" transform="translate(0,200)" />
        <path id="Baseline-S" d="M18,146 l800,0" />
        <path id="left-margin-Ultralight-M" d="M221,256 l0,110" />
        <path id="right-margin-Ultralight-M" d="M309,256 l0,110" />
        <path id="left-margin-Regular-M" d="M421,256 l0,110" />
        <path id="right-margin-Regular-M" d="M509,256 l0,110" />
        <path id="left-margin-Black-M" d="M621,256 l0,110" />
        <path id="right-margin-Black-M" d="M709,256 l0,110" />
        <path id="Capline-M" d="M18,276 l800,0" />
        <path id="Baseline-M" d="M18,346 l800,0" />
        <path id="Capline-L" d="M18,476 l800,0" />
        <path id="Baseline-L" d="M18,546 l800,0" />
    </g>
    <g id="Symbols">
        <g id="Ultralight-M" transform="translate(0,200)">
            <path d="M268.832,133.324 C266.281,133.555 263.711,133.555 261.16,133.324 C258.961,133.126 257.007,134.636 256.795,136.699 C256.583,138.761 258.194,140.594 260.393,140.792 C263.454,141.069 266.538,141.069 269.599,140.792 C271.798,140.594 273.409,138.761 273.197,136.699 C272.985,134.636 271.031,133.126 268.832,133.324 Z" />
            <path d="M269.601,81.21 C266.54,80.932 263.457,80.93 260.395,81.205 C258.196,81.403 256.584,83.235 256.795,85.298 C257.006,87.36 258.959,88.872 261.158,88.674 C263.71,88.445 266.279,88.446 268.83,88.677 C271.029,88.877 272.984,87.367 273.197,85.305 C273.41,83.243 271.8,81.409 269.601,81.21 Z" />
            <path d="M283.391,92.824 C285.648,93.963 287.782,95.302 289.765,96.824 C291.475,98.136 293.995,97.9 295.394,96.296 C296.793,94.693 296.541,92.329 294.831,91.017 C292.451,89.191 289.89,87.583 287.182,86.217 C285.237,85.235 282.811,85.918 281.765,87.743 C280.718,89.567 281.446,91.842 283.391,92.824 Z" />
            <path d="M289.764,125.175 C287.781,126.698 285.647,128.039 283.39,129.179 C281.445,130.161 280.718,132.436 281.765,134.261 C282.813,136.085 285.239,136.767 287.183,135.784 C289.891,134.416 292.453,132.808 294.832,130.98 C296.541,129.667 296.792,127.304 295.393,125.701 C293.993,124.098 291.473,123.862 289.764,125.175 Z" />
            <path d="M230.587,114.122 C229.984,113.063 229.435,111.977 228.943,110.868 C228.999,111.003 228.999,111.003 228.999,111.003 C229.436,110.02 229.982,108.933 230.583,107.873 C231.619,106.043 230.878,103.772 228.927,102.8 C226.976,101.828 224.555,102.523 223.518,104.353 C222.797,105.625 222.142,106.93 221.555,108.261 C220.833,110.075 220.833,111.931 221.501,113.618 C222.148,115.082 222.807,116.385 223.53,117.656 C224.571,119.484 226.994,120.174 228.942,119.198 C230.891,118.222 231.627,115.95 230.587,114.122 Z" />
            <path d="M299.41,107.882 C300.015,108.942 300.564,110.029 301.058,111.139 C301.001,111.003 301.001,111.003 301.001,111.003 C300.565,111.974 300.015,113.06 299.411,114.119 C298.369,115.946 299.103,118.219 301.05,119.197 C302.998,120.174 305.422,119.486 306.464,117.659 C307.189,116.388 307.849,115.085 308.441,113.755 C309.167,111.931 309.167,110.075 308.499,108.388 C307.85,106.921 307.19,105.616 306.465,104.344 C305.423,102.517 303,101.828 301.052,102.805 C299.104,103.781 298.369,106.054 299.41,107.882 Z" />
            <path d="M240.228,96.827 C242.211,95.304 244.345,93.963 246.602,92.823 C248.547,91.841 249.274,89.565 248.227,87.741 C247.179,85.917 244.753,85.235 242.809,86.217 C240.101,87.585 237.539,89.194 235.16,91.022 C233.451,92.335 233.2,94.698 234.599,96.301 C235.999,97.904 238.519,98.14 240.228,96.827 Z" />
            <path d="M246.602,129.179 C244.345,128.039 242.211,126.698 240.228,125.175 C238.519,123.862 235.999,124.098 234.599,125.701 C233.2,127.304 233.451,129.667 235.16,130.98 C237.539,132.808 240.101,134.416 242.809,135.784 C244.753,136.767 247.179,136.085 248.227,134.261 C249.274,132.436 248.547,130.161 246.602,129.179 Z" />
            <path d="M257,111.001 C257,106.857 260.582,103.498 265,103.498 C269.418,103.498 273,106.857 273,111.001 C273,115.145 269.418,118.504 265,118.504 C260.582,118.504 257,115.145 257,111.001 Z M249.001,111.001 C249.001,119.288 256.164,126.007 265,126.007 C273.836,126.007 280.999,119.288 280.999,111.001 C280.999,102.714 273.836,95.995 265,95.995 C256.164,95.995 249.001,102.714 249.001,111.001 Z" />
        </g>
        <g id="Regular-M" transform="translate(0,200)">
            <path d="M468.832,133.324 C466.281,133.555 463.711,133.555 461.16,133.324 C458.961,133.126 457.007,134.636 456.795,136.699 C456.583,138.761 458.194,140.594 460.393,140.792 C463.454,141.069 466.538,141.069 469.599,140.792 C471.798,140.594 473.409,138.761 473.197,136.699 C472.985,134.636 471.031,133.126 468.832,133.324 Z" />
            <path d="M469.601,81.21 C466.54,80.932 463.457,80.93 460.395,81.205 C458.196,81.403 456.584,83.235 456.795,85.298 C457.006,87.36 458.959,88.872 461.158,88.674 C463.71,88.445 466.279,88.446 468.83,88.677 C471.029,88.877 472.984,87.367 473.197,85.305 C473.41,83.243 471.8,81.409 469.601,81.21 Z" />
            <path d="M483.391,92.824 C485.648,93.963 487.782,95.302 489.765,96.824 C491.475,98.136 493.995,97.9 495.394,96.296 C496.793,94.693 496.541,92.329 494.831,91.017 C492.451,89.191 489.89,87.583 487.182,86.217 C485.237,85.235 482.811,85.918 481.765,87.743 C480.718,89.567 481.446,91.842 483.391,92.824 Z" />
            <path d="M489.764,125.175 C487.781,126.698 485.647,128.039 483.39,129.179 C481.445,130.161 480.718,132.436 481.765,134.261 C482.813,136.085 485.239,136.767 487.183,135.784 C489.891,134.416 492.453,132.808 494.832,130.98 C496.541,129.667 496.792,127.304 495.393,125.701 C493.993,124.098 491.473,123.862 489.764,125.175 Z" />
            <path d="M430.587,114.122 C429.984,113.063 429.435,111.977 428.943,110.868 C428.999,111.003 428.999,111.003 428.999,111.003 C429.436,110.02 429.982,108.933 430.583,107.873 C431.619,106.043 430.878,103.772 428.927,102.8 C426.976,101.828 424.555,102.523 423.518,104.353 C422.797,105.625 422.142,106.93 421.555,108.261 C420.833,110.075 420.833,111.931 421.501,113.618 C422.148,115.082 422.806,116.385 423.53,117.656 C424.571,119.484 426.994,120.174 428.942,119.198 C430.891,118.222 431.627,115.95 430.587,114.122 Z" />
            <path d="M499.41,107.882 C500.015,108.942 500.564,110.029 501.058,111.139 C501.001,111.003 501.001,111.003 501.001,111.003 C500.565,111.974 500.015,113.06 499.411,114.119 C498.369,115.946 499.103,118.219 501.05,119.197 C502.998,120.174 505.422,119.486 506.464,117.659 C507.189,116.388 507.849,115.085 508.441,113.755 C509.167,111.931 509.167,110.075 508.499,108.388 C507.85,106.921 507.19,105.616 506.465,104.344 C505.423,102.517 503,101.828 501.052,102.805 C499.104,103.781 498.369,106.054 499.41,107.882 Z" />
            <path d="M440.228,96.827 C442.211,95.304 444.345,93.963 446.602,92.823 C448.547,91.841 449.274,89.565 448.227,87.741 C447.179,85.917 444.753,85.235 442.809,86.217 C440.101,87.585 437.539,89.194 435.16,91.022 C433.451,92.335 433.2,94.698 434.599,96.301 C435.999,97.904 438.519,98.14 440.228,96.827 Z" />
            <path d="M446.602,129.179 C444.345,128.039 442.211,126.698 440.228,125.175 C438.519,123.862 435.999,124.098 434.599,125.701 C433.2,127.304 433.451,129.667 435.16,130.98 C437.539,132.808 440.101,134.416 442.809,135.784 C444.753,136.767 447.179,136.085 448.227,134.261 C449.274,132.436 448.547,130.161 446.602,129.179 Z" />
            <path d="M457,111.001 C457,106.857 460.582,103.498 465,103.498 C469.418,103.498 473,106.857 473,111.001 C473,115.145 469.418,118.504 465,118.504 C460.582,118.504 457,115.145 457,111.001 Z M449.001,111.001 C449.001,119.288 456.164,126.007 465,126.007 C473.836,126.007 480.999,119.288 480.999,111.001 C480.999,102.714 473.836,95.995 465,95.995 C456.164,95.995 449.001,102.714 449.001,111.001 Z" />
        </g>
        <g id="Black-M" transform="translate(0,200)">
            <path d="M668.832,133.324 C666.281,133.555 663.711,133.555 661.16,133.324 C658.961,133.126 657.007,134.636 656.795,136.699 C656.583,138.761 658.194,140.594 660.393,140.792 C663.454,141.069 666.538,141.069 669.599,140.792 C671.798,140.594 673.409,138.761 673.197,136.699 C672.985,134.636 671.031,133.126 668.832,133.324 Z" />
            <path d="M669.601,81.21 C666.54,80.932 663.456,80.93 660.395,81.205 C658.196,81.403 656.584,83.235 656.795,85.298 C657.006,87.36 658.959,88.872 661.158,88.674 C663.71,88.445 666.279,88.446 668.83,88.677 C671.029,88.877 672.984,87.367 673.197,85.305 C673.41,83.243 671.8,81.409 669.601,81.21 Z" />
            <path d="M683.391,92.824 C685.648,93.963 687.782,95.302 689.765,96.824 C691.475,98.136 693.995,97.9 695.394,96.296 C696.793,94.693 696.541,92.329 694.831,91.017 C692.451,89.191 689.89,87.583 687.182,86.217 C685.237,85.235 682.811,85.918 681.765,87.743 C680.718,89.567 681.446,91.842 683.391,92.824 Z" />
            <path d="M689.764,125.175 C687.781,126.698 685.647,128.039 683.39,129.179 C681.445,130.161 680.718,132.436 681.765,134.261 C682.813,136.085 685.239,136.767 687.183,135.784 C689.891,134.416 692.453,132.808 694.832,130.98 C696.542,129.667 696.792,127.304 695.393,125.701 C693.993,124.098 691.473,123.862 689.764,125.175 Z" />
            <path d="M630.587,114.122 C629.984,113.063 629.435,111.977 628.943,110.868 C629,111.003 629,111.003 629,111.003 C629.436,110.02 629.982,108.933 630.583,107.873 C631.619,106.043 630.878,103.772 628.927,102.8 C626.976,101.828 624.555,102.523 623.518,104.353 C622.797,105.625 622.142,106.93 621.555,108.261 C620.833,110.075 620.833,111.931 621.501,113.618 C622.148,115.082 622.807,116.385 623.53,117.656 C624.571,119.484 626.994,120.174 628.942,119.198 C630.891,118.222 631.627,115.95 630.587,114.122 Z" />
            <path d="M699.41,107.882 C700.015,108.942 700.564,110.029 701.058,111.139 C701,111.003 701,111.003 701,111.003 C700.565,111.974 700.015,113.06 699.411,114.119 C698.369,115.946 699.103,118.219 701.05,119.197 C702.998,120.174 705.422,119.486 706.464,117.659 C707.189,116.388 707.849,115.085 708.441,113.755 C709.167,111.931 709.167,110.075 708.499,108.388 C707.85,106.921 707.19,105.616 706.465,104.344 C705.423,102.517 703,101.828 701.052,102.805 C699.104,103.781 698.369,106.054 699.41,107.882 Z" />
            <path d="M640.228,96.827 C642.211,95.304 644.345,93.963 646.602,92.823 C648.547,91.841 649.274,89.565 648.227,87.741 C647.179,85.917 644.753,85.235 642.809,86.217 C640.101,87.585 637.539,89.194 635.16,91.022 C633.451,92.335 633.2,94.698 634.599,96.301 C635.999,97.904 638.519,98.14 640.228,96.827 Z" />
            <path d="M646.602,129.179 C644.345,128.039 642.211,126.698 640.228,125.175 C638.519,123.862 635.999,124.098 634.599,125.701 C633.2,127.304 633.451,129.667 635.16,130.98 C637.539,132.808 640.101,134.416 642.809,135.784 C644.753,136.767 647.179,136.085 648.227,134.261 C649.274,132.436 648.547,130.161 646.602,129.179 Z" />
            <path d="M657,111.001 C657,106.857 660.582,103.498 665,103.498 C669.418,103.498 673,106.857 673,111.001 C673,115.145 669.418,118.504 665,118.504 C660.582,118.504 657,115.145 657,111.001 Z M649.001,111.001 C649.001,119.288 656.164,126.007 665,126.007 C673.836,126.007 680.999,119.288 680.999,111.001 C680.999,102.714 673.836,95.995 665,95.995 C656.164,95.995 649.001,102.714 649.001,111.001 Z" />
        </g>
    </g>
</svg>