<?xml version="1.0" encoding="UTF-8"?>
<svg height="600" width="800" xmlns="http://www.w3.org/2000/svg" xmlns:xlink="http://www.w3.org/1999/xlink">
    <g id="Notes" font-family="LucidaGrande, 'Lucida Grande', sans-serif" font-size="13">
        <rect fill="white" height="600.0" width="800.0" x="0.0" y="0.0" />
        <g font-size="13">
            <text x="18.0" y="176.0">Small</text>
            <text x="18.0" y="376.0">Medium</text>
            <text x="18.0" y="576.0">Large</text>
        </g>
        <g font-size="9">
            <text x="250.0" y="30.0">Ultralight</text>
            <text x="450.0" y="30.0">Regular</text>
            <text x="650.0" y="30.0">Black</text>
            <text id="template-version" fill="#505050" text-anchor="end" x="785.0" y="575.0">Template v.3.0</text>
            <a href="https://github.com/swhitty/SwiftDraw">
                <text fill="#505050" text-anchor="end" x="785.0" y="590.0">https://github.com/swhitty/SwiftDraw</text>
            </a>
        </g>
    </g>
    <g id="Guides" stroke="rgb(39, 170, 225)" stroke-width="0.5">
        <path id="Capline-S" d="M18,76 l800,0" />
        <path id="H-reference" d="M85,145.755 L87.685,145.755 L113.369,79.287 L114.052,79.287 L114.052,76 L112.148,76 L85,145.755 Z M95.693,121.536 L130.996,121.536 L130.263,119.313 L96.474,119.313 L95.693,121.536 Z M139.15,145.755 L141.787,145.755 L114.638,76 L113.466,76 L113.466,79.287 L139.15,145.755 Z" stroke="none" transform="translate(0,200)" />
        <path id="Baseline-S" d="M18,146 l800,0" />
        <path id="left-margin-Ultralight-M" d="M230,256 l0,110" />
        <path id="right-margin-Ultralight-M" d="M300,256 l0,110" />
        <path id="left-margin-Regular-M" d="M430,256 l0,110" />
        <path id="right-margin-Regular-M" d="M500,256 l0,110" />
        <path id="left-margin-Black-M" d="M630,256 l0,110" />
        <path id="right-margin-Black-M" d="M700,256 l0,110" />
        <path id="Capline-M" d="M18,276 l800,0" />
        <path id="Baseline-M" d="M18,346 l800,0" />
        <path id="Capline-L" d="M18,476 l800,0" />
        <path id="Baseline-L" d="M18,546 l800,0" />
    </g>
    <g id="Symbols">
        <g id="Ultralight-M" transform="translate(0,200)">
            <path d="M261.818,126.909 L261.818,142.818 C261.818,144.575 263.243,146 265,146 C266.757,146 268.182,144.575 268.182,142.818 L268.182,126.909 C268.182,125.152 266.757,123.727 265,123.727 C263.243,123.727 261.818,125.152 261.818,126.909 Z" />
            <path d="M277.727,102.536 L277.727,95.091 C277.727,95.091 277.727,95.091 277.727,95.091 C277.727,95.091 277.727,95.091 277.727,95.091 C282.999,95.091 287.273,90.817 287.273,85.545 C287.273,80.274 282.999,76 277.727,76 L251.923,76 C250.165,76 248.741,77.425 248.741,79.182 C248.741,80.939 250.165,82.364 251.923,82.364 L277.727,82.364 C279.485,82.364 280.909,83.788 280.909,85.545 C280.909,87.303 279.485,88.727 277.727,88.727 C276.04,88.727 274.421,89.398 273.228,90.591 C272.034,91.785 271.364,93.403 271.364,95.091 L271.364,102.536 C271.364,104.294 272.788,105.718 274.545,105.718 C276.303,105.718 277.727,104.294 277.727,102.536 Z" />
            <path d="M230.932,81.432 L294.568,145.068 C295.811,146.311 297.826,146.311 299.068,145.068 C300.311,143.825 300.311,141.811 299.068,140.568 L235.432,76.932 C234.189,75.689 232.175,75.689 230.932,76.932 C229.689,78.175 229.689,80.189 230.932,81.432 Z" />
            <path d="M252.273,101.455 L252.273,107.055 C252.272,108.26 251.588,109.363 250.507,109.901 L244.824,112.774 C241.6,114.376 239.547,117.685 239.545,121.307 L239.545,123.727 C239.545,125.415 240.216,127.034 241.409,128.227 C242.603,129.42 244.221,130.091 245.909,130.091 L280.909,130.091 C282.666,130.091 284.091,128.666 284.091,126.909 C284.091,125.152 282.666,123.727 280.909,123.727 L245.909,123.727 C245.909,123.727 245.909,123.727 245.909,123.727 C245.909,123.727 245.909,123.727 245.909,123.727 L245.909,121.309 C245.91,120.103 246.594,119 247.675,118.463 L253.359,115.589 C256.583,113.987 258.635,110.678 258.636,107.056 L258.636,101.455 C258.636,99.697 257.212,98.273 255.455,98.273 C253.697,98.273 252.273,99.697 252.273,101.455 Z" />
        </g>
        <g id="Regular-M" transform="translate(0,200)">
            <path d="M461.818,126.909 L461.818,142.818 C461.818,144.575 463.243,146 465,146 C466.757,146 468.182,144.575 468.182,142.818 L468.182,126.909 C468.182,125.152 466.757,123.727 465,123.727 C463.243,123.727 461.818,125.152 461.818,126.909 Z" />
            <path d="M477.727,102.536 L477.727,95.091 C477.727,95.091 477.727,95.091 477.727,95.091 C477.727,95.091 477.727,95.091 477.727,95.091 C482.999,95.091 487.273,90.817 487.273,85.545 C487.273,80.274 482.999,76 477.727,76 L451.923,76 C450.165,76 448.741,77.425 448.741,79.182 C448.741,80.939 450.165,82.364 451.923,82.364 L477.727,82.364 C479.485,82.364 480.909,83.788 480.909,85.545 C480.909,87.303 479.485,88.727 477.727,88.727 C476.04,88.727 474.421,89.398 473.228,90.591 C472.034,91.785 471.364,93.403 471.364,95.091 L471.364,102.536 C471.364,104.294 472.788,105.718 474.545,105.718 C476.303,105.718 477.727,104.294 477.727,102.536 Z" />
            <path d="M430.932,81.432 L494.568,145.068 C495.811,146.311 497.826,146.311 499.068,145.068 C500.311,143.825 500.311,141.811 499.068,140.568 L435.432,76.932 C434.189,75.689 432.174,75.689 430.932,76.932 C429.689,78.175 429.689,80.189 430.932,81.432 Z" />
            <path d="M452.273,101.455 L452.273,107.055 C452.272,108.26 451.588,109.363 450.507,109.901 L444.824,112.774 C441.6,114.376 439.547,117.685 439.545,121.307 L439.545,123.727 C439.545,125.415 440.216,127.034 441.409,128.227 C442.603,129.42 444.221,130.091 445.909,130.091 L480.909,130.091 C482.666,130.091 484.091,128.666 484.091,126.909 C484.091,125.152 482.666,123.727 480.909,123.727 L445.909,123.727 C445.909,123.727 445.909,123.727 445.909,123.727 C445.909,123.727 445.909,123.727 445.909,123.727 L445.909,121.309 C445.91,120.103 446.594,119 447.675,118.463 L453.359,115.589 C456.583,113.987 458.635,110.678 458.636,107.056 L458.636,101.455 C458.636,99.697 457.212,98.273 455.455,98.273 C453.697,98.273 452.273,99.697 452.273,101.455 Z" />
        </g>
        <g id="Black-M" transform="translate(0,200)">
            <path d="M661.818,126.909 L661.818,142.818 C661.818,144.575 663.243,146 665,146 C666.757,146 668.182,144.575 668.182,142.818 L668.182,126.909 C668.182,125.152 666.757,123.727 665,123.727 C663.243,123.727 661.818,125.152 661.818,126.909 Z" />
            <path d="M677.727,102.536 L677.727,95.091 C677.727,95.091 677.727,95.091 677.727,95.091 C677.727,95.091 677.727,95.091 677.727,95.091 C682.999,95.091 687.273,90.817 687.273,85.545 C687.273,80.274 682.999,76 677.727,76 L651.923,76 C650.165,76 648.741,77.425 648.741,79.182 C648.741,80.939 650.165,82.364 651.923,82.364 L677.727,82.364 C679.485,82.364 680.909,83.788 680.909,85.545 C680.909,87.303 679.485,88.727 677.727,88.727 C676.04,88.727 674.421,89.398 673.227,90.591 C672.034,91.785 671.364,93.403 671.364,95.091 L671.364,102.536 C671.364,104.294 672.788,105.718 674.545,105.718 C676.303,105.718 677.727,104.294 677.727,102.536 Z" />
            <path d="M630.932,81.432 L694.568,145.068 C695.811,146.311 697.826,146.311 699.068,145.068 C700.311,143.825 700.311,141.811 699.068,140.568 L635.432,76.932 C634.189,75.689 632.174,75.689 630.932,76.932 C629.689,78.175 629.689,80.189 630.932,81.432 Z" />
            <path d="M652.273,101.455 L652.273,107.055 C652.272,108.26 651.588,109.363 650.507,109.901 L644.824,112.774 C641.6,114.376 639.547,117.685 639.545,121.307 L639.545,123.727 C639.545,125.415 640.216,127.034 641.409,128.227 C642.603,129.42 644.221,130.091 645.909,130.091 L680.909,130.091 C682.666,130.091 684.091,128.666 684.091,126.909 C684.091,125.152 682.666,123.727 680.909,123.727 L645.909,123.727 C645.909,123.727 645.909,123.727 645.909,123.727 C645.909,123.727 645.909,123.727 645.909,123.727 L645.909,121.309 C645.91,120.103 646.594,119 647.675,118.463 L653.359,115.589 C656.583,113.987 658.635,110.678 658.636,107.056 L658.636,101.455 C658.636,99.697 657.212,98.273 655.455,98.273 C653.697,98.273 652.273,99.697 652.273,101.455 Z" />
        </g>
    </g>
</svg>