<?xml version="1.0" encoding="UTF-8"?>
<svg height="600" width="800" xmlns="http://www.w3.org/2000/svg" xmlns:xlink="http://www.w3.org/1999/xlink">
    <g id="Notes" font-family="LucidaGrande, 'Lucida Grande', sans-serif" font-size="13">
        <rect fill="white" height="600.0" width="800.0" x="0.0" y="0.0" />
        <g font-size="13">
            <text x="18.0" y="176.0">Small</text>
            <text x="18.0" y="376.0">Medium</text>
            <text x="18.0" y="576.0">Large</text>
        </g>
        <g font-size="9">
            <text x="250.0" y="30.0">Ultralight</text>
            <text x="450.0" y="30.0">Regular</text>
            <text x="650.0" y="30.0">Black</text>
            <text id="template-version" fill="#505050" text-anchor="end" x="785.0" y="575.0">Template v.3.0</text>
            <a href="https://github.com/swhitty/SwiftDraw">
                <text fill="#505050" text-anchor="end" x="785.0" y="590.0">https://github.com/swhitty/SwiftDraw</text>
            </a>
        </g>
    </g>
    <g id="Guides" stroke="rgb(39, 170, 225)" stroke-width="0.5">
        <path id="Capline-S" d="M18,76 l800,0" />
        <path id="H-reference" d="M85,145.755 L87.685,145.755 L113.369,79.287 L114.052,79.287 L114.052,76 L112.148,76 L85,145.755 Z M95.693,121.536 L130.996,121.536 L130.263,119.313 L96.474,119.313 L95.693,121.536 Z M139.15,145.755 L141.787,145.755 L114.638,76 L113.466,76 L113.466,79.287 L139.15,145.755 Z" stroke="none" transform="translate(0,200)" />
        <path id="Baseline-S" d="M18,146 l800,0" />
        <path id="left-margin-Ultralight-M" d="M222.222,256 l0,110" />
        <path id="right-margin-Ultralight-M" d="M307.778,256 l0,110" />
        <path id="left-margin-Regular-M" d="M422.222,256 l0,110" />
        <path id="right-margin-Regular-M" d="M507.778,256 l0,110" />
        <path id="left-margin-Black-M" d="M622.222,256 l0,110" />
        <path id="right-margin-Black-M" d="M707.778,256 l0,110" />
        <path id="Capline-M" d="M18,276 l800,0" />
        <path id="Baseline-M" d="M18,346 l800,0" />
        <path id="Capline-L" d="M18,476 l800,0" />
        <path id="Baseline-L" d="M18,546 l800,0" />
    </g>
    <g id="Symbols">
        <g id="Ultralight-M" transform="translate(0,200)">
            <path d="M296.111,103.222 L296.111,118.778 C296.111,119.809 295.701,120.798 294.972,121.528 C294.243,122.257 293.254,122.667 292.222,122.667 L237.778,122.667 C236.746,122.667 235.757,122.257 235.028,121.528 C234.299,120.798 233.889,119.809 233.889,118.778 L233.889,87.667 C233.889,86.635 234.299,85.646 235.028,84.917 C235.757,84.188 236.746,83.778 237.778,83.778 L292.222,83.778 C293.254,83.778 294.243,84.188 294.972,84.917 C295.701,85.646 296.111,86.635 296.111,87.667 L296.111,103.222 Z M303.889,103.222 L303.889,87.667 C303.889,84.572 302.66,81.605 300.472,79.417 C298.284,77.229 295.316,76 292.222,76 L237.778,76 C234.684,76 231.716,77.229 229.528,79.417 C227.34,81.605 226.111,84.572 226.111,87.667 L226.111,118.778 C226.111,121.872 227.34,124.839 229.528,127.027 C231.716,129.215 234.684,130.444 237.778,130.444 L292.222,130.444 C295.316,130.444 298.284,129.215 300.472,127.027 C302.66,124.839 303.889,121.872 303.889,118.778 L303.889,103.222 Z" />
            <path d="M226.111,146 L303.889,146 C306.037,146 307.778,144.259 307.778,142.111 C307.778,139.963 306.037,138.222 303.889,138.222 L226.111,138.222 C223.963,138.222 222.222,139.963 222.222,142.111 C222.222,144.259 223.963,146 226.111,146 Z" />
        </g>
        <g id="Regular-M" transform="translate(0,200)">
            <path d="M496.111,103.222 L496.111,118.778 C496.111,119.809 495.701,120.798 494.972,121.528 C494.243,122.257 493.254,122.667 492.222,122.667 L437.778,122.667 C436.746,122.667 435.757,122.257 435.028,121.528 C434.299,120.798 433.889,119.809 433.889,118.778 L433.889,87.667 C433.889,86.635 434.299,85.646 435.028,84.917 C435.757,84.188 436.746,83.778 437.778,83.778 L492.222,83.778 C493.254,83.778 494.243,84.188 494.972,84.917 C495.701,85.646 496.111,86.635 496.111,87.667 L496.111,103.222 Z M503.889,103.222 L503.889,87.667 C503.889,84.572 502.66,81.605 500.472,79.417 C498.284,77.229 495.316,76 492.222,76 L437.778,76 C434.684,76 431.716,77.229 429.528,79.417 C427.34,81.605 426.111,84.572 426.111,87.667 L426.111,118.778 C426.111,121.872 427.34,124.839 429.528,127.027 C431.716,129.215 434.684,130.444 437.778,130.444 L492.222,130.444 C495.316,130.444 498.284,129.215 500.472,127.027 C502.66,124.839 503.889,121.872 503.889,118.778 L503.889,103.222 Z" />
            <path d="M426.111,146 L503.889,146 C506.037,146 507.778,144.259 507.778,142.111 C507.778,139.963 506.037,138.222 503.889,138.222 L426.111,138.222 C423.963,138.222 422.222,139.963 422.222,142.111 C422.222,144.259 423.963,146 426.111,146 Z" />
        </g>
        <g id="Black-M" transform="translate(0,200)">
            <path d="M696.111,103.222 L696.111,118.778 C696.111,119.809 695.701,120.798 694.972,121.528 C694.243,122.257 693.254,122.667 692.222,122.667 L637.778,122.667 C636.746,122.667 635.757,122.257 635.028,121.528 C634.299,120.798 633.889,119.809 633.889,118.778 L633.889,87.667 C633.889,86.635 634.299,85.646 635.028,84.917 C635.757,84.188 636.746,83.778 637.778,83.778 L692.222,83.778 C693.254,83.778 694.243,84.188 694.972,84.917 C695.701,85.646 696.111,86.635 696.111,87.667 L696.111,103.222 Z M703.889,103.222 L703.889,87.667 C703.889,84.572 702.66,81.605 700.472,79.417 C698.284,77.229 695.316,76 692.222,76 L637.778,76 C634.684,76 631.716,77.229 629.528,79.417 C627.34,81.605 626.111,84.572 626.111,87.667 L626.111,118.778 C626.111,121.872 627.34,124.839 629.528,127.027 C631.716,129.215 634.684,130.444 637.778,130.444 L692.222,130.444 C695.316,130.444 698.284,129.215 700.472,127.027 C702.66,124.839 703.889,121.872 703.889,118.778 L703.889,103.222 Z" />
            <path d="M626.111,146 L703.889,146 C706.037,146 707.778,144.259 707.778,142.111 C707.778,139.963 706.037,138.222 703.889,138.222 L626.111,138.222 C623.963,138.222 622.222,139.963 622.222,142.111 C622.222,144.259 623.963,146 626.111,146 Z" />
        </g>
    </g>
</svg>