<?xml version="1.0" encoding="UTF-8"?>
<svg height="600" width="800" xmlns="http://www.w3.org/2000/svg" xmlns:xlink="http://www.w3.org/1999/xlink">
    <g id="Notes" font-family="LucidaGrande, 'Lucida Grande', sans-serif" font-size="13">
        <rect fill="white" height="600.0" width="800.0" x="0.0" y="0.0" />
        <g font-size="13">
            <text x="18.0" y="176.0">Small</text>
            <text x="18.0" y="376.0">Medium</text>
            <text x="18.0" y="576.0">Large</text>
        </g>
        <g font-size="9">
            <text x="250.0" y="30.0">Ultralight</text>
            <text x="450.0" y="30.0">Regular</text>
            <text x="650.0" y="30.0">Black</text>
            <text id="template-version" fill="#505050" text-anchor="end" x="785.0" y="575.0">Template v.3.0</text>
            <a href="https://github.com/swhitty/SwiftDraw">
                <text fill="#505050" text-anchor="end" x="785.0" y="590.0">https://github.com/swhitty/SwiftDraw</text>
            </a>
        </g>
    </g>
    <g id="Guides" stroke="rgb(39, 170, 225)" stroke-width="0.5">
        <path id="Capline-S" d="M18,76 l800,0" />
        <path id="H-reference" d="M85,145.755 L87.685,145.755 L113.369,79.287 L114.052,79.287 L114.052,76 L112.148,76 L85,145.755 Z M95.693,121.536 L130.996,121.536 L130.263,119.313 L96.474,119.313 L95.693,121.536 Z M139.15,145.755 L141.787,145.755 L114.638,76 L113.466,76 L113.466,79.287 L139.15,145.755 Z" stroke="none" transform="translate(0,200)" />
        <path id="Baseline-S" d="M18,146 l800,0" />
        <path id="left-margin-Ultralight-M" d="M230,256 l0,110" />
        <path id="right-margin-Ultralight-M" d="M300,256 l0,110" />
        <path id="left-margin-Regular-M" d="M430,256 l0,110" />
        <path id="right-margin-Regular-M" d="M500,256 l0,110" />
        <path id="left-margin-Black-M" d="M630,256 l0,110" />
        <path id="right-margin-Black-M" d="M700,256 l0,110" />
        <path id="Capline-M" d="M18,276 l800,0" />
        <path id="Baseline-M" d="M18,346 l800,0" />
        <path id="Capline-L" d="M18,476 l800,0" />
        <path id="Baseline-L" d="M18,546 l800,0" />
    </g>
    <g id="Symbols">
        <g id="Ultralight-M" transform="translate(0,200)">
            <path d="M293,111 L293,135.5 C293,136.428 292.631,137.318 291.975,137.975 C291.318,138.631 290.428,139 289.5,139 L240.5,139 C239.572,139 238.682,138.631 238.025,137.975 C237.369,137.318 237,136.428 237,135.5 L237,86.5 C237,85.572 237.369,84.682 238.025,84.025 C238.682,83.369 239.572,83 240.5,83 L289.5,83 C290.428,83 291.318,83.369 291.975,84.025 C292.631,84.682 293,85.572 293,86.5 L293,111 Z M300,111 L300,86.5 C300,83.715 298.894,81.045 296.925,79.075 C294.956,77.106 292.285,76 289.5,76 L240.5,76 C237.715,76 235.045,77.106 233.075,79.075 C231.106,81.045 230,83.715 230,86.5 L230,135.5 C230,138.285 231.106,140.955 233.075,142.925 C235.045,144.894 237.715,146 240.5,146 L289.5,146 C292.285,146 294.955,144.894 296.925,142.925 C298.894,140.955 300,138.285 300,135.5 L300,111 Z" />
            <path d="M233.5,125 L275.5,125 C277.433,125 279,123.433 279,121.5 C279,119.567 277.433,118 275.5,118 L233.5,118 C231.567,118 230,119.567 230,121.5 C230,123.433 231.567,125 233.5,125 Z" />
            <path d="M272,79.5 L272,142.5 C272,144.433 273.567,146 275.5,146 C277.433,146 279,144.433 279,142.5 L279,79.5 C279,77.567 277.433,76 275.5,76 C273.567,76 272,77.567 272,79.5 Z" />
        </g>
        <g id="Regular-M" transform="translate(0,200)">
            <path d="M493,111 L493,135.5 C493,136.428 492.631,137.318 491.975,137.975 C491.318,138.631 490.428,139 489.5,139 L440.5,139 C439.572,139 438.682,138.631 438.025,137.975 C437.369,137.318 437,136.428 437,135.5 L437,86.5 C437,85.572 437.369,84.682 438.025,84.025 C438.682,83.369 439.572,83 440.5,83 L489.5,83 C490.428,83 491.318,83.369 491.975,84.025 C492.631,84.682 493,85.572 493,86.5 L493,111 Z M500,111 L500,86.5 C500,83.715 498.894,81.045 496.925,79.075 C494.956,77.106 492.285,76 489.5,76 L440.5,76 C437.715,76 435.045,77.106 433.075,79.075 C431.106,81.045 430,83.715 430,86.5 L430,135.5 C430,138.285 431.106,140.955 433.075,142.925 C435.045,144.894 437.715,146 440.5,146 L489.5,146 C492.285,146 494.955,144.894 496.925,142.925 C498.894,140.955 500,138.285 500,135.5 L500,111 Z" />
            <path d="M433.5,125 L475.5,125 C477.433,125 479,123.433 479,121.5 C479,119.567 477.433,118 475.5,118 L433.5,118 C431.567,118 430,119.567 430,121.5 C430,123.433 431.567,125 433.5,125 Z" />
            <path d="M472,79.5 L472,142.5 C472,144.433 473.567,146 475.5,146 C477.433,146 479,144.433 479,142.5 L479,79.5 C479,77.567 477.433,76 475.5,76 C473.567,76 472,77.567 472,79.5 Z" />
        </g>
        <g id="Black-M" transform="translate(0,200)">
            <path d="M693,111 L693,135.5 C693,136.428 692.631,137.318 691.975,137.975 C691.318,138.631 690.428,139 689.5,139 L640.5,139 C639.572,139 638.682,138.631 638.025,137.975 C637.369,137.318 637,136.428 637,135.5 L637,86.5 C637,85.572 637.369,84.682 638.025,84.025 C638.682,83.369 639.572,83 640.5,83 L689.5,83 C690.428,83 691.318,83.369 691.975,84.025 C692.631,84.682 693,85.572 693,86.5 L693,111 Z M700,111 L700,86.5 C700,83.715 698.894,81.045 696.925,79.075 C694.956,77.106 692.285,76 689.5,76 L640.5,76 C637.715,76 635.044,77.106 633.075,79.075 C631.106,81.045 630,83.715 630,86.5 L630,135.5 C630,138.285 631.106,140.955 633.075,142.925 C635.044,144.894 637.715,146 640.5,146 L689.5,146 C692.285,146 694.956,144.894 696.925,142.925 C698.894,140.955 700,138.285 700,135.5 L700,111 Z" />
            <path d="M633.5,125 L675.5,125 C677.433,125 679,123.433 679,121.5 C679,119.567 677.433,118 675.5,118 L633.5,118 C631.567,118 630,119.567 630,121.5 C630,123.433 631.567,125 633.5,125 Z" />
            <path d="M672,79.5 L672,142.5 C672,144.433 673.567,146 675.5,146 C677.433,146 679,144.433 679,142.5 L679,79.5 C679,77.567 677.433,76 675.5,76 C673.567,76 672,77.567 672,79.5 Z" />
        </g>
    </g>
</svg>