<?xml version="1.0" encoding="UTF-8"?>
<svg height="600" width="800" xmlns="http://www.w3.org/2000/svg" xmlns:xlink="http://www.w3.org/1999/xlink">
    <g id="Notes" font-family="LucidaGrande, 'Lucida Grande', sans-serif" font-size="13">
        <rect fill="white" height="600.0" width="800.0" x="0.0" y="0.0" />
        <g font-size="13">
            <text x="18.0" y="176.0">Small</text>
            <text x="18.0" y="376.0">Medium</text>
            <text x="18.0" y="576.0">Large</text>
        </g>
        <g font-size="9">
            <text x="250.0" y="30.0">Ultralight</text>
            <text x="450.0" y="30.0">Regular</text>
            <text x="650.0" y="30.0">Black</text>
            <text id="template-version" fill="#505050" text-anchor="end" x="785.0" y="575.0">Template v.3.0</text>
            <a href="https://github.com/swhitty/SwiftDraw">
                <text fill="#505050" text-anchor="end" x="785.0" y="590.0">https://github.com/swhitty/SwiftDraw</text>
            </a>
        </g>
    </g>
    <g id="Guides" stroke="rgb(39, 170, 225)" stroke-width="0.5">
        <path id="Capline-S" d="M18,76 l800,0" />
        <path id="H-reference" d="M85,145.755 L87.685,145.755 L113.369,79.287 L114.052,79.287 L114.052,76 L112.148,76 L85,145.755 Z M95.693,121.536 L130.996,121.536 L130.263,119.313 L96.474,119.313 L95.693,121.536 Z M139.15,145.755 L141.787,145.755 L114.638,76 L113.466,76 L113.466,79.287 L139.15,145.755 Z" stroke="none" transform="translate(0,200)" />
        <path id="Baseline-S" d="M18,146 l800,0" />
        <path id="left-margin-Ultralight-M" d="M231.667,256 l0,110" />
        <path id="right-margin-Ultralight-M" d="M298.333,256 l0,110" />
        <path id="left-margin-Regular-M" d="M431.667,256 l0,110" />
        <path id="right-margin-Regular-M" d="M498.333,256 l0,110" />
        <path id="left-margin-Black-M" d="M631.667,256 l0,110" />
        <path id="right-margin-Black-M" d="M698.333,256 l0,110" />
        <path id="Capline-M" d="M18,276 l800,0" />
        <path id="Baseline-M" d="M18,346 l800,0" />
        <path id="Capline-L" d="M18,476 l800,0" />
        <path id="Baseline-L" d="M18,546 l800,0" />
    </g>
    <g id="Symbols">
        <g id="Ultralight-M" transform="translate(0,200)">
            <path d="M261.667,96.001 L261.667,142.667 C261.667,144.508 263.159,146 265,146 C266.841,146 268.333,144.508 268.333,142.667 L268.333,96.001 C268.333,94.16 266.841,92.668 265,92.668 C263.159,92.668 261.667,94.16 261.667,96.001 Z" />
            <path d="M288.333,109.334 L288.333,136 C288.333,136.884 287.982,137.732 287.357,138.357 C286.732,138.982 285.884,139.333 285,139.333 L245,139.333 C244.116,139.333 243.268,138.982 242.643,138.357 C242.018,137.732 241.667,136.884 241.667,136 L241.667,109.334 C241.667,107.493 240.174,106.001 238.333,106.001 C236.492,106.001 235,107.493 235,109.334 L235,136 C235,138.652 236.054,141.196 237.929,143.071 C239.804,144.946 242.348,146 245,146 L285,146 C287.652,146 290.196,144.946 292.071,143.071 C293.946,141.196 295,138.652 295,136 L295,109.334 C295,107.493 293.508,106.001 291.667,106.001 C289.826,106.001 288.333,107.493 288.333,109.334 Z" />
            <path d="M250,92.668 C247.239,92.668 245,90.429 245,87.668 C245,84.907 247.239,82.668 250,82.668 C254.778,82.585 259.62,87.965 261.761,96.787 C262.585,100.183 267.415,100.183 268.239,96.787 C270.38,87.965 275.222,82.585 279.942,82.667 C282.761,82.668 285,84.907 285,87.668 C285,90.429 282.761,92.668 280,92.668 C278.159,92.668 276.667,94.16 276.667,96.001 C276.667,97.842 278.159,99.334 280,99.334 C286.443,99.334 291.667,94.111 291.667,87.668 C291.667,81.225 286.443,76.001 280,76.001 C271.617,75.855 264.555,83.701 261.761,95.215 L268.239,95.215 C265.445,83.701 258.383,75.855 249.942,76.002 C243.557,76.001 238.333,81.225 238.333,87.668 C238.333,94.111 243.557,99.334 250,99.334 C251.841,99.334 253.333,97.842 253.333,96.001 C253.333,94.16 251.841,92.668 250,92.668 Z" />
            <path d="M291.667,102.668 L291.667,106.001 C291.667,106.001 291.667,106.001 291.667,106.001 C291.667,106.001 291.667,106.001 291.667,106.001 L238.333,106.001 C238.333,106.001 238.333,106.001 238.333,106.001 C238.333,106.001 238.333,106.001 238.333,106.001 L238.333,99.334 C238.333,99.334 238.333,99.334 238.333,99.334 C238.333,99.334 238.333,99.334 238.333,99.334 L291.667,99.334 C291.667,99.334 291.667,99.334 291.667,99.334 C291.667,99.334 291.667,99.334 291.667,99.334 L291.667,102.668 Z M298.333,102.668 L298.333,99.334 C298.333,97.566 297.631,95.871 296.381,94.62 C295.13,93.37 293.435,92.668 291.667,92.668 L238.333,92.668 C236.565,92.668 234.87,93.37 233.619,94.62 C232.369,95.871 231.667,97.566 231.667,99.334 L231.667,106.001 C231.667,107.769 232.369,109.465 233.619,110.715 C234.87,111.965 236.565,112.667 238.333,112.667 L291.667,112.667 C293.435,112.667 295.13,111.965 296.381,110.715 C297.631,109.465 298.333,107.769 298.333,106.001 L298.333,102.668 Z" />
        </g>
        <g id="Regular-M" transform="translate(0,200)">
            <path d="M461.667,96.001 L461.667,142.667 C461.667,144.508 463.159,146 465,146 C466.841,146 468.333,144.508 468.333,142.667 L468.333,96.001 C468.333,94.16 466.841,92.668 465,92.668 C463.159,92.668 461.667,94.16 461.667,96.001 Z" />
            <path d="M488.333,109.334 L488.333,136 C488.333,136.884 487.982,137.732 487.357,138.357 C486.732,138.982 485.884,139.333 485,139.333 L445,139.333 C444.116,139.333 443.268,138.982 442.643,138.357 C442.018,137.732 441.667,136.884 441.667,136 L441.667,109.334 C441.667,107.493 440.174,106.001 438.333,106.001 C436.492,106.001 435,107.493 435,109.334 L435,136 C435,138.652 436.054,141.196 437.929,143.071 C439.804,144.946 442.348,146 445,146 L485,146 C487.652,146 490.196,144.946 492.071,143.071 C493.946,141.196 495,138.652 495,136 L495,109.334 C495,107.493 493.508,106.001 491.667,106.001 C489.826,106.001 488.333,107.493 488.333,109.334 Z" />
            <path d="M450,92.668 C447.239,92.668 445,90.429 445,87.668 C445,84.907 447.239,82.668 450,82.668 C454.778,82.585 459.62,87.965 461.761,96.787 C462.585,100.183 467.415,100.183 468.239,96.787 C470.38,87.965 475.222,82.585 479.942,82.667 C482.761,82.668 485,84.907 485,87.668 C485,90.429 482.761,92.668 480,92.668 C478.159,92.668 476.667,94.16 476.667,96.001 C476.667,97.842 478.159,99.334 480,99.334 C486.443,99.334 491.667,94.111 491.667,87.668 C491.667,81.225 486.443,76.001 480,76.001 C471.617,75.855 464.555,83.701 461.761,95.215 L468.239,95.215 C465.445,83.701 458.383,75.855 449.942,76.002 C443.557,76.001 438.333,81.225 438.333,87.668 C438.333,94.111 443.557,99.334 450,99.334 C451.841,99.334 453.333,97.842 453.333,96.001 C453.333,94.16 451.841,92.668 450,92.668 Z" />
            <path d="M491.667,102.668 L491.667,106.001 C491.667,106.001 491.667,106.001 491.667,106.001 C491.667,106.001 491.667,106.001 491.667,106.001 L438.333,106.001 C438.333,106.001 438.333,106.001 438.333,106.001 C438.333,106.001 438.333,106.001 438.333,106.001 L438.333,99.334 C438.333,99.334 438.333,99.334 438.333,99.334 C438.333,99.334 438.333,99.334 438.333,99.334 L491.667,99.334 C491.667,99.334 491.667,99.334 491.667,99.334 C491.667,99.334 491.667,99.334 491.667,99.334 L491.667,102.668 Z M498.333,102.668 L498.333,99.334 C498.333,97.566 497.631,95.871 496.381,94.62 C495.13,93.37 493.435,92.668 491.667,92.668 L438.333,92.668 C436.565,92.668 434.87,93.37 433.619,94.62 C432.369,95.871 431.667,97.566 431.667,99.334 L431.667,106.001 C431.667,107.769 432.369,109.465 433.619,110.715 C434.87,111.965 436.565,112.667 438.333,112.667 L491.667,112.667 C493.435,112.667 495.13,111.965 496.381,110.715 C497.631,109.465 498.333,107.769 498.333,106.001 L498.333,102.668 Z" />
        </g>
        <g id="Black-M" transform="translate(0,200)">
            <path d="M661.667,96.001 L661.667,142.667 C661.667,144.508 663.159,146 665,146 C666.841,146 668.333,144.508 668.333,142.667 L668.333,96.001 C668.333,94.16 666.841,92.668 665,92.668 C663.159,92.668 661.667,94.16 661.667,96.001 Z" />
            <path d="M688.333,109.334 L688.333,136 C688.333,136.884 687.982,137.732 687.357,138.357 C686.732,138.982 685.884,139.333 685,139.333 L645,139.333 C644.116,139.333 643.268,138.982 642.643,138.357 C642.018,137.732 641.667,136.884 641.667,136 L641.667,109.334 C641.667,107.493 640.174,106.001 638.333,106.001 C636.492,106.001 635,107.493 635,109.334 L635,136 C635,138.652 636.054,141.196 637.929,143.071 C639.804,144.946 642.348,146 645,146 L685,146 C687.652,146 690.196,144.946 692.071,143.071 C693.946,141.196 695,138.652 695,136 L695,109.334 C695,107.493 693.508,106.001 691.667,106.001 C689.826,106.001 688.333,107.493 688.333,109.334 Z" />
            <path d="M650,92.668 C647.239,92.668 645,90.429 645,87.668 C645,84.907 647.239,82.668 650,82.668 C654.778,82.585 659.62,87.965 661.761,96.787 C662.585,100.183 667.415,100.183 668.239,96.787 C670.38,87.965 675.222,82.585 679.942,82.667 C682.761,82.668 685,84.907 685,87.668 C685,90.429 682.761,92.668 680,92.668 C678.159,92.668 676.667,94.16 676.667,96.001 C676.667,97.842 678.159,99.334 680,99.334 C686.443,99.334 691.667,94.111 691.667,87.668 C691.667,81.225 686.443,76.001 680,76.001 C671.617,75.855 664.555,83.701 661.761,95.215 L668.239,95.215 C665.445,83.701 658.383,75.855 649.942,76.002 C643.557,76.001 638.333,81.225 638.333,87.668 C638.333,94.111 643.557,99.334 650,99.334 C651.841,99.334 653.333,97.842 653.333,96.001 C653.333,94.16 651.841,92.668 650,92.668 Z" />
            <path d="M691.667,102.668 L691.667,106.001 C691.667,106.001 691.667,106.001 691.667,106.001 C691.667,106.001 691.667,106.001 691.667,106.001 L638.333,106.001 C638.333,106.001 638.333,106.001 638.333,106.001 C638.333,106.001 638.333,106.001 638.333,106.001 L638.333,99.334 C638.333,99.334 638.333,99.334 638.333,99.334 C638.333,99.334 638.333,99.334 638.333,99.334 L691.667,99.334 C691.667,99.334 691.667,99.334 691.667,99.334 C691.667,99.334 691.667,99.334 691.667,99.334 L691.667,102.668 Z M698.333,102.668 L698.333,99.334 C698.333,97.566 697.631,95.871 696.381,94.62 C695.13,93.37 693.435,92.668 691.667,92.668 L638.333,92.668 C636.565,92.668 634.87,93.37 633.619,94.62 C632.369,95.871 631.667,97.566 631.667,99.334 L631.667,106.001 C631.667,107.769 632.369,109.465 633.619,110.715 C634.87,111.965 636.565,112.667 638.333,112.667 L691.667,112.667 C693.435,112.667 695.13,111.965 696.381,110.715 C697.631,109.465 698.333,107.769 698.333,106.001 L698.333,102.668 Z" />
        </g>
    </g>
</svg>