<?xml version="1.0" encoding="UTF-8"?>
<svg height="600" width="800" xmlns="http://www.w3.org/2000/svg" xmlns:xlink="http://www.w3.org/1999/xlink">
    <g id="Notes" font-family="LucidaGrande, 'Lucida Grande', sans-serif" font-size="13">
        <rect fill="white" height="600.0" width="800.0" x="0.0" y="0.0" />
        <g font-size="13">
            <text x="18.0" y="176.0">Small</text>
            <text x="18.0" y="376.0">Medium</text>
            <text x="18.0" y="576.0">Large</text>
        </g>
        <g font-size="9">
            <text x="250.0" y="30.0">Ultralight</text>
            <text x="450.0" y="30.0">Regular</text>
            <text x="650.0" y="30.0">Black</text>
            <text id="template-version" fill="#505050" text-anchor="end" x="785.0" y="575.0">Template v.3.0</text>
            <a href="https://github.com/swhitty/SwiftDraw">
                <text fill="#505050" text-anchor="end" x="785.0" y="590.0">https://github.com/swhitty/SwiftDraw</text>
            </a>
        </g>
    </g>
    <g id="Guides" stroke="rgb(39, 170, 225)" stroke-width="0.5">
        <path id="Capline-S" d="M18,76 l800,0" />
        <path id="H-reference" d="M85,145.755 L87.685,145.755 L113.369,79.287 L114.052,79.287 L114.052,76 L112.148,76 L85,145.755 Z M95.693,121.536 L130.996,121.536 L130.263,119.313 L96.474,119.313 L95.693,121.536 Z M139.15,145.755 L141.787,145.755 L114.638,76 L113.466,76 L113.466,79.287 L139.15,145.755 Z" stroke="none" transform="translate(0,200)" />
        <path id="Baseline-S" d="M18,146 l800,0" />
        <path id="left-margin-Ultralight-M" d="M228.25,256 l0,110" />
        <path id="right-margin-Ultralight-M" d="M301.75,256 l0,110" />
        <path id="left-margin-Regular-M" d="M428.25,256 l0,110" />
        <path id="right-margin-Regular-M" d="M501.75,256 l0,110" />
        <path id="left-margin-Black-M" d="M628.25,256 l0,110" />
        <path id="right-margin-Black-M" d="M701.75,256 l0,110" />
        <path id="Capline-M" d="M18,276 l800,0" />
        <path id="Baseline-M" d="M18,346 l800,0" />
        <path id="Capline-L" d="M18,476 l800,0" />
        <path id="Baseline-L" d="M18,546 l800,0" />
    </g>
    <g id="Symbols">
        <g id="Ultralight-M" transform="translate(0,200)">
            <path d="M259.75,79.5 L259.75,139 C259.75,139 259.75,139 259.75,139 C259.75,139 259.75,139 259.75,139 L238.75,139 C237.822,139 236.932,138.631 236.275,137.975 C235.619,137.318 235.25,136.428 235.25,135.5 L235.25,86.5 C235.25,85.572 235.619,84.682 236.275,84.025 C236.932,83.369 237.822,83 238.75,83 L287.75,83 C288.678,83 289.568,83.369 290.225,84.025 C290.881,84.682 291.25,85.572 291.25,86.5 L291.25,107.5 C291.25,107.5 291.25,107.5 291.25,107.5 C291.25,107.5 291.25,107.5 291.25,107.5 L231.75,107.5 C229.817,107.5 228.25,109.067 228.25,111 C228.25,112.933 229.817,114.5 231.75,114.5 L291.25,114.5 C293.107,114.5 294.887,113.763 296.2,112.45 C297.513,111.137 298.25,109.357 298.25,107.5 L298.25,86.5 C298.25,83.715 297.144,81.045 295.175,79.075 C293.206,77.106 290.535,76 287.75,76 L238.75,76 C235.965,76 233.295,77.106 231.325,79.075 C229.356,81.045 228.25,83.715 228.25,86.5 L228.25,135.5 C228.25,138.285 229.356,140.955 231.325,142.925 C233.295,144.894 235.965,146 238.75,146 L259.75,146 C261.607,146 263.387,145.263 264.7,143.95 C266.013,142.637 266.75,140.857 266.75,139 L266.75,79.5 C266.75,77.567 265.183,76 263.25,76 C261.317,76 259.75,77.567 259.75,79.5 Z" />
            <path d="M274.775,137.975 L281.775,144.975 C283.142,146.342 285.358,146.342 286.725,144.975 L300.725,130.975 C302.092,129.608 302.092,127.392 300.725,126.025 C299.358,124.658 297.142,124.658 295.775,126.025 L281.775,140.025 L286.725,140.025 L279.725,133.025 C278.358,131.658 276.142,131.658 274.775,133.025 C273.408,134.392 273.408,136.608 274.775,137.975 Z" />
        </g>
        <g id="Regular-M" transform="translate(0,200)">
            <path d="M459.75,79.5 L459.75,139 C459.75,139 459.75,139 459.75,139 C459.75,139 459.75,139 459.75,139 L438.75,139 C437.822,139 436.932,138.631 436.275,137.975 C435.619,137.318 435.25,136.428 435.25,135.5 L435.25,86.5 C435.25,85.572 435.619,84.682 436.275,84.025 C436.932,83.369 437.822,83 438.75,83 L487.75,83 C488.678,83 489.568,83.369 490.225,84.025 C490.881,84.682 491.25,85.572 491.25,86.5 L491.25,107.5 C491.25,107.5 491.25,107.5 491.25,107.5 C491.25,107.5 491.25,107.5 491.25,107.5 L431.75,107.5 C429.817,107.5 428.25,109.067 428.25,111 C428.25,112.933 429.817,114.5 431.75,114.5 L491.25,114.5 C493.107,114.5 494.887,113.763 496.2,112.45 C497.513,111.137 498.25,109.357 498.25,107.5 L498.25,86.5 C498.25,83.715 497.144,81.045 495.175,79.075 C493.206,77.106 490.535,76 487.75,76 L438.75,76 C435.965,76 433.295,77.106 431.325,79.075 C429.356,81.045 428.25,83.715 428.25,86.5 L428.25,135.5 C428.25,138.285 429.356,140.955 431.325,142.925 C433.295,144.894 435.965,146 438.75,146 L459.75,146 C461.607,146 463.387,145.263 464.7,143.95 C466.013,142.637 466.75,140.857 466.75,139 L466.75,79.5 C466.75,77.567 465.183,76 463.25,76 C461.317,76 459.75,77.567 459.75,79.5 Z" />
            <path d="M474.775,137.975 L481.775,144.975 C483.142,146.342 485.358,146.342 486.725,144.975 L500.725,130.975 C502.092,129.608 502.092,127.392 500.725,126.025 C499.358,124.658 497.142,124.658 495.775,126.025 L481.775,140.025 L486.725,140.025 L479.725,133.025 C478.358,131.658 476.142,131.658 474.775,133.025 C473.408,134.392 473.408,136.608 474.775,137.975 Z" />
        </g>
        <g id="Black-M" transform="translate(0,200)">
            <path d="M659.75,79.5 L659.75,139 C659.75,139 659.75,139 659.75,139 C659.75,139 659.75,139 659.75,139 L638.75,139 C637.822,139 636.932,138.631 636.275,137.975 C635.619,137.318 635.25,136.428 635.25,135.5 L635.25,86.5 C635.25,85.572 635.619,84.682 636.275,84.025 C636.932,83.369 637.822,83 638.75,83 L687.75,83 C688.678,83 689.568,83.369 690.225,84.025 C690.881,84.682 691.25,85.572 691.25,86.5 L691.25,107.5 C691.25,107.5 691.25,107.5 691.25,107.5 C691.25,107.5 691.25,107.5 691.25,107.5 L631.75,107.5 C629.817,107.5 628.25,109.067 628.25,111 C628.25,112.933 629.817,114.5 631.75,114.5 L691.25,114.5 C693.107,114.5 694.887,113.763 696.2,112.45 C697.513,111.137 698.25,109.357 698.25,107.5 L698.25,86.5 C698.25,83.715 697.144,81.045 695.175,79.075 C693.206,77.106 690.535,76 687.75,76 L638.75,76 C635.965,76 633.294,77.106 631.325,79.075 C629.356,81.045 628.25,83.715 628.25,86.5 L628.25,135.5 C628.25,138.285 629.356,140.955 631.325,142.925 C633.294,144.894 635.965,146 638.75,146 L659.75,146 C661.607,146 663.387,145.263 664.7,143.95 C666.013,142.637 666.75,140.857 666.75,139 L666.75,79.5 C666.75,77.567 665.183,76 663.25,76 C661.317,76 659.75,77.567 659.75,79.5 Z" />
            <path d="M674.775,137.975 L681.775,144.975 C683.142,146.342 685.358,146.342 686.725,144.975 L700.725,130.975 C702.092,129.608 702.092,127.392 700.725,126.025 C699.358,124.658 697.142,124.658 695.775,126.025 L681.775,140.025 L686.725,140.025 L679.725,133.025 C678.358,131.658 676.142,131.658 674.775,133.025 C673.408,134.392 673.408,136.608 674.775,137.975 Z" />
        </g>
    </g>
</svg>