<?xml version="1.0" encoding="UTF-8"?>
<svg height="600" width="800" xmlns="http://www.w3.org/2000/svg" xmlns:xlink="http://www.w3.org/1999/xlink">
    <g id="Notes" font-family="LucidaGrande, 'Lucida Grande', sans-serif" font-size="13">
        <rect fill="white" height="600.0" width="800.0" x="0.0" y="0.0" />
        <g font-size="13">
            <text x="18.0" y="176.0">Small</text>
            <text x="18.0" y="376.0">Medium</text>
            <text x="18.0" y="576.0">Large</text>
        </g>
        <g font-size="9">
            <text x="250.0" y="30.0">Ultralight</text>
            <text x="450.0" y="30.0">Regular</text>
            <text x="650.0" y="30.0">Black</text>
            <text id="template-version" fill="#505050" text-anchor="end" x="785.0" y="575.0">Template v.3.0</text>
            <a href="https://github.com/swhitty/SwiftDraw">
                <text fill="#505050" text-anchor="end" x="785.0" y="590.0">https://github.com/swhitty/SwiftDraw</text>
            </a>
        </g>
    </g>
    <g id="Guides" stroke="rgb(39, 170, 225)" stroke-width="0.5">
        <path id="Capline-S" d="M18,76 l800,0" />
        <path id="H-reference" d="M85,145.755 L87.685,145.755 L113.369,79.287 L114.052,79.287 L114.052,76 L112.148,76 L85,145.755 Z M95.693,121.536 L130.996,121.536 L130.263,119.313 L96.474,119.313 L95.693,121.536 Z M139.15,145.755 L141.787,145.755 L114.638,76 L113.466,76 L113.466,79.287 L139.15,145.755 Z" stroke="none" transform="translate(0,200)" />
        <path id="Baseline-S" d="M18,146 l800,0" />
        <path id="left-margin-Ultralight-M" d="M221,256 l0,110" />
        <path id="right-margin-Ultralight-M" d="M309,256 l0,110" />
        <path id="left-margin-Regular-M" d="M421,256 l0,110" />
        <path id="right-margin-Regular-M" d="M509,256 l0,110" />
        <path id="left-margin-Black-M" d="M621,256 l0,110" />
        <path id="right-margin-Black-M" d="M709,256 l0,110" />
        <path id="Capline-M" d="M18,276 l800,0" />
        <path id="Baseline-M" d="M18,346 l800,0" />
        <path id="Capline-L" d="M18,476 l800,0" />
        <path id="Baseline-L" d="M18,546 l800,0" />
    </g>
    <g id="Symbols">
        <g id="Ultralight-M" transform="translate(0,200)">
            <path d="M228.692,130.744 L244.848,95.206 C244.537,95.89 243.809,96.335 243.002,96.335 C242.195,96.335 241.467,95.89 241.156,95.207 L257.308,130.743 C258.158,132.613 260.499,133.497 262.539,132.718 C264.578,131.939 265.542,129.792 264.692,127.922 L248.54,92.385 C247.608,90.335 245.424,89 243.002,89 C240.58,89 238.396,90.335 237.464,92.384 L221.308,127.922 C220.458,129.791 221.422,131.938 223.461,132.718 C225.5,133.497 227.842,132.613 228.692,130.744 Z" />
            <path d="M301,103.661 L301,129.333 C301,131.358 302.791,133 305,133 C307.209,133 309,131.358 309,129.333 L309,103.661 C309,101.635 307.209,99.993 305,99.993 C302.791,99.993 301,101.635 301,103.661 Z" />
            <path d="M230.216,121.998 L255.784,121.998 C257.993,121.998 259.784,120.356 259.784,118.33 C259.784,116.305 257.993,114.663 255.784,114.663 L230.216,114.663 C228.007,114.663 226.216,116.305 226.216,118.33 C226.216,120.356 228.007,121.998 230.216,121.998 Z" />
            <path d="M281,116.497 C281,111.433 285.477,107.328 291,107.328 C296.523,107.328 301,111.433 301,116.497 C301,121.56 296.523,125.665 291,125.665 C285.477,125.665 281,121.56 281,116.497 Z M273,116.497 C273,125.611 281.059,133 291,133 C300.941,133 309,125.611 309,116.497 C309,107.382 300.941,99.993 291,99.993 C281.059,99.993 273,107.382 273,116.497 Z" />
        </g>
        <g id="Regular-M" transform="translate(0,200)">
            <path d="M428.692,130.744 L444.848,95.206 C444.537,95.89 443.809,96.335 443.002,96.335 C442.195,96.335 441.467,95.89 441.156,95.207 L457.308,130.743 C458.158,132.613 460.499,133.497 462.539,132.718 C464.578,131.939 465.542,129.792 464.692,127.922 L448.54,92.385 C447.608,90.335 445.424,89 443.002,89 C440.58,89 438.396,90.335 437.464,92.384 L421.308,127.922 C420.458,129.791 421.422,131.938 423.461,132.718 C425.5,133.497 427.842,132.613 428.692,130.744 Z" />
            <path d="M501,103.661 L501,129.333 C501,131.358 502.791,133 505,133 C507.209,133 509,131.358 509,129.333 L509,103.661 C509,101.635 507.209,99.993 505,99.993 C502.791,99.993 501,101.635 501,103.661 Z" />
            <path d="M430.216,121.998 L455.784,121.998 C457.993,121.998 459.784,120.356 459.784,118.33 C459.784,116.305 457.993,114.663 455.784,114.663 L430.216,114.663 C428.007,114.663 426.216,116.305 426.216,118.33 C426.216,120.356 428.007,121.998 430.216,121.998 Z" />
            <path d="M481,116.497 C481,111.433 485.477,107.328 491,107.328 C496.523,107.328 501,111.433 501,116.497 C501,121.56 496.523,125.665 491,125.665 C485.477,125.665 481,121.56 481,116.497 Z M473,116.497 C473,125.611 481.059,133 491,133 C500.941,133 509,125.611 509,116.497 C509,107.382 500.941,99.993 491,99.993 C481.059,99.993 473,107.382 473,116.497 Z" />
        </g>
        <g id="Black-M" transform="translate(0,200)">
            <path d="M628.692,130.744 L644.848,95.206 C644.537,95.89 643.809,96.335 643.002,96.335 C642.195,96.335 641.467,95.89 641.156,95.207 L657.308,130.743 C658.158,132.613 660.499,133.497 662.539,132.718 C664.578,131.939 665.542,129.792 664.692,127.922 L648.54,92.385 C647.608,90.335 645.424,89 643.002,89 C640.58,89 638.396,90.335 637.464,92.384 L621.308,127.922 C620.458,129.791 621.422,131.938 623.461,132.718 C625.5,133.497 627.842,132.613 628.692,130.744 Z" />
            <path d="M701,103.661 L701,129.333 C701,131.358 702.791,133 705,133 C707.209,133 709,131.358 709,129.333 L709,103.661 C709,101.635 707.209,99.993 705,99.993 C702.791,99.993 701,101.635 701,103.661 Z" />
            <path d="M630.216,121.998 L655.784,121.998 C657.993,121.998 659.784,120.356 659.784,118.33 C659.784,116.305 657.993,114.663 655.784,114.663 L630.216,114.663 C628.007,114.663 626.216,116.305 626.216,118.33 C626.216,120.356 628.007,121.998 630.216,121.998 Z" />
            <path d="M681,116.497 C681,111.433 685.477,107.328 691,107.328 C696.523,107.328 701,111.433 701,116.497 C701,121.56 696.523,125.665 691,125.665 C685.477,125.665 681,121.56 681,116.497 Z M673,116.497 C673,125.611 681.059,133 691,133 C700.941,133 709,125.611 709,116.497 C709,107.382 700.941,99.993 691,99.993 C681.059,99.993 673,107.382 673,116.497 Z" />
        </g>
    </g>
</svg>