<?xml version="1.0" encoding="UTF-8"?>
<svg height="600" width="800" xmlns="http://www.w3.org/2000/svg" xmlns:xlink="http://www.w3.org/1999/xlink">
    <g id="Notes" font-family="LucidaGrande, 'Lucida Grande', sans-serif" font-size="13">
        <rect fill="white" height="600.0" width="800.0" x="0.0" y="0.0" />
        <g font-size="13">
            <text x="18.0" y="176.0">Small</text>
            <text x="18.0" y="376.0">Medium</text>
            <text x="18.0" y="576.0">Large</text>
        </g>
        <g font-size="9">
            <text x="250.0" y="30.0">Ultralight</text>
            <text x="450.0" y="30.0">Regular</text>
            <text x="650.0" y="30.0">Black</text>
            <text id="template-version" fill="#505050" text-anchor="end" x="785.0" y="575.0">Template v.3.0</text>
            <a href="https://github.com/swhitty/SwiftDraw">
                <text fill="#505050" text-anchor="end" x="785.0" y="590.0">https://github.com/swhitty/SwiftDraw</text>
            </a>
        </g>
    </g>
    <g id="Guides" stroke="rgb(39, 170, 225)" stroke-width="0.5">
        <path id="Capline-S" d="M18,76 l800,0" />
        <path id="H-reference" d="M85,145.755 L87.685,145.755 L113.369,79.287 L114.052,79.287 L114.052,76 L112.148,76 L85,145.755 Z M95.693,121.536 L130.996,121.536 L130.263,119.313 L96.474,119.313 L95.693,121.536 Z M139.15,145.755 L141.787,145.755 L114.638,76 L113.466,76 L113.466,79.287 L139.15,145.755 Z" stroke="none" transform="translate(0,200)" />
        <path id="Baseline-S" d="M18,146 l800,0" />
        <path id="left-margin-Ultralight-M" d="M233.182,256 l0,110" />
        <path id="right-margin-Ultralight-M" d="M296.818,256 l0,110" />
        <path id="left-margin-Regular-M" d="M433.182,256 l0,110" />
        <path id="right-margin-Regular-M" d="M496.818,256 l0,110" />
        <path id="left-margin-Black-M" d="M633.182,256 l0,110" />
        <path id="right-margin-Black-M" d="M696.818,256 l0,110" />
        <path id="Capline-M" d="M18,276 l800,0" />
        <path id="Baseline-M" d="M18,346 l800,0" />
        <path id="Capline-L" d="M18,476 l800,0" />
        <path id="Baseline-L" d="M18,546 l800,0" />
    </g>
    <g id="Symbols">
        <g id="Ultralight-M" transform="translate(0,200)">
            <path d="M236.364,95.091 L249.091,95.091 C250.848,95.091 252.273,93.666 252.273,91.909 C252.273,90.152 250.848,88.727 249.091,88.727 L236.364,88.727 C234.606,88.727 233.182,90.152 233.182,91.909 C233.182,93.666 234.606,95.091 236.364,95.091 Z" />
            <path d="M236.364,107.818 L249.091,107.818 C250.848,107.818 252.273,106.394 252.273,104.636 C252.273,102.879 250.848,101.455 249.091,101.455 L236.364,101.455 C234.606,101.455 233.182,102.879 233.182,104.636 C233.182,106.394 234.606,107.818 236.364,107.818 Z" />
            <path d="M236.364,120.545 L249.091,120.545 C250.848,120.545 252.273,119.121 252.273,117.364 C252.273,115.606 250.848,114.182 249.091,114.182 L236.364,114.182 C234.606,114.182 233.182,115.606 233.182,117.364 C233.182,119.121 234.606,120.545 236.364,120.545 Z" />
            <path d="M236.364,133.273 L249.091,133.273 C250.848,133.273 252.273,131.848 252.273,130.091 C252.273,128.334 250.848,126.909 249.091,126.909 L236.364,126.909 C234.606,126.909 233.182,128.334 233.182,130.091 C233.182,131.848 234.606,133.273 236.364,133.273 Z" />
            <path d="M290.455,111 L290.455,136.455 C290.455,137.298 290.119,138.108 289.523,138.704 C288.926,139.301 288.117,139.636 287.273,139.636 L249.091,139.636 C248.247,139.636 247.438,139.301 246.841,138.704 C246.244,138.108 245.909,137.298 245.909,136.455 L245.909,85.545 C245.909,84.702 246.244,83.892 246.841,83.296 C247.438,82.699 248.247,82.364 249.091,82.364 L287.273,82.364 C288.117,82.364 288.926,82.699 289.523,83.296 C290.119,83.892 290.455,84.702 290.455,85.545 L290.455,111 Z M296.818,111 L296.818,85.545 C296.818,83.014 295.812,80.586 294.022,78.796 C292.232,77.006 289.804,76 287.273,76 L249.091,76 C246.559,76 244.131,77.006 242.341,78.796 C240.551,80.586 239.545,83.014 239.545,85.545 L239.545,136.455 C239.545,138.986 240.551,141.414 242.341,143.204 C244.131,144.994 246.559,146 249.091,146 L287.273,146 C289.804,146 292.232,144.994 294.022,143.204 C295.812,141.414 296.818,138.986 296.818,136.455 L296.818,111 Z" />
            <path d="M274.545,79.182 L274.545,142.818 C274.545,144.575 275.97,146 277.727,146 C279.485,146 280.909,144.575 280.909,142.818 L280.909,79.182 C280.909,77.425 279.485,76 277.727,76 C275.97,76 274.545,77.425 274.545,79.182 Z" />
            <path d="M277.727,98.273 L293.636,98.273 C295.394,98.273 296.818,96.848 296.818,95.091 C296.818,93.334 295.394,91.909 293.636,91.909 L277.727,91.909 C275.97,91.909 274.545,93.334 274.545,95.091 C274.545,96.848 275.97,98.273 277.727,98.273 Z" />
            <path d="M277.727,114.182 L293.636,114.182 C295.394,114.182 296.818,112.757 296.818,111 C296.818,109.243 295.394,107.818 293.636,107.818 L277.727,107.818 C275.97,107.818 274.545,109.243 274.545,111 C274.545,112.757 275.97,114.182 277.727,114.182 Z" />
            <path d="M277.727,130.091 L293.636,130.091 C295.394,130.091 296.818,128.666 296.818,126.909 C296.818,125.152 295.394,123.727 293.636,123.727 L277.727,123.727 C275.97,123.727 274.545,125.152 274.545,126.909 C274.545,128.666 275.97,130.091 277.727,130.091 Z" />
        </g>
        <g id="Regular-M" transform="translate(0,200)">
            <path d="M436.364,95.091 L449.091,95.091 C450.848,95.091 452.273,93.666 452.273,91.909 C452.273,90.152 450.848,88.727 449.091,88.727 L436.364,88.727 C434.606,88.727 433.182,90.152 433.182,91.909 C433.182,93.666 434.606,95.091 436.364,95.091 Z" />
            <path d="M436.364,107.818 L449.091,107.818 C450.848,107.818 452.273,106.394 452.273,104.636 C452.273,102.879 450.848,101.455 449.091,101.455 L436.364,101.455 C434.606,101.455 433.182,102.879 433.182,104.636 C433.182,106.394 434.606,107.818 436.364,107.818 Z" />
            <path d="M436.364,120.545 L449.091,120.545 C450.848,120.545 452.273,119.121 452.273,117.364 C452.273,115.606 450.848,114.182 449.091,114.182 L436.364,114.182 C434.606,114.182 433.182,115.606 433.182,117.364 C433.182,119.121 434.606,120.545 436.364,120.545 Z" />
            <path d="M436.364,133.273 L449.091,133.273 C450.848,133.273 452.273,131.848 452.273,130.091 C452.273,128.334 450.848,126.909 449.091,126.909 L436.364,126.909 C434.606,126.909 433.182,128.334 433.182,130.091 C433.182,131.848 434.606,133.273 436.364,133.273 Z" />
            <path d="M490.455,111 L490.455,136.455 C490.455,137.298 490.119,138.108 489.523,138.704 C488.926,139.301 488.117,139.636 487.273,139.636 L449.091,139.636 C448.247,139.636 447.438,139.301 446.841,138.704 C446.244,138.108 445.909,137.298 445.909,136.455 L445.909,85.545 C445.909,84.702 446.244,83.892 446.841,83.296 C447.438,82.699 448.247,82.364 449.091,82.364 L487.273,82.364 C488.117,82.364 488.926,82.699 489.523,83.296 C490.119,83.892 490.455,84.702 490.455,85.545 L490.455,111 Z M496.818,111 L496.818,85.545 C496.818,83.014 495.812,80.586 494.022,78.796 C492.232,77.006 489.804,76 487.273,76 L449.091,76 C446.559,76 444.131,77.006 442.341,78.796 C440.551,80.586 439.545,83.014 439.545,85.545 L439.545,136.455 C439.545,138.986 440.551,141.414 442.341,143.204 C444.131,144.994 446.559,146 449.091,146 L487.273,146 C489.804,146 492.232,144.994 494.022,143.204 C495.812,141.414 496.818,138.986 496.818,136.455 L496.818,111 Z" />
            <path d="M474.545,79.182 L474.545,142.818 C474.545,144.575 475.97,146 477.727,146 C479.485,146 480.909,144.575 480.909,142.818 L480.909,79.182 C480.909,77.425 479.485,76 477.727,76 C475.97,76 474.545,77.425 474.545,79.182 Z" />
            <path d="M477.727,98.273 L493.636,98.273 C495.394,98.273 496.818,96.848 496.818,95.091 C496.818,93.334 495.394,91.909 493.636,91.909 L477.727,91.909 C475.97,91.909 474.545,93.334 474.545,95.091 C474.545,96.848 475.97,98.273 477.727,98.273 Z" />
            <path d="M477.727,114.182 L493.636,114.182 C495.394,114.182 496.818,112.757 496.818,111 C496.818,109.243 495.394,107.818 493.636,107.818 L477.727,107.818 C475.97,107.818 474.545,109.243 474.545,111 C474.545,112.757 475.97,114.182 477.727,114.182 Z" />
            <path d="M477.727,130.091 L493.636,130.091 C495.394,130.091 496.818,128.666 496.818,126.909 C496.818,125.152 495.394,123.727 493.636,123.727 L477.727,123.727 C475.97,123.727 474.545,125.152 474.545,126.909 C474.545,128.666 475.97,130.091 477.727,130.091 Z" />
        </g>
        <g id="Black-M" transform="translate(0,200)">
            <path d="M636.364,95.091 L649.091,95.091 C650.848,95.091 652.273,93.666 652.273,91.909 C652.273,90.152 650.848,88.727 649.091,88.727 L636.364,88.727 C634.606,88.727 633.182,90.152 633.182,91.909 C633.182,93.666 634.606,95.091 636.364,95.091 Z" />
            <path d="M636.364,107.818 L649.091,107.818 C650.848,107.818 652.273,106.394 652.273,104.636 C652.273,102.879 650.848,101.455 649.091,101.455 L636.364,101.455 C634.606,101.455 633.182,102.879 633.182,104.636 C633.182,106.394 634.606,107.818 636.364,107.818 Z" />
            <path d="M636.364,120.545 L649.091,120.545 C650.848,120.545 652.273,119.121 652.273,117.364 C652.273,115.606 650.848,114.182 649.091,114.182 L636.364,114.182 C634.606,114.182 633.182,115.606 633.182,117.364 C633.182,119.121 634.606,120.545 636.364,120.545 Z" />
            <path d="M636.364,133.273 L649.091,133.273 C650.848,133.273 652.273,131.848 652.273,130.091 C652.273,128.334 650.848,126.909 649.091,126.909 L636.364,126.909 C634.606,126.909 633.182,128.334 633.182,130.091 C633.182,131.848 634.606,133.273 636.364,133.273 Z" />
            <path d="M690.455,111 L690.455,136.455 C690.455,137.298 690.119,138.108 689.523,138.704 C688.926,139.301 688.117,139.636 687.273,139.636 L649.091,139.636 C648.247,139.636 647.438,139.301 646.841,138.704 C646.244,138.108 645.909,137.298 645.909,136.455 L645.909,85.545 C645.909,84.702 646.244,83.892 646.841,83.296 C647.438,82.699 648.247,82.364 649.091,82.364 L687.273,82.364 C688.117,82.364 688.926,82.699 689.523,83.296 C690.119,83.892 690.455,84.702 690.455,85.545 L690.455,111 Z M696.818,111 L696.818,85.545 C696.818,83.014 695.812,80.586 694.022,78.796 C692.232,77.006 689.804,76 687.273,76 L649.091,76 C646.559,76 644.131,77.006 642.341,78.796 C640.551,80.586 639.545,83.014 639.545,85.545 L639.545,136.455 C639.545,138.986 640.551,141.414 642.341,143.204 C644.131,144.994 646.559,146 649.091,146 L687.273,146 C689.804,146 692.232,144.994 694.022,143.204 C695.812,141.414 696.818,138.986 696.818,136.455 L696.818,111 Z" />
            <path d="M674.545,79.182 L674.545,142.818 C674.545,144.575 675.97,146 677.727,146 C679.485,146 680.909,144.575 680.909,142.818 L680.909,79.182 C680.909,77.425 679.485,76 677.727,76 C675.97,76 674.545,77.425 674.545,79.182 Z" />
            <path d="M677.727,98.273 L693.636,98.273 C695.394,98.273 696.818,96.848 696.818,95.091 C696.818,93.334 695.394,91.909 693.636,91.909 L677.727,91.909 C675.97,91.909 674.545,93.334 674.545,95.091 C674.545,96.848 675.97,98.273 677.727,98.273 Z" />
            <path d="M677.727,114.182 L693.636,114.182 C695.394,114.182 696.818,112.757 696.818,111 C696.818,109.243 695.394,107.818 693.636,107.818 L677.727,107.818 C675.97,107.818 674.545,109.243 674.545,111 C674.545,112.757 675.97,114.182 677.727,114.182 Z" />
            <path d="M677.727,130.091 L693.636,130.091 C695.394,130.091 696.818,128.666 696.818,126.909 C696.818,125.152 695.394,123.727 693.636,123.727 L677.727,123.727 C675.97,123.727 674.545,125.152 674.545,126.909 C674.545,128.666 675.97,130.091 677.727,130.091 Z" />
        </g>
    </g>
</svg>