<?xml version="1.0" encoding="UTF-8"?>
<svg height="600" width="800" xmlns="http://www.w3.org/2000/svg" xmlns:xlink="http://www.w3.org/1999/xlink">
    <g id="Notes" font-family="LucidaGrande, 'Lucida Grande', sans-serif" font-size="13">
        <rect fill="white" height="600.0" width="800.0" x="0.0" y="0.0" />
        <g font-size="13">
            <text x="18.0" y="176.0">Small</text>
            <text x="18.0" y="376.0">Medium</text>
            <text x="18.0" y="576.0">Large</text>
        </g>
        <g font-size="9">
            <text x="250.0" y="30.0">Ultralight</text>
            <text x="450.0" y="30.0">Regular</text>
            <text x="650.0" y="30.0">Black</text>
            <text id="template-version" fill="#505050" text-anchor="end" x="785.0" y="575.0">Template v.3.0</text>
            <a href="https://github.com/swhitty/SwiftDraw">
                <text fill="#505050" text-anchor="end" x="785.0" y="590.0">https://github.com/swhitty/SwiftDraw</text>
            </a>
        </g>
    </g>
    <g id="Guides" stroke="rgb(39, 170, 225)" stroke-width="0.5">
        <path id="Capline-S" d="M18,76 l800,0" />
        <path id="H-reference" d="M85,145.755 L87.685,145.755 L113.369,79.287 L114.052,79.287 L114.052,76 L112.148,76 L85,145.755 Z M95.693,121.536 L130.996,121.536 L130.263,119.313 L96.474,119.313 L95.693,121.536 Z M139.15,145.755 L141.787,145.755 L114.638,76 L113.466,76 L113.466,79.287 L139.15,145.755 Z" stroke="none" transform="translate(0,200)" />
        <path id="Baseline-S" d="M18,146 l800,0" />
        <path id="left-margin-Ultralight-M" d="M230,256 l0,110" />
        <path id="right-margin-Ultralight-M" d="M300,256 l0,110" />
        <path id="left-margin-Regular-M" d="M430,256 l0,110" />
        <path id="right-margin-Regular-M" d="M500,256 l0,110" />
        <path id="left-margin-Black-M" d="M630,256 l0,110" />
        <path id="right-margin-Black-M" d="M700,256 l0,110" />
        <path id="Capline-M" d="M18,276 l800,0" />
        <path id="Baseline-M" d="M18,346 l800,0" />
        <path id="Capline-L" d="M18,476 l800,0" />
        <path id="Baseline-L" d="M18,546 l800,0" />
    </g>
    <g id="Symbols">
        <g id="Ultralight-M" transform="translate(0,200)">
            <path d="M230.228,133.83 C229.599,136.791 230.288,139.89 232.099,142.256 C233.91,144.622 236.649,145.999 239.544,146 L290.455,146 C293.351,145.999 296.09,144.622 297.901,142.256 C299.712,139.89 300.401,136.791 299.772,133.83 L293.409,103.83 C292.438,99.256 288.565,96.001 284.092,96 L245.909,96 C241.435,96.001 237.562,99.256 236.591,103.83 L230.227,133.83 Z M236.44,135.276 L242.804,105.276 C243.127,103.752 244.418,102.667 245.909,102.667 L284.091,102.667 C285.582,102.667 286.873,103.752 287.196,105.277 L293.56,135.276 C293.77,136.264 293.54,137.297 292.936,138.085 C292.333,138.874 291.42,139.333 290.455,139.333 L239.545,139.333 C238.58,139.333 237.667,138.874 237.064,138.085 C236.46,137.297 236.23,136.264 236.44,135.277 Z" />
            <path d="M255.454,109.333 L255.454,92.667 C255.454,87.144 259.728,82.667 265,82.667 C270.272,82.667 274.546,87.144 274.546,92.667 L274.546,109.333 C274.546,111.174 275.97,112.667 277.728,112.667 C279.485,112.667 280.91,111.174 280.91,109.333 L280.91,92.667 C280.91,83.462 273.787,76 265,76 C256.213,76 249.09,83.462 249.09,92.667 L249.09,109.333 C249.09,111.174 250.515,112.667 252.272,112.667 C254.03,112.667 255.454,111.174 255.454,109.333 Z" />
        </g>
        <g id="Regular-M" transform="translate(0,200)">
            <path d="M430.228,133.83 C429.599,136.791 430.288,139.89 432.099,142.256 C433.91,144.622 436.649,145.999 439.544,146 L490.455,146 C493.351,145.999 496.09,144.622 497.901,142.256 C499.712,139.89 500.401,136.791 499.772,133.83 L493.409,103.83 C492.438,99.256 488.565,96.001 484.092,96 L445.909,96 C441.435,96.001 437.562,99.256 436.591,103.83 L430.227,133.83 Z M436.44,135.276 L442.804,105.276 C443.127,103.752 444.418,102.667 445.909,102.667 L484.091,102.667 C485.582,102.667 486.873,103.752 487.196,105.277 L493.56,135.276 C493.77,136.264 493.54,137.297 492.936,138.085 C492.333,138.874 491.42,139.333 490.455,139.333 L439.545,139.333 C438.58,139.333 437.667,138.874 437.064,138.085 C436.46,137.297 436.23,136.264 436.44,135.277 Z" />
            <path d="M455.454,109.333 L455.454,92.667 C455.454,87.144 459.728,82.667 465,82.667 C470.272,82.667 474.546,87.144 474.546,92.667 L474.546,109.333 C474.546,111.174 475.97,112.667 477.728,112.667 C479.485,112.667 480.91,111.174 480.91,109.333 L480.91,92.667 C480.91,83.462 473.787,76 465,76 C456.213,76 449.09,83.462 449.09,92.667 L449.09,109.333 C449.09,111.174 450.515,112.667 452.272,112.667 C454.03,112.667 455.454,111.174 455.454,109.333 Z" />
        </g>
        <g id="Black-M" transform="translate(0,200)">
            <path d="M630.228,133.83 C629.599,136.791 630.288,139.89 632.099,142.256 C633.91,144.622 636.649,145.999 639.544,146 L690.455,146 C693.351,145.999 696.09,144.622 697.901,142.256 C699.712,139.89 700.401,136.791 699.772,133.83 L693.409,103.83 C692.438,99.256 688.565,96.001 684.092,96 L645.909,96 C641.435,96.001 637.562,99.256 636.591,103.83 L630.227,133.83 Z M636.44,135.276 L642.804,105.276 C643.127,103.752 644.418,102.667 645.909,102.667 L684.091,102.667 C685.582,102.667 686.873,103.752 687.196,105.277 L693.56,135.276 C693.77,136.264 693.54,137.297 692.936,138.085 C692.333,138.874 691.42,139.333 690.455,139.333 L639.545,139.333 C638.58,139.333 637.667,138.874 637.064,138.085 C636.46,137.297 636.23,136.264 636.44,135.277 Z" />
            <path d="M655.454,109.333 L655.454,92.667 C655.454,87.144 659.728,82.667 665,82.667 C670.272,82.667 674.546,87.144 674.546,92.667 L674.546,109.333 C674.546,111.174 675.97,112.667 677.728,112.667 C679.485,112.667 680.91,111.174 680.91,109.333 L680.91,92.667 C680.91,83.462 673.787,76 665,76 C656.213,76 649.09,83.462 649.09,92.667 L649.09,109.333 C649.09,111.174 650.515,112.667 652.272,112.667 C654.03,112.667 655.454,111.174 655.454,109.333 Z" />
        </g>
    </g>
</svg>