<?xml version="1.0" encoding="UTF-8"?>
<svg height="600" width="800" xmlns="http://www.w3.org/2000/svg" xmlns:xlink="http://www.w3.org/1999/xlink">
    <g id="Notes" font-family="LucidaGrande, 'Lucida Grande', sans-serif" font-size="13">
        <rect fill="white" height="600.0" width="800.0" x="0.0" y="0.0" />
        <g font-size="13">
            <text x="18.0" y="176.0">Small</text>
            <text x="18.0" y="376.0">Medium</text>
            <text x="18.0" y="576.0">Large</text>
        </g>
        <g font-size="9">
            <text x="250.0" y="30.0">Ultralight</text>
            <text x="450.0" y="30.0">Regular</text>
            <text x="650.0" y="30.0">Black</text>
            <text id="template-version" fill="#505050" text-anchor="end" x="785.0" y="575.0">Template v.3.0</text>
            <a href="https://github.com/swhitty/SwiftDraw">
                <text fill="#505050" text-anchor="end" x="785.0" y="590.0">https://github.com/swhitty/SwiftDraw</text>
            </a>
        </g>
    </g>
    <g id="Guides" stroke="rgb(39, 170, 225)" stroke-width="0.5">
        <path id="Capline-S" d="M18,76 l800,0" />
        <path id="H-reference" d="M85,145.755 L87.685,145.755 L113.369,79.287 L114.052,79.287 L114.052,76 L112.148,76 L85,145.755 Z M95.693,121.536 L130.996,121.536 L130.263,119.313 L96.474,119.313 L95.693,121.536 Z M139.15,145.755 L141.787,145.755 L114.638,76 L113.466,76 L113.466,79.287 L139.15,145.755 Z" stroke="none" transform="translate(0,200)" />
        <path id="Baseline-S" d="M18,146 l800,0" />
        <path id="left-margin-Ultralight-M" d="M230,256 l0,110" />
        <path id="right-margin-Ultralight-M" d="M300,256 l0,110" />
        <path id="left-margin-Regular-M" d="M430,256 l0,110" />
        <path id="right-margin-Regular-M" d="M500,256 l0,110" />
        <path id="left-margin-Black-M" d="M630,256 l0,110" />
        <path id="right-margin-Black-M" d="M700,256 l0,110" />
        <path id="Capline-M" d="M18,276 l800,0" />
        <path id="Baseline-M" d="M18,346 l800,0" />
        <path id="Capline-L" d="M18,476 l800,0" />
        <path id="Baseline-L" d="M18,546 l800,0" />
    </g>
    <g id="Symbols">
        <g id="Ultralight-M" transform="translate(0,200)">
            <path d="M247.5,88.244 L247.5,93.491 C247.5,93.491 247.5,93.491 247.5,93.491 C247.5,93.491 247.5,93.491 247.5,93.491 L237,93.491 C237,93.491 237,93.491 237,93.491 C237,93.491 237,93.491 237,93.491 L237,82.996 C237,82.996 237,82.996 237,82.997 C237,82.996 237,82.996 237,82.996 L247.5,82.996 C247.5,82.996 247.5,82.996 247.5,82.996 C247.5,82.997 247.5,82.996 247.5,82.996 L247.5,88.244 Z M254.5,88.244 L254.5,82.996 C254.5,81.141 253.762,79.361 252.45,78.049 C251.137,76.737 249.357,76 247.5,76 L237,76 C235.143,76 233.363,76.737 232.05,78.049 C230.738,79.361 230,81.141 230,82.996 L230,93.491 C230,95.347 230.738,97.126 232.05,98.439 C233.363,99.751 235.143,100.488 237,100.488 L247.5,100.488 C249.357,100.488 251.137,99.751 252.45,98.439 C253.762,97.126 254.5,95.347 254.5,93.491 L254.5,88.244 Z" />
            <path d="M293,88.244 L293,93.491 C293,93.491 293,93.491 293,93.491 C293,93.491 293,93.491 293,93.491 L282.5,93.491 C282.5,93.491 282.5,93.491 282.5,93.491 C282.5,93.491 282.5,93.491 282.5,93.491 L282.5,82.996 C282.5,82.996 282.5,82.996 282.5,82.996 C282.5,82.996 282.5,82.996 282.5,82.996 L293,82.996 C293,82.996 293,82.996 293,82.997 C293,82.996 293,82.996 293,82.996 L293,88.244 Z M300,88.244 L300,82.996 C300,81.141 299.263,79.361 297.95,78.049 C296.637,76.737 294.857,76 293,76 L282.5,76 C280.643,76 278.863,76.737 277.55,78.049 C276.237,79.361 275.5,81.141 275.5,82.996 L275.5,93.491 C275.5,95.347 276.237,97.126 277.55,98.439 C278.863,99.751 280.643,100.488 282.5,100.488 L293,100.488 C294.857,100.488 296.637,99.751 297.95,98.439 C299.263,97.126 300,95.347 300,93.491 L300,88.244 Z" />
            <path d="M247.5,133.721 L247.5,138.969 C247.5,138.969 247.5,138.969 247.5,138.969 C247.5,138.969 247.5,138.969 247.5,138.969 L237,138.969 C237,138.969 237,138.969 237,138.969 C237,138.969 237,138.969 237,138.969 L237,128.474 C237,128.474 237,128.474 237,128.474 C237,128.474 237,128.474 237,128.474 L247.5,128.474 C247.5,128.474 247.5,128.474 247.5,128.474 C247.5,128.474 247.5,128.474 247.5,128.474 L247.5,133.721 Z M254.5,133.721 L254.5,128.474 C254.5,126.618 253.763,124.839 252.45,123.526 C251.137,122.214 249.357,121.477 247.5,121.477 L237,121.477 C235.143,121.477 233.363,122.214 232.05,123.526 C230.737,124.839 230,126.618 230,128.474 L230,138.969 C230,140.824 230.737,142.604 232.05,143.916 C233.363,145.228 235.143,145.965 237,145.965 L247.5,145.965 C249.357,145.965 251.137,145.228 252.45,143.916 C253.763,142.604 254.5,140.824 254.5,138.969 L254.5,133.721 Z" />
            <path d="M296.5,121.477 L286,121.477 C283.215,121.477 280.545,122.583 278.575,124.551 C276.606,126.519 275.5,129.189 275.5,131.972 L275.5,142.467 C275.5,144.399 277.067,145.965 279,145.965 C280.933,145.965 282.5,144.399 282.5,142.467 L282.5,131.972 C282.5,131.044 282.869,130.154 283.525,129.498 C284.182,128.842 285.072,128.474 286,128.474 L296.5,128.474 C298.433,128.474 300,126.908 300,124.976 C300,123.043 298.433,121.477 296.5,121.477 Z" />
            <path d="M293,142.467 L293,142.502 C293,144.434 294.567,146 296.5,146 C298.433,146 300,144.434 300,142.502 L300,142.467 C300,140.535 298.433,138.969 296.5,138.969 C294.567,138.969 293,140.535 293,142.467 Z" />
            <path d="M261.5,93.491 L261.5,103.986 C261.5,104.914 261.131,105.804 260.475,106.46 C259.818,107.116 258.928,107.484 258,107.484 L247.5,107.484 C245.567,107.484 244,109.05 244,110.983 C244,112.915 245.567,114.481 247.5,114.481 L258,114.481 C260.785,114.481 263.456,113.375 265.425,111.407 C267.394,109.439 268.5,106.769 268.5,103.986 L268.5,93.491 C268.5,91.559 266.933,89.993 265,89.993 C263.067,89.993 261.5,91.559 261.5,93.491 Z" />
            <path d="M233.5,114.481 L233.535,114.481 C235.468,114.481 237.035,112.915 237.035,110.983 C237.035,109.05 235.468,107.484 233.535,107.484 L233.5,107.484 C231.567,107.484 230,109.05 230,110.983 C230,112.915 231.567,114.481 233.5,114.481 Z" />
            <path d="M265,82.996 L265.035,82.996 C266.968,82.996 268.535,81.43 268.535,79.498 C268.535,77.566 266.968,76 265.035,76 L265,76 C263.067,76 261.5,77.566 261.5,79.498 C261.5,81.43 263.067,82.996 265,82.996 Z" />
            <path d="M261.5,124.976 L261.5,125.01 C261.5,126.943 263.067,128.509 265,128.509 C266.933,128.509 268.5,126.943 268.5,125.01 L268.5,124.976 C268.5,123.043 266.933,121.477 265,121.477 C263.067,121.477 261.5,123.043 261.5,124.976 Z" />
            <path d="M279,114.481 L282.5,114.481 C284.433,114.481 286,112.915 286,110.983 C286,109.05 284.433,107.484 282.5,107.484 L279,107.484 C277.067,107.484 275.5,109.05 275.5,110.983 C275.5,112.915 277.067,114.481 279,114.481 Z" />
            <path d="M293,110.983 L293,111.017 C293,112.95 294.567,114.516 296.5,114.516 C298.433,114.516 300,112.95 300,111.017 L300,110.983 C300,109.05 298.433,107.484 296.5,107.484 C294.567,107.484 293,109.05 293,110.983 Z" />
            <path d="M268.5,142.467 L268.5,138.969 C268.5,137.036 266.933,135.47 265,135.47 C263.067,135.47 261.5,137.036 261.5,138.969 L261.5,142.467 C261.5,144.399 263.067,145.965 265,145.965 C266.933,145.965 268.5,144.399 268.5,142.467 Z" />
        </g>
        <g id="Regular-M" transform="translate(0,200)">
            <path d="M447.5,88.244 L447.5,93.491 C447.5,93.491 447.5,93.491 447.5,93.491 C447.5,93.491 447.5,93.491 447.5,93.491 L437,93.491 C437,93.491 437,93.491 437,93.491 C437,93.491 437,93.491 437,93.491 L437,82.996 C437,82.996 437,82.996 437,82.997 C437,82.996 437,82.996 437,82.996 L447.5,82.996 C447.5,82.996 447.5,82.996 447.5,82.996 C447.5,82.997 447.5,82.996 447.5,82.996 L447.5,88.244 Z M454.5,88.244 L454.5,82.996 C454.5,81.141 453.763,79.361 452.45,78.049 C451.137,76.737 449.357,76 447.5,76 L437,76 C435.143,76 433.363,76.737 432.05,78.049 C430.737,79.361 430,81.141 430,82.996 L430,93.491 C430,95.347 430.737,97.126 432.05,98.439 C433.363,99.751 435.143,100.488 437,100.488 L447.5,100.488 C449.357,100.488 451.137,99.751 452.45,98.439 C453.763,97.126 454.5,95.347 454.5,93.491 L454.5,88.244 Z" />
            <path d="M493,88.244 L493,93.491 C493,93.491 493,93.491 493,93.491 C493,93.491 493,93.491 493,93.491 L482.5,93.491 C482.5,93.491 482.5,93.491 482.5,93.491 C482.5,93.491 482.5,93.491 482.5,93.491 L482.5,82.996 C482.5,82.996 482.5,82.996 482.5,82.996 C482.5,82.996 482.5,82.996 482.5,82.996 L493,82.996 C493,82.996 493,82.996 493,82.997 C493,82.996 493,82.996 493,82.996 L493,88.244 Z M500,88.244 L500,82.996 C500,81.141 499.263,79.361 497.95,78.049 C496.637,76.737 494.857,76 493,76 L482.5,76 C480.643,76 478.863,76.737 477.55,78.049 C476.237,79.361 475.5,81.141 475.5,82.996 L475.5,93.491 C475.5,95.347 476.237,97.126 477.55,98.439 C478.863,99.751 480.643,100.488 482.5,100.488 L493,100.488 C494.857,100.488 496.637,99.751 497.95,98.439 C499.263,97.126 500,95.347 500,93.491 L500,88.244 Z" />
            <path d="M447.5,133.721 L447.5,138.969 C447.5,138.969 447.5,138.969 447.5,138.969 C447.5,138.969 447.5,138.969 447.5,138.969 L437,138.969 C437,138.969 437,138.969 437,138.969 C437,138.969 437,138.969 437,138.969 L437,128.474 C437,128.474 437,128.474 437,128.474 C437,128.474 437,128.474 437,128.474 L447.5,128.474 C447.5,128.474 447.5,128.474 447.5,128.474 C447.5,128.474 447.5,128.474 447.5,128.474 L447.5,133.721 Z M454.5,133.721 L454.5,128.474 C454.5,126.618 453.763,124.839 452.45,123.526 C451.137,122.214 449.357,121.477 447.5,121.477 L437,121.477 C435.143,121.477 433.363,122.214 432.05,123.526 C430.737,124.839 430,126.618 430,128.474 L430,138.969 C430,140.824 430.737,142.604 432.05,143.916 C433.363,145.228 435.143,145.965 437,145.965 L447.5,145.965 C449.357,145.965 451.137,145.228 452.45,143.916 C453.763,142.604 454.5,140.824 454.5,138.969 L454.5,133.721 Z" />
            <path d="M496.5,121.477 L486,121.477 C483.215,121.477 480.545,122.583 478.575,124.551 C476.606,126.519 475.5,129.189 475.5,131.972 L475.5,142.467 C475.5,144.399 477.067,145.965 479,145.965 C480.933,145.965 482.5,144.399 482.5,142.467 L482.5,131.972 C482.5,131.044 482.869,130.154 483.525,129.498 C484.182,128.842 485.072,128.474 486,128.474 L496.5,128.474 C498.433,128.474 500,126.908 500,124.976 C500,123.043 498.433,121.477 496.5,121.477 Z" />
            <path d="M493,142.467 L493,142.502 C493,144.434 494.567,146 496.5,146 C498.433,146 500,144.434 500,142.502 L500,142.467 C500,140.535 498.433,138.969 496.5,138.969 C494.567,138.969 493,140.535 493,142.467 Z" />
            <path d="M461.5,93.491 L461.5,103.986 C461.5,104.914 461.131,105.804 460.475,106.46 C459.818,107.116 458.928,107.484 458,107.484 L447.5,107.484 C445.567,107.484 444,109.05 444,110.983 C444,112.915 445.567,114.481 447.5,114.481 L458,114.481 C460.785,114.481 463.456,113.375 465.425,111.407 C467.394,109.439 468.5,106.769 468.5,103.986 L468.5,93.491 C468.5,91.559 466.933,89.993 465,89.993 C463.067,89.993 461.5,91.559 461.5,93.491 Z" />
            <path d="M433.5,114.481 L433.535,114.481 C435.468,114.481 437.035,112.915 437.035,110.983 C437.035,109.05 435.468,107.484 433.535,107.484 L433.5,107.484 C431.567,107.484 430,109.05 430,110.983 C430,112.915 431.567,114.481 433.5,114.481 Z" />
            <path d="M465,82.996 L465.035,82.996 C466.968,82.996 468.535,81.43 468.535,79.498 C468.535,77.566 466.968,76 465.035,76 L465,76 C463.067,76 461.5,77.566 461.5,79.498 C461.5,81.43 463.067,82.996 465,82.996 Z" />
            <path d="M461.5,124.976 L461.5,125.01 C461.5,126.943 463.067,128.509 465,128.509 C466.933,128.509 468.5,126.943 468.5,125.01 L468.5,124.976 C468.5,123.043 466.933,121.477 465,121.477 C463.067,121.477 461.5,123.043 461.5,124.976 Z" />
            <path d="M479,114.481 L482.5,114.481 C484.433,114.481 486,112.915 486,110.983 C486,109.05 484.433,107.484 482.5,107.484 L479,107.484 C477.067,107.484 475.5,109.05 475.5,110.983 C475.5,112.915 477.067,114.481 479,114.481 Z" />
            <path d="M493,110.983 L493,111.017 C493,112.95 494.567,114.516 496.5,114.516 C498.433,114.516 500,112.95 500,111.017 L500,110.983 C500,109.05 498.433,107.484 496.5,107.484 C494.567,107.484 493,109.05 493,110.983 Z" />
            <path d="M468.5,142.467 L468.5,138.969 C468.5,137.036 466.933,135.47 465,135.47 C463.067,135.47 461.5,137.036 461.5,138.969 L461.5,142.467 C461.5,144.399 463.067,145.965 465,145.965 C466.933,145.965 468.5,144.399 468.5,142.467 Z" />
        </g>
        <g id="Black-M" transform="translate(0,200)">
            <path d="M647.5,88.244 L647.5,93.491 C647.5,93.491 647.5,93.491 647.5,93.491 C647.5,93.491 647.5,93.491 647.5,93.491 L637,93.491 C637,93.491 637,93.491 637,93.491 C637,93.491 637,93.491 637,93.491 L637,82.996 C637,82.996 637,82.996 637,82.997 C637,82.996 637,82.996 637,82.996 L647.5,82.996 C647.5,82.996 647.5,82.996 647.5,82.996 C647.5,82.997 647.5,82.996 647.5,82.996 L647.5,88.244 Z M654.5,88.244 L654.5,82.996 C654.5,81.141 653.763,79.361 652.45,78.049 C651.137,76.737 649.357,76 647.5,76 L637,76 C635.143,76 633.363,76.737 632.05,78.049 C630.737,79.361 630,81.141 630,82.996 L630,93.491 C630,95.347 630.737,97.126 632.05,98.439 C633.363,99.751 635.143,100.488 637,100.488 L647.5,100.488 C649.357,100.488 651.137,99.751 652.45,98.439 C653.763,97.126 654.5,95.347 654.5,93.491 L654.5,88.244 Z" />
            <path d="M693,88.244 L693,93.491 C693,93.491 693,93.491 693,93.491 C693,93.491 693,93.491 693,93.491 L682.5,93.491 C682.5,93.491 682.5,93.491 682.5,93.491 C682.5,93.491 682.5,93.491 682.5,93.491 L682.5,82.996 C682.5,82.996 682.5,82.996 682.5,82.996 C682.5,82.996 682.5,82.996 682.5,82.996 L693,82.996 C693,82.996 693,82.996 693,82.997 C693,82.996 693,82.996 693,82.996 L693,88.244 Z M700,88.244 L700,82.996 C700,81.141 699.263,79.361 697.95,78.049 C696.637,76.737 694.857,76 693,76 L682.5,76 C680.643,76 678.863,76.737 677.55,78.049 C676.237,79.361 675.5,81.141 675.5,82.996 L675.5,93.491 C675.5,95.347 676.237,97.126 677.55,98.439 C678.863,99.751 680.643,100.488 682.5,100.488 L693,100.488 C694.857,100.488 696.637,99.751 697.95,98.439 C699.263,97.126 700,95.347 700,93.491 L700,88.244 Z" />
            <path d="M647.5,133.721 L647.5,138.969 C647.5,138.969 647.5,138.969 647.5,138.969 C647.5,138.969 647.5,138.969 647.5,138.969 L637,138.969 C637,138.969 637,138.969 637,138.969 C637,138.969 637,138.969 637,138.969 L637,128.474 C637,128.474 637,128.474 637,128.474 C637,128.474 637,128.474 637,128.474 L647.5,128.474 C647.5,128.474 647.5,128.474 647.5,128.474 C647.5,128.474 647.5,128.474 647.5,128.474 L647.5,133.721 Z M654.5,133.721 L654.5,128.474 C654.5,126.618 653.763,124.839 652.45,123.526 C651.137,122.214 649.357,121.477 647.5,121.477 L637,121.477 C635.143,121.477 633.363,122.214 632.05,123.526 C630.737,124.839 630,126.618 630,128.474 L630,138.969 C630,140.824 630.737,142.604 632.05,143.916 C633.363,145.228 635.143,145.965 637,145.965 L647.5,145.965 C649.357,145.965 651.137,145.228 652.45,143.916 C653.763,142.604 654.5,140.824 654.5,138.969 L654.5,133.721 Z" />
            <path d="M696.5,121.477 L686,121.477 C683.215,121.477 680.544,122.583 678.575,124.551 C676.606,126.519 675.5,129.189 675.5,131.972 L675.5,142.467 C675.5,144.399 677.067,145.965 679,145.965 C680.933,145.965 682.5,144.399 682.5,142.467 L682.5,131.972 C682.5,131.044 682.869,130.154 683.525,129.498 C684.182,128.842 685.072,128.474 686,128.474 L696.5,128.474 C698.433,128.474 700,126.908 700,124.976 C700,123.043 698.433,121.477 696.5,121.477 Z" />
            <path d="M693,142.467 L693,142.502 C693,144.434 694.567,146 696.5,146 C698.433,146 700,144.434 700,142.502 L700,142.467 C700,140.535 698.433,138.969 696.5,138.969 C694.567,138.969 693,140.535 693,142.467 Z" />
            <path d="M661.5,93.491 L661.5,103.986 C661.5,104.914 661.131,105.804 660.475,106.46 C659.818,107.116 658.928,107.484 658,107.484 L647.5,107.484 C645.567,107.484 644,109.05 644,110.983 C644,112.915 645.567,114.481 647.5,114.481 L658,114.481 C660.785,114.481 663.456,113.375 665.425,111.407 C667.394,109.439 668.5,106.769 668.5,103.986 L668.5,93.491 C668.5,91.559 666.933,89.993 665,89.993 C663.067,89.993 661.5,91.559 661.5,93.491 Z" />
            <path d="M633.5,114.481 L633.535,114.481 C635.468,114.481 637.035,112.915 637.035,110.983 C637.035,109.05 635.468,107.484 633.535,107.484 L633.5,107.484 C631.567,107.484 630,109.05 630,110.983 C630,112.915 631.567,114.481 633.5,114.481 Z" />
            <path d="M665,82.996 L665.035,82.996 C666.968,82.996 668.535,81.43 668.535,79.498 C668.535,77.566 666.968,76 665.035,76 L665,76 C663.067,76 661.5,77.566 661.5,79.498 C661.5,81.43 663.067,82.996 665,82.996 Z" />
            <path d="M661.5,124.976 L661.5,125.01 C661.5,126.943 663.067,128.509 665,128.509 C666.933,128.509 668.5,126.943 668.5,125.01 L668.5,124.976 C668.5,123.043 666.933,121.477 665,121.477 C663.067,121.477 661.5,123.043 661.5,124.976 Z" />
            <path d="M679,114.481 L682.5,114.481 C684.433,114.481 686,112.915 686,110.983 C686,109.05 684.433,107.484 682.5,107.484 L679,107.484 C677.067,107.484 675.5,109.05 675.5,110.983 C675.5,112.915 677.067,114.481 679,114.481 Z" />
            <path d="M693,110.983 L693,111.017 C693,112.95 694.567,114.516 696.5,114.516 C698.433,114.516 700,112.95 700,111.017 L700,110.983 C700,109.05 698.433,107.484 696.5,107.484 C694.567,107.484 693,109.05 693,110.983 Z" />
            <path d="M668.5,142.467 L668.5,138.969 C668.5,137.036 666.933,135.47 665,135.47 C663.067,135.47 661.5,137.036 661.5,138.969 L661.5,142.467 C661.5,144.399 663.067,145.965 665,145.965 C666.933,145.965 668.5,144.399 668.5,142.467 Z" />
        </g>
    </g>
</svg>