<?xml version="1.0" encoding="UTF-8"?>
<svg height="600" width="800" xmlns="http://www.w3.org/2000/svg" xmlns:xlink="http://www.w3.org/1999/xlink">
    <g id="Notes" font-family="LucidaGrande, 'Lucida Grande', sans-serif" font-size="13">
        <rect fill="white" height="600.0" width="800.0" x="0.0" y="0.0" />
        <g font-size="13">
            <text x="18.0" y="176.0">Small</text>
            <text x="18.0" y="376.0">Medium</text>
            <text x="18.0" y="576.0">Large</text>
        </g>
        <g font-size="9">
            <text x="250.0" y="30.0">Ultralight</text>
            <text x="450.0" y="30.0">Regular</text>
            <text x="650.0" y="30.0">Black</text>
            <text id="template-version" fill="#505050" text-anchor="end" x="785.0" y="575.0">Template v.3.0</text>
            <a href="https://github.com/swhitty/SwiftDraw">
                <text fill="#505050" text-anchor="end" x="785.0" y="590.0">https://github.com/swhitty/SwiftDraw</text>
            </a>
        </g>
    </g>
    <g id="Guides" stroke="rgb(39, 170, 225)" stroke-width="0.5">
        <path id="Capline-S" d="M18,76 l800,0" />
        <path id="H-reference" d="M85,145.755 L87.685,145.755 L113.369,79.287 L114.052,79.287 L114.052,76 L112.148,76 L85,145.755 Z M95.693,121.536 L130.996,121.536 L130.263,119.313 L96.474,119.313 L95.693,121.536 Z M139.15,145.755 L141.787,145.755 L114.638,76 L113.466,76 L113.466,79.287 L139.15,145.755 Z" stroke="none" transform="translate(0,200)" />
        <path id="Baseline-S" d="M18,146 l800,0" />
        <path id="left-margin-Ultralight-M" d="M226.5,256 l0,110" />
        <path id="right-margin-Ultralight-M" d="M303.5,256 l0,110" />
        <path id="left-margin-Regular-M" d="M426.5,256 l0,110" />
        <path id="right-margin-Regular-M" d="M503.5,256 l0,110" />
        <path id="left-margin-Black-M" d="M626.5,256 l0,110" />
        <path id="right-margin-Black-M" d="M703.5,256 l0,110" />
        <path id="Capline-M" d="M18,276 l800,0" />
        <path id="Baseline-M" d="M18,346 l800,0" />
        <path id="Capline-L" d="M18,476 l800,0" />
        <path id="Baseline-L" d="M18,546 l800,0" />
    </g>
    <g id="Symbols">
        <g id="Ultralight-M" transform="translate(0,200)">
            <path d="M268.5,107.687 C268.5,109.611 266.933,111.17 265,111.17 C263.067,111.17 261.5,109.611 261.5,107.687 C261.5,101.916 266.201,97.238 272,97.238 C277.799,97.238 282.5,101.916 282.5,107.687 C282.5,117.305 274.665,125.102 265,125.102 C255.335,125.102 247.5,117.305 247.5,107.687 C247.5,94.222 258.469,83.306 272,83.306 C285.531,83.306 296.5,94.222 296.5,107.687 C296.5,124.999 282.397,139.034 265,139.034 C247.603,139.034 233.5,124.999 233.5,107.687 C233.488,99.365 236.214,91.273 241.26,84.643 C242.097,83.422 243.366,82.842 244.659,82.989 C245.953,83.135 247.058,83.984 247.528,85.193 C247.998,86.401 247.754,87.769 246.897,88.744 C245.623,90.191 245.77,92.392 247.224,93.659 C248.678,94.926 250.889,94.78 252.163,93.333 C254.736,90.409 255.466,86.305 254.056,82.68 C252.647,79.054 249.332,76.507 245.451,76.067 C241.57,75.628 237.765,77.368 235.573,80.585 C229.71,88.28 226.486,97.853 226.5,107.692 C226.5,128.847 243.737,146 265,146 C286.263,146 303.5,128.847 303.5,107.687 C303.5,90.375 289.397,76.34 272,76.34 C254.603,76.34 240.5,90.375 240.5,107.687 C240.5,121.152 251.469,132.068 265,132.068 C278.531,132.068 289.5,121.152 289.5,107.687 C289.5,98.069 281.665,90.272 272,90.272 C262.335,90.272 254.5,98.069 254.5,107.687 C254.5,113.458 259.201,118.136 265,118.136 C270.799,118.136 275.5,113.458 275.5,107.687 C275.5,105.763 273.933,104.204 272,104.204 C270.067,104.204 268.5,105.763 268.5,107.687 Z" />
        </g>
        <g id="Regular-M" transform="translate(0,200)">
            <path d="M468.5,107.687 C468.5,109.611 466.933,111.17 465,111.17 C463.067,111.17 461.5,109.611 461.5,107.687 C461.5,101.916 466.201,97.238 472,97.238 C477.799,97.238 482.5,101.916 482.5,107.687 C482.5,117.305 474.665,125.102 465,125.102 C455.335,125.102 447.5,117.305 447.5,107.687 C447.5,94.222 458.469,83.306 472,83.306 C485.531,83.306 496.5,94.222 496.5,107.687 C496.5,124.999 482.397,139.034 465,139.034 C447.603,139.034 433.5,124.999 433.5,107.687 C433.488,99.365 436.214,91.273 441.26,84.643 C442.097,83.422 443.366,82.842 444.659,82.989 C445.953,83.135 447.058,83.984 447.528,85.193 C447.998,86.401 447.754,87.769 446.897,88.744 C445.623,90.191 445.77,92.392 447.224,93.659 C448.678,94.926 450.889,94.78 452.163,93.333 C454.736,90.409 455.466,86.305 454.056,82.68 C452.647,79.054 449.332,76.507 445.451,76.067 C441.57,75.628 437.765,77.368 435.573,80.585 C429.71,88.28 426.486,97.853 426.5,107.692 C426.5,128.847 443.737,146 465,146 C486.263,146 503.5,128.847 503.5,107.687 C503.5,90.375 489.397,76.34 472,76.34 C454.603,76.34 440.5,90.375 440.5,107.687 C440.5,121.152 451.469,132.068 465,132.068 C478.531,132.068 489.5,121.152 489.5,107.687 C489.5,98.069 481.665,90.272 472,90.272 C462.335,90.272 454.5,98.069 454.5,107.687 C454.5,113.458 459.201,118.136 465,118.136 C470.799,118.136 475.5,113.458 475.5,107.687 C475.5,105.763 473.933,104.204 472,104.204 C470.067,104.204 468.5,105.763 468.5,107.687 Z" />
        </g>
        <g id="Black-M" transform="translate(0,200)">
            <path d="M668.5,107.687 C668.5,109.611 666.933,111.17 665,111.17 C663.067,111.17 661.5,109.611 661.5,107.687 C661.5,101.916 666.201,97.238 672,97.238 C677.799,97.238 682.5,101.916 682.5,107.687 C682.5,117.305 674.665,125.102 665,125.102 C655.335,125.102 647.5,117.305 647.5,107.687 C647.5,94.222 658.469,83.306 672,83.306 C685.531,83.306 696.5,94.222 696.5,107.687 C696.5,124.999 682.397,139.034 665,139.034 C647.603,139.034 633.5,124.999 633.5,107.687 C633.488,99.365 636.214,91.273 641.26,84.643 C642.097,83.422 643.366,82.842 644.659,82.989 C645.953,83.135 647.058,83.984 647.528,85.193 C647.998,86.401 647.754,87.769 646.897,88.744 C645.623,90.191 645.77,92.392 647.224,93.659 C648.678,94.926 650.89,94.78 652.163,93.333 C654.736,90.409 655.466,86.305 654.056,82.68 C652.647,79.054 649.332,76.507 645.451,76.067 C641.57,75.628 637.765,77.368 635.573,80.585 C629.71,88.28 626.486,97.853 626.5,107.692 C626.5,128.847 643.737,146 665,146 C686.263,146 703.5,128.847 703.5,107.687 C703.5,90.375 689.397,76.34 672,76.34 C654.603,76.34 640.5,90.375 640.5,107.687 C640.5,121.152 651.469,132.068 665,132.068 C678.531,132.068 689.5,121.152 689.5,107.687 C689.5,98.069 681.665,90.272 672,90.272 C662.335,90.272 654.5,98.069 654.5,107.687 C654.5,113.458 659.201,118.136 665,118.136 C670.799,118.136 675.5,113.458 675.5,107.687 C675.5,105.763 673.933,104.204 672,104.204 C670.067,104.204 668.5,105.763 668.5,107.687 Z" />
        </g>
    </g>
</svg>