<?xml version="1.0" encoding="UTF-8"?>
<svg height="600" width="800" xmlns="http://www.w3.org/2000/svg" xmlns:xlink="http://www.w3.org/1999/xlink">
    <g id="Notes" font-family="LucidaGrande, 'Lucida Grande', sans-serif" font-size="13">
        <rect fill="white" height="600.0" width="800.0" x="0.0" y="0.0" />
        <g font-size="13">
            <text x="18.0" y="176.0">Small</text>
            <text x="18.0" y="376.0">Medium</text>
            <text x="18.0" y="576.0">Large</text>
        </g>
        <g font-size="9">
            <text x="250.0" y="30.0">Ultralight</text>
            <text x="450.0" y="30.0">Regular</text>
            <text x="650.0" y="30.0">Black</text>
            <text id="template-version" fill="#505050" text-anchor="end" x="785.0" y="575.0">Template v.3.0</text>
            <a href="https://github.com/swhitty/SwiftDraw">
                <text fill="#505050" text-anchor="end" x="785.0" y="590.0">https://github.com/swhitty/SwiftDraw</text>
            </a>
        </g>
    </g>
    <g id="Guides" stroke="rgb(39, 170, 225)" stroke-width="0.5">
        <path id="Capline-S" d="M18,76 l800,0" />
        <path id="H-reference" d="M85,145.755 L87.685,145.755 L113.369,79.287 L114.052,79.287 L114.052,76 L112.148,76 L85,145.755 Z M95.693,121.536 L130.996,121.536 L130.263,119.313 L96.474,119.313 L95.693,121.536 Z M139.15,145.755 L141.787,145.755 L114.638,76 L113.466,76 L113.466,79.287 L139.15,145.755 Z" stroke="none" transform="translate(0,200)" />
        <path id="Baseline-S" d="M18,146 l800,0" />
        <path id="left-margin-Ultralight-M" d="M230,256 l0,110" />
        <path id="right-margin-Ultralight-M" d="M300,256 l0,110" />
        <path id="left-margin-Regular-M" d="M430,256 l0,110" />
        <path id="right-margin-Regular-M" d="M500,256 l0,110" />
        <path id="left-margin-Black-M" d="M630,256 l0,110" />
        <path id="right-margin-Black-M" d="M700,256 l0,110" />
        <path id="Capline-M" d="M18,276 l800,0" />
        <path id="Baseline-M" d="M18,346 l800,0" />
        <path id="Capline-L" d="M18,476 l800,0" />
        <path id="Baseline-L" d="M18,546 l800,0" />
    </g>
    <g id="Symbols">
        <g id="Ultralight-M" transform="translate(0,200)">
            <path d="M293,130.25 L293,135.5 C293,136.428 292.631,137.318 291.975,137.975 C291.318,138.631 290.428,139 289.5,139 L268.5,139 C267.572,139 266.682,138.631 266.025,137.975 C265.369,137.318 265,136.428 265,135.5 L265,125 C265,124.072 265.369,123.182 266.025,122.525 C266.682,121.869 267.572,121.5 268.5,121.5 L289.5,121.5 C290.428,121.5 291.318,121.869 291.975,122.525 C292.631,123.182 293,124.072 293,125 L293,130.25 Z M300,130.25 L300,125 C300,122.215 298.894,119.545 296.925,117.575 C294.956,115.606 292.285,114.5 289.5,114.5 L268.5,114.5 C265.715,114.5 263.044,115.606 261.075,117.575 C259.106,119.545 258,122.215 258,125 L258,135.5 C258,138.285 259.106,140.955 261.075,142.925 C263.044,144.894 265.715,146 268.5,146 L289.5,146 C292.285,146 294.955,144.894 296.925,142.925 C298.894,140.955 300,138.285 300,135.5 L300,130.25 Z" />
            <path d="M265,91.75 L265,97 C265,97.928 264.631,98.818 263.975,99.475 C263.318,100.131 262.428,100.5 261.5,100.5 L240.5,100.5 C239.572,100.5 238.682,100.131 238.025,99.475 C237.369,98.818 237,97.928 237,97 L237,86.5 C237,85.572 237.369,84.682 238.025,84.025 C238.682,83.369 239.572,83 240.5,83 L261.5,83 C262.428,83 263.318,83.369 263.975,84.025 C264.631,84.682 265,85.572 265,86.5 L265,91.75 Z M272,91.75 L272,86.5 C272,83.715 270.894,81.045 268.925,79.075 C266.956,77.106 264.285,76 261.5,76 L240.5,76 C237.715,76 235.045,77.106 233.075,79.075 C231.106,81.045 230,83.715 230,86.5 L230,97 C230,99.785 231.106,102.455 233.075,104.425 C235.045,106.394 237.715,107.5 240.5,107.5 L261.5,107.5 C264.285,107.5 266.956,106.394 268.925,104.425 C270.894,102.455 272,99.785 272,97 L272,91.75 Z" />
        </g>
        <g id="Regular-M" transform="translate(0,200)">
            <path d="M493,130.25 L493,135.5 C493,136.428 492.631,137.318 491.975,137.975 C491.318,138.631 490.428,139 489.5,139 L468.5,139 C467.572,139 466.682,138.631 466.025,137.975 C465.369,137.318 465,136.428 465,135.5 L465,125 C465,124.072 465.369,123.182 466.025,122.525 C466.682,121.869 467.572,121.5 468.5,121.5 L489.5,121.5 C490.428,121.5 491.318,121.869 491.975,122.525 C492.631,123.182 493,124.072 493,125 L493,130.25 Z M500,130.25 L500,125 C500,122.215 498.894,119.545 496.925,117.575 C494.956,115.606 492.285,114.5 489.5,114.5 L468.5,114.5 C465.715,114.5 463.044,115.606 461.075,117.575 C459.106,119.545 458,122.215 458,125 L458,135.5 C458,138.285 459.106,140.955 461.075,142.925 C463.044,144.894 465.715,146 468.5,146 L489.5,146 C492.285,146 494.955,144.894 496.925,142.925 C498.894,140.955 500,138.285 500,135.5 L500,130.25 Z" />
            <path d="M465,91.75 L465,97 C465,97.928 464.631,98.818 463.975,99.475 C463.318,100.131 462.428,100.5 461.5,100.5 L440.5,100.5 C439.572,100.5 438.682,100.131 438.025,99.475 C437.369,98.818 437,97.928 437,97 L437,86.5 C437,85.572 437.369,84.682 438.025,84.025 C438.682,83.369 439.572,83 440.5,83 L461.5,83 C462.428,83 463.318,83.369 463.975,84.025 C464.631,84.682 465,85.572 465,86.5 L465,91.75 Z M472,91.75 L472,86.5 C472,83.715 470.894,81.045 468.925,79.075 C466.956,77.106 464.285,76 461.5,76 L440.5,76 C437.715,76 435.045,77.106 433.075,79.075 C431.106,81.045 430,83.715 430,86.5 L430,97 C430,99.785 431.106,102.455 433.075,104.425 C435.044,106.394 437.715,107.5 440.5,107.5 L461.5,107.5 C464.285,107.5 466.956,106.394 468.925,104.425 C470.894,102.455 472,99.785 472,97 L472,91.75 Z" />
        </g>
        <g id="Black-M" transform="translate(0,200)">
            <path d="M693,130.25 L693,135.5 C693,136.428 692.631,137.318 691.975,137.975 C691.318,138.631 690.428,139 689.5,139 L668.5,139 C667.572,139 666.682,138.631 666.025,137.975 C665.369,137.318 665,136.428 665,135.5 L665,125 C665,124.072 665.369,123.182 666.025,122.525 C666.682,121.869 667.572,121.5 668.5,121.5 L689.5,121.5 C690.428,121.5 691.318,121.869 691.975,122.525 C692.631,123.182 693,124.072 693,125 L693,130.25 Z M700,130.25 L700,125 C700,122.215 698.894,119.545 696.925,117.575 C694.956,115.606 692.285,114.5 689.5,114.5 L668.5,114.5 C665.715,114.5 663.044,115.606 661.075,117.575 C659.106,119.545 658,122.215 658,125 L658,135.5 C658,138.285 659.106,140.955 661.075,142.925 C663.044,144.894 665.715,146 668.5,146 L689.5,146 C692.285,146 694.956,144.894 696.925,142.925 C698.894,140.955 700,138.285 700,135.5 L700,130.25 Z" />
            <path d="M665,91.75 L665,97 C665,97.928 664.631,98.818 663.975,99.475 C663.318,100.131 662.428,100.5 661.5,100.5 L640.5,100.5 C639.572,100.5 638.682,100.131 638.025,99.475 C637.369,98.818 637,97.928 637,97 L637,86.5 C637,85.572 637.369,84.682 638.025,84.025 C638.682,83.369 639.572,83 640.5,83 L661.5,83 C662.428,83 663.318,83.369 663.975,84.025 C664.631,84.682 665,85.572 665,86.5 L665,91.75 Z M672,91.75 L672,86.5 C672,83.715 670.894,81.045 668.925,79.075 C666.956,77.106 664.285,76 661.5,76 L640.5,76 C637.715,76 635.044,77.106 633.075,79.075 C631.106,81.045 630,83.715 630,86.5 L630,97 C630,99.785 631.106,102.455 633.075,104.425 C635.044,106.394 637.715,107.5 640.5,107.5 L661.5,107.5 C664.285,107.5 666.956,106.394 668.925,104.425 C670.894,102.455 672,99.785 672,97 L672,91.75 Z" />
        </g>
    </g>
</svg>