<?xml version="1.0" encoding="UTF-8"?>
<svg height="600" width="800" xmlns="http://www.w3.org/2000/svg" xmlns:xlink="http://www.w3.org/1999/xlink">
    <g id="Notes" font-family="LucidaGrande, 'Lucida Grande', sans-serif" font-size="13">
        <rect fill="white" height="600.0" width="800.0" x="0.0" y="0.0" />
        <g font-size="13">
            <text x="18.0" y="176.0">Small</text>
            <text x="18.0" y="376.0">Medium</text>
            <text x="18.0" y="576.0">Large</text>
        </g>
        <g font-size="9">
            <text x="250.0" y="30.0">Ultralight</text>
            <text x="450.0" y="30.0">Regular</text>
            <text x="650.0" y="30.0">Black</text>
            <text id="template-version" fill="#505050" text-anchor="end" x="785.0" y="575.0">Template v.3.0</text>
            <a href="https://github.com/swhitty/SwiftDraw">
                <text fill="#505050" text-anchor="end" x="785.0" y="590.0">https://github.com/swhitty/SwiftDraw</text>
            </a>
        </g>
    </g>
    <g id="Guides" stroke="rgb(39, 170, 225)" stroke-width="0.5">
        <path id="Capline-S" d="M18,76 l800,0" />
        <path id="H-reference" d="M85,145.755 L87.685,145.755 L113.369,79.287 L114.052,79.287 L114.052,76 L112.148,76 L85,145.755 Z M95.693,121.536 L130.996,121.536 L130.263,119.313 L96.474,119.313 L95.693,121.536 Z M139.15,145.755 L141.787,145.755 L114.638,76 L113.466,76 L113.466,79.287 L139.15,145.755 Z" stroke="none" transform="translate(0,200)" />
        <path id="Baseline-S" d="M18,146 l800,0" />
        <path id="left-margin-Ultralight-M" d="M226.5,256 l0,110" />
        <path id="right-margin-Ultralight-M" d="M303.5,256 l0,110" />
        <path id="left-margin-Regular-M" d="M426.5,256 l0,110" />
        <path id="right-margin-Regular-M" d="M503.5,256 l0,110" />
        <path id="left-margin-Black-M" d="M626.5,256 l0,110" />
        <path id="right-margin-Black-M" d="M703.5,256 l0,110" />
        <path id="Capline-M" d="M18,276 l800,0" />
        <path id="Baseline-M" d="M18,346 l800,0" />
        <path id="Capline-L" d="M18,476 l800,0" />
        <path id="Baseline-L" d="M18,546 l800,0" />
    </g>
    <g id="Symbols">
        <g id="Ultralight-M" transform="translate(0,200)">
            <path d="M238.273,144.264 L275.023,81.264 C275.997,79.594 275.433,77.451 273.764,76.477 C272.094,75.503 269.951,76.067 268.977,77.736 L232.227,140.736 C231.253,142.406 231.817,144.549 233.486,145.523 C235.156,146.497 237.299,145.933 238.273,144.264 Z" />
            <path d="M297.773,140.736 L261.023,77.736 C260.049,76.067 257.906,75.503 256.236,76.477 C254.567,77.451 254.003,79.594 254.977,81.264 L291.727,144.264 C292.701,145.933 294.844,146.497 296.514,145.523 C298.183,144.549 298.747,142.406 297.773,140.736 Z" />
            <path d="M280.273,140.736 L268.023,119.736 C266.673,117.421 263.327,117.421 261.977,119.736 L249.727,140.736 C248.753,142.406 249.317,144.549 250.986,145.523 C252.656,146.497 254.799,145.933 255.773,144.264 L268.023,123.264 L261.977,123.264 L274.227,144.264 C275.201,145.933 277.344,146.497 279.014,145.523 C280.683,144.549 281.247,142.406 280.273,140.736 Z" />
            <path d="M230,146 L300,146 C301.933,146 303.5,144.433 303.5,142.5 C303.5,140.567 301.933,139 300,139 L230,139 C228.067,139 226.5,140.567 226.5,142.5 C226.5,144.433 228.067,146 230,146 Z" />
        </g>
        <g id="Regular-M" transform="translate(0,200)">
            <path d="M438.273,144.264 L475.023,81.264 C475.997,79.594 475.433,77.451 473.764,76.477 C472.094,75.503 469.951,76.067 468.977,77.736 L432.227,140.736 C431.253,142.406 431.817,144.549 433.486,145.523 C435.156,146.497 437.299,145.933 438.273,144.264 Z" />
            <path d="M497.773,140.736 L461.023,77.736 C460.049,76.067 457.906,75.503 456.236,76.477 C454.567,77.451 454.003,79.594 454.977,81.264 L491.727,144.264 C492.701,145.933 494.844,146.497 496.514,145.523 C498.183,144.549 498.747,142.406 497.773,140.736 Z" />
            <path d="M480.273,140.736 L468.023,119.736 C466.673,117.421 463.327,117.421 461.977,119.736 L449.727,140.736 C448.753,142.406 449.317,144.549 450.986,145.523 C452.656,146.497 454.799,145.933 455.773,144.264 L468.023,123.264 L461.977,123.264 L474.227,144.264 C475.201,145.933 477.344,146.497 479.014,145.523 C480.683,144.549 481.247,142.406 480.273,140.736 Z" />
            <path d="M430,146 L500,146 C501.933,146 503.5,144.433 503.5,142.5 C503.5,140.567 501.933,139 500,139 L430,139 C428.067,139 426.5,140.567 426.5,142.5 C426.5,144.433 428.067,146 430,146 Z" />
        </g>
        <g id="Black-M" transform="translate(0,200)">
            <path d="M638.273,144.264 L675.023,81.264 C675.997,79.594 675.433,77.451 673.764,76.477 C672.094,75.503 669.951,76.067 668.977,77.736 L632.227,140.736 C631.253,142.406 631.817,144.549 633.486,145.523 C635.156,146.497 637.299,145.933 638.273,144.264 Z" />
            <path d="M697.773,140.736 L661.023,77.736 C660.049,76.067 657.906,75.503 656.236,76.477 C654.567,77.451 654.003,79.594 654.977,81.264 L691.727,144.264 C692.701,145.933 694.844,146.497 696.514,145.523 C698.183,144.549 698.747,142.406 697.773,140.736 Z" />
            <path d="M680.273,140.736 L668.023,119.736 C666.673,117.421 663.327,117.421 661.977,119.736 L649.727,140.736 C648.753,142.406 649.317,144.549 650.986,145.523 C652.656,146.497 654.799,145.933 655.773,144.264 L668.023,123.264 L661.977,123.264 L674.227,144.264 C675.201,145.933 677.344,146.497 679.014,145.523 C680.683,144.549 681.247,142.406 680.273,140.736 Z" />
            <path d="M630,146 L700,146 C701.933,146 703.5,144.433 703.5,142.5 C703.5,140.567 701.933,139 700,139 L630,139 C628.067,139 626.5,140.567 626.5,142.5 C626.5,144.433 628.067,146 630,146 Z" />
        </g>
    </g>
</svg>