<?xml version="1.0" encoding="UTF-8"?>
<svg height="600" width="800" xmlns="http://www.w3.org/2000/svg" xmlns:xlink="http://www.w3.org/1999/xlink">
    <g id="Notes" font-family="LucidaGrande, 'Lucida Grande', sans-serif" font-size="13">
        <rect fill="white" height="600.0" width="800.0" x="0.0" y="0.0" />
        <g font-size="13">
            <text x="18.0" y="176.0">Small</text>
            <text x="18.0" y="376.0">Medium</text>
            <text x="18.0" y="576.0">Large</text>
        </g>
        <g font-size="9">
            <text x="250.0" y="30.0">Ultralight</text>
            <text x="450.0" y="30.0">Regular</text>
            <text x="650.0" y="30.0">Black</text>
            <text id="template-version" fill="#505050" text-anchor="end" x="785.0" y="575.0">Template v.3.0</text>
            <a href="https://github.com/swhitty/SwiftDraw">
                <text fill="#505050" text-anchor="end" x="785.0" y="590.0">https://github.com/swhitty/SwiftDraw</text>
            </a>
        </g>
    </g>
    <g id="Guides" stroke="rgb(39, 170, 225)" stroke-width="0.5">
        <path id="Capline-S" d="M18,76 l800,0" />
        <path id="H-reference" d="M85,145.755 L87.685,145.755 L113.369,79.287 L114.052,79.287 L114.052,76 L112.148,76 L85,145.755 Z M95.693,121.536 L130.996,121.536 L130.263,119.313 L96.474,119.313 L95.693,121.536 Z M139.15,145.755 L141.787,145.755 L114.638,76 L113.466,76 L113.466,79.287 L139.15,145.755 Z" stroke="none" transform="translate(0,200)" />
        <path id="Baseline-S" d="M18,146 l800,0" />
        <path id="left-margin-Ultralight-M" d="M230,256 l0,110" />
        <path id="right-margin-Ultralight-M" d="M300,256 l0,110" />
        <path id="left-margin-Regular-M" d="M430,256 l0,110" />
        <path id="right-margin-Regular-M" d="M500,256 l0,110" />
        <path id="left-margin-Black-M" d="M630,256 l0,110" />
        <path id="right-margin-Black-M" d="M700,256 l0,110" />
        <path id="Capline-M" d="M18,276 l800,0" />
        <path id="Baseline-M" d="M18,346 l800,0" />
        <path id="Capline-L" d="M18,476 l800,0" />
        <path id="Baseline-L" d="M18,546 l800,0" />
    </g>
    <g id="Symbols">
        <g id="Ultralight-M" transform="translate(0,200)">
            <path d="M280.909,95.091 L280.909,98.273 C280.909,99.117 280.574,99.926 279.977,100.523 C279.38,101.119 278.571,101.455 277.727,101.455 L239.545,101.455 C238.702,101.455 237.892,101.119 237.296,100.523 C236.699,99.926 236.364,99.117 236.364,98.273 L236.364,91.909 C236.364,91.065 236.699,90.256 237.296,89.659 C237.892,89.062 238.702,88.727 239.545,88.727 L277.727,88.727 C278.571,88.727 279.38,89.062 279.977,89.659 C280.574,90.256 280.909,91.065 280.909,91.909 L280.909,95.091 Z M287.273,95.091 L287.273,91.909 C287.273,89.377 286.267,86.95 284.477,85.159 C282.687,83.369 280.259,82.364 277.727,82.364 L239.545,82.364 C237.014,82.364 234.586,83.369 232.796,85.159 C231.006,86.95 230,89.377 230,91.909 L230,98.273 C230,100.804 231.006,103.232 232.796,105.022 C234.586,106.812 237.014,107.818 239.545,107.818 L277.727,107.818 C280.259,107.818 282.687,106.812 284.477,105.022 C286.267,103.232 287.273,100.804 287.273,98.273 L287.273,95.091 Z" />
            <path d="M280.909,126.909 L280.909,130.091 C280.909,130.935 280.574,131.744 279.977,132.341 C279.38,132.938 278.571,133.273 277.727,133.273 L261.818,133.273 C260.974,133.273 260.165,132.938 259.568,132.341 C258.972,131.744 258.636,130.935 258.636,130.091 L258.636,123.727 C258.636,122.883 258.972,122.074 259.568,121.477 C260.165,120.881 260.974,120.545 261.818,120.545 L277.727,120.545 C278.571,120.545 279.38,120.881 279.977,121.477 C280.574,122.074 280.909,122.883 280.909,123.727 L280.909,126.909 Z M287.273,126.909 L287.273,123.727 C287.273,121.196 286.267,118.768 284.477,116.978 C282.687,115.188 280.259,114.182 277.727,114.182 L261.818,114.182 C259.287,114.182 256.859,115.188 255.069,116.978 C253.278,118.768 252.273,121.196 252.273,123.727 L252.273,130.091 C252.273,132.623 253.278,135.05 255.069,136.841 C256.859,138.631 259.287,139.636 261.818,139.636 L277.727,139.636 C280.259,139.636 282.687,138.631 284.477,136.841 C286.267,135.05 287.273,132.623 287.273,130.091 L287.273,126.909 Z" />
            <path d="M300,142.818 L300,79.182 C300,77.425 298.575,76 296.818,76 C295.061,76 293.636,77.425 293.636,79.182 L293.636,142.818 C293.636,144.575 295.061,146 296.818,146 C298.575,146 300,144.575 300,142.818 Z" />
        </g>
        <g id="Regular-M" transform="translate(0,200)">
            <path d="M480.909,95.091 L480.909,98.273 C480.909,99.117 480.574,99.926 479.977,100.523 C479.38,101.119 478.571,101.455 477.727,101.455 L439.545,101.455 C438.702,101.455 437.892,101.119 437.296,100.523 C436.699,99.926 436.364,99.117 436.364,98.273 L436.364,91.909 C436.364,91.065 436.699,90.256 437.296,89.659 C437.892,89.062 438.702,88.727 439.545,88.727 L477.727,88.727 C478.571,88.727 479.38,89.062 479.977,89.659 C480.574,90.256 480.909,91.065 480.909,91.909 L480.909,95.091 Z M487.273,95.091 L487.273,91.909 C487.273,89.377 486.267,86.95 484.477,85.159 C482.687,83.369 480.259,82.364 477.727,82.364 L439.545,82.364 C437.014,82.364 434.586,83.369 432.796,85.159 C431.006,86.95 430,89.377 430,91.909 L430,98.273 C430,100.804 431.006,103.232 432.796,105.022 C434.586,106.812 437.014,107.818 439.545,107.818 L477.727,107.818 C480.259,107.818 482.687,106.812 484.477,105.022 C486.267,103.232 487.273,100.804 487.273,98.273 L487.273,95.091 Z" />
            <path d="M480.909,126.909 L480.909,130.091 C480.909,130.935 480.574,131.744 479.977,132.341 C479.38,132.938 478.571,133.273 477.727,133.273 L461.818,133.273 C460.974,133.273 460.165,132.938 459.568,132.341 C458.972,131.744 458.636,130.935 458.636,130.091 L458.636,123.727 C458.636,122.883 458.972,122.074 459.568,121.477 C460.165,120.881 460.974,120.545 461.818,120.545 L477.727,120.545 C478.571,120.545 479.38,120.881 479.977,121.477 C480.574,122.074 480.909,122.883 480.909,123.727 L480.909,126.909 Z M487.273,126.909 L487.273,123.727 C487.273,121.196 486.267,118.768 484.477,116.978 C482.687,115.188 480.259,114.182 477.727,114.182 L461.818,114.182 C459.287,114.182 456.859,115.188 455.069,116.978 C453.278,118.768 452.273,121.196 452.273,123.727 L452.273,130.091 C452.273,132.623 453.278,135.05 455.069,136.841 C456.859,138.631 459.287,139.636 461.818,139.636 L477.727,139.636 C480.259,139.636 482.687,138.631 484.477,136.841 C486.267,135.05 487.273,132.623 487.273,130.091 L487.273,126.909 Z" />
            <path d="M500,142.818 L500,79.182 C500,77.425 498.575,76 496.818,76 C495.061,76 493.636,77.425 493.636,79.182 L493.636,142.818 C493.636,144.575 495.061,146 496.818,146 C498.575,146 500,144.575 500,142.818 Z" />
        </g>
        <g id="Black-M" transform="translate(0,200)">
            <path d="M680.909,95.091 L680.909,98.273 C680.909,99.117 680.574,99.926 679.977,100.523 C679.38,101.119 678.571,101.455 677.727,101.455 L639.545,101.455 C638.702,101.455 637.892,101.119 637.296,100.523 C636.699,99.926 636.364,99.117 636.364,98.273 L636.364,91.909 C636.364,91.065 636.699,90.256 637.296,89.659 C637.892,89.062 638.702,88.727 639.545,88.727 L677.727,88.727 C678.571,88.727 679.38,89.062 679.977,89.659 C680.574,90.256 680.909,91.065 680.909,91.909 L680.909,95.091 Z M687.273,95.091 L687.273,91.909 C687.273,89.377 686.267,86.95 684.477,85.159 C682.687,83.369 680.259,82.364 677.727,82.364 L639.545,82.364 C637.014,82.364 634.586,83.369 632.796,85.159 C631.006,86.95 630,89.377 630,91.909 L630,98.273 C630,100.804 631.006,103.232 632.796,105.022 C634.586,106.812 637.014,107.818 639.545,107.818 L677.727,107.818 C680.259,107.818 682.687,106.812 684.477,105.022 C686.267,103.232 687.273,100.804 687.273,98.273 L687.273,95.091 Z" />
            <path d="M680.909,126.909 L680.909,130.091 C680.909,130.935 680.574,131.744 679.977,132.341 C679.38,132.938 678.571,133.273 677.727,133.273 L661.818,133.273 C660.974,133.273 660.165,132.938 659.568,132.341 C658.972,131.744 658.636,130.935 658.636,130.091 L658.636,123.727 C658.636,122.883 658.972,122.074 659.568,121.477 C660.165,120.881 660.974,120.545 661.818,120.545 L677.727,120.545 C678.571,120.545 679.38,120.881 679.977,121.477 C680.574,122.074 680.909,122.883 680.909,123.727 L680.909,126.909 Z M687.273,126.909 L687.273,123.727 C687.273,121.196 686.267,118.768 684.477,116.978 C682.687,115.188 680.259,114.182 677.727,114.182 L661.818,114.182 C659.287,114.182 656.859,115.188 655.069,116.978 C653.278,118.768 652.273,121.196 652.273,123.727 L652.273,130.091 C652.273,132.623 653.278,135.05 655.069,136.841 C656.859,138.631 659.287,139.636 661.818,139.636 L677.727,139.636 C680.259,139.636 682.687,138.631 684.477,136.841 C686.267,135.05 687.273,132.623 687.273,130.091 L687.273,126.909 Z" />
            <path d="M700,142.818 L700,79.182 C700,77.425 698.575,76 696.818,76 C695.061,76 693.636,77.425 693.636,79.182 L693.636,142.818 C693.636,144.575 695.061,146 696.818,146 C698.575,146 700,144.575 700,142.818 Z" />
        </g>
    </g>
</svg>