<?xml version="1.0" encoding="UTF-8"?>
<svg height="600" width="800" xmlns="http://www.w3.org/2000/svg" xmlns:xlink="http://www.w3.org/1999/xlink">
    <g id="Notes" font-family="LucidaGrande, 'Lucida Grande', sans-serif" font-size="13">
        <rect fill="white" height="600.0" width="800.0" x="0.0" y="0.0" />
        <g font-size="13">
            <text x="18.0" y="176.0">Small</text>
            <text x="18.0" y="376.0">Medium</text>
            <text x="18.0" y="576.0">Large</text>
        </g>
        <g font-size="9">
            <text x="250.0" y="30.0">Ultralight</text>
            <text x="450.0" y="30.0">Regular</text>
            <text x="650.0" y="30.0">Black</text>
            <text id="template-version" fill="#505050" text-anchor="end" x="785.0" y="575.0">Template v.3.0</text>
            <a href="https://github.com/swhitty/SwiftDraw">
                <text fill="#505050" text-anchor="end" x="785.0" y="590.0">https://github.com/swhitty/SwiftDraw</text>
            </a>
        </g>
    </g>
    <g id="Guides" stroke="rgb(39, 170, 225)" stroke-width="0.5">
        <path id="Capline-S" d="M18,76 l800,0" />
        <path id="H-reference" d="M85,145.755 L87.685,145.755 L113.369,79.287 L114.052,79.287 L114.052,76 L112.148,76 L85,145.755 Z M95.693,121.536 L130.996,121.536 L130.263,119.313 L96.474,119.313 L95.693,121.536 Z M139.15,145.755 L141.787,145.755 L114.638,76 L113.466,76 L113.466,79.287 L139.15,145.755 Z" stroke="none" transform="translate(0,200)" />
        <path id="Baseline-S" d="M18,146 l800,0" />
        <path id="left-margin-Ultralight-M" d="M228.25,256 l0,110" />
        <path id="right-margin-Ultralight-M" d="M301.75,256 l0,110" />
        <path id="left-margin-Regular-M" d="M428.25,256 l0,110" />
        <path id="right-margin-Regular-M" d="M501.75,256 l0,110" />
        <path id="left-margin-Black-M" d="M628.25,256 l0,110" />
        <path id="right-margin-Black-M" d="M701.75,256 l0,110" />
        <path id="Capline-M" d="M18,276 l800,0" />
        <path id="Baseline-M" d="M18,346 l800,0" />
        <path id="Capline-L" d="M18,476 l800,0" />
        <path id="Baseline-L" d="M18,546 l800,0" />
    </g>
    <g id="Symbols">
        <g id="Ultralight-M" transform="translate(0,200)">
            <path d="M291.25,106.296 L291.25,135.5 C291.25,136.428 290.881,137.318 290.225,137.975 C289.568,138.631 288.678,139 287.75,139 L238.75,139 C237.822,139 236.932,138.631 236.275,137.975 C235.619,137.318 235.25,136.428 235.25,135.5 L235.25,86.5 C235.25,85.572 235.619,84.682 236.275,84.025 C236.932,83.369 237.822,83 238.75,83 L281.954,83 C283.887,83 285.454,81.433 285.454,79.5 C285.454,77.567 283.887,76 281.954,76 L238.75,76 C235.965,76 233.295,77.106 231.325,79.075 C229.356,81.045 228.25,83.715 228.25,86.5 L228.25,135.5 C228.25,138.285 229.356,140.955 231.325,142.925 C233.295,144.894 235.965,146 238.75,146 L287.75,146 C290.535,146 293.205,144.894 295.175,142.925 C297.144,140.955 298.25,138.285 298.25,135.5 L298.25,106.296 C298.25,104.363 296.683,102.796 294.75,102.796 C292.817,102.796 291.25,104.363 291.25,106.296 Z" />
            <path d="M250.275,109.975 L260.775,120.475 C262.142,121.842 264.358,121.842 265.725,120.475 L300.725,85.475 C302.092,84.108 302.092,81.892 300.725,80.525 C299.358,79.158 297.142,79.158 295.775,80.525 L260.775,115.525 L265.725,115.525 L255.225,105.025 C253.858,103.658 251.642,103.658 250.275,105.025 C248.908,106.392 248.908,108.608 250.275,109.975 Z" />
        </g>
        <g id="Regular-M" transform="translate(0,200)">
            <path d="M491.25,106.296 L491.25,135.5 C491.25,136.428 490.881,137.318 490.225,137.975 C489.568,138.631 488.678,139 487.75,139 L438.75,139 C437.822,139 436.932,138.631 436.275,137.975 C435.619,137.318 435.25,136.428 435.25,135.5 L435.25,86.5 C435.25,85.572 435.619,84.682 436.275,84.025 C436.932,83.369 437.822,83 438.75,83 L481.954,83 C483.887,83 485.454,81.433 485.454,79.5 C485.454,77.567 483.887,76 481.954,76 L438.75,76 C435.965,76 433.295,77.106 431.325,79.075 C429.356,81.045 428.25,83.715 428.25,86.5 L428.25,135.5 C428.25,138.285 429.356,140.955 431.325,142.925 C433.295,144.894 435.965,146 438.75,146 L487.75,146 C490.535,146 493.205,144.894 495.175,142.925 C497.144,140.955 498.25,138.285 498.25,135.5 L498.25,106.296 C498.25,104.363 496.683,102.796 494.75,102.796 C492.817,102.796 491.25,104.363 491.25,106.296 Z" />
            <path d="M450.275,109.975 L460.775,120.475 C462.142,121.842 464.358,121.842 465.725,120.475 L500.725,85.475 C502.092,84.108 502.092,81.892 500.725,80.525 C499.358,79.158 497.142,79.158 495.775,80.525 L460.775,115.525 L465.725,115.525 L455.225,105.025 C453.858,103.658 451.642,103.658 450.275,105.025 C448.908,106.392 448.908,108.608 450.275,109.975 Z" />
        </g>
        <g id="Black-M" transform="translate(0,200)">
            <path d="M691.25,106.296 L691.25,135.5 C691.25,136.428 690.881,137.318 690.225,137.975 C689.568,138.631 688.678,139 687.75,139 L638.75,139 C637.822,139 636.932,138.631 636.275,137.975 C635.619,137.318 635.25,136.428 635.25,135.5 L635.25,86.5 C635.25,85.572 635.619,84.682 636.275,84.025 C636.932,83.369 637.822,83 638.75,83 L681.954,83 C683.887,83 685.454,81.433 685.454,79.5 C685.454,77.567 683.887,76 681.954,76 L638.75,76 C635.965,76 633.294,77.106 631.325,79.075 C629.356,81.045 628.25,83.715 628.25,86.5 L628.25,135.5 C628.25,138.285 629.356,140.955 631.325,142.925 C633.294,144.894 635.965,146 638.75,146 L687.75,146 C690.535,146 693.206,144.894 695.175,142.925 C697.144,140.955 698.25,138.285 698.25,135.5 L698.25,106.296 C698.25,104.363 696.683,102.796 694.75,102.796 C692.817,102.796 691.25,104.363 691.25,106.296 Z" />
            <path d="M650.275,109.975 L660.775,120.475 C662.142,121.842 664.358,121.842 665.725,120.475 L700.725,85.475 C702.092,84.108 702.092,81.892 700.725,80.525 C699.358,79.158 697.142,79.158 695.775,80.525 L660.775,115.525 L665.725,115.525 L655.225,105.025 C653.858,103.658 651.642,103.658 650.275,105.025 C648.908,106.392 648.908,108.608 650.275,109.975 Z" />
        </g>
    </g>
</svg>