<?xml version="1.0" encoding="UTF-8"?>
<svg height="600" width="800" xmlns="http://www.w3.org/2000/svg" xmlns:xlink="http://www.w3.org/1999/xlink">
    <g id="Notes" font-family="LucidaGrande, 'Lucida Grande', sans-serif" font-size="13">
        <rect fill="white" height="600.0" width="800.0" x="0.0" y="0.0" />
        <g font-size="13">
            <text x="18.0" y="176.0">Small</text>
            <text x="18.0" y="376.0">Medium</text>
            <text x="18.0" y="576.0">Large</text>
        </g>
        <g font-size="9">
            <text x="250.0" y="30.0">Ultralight</text>
            <text x="450.0" y="30.0">Regular</text>
            <text x="650.0" y="30.0">Black</text>
            <text id="template-version" fill="#505050" text-anchor="end" x="785.0" y="575.0">Template v.3.0</text>
            <a href="https://github.com/swhitty/SwiftDraw">
                <text fill="#505050" text-anchor="end" x="785.0" y="590.0">https://github.com/swhitty/SwiftDraw</text>
            </a>
        </g>
    </g>
    <g id="Guides" stroke="rgb(39, 170, 225)" stroke-width="0.5">
        <path id="Capline-S" d="M18,76 l800,0" />
        <path id="H-reference" d="M85,145.755 L87.685,145.755 L113.369,79.287 L114.052,79.287 L114.052,76 L112.148,76 L85,145.755 Z M95.693,121.536 L130.996,121.536 L130.263,119.313 L96.474,119.313 L95.693,121.536 Z M139.15,145.755 L141.787,145.755 L114.638,76 L113.466,76 L113.466,79.287 L139.15,145.755 Z" stroke="none" transform="translate(0,200)" />
        <path id="Baseline-S" d="M18,146 l800,0" />
        <path id="left-margin-Ultralight-M" d="M233.182,256 l0,110" />
        <path id="right-margin-Ultralight-M" d="M296.818,256 l0,110" />
        <path id="left-margin-Regular-M" d="M433.182,256 l0,110" />
        <path id="right-margin-Regular-M" d="M496.818,256 l0,110" />
        <path id="left-margin-Black-M" d="M633.182,256 l0,110" />
        <path id="right-margin-Black-M" d="M696.818,256 l0,110" />
        <path id="Capline-M" d="M18,276 l800,0" />
        <path id="Baseline-M" d="M18,346 l800,0" />
        <path id="Capline-L" d="M18,476 l800,0" />
        <path id="Baseline-L" d="M18,546 l800,0" />
    </g>
    <g id="Symbols">
        <g id="Ultralight-M" transform="translate(0,200)">
            <path d="M274.545,79.182 L274.545,85.545 C274.545,87.303 275.97,88.727 277.727,88.727 C279.485,88.727 280.909,87.303 280.909,85.545 L280.909,79.182 C280.909,77.425 279.485,76 277.727,76 C275.97,76 274.545,77.425 274.545,79.182 Z" />
            <path d="M252.273,142.818 L252.273,136.455 C252.273,135.611 252.608,134.801 253.205,134.205 C253.801,133.608 254.611,133.273 255.455,133.273 L274.545,133.273 C275.389,133.273 276.199,133.608 276.795,134.205 C277.392,134.801 277.727,135.611 277.727,136.455 L277.727,142.818 C277.727,144.575 279.152,146 280.909,146 C282.666,146 284.091,144.575 284.091,142.818 L284.091,136.455 C284.091,133.923 283.085,131.495 281.295,129.705 C279.505,127.915 277.077,126.909 274.545,126.909 L255.455,126.909 C252.923,126.909 250.495,127.915 248.705,129.705 C246.915,131.495 245.909,133.923 245.909,136.455 L245.909,142.818 C245.909,144.575 247.334,146 249.091,146 C250.848,146 252.273,144.575 252.273,142.818 Z" />
            <path d="M249.091,79.182 L249.091,85.545 C249.091,87.303 250.515,88.727 252.273,88.727 C254.03,88.727 255.455,87.303 255.455,85.545 L255.455,79.182 C255.455,77.425 254.03,76 252.273,76 C250.515,76 249.091,77.425 249.091,79.182 Z" />
            <path d="M258.636,107.818 C258.636,104.304 261.485,101.455 265,101.455 C268.515,101.455 271.364,104.304 271.364,107.818 C271.364,111.333 268.515,114.182 265,114.182 C261.485,114.182 258.636,111.333 258.636,107.818 Z M252.273,107.818 C252.273,114.847 257.971,120.545 265,120.545 C272.029,120.545 277.727,114.847 277.727,107.818 C277.727,100.789 272.029,95.091 265,95.091 C257.971,95.091 252.273,100.789 252.273,107.818 Z" />
            <path d="M290.455,114.182 L290.455,136.455 C290.455,137.298 290.119,138.108 289.523,138.704 C288.926,139.301 288.117,139.636 287.273,139.636 L242.727,139.636 C241.883,139.636 241.074,139.301 240.477,138.704 C239.881,138.108 239.545,137.298 239.545,136.455 L239.545,91.909 C239.545,91.065 239.881,90.256 240.477,89.659 C241.074,89.062 241.883,88.727 242.727,88.727 L287.273,88.727 C288.117,88.727 288.926,89.062 289.523,89.659 C290.119,90.256 290.455,91.065 290.455,91.909 L290.455,114.182 Z M296.818,114.182 L296.818,91.909 C296.818,89.377 295.812,86.95 294.022,85.159 C292.232,83.369 289.804,82.364 287.273,82.364 L242.727,82.364 C240.196,82.364 237.768,83.369 235.978,85.159 C234.188,86.95 233.182,89.377 233.182,91.909 L233.182,136.455 C233.182,138.986 234.188,141.414 235.978,143.204 C237.768,144.994 240.196,146 242.727,146 L287.273,146 C289.804,146 292.232,144.994 294.022,143.204 C295.812,141.414 296.818,138.986 296.818,136.455 L296.818,114.182 Z" />
        </g>
        <g id="Regular-M" transform="translate(0,200)">
            <path d="M474.545,79.182 L474.545,85.545 C474.545,87.303 475.97,88.727 477.727,88.727 C479.485,88.727 480.909,87.303 480.909,85.545 L480.909,79.182 C480.909,77.425 479.485,76 477.727,76 C475.97,76 474.545,77.425 474.545,79.182 Z" />
            <path d="M452.273,142.818 L452.273,136.455 C452.273,135.611 452.608,134.801 453.205,134.205 C453.801,133.608 454.611,133.273 455.455,133.273 L474.545,133.273 C475.389,133.273 476.199,133.608 476.795,134.205 C477.392,134.801 477.727,135.611 477.727,136.455 L477.727,142.818 C477.727,144.575 479.152,146 480.909,146 C482.666,146 484.091,144.575 484.091,142.818 L484.091,136.455 C484.091,133.923 483.085,131.495 481.295,129.705 C479.505,127.915 477.077,126.909 474.545,126.909 L455.455,126.909 C452.923,126.909 450.495,127.915 448.705,129.705 C446.915,131.495 445.909,133.923 445.909,136.455 L445.909,142.818 C445.909,144.575 447.334,146 449.091,146 C450.848,146 452.273,144.575 452.273,142.818 Z" />
            <path d="M449.091,79.182 L449.091,85.545 C449.091,87.303 450.515,88.727 452.273,88.727 C454.03,88.727 455.455,87.303 455.455,85.545 L455.455,79.182 C455.455,77.425 454.03,76 452.273,76 C450.515,76 449.091,77.425 449.091,79.182 Z" />
            <path d="M458.636,107.818 C458.636,104.304 461.485,101.455 465,101.455 C468.515,101.455 471.364,104.304 471.364,107.818 C471.364,111.333 468.515,114.182 465,114.182 C461.485,114.182 458.636,111.333 458.636,107.818 Z M452.273,107.818 C452.273,114.847 457.971,120.545 465,120.545 C472.029,120.545 477.727,114.847 477.727,107.818 C477.727,100.789 472.029,95.091 465,95.091 C457.971,95.091 452.273,100.789 452.273,107.818 Z" />
            <path d="M490.455,114.182 L490.455,136.455 C490.455,137.298 490.119,138.108 489.523,138.704 C488.926,139.301 488.117,139.636 487.273,139.636 L442.727,139.636 C441.883,139.636 441.074,139.301 440.477,138.704 C439.881,138.108 439.545,137.298 439.545,136.455 L439.545,91.909 C439.545,91.065 439.881,90.256 440.477,89.659 C441.074,89.062 441.883,88.727 442.727,88.727 L487.273,88.727 C488.117,88.727 488.926,89.062 489.523,89.659 C490.119,90.256 490.455,91.065 490.455,91.909 L490.455,114.182 Z M496.818,114.182 L496.818,91.909 C496.818,89.377 495.812,86.95 494.022,85.159 C492.232,83.369 489.804,82.364 487.273,82.364 L442.727,82.364 C440.196,82.364 437.768,83.369 435.978,85.159 C434.188,86.95 433.182,89.377 433.182,91.909 L433.182,136.455 C433.182,138.986 434.188,141.414 435.978,143.204 C437.768,144.994 440.196,146 442.727,146 L487.273,146 C489.804,146 492.232,144.994 494.022,143.204 C495.812,141.414 496.818,138.986 496.818,136.455 L496.818,114.182 Z" />
        </g>
        <g id="Black-M" transform="translate(0,200)">
            <path d="M674.545,79.182 L674.545,85.545 C674.545,87.303 675.97,88.727 677.727,88.727 C679.485,88.727 680.909,87.303 680.909,85.545 L680.909,79.182 C680.909,77.425 679.485,76 677.727,76 C675.97,76 674.545,77.425 674.545,79.182 Z" />
            <path d="M652.273,142.818 L652.273,136.455 C652.273,135.611 652.608,134.801 653.205,134.205 C653.801,133.608 654.611,133.273 655.455,133.273 L674.545,133.273 C675.389,133.273 676.199,133.608 676.795,134.205 C677.392,134.801 677.727,135.611 677.727,136.455 L677.727,142.818 C677.727,144.575 679.152,146 680.909,146 C682.666,146 684.091,144.575 684.091,142.818 L684.091,136.455 C684.091,133.923 683.085,131.495 681.295,129.705 C679.505,127.915 677.077,126.909 674.545,126.909 L655.455,126.909 C652.923,126.909 650.495,127.915 648.705,129.705 C646.915,131.495 645.909,133.923 645.909,136.455 L645.909,142.818 C645.909,144.575 647.334,146 649.091,146 C650.848,146 652.273,144.575 652.273,142.818 Z" />
            <path d="M649.091,79.182 L649.091,85.545 C649.091,87.303 650.515,88.727 652.273,88.727 C654.03,88.727 655.455,87.303 655.455,85.545 L655.455,79.182 C655.455,77.425 654.03,76 652.273,76 C650.515,76 649.091,77.425 649.091,79.182 Z" />
            <path d="M658.636,107.818 C658.636,104.304 661.485,101.455 665,101.455 C668.515,101.455 671.364,104.304 671.364,107.818 C671.364,111.333 668.515,114.182 665,114.182 C661.485,114.182 658.636,111.333 658.636,107.818 Z M652.273,107.818 C652.273,114.847 657.971,120.545 665,120.545 C672.029,120.545 677.727,114.847 677.727,107.818 C677.727,100.789 672.029,95.091 665,95.091 C657.971,95.091 652.273,100.789 652.273,107.818 Z" />
            <path d="M690.455,114.182 L690.455,136.455 C690.455,137.298 690.119,138.108 689.523,138.704 C688.926,139.301 688.117,139.636 687.273,139.636 L642.727,139.636 C641.883,139.636 641.074,139.301 640.477,138.704 C639.881,138.108 639.545,137.298 639.545,136.455 L639.545,91.909 C639.545,91.065 639.881,90.256 640.477,89.659 C641.074,89.062 641.883,88.727 642.727,88.727 L687.273,88.727 C688.117,88.727 688.926,89.062 689.523,89.659 C690.119,90.256 690.455,91.065 690.455,91.909 L690.455,114.182 Z M696.818,114.182 L696.818,91.909 C696.818,89.377 695.812,86.95 694.022,85.159 C692.232,83.369 689.804,82.364 687.273,82.364 L642.727,82.364 C640.196,82.364 637.768,83.369 635.978,85.159 C634.188,86.95 633.182,89.377 633.182,91.909 L633.182,136.455 C633.182,138.986 634.188,141.414 635.978,143.204 C637.768,144.994 640.196,146 642.727,146 L687.273,146 C689.804,146 692.232,144.994 694.022,143.204 C695.812,141.414 696.818,138.986 696.818,136.455 L696.818,114.182 Z" />
        </g>
    </g>
</svg>