<?xml version="1.0" encoding="UTF-8"?>
<svg height="600" width="800" xmlns="http://www.w3.org/2000/svg" xmlns:xlink="http://www.w3.org/1999/xlink">
    <g id="Notes" font-family="LucidaGrande, 'Lucida Grande', sans-serif" font-size="13">
        <rect fill="white" height="600.0" width="800.0" x="0.0" y="0.0" />
        <g font-size="13">
            <text x="18.0" y="176.0">Small</text>
            <text x="18.0" y="376.0">Medium</text>
            <text x="18.0" y="576.0">Large</text>
        </g>
        <g font-size="9">
            <text x="250.0" y="30.0">Ultralight</text>
            <text x="450.0" y="30.0">Regular</text>
            <text x="650.0" y="30.0">Black</text>
            <text id="template-version" fill="#505050" text-anchor="end" x="785.0" y="575.0">Template v.3.0</text>
            <a href="https://github.com/swhitty/SwiftDraw">
                <text fill="#505050" text-anchor="end" x="785.0" y="590.0">https://github.com/swhitty/SwiftDraw</text>
            </a>
        </g>
    </g>
    <g id="Guides" stroke="rgb(39, 170, 225)" stroke-width="0.5">
        <path id="Capline-S" d="M18,76 l800,0" />
        <path id="H-reference" d="M85,145.755 L87.685,145.755 L113.369,79.287 L114.052,79.287 L114.052,76 L112.148,76 L85,145.755 Z M95.693,121.536 L130.996,121.536 L130.263,119.313 L96.474,119.313 L95.693,121.536 Z M139.15,145.755 L141.787,145.755 L114.638,76 L113.466,76 L113.466,79.287 L139.15,145.755 Z" stroke="none" transform="translate(0,200)" />
        <path id="Baseline-S" d="M18,146 l800,0" />
        <path id="left-margin-Ultralight-M" d="M223.824,256 l0,110" />
        <path id="right-margin-Ultralight-M" d="M306.176,256 l0,110" />
        <path id="left-margin-Regular-M" d="M423.824,256 l0,110" />
        <path id="right-margin-Regular-M" d="M506.176,256 l0,110" />
        <path id="left-margin-Black-M" d="M623.824,256 l0,110" />
        <path id="right-margin-Black-M" d="M706.176,256 l0,110" />
        <path id="Capline-M" d="M18,276 l800,0" />
        <path id="Baseline-M" d="M18,346 l800,0" />
        <path id="Capline-L" d="M18,476 l800,0" />
        <path id="Baseline-L" d="M18,546 l800,0" />
    </g>
    <g id="Symbols">
        <g id="Ultralight-M" transform="translate(0,200)">
            <path d="M281.471,76 L227.941,76 C225.667,76 223.824,77.844 223.824,80.118 C223.824,82.392 225.667,84.235 227.941,84.235 L281.471,84.235 C283.745,84.235 285.588,82.392 285.588,80.118 C285.588,77.844 283.745,76 281.471,76 Z" />
            <path d="M281.471,104.824 L227.941,104.824 C225.667,104.824 223.824,106.667 223.824,108.941 C223.824,111.215 225.667,113.059 227.941,113.059 L281.471,113.059 C283.745,113.059 285.588,111.215 285.588,108.941 C285.588,106.667 283.745,104.824 281.471,104.824 Z" />
            <path d="M260.882,133.647 L227.941,133.647 C225.667,133.647 223.824,135.491 223.824,137.765 C223.824,140.039 225.667,141.882 227.941,141.882 L260.882,141.882 C263.156,141.882 265,140.039 265,137.765 C265,135.491 263.156,133.647 260.882,133.647 Z" />
            <path d="M274.441,136.559 L282.677,144.794 C284.285,146.402 286.892,146.402 288.5,144.794 L304.97,128.323 C306.578,126.715 306.578,124.108 304.97,122.5 C303.362,120.892 300.755,120.892 299.147,122.5 L282.677,138.971 L288.5,138.971 L280.265,130.735 C278.657,129.127 276.049,129.127 274.441,130.735 C272.833,132.343 272.833,134.951 274.441,136.559 Z" />
        </g>
        <g id="Regular-M" transform="translate(0,200)">
            <path d="M481.471,76 L427.941,76 C425.667,76 423.824,77.844 423.824,80.118 C423.824,82.392 425.667,84.235 427.941,84.235 L481.471,84.235 C483.745,84.235 485.588,82.392 485.588,80.118 C485.588,77.844 483.745,76 481.471,76 Z" />
            <path d="M481.471,104.824 L427.941,104.824 C425.667,104.824 423.824,106.667 423.824,108.941 C423.824,111.215 425.667,113.059 427.941,113.059 L481.471,113.059 C483.745,113.059 485.588,111.215 485.588,108.941 C485.588,106.667 483.745,104.824 481.471,104.824 Z" />
            <path d="M460.882,133.647 L427.941,133.647 C425.667,133.647 423.824,135.491 423.824,137.765 C423.824,140.039 425.667,141.882 427.941,141.882 L460.882,141.882 C463.156,141.882 465,140.039 465,137.765 C465,135.491 463.156,133.647 460.882,133.647 Z" />
            <path d="M474.441,136.559 L482.677,144.794 C484.285,146.402 486.892,146.402 488.5,144.794 L504.97,128.323 C506.578,126.715 506.578,124.108 504.97,122.5 C503.362,120.892 500.755,120.892 499.147,122.5 L482.677,138.971 L488.5,138.971 L480.265,130.735 C478.656,129.127 476.049,129.127 474.441,130.735 C472.833,132.343 472.833,134.951 474.441,136.559 Z" />
        </g>
        <g id="Black-M" transform="translate(0,200)">
            <path d="M681.471,76 L627.941,76 C625.667,76 623.824,77.844 623.824,80.118 C623.824,82.392 625.667,84.235 627.941,84.235 L681.471,84.235 C683.745,84.235 685.588,82.392 685.588,80.118 C685.588,77.844 683.745,76 681.471,76 Z" />
            <path d="M681.471,104.824 L627.941,104.824 C625.667,104.824 623.824,106.667 623.824,108.941 C623.824,111.215 625.667,113.059 627.941,113.059 L681.471,113.059 C683.745,113.059 685.588,111.215 685.588,108.941 C685.588,106.667 683.745,104.824 681.471,104.824 Z" />
            <path d="M660.882,133.647 L627.941,133.647 C625.667,133.647 623.824,135.491 623.824,137.765 C623.824,140.039 625.667,141.882 627.941,141.882 L660.882,141.882 C663.156,141.882 665,140.039 665,137.765 C665,135.491 663.156,133.647 660.882,133.647 Z" />
            <path d="M674.441,136.559 L682.677,144.794 C684.285,146.402 686.892,146.402 688.5,144.794 L704.97,128.323 C706.578,126.715 706.578,124.108 704.97,122.5 C703.362,120.892 700.755,120.892 699.147,122.5 L682.677,138.971 L688.5,138.971 L680.265,130.735 C678.657,129.127 676.049,129.127 674.441,130.735 C672.833,132.343 672.833,134.951 674.441,136.559 Z" />
        </g>
    </g>
</svg>