<?xml version="1.0" encoding="UTF-8"?>
<svg height="600" width="800" xmlns="http://www.w3.org/2000/svg" xmlns:xlink="http://www.w3.org/1999/xlink">
    <g id="Notes" font-family="LucidaGrande, 'Lucida Grande', sans-serif" font-size="13">
        <rect fill="white" height="600.0" width="800.0" x="0.0" y="0.0" />
        <g font-size="13">
            <text x="18.0" y="176.0">Small</text>
            <text x="18.0" y="376.0">Medium</text>
            <text x="18.0" y="576.0">Large</text>
        </g>
        <g font-size="9">
            <text x="250.0" y="30.0">Ultralight</text>
            <text x="450.0" y="30.0">Regular</text>
            <text x="650.0" y="30.0">Black</text>
            <text id="template-version" fill="#505050" text-anchor="end" x="785.0" y="575.0">Template v.3.0</text>
            <a href="https://github.com/swhitty/SwiftDraw">
                <text fill="#505050" text-anchor="end" x="785.0" y="590.0">https://github.com/swhitty/SwiftDraw</text>
            </a>
        </g>
    </g>
    <g id="Guides" stroke="rgb(39, 170, 225)" stroke-width="0.5">
        <path id="Capline-S" d="M18,76 l800,0" />
        <path id="H-reference" d="M85,145.755 L87.685,145.755 L113.369,79.287 L114.052,79.287 L114.052,76 L112.148,76 L85,145.755 Z M95.693,121.536 L130.996,121.536 L130.263,119.313 L96.474,119.313 L95.693,121.536 Z M139.15,145.755 L141.787,145.755 L114.638,76 L113.466,76 L113.466,79.287 L139.15,145.755 Z" stroke="none" transform="translate(0,200)" />
        <path id="Baseline-S" d="M18,146 l800,0" />
        <path id="left-margin-Ultralight-M" d="M221.25,256 l0,110" />
        <path id="right-margin-Ultralight-M" d="M308.75,256 l0,110" />
        <path id="left-margin-Regular-M" d="M421.25,256 l0,110" />
        <path id="right-margin-Regular-M" d="M508.75,256 l0,110" />
        <path id="left-margin-Black-M" d="M621.25,256 l0,110" />
        <path id="right-margin-Black-M" d="M708.75,256 l0,110" />
        <path id="Capline-M" d="M18,276 l800,0" />
        <path id="Baseline-M" d="M18,346 l800,0" />
        <path id="Capline-L" d="M18,476 l800,0" />
        <path id="Baseline-L" d="M18,546 l800,0" />
    </g>
    <g id="Symbols">
        <g id="Ultralight-M" transform="translate(0,200)">
            <path d="M300,111 L300,132.875 C300,134.035 299.539,135.148 298.719,135.969 C297.898,136.789 296.785,137.25 295.625,137.25 L234.375,137.25 C233.215,137.25 232.102,136.789 231.281,135.969 C230.461,135.148 230,134.035 230,132.875 L230,89.125 C230,87.965 230.461,86.852 231.281,86.031 C232.102,85.211 233.215,84.75 234.375,84.75 L295.625,84.75 C296.785,84.75 297.898,85.211 298.719,86.031 C299.539,86.852 300,87.965 300,89.125 L300,111 Z M308.75,111 L308.75,89.125 C308.75,85.644 307.367,82.306 304.906,79.844 C302.444,77.383 299.106,76 295.625,76 L234.375,76 C230.894,76 227.556,77.383 225.094,79.844 C222.633,82.306 221.25,85.644 221.25,89.125 L221.25,132.875 C221.25,136.356 222.633,139.694 225.094,142.156 C227.556,144.617 230.894,146 234.375,146 L295.625,146 C299.106,146 302.444,144.617 304.906,142.156 C307.367,139.694 308.75,136.356 308.75,132.875 L308.75,111 Z" />
            <path d="M243.125,128.5 L260.625,128.5 C263.041,128.5 265,126.541 265,124.125 C265,121.709 263.041,119.75 260.625,119.75 L243.125,119.75 C240.709,119.75 238.75,121.709 238.75,124.125 C238.75,126.541 240.709,128.5 243.125,128.5 Z M278.125,128.5 L286.875,128.5 C289.291,128.5 291.25,126.541 291.25,124.125 C291.25,121.709 289.291,119.75 286.875,119.75 L278.125,119.75 C275.709,119.75 273.75,121.709 273.75,124.125 C273.75,126.541 275.709,128.5 278.125,128.5 Z M243.125,111 L251.875,111 C254.291,111 256.25,109.041 256.25,106.625 C256.25,104.209 254.291,102.25 251.875,102.25 L243.125,102.25 C240.709,102.25 238.75,104.209 238.75,106.625 C238.75,109.041 240.709,111 243.125,111 Z M269.375,111 L286.875,111 C289.291,111 291.25,109.041 291.25,106.625 C291.25,104.209 289.291,102.25 286.875,102.25 L269.375,102.25 C266.959,102.25 265,104.209 265,106.625 C265,109.041 266.959,111 269.375,111 Z" />
        </g>
        <g id="Regular-M" transform="translate(0,200)">
            <path d="M500,111 L500,132.875 C500,134.035 499.539,135.148 498.719,135.969 C497.898,136.789 496.785,137.25 495.625,137.25 L434.375,137.25 C433.215,137.25 432.102,136.789 431.281,135.969 C430.461,135.148 430,134.035 430,132.875 L430,89.125 C430,87.965 430.461,86.852 431.281,86.031 C432.102,85.211 433.215,84.75 434.375,84.75 L495.625,84.75 C496.785,84.75 497.898,85.211 498.719,86.031 C499.539,86.852 500,87.965 500,89.125 L500,111 Z M508.75,111 L508.75,89.125 C508.75,85.644 507.367,82.306 504.906,79.844 C502.444,77.383 499.106,76 495.625,76 L434.375,76 C430.894,76 427.556,77.383 425.094,79.844 C422.633,82.306 421.25,85.644 421.25,89.125 L421.25,132.875 C421.25,136.356 422.633,139.694 425.094,142.156 C427.556,144.617 430.894,146 434.375,146 L495.625,146 C499.106,146 502.444,144.617 504.906,142.156 C507.367,139.694 508.75,136.356 508.75,132.875 L508.75,111 Z" />
            <path d="M443.125,128.5 L460.625,128.5 C463.041,128.5 465,126.541 465,124.125 C465,121.709 463.041,119.75 460.625,119.75 L443.125,119.75 C440.709,119.75 438.75,121.709 438.75,124.125 C438.75,126.541 440.709,128.5 443.125,128.5 Z M478.125,128.5 L486.875,128.5 C489.291,128.5 491.25,126.541 491.25,124.125 C491.25,121.709 489.291,119.75 486.875,119.75 L478.125,119.75 C475.709,119.75 473.75,121.709 473.75,124.125 C473.75,126.541 475.709,128.5 478.125,128.5 Z M443.125,111 L451.875,111 C454.291,111 456.25,109.041 456.25,106.625 C456.25,104.209 454.291,102.25 451.875,102.25 L443.125,102.25 C440.709,102.25 438.75,104.209 438.75,106.625 C438.75,109.041 440.709,111 443.125,111 Z M469.375,111 L486.875,111 C489.291,111 491.25,109.041 491.25,106.625 C491.25,104.209 489.291,102.25 486.875,102.25 L469.375,102.25 C466.959,102.25 465,104.209 465,106.625 C465,109.041 466.959,111 469.375,111 Z" />
        </g>
        <g id="Black-M" transform="translate(0,200)">
            <path d="M700,111 L700,132.875 C700,134.035 699.539,135.148 698.719,135.969 C697.898,136.789 696.785,137.25 695.625,137.25 L634.375,137.25 C633.215,137.25 632.102,136.789 631.281,135.969 C630.461,135.148 630,134.035 630,132.875 L630,89.125 C630,87.965 630.461,86.852 631.281,86.031 C632.102,85.211 633.215,84.75 634.375,84.75 L695.625,84.75 C696.785,84.75 697.898,85.211 698.719,86.031 C699.539,86.852 700,87.965 700,89.125 L700,111 Z M708.75,111 L708.75,89.125 C708.75,85.644 707.367,82.306 704.906,79.844 C702.444,77.383 699.106,76 695.625,76 L634.375,76 C630.894,76 627.556,77.383 625.094,79.844 C622.633,82.306 621.25,85.644 621.25,89.125 L621.25,132.875 C621.25,136.356 622.633,139.694 625.094,142.156 C627.556,144.617 630.894,146 634.375,146 L695.625,146 C699.106,146 702.444,144.617 704.906,142.156 C707.367,139.694 708.75,136.356 708.75,132.875 L708.75,111 Z" />
            <path d="M643.125,128.5 L660.625,128.5 C663.041,128.5 665,126.541 665,124.125 C665,121.709 663.041,119.75 660.625,119.75 L643.125,119.75 C640.709,119.75 638.75,121.709 638.75,124.125 C638.75,126.541 640.709,128.5 643.125,128.5 Z M678.125,128.5 L686.875,128.5 C689.291,128.5 691.25,126.541 691.25,124.125 C691.25,121.709 689.291,119.75 686.875,119.75 L678.125,119.75 C675.709,119.75 673.75,121.709 673.75,124.125 C673.75,126.541 675.709,128.5 678.125,128.5 Z M643.125,111 L651.875,111 C654.291,111 656.25,109.041 656.25,106.625 C656.25,104.209 654.291,102.25 651.875,102.25 L643.125,102.25 C640.709,102.25 638.75,104.209 638.75,106.625 C638.75,109.041 640.709,111 643.125,111 Z M669.375,111 L686.875,111 C689.291,111 691.25,109.041 691.25,106.625 C691.25,104.209 689.291,102.25 686.875,102.25 L669.375,102.25 C666.959,102.25 665,104.209 665,106.625 C665,109.041 666.959,111 669.375,111 Z" />
        </g>
    </g>
</svg>