<?xml version="1.0" encoding="UTF-8"?>
<svg height="600" width="800" xmlns="http://www.w3.org/2000/svg" xmlns:xlink="http://www.w3.org/1999/xlink">
    <g id="Notes" font-family="LucidaGrande, 'Lucida Grande', sans-serif" font-size="13">
        <rect fill="white" height="600.0" width="800.0" x="0.0" y="0.0" />
        <g font-size="13">
            <text x="18.0" y="176.0">Small</text>
            <text x="18.0" y="376.0">Medium</text>
            <text x="18.0" y="576.0">Large</text>
        </g>
        <g font-size="9">
            <text x="250.0" y="30.0">Ultralight</text>
            <text x="450.0" y="30.0">Regular</text>
            <text x="650.0" y="30.0">Black</text>
            <text id="template-version" fill="#505050" text-anchor="end" x="785.0" y="575.0">Template v.3.0</text>
            <a href="https://github.com/swhitty/SwiftDraw">
                <text fill="#505050" text-anchor="end" x="785.0" y="590.0">https://github.com/swhitty/SwiftDraw</text>
            </a>
        </g>
    </g>
    <g id="Guides" stroke="rgb(39, 170, 225)" stroke-width="0.5">
        <path id="Capline-S" d="M18,76 l800,0" />
        <path id="H-reference" d="M85,145.755 L87.685,145.755 L113.369,79.287 L114.052,79.287 L114.052,76 L112.148,76 L85,145.755 Z M95.693,121.536 L130.996,121.536 L130.263,119.313 L96.474,119.313 L95.693,121.536 Z M139.15,145.755 L141.787,145.755 L114.638,76 L113.466,76 L113.466,79.287 L139.15,145.755 Z" stroke="none" transform="translate(0,200)" />
        <path id="Baseline-S" d="M18,146 l800,0" />
        <path id="left-margin-Ultralight-M" d="M231.591,256 l0,110" />
        <path id="right-margin-Ultralight-M" d="M298.409,256 l0,110" />
        <path id="left-margin-Regular-M" d="M431.591,256 l0,110" />
        <path id="right-margin-Regular-M" d="M498.409,256 l0,110" />
        <path id="left-margin-Black-M" d="M631.591,256 l0,110" />
        <path id="right-margin-Black-M" d="M698.409,256 l0,110" />
        <path id="Capline-M" d="M18,276 l800,0" />
        <path id="Baseline-M" d="M18,346 l800,0" />
        <path id="Capline-L" d="M18,476 l800,0" />
        <path id="Baseline-L" d="M18,546 l800,0" />
    </g>
    <g id="Symbols">
        <g id="Ultralight-M" transform="translate(0,200)">
            <path d="M274.959,76.932 L267.961,84.25 C263.301,89.222 263.301,97.142 267.94,102.091 L273.438,107.841 C278.192,112.714 285.766,112.714 290.498,107.863 L297.518,100.523 C298.706,99.28 298.706,97.265 297.518,96.023 C296.33,94.78 294.403,94.78 293.215,96.023 L286.217,103.341 C283.872,105.744 280.085,105.744 277.719,103.319 L272.264,97.614 C269.966,95.162 269.966,91.202 272.285,88.727 L279.262,81.432 C280.45,80.189 280.45,78.175 279.262,76.932 C278.074,75.689 276.147,75.689 274.959,76.932 Z" />
            <path d="M276.219,118.296 L240.621,81.068 C239.441,79.835 237.531,79.824 236.34,81.045 C233.302,84.157 231.591,88.417 231.591,92.864 C231.591,97.31 233.302,101.57 236.34,104.682 L258.529,127.886 C261.824,131.332 267.596,131.332 271.203,128.031 L276.219,122.795 C277.408,121.553 277.408,119.538 276.219,118.296 Z M271.917,122.795 L271.917,118.296 L267.048,123.386 C265.936,124.395 263.797,124.395 262.832,123.386 L240.621,100.159 C238.729,98.221 237.676,95.6 237.676,92.864 C237.676,90.127 238.729,87.506 240.599,85.591 L236.318,85.568 L271.917,122.795 Z M271.917,122.795 L293.215,145.068 C294.403,146.311 296.33,146.311 297.518,145.068 C298.706,143.825 298.706,141.811 297.518,140.568 L276.219,118.296 C275.031,117.053 273.105,117.053 271.917,118.296 C270.728,119.538 270.728,121.553 271.917,122.795 Z" />
            <path d="M236.952,144.449 L256.425,124.404 C257.623,123.171 257.638,121.157 256.459,119.904 C255.28,118.652 253.354,118.636 252.156,119.869 L232.684,139.914 C231.486,141.147 231.471,143.162 232.65,144.414 C233.828,145.666 235.755,145.682 236.952,144.449 Z" />
            <path d="M284.087,86.477 L262.789,108.75 C261.6,109.993 261.6,112.007 262.789,113.25 C263.977,114.492 265.903,114.492 267.092,113.25 L288.39,90.977 C289.578,89.735 289.578,87.72 288.39,86.477 C287.202,85.235 285.275,85.235 284.087,86.477 Z" />
        </g>
        <g id="Regular-M" transform="translate(0,200)">
            <path d="M474.959,76.932 L467.961,84.25 C463.301,89.222 463.301,97.142 467.94,102.091 L473.438,107.841 C478.192,112.714 485.766,112.714 490.498,107.863 L497.518,100.523 C498.706,99.28 498.706,97.265 497.518,96.023 C496.33,94.78 494.403,94.78 493.215,96.023 L486.217,103.341 C483.872,105.744 480.085,105.744 477.719,103.319 L472.264,97.614 C469.966,95.162 469.966,91.202 472.285,88.727 L479.262,81.432 C480.45,80.189 480.45,78.175 479.262,76.932 C478.074,75.689 476.147,75.689 474.959,76.932 Z" />
            <path d="M476.219,118.296 L440.621,81.068 C439.441,79.835 437.531,79.824 436.34,81.045 C433.302,84.157 431.591,88.417 431.591,92.864 C431.591,97.31 433.302,101.57 436.34,104.682 L458.529,127.886 C461.824,131.332 467.596,131.332 471.203,128.031 L476.219,122.795 C477.408,121.553 477.408,119.538 476.219,118.296 Z M471.917,122.795 L471.917,118.296 L467.048,123.386 C465.936,124.395 463.797,124.395 462.832,123.386 L440.621,100.159 C438.729,98.221 437.676,95.6 437.676,92.864 C437.676,90.127 438.729,87.506 440.599,85.591 L436.318,85.568 L471.917,122.795 Z M471.917,122.795 L493.215,145.068 C494.403,146.311 496.33,146.311 497.518,145.068 C498.706,143.825 498.706,141.811 497.518,140.568 L476.219,118.296 C475.031,117.053 473.105,117.053 471.917,118.296 C470.728,119.538 470.728,121.553 471.917,122.795 Z" />
            <path d="M436.952,144.449 L456.425,124.404 C457.623,123.171 457.638,121.157 456.459,119.904 C455.28,118.652 453.354,118.636 452.156,119.869 L432.684,139.914 C431.486,141.147 431.471,143.162 432.65,144.414 C433.828,145.666 435.755,145.682 436.952,144.449 Z" />
            <path d="M484.087,86.477 L462.789,108.75 C461.6,109.993 461.6,112.007 462.789,113.25 C463.977,114.492 465.903,114.492 467.092,113.25 L488.39,90.977 C489.578,89.735 489.578,87.72 488.39,86.477 C487.202,85.235 485.275,85.235 484.087,86.477 Z" />
        </g>
        <g id="Black-M" transform="translate(0,200)">
            <path d="M674.959,76.932 L667.961,84.25 C663.301,89.222 663.301,97.142 667.94,102.091 L673.438,107.841 C678.192,112.714 685.766,112.714 690.498,107.863 L697.518,100.523 C698.706,99.28 698.706,97.265 697.518,96.023 C696.33,94.78 694.403,94.78 693.215,96.023 L686.217,103.341 C683.872,105.744 680.085,105.744 677.719,103.319 L672.264,97.614 C669.966,95.162 669.966,91.202 672.285,88.727 L679.262,81.432 C680.45,80.189 680.45,78.175 679.262,76.932 C678.074,75.689 676.147,75.689 674.959,76.932 Z" />
            <path d="M676.219,118.296 L640.621,81.068 C639.441,79.835 637.531,79.824 636.34,81.045 C633.302,84.157 631.591,88.417 631.591,92.864 C631.591,97.31 633.302,101.57 636.34,104.682 L658.529,127.886 C661.824,131.332 667.596,131.332 671.203,128.031 L676.219,122.795 C677.408,121.553 677.408,119.538 676.219,118.296 Z M671.917,122.795 L671.917,118.296 L667.048,123.386 C665.936,124.395 663.797,124.395 662.832,123.386 L640.621,100.159 C638.729,98.221 637.676,95.6 637.676,92.864 C637.676,90.127 638.729,87.506 640.599,85.591 L636.318,85.568 L671.917,122.795 Z M671.917,122.795 L693.215,145.068 C694.403,146.311 696.33,146.311 697.518,145.068 C698.706,143.825 698.706,141.811 697.518,140.568 L676.219,118.296 C675.031,117.053 673.105,117.053 671.917,118.296 C670.728,119.538 670.728,121.553 671.917,122.795 Z" />
            <path d="M636.952,144.449 L656.425,124.404 C657.623,123.171 657.638,121.157 656.459,119.904 C655.28,118.652 653.354,118.636 652.156,119.869 L632.683,139.914 C631.486,141.147 631.471,143.162 632.65,144.414 C633.828,145.666 635.755,145.682 636.952,144.449 Z" />
            <path d="M684.087,86.477 L662.789,108.75 C661.6,109.993 661.6,112.007 662.789,113.25 C663.977,114.492 665.903,114.492 667.091,113.25 L688.39,90.977 C689.578,89.735 689.578,87.72 688.39,86.477 C687.202,85.235 685.275,85.235 684.087,86.477 Z" />
        </g>
    </g>
</svg>