<?xml version="1.0" encoding="UTF-8"?>
<svg height="600" width="800" xmlns="http://www.w3.org/2000/svg" xmlns:xlink="http://www.w3.org/1999/xlink">
    <g id="Notes" font-family="LucidaGrande, 'Lucida Grande', sans-serif" font-size="13">
        <rect fill="white" height="600.0" width="800.0" x="0.0" y="0.0" />
        <g font-size="13">
            <text x="18.0" y="176.0">Small</text>
            <text x="18.0" y="376.0">Medium</text>
            <text x="18.0" y="576.0">Large</text>
        </g>
        <g font-size="9">
            <text x="250.0" y="30.0">Ultralight</text>
            <text x="450.0" y="30.0">Regular</text>
            <text x="650.0" y="30.0">Black</text>
            <text id="template-version" fill="#505050" text-anchor="end" x="785.0" y="575.0">Template v.3.0</text>
            <a href="https://github.com/swhitty/SwiftDraw">
                <text fill="#505050" text-anchor="end" x="785.0" y="590.0">https://github.com/swhitty/SwiftDraw</text>
            </a>
        </g>
    </g>
    <g id="Guides" stroke="rgb(39, 170, 225)" stroke-width="0.5">
        <path id="Capline-S" d="M18,76 l800,0" />
        <path id="H-reference" d="M85,145.755 L87.685,145.755 L113.369,79.287 L114.052,79.287 L114.052,76 L112.148,76 L85,145.755 Z M95.693,121.536 L130.996,121.536 L130.263,119.313 L96.474,119.313 L95.693,121.536 Z M139.15,145.755 L141.787,145.755 L114.638,76 L113.466,76 L113.466,79.287 L139.15,145.755 Z" stroke="none" transform="translate(0,200)" />
        <path id="Baseline-S" d="M18,146 l800,0" />
        <path id="left-margin-Ultralight-M" d="M233.182,256 l0,110" />
        <path id="right-margin-Ultralight-M" d="M296.818,256 l0,110" />
        <path id="left-margin-Regular-M" d="M433.182,256 l0,110" />
        <path id="right-margin-Regular-M" d="M496.818,256 l0,110" />
        <path id="left-margin-Black-M" d="M633.182,256 l0,110" />
        <path id="right-margin-Black-M" d="M696.818,256 l0,110" />
        <path id="Capline-M" d="M18,276 l800,0" />
        <path id="Baseline-M" d="M18,346 l800,0" />
        <path id="Capline-L" d="M18,476 l800,0" />
        <path id="Baseline-L" d="M18,546 l800,0" />
    </g>
    <g id="Symbols">
        <g id="Ultralight-M" transform="translate(0,200)">
            <path d="M249.091,79.182 L249.091,91.909 C249.091,93.666 250.515,95.091 252.273,95.091 C254.03,95.091 255.455,93.666 255.455,91.909 L255.455,79.182 C255.455,77.425 254.03,76 252.273,76 C250.515,76 249.091,77.425 249.091,79.182 Z" />
            <path d="M274.545,79.182 L274.545,91.909 C274.545,93.666 275.97,95.091 277.727,95.091 C279.485,95.091 280.909,93.666 280.909,91.909 L280.909,79.182 C280.909,77.425 279.485,76 277.727,76 C275.97,76 274.545,77.425 274.545,79.182 Z" />
            <path d="M290.455,114.182 L290.455,136.455 C290.455,137.298 290.119,138.108 289.523,138.704 C288.926,139.301 288.117,139.636 287.273,139.636 L242.727,139.636 C241.883,139.636 241.074,139.301 240.477,138.704 C239.881,138.108 239.545,137.298 239.545,136.455 L239.545,91.909 C239.545,91.065 239.881,90.256 240.477,89.659 C241.074,89.062 241.883,88.727 242.727,88.727 L287.273,88.727 C288.117,88.727 288.926,89.062 289.523,89.659 C290.119,90.256 290.455,91.065 290.455,91.909 L290.455,114.182 Z M296.818,114.182 L296.818,91.909 C296.818,89.377 295.812,86.95 294.022,85.159 C292.232,83.369 289.804,82.364 287.273,82.364 L242.727,82.364 C240.196,82.364 237.768,83.369 235.978,85.159 C234.188,86.95 233.182,89.377 233.182,91.909 L233.182,136.455 C233.182,138.986 234.188,141.414 235.978,143.204 C237.768,144.994 240.196,146 242.727,146 L287.273,146 C289.804,146 292.232,144.994 294.022,143.204 C295.812,141.414 296.818,138.986 296.818,136.455 L296.818,114.182 Z" />
            <path d="M236.364,107.818 L293.636,107.818 C295.394,107.818 296.818,106.394 296.818,104.636 C296.818,102.879 295.394,101.455 293.636,101.455 L236.364,101.455 C234.606,101.455 233.182,102.879 233.182,104.636 C233.182,106.394 234.606,107.818 236.364,107.818 Z" />
            <path d="M252.273,120.545 L252.305,120.545 C254.062,120.545 255.486,119.121 255.486,117.364 C255.486,115.606 254.062,114.182 252.305,114.182 L252.273,114.182 C250.515,114.182 249.091,115.606 249.091,117.364 C249.091,119.121 250.515,120.545 252.273,120.545 Z" />
            <path d="M265,120.545 L265.032,120.545 C266.789,120.545 268.214,119.121 268.214,117.364 C268.214,115.606 266.789,114.182 265.032,114.182 L265,114.182 C263.243,114.182 261.818,115.606 261.818,117.364 C261.818,119.121 263.243,120.545 265,120.545 Z" />
            <path d="M277.727,120.545 L277.759,120.545 C279.516,120.545 280.941,119.121 280.941,117.364 C280.941,115.606 279.516,114.182 277.759,114.182 L277.727,114.182 C275.97,114.182 274.545,115.606 274.545,117.364 C274.545,119.121 275.97,120.545 277.727,120.545 Z" />
            <path d="M252.273,133.273 L252.305,133.273 C254.062,133.273 255.486,131.848 255.486,130.091 C255.486,128.334 254.062,126.909 252.305,126.909 L252.273,126.909 C250.515,126.909 249.091,128.334 249.091,130.091 C249.091,131.848 250.515,133.273 252.273,133.273 Z" />
            <path d="M265,133.273 L265.032,133.273 C266.789,133.273 268.214,131.848 268.214,130.091 C268.214,128.334 266.789,126.909 265.032,126.909 L265,126.909 C263.243,126.909 261.818,128.334 261.818,130.091 C261.818,131.848 263.243,133.273 265,133.273 Z" />
            <path d="M277.727,133.273 L277.759,133.273 C279.516,133.273 280.941,131.848 280.941,130.091 C280.941,128.334 279.516,126.909 277.759,126.909 L277.727,126.909 C275.97,126.909 274.545,128.334 274.545,130.091 C274.545,131.848 275.97,133.273 277.727,133.273 Z" />
        </g>
        <g id="Regular-M" transform="translate(0,200)">
            <path d="M449.091,79.182 L449.091,91.909 C449.091,93.666 450.515,95.091 452.273,95.091 C454.03,95.091 455.455,93.666 455.455,91.909 L455.455,79.182 C455.455,77.425 454.03,76 452.273,76 C450.515,76 449.091,77.425 449.091,79.182 Z" />
            <path d="M474.545,79.182 L474.545,91.909 C474.545,93.666 475.97,95.091 477.727,95.091 C479.485,95.091 480.909,93.666 480.909,91.909 L480.909,79.182 C480.909,77.425 479.485,76 477.727,76 C475.97,76 474.545,77.425 474.545,79.182 Z" />
            <path d="M490.455,114.182 L490.455,136.455 C490.455,137.298 490.119,138.108 489.523,138.704 C488.926,139.301 488.117,139.636 487.273,139.636 L442.727,139.636 C441.883,139.636 441.074,139.301 440.477,138.704 C439.881,138.108 439.545,137.298 439.545,136.455 L439.545,91.909 C439.545,91.065 439.881,90.256 440.477,89.659 C441.074,89.062 441.883,88.727 442.727,88.727 L487.273,88.727 C488.117,88.727 488.926,89.062 489.523,89.659 C490.119,90.256 490.455,91.065 490.455,91.909 L490.455,114.182 Z M496.818,114.182 L496.818,91.909 C496.818,89.377 495.812,86.95 494.022,85.159 C492.232,83.369 489.804,82.364 487.273,82.364 L442.727,82.364 C440.196,82.364 437.768,83.369 435.978,85.159 C434.188,86.95 433.182,89.377 433.182,91.909 L433.182,136.455 C433.182,138.986 434.188,141.414 435.978,143.204 C437.768,144.994 440.196,146 442.727,146 L487.273,146 C489.804,146 492.232,144.994 494.022,143.204 C495.812,141.414 496.818,138.986 496.818,136.455 L496.818,114.182 Z" />
            <path d="M436.364,107.818 L493.636,107.818 C495.394,107.818 496.818,106.394 496.818,104.636 C496.818,102.879 495.394,101.455 493.636,101.455 L436.364,101.455 C434.606,101.455 433.182,102.879 433.182,104.636 C433.182,106.394 434.606,107.818 436.364,107.818 Z" />
            <path d="M452.273,120.545 L452.305,120.545 C454.062,120.545 455.486,119.121 455.486,117.364 C455.486,115.606 454.062,114.182 452.305,114.182 L452.273,114.182 C450.515,114.182 449.091,115.606 449.091,117.364 C449.091,119.121 450.515,120.545 452.273,120.545 Z" />
            <path d="M465,120.545 L465.032,120.545 C466.789,120.545 468.214,119.121 468.214,117.364 C468.214,115.606 466.789,114.182 465.032,114.182 L465,114.182 C463.243,114.182 461.818,115.606 461.818,117.364 C461.818,119.121 463.243,120.545 465,120.545 Z" />
            <path d="M477.727,120.545 L477.759,120.545 C479.516,120.545 480.941,119.121 480.941,117.364 C480.941,115.606 479.516,114.182 477.759,114.182 L477.727,114.182 C475.97,114.182 474.545,115.606 474.545,117.364 C474.545,119.121 475.97,120.545 477.727,120.545 Z" />
            <path d="M452.273,133.273 L452.305,133.273 C454.062,133.273 455.486,131.848 455.486,130.091 C455.486,128.334 454.062,126.909 452.305,126.909 L452.273,126.909 C450.515,126.909 449.091,128.334 449.091,130.091 C449.091,131.848 450.515,133.273 452.273,133.273 Z" />
            <path d="M465,133.273 L465.032,133.273 C466.789,133.273 468.214,131.848 468.214,130.091 C468.214,128.334 466.789,126.909 465.032,126.909 L465,126.909 C463.243,126.909 461.818,128.334 461.818,130.091 C461.818,131.848 463.243,133.273 465,133.273 Z" />
            <path d="M477.727,133.273 L477.759,133.273 C479.516,133.273 480.941,131.848 480.941,130.091 C480.941,128.334 479.516,126.909 477.759,126.909 L477.727,126.909 C475.97,126.909 474.545,128.334 474.545,130.091 C474.545,131.848 475.97,133.273 477.727,133.273 Z" />
        </g>
        <g id="Black-M" transform="translate(0,200)">
            <path d="M649.091,79.182 L649.091,91.909 C649.091,93.666 650.515,95.091 652.273,95.091 C654.03,95.091 655.455,93.666 655.455,91.909 L655.455,79.182 C655.455,77.425 654.03,76 652.273,76 C650.515,76 649.091,77.425 649.091,79.182 Z" />
            <path d="M674.545,79.182 L674.545,91.909 C674.545,93.666 675.97,95.091 677.727,95.091 C679.485,95.091 680.909,93.666 680.909,91.909 L680.909,79.182 C680.909,77.425 679.485,76 677.727,76 C675.97,76 674.545,77.425 674.545,79.182 Z" />
            <path d="M690.455,114.182 L690.455,136.455 C690.455,137.298 690.119,138.108 689.523,138.704 C688.926,139.301 688.117,139.636 687.273,139.636 L642.727,139.636 C641.883,139.636 641.074,139.301 640.477,138.704 C639.881,138.108 639.545,137.298 639.545,136.455 L639.545,91.909 C639.545,91.065 639.881,90.256 640.477,89.659 C641.074,89.062 641.883,88.727 642.727,88.727 L687.273,88.727 C688.117,88.727 688.926,89.062 689.523,89.659 C690.119,90.256 690.455,91.065 690.455,91.909 L690.455,114.182 Z M696.818,114.182 L696.818,91.909 C696.818,89.377 695.812,86.95 694.022,85.159 C692.232,83.369 689.804,82.364 687.273,82.364 L642.727,82.364 C640.196,82.364 637.768,83.369 635.978,85.159 C634.188,86.95 633.182,89.377 633.182,91.909 L633.182,136.455 C633.182,138.986 634.188,141.414 635.978,143.204 C637.768,144.994 640.196,146 642.727,146 L687.273,146 C689.804,146 692.232,144.994 694.022,143.204 C695.812,141.414 696.818,138.986 696.818,136.455 L696.818,114.182 Z" />
            <path d="M636.364,107.818 L693.636,107.818 C695.394,107.818 696.818,106.394 696.818,104.636 C696.818,102.879 695.394,101.455 693.636,101.455 L636.364,101.455 C634.606,101.455 633.182,102.879 633.182,104.636 C633.182,106.394 634.606,107.818 636.364,107.818 Z" />
            <path d="M652.273,120.545 L652.305,120.545 C654.062,120.545 655.486,119.121 655.486,117.364 C655.486,115.606 654.062,114.182 652.305,114.182 L652.273,114.182 C650.515,114.182 649.091,115.606 649.091,117.364 C649.091,119.121 650.515,120.545 652.273,120.545 Z" />
            <path d="M665,120.545 L665.032,120.545 C666.789,120.545 668.214,119.121 668.214,117.364 C668.214,115.606 666.789,114.182 665.032,114.182 L665,114.182 C663.243,114.182 661.818,115.606 661.818,117.364 C661.818,119.121 663.243,120.545 665,120.545 Z" />
            <path d="M677.727,120.545 L677.759,120.545 C679.516,120.545 680.941,119.121 680.941,117.364 C680.941,115.606 679.516,114.182 677.759,114.182 L677.727,114.182 C675.97,114.182 674.545,115.606 674.545,117.364 C674.545,119.121 675.97,120.545 677.727,120.545 Z" />
            <path d="M652.273,133.273 L652.305,133.273 C654.062,133.273 655.486,131.848 655.486,130.091 C655.486,128.334 654.062,126.909 652.305,126.909 L652.273,126.909 C650.515,126.909 649.091,128.334 649.091,130.091 C649.091,131.848 650.515,133.273 652.273,133.273 Z" />
            <path d="M665,133.273 L665.032,133.273 C666.789,133.273 668.214,131.848 668.214,130.091 C668.214,128.334 666.789,126.909 665.032,126.909 L665,126.909 C663.243,126.909 661.818,128.334 661.818,130.091 C661.818,131.848 663.243,133.273 665,133.273 Z" />
            <path d="M677.727,133.273 L677.759,133.273 C679.516,133.273 680.941,131.848 680.941,130.091 C680.941,128.334 679.516,126.909 677.759,126.909 L677.727,126.909 C675.97,126.909 674.545,128.334 674.545,130.091 C674.545,131.848 675.97,133.273 677.727,133.273 Z" />
        </g>
    </g>
</svg>