<?xml version="1.0" encoding="UTF-8"?>
<svg height="600" width="800" xmlns="http://www.w3.org/2000/svg" xmlns:xlink="http://www.w3.org/1999/xlink">
    <g id="Notes" font-family="LucidaGrande, 'Lucida Grande', sans-serif" font-size="13">
        <rect fill="white" height="600.0" width="800.0" x="0.0" y="0.0" />
        <g font-size="13">
            <text x="18.0" y="176.0">Small</text>
            <text x="18.0" y="376.0">Medium</text>
            <text x="18.0" y="576.0">Large</text>
        </g>
        <g font-size="9">
            <text x="250.0" y="30.0">Ultralight</text>
            <text x="450.0" y="30.0">Regular</text>
            <text x="650.0" y="30.0">Black</text>
            <text id="template-version" fill="#505050" text-anchor="end" x="785.0" y="575.0">Template v.3.0</text>
            <a href="https://github.com/swhitty/SwiftDraw">
                <text fill="#505050" text-anchor="end" x="785.0" y="590.0">https://github.com/swhitty/SwiftDraw</text>
            </a>
        </g>
    </g>
    <g id="Guides" stroke="rgb(39, 170, 225)" stroke-width="0.5">
        <path id="Capline-S" d="M18,76 l800,0" />
        <path id="H-reference" d="M85,145.755 L87.685,145.755 L113.369,79.287 L114.052,79.287 L114.052,76 L112.148,76 L85,145.755 Z M95.693,121.536 L130.996,121.536 L130.263,119.313 L96.474,119.313 L95.693,121.536 Z M139.15,145.755 L141.787,145.755 L114.638,76 L113.466,76 L113.466,79.287 L139.15,145.755 Z" stroke="none" transform="translate(0,200)" />
        <path id="Baseline-S" d="M18,146 l800,0" />
        <path id="left-margin-Ultralight-M" d="M233.5,256 l0,110" />
        <path id="right-margin-Ultralight-M" d="M296.5,256 l0,110" />
        <path id="left-margin-Regular-M" d="M433.5,256 l0,110" />
        <path id="right-margin-Regular-M" d="M496.5,256 l0,110" />
        <path id="left-margin-Black-M" d="M633.5,256 l0,110" />
        <path id="right-margin-Black-M" d="M696.5,256 l0,110" />
        <path id="Capline-M" d="M18,276 l800,0" />
        <path id="Baseline-M" d="M18,346 l800,0" />
        <path id="Capline-L" d="M18,476 l800,0" />
        <path id="Baseline-L" d="M18,546 l800,0" />
    </g>
    <g id="Symbols">
        <g id="Ultralight-M" transform="translate(0,200)">
            <path d="M263.251,139 C251.279,138.998 241.358,129.718 240.556,117.773 C239.755,105.828 248.348,95.306 260.212,93.704 C272.076,92.103 283.151,99.97 285.546,111.7 C285.932,113.594 287.781,114.816 289.675,114.429 C291.569,114.043 292.791,112.194 292.404,110.3 C289.273,94.961 274.79,84.673 259.276,86.767 C243.761,88.862 232.524,102.621 233.572,118.241 C234.62,133.861 247.594,145.997 263.249,146 C265.182,146 266.75,144.434 266.75,142.501 C266.75,140.568 265.184,139 263.251,139 Z" />
            <path d="M272,111 L272,79.5 C272,77.567 270.433,76 268.5,76 C266.567,76 265,77.567 265,79.5 L265,111 C265,112.933 266.567,114.5 268.5,114.5 C270.433,114.5 272,112.933 272,111 Z" />
            <path d="M237,146 L293,146 C294.933,146 296.5,144.433 296.5,142.5 C296.5,140.567 294.933,139 293,139 L237,139 C235.067,139 233.5,140.567 233.5,142.5 C233.5,144.433 235.067,146 237,146 Z" />
            <path d="M258,111 L258,79.5 C258,77.567 256.433,76 254.5,76 C252.567,76 251,77.567 251,79.5 L251,111 C251,112.933 252.567,114.5 254.5,114.5 C256.433,114.5 258,112.933 258,111 Z" />
        </g>
        <g id="Regular-M" transform="translate(0,200)">
            <path d="M463.251,139 C451.279,138.998 441.358,129.718 440.556,117.773 C439.755,105.828 448.348,95.306 460.212,93.704 C472.076,92.103 483.151,99.97 485.546,111.7 C485.932,113.594 487.781,114.816 489.675,114.429 C491.569,114.043 492.791,112.194 492.404,110.3 C489.273,94.961 474.79,84.673 459.276,86.767 C443.761,88.862 432.524,102.621 433.572,118.241 C434.62,133.861 447.594,145.997 463.249,146 C465.182,146 466.75,144.434 466.75,142.501 C466.75,140.568 465.184,139 463.251,139 Z" />
            <path d="M472,111 L472,79.5 C472,77.567 470.433,76 468.5,76 C466.567,76 465,77.567 465,79.5 L465,111 C465,112.933 466.567,114.5 468.5,114.5 C470.433,114.5 472,112.933 472,111 Z" />
            <path d="M437,146 L493,146 C494.933,146 496.5,144.433 496.5,142.5 C496.5,140.567 494.933,139 493,139 L437,139 C435.067,139 433.5,140.567 433.5,142.5 C433.5,144.433 435.067,146 437,146 Z" />
            <path d="M458,111 L458,79.5 C458,77.567 456.433,76 454.5,76 C452.567,76 451,77.567 451,79.5 L451,111 C451,112.933 452.567,114.5 454.5,114.5 C456.433,114.5 458,112.933 458,111 Z" />
        </g>
        <g id="Black-M" transform="translate(0,200)">
            <path d="M663.251,139 C651.279,138.998 641.358,129.718 640.556,117.773 C639.755,105.828 648.348,95.306 660.212,93.704 C672.076,92.103 683.151,99.97 685.546,111.7 C685.932,113.594 687.781,114.816 689.675,114.429 C691.569,114.043 692.791,112.194 692.404,110.3 C689.273,94.961 674.79,84.673 659.276,86.767 C643.761,88.862 632.524,102.621 633.572,118.241 C634.62,133.861 647.594,145.997 663.249,146 C665.182,146 666.75,144.434 666.75,142.501 C666.75,140.568 665.184,139 663.251,139 Z" />
            <path d="M672,111 L672,79.5 C672,77.567 670.433,76 668.5,76 C666.567,76 665,77.567 665,79.5 L665,111 C665,112.933 666.567,114.5 668.5,114.5 C670.433,114.5 672,112.933 672,111 Z" />
            <path d="M637,146 L693,146 C694.933,146 696.5,144.433 696.5,142.5 C696.5,140.567 694.933,139 693,139 L637,139 C635.067,139 633.5,140.567 633.5,142.5 C633.5,144.433 635.067,146 637,146 Z" />
            <path d="M658,111 L658,79.5 C658,77.567 656.433,76 654.5,76 C652.567,76 651,77.567 651,79.5 L651,111 C651,112.933 652.567,114.5 654.5,114.5 C656.433,114.5 658,112.933 658,111 Z" />
        </g>
    </g>
</svg>