<?xml version="1.0" encoding="UTF-8"?>
<svg height="600" width="800" xmlns="http://www.w3.org/2000/svg" xmlns:xlink="http://www.w3.org/1999/xlink">
    <g id="Notes" font-family="LucidaGrande, 'Lucida Grande', sans-serif" font-size="13">
        <rect fill="white" height="600.0" width="800.0" x="0.0" y="0.0" />
        <g font-size="13">
            <text x="18.0" y="176.0">Small</text>
            <text x="18.0" y="376.0">Medium</text>
            <text x="18.0" y="576.0">Large</text>
        </g>
        <g font-size="9">
            <text x="250.0" y="30.0">Ultralight</text>
            <text x="450.0" y="30.0">Regular</text>
            <text x="650.0" y="30.0">Black</text>
            <text id="template-version" fill="#505050" text-anchor="end" x="785.0" y="575.0">Template v.3.0</text>
            <a href="https://github.com/swhitty/SwiftDraw">
                <text fill="#505050" text-anchor="end" x="785.0" y="590.0">https://github.com/swhitty/SwiftDraw</text>
            </a>
        </g>
    </g>
    <g id="Guides" stroke="rgb(39, 170, 225)" stroke-width="0.5">
        <path id="Capline-S" d="M18,76 l800,0" />
        <path id="H-reference" d="M85,145.755 L87.685,145.755 L113.369,79.287 L114.052,79.287 L114.052,76 L112.148,76 L85,145.755 Z M95.693,121.536 L130.996,121.536 L130.263,119.313 L96.474,119.313 L95.693,121.536 Z M139.15,145.755 L141.787,145.755 L114.638,76 L113.466,76 L113.466,79.287 L139.15,145.755 Z" stroke="none" transform="translate(0,200)" />
        <path id="Baseline-S" d="M18,146 l800,0" />
        <path id="left-margin-Ultralight-M" d="M226.5,256 l0,110" />
        <path id="right-margin-Ultralight-M" d="M303.5,256 l0,110" />
        <path id="left-margin-Regular-M" d="M426.5,256 l0,110" />
        <path id="right-margin-Regular-M" d="M503.5,256 l0,110" />
        <path id="left-margin-Black-M" d="M626.5,256 l0,110" />
        <path id="right-margin-Black-M" d="M703.5,256 l0,110" />
        <path id="Capline-M" d="M18,276 l800,0" />
        <path id="Baseline-M" d="M18,346 l800,0" />
        <path id="Capline-L" d="M18,476 l800,0" />
        <path id="Baseline-L" d="M18,546 l800,0" />
    </g>
    <g id="Symbols">
        <g id="Ultralight-M" transform="translate(0,200)">
            <path d="M259.05,133.499 L237,133.499 C236.072,133.499 235.182,133.143 234.525,132.508 C233.869,131.874 233.5,131.014 233.5,130.117 L233.5,86.147 C233.5,85.25 233.869,84.39 234.525,83.756 C235.182,83.121 236.072,82.765 237,82.765 L250.93,82.765 C252.154,82.753 253.268,83.327 253.922,84.287 L256.088,88.115 C258.174,91.195 261.468,92.911 264.999,92.912 L293,92.912 C293.928,92.912 294.818,93.268 295.475,93.902 C296.131,94.537 296.5,95.397 296.5,96.294 L296.5,107.456 C296.5,109.324 298.067,110.838 300,110.838 C301.933,110.838 303.5,109.324 303.5,107.456 L303.5,96.294 C303.5,93.603 302.394,91.022 300.425,89.119 C298.456,87.216 295.785,86.147 293,86.147 L265,86.147 C263.824,86.147 262.725,85.575 262.078,84.625 L259.912,80.797 C257.806,77.686 254.464,75.967 250.896,76 L237,76 C234.215,76 231.545,77.069 229.575,78.972 C227.606,80.875 226.5,83.456 226.5,86.147 L226.5,130.117 C226.5,132.808 227.606,135.389 229.575,137.292 C231.545,139.195 234.215,140.264 237,140.264 L259.05,140.264 C260.983,140.264 262.55,138.749 262.55,136.881 C262.55,135.013 260.983,133.499 259.05,133.499 Z" />
            <path d="M274.406,138.417 L277.636,137.125 C279.423,136.411 280.271,134.432 279.532,132.706 C278.793,130.98 276.746,130.16 274.96,130.874 L271.729,132.167 C269.943,132.881 269.094,134.859 269.834,136.585 C270.573,138.311 272.62,139.131 274.406,138.417 Z" />
            <path d="M277.639,123.11 L274.409,121.815 C272.624,121.099 270.576,121.917 269.835,123.642 C269.094,125.368 269.941,127.347 271.726,128.063 L274.957,129.358 C276.742,130.074 278.79,129.256 279.531,127.53 C280.272,125.805 279.425,123.826 277.639,123.11 Z" />
            <path d="M285.215,119.445 L283.874,116.323 C283.133,114.598 281.085,113.779 279.3,114.495 C277.515,115.211 276.668,117.19 277.409,118.916 L278.749,122.037 C279.49,123.763 281.538,124.581 283.323,123.865 C285.109,123.149 285.956,121.17 285.215,119.445 Z" />
            <path d="M278.749,138.197 L277.408,141.323 C276.668,143.048 277.516,145.027 279.301,145.742 C281.087,146.457 283.135,145.638 283.875,143.913 L285.215,140.788 C285.955,139.062 285.108,137.083 283.322,136.368 C281.536,135.653 279.489,136.472 278.749,138.197 Z" />
            <path d="M293.251,122.037 L294.591,118.916 C295.332,117.19 294.485,115.211 292.7,114.495 C290.915,113.779 288.867,114.598 288.126,116.323 L286.785,119.445 C286.044,121.17 286.891,123.149 288.677,123.865 C290.462,124.581 292.51,123.763 293.251,122.037 Z" />
            <path d="M294.589,141.326 L293.253,138.2 C292.514,136.474 290.467,135.653 288.681,136.367 C286.894,137.08 286.045,139.058 286.784,140.785 L288.121,143.91 C288.859,145.636 290.906,146.457 292.692,145.743 C294.479,145.03 295.328,143.052 294.589,141.326 Z" />
            <path d="M297.042,129.358 L300.276,128.063 C302.062,127.348 302.909,125.369 302.169,123.643 C301.429,121.918 299.381,121.099 297.596,121.814 L294.362,123.109 C292.576,123.825 291.729,125.803 292.469,127.529 C293.209,129.255 295.257,130.074 297.042,129.358 Z" />
            <path d="M294.362,137.124 L297.596,138.42 C299.381,139.135 301.429,138.316 302.169,136.59 C302.909,134.865 302.062,132.886 300.276,132.171 L297.042,130.875 C295.257,130.16 293.209,130.979 292.469,132.705 C291.729,134.43 292.576,136.409 294.362,137.124 Z" />
            <path d="M279,130.117 C279,126.381 282.134,123.352 286,123.352 C289.866,123.352 293,126.381 293,130.117 C293,133.853 289.866,136.881 286,136.881 C282.134,136.881 279,133.853 279,130.117 Z M272,130.117 C272,137.589 278.268,143.646 286,143.646 C293.732,143.646 300,137.589 300,130.117 C300,122.645 293.732,116.588 286,116.588 C278.268,116.588 272,122.645 272,130.117 Z" />
        </g>
        <g id="Regular-M" transform="translate(0,200)">
            <path d="M459.05,133.499 L437,133.499 C436.072,133.499 435.182,133.143 434.525,132.508 C433.869,131.874 433.5,131.014 433.5,130.117 L433.5,86.147 C433.5,85.25 433.869,84.39 434.525,83.756 C435.182,83.121 436.072,82.765 437,82.765 L450.93,82.765 C452.154,82.753 453.268,83.327 453.922,84.287 L456.088,88.115 C458.174,91.195 461.468,92.911 464.999,92.912 L493,92.912 C493.928,92.912 494.818,93.268 495.475,93.902 C496.131,94.537 496.5,95.397 496.5,96.294 L496.5,107.456 C496.5,109.324 498.067,110.838 500,110.838 C501.933,110.838 503.5,109.324 503.5,107.456 L503.5,96.294 C503.5,93.603 502.394,91.022 500.425,89.119 C498.456,87.216 495.785,86.147 493,86.147 L465,86.147 C463.824,86.147 462.725,85.575 462.078,84.625 L459.912,80.797 C457.806,77.686 454.464,75.967 450.896,76 L437,76 C434.215,76 431.545,77.069 429.575,78.972 C427.606,80.875 426.5,83.456 426.5,86.147 L426.5,130.117 C426.5,132.808 427.606,135.389 429.575,137.292 C431.545,139.195 434.215,140.264 437,140.264 L459.05,140.264 C460.983,140.264 462.55,138.749 462.55,136.881 C462.55,135.013 460.983,133.499 459.05,133.499 Z" />
            <path d="M474.406,138.417 L477.636,137.125 C479.423,136.411 480.271,134.432 479.532,132.706 C478.793,130.98 476.746,130.16 474.96,130.874 L471.729,132.167 C469.943,132.881 469.094,134.859 469.834,136.585 C470.573,138.311 472.62,139.131 474.406,138.417 Z" />
            <path d="M477.639,123.11 L474.409,121.815 C472.624,121.099 470.576,121.917 469.835,123.642 C469.094,125.368 469.941,127.347 471.726,128.063 L474.957,129.358 C476.742,130.074 478.79,129.256 479.531,127.53 C480.272,125.805 479.425,123.826 477.639,123.11 Z" />
            <path d="M485.215,119.445 L483.874,116.323 C483.133,114.598 481.085,113.779 479.3,114.495 C477.515,115.211 476.668,117.19 477.409,118.916 L478.749,122.037 C479.49,123.763 481.538,124.581 483.323,123.865 C485.109,123.149 485.956,121.17 485.215,119.445 Z" />
            <path d="M478.749,138.197 L477.408,141.323 C476.668,143.048 477.516,145.027 479.301,145.742 C481.087,146.457 483.135,145.638 483.875,143.913 L485.215,140.788 C485.955,139.062 485.108,137.083 483.322,136.368 C481.536,135.653 479.489,136.472 478.749,138.197 Z" />
            <path d="M493.251,122.037 L494.591,118.916 C495.332,117.19 494.485,115.211 492.7,114.495 C490.915,113.779 488.867,114.598 488.126,116.323 L486.785,119.445 C486.044,121.17 486.891,123.149 488.677,123.865 C490.462,124.581 492.51,123.763 493.251,122.037 Z" />
            <path d="M494.589,141.326 L493.253,138.2 C492.514,136.474 490.467,135.653 488.681,136.367 C486.894,137.08 486.045,139.058 486.784,140.785 L488.121,143.91 C488.859,145.636 490.906,146.457 492.692,145.743 C494.479,145.03 495.328,143.052 494.589,141.326 Z" />
            <path d="M497.042,129.358 L500.276,128.063 C502.062,127.348 502.909,125.369 502.169,123.643 C501.429,121.918 499.381,121.099 497.596,121.814 L494.362,123.109 C492.576,123.825 491.729,125.803 492.469,127.529 C493.209,129.255 495.257,130.074 497.042,129.358 Z" />
            <path d="M494.362,137.124 L497.596,138.42 C499.381,139.135 501.429,138.316 502.169,136.59 C502.909,134.865 502.062,132.886 500.276,132.171 L497.042,130.875 C495.257,130.16 493.209,130.979 492.469,132.705 C491.729,134.43 492.576,136.409 494.362,137.124 Z" />
            <path d="M479,130.117 C479,126.381 482.134,123.352 486,123.352 C489.866,123.352 493,126.381 493,130.117 C493,133.853 489.866,136.881 486,136.881 C482.134,136.881 479,133.853 479,130.117 Z M472,130.117 C472,137.589 478.268,143.646 486,143.646 C493.732,143.646 500,137.589 500,130.117 C500,122.645 493.732,116.588 486,116.588 C478.268,116.588 472,122.645 472,130.117 Z" />
        </g>
        <g id="Black-M" transform="translate(0,200)">
            <path d="M659.05,133.499 L637,133.499 C636.072,133.499 635.182,133.143 634.525,132.508 C633.869,131.874 633.5,131.014 633.5,130.117 L633.5,86.147 C633.5,85.25 633.869,84.39 634.525,83.756 C635.182,83.121 636.072,82.765 637,82.765 L650.93,82.765 C652.154,82.753 653.268,83.327 653.922,84.287 L656.088,88.115 C658.174,91.195 661.468,92.911 664.999,92.912 L693,92.912 C693.928,92.912 694.818,93.268 695.475,93.902 C696.131,94.537 696.5,95.397 696.5,96.294 L696.5,107.456 C696.5,109.324 698.067,110.838 700,110.838 C701.933,110.838 703.5,109.324 703.5,107.456 L703.5,96.294 C703.5,93.603 702.394,91.022 700.425,89.119 C698.456,87.216 695.785,86.147 693,86.147 L665,86.147 C663.824,86.147 662.725,85.575 662.078,84.625 L659.912,80.797 C657.806,77.686 654.464,75.967 650.896,76 L637,76 C634.215,76 631.544,77.069 629.575,78.972 C627.606,80.875 626.5,83.456 626.5,86.147 L626.5,130.117 C626.5,132.808 627.606,135.389 629.575,137.292 C631.544,139.195 634.215,140.264 637,140.264 L659.05,140.264 C660.983,140.264 662.55,138.749 662.55,136.881 C662.55,135.013 660.983,133.499 659.05,133.499 Z" />
            <path d="M674.406,138.417 L677.636,137.125 C679.422,136.411 680.271,134.432 679.532,132.706 C678.793,130.98 676.746,130.16 674.96,130.874 L671.729,132.167 C669.943,132.881 669.094,134.859 669.833,136.585 C670.573,138.311 672.62,139.131 674.406,138.417 Z" />
            <path d="M677.639,123.11 L674.409,121.815 C672.624,121.099 670.576,121.917 669.835,123.642 C669.094,125.368 669.941,127.347 671.726,128.063 L674.957,129.358 C676.742,130.074 678.79,129.256 679.531,127.53 C680.272,125.805 679.425,123.826 677.639,123.11 Z" />
            <path d="M685.215,119.445 L683.874,116.323 C683.133,114.598 681.085,113.779 679.3,114.495 C677.515,115.211 676.668,117.19 677.409,118.916 L678.749,122.037 C679.49,123.763 681.538,124.581 683.323,123.865 C685.109,123.149 685.956,121.17 685.215,119.445 Z" />
            <path d="M678.749,138.197 L677.408,141.323 C676.668,143.048 677.516,145.027 679.301,145.742 C681.087,146.457 683.135,145.638 683.875,143.913 L685.215,140.788 C685.955,139.062 685.108,137.083 683.322,136.368 C681.536,135.653 679.489,136.472 678.749,138.197 Z" />
            <path d="M693.251,122.037 L694.591,118.916 C695.332,117.19 694.485,115.211 692.7,114.495 C690.915,113.779 688.867,114.598 688.126,116.323 L686.785,119.445 C686.044,121.17 686.891,123.149 688.677,123.865 C690.462,124.581 692.51,123.763 693.251,122.037 Z" />
            <path d="M694.589,141.326 L693.253,138.2 C692.514,136.474 690.467,135.653 688.681,136.367 C686.894,137.08 686.045,139.058 686.784,140.785 L688.12,143.91 C688.859,145.636 690.906,146.457 692.692,145.743 C694.479,145.03 695.328,143.052 694.589,141.326 Z" />
            <path d="M697.042,129.358 L700.276,128.063 C702.062,127.348 702.909,125.369 702.169,123.643 C701.429,121.918 699.381,121.099 697.596,121.814 L694.362,123.109 C692.576,123.825 691.729,125.803 692.469,127.529 C693.209,129.255 695.257,130.074 697.042,129.358 Z" />
            <path d="M694.362,137.124 L697.596,138.42 C699.381,139.135 701.429,138.316 702.169,136.59 C702.909,134.865 702.062,132.886 700.276,132.171 L697.042,130.875 C695.257,130.16 693.209,130.979 692.469,132.705 C691.729,134.43 692.576,136.409 694.362,137.124 Z" />
            <path d="M679,130.117 C679,126.381 682.134,123.352 686,123.352 C689.866,123.352 693,126.381 693,130.117 C693,133.853 689.866,136.881 686,136.881 C682.134,136.881 679,133.853 679,130.117 Z M672,130.117 C672,137.589 678.268,143.646 686,143.646 C693.732,143.646 700,137.589 700,130.117 C700,122.645 693.732,116.588 686,116.588 C678.268,116.588 672,122.645 672,130.117 Z" />
        </g>
    </g>
</svg>