<?xml version="1.0" encoding="UTF-8"?>
<svg height="600" width="800" xmlns="http://www.w3.org/2000/svg" xmlns:xlink="http://www.w3.org/1999/xlink">
    <g id="Notes" font-family="LucidaGrande, 'Lucida Grande', sans-serif" font-size="13">
        <rect fill="white" height="600.0" width="800.0" x="0.0" y="0.0" />
        <g font-size="13">
            <text x="18.0" y="176.0">Small</text>
            <text x="18.0" y="376.0">Medium</text>
            <text x="18.0" y="576.0">Large</text>
        </g>
        <g font-size="9">
            <text x="250.0" y="30.0">Ultralight</text>
            <text x="450.0" y="30.0">Regular</text>
            <text x="650.0" y="30.0">Black</text>
            <text id="template-version" fill="#505050" text-anchor="end" x="785.0" y="575.0">Template v.3.0</text>
            <a href="https://github.com/swhitty/SwiftDraw">
                <text fill="#505050" text-anchor="end" x="785.0" y="590.0">https://github.com/swhitty/SwiftDraw</text>
            </a>
        </g>
    </g>
    <g id="Guides" stroke="rgb(39, 170, 225)" stroke-width="0.5">
        <path id="Capline-S" d="M18,76 l800,0" />
        <path id="H-reference" d="M85,145.755 L87.685,145.755 L113.369,79.287 L114.052,79.287 L114.052,76 L112.148,76 L85,145.755 Z M95.693,121.536 L130.996,121.536 L130.263,119.313 L96.474,119.313 L95.693,121.536 Z M139.15,145.755 L141.787,145.755 L114.638,76 L113.466,76 L113.466,79.287 L139.15,145.755 Z" stroke="none" transform="translate(0,200)" />
        <path id="Baseline-S" d="M18,146 l800,0" />
        <path id="left-margin-Ultralight-M" d="M230,256 l0,110" />
        <path id="right-margin-Ultralight-M" d="M300,256 l0,110" />
        <path id="left-margin-Regular-M" d="M430,256 l0,110" />
        <path id="right-margin-Regular-M" d="M500,256 l0,110" />
        <path id="left-margin-Black-M" d="M630,256 l0,110" />
        <path id="right-margin-Black-M" d="M700,256 l0,110" />
        <path id="Capline-M" d="M18,276 l800,0" />
        <path id="Baseline-M" d="M18,346 l800,0" />
        <path id="Capline-L" d="M18,476 l800,0" />
        <path id="Baseline-L" d="M18,546 l800,0" />
    </g>
    <g id="Symbols">
        <g id="Ultralight-M" transform="translate(0,200)">
            <path d="M267.768,109.336 L250.001,109.336 C248.233,109.336 246.537,110.039 245.287,111.289 C244.036,112.54 243.334,114.236 243.334,116.004 L243.334,139.339 C243.334,141.18 244.826,142.673 246.667,142.673 C248.508,142.673 250.001,141.18 250.001,139.339 L250.001,116.004 C250.001,116.004 250.001,116.004 250.001,116.004 C250.001,116.004 250.001,116.004 250.001,116.004 L267.768,116.004 C269.609,116.004 271.102,114.511 271.102,112.67 C271.102,110.829 269.609,109.336 267.768,109.336 Z" />
            <path d="M268.855,125.76 C267.666,126.949 266.796,128.417 266.325,130.031 L263.535,139.599 C263.023,141.352 263.508,143.244 264.799,144.535 C266.09,145.826 267.982,146.311 269.735,145.8 L279.302,143.01 C280.916,142.538 282.385,141.668 283.573,140.479 L296.949,127.116 C299.581,124.484 300.608,120.648 299.645,117.054 C298.681,113.46 295.873,110.653 292.279,109.69 C288.684,108.728 284.85,109.757 282.219,112.389 L268.854,125.762 Z M273.569,130.475 L286.935,117.102 C287.882,116.155 289.261,115.785 290.555,116.131 C291.848,116.477 292.859,117.487 293.205,118.78 C293.552,120.074 293.182,121.454 292.236,122.401 L278.859,135.764 C278.462,136.162 277.972,136.452 277.434,136.609 L267.868,139.399 C268.452,139.229 269.083,139.391 269.513,139.821 C269.944,140.251 270.105,140.882 269.935,141.466 L272.725,131.899 C272.882,131.362 273.172,130.872 273.568,130.476 Z" />
            <path d="M243.334,79.334 L243.334,92.668 C243.334,94.437 244.036,96.132 245.287,97.383 C246.537,98.633 248.233,99.336 250.001,99.336 L273.335,99.336 C275.176,99.336 276.669,97.843 276.669,96.002 C276.669,94.161 275.176,92.668 273.335,92.668 L250.001,92.668 C250.001,92.668 250.001,92.668 250.001,92.668 C250.001,92.668 250.001,92.668 250.001,92.668 L250.001,79.334 C250.001,77.493 248.508,76 246.667,76 C244.826,76 243.334,77.493 243.334,79.334 Z" />
            <path d="M253.334,136.006 L240,136.006 C239.116,136.006 238.268,135.654 237.643,135.029 C237.018,134.404 236.667,133.556 236.667,132.672 L236.667,86.001 C236.667,85.117 237.018,84.269 237.643,83.644 C238.268,83.019 239.116,82.667 240,82.667 L274.002,82.667 C274.834,82.679 275.672,83.039 276.288,83.667 L288.979,96.359 C289.631,96.998 289.99,97.837 290.003,98.716 L290.002,99.669 C290.002,101.51 291.495,103.003 293.336,103.003 C295.177,103.003 296.669,101.51 296.669,99.669 L296.669,98.669 C296.631,95.983 295.553,93.467 293.669,91.621 L281.026,78.977 C279.203,77.116 276.687,76.038 274.049,76 L240,76 C237.348,76 234.804,77.054 232.929,78.929 C231.054,80.805 230,83.349 230,86.001 L230,132.672 C230,135.324 231.054,137.868 232.929,139.744 C234.804,141.619 237.348,142.673 240,142.673 L253.334,142.673 C255.175,142.673 256.668,141.18 256.668,139.339 C256.668,137.498 255.175,136.006 253.334,136.006 Z" />
        </g>
        <g id="Regular-M" transform="translate(0,200)">
            <path d="M467.768,109.336 L450.001,109.336 C448.233,109.336 446.537,110.039 445.287,111.289 C444.036,112.54 443.334,114.236 443.334,116.004 L443.334,139.339 C443.334,141.18 444.826,142.673 446.667,142.673 C448.508,142.673 450.001,141.18 450.001,139.339 L450.001,116.004 C450.001,116.004 450.001,116.004 450.001,116.004 C450.001,116.004 450.001,116.004 450.001,116.004 L467.768,116.004 C469.609,116.004 471.102,114.511 471.102,112.67 C471.102,110.829 469.609,109.336 467.768,109.336 Z" />
            <path d="M468.855,125.76 C467.666,126.949 466.796,128.417 466.325,130.031 L463.535,139.599 C463.023,141.352 463.508,143.244 464.799,144.535 C466.09,145.826 467.982,146.311 469.735,145.8 L479.302,143.01 C480.916,142.538 482.385,141.668 483.573,140.479 L496.949,127.116 C499.581,124.484 500.608,120.648 499.645,117.054 C498.681,113.46 495.873,110.653 492.279,109.69 C488.684,108.728 484.85,109.757 482.219,112.389 L468.854,125.762 Z M473.569,130.475 L486.935,117.102 C487.882,116.155 489.261,115.785 490.555,116.131 C491.848,116.477 492.859,117.487 493.205,118.78 C493.552,120.074 493.182,121.454 492.236,122.401 L478.859,135.764 C478.462,136.162 477.972,136.452 477.434,136.609 L467.868,139.399 C468.452,139.229 469.083,139.391 469.513,139.821 C469.944,140.251 470.105,140.882 469.935,141.466 L472.725,131.899 C472.882,131.362 473.172,130.872 473.568,130.476 Z" />
            <path d="M443.334,79.334 L443.334,92.668 C443.334,94.437 444.036,96.132 445.287,97.383 C446.537,98.633 448.233,99.336 450.001,99.336 L473.335,99.336 C475.176,99.336 476.669,97.843 476.669,96.002 C476.669,94.161 475.176,92.668 473.335,92.668 L450.001,92.668 C450.001,92.668 450.001,92.668 450.001,92.668 C450.001,92.668 450.001,92.668 450.001,92.668 L450.001,79.334 C450.001,77.493 448.508,76 446.667,76 C444.826,76 443.334,77.493 443.334,79.334 Z" />
            <path d="M453.334,136.006 L440,136.006 C439.116,136.006 438.268,135.654 437.643,135.029 C437.018,134.404 436.667,133.556 436.667,132.672 L436.667,86.001 C436.667,85.117 437.018,84.269 437.643,83.644 C438.268,83.019 439.116,82.667 440,82.667 L474.002,82.667 C474.834,82.679 475.672,83.039 476.288,83.667 L488.979,96.359 C489.631,96.998 489.99,97.837 490.003,98.716 L490.002,99.669 C490.002,101.51 491.495,103.003 493.336,103.003 C495.177,103.003 496.669,101.51 496.669,99.669 L496.669,98.669 C496.631,95.983 495.553,93.467 493.669,91.621 L481.026,78.977 C479.203,77.116 476.687,76.038 474.049,76 L440,76 C437.348,76 434.805,77.054 432.929,78.929 C431.054,80.805 430,83.349 430,86.001 L430,132.672 C430,135.324 431.054,137.868 432.929,139.744 C434.805,141.619 437.348,142.673 440,142.673 L453.334,142.673 C455.175,142.673 456.668,141.18 456.668,139.339 C456.668,137.498 455.175,136.006 453.334,136.006 Z" />
        </g>
        <g id="Black-M" transform="translate(0,200)">
            <path d="M667.768,109.336 L650.001,109.336 C648.233,109.336 646.537,110.039 645.287,111.289 C644.036,112.54 643.334,114.236 643.334,116.004 L643.334,139.339 C643.334,141.18 644.826,142.673 646.667,142.673 C648.508,142.673 650.001,141.18 650.001,139.339 L650.001,116.004 C650.001,116.004 650.001,116.004 650.001,116.004 C650.001,116.004 650.001,116.004 650.001,116.004 L667.768,116.004 C669.609,116.004 671.102,114.511 671.102,112.67 C671.102,110.829 669.609,109.336 667.768,109.336 Z" />
            <path d="M668.855,125.76 C667.666,126.949 666.796,128.417 666.325,130.031 L663.535,139.599 C663.023,141.352 663.508,143.244 664.799,144.535 C666.09,145.826 667.982,146.311 669.735,145.8 L679.302,143.01 C680.916,142.538 682.385,141.668 683.573,140.479 L696.949,127.116 C699.581,124.484 700.608,120.648 699.645,117.054 C698.681,113.46 695.873,110.653 692.279,109.69 C688.684,108.728 684.849,109.757 682.219,112.389 L668.854,125.762 Z M673.569,130.475 L686.935,117.102 C687.882,116.155 689.261,115.785 690.555,116.131 C691.848,116.477 692.859,117.487 693.205,118.78 C693.552,120.074 693.182,121.454 692.235,122.401 L678.859,135.764 C678.462,136.162 677.972,136.452 677.434,136.609 L667.868,139.399 C668.452,139.229 669.083,139.391 669.513,139.821 C669.944,140.251 670.105,140.882 669.935,141.466 L672.725,131.899 C672.882,131.362 673.172,130.872 673.568,130.476 Z" />
            <path d="M643.334,79.334 L643.334,92.668 C643.334,94.437 644.036,96.132 645.287,97.383 C646.537,98.633 648.233,99.336 650.001,99.336 L673.335,99.336 C675.176,99.336 676.669,97.843 676.669,96.002 C676.669,94.161 675.176,92.668 673.335,92.668 L650.001,92.668 C650.001,92.668 650.001,92.668 650.001,92.668 C650.001,92.668 650.001,92.668 650.001,92.668 L650.001,79.334 C650.001,77.493 648.508,76 646.667,76 C644.826,76 643.334,77.493 643.334,79.334 Z" />
            <path d="M653.334,136.006 L640,136.006 C639.116,136.006 638.268,135.654 637.643,135.029 C637.018,134.404 636.667,133.556 636.667,132.672 L636.667,86.001 C636.667,85.117 637.018,84.269 637.643,83.644 C638.268,83.019 639.116,82.667 640,82.667 L674.002,82.667 C674.834,82.679 675.672,83.039 676.288,83.667 L688.979,96.359 C689.631,96.998 689.99,97.837 690.003,98.716 L690.002,99.669 C690.002,101.51 691.495,103.003 693.336,103.003 C695.177,103.003 696.669,101.51 696.669,99.669 L696.669,98.669 C696.631,95.983 695.553,93.467 693.669,91.621 L681.026,78.977 C679.203,77.116 676.687,76.038 674.049,76 L640,76 C637.348,76 634.805,77.054 632.929,78.929 C631.054,80.805 630,83.349 630,86.001 L630,132.672 C630,135.324 631.054,137.868 632.929,139.744 C634.805,141.619 637.348,142.673 640,142.673 L653.334,142.673 C655.175,142.673 656.668,141.18 656.668,139.339 C656.668,137.498 655.175,136.006 653.334,136.006 Z" />
        </g>
    </g>
</svg>