<?xml version="1.0" encoding="UTF-8"?>
<svg height="600" width="800" xmlns="http://www.w3.org/2000/svg" xmlns:xlink="http://www.w3.org/1999/xlink">
    <g id="Notes" font-family="LucidaGrande, 'Lucida Grande', sans-serif" font-size="13">
        <rect fill="white" height="600.0" width="800.0" x="0.0" y="0.0" />
        <g font-size="13">
            <text x="18.0" y="176.0">Small</text>
            <text x="18.0" y="376.0">Medium</text>
            <text x="18.0" y="576.0">Large</text>
        </g>
        <g font-size="9">
            <text x="250.0" y="30.0">Ultralight</text>
            <text x="450.0" y="30.0">Regular</text>
            <text x="650.0" y="30.0">Black</text>
            <text id="template-version" fill="#505050" text-anchor="end" x="785.0" y="575.0">Template v.3.0</text>
            <a href="https://github.com/swhitty/SwiftDraw">
                <text fill="#505050" text-anchor="end" x="785.0" y="590.0">https://github.com/swhitty/SwiftDraw</text>
            </a>
        </g>
    </g>
    <g id="Guides" stroke="rgb(39, 170, 225)" stroke-width="0.5">
        <path id="Capline-S" d="M18,76 l800,0" />
        <path id="H-reference" d="M85,145.755 L87.685,145.755 L113.369,79.287 L114.052,79.287 L114.052,76 L112.148,76 L85,145.755 Z M95.693,121.536 L130.996,121.536 L130.263,119.313 L96.474,119.313 L95.693,121.536 Z M139.15,145.755 L141.787,145.755 L114.638,76 L113.466,76 L113.466,79.287 L139.15,145.755 Z" stroke="none" transform="translate(0,200)" />
        <path id="Baseline-S" d="M18,146 l800,0" />
        <path id="left-margin-Ultralight-M" d="M226.5,256 l0,110" />
        <path id="right-margin-Ultralight-M" d="M303.5,256 l0,110" />
        <path id="left-margin-Regular-M" d="M426.5,256 l0,110" />
        <path id="right-margin-Regular-M" d="M503.5,256 l0,110" />
        <path id="left-margin-Black-M" d="M626.5,256 l0,110" />
        <path id="right-margin-Black-M" d="M703.5,256 l0,110" />
        <path id="Capline-M" d="M18,276 l800,0" />
        <path id="Baseline-M" d="M18,346 l800,0" />
        <path id="Capline-L" d="M18,476 l800,0" />
        <path id="Baseline-L" d="M18,546 l800,0" />
    </g>
    <g id="Symbols">
        <g id="Ultralight-M" transform="translate(0,200)">
            <path d="M282.5,142.5 L282.5,135.5 C282.5,130.859 280.656,126.408 277.374,123.126 C274.092,119.844 269.641,118 265,118 L244,118 C239.359,118 234.908,119.844 231.626,123.126 C228.344,126.408 226.5,130.859 226.5,135.5 L226.5,142.5 C226.5,144.433 228.067,146 230,146 C231.933,146 233.5,144.433 233.5,142.5 L233.5,135.5 C233.5,132.715 234.606,130.045 236.575,128.075 C238.545,126.106 241.215,125 244,125 L265,125 C267.785,125 270.456,126.106 272.425,128.075 C274.394,130.045 275.5,132.715 275.5,135.5 L275.5,142.5 C275.5,144.433 277.067,146 279,146 C280.933,146 282.5,144.433 282.5,142.5 Z" />
            <path d="M278.122,83.336 C282.753,84.537 285.987,88.716 285.987,93.5 C285.987,98.284 282.753,102.463 278.122,103.664 C276.251,104.149 275.127,106.059 275.612,107.93 C276.097,109.801 278.007,110.925 279.878,110.44 C287.597,108.439 292.987,101.474 292.987,93.5 C292.987,85.526 287.597,78.561 279.878,76.56 C278.007,76.075 276.097,77.199 275.612,79.07 C275.127,80.941 276.251,82.851 278.122,83.336 Z" />
            <path d="M303.5,142.5 L303.5,135.5 C303.495,127.523 298.098,120.561 290.376,118.566 C288.504,118.083 286.595,119.208 286.112,121.08 C285.629,122.952 286.754,124.861 288.626,125.344 C293.259,126.541 296.497,130.718 296.5,135.502 L296.5,142.5 C296.5,144.433 298.067,146 300,146 C301.933,146 303.5,144.433 303.5,142.5 Z" />
            <path d="M244,93.5 C244,87.701 248.701,83 254.5,83 C260.299,83 265,87.701 265,93.5 C265,99.299 260.299,104 254.5,104 C248.701,104 244,99.299 244,93.5 Z M237,93.5 C237,103.165 244.835,111 254.5,111 C264.165,111 272,103.165 272,93.5 C272,83.835 264.165,76 254.5,76 C244.835,76 237,83.835 237,93.5 Z" />
        </g>
        <g id="Regular-M" transform="translate(0,200)">
            <path d="M482.5,142.5 L482.5,135.5 C482.5,130.859 480.656,126.408 477.374,123.126 C474.092,119.844 469.641,118 465,118 L444,118 C439.359,118 434.908,119.844 431.626,123.126 C428.344,126.408 426.5,130.859 426.5,135.5 L426.5,142.5 C426.5,144.433 428.067,146 430,146 C431.933,146 433.5,144.433 433.5,142.5 L433.5,135.5 C433.5,132.715 434.606,130.045 436.575,128.075 C438.545,126.106 441.215,125 444,125 L465,125 C467.785,125 470.456,126.106 472.425,128.075 C474.394,130.045 475.5,132.715 475.5,135.5 L475.5,142.5 C475.5,144.433 477.067,146 479,146 C480.933,146 482.5,144.433 482.5,142.5 Z" />
            <path d="M478.122,83.336 C482.753,84.537 485.987,88.716 485.987,93.5 C485.987,98.284 482.753,102.463 478.122,103.664 C476.251,104.149 475.127,106.059 475.612,107.93 C476.097,109.801 478.007,110.925 479.878,110.44 C487.597,108.439 492.987,101.474 492.987,93.5 C492.987,85.526 487.597,78.561 479.878,76.56 C478.007,76.075 476.097,77.199 475.612,79.07 C475.127,80.941 476.251,82.851 478.122,83.336 Z" />
            <path d="M503.5,142.5 L503.5,135.5 C503.495,127.523 498.098,120.561 490.376,118.566 C488.504,118.083 486.595,119.208 486.112,121.08 C485.629,122.952 486.754,124.861 488.626,125.344 C493.259,126.541 496.497,130.718 496.5,135.502 L496.5,142.5 C496.5,144.433 498.067,146 500,146 C501.933,146 503.5,144.433 503.5,142.5 Z" />
            <path d="M444,93.5 C444,87.701 448.701,83 454.5,83 C460.299,83 465,87.701 465,93.5 C465,99.299 460.299,104 454.5,104 C448.701,104 444,99.299 444,93.5 Z M437,93.5 C437,103.165 444.835,111 454.5,111 C464.165,111 472,103.165 472,93.5 C472,83.835 464.165,76 454.5,76 C444.835,76 437,83.835 437,93.5 Z" />
        </g>
        <g id="Black-M" transform="translate(0,200)">
            <path d="M682.5,142.5 L682.5,135.5 C682.5,130.859 680.656,126.408 677.374,123.126 C674.092,119.844 669.641,118 665,118 L644,118 C639.359,118 634.908,119.844 631.626,123.126 C628.344,126.408 626.5,130.859 626.5,135.5 L626.5,142.5 C626.5,144.433 628.067,146 630,146 C631.933,146 633.5,144.433 633.5,142.5 L633.5,135.5 C633.5,132.715 634.606,130.045 636.575,128.075 C638.544,126.106 641.215,125 644,125 L665,125 C667.785,125 670.456,126.106 672.425,128.075 C674.394,130.045 675.5,132.715 675.5,135.5 L675.5,142.5 C675.5,144.433 677.067,146 679,146 C680.933,146 682.5,144.433 682.5,142.5 Z" />
            <path d="M678.122,83.336 C682.753,84.537 685.987,88.716 685.987,93.5 C685.987,98.284 682.753,102.463 678.122,103.664 C676.251,104.149 675.127,106.059 675.612,107.93 C676.097,109.801 678.007,110.925 679.878,110.44 C687.597,108.439 692.987,101.474 692.987,93.5 C692.987,85.526 687.597,78.561 679.878,76.56 C678.007,76.075 676.097,77.199 675.612,79.07 C675.127,80.941 676.251,82.851 678.122,83.336 Z" />
            <path d="M703.5,142.5 L703.5,135.5 C703.495,127.523 698.098,120.561 690.376,118.566 C688.504,118.083 686.595,119.208 686.112,121.08 C685.629,122.952 686.754,124.861 688.626,125.344 C693.259,126.541 696.497,130.718 696.5,135.502 L696.5,142.5 C696.5,144.433 698.067,146 700,146 C701.933,146 703.5,144.433 703.5,142.5 Z" />
            <path d="M644,93.5 C644,87.701 648.701,83 654.5,83 C660.299,83 665,87.701 665,93.5 C665,99.299 660.299,104 654.5,104 C648.701,104 644,99.299 644,93.5 Z M637,93.5 C637,103.165 644.835,111 654.5,111 C664.165,111 672,103.165 672,93.5 C672,83.835 664.165,76 654.5,76 C644.835,76 637,83.835 637,93.5 Z" />
        </g>
    </g>
</svg>