<?xml version="1.0" encoding="UTF-8"?>
<svg height="600" width="800" xmlns="http://www.w3.org/2000/svg" xmlns:xlink="http://www.w3.org/1999/xlink">
    <g id="Notes" font-family="LucidaGrande, 'Lucida Grande', sans-serif" font-size="13">
        <rect fill="white" height="600.0" width="800.0" x="0.0" y="0.0" />
        <g font-size="13">
            <text x="18.0" y="176.0">Small</text>
            <text x="18.0" y="376.0">Medium</text>
            <text x="18.0" y="576.0">Large</text>
        </g>
        <g font-size="9">
            <text x="250.0" y="30.0">Ultralight</text>
            <text x="450.0" y="30.0">Regular</text>
            <text x="650.0" y="30.0">Black</text>
            <text id="template-version" fill="#505050" text-anchor="end" x="785.0" y="575.0">Template v.3.0</text>
            <a href="https://github.com/swhitty/SwiftDraw">
                <text fill="#505050" text-anchor="end" x="785.0" y="590.0">https://github.com/swhitty/SwiftDraw</text>
            </a>
        </g>
    </g>
    <g id="Guides" stroke="rgb(39, 170, 225)" stroke-width="0.5">
        <path id="Capline-S" d="M18,76 l800,0" />
        <path id="H-reference" d="M85,145.755 L87.685,145.755 L113.369,79.287 L114.052,79.287 L114.052,76 L112.148,76 L85,145.755 Z M95.693,121.536 L130.996,121.536 L130.263,119.313 L96.474,119.313 L95.693,121.536 Z M139.15,145.755 L141.787,145.755 L114.638,76 L113.466,76 L113.466,79.287 L139.15,145.755 Z" stroke="none" transform="translate(0,200)" />
        <path id="Baseline-S" d="M18,146 l800,0" />
        <path id="left-margin-Ultralight-M" d="M228.25,256 l0,110" />
        <path id="right-margin-Ultralight-M" d="M301.75,256 l0,110" />
        <path id="left-margin-Regular-M" d="M428.25,256 l0,110" />
        <path id="right-margin-Regular-M" d="M501.75,256 l0,110" />
        <path id="left-margin-Black-M" d="M628.25,256 l0,110" />
        <path id="right-margin-Black-M" d="M701.75,256 l0,110" />
        <path id="Capline-M" d="M18,276 l800,0" />
        <path id="Baseline-M" d="M18,346 l800,0" />
        <path id="Capline-L" d="M18,476 l800,0" />
        <path id="Baseline-L" d="M18,546 l800,0" />
    </g>
    <g id="Symbols">
        <g id="Ultralight-M" transform="translate(0,200)">
            <path d="M294.75,91.75 L294.75,100.5 C294.75,100.5 294.75,100.5 294.75,100.5 C294.75,100.5 294.75,100.5 294.75,100.5 L256.25,100.5 C256.25,100.5 256.25,100.5 256.25,100.5 C256.25,100.5 256.25,100.5 256.25,100.5 L256.25,83 C256.25,83 256.25,83 256.25,83 C256.25,83 256.25,83 256.25,83 L294.75,83 C294.75,83 294.75,83 294.75,83 C294.75,83 294.75,83 294.75,83 L294.75,91.75 Z M301.75,91.75 L301.75,83 C301.75,81.143 301.013,79.363 299.7,78.05 C298.387,76.737 296.607,76 294.75,76 L256.25,76 C254.393,76 252.613,76.737 251.3,78.05 C249.988,79.363 249.25,81.143 249.25,83 L249.25,100.5 C249.25,102.357 249.988,104.137 251.3,105.45 C252.613,106.762 254.393,107.5 256.25,107.5 L294.75,107.5 C296.607,107.5 298.387,106.763 299.7,105.45 C301.013,104.137 301.75,102.357 301.75,100.5 L301.75,91.75 Z" />
            <path d="M229.275,102.975 L239.775,113.475 L239.775,108.525 L229.275,119.025 C227.908,120.392 227.908,122.608 229.275,123.975 C230.642,125.342 232.858,125.342 234.225,123.975 L244.725,113.475 C246.092,112.108 246.092,109.892 244.725,108.525 L234.225,98.025 C232.858,96.658 230.642,96.658 229.275,98.025 C227.908,99.392 227.908,101.608 229.275,102.975 Z" />
            <path d="M294.75,130.25 L294.75,139 C294.75,139 294.75,139 294.75,139 C294.75,139 294.75,139 294.75,139 L256.25,139 C256.25,139 256.25,139 256.25,139 C256.25,139 256.25,139 256.25,139 L256.25,121.5 C256.25,121.5 256.25,121.5 256.25,121.5 C256.25,121.5 256.25,121.5 256.25,121.5 L294.75,121.5 C294.75,121.5 294.75,121.5 294.75,121.5 C294.75,121.5 294.75,121.5 294.75,121.5 L294.75,130.25 Z M301.75,130.25 L301.75,121.5 C301.75,119.643 301.013,117.863 299.7,116.55 C298.387,115.237 296.607,114.5 294.75,114.5 L256.25,114.5 C254.393,114.5 252.613,115.238 251.3,116.55 C249.988,117.863 249.25,119.643 249.25,121.5 L249.25,139 C249.25,140.857 249.987,142.637 251.3,143.95 C252.613,145.263 254.393,146 256.25,146 L294.75,146 C296.607,146 298.387,145.263 299.7,143.95 C301.013,142.637 301.75,140.857 301.75,139 L301.75,130.25 Z" />
        </g>
        <g id="Regular-M" transform="translate(0,200)">
            <path d="M494.75,91.75 L494.75,100.5 C494.75,100.5 494.75,100.5 494.75,100.5 C494.75,100.5 494.75,100.5 494.75,100.5 L456.25,100.5 C456.25,100.5 456.25,100.5 456.25,100.5 C456.25,100.5 456.25,100.5 456.25,100.5 L456.25,83 C456.25,83 456.25,83 456.25,83 C456.25,83 456.25,83 456.25,83 L494.75,83 C494.75,83 494.75,83 494.75,83 C494.75,83 494.75,83 494.75,83 L494.75,91.75 Z M501.75,91.75 L501.75,83 C501.75,81.143 501.013,79.363 499.7,78.05 C498.387,76.737 496.607,76 494.75,76 L456.25,76 C454.393,76 452.613,76.737 451.3,78.05 C449.987,79.363 449.25,81.143 449.25,83 L449.25,100.5 C449.25,102.357 449.987,104.137 451.3,105.45 C452.613,106.762 454.393,107.5 456.25,107.5 L494.75,107.5 C496.607,107.5 498.387,106.763 499.7,105.45 C501.013,104.137 501.75,102.357 501.75,100.5 L501.75,91.75 Z" />
            <path d="M429.275,102.975 L439.775,113.475 L439.775,108.525 L429.275,119.025 C427.908,120.392 427.908,122.608 429.275,123.975 C430.642,125.342 432.858,125.342 434.225,123.975 L444.725,113.475 C446.092,112.108 446.092,109.892 444.725,108.525 L434.225,98.025 C432.858,96.658 430.642,96.658 429.275,98.025 C427.908,99.392 427.908,101.608 429.275,102.975 Z" />
            <path d="M494.75,130.25 L494.75,139 C494.75,139 494.75,139 494.75,139 C494.75,139 494.75,139 494.75,139 L456.25,139 C456.25,139 456.25,139 456.25,139 C456.25,139 456.25,139 456.25,139 L456.25,121.5 C456.25,121.5 456.25,121.5 456.25,121.5 C456.25,121.5 456.25,121.5 456.25,121.5 L494.75,121.5 C494.75,121.5 494.75,121.5 494.75,121.5 C494.75,121.5 494.75,121.5 494.75,121.5 L494.75,130.25 Z M501.75,130.25 L501.75,121.5 C501.75,119.643 501.013,117.863 499.7,116.55 C498.387,115.237 496.607,114.5 494.75,114.5 L456.25,114.5 C454.393,114.5 452.613,115.238 451.3,116.55 C449.987,117.863 449.25,119.643 449.25,121.5 L449.25,139 C449.25,140.857 449.987,142.637 451.3,143.95 C452.613,145.263 454.393,146 456.25,146 L494.75,146 C496.607,146 498.387,145.263 499.7,143.95 C501.013,142.637 501.75,140.857 501.75,139 L501.75,130.25 Z" />
        </g>
        <g id="Black-M" transform="translate(0,200)">
            <path d="M694.75,91.75 L694.75,100.5 C694.75,100.5 694.75,100.5 694.75,100.5 C694.75,100.5 694.75,100.5 694.75,100.5 L656.25,100.5 C656.25,100.5 656.25,100.5 656.25,100.5 C656.25,100.5 656.25,100.5 656.25,100.5 L656.25,83 C656.25,83 656.25,83 656.25,83 C656.25,83 656.25,83 656.25,83 L694.75,83 C694.75,83 694.75,83 694.75,83 C694.75,83 694.75,83 694.75,83 L694.75,91.75 Z M701.75,91.75 L701.75,83 C701.75,81.143 701.013,79.363 699.7,78.05 C698.387,76.737 696.607,76 694.75,76 L656.25,76 C654.393,76 652.613,76.737 651.3,78.05 C649.987,79.363 649.25,81.143 649.25,83 L649.25,100.5 C649.25,102.357 649.987,104.137 651.3,105.45 C652.613,106.762 654.393,107.5 656.25,107.5 L694.75,107.5 C696.607,107.5 698.387,106.763 699.7,105.45 C701.013,104.137 701.75,102.357 701.75,100.5 L701.75,91.75 Z" />
            <path d="M629.275,102.975 L639.775,113.475 L639.775,108.525 L629.275,119.025 C627.908,120.392 627.908,122.608 629.275,123.975 C630.642,125.342 632.858,125.342 634.225,123.975 L644.725,113.475 C646.092,112.108 646.092,109.892 644.725,108.525 L634.225,98.025 C632.858,96.658 630.642,96.658 629.275,98.025 C627.908,99.392 627.908,101.608 629.275,102.975 Z" />
            <path d="M694.75,130.25 L694.75,139 C694.75,139 694.75,139 694.75,139 C694.75,139 694.75,139 694.75,139 L656.25,139 C656.25,139 656.25,139 656.25,139 C656.25,139 656.25,139 656.25,139 L656.25,121.5 C656.25,121.5 656.25,121.5 656.25,121.5 C656.25,121.5 656.25,121.5 656.25,121.5 L694.75,121.5 C694.75,121.5 694.75,121.5 694.75,121.5 C694.75,121.5 694.75,121.5 694.75,121.5 L694.75,130.25 Z M701.75,130.25 L701.75,121.5 C701.75,119.643 701.013,117.863 699.7,116.55 C698.387,115.237 696.607,114.5 694.75,114.5 L656.25,114.5 C654.393,114.5 652.613,115.238 651.3,116.55 C649.987,117.863 649.25,119.643 649.25,121.5 L649.25,139 C649.25,140.857 649.987,142.637 651.3,143.95 C652.613,145.263 654.393,146 656.25,146 L694.75,146 C696.607,146 698.387,145.263 699.7,143.95 C701.013,142.637 701.75,140.857 701.75,139 L701.75,130.25 Z" />
        </g>
    </g>
</svg>