<?xml version="1.0" encoding="UTF-8"?>
<svg height="600" width="800" xmlns="http://www.w3.org/2000/svg" xmlns:xlink="http://www.w3.org/1999/xlink">
    <g id="Notes" font-family="LucidaGrande, 'Lucida Grande', sans-serif" font-size="13">
        <rect fill="white" height="600.0" width="800.0" x="0.0" y="0.0" />
        <g font-size="13">
            <text x="18.0" y="176.0">Small</text>
            <text x="18.0" y="376.0">Medium</text>
            <text x="18.0" y="576.0">Large</text>
        </g>
        <g font-size="9">
            <text x="250.0" y="30.0">Ultralight</text>
            <text x="450.0" y="30.0">Regular</text>
            <text x="650.0" y="30.0">Black</text>
            <text id="template-version" fill="#505050" text-anchor="end" x="785.0" y="575.0">Template v.3.0</text>
            <a href="https://github.com/swhitty/SwiftDraw">
                <text fill="#505050" text-anchor="end" x="785.0" y="590.0">https://github.com/swhitty/SwiftDraw</text>
            </a>
        </g>
    </g>
    <g id="Guides" stroke="rgb(39, 170, 225)" stroke-width="0.5">
        <path id="Capline-S" d="M18,76 l800,0" />
        <path id="H-reference" d="M85,145.755 L87.685,145.755 L113.369,79.287 L114.052,79.287 L114.052,76 L112.148,76 L85,145.755 Z M95.693,121.536 L130.996,121.536 L130.263,119.313 L96.474,119.313 L95.693,121.536 Z M139.15,145.755 L141.787,145.755 L114.638,76 L113.466,76 L113.466,79.287 L139.15,145.755 Z" stroke="none" transform="translate(0,200)" />
        <path id="Baseline-S" d="M18,146 l800,0" />
        <path id="left-margin-Ultralight-M" d="M228.25,256 l0,110" />
        <path id="right-margin-Ultralight-M" d="M301.75,256 l0,110" />
        <path id="left-margin-Regular-M" d="M428.25,256 l0,110" />
        <path id="right-margin-Regular-M" d="M501.75,256 l0,110" />
        <path id="left-margin-Black-M" d="M628.25,256 l0,110" />
        <path id="right-margin-Black-M" d="M701.75,256 l0,110" />
        <path id="Capline-M" d="M18,276 l800,0" />
        <path id="Baseline-M" d="M18,346 l800,0" />
        <path id="Capline-L" d="M18,476 l800,0" />
        <path id="Baseline-L" d="M18,546 l800,0" />
    </g>
    <g id="Symbols">
        <g id="Ultralight-M" transform="translate(0,200)">
            <path d="M291.25,93.5 L291.25,83 C291.25,81.143 290.513,79.363 289.2,78.05 C287.887,76.737 286.107,76 284.25,76 L238.75,76 C232.951,76 228.25,80.701 228.25,86.5 C228.25,92.299 232.951,97 238.75,97 L291.25,97 C291.25,97 291.25,97 291.25,97 C291.25,97 291.25,97 291.25,97 L291.25,111 L294.75,107.5 L284.25,107.5 C278.451,107.5 273.75,112.201 273.75,118 C273.75,123.799 278.451,128.5 284.25,128.5 L294.75,128.5 C296.607,128.5 298.387,127.763 299.7,126.45 C301.013,125.137 301.75,123.357 301.75,121.5 L301.75,114.5 C301.75,112.643 301.013,110.863 299.7,109.55 C298.387,108.237 296.607,107.5 294.75,107.5 C292.817,107.5 291.25,109.067 291.25,111 C291.25,112.933 292.817,114.5 294.75,114.5 C294.75,114.5 294.75,114.5 294.75,114.5 C294.75,114.5 294.75,114.5 294.75,114.5 L294.75,121.5 C294.75,121.5 294.75,121.5 294.75,121.5 C294.75,121.5 294.75,121.5 294.75,121.5 L284.25,121.5 C282.317,121.5 280.75,119.933 280.75,118 C280.75,116.067 282.317,114.5 284.25,114.5 L294.75,114.5 C296.683,114.5 298.25,112.933 298.25,111 L298.25,97 C298.25,95.143 297.513,93.363 296.2,92.05 C294.887,90.737 293.107,90 291.25,90 L238.75,90 C236.817,90 235.25,88.433 235.25,86.5 C235.25,84.567 236.817,83 238.75,83 L284.25,83 C284.25,83 284.25,83 284.25,83 C284.25,83 284.25,83 284.25,83 L284.25,93.5 C284.25,95.433 285.817,97 287.75,97 C289.683,97 291.25,95.433 291.25,93.5 Z" />
            <path d="M228.25,86.5 L228.25,135.5 C228.25,138.285 229.356,140.955 231.325,142.925 C233.295,144.894 235.965,146 238.75,146 L291.25,146 C293.107,146 294.887,145.263 296.2,143.95 C297.513,142.637 298.25,140.857 298.25,139 L298.25,125 C298.25,123.067 296.683,121.5 294.75,121.5 C292.817,121.5 291.25,123.067 291.25,125 L291.25,139 C291.25,139 291.25,139 291.25,139 C291.25,139 291.25,139 291.25,139 L238.75,139 C237.822,139 236.932,138.631 236.275,137.975 C235.619,137.318 235.25,136.428 235.25,135.5 L235.25,86.5 C235.25,84.567 233.683,83 231.75,83 C229.817,83 228.25,84.567 228.25,86.5 Z" />
        </g>
        <g id="Regular-M" transform="translate(0,200)">
            <path d="M491.25,93.5 L491.25,83 C491.25,81.143 490.513,79.363 489.2,78.05 C487.887,76.737 486.107,76 484.25,76 L438.75,76 C432.951,76 428.25,80.701 428.25,86.5 C428.25,92.299 432.951,97 438.75,97 L491.25,97 C491.25,97 491.25,97 491.25,97 C491.25,97 491.25,97 491.25,97 L491.25,111 L494.75,107.5 L484.25,107.5 C478.451,107.5 473.75,112.201 473.75,118 C473.75,123.799 478.451,128.5 484.25,128.5 L494.75,128.5 C496.607,128.5 498.387,127.763 499.7,126.45 C501.013,125.137 501.75,123.357 501.75,121.5 L501.75,114.5 C501.75,112.643 501.013,110.863 499.7,109.55 C498.387,108.237 496.607,107.5 494.75,107.5 C492.817,107.5 491.25,109.067 491.25,111 C491.25,112.933 492.817,114.5 494.75,114.5 C494.75,114.5 494.75,114.5 494.75,114.5 C494.75,114.5 494.75,114.5 494.75,114.5 L494.75,121.5 C494.75,121.5 494.75,121.5 494.75,121.5 C494.75,121.5 494.75,121.5 494.75,121.5 L484.25,121.5 C482.317,121.5 480.75,119.933 480.75,118 C480.75,116.067 482.317,114.5 484.25,114.5 L494.75,114.5 C496.683,114.5 498.25,112.933 498.25,111 L498.25,97 C498.25,95.143 497.513,93.363 496.2,92.05 C494.887,90.737 493.107,90 491.25,90 L438.75,90 C436.817,90 435.25,88.433 435.25,86.5 C435.25,84.567 436.817,83 438.75,83 L484.25,83 C484.25,83 484.25,83 484.25,83 C484.25,83 484.25,83 484.25,83 L484.25,93.5 C484.25,95.433 485.817,97 487.75,97 C489.683,97 491.25,95.433 491.25,93.5 Z" />
            <path d="M428.25,86.5 L428.25,135.5 C428.25,138.285 429.356,140.955 431.325,142.925 C433.294,144.894 435.965,146 438.75,146 L491.25,146 C493.107,146 494.887,145.263 496.2,143.95 C497.513,142.637 498.25,140.857 498.25,139 L498.25,125 C498.25,123.067 496.683,121.5 494.75,121.5 C492.817,121.5 491.25,123.067 491.25,125 L491.25,139 C491.25,139 491.25,139 491.25,139 C491.25,139 491.25,139 491.25,139 L438.75,139 C437.822,139 436.932,138.631 436.275,137.975 C435.619,137.318 435.25,136.428 435.25,135.5 L435.25,86.5 C435.25,84.567 433.683,83 431.75,83 C429.817,83 428.25,84.567 428.25,86.5 Z" />
        </g>
        <g id="Black-M" transform="translate(0,200)">
            <path d="M691.25,93.5 L691.25,83 C691.25,81.143 690.513,79.363 689.2,78.05 C687.887,76.737 686.107,76 684.25,76 L638.75,76 C632.951,76 628.25,80.701 628.25,86.5 C628.25,92.299 632.951,97 638.75,97 L691.25,97 C691.25,97 691.25,97 691.25,97 C691.25,97 691.25,97 691.25,97 L691.25,111 L694.75,107.5 L684.25,107.5 C678.451,107.5 673.75,112.201 673.75,118 C673.75,123.799 678.451,128.5 684.25,128.5 L694.75,128.5 C696.607,128.5 698.387,127.763 699.7,126.45 C701.013,125.137 701.75,123.357 701.75,121.5 L701.75,114.5 C701.75,112.643 701.013,110.863 699.7,109.55 C698.387,108.237 696.607,107.5 694.75,107.5 C692.817,107.5 691.25,109.067 691.25,111 C691.25,112.933 692.817,114.5 694.75,114.5 C694.75,114.5 694.75,114.5 694.75,114.5 C694.75,114.5 694.75,114.5 694.75,114.5 L694.75,121.5 C694.75,121.5 694.75,121.5 694.75,121.5 C694.75,121.5 694.75,121.5 694.75,121.5 L684.25,121.5 C682.317,121.5 680.75,119.933 680.75,118 C680.75,116.067 682.317,114.5 684.25,114.5 L694.75,114.5 C696.683,114.5 698.25,112.933 698.25,111 L698.25,97 C698.25,95.143 697.513,93.363 696.2,92.05 C694.887,90.737 693.107,90 691.25,90 L638.75,90 C636.817,90 635.25,88.433 635.25,86.5 C635.25,84.567 636.817,83 638.75,83 L684.25,83 C684.25,83 684.25,83 684.25,83 C684.25,83 684.25,83 684.25,83 L684.25,93.5 C684.25,95.433 685.817,97 687.75,97 C689.683,97 691.25,95.433 691.25,93.5 Z" />
            <path d="M628.25,86.5 L628.25,135.5 C628.25,138.285 629.356,140.955 631.325,142.925 C633.294,144.894 635.965,146 638.75,146 L691.25,146 C693.107,146 694.887,145.263 696.2,143.95 C697.513,142.637 698.25,140.857 698.25,139 L698.25,125 C698.25,123.067 696.683,121.5 694.75,121.5 C692.817,121.5 691.25,123.067 691.25,125 L691.25,139 C691.25,139 691.25,139 691.25,139 C691.25,139 691.25,139 691.25,139 L638.75,139 C637.822,139 636.932,138.631 636.275,137.975 C635.619,137.318 635.25,136.428 635.25,135.5 L635.25,86.5 C635.25,84.567 633.683,83 631.75,83 C629.817,83 628.25,84.567 628.25,86.5 Z" />
        </g>
    </g>
</svg>