<?xml version="1.0" encoding="UTF-8"?>
<svg height="600" width="800" xmlns="http://www.w3.org/2000/svg" xmlns:xlink="http://www.w3.org/1999/xlink">
    <g id="Notes" font-family="LucidaGrande, 'Lucida Grande', sans-serif" font-size="13">
        <rect fill="white" height="600.0" width="800.0" x="0.0" y="0.0" />
        <g font-size="13">
            <text x="18.0" y="176.0">Small</text>
            <text x="18.0" y="376.0">Medium</text>
            <text x="18.0" y="576.0">Large</text>
        </g>
        <g font-size="9">
            <text x="250.0" y="30.0">Ultralight</text>
            <text x="450.0" y="30.0">Regular</text>
            <text x="650.0" y="30.0">Black</text>
            <text id="template-version" fill="#505050" text-anchor="end" x="785.0" y="575.0">Template v.3.0</text>
            <a href="https://github.com/swhitty/SwiftDraw">
                <text fill="#505050" text-anchor="end" x="785.0" y="590.0">https://github.com/swhitty/SwiftDraw</text>
            </a>
        </g>
    </g>
    <g id="Guides" stroke="rgb(39, 170, 225)" stroke-width="0.5">
        <path id="Capline-S" d="M18,76 l800,0" />
        <path id="H-reference" d="M85,145.755 L87.685,145.755 L113.369,79.287 L114.052,79.287 L114.052,76 L112.148,76 L85,145.755 Z M95.693,121.536 L130.996,121.536 L130.263,119.313 L96.474,119.313 L95.693,121.536 Z M139.15,145.755 L141.787,145.755 L114.638,76 L113.466,76 L113.466,79.287 L139.15,145.755 Z" stroke="none" transform="translate(0,200)" />
        <path id="Baseline-S" d="M18,146 l800,0" />
        <path id="left-margin-Ultralight-M" d="M245.909,256 l0,110" />
        <path id="right-margin-Ultralight-M" d="M284.091,256 l0,110" />
        <path id="left-margin-Regular-M" d="M445.909,256 l0,110" />
        <path id="right-margin-Regular-M" d="M484.091,256 l0,110" />
        <path id="left-margin-Black-M" d="M645.909,256 l0,110" />
        <path id="right-margin-Black-M" d="M684.091,256 l0,110" />
        <path id="Capline-M" d="M18,276 l800,0" />
        <path id="Baseline-M" d="M18,346 l800,0" />
        <path id="Capline-L" d="M18,476 l800,0" />
        <path id="Baseline-L" d="M18,546 l800,0" />
    </g>
    <g id="Symbols">
        <g id="Ultralight-M" transform="translate(0,200)">
            <path d="M252.273,146 L277.727,146 C279.485,146 280.909,144.575 280.909,142.818 C280.909,141.061 279.485,139.636 277.727,139.636 L252.273,139.636 C250.515,139.636 249.091,141.061 249.091,142.818 C249.091,144.575 250.515,146 252.273,146 Z" />
            <path d="M249.091,107.818 L280.909,107.818 C282.666,107.818 284.091,106.394 284.091,104.636 C284.091,102.879 282.666,101.455 280.909,101.455 L249.091,101.455 C247.334,101.455 245.909,102.879 245.909,104.636 C245.909,106.394 247.334,107.818 249.091,107.818 Z" />
            <path d="M261.818,120.545 L261.818,142.818 C261.818,144.575 263.243,146 265,146 C266.757,146 268.182,144.575 268.182,142.818 L268.182,120.545 C268.182,118.788 266.757,117.364 265,117.364 C263.243,117.364 261.818,118.788 261.818,120.545 Z" />
            <path d="M265,123.727 C270.063,123.727 274.919,121.716 278.499,118.136 C282.08,114.555 284.091,109.7 284.091,104.636 C284.091,97.802 282.421,91.12 277.525,78.065 C277.059,76.823 275.872,76 274.545,76 L255.455,76 C254.128,76 252.941,76.823 252.475,78.065 C247.579,91.12 245.909,97.802 245.909,104.636 C245.909,109.7 247.92,114.555 251.501,118.136 C255.081,121.716 259.937,123.727 265,123.727 Z M265,117.364 C261.625,117.364 258.387,116.023 256,113.636 C253.614,111.249 252.273,108.012 252.273,104.636 C252.273,98.744 253.784,92.698 258.434,80.299 L255.455,82.364 L274.545,82.364 L271.566,80.299 C276.216,92.698 277.727,98.744 277.727,104.636 C277.727,108.012 276.386,111.249 274,113.636 C271.613,116.023 268.375,117.364 265,117.364 Z" />
        </g>
        <g id="Regular-M" transform="translate(0,200)">
            <path d="M452.273,146 L477.727,146 C479.485,146 480.909,144.575 480.909,142.818 C480.909,141.061 479.485,139.636 477.727,139.636 L452.273,139.636 C450.515,139.636 449.091,141.061 449.091,142.818 C449.091,144.575 450.515,146 452.273,146 Z" />
            <path d="M449.091,107.818 L480.909,107.818 C482.666,107.818 484.091,106.394 484.091,104.636 C484.091,102.879 482.666,101.455 480.909,101.455 L449.091,101.455 C447.334,101.455 445.909,102.879 445.909,104.636 C445.909,106.394 447.334,107.818 449.091,107.818 Z" />
            <path d="M461.818,120.545 L461.818,142.818 C461.818,144.575 463.243,146 465,146 C466.757,146 468.182,144.575 468.182,142.818 L468.182,120.545 C468.182,118.788 466.757,117.364 465,117.364 C463.243,117.364 461.818,118.788 461.818,120.545 Z" />
            <path d="M465,123.727 C470.063,123.727 474.919,121.716 478.499,118.136 C482.08,114.555 484.091,109.7 484.091,104.636 C484.091,97.802 482.421,91.12 477.525,78.065 C477.059,76.823 475.872,76 474.545,76 L455.455,76 C454.128,76 452.941,76.823 452.475,78.065 C447.579,91.12 445.909,97.802 445.909,104.636 C445.909,109.7 447.92,114.555 451.501,118.136 C455.081,121.716 459.937,123.727 465,123.727 Z M465,117.364 C461.625,117.364 458.387,116.023 456,113.636 C453.614,111.249 452.273,108.012 452.273,104.636 C452.273,98.744 453.784,92.698 458.434,80.299 L455.455,82.364 L474.545,82.364 L471.566,80.299 C476.216,92.698 477.727,98.744 477.727,104.636 C477.727,108.012 476.386,111.249 474,113.636 C471.613,116.023 468.375,117.364 465,117.364 Z" />
        </g>
        <g id="Black-M" transform="translate(0,200)">
            <path d="M652.273,146 L677.727,146 C679.485,146 680.909,144.575 680.909,142.818 C680.909,141.061 679.485,139.636 677.727,139.636 L652.273,139.636 C650.516,139.636 649.091,141.061 649.091,142.818 C649.091,144.575 650.516,146 652.273,146 Z" />
            <path d="M649.091,107.818 L680.909,107.818 C682.666,107.818 684.091,106.394 684.091,104.636 C684.091,102.879 682.666,101.455 680.909,101.455 L649.091,101.455 C647.334,101.455 645.909,102.879 645.909,104.636 C645.909,106.394 647.334,107.818 649.091,107.818 Z" />
            <path d="M661.818,120.545 L661.818,142.818 C661.818,144.575 663.243,146 665,146 C666.757,146 668.182,144.575 668.182,142.818 L668.182,120.545 C668.182,118.788 666.757,117.364 665,117.364 C663.243,117.364 661.818,118.788 661.818,120.545 Z" />
            <path d="M665,123.727 C670.063,123.727 674.919,121.716 678.499,118.136 C682.08,114.555 684.091,109.7 684.091,104.636 C684.091,97.802 682.421,91.12 677.525,78.065 C677.059,76.823 675.872,76 674.545,76 L655.455,76 C654.128,76 652.941,76.823 652.475,78.065 C647.579,91.12 645.909,97.802 645.909,104.636 C645.909,109.7 647.92,114.555 651.501,118.136 C655.081,121.716 659.937,123.727 665,123.727 Z M665,117.364 C661.625,117.364 658.387,116.023 656,113.636 C653.614,111.249 652.273,108.012 652.273,104.636 C652.273,98.744 653.784,92.698 658.434,80.299 L655.455,82.364 L674.545,82.364 L671.566,80.299 C676.216,92.698 677.727,98.744 677.727,104.636 C677.727,108.012 676.386,111.249 674,113.636 C671.613,116.023 668.375,117.364 665,117.364 Z" />
        </g>
    </g>
</svg>