<?xml version="1.0" encoding="UTF-8"?>
<svg height="600" width="800" xmlns="http://www.w3.org/2000/svg" xmlns:xlink="http://www.w3.org/1999/xlink">
    <g id="Notes" font-family="LucidaGrande, 'Lucida Grande', sans-serif" font-size="13">
        <rect fill="white" height="600.0" width="800.0" x="0.0" y="0.0" />
        <g font-size="13">
            <text x="18.0" y="176.0">Small</text>
            <text x="18.0" y="376.0">Medium</text>
            <text x="18.0" y="576.0">Large</text>
        </g>
        <g font-size="9">
            <text x="250.0" y="30.0">Ultralight</text>
            <text x="450.0" y="30.0">Regular</text>
            <text x="650.0" y="30.0">Black</text>
            <text id="template-version" fill="#505050" text-anchor="end" x="785.0" y="575.0">Template v.3.0</text>
            <a href="https://github.com/swhitty/SwiftDraw">
                <text fill="#505050" text-anchor="end" x="785.0" y="590.0">https://github.com/swhitty/SwiftDraw</text>
            </a>
        </g>
    </g>
    <g id="Guides" stroke="rgb(39, 170, 225)" stroke-width="0.5">
        <path id="Capline-S" d="M18,76 l800,0" />
        <path id="H-reference" d="M85,145.755 L87.685,145.755 L113.369,79.287 L114.052,79.287 L114.052,76 L112.148,76 L85,145.755 Z M95.693,121.536 L130.996,121.536 L130.263,119.313 L96.474,119.313 L95.693,121.536 Z M139.15,145.755 L141.787,145.755 L114.638,76 L113.466,76 L113.466,79.287 L139.15,145.755 Z" stroke="none" transform="translate(0,200)" />
        <path id="Baseline-S" d="M18,146 l800,0" />
        <path id="left-margin-Ultralight-M" d="M233.182,256 l0,110" />
        <path id="right-margin-Ultralight-M" d="M296.818,256 l0,110" />
        <path id="left-margin-Regular-M" d="M433.182,256 l0,110" />
        <path id="right-margin-Regular-M" d="M496.818,256 l0,110" />
        <path id="left-margin-Black-M" d="M633.182,256 l0,110" />
        <path id="right-margin-Black-M" d="M696.818,256 l0,110" />
        <path id="Capline-M" d="M18,276 l800,0" />
        <path id="Baseline-M" d="M18,346 l800,0" />
        <path id="Capline-L" d="M18,476 l800,0" />
        <path id="Baseline-L" d="M18,546 l800,0" />
    </g>
    <g id="Symbols">
        <g id="Ultralight-M" transform="translate(0,200)">
            <path d="M267.09,113.949 C265.956,115.083 265.125,116.484 264.676,118.024 L262.012,127.157 C261.524,128.83 261.987,130.636 263.219,131.868 C264.451,133.101 266.257,133.563 267.93,133.075 L277.062,130.412 C278.603,129.962 280.005,129.132 281.139,127.997 L293.906,115.243 C296.418,112.73 297.399,109.07 296.479,105.639 C295.56,102.208 292.879,99.529 289.448,98.61 C286.017,97.692 282.357,98.674 279.846,101.186 L267.089,113.95 Z M271.59,118.448 L284.348,105.685 C285.251,104.78 286.568,104.427 287.803,104.758 C289.037,105.088 290.002,106.052 290.333,107.287 C290.664,108.521 290.311,109.838 289.407,110.742 L276.64,123.497 C276.26,123.877 275.793,124.154 275.279,124.303 L266.148,126.966 C266.706,126.804 267.308,126.958 267.719,127.369 C268.13,127.779 268.284,128.381 268.121,128.939 L270.784,119.807 C270.934,119.295 271.211,118.828 271.589,118.45 Z" />
            <path d="M271.363,95.09 C271.363,95.09 271.363,95.09 271.363,95.09 L271.363,79.182 C271.363,77.425 269.939,76 268.182,76 C266.424,76 265,77.425 265,79.182 L265,95.091 C265.001,97.331 266.177,99.404 268.099,100.552 C269.607,101.454 271.561,100.962 272.462,99.453 C273.364,97.945 272.872,95.991 271.363,95.09 Z" />
            <path d="M284.091,135.325 L284.091,136.455 C284.091,137.298 283.755,138.108 283.159,138.704 C282.562,139.301 281.753,139.636 280.909,139.636 L242.727,139.636 C241.883,139.636 241.074,139.301 240.477,138.704 C239.881,138.108 239.545,137.298 239.545,136.455 L239.545,85.545 C239.545,84.702 239.881,83.892 240.477,83.296 C241.074,82.699 241.883,82.364 242.727,82.364 L268.182,82.364 C269.373,82.362 270.512,82.833 271.349,83.674 L279.359,91.684 C280.601,92.926 282.616,92.926 283.859,91.684 C285.101,90.441 285.101,88.426 283.859,87.184 L275.853,79.178 C273.823,77.141 271.058,75.995 268.176,76 L242.727,76 C240.196,76 237.768,77.006 235.978,78.796 C234.188,80.586 233.182,83.014 233.182,85.545 L233.182,136.455 C233.182,138.986 234.188,141.414 235.978,143.204 C237.768,144.994 240.196,146 242.727,146 L280.909,146 C283.44,146 285.868,144.994 287.658,143.204 C289.448,141.414 290.454,138.986 290.454,136.455 L290.454,135.325 C290.454,133.568 289.03,132.143 287.272,132.143 C285.515,132.143 284.091,133.568 284.091,135.325 Z" />
            <path d="M249.091,133.273 L252.273,133.273 C254.03,133.273 255.454,131.848 255.454,130.091 C255.454,128.334 254.03,126.909 252.273,126.909 L249.091,126.909 C247.334,126.909 245.909,128.334 245.909,130.091 C245.909,131.848 247.334,133.273 249.091,133.273 Z" />
        </g>
        <g id="Regular-M" transform="translate(0,200)">
            <path d="M467.09,113.949 C465.956,115.083 465.125,116.484 464.676,118.024 L462.012,127.157 C461.524,128.83 461.987,130.636 463.219,131.868 C464.451,133.101 466.257,133.563 467.93,133.075 L477.062,130.412 C478.603,129.962 480.005,129.132 481.139,127.997 L493.906,115.243 C496.418,112.73 497.399,109.07 496.479,105.639 C495.56,102.208 492.879,99.529 489.448,98.61 C486.017,97.692 482.357,98.674 479.846,101.186 L467.089,113.95 Z M471.59,118.448 L484.348,105.685 C485.251,104.78 486.568,104.427 487.803,104.758 C489.037,105.088 490.002,106.052 490.333,107.287 C490.664,108.521 490.311,109.838 489.407,110.742 L476.64,123.497 C476.26,123.877 475.793,124.154 475.279,124.303 L466.148,126.966 C466.706,126.804 467.308,126.958 467.719,127.369 C468.13,127.779 468.284,128.381 468.121,128.939 L470.784,119.807 C470.934,119.295 471.211,118.828 471.589,118.45 Z" />
            <path d="M471.363,95.09 C471.363,95.09 471.363,95.09 471.363,95.09 L471.363,79.182 C471.363,77.425 469.939,76 468.182,76 C466.424,76 465,77.425 465,79.182 L465,95.091 C465.001,97.331 466.177,99.404 468.099,100.552 C469.607,101.454 471.561,100.962 472.462,99.453 C473.364,97.945 472.872,95.991 471.363,95.09 Z" />
            <path d="M484.091,135.325 L484.091,136.455 C484.091,137.298 483.755,138.108 483.159,138.704 C482.562,139.301 481.753,139.636 480.909,139.636 L442.727,139.636 C441.883,139.636 441.074,139.301 440.477,138.704 C439.881,138.108 439.545,137.298 439.545,136.455 L439.545,85.545 C439.545,84.702 439.881,83.892 440.477,83.296 C441.074,82.699 441.883,82.364 442.727,82.364 L468.182,82.364 C469.373,82.362 470.512,82.833 471.349,83.674 L479.359,91.684 C480.601,92.926 482.616,92.926 483.859,91.684 C485.101,90.441 485.101,88.426 483.859,87.184 L475.853,79.178 C473.823,77.141 471.058,75.995 468.176,76 L442.727,76 C440.196,76 437.768,77.006 435.978,78.796 C434.188,80.586 433.182,83.014 433.182,85.545 L433.182,136.455 C433.182,138.986 434.188,141.414 435.978,143.204 C437.768,144.994 440.196,146 442.727,146 L480.909,146 C483.44,146 485.868,144.994 487.658,143.204 C489.448,141.414 490.454,138.986 490.454,136.455 L490.454,135.325 C490.454,133.568 489.03,132.143 487.272,132.143 C485.515,132.143 484.091,133.568 484.091,135.325 Z" />
            <path d="M449.091,133.273 L452.273,133.273 C454.03,133.273 455.454,131.848 455.454,130.091 C455.454,128.334 454.03,126.909 452.273,126.909 L449.091,126.909 C447.334,126.909 445.909,128.334 445.909,130.091 C445.909,131.848 447.334,133.273 449.091,133.273 Z" />
        </g>
        <g id="Black-M" transform="translate(0,200)">
            <path d="M667.091,113.949 C665.956,115.083 665.125,116.484 664.675,118.024 L662.012,127.157 C661.524,128.83 661.987,130.636 663.219,131.868 C664.451,133.101 666.257,133.563 667.93,133.075 L677.062,130.412 C678.603,129.962 680.005,129.132 681.139,127.997 L693.906,115.243 C696.418,112.73 697.399,109.07 696.479,105.639 C695.56,102.208 692.879,99.529 689.448,98.61 C686.017,97.692 682.357,98.674 679.846,101.186 L667.089,113.95 Z M671.59,118.448 L684.348,105.685 C685.251,104.78 686.568,104.427 687.803,104.758 C689.037,105.088 690.002,106.052 690.333,107.287 C690.664,108.521 690.311,109.838 689.407,110.742 L676.64,123.497 C676.26,123.877 675.792,124.154 675.279,124.303 L666.148,126.966 C666.706,126.804 667.308,126.958 667.719,127.369 C668.13,127.779 668.284,128.381 668.121,128.939 L670.784,119.807 C670.934,119.295 671.211,118.828 671.589,118.45 Z" />
            <path d="M671.363,95.09 C671.363,95.09 671.363,95.09 671.363,95.09 L671.363,79.182 C671.363,77.425 669.939,76 668.182,76 C666.424,76 665,77.425 665,79.182 L665,95.091 C665.001,97.331 666.177,99.404 668.099,100.552 C669.607,101.454 671.561,100.962 672.462,99.453 C673.364,97.945 672.872,95.991 671.363,95.09 Z" />
            <path d="M684.091,135.325 L684.091,136.455 C684.091,137.298 683.755,138.108 683.159,138.704 C682.562,139.301 681.753,139.636 680.909,139.636 L642.727,139.636 C641.883,139.636 641.074,139.301 640.477,138.704 C639.881,138.108 639.545,137.298 639.545,136.455 L639.545,85.545 C639.545,84.702 639.881,83.892 640.477,83.296 C641.074,82.699 641.883,82.364 642.727,82.364 L668.182,82.364 C669.373,82.362 670.512,82.833 671.349,83.674 L679.359,91.684 C680.601,92.926 682.616,92.926 683.859,91.684 C685.101,90.441 685.101,88.426 683.859,87.184 L675.853,79.178 C673.823,77.141 671.058,75.995 668.176,76 L642.727,76 C640.196,76 637.768,77.006 635.978,78.796 C634.188,80.586 633.182,83.014 633.182,85.545 L633.182,136.455 C633.182,138.986 634.188,141.414 635.978,143.204 C637.768,144.994 640.196,146 642.727,146 L680.909,146 C683.44,146 685.868,144.994 687.658,143.204 C689.448,141.414 690.454,138.986 690.454,136.455 L690.454,135.325 C690.454,133.568 689.03,132.143 687.272,132.143 C685.515,132.143 684.091,133.568 684.091,135.325 Z" />
            <path d="M649.091,133.273 L652.273,133.273 C654.03,133.273 655.454,131.848 655.454,130.091 C655.454,128.334 654.03,126.909 652.273,126.909 L649.091,126.909 C647.334,126.909 645.909,128.334 645.909,130.091 C645.909,131.848 647.334,133.273 649.091,133.273 Z" />
        </g>
    </g>
</svg>