<?xml version="1.0" encoding="UTF-8"?>
<svg height="600" width="800" xmlns="http://www.w3.org/2000/svg" xmlns:xlink="http://www.w3.org/1999/xlink">
    <g id="Notes" font-family="LucidaGrande, 'Lucida Grande', sans-serif" font-size="13">
        <rect fill="white" height="600.0" width="800.0" x="0.0" y="0.0" />
        <g font-size="13">
            <text x="18.0" y="176.0">Small</text>
            <text x="18.0" y="376.0">Medium</text>
            <text x="18.0" y="576.0">Large</text>
        </g>
        <g font-size="9">
            <text x="250.0" y="30.0">Ultralight</text>
            <text x="450.0" y="30.0">Regular</text>
            <text x="650.0" y="30.0">Black</text>
            <text id="template-version" fill="#505050" text-anchor="end" x="785.0" y="575.0">Template v.3.0</text>
            <a href="https://github.com/swhitty/SwiftDraw">
                <text fill="#505050" text-anchor="end" x="785.0" y="590.0">https://github.com/swhitty/SwiftDraw</text>
            </a>
        </g>
    </g>
    <g id="Guides" stroke="rgb(39, 170, 225)" stroke-width="0.5">
        <path id="Capline-S" d="M18,76 l800,0" />
        <path id="H-reference" d="M85,145.755 L87.685,145.755 L113.369,79.287 L114.052,79.287 L114.052,76 L112.148,76 L85,145.755 Z M95.693,121.536 L130.996,121.536 L130.263,119.313 L96.474,119.313 L95.693,121.536 Z M139.15,145.755 L141.787,145.755 L114.638,76 L113.466,76 L113.466,79.287 L139.15,145.755 Z" stroke="none" transform="translate(0,200)" />
        <path id="Baseline-S" d="M18,146 l800,0" />
        <path id="left-margin-Ultralight-M" d="M230,256 l0,110" />
        <path id="right-margin-Ultralight-M" d="M300,256 l0,110" />
        <path id="left-margin-Regular-M" d="M430,256 l0,110" />
        <path id="right-margin-Regular-M" d="M500,256 l0,110" />
        <path id="left-margin-Black-M" d="M630,256 l0,110" />
        <path id="right-margin-Black-M" d="M700,256 l0,110" />
        <path id="Capline-M" d="M18,276 l800,0" />
        <path id="Baseline-M" d="M18,346 l800,0" />
        <path id="Capline-L" d="M18,476 l800,0" />
        <path id="Baseline-L" d="M18,546 l800,0" />
    </g>
    <g id="Symbols">
        <g id="Ultralight-M" transform="translate(0,200)">
            <path d="M244.705,121.905 C233.564,110.789 233.564,92.523 244.705,81.407 C245.945,80.17 245.945,78.165 244.705,76.928 C243.466,75.691 241.456,75.691 240.216,76.928 C226.595,90.518 226.595,112.795 240.216,126.385 C241.456,127.621 243.466,127.621 244.705,126.385 C245.945,125.148 245.945,123.142 244.705,121.905 Z" />
            <path d="M249.383,85.837 C242.178,93.285 240.961,104.664 246.43,113.461 C247.354,114.948 249.311,115.406 250.801,114.484 C252.291,113.562 252.75,111.609 251.825,110.122 C247.889,103.789 248.765,95.598 253.952,90.236 C255.169,88.977 255.133,86.972 253.872,85.757 C252.61,84.542 250.6,84.578 249.383,85.837 Z" />
            <path d="M261.826,101.656 C261.826,99.907 263.248,98.489 265.001,98.489 C266.754,98.489 268.176,99.907 268.176,101.656 C268.176,103.405 266.754,104.824 265.001,104.824 C263.248,104.824 261.826,103.405 261.826,101.656 Z M255.477,101.656 C255.477,106.904 259.741,111.158 265.001,111.158 C270.261,111.158 274.525,106.904 274.525,101.656 C274.525,96.408 270.261,92.154 265.001,92.154 C259.741,92.154 255.477,96.408 255.477,101.656 Z" />
            <path d="M276.09,90.593 C281.292,95.783 282.116,103.991 278.174,110.347 C277.252,111.835 277.713,113.787 279.204,114.707 C280.695,115.628 282.652,115.168 283.574,113.68 C289.044,104.859 287.894,93.411 280.579,86.113 C279.34,84.876 277.33,84.876 276.09,86.113 C274.85,87.35 274.85,89.356 276.09,90.593 Z" />
            <path d="M285.299,81.409 C290.646,86.733 293.651,93.961 293.651,101.498 C293.651,109.035 290.646,116.262 285.299,121.586 C284.058,122.822 284.055,124.827 285.294,126.065 C286.533,127.304 288.543,127.306 289.784,126.07 C296.324,119.558 300,110.717 300,101.498 C300,92.278 296.324,83.438 289.784,76.925 C288.543,75.69 286.533,75.692 285.294,76.93 C284.055,78.168 284.058,80.174 285.299,81.409 Z" />
            <path d="M257.064,133.33 L272.938,133.33 C274.691,133.33 276.112,131.912 276.112,130.163 C276.112,128.414 274.691,126.995 272.938,126.995 L257.064,126.995 C255.311,126.995 253.889,128.414 253.889,130.163 C253.889,131.912 255.311,133.33 257.064,133.33 Z" />
            <path d="M255.286,143.915 L267.984,109.073 L262.017,109.073 L274.716,143.915 C275.315,145.559 277.137,146.407 278.785,145.809 C280.432,145.211 281.282,143.394 280.683,141.75 L267.984,106.909 C266.971,104.129 263.031,104.129 262.017,106.909 L249.319,141.75 C248.719,143.394 249.569,145.211 251.217,145.809 C252.865,146.407 254.687,145.559 255.286,143.915 Z" />
        </g>
        <g id="Regular-M" transform="translate(0,200)">
            <path d="M444.705,121.905 C433.564,110.789 433.564,92.523 444.705,81.407 C445.945,80.17 445.945,78.165 444.705,76.928 C443.466,75.691 441.456,75.691 440.216,76.928 C426.595,90.518 426.595,112.795 440.216,126.385 C441.456,127.621 443.466,127.621 444.705,126.385 C445.945,125.148 445.945,123.142 444.705,121.905 Z" />
            <path d="M449.383,85.837 C442.178,93.285 440.961,104.664 446.43,113.461 C447.354,114.948 449.311,115.406 450.801,114.484 C452.291,113.562 452.75,111.609 451.825,110.122 C447.889,103.789 448.765,95.598 453.952,90.236 C455.169,88.977 455.133,86.972 453.872,85.757 C452.61,84.542 450.6,84.578 449.383,85.837 Z" />
            <path d="M461.826,101.656 C461.826,99.907 463.248,98.489 465.001,98.489 C466.754,98.489 468.176,99.907 468.176,101.656 C468.176,103.405 466.754,104.824 465.001,104.824 C463.248,104.824 461.826,103.405 461.826,101.656 Z M455.477,101.656 C455.477,106.904 459.741,111.158 465.001,111.158 C470.261,111.158 474.525,106.904 474.525,101.656 C474.525,96.408 470.261,92.154 465.001,92.154 C459.741,92.154 455.477,96.408 455.477,101.656 Z" />
            <path d="M476.09,90.593 C481.292,95.783 482.116,103.991 478.174,110.347 C477.252,111.835 477.713,113.787 479.204,114.707 C480.695,115.628 482.652,115.168 483.574,113.68 C489.044,104.859 487.894,93.411 480.579,86.113 C479.34,84.876 477.33,84.876 476.09,86.113 C474.85,87.35 474.85,89.356 476.09,90.593 Z" />
            <path d="M485.299,81.409 C490.646,86.733 493.651,93.961 493.651,101.498 C493.651,109.035 490.646,116.262 485.299,121.586 C484.058,122.822 484.055,124.827 485.294,126.065 C486.533,127.304 488.543,127.306 489.784,126.07 C496.324,119.558 500,110.717 500,101.498 C500,92.278 496.324,83.438 489.784,76.925 C488.543,75.69 486.533,75.692 485.294,76.93 C484.055,78.168 484.058,80.174 485.299,81.409 Z" />
            <path d="M457.064,133.33 L472.938,133.33 C474.691,133.33 476.112,131.912 476.112,130.163 C476.112,128.414 474.691,126.995 472.938,126.995 L457.064,126.995 C455.311,126.995 453.889,128.414 453.889,130.163 C453.889,131.912 455.311,133.33 457.064,133.33 Z" />
            <path d="M455.286,143.915 L467.984,109.073 L462.017,109.073 L474.716,143.915 C475.315,145.559 477.137,146.407 478.785,145.809 C480.432,145.211 481.282,143.394 480.683,141.75 L467.984,106.909 C466.971,104.129 463.031,104.129 462.017,106.909 L449.319,141.75 C448.719,143.394 449.569,145.211 451.217,145.809 C452.865,146.407 454.687,145.559 455.286,143.915 Z" />
        </g>
        <g id="Black-M" transform="translate(0,200)">
            <path d="M644.705,121.905 C633.564,110.789 633.564,92.523 644.705,81.407 C645.945,80.17 645.945,78.165 644.705,76.928 C643.466,75.691 641.456,75.691 640.216,76.928 C626.595,90.518 626.595,112.795 640.216,126.385 C641.456,127.621 643.466,127.621 644.705,126.385 C645.945,125.148 645.945,123.142 644.705,121.905 Z" />
            <path d="M649.383,85.837 C642.178,93.285 640.961,104.664 646.43,113.461 C647.354,114.948 649.311,115.406 650.801,114.484 C652.291,113.562 652.75,111.609 651.825,110.122 C647.889,103.789 648.765,95.598 653.952,90.236 C655.169,88.977 655.133,86.972 653.872,85.757 C652.61,84.542 650.601,84.578 649.383,85.837 Z" />
            <path d="M661.826,101.656 C661.826,99.907 663.248,98.489 665.001,98.489 C666.754,98.489 668.176,99.907 668.176,101.656 C668.176,103.405 666.754,104.824 665.001,104.824 C663.248,104.824 661.826,103.405 661.826,101.656 Z M655.477,101.656 C655.477,106.904 659.741,111.158 665.001,111.158 C670.261,111.158 674.525,106.904 674.525,101.656 C674.525,96.408 670.261,92.154 665.001,92.154 C659.741,92.154 655.477,96.408 655.477,101.656 Z" />
            <path d="M676.09,90.593 C681.292,95.783 682.116,103.991 678.174,110.347 C677.252,111.835 677.713,113.787 679.204,114.707 C680.695,115.628 682.652,115.168 683.574,113.68 C689.044,104.859 687.894,93.411 680.579,86.113 C679.34,84.876 677.33,84.876 676.09,86.113 C674.85,87.35 674.85,89.356 676.09,90.593 Z" />
            <path d="M685.299,81.409 C690.646,86.733 693.651,93.961 693.651,101.498 C693.651,109.035 690.646,116.262 685.299,121.586 C684.058,122.822 684.055,124.827 685.294,126.065 C686.533,127.304 688.543,127.306 689.784,126.07 C696.324,119.558 700,110.717 700,101.498 C700,92.278 696.324,83.438 689.784,76.925 C688.543,75.69 686.533,75.692 685.294,76.93 C684.055,78.168 684.058,80.174 685.299,81.409 Z" />
            <path d="M657.064,133.33 L672.938,133.33 C674.691,133.33 676.112,131.912 676.112,130.163 C676.112,128.414 674.691,126.995 672.938,126.995 L657.064,126.995 C655.311,126.995 653.89,128.414 653.89,130.163 C653.89,131.912 655.311,133.33 657.064,133.33 Z" />
            <path d="M655.286,143.915 L667.984,109.073 L662.017,109.073 L674.716,143.915 C675.315,145.559 677.137,146.407 678.785,145.809 C680.432,145.211 681.282,143.394 680.683,141.75 L667.984,106.909 C666.971,104.129 663.031,104.129 662.017,106.909 L649.319,141.75 C648.719,143.394 649.569,145.211 651.217,145.809 C652.865,146.407 654.687,145.559 655.286,143.915 Z" />
        </g>
    </g>
</svg>