<?xml version="1.0" encoding="UTF-8"?>
<svg height="600" width="800" xmlns="http://www.w3.org/2000/svg" xmlns:xlink="http://www.w3.org/1999/xlink">
    <g id="Notes" font-family="LucidaGrande, 'Lucida Grande', sans-serif" font-size="13">
        <rect fill="white" height="600.0" width="800.0" x="0.0" y="0.0" />
        <g font-size="13">
            <text x="18.0" y="176.0">Small</text>
            <text x="18.0" y="376.0">Medium</text>
            <text x="18.0" y="576.0">Large</text>
        </g>
        <g font-size="9">
            <text x="250.0" y="30.0">Ultralight</text>
            <text x="450.0" y="30.0">Regular</text>
            <text x="650.0" y="30.0">Black</text>
            <text id="template-version" fill="#505050" text-anchor="end" x="785.0" y="575.0">Template v.3.0</text>
            <a href="https://github.com/swhitty/SwiftDraw">
                <text fill="#505050" text-anchor="end" x="785.0" y="590.0">https://github.com/swhitty/SwiftDraw</text>
            </a>
        </g>
    </g>
    <g id="Guides" stroke="rgb(39, 170, 225)" stroke-width="0.5">
        <path id="Capline-S" d="M18,76 l800,0" />
        <path id="H-reference" d="M85,145.755 L87.685,145.755 L113.369,79.287 L114.052,79.287 L114.052,76 L112.148,76 L85,145.755 Z M95.693,121.536 L130.996,121.536 L130.263,119.313 L96.474,119.313 L95.693,121.536 Z M139.15,145.755 L141.787,145.755 L114.638,76 L113.466,76 L113.466,79.287 L139.15,145.755 Z" stroke="none" transform="translate(0,200)" />
        <path id="Baseline-S" d="M18,146 l800,0" />
        <path id="left-margin-Ultralight-M" d="M230,256 l0,110" />
        <path id="right-margin-Ultralight-M" d="M300,256 l0,110" />
        <path id="left-margin-Regular-M" d="M430,256 l0,110" />
        <path id="right-margin-Regular-M" d="M500,256 l0,110" />
        <path id="left-margin-Black-M" d="M630,256 l0,110" />
        <path id="right-margin-Black-M" d="M700,256 l0,110" />
        <path id="Capline-M" d="M18,276 l800,0" />
        <path id="Baseline-M" d="M18,346 l800,0" />
        <path id="Capline-L" d="M18,476 l800,0" />
        <path id="Baseline-L" d="M18,546 l800,0" />
    </g>
    <g id="Symbols">
        <g id="Ultralight-M" transform="translate(0,200)">
            <path d="M279,76 C276.215,76 273.544,77.106 271.575,79.075 C269.606,81.045 268.5,83.715 268.5,86.5 L268.5,107.5 C268.5,110.285 269.606,112.955 271.575,114.925 C273.544,116.894 276.215,118 279,118 C279,118 279,118 279,118 C279,118 279,118 279,118 L279,121.5 C279,122.428 278.631,123.318 277.975,123.975 C277.318,124.631 276.428,125 275.5,125 C273.643,125 271.863,125.737 270.55,127.05 C269.237,128.363 268.5,130.143 268.5,132 L268.5,139 C268.5,140.857 269.237,142.637 270.55,143.95 C271.863,145.263 273.643,146 275.5,146 C281.998,146 288.229,143.419 292.824,138.824 C297.419,134.229 300,127.998 300,121.5 L300,86.5 C300,83.715 298.894,81.045 296.925,79.075 C294.956,77.106 292.285,76 289.5,76 L279,76 Z M279,83 L289.5,83 C290.428,83 291.318,83.369 291.975,84.025 C292.631,84.682 293,85.572 293,86.5 L293,121.5 C293,126.141 291.156,130.592 287.874,133.874 C284.592,137.156 280.141,139 275.5,139 C275.5,139 275.5,139 275.5,139 C275.5,139 275.5,139 275.5,139 L275.5,132 C275.5,132 275.5,132 275.5,132 C275.5,132 275.5,132 275.5,132 C278.285,132 280.955,130.894 282.925,128.925 C284.894,126.955 286,124.285 286,121.5 L286,118 C286,116.143 285.263,114.363 283.95,113.05 C282.637,111.737 280.857,111 279,111 C278.072,111 277.182,110.631 276.525,109.975 C275.869,109.318 275.5,108.428 275.5,107.5 L275.5,86.5 C275.5,85.572 275.869,84.682 276.525,84.025 C277.182,83.369 278.072,83 279,83 Z" />
            <path d="M240.5,76 C237.715,76 235.045,77.106 233.075,79.075 C231.106,81.045 230,83.715 230,86.5 L230,107.5 C230,110.285 231.106,112.955 233.075,114.925 C235.045,116.894 237.715,118 240.5,118 C240.5,118 240.5,118 240.5,118 C240.5,118 240.5,118 240.5,118 L240.5,121.5 C240.5,122.428 240.131,123.318 239.475,123.975 C238.818,124.631 237.928,125 237,125 C235.143,125 233.363,125.737 232.05,127.05 C230.737,128.363 230,130.143 230,132 L230,139 C230,140.857 230.738,142.637 232.05,143.95 C233.363,145.263 235.143,146 237,146 C243.498,146 249.729,143.419 254.324,138.824 C258.919,134.229 261.5,127.998 261.5,121.5 L261.5,86.5 C261.5,83.715 260.394,81.045 258.425,79.075 C256.456,77.106 253.785,76 251,76 L240.5,76 Z M240.5,83 L251,83 C251.928,83 252.818,83.369 253.475,84.025 C254.131,84.682 254.5,85.572 254.5,86.5 L254.5,121.5 C254.5,126.141 252.656,130.592 249.374,133.874 C246.092,137.156 241.641,139 237,139 C237,139 237,139 237,139 C237,139 237,139 237,139 L237,132 C237,132 237,132 237,132 C237,132 237,132 237,132 C239.785,132 242.455,130.894 244.425,128.925 C246.394,126.955 247.5,124.285 247.5,121.5 L247.5,118 C247.5,116.143 246.762,114.363 245.45,113.05 C244.137,111.738 242.357,111 240.5,111 C239.572,111 238.682,110.631 238.025,109.975 C237.369,109.318 237,108.428 237,107.5 L237,86.5 C237,85.572 237.369,84.682 238.025,84.025 C238.682,83.369 239.572,83 240.5,83 Z" />
        </g>
        <g id="Regular-M" transform="translate(0,200)">
            <path d="M479,76 C476.215,76 473.544,77.106 471.575,79.075 C469.606,81.045 468.5,83.715 468.5,86.5 L468.5,107.5 C468.5,110.285 469.606,112.955 471.575,114.925 C473.544,116.894 476.215,118 479,118 C479,118 479,118 479,118 C479,118 479,118 479,118 L479,121.5 C479,122.428 478.631,123.318 477.975,123.975 C477.318,124.631 476.428,125 475.5,125 C473.643,125 471.863,125.737 470.55,127.05 C469.237,128.363 468.5,130.143 468.5,132 L468.5,139 C468.5,140.857 469.237,142.637 470.55,143.95 C471.863,145.263 473.643,146 475.5,146 C481.998,146 488.229,143.419 492.824,138.824 C497.419,134.229 500,127.998 500,121.5 L500,86.5 C500,83.715 498.894,81.045 496.925,79.075 C494.956,77.106 492.285,76 489.5,76 L479,76 Z M479,83 L489.5,83 C490.428,83 491.318,83.369 491.975,84.025 C492.631,84.682 493,85.572 493,86.5 L493,121.5 C493,126.141 491.156,130.592 487.874,133.874 C484.592,137.156 480.141,139 475.5,139 C475.5,139 475.5,139 475.5,139 C475.5,139 475.5,139 475.5,139 L475.5,132 C475.5,132 475.5,132 475.5,132 C475.5,132 475.5,132 475.5,132 C478.285,132 480.955,130.894 482.925,128.925 C484.894,126.955 486,124.285 486,121.5 L486,118 C486,116.143 485.263,114.363 483.95,113.05 C482.637,111.737 480.857,111 479,111 C478.072,111 477.182,110.631 476.525,109.975 C475.869,109.318 475.5,108.428 475.5,107.5 L475.5,86.5 C475.5,85.572 475.869,84.682 476.525,84.025 C477.182,83.369 478.072,83 479,83 Z" />
            <path d="M440.5,76 C437.715,76 435.045,77.106 433.075,79.075 C431.106,81.045 430,83.715 430,86.5 L430,107.5 C430,110.285 431.106,112.955 433.075,114.925 C435.045,116.894 437.715,118 440.5,118 C440.5,118 440.5,118 440.5,118 C440.5,118 440.5,118 440.5,118 L440.5,121.5 C440.5,122.428 440.131,123.318 439.475,123.975 C438.818,124.631 437.928,125 437,125 C435.143,125 433.363,125.737 432.05,127.05 C430.737,128.363 430,130.143 430,132 L430,139 C430,140.857 430.737,142.637 432.05,143.95 C433.363,145.263 435.143,146 437,146 C443.498,146 449.729,143.419 454.324,138.824 C458.919,134.229 461.5,127.998 461.5,121.5 L461.5,86.5 C461.5,83.715 460.394,81.045 458.425,79.075 C456.456,77.106 453.785,76 451,76 L440.5,76 Z M440.5,83 L451,83 C451.928,83 452.819,83.369 453.475,84.025 C454.131,84.682 454.5,85.572 454.5,86.5 L454.5,121.5 C454.5,126.141 452.656,130.592 449.374,133.874 C446.092,137.156 441.641,139 437,139 C437,139 437,139 437,139 C437,139 437,139 437,139 L437,132 C437,132 437,132 437,132 C437,132 437,132 437,132 C439.785,132 442.455,130.894 444.425,128.925 C446.394,126.955 447.5,124.285 447.5,121.5 L447.5,118 C447.5,116.143 446.763,114.363 445.45,113.05 C444.137,111.738 442.357,111 440.5,111 C439.572,111 438.682,110.631 438.025,109.975 C437.369,109.318 437,108.428 437,107.5 L437,86.5 C437,85.572 437.369,84.682 438.025,84.025 C438.682,83.369 439.572,83 440.5,83 Z" />
        </g>
        <g id="Black-M" transform="translate(0,200)">
            <path d="M679,76 C676.215,76 673.544,77.106 671.575,79.075 C669.606,81.045 668.5,83.715 668.5,86.5 L668.5,107.5 C668.5,110.285 669.606,112.955 671.575,114.925 C673.544,116.894 676.215,118 679,118 C679,118 679,118 679,118 C679,118 679,118 679,118 L679,121.5 C679,122.428 678.631,123.318 677.975,123.975 C677.318,124.631 676.428,125 675.5,125 C673.643,125 671.863,125.737 670.55,127.05 C669.237,128.363 668.5,130.143 668.5,132 L668.5,139 C668.5,140.857 669.237,142.637 670.55,143.95 C671.863,145.263 673.643,146 675.5,146 C681.998,146 688.229,143.419 692.824,138.824 C697.419,134.229 700,127.998 700,121.5 L700,86.5 C700,83.715 698.894,81.045 696.925,79.075 C694.956,77.106 692.285,76 689.5,76 L679,76 Z M679,83 L689.5,83 C690.428,83 691.318,83.369 691.975,84.025 C692.631,84.682 693,85.572 693,86.5 L693,121.5 C693,126.141 691.156,130.592 687.874,133.874 C684.592,137.156 680.141,139 675.5,139 C675.5,139 675.5,139 675.5,139 C675.5,139 675.5,139 675.5,139 L675.5,132 C675.5,132 675.5,132 675.5,132 C675.5,132 675.5,132 675.5,132 C678.285,132 680.956,130.894 682.925,128.925 C684.894,126.955 686,124.285 686,121.5 L686,118 C686,116.143 685.263,114.363 683.95,113.05 C682.637,111.737 680.857,111 679,111 C678.072,111 677.182,110.631 676.525,109.975 C675.869,109.318 675.5,108.428 675.5,107.5 L675.5,86.5 C675.5,85.572 675.869,84.682 676.525,84.025 C677.182,83.369 678.072,83 679,83 Z" />
            <path d="M640.5,76 C637.715,76 635.044,77.106 633.075,79.075 C631.106,81.045 630,83.715 630,86.5 L630,107.5 C630,110.285 631.106,112.955 633.075,114.925 C635.044,116.894 637.715,118 640.5,118 C640.5,118 640.5,118 640.5,118 C640.5,118 640.5,118 640.5,118 L640.5,121.5 C640.5,122.428 640.131,123.318 639.475,123.975 C638.818,124.631 637.928,125 637,125 C635.143,125 633.363,125.737 632.05,127.05 C630.737,128.363 630,130.143 630,132 L630,139 C630,140.857 630.737,142.637 632.05,143.95 C633.363,145.263 635.143,146 637,146 C643.498,146 649.729,143.419 654.324,138.824 C658.919,134.229 661.5,127.998 661.5,121.5 L661.5,86.5 C661.5,83.715 660.394,81.045 658.425,79.075 C656.456,77.106 653.785,76 651,76 L640.5,76 Z M640.5,83 L651,83 C651.928,83 652.818,83.369 653.475,84.025 C654.131,84.682 654.5,85.572 654.5,86.5 L654.5,121.5 C654.5,126.141 652.656,130.592 649.374,133.874 C646.092,137.156 641.641,139 637,139 C637,139 637,139 637,139 C637,139 637,139 637,139 L637,132 C637,132 637,132 637,132 C637,132 637,132 637,132 C639.785,132 642.456,130.894 644.425,128.925 C646.394,126.955 647.5,124.285 647.5,121.5 L647.5,118 C647.5,116.143 646.763,114.363 645.45,113.05 C644.137,111.738 642.357,111 640.5,111 C639.572,111 638.682,110.631 638.025,109.975 C637.369,109.318 637,108.428 637,107.5 L637,86.5 C637,85.572 637.369,84.682 638.025,84.025 C638.682,83.369 639.572,83 640.5,83 Z" />
        </g>
    </g>
</svg>