<?xml version="1.0" encoding="UTF-8"?>
<svg height="600" width="800" xmlns="http://www.w3.org/2000/svg" xmlns:xlink="http://www.w3.org/1999/xlink">
    <g id="Notes" font-family="LucidaGrande, 'Lucida Grande', sans-serif" font-size="13">
        <rect fill="white" height="600.0" width="800.0" x="0.0" y="0.0" />
        <g font-size="13">
            <text x="18.0" y="176.0">Small</text>
            <text x="18.0" y="376.0">Medium</text>
            <text x="18.0" y="576.0">Large</text>
        </g>
        <g font-size="9">
            <text x="250.0" y="30.0">Ultralight</text>
            <text x="450.0" y="30.0">Regular</text>
            <text x="650.0" y="30.0">Black</text>
            <text id="template-version" fill="#505050" text-anchor="end" x="785.0" y="575.0">Template v.3.0</text>
            <a href="https://github.com/swhitty/SwiftDraw">
                <text fill="#505050" text-anchor="end" x="785.0" y="590.0">https://github.com/swhitty/SwiftDraw</text>
            </a>
        </g>
    </g>
    <g id="Guides" stroke="rgb(39, 170, 225)" stroke-width="0.5">
        <path id="Capline-S" d="M18,76 l800,0" />
        <path id="H-reference" d="M85,145.755 L87.685,145.755 L113.369,79.287 L114.052,79.287 L114.052,76 L112.148,76 L85,145.755 Z M95.693,121.536 L130.996,121.536 L130.263,119.313 L96.474,119.313 L95.693,121.536 Z M139.15,145.755 L141.787,145.755 L114.638,76 L113.466,76 L113.466,79.287 L139.15,145.755 Z" stroke="none" transform="translate(0,200)" />
        <path id="Baseline-S" d="M18,146 l800,0" />
        <path id="left-margin-Ultralight-M" d="M230,256 l0,110" />
        <path id="right-margin-Ultralight-M" d="M300,256 l0,110" />
        <path id="left-margin-Regular-M" d="M430,256 l0,110" />
        <path id="right-margin-Regular-M" d="M500,256 l0,110" />
        <path id="left-margin-Black-M" d="M630,256 l0,110" />
        <path id="right-margin-Black-M" d="M700,256 l0,110" />
        <path id="Capline-M" d="M18,276 l800,0" />
        <path id="Baseline-M" d="M18,346 l800,0" />
        <path id="Capline-L" d="M18,476 l800,0" />
        <path id="Baseline-L" d="M18,546 l800,0" />
    </g>
    <g id="Symbols">
        <g id="Ultralight-M" transform="translate(0,200)">
            <path d="M293,111 L293,135.5 C293,136.428 292.631,137.318 291.975,137.975 C291.318,138.631 290.428,139 289.5,139 L240.5,139 C239.572,139 238.682,138.631 238.025,137.975 C237.369,137.318 237,136.428 237,135.5 L237,86.5 C237,85.572 237.369,84.682 238.025,84.025 C238.682,83.369 239.572,83 240.5,83 L289.5,83 C290.428,83 291.318,83.369 291.975,84.025 C292.631,84.682 293,85.572 293,86.5 L293,111 Z M300,111 L300,86.5 C300,83.715 298.894,81.045 296.925,79.075 C294.956,77.106 292.285,76 289.5,76 L240.5,76 C237.715,76 235.045,77.106 233.075,79.075 C231.106,81.045 230,83.715 230,86.5 L230,135.5 C230,138.285 231.106,140.955 233.075,142.925 C235.045,144.894 237.715,146 240.5,146 L289.5,146 C292.285,146 294.955,144.894 296.925,142.925 C298.894,140.955 300,138.285 300,135.5 L300,111 Z" />
            <path d="M251,98.75 C251,97.784 251.784,97 252.75,97 C253.716,97 254.5,97.784 254.5,98.75 C254.5,99.716 253.716,100.5 252.75,100.5 C251.784,100.5 251,99.716 251,98.75 Z M244,98.75 C244,103.582 247.918,107.5 252.75,107.5 C257.582,107.5 261.5,103.582 261.5,98.75 C261.5,93.918 257.582,90 252.75,90 C247.918,90 244,93.918 244,98.75 Z" />
            <path d="M253.987,104.937 L262.525,113.475 C263.892,114.842 266.108,114.842 267.475,113.475 C268.842,112.108 268.842,109.892 267.475,108.525 L258.937,99.987 C257.57,98.621 255.354,98.621 253.987,99.987 C252.621,101.354 252.621,103.57 253.987,104.937 Z" />
            <path d="M284.975,126.025 L277.345,118.395 C275.978,117.028 273.762,117.028 272.395,118.395 C271.028,119.762 271.028,121.978 272.395,123.345 L280.025,130.975 C281.392,132.342 283.608,132.342 284.975,130.975 C286.342,129.608 286.342,127.392 284.975,126.025 Z" />
            <path d="M251,123.25 C251,122.284 251.784,121.5 252.75,121.5 C253.716,121.5 254.5,122.284 254.5,123.25 C254.5,124.216 253.716,125 252.75,125 C251.784,125 251,124.216 251,123.25 Z M244,123.25 C244,128.082 247.918,132 252.75,132 C257.582,132 261.5,128.082 261.5,123.25 C261.5,118.418 257.582,114.5 252.75,114.5 C247.918,114.5 244,118.418 244,123.25 Z" />
            <path d="M258.937,122.013 L284.975,95.975 C286.342,94.608 286.342,92.392 284.975,91.025 C283.608,89.658 281.392,89.658 280.025,91.025 L253.987,117.063 C252.621,118.43 252.621,120.646 253.987,122.013 C255.354,123.379 257.57,123.379 258.937,122.013 Z" />
        </g>
        <g id="Regular-M" transform="translate(0,200)">
            <path d="M493,111 L493,135.5 C493,136.428 492.631,137.318 491.975,137.975 C491.318,138.631 490.428,139 489.5,139 L440.5,139 C439.572,139 438.682,138.631 438.025,137.975 C437.369,137.318 437,136.428 437,135.5 L437,86.5 C437,85.572 437.369,84.682 438.025,84.025 C438.682,83.369 439.572,83 440.5,83 L489.5,83 C490.428,83 491.318,83.369 491.975,84.025 C492.631,84.682 493,85.572 493,86.5 L493,111 Z M500,111 L500,86.5 C500,83.715 498.894,81.045 496.925,79.075 C494.956,77.106 492.285,76 489.5,76 L440.5,76 C437.715,76 435.045,77.106 433.075,79.075 C431.106,81.045 430,83.715 430,86.5 L430,135.5 C430,138.285 431.106,140.955 433.075,142.925 C435.045,144.894 437.715,146 440.5,146 L489.5,146 C492.285,146 494.955,144.894 496.925,142.925 C498.894,140.955 500,138.285 500,135.5 L500,111 Z" />
            <path d="M451,98.75 C451,97.784 451.784,97 452.75,97 C453.716,97 454.5,97.784 454.5,98.75 C454.5,99.716 453.716,100.5 452.75,100.5 C451.784,100.5 451,99.716 451,98.75 Z M444,98.75 C444,103.582 447.918,107.5 452.75,107.5 C457.582,107.5 461.5,103.582 461.5,98.75 C461.5,93.918 457.582,90 452.75,90 C447.918,90 444,93.918 444,98.75 Z" />
            <path d="M453.987,104.937 L462.525,113.475 C463.892,114.842 466.108,114.842 467.475,113.475 C468.842,112.108 468.842,109.892 467.475,108.525 L458.937,99.987 C457.57,98.621 455.354,98.621 453.987,99.987 C452.621,101.354 452.621,103.57 453.987,104.937 Z" />
            <path d="M484.975,126.025 L477.345,118.395 C475.978,117.028 473.762,117.028 472.395,118.395 C471.028,119.762 471.028,121.978 472.395,123.345 L480.025,130.975 C481.392,132.342 483.608,132.342 484.975,130.975 C486.342,129.608 486.342,127.392 484.975,126.025 Z" />
            <path d="M451,123.25 C451,122.284 451.784,121.5 452.75,121.5 C453.716,121.5 454.5,122.284 454.5,123.25 C454.5,124.216 453.716,125 452.75,125 C451.784,125 451,124.216 451,123.25 Z M444,123.25 C444,128.082 447.918,132 452.75,132 C457.582,132 461.5,128.082 461.5,123.25 C461.5,118.418 457.582,114.5 452.75,114.5 C447.918,114.5 444,118.418 444,123.25 Z" />
            <path d="M458.937,122.013 L484.975,95.975 C486.342,94.608 486.342,92.392 484.975,91.025 C483.608,89.658 481.392,89.658 480.025,91.025 L453.987,117.063 C452.621,118.43 452.621,120.646 453.987,122.013 C455.354,123.379 457.57,123.379 458.937,122.013 Z" />
        </g>
        <g id="Black-M" transform="translate(0,200)">
            <path d="M693,111 L693,135.5 C693,136.428 692.631,137.318 691.975,137.975 C691.318,138.631 690.428,139 689.5,139 L640.5,139 C639.572,139 638.682,138.631 638.025,137.975 C637.369,137.318 637,136.428 637,135.5 L637,86.5 C637,85.572 637.369,84.682 638.025,84.025 C638.682,83.369 639.572,83 640.5,83 L689.5,83 C690.428,83 691.318,83.369 691.975,84.025 C692.631,84.682 693,85.572 693,86.5 L693,111 Z M700,111 L700,86.5 C700,83.715 698.894,81.045 696.925,79.075 C694.956,77.106 692.285,76 689.5,76 L640.5,76 C637.715,76 635.044,77.106 633.075,79.075 C631.106,81.045 630,83.715 630,86.5 L630,135.5 C630,138.285 631.106,140.955 633.075,142.925 C635.044,144.894 637.715,146 640.5,146 L689.5,146 C692.285,146 694.956,144.894 696.925,142.925 C698.894,140.955 700,138.285 700,135.5 L700,111 Z" />
            <path d="M651,98.75 C651,97.784 651.784,97 652.75,97 C653.716,97 654.5,97.784 654.5,98.75 C654.5,99.716 653.716,100.5 652.75,100.5 C651.784,100.5 651,99.716 651,98.75 Z M644,98.75 C644,103.582 647.917,107.5 652.75,107.5 C657.583,107.5 661.5,103.582 661.5,98.75 C661.5,93.918 657.583,90 652.75,90 C647.917,90 644,93.918 644,98.75 Z" />
            <path d="M653.987,104.937 L662.525,113.475 C663.892,114.842 666.108,114.842 667.475,113.475 C668.842,112.108 668.842,109.892 667.475,108.525 L658.937,99.987 C657.57,98.621 655.354,98.621 653.987,99.987 C652.621,101.354 652.621,103.57 653.987,104.937 Z" />
            <path d="M684.975,126.025 L677.345,118.395 C675.978,117.028 673.762,117.028 672.395,118.395 C671.028,119.762 671.028,121.978 672.395,123.345 L680.025,130.975 C681.392,132.342 683.608,132.342 684.975,130.975 C686.342,129.608 686.342,127.392 684.975,126.025 Z" />
            <path d="M651,123.25 C651,122.284 651.784,121.5 652.75,121.5 C653.716,121.5 654.5,122.284 654.5,123.25 C654.5,124.216 653.716,125 652.75,125 C651.784,125 651,124.216 651,123.25 Z M644,123.25 C644,128.082 647.917,132 652.75,132 C657.583,132 661.5,128.082 661.5,123.25 C661.5,118.418 657.583,114.5 652.75,114.5 C647.917,114.5 644,118.418 644,123.25 Z" />
            <path d="M658.937,122.013 L684.975,95.975 C686.342,94.608 686.342,92.392 684.975,91.025 C683.608,89.658 681.392,89.658 680.025,91.025 L653.987,117.063 C652.621,118.43 652.621,120.646 653.987,122.013 C655.354,123.379 657.57,123.379 658.937,122.013 Z" />
        </g>
    </g>
</svg>