<?xml version="1.0" encoding="UTF-8"?>
<svg height="600" width="800" xmlns="http://www.w3.org/2000/svg" xmlns:xlink="http://www.w3.org/1999/xlink">
    <g id="Notes" font-family="LucidaGrande, 'Lucida Grande', sans-serif" font-size="13">
        <rect fill="white" height="600.0" width="800.0" x="0.0" y="0.0" />
        <g font-size="13">
            <text x="18.0" y="176.0">Small</text>
            <text x="18.0" y="376.0">Medium</text>
            <text x="18.0" y="576.0">Large</text>
        </g>
        <g font-size="9">
            <text x="250.0" y="30.0">Ultralight</text>
            <text x="450.0" y="30.0">Regular</text>
            <text x="650.0" y="30.0">Black</text>
            <text id="template-version" fill="#505050" text-anchor="end" x="785.0" y="575.0">Template v.3.0</text>
            <a href="https://github.com/swhitty/SwiftDraw">
                <text fill="#505050" text-anchor="end" x="785.0" y="590.0">https://github.com/swhitty/SwiftDraw</text>
            </a>
        </g>
    </g>
    <g id="Guides" stroke="rgb(39, 170, 225)" stroke-width="0.5">
        <path id="Capline-S" d="M18,76 l800,0" />
        <path id="H-reference" d="M85,145.755 L87.685,145.755 L113.369,79.287 L114.052,79.287 L114.052,76 L112.148,76 L85,145.755 Z M95.693,121.536 L130.996,121.536 L130.263,119.313 L96.474,119.313 L95.693,121.536 Z M139.15,145.755 L141.787,145.755 L114.638,76 L113.466,76 L113.466,79.287 L139.15,145.755 Z" stroke="none" transform="translate(0,200)" />
        <path id="Baseline-S" d="M18,146 l800,0" />
        <path id="left-margin-Ultralight-M" d="M231.591,256 l0,110" />
        <path id="right-margin-Ultralight-M" d="M298.409,256 l0,110" />
        <path id="left-margin-Regular-M" d="M431.591,256 l0,110" />
        <path id="right-margin-Regular-M" d="M498.409,256 l0,110" />
        <path id="left-margin-Black-M" d="M631.591,256 l0,110" />
        <path id="right-margin-Black-M" d="M698.409,256 l0,110" />
        <path id="Capline-M" d="M18,276 l800,0" />
        <path id="Baseline-M" d="M18,346 l800,0" />
        <path id="Capline-L" d="M18,476 l800,0" />
        <path id="Baseline-L" d="M18,546 l800,0" />
    </g>
    <g id="Symbols">
        <g id="Ultralight-M" transform="translate(0,200)">
            <path d="M272.955,117.364 L272.955,124.364 C272.955,125.461 273.52,126.48 274.45,127.062 L279.541,130.244 C281.031,131.175 282.994,130.722 283.925,129.232 C284.857,127.742 284.404,125.779 282.914,124.847 L277.823,121.665 L279.318,124.364 L279.318,117.364 C279.318,115.606 277.894,114.182 276.136,114.182 C274.379,114.182 272.955,115.606 272.955,117.364 Z" />
            <path d="M272.955,79.182 L272.955,91.909 C272.955,93.666 274.379,95.091 276.136,95.091 C277.894,95.091 279.318,93.666 279.318,91.909 L279.318,79.182 C279.318,77.425 277.894,76 276.136,76 C274.379,76 272.955,77.425 272.955,79.182 Z" />
            <path d="M295.227,96.682 L295.227,91.909 C295.227,89.377 294.222,86.95 292.431,85.159 C290.641,83.369 288.213,82.364 285.682,82.364 L241.136,82.364 C238.605,82.364 236.177,83.369 234.387,85.159 C232.597,86.95 231.591,89.377 231.591,91.909 L231.591,136.455 C231.591,138.986 232.597,141.414 234.387,143.204 C236.177,144.994 238.605,146 241.136,146 L252.273,146 C254.03,146 255.455,144.575 255.455,142.818 C255.455,141.061 254.03,139.636 252.273,139.636 L241.136,139.636 C240.292,139.636 239.483,139.301 238.886,138.704 C238.29,138.108 237.955,137.298 237.955,136.455 L237.955,91.909 C237.955,91.065 238.29,90.256 238.886,89.659 C239.483,89.062 240.292,88.727 241.136,88.727 L285.682,88.727 C286.526,88.727 287.335,89.062 287.932,89.659 C288.528,90.256 288.864,91.065 288.864,91.909 L288.864,96.682 C288.864,98.439 290.288,99.864 292.045,99.864 C293.803,99.864 295.227,98.439 295.227,96.682 Z" />
            <path d="M234.773,107.818 L250.682,107.818 C252.439,107.818 253.864,106.394 253.864,104.636 C253.864,102.879 252.439,101.455 250.682,101.455 L234.773,101.455 C233.015,101.455 231.591,102.879 231.591,104.636 C231.591,106.394 233.015,107.818 234.773,107.818 Z" />
            <path d="M247.5,79.182 L247.5,91.909 C247.5,93.666 248.925,95.091 250.682,95.091 C252.439,95.091 253.864,93.666 253.864,91.909 L253.864,79.182 C253.864,77.425 252.439,76 250.682,76 C248.925,76 247.5,77.425 247.5,79.182 Z" />
            <path d="M260.227,123.727 C260.227,114.941 267.35,107.818 276.136,107.818 C284.923,107.818 292.045,114.941 292.045,123.727 C292.045,132.514 284.923,139.636 276.136,139.636 C267.35,139.636 260.227,132.514 260.227,123.727 Z M253.864,123.727 C253.864,136.028 263.835,146 276.136,146 C288.437,146 298.409,136.028 298.409,123.727 C298.409,111.426 288.437,101.455 276.136,101.455 C263.835,101.455 253.864,111.426 253.864,123.727 Z" />
        </g>
        <g id="Regular-M" transform="translate(0,200)">
            <path d="M472.955,117.364 L472.955,124.364 C472.955,125.461 473.52,126.48 474.45,127.062 L479.541,130.244 C481.031,131.175 482.994,130.722 483.925,129.232 C484.857,127.742 484.404,125.779 482.914,124.847 L477.823,121.665 L479.318,124.364 L479.318,117.364 C479.318,115.606 477.894,114.182 476.136,114.182 C474.379,114.182 472.955,115.606 472.955,117.364 Z" />
            <path d="M472.955,79.182 L472.955,91.909 C472.955,93.666 474.379,95.091 476.136,95.091 C477.894,95.091 479.318,93.666 479.318,91.909 L479.318,79.182 C479.318,77.425 477.894,76 476.136,76 C474.379,76 472.955,77.425 472.955,79.182 Z" />
            <path d="M495.227,96.682 L495.227,91.909 C495.227,89.377 494.222,86.95 492.431,85.159 C490.641,83.369 488.213,82.364 485.682,82.364 L441.136,82.364 C438.605,82.364 436.177,83.369 434.387,85.159 C432.597,86.95 431.591,89.377 431.591,91.909 L431.591,136.455 C431.591,138.986 432.597,141.414 434.387,143.204 C436.177,144.994 438.605,146 441.136,146 L452.273,146 C454.03,146 455.455,144.575 455.455,142.818 C455.455,141.061 454.03,139.636 452.273,139.636 L441.136,139.636 C440.292,139.636 439.483,139.301 438.886,138.704 C438.29,138.108 437.955,137.298 437.955,136.455 L437.955,91.909 C437.955,91.065 438.29,90.256 438.886,89.659 C439.483,89.062 440.292,88.727 441.136,88.727 L485.682,88.727 C486.526,88.727 487.335,89.062 487.932,89.659 C488.528,90.256 488.864,91.065 488.864,91.909 L488.864,96.682 C488.864,98.439 490.288,99.864 492.045,99.864 C493.803,99.864 495.227,98.439 495.227,96.682 Z" />
            <path d="M434.773,107.818 L450.682,107.818 C452.439,107.818 453.864,106.394 453.864,104.636 C453.864,102.879 452.439,101.455 450.682,101.455 L434.773,101.455 C433.015,101.455 431.591,102.879 431.591,104.636 C431.591,106.394 433.015,107.818 434.773,107.818 Z" />
            <path d="M447.5,79.182 L447.5,91.909 C447.5,93.666 448.925,95.091 450.682,95.091 C452.439,95.091 453.864,93.666 453.864,91.909 L453.864,79.182 C453.864,77.425 452.439,76 450.682,76 C448.925,76 447.5,77.425 447.5,79.182 Z" />
            <path d="M460.227,123.727 C460.227,114.941 467.35,107.818 476.136,107.818 C484.923,107.818 492.045,114.941 492.045,123.727 C492.045,132.514 484.923,139.636 476.136,139.636 C467.35,139.636 460.227,132.514 460.227,123.727 Z M453.864,123.727 C453.864,136.028 463.835,146 476.136,146 C488.437,146 498.409,136.028 498.409,123.727 C498.409,111.426 488.437,101.455 476.136,101.455 C463.835,101.455 453.864,111.426 453.864,123.727 Z" />
        </g>
        <g id="Black-M" transform="translate(0,200)">
            <path d="M672.955,117.364 L672.955,124.364 C672.955,125.461 673.52,126.48 674.45,127.062 L679.541,130.244 C681.031,131.175 682.994,130.722 683.925,129.232 C684.857,127.742 684.404,125.779 682.914,124.847 L677.823,121.665 L679.318,124.364 L679.318,117.364 C679.318,115.606 677.894,114.182 676.136,114.182 C674.379,114.182 672.955,115.606 672.955,117.364 Z" />
            <path d="M672.955,79.182 L672.955,91.909 C672.955,93.666 674.379,95.091 676.136,95.091 C677.894,95.091 679.318,93.666 679.318,91.909 L679.318,79.182 C679.318,77.425 677.894,76 676.136,76 C674.379,76 672.955,77.425 672.955,79.182 Z" />
            <path d="M695.227,96.682 L695.227,91.909 C695.227,89.377 694.222,86.95 692.431,85.159 C690.641,83.369 688.213,82.364 685.682,82.364 L641.136,82.364 C638.605,82.364 636.177,83.369 634.387,85.159 C632.597,86.95 631.591,89.377 631.591,91.909 L631.591,136.455 C631.591,138.986 632.597,141.414 634.387,143.204 C636.177,144.994 638.605,146 641.136,146 L652.273,146 C654.03,146 655.455,144.575 655.455,142.818 C655.455,141.061 654.03,139.636 652.273,139.636 L641.136,139.636 C640.292,139.636 639.483,139.301 638.886,138.704 C638.29,138.108 637.955,137.298 637.955,136.455 L637.955,91.909 C637.955,91.065 638.29,90.256 638.886,89.659 C639.483,89.062 640.292,88.727 641.136,88.727 L685.682,88.727 C686.526,88.727 687.335,89.062 687.932,89.659 C688.528,90.256 688.864,91.065 688.864,91.909 L688.864,96.682 C688.864,98.439 690.288,99.864 692.045,99.864 C693.803,99.864 695.227,98.439 695.227,96.682 Z" />
            <path d="M634.773,107.818 L650.682,107.818 C652.439,107.818 653.864,106.394 653.864,104.636 C653.864,102.879 652.439,101.455 650.682,101.455 L634.773,101.455 C633.015,101.455 631.591,102.879 631.591,104.636 C631.591,106.394 633.015,107.818 634.773,107.818 Z" />
            <path d="M647.5,79.182 L647.5,91.909 C647.5,93.666 648.924,95.091 650.682,95.091 C652.439,95.091 653.864,93.666 653.864,91.909 L653.864,79.182 C653.864,77.425 652.439,76 650.682,76 C648.924,76 647.5,77.425 647.5,79.182 Z" />
            <path d="M660.227,123.727 C660.227,114.941 667.35,107.818 676.136,107.818 C684.923,107.818 692.045,114.941 692.045,123.727 C692.045,132.514 684.923,139.636 676.136,139.636 C667.35,139.636 660.227,132.514 660.227,123.727 Z M653.864,123.727 C653.864,136.028 663.835,146 676.136,146 C688.437,146 698.409,136.028 698.409,123.727 C698.409,111.426 688.437,101.455 676.136,101.455 C663.835,101.455 653.864,111.426 653.864,123.727 Z" />
        </g>
    </g>
</svg>