<?xml version="1.0" encoding="UTF-8"?>
<svg height="600" width="800" xmlns="http://www.w3.org/2000/svg" xmlns:xlink="http://www.w3.org/1999/xlink">
    <g id="Notes" font-family="LucidaGrande, 'Lucida Grande', sans-serif" font-size="13">
        <rect fill="white" height="600.0" width="800.0" x="0.0" y="0.0" />
        <g font-size="13">
            <text x="18.0" y="176.0">Small</text>
            <text x="18.0" y="376.0">Medium</text>
            <text x="18.0" y="576.0">Large</text>
        </g>
        <g font-size="9">
            <text x="250.0" y="30.0">Ultralight</text>
            <text x="450.0" y="30.0">Regular</text>
            <text x="650.0" y="30.0">Black</text>
            <text id="template-version" fill="#505050" text-anchor="end" x="785.0" y="575.0">Template v.3.0</text>
            <a href="https://github.com/swhitty/SwiftDraw">
                <text fill="#505050" text-anchor="end" x="785.0" y="590.0">https://github.com/swhitty/SwiftDraw</text>
            </a>
        </g>
    </g>
    <g id="Guides" stroke="rgb(39, 170, 225)" stroke-width="0.5">
        <path id="Capline-S" d="M18,76 l800,0" />
        <path id="H-reference" d="M85,145.755 L87.685,145.755 L113.369,79.287 L114.052,79.287 L114.052,76 L112.148,76 L85,145.755 Z M95.693,121.536 L130.996,121.536 L130.263,119.313 L96.474,119.313 L95.693,121.536 Z M139.15,145.755 L141.787,145.755 L114.638,76 L113.466,76 L113.466,79.287 L139.15,145.755 Z" stroke="none" transform="translate(0,200)" />
        <path id="Baseline-S" d="M18,146 l800,0" />
        <path id="left-margin-Ultralight-M" d="M239.545,256 l0,110" />
        <path id="right-margin-Ultralight-M" d="M290.455,256 l0,110" />
        <path id="left-margin-Regular-M" d="M439.545,256 l0,110" />
        <path id="right-margin-Regular-M" d="M490.455,256 l0,110" />
        <path id="left-margin-Black-M" d="M639.545,256 l0,110" />
        <path id="right-margin-Black-M" d="M690.455,256 l0,110" />
        <path id="Capline-M" d="M18,276 l800,0" />
        <path id="Baseline-M" d="M18,346 l800,0" />
        <path id="Capline-L" d="M18,476 l800,0" />
        <path id="Baseline-L" d="M18,546 l800,0" />
    </g>
    <g id="Symbols">
        <g id="Ultralight-M" transform="translate(0,200)">
            <path d="M261.818,133.273 L261.818,142.818 C261.818,144.575 263.243,146 265,146 C266.757,146 268.182,144.575 268.182,142.818 L268.182,133.273 C268.182,131.515 266.757,130.091 265,130.091 C263.243,130.091 261.818,131.515 261.818,133.273 Z" />
            <path d="M284.091,104.636 L284.091,111 C284.091,121.544 275.544,130.091 265,130.091 C254.456,130.091 245.909,121.544 245.909,111 L245.909,104.636 C245.909,102.879 244.485,101.455 242.727,101.455 C240.97,101.455 239.545,102.879 239.545,104.636 L239.545,111 C239.545,125.058 250.942,136.455 265,136.455 C279.058,136.455 290.455,125.058 290.455,111 L290.455,104.636 C290.455,102.879 289.03,101.455 287.273,101.455 C285.515,101.455 284.091,102.879 284.091,104.636 Z" />
            <path d="M271.364,99.864 L271.364,111 C271.364,112.688 270.693,114.306 269.5,115.5 C268.306,116.693 266.688,117.364 265,117.364 C263.312,117.364 261.694,116.693 260.5,115.5 C259.307,114.306 258.636,112.688 258.636,111 L258.636,88.727 C258.636,87.04 259.307,85.421 260.5,84.228 C261.694,83.034 263.312,82.364 265,82.364 C266.688,82.364 268.306,83.034 269.5,84.228 C270.693,85.421 271.364,87.04 271.364,88.727 L271.364,99.864 Z M277.727,99.864 L277.727,88.727 C277.727,85.352 276.386,82.115 274,79.728 C271.613,77.341 268.375,76 265,76 C261.625,76 258.387,77.341 256,79.728 C253.614,82.115 252.273,85.352 252.273,88.727 L252.273,111 C252.273,114.375 253.614,117.613 256,120 C258.387,122.386 261.625,123.727 265,123.727 C268.375,123.727 271.613,122.386 274,120 C276.386,117.613 277.727,114.375 277.727,111 L277.727,99.864 Z" />
        </g>
        <g id="Regular-M" transform="translate(0,200)">
            <path d="M461.818,133.273 L461.818,142.818 C461.818,144.575 463.243,146 465,146 C466.757,146 468.182,144.575 468.182,142.818 L468.182,133.273 C468.182,131.515 466.757,130.091 465,130.091 C463.243,130.091 461.818,131.515 461.818,133.273 Z" />
            <path d="M484.091,104.636 L484.091,111 C484.091,121.544 475.544,130.091 465,130.091 C454.456,130.091 445.909,121.544 445.909,111 L445.909,104.636 C445.909,102.879 444.485,101.455 442.727,101.455 C440.97,101.455 439.545,102.879 439.545,104.636 L439.545,111 C439.545,125.058 450.942,136.455 465,136.455 C479.058,136.455 490.455,125.058 490.455,111 L490.455,104.636 C490.455,102.879 489.03,101.455 487.273,101.455 C485.515,101.455 484.091,102.879 484.091,104.636 Z" />
            <path d="M471.364,99.864 L471.364,111 C471.364,112.688 470.693,114.306 469.5,115.5 C468.306,116.693 466.688,117.364 465,117.364 C463.312,117.364 461.694,116.693 460.5,115.5 C459.307,114.306 458.636,112.688 458.636,111 L458.636,88.727 C458.636,87.04 459.307,85.421 460.5,84.228 C461.694,83.034 463.312,82.364 465,82.364 C466.688,82.364 468.306,83.034 469.5,84.228 C470.693,85.421 471.364,87.04 471.364,88.727 L471.364,99.864 Z M477.727,99.864 L477.727,88.727 C477.727,85.352 476.386,82.115 474,79.728 C471.613,77.341 468.375,76 465,76 C461.625,76 458.387,77.341 456,79.728 C453.614,82.115 452.273,85.352 452.273,88.727 L452.273,111 C452.273,114.375 453.614,117.613 456,120 C458.387,122.386 461.625,123.727 465,123.727 C468.375,123.727 471.613,122.386 474,120 C476.386,117.613 477.727,114.375 477.727,111 L477.727,99.864 Z" />
        </g>
        <g id="Black-M" transform="translate(0,200)">
            <path d="M661.818,133.273 L661.818,142.818 C661.818,144.575 663.243,146 665,146 C666.757,146 668.182,144.575 668.182,142.818 L668.182,133.273 C668.182,131.515 666.757,130.091 665,130.091 C663.243,130.091 661.818,131.515 661.818,133.273 Z" />
            <path d="M684.091,104.636 L684.091,111 C684.091,121.544 675.544,130.091 665,130.091 C654.456,130.091 645.909,121.544 645.909,111 L645.909,104.636 C645.909,102.879 644.485,101.455 642.727,101.455 C640.97,101.455 639.545,102.879 639.545,104.636 L639.545,111 C639.545,125.058 650.942,136.455 665,136.455 C679.058,136.455 690.455,125.058 690.455,111 L690.455,104.636 C690.455,102.879 689.03,101.455 687.273,101.455 C685.516,101.455 684.091,102.879 684.091,104.636 Z" />
            <path d="M671.364,99.864 L671.364,111 C671.364,112.688 670.693,114.306 669.5,115.5 C668.306,116.693 666.688,117.364 665,117.364 C663.312,117.364 661.694,116.693 660.5,115.5 C659.307,114.306 658.636,112.688 658.636,111 L658.636,88.727 C658.636,87.04 659.307,85.421 660.5,84.228 C661.694,83.034 663.312,82.364 665,82.364 C666.688,82.364 668.306,83.034 669.5,84.228 C670.693,85.421 671.364,87.04 671.364,88.727 L671.364,99.864 Z M677.727,99.864 L677.727,88.727 C677.727,85.352 676.386,82.115 674,79.728 C671.613,77.341 668.375,76 665,76 C661.625,76 658.387,77.341 656,79.728 C653.614,82.115 652.273,85.352 652.273,88.727 L652.273,111 C652.273,114.375 653.614,117.613 656,120 C658.387,122.386 661.625,123.727 665,123.727 C668.375,123.727 671.613,122.386 674,120 C676.386,117.613 677.727,114.375 677.727,111 L677.727,99.864 Z" />
        </g>
    </g>
</svg>