<?xml version="1.0" encoding="UTF-8"?>
<svg height="600" width="800" xmlns="http://www.w3.org/2000/svg" xmlns:xlink="http://www.w3.org/1999/xlink">
    <g id="Notes" font-family="LucidaGrande, 'Lucida Grande', sans-serif" font-size="13">
        <rect fill="white" height="600.0" width="800.0" x="0.0" y="0.0" />
        <g font-size="13">
            <text x="18.0" y="176.0">Small</text>
            <text x="18.0" y="376.0">Medium</text>
            <text x="18.0" y="576.0">Large</text>
        </g>
        <g font-size="9">
            <text x="250.0" y="30.0">Ultralight</text>
            <text x="450.0" y="30.0">Regular</text>
            <text x="650.0" y="30.0">Black</text>
            <text id="template-version" fill="#505050" text-anchor="end" x="785.0" y="575.0">Template v.3.0</text>
            <a href="https://github.com/swhitty/SwiftDraw">
                <text fill="#505050" text-anchor="end" x="785.0" y="590.0">https://github.com/swhitty/SwiftDraw</text>
            </a>
        </g>
    </g>
    <g id="Guides" stroke="rgb(39, 170, 225)" stroke-width="0.5">
        <path id="Capline-S" d="M18,76 l800,0" />
        <path id="H-reference" d="M85,145.755 L87.685,145.755 L113.369,79.287 L114.052,79.287 L114.052,76 L112.148,76 L85,145.755 Z M95.693,121.536 L130.996,121.536 L130.263,119.313 L96.474,119.313 L95.693,121.536 Z M139.15,145.755 L141.787,145.755 L114.638,76 L113.466,76 L113.466,79.287 L139.15,145.755 Z" stroke="none" transform="translate(0,200)" />
        <path id="Baseline-S" d="M18,146 l800,0" />
        <path id="left-margin-Ultralight-M" d="M223.824,256 l0,110" />
        <path id="right-margin-Ultralight-M" d="M306.176,256 l0,110" />
        <path id="left-margin-Regular-M" d="M423.824,256 l0,110" />
        <path id="right-margin-Regular-M" d="M506.176,256 l0,110" />
        <path id="left-margin-Black-M" d="M623.824,256 l0,110" />
        <path id="right-margin-Black-M" d="M706.176,256 l0,110" />
        <path id="Capline-M" d="M18,276 l800,0" />
        <path id="Baseline-M" d="M18,346 l800,0" />
        <path id="Capline-L" d="M18,476 l800,0" />
        <path id="Baseline-L" d="M18,546 l800,0" />
    </g>
    <g id="Symbols">
        <g id="Ultralight-M" transform="translate(0,200)">
            <path d="M288.785,84.235 C289.837,84.235 290.845,84.669 291.589,85.441 C292.332,86.214 292.75,87.261 292.75,88.353 L292.75,123.46 C292.749,125.383 293.181,127.28 294.011,128.999 L298.246,137.76 C298.248,137.765 298.248,137.765 298.248,137.765 C298.248,137.765 298.248,137.765 298.248,137.765 L231.78,137.765 C231.752,137.765 231.752,137.765 231.752,137.765 C231.752,137.765 231.752,137.765 231.752,137.765 L235.988,129.002 C236.82,127.279 237.251,125.382 237.25,123.458 L237.25,88.353 C237.25,87.261 237.668,86.214 238.411,85.441 C239.155,84.669 240.163,84.235 241.215,84.235 L288.785,84.235 Z M288.785,76 L241.215,76 C238.06,76 235.035,77.301 232.805,79.618 C230.575,81.935 229.322,85.077 229.322,88.353 L229.322,123.46 C229.322,124.103 229.178,124.736 228.902,125.309 L224.669,134.065 C223.429,136.621 223.559,139.671 225.016,142.108 C226.472,144.546 229.045,146.02 231.807,146 L298.221,146.001 C300.955,146.02 303.528,144.546 304.985,142.108 C306.441,139.671 306.572,136.621 305.329,134.059 L301.097,125.306 C300.822,124.736 300.678,124.103 300.678,123.461 L300.678,88.353 C300.678,85.077 299.425,81.935 297.195,79.618 C294.965,77.301 291.94,76 288.785,76 Z" />
            <path d="M296.928,121.241 L233.072,121.241 C230.883,121.241 229.108,123.084 229.108,125.358 C229.108,127.632 230.883,129.476 233.072,129.476 L296.928,129.476 C299.117,129.476 300.892,127.632 300.892,125.358 C300.892,123.084 299.117,121.241 296.928,121.241 Z" />
        </g>
        <g id="Regular-M" transform="translate(0,200)">
            <path d="M488.785,84.235 C489.837,84.235 490.845,84.669 491.589,85.441 C492.332,86.214 492.75,87.261 492.75,88.353 L492.75,123.46 C492.749,125.383 493.181,127.28 494.011,128.999 L498.246,137.76 C498.248,137.765 498.248,137.765 498.248,137.765 C498.248,137.765 498.248,137.765 498.248,137.765 L431.78,137.765 C431.752,137.765 431.752,137.765 431.752,137.765 C431.752,137.765 431.752,137.765 431.752,137.765 L435.988,129.002 C436.82,127.279 437.251,125.382 437.25,123.458 L437.25,88.353 C437.25,87.261 437.668,86.214 438.411,85.441 C439.155,84.669 440.163,84.235 441.215,84.235 L488.785,84.235 Z M488.785,76 L441.215,76 C438.06,76 435.035,77.301 432.805,79.618 C430.575,81.935 429.322,85.077 429.322,88.353 L429.322,123.46 C429.322,124.103 429.178,124.736 428.902,125.309 L424.669,134.065 C423.429,136.621 423.559,139.671 425.016,142.108 C426.472,144.546 429.045,146.02 431.807,146 L498.221,146.001 C500.955,146.02 503.528,144.546 504.985,142.108 C506.441,139.671 506.572,136.621 505.329,134.059 L501.097,125.306 C500.822,124.736 500.678,124.103 500.678,123.461 L500.678,88.353 C500.678,85.077 499.425,81.935 497.195,79.618 C494.965,77.301 491.94,76 488.785,76 Z" />
            <path d="M496.928,121.241 L433.072,121.241 C430.883,121.241 429.108,123.084 429.108,125.358 C429.108,127.632 430.883,129.476 433.072,129.476 L496.928,129.476 C499.117,129.476 500.892,127.632 500.892,125.358 C500.892,123.084 499.117,121.241 496.928,121.241 Z" />
        </g>
        <g id="Black-M" transform="translate(0,200)">
            <path d="M688.785,84.235 C689.837,84.235 690.845,84.669 691.589,85.441 C692.332,86.214 692.75,87.261 692.75,88.353 L692.75,123.46 C692.749,125.383 693.181,127.28 694.011,128.999 L698.246,137.76 C698.248,137.765 698.248,137.765 698.248,137.765 C698.248,137.765 698.248,137.765 698.248,137.765 L631.78,137.765 C631.752,137.765 631.752,137.765 631.752,137.765 C631.752,137.765 631.752,137.765 631.752,137.765 L635.988,129.002 C636.82,127.279 637.251,125.382 637.25,123.458 L637.25,88.353 C637.25,87.261 637.668,86.214 638.411,85.441 C639.155,84.669 640.163,84.235 641.215,84.235 L688.785,84.235 Z M688.785,76 L641.215,76 C638.06,76 635.036,77.301 632.805,79.618 C630.575,81.935 629.322,85.077 629.322,88.353 L629.322,123.46 C629.322,124.103 629.178,124.736 628.902,125.309 L624.669,134.065 C623.429,136.621 623.559,139.671 625.016,142.108 C626.472,144.546 629.045,146.02 631.807,146 L698.221,146.001 C700.955,146.02 703.528,144.546 704.985,142.108 C706.441,139.671 706.572,136.621 705.329,134.059 L701.097,125.306 C700.822,124.736 700.678,124.103 700.678,123.461 L700.678,88.353 C700.678,85.077 699.425,81.935 697.195,79.618 C694.965,77.301 691.94,76 688.785,76 Z" />
            <path d="M696.928,121.241 L633.072,121.241 C630.883,121.241 629.108,123.084 629.108,125.358 C629.108,127.632 630.883,129.476 633.072,129.476 L696.928,129.476 C699.117,129.476 700.892,127.632 700.892,125.358 C700.892,123.084 699.117,121.241 696.928,121.241 Z" />
        </g>
    </g>
</svg>