<?xml version="1.0" encoding="UTF-8"?>
<svg height="600" width="800" xmlns="http://www.w3.org/2000/svg" xmlns:xlink="http://www.w3.org/1999/xlink">
    <g id="Notes" font-family="LucidaGrande, 'Lucida Grande', sans-serif" font-size="13">
        <rect fill="white" height="600.0" width="800.0" x="0.0" y="0.0" />
        <g font-size="13">
            <text x="18.0" y="176.0">Small</text>
            <text x="18.0" y="376.0">Medium</text>
            <text x="18.0" y="576.0">Large</text>
        </g>
        <g font-size="9">
            <text x="250.0" y="30.0">Ultralight</text>
            <text x="450.0" y="30.0">Regular</text>
            <text x="650.0" y="30.0">Black</text>
            <text id="template-version" fill="#505050" text-anchor="end" x="785.0" y="575.0">Template v.3.0</text>
            <a href="https://github.com/swhitty/SwiftDraw">
                <text fill="#505050" text-anchor="end" x="785.0" y="590.0">https://github.com/swhitty/SwiftDraw</text>
            </a>
        </g>
    </g>
    <g id="Guides" stroke="rgb(39, 170, 225)" stroke-width="0.5">
        <path id="Capline-S" d="M18,76 l800,0" />
        <path id="H-reference" d="M85,145.755 L87.685,145.755 L113.369,79.287 L114.052,79.287 L114.052,76 L112.148,76 L85,145.755 Z M95.693,121.536 L130.996,121.536 L130.263,119.313 L96.474,119.313 L95.693,121.536 Z M139.15,145.755 L141.787,145.755 L114.638,76 L113.466,76 L113.466,79.287 L139.15,145.755 Z" stroke="none" transform="translate(0,200)" />
        <path id="Baseline-S" d="M18,146 l800,0" />
        <path id="left-margin-Ultralight-M" d="M226.5,256 l0,110" />
        <path id="right-margin-Ultralight-M" d="M303.5,256 l0,110" />
        <path id="left-margin-Regular-M" d="M426.5,256 l0,110" />
        <path id="right-margin-Regular-M" d="M503.5,256 l0,110" />
        <path id="left-margin-Black-M" d="M626.5,256 l0,110" />
        <path id="right-margin-Black-M" d="M703.5,256 l0,110" />
        <path id="Capline-M" d="M18,276 l800,0" />
        <path id="Baseline-M" d="M18,346 l800,0" />
        <path id="Capline-L" d="M18,476 l800,0" />
        <path id="Baseline-L" d="M18,546 l800,0" />
    </g>
    <g id="Symbols">
        <g id="Ultralight-M" transform="translate(0,200)">
            <path d="M296.5,88.25 L296.5,93.5 C296.5,93.5 296.5,93.5 296.5,93.5 C296.5,93.5 296.5,93.5 296.5,93.5 L233.5,93.5 C233.5,93.5 233.5,93.5 233.5,93.5 C233.5,93.5 233.5,93.5 233.5,93.5 L233.5,83 C233.5,83 233.5,83 233.5,83 C233.5,83 233.5,83 233.5,83 L296.5,83 C296.5,83 296.5,83 296.5,83 C296.5,83 296.5,83 296.5,83 L296.5,88.25 Z M303.5,88.25 L303.5,83 C303.5,81.143 302.763,79.363 301.45,78.05 C300.137,76.737 298.357,76 296.5,76 L233.5,76 C231.643,76 229.863,76.737 228.55,78.05 C227.238,79.363 226.5,81.143 226.5,83 L226.5,93.5 C226.5,95.357 227.238,97.137 228.55,98.45 C229.863,99.763 231.643,100.5 233.5,100.5 L296.5,100.5 C298.357,100.5 300.137,99.763 301.45,98.45 C302.763,97.137 303.5,95.357 303.5,93.5 L303.5,88.25 Z" />
            <path d="M233.5,97 L233.5,135.5 C233.5,138.285 234.606,140.955 236.575,142.925 C238.545,144.894 241.215,146 244,146 L286,146 C288.785,146 291.455,144.894 293.425,142.925 C295.394,140.955 296.5,138.285 296.5,135.5 L296.5,97 C296.5,95.067 294.933,93.5 293,93.5 C291.067,93.5 289.5,95.067 289.5,97 L289.5,135.5 C289.5,136.428 289.131,137.318 288.475,137.975 C287.818,138.631 286.928,139 286,139 L244,139 C243.072,139 242.182,138.631 241.525,137.975 C240.869,137.318 240.5,136.428 240.5,135.5 L240.5,97 C240.5,95.067 238.933,93.5 237,93.5 C235.067,93.5 233.5,95.067 233.5,97 Z" />
            <path d="M258.725,130.975 L276.225,113.475 C277.592,112.108 277.592,109.892 276.225,108.525 C274.858,107.158 272.642,107.158 271.275,108.525 L253.775,126.025 C252.408,127.392 252.408,129.608 253.775,130.975 C255.142,132.342 257.358,132.342 258.725,130.975 Z" />
            <path d="M253.775,113.475 L271.275,130.975 C272.642,132.342 274.858,132.342 276.225,130.975 C277.592,129.608 277.592,127.392 276.225,126.025 L258.725,108.525 C257.358,107.158 255.142,107.158 253.775,108.525 C252.408,109.892 252.408,112.108 253.775,113.475 Z" />
        </g>
        <g id="Regular-M" transform="translate(0,200)">
            <path d="M496.5,88.25 L496.5,93.5 C496.5,93.5 496.5,93.5 496.5,93.5 C496.5,93.5 496.5,93.5 496.5,93.5 L433.5,93.5 C433.5,93.5 433.5,93.5 433.5,93.5 C433.5,93.5 433.5,93.5 433.5,93.5 L433.5,83 C433.5,83 433.5,83 433.5,83 C433.5,83 433.5,83 433.5,83 L496.5,83 C496.5,83 496.5,83 496.5,83 C496.5,83 496.5,83 496.5,83 L496.5,88.25 Z M503.5,88.25 L503.5,83 C503.5,81.143 502.763,79.363 501.45,78.05 C500.137,76.737 498.357,76 496.5,76 L433.5,76 C431.643,76 429.863,76.737 428.55,78.05 C427.237,79.363 426.5,81.143 426.5,83 L426.5,93.5 C426.5,95.357 427.237,97.137 428.55,98.45 C429.863,99.763 431.643,100.5 433.5,100.5 L496.5,100.5 C498.357,100.5 500.137,99.763 501.45,98.45 C502.763,97.137 503.5,95.357 503.5,93.5 L503.5,88.25 Z" />
            <path d="M433.5,97 L433.5,135.5 C433.5,138.285 434.606,140.955 436.575,142.925 C438.544,144.894 441.215,146 444,146 L486,146 C488.785,146 491.455,144.894 493.425,142.925 C495.394,140.955 496.5,138.285 496.5,135.5 L496.5,97 C496.5,95.067 494.933,93.5 493,93.5 C491.067,93.5 489.5,95.067 489.5,97 L489.5,135.5 C489.5,136.428 489.131,137.318 488.475,137.975 C487.818,138.631 486.928,139 486,139 L444,139 C443.072,139 442.182,138.631 441.525,137.975 C440.869,137.318 440.5,136.428 440.5,135.5 L440.5,97 C440.5,95.067 438.933,93.5 437,93.5 C435.067,93.5 433.5,95.067 433.5,97 Z" />
            <path d="M458.725,130.975 L476.225,113.475 C477.592,112.108 477.592,109.892 476.225,108.525 C474.858,107.158 472.642,107.158 471.275,108.525 L453.775,126.025 C452.408,127.392 452.408,129.608 453.775,130.975 C455.142,132.342 457.358,132.342 458.725,130.975 Z" />
            <path d="M453.775,113.475 L471.275,130.975 C472.642,132.342 474.858,132.342 476.225,130.975 C477.592,129.608 477.592,127.392 476.225,126.025 L458.725,108.525 C457.358,107.158 455.142,107.158 453.775,108.525 C452.408,109.892 452.408,112.108 453.775,113.475 Z" />
        </g>
        <g id="Black-M" transform="translate(0,200)">
            <path d="M696.5,88.25 L696.5,93.5 C696.5,93.5 696.5,93.5 696.5,93.5 C696.5,93.5 696.5,93.5 696.5,93.5 L633.5,93.5 C633.5,93.5 633.5,93.5 633.5,93.5 C633.5,93.5 633.5,93.5 633.5,93.5 L633.5,83 C633.5,83 633.5,83 633.5,83 C633.5,83 633.5,83 633.5,83 L696.5,83 C696.5,83 696.5,83 696.5,83 C696.5,83 696.5,83 696.5,83 L696.5,88.25 Z M703.5,88.25 L703.5,83 C703.5,81.143 702.763,79.363 701.45,78.05 C700.137,76.737 698.357,76 696.5,76 L633.5,76 C631.643,76 629.863,76.737 628.55,78.05 C627.237,79.363 626.5,81.143 626.5,83 L626.5,93.5 C626.5,95.357 627.237,97.137 628.55,98.45 C629.863,99.763 631.643,100.5 633.5,100.5 L696.5,100.5 C698.357,100.5 700.137,99.763 701.45,98.45 C702.763,97.137 703.5,95.357 703.5,93.5 L703.5,88.25 Z" />
            <path d="M633.5,97 L633.5,135.5 C633.5,138.285 634.606,140.955 636.575,142.925 C638.544,144.894 641.215,146 644,146 L686,146 C688.785,146 691.456,144.894 693.425,142.925 C695.394,140.955 696.5,138.285 696.5,135.5 L696.5,97 C696.5,95.067 694.933,93.5 693,93.5 C691.067,93.5 689.5,95.067 689.5,97 L689.5,135.5 C689.5,136.428 689.131,137.318 688.475,137.975 C687.818,138.631 686.928,139 686,139 L644,139 C643.072,139 642.182,138.631 641.525,137.975 C640.869,137.318 640.5,136.428 640.5,135.5 L640.5,97 C640.5,95.067 638.933,93.5 637,93.5 C635.067,93.5 633.5,95.067 633.5,97 Z" />
            <path d="M658.725,130.975 L676.225,113.475 C677.592,112.108 677.592,109.892 676.225,108.525 C674.858,107.158 672.642,107.158 671.275,108.525 L653.775,126.025 C652.408,127.392 652.408,129.608 653.775,130.975 C655.142,132.342 657.358,132.342 658.725,130.975 Z" />
            <path d="M653.775,113.475 L671.275,130.975 C672.642,132.342 674.858,132.342 676.225,130.975 C677.592,129.608 677.592,127.392 676.225,126.025 L658.725,108.525 C657.358,107.158 655.142,107.158 653.775,108.525 C652.408,109.892 652.408,112.108 653.775,113.475 Z" />
        </g>
    </g>
</svg>