<?xml version="1.0" encoding="UTF-8"?>
<svg height="600" width="800" xmlns="http://www.w3.org/2000/svg" xmlns:xlink="http://www.w3.org/1999/xlink">
    <g id="Notes" font-family="LucidaGrande, 'Lucida Grande', sans-serif" font-size="13">
        <rect fill="white" height="600.0" width="800.0" x="0.0" y="0.0" />
        <g font-size="13">
            <text x="18.0" y="176.0">Small</text>
            <text x="18.0" y="376.0">Medium</text>
            <text x="18.0" y="576.0">Large</text>
        </g>
        <g font-size="9">
            <text x="250.0" y="30.0">Ultralight</text>
            <text x="450.0" y="30.0">Regular</text>
            <text x="650.0" y="30.0">Black</text>
            <text id="template-version" fill="#505050" text-anchor="end" x="785.0" y="575.0">Template v.3.0</text>
            <a href="https://github.com/swhitty/SwiftDraw">
                <text fill="#505050" text-anchor="end" x="785.0" y="590.0">https://github.com/swhitty/SwiftDraw</text>
            </a>
        </g>
    </g>
    <g id="Guides" stroke="rgb(39, 170, 225)" stroke-width="0.5">
        <path id="Capline-S" d="M18,76 l800,0" />
        <path id="H-reference" d="M85,145.755 L87.685,145.755 L113.369,79.287 L114.052,79.287 L114.052,76 L112.148,76 L85,145.755 Z M95.693,121.536 L130.996,121.536 L130.263,119.313 L96.474,119.313 L95.693,121.536 Z M139.15,145.755 L141.787,145.755 L114.638,76 L113.466,76 L113.466,79.287 L139.15,145.755 Z" stroke="none" transform="translate(0,200)" />
        <path id="Baseline-S" d="M18,146 l800,0" />
        <path id="left-margin-Ultralight-M" d="M230,256 l0,110" />
        <path id="right-margin-Ultralight-M" d="M300,256 l0,110" />
        <path id="left-margin-Regular-M" d="M430,256 l0,110" />
        <path id="right-margin-Regular-M" d="M500,256 l0,110" />
        <path id="left-margin-Black-M" d="M630,256 l0,110" />
        <path id="right-margin-Black-M" d="M700,256 l0,110" />
        <path id="Capline-M" d="M18,276 l800,0" />
        <path id="Baseline-M" d="M18,346 l800,0" />
        <path id="Capline-L" d="M18,476 l800,0" />
        <path id="Baseline-L" d="M18,546 l800,0" />
    </g>
    <g id="Symbols">
        <g id="Ultralight-M" transform="translate(0,200)">
            <path d="M265,76 L240.5,76 C237.715,76 235.045,77.106 233.075,79.075 C231.106,81.045 230,83.715 230,86.5 L230,135.5 C230,138.285 231.106,140.955 233.075,142.925 C235.045,144.894 237.715,146 240.5,146 L289.5,146 C292.285,146 294.955,144.894 296.925,142.925 C298.894,140.955 300,138.285 300,135.5 L300,111 C300,109.067 298.433,107.5 296.5,107.5 C294.567,107.5 293,109.067 293,111 L293,135.5 C293,136.428 292.631,137.318 291.975,137.975 C291.318,138.631 290.428,139 289.5,139 L240.5,139 C239.572,139 238.682,138.631 238.025,137.975 C237.369,137.318 237,136.428 237,135.5 L237,86.5 C237,85.572 237.369,84.682 238.025,84.025 C238.682,83.369 239.572,83 240.5,83 L265,83 C266.933,83 268.5,81.433 268.5,79.5 C268.5,77.567 266.933,76 265,76 Z" />
            <path d="M272,118 L254.5,118 L258,121.5 L258,104 C258,102.067 256.433,100.5 254.5,100.5 C252.567,100.5 251,102.067 251,104 L251,121.5 C251,123.433 252.567,125 254.5,125 L272,125 C273.933,125 275.5,123.433 275.5,121.5 C275.5,119.567 273.933,118 272,118 Z" />
            <path d="M279,83 L296.5,83 L293,79.5 L293,97 C293,98.933 294.567,100.5 296.5,100.5 C298.433,100.5 300,98.933 300,97 L300,79.5 C300,77.567 298.433,76 296.5,76 L279,76 C277.067,76 275.5,77.567 275.5,79.5 C275.5,81.433 277.067,83 279,83 Z" />
            <path d="M294.025,77.025 L252.025,119.025 C250.658,120.392 250.658,122.608 252.025,123.975 C253.392,125.342 255.608,125.342 256.975,123.975 L298.975,81.975 C300.342,80.608 300.342,78.392 298.975,77.025 C297.608,75.658 295.392,75.658 294.025,77.025 Z" />
        </g>
        <g id="Regular-M" transform="translate(0,200)">
            <path d="M465,76 L440.5,76 C437.715,76 435.045,77.106 433.075,79.075 C431.106,81.045 430,83.715 430,86.5 L430,135.5 C430,138.285 431.106,140.955 433.075,142.925 C435.044,144.894 437.715,146 440.5,146 L489.5,146 C492.285,146 494.955,144.894 496.925,142.925 C498.894,140.955 500,138.285 500,135.5 L500,111 C500,109.067 498.433,107.5 496.5,107.5 C494.567,107.5 493,109.067 493,111 L493,135.5 C493,136.428 492.631,137.318 491.975,137.975 C491.318,138.631 490.428,139 489.5,139 L440.5,139 C439.572,139 438.682,138.631 438.025,137.975 C437.369,137.318 437,136.428 437,135.5 L437,86.5 C437,85.572 437.369,84.682 438.025,84.025 C438.682,83.369 439.572,83 440.5,83 L465,83 C466.933,83 468.5,81.433 468.5,79.5 C468.5,77.567 466.933,76 465,76 Z" />
            <path d="M472,118 L454.5,118 L458,121.5 L458,104 C458,102.067 456.433,100.5 454.5,100.5 C452.567,100.5 451,102.067 451,104 L451,121.5 C451,123.433 452.567,125 454.5,125 L472,125 C473.933,125 475.5,123.433 475.5,121.5 C475.5,119.567 473.933,118 472,118 Z" />
            <path d="M479,83 L496.5,83 L493,79.5 L493,97 C493,98.933 494.567,100.5 496.5,100.5 C498.433,100.5 500,98.933 500,97 L500,79.5 C500,77.567 498.433,76 496.5,76 L479,76 C477.067,76 475.5,77.567 475.5,79.5 C475.5,81.433 477.067,83 479,83 Z" />
            <path d="M494.025,77.025 L452.025,119.025 C450.658,120.392 450.658,122.608 452.025,123.975 C453.392,125.342 455.608,125.342 456.975,123.975 L498.975,81.975 C500.342,80.608 500.342,78.392 498.975,77.025 C497.608,75.658 495.392,75.658 494.025,77.025 Z" />
        </g>
        <g id="Black-M" transform="translate(0,200)">
            <path d="M665,76 L640.5,76 C637.715,76 635.044,77.106 633.075,79.075 C631.106,81.045 630,83.715 630,86.5 L630,135.5 C630,138.285 631.106,140.955 633.075,142.925 C635.044,144.894 637.715,146 640.5,146 L689.5,146 C692.285,146 694.956,144.894 696.925,142.925 C698.894,140.955 700,138.285 700,135.5 L700,111 C700,109.067 698.433,107.5 696.5,107.5 C694.567,107.5 693,109.067 693,111 L693,135.5 C693,136.428 692.631,137.318 691.975,137.975 C691.318,138.631 690.428,139 689.5,139 L640.5,139 C639.572,139 638.682,138.631 638.025,137.975 C637.369,137.318 637,136.428 637,135.5 L637,86.5 C637,85.572 637.369,84.682 638.025,84.025 C638.682,83.369 639.572,83 640.5,83 L665,83 C666.933,83 668.5,81.433 668.5,79.5 C668.5,77.567 666.933,76 665,76 Z" />
            <path d="M672,118 L654.5,118 L658,121.5 L658,104 C658,102.067 656.433,100.5 654.5,100.5 C652.567,100.5 651,102.067 651,104 L651,121.5 C651,123.433 652.567,125 654.5,125 L672,125 C673.933,125 675.5,123.433 675.5,121.5 C675.5,119.567 673.933,118 672,118 Z" />
            <path d="M679,83 L696.5,83 L693,79.5 L693,97 C693,98.933 694.567,100.5 696.5,100.5 C698.433,100.5 700,98.933 700,97 L700,79.5 C700,77.567 698.433,76 696.5,76 L679,76 C677.067,76 675.5,77.567 675.5,79.5 C675.5,81.433 677.067,83 679,83 Z" />
            <path d="M694.025,77.025 L652.025,119.025 C650.658,120.392 650.658,122.608 652.025,123.975 C653.392,125.342 655.608,125.342 656.975,123.975 L698.975,81.975 C700.342,80.608 700.342,78.392 698.975,77.025 C697.608,75.658 695.392,75.658 694.025,77.025 Z" />
        </g>
    </g>
</svg>