<?xml version="1.0" encoding="UTF-8"?>
<svg height="600" width="800" xmlns="http://www.w3.org/2000/svg" xmlns:xlink="http://www.w3.org/1999/xlink">
    <g id="Notes" font-family="LucidaGrande, 'Lucida Grande', sans-serif" font-size="13">
        <rect fill="white" height="600.0" width="800.0" x="0.0" y="0.0" />
        <g font-size="13">
            <text x="18.0" y="176.0">Small</text>
            <text x="18.0" y="376.0">Medium</text>
            <text x="18.0" y="576.0">Large</text>
        </g>
        <g font-size="9">
            <text x="250.0" y="30.0">Ultralight</text>
            <text x="450.0" y="30.0">Regular</text>
            <text x="650.0" y="30.0">Black</text>
            <text id="template-version" fill="#505050" text-anchor="end" x="785.0" y="575.0">Template v.3.0</text>
            <a href="https://github.com/swhitty/SwiftDraw">
                <text fill="#505050" text-anchor="end" x="785.0" y="590.0">https://github.com/swhitty/SwiftDraw</text>
            </a>
        </g>
    </g>
    <g id="Guides" stroke="rgb(39, 170, 225)" stroke-width="0.5">
        <path id="Capline-S" d="M18,76 l800,0" />
        <path id="H-reference" d="M85,145.755 L87.685,145.755 L113.369,79.287 L114.052,79.287 L114.052,76 L112.148,76 L85,145.755 Z M95.693,121.536 L130.996,121.536 L130.263,119.313 L96.474,119.313 L95.693,121.536 Z M139.15,145.755 L141.787,145.755 L114.638,76 L113.466,76 L113.466,79.287 L139.15,145.755 Z" stroke="none" transform="translate(0,200)" />
        <path id="Baseline-S" d="M18,146 l800,0" />
        <path id="left-margin-Ultralight-M" d="M230,256 l0,110" />
        <path id="right-margin-Ultralight-M" d="M300,256 l0,110" />
        <path id="left-margin-Regular-M" d="M430,256 l0,110" />
        <path id="right-margin-Regular-M" d="M500,256 l0,110" />
        <path id="left-margin-Black-M" d="M630,256 l0,110" />
        <path id="right-margin-Black-M" d="M700,256 l0,110" />
        <path id="Capline-M" d="M18,276 l800,0" />
        <path id="Baseline-M" d="M18,346 l800,0" />
        <path id="Capline-L" d="M18,476 l800,0" />
        <path id="Baseline-L" d="M18,546 l800,0" />
    </g>
    <g id="Symbols">
        <g id="Ultralight-M" transform="translate(0,200)">
            <path d="M277.727,114.182 L287.273,114.182 C291.404,114.183 295.068,111.525 296.349,107.595 L299.718,96.965 C300.309,94.991 299.942,92.905 298.741,91.291 C297.54,89.678 295.647,88.727 293.636,88.727 L236.364,88.727 C234.353,88.727 232.46,89.678 231.259,91.291 C230.058,92.905 229.691,94.991 230.268,96.917 L233.642,107.573 C234.934,111.527 238.597,114.184 242.729,114.182 L252.273,114.182 C254.03,114.182 255.455,112.757 255.455,111 C255.455,109.243 254.03,107.818 252.273,107.818 L242.727,107.818 C241.349,107.819 240.128,106.933 239.7,105.624 L236.349,95.043 C236.364,95.091 236.364,95.091 236.364,95.091 C236.364,95.091 236.364,95.091 236.364,95.091 L293.636,95.091 C293.636,95.091 293.636,95.091 293.636,95.091 C293.636,95.091 293.636,95.091 293.636,95.091 L290.291,105.648 C289.872,106.932 288.651,107.819 287.273,107.818 L277.727,107.818 C275.97,107.818 274.545,109.243 274.545,111 C274.545,112.757 275.97,114.182 277.727,114.182 Z" />
            <path d="M287.273,91.909 L287.273,82.364 C287.273,80.676 286.602,79.057 285.409,77.864 C284.215,76.67 282.597,76 280.909,76 L271.364,76 C269.606,76 268.182,77.425 268.182,79.182 C268.182,80.939 269.606,82.364 271.364,82.364 L280.909,82.364 C280.909,82.364 280.909,82.364 280.909,82.364 C280.909,82.364 280.909,82.364 280.909,82.364 L280.909,91.909 C280.909,93.666 282.334,95.091 284.091,95.091 C285.848,95.091 287.273,93.666 287.273,91.909 Z" />
            <path d="M274.545,123.727 L274.545,139.636 C274.545,139.636 274.545,139.636 274.545,139.636 C274.545,139.636 274.545,139.636 274.545,139.636 L255.455,139.636 C255.455,139.636 255.455,139.636 255.455,139.636 C255.455,139.636 255.455,139.636 255.455,139.636 L255.455,107.818 C255.455,107.818 255.455,107.818 255.455,107.818 C255.455,107.818 255.455,107.818 255.455,107.818 L274.545,107.818 C274.545,107.818 274.545,107.818 274.545,107.818 C274.545,107.818 274.545,107.818 274.545,107.818 L274.545,123.727 Z M280.909,123.727 L280.909,107.818 C280.909,106.13 280.239,104.512 279.045,103.318 C277.852,102.125 276.233,101.455 274.545,101.455 L255.455,101.455 C253.767,101.455 252.148,102.125 250.955,103.318 C249.761,104.512 249.091,106.13 249.091,107.818 L249.091,139.636 C249.091,141.324 249.761,142.943 250.955,144.136 C252.148,145.33 253.767,146 255.455,146 L274.545,146 C276.233,146 277.852,145.33 279.045,144.136 C280.239,142.943 280.909,141.324 280.909,139.636 L280.909,123.727 Z" />
        </g>
        <g id="Regular-M" transform="translate(0,200)">
            <path d="M477.727,114.182 L487.273,114.182 C491.404,114.183 495.068,111.525 496.349,107.595 L499.718,96.965 C500.309,94.991 499.942,92.905 498.741,91.291 C497.54,89.678 495.647,88.727 493.636,88.727 L436.364,88.727 C434.353,88.727 432.46,89.678 431.259,91.291 C430.058,92.905 429.691,94.991 430.268,96.917 L433.642,107.573 C434.934,111.527 438.597,114.184 442.729,114.182 L452.273,114.182 C454.03,114.182 455.455,112.757 455.455,111 C455.455,109.243 454.03,107.818 452.273,107.818 L442.727,107.818 C441.349,107.819 440.128,106.933 439.7,105.624 L436.349,95.043 C436.364,95.091 436.364,95.091 436.364,95.091 C436.364,95.091 436.364,95.091 436.364,95.091 L493.636,95.091 C493.636,95.091 493.636,95.091 493.636,95.091 C493.636,95.091 493.636,95.091 493.636,95.091 L490.291,105.648 C489.872,106.932 488.651,107.819 487.273,107.818 L477.727,107.818 C475.97,107.818 474.545,109.243 474.545,111 C474.545,112.757 475.97,114.182 477.727,114.182 Z" />
            <path d="M487.273,91.909 L487.273,82.364 C487.273,80.676 486.602,79.057 485.409,77.864 C484.215,76.67 482.597,76 480.909,76 L471.364,76 C469.606,76 468.182,77.425 468.182,79.182 C468.182,80.939 469.606,82.364 471.364,82.364 L480.909,82.364 C480.909,82.364 480.909,82.364 480.909,82.364 C480.909,82.364 480.909,82.364 480.909,82.364 L480.909,91.909 C480.909,93.666 482.334,95.091 484.091,95.091 C485.848,95.091 487.273,93.666 487.273,91.909 Z" />
            <path d="M474.545,123.727 L474.545,139.636 C474.545,139.636 474.545,139.636 474.545,139.636 C474.545,139.636 474.545,139.636 474.545,139.636 L455.455,139.636 C455.455,139.636 455.455,139.636 455.455,139.636 C455.455,139.636 455.455,139.636 455.455,139.636 L455.455,107.818 C455.455,107.818 455.455,107.818 455.455,107.818 C455.455,107.818 455.455,107.818 455.455,107.818 L474.545,107.818 C474.545,107.818 474.545,107.818 474.545,107.818 C474.545,107.818 474.545,107.818 474.545,107.818 L474.545,123.727 Z M480.909,123.727 L480.909,107.818 C480.909,106.13 480.239,104.512 479.045,103.318 C477.852,102.125 476.233,101.455 474.545,101.455 L455.455,101.455 C453.767,101.455 452.148,102.125 450.955,103.318 C449.761,104.512 449.091,106.13 449.091,107.818 L449.091,139.636 C449.091,141.324 449.761,142.943 450.955,144.136 C452.148,145.33 453.767,146 455.455,146 L474.545,146 C476.233,146 477.852,145.33 479.045,144.136 C480.239,142.943 480.909,141.324 480.909,139.636 L480.909,123.727 Z" />
        </g>
        <g id="Black-M" transform="translate(0,200)">
            <path d="M677.727,114.182 L687.273,114.182 C691.404,114.183 695.068,111.525 696.349,107.595 L699.718,96.965 C700.309,94.991 699.942,92.905 698.741,91.291 C697.54,89.678 695.647,88.727 693.636,88.727 L636.364,88.727 C634.353,88.727 632.46,89.678 631.259,91.291 C630.058,92.905 629.69,94.991 630.268,96.917 L633.642,107.573 C634.934,111.527 638.597,114.184 642.729,114.182 L652.273,114.182 C654.03,114.182 655.455,112.757 655.455,111 C655.455,109.243 654.03,107.818 652.273,107.818 L642.727,107.818 C641.349,107.819 640.128,106.933 639.7,105.624 L636.349,95.043 C636.364,95.091 636.364,95.091 636.364,95.091 C636.364,95.091 636.364,95.091 636.364,95.091 L693.636,95.091 C693.636,95.091 693.636,95.091 693.636,95.091 C693.636,95.091 693.636,95.091 693.636,95.091 L690.291,105.648 C689.872,106.932 688.651,107.819 687.273,107.818 L677.727,107.818 C675.97,107.818 674.545,109.243 674.545,111 C674.545,112.757 675.97,114.182 677.727,114.182 Z" />
            <path d="M687.273,91.909 L687.273,82.364 C687.273,80.676 686.602,79.057 685.409,77.864 C684.215,76.67 682.597,76 680.909,76 L671.364,76 C669.606,76 668.182,77.425 668.182,79.182 C668.182,80.939 669.606,82.364 671.364,82.364 L680.909,82.364 C680.909,82.364 680.909,82.364 680.909,82.364 C680.909,82.364 680.909,82.364 680.909,82.364 L680.909,91.909 C680.909,93.666 682.333,95.091 684.091,95.091 C685.848,95.091 687.273,93.666 687.273,91.909 Z" />
            <path d="M674.545,123.727 L674.545,139.636 C674.545,139.636 674.545,139.636 674.545,139.636 C674.545,139.636 674.545,139.636 674.545,139.636 L655.455,139.636 C655.455,139.636 655.455,139.636 655.455,139.636 C655.455,139.636 655.455,139.636 655.455,139.636 L655.455,107.818 C655.455,107.818 655.455,107.818 655.455,107.818 C655.455,107.818 655.455,107.818 655.455,107.818 L674.545,107.818 C674.545,107.818 674.545,107.818 674.545,107.818 C674.545,107.818 674.545,107.818 674.545,107.818 L674.545,123.727 Z M680.909,123.727 L680.909,107.818 C680.909,106.13 680.239,104.512 679.045,103.318 C677.852,102.125 676.233,101.455 674.545,101.455 L655.455,101.455 C653.767,101.455 652.148,102.125 650.955,103.318 C649.761,104.512 649.091,106.13 649.091,107.818 L649.091,139.636 C649.091,141.324 649.761,142.943 650.955,144.136 C652.148,145.33 653.767,146 655.455,146 L674.545,146 C676.233,146 677.852,145.33 679.045,144.136 C680.239,142.943 680.909,141.324 680.909,139.636 L680.909,123.727 Z" />
        </g>
    </g>
</svg>