<?xml version="1.0" encoding="UTF-8"?>
<svg height="600" width="800" xmlns="http://www.w3.org/2000/svg" xmlns:xlink="http://www.w3.org/1999/xlink">
    <g id="Notes" font-family="LucidaGrande, 'Lucida Grande', sans-serif" font-size="13">
        <rect fill="white" height="600.0" width="800.0" x="0.0" y="0.0" />
        <g font-size="13">
            <text x="18.0" y="176.0">Small</text>
            <text x="18.0" y="376.0">Medium</text>
            <text x="18.0" y="576.0">Large</text>
        </g>
        <g font-size="9">
            <text x="250.0" y="30.0">Ultralight</text>
            <text x="450.0" y="30.0">Regular</text>
            <text x="650.0" y="30.0">Black</text>
            <text id="template-version" fill="#505050" text-anchor="end" x="785.0" y="575.0">Template v.3.0</text>
            <a href="https://github.com/swhitty/SwiftDraw">
                <text fill="#505050" text-anchor="end" x="785.0" y="590.0">https://github.com/swhitty/SwiftDraw</text>
            </a>
        </g>
    </g>
    <g id="Guides" stroke="rgb(39, 170, 225)" stroke-width="0.5">
        <path id="Capline-S" d="M18,76 l800,0" />
        <path id="H-reference" d="M85,145.755 L87.685,145.755 L113.369,79.287 L114.052,79.287 L114.052,76 L112.148,76 L85,145.755 Z M95.693,121.536 L130.996,121.536 L130.263,119.313 L96.474,119.313 L95.693,121.536 Z M139.15,145.755 L141.787,145.755 L114.638,76 L113.466,76 L113.466,79.287 L139.15,145.755 Z" stroke="none" transform="translate(0,200)" />
        <path id="Baseline-S" d="M18,146 l800,0" />
        <path id="left-margin-Ultralight-M" d="M230,256 l0,110" />
        <path id="right-margin-Ultralight-M" d="M300,256 l0,110" />
        <path id="left-margin-Regular-M" d="M430,256 l0,110" />
        <path id="right-margin-Regular-M" d="M500,256 l0,110" />
        <path id="left-margin-Black-M" d="M630,256 l0,110" />
        <path id="right-margin-Black-M" d="M700,256 l0,110" />
        <path id="Capline-M" d="M18,276 l800,0" />
        <path id="Baseline-M" d="M18,346 l800,0" />
        <path id="Capline-L" d="M18,476 l800,0" />
        <path id="Baseline-L" d="M18,546 l800,0" />
    </g>
    <g id="Symbols">
        <g id="Ultralight-M" transform="translate(0,200)">
            <path d="M268.182,104.636 L268.182,79.182 C268.182,77.425 266.757,76 265,76 C263.243,76 261.818,77.425 261.818,79.182 L261.818,104.636 C261.818,106.394 263.243,107.818 265,107.818 C266.757,107.818 268.182,106.394 268.182,104.636 Z" />
            <path d="M275.477,89.659 L262.75,102.386 L267.25,102.386 L254.523,89.659 C253.28,88.417 251.265,88.417 250.023,89.659 C248.78,90.902 248.78,92.916 250.023,94.159 L262.75,106.886 C263.993,108.129 266.007,108.129 267.25,106.886 L279.977,94.159 C281.22,92.916 281.22,90.902 279.977,89.659 C278.735,88.417 276.72,88.417 275.477,89.659 Z" />
            <path d="M231.145,122.99 C234.527,125.808 236.802,126.909 241.136,126.909 C245.327,126.909 247.584,125.826 251.079,123.03 C253.55,121.053 254.607,120.545 257.045,120.545 C259.605,120.545 260.617,121.035 262.963,122.99 C266.345,125.808 268.621,126.909 272.955,126.909 C277.145,126.909 279.402,125.826 282.897,123.03 C285.368,121.053 286.426,120.545 288.864,120.545 C291.424,120.545 292.436,121.035 294.781,122.99 C296.131,124.115 298.138,123.932 299.263,122.582 C300.388,121.232 300.205,119.226 298.855,118.101 C295.473,115.283 293.198,114.182 288.864,114.182 C284.673,114.182 282.416,115.265 278.921,118.061 C276.45,120.038 275.393,120.545 272.955,120.545 C270.395,120.545 269.383,120.056 267.037,118.101 C263.655,115.283 261.379,114.182 257.045,114.182 C252.855,114.182 250.598,115.265 247.103,118.061 C244.632,120.038 243.574,120.545 241.136,120.545 C238.576,120.545 237.564,120.056 235.219,118.101 C233.869,116.976 231.862,117.159 230.737,118.509 C229.613,119.858 229.795,121.865 231.145,122.99 Z" />
            <path d="M231.145,142.081 C234.527,144.899 236.802,146 241.136,146 C245.327,146 247.584,144.917 251.079,142.121 C253.55,140.144 254.607,139.636 257.045,139.636 C259.605,139.636 260.617,140.126 262.963,142.081 C266.345,144.899 268.621,146 272.955,146 C277.145,146 279.402,144.917 282.897,142.121 C285.368,140.144 286.426,139.636 288.864,139.636 C291.424,139.636 292.436,140.126 294.781,142.081 C296.131,143.206 298.138,143.023 299.263,141.673 C300.388,140.323 300.205,138.317 298.855,137.192 C295.473,134.374 293.198,133.273 288.864,133.273 C284.673,133.273 282.416,134.356 278.921,137.152 C276.45,139.129 275.393,139.636 272.955,139.636 C270.395,139.636 269.383,139.147 267.037,137.192 C263.655,134.374 261.379,133.273 257.045,133.273 C252.855,133.273 250.598,134.356 247.103,137.152 C244.632,139.129 243.574,139.636 241.136,139.636 C238.576,139.636 237.564,139.147 235.219,137.192 C233.869,136.067 231.862,136.249 230.737,137.599 C229.613,138.949 229.795,140.956 231.145,142.081 Z" />
        </g>
        <g id="Regular-M" transform="translate(0,200)">
            <path d="M468.182,104.636 L468.182,79.182 C468.182,77.425 466.757,76 465,76 C463.243,76 461.818,77.425 461.818,79.182 L461.818,104.636 C461.818,106.394 463.243,107.818 465,107.818 C466.757,107.818 468.182,106.394 468.182,104.636 Z" />
            <path d="M475.477,89.659 L462.75,102.386 L467.25,102.386 L454.523,89.659 C453.28,88.417 451.265,88.417 450.023,89.659 C448.78,90.902 448.78,92.916 450.023,94.159 L462.75,106.886 C463.993,108.129 466.007,108.129 467.25,106.886 L479.977,94.159 C481.22,92.916 481.22,90.902 479.977,89.659 C478.735,88.417 476.72,88.417 475.477,89.659 Z" />
            <path d="M431.145,122.99 C434.527,125.808 436.802,126.909 441.136,126.909 C445.327,126.909 447.584,125.826 451.079,123.03 C453.55,121.053 454.607,120.545 457.045,120.545 C459.605,120.545 460.617,121.035 462.963,122.99 C466.345,125.808 468.621,126.909 472.955,126.909 C477.145,126.909 479.402,125.826 482.897,123.03 C485.368,121.053 486.426,120.545 488.864,120.545 C491.424,120.545 492.436,121.035 494.781,122.99 C496.131,124.115 498.138,123.932 499.263,122.582 C500.388,121.232 500.205,119.226 498.855,118.101 C495.473,115.283 493.198,114.182 488.864,114.182 C484.673,114.182 482.416,115.265 478.921,118.061 C476.45,120.038 475.393,120.545 472.955,120.545 C470.395,120.545 469.383,120.056 467.037,118.101 C463.655,115.283 461.379,114.182 457.045,114.182 C452.855,114.182 450.598,115.265 447.103,118.061 C444.632,120.038 443.574,120.545 441.136,120.545 C438.576,120.545 437.564,120.056 435.219,118.101 C433.869,116.976 431.862,117.159 430.737,118.509 C429.612,119.858 429.795,121.865 431.145,122.99 Z" />
            <path d="M431.145,142.081 C434.527,144.899 436.802,146 441.136,146 C445.327,146 447.584,144.917 451.079,142.121 C453.55,140.144 454.607,139.636 457.045,139.636 C459.605,139.636 460.617,140.126 462.963,142.081 C466.345,144.899 468.621,146 472.955,146 C477.145,146 479.402,144.917 482.897,142.121 C485.368,140.144 486.426,139.636 488.864,139.636 C491.424,139.636 492.436,140.126 494.781,142.081 C496.131,143.206 498.138,143.023 499.263,141.673 C500.388,140.323 500.205,138.317 498.855,137.192 C495.473,134.374 493.198,133.273 488.864,133.273 C484.673,133.273 482.416,134.356 478.921,137.152 C476.45,139.129 475.393,139.636 472.955,139.636 C470.395,139.636 469.383,139.147 467.037,137.192 C463.655,134.374 461.379,133.273 457.045,133.273 C452.855,133.273 450.598,134.356 447.103,137.152 C444.632,139.129 443.574,139.636 441.136,139.636 C438.576,139.636 437.564,139.147 435.219,137.192 C433.869,136.067 431.862,136.249 430.737,137.599 C429.612,138.949 429.795,140.956 431.145,142.081 Z" />
        </g>
        <g id="Black-M" transform="translate(0,200)">
            <path d="M668.182,104.636 L668.182,79.182 C668.182,77.425 666.757,76 665,76 C663.243,76 661.818,77.425 661.818,79.182 L661.818,104.636 C661.818,106.394 663.243,107.818 665,107.818 C666.757,107.818 668.182,106.394 668.182,104.636 Z" />
            <path d="M675.477,89.659 L662.75,102.386 L667.25,102.386 L654.523,89.659 C653.28,88.417 651.265,88.417 650.023,89.659 C648.78,90.902 648.78,92.916 650.023,94.159 L662.75,106.886 C663.993,108.129 666.007,108.129 667.25,106.886 L679.977,94.159 C681.22,92.916 681.22,90.902 679.977,89.659 C678.735,88.417 676.72,88.417 675.477,89.659 Z" />
            <path d="M631.145,122.99 C634.527,125.808 636.802,126.909 641.136,126.909 C645.327,126.909 647.584,125.826 651.079,123.03 C653.55,121.053 654.607,120.545 657.045,120.545 C659.605,120.545 660.617,121.035 662.963,122.99 C666.345,125.808 668.621,126.909 672.955,126.909 C677.145,126.909 679.402,125.826 682.897,123.03 C685.368,121.053 686.426,120.545 688.864,120.545 C691.424,120.545 692.436,121.035 694.781,122.99 C696.131,124.115 698.138,123.932 699.263,122.582 C700.388,121.232 700.205,119.226 698.855,118.101 C695.473,115.283 693.198,114.182 688.864,114.182 C684.673,114.182 682.416,115.265 678.921,118.061 C676.45,120.038 675.393,120.545 672.955,120.545 C670.395,120.545 669.383,120.056 667.037,118.101 C663.655,115.283 661.379,114.182 657.045,114.182 C652.855,114.182 650.598,115.265 647.103,118.061 C644.632,120.038 643.574,120.545 641.136,120.545 C638.576,120.545 637.564,120.056 635.219,118.101 C633.869,116.976 631.862,117.159 630.737,118.509 C629.612,119.858 629.795,121.865 631.145,122.99 Z" />
            <path d="M631.145,142.081 C634.527,144.899 636.802,146 641.136,146 C645.327,146 647.584,144.917 651.079,142.121 C653.55,140.144 654.607,139.636 657.045,139.636 C659.605,139.636 660.617,140.126 662.963,142.081 C666.345,144.899 668.621,146 672.955,146 C677.145,146 679.402,144.917 682.897,142.121 C685.368,140.144 686.426,139.636 688.864,139.636 C691.424,139.636 692.436,140.126 694.781,142.081 C696.131,143.206 698.138,143.023 699.263,141.673 C700.388,140.323 700.205,138.317 698.855,137.192 C695.473,134.374 693.198,133.273 688.864,133.273 C684.673,133.273 682.416,134.356 678.921,137.152 C676.45,139.129 675.393,139.636 672.955,139.636 C670.395,139.636 669.383,139.147 667.037,137.192 C663.655,134.374 661.379,133.273 657.045,133.273 C652.855,133.273 650.598,134.356 647.103,137.152 C644.632,139.129 643.574,139.636 641.136,139.636 C638.576,139.636 637.564,139.147 635.219,137.192 C633.869,136.067 631.862,136.249 630.737,137.599 C629.612,138.949 629.795,140.956 631.145,142.081 Z" />
        </g>
    </g>
</svg>