<?xml version="1.0" encoding="UTF-8"?>
<svg height="600" width="800" xmlns="http://www.w3.org/2000/svg" xmlns:xlink="http://www.w3.org/1999/xlink">
    <g id="Notes" font-family="LucidaGrande, 'Lucida Grande', sans-serif" font-size="13">
        <rect fill="white" height="600.0" width="800.0" x="0.0" y="0.0" />
        <g font-size="13">
            <text x="18.0" y="176.0">Small</text>
            <text x="18.0" y="376.0">Medium</text>
            <text x="18.0" y="576.0">Large</text>
        </g>
        <g font-size="9">
            <text x="250.0" y="30.0">Ultralight</text>
            <text x="450.0" y="30.0">Regular</text>
            <text x="650.0" y="30.0">Black</text>
            <text id="template-version" fill="#505050" text-anchor="end" x="785.0" y="575.0">Template v.3.0</text>
            <a href="https://github.com/swhitty/SwiftDraw">
                <text fill="#505050" text-anchor="end" x="785.0" y="590.0">https://github.com/swhitty/SwiftDraw</text>
            </a>
        </g>
    </g>
    <g id="Guides" stroke="rgb(39, 170, 225)" stroke-width="0.5">
        <path id="Capline-S" d="M18,76 l800,0" />
        <path id="H-reference" d="M85,145.755 L87.685,145.755 L113.369,79.287 L114.052,79.287 L114.052,76 L112.148,76 L85,145.755 Z M95.693,121.536 L130.996,121.536 L130.263,119.313 L96.474,119.313 L95.693,121.536 Z M139.15,145.755 L141.787,145.755 L114.638,76 L113.466,76 L113.466,79.287 L139.15,145.755 Z" stroke="none" transform="translate(0,200)" />
        <path id="Baseline-S" d="M18,146 l800,0" />
        <path id="left-margin-Ultralight-M" d="M224.474,256 l0,110" />
        <path id="right-margin-Ultralight-M" d="M305.526,256 l0,110" />
        <path id="left-margin-Regular-M" d="M424.474,256 l0,110" />
        <path id="right-margin-Regular-M" d="M505.526,256 l0,110" />
        <path id="left-margin-Black-M" d="M624.474,256 l0,110" />
        <path id="right-margin-Black-M" d="M705.526,256 l0,110" />
        <path id="Capline-M" d="M18,276 l800,0" />
        <path id="Baseline-M" d="M18,346 l800,0" />
        <path id="Capline-L" d="M18,476 l800,0" />
        <path id="Baseline-L" d="M18,546 l800,0" />
    </g>
    <g id="Symbols">
        <g id="Ultralight-M" transform="translate(0,200)">
            <path d="M234.004,100.815 L274.53,83.314 C276.38,82.516 278.562,83.294 279.404,85.053 L285.815,98.447 C286.657,100.207 288.841,100.985 290.693,100.184 C292.546,99.384 293.364,97.309 292.522,95.55 L286.112,82.155 C283.585,76.879 277.038,74.545 271.483,76.94 L230.955,94.442 C229.103,95.242 228.284,97.317 229.125,99.077 C229.967,100.836 232.152,101.615 234.004,100.815 Z" />
            <path d="M246.579,103.998 L246.579,96.998 C246.579,95.065 244.929,93.498 242.895,93.498 C240.86,93.498 239.211,95.065 239.211,96.998 L239.211,103.998 C239.211,105.932 240.86,107.499 242.895,107.499 C244.929,107.499 246.579,105.932 246.579,103.998 Z" />
            <path d="M239.211,117.999 L239.211,121.499 C239.211,123.432 240.86,124.999 242.895,124.999 C244.929,124.999 246.579,123.432 246.579,121.499 L246.579,117.999 C246.579,116.066 244.929,114.499 242.895,114.499 C240.86,114.499 239.211,116.066 239.211,117.999 Z" />
            <path d="M239.211,135.5 L239.211,142.5 C239.211,144.433 240.86,146 242.895,146 C244.929,146 246.579,144.433 246.579,142.5 L246.579,135.5 C246.579,133.567 244.929,131.999 242.895,131.999 C240.86,131.999 239.211,133.567 239.211,135.5 Z" />
            <path d="M298.158,119.749 L298.158,135.5 C298.158,136.428 297.77,137.318 297.079,137.975 C296.388,138.631 295.451,139 294.474,139 L235.526,139 C234.549,139 233.612,138.631 232.921,137.975 C232.23,137.318 231.842,136.428 231.842,135.5 L231.842,103.998 C231.842,103.07 232.23,102.18 232.921,101.524 C233.612,100.867 234.549,100.498 235.526,100.498 L294.474,100.498 C295.451,100.498 296.388,100.867 297.079,101.524 C297.77,102.18 298.158,103.07 298.158,103.998 L298.158,119.749 Z M305.526,119.749 L305.526,103.998 C305.526,101.214 304.362,98.543 302.289,96.574 C300.216,94.604 297.405,93.498 294.474,93.498 L235.526,93.498 C232.595,93.498 229.784,94.604 227.711,96.574 C225.638,98.543 224.474,101.214 224.474,103.998 L224.474,135.5 C224.474,138.284 225.638,140.955 227.711,142.924 C229.784,144.894 232.595,146 235.526,146 L294.474,146 C297.405,146 300.216,144.894 302.289,142.924 C304.362,140.955 305.526,138.284 305.526,135.5 L305.526,119.749 Z" />
        </g>
        <g id="Regular-M" transform="translate(0,200)">
            <path d="M434.004,100.815 L474.53,83.314 C476.38,82.516 478.562,83.294 479.404,85.053 L485.815,98.447 C486.657,100.207 488.841,100.985 490.693,100.184 C492.546,99.384 493.364,97.309 492.522,95.55 L486.112,82.155 C483.585,76.879 477.038,74.545 471.483,76.94 L430.955,94.442 C429.103,95.242 428.284,97.317 429.125,99.077 C429.967,100.836 432.152,101.615 434.004,100.815 Z" />
            <path d="M446.579,103.998 L446.579,96.998 C446.579,95.065 444.929,93.498 442.895,93.498 C440.86,93.498 439.211,95.065 439.211,96.998 L439.211,103.998 C439.211,105.932 440.86,107.499 442.895,107.499 C444.929,107.499 446.579,105.932 446.579,103.998 Z" />
            <path d="M439.211,117.999 L439.211,121.499 C439.211,123.432 440.86,124.999 442.895,124.999 C444.929,124.999 446.579,123.432 446.579,121.499 L446.579,117.999 C446.579,116.066 444.929,114.499 442.895,114.499 C440.86,114.499 439.211,116.066 439.211,117.999 Z" />
            <path d="M439.211,135.5 L439.211,142.5 C439.211,144.433 440.86,146 442.895,146 C444.929,146 446.579,144.433 446.579,142.5 L446.579,135.5 C446.579,133.567 444.929,131.999 442.895,131.999 C440.86,131.999 439.211,133.567 439.211,135.5 Z" />
            <path d="M498.158,119.749 L498.158,135.5 C498.158,136.428 497.77,137.318 497.079,137.975 C496.388,138.631 495.451,139 494.474,139 L435.526,139 C434.549,139 433.612,138.631 432.921,137.975 C432.23,137.318 431.842,136.428 431.842,135.5 L431.842,103.998 C431.842,103.07 432.23,102.18 432.921,101.524 C433.612,100.867 434.549,100.498 435.526,100.498 L494.474,100.498 C495.451,100.498 496.388,100.867 497.079,101.524 C497.77,102.18 498.158,103.07 498.158,103.998 L498.158,119.749 Z M505.526,119.749 L505.526,103.998 C505.526,101.214 504.362,98.543 502.289,96.574 C500.216,94.604 497.405,93.498 494.474,93.498 L435.526,93.498 C432.595,93.498 429.784,94.604 427.711,96.574 C425.638,98.543 424.474,101.214 424.474,103.998 L424.474,135.5 C424.474,138.284 425.638,140.955 427.711,142.924 C429.784,144.894 432.595,146 435.526,146 L494.474,146 C497.405,146 500.216,144.894 502.289,142.924 C504.362,140.955 505.526,138.284 505.526,135.5 L505.526,119.749 Z" />
        </g>
        <g id="Black-M" transform="translate(0,200)">
            <path d="M634.004,100.815 L674.53,83.314 C676.38,82.516 678.562,83.294 679.404,85.053 L685.815,98.447 C686.657,100.207 688.841,100.985 690.693,100.184 C692.546,99.384 693.364,97.309 692.522,95.55 L686.112,82.155 C683.585,76.879 677.038,74.545 671.483,76.94 L630.955,94.442 C629.103,95.242 628.284,97.317 629.125,99.077 C629.967,100.836 632.152,101.615 634.004,100.815 Z" />
            <path d="M646.579,103.998 L646.579,96.998 C646.579,95.065 644.93,93.498 642.895,93.498 C640.86,93.498 639.211,95.065 639.211,96.998 L639.211,103.998 C639.211,105.932 640.86,107.499 642.895,107.499 C644.93,107.499 646.579,105.932 646.579,103.998 Z" />
            <path d="M639.211,117.999 L639.211,121.499 C639.211,123.432 640.86,124.999 642.895,124.999 C644.93,124.999 646.579,123.432 646.579,121.499 L646.579,117.999 C646.579,116.066 644.93,114.499 642.895,114.499 C640.86,114.499 639.211,116.066 639.211,117.999 Z" />
            <path d="M639.211,135.5 L639.211,142.5 C639.211,144.433 640.86,146 642.895,146 C644.93,146 646.579,144.433 646.579,142.5 L646.579,135.5 C646.579,133.567 644.93,131.999 642.895,131.999 C640.86,131.999 639.211,133.567 639.211,135.5 Z" />
            <path d="M698.158,119.749 L698.158,135.5 C698.158,136.428 697.77,137.318 697.079,137.975 C696.388,138.631 695.451,139 694.474,139 L635.526,139 C634.549,139 633.612,138.631 632.921,137.975 C632.23,137.318 631.842,136.428 631.842,135.5 L631.842,103.998 C631.842,103.07 632.23,102.18 632.921,101.524 C633.612,100.867 634.549,100.498 635.526,100.498 L694.474,100.498 C695.451,100.498 696.388,100.867 697.079,101.524 C697.77,102.18 698.158,103.07 698.158,103.998 L698.158,119.749 Z M705.526,119.749 L705.526,103.998 C705.526,101.214 704.362,98.543 702.289,96.574 C700.216,94.604 697.405,93.498 694.474,93.498 L635.526,93.498 C632.595,93.498 629.784,94.604 627.711,96.574 C625.638,98.543 624.474,101.214 624.474,103.998 L624.474,135.5 C624.474,138.284 625.638,140.955 627.711,142.924 C629.784,144.894 632.595,146 635.526,146 L694.474,146 C697.405,146 700.216,144.894 702.289,142.924 C704.362,140.955 705.526,138.284 705.526,135.5 L705.526,119.749 Z" />
        </g>
    </g>
</svg>