<?xml version="1.0" encoding="UTF-8"?>
<svg height="600" width="800" xmlns="http://www.w3.org/2000/svg" xmlns:xlink="http://www.w3.org/1999/xlink">
    <g id="Notes" font-family="LucidaGrande, 'Lucida Grande', sans-serif" font-size="13">
        <rect fill="white" height="600.0" width="800.0" x="0.0" y="0.0" />
        <g font-size="13">
            <text x="18.0" y="176.0">Small</text>
            <text x="18.0" y="376.0">Medium</text>
            <text x="18.0" y="576.0">Large</text>
        </g>
        <g font-size="9">
            <text x="250.0" y="30.0">Ultralight</text>
            <text x="450.0" y="30.0">Regular</text>
            <text x="650.0" y="30.0">Black</text>
            <text id="template-version" fill="#505050" text-anchor="end" x="785.0" y="575.0">Template v.3.0</text>
            <a href="https://github.com/swhitty/SwiftDraw">
                <text fill="#505050" text-anchor="end" x="785.0" y="590.0">https://github.com/swhitty/SwiftDraw</text>
            </a>
        </g>
    </g>
    <g id="Guides" stroke="rgb(39, 170, 225)" stroke-width="0.5">
        <path id="Capline-S" d="M18,76 l800,0" />
        <path id="H-reference" d="M85,145.755 L87.685,145.755 L113.369,79.287 L114.052,79.287 L114.052,76 L112.148,76 L85,145.755 Z M95.693,121.536 L130.996,121.536 L130.263,119.313 L96.474,119.313 L95.693,121.536 Z M139.15,145.755 L141.787,145.755 L114.638,76 L113.466,76 L113.466,79.287 L139.15,145.755 Z" stroke="none" transform="translate(0,200)" />
        <path id="Baseline-S" d="M18,146 l800,0" />
        <path id="left-margin-Ultralight-M" d="M230,256 l0,110" />
        <path id="right-margin-Ultralight-M" d="M300,256 l0,110" />
        <path id="left-margin-Regular-M" d="M430,256 l0,110" />
        <path id="right-margin-Regular-M" d="M500,256 l0,110" />
        <path id="left-margin-Black-M" d="M630,256 l0,110" />
        <path id="right-margin-Black-M" d="M700,256 l0,110" />
        <path id="Capline-M" d="M18,276 l800,0" />
        <path id="Baseline-M" d="M18,346 l800,0" />
        <path id="Capline-L" d="M18,476 l800,0" />
        <path id="Baseline-L" d="M18,546 l800,0" />
    </g>
    <g id="Symbols">
        <g id="Ultralight-M" transform="translate(0,200)">
            <path d="M251,95.25 C251,96.216 250.216,97 249.25,97 C248.284,97 247.5,96.216 247.5,95.25 C247.5,94.284 248.284,93.5 249.25,93.5 C250.216,93.5 251,94.284 251,95.25 Z M244,95.25 C244,98.149 246.351,100.5 249.25,100.5 C252.149,100.5 254.5,98.149 254.5,95.25 C254.5,92.351 252.149,90 249.25,90 C246.351,90 244,92.351 244,95.25 Z" />
            <path d="M289.5,88.25 C289.5,89.216 288.716,90 287.75,90 C286.784,90 286,89.216 286,88.25 C286,87.284 286.784,86.5 287.75,86.5 C288.716,86.5 289.5,87.284 289.5,88.25 Z M282.5,88.25 C282.5,91.149 284.851,93.5 287.75,93.5 C290.649,93.5 293,91.149 293,88.25 C293,85.351 290.649,83 287.75,83 C284.851,83 282.5,85.351 282.5,88.25 Z" />
            <path d="M265,109.25 C265,110.216 264.216,111 263.25,111 C262.284,111 261.5,110.216 261.5,109.25 C261.5,108.284 262.284,107.5 263.25,107.5 C264.216,107.5 265,108.284 265,109.25 Z M258,109.25 C258,112.149 260.35,114.5 263.25,114.5 C266.15,114.5 268.5,112.149 268.5,109.25 C268.5,106.351 266.15,104 263.25,104 C260.35,104 258,106.351 258,109.25 Z" />
            <path d="M251,126.75 C251,127.716 250.216,128.5 249.25,128.5 C248.284,128.5 247.5,127.716 247.5,126.75 C247.5,125.784 248.284,125 249.25,125 C250.216,125 251,125.784 251,126.75 Z M244,126.75 C244,129.649 246.351,132 249.25,132 C252.149,132 254.5,129.649 254.5,126.75 C254.5,123.851 252.149,121.5 249.25,121.5 C246.351,121.5 244,123.851 244,126.75 Z" />
            <path d="M286,119.75 C286,120.716 285.216,121.5 284.25,121.5 C283.284,121.5 282.5,120.716 282.5,119.75 C282.5,118.784 283.284,118 284.25,118 C285.216,118 286,118.784 286,119.75 Z M279,119.75 C279,122.649 281.351,125 284.25,125 C287.149,125 289.5,122.649 289.5,119.75 C289.5,116.851 287.149,114.5 284.25,114.5 C281.351,114.5 279,116.851 279,119.75 Z" />
            <path d="M230,79.5 L230,135.5 C230,138.285 231.106,140.955 233.075,142.925 C235.045,144.894 237.715,146 240.5,146 L296.5,146 C298.433,146 300,144.433 300,142.5 C300,140.567 298.433,139 296.5,139 L240.5,139 C239.572,139 238.682,138.631 238.025,137.975 C237.369,137.318 237,136.428 237,135.5 L237,79.5 C237,77.567 235.433,76 233.5,76 C231.567,76 230,77.567 230,79.5 Z" />
        </g>
        <g id="Regular-M" transform="translate(0,200)">
            <path d="M451,95.25 C451,96.216 450.216,97 449.25,97 C448.284,97 447.5,96.216 447.5,95.25 C447.5,94.284 448.284,93.5 449.25,93.5 C450.216,93.5 451,94.284 451,95.25 Z M444,95.25 C444,98.149 446.35,100.5 449.25,100.5 C452.15,100.5 454.5,98.149 454.5,95.25 C454.5,92.351 452.15,90 449.25,90 C446.35,90 444,92.351 444,95.25 Z" />
            <path d="M489.5,88.25 C489.5,89.216 488.716,90 487.75,90 C486.784,90 486,89.216 486,88.25 C486,87.284 486.784,86.5 487.75,86.5 C488.716,86.5 489.5,87.284 489.5,88.25 Z M482.5,88.25 C482.5,91.149 484.851,93.5 487.75,93.5 C490.649,93.5 493,91.149 493,88.25 C493,85.351 490.649,83 487.75,83 C484.851,83 482.5,85.351 482.5,88.25 Z" />
            <path d="M465,109.25 C465,110.216 464.216,111 463.25,111 C462.284,111 461.5,110.216 461.5,109.25 C461.5,108.284 462.284,107.5 463.25,107.5 C464.216,107.5 465,108.284 465,109.25 Z M458,109.25 C458,112.149 460.35,114.5 463.25,114.5 C466.15,114.5 468.5,112.149 468.5,109.25 C468.5,106.351 466.15,104 463.25,104 C460.35,104 458,106.351 458,109.25 Z" />
            <path d="M451,126.75 C451,127.716 450.216,128.5 449.25,128.5 C448.284,128.5 447.5,127.716 447.5,126.75 C447.5,125.784 448.284,125 449.25,125 C450.216,125 451,125.784 451,126.75 Z M444,126.75 C444,129.649 446.35,132 449.25,132 C452.15,132 454.5,129.649 454.5,126.75 C454.5,123.851 452.15,121.5 449.25,121.5 C446.35,121.5 444,123.851 444,126.75 Z" />
            <path d="M486,119.75 C486,120.716 485.216,121.5 484.25,121.5 C483.284,121.5 482.5,120.716 482.5,119.75 C482.5,118.784 483.284,118 484.25,118 C485.216,118 486,118.784 486,119.75 Z M479,119.75 C479,122.649 481.351,125 484.25,125 C487.149,125 489.5,122.649 489.5,119.75 C489.5,116.851 487.149,114.5 484.25,114.5 C481.351,114.5 479,116.851 479,119.75 Z" />
            <path d="M430,79.5 L430,135.5 C430,138.285 431.106,140.955 433.075,142.925 C435.044,144.894 437.715,146 440.5,146 L496.5,146 C498.433,146 500,144.433 500,142.5 C500,140.567 498.433,139 496.5,139 L440.5,139 C439.572,139 438.682,138.631 438.025,137.975 C437.369,137.318 437,136.428 437,135.5 L437,79.5 C437,77.567 435.433,76 433.5,76 C431.567,76 430,77.567 430,79.5 Z" />
        </g>
        <g id="Black-M" transform="translate(0,200)">
            <path d="M651,95.25 C651,96.216 650.216,97 649.25,97 C648.284,97 647.5,96.216 647.5,95.25 C647.5,94.284 648.284,93.5 649.25,93.5 C650.216,93.5 651,94.284 651,95.25 Z M644,95.25 C644,98.149 646.351,100.5 649.25,100.5 C652.149,100.5 654.5,98.149 654.5,95.25 C654.5,92.351 652.149,90 649.25,90 C646.351,90 644,92.351 644,95.25 Z" />
            <path d="M689.5,88.25 C689.5,89.216 688.716,90 687.75,90 C686.784,90 686,89.216 686,88.25 C686,87.284 686.784,86.5 687.75,86.5 C688.716,86.5 689.5,87.284 689.5,88.25 Z M682.5,88.25 C682.5,91.149 684.851,93.5 687.75,93.5 C690.649,93.5 693,91.149 693,88.25 C693,85.351 690.649,83 687.75,83 C684.851,83 682.5,85.351 682.5,88.25 Z" />
            <path d="M665,109.25 C665,110.216 664.216,111 663.25,111 C662.284,111 661.5,110.216 661.5,109.25 C661.5,108.284 662.284,107.5 663.25,107.5 C664.216,107.5 665,108.284 665,109.25 Z M658,109.25 C658,112.149 660.351,114.5 663.25,114.5 C666.149,114.5 668.5,112.149 668.5,109.25 C668.5,106.351 666.149,104 663.25,104 C660.351,104 658,106.351 658,109.25 Z" />
            <path d="M651,126.75 C651,127.716 650.216,128.5 649.25,128.5 C648.284,128.5 647.5,127.716 647.5,126.75 C647.5,125.784 648.284,125 649.25,125 C650.216,125 651,125.784 651,126.75 Z M644,126.75 C644,129.649 646.351,132 649.25,132 C652.149,132 654.5,129.649 654.5,126.75 C654.5,123.851 652.149,121.5 649.25,121.5 C646.351,121.5 644,123.851 644,126.75 Z" />
            <path d="M686,119.75 C686,120.716 685.216,121.5 684.25,121.5 C683.284,121.5 682.5,120.716 682.5,119.75 C682.5,118.784 683.284,118 684.25,118 C685.216,118 686,118.784 686,119.75 Z M679,119.75 C679,122.649 681.351,125 684.25,125 C687.149,125 689.5,122.649 689.5,119.75 C689.5,116.851 687.149,114.5 684.25,114.5 C681.351,114.5 679,116.851 679,119.75 Z" />
            <path d="M630,79.5 L630,135.5 C630,138.285 631.106,140.955 633.075,142.925 C635.044,144.894 637.715,146 640.5,146 L696.5,146 C698.433,146 700,144.433 700,142.5 C700,140.567 698.433,139 696.5,139 L640.5,139 C639.572,139 638.682,138.631 638.025,137.975 C637.369,137.318 637,136.428 637,135.5 L637,79.5 C637,77.567 635.433,76 633.5,76 C631.567,76 630,77.567 630,79.5 Z" />
        </g>
    </g>
</svg>