<?xml version="1.0" encoding="UTF-8"?>
<svg height="600" width="800" xmlns="http://www.w3.org/2000/svg" xmlns:xlink="http://www.w3.org/1999/xlink">
    <g id="Notes" font-family="LucidaGrande, 'Lucida Grande', sans-serif" font-size="13">
        <rect fill="white" height="600.0" width="800.0" x="0.0" y="0.0" />
        <g font-size="13">
            <text x="18.0" y="176.0">Small</text>
            <text x="18.0" y="376.0">Medium</text>
            <text x="18.0" y="576.0">Large</text>
        </g>
        <g font-size="9">
            <text x="250.0" y="30.0">Ultralight</text>
            <text x="450.0" y="30.0">Regular</text>
            <text x="650.0" y="30.0">Black</text>
            <text id="template-version" fill="#505050" text-anchor="end" x="785.0" y="575.0">Template v.3.0</text>
            <a href="https://github.com/swhitty/SwiftDraw">
                <text fill="#505050" text-anchor="end" x="785.0" y="590.0">https://github.com/swhitty/SwiftDraw</text>
            </a>
        </g>
    </g>
    <g id="Guides" stroke="rgb(39, 170, 225)" stroke-width="0.5">
        <path id="Capline-S" d="M18,76 l800,0" />
        <path id="H-reference" d="M85,145.755 L87.685,145.755 L113.369,79.287 L114.052,79.287 L114.052,76 L112.148,76 L85,145.755 Z M95.693,121.536 L130.996,121.536 L130.263,119.313 L96.474,119.313 L95.693,121.536 Z M139.15,145.755 L141.787,145.755 L114.638,76 L113.466,76 L113.466,79.287 L139.15,145.755 Z" stroke="none" transform="translate(0,200)" />
        <path id="Baseline-S" d="M18,146 l800,0" />
        <path id="left-margin-Ultralight-M" d="M230,256 l0,110" />
        <path id="right-margin-Ultralight-M" d="M300,256 l0,110" />
        <path id="left-margin-Regular-M" d="M430,256 l0,110" />
        <path id="right-margin-Regular-M" d="M500,256 l0,110" />
        <path id="left-margin-Black-M" d="M630,256 l0,110" />
        <path id="right-margin-Black-M" d="M700,256 l0,110" />
        <path id="Capline-M" d="M18,276 l800,0" />
        <path id="Baseline-M" d="M18,346 l800,0" />
        <path id="Capline-L" d="M18,476 l800,0" />
        <path id="Baseline-L" d="M18,546 l800,0" />
    </g>
    <g id="Symbols">
        <g id="Ultralight-M" transform="translate(0,200)">
            <path d="M261.818,111 L261.818,126.909 C261.818,127.753 261.483,128.562 260.886,129.159 C260.29,129.756 259.48,130.091 258.636,130.091 L252.273,130.091 C251.429,130.091 250.62,129.756 250.023,129.159 C249.426,128.562 249.091,127.753 249.091,126.909 L249.091,95.091 C249.091,94.247 249.426,93.438 250.023,92.841 C250.62,92.244 251.429,91.909 252.273,91.909 L258.636,91.909 C259.48,91.909 260.29,92.244 260.886,92.841 C261.483,93.438 261.818,94.247 261.818,95.091 L261.818,111 Z M268.182,111 L268.182,95.091 C268.182,92.559 267.176,90.131 265.386,88.341 C263.596,86.551 261.168,85.545 258.636,85.545 L252.273,85.545 C249.741,85.545 247.313,86.551 245.523,88.341 C243.733,90.131 242.727,92.559 242.727,95.091 L242.727,126.909 C242.727,129.441 243.733,131.869 245.523,133.659 C247.313,135.449 249.741,136.455 252.273,136.455 L258.636,136.455 C261.168,136.455 263.596,135.449 265.386,133.659 C267.176,131.869 268.182,129.441 268.182,126.909 L268.182,111 Z" />
            <path d="M293.636,111 L293.636,120.545 C293.636,121.389 293.301,122.199 292.704,122.795 C292.108,123.392 291.298,123.727 290.455,123.727 L284.091,123.727 C283.247,123.727 282.438,123.392 281.841,122.795 C281.244,122.199 280.909,121.389 280.909,120.545 L280.909,101.455 C280.909,100.611 281.244,99.801 281.841,99.205 C282.438,98.608 283.247,98.273 284.091,98.273 L290.455,98.273 C291.298,98.273 292.108,98.608 292.704,99.205 C293.301,99.801 293.636,100.611 293.636,101.455 L293.636,111 Z M300,111 L300,101.455 C300,98.923 298.994,96.495 297.204,94.705 C295.414,92.915 292.986,91.909 290.455,91.909 L284.091,91.909 C281.559,91.909 279.131,92.915 277.341,94.705 C275.551,96.495 274.545,98.923 274.545,101.455 L274.545,120.545 C274.545,123.077 275.551,125.505 277.341,127.295 C279.131,129.085 281.559,130.091 284.091,130.091 L290.455,130.091 C292.986,130.091 295.414,129.085 297.204,127.295 C298.994,125.505 300,123.077 300,120.545 L300,111 Z" />
            <path d="M230,79.182 L230,142.818 C230,144.575 231.425,146 233.182,146 C234.939,146 236.364,144.575 236.364,142.818 L236.364,79.182 C236.364,77.425 234.939,76 233.182,76 C231.425,76 230,77.425 230,79.182 Z" />
        </g>
        <g id="Regular-M" transform="translate(0,200)">
            <path d="M461.818,111 L461.818,126.909 C461.818,127.753 461.483,128.562 460.886,129.159 C460.29,129.756 459.48,130.091 458.636,130.091 L452.273,130.091 C451.429,130.091 450.62,129.756 450.023,129.159 C449.426,128.562 449.091,127.753 449.091,126.909 L449.091,95.091 C449.091,94.247 449.426,93.438 450.023,92.841 C450.62,92.244 451.429,91.909 452.273,91.909 L458.636,91.909 C459.48,91.909 460.29,92.244 460.886,92.841 C461.483,93.438 461.818,94.247 461.818,95.091 L461.818,111 Z M468.182,111 L468.182,95.091 C468.182,92.559 467.176,90.131 465.386,88.341 C463.596,86.551 461.168,85.545 458.636,85.545 L452.273,85.545 C449.741,85.545 447.313,86.551 445.523,88.341 C443.733,90.131 442.727,92.559 442.727,95.091 L442.727,126.909 C442.727,129.441 443.733,131.869 445.523,133.659 C447.313,135.449 449.741,136.455 452.273,136.455 L458.636,136.455 C461.168,136.455 463.596,135.449 465.386,133.659 C467.176,131.869 468.182,129.441 468.182,126.909 L468.182,111 Z" />
            <path d="M493.636,111 L493.636,120.545 C493.636,121.389 493.301,122.199 492.704,122.795 C492.108,123.392 491.298,123.727 490.455,123.727 L484.091,123.727 C483.247,123.727 482.438,123.392 481.841,122.795 C481.244,122.199 480.909,121.389 480.909,120.545 L480.909,101.455 C480.909,100.611 481.244,99.801 481.841,99.205 C482.438,98.608 483.247,98.273 484.091,98.273 L490.455,98.273 C491.298,98.273 492.108,98.608 492.704,99.205 C493.301,99.801 493.636,100.611 493.636,101.455 L493.636,111 Z M500,111 L500,101.455 C500,98.923 498.994,96.495 497.204,94.705 C495.414,92.915 492.986,91.909 490.455,91.909 L484.091,91.909 C481.559,91.909 479.131,92.915 477.341,94.705 C475.551,96.495 474.545,98.923 474.545,101.455 L474.545,120.545 C474.545,123.077 475.551,125.505 477.341,127.295 C479.131,129.085 481.559,130.091 484.091,130.091 L490.455,130.091 C492.986,130.091 495.414,129.085 497.204,127.295 C498.994,125.505 500,123.077 500,120.545 L500,111 Z" />
            <path d="M430,79.182 L430,142.818 C430,144.575 431.425,146 433.182,146 C434.939,146 436.364,144.575 436.364,142.818 L436.364,79.182 C436.364,77.425 434.939,76 433.182,76 C431.425,76 430,77.425 430,79.182 Z" />
        </g>
        <g id="Black-M" transform="translate(0,200)">
            <path d="M661.818,111 L661.818,126.909 C661.818,127.753 661.483,128.562 660.886,129.159 C660.29,129.756 659.48,130.091 658.636,130.091 L652.273,130.091 C651.429,130.091 650.62,129.756 650.023,129.159 C649.426,128.562 649.091,127.753 649.091,126.909 L649.091,95.091 C649.091,94.247 649.426,93.438 650.023,92.841 C650.62,92.244 651.429,91.909 652.273,91.909 L658.636,91.909 C659.48,91.909 660.29,92.244 660.886,92.841 C661.483,93.438 661.818,94.247 661.818,95.091 L661.818,111 Z M668.182,111 L668.182,95.091 C668.182,92.559 667.176,90.131 665.386,88.341 C663.596,86.551 661.168,85.545 658.636,85.545 L652.273,85.545 C649.741,85.545 647.313,86.551 645.523,88.341 C643.733,90.131 642.727,92.559 642.727,95.091 L642.727,126.909 C642.727,129.441 643.733,131.869 645.523,133.659 C647.313,135.449 649.741,136.455 652.273,136.455 L658.636,136.455 C661.168,136.455 663.596,135.449 665.386,133.659 C667.176,131.869 668.182,129.441 668.182,126.909 L668.182,111 Z" />
            <path d="M693.636,111 L693.636,120.545 C693.636,121.389 693.301,122.199 692.704,122.795 C692.108,123.392 691.298,123.727 690.455,123.727 L684.091,123.727 C683.247,123.727 682.438,123.392 681.841,122.795 C681.244,122.199 680.909,121.389 680.909,120.545 L680.909,101.455 C680.909,100.611 681.244,99.801 681.841,99.205 C682.438,98.608 683.247,98.273 684.091,98.273 L690.455,98.273 C691.298,98.273 692.108,98.608 692.704,99.205 C693.301,99.801 693.636,100.611 693.636,101.455 L693.636,111 Z M700,111 L700,101.455 C700,98.923 698.994,96.495 697.204,94.705 C695.414,92.915 692.986,91.909 690.455,91.909 L684.091,91.909 C681.559,91.909 679.131,92.915 677.341,94.705 C675.551,96.495 674.545,98.923 674.545,101.455 L674.545,120.545 C674.545,123.077 675.551,125.505 677.341,127.295 C679.131,129.085 681.559,130.091 684.091,130.091 L690.455,130.091 C692.986,130.091 695.414,129.085 697.204,127.295 C698.994,125.505 700,123.077 700,120.545 L700,111 Z" />
            <path d="M630,79.182 L630,142.818 C630,144.575 631.425,146 633.182,146 C634.939,146 636.364,144.575 636.364,142.818 L636.364,79.182 C636.364,77.425 634.939,76 633.182,76 C631.425,76 630,77.425 630,79.182 Z" />
        </g>
    </g>
</svg>