<?xml version="1.0" encoding="UTF-8"?>
<svg height="600" width="800" xmlns="http://www.w3.org/2000/svg" xmlns:xlink="http://www.w3.org/1999/xlink">
    <g id="Notes" font-family="LucidaGrande, 'Lucida Grande', sans-serif" font-size="13">
        <rect fill="white" height="600.0" width="800.0" x="0.0" y="0.0" />
        <g font-size="13">
            <text x="18.0" y="176.0">Small</text>
            <text x="18.0" y="376.0">Medium</text>
            <text x="18.0" y="576.0">Large</text>
        </g>
        <g font-size="9">
            <text x="250.0" y="30.0">Ultralight</text>
            <text x="450.0" y="30.0">Regular</text>
            <text x="650.0" y="30.0">Black</text>
            <text id="template-version" fill="#505050" text-anchor="end" x="785.0" y="575.0">Template v.3.0</text>
            <a href="https://github.com/swhitty/SwiftDraw">
                <text fill="#505050" text-anchor="end" x="785.0" y="590.0">https://github.com/swhitty/SwiftDraw</text>
            </a>
        </g>
    </g>
    <g id="Guides" stroke="rgb(39, 170, 225)" stroke-width="0.5">
        <path id="Capline-S" d="M18,76 l800,0" />
        <path id="H-reference" d="M85,145.755 L87.685,145.755 L113.369,79.287 L114.052,79.287 L114.052,76 L112.148,76 L85,145.755 Z M95.693,121.536 L130.996,121.536 L130.263,119.313 L96.474,119.313 L95.693,121.536 Z M139.15,145.755 L141.787,145.755 L114.638,76 L113.466,76 L113.466,79.287 L139.15,145.755 Z" stroke="none" transform="translate(0,200)" />
        <path id="Baseline-S" d="M18,146 l800,0" />
        <path id="left-margin-Ultralight-M" d="M233.182,256 l0,110" />
        <path id="right-margin-Ultralight-M" d="M296.818,256 l0,110" />
        <path id="left-margin-Regular-M" d="M433.182,256 l0,110" />
        <path id="right-margin-Regular-M" d="M496.818,256 l0,110" />
        <path id="left-margin-Black-M" d="M633.182,256 l0,110" />
        <path id="right-margin-Black-M" d="M696.818,256 l0,110" />
        <path id="Capline-M" d="M18,276 l800,0" />
        <path id="Baseline-M" d="M18,346 l800,0" />
        <path id="Capline-L" d="M18,476 l800,0" />
        <path id="Baseline-L" d="M18,546 l800,0" />
    </g>
    <g id="Symbols">
        <g id="Ultralight-M" transform="translate(0,200)">
            <path d="M249.091,82.364 L280.909,82.364 C282.666,82.364 284.091,80.939 284.091,79.182 C284.091,77.425 282.666,76 280.909,76 L249.091,76 C247.334,76 245.909,77.425 245.909,79.182 C245.909,80.939 247.334,82.364 249.091,82.364 Z" />
            <path d="M242.727,95.091 L287.273,95.091 C289.03,95.091 290.455,93.666 290.455,91.909 C290.455,90.152 289.03,88.727 287.273,88.727 L242.727,88.727 C240.97,88.727 239.545,90.152 239.545,91.909 C239.545,93.666 240.97,95.091 242.727,95.091 Z" />
            <path d="M290.455,123.727 L290.455,136.455 C290.455,137.298 290.119,138.108 289.523,138.704 C288.926,139.301 288.117,139.636 287.273,139.636 L242.727,139.636 C241.883,139.636 241.074,139.301 240.477,138.704 C239.881,138.108 239.545,137.298 239.545,136.455 L239.545,111 C239.545,110.156 239.881,109.347 240.477,108.75 C241.074,108.153 241.883,107.818 242.727,107.818 L287.273,107.818 C288.117,107.818 288.926,108.153 289.523,108.75 C290.119,109.347 290.455,110.156 290.455,111 L290.455,123.727 Z M296.818,123.727 L296.818,111 C296.818,108.468 295.812,106.04 294.022,104.25 C292.232,102.46 289.804,101.455 287.273,101.455 L242.727,101.455 C240.196,101.455 237.768,102.46 235.978,104.25 C234.188,106.04 233.182,108.468 233.182,111 L233.182,136.455 C233.182,138.986 234.188,141.414 235.978,143.204 C237.768,144.994 240.196,146 242.727,146 L287.273,146 C289.804,146 292.232,144.994 294.022,143.204 C295.812,141.414 296.818,138.986 296.818,136.455 L296.818,123.727 Z" />
        </g>
        <g id="Regular-M" transform="translate(0,200)">
            <path d="M449.091,82.364 L480.909,82.364 C482.666,82.364 484.091,80.939 484.091,79.182 C484.091,77.425 482.666,76 480.909,76 L449.091,76 C447.334,76 445.909,77.425 445.909,79.182 C445.909,80.939 447.334,82.364 449.091,82.364 Z" />
            <path d="M442.727,95.091 L487.273,95.091 C489.03,95.091 490.455,93.666 490.455,91.909 C490.455,90.152 489.03,88.727 487.273,88.727 L442.727,88.727 C440.97,88.727 439.545,90.152 439.545,91.909 C439.545,93.666 440.97,95.091 442.727,95.091 Z" />
            <path d="M490.455,123.727 L490.455,136.455 C490.455,137.298 490.119,138.108 489.523,138.704 C488.926,139.301 488.117,139.636 487.273,139.636 L442.727,139.636 C441.883,139.636 441.074,139.301 440.477,138.704 C439.881,138.108 439.545,137.298 439.545,136.455 L439.545,111 C439.545,110.156 439.881,109.347 440.477,108.75 C441.074,108.153 441.883,107.818 442.727,107.818 L487.273,107.818 C488.117,107.818 488.926,108.153 489.523,108.75 C490.119,109.347 490.455,110.156 490.455,111 L490.455,123.727 Z M496.818,123.727 L496.818,111 C496.818,108.468 495.812,106.04 494.022,104.25 C492.232,102.46 489.804,101.455 487.273,101.455 L442.727,101.455 C440.196,101.455 437.768,102.46 435.978,104.25 C434.188,106.04 433.182,108.468 433.182,111 L433.182,136.455 C433.182,138.986 434.188,141.414 435.978,143.204 C437.768,144.994 440.196,146 442.727,146 L487.273,146 C489.804,146 492.232,144.994 494.022,143.204 C495.812,141.414 496.818,138.986 496.818,136.455 L496.818,123.727 Z" />
        </g>
        <g id="Black-M" transform="translate(0,200)">
            <path d="M649.091,82.364 L680.909,82.364 C682.666,82.364 684.091,80.939 684.091,79.182 C684.091,77.425 682.666,76 680.909,76 L649.091,76 C647.334,76 645.909,77.425 645.909,79.182 C645.909,80.939 647.334,82.364 649.091,82.364 Z" />
            <path d="M642.727,95.091 L687.273,95.091 C689.03,95.091 690.455,93.666 690.455,91.909 C690.455,90.152 689.03,88.727 687.273,88.727 L642.727,88.727 C640.97,88.727 639.545,90.152 639.545,91.909 C639.545,93.666 640.97,95.091 642.727,95.091 Z" />
            <path d="M690.455,123.727 L690.455,136.455 C690.455,137.298 690.119,138.108 689.523,138.704 C688.926,139.301 688.117,139.636 687.273,139.636 L642.727,139.636 C641.883,139.636 641.074,139.301 640.477,138.704 C639.881,138.108 639.545,137.298 639.545,136.455 L639.545,111 C639.545,110.156 639.881,109.347 640.477,108.75 C641.074,108.153 641.883,107.818 642.727,107.818 L687.273,107.818 C688.117,107.818 688.926,108.153 689.523,108.75 C690.119,109.347 690.455,110.156 690.455,111 L690.455,123.727 Z M696.818,123.727 L696.818,111 C696.818,108.468 695.812,106.04 694.022,104.25 C692.232,102.46 689.804,101.455 687.273,101.455 L642.727,101.455 C640.196,101.455 637.768,102.46 635.978,104.25 C634.188,106.04 633.182,108.468 633.182,111 L633.182,136.455 C633.182,138.986 634.188,141.414 635.978,143.204 C637.768,144.994 640.196,146 642.727,146 L687.273,146 C689.804,146 692.232,144.994 694.022,143.204 C695.812,141.414 696.818,138.986 696.818,136.455 L696.818,123.727 Z" />
        </g>
    </g>
</svg>