<?xml version="1.0" encoding="UTF-8"?>
<svg height="600" width="800" xmlns="http://www.w3.org/2000/svg" xmlns:xlink="http://www.w3.org/1999/xlink">
    <g id="Notes" font-family="LucidaGrande, 'Lucida Grande', sans-serif" font-size="13">
        <rect fill="white" height="600.0" width="800.0" x="0.0" y="0.0" />
        <g font-size="13">
            <text x="18.0" y="176.0">Small</text>
            <text x="18.0" y="376.0">Medium</text>
            <text x="18.0" y="576.0">Large</text>
        </g>
        <g font-size="9">
            <text x="250.0" y="30.0">Ultralight</text>
            <text x="450.0" y="30.0">Regular</text>
            <text x="650.0" y="30.0">Black</text>
            <text id="template-version" fill="#505050" text-anchor="end" x="785.0" y="575.0">Template v.3.0</text>
            <a href="https://github.com/swhitty/SwiftDraw">
                <text fill="#505050" text-anchor="end" x="785.0" y="590.0">https://github.com/swhitty/SwiftDraw</text>
            </a>
        </g>
    </g>
    <g id="Guides" stroke="rgb(39, 170, 225)" stroke-width="0.5">
        <path id="Capline-S" d="M18,76 l800,0" />
        <path id="H-reference" d="M85,145.755 L87.685,145.755 L113.369,79.287 L114.052,79.287 L114.052,76 L112.148,76 L85,145.755 Z M95.693,121.536 L130.996,121.536 L130.263,119.313 L96.474,119.313 L95.693,121.536 Z M139.15,145.755 L141.787,145.755 L114.638,76 L113.466,76 L113.466,79.287 L139.15,145.755 Z" stroke="none" transform="translate(0,200)" />
        <path id="Baseline-S" d="M18,146 l800,0" />
        <path id="left-margin-Ultralight-M" d="M230,256 l0,110" />
        <path id="right-margin-Ultralight-M" d="M300,256 l0,110" />
        <path id="left-margin-Regular-M" d="M430,256 l0,110" />
        <path id="right-margin-Regular-M" d="M500,256 l0,110" />
        <path id="left-margin-Black-M" d="M630,256 l0,110" />
        <path id="right-margin-Black-M" d="M700,256 l0,110" />
        <path id="Capline-M" d="M18,276 l800,0" />
        <path id="Baseline-M" d="M18,346 l800,0" />
        <path id="Capline-L" d="M18,476 l800,0" />
        <path id="Baseline-L" d="M18,546 l800,0" />
    </g>
    <g id="Symbols">
        <g id="Ultralight-M" transform="translate(0,200)">
            <path d="M282.986,96.147 C289.17,102.319 291.744,111.227 289.802,119.736 C289.412,121.445 290.485,123.146 292.198,123.536 C293.912,123.925 295.617,122.854 296.007,121.145 C298.434,110.509 295.216,99.374 287.487,91.659 C286.245,90.419 284.23,90.419 282.987,91.658 C281.744,92.897 281.744,94.907 282.986,96.147 Z" />
            <path d="M244.372,89.949 C235.161,97.666 231.1,109.905 233.876,121.581 C236.652,133.257 245.79,142.373 257.493,145.142 C269.196,147.911 281.464,143.86 289.2,134.671 C290.33,133.329 290.156,131.327 288.81,130.199 C287.464,129.072 285.457,129.246 284.327,130.588 C278.139,137.939 268.324,141.18 258.961,138.965 C249.599,136.75 242.288,129.457 240.068,120.116 C237.847,110.776 241.096,100.984 248.465,94.81 C249.81,93.683 249.985,91.68 248.855,90.338 C247.724,88.995 245.717,88.821 244.372,89.949 Z" />
            <path d="M261.818,79.174 L261.818,91.872 C261.818,93.625 263.243,95.046 265,95.046 C266.757,95.046 268.182,93.625 268.182,91.872 L268.182,79.174 C268.182,77.421 266.757,76 265,76 C263.243,76 261.818,77.421 261.818,79.174 Z" />
            <path d="M230.932,81.419 L294.568,144.905 C295.811,146.145 297.826,146.145 299.068,144.905 C300.311,143.665 300.311,141.656 299.068,140.416 L235.432,76.93 C234.189,75.69 232.175,75.69 230.932,76.93 C229.689,78.169 229.689,80.179 230.932,81.419 Z" />
        </g>
        <g id="Regular-M" transform="translate(0,200)">
            <path d="M482.986,96.147 C489.17,102.319 491.744,111.227 489.802,119.736 C489.412,121.445 490.485,123.146 492.198,123.536 C493.912,123.925 495.617,122.854 496.007,121.145 C498.434,110.509 495.216,99.374 487.487,91.659 C486.245,90.419 484.23,90.419 482.987,91.658 C481.744,92.897 481.744,94.907 482.986,96.147 Z" />
            <path d="M444.372,89.949 C435.161,97.666 431.1,109.905 433.876,121.581 C436.652,133.257 445.79,142.373 457.493,145.142 C469.196,147.911 481.464,143.86 489.2,134.671 C490.33,133.329 490.156,131.327 488.81,130.199 C487.464,129.072 485.457,129.246 484.327,130.588 C478.139,137.939 468.324,141.18 458.961,138.965 C449.599,136.75 442.288,129.457 440.068,120.116 C437.847,110.776 441.096,100.984 448.465,94.81 C449.81,93.683 449.985,91.68 448.855,90.338 C447.724,88.995 445.717,88.821 444.372,89.949 Z" />
            <path d="M461.818,79.174 L461.818,91.872 C461.818,93.625 463.243,95.046 465,95.046 C466.757,95.046 468.182,93.625 468.182,91.872 L468.182,79.174 C468.182,77.421 466.757,76 465,76 C463.243,76 461.818,77.421 461.818,79.174 Z" />
            <path d="M430.932,81.419 L494.568,144.905 C495.811,146.145 497.826,146.145 499.068,144.905 C500.311,143.665 500.311,141.656 499.068,140.416 L435.432,76.93 C434.189,75.69 432.174,75.69 430.932,76.93 C429.689,78.169 429.689,80.179 430.932,81.419 Z" />
        </g>
        <g id="Black-M" transform="translate(0,200)">
            <path d="M682.986,96.147 C689.17,102.319 691.744,111.227 689.802,119.736 C689.412,121.445 690.485,123.146 692.198,123.536 C693.912,123.925 695.617,122.854 696.007,121.145 C698.434,110.509 695.216,99.374 687.487,91.659 C686.245,90.419 684.23,90.419 682.987,91.658 C681.744,92.897 681.744,94.907 682.986,96.147 Z" />
            <path d="M644.372,89.949 C635.161,97.666 631.1,109.905 633.876,121.581 C636.652,133.257 645.79,142.373 657.493,145.142 C669.196,147.911 681.464,143.86 689.2,134.671 C690.33,133.329 690.156,131.327 688.81,130.199 C687.464,129.072 685.457,129.246 684.327,130.588 C678.139,137.939 668.324,141.18 658.961,138.965 C649.599,136.75 642.288,129.457 640.068,120.116 C637.847,110.776 641.096,100.984 648.465,94.81 C649.81,93.683 649.985,91.68 648.855,90.338 C647.724,88.995 645.717,88.821 644.372,89.949 Z" />
            <path d="M661.818,79.174 L661.818,91.872 C661.818,93.625 663.243,95.046 665,95.046 C666.757,95.046 668.182,93.625 668.182,91.872 L668.182,79.174 C668.182,77.421 666.757,76 665,76 C663.243,76 661.818,77.421 661.818,79.174 Z" />
            <path d="M630.932,81.419 L694.568,144.905 C695.811,146.145 697.826,146.145 699.068,144.905 C700.311,143.665 700.311,141.656 699.068,140.416 L635.432,76.93 C634.189,75.69 632.174,75.69 630.932,76.93 C629.689,78.169 629.689,80.179 630.932,81.419 Z" />
        </g>
    </g>
</svg>