<?xml version="1.0" encoding="UTF-8"?>
<svg height="600" width="800" xmlns="http://www.w3.org/2000/svg" xmlns:xlink="http://www.w3.org/1999/xlink">
    <g id="Notes" font-family="LucidaGrande, 'Lucida Grande', sans-serif" font-size="13">
        <rect fill="white" height="600.0" width="800.0" x="0.0" y="0.0" />
        <g font-size="13">
            <text x="18.0" y="176.0">Small</text>
            <text x="18.0" y="376.0">Medium</text>
            <text x="18.0" y="576.0">Large</text>
        </g>
        <g font-size="9">
            <text x="250.0" y="30.0">Ultralight</text>
            <text x="450.0" y="30.0">Regular</text>
            <text x="650.0" y="30.0">Black</text>
            <text id="template-version" fill="#505050" text-anchor="end" x="785.0" y="575.0">Template v.3.0</text>
            <a href="https://github.com/swhitty/SwiftDraw">
                <text fill="#505050" text-anchor="end" x="785.0" y="590.0">https://github.com/swhitty/SwiftDraw</text>
            </a>
        </g>
    </g>
    <g id="Guides" stroke="rgb(39, 170, 225)" stroke-width="0.5">
        <path id="Capline-S" d="M18,76 l800,0" />
        <path id="H-reference" d="M85,145.755 L87.685,145.755 L113.369,79.287 L114.052,79.287 L114.052,76 L112.148,76 L85,145.755 Z M95.693,121.536 L130.996,121.536 L130.263,119.313 L96.474,119.313 L95.693,121.536 Z M139.15,145.755 L141.787,145.755 L114.638,76 L113.466,76 L113.466,79.287 L139.15,145.755 Z" stroke="none" transform="translate(0,200)" />
        <path id="Baseline-S" d="M18,146 l800,0" />
        <path id="left-margin-Ultralight-M" d="M233.5,256 l0,110" />
        <path id="right-margin-Ultralight-M" d="M296.5,256 l0,110" />
        <path id="left-margin-Regular-M" d="M433.5,256 l0,110" />
        <path id="right-margin-Regular-M" d="M496.5,256 l0,110" />
        <path id="left-margin-Black-M" d="M633.5,256 l0,110" />
        <path id="right-margin-Black-M" d="M696.5,256 l0,110" />
        <path id="Capline-M" d="M18,276 l800,0" />
        <path id="Baseline-M" d="M18,346 l800,0" />
        <path id="Capline-L" d="M18,476 l800,0" />
        <path id="Baseline-L" d="M18,546 l800,0" />
    </g>
    <g id="Symbols">
        <g id="Ultralight-M" transform="translate(0,200)">
            <path d="M251,97 C251,89.268 257.268,83 265,83 C272.732,83 279,89.268 279,97 C279,104.732 272.732,111 265,111 C257.268,111 251,104.732 251,97 Z M244,97 C244,108.598 253.402,118 265,118 C276.598,118 286,108.598 286,97 C286,85.402 276.598,76 265,76 C253.402,76 244,85.402 244,97 Z" />
            <path d="M296.5,142.5 C296.5,125.103 282.397,111 265,111 C247.603,111 233.5,125.103 233.5,142.5 C233.5,144.433 235.067,146 237,146 C238.933,146 240.5,144.433 240.5,142.5 C240.5,128.969 251.469,118 265,118 C278.531,118 289.5,128.969 289.5,142.5 C289.5,144.433 291.067,146 293,146 C294.933,146 296.5,144.433 296.5,142.5 Z" />
        </g>
        <g id="Regular-M" transform="translate(0,200)">
            <path d="M451,97 C451,89.268 457.268,83 465,83 C472.732,83 479,89.268 479,97 C479,104.732 472.732,111 465,111 C457.268,111 451,104.732 451,97 Z M444,97 C444,108.598 453.402,118 465,118 C476.598,118 486,108.598 486,97 C486,85.402 476.598,76 465,76 C453.402,76 444,85.402 444,97 Z" />
            <path d="M496.5,142.5 C496.5,125.103 482.397,111 465,111 C447.603,111 433.5,125.103 433.5,142.5 C433.5,144.433 435.067,146 437,146 C438.933,146 440.5,144.433 440.5,142.5 C440.5,128.969 451.469,118 465,118 C478.531,118 489.5,128.969 489.5,142.5 C489.5,144.433 491.067,146 493,146 C494.933,146 496.5,144.433 496.5,142.5 Z" />
        </g>
        <g id="Black-M" transform="translate(0,200)">
            <path d="M651,97 C651,89.268 657.268,83 665,83 C672.732,83 679,89.268 679,97 C679,104.732 672.732,111 665,111 C657.268,111 651,104.732 651,97 Z M644,97 C644,108.598 653.402,118 665,118 C676.598,118 686,108.598 686,97 C686,85.402 676.598,76 665,76 C653.402,76 644,85.402 644,97 Z" />
            <path d="M696.5,142.5 C696.5,125.103 682.397,111 665,111 C647.603,111 633.5,125.103 633.5,142.5 C633.5,144.433 635.067,146 637,146 C638.933,146 640.5,144.433 640.5,142.5 C640.5,128.969 651.469,118 665,118 C678.531,118 689.5,128.969 689.5,142.5 C689.5,144.433 691.067,146 693,146 C694.933,146 696.5,144.433 696.5,142.5 Z" />
        </g>
    </g>
</svg>