<?xml version="1.0" encoding="UTF-8"?>
<svg height="600" width="800" xmlns="http://www.w3.org/2000/svg" xmlns:xlink="http://www.w3.org/1999/xlink">
    <g id="Notes" font-family="LucidaGrande, 'Lucida Grande', sans-serif" font-size="13">
        <rect fill="white" height="600.0" width="800.0" x="0.0" y="0.0" />
        <g font-size="13">
            <text x="18.0" y="176.0">Small</text>
            <text x="18.0" y="376.0">Medium</text>
            <text x="18.0" y="576.0">Large</text>
        </g>
        <g font-size="9">
            <text x="250.0" y="30.0">Ultralight</text>
            <text x="450.0" y="30.0">Regular</text>
            <text x="650.0" y="30.0">Black</text>
            <text id="template-version" fill="#505050" text-anchor="end" x="785.0" y="575.0">Template v.3.0</text>
            <a href="https://github.com/swhitty/SwiftDraw">
                <text fill="#505050" text-anchor="end" x="785.0" y="590.0">https://github.com/swhitty/SwiftDraw</text>
            </a>
        </g>
    </g>
    <g id="Guides" stroke="rgb(39, 170, 225)" stroke-width="0.5">
        <path id="Capline-S" d="M18,76 l800,0" />
        <path id="H-reference" d="M85,145.755 L87.685,145.755 L113.369,79.287 L114.052,79.287 L114.052,76 L112.148,76 L85,145.755 Z M95.693,121.536 L130.996,121.536 L130.263,119.313 L96.474,119.313 L95.693,121.536 Z M139.15,145.755 L141.787,145.755 L114.638,76 L113.466,76 L113.466,79.287 L139.15,145.755 Z" stroke="none" transform="translate(0,200)" />
        <path id="Baseline-S" d="M18,146 l800,0" />
        <path id="left-margin-Ultralight-M" d="M226.5,256 l0,110" />
        <path id="right-margin-Ultralight-M" d="M303.5,256 l0,110" />
        <path id="left-margin-Regular-M" d="M426.5,256 l0,110" />
        <path id="right-margin-Regular-M" d="M503.5,256 l0,110" />
        <path id="left-margin-Black-M" d="M626.5,256 l0,110" />
        <path id="right-margin-Black-M" d="M703.5,256 l0,110" />
        <path id="Capline-M" d="M18,276 l800,0" />
        <path id="Baseline-M" d="M18,346 l800,0" />
        <path id="Capline-L" d="M18,476 l800,0" />
        <path id="Baseline-L" d="M18,546 l800,0" />
    </g>
    <g id="Symbols">
        <g id="Ultralight-M" transform="translate(0,200)">
            <path d="M261.5,125 L261.5,142.5 C261.5,144.433 263.067,146 265,146 C266.933,146 268.5,144.433 268.5,142.5 L268.5,125 C268.5,123.067 266.933,121.5 265,121.5 C263.067,121.5 261.5,123.067 261.5,125 Z" />
            <path d="M275.5,118 L275.5,142.5 C275.5,144.433 277.067,146 279,146 C280.933,146 282.5,144.433 282.5,142.5 L282.5,118 C282.5,116.067 280.933,114.5 279,114.5 C277.067,114.5 275.5,116.067 275.5,118 Z" />
            <path d="M289.5,104 L289.5,142.5 C289.5,144.433 291.067,146 293,146 C294.933,146 296.5,144.433 296.5,142.5 L296.5,104 C296.5,102.067 294.933,100.5 293,100.5 C291.067,100.5 289.5,102.067 289.5,104 Z" />
            <path d="M297.525,77.025 L267.264,107.286 C267.589,106.96 268.035,106.775 268.5,106.775 C268.965,106.775 269.411,106.96 269.739,107.289 L258.214,95.764 C256.163,93.714 252.84,93.714 250.79,95.764 L227.525,119.025 C226.158,120.392 226.158,122.608 227.525,123.975 C228.892,125.342 231.108,125.342 232.475,123.975 L255.739,100.714 C255.056,101.397 253.948,101.397 253.265,100.714 L264.786,112.236 C265.768,113.22 267.105,113.775 268.5,113.775 C269.895,113.775 271.232,113.22 272.217,112.233 L302.475,81.975 C303.842,80.608 303.842,78.392 302.475,77.025 C301.108,75.658 298.892,75.658 297.525,77.025 Z" />
            <path d="M233.5,132 L233.5,142.5 C233.5,144.433 235.067,146 237,146 C238.933,146 240.5,144.433 240.5,142.5 L240.5,132 C240.5,130.067 238.933,128.5 237,128.5 C235.067,128.5 233.5,130.067 233.5,132 Z" />
            <path d="M247.5,118 L247.5,142.5 C247.5,144.433 249.067,146 251,146 C252.933,146 254.5,144.433 254.5,142.5 L254.5,118 C254.5,116.067 252.933,114.5 251,114.5 C249.067,114.5 247.5,116.067 247.5,118 Z" />
        </g>
        <g id="Regular-M" transform="translate(0,200)">
            <path d="M461.5,125 L461.5,142.5 C461.5,144.433 463.067,146 465,146 C466.933,146 468.5,144.433 468.5,142.5 L468.5,125 C468.5,123.067 466.933,121.5 465,121.5 C463.067,121.5 461.5,123.067 461.5,125 Z" />
            <path d="M475.5,118 L475.5,142.5 C475.5,144.433 477.067,146 479,146 C480.933,146 482.5,144.433 482.5,142.5 L482.5,118 C482.5,116.067 480.933,114.5 479,114.5 C477.067,114.5 475.5,116.067 475.5,118 Z" />
            <path d="M489.5,104 L489.5,142.5 C489.5,144.433 491.067,146 493,146 C494.933,146 496.5,144.433 496.5,142.5 L496.5,104 C496.5,102.067 494.933,100.5 493,100.5 C491.067,100.5 489.5,102.067 489.5,104 Z" />
            <path d="M497.525,77.025 L467.264,107.286 C467.589,106.96 468.035,106.775 468.5,106.775 C468.965,106.775 469.411,106.96 469.739,107.289 L458.214,95.764 C456.163,93.714 452.84,93.714 450.79,95.764 L427.525,119.025 C426.158,120.392 426.158,122.608 427.525,123.975 C428.892,125.342 431.108,125.342 432.475,123.975 L455.739,100.714 C455.056,101.397 453.948,101.397 453.264,100.714 L464.786,112.236 C465.768,113.22 467.105,113.775 468.5,113.775 C469.895,113.775 471.232,113.22 472.217,112.233 L502.475,81.975 C503.842,80.608 503.842,78.392 502.475,77.025 C501.108,75.658 498.892,75.658 497.525,77.025 Z" />
            <path d="M433.5,132 L433.5,142.5 C433.5,144.433 435.067,146 437,146 C438.933,146 440.5,144.433 440.5,142.5 L440.5,132 C440.5,130.067 438.933,128.5 437,128.5 C435.067,128.5 433.5,130.067 433.5,132 Z" />
            <path d="M447.5,118 L447.5,142.5 C447.5,144.433 449.067,146 451,146 C452.933,146 454.5,144.433 454.5,142.5 L454.5,118 C454.5,116.067 452.933,114.5 451,114.5 C449.067,114.5 447.5,116.067 447.5,118 Z" />
        </g>
        <g id="Black-M" transform="translate(0,200)">
            <path d="M661.5,125 L661.5,142.5 C661.5,144.433 663.067,146 665,146 C666.933,146 668.5,144.433 668.5,142.5 L668.5,125 C668.5,123.067 666.933,121.5 665,121.5 C663.067,121.5 661.5,123.067 661.5,125 Z" />
            <path d="M675.5,118 L675.5,142.5 C675.5,144.433 677.067,146 679,146 C680.933,146 682.5,144.433 682.5,142.5 L682.5,118 C682.5,116.067 680.933,114.5 679,114.5 C677.067,114.5 675.5,116.067 675.5,118 Z" />
            <path d="M689.5,104 L689.5,142.5 C689.5,144.433 691.067,146 693,146 C694.933,146 696.5,144.433 696.5,142.5 L696.5,104 C696.5,102.067 694.933,100.5 693,100.5 C691.067,100.5 689.5,102.067 689.5,104 Z" />
            <path d="M697.525,77.025 L667.264,107.286 C667.589,106.96 668.035,106.775 668.5,106.775 C668.965,106.775 669.411,106.96 669.739,107.289 L658.214,95.764 C656.163,93.714 652.84,93.714 650.79,95.764 L627.525,119.025 C626.158,120.392 626.158,122.608 627.525,123.975 C628.892,125.342 631.108,125.342 632.475,123.975 L655.739,100.714 C655.056,101.397 653.948,101.397 653.265,100.714 L664.786,112.236 C665.768,113.22 667.105,113.775 668.5,113.775 C669.895,113.775 671.232,113.22 672.217,112.233 L702.475,81.975 C703.842,80.608 703.842,78.392 702.475,77.025 C701.108,75.658 698.892,75.658 697.525,77.025 Z" />
            <path d="M633.5,132 L633.5,142.5 C633.5,144.433 635.067,146 637,146 C638.933,146 640.5,144.433 640.5,142.5 L640.5,132 C640.5,130.067 638.933,128.5 637,128.5 C635.067,128.5 633.5,130.067 633.5,132 Z" />
            <path d="M647.5,118 L647.5,142.5 C647.5,144.433 649.067,146 651,146 C652.933,146 654.5,144.433 654.5,142.5 L654.5,118 C654.5,116.067 652.933,114.5 651,114.5 C649.067,114.5 647.5,116.067 647.5,118 Z" />
        </g>
    </g>
</svg>