<svg xmlns="http://www.w3.org/2000/svg" viewBox="1.0717797887081342 2 21.85644042258373 19.913203773588684" width="21.85644042258373" height="19.913203773588684" fill="none" stroke="black" stroke-width="2" stroke-linecap="round" stroke-linejoin="round">
  <path d="M10 16c.5.3 1.2.5 2 .5s1.5-.2 2-.5"/>
  <path d="M15 12h.01"/>
  <path d="M19.38 6.813A9 9 0 0 1 20.8 10.2a2 2 0 0 1 0 3.6 9 9 0 0 1-17.6 0 2 2 0 0 1 0-3.6A9 9 0 0 1 12 3c2 0 3.5 1.1 3.5 2.5s-.9 2.5-2 2.5c-.8 0-1.5-.4-1.5-1"/>
  <path d="M9 12h.01"/>
</svg>
