<svg xmlns="http://www.w3.org/2000/svg" viewBox="1.001392238644161 2.145415039342395 21.853398724819304 20.854584960657604" width="21.853398724819304" height="20.854584960657604" fill="none" stroke="black" stroke-width="2" stroke-linecap="round" stroke-linejoin="round">
  <path d="M11 20v2"/>
  <path d="M18.376 14.512a6 6 0 0 0 3.461-4.127c.148-.625-.659-.97-1.248-.714a4 4 0 0 1-5.259-5.26c.255-.589-.09-1.395-.716-1.248a6 6 0 0 0-4.594 5.36"/>
  <path d="M3 20a5 5 0 1 1 8.9-4H13a3 3 0 0 1 2 5.24"/>
  <path d="M7 19v2"/>
</svg>
