<svg xmlns="http://www.w3.org/2000/svg" viewBox="0.9999998996389636 0.9996891780123618 22.00000020072207 22.00062164397528" width="22.00000020072207" height="22.00062164397528" fill="none" stroke="black" stroke-width="2" stroke-linecap="round" stroke-linejoin="round">
  <path d="M10 22v-8"/>
  <path d="M2.336 8.89 10 14l11.715-7.029"/>
  <path d="M22 14a2 2 0 0 1-.971 1.715l-10 6a2 2 0 0 1-2.138-.05l-6-4A2 2 0 0 1 2 16v-6a2 2 0 0 1 .971-1.715l10-6a2 2 0 0 1 2.138.05l6 4A2 2 0 0 1 22 8z"/>
</svg>
