<svg xmlns="http://www.w3.org/2000/svg" viewBox="1.9999999424168617 0.9995205399601006 20.000000115166273 21.000479460039905" width="20.000000115166273" height="21.000479460039905" fill="none" stroke="black" stroke-width="2" stroke-linecap="round" stroke-linejoin="round">
  <path d="M10 12V8.964"/>
  <path d="M14 12V8.964"/>
  <path d="M15 12a1 1 0 0 1 1 1v2a2 2 0 0 1-2 2h-4a2 2 0 0 1-2-2v-2a1 1 0 0 1 1-1z"/>
  <path d="M8.5 21H5a2 2 0 0 1-2-2v-9a2 2 0 0 1 .709-1.528l7-6a2 2 0 0 1 2.582 0l7 6A2 2 0 0 1 21 10v9a2 2 0 0 1-2 2h-5a2 2 0 0 1-2-2v-2"/>
</svg>
