<svg xmlns="http://www.w3.org/2000/svg" viewBox="2.0000000000000004 1.0020508075688768 20.5 21.997949192431122" width="20.5" height="21.997949192431122" fill="none" stroke="black" stroke-width="2" stroke-linecap="round" stroke-linejoin="round">
  <path d="M12 22V12"/>
  <path d="m16.5 14.5 5 5"/>
  <path d="m16.5 19.5 5-5"/>
  <path d="M21 10.5V8a2 2 0 0 0-1-1.73l-7-4a2 2 0 0 0-2 0l-7 4A2 2 0 0 0 3 8v8a2 2 0 0 0 1 1.729l7 4a2 2 0 0 0 2 .001l.13-.074"/>
  <path d="M3.29 7 12 12l8.71-5"/>
  <path d="m7.5 4.27 8.997 5.148"/>
</svg>
