<svg xmlns="http://www.w3.org/2000/svg" viewBox="1.9983931988917814 1.999999472393192 20.003213602216434 20.000001055213612" width="20.003213602216434" height="20.000001055213612" fill="none" stroke="black" stroke-width="2" stroke-linecap="round" stroke-linejoin="round">
  <path d="M17 13.44 4.442 17.082A2 2 0 0 0 4.982 21H19a2 2 0 0 0 .558-3.921l-1.115-.32A2 2 0 0 1 17 14.837V7.66"/>
  <path d="m7 10.56 12.558-3.642A2 2 0 0 0 19.018 3H5a2 2 0 0 0-.558 3.921l1.115.32A2 2 0 0 1 7 9.163v7.178"/>
</svg>
