<svg xmlns="http://www.w3.org/2000/svg" viewBox="1 5.017279863682394 22 13.984720136317605" width="22" height="13.984720136317605" fill="none" stroke="black" stroke-width="2" stroke-linecap="round" stroke-linejoin="round">
  <path d="m2 10 2.456-3.684a.7.7 0 0 1 1.106-.013l2.39 3.413a.7.7 0 0 0 1.096-.001l2.402-3.432a.7.7 0 0 1 1.098 0l2.402 3.432a.7.7 0 0 0 1.098 0l2.389-3.413a.7.7 0 0 1 1.106.013L22 10"/>
  <path d="m2 18.002 2.456-3.684a.7.7 0 0 1 1.106-.013l2.39 3.413a.7.7 0 0 0 1.097 0l2.402-3.432a.7.7 0 0 1 1.098 0l2.402 3.432a.7.7 0 0 0 1.098 0l2.389-3.413a.7.7 0 0 1 1.106.013L22 18.002"/>
</svg>
