<?xml version="1.0" encoding="UTF-8"?>
<svg height="600" width="800" xmlns="http://www.w3.org/2000/svg" xmlns:xlink="http://www.w3.org/1999/xlink">
    <g id="Notes" font-family="LucidaGrande, 'Lucida Grande', sans-serif" font-size="13">
        <rect fill="white" height="600.0" width="800.0" x="0.0" y="0.0" />
        <g font-size="13">
            <text x="18.0" y="176.0">Small</text>
            <text x="18.0" y="376.0">Medium</text>
            <text x="18.0" y="576.0">Large</text>
        </g>
        <g font-size="9">
            <text x="250.0" y="30.0">Ultralight</text>
            <text x="450.0" y="30.0">Regular</text>
            <text x="650.0" y="30.0">Black</text>
            <text id="template-version" fill="#505050" text-anchor="end" x="785.0" y="575.0">Template v.3.0</text>
            <a href="https://github.com/swhitty/SwiftDraw">
                <text fill="#505050" text-anchor="end" x="785.0" y="590.0">https://github.com/swhitty/SwiftDraw</text>
            </a>
        </g>
    </g>
    <g id="Guides" stroke="rgb(39, 170, 225)" stroke-width="0.5">
        <path id="Capline-S" d="M18,76 l800,0" />
        <path id="H-reference" d="M85,145.755 L87.685,145.755 L113.369,79.287 L114.052,79.287 L114.052,76 L112.148,76 L85,145.755 Z M95.693,121.536 L130.996,121.536 L130.263,119.313 L96.474,119.313 L95.693,121.536 Z M139.15,145.755 L141.787,145.755 L114.638,76 L113.466,76 L113.466,79.287 L139.15,145.755 Z" stroke="none" transform="translate(0,200)" />
        <path id="Baseline-S" d="M18,146 l800,0" />
        <path id="left-margin-Ultralight-M" d="M233.5,256 l0,110" />
        <path id="right-margin-Ultralight-M" d="M296.5,256 l0,110" />
        <path id="left-margin-Regular-M" d="M433.5,256 l0,110" />
        <path id="right-margin-Regular-M" d="M496.5,256 l0,110" />
        <path id="left-margin-Black-M" d="M633.5,256 l0,110" />
        <path id="right-margin-Black-M" d="M696.5,256 l0,110" />
        <path id="Capline-M" d="M18,276 l800,0" />
        <path id="Baseline-M" d="M18,346 l800,0" />
        <path id="Capline-L" d="M18,476 l800,0" />
        <path id="Baseline-L" d="M18,546 l800,0" />
    </g>
    <g id="Symbols">
        <g id="Ultralight-M" transform="translate(0,200)">
            <path d="M265,132 C283.567,132 296.5,121.783 296.5,107.5 C296.5,105.567 294.933,104 293,104 L237,104 C235.067,104 233.5,105.567 233.5,107.5 C233.5,121.783 246.433,132 265,132 C266.933,132 268.5,130.433 268.5,128.5 C268.5,126.567 266.933,125 265,125 C249.985,125 240.5,117.507 240.5,107.5 L237,111 L293,111 L289.5,107.5 C289.5,117.507 280.015,125 265,125 C263.067,125 261.5,126.567 261.5,128.5 C261.5,130.433 263.067,132 265,132 Z M251,146 L279,146 C280.933,146 282.5,144.433 282.5,142.5 C282.5,140.567 280.933,139 279,139 L251,139 C249.067,139 247.5,140.567 247.5,142.5 C247.5,144.433 249.067,146 251,146 Z M261.5,132 L261.5,142.5 C261.5,144.433 263.067,146 265,146 C266.933,146 268.5,144.433 268.5,142.5 L268.5,132 C268.5,130.067 266.933,128.5 265,128.5 C263.067,128.5 261.5,130.067 261.5,132 Z M244.345,106.503 C243.281,102.921 244.608,99.059 247.649,96.889 C250.691,94.718 254.774,94.718 257.816,96.889 C260.857,99.059 262.184,102.921 261.12,106.503 C260.569,108.356 261.625,110.304 263.478,110.855 C265.331,111.406 267.279,110.35 267.83,108.497 C269.746,102.05 267.357,95.098 261.882,91.191 C256.408,87.284 249.057,87.284 243.583,91.191 C238.108,95.098 235.719,102.05 237.635,108.497 C238.186,110.35 240.134,111.406 241.987,110.855 C243.84,110.304 244.896,108.356 244.345,106.503 Z" />
            <path d="M268.845,106.503 C267.781,102.921 269.108,99.059 272.149,96.889 C275.19,94.718 279.275,94.718 282.316,96.889 C285.357,99.059 286.684,102.921 285.62,106.503 C285.069,108.356 286.125,110.304 287.978,110.855 C289.831,111.406 291.779,110.35 292.33,108.497 C294.246,102.05 291.857,95.098 286.382,91.191 C280.908,87.284 273.557,87.284 268.083,91.191 C262.608,95.098 260.219,102.05 262.135,108.497 C262.686,110.35 264.634,111.406 266.487,110.855 C268.34,110.304 269.396,108.356 268.845,106.503 Z" />
            <path d="M280.75,91.75 C280.75,83.052 273.698,76 265,76 C256.302,76 249.25,83.052 249.25,91.75 C249.25,93.683 250.817,95.25 252.75,95.25 C254.683,95.25 256.25,93.683 256.25,91.75 C256.25,86.918 260.168,83 265,83 C269.832,83 273.75,86.918 273.75,91.75 C273.75,93.683 275.317,95.25 277.25,95.25 C279.183,95.25 280.75,93.683 280.75,91.75 Z" />
        </g>
        <g id="Regular-M" transform="translate(0,200)">
            <path d="M465,132 C483.567,132 496.5,121.783 496.5,107.5 C496.5,105.567 494.933,104 493,104 L437,104 C435.067,104 433.5,105.567 433.5,107.5 C433.5,121.783 446.433,132 465,132 C466.933,132 468.5,130.433 468.5,128.5 C468.5,126.567 466.933,125 465,125 C449.985,125 440.5,117.507 440.5,107.5 L437,111 L493,111 L489.5,107.5 C489.5,117.507 480.015,125 465,125 C463.067,125 461.5,126.567 461.5,128.5 C461.5,130.433 463.067,132 465,132 Z M451,146 L479,146 C480.933,146 482.5,144.433 482.5,142.5 C482.5,140.567 480.933,139 479,139 L451,139 C449.067,139 447.5,140.567 447.5,142.5 C447.5,144.433 449.067,146 451,146 Z M461.5,132 L461.5,142.5 C461.5,144.433 463.067,146 465,146 C466.933,146 468.5,144.433 468.5,142.5 L468.5,132 C468.5,130.067 466.933,128.5 465,128.5 C463.067,128.5 461.5,130.067 461.5,132 Z M444.345,106.503 C443.281,102.921 444.608,99.059 447.649,96.889 C450.69,94.718 454.774,94.718 457.816,96.889 C460.857,99.059 462.184,102.921 461.12,106.503 C460.569,108.356 461.625,110.304 463.478,110.855 C465.331,111.406 467.279,110.35 467.83,108.497 C469.746,102.05 467.357,95.098 461.882,91.191 C456.408,87.284 449.057,87.284 443.583,91.191 C438.108,95.098 435.719,102.05 437.635,108.497 C438.186,110.35 440.134,111.406 441.987,110.855 C443.84,110.304 444.896,108.356 444.345,106.503 Z" />
            <path d="M468.845,106.503 C467.781,102.921 469.108,99.059 472.149,96.889 C475.19,94.718 479.275,94.718 482.316,96.889 C485.357,99.059 486.684,102.921 485.62,106.503 C485.069,108.356 486.125,110.304 487.978,110.855 C489.831,111.406 491.779,110.35 492.33,108.497 C494.246,102.05 491.857,95.098 486.382,91.191 C480.908,87.284 473.557,87.284 468.083,91.191 C462.608,95.098 460.219,102.05 462.135,108.497 C462.686,110.35 464.634,111.406 466.487,110.855 C468.34,110.304 469.396,108.356 468.845,106.503 Z" />
            <path d="M480.75,91.75 C480.75,83.052 473.698,76 465,76 C456.302,76 449.25,83.052 449.25,91.75 C449.25,93.683 450.817,95.25 452.75,95.25 C454.683,95.25 456.25,93.683 456.25,91.75 C456.25,86.918 460.168,83 465,83 C469.832,83 473.75,86.918 473.75,91.75 C473.75,93.683 475.317,95.25 477.25,95.25 C479.183,95.25 480.75,93.683 480.75,91.75 Z" />
        </g>
        <g id="Black-M" transform="translate(0,200)">
            <path d="M665,132 C683.567,132 696.5,121.783 696.5,107.5 C696.5,105.567 694.933,104 693,104 L637,104 C635.067,104 633.5,105.567 633.5,107.5 C633.5,121.783 646.433,132 665,132 C666.933,132 668.5,130.433 668.5,128.5 C668.5,126.567 666.933,125 665,125 C649.985,125 640.5,117.507 640.5,107.5 L637,111 L693,111 L689.5,107.5 C689.5,117.507 680.015,125 665,125 C663.067,125 661.5,126.567 661.5,128.5 C661.5,130.433 663.067,132 665,132 Z M651,146 L679,146 C680.933,146 682.5,144.433 682.5,142.5 C682.5,140.567 680.933,139 679,139 L651,139 C649.067,139 647.5,140.567 647.5,142.5 C647.5,144.433 649.067,146 651,146 Z M661.5,132 L661.5,142.5 C661.5,144.433 663.067,146 665,146 C666.933,146 668.5,144.433 668.5,142.5 L668.5,132 C668.5,130.067 666.933,128.5 665,128.5 C663.067,128.5 661.5,130.067 661.5,132 Z M644.345,106.503 C643.281,102.921 644.608,99.059 647.649,96.889 C650.69,94.718 654.774,94.718 657.816,96.889 C660.857,99.059 662.184,102.921 661.12,106.503 C660.569,108.356 661.625,110.304 663.478,110.855 C665.331,111.406 667.279,110.35 667.83,108.497 C669.746,102.05 667.357,95.098 661.882,91.191 C656.408,87.284 649.057,87.284 643.583,91.191 C638.108,95.098 635.719,102.05 637.635,108.497 C638.186,110.35 640.134,111.406 641.987,110.855 C643.84,110.304 644.896,108.356 644.345,106.503 Z" />
            <path d="M668.845,106.503 C667.781,102.921 669.108,99.059 672.149,96.889 C675.19,94.718 679.274,94.718 682.316,96.889 C685.357,99.059 686.684,102.921 685.62,106.503 C685.069,108.356 686.125,110.304 687.978,110.855 C689.831,111.406 691.779,110.35 692.33,108.497 C694.246,102.05 691.857,95.098 686.382,91.191 C680.908,87.284 673.557,87.284 668.083,91.191 C662.608,95.098 660.219,102.05 662.135,108.497 C662.686,110.35 664.634,111.406 666.487,110.855 C668.34,110.304 669.396,108.356 668.845,106.503 Z" />
            <path d="M680.75,91.75 C680.75,83.052 673.698,76 665,76 C656.302,76 649.25,83.052 649.25,91.75 C649.25,93.683 650.817,95.25 652.75,95.25 C654.683,95.25 656.25,93.683 656.25,91.75 C656.25,86.918 660.167,83 665,83 C669.833,83 673.75,86.918 673.75,91.75 C673.75,93.683 675.317,95.25 677.25,95.25 C679.183,95.25 680.75,93.683 680.75,91.75 Z" />
        </g>
    </g>
</svg>