<?xml version="1.0" encoding="UTF-8"?>
<svg height="600" width="800" xmlns="http://www.w3.org/2000/svg" xmlns:xlink="http://www.w3.org/1999/xlink">
    <g id="Notes" font-family="LucidaGrande, 'Lucida Grande', sans-serif" font-size="13">
        <rect fill="white" height="600.0" width="800.0" x="0.0" y="0.0" />
        <g font-size="13">
            <text x="18.0" y="176.0">Small</text>
            <text x="18.0" y="376.0">Medium</text>
            <text x="18.0" y="576.0">Large</text>
        </g>
        <g font-size="9">
            <text x="250.0" y="30.0">Ultralight</text>
            <text x="450.0" y="30.0">Regular</text>
            <text x="650.0" y="30.0">Black</text>
            <text id="template-version" fill="#505050" text-anchor="end" x="785.0" y="575.0">Template v.3.0</text>
            <a href="https://github.com/swhitty/SwiftDraw">
                <text fill="#505050" text-anchor="end" x="785.0" y="590.0">https://github.com/swhitty/SwiftDraw</text>
            </a>
        </g>
    </g>
    <g id="Guides" stroke="rgb(39, 170, 225)" stroke-width="0.5">
        <path id="Capline-S" d="M18,76 l800,0" />
        <path id="H-reference" d="M85,145.755 L87.685,145.755 L113.369,79.287 L114.052,79.287 L114.052,76 L112.148,76 L85,145.755 Z M95.693,121.536 L130.996,121.536 L130.263,119.313 L96.474,119.313 L95.693,121.536 Z M139.15,145.755 L141.787,145.755 L114.638,76 L113.466,76 L113.466,79.287 L139.15,145.755 Z" stroke="none" transform="translate(0,200)" />
        <path id="Baseline-S" d="M18,146 l800,0" />
        <path id="left-margin-Ultralight-M" d="M235,256 l0,110" />
        <path id="right-margin-Ultralight-M" d="M295,256 l0,110" />
        <path id="left-margin-Regular-M" d="M435,256 l0,110" />
        <path id="right-margin-Regular-M" d="M495,256 l0,110" />
        <path id="left-margin-Black-M" d="M635,256 l0,110" />
        <path id="right-margin-Black-M" d="M695,256 l0,110" />
        <path id="Capline-M" d="M18,276 l800,0" />
        <path id="Baseline-M" d="M18,346 l800,0" />
        <path id="Capline-L" d="M18,476 l800,0" />
        <path id="Baseline-L" d="M18,546 l800,0" />
    </g>
    <g id="Symbols">
        <g id="Ultralight-M" transform="translate(0,200)">
            <path d="M269.648,124.511 L267.981,121.178 C266.753,118.722 263.247,118.722 262.019,121.178 L260.352,124.511 C259.244,126.728 260.855,129.335 263.333,129.335 L266.667,129.335 C269.144,129.335 270.756,126.728 269.648,124.511 Z M263.685,127.493 L266.667,122.669 L263.333,122.669 L266.315,127.493 L267.981,124.16 L262.019,124.16 L263.685,127.493 Z" />
            <path d="M275,146 C276.768,146 278.463,145.298 279.714,144.048 C280.964,142.797 281.666,141.102 281.666,139.334 L281.666,136.001 L278.333,136.001 L278.335,139.334 C282.179,139.332 285.681,137.127 287.344,133.662 C289.007,130.197 288.537,126.086 286.135,123.086 L283.533,125.169 L285.849,127.565 C294.64,119.069 297.395,106.087 292.812,94.753 C288.229,83.419 277.226,76 265,76 C252.774,76 241.771,83.419 237.188,94.753 C232.605,106.087 235.36,119.069 244.151,127.565 L246.467,125.169 L243.865,123.086 C241.463,126.086 240.993,130.197 242.656,133.662 C244.319,137.127 247.821,139.332 251.665,139.334 L251.667,136.001 L248.334,136.001 L248.334,139.334 C248.334,141.102 249.036,142.797 250.286,144.048 C251.537,145.298 253.232,146 255,146 L275,146 Z M275,139.334 L255,139.334 C255,139.334 255,139.334 255,139.334 C255,139.334 255,139.334 255,139.334 L255,136.001 C255,134.161 253.509,132.669 251.669,132.668 C250.388,132.667 249.221,131.932 248.666,130.777 C248.112,129.622 248.268,128.252 249.069,127.252 C250.145,125.909 250.021,123.968 248.784,122.772 C241.947,116.164 239.804,106.067 243.368,97.252 C246.933,88.437 255.491,82.666 265,82.666 C274.509,82.666 283.067,88.437 286.632,97.252 C290.196,106.067 288.053,116.164 281.216,122.772 C279.979,123.968 279.855,125.909 280.931,127.252 C281.732,128.252 281.888,129.622 281.334,130.777 C280.779,131.932 279.612,132.667 278.331,132.668 C276.491,132.669 275,134.161 275,136.001 L275,139.334 C275,139.334 275,139.334 275,139.334 C275,139.334 275,139.334 275,139.334 Z" />
            <path d="M275,109.337 C275,109.337 275,109.337 275,109.337 C275,109.337 275,109.337 275,109.337 C275,109.337 275,109.337 275,109.337 C275,109.337 275,109.337 275,109.337 Z M268.333,109.337 C268.333,113.018 271.318,116.003 275,116.003 C278.681,116.003 281.666,113.018 281.666,109.337 C281.666,105.655 278.681,102.671 275,102.671 C271.318,102.671 268.333,105.655 268.333,109.337 Z" />
            <path d="M255,109.337 C255,109.337 255,109.337 255,109.337 C255,109.337 255,109.337 255,109.337 C255,109.337 255,109.337 255,109.337 C255,109.337 255,109.337 255,109.337 Z M248.334,109.337 C248.334,113.018 251.319,116.003 255,116.003 C258.682,116.003 261.667,113.018 261.667,109.337 C261.667,105.655 258.682,102.671 255,102.671 C251.319,102.671 248.334,105.655 248.334,109.337 Z" />
        </g>
        <g id="Regular-M" transform="translate(0,200)">
            <path d="M469.648,124.511 L467.981,121.178 C466.753,118.722 463.247,118.722 462.019,121.178 L460.352,124.511 C459.244,126.728 460.855,129.335 463.333,129.335 L466.667,129.335 C469.144,129.335 470.756,126.728 469.648,124.511 Z M463.685,127.493 L466.667,122.669 L463.333,122.669 L466.315,127.493 L467.981,124.16 L462.019,124.16 L463.685,127.493 Z" />
            <path d="M475,146 C476.768,146 478.463,145.298 479.714,144.048 C480.964,142.797 481.666,141.102 481.666,139.334 L481.666,136.001 L478.333,136.001 L478.335,139.334 C482.179,139.332 485.681,137.127 487.344,133.662 C489.007,130.197 488.537,126.086 486.135,123.086 L483.533,125.169 L485.849,127.565 C494.64,119.069 497.395,106.087 492.812,94.753 C488.229,83.419 477.226,76 465,76 C452.774,76 441.771,83.419 437.188,94.753 C432.605,106.087 435.36,119.069 444.151,127.565 L446.467,125.169 L443.865,123.086 C441.463,126.086 440.993,130.197 442.656,133.662 C444.319,137.127 447.821,139.332 451.665,139.334 L451.667,136.001 L448.334,136.001 L448.334,139.334 C448.334,141.102 449.036,142.797 450.286,144.048 C451.537,145.298 453.232,146 455,146 L475,146 Z M475,139.334 L455,139.334 C455,139.334 455,139.334 455,139.334 C455,139.334 455,139.334 455,139.334 L455,136.001 C455,134.161 453.509,132.669 451.669,132.668 C450.388,132.667 449.221,131.932 448.666,130.777 C448.112,129.622 448.268,128.252 449.069,127.252 C450.145,125.909 450.021,123.968 448.784,122.772 C441.947,116.164 439.804,106.067 443.368,97.252 C446.933,88.437 455.491,82.666 465,82.666 C474.509,82.666 483.067,88.437 486.632,97.252 C490.196,106.067 488.053,116.164 481.216,122.772 C479.979,123.968 479.855,125.909 480.931,127.252 C481.732,128.252 481.888,129.622 481.334,130.777 C480.779,131.932 479.612,132.667 478.331,132.668 C476.491,132.669 475,134.161 475,136.001 L475,139.334 C475,139.334 475,139.334 475,139.334 C475,139.334 475,139.334 475,139.334 Z" />
            <path d="M475,109.337 C475,109.337 475,109.337 475,109.337 C475,109.337 475,109.337 475,109.337 C475,109.337 475,109.337 475,109.337 C475,109.337 475,109.337 475,109.337 Z M468.333,109.337 C468.333,113.018 471.318,116.003 475,116.003 C478.681,116.003 481.666,113.018 481.666,109.337 C481.666,105.655 478.681,102.671 475,102.671 C471.318,102.671 468.333,105.655 468.333,109.337 Z" />
            <path d="M455,109.337 C455,109.337 455,109.337 455,109.337 C455,109.337 455,109.337 455,109.337 C455,109.337 455,109.337 455,109.337 C455,109.337 455,109.337 455,109.337 Z M448.334,109.337 C448.334,113.018 451.319,116.003 455,116.003 C458.682,116.003 461.667,113.018 461.667,109.337 C461.667,105.655 458.682,102.671 455,102.671 C451.319,102.671 448.334,105.655 448.334,109.337 Z" />
        </g>
        <g id="Black-M" transform="translate(0,200)">
            <path d="M669.648,124.511 L667.981,121.178 C666.753,118.722 663.247,118.722 662.019,121.178 L660.352,124.511 C659.244,126.728 660.856,129.335 663.333,129.335 L666.667,129.335 C669.144,129.335 670.756,126.728 669.648,124.511 Z M663.685,127.493 L666.667,122.669 L663.333,122.669 L666.315,127.493 L667.981,124.16 L662.019,124.16 L663.685,127.493 Z" />
            <path d="M675,146 C676.768,146 678.463,145.298 679.714,144.048 C680.964,142.797 681.666,141.102 681.666,139.334 L681.666,136.001 L678.333,136.001 L678.335,139.334 C682.179,139.332 685.681,137.127 687.344,133.662 C689.007,130.197 688.537,126.086 686.135,123.086 L683.533,125.169 L685.849,127.565 C694.64,119.069 697.395,106.087 692.812,94.753 C688.229,83.419 677.226,76 665,76 C652.774,76 641.771,83.419 637.188,94.753 C632.605,106.087 635.36,119.069 644.151,127.565 L646.467,125.169 L643.865,123.086 C641.463,126.086 640.993,130.197 642.656,133.662 C644.319,137.127 647.821,139.332 651.665,139.334 L651.667,136.001 L648.334,136.001 L648.334,139.334 C648.334,141.102 649.036,142.797 650.286,144.048 C651.537,145.298 653.232,146 655,146 L675,146 Z M675,139.334 L655,139.334 C655,139.334 655,139.334 655,139.334 C655,139.334 655,139.334 655,139.334 L655,136.001 C655,134.161 653.509,132.669 651.669,132.668 C650.388,132.667 649.221,131.932 648.666,130.777 C648.112,129.622 648.268,128.252 649.069,127.252 C650.145,125.909 650.021,123.968 648.784,122.772 C641.947,116.164 639.804,106.067 643.368,97.252 C646.933,88.437 655.491,82.666 665,82.666 C674.509,82.666 683.067,88.437 686.632,97.252 C690.196,106.067 688.053,116.164 681.216,122.772 C679.979,123.968 679.855,125.909 680.931,127.252 C681.732,128.252 681.888,129.622 681.334,130.777 C680.779,131.932 679.612,132.667 678.331,132.668 C676.491,132.669 675,134.161 675,136.001 L675,139.334 C675,139.334 675,139.334 675,139.334 C675,139.334 675,139.334 675,139.334 Z" />
            <path d="M675,109.337 C675,109.337 675,109.337 675,109.337 C675,109.337 675,109.337 675,109.337 C675,109.337 675,109.337 675,109.337 C675,109.337 675,109.337 675,109.337 Z M668.333,109.337 C668.333,113.018 671.318,116.003 675,116.003 C678.682,116.003 681.666,113.018 681.666,109.337 C681.666,105.655 678.682,102.671 675,102.671 C671.318,102.671 668.333,105.655 668.333,109.337 Z" />
            <path d="M655,109.337 C655,109.337 655,109.337 655,109.337 C655,109.337 655,109.337 655,109.337 C655,109.337 655,109.337 655,109.337 C655,109.337 655,109.337 655,109.337 Z M648.334,109.337 C648.334,113.018 651.318,116.003 655,116.003 C658.682,116.003 661.667,113.018 661.667,109.337 C661.667,105.655 658.682,102.671 655,102.671 C651.318,102.671 648.334,105.655 648.334,109.337 Z" />
        </g>
    </g>
</svg>