<?xml version="1.0" encoding="UTF-8"?>
<svg height="600" width="800" xmlns="http://www.w3.org/2000/svg" xmlns:xlink="http://www.w3.org/1999/xlink">
    <g id="Notes" font-family="LucidaGrande, 'Lucida Grande', sans-serif" font-size="13">
        <rect fill="white" height="600.0" width="800.0" x="0.0" y="0.0" />
        <g font-size="13">
            <text x="18.0" y="176.0">Small</text>
            <text x="18.0" y="376.0">Medium</text>
            <text x="18.0" y="576.0">Large</text>
        </g>
        <g font-size="9">
            <text x="250.0" y="30.0">Ultralight</text>
            <text x="450.0" y="30.0">Regular</text>
            <text x="650.0" y="30.0">Black</text>
            <text id="template-version" fill="#505050" text-anchor="end" x="785.0" y="575.0">Template v.3.0</text>
            <a href="https://github.com/swhitty/SwiftDraw">
                <text fill="#505050" text-anchor="end" x="785.0" y="590.0">https://github.com/swhitty/SwiftDraw</text>
            </a>
        </g>
    </g>
    <g id="Guides" stroke="rgb(39, 170, 225)" stroke-width="0.5">
        <path id="Capline-S" d="M18,76 l800,0" />
        <path id="H-reference" d="M85,145.755 L87.685,145.755 L113.369,79.287 L114.052,79.287 L114.052,76 L112.148,76 L85,145.755 Z M95.693,121.536 L130.996,121.536 L130.263,119.313 L96.474,119.313 L95.693,121.536 Z M139.15,145.755 L141.787,145.755 L114.638,76 L113.466,76 L113.466,79.287 L139.15,145.755 Z" stroke="none" transform="translate(0,200)" />
        <path id="Baseline-S" d="M18,146 l800,0" />
        <path id="left-margin-Ultralight-M" d="M228.25,256 l0,110" />
        <path id="right-margin-Ultralight-M" d="M301.75,256 l0,110" />
        <path id="left-margin-Regular-M" d="M428.25,256 l0,110" />
        <path id="right-margin-Regular-M" d="M501.75,256 l0,110" />
        <path id="left-margin-Black-M" d="M628.25,256 l0,110" />
        <path id="right-margin-Black-M" d="M701.75,256 l0,110" />
        <path id="Capline-M" d="M18,276 l800,0" />
        <path id="Baseline-M" d="M18,346 l800,0" />
        <path id="Capline-L" d="M18,476 l800,0" />
        <path id="Baseline-L" d="M18,546 l800,0" />
    </g>
    <g id="Symbols">
        <g id="Ultralight-M" transform="translate(0,200)">
            <path d="M287.75,107.5 L287.75,128.5 C287.75,130.433 289.317,132 291.25,132 C293.183,132 294.75,130.433 294.75,128.5 L294.75,107.5 C294.75,105.567 293.183,104 291.25,104 C289.317,104 287.75,105.567 287.75,107.5 Z" />
            <path d="M291.25,118 L298.25,118 C300.183,118 301.75,116.433 301.75,114.5 C301.75,112.567 300.183,111 298.25,111 L291.25,111 C289.317,111 287.75,112.567 287.75,114.5 C287.75,116.433 289.317,118 291.25,118 Z" />
            <path d="M235.25,142.5 L235.25,135.5 C235.25,132.715 236.356,130.045 238.325,128.075 C240.295,126.106 242.965,125 245.75,125 L266.75,125 C268.668,125 270.549,125.524 272.19,126.517 C273.843,127.518 275.995,126.989 276.996,125.335 C277.997,123.682 277.468,121.53 275.814,120.529 C273.08,118.874 269.945,117.999 266.749,118 L245.75,118 C241.109,118 236.658,119.844 233.376,123.126 C230.094,126.408 228.25,130.859 228.25,135.5 L228.25,142.5 C228.25,144.433 229.817,146 231.75,146 C233.683,146 235.25,144.433 235.25,142.5 Z" />
            <path d="M245.75,93.5 C245.75,87.701 250.451,83 256.25,83 C262.049,83 266.75,87.701 266.75,93.5 C266.75,99.299 262.049,104 256.25,104 C250.451,104 245.75,99.299 245.75,93.5 Z M238.75,93.5 C238.75,103.165 246.585,111 256.25,111 C265.915,111 273.75,103.165 273.75,93.5 C273.75,83.835 265.915,76 256.25,76 C246.585,76 238.75,83.835 238.75,93.5 Z" />
            <path d="M287.75,135.5 C287.75,133.567 289.317,132 291.25,132 C293.183,132 294.75,133.567 294.75,135.5 C294.75,137.433 293.183,139 291.25,139 C289.317,139 287.75,137.433 287.75,135.5 Z M280.75,135.5 C280.75,141.299 285.451,146 291.25,146 C297.049,146 301.75,141.299 301.75,135.5 C301.75,129.701 297.049,125 291.25,125 C285.451,125 280.75,129.701 280.75,135.5 Z" />
        </g>
        <g id="Regular-M" transform="translate(0,200)">
            <path d="M487.75,107.5 L487.75,128.5 C487.75,130.433 489.317,132 491.25,132 C493.183,132 494.75,130.433 494.75,128.5 L494.75,107.5 C494.75,105.567 493.183,104 491.25,104 C489.317,104 487.75,105.567 487.75,107.5 Z" />
            <path d="M491.25,118 L498.25,118 C500.183,118 501.75,116.433 501.75,114.5 C501.75,112.567 500.183,111 498.25,111 L491.25,111 C489.317,111 487.75,112.567 487.75,114.5 C487.75,116.433 489.317,118 491.25,118 Z" />
            <path d="M435.25,142.5 L435.25,135.5 C435.25,132.715 436.356,130.045 438.325,128.075 C440.295,126.106 442.965,125 445.75,125 L466.75,125 C468.668,125 470.549,125.524 472.19,126.517 C473.843,127.518 475.995,126.989 476.996,125.335 C477.997,123.682 477.468,121.53 475.814,120.529 C473.08,118.874 469.945,117.999 466.749,118 L445.75,118 C441.109,118 436.658,119.844 433.376,123.126 C430.094,126.408 428.25,130.859 428.25,135.5 L428.25,142.5 C428.25,144.433 429.817,146 431.75,146 C433.683,146 435.25,144.433 435.25,142.5 Z" />
            <path d="M445.75,93.5 C445.75,87.701 450.451,83 456.25,83 C462.049,83 466.75,87.701 466.75,93.5 C466.75,99.299 462.049,104 456.25,104 C450.451,104 445.75,99.299 445.75,93.5 Z M438.75,93.5 C438.75,103.165 446.585,111 456.25,111 C465.915,111 473.75,103.165 473.75,93.5 C473.75,83.835 465.915,76 456.25,76 C446.585,76 438.75,83.835 438.75,93.5 Z" />
            <path d="M487.75,135.5 C487.75,133.567 489.317,132 491.25,132 C493.183,132 494.75,133.567 494.75,135.5 C494.75,137.433 493.183,139 491.25,139 C489.317,139 487.75,137.433 487.75,135.5 Z M480.75,135.5 C480.75,141.299 485.451,146 491.25,146 C497.049,146 501.75,141.299 501.75,135.5 C501.75,129.701 497.049,125 491.25,125 C485.451,125 480.75,129.701 480.75,135.5 Z" />
        </g>
        <g id="Black-M" transform="translate(0,200)">
            <path d="M687.75,107.5 L687.75,128.5 C687.75,130.433 689.317,132 691.25,132 C693.183,132 694.75,130.433 694.75,128.5 L694.75,107.5 C694.75,105.567 693.183,104 691.25,104 C689.317,104 687.75,105.567 687.75,107.5 Z" />
            <path d="M691.25,118 L698.25,118 C700.183,118 701.75,116.433 701.75,114.5 C701.75,112.567 700.183,111 698.25,111 L691.25,111 C689.317,111 687.75,112.567 687.75,114.5 C687.75,116.433 689.317,118 691.25,118 Z" />
            <path d="M635.25,142.5 L635.25,135.5 C635.25,132.715 636.356,130.045 638.325,128.075 C640.294,126.106 642.965,125 645.75,125 L666.75,125 C668.668,125 670.549,125.524 672.19,126.517 C673.843,127.518 675.995,126.989 676.996,125.335 C677.997,123.682 677.468,121.53 675.814,120.529 C673.08,118.874 669.945,117.999 666.749,118 L645.75,118 C641.109,118 636.658,119.844 633.376,123.126 C630.094,126.408 628.25,130.859 628.25,135.5 L628.25,142.5 C628.25,144.433 629.817,146 631.75,146 C633.683,146 635.25,144.433 635.25,142.5 Z" />
            <path d="M645.75,93.5 C645.75,87.701 650.451,83 656.25,83 C662.049,83 666.75,87.701 666.75,93.5 C666.75,99.299 662.049,104 656.25,104 C650.451,104 645.75,99.299 645.75,93.5 Z M638.75,93.5 C638.75,103.165 646.585,111 656.25,111 C665.915,111 673.75,103.165 673.75,93.5 C673.75,83.835 665.915,76 656.25,76 C646.585,76 638.75,83.835 638.75,93.5 Z" />
            <path d="M687.75,135.5 C687.75,133.567 689.317,132 691.25,132 C693.183,132 694.75,133.567 694.75,135.5 C694.75,137.433 693.183,139 691.25,139 C689.317,139 687.75,137.433 687.75,135.5 Z M680.75,135.5 C680.75,141.299 685.451,146 691.25,146 C697.049,146 701.75,141.299 701.75,135.5 C701.75,129.701 697.049,125 691.25,125 C685.451,125 680.75,129.701 680.75,135.5 Z" />
        </g>
    </g>
</svg>