<?xml version="1.0" encoding="UTF-8"?>
<svg height="600" width="800" xmlns="http://www.w3.org/2000/svg" xmlns:xlink="http://www.w3.org/1999/xlink">
    <g id="Notes" font-family="LucidaGrande, 'Lucida Grande', sans-serif" font-size="13">
        <rect fill="white" height="600.0" width="800.0" x="0.0" y="0.0" />
        <g font-size="13">
            <text x="18.0" y="176.0">Small</text>
            <text x="18.0" y="376.0">Medium</text>
            <text x="18.0" y="576.0">Large</text>
        </g>
        <g font-size="9">
            <text x="250.0" y="30.0">Ultralight</text>
            <text x="450.0" y="30.0">Regular</text>
            <text x="650.0" y="30.0">Black</text>
            <text id="template-version" fill="#505050" text-anchor="end" x="785.0" y="575.0">Template v.3.0</text>
            <a href="https://github.com/swhitty/SwiftDraw">
                <text fill="#505050" text-anchor="end" x="785.0" y="590.0">https://github.com/swhitty/SwiftDraw</text>
            </a>
        </g>
    </g>
    <g id="Guides" stroke="rgb(39, 170, 225)" stroke-width="0.5">
        <path id="Capline-S" d="M18,76 l800,0" />
        <path id="H-reference" d="M85,145.755 L87.685,145.755 L113.369,79.287 L114.052,79.287 L114.052,76 L112.148,76 L85,145.755 Z M95.693,121.536 L130.996,121.536 L130.263,119.313 L96.474,119.313 L95.693,121.536 Z M139.15,145.755 L141.787,145.755 L114.638,76 L113.466,76 L113.466,79.287 L139.15,145.755 Z" stroke="none" transform="translate(0,200)" />
        <path id="Baseline-S" d="M18,146 l800,0" />
        <path id="left-margin-Ultralight-M" d="M230,256 l0,110" />
        <path id="right-margin-Ultralight-M" d="M300,256 l0,110" />
        <path id="left-margin-Regular-M" d="M430,256 l0,110" />
        <path id="right-margin-Regular-M" d="M500,256 l0,110" />
        <path id="left-margin-Black-M" d="M630,256 l0,110" />
        <path id="right-margin-Black-M" d="M700,256 l0,110" />
        <path id="Capline-M" d="M18,276 l800,0" />
        <path id="Baseline-M" d="M18,346 l800,0" />
        <path id="Capline-L" d="M18,476 l800,0" />
        <path id="Baseline-L" d="M18,546 l800,0" />
    </g>
    <g id="Symbols">
        <g id="Ultralight-M" transform="translate(0,200)">
            <path d="M258,93.5 L286,93.5 C287.933,93.5 289.5,91.933 289.5,90 C289.5,88.067 287.933,86.5 286,86.5 L258,86.5 C256.067,86.5 254.5,88.067 254.5,90 C254.5,91.933 256.067,93.5 258,93.5 Z" />
            <path d="M265,128.5 L286,128.5 C287.933,128.5 289.5,126.933 289.5,125 C289.5,123.067 287.933,121.5 286,121.5 L265,121.5 C263.067,121.5 261.5,123.067 261.5,125 C261.5,126.933 263.067,128.5 265,128.5 Z" />
            <path d="M230,79.5 L230,135.5 C230,138.285 231.106,140.955 233.075,142.925 C235.045,144.894 237.715,146 240.5,146 L296.5,146 C298.433,146 300,144.433 300,142.5 C300,140.567 298.433,139 296.5,139 L240.5,139 C239.572,139 238.682,138.631 238.025,137.975 C237.369,137.318 237,136.428 237,135.5 L237,79.5 C237,77.567 235.433,76 233.5,76 C231.567,76 230,77.567 230,79.5 Z" />
            <path d="M251,111 L275.5,111 C277.433,111 279,109.433 279,107.5 C279,105.567 277.433,104 275.5,104 L251,104 C249.067,104 247.5,105.567 247.5,107.5 C247.5,109.433 249.067,111 251,111 Z" />
        </g>
        <g id="Regular-M" transform="translate(0,200)">
            <path d="M458,93.5 L486,93.5 C487.933,93.5 489.5,91.933 489.5,90 C489.5,88.067 487.933,86.5 486,86.5 L458,86.5 C456.067,86.5 454.5,88.067 454.5,90 C454.5,91.933 456.067,93.5 458,93.5 Z" />
            <path d="M465,128.5 L486,128.5 C487.933,128.5 489.5,126.933 489.5,125 C489.5,123.067 487.933,121.5 486,121.5 L465,121.5 C463.067,121.5 461.5,123.067 461.5,125 C461.5,126.933 463.067,128.5 465,128.5 Z" />
            <path d="M430,79.5 L430,135.5 C430,138.285 431.106,140.955 433.075,142.925 C435.044,144.894 437.715,146 440.5,146 L496.5,146 C498.433,146 500,144.433 500,142.5 C500,140.567 498.433,139 496.5,139 L440.5,139 C439.572,139 438.682,138.631 438.025,137.975 C437.369,137.318 437,136.428 437,135.5 L437,79.5 C437,77.567 435.433,76 433.5,76 C431.567,76 430,77.567 430,79.5 Z" />
            <path d="M451,111 L475.5,111 C477.433,111 479,109.433 479,107.5 C479,105.567 477.433,104 475.5,104 L451,104 C449.067,104 447.5,105.567 447.5,107.5 C447.5,109.433 449.067,111 451,111 Z" />
        </g>
        <g id="Black-M" transform="translate(0,200)">
            <path d="M658,93.5 L686,93.5 C687.933,93.5 689.5,91.933 689.5,90 C689.5,88.067 687.933,86.5 686,86.5 L658,86.5 C656.067,86.5 654.5,88.067 654.5,90 C654.5,91.933 656.067,93.5 658,93.5 Z" />
            <path d="M665,128.5 L686,128.5 C687.933,128.5 689.5,126.933 689.5,125 C689.5,123.067 687.933,121.5 686,121.5 L665,121.5 C663.067,121.5 661.5,123.067 661.5,125 C661.5,126.933 663.067,128.5 665,128.5 Z" />
            <path d="M630,79.5 L630,135.5 C630,138.285 631.106,140.955 633.075,142.925 C635.044,144.894 637.715,146 640.5,146 L696.5,146 C698.433,146 700,144.433 700,142.5 C700,140.567 698.433,139 696.5,139 L640.5,139 C639.572,139 638.682,138.631 638.025,137.975 C637.369,137.318 637,136.428 637,135.5 L637,79.5 C637,77.567 635.433,76 633.5,76 C631.567,76 630,77.567 630,79.5 Z" />
            <path d="M651,111 L675.5,111 C677.433,111 679,109.433 679,107.5 C679,105.567 677.433,104 675.5,104 L651,104 C649.067,104 647.5,105.567 647.5,107.5 C647.5,109.433 649.067,111 651,111 Z" />
        </g>
    </g>
</svg>