<?xml version="1.0" encoding="UTF-8"?>
<svg height="600" width="800" xmlns="http://www.w3.org/2000/svg" xmlns:xlink="http://www.w3.org/1999/xlink">
    <g id="Notes" font-family="LucidaGrande, 'Lucida Grande', sans-serif" font-size="13">
        <rect fill="white" height="600.0" width="800.0" x="0.0" y="0.0" />
        <g font-size="13">
            <text x="18.0" y="176.0">Small</text>
            <text x="18.0" y="376.0">Medium</text>
            <text x="18.0" y="576.0">Large</text>
        </g>
        <g font-size="9">
            <text x="250.0" y="30.0">Ultralight</text>
            <text x="450.0" y="30.0">Regular</text>
            <text x="650.0" y="30.0">Black</text>
            <text id="template-version" fill="#505050" text-anchor="end" x="785.0" y="575.0">Template v.3.0</text>
            <a href="https://github.com/swhitty/SwiftDraw">
                <text fill="#505050" text-anchor="end" x="785.0" y="590.0">https://github.com/swhitty/SwiftDraw</text>
            </a>
        </g>
    </g>
    <g id="Guides" stroke="rgb(39, 170, 225)" stroke-width="0.5">
        <path id="Capline-S" d="M18,76 l800,0" />
        <path id="H-reference" d="M85,145.755 L87.685,145.755 L113.369,79.287 L114.052,79.287 L114.052,76 L112.148,76 L85,145.755 Z M95.693,121.536 L130.996,121.536 L130.263,119.313 L96.474,119.313 L95.693,121.536 Z M139.15,145.755 L141.787,145.755 L114.638,76 L113.466,76 L113.466,79.287 L139.15,145.755 Z" stroke="none" transform="translate(0,200)" />
        <path id="Baseline-S" d="M18,146 l800,0" />
        <path id="left-margin-Ultralight-M" d="M231.591,256 l0,110" />
        <path id="right-margin-Ultralight-M" d="M298.409,256 l0,110" />
        <path id="left-margin-Regular-M" d="M431.591,256 l0,110" />
        <path id="right-margin-Regular-M" d="M498.409,256 l0,110" />
        <path id="left-margin-Black-M" d="M631.591,256 l0,110" />
        <path id="right-margin-Black-M" d="M698.409,256 l0,110" />
        <path id="Capline-M" d="M18,276 l800,0" />
        <path id="Baseline-M" d="M18,346 l800,0" />
        <path id="Capline-L" d="M18,476 l800,0" />
        <path id="Baseline-L" d="M18,546 l800,0" />
    </g>
    <g id="Symbols">
        <g id="Ultralight-M" transform="translate(0,200)">
            <path d="M271.468,90.777 L268.407,103.886 C267.94,105.889 269.399,107.818 271.382,107.818 L289.227,107.818 C290.19,107.818 291.097,108.29 291.675,109.091 C292.253,109.892 292.435,110.929 292.165,111.891 L285.033,137.347 C284.652,138.703 283.455,139.636 282.095,139.636 L240.773,139.636 C239.962,139.636 239.183,139.301 238.609,138.704 C238.035,138.108 237.713,137.298 237.713,136.455 L237.713,111 C237.713,110.156 238.035,109.347 238.609,108.75 C239.183,108.153 239.962,107.818 240.773,107.818 L249.221,107.818 C252.707,107.816 255.891,105.764 257.441,102.52 L267.997,80.606 L265.26,79.182 L265.222,82.363 C267.212,82.389 269.082,83.358 270.299,84.995 C271.517,86.631 271.948,88.756 271.471,90.765 Z M277.414,92.29 C278.339,88.396 277.502,84.275 275.142,81.102 C272.782,77.929 269.156,76.05 265.298,76 C264.126,75.985 263.048,76.667 262.523,77.757 L251.963,99.68 C251.442,100.77 250.381,101.454 249.22,101.455 L240.773,101.455 C238.338,101.455 236.002,102.46 234.28,104.25 C232.558,106.04 231.591,108.468 231.591,111 L231.591,136.455 C231.591,138.986 232.558,141.414 234.28,143.204 C236.002,144.994 238.338,146 240.773,146 L282.095,146 C286.176,146 289.767,143.2 290.91,139.127 L298.042,113.672 C298.851,110.788 298.307,107.676 296.573,105.273 C294.838,102.869 292.117,101.455 289.227,101.455 L271.382,101.455 L274.356,105.387 L277.417,92.278 Z" />
            <path d="M246.895,104.636 L246.895,142.818 C246.895,144.575 248.266,146 249.956,146 C251.646,146 253.017,144.575 253.017,142.818 L253.017,104.636 C253.017,102.879 251.646,101.455 249.956,101.455 C248.266,101.455 246.895,102.879 246.895,104.636 Z" />
        </g>
        <g id="Regular-M" transform="translate(0,200)">
            <path d="M471.468,90.777 L468.407,103.886 C467.94,105.889 469.399,107.818 471.382,107.818 L489.227,107.818 C490.19,107.818 491.097,108.29 491.675,109.091 C492.253,109.892 492.435,110.929 492.165,111.891 L485.033,137.347 C484.652,138.703 483.455,139.636 482.095,139.636 L440.773,139.636 C439.962,139.636 439.183,139.301 438.609,138.704 C438.035,138.108 437.713,137.298 437.713,136.455 L437.713,111 C437.713,110.156 438.035,109.347 438.609,108.75 C439.183,108.153 439.962,107.818 440.773,107.818 L449.221,107.818 C452.707,107.816 455.891,105.764 457.441,102.52 L467.997,80.606 L465.26,79.182 L465.222,82.363 C467.212,82.389 469.082,83.358 470.299,84.995 C471.517,86.631 471.948,88.756 471.471,90.765 Z M477.414,92.29 C478.339,88.396 477.502,84.275 475.142,81.102 C472.782,77.929 469.156,76.05 465.298,76 C464.126,75.985 463.048,76.667 462.523,77.757 L451.963,99.68 C451.442,100.77 450.381,101.454 449.22,101.455 L440.773,101.455 C438.338,101.455 436.002,102.46 434.28,104.25 C432.558,106.04 431.591,108.468 431.591,111 L431.591,136.455 C431.591,138.986 432.558,141.414 434.28,143.204 C436.002,144.994 438.338,146 440.773,146 L482.095,146 C486.176,146 489.767,143.2 490.91,139.127 L498.042,113.672 C498.851,110.788 498.307,107.676 496.573,105.273 C494.838,102.869 492.117,101.455 489.227,101.455 L471.382,101.455 L474.356,105.387 L477.417,92.278 Z" />
            <path d="M446.895,104.636 L446.895,142.818 C446.895,144.575 448.266,146 449.956,146 C451.646,146 453.017,144.575 453.017,142.818 L453.017,104.636 C453.017,102.879 451.646,101.455 449.956,101.455 C448.266,101.455 446.895,102.879 446.895,104.636 Z" />
        </g>
        <g id="Black-M" transform="translate(0,200)">
            <path d="M671.468,90.777 L668.407,103.886 C667.94,105.889 669.399,107.818 671.382,107.818 L689.227,107.818 C690.19,107.818 691.097,108.29 691.675,109.091 C692.253,109.892 692.435,110.929 692.165,111.891 L685.033,137.347 C684.652,138.703 683.455,139.636 682.095,139.636 L640.773,139.636 C639.962,139.636 639.183,139.301 638.609,138.704 C638.035,138.108 637.713,137.298 637.713,136.455 L637.713,111 C637.713,110.156 638.035,109.347 638.609,108.75 C639.183,108.153 639.962,107.818 640.773,107.818 L649.221,107.818 C652.707,107.816 655.891,105.764 657.441,102.52 L667.997,80.606 L665.26,79.182 L665.222,82.363 C667.212,82.389 669.082,83.358 670.299,84.995 C671.516,86.631 671.948,88.756 671.471,90.765 Z M677.414,92.29 C678.339,88.396 677.502,84.275 675.142,81.102 C672.782,77.929 669.156,76.05 665.298,76 C664.126,75.985 663.048,76.667 662.523,77.757 L651.963,99.68 C651.442,100.77 650.381,101.454 649.22,101.455 L640.773,101.455 C638.338,101.455 636.002,102.46 634.28,104.25 C632.558,106.04 631.591,108.468 631.591,111 L631.591,136.455 C631.591,138.986 632.558,141.414 634.28,143.204 C636.002,144.994 638.338,146 640.773,146 L682.095,146 C686.176,146 689.767,143.2 690.91,139.127 L698.042,113.672 C698.851,110.788 698.307,107.676 696.573,105.273 C694.838,102.869 692.117,101.455 689.227,101.455 L671.382,101.455 L674.356,105.387 L677.417,92.278 Z" />
            <path d="M646.895,104.636 L646.895,142.818 C646.895,144.575 648.265,146 649.956,146 C651.646,146 653.017,144.575 653.017,142.818 L653.017,104.636 C653.017,102.879 651.646,101.455 649.956,101.455 C648.265,101.455 646.895,102.879 646.895,104.636 Z" />
        </g>
    </g>
</svg>