<?xml version="1.0" encoding="UTF-8"?>
<svg height="600" width="800" xmlns="http://www.w3.org/2000/svg" xmlns:xlink="http://www.w3.org/1999/xlink">
    <g id="Notes" font-family="LucidaGrande, 'Lucida Grande', sans-serif" font-size="13">
        <rect fill="white" height="600.0" width="800.0" x="0.0" y="0.0" />
        <g font-size="13">
            <text x="18.0" y="176.0">Small</text>
            <text x="18.0" y="376.0">Medium</text>
            <text x="18.0" y="576.0">Large</text>
        </g>
        <g font-size="9">
            <text x="250.0" y="30.0">Ultralight</text>
            <text x="450.0" y="30.0">Regular</text>
            <text x="650.0" y="30.0">Black</text>
            <text id="template-version" fill="#505050" text-anchor="end" x="785.0" y="575.0">Template v.3.0</text>
            <a href="https://github.com/swhitty/SwiftDraw">
                <text fill="#505050" text-anchor="end" x="785.0" y="590.0">https://github.com/swhitty/SwiftDraw</text>
            </a>
        </g>
    </g>
    <g id="Guides" stroke="rgb(39, 170, 225)" stroke-width="0.5">
        <path id="Capline-S" d="M18,76 l800,0" />
        <path id="H-reference" d="M85,145.755 L87.685,145.755 L113.369,79.287 L114.052,79.287 L114.052,76 L112.148,76 L85,145.755 Z M95.693,121.536 L130.996,121.536 L130.263,119.313 L96.474,119.313 L95.693,121.536 Z M139.15,145.755 L141.787,145.755 L114.638,76 L113.466,76 L113.466,79.287 L139.15,145.755 Z" stroke="none" transform="translate(0,200)" />
        <path id="Baseline-S" d="M18,146 l800,0" />
        <path id="left-margin-Ultralight-M" d="M221,256 l0,110" />
        <path id="right-margin-Ultralight-M" d="M309,256 l0,110" />
        <path id="left-margin-Regular-M" d="M421,256 l0,110" />
        <path id="right-margin-Regular-M" d="M509,256 l0,110" />
        <path id="left-margin-Black-M" d="M621,256 l0,110" />
        <path id="right-margin-Black-M" d="M709,256 l0,110" />
        <path id="Capline-M" d="M18,276 l800,0" />
        <path id="Baseline-M" d="M18,346 l800,0" />
        <path id="Capline-L" d="M18,476 l800,0" />
        <path id="Baseline-L" d="M18,546 l800,0" />
    </g>
    <g id="Symbols">
        <g id="Ultralight-M" transform="translate(0,200)">
            <path d="M227.828,101.828 L239.828,89.828 L234.172,89.828 L246.172,101.828 C247.734,103.391 250.266,103.391 251.828,101.828 C253.391,100.266 253.391,97.734 251.828,96.172 L239.828,84.172 C238.266,82.609 235.734,82.609 234.172,84.172 L222.172,96.172 C220.609,97.734 220.609,100.266 222.172,101.828 C223.734,103.391 226.266,103.391 227.828,101.828 Z" />
            <path d="M269,131 L245,131 C243.939,131 242.922,130.579 242.172,129.828 C241.421,129.078 241,128.061 241,127 L241,87 C241,84.791 239.209,83 237,83 C234.791,83 233,84.791 233,87 L233,127 C233,130.183 234.264,133.235 236.515,135.485 C238.765,137.736 241.817,139 245,139 L269,139 C271.209,139 273,137.209 273,135 C273,132.791 271.209,131 269,131 Z" />
            <path d="M302.172,120.172 L290.172,132.172 L295.828,132.172 L283.828,120.172 C282.266,118.609 279.734,118.609 278.172,120.172 C276.609,121.734 276.609,124.266 278.172,125.828 L290.172,137.828 C291.734,139.391 294.266,139.391 295.828,137.828 L307.828,125.828 C309.391,124.266 309.391,121.734 307.828,120.172 C306.266,118.609 303.734,118.609 302.172,120.172 Z" />
            <path d="M261,91 L285,91 C286.061,91 287.078,91.421 287.828,92.172 C288.579,92.922 289,93.939 289,95 L289,135 C289,137.209 290.791,139 293,139 C295.209,139 297,137.209 297,135 L297,95 C297,91.817 295.736,88.765 293.485,86.515 C291.235,84.264 288.183,83 285,83 L261,83 C258.791,83 257,84.791 257,87 C257,89.209 258.791,91 261,91 Z" />
        </g>
        <g id="Regular-M" transform="translate(0,200)">
            <path d="M427.828,101.828 L439.828,89.828 L434.172,89.828 L446.172,101.828 C447.734,103.391 450.266,103.391 451.828,101.828 C453.391,100.266 453.391,97.734 451.828,96.172 L439.828,84.172 C438.266,82.609 435.734,82.609 434.172,84.172 L422.172,96.172 C420.609,97.734 420.609,100.266 422.172,101.828 C423.734,103.391 426.266,103.391 427.828,101.828 Z" />
            <path d="M469,131 L445,131 C443.939,131 442.922,130.579 442.172,129.828 C441.421,129.078 441,128.061 441,127 L441,87 C441,84.791 439.209,83 437,83 C434.791,83 433,84.791 433,87 L433,127 C433,130.183 434.264,133.235 436.515,135.485 C438.765,137.736 441.817,139 445,139 L469,139 C471.209,139 473,137.209 473,135 C473,132.791 471.209,131 469,131 Z" />
            <path d="M502.172,120.172 L490.172,132.172 L495.828,132.172 L483.828,120.172 C482.266,118.609 479.734,118.609 478.172,120.172 C476.609,121.734 476.609,124.266 478.172,125.828 L490.172,137.828 C491.734,139.391 494.266,139.391 495.828,137.828 L507.828,125.828 C509.391,124.266 509.391,121.734 507.828,120.172 C506.266,118.609 503.734,118.609 502.172,120.172 Z" />
            <path d="M461,91 L485,91 C486.061,91 487.078,91.421 487.828,92.172 C488.579,92.922 489,93.939 489,95 L489,135 C489,137.209 490.791,139 493,139 C495.209,139 497,137.209 497,135 L497,95 C497,91.817 495.736,88.765 493.485,86.515 C491.235,84.264 488.183,83 485,83 L461,83 C458.791,83 457,84.791 457,87 C457,89.209 458.791,91 461,91 Z" />
        </g>
        <g id="Black-M" transform="translate(0,200)">
            <path d="M627.828,101.828 L639.828,89.828 L634.172,89.828 L646.172,101.828 C647.734,103.391 650.266,103.391 651.828,101.828 C653.391,100.266 653.391,97.734 651.828,96.172 L639.828,84.172 C638.266,82.609 635.734,82.609 634.172,84.172 L622.172,96.172 C620.609,97.734 620.609,100.266 622.172,101.828 C623.734,103.391 626.266,103.391 627.828,101.828 Z" />
            <path d="M669,131 L645,131 C643.939,131 642.922,130.579 642.172,129.828 C641.421,129.078 641,128.061 641,127 L641,87 C641,84.791 639.209,83 637,83 C634.791,83 633,84.791 633,87 L633,127 C633,130.183 634.264,133.235 636.515,135.485 C638.765,137.736 641.817,139 645,139 L669,139 C671.209,139 673,137.209 673,135 C673,132.791 671.209,131 669,131 Z" />
            <path d="M702.172,120.172 L690.172,132.172 L695.828,132.172 L683.828,120.172 C682.266,118.609 679.734,118.609 678.172,120.172 C676.609,121.734 676.609,124.266 678.172,125.828 L690.172,137.828 C691.734,139.391 694.266,139.391 695.828,137.828 L707.828,125.828 C709.391,124.266 709.391,121.734 707.828,120.172 C706.266,118.609 703.734,118.609 702.172,120.172 Z" />
            <path d="M661,91 L685,91 C686.061,91 687.078,91.421 687.828,92.172 C688.579,92.922 689,93.939 689,95 L689,135 C689,137.209 690.791,139 693,139 C695.209,139 697,137.209 697,135 L697,95 C697,91.817 695.736,88.765 693.485,86.515 C691.235,84.264 688.183,83 685,83 L661,83 C658.791,83 657,84.791 657,87 C657,89.209 658.791,91 661,91 Z" />
        </g>
    </g>
</svg>