<?xml version="1.0" encoding="UTF-8"?>
<svg height="600" width="800" xmlns="http://www.w3.org/2000/svg" xmlns:xlink="http://www.w3.org/1999/xlink">
    <g id="Notes" font-family="LucidaGrande, 'Lucida Grande', sans-serif" font-size="13">
        <rect fill="white" height="600.0" width="800.0" x="0.0" y="0.0" />
        <g font-size="13">
            <text x="18.0" y="176.0">Small</text>
            <text x="18.0" y="376.0">Medium</text>
            <text x="18.0" y="576.0">Large</text>
        </g>
        <g font-size="9">
            <text x="250.0" y="30.0">Ultralight</text>
            <text x="450.0" y="30.0">Regular</text>
            <text x="650.0" y="30.0">Black</text>
            <text id="template-version" fill="#505050" text-anchor="end" x="785.0" y="575.0">Template v.3.0</text>
            <a href="https://github.com/swhitty/SwiftDraw">
                <text fill="#505050" text-anchor="end" x="785.0" y="590.0">https://github.com/swhitty/SwiftDraw</text>
            </a>
        </g>
    </g>
    <g id="Guides" stroke="rgb(39, 170, 225)" stroke-width="0.5">
        <path id="Capline-S" d="M18,76 l800,0" />
        <path id="H-reference" d="M85,145.755 L87.685,145.755 L113.369,79.287 L114.052,79.287 L114.052,76 L112.148,76 L85,145.755 Z M95.693,121.536 L130.996,121.536 L130.263,119.313 L96.474,119.313 L95.693,121.536 Z M139.15,145.755 L141.787,145.755 L114.638,76 L113.466,76 L113.466,79.287 L139.15,145.755 Z" stroke="none" transform="translate(0,200)" />
        <path id="Baseline-S" d="M18,146 l800,0" />
        <path id="left-margin-Ultralight-M" d="M222.222,256 l0,110" />
        <path id="right-margin-Ultralight-M" d="M307.778,256 l0,110" />
        <path id="left-margin-Regular-M" d="M422.222,256 l0,110" />
        <path id="right-margin-Regular-M" d="M507.778,256 l0,110" />
        <path id="left-margin-Black-M" d="M622.222,256 l0,110" />
        <path id="right-margin-Black-M" d="M707.778,256 l0,110" />
        <path id="Capline-M" d="M18,276 l800,0" />
        <path id="Baseline-M" d="M18,346 l800,0" />
        <path id="Capline-L" d="M18,476 l800,0" />
        <path id="Baseline-L" d="M18,546 l800,0" />
    </g>
    <g id="Symbols">
        <g id="Ultralight-M" transform="translate(0,200)">
            <path d="M228.704,96.505 C249.371,78.991 280.629,78.991 301.296,96.505 C302.897,97.862 305.355,97.732 306.787,96.215 C308.219,94.698 308.082,92.369 306.481,91.012 C282.861,70.996 247.138,70.996 223.519,91.012 C221.918,92.369 221.781,94.698 223.213,96.215 C224.644,97.732 227.103,97.862 228.704,96.505 Z" />
            <path d="M304.219,125.127 C307.289,122.218 308.487,117.979 307.363,114.006 C306.239,110.033 302.964,106.931 298.77,105.867 C294.577,104.803 290.103,105.941 287.035,108.85 L271.44,123.633 C270.055,124.944 269.04,126.568 268.49,128.351 L265.235,138.927 C264.639,140.865 265.204,142.956 266.71,144.383 C268.216,145.81 270.423,146.346 272.468,145.781 L283.629,142.697 C285.513,142.176 287.226,141.214 288.612,139.9 L304.218,125.128 Z M298.721,119.915 L283.113,134.688 C282.649,135.128 282.078,135.449 281.45,135.622 L270.291,138.706 C270.972,138.518 271.708,138.696 272.21,139.172 C272.712,139.648 272.9,140.345 272.702,140.991 L275.957,130.416 C276.139,129.822 276.478,129.281 276.94,128.844 L292.536,114.059 C293.64,113.012 295.25,112.603 296.759,112.986 C298.268,113.368 299.447,114.485 299.851,115.914 C300.255,117.344 299.824,118.869 298.72,119.916 Z" />
            <path d="M240.499,111.274 C250.202,102.269 264.527,99.397 277.248,103.905 C279.26,104.618 281.501,103.651 282.253,101.745 C283.006,99.839 281.985,97.716 279.973,97.003 C264.425,91.493 246.916,95.004 235.057,106.009 C233.522,107.433 233.497,109.765 234.999,111.219 C236.502,112.673 238.964,112.698 240.499,111.274 Z" />
            <path d="M254.112,124.425 C256.636,122.079 259.928,120.617 263.446,120.281 C265.583,120.076 267.14,118.27 266.924,116.245 C266.709,114.22 264.802,112.744 262.665,112.949 C257.388,113.453 252.45,115.646 248.665,119.165 C247.132,120.591 247.109,122.924 248.613,124.376 C250.117,125.829 252.58,125.851 254.112,124.425 Z" />
        </g>
        <g id="Regular-M" transform="translate(0,200)">
            <path d="M428.704,96.505 C449.371,78.991 480.629,78.991 501.296,96.505 C502.897,97.862 505.355,97.732 506.787,96.215 C508.219,94.698 508.082,92.369 506.481,91.012 C482.861,70.996 447.138,70.996 423.519,91.012 C421.918,92.369 421.781,94.698 423.212,96.215 C424.644,97.732 427.103,97.862 428.704,96.505 Z" />
            <path d="M504.219,125.127 C507.289,122.218 508.487,117.979 507.363,114.006 C506.239,110.033 502.964,106.931 498.77,105.867 C494.577,104.803 490.103,105.941 487.035,108.85 L471.44,123.633 C470.055,124.944 469.04,126.568 468.49,128.351 L465.235,138.927 C464.639,140.865 465.204,142.956 466.71,144.383 C468.216,145.81 470.423,146.346 472.468,145.781 L483.629,142.697 C485.513,142.176 487.226,141.214 488.612,139.9 L504.218,125.128 Z M498.721,119.915 L483.113,134.688 C482.649,135.128 482.078,135.449 481.45,135.622 L470.291,138.706 C470.972,138.518 471.708,138.696 472.21,139.172 C472.712,139.648 472.9,140.345 472.702,140.991 L475.957,130.416 C476.139,129.822 476.478,129.281 476.94,128.844 L492.536,114.059 C493.64,113.012 495.25,112.603 496.759,112.986 C498.268,113.368 499.447,114.485 499.851,115.914 C500.255,117.344 499.824,118.869 498.72,119.916 Z" />
            <path d="M440.499,111.274 C450.202,102.269 464.527,99.397 477.248,103.905 C479.26,104.618 481.501,103.651 482.253,101.745 C483.006,99.839 481.985,97.716 479.973,97.003 C464.425,91.493 446.916,95.004 435.057,106.009 C433.522,107.433 433.497,109.765 434.999,111.219 C436.502,112.673 438.964,112.698 440.499,111.274 Z" />
            <path d="M454.112,124.425 C456.636,122.079 459.928,120.617 463.446,120.281 C465.583,120.076 467.14,118.27 466.924,116.245 C466.709,114.22 464.802,112.744 462.665,112.949 C457.388,113.453 452.45,115.646 448.665,119.165 C447.132,120.591 447.109,122.924 448.613,124.376 C450.117,125.829 452.58,125.851 454.112,124.425 Z" />
        </g>
        <g id="Black-M" transform="translate(0,200)">
            <path d="M628.704,96.505 C649.371,78.991 680.629,78.991 701.296,96.505 C702.897,97.862 705.355,97.732 706.787,96.215 C708.219,94.698 708.082,92.369 706.481,91.012 C682.861,70.996 647.138,70.996 623.518,91.012 C621.918,92.369 621.781,94.698 623.213,96.215 C624.644,97.732 627.103,97.862 628.704,96.505 Z" />
            <path d="M704.219,125.127 C707.289,122.218 708.487,117.979 707.363,114.006 C706.239,110.033 702.964,106.931 698.77,105.867 C694.577,104.803 690.103,105.941 687.035,108.85 L671.44,123.633 C670.055,124.944 669.04,126.568 668.49,128.351 L665.235,138.927 C664.639,140.865 665.204,142.956 666.71,144.383 C668.216,145.81 670.423,146.346 672.468,145.781 L683.629,142.697 C685.513,142.176 687.226,141.214 688.612,139.9 L704.218,125.128 Z M698.721,119.915 L683.113,134.688 C682.649,135.128 682.078,135.449 681.45,135.622 L670.291,138.706 C670.972,138.518 671.708,138.696 672.21,139.172 C672.712,139.648 672.9,140.345 672.702,140.991 L675.957,130.416 C676.139,129.822 676.478,129.281 676.94,128.844 L692.536,114.059 C693.64,113.012 695.25,112.603 696.759,112.986 C698.268,113.368 699.447,114.485 699.851,115.914 C700.255,117.344 699.824,118.869 698.72,119.916 Z" />
            <path d="M640.499,111.274 C650.202,102.269 664.527,99.397 677.248,103.905 C679.26,104.618 681.501,103.651 682.253,101.745 C683.006,99.839 681.985,97.716 679.973,97.003 C664.425,91.493 646.916,95.004 635.057,106.009 C633.522,107.433 633.497,109.765 634.999,111.219 C636.502,112.673 638.964,112.698 640.499,111.274 Z" />
            <path d="M654.112,124.425 C656.636,122.079 659.928,120.617 663.446,120.281 C665.583,120.076 667.14,118.27 666.924,116.245 C666.709,114.22 664.802,112.744 662.665,112.949 C657.388,113.453 652.45,115.646 648.665,119.165 C647.132,120.591 647.109,122.924 648.613,124.376 C650.117,125.829 652.58,125.851 654.112,124.425 Z" />
        </g>
    </g>
</svg>