<?xml version="1.0" encoding="UTF-8"?>
<svg height="600" width="800" xmlns="http://www.w3.org/2000/svg" xmlns:xlink="http://www.w3.org/1999/xlink">
    <g id="Notes" font-family="LucidaGrande, 'Lucida Grande', sans-serif" font-size="13">
        <rect fill="white" height="600.0" width="800.0" x="0.0" y="0.0" />
        <g font-size="13">
            <text x="18.0" y="176.0">Small</text>
            <text x="18.0" y="376.0">Medium</text>
            <text x="18.0" y="576.0">Large</text>
        </g>
        <g font-size="9">
            <text x="250.0" y="30.0">Ultralight</text>
            <text x="450.0" y="30.0">Regular</text>
            <text x="650.0" y="30.0">Black</text>
            <text id="template-version" fill="#505050" text-anchor="end" x="785.0" y="575.0">Template v.3.0</text>
            <a href="https://github.com/swhitty/SwiftDraw">
                <text fill="#505050" text-anchor="end" x="785.0" y="590.0">https://github.com/swhitty/SwiftDraw</text>
            </a>
        </g>
    </g>
    <g id="Guides" stroke="rgb(39, 170, 225)" stroke-width="0.5">
        <path id="Capline-S" d="M18,76 l800,0" />
        <path id="H-reference" d="M85,145.755 L87.685,145.755 L113.369,79.287 L114.052,79.287 L114.052,76 L112.148,76 L85,145.755 Z M95.693,121.536 L130.996,121.536 L130.263,119.313 L96.474,119.313 L95.693,121.536 Z M139.15,145.755 L141.787,145.755 L114.638,76 L113.466,76 L113.466,79.287 L139.15,145.755 Z" stroke="none" transform="translate(0,200)" />
        <path id="Baseline-S" d="M18,146 l800,0" />
        <path id="left-margin-Ultralight-M" d="M230,256 l0,110" />
        <path id="right-margin-Ultralight-M" d="M300,256 l0,110" />
        <path id="left-margin-Regular-M" d="M430,256 l0,110" />
        <path id="right-margin-Regular-M" d="M500,256 l0,110" />
        <path id="left-margin-Black-M" d="M630,256 l0,110" />
        <path id="right-margin-Black-M" d="M700,256 l0,110" />
        <path id="Capline-M" d="M18,276 l800,0" />
        <path id="Baseline-M" d="M18,346 l800,0" />
        <path id="Capline-L" d="M18,476 l800,0" />
        <path id="Baseline-L" d="M18,546 l800,0" />
    </g>
    <g id="Symbols">
        <g id="Ultralight-M" transform="translate(0,200)">
            <path d="M258,128.5 C258,134.299 253.299,139 247.5,139 C241.701,139 237,134.299 237,128.5 L237,86.5 C237,85.572 237.369,84.682 238.025,84.025 C238.682,83.369 239.572,83 240.5,83 L254.5,83 C255.428,83 256.318,83.369 256.975,84.025 C257.631,84.682 258,85.572 258,86.5 L258,128.5 Z M265,128.5 L265,86.5 C265,83.715 263.894,81.045 261.925,79.075 C259.955,77.106 257.285,76 254.5,76 L240.5,76 C237.715,76 235.045,77.106 233.075,79.075 C231.106,81.045 230,83.715 230,86.5 L230,128.5 C230,138.165 237.835,146 247.5,146 C257.165,146 265,138.165 265,128.5 Z" />
            <path d="M281.45,118 L289.5,118 C290.428,118 291.318,118.369 291.975,119.025 C292.631,119.682 293,120.572 293,121.5 L293,135.5 C293,136.428 292.631,137.318 291.975,137.975 C291.318,138.631 290.428,139 289.5,139 L247.5,139 C245.567,139 244,140.567 244,142.5 C244,144.433 245.567,146 247.5,146 L289.5,146 C292.285,146 294.955,144.894 296.925,142.925 C298.894,140.955 300,138.285 300,135.5 L300,121.5 C300,118.715 298.894,116.045 296.925,114.075 C294.956,112.106 292.285,111 289.5,111 L281.45,111 C279.517,111 277.95,112.567 277.95,114.5 C277.95,116.433 279.517,118 281.45,118 Z" />
            <path d="M247.5,132 L247.535,132 C249.468,132 251.035,130.433 251.035,128.5 C251.035,126.567 249.468,125 247.535,125 L247.5,125 C245.567,125 244,126.567 244,128.5 C244,130.433 245.567,132 247.5,132 Z" />
            <path d="M263.975,99.475 L272.025,91.425 C272.95,90.497 274.201,89.978 275.506,89.979 C276.81,89.981 278.06,90.503 278.979,91.429 L285.625,98.075 C286.625,99.037 287.167,100.297 287.177,101.617 C287.187,102.936 286.664,104.204 285.727,105.134 L255.169,135.831 C253.806,137.201 253.811,139.417 255.181,140.781 C256.551,142.144 258.767,142.139 260.131,140.769 L290.672,110.088 C292.931,107.848 294.201,104.769 294.176,101.564 C294.152,98.359 292.836,95.299 290.526,93.078 L283.939,86.489 C281.718,84.25 278.682,82.983 275.514,82.979 C272.346,82.976 269.307,84.235 267.071,86.479 L259.025,94.525 C257.658,95.892 257.658,98.108 259.025,99.475 C260.392,100.842 262.608,100.842 263.975,99.475 Z" />
        </g>
        <g id="Regular-M" transform="translate(0,200)">
            <path d="M458,128.5 C458,134.299 453.299,139 447.5,139 C441.701,139 437,134.299 437,128.5 L437,86.5 C437,85.572 437.369,84.682 438.025,84.025 C438.682,83.369 439.572,83 440.5,83 L454.5,83 C455.428,83 456.318,83.369 456.975,84.025 C457.631,84.682 458,85.572 458,86.5 L458,128.5 Z M465,128.5 L465,86.5 C465,83.715 463.894,81.045 461.925,79.075 C459.955,77.106 457.285,76 454.5,76 L440.5,76 C437.715,76 435.045,77.106 433.075,79.075 C431.106,81.045 430,83.715 430,86.5 L430,128.5 C430,138.165 437.835,146 447.5,146 C457.165,146 465,138.165 465,128.5 Z" />
            <path d="M481.45,118 L489.5,118 C490.428,118 491.318,118.369 491.975,119.025 C492.631,119.682 493,120.572 493,121.5 L493,135.5 C493,136.428 492.631,137.318 491.975,137.975 C491.318,138.631 490.428,139 489.5,139 L447.5,139 C445.567,139 444,140.567 444,142.5 C444,144.433 445.567,146 447.5,146 L489.5,146 C492.285,146 494.955,144.894 496.925,142.925 C498.894,140.955 500,138.285 500,135.5 L500,121.5 C500,118.715 498.894,116.045 496.925,114.075 C494.956,112.106 492.285,111 489.5,111 L481.45,111 C479.517,111 477.95,112.567 477.95,114.5 C477.95,116.433 479.517,118 481.45,118 Z" />
            <path d="M447.5,132 L447.535,132 C449.468,132 451.035,130.433 451.035,128.5 C451.035,126.567 449.468,125 447.535,125 L447.5,125 C445.567,125 444,126.567 444,128.5 C444,130.433 445.567,132 447.5,132 Z" />
            <path d="M463.975,99.475 L472.025,91.425 C472.95,90.497 474.201,89.978 475.506,89.979 C476.81,89.981 478.06,90.503 478.979,91.429 L485.625,98.075 C486.625,99.037 487.167,100.297 487.177,101.617 C487.187,102.936 486.664,104.204 485.727,105.134 L455.169,135.831 C453.806,137.201 453.811,139.417 455.181,140.781 C456.551,142.144 458.767,142.139 460.131,140.769 L490.672,110.088 C492.931,107.848 494.201,104.769 494.176,101.564 C494.152,98.359 492.836,95.299 490.526,93.078 L483.939,86.489 C481.718,84.25 478.682,82.983 475.514,82.979 C472.346,82.976 469.307,84.235 467.071,86.479 L459.025,94.525 C457.658,95.892 457.658,98.108 459.025,99.475 C460.392,100.842 462.608,100.842 463.975,99.475 Z" />
        </g>
        <g id="Black-M" transform="translate(0,200)">
            <path d="M658,128.5 C658,134.299 653.299,139 647.5,139 C641.701,139 637,134.299 637,128.5 L637,86.5 C637,85.572 637.369,84.682 638.025,84.025 C638.682,83.369 639.572,83 640.5,83 L654.5,83 C655.428,83 656.318,83.369 656.975,84.025 C657.631,84.682 658,85.572 658,86.5 L658,128.5 Z M665,128.5 L665,86.5 C665,83.715 663.894,81.045 661.925,79.075 C659.956,77.106 657.285,76 654.5,76 L640.5,76 C637.715,76 635.044,77.106 633.075,79.075 C631.106,81.045 630,83.715 630,86.5 L630,128.5 C630,138.165 637.835,146 647.5,146 C657.165,146 665,138.165 665,128.5 Z" />
            <path d="M681.45,118 L689.5,118 C690.428,118 691.318,118.369 691.975,119.025 C692.631,119.682 693,120.572 693,121.5 L693,135.5 C693,136.428 692.631,137.318 691.975,137.975 C691.318,138.631 690.428,139 689.5,139 L647.5,139 C645.567,139 644,140.567 644,142.5 C644,144.433 645.567,146 647.5,146 L689.5,146 C692.285,146 694.956,144.894 696.925,142.925 C698.894,140.955 700,138.285 700,135.5 L700,121.5 C700,118.715 698.894,116.045 696.925,114.075 C694.956,112.106 692.285,111 689.5,111 L681.45,111 C679.517,111 677.95,112.567 677.95,114.5 C677.95,116.433 679.517,118 681.45,118 Z" />
            <path d="M647.5,132 L647.535,132 C649.468,132 651.035,130.433 651.035,128.5 C651.035,126.567 649.468,125 647.535,125 L647.5,125 C645.567,125 644,126.567 644,128.5 C644,130.433 645.567,132 647.5,132 Z" />
            <path d="M663.975,99.475 L672.025,91.425 C672.95,90.497 674.201,89.978 675.506,89.979 C676.81,89.981 678.06,90.503 678.979,91.429 L685.625,98.075 C686.625,99.037 687.167,100.297 687.177,101.617 C687.187,102.936 686.664,104.204 685.727,105.134 L655.169,135.831 C653.806,137.201 653.811,139.417 655.181,140.781 C656.551,142.144 658.767,142.139 660.131,140.769 L690.672,110.088 C692.931,107.848 694.201,104.769 694.176,101.564 C694.152,98.359 692.836,95.299 690.526,93.078 L683.939,86.489 C681.718,84.25 678.682,82.983 675.514,82.979 C672.346,82.976 669.307,84.235 667.071,86.479 L659.025,94.525 C657.658,95.892 657.658,98.108 659.025,99.475 C660.392,100.842 662.608,100.842 663.975,99.475 Z" />
        </g>
    </g>
</svg>