<?xml version="1.0" encoding="UTF-8"?>
<svg height="600" width="800" xmlns="http://www.w3.org/2000/svg" xmlns:xlink="http://www.w3.org/1999/xlink">
    <g id="Notes" font-family="LucidaGrande, 'Lucida Grande', sans-serif" font-size="13">
        <rect fill="white" height="600.0" width="800.0" x="0.0" y="0.0" />
        <g font-size="13">
            <text x="18.0" y="176.0">Small</text>
            <text x="18.0" y="376.0">Medium</text>
            <text x="18.0" y="576.0">Large</text>
        </g>
        <g font-size="9">
            <text x="250.0" y="30.0">Ultralight</text>
            <text x="450.0" y="30.0">Regular</text>
            <text x="650.0" y="30.0">Black</text>
            <text id="template-version" fill="#505050" text-anchor="end" x="785.0" y="575.0">Template v.3.0</text>
            <a href="https://github.com/swhitty/SwiftDraw">
                <text fill="#505050" text-anchor="end" x="785.0" y="590.0">https://github.com/swhitty/SwiftDraw</text>
            </a>
        </g>
    </g>
    <g id="Guides" stroke="rgb(39, 170, 225)" stroke-width="0.5">
        <path id="Capline-S" d="M18,76 l800,0" />
        <path id="H-reference" d="M85,145.755 L87.685,145.755 L113.369,79.287 L114.052,79.287 L114.052,76 L112.148,76 L85,145.755 Z M95.693,121.536 L130.996,121.536 L130.263,119.313 L96.474,119.313 L95.693,121.536 Z M139.15,145.755 L141.787,145.755 L114.638,76 L113.466,76 L113.466,79.287 L139.15,145.755 Z" stroke="none" transform="translate(0,200)" />
        <path id="Baseline-S" d="M18,146 l800,0" />
        <path id="left-margin-Ultralight-M" d="M228.25,256 l0,110" />
        <path id="right-margin-Ultralight-M" d="M301.75,256 l0,110" />
        <path id="left-margin-Regular-M" d="M428.25,256 l0,110" />
        <path id="right-margin-Regular-M" d="M501.75,256 l0,110" />
        <path id="left-margin-Black-M" d="M628.25,256 l0,110" />
        <path id="right-margin-Black-M" d="M701.75,256 l0,110" />
        <path id="Capline-M" d="M18,276 l800,0" />
        <path id="Baseline-M" d="M18,346 l800,0" />
        <path id="Capline-L" d="M18,476 l800,0" />
        <path id="Baseline-L" d="M18,546 l800,0" />
    </g>
    <g id="Symbols">
        <g id="Ultralight-M" transform="translate(0,200)">
            <path d="M263.25,146 C272.533,146 281.435,142.313 287.999,135.749 C294.562,129.185 298.25,120.283 298.25,111 C298.25,109.067 296.683,107.5 294.75,107.5 L231.75,107.5 C229.817,107.5 228.25,109.067 228.25,111 C228.25,120.283 231.938,129.185 238.501,135.749 C245.065,142.313 253.967,146 263.25,146 Z M263.25,139 C255.824,139 248.702,136.05 243.451,130.799 C238.2,125.548 235.25,118.426 235.25,111 L231.75,114.5 L294.75,114.5 L291.25,111 C291.25,118.426 288.3,125.548 283.049,130.799 C277.798,136.05 270.676,139 263.25,139 Z" />
            <path d="M245.75,146 L280.75,146 C282.683,146 284.25,144.433 284.25,142.5 C284.25,140.567 282.683,139 280.75,139 L245.75,139 C243.817,139 242.25,140.567 242.25,142.5 C242.25,144.433 243.817,146 245.75,146 Z" />
            <path d="M292.731,112.346 L301.481,91.346 C302.224,89.562 301.38,87.513 299.596,86.769 C297.812,86.026 295.763,86.87 295.019,88.654 L286.269,109.654 C285.526,111.438 286.37,113.487 288.154,114.231 C289.938,114.974 291.987,114.13 292.731,112.346 Z" />
            <path d="M276.909,82.782 C276.992,82.813 277.305,83.25 277.256,84.05 C277.237,84.307 277.061,84.623 276.241,85.671 C276.236,85.678 276.236,85.678 276.23,85.686 C274.617,87.747 273.94,88.95 273.763,91.032 C273.531,94.641 274.814,97.023 277.362,99.507 C278.747,100.856 280.963,100.827 282.312,99.443 C283.661,98.058 283.632,95.842 282.248,94.493 C281.019,93.296 280.672,92.653 280.743,91.554 C280.762,91.342 280.94,91.026 281.743,89.999 C281.748,89.992 281.748,89.992 281.754,89.984 C283.401,87.88 284.086,86.65 284.241,84.512 C284.485,80.465 282.208,77.28 279.341,76.218 C277.528,75.547 275.514,76.472 274.843,78.284 C274.172,80.097 275.097,82.111 276.909,82.782 Z" />
            <path d="M259.409,82.782 C259.484,82.81 259.781,83.227 259.724,84.008 C259.705,84.327 259.536,84.632 258.738,85.659 C258.724,85.676 258.724,85.676 258.711,85.693 C257.1,87.763 256.421,89 256.292,91.117 C256.022,94.614 257.301,97.011 259.862,99.507 C261.247,100.856 263.463,100.827 264.812,99.443 C266.161,98.058 266.132,95.842 264.748,94.493 C263.525,93.302 263.192,92.677 263.275,91.598 C263.294,91.29 263.458,90.99 264.235,89.992 C264.249,89.975 264.249,89.975 264.262,89.958 C265.897,87.858 266.579,86.616 266.709,84.47 C266.997,80.49 264.723,77.286 261.841,76.218 C260.028,75.547 258.014,76.472 257.343,78.284 C256.672,80.097 257.597,82.111 259.409,82.782 Z" />
            <path d="M241.909,82.782 C241.992,82.813 242.305,83.25 242.256,84.05 C242.237,84.307 242.061,84.623 241.241,85.671 C241.236,85.678 241.236,85.678 241.23,85.686 C239.617,87.747 238.94,88.95 238.763,91.032 C238.529,94.661 239.844,97.082 242.429,99.537 C243.831,100.869 246.046,100.812 247.378,99.411 C248.709,98.009 248.652,95.794 247.251,94.463 C246.022,93.296 245.672,92.652 245.743,91.554 C245.762,91.342 245.94,91.026 246.743,89.999 C246.748,89.992 246.748,89.992 246.754,89.984 C248.401,87.88 249.086,86.65 249.241,84.512 C249.485,80.465 247.208,77.28 244.341,76.218 C242.528,75.547 240.514,76.472 239.843,78.284 C239.172,80.097 240.097,82.111 241.909,82.782 Z" />
        </g>
        <g id="Regular-M" transform="translate(0,200)">
            <path d="M463.25,146 C472.533,146 481.435,142.313 487.999,135.749 C494.562,129.185 498.25,120.283 498.25,111 C498.25,109.067 496.683,107.5 494.75,107.5 L431.75,107.5 C429.817,107.5 428.25,109.067 428.25,111 C428.25,120.283 431.938,129.185 438.501,135.749 C445.065,142.313 453.967,146 463.25,146 Z M463.25,139 C455.824,139 448.702,136.05 443.451,130.799 C438.2,125.548 435.25,118.426 435.25,111 L431.75,114.5 L494.75,114.5 L491.25,111 C491.25,118.426 488.3,125.548 483.049,130.799 C477.798,136.05 470.676,139 463.25,139 Z" />
            <path d="M445.75,146 L480.75,146 C482.683,146 484.25,144.433 484.25,142.5 C484.25,140.567 482.683,139 480.75,139 L445.75,139 C443.817,139 442.25,140.567 442.25,142.5 C442.25,144.433 443.817,146 445.75,146 Z" />
            <path d="M492.731,112.346 L501.481,91.346 C502.224,89.562 501.38,87.513 499.596,86.769 C497.812,86.026 495.763,86.87 495.019,88.654 L486.269,109.654 C485.526,111.438 486.37,113.487 488.154,114.231 C489.938,114.974 491.987,114.13 492.731,112.346 Z" />
            <path d="M476.909,82.782 C476.992,82.813 477.305,83.25 477.256,84.05 C477.237,84.307 477.061,84.623 476.241,85.671 C476.236,85.678 476.236,85.678 476.23,85.686 C474.617,87.747 473.94,88.95 473.763,91.032 C473.531,94.641 474.814,97.023 477.362,99.507 C478.747,100.856 480.963,100.827 482.312,99.443 C483.661,98.058 483.632,95.842 482.248,94.493 C481.019,93.296 480.672,92.653 480.743,91.554 C480.762,91.342 480.94,91.026 481.743,89.999 C481.748,89.992 481.748,89.992 481.754,89.984 C483.401,87.88 484.086,86.65 484.241,84.512 C484.485,80.465 482.208,77.28 479.341,76.218 C477.528,75.547 475.514,76.472 474.843,78.284 C474.172,80.097 475.097,82.111 476.909,82.782 Z" />
            <path d="M459.409,82.782 C459.484,82.81 459.781,83.227 459.724,84.008 C459.705,84.327 459.536,84.632 458.738,85.659 C458.724,85.676 458.724,85.676 458.711,85.693 C457.1,87.763 456.421,89 456.292,91.117 C456.022,94.614 457.301,97.011 459.862,99.507 C461.247,100.856 463.463,100.827 464.812,99.443 C466.161,98.058 466.132,95.842 464.748,94.493 C463.525,93.302 463.192,92.677 463.275,91.598 C463.294,91.29 463.458,90.99 464.235,89.992 C464.249,89.975 464.249,89.975 464.262,89.958 C465.897,87.858 466.579,86.616 466.709,84.47 C466.997,80.49 464.723,77.286 461.841,76.218 C460.028,75.547 458.014,76.472 457.343,78.284 C456.672,80.097 457.597,82.111 459.409,82.782 Z" />
            <path d="M441.909,82.782 C441.992,82.813 442.305,83.25 442.256,84.05 C442.237,84.307 442.061,84.623 441.241,85.671 C441.236,85.678 441.236,85.678 441.23,85.686 C439.617,87.747 438.94,88.95 438.763,91.032 C438.529,94.661 439.844,97.082 442.429,99.537 C443.831,100.869 446.046,100.812 447.378,99.411 C448.709,98.009 448.652,95.794 447.251,94.463 C446.022,93.296 445.672,92.652 445.743,91.554 C445.762,91.342 445.94,91.026 446.743,89.999 C446.748,89.992 446.748,89.992 446.754,89.984 C448.401,87.88 449.086,86.65 449.241,84.512 C449.485,80.465 447.208,77.28 444.341,76.218 C442.528,75.547 440.514,76.472 439.843,78.284 C439.172,80.097 440.097,82.111 441.909,82.782 Z" />
        </g>
        <g id="Black-M" transform="translate(0,200)">
            <path d="M663.25,146 C672.533,146 681.435,142.313 687.999,135.749 C694.562,129.185 698.25,120.283 698.25,111 C698.25,109.067 696.683,107.5 694.75,107.5 L631.75,107.5 C629.817,107.5 628.25,109.067 628.25,111 C628.25,120.283 631.938,129.185 638.501,135.749 C645.065,142.313 653.967,146 663.25,146 Z M663.25,139 C655.824,139 648.702,136.05 643.451,130.799 C638.2,125.548 635.25,118.426 635.25,111 L631.75,114.5 L694.75,114.5 L691.25,111 C691.25,118.426 688.3,125.548 683.049,130.799 C677.798,136.05 670.676,139 663.25,139 Z" />
            <path d="M645.75,146 L680.75,146 C682.683,146 684.25,144.433 684.25,142.5 C684.25,140.567 682.683,139 680.75,139 L645.75,139 C643.817,139 642.25,140.567 642.25,142.5 C642.25,144.433 643.817,146 645.75,146 Z" />
            <path d="M692.731,112.346 L701.481,91.346 C702.224,89.562 701.38,87.513 699.596,86.769 C697.812,86.026 695.763,86.87 695.019,88.654 L686.269,109.654 C685.526,111.438 686.37,113.487 688.154,114.231 C689.938,114.974 691.987,114.13 692.731,112.346 Z" />
            <path d="M676.909,82.782 C676.992,82.813 677.305,83.25 677.256,84.05 C677.237,84.307 677.061,84.623 676.241,85.671 C676.236,85.678 676.236,85.678 676.23,85.686 C674.617,87.747 673.94,88.95 673.763,91.032 C673.531,94.641 674.814,97.023 677.362,99.507 C678.747,100.856 680.963,100.827 682.312,99.443 C683.661,98.058 683.632,95.842 682.247,94.493 C681.019,93.296 680.672,92.653 680.743,91.554 C680.762,91.342 680.94,91.026 681.743,89.999 C681.748,89.992 681.748,89.992 681.754,89.984 C683.401,87.88 684.086,86.65 684.241,84.512 C684.485,80.465 682.208,77.28 679.341,76.218 C677.528,75.547 675.514,76.472 674.843,78.284 C674.172,80.097 675.097,82.111 676.909,82.782 Z" />
            <path d="M659.409,82.782 C659.484,82.81 659.781,83.227 659.724,84.008 C659.705,84.327 659.536,84.632 658.738,85.659 C658.724,85.676 658.724,85.676 658.711,85.693 C657.1,87.763 656.421,89 656.292,91.117 C656.022,94.614 657.301,97.011 659.862,99.507 C661.247,100.856 663.463,100.827 664.812,99.443 C666.161,98.058 666.132,95.842 664.748,94.493 C663.525,93.302 663.192,92.677 663.275,91.598 C663.294,91.29 663.458,90.99 664.235,89.992 C664.249,89.975 664.249,89.975 664.262,89.958 C665.897,87.858 666.579,86.616 666.709,84.47 C666.997,80.49 664.723,77.286 661.841,76.218 C660.028,75.547 658.014,76.472 657.343,78.284 C656.672,80.097 657.597,82.111 659.409,82.782 Z" />
            <path d="M641.909,82.782 C641.992,82.813 642.305,83.25 642.256,84.05 C642.237,84.307 642.061,84.623 641.241,85.671 C641.236,85.678 641.236,85.678 641.23,85.686 C639.617,87.747 638.94,88.95 638.763,91.032 C638.529,94.661 639.844,97.082 642.429,99.537 C643.831,100.869 646.046,100.812 647.378,99.411 C648.709,98.009 648.652,95.794 647.251,94.463 C646.022,93.296 645.672,92.652 645.743,91.554 C645.762,91.342 645.94,91.026 646.743,89.999 C646.748,89.992 646.748,89.992 646.754,89.984 C648.401,87.88 649.086,86.65 649.241,84.512 C649.485,80.465 647.208,77.28 644.341,76.218 C642.528,75.547 640.514,76.472 639.843,78.284 C639.172,80.097 640.097,82.111 641.909,82.782 Z" />
        </g>
    </g>
</svg>