<?xml version="1.0" encoding="UTF-8"?>
<svg height="600" width="800" xmlns="http://www.w3.org/2000/svg" xmlns:xlink="http://www.w3.org/1999/xlink">
    <g id="Notes" font-family="LucidaGrande, 'Lucida Grande', sans-serif" font-size="13">
        <rect fill="white" height="600.0" width="800.0" x="0.0" y="0.0" />
        <g font-size="13">
            <text x="18.0" y="176.0">Small</text>
            <text x="18.0" y="376.0">Medium</text>
            <text x="18.0" y="576.0">Large</text>
        </g>
        <g font-size="9">
            <text x="250.0" y="30.0">Ultralight</text>
            <text x="450.0" y="30.0">Regular</text>
            <text x="650.0" y="30.0">Black</text>
            <text id="template-version" fill="#505050" text-anchor="end" x="785.0" y="575.0">Template v.3.0</text>
            <a href="https://github.com/swhitty/SwiftDraw">
                <text fill="#505050" text-anchor="end" x="785.0" y="590.0">https://github.com/swhitty/SwiftDraw</text>
            </a>
        </g>
    </g>
    <g id="Guides" stroke="rgb(39, 170, 225)" stroke-width="0.5">
        <path id="Capline-S" d="M18,76 l800,0" />
        <path id="H-reference" d="M85,145.755 L87.685,145.755 L113.369,79.287 L114.052,79.287 L114.052,76 L112.148,76 L85,145.755 Z M95.693,121.536 L130.996,121.536 L130.263,119.313 L96.474,119.313 L95.693,121.536 Z M139.15,145.755 L141.787,145.755 L114.638,76 L113.466,76 L113.466,79.287 L139.15,145.755 Z" stroke="none" transform="translate(0,200)" />
        <path id="Baseline-S" d="M18,146 l800,0" />
        <path id="left-margin-Ultralight-M" d="M230,256 l0,110" />
        <path id="right-margin-Ultralight-M" d="M300,256 l0,110" />
        <path id="left-margin-Regular-M" d="M430,256 l0,110" />
        <path id="right-margin-Regular-M" d="M500,256 l0,110" />
        <path id="left-margin-Black-M" d="M630,256 l0,110" />
        <path id="right-margin-Black-M" d="M700,256 l0,110" />
        <path id="Capline-M" d="M18,276 l800,0" />
        <path id="Baseline-M" d="M18,346 l800,0" />
        <path id="Capline-L" d="M18,476 l800,0" />
        <path id="Baseline-L" d="M18,546 l800,0" />
    </g>
    <g id="Symbols">
        <g id="Ultralight-M" transform="translate(0,200)">
            <path d="M258,83 L233.5,83 C231.567,83 230,84.567 230,86.5 C230,88.433 231.567,90 233.5,90 L258,90 C259.933,90 261.5,88.433 261.5,86.5 C261.5,84.567 259.933,83 258,83 Z" />
            <path d="M265,132 L233.5,132 C231.567,132 230,133.567 230,135.5 C230,137.433 231.567,139 233.5,139 L265,139 C266.933,139 268.5,137.433 268.5,135.5 C268.5,133.567 266.933,132 265,132 Z" />
            <path d="M268.5,79.5 L268.5,93.5 C268.5,95.433 270.067,97 272,97 C273.933,97 275.5,95.433 275.5,93.5 L275.5,79.5 C275.5,77.567 273.933,76 272,76 C270.067,76 268.5,77.567 268.5,79.5 Z" />
            <path d="M275.5,128.5 L275.5,142.5 C275.5,144.433 277.067,146 279,146 C280.933,146 282.5,144.433 282.5,142.5 L282.5,128.5 C282.5,126.567 280.933,125 279,125 C277.067,125 275.5,126.567 275.5,128.5 Z" />
            <path d="M296.5,107.5 L265,107.5 C263.067,107.5 261.5,109.067 261.5,111 C261.5,112.933 263.067,114.5 265,114.5 L296.5,114.5 C298.433,114.5 300,112.933 300,111 C300,109.067 298.433,107.5 296.5,107.5 Z" />
            <path d="M296.5,132 L279,132 C277.067,132 275.5,133.567 275.5,135.5 C275.5,137.433 277.067,139 279,139 L296.5,139 C298.433,139 300,137.433 300,135.5 C300,133.567 298.433,132 296.5,132 Z" />
            <path d="M296.5,83 L272,83 C270.067,83 268.5,84.567 268.5,86.5 C268.5,88.433 270.067,90 272,90 L296.5,90 C298.433,90 300,88.433 300,86.5 C300,84.567 298.433,83 296.5,83 Z" />
            <path d="M247.5,104 L247.5,118 C247.5,119.933 249.067,121.5 251,121.5 C252.933,121.5 254.5,119.933 254.5,118 L254.5,104 C254.5,102.067 252.933,100.5 251,100.5 C249.067,100.5 247.5,102.067 247.5,104 Z" />
            <path d="M251,107.5 L233.5,107.5 C231.567,107.5 230,109.067 230,111 C230,112.933 231.567,114.5 233.5,114.5 L251,114.5 C252.933,114.5 254.5,112.933 254.5,111 C254.5,109.067 252.933,107.5 251,107.5 Z" />
        </g>
        <g id="Regular-M" transform="translate(0,200)">
            <path d="M458,83 L433.5,83 C431.567,83 430,84.567 430,86.5 C430,88.433 431.567,90 433.5,90 L458,90 C459.933,90 461.5,88.433 461.5,86.5 C461.5,84.567 459.933,83 458,83 Z" />
            <path d="M465,132 L433.5,132 C431.567,132 430,133.567 430,135.5 C430,137.433 431.567,139 433.5,139 L465,139 C466.933,139 468.5,137.433 468.5,135.5 C468.5,133.567 466.933,132 465,132 Z" />
            <path d="M468.5,79.5 L468.5,93.5 C468.5,95.433 470.067,97 472,97 C473.933,97 475.5,95.433 475.5,93.5 L475.5,79.5 C475.5,77.567 473.933,76 472,76 C470.067,76 468.5,77.567 468.5,79.5 Z" />
            <path d="M475.5,128.5 L475.5,142.5 C475.5,144.433 477.067,146 479,146 C480.933,146 482.5,144.433 482.5,142.5 L482.5,128.5 C482.5,126.567 480.933,125 479,125 C477.067,125 475.5,126.567 475.5,128.5 Z" />
            <path d="M496.5,107.5 L465,107.5 C463.067,107.5 461.5,109.067 461.5,111 C461.5,112.933 463.067,114.5 465,114.5 L496.5,114.5 C498.433,114.5 500,112.933 500,111 C500,109.067 498.433,107.5 496.5,107.5 Z" />
            <path d="M496.5,132 L479,132 C477.067,132 475.5,133.567 475.5,135.5 C475.5,137.433 477.067,139 479,139 L496.5,139 C498.433,139 500,137.433 500,135.5 C500,133.567 498.433,132 496.5,132 Z" />
            <path d="M496.5,83 L472,83 C470.067,83 468.5,84.567 468.5,86.5 C468.5,88.433 470.067,90 472,90 L496.5,90 C498.433,90 500,88.433 500,86.5 C500,84.567 498.433,83 496.5,83 Z" />
            <path d="M447.5,104 L447.5,118 C447.5,119.933 449.067,121.5 451,121.5 C452.933,121.5 454.5,119.933 454.5,118 L454.5,104 C454.5,102.067 452.933,100.5 451,100.5 C449.067,100.5 447.5,102.067 447.5,104 Z" />
            <path d="M451,107.5 L433.5,107.5 C431.567,107.5 430,109.067 430,111 C430,112.933 431.567,114.5 433.5,114.5 L451,114.5 C452.933,114.5 454.5,112.933 454.5,111 C454.5,109.067 452.933,107.5 451,107.5 Z" />
        </g>
        <g id="Black-M" transform="translate(0,200)">
            <path d="M658,83 L633.5,83 C631.567,83 630,84.567 630,86.5 C630,88.433 631.567,90 633.5,90 L658,90 C659.933,90 661.5,88.433 661.5,86.5 C661.5,84.567 659.933,83 658,83 Z" />
            <path d="M665,132 L633.5,132 C631.567,132 630,133.567 630,135.5 C630,137.433 631.567,139 633.5,139 L665,139 C666.933,139 668.5,137.433 668.5,135.5 C668.5,133.567 666.933,132 665,132 Z" />
            <path d="M668.5,79.5 L668.5,93.5 C668.5,95.433 670.067,97 672,97 C673.933,97 675.5,95.433 675.5,93.5 L675.5,79.5 C675.5,77.567 673.933,76 672,76 C670.067,76 668.5,77.567 668.5,79.5 Z" />
            <path d="M675.5,128.5 L675.5,142.5 C675.5,144.433 677.067,146 679,146 C680.933,146 682.5,144.433 682.5,142.5 L682.5,128.5 C682.5,126.567 680.933,125 679,125 C677.067,125 675.5,126.567 675.5,128.5 Z" />
            <path d="M696.5,107.5 L665,107.5 C663.067,107.5 661.5,109.067 661.5,111 C661.5,112.933 663.067,114.5 665,114.5 L696.5,114.5 C698.433,114.5 700,112.933 700,111 C700,109.067 698.433,107.5 696.5,107.5 Z" />
            <path d="M696.5,132 L679,132 C677.067,132 675.5,133.567 675.5,135.5 C675.5,137.433 677.067,139 679,139 L696.5,139 C698.433,139 700,137.433 700,135.5 C700,133.567 698.433,132 696.5,132 Z" />
            <path d="M696.5,83 L672,83 C670.067,83 668.5,84.567 668.5,86.5 C668.5,88.433 670.067,90 672,90 L696.5,90 C698.433,90 700,88.433 700,86.5 C700,84.567 698.433,83 696.5,83 Z" />
            <path d="M647.5,104 L647.5,118 C647.5,119.933 649.067,121.5 651,121.5 C652.933,121.5 654.5,119.933 654.5,118 L654.5,104 C654.5,102.067 652.933,100.5 651,100.5 C649.067,100.5 647.5,102.067 647.5,104 Z" />
            <path d="M651,107.5 L633.5,107.5 C631.567,107.5 630,109.067 630,111 C630,112.933 631.567,114.5 633.5,114.5 L651,114.5 C652.933,114.5 654.5,112.933 654.5,111 C654.5,109.067 652.933,107.5 651,107.5 Z" />
        </g>
    </g>
</svg>