<?xml version="1.0" encoding="UTF-8"?>
<svg height="600" width="800" xmlns="http://www.w3.org/2000/svg" xmlns:xlink="http://www.w3.org/1999/xlink">
    <g id="Notes" font-family="LucidaGrande, 'Lucida Grande', sans-serif" font-size="13">
        <rect fill="white" height="600.0" width="800.0" x="0.0" y="0.0" />
        <g font-size="13">
            <text x="18.0" y="176.0">Small</text>
            <text x="18.0" y="376.0">Medium</text>
            <text x="18.0" y="576.0">Large</text>
        </g>
        <g font-size="9">
            <text x="250.0" y="30.0">Ultralight</text>
            <text x="450.0" y="30.0">Regular</text>
            <text x="650.0" y="30.0">Black</text>
            <text id="template-version" fill="#505050" text-anchor="end" x="785.0" y="575.0">Template v.3.0</text>
            <a href="https://github.com/swhitty/SwiftDraw">
                <text fill="#505050" text-anchor="end" x="785.0" y="590.0">https://github.com/swhitty/SwiftDraw</text>
            </a>
        </g>
    </g>
    <g id="Guides" stroke="rgb(39, 170, 225)" stroke-width="0.5">
        <path id="Capline-S" d="M18,76 l800,0" />
        <path id="H-reference" d="M85,145.755 L87.685,145.755 L113.369,79.287 L114.052,79.287 L114.052,76 L112.148,76 L85,145.755 Z M95.693,121.536 L130.996,121.536 L130.263,119.313 L96.474,119.313 L95.693,121.536 Z M139.15,145.755 L141.787,145.755 L114.638,76 L113.466,76 L113.466,79.287 L139.15,145.755 Z" stroke="none" transform="translate(0,200)" />
        <path id="Baseline-S" d="M18,146 l800,0" />
        <path id="left-margin-Ultralight-M" d="M239.545,256 l0,110" />
        <path id="right-margin-Ultralight-M" d="M290.455,256 l0,110" />
        <path id="left-margin-Regular-M" d="M439.545,256 l0,110" />
        <path id="right-margin-Regular-M" d="M490.455,256 l0,110" />
        <path id="left-margin-Black-M" d="M639.545,256 l0,110" />
        <path id="right-margin-Black-M" d="M690.455,256 l0,110" />
        <path id="Capline-M" d="M18,276 l800,0" />
        <path id="Baseline-M" d="M18,346 l800,0" />
        <path id="Capline-L" d="M18,476 l800,0" />
        <path id="Baseline-L" d="M18,546 l800,0" />
    </g>
    <g id="Symbols">
        <g id="Ultralight-M" transform="translate(0,200)">
            <path d="M245.909,136.455 C245.909,135.611 246.244,134.801 246.841,134.205 C247.438,133.608 248.247,133.273 249.091,133.273 L280.909,133.273 C281.753,133.273 282.562,133.608 283.159,134.205 C283.756,134.801 284.091,135.611 284.091,136.455 L284.091,139.636 C284.091,139.636 284.091,139.636 284.091,139.636 C284.091,139.636 284.091,139.636 284.091,139.636 L245.909,139.636 C245.909,139.636 245.909,139.636 245.909,139.636 C245.909,139.636 245.909,139.636 245.909,139.636 L245.909,136.455 Z M239.545,136.455 L239.545,139.636 C239.545,141.324 240.216,142.943 241.409,144.136 C242.603,145.33 244.221,146 245.909,146 L284.091,146 C285.779,146 287.397,145.33 288.591,144.136 C289.784,142.943 290.455,141.324 290.455,139.636 L290.455,136.455 C290.455,133.923 289.449,131.495 287.659,129.705 C285.869,127.915 283.441,126.909 280.909,126.909 L249.091,126.909 C246.559,126.909 244.131,127.915 242.341,129.705 C240.551,131.495 239.545,133.923 239.545,136.455 Z" />
            <path d="M269.827,105.223 L274.6,130.677 C274.924,132.404 276.586,133.542 278.314,133.218 C280.041,132.894 281.178,131.232 280.855,129.505 L276.082,104.05 C275.758,102.323 274.095,101.185 272.368,101.509 C270.641,101.833 269.503,103.496 269.827,105.223 Z" />
            <path d="M249.091,107.818 L280.909,107.818 C282.666,107.818 284.091,106.394 284.091,104.636 C284.091,102.879 282.666,101.455 280.909,101.455 L249.091,101.455 C247.334,101.455 245.909,102.879 245.909,104.636 C245.909,106.394 247.334,107.818 249.091,107.818 Z" />
            <path d="M255.4,130.677 L260.173,105.223 C260.497,103.496 259.359,101.833 257.632,101.509 C255.905,101.185 254.242,102.323 253.918,104.05 L249.145,129.505 C248.822,131.232 249.959,132.894 251.686,133.218 C253.414,133.542 255.076,132.404 255.4,130.677 Z" />
            <path d="M255.455,91.909 C255.455,86.637 259.728,82.364 265,82.364 C270.272,82.364 274.545,86.637 274.545,91.909 C274.545,97.181 270.272,101.455 265,101.455 C259.728,101.455 255.455,97.181 255.455,91.909 Z M249.091,91.909 C249.091,100.695 256.214,107.818 265,107.818 C273.786,107.818 280.909,100.695 280.909,91.909 C280.909,83.123 273.786,76 265,76 C256.214,76 249.091,83.123 249.091,91.909 Z" />
        </g>
        <g id="Regular-M" transform="translate(0,200)">
            <path d="M445.909,136.455 C445.909,135.611 446.244,134.801 446.841,134.205 C447.438,133.608 448.247,133.273 449.091,133.273 L480.909,133.273 C481.753,133.273 482.562,133.608 483.159,134.205 C483.756,134.801 484.091,135.611 484.091,136.455 L484.091,139.636 C484.091,139.636 484.091,139.636 484.091,139.636 C484.091,139.636 484.091,139.636 484.091,139.636 L445.909,139.636 C445.909,139.636 445.909,139.636 445.909,139.636 C445.909,139.636 445.909,139.636 445.909,139.636 L445.909,136.455 Z M439.545,136.455 L439.545,139.636 C439.545,141.324 440.216,142.943 441.409,144.136 C442.603,145.33 444.221,146 445.909,146 L484.091,146 C485.779,146 487.397,145.33 488.591,144.136 C489.784,142.943 490.455,141.324 490.455,139.636 L490.455,136.455 C490.455,133.923 489.449,131.495 487.659,129.705 C485.869,127.915 483.441,126.909 480.909,126.909 L449.091,126.909 C446.559,126.909 444.131,127.915 442.341,129.705 C440.551,131.495 439.545,133.923 439.545,136.455 Z" />
            <path d="M469.827,105.223 L474.6,130.677 C474.924,132.404 476.586,133.542 478.314,133.218 C480.041,132.894 481.178,131.232 480.855,129.505 L476.082,104.05 C475.758,102.323 474.095,101.185 472.368,101.509 C470.641,101.833 469.503,103.496 469.827,105.223 Z" />
            <path d="M449.091,107.818 L480.909,107.818 C482.666,107.818 484.091,106.394 484.091,104.636 C484.091,102.879 482.666,101.455 480.909,101.455 L449.091,101.455 C447.334,101.455 445.909,102.879 445.909,104.636 C445.909,106.394 447.334,107.818 449.091,107.818 Z" />
            <path d="M455.4,130.677 L460.173,105.223 C460.497,103.496 459.359,101.833 457.632,101.509 C455.905,101.185 454.242,102.323 453.918,104.05 L449.145,129.505 C448.822,131.232 449.959,132.894 451.686,133.218 C453.414,133.542 455.076,132.404 455.4,130.677 Z" />
            <path d="M455.455,91.909 C455.455,86.637 459.728,82.364 465,82.364 C470.272,82.364 474.545,86.637 474.545,91.909 C474.545,97.181 470.272,101.455 465,101.455 C459.728,101.455 455.455,97.181 455.455,91.909 Z M449.091,91.909 C449.091,100.695 456.214,107.818 465,107.818 C473.786,107.818 480.909,100.695 480.909,91.909 C480.909,83.123 473.786,76 465,76 C456.214,76 449.091,83.123 449.091,91.909 Z" />
        </g>
        <g id="Black-M" transform="translate(0,200)">
            <path d="M645.909,136.455 C645.909,135.611 646.244,134.801 646.841,134.205 C647.438,133.608 648.247,133.273 649.091,133.273 L680.909,133.273 C681.753,133.273 682.562,133.608 683.159,134.205 C683.756,134.801 684.091,135.611 684.091,136.455 L684.091,139.636 C684.091,139.636 684.091,139.636 684.091,139.636 C684.091,139.636 684.091,139.636 684.091,139.636 L645.909,139.636 C645.909,139.636 645.909,139.636 645.909,139.636 C645.909,139.636 645.909,139.636 645.909,139.636 L645.909,136.455 Z M639.545,136.455 L639.545,139.636 C639.545,141.324 640.216,142.943 641.409,144.136 C642.603,145.33 644.221,146 645.909,146 L684.091,146 C685.779,146 687.397,145.33 688.591,144.136 C689.784,142.943 690.455,141.324 690.455,139.636 L690.455,136.455 C690.455,133.923 689.449,131.495 687.659,129.705 C685.869,127.915 683.441,126.909 680.909,126.909 L649.091,126.909 C646.559,126.909 644.131,127.915 642.341,129.705 C640.551,131.495 639.545,133.923 639.545,136.455 Z" />
            <path d="M669.827,105.223 L674.6,130.677 C674.924,132.404 676.586,133.542 678.314,133.218 C680.041,132.894 681.178,131.232 680.855,129.505 L676.082,104.05 C675.758,102.323 674.095,101.185 672.368,101.509 C670.641,101.833 669.503,103.496 669.827,105.223 Z" />
            <path d="M649.091,107.818 L680.909,107.818 C682.666,107.818 684.091,106.394 684.091,104.636 C684.091,102.879 682.666,101.455 680.909,101.455 L649.091,101.455 C647.334,101.455 645.909,102.879 645.909,104.636 C645.909,106.394 647.334,107.818 649.091,107.818 Z" />
            <path d="M655.4,130.677 L660.173,105.223 C660.497,103.496 659.359,101.833 657.632,101.509 C655.905,101.185 654.242,102.323 653.918,104.05 L649.145,129.505 C648.822,131.232 649.959,132.894 651.686,133.218 C653.414,133.542 655.076,132.404 655.4,130.677 Z" />
            <path d="M655.455,91.909 C655.455,86.637 659.728,82.364 665,82.364 C670.272,82.364 674.545,86.637 674.545,91.909 C674.545,97.181 670.272,101.455 665,101.455 C659.728,101.455 655.455,97.181 655.455,91.909 Z M649.091,91.909 C649.091,100.695 656.214,107.818 665,107.818 C673.786,107.818 680.909,100.695 680.909,91.909 C680.909,83.123 673.786,76 665,76 C656.214,76 649.091,83.123 649.091,91.909 Z" />
        </g>
    </g>
</svg>