<?xml version="1.0" encoding="UTF-8"?>
<svg height="600" width="800" xmlns="http://www.w3.org/2000/svg" xmlns:xlink="http://www.w3.org/1999/xlink">
    <g id="Notes" font-family="LucidaGrande, 'Lucida Grande', sans-serif" font-size="13">
        <rect fill="white" height="600.0" width="800.0" x="0.0" y="0.0" />
        <g font-size="13">
            <text x="18.0" y="176.0">Small</text>
            <text x="18.0" y="376.0">Medium</text>
            <text x="18.0" y="576.0">Large</text>
        </g>
        <g font-size="9">
            <text x="250.0" y="30.0">Ultralight</text>
            <text x="450.0" y="30.0">Regular</text>
            <text x="650.0" y="30.0">Black</text>
            <text id="template-version" fill="#505050" text-anchor="end" x="785.0" y="575.0">Template v.3.0</text>
            <a href="https://github.com/swhitty/SwiftDraw">
                <text fill="#505050" text-anchor="end" x="785.0" y="590.0">https://github.com/swhitty/SwiftDraw</text>
            </a>
        </g>
    </g>
    <g id="Guides" stroke="rgb(39, 170, 225)" stroke-width="0.5">
        <path id="Capline-S" d="M18,76 l800,0" />
        <path id="H-reference" d="M85,145.755 L87.685,145.755 L113.369,79.287 L114.052,79.287 L114.052,76 L112.148,76 L85,145.755 Z M95.693,121.536 L130.996,121.536 L130.263,119.313 L96.474,119.313 L95.693,121.536 Z M139.15,145.755 L141.787,145.755 L114.638,76 L113.466,76 L113.466,79.287 L139.15,145.755 Z" stroke="none" transform="translate(0,200)" />
        <path id="Baseline-S" d="M18,146 l800,0" />
        <path id="left-margin-Ultralight-M" d="M233.182,256 l0,110" />
        <path id="right-margin-Ultralight-M" d="M296.818,256 l0,110" />
        <path id="left-margin-Regular-M" d="M433.182,256 l0,110" />
        <path id="right-margin-Regular-M" d="M496.818,256 l0,110" />
        <path id="left-margin-Black-M" d="M633.182,256 l0,110" />
        <path id="right-margin-Black-M" d="M696.818,256 l0,110" />
        <path id="Capline-M" d="M18,276 l800,0" />
        <path id="Baseline-M" d="M18,346 l800,0" />
        <path id="Capline-L" d="M18,476 l800,0" />
        <path id="Baseline-L" d="M18,546 l800,0" />
    </g>
    <g id="Symbols">
        <g id="Ultralight-M" transform="translate(0,200)">
            <path d="M261.818,91.909 L261.818,142.818 C261.818,144.575 263.243,146 265,146 C266.757,146 268.182,144.575 268.182,142.818 L268.182,91.909 C268.182,90.152 266.757,88.727 265,88.727 C263.243,88.727 261.818,90.152 261.818,91.909 Z" />
            <path d="M288.696,117.028 L295.059,113.846 L290.455,111 C290.455,125.058 279.058,136.455 265,136.455 C250.942,136.455 239.545,125.058 239.545,111 L234.941,113.846 L241.304,117.028 C242.876,117.814 244.787,117.177 245.573,115.605 C246.359,114.033 245.722,112.122 244.15,111.336 L237.787,108.154 C235.671,107.096 233.182,108.635 233.182,111 C233.182,128.573 247.427,142.818 265,142.818 C282.573,142.818 296.818,128.573 296.818,111 C296.818,108.635 294.329,107.096 292.213,108.154 L285.85,111.336 C284.278,112.122 283.641,114.033 284.427,115.605 C285.213,117.177 287.124,117.814 288.696,117.028 Z" />
            <path d="M255.455,111 L274.545,111 C276.303,111 277.727,109.575 277.727,107.818 C277.727,106.061 276.303,104.636 274.545,104.636 L255.455,104.636 C253.697,104.636 252.273,106.061 252.273,107.818 C252.273,109.575 253.697,111 255.455,111 Z" />
            <path d="M261.818,85.545 C261.818,83.788 263.243,82.364 265,82.364 C266.757,82.364 268.182,83.788 268.182,85.545 C268.182,87.303 266.757,88.727 265,88.727 C263.243,88.727 261.818,87.303 261.818,85.545 Z M255.455,85.545 C255.455,90.817 259.728,95.091 265,95.091 C270.272,95.091 274.545,90.817 274.545,85.545 C274.545,80.274 270.272,76 265,76 C259.728,76 255.455,80.274 255.455,85.545 Z" />
        </g>
        <g id="Regular-M" transform="translate(0,200)">
            <path d="M461.818,91.909 L461.818,142.818 C461.818,144.575 463.243,146 465,146 C466.757,146 468.182,144.575 468.182,142.818 L468.182,91.909 C468.182,90.152 466.757,88.727 465,88.727 C463.243,88.727 461.818,90.152 461.818,91.909 Z" />
            <path d="M488.696,117.028 L495.059,113.846 L490.455,111 C490.455,125.058 479.058,136.455 465,136.455 C450.942,136.455 439.545,125.058 439.545,111 L434.941,113.846 L441.304,117.028 C442.876,117.814 444.787,117.177 445.573,115.605 C446.359,114.033 445.722,112.122 444.15,111.336 L437.787,108.154 C435.671,107.096 433.182,108.635 433.182,111 C433.182,128.573 447.427,142.818 465,142.818 C482.573,142.818 496.818,128.573 496.818,111 C496.818,108.635 494.329,107.096 492.213,108.154 L485.85,111.336 C484.278,112.122 483.641,114.033 484.427,115.605 C485.213,117.177 487.124,117.814 488.696,117.028 Z" />
            <path d="M455.455,111 L474.545,111 C476.303,111 477.727,109.575 477.727,107.818 C477.727,106.061 476.303,104.636 474.545,104.636 L455.455,104.636 C453.697,104.636 452.273,106.061 452.273,107.818 C452.273,109.575 453.697,111 455.455,111 Z" />
            <path d="M461.818,85.545 C461.818,83.788 463.243,82.364 465,82.364 C466.757,82.364 468.182,83.788 468.182,85.545 C468.182,87.303 466.757,88.727 465,88.727 C463.243,88.727 461.818,87.303 461.818,85.545 Z M455.455,85.545 C455.455,90.817 459.728,95.091 465,95.091 C470.272,95.091 474.545,90.817 474.545,85.545 C474.545,80.274 470.272,76 465,76 C459.728,76 455.455,80.274 455.455,85.545 Z" />
        </g>
        <g id="Black-M" transform="translate(0,200)">
            <path d="M661.818,91.909 L661.818,142.818 C661.818,144.575 663.243,146 665,146 C666.757,146 668.182,144.575 668.182,142.818 L668.182,91.909 C668.182,90.152 666.757,88.727 665,88.727 C663.243,88.727 661.818,90.152 661.818,91.909 Z" />
            <path d="M688.696,117.028 L695.059,113.846 L690.455,111 C690.455,125.058 679.058,136.455 665,136.455 C650.942,136.455 639.545,125.058 639.545,111 L634.941,113.846 L641.304,117.028 C642.876,117.814 644.787,117.177 645.573,115.605 C646.359,114.033 645.722,112.122 644.15,111.336 L637.787,108.154 C635.671,107.096 633.182,108.635 633.182,111 C633.182,128.573 647.427,142.818 665,142.818 C682.573,142.818 696.818,128.573 696.818,111 C696.818,108.635 694.329,107.096 692.213,108.154 L685.85,111.336 C684.278,112.122 683.641,114.033 684.427,115.605 C685.213,117.177 687.124,117.814 688.696,117.028 Z" />
            <path d="M655.455,111 L674.545,111 C676.303,111 677.727,109.575 677.727,107.818 C677.727,106.061 676.303,104.636 674.545,104.636 L655.455,104.636 C653.697,104.636 652.273,106.061 652.273,107.818 C652.273,109.575 653.697,111 655.455,111 Z" />
            <path d="M661.818,85.545 C661.818,83.788 663.243,82.364 665,82.364 C666.757,82.364 668.182,83.788 668.182,85.545 C668.182,87.303 666.757,88.727 665,88.727 C663.243,88.727 661.818,87.303 661.818,85.545 Z M655.455,85.545 C655.455,90.817 659.728,95.091 665,95.091 C670.272,95.091 674.545,90.817 674.545,85.545 C674.545,80.274 670.272,76 665,76 C659.728,76 655.455,80.274 655.455,85.545 Z" />
        </g>
    </g>
</svg>