<?xml version="1.0" encoding="UTF-8"?>
<svg height="600" width="800" xmlns="http://www.w3.org/2000/svg" xmlns:xlink="http://www.w3.org/1999/xlink">
    <g id="Notes" font-family="LucidaGrande, 'Lucida Grande', sans-serif" font-size="13">
        <rect fill="white" height="600.0" width="800.0" x="0.0" y="0.0" />
        <g font-size="13">
            <text x="18.0" y="176.0">Small</text>
            <text x="18.0" y="376.0">Medium</text>
            <text x="18.0" y="576.0">Large</text>
        </g>
        <g font-size="9">
            <text x="250.0" y="30.0">Ultralight</text>
            <text x="450.0" y="30.0">Regular</text>
            <text x="650.0" y="30.0">Black</text>
            <text id="template-version" fill="#505050" text-anchor="end" x="785.0" y="575.0">Template v.3.0</text>
            <a href="https://github.com/swhitty/SwiftDraw">
                <text fill="#505050" text-anchor="end" x="785.0" y="590.0">https://github.com/swhitty/SwiftDraw</text>
            </a>
        </g>
    </g>
    <g id="Guides" stroke="rgb(39, 170, 225)" stroke-width="0.5">
        <path id="Capline-S" d="M18,76 l800,0" />
        <path id="H-reference" d="M85,145.755 L87.685,145.755 L113.369,79.287 L114.052,79.287 L114.052,76 L112.148,76 L85,145.755 Z M95.693,121.536 L130.996,121.536 L130.263,119.313 L96.474,119.313 L95.693,121.536 Z M139.15,145.755 L141.787,145.755 L114.638,76 L113.466,76 L113.466,79.287 L139.15,145.755 Z" stroke="none" transform="translate(0,200)" />
        <path id="Baseline-S" d="M18,146 l800,0" />
        <path id="left-margin-Ultralight-M" d="M230,256 l0,110" />
        <path id="right-margin-Ultralight-M" d="M300,256 l0,110" />
        <path id="left-margin-Regular-M" d="M430,256 l0,110" />
        <path id="right-margin-Regular-M" d="M500,256 l0,110" />
        <path id="left-margin-Black-M" d="M630,256 l0,110" />
        <path id="right-margin-Black-M" d="M700,256 l0,110" />
        <path id="Capline-M" d="M18,276 l800,0" />
        <path id="Baseline-M" d="M18,346 l800,0" />
        <path id="Capline-L" d="M18,476 l800,0" />
        <path id="Baseline-L" d="M18,546 l800,0" />
    </g>
    <g id="Symbols">
        <g id="Ultralight-M" transform="translate(0,200)">
            <path d="M262.748,115.112 L259.567,118.294 C258.324,119.536 258.324,121.551 259.567,122.793 C260.809,124.036 262.824,124.036 264.066,122.793 L267.248,119.612 C268.491,118.369 268.491,116.354 267.248,115.112 C266.006,113.869 263.991,113.869 262.748,115.112 Z" />
            <path d="M268.178,128.782 L264.201,133.3 C263.04,134.619 263.168,136.629 264.487,137.79 C265.806,138.952 267.816,138.824 268.977,137.505 L272.955,132.986 C274.116,131.667 273.988,129.657 272.669,128.496 C271.35,127.335 269.339,127.463 268.178,128.782 Z" />
            <path d="M282.719,87.693 C262.118,92.021 246.023,108.115 241.693,128.715 C241.332,130.435 242.433,132.122 244.153,132.483 C245.872,132.845 247.559,131.744 247.921,130.024 C251.731,111.894 265.897,97.73 284.027,93.921 C285.747,93.56 286.848,91.873 286.487,90.153 C286.125,88.433 284.438,87.332 282.719,87.693 Z" />
            <path d="M285.797,99.338 C277.336,101.645 272.348,110.375 274.656,118.835 C276.963,127.296 285.692,132.284 294.153,129.977 C295.848,129.514 296.848,127.765 296.385,126.07 C295.923,124.374 294.174,123.375 292.479,123.837 C287.409,125.22 282.178,122.231 280.795,117.161 C279.412,112.091 282.401,106.86 287.471,105.477 C289.167,105.015 290.166,103.266 289.704,101.57 C289.241,99.875 287.492,98.876 285.797,99.338 Z" />
            <path d="M293.636,139.636 C293.636,139.636 293.636,139.636 293.636,139.636 C293.636,139.636 293.636,139.636 293.636,139.636 L236.362,123.727 C236.363,123.727 236.363,123.727 236.363,123.727 C236.363,123.727 236.363,123.727 236.363,123.727 C241.944,103.638 257.638,87.944 277.724,82.364 C277.727,82.363 277.727,82.363 277.727,82.363 C277.727,82.363 277.727,82.363 277.727,82.363 L293.635,139.633 Z M299.767,137.93 L283.858,80.658 C283.405,79.03 282.324,77.651 280.854,76.821 C279.384,75.992 277.644,75.78 276.018,76.234 C253.785,82.41 236.41,99.785 230.233,122.021 C229.78,123.644 229.992,125.384 230.821,126.854 C231.651,128.324 233.03,129.405 234.657,129.858 L291.93,145.767 C294.138,146.383 296.512,145.76 298.136,144.136 C299.76,142.512 300.383,140.138 299.766,137.926 Z" />
        </g>
        <g id="Regular-M" transform="translate(0,200)">
            <path d="M462.748,115.112 L459.567,118.294 C458.324,119.536 458.324,121.551 459.567,122.793 C460.809,124.036 462.824,124.036 464.066,122.793 L467.248,119.612 C468.491,118.369 468.491,116.354 467.248,115.112 C466.006,113.869 463.991,113.869 462.748,115.112 Z" />
            <path d="M468.178,128.782 L464.201,133.3 C463.04,134.619 463.168,136.629 464.487,137.79 C465.806,138.952 467.816,138.824 468.977,137.505 L472.955,132.986 C474.116,131.667 473.988,129.657 472.669,128.496 C471.35,127.335 469.339,127.463 468.178,128.782 Z" />
            <path d="M482.719,87.693 C462.118,92.021 446.023,108.115 441.693,128.715 C441.332,130.435 442.433,132.122 444.153,132.483 C445.872,132.845 447.559,131.744 447.921,130.024 C451.731,111.894 465.897,97.73 484.027,93.921 C485.747,93.56 486.848,91.873 486.487,90.153 C486.125,88.433 484.438,87.332 482.719,87.693 Z" />
            <path d="M485.797,99.338 C477.336,101.645 472.348,110.375 474.656,118.835 C476.963,127.296 485.692,132.284 494.153,129.977 C495.848,129.514 496.848,127.765 496.385,126.07 C495.923,124.374 494.174,123.375 492.479,123.837 C487.409,125.22 482.178,122.231 480.795,117.161 C479.412,112.091 482.401,106.86 487.471,105.477 C489.167,105.015 490.166,103.266 489.704,101.57 C489.241,99.875 487.492,98.876 485.797,99.338 Z" />
            <path d="M493.636,139.636 C493.636,139.636 493.636,139.636 493.636,139.636 C493.636,139.636 493.636,139.636 493.636,139.636 L436.362,123.727 C436.363,123.727 436.363,123.727 436.363,123.727 C436.363,123.727 436.363,123.727 436.363,123.727 C441.944,103.638 457.638,87.944 477.724,82.364 C477.727,82.363 477.727,82.363 477.727,82.363 C477.727,82.363 477.727,82.363 477.727,82.363 L493.635,139.633 Z M499.767,137.93 L483.858,80.658 C483.405,79.03 482.324,77.651 480.854,76.821 C479.384,75.992 477.644,75.78 476.018,76.234 C453.785,82.41 436.41,99.785 430.233,122.021 C429.78,123.644 429.992,125.384 430.821,126.854 C431.651,128.324 433.03,129.405 434.657,129.858 L491.93,145.767 C494.138,146.383 496.512,145.76 498.136,144.136 C499.76,142.512 500.383,140.138 499.766,137.926 Z" />
        </g>
        <g id="Black-M" transform="translate(0,200)">
            <path d="M662.748,115.112 L659.567,118.294 C658.324,119.536 658.324,121.551 659.567,122.793 C660.809,124.036 662.824,124.036 664.066,122.793 L667.248,119.612 C668.491,118.369 668.491,116.354 667.248,115.112 C666.006,113.869 663.991,113.869 662.748,115.112 Z" />
            <path d="M668.178,128.782 L664.201,133.3 C663.04,134.619 663.168,136.629 664.487,137.79 C665.806,138.952 667.816,138.824 668.977,137.505 L672.955,132.986 C674.116,131.667 673.988,129.657 672.669,128.496 C671.35,127.335 669.339,127.463 668.178,128.782 Z" />
            <path d="M682.719,87.693 C662.118,92.021 646.023,108.115 641.693,128.715 C641.332,130.435 642.433,132.122 644.153,132.483 C645.872,132.845 647.559,131.744 647.921,130.024 C651.731,111.894 665.897,97.73 684.027,93.921 C685.747,93.56 686.848,91.873 686.487,90.153 C686.125,88.433 684.438,87.332 682.719,87.693 Z" />
            <path d="M685.797,99.338 C677.336,101.645 672.348,110.375 674.656,118.835 C676.963,127.296 685.692,132.284 694.153,129.977 C695.848,129.514 696.848,127.765 696.385,126.07 C695.923,124.374 694.174,123.375 692.479,123.837 C687.409,125.22 682.178,122.231 680.795,117.161 C679.412,112.091 682.401,106.86 687.471,105.477 C689.167,105.015 690.166,103.266 689.704,101.57 C689.241,99.875 687.492,98.876 685.797,99.338 Z" />
            <path d="M693.636,139.636 C693.636,139.636 693.636,139.636 693.636,139.636 C693.636,139.636 693.636,139.636 693.636,139.636 L636.362,123.727 C636.363,123.727 636.363,123.727 636.363,123.727 C636.363,123.727 636.363,123.727 636.363,123.727 C641.944,103.638 657.638,87.944 677.724,82.364 C677.727,82.363 677.727,82.363 677.727,82.363 C677.727,82.363 677.727,82.363 677.727,82.363 L693.635,139.633 Z M699.767,137.93 L683.858,80.658 C683.405,79.03 682.324,77.651 680.854,76.821 C679.384,75.992 677.644,75.78 676.018,76.234 C653.785,82.41 636.41,99.785 630.233,122.021 C629.78,123.644 629.992,125.384 630.821,126.854 C631.651,128.324 633.03,129.405 634.657,129.858 L691.93,145.767 C694.138,146.383 696.512,145.76 698.136,144.136 C699.76,142.512 700.383,140.138 699.766,137.926 Z" />
        </g>
    </g>
</svg>