<?xml version="1.0" encoding="UTF-8"?>
<svg height="600" width="800" xmlns="http://www.w3.org/2000/svg" xmlns:xlink="http://www.w3.org/1999/xlink">
    <g id="Notes" font-family="LucidaGrande, 'Lucida Grande', sans-serif" font-size="13">
        <rect fill="white" height="600.0" width="800.0" x="0.0" y="0.0" />
        <g font-size="13">
            <text x="18.0" y="176.0">Small</text>
            <text x="18.0" y="376.0">Medium</text>
            <text x="18.0" y="576.0">Large</text>
        </g>
        <g font-size="9">
            <text x="250.0" y="30.0">Ultralight</text>
            <text x="450.0" y="30.0">Regular</text>
            <text x="650.0" y="30.0">Black</text>
            <text id="template-version" fill="#505050" text-anchor="end" x="785.0" y="575.0">Template v.3.0</text>
            <a href="https://github.com/swhitty/SwiftDraw">
                <text fill="#505050" text-anchor="end" x="785.0" y="590.0">https://github.com/swhitty/SwiftDraw</text>
            </a>
        </g>
    </g>
    <g id="Guides" stroke="rgb(39, 170, 225)" stroke-width="0.5">
        <path id="Capline-S" d="M18,76 l800,0" />
        <path id="H-reference" d="M85,145.755 L87.685,145.755 L113.369,79.287 L114.052,79.287 L114.052,76 L112.148,76 L85,145.755 Z M95.693,121.536 L130.996,121.536 L130.263,119.313 L96.474,119.313 L95.693,121.536 Z M139.15,145.755 L141.787,145.755 L114.638,76 L113.466,76 L113.466,79.287 L139.15,145.755 Z" stroke="none" transform="translate(0,200)" />
        <path id="Baseline-S" d="M18,146 l800,0" />
        <path id="left-margin-Ultralight-M" d="M221,256 l0,110" />
        <path id="right-margin-Ultralight-M" d="M309,256 l0,110" />
        <path id="left-margin-Regular-M" d="M421,256 l0,110" />
        <path id="right-margin-Regular-M" d="M509,256 l0,110" />
        <path id="left-margin-Black-M" d="M621,256 l0,110" />
        <path id="right-margin-Black-M" d="M709,256 l0,110" />
        <path id="Capline-M" d="M18,276 l800,0" />
        <path id="Baseline-M" d="M18,346 l800,0" />
        <path id="Capline-L" d="M18,476 l800,0" />
        <path id="Baseline-L" d="M18,546 l800,0" />
    </g>
    <g id="Symbols">
        <g id="Ultralight-M" transform="translate(0,200)">
            <path d="M265,141.25 L265.055,141.25 C268.093,141.25 270.555,138.993 270.555,136.208 C270.555,133.424 268.093,131.166 265.055,131.166 L265,131.166 C261.962,131.166 259.5,133.424 259.5,136.208 C259.5,138.993 261.962,141.25 265,141.25 Z" />
            <path d="M230.35,103.805 C249.598,86.51 280.402,86.51 299.65,103.805 C301.819,105.754 305.301,105.722 307.428,103.734 C309.554,101.745 309.519,98.553 307.35,96.604 C283.825,75.465 246.175,75.465 222.65,96.604 C220.481,98.553 220.446,101.745 222.572,103.734 C224.699,105.722 228.181,105.754 230.35,103.805 Z" />
            <path d="M249.6,121.804 C258.155,114.118 271.845,114.118 280.4,121.804 C282.569,123.753 286.051,123.722 288.178,121.733 C290.304,119.744 290.269,116.552 288.1,114.603 C275.268,103.073 254.732,103.073 241.9,114.603 C239.731,116.552 239.696,119.744 241.822,121.733 C243.949,123.722 247.431,123.753 249.6,121.804 Z" />
        </g>
        <g id="Regular-M" transform="translate(0,200)">
            <path d="M465,141.25 L465.055,141.25 C468.093,141.25 470.555,138.993 470.555,136.208 C470.555,133.424 468.093,131.166 465.055,131.166 L465,131.166 C461.962,131.166 459.5,133.424 459.5,136.208 C459.5,138.993 461.962,141.25 465,141.25 Z" />
            <path d="M430.35,103.805 C449.598,86.51 480.402,86.51 499.65,103.805 C501.819,105.754 505.301,105.722 507.428,103.734 C509.554,101.745 509.519,98.553 507.35,96.604 C483.825,75.465 446.175,75.465 422.65,96.604 C420.481,98.553 420.446,101.745 422.572,103.734 C424.699,105.722 428.181,105.754 430.35,103.805 Z" />
            <path d="M449.6,121.804 C458.155,114.118 471.845,114.118 480.4,121.804 C482.569,123.753 486.051,123.722 488.178,121.733 C490.304,119.744 490.269,116.552 488.1,114.603 C475.268,103.073 454.732,103.073 441.9,114.603 C439.731,116.552 439.696,119.744 441.822,121.733 C443.949,123.722 447.431,123.753 449.6,121.804 Z" />
        </g>
        <g id="Black-M" transform="translate(0,200)">
            <path d="M665,141.25 L665.055,141.25 C668.093,141.25 670.555,138.993 670.555,136.208 C670.555,133.424 668.093,131.166 665.055,131.166 L665,131.166 C661.962,131.166 659.5,133.424 659.5,136.208 C659.5,138.993 661.962,141.25 665,141.25 Z" />
            <path d="M630.35,103.805 C649.598,86.51 680.402,86.51 699.65,103.805 C701.819,105.754 705.302,105.722 707.428,103.734 C709.554,101.745 709.519,98.553 707.35,96.604 C683.825,75.465 646.175,75.465 622.65,96.604 C620.481,98.553 620.446,101.745 622.572,103.734 C624.698,105.722 628.181,105.754 630.35,103.805 Z" />
            <path d="M649.6,121.804 C658.155,114.118 671.845,114.118 680.4,121.804 C682.569,123.753 686.052,123.722 688.178,121.733 C690.304,119.744 690.269,116.552 688.1,114.603 C675.268,103.073 654.732,103.073 641.9,114.603 C639.731,116.552 639.696,119.744 641.822,121.733 C643.948,123.722 647.431,123.753 649.6,121.804 Z" />
        </g>
    </g>
</svg>