<?xml version="1.0" encoding="UTF-8"?>
<svg height="600" width="800" xmlns="http://www.w3.org/2000/svg" xmlns:xlink="http://www.w3.org/1999/xlink">
    <g id="Notes" font-family="LucidaGrande, 'Lucida Grande', sans-serif" font-size="13">
        <rect fill="white" height="600.0" width="800.0" x="0.0" y="0.0" />
        <g font-size="13">
            <text x="18.0" y="176.0">Small</text>
            <text x="18.0" y="376.0">Medium</text>
            <text x="18.0" y="576.0">Large</text>
        </g>
        <g font-size="9">
            <text x="250.0" y="30.0">Ultralight</text>
            <text x="450.0" y="30.0">Regular</text>
            <text x="650.0" y="30.0">Black</text>
            <text id="template-version" fill="#505050" text-anchor="end" x="785.0" y="575.0">Template v.3.0</text>
            <a href="https://github.com/swhitty/SwiftDraw">
                <text fill="#505050" text-anchor="end" x="785.0" y="590.0">https://github.com/swhitty/SwiftDraw</text>
            </a>
        </g>
    </g>
    <g id="Guides" stroke="rgb(39, 170, 225)" stroke-width="0.5">
        <path id="Capline-S" d="M18,76 l800,0" />
        <path id="H-reference" d="M85,145.755 L87.685,145.755 L113.369,79.287 L114.052,79.287 L114.052,76 L112.148,76 L85,145.755 Z M95.693,121.536 L130.996,121.536 L130.263,119.313 L96.474,119.313 L95.693,121.536 Z M139.15,145.755 L141.787,145.755 L114.638,76 L113.466,76 L113.466,79.287 L139.15,145.755 Z" stroke="none" transform="translate(0,200)" />
        <path id="Baseline-S" d="M18,146 l800,0" />
        <path id="left-margin-Ultralight-M" d="M233.182,256 l0,110" />
        <path id="right-margin-Ultralight-M" d="M296.818,256 l0,110" />
        <path id="left-margin-Regular-M" d="M433.182,256 l0,110" />
        <path id="right-margin-Regular-M" d="M496.818,256 l0,110" />
        <path id="left-margin-Black-M" d="M633.182,256 l0,110" />
        <path id="right-margin-Black-M" d="M696.818,256 l0,110" />
        <path id="Capline-M" d="M18,276 l800,0" />
        <path id="Baseline-M" d="M18,346 l800,0" />
        <path id="Capline-L" d="M18,476 l800,0" />
        <path id="Baseline-L" d="M18,546 l800,0" />
    </g>
    <g id="Symbols">
        <g id="Ultralight-M" transform="translate(0,200)">
            <path d="M274.545,76 L261.818,76 C259.287,76 256.859,77.006 255.069,78.796 C253.278,80.586 252.273,83.014 252.273,85.545 L252.273,120.545 C252.273,123.077 253.278,125.505 255.069,127.295 C256.859,129.085 259.287,130.091 261.818,130.091 L287.273,130.091 C289.804,130.091 292.232,129.085 294.022,127.295 C295.812,125.505 296.818,123.077 296.818,120.545 L296.818,98.273 C296.818,96.515 295.394,95.091 293.636,95.091 C291.879,95.091 290.455,96.515 290.455,98.273 L290.455,120.545 C290.455,121.389 290.119,122.199 289.523,122.795 C288.926,123.392 288.117,123.727 287.273,123.727 L261.818,123.727 C260.974,123.727 260.165,123.392 259.568,122.795 C258.972,122.199 258.636,121.389 258.636,120.545 L258.636,85.545 C258.636,84.702 258.972,83.892 259.568,83.296 C260.165,82.699 260.974,82.364 261.818,82.364 L274.545,82.364 C276.303,82.364 277.727,80.939 277.727,79.182 C277.727,77.425 276.303,76 274.545,76 Z" />
            <path d="M282.228,79.182 C280.191,77.139 277.423,75.993 274.538,76 C272.783,76.004 271.364,77.428 271.364,79.182 L271.364,95.091 C271.364,96.779 272.034,98.397 273.227,99.591 C274.421,100.784 276.04,101.455 277.727,101.455 L293.636,101.455 C295.391,101.455 296.814,100.035 296.818,98.281 C296.825,95.396 295.68,92.627 293.636,90.591 L282.224,79.178 Z M277.724,83.678 L289.14,95.095 C289.986,95.937 290.457,97.077 290.455,98.265 L293.636,98.273 L293.636,95.091 L277.727,95.091 C277.727,95.091 277.727,95.091 277.727,95.091 C277.727,95.091 277.727,95.091 277.727,95.091 L277.727,79.182 L274.545,79.182 L274.553,82.364 C275.741,82.361 276.881,82.832 277.72,83.674 Z" />
            <path d="M242.727,91.909 C240.196,91.909 237.768,92.915 235.978,94.705 C234.188,96.495 233.182,98.923 233.182,101.455 L233.182,136.455 C233.182,138.986 234.188,141.414 235.978,143.204 C237.768,144.994 240.196,146 242.727,146 L268.182,146 C271.592,146 274.743,144.181 276.448,141.227 C277.327,139.705 276.805,137.759 275.284,136.881 C273.762,136.002 271.816,136.524 270.937,138.045 C270.369,139.03 269.318,139.636 268.182,139.636 L242.727,139.636 C241.883,139.636 241.074,139.301 240.477,138.704 C239.881,138.108 239.545,137.298 239.545,136.455 L239.545,101.455 C239.545,100.611 239.881,99.801 240.477,99.205 C241.074,98.608 241.883,98.273 242.727,98.273 C244.485,98.273 245.909,96.848 245.909,95.091 C245.909,93.334 244.485,91.909 242.727,91.909 Z" />
        </g>
        <g id="Regular-M" transform="translate(0,200)">
            <path d="M474.545,76 L461.818,76 C459.287,76 456.859,77.006 455.069,78.796 C453.278,80.586 452.273,83.014 452.273,85.545 L452.273,120.545 C452.273,123.077 453.278,125.505 455.069,127.295 C456.859,129.085 459.287,130.091 461.818,130.091 L487.273,130.091 C489.804,130.091 492.232,129.085 494.022,127.295 C495.812,125.505 496.818,123.077 496.818,120.545 L496.818,98.273 C496.818,96.515 495.394,95.091 493.636,95.091 C491.879,95.091 490.455,96.515 490.455,98.273 L490.455,120.545 C490.455,121.389 490.119,122.199 489.523,122.795 C488.926,123.392 488.117,123.727 487.273,123.727 L461.818,123.727 C460.974,123.727 460.165,123.392 459.568,122.795 C458.972,122.199 458.636,121.389 458.636,120.545 L458.636,85.545 C458.636,84.702 458.972,83.892 459.568,83.296 C460.165,82.699 460.974,82.364 461.818,82.364 L474.545,82.364 C476.303,82.364 477.727,80.939 477.727,79.182 C477.727,77.425 476.303,76 474.545,76 Z" />
            <path d="M482.228,79.182 C480.191,77.139 477.423,75.993 474.538,76 C472.783,76.004 471.364,77.428 471.364,79.182 L471.364,95.091 C471.364,96.779 472.034,98.397 473.227,99.591 C474.421,100.784 476.04,101.455 477.727,101.455 L493.636,101.455 C495.391,101.455 496.814,100.035 496.818,98.281 C496.825,95.396 495.68,92.627 493.636,90.591 L482.224,79.178 Z M477.724,83.678 L489.14,95.095 C489.986,95.937 490.457,97.077 490.455,98.265 L493.636,98.273 L493.636,95.091 L477.727,95.091 C477.727,95.091 477.727,95.091 477.727,95.091 C477.727,95.091 477.727,95.091 477.727,95.091 L477.727,79.182 L474.545,79.182 L474.553,82.364 C475.741,82.361 476.881,82.832 477.72,83.674 Z" />
            <path d="M442.727,91.909 C440.196,91.909 437.768,92.915 435.978,94.705 C434.188,96.495 433.182,98.923 433.182,101.455 L433.182,136.455 C433.182,138.986 434.188,141.414 435.978,143.204 C437.768,144.994 440.196,146 442.727,146 L468.182,146 C471.592,146 474.743,144.181 476.448,141.227 C477.327,139.705 476.805,137.759 475.284,136.881 C473.762,136.002 471.816,136.524 470.937,138.045 C470.369,139.03 469.318,139.636 468.182,139.636 L442.727,139.636 C441.883,139.636 441.074,139.301 440.477,138.704 C439.881,138.108 439.545,137.298 439.545,136.455 L439.545,101.455 C439.545,100.611 439.881,99.801 440.477,99.205 C441.074,98.608 441.883,98.273 442.727,98.273 C444.485,98.273 445.909,96.848 445.909,95.091 C445.909,93.334 444.485,91.909 442.727,91.909 Z" />
        </g>
        <g id="Black-M" transform="translate(0,200)">
            <path d="M674.545,76 L661.818,76 C659.287,76 656.859,77.006 655.069,78.796 C653.278,80.586 652.273,83.014 652.273,85.545 L652.273,120.545 C652.273,123.077 653.278,125.505 655.069,127.295 C656.859,129.085 659.287,130.091 661.818,130.091 L687.273,130.091 C689.804,130.091 692.232,129.085 694.022,127.295 C695.812,125.505 696.818,123.077 696.818,120.545 L696.818,98.273 C696.818,96.515 695.394,95.091 693.636,95.091 C691.879,95.091 690.455,96.515 690.455,98.273 L690.455,120.545 C690.455,121.389 690.119,122.199 689.523,122.795 C688.926,123.392 688.117,123.727 687.273,123.727 L661.818,123.727 C660.974,123.727 660.165,123.392 659.568,122.795 C658.972,122.199 658.636,121.389 658.636,120.545 L658.636,85.545 C658.636,84.702 658.972,83.892 659.568,83.296 C660.165,82.699 660.974,82.364 661.818,82.364 L674.545,82.364 C676.303,82.364 677.727,80.939 677.727,79.182 C677.727,77.425 676.303,76 674.545,76 Z" />
            <path d="M682.228,79.182 C680.191,77.139 677.423,75.993 674.538,76 C672.783,76.004 671.364,77.428 671.364,79.182 L671.364,95.091 C671.364,96.779 672.034,98.397 673.227,99.591 C674.421,100.784 676.04,101.455 677.727,101.455 L693.636,101.455 C695.391,101.455 696.814,100.035 696.818,98.281 C696.825,95.396 695.68,92.627 693.636,90.591 L682.224,79.178 Z M677.724,83.678 L689.14,95.095 C689.986,95.937 690.458,97.077 690.455,98.265 L693.636,98.273 L693.636,95.091 L677.727,95.091 C677.727,95.091 677.727,95.091 677.727,95.091 C677.727,95.091 677.727,95.091 677.727,95.091 L677.727,79.182 L674.545,79.182 L674.553,82.364 C675.741,82.361 676.881,82.832 677.72,83.674 Z" />
            <path d="M642.727,91.909 C640.196,91.909 637.768,92.915 635.978,94.705 C634.188,96.495 633.182,98.923 633.182,101.455 L633.182,136.455 C633.182,138.986 634.188,141.414 635.978,143.204 C637.768,144.994 640.196,146 642.727,146 L668.182,146 C671.592,146 674.743,144.181 676.448,141.227 C677.327,139.705 676.805,137.759 675.284,136.881 C673.762,136.002 671.816,136.524 670.937,138.045 C670.369,139.03 669.318,139.636 668.182,139.636 L642.727,139.636 C641.883,139.636 641.074,139.301 640.477,138.704 C639.881,138.108 639.545,137.298 639.545,136.455 L639.545,101.455 C639.545,100.611 639.881,99.801 640.477,99.205 C641.074,98.608 641.883,98.273 642.727,98.273 C644.485,98.273 645.909,96.848 645.909,95.091 C645.909,93.334 644.485,91.909 642.727,91.909 Z" />
        </g>
    </g>
</svg>