<?xml version="1.0" encoding="UTF-8"?>
<svg height="600" width="800" xmlns="http://www.w3.org/2000/svg" xmlns:xlink="http://www.w3.org/1999/xlink">
    <g id="Notes" font-family="LucidaGrande, 'Lucida Grande', sans-serif" font-size="13">
        <rect fill="white" height="600.0" width="800.0" x="0.0" y="0.0" />
        <g font-size="13">
            <text x="18.0" y="176.0">Small</text>
            <text x="18.0" y="376.0">Medium</text>
            <text x="18.0" y="576.0">Large</text>
        </g>
        <g font-size="9">
            <text x="250.0" y="30.0">Ultralight</text>
            <text x="450.0" y="30.0">Regular</text>
            <text x="650.0" y="30.0">Black</text>
            <text id="template-version" fill="#505050" text-anchor="end" x="785.0" y="575.0">Template v.3.0</text>
            <a href="https://github.com/swhitty/SwiftDraw">
                <text fill="#505050" text-anchor="end" x="785.0" y="590.0">https://github.com/swhitty/SwiftDraw</text>
            </a>
        </g>
    </g>
    <g id="Guides" stroke="rgb(39, 170, 225)" stroke-width="0.5">
        <path id="Capline-S" d="M18,76 l800,0" />
        <path id="H-reference" d="M85,145.755 L87.685,145.755 L113.369,79.287 L114.052,79.287 L114.052,76 L112.148,76 L85,145.755 Z M95.693,121.536 L130.996,121.536 L130.263,119.313 L96.474,119.313 L95.693,121.536 Z M139.15,145.755 L141.787,145.755 L114.638,76 L113.466,76 L113.466,79.287 L139.15,145.755 Z" stroke="none" transform="translate(0,200)" />
        <path id="Baseline-S" d="M18,146 l800,0" />
        <path id="left-margin-Ultralight-M" d="M230,256 l0,110" />
        <path id="right-margin-Ultralight-M" d="M300,256 l0,110" />
        <path id="left-margin-Regular-M" d="M430,256 l0,110" />
        <path id="right-margin-Regular-M" d="M500,256 l0,110" />
        <path id="left-margin-Black-M" d="M630,256 l0,110" />
        <path id="right-margin-Black-M" d="M700,256 l0,110" />
        <path id="Capline-M" d="M18,276 l800,0" />
        <path id="Baseline-M" d="M18,346 l800,0" />
        <path id="Capline-L" d="M18,476 l800,0" />
        <path id="Baseline-L" d="M18,546 l800,0" />
    </g>
    <g id="Symbols">
        <g id="Ultralight-M" transform="translate(0,200)">
            <path d="M258.636,101.455 C258.636,101.454 258.636,101.454 258.636,101.454 C258.636,101.454 258.636,101.454 258.636,101.454 L274.544,110.995 C274.552,111 274.552,111 274.552,111 C274.552,111 274.552,111 274.552,111 L258.645,120.54 C258.636,120.546 258.636,120.546 258.636,120.546 C258.636,120.546 258.636,120.546 258.636,120.546 L258.636,101.464 Z M252.273,101.464 L252.273,120.533 C252.263,122.82 253.497,124.947 255.498,126.081 C257.499,127.216 259.957,127.182 261.926,125.993 L277.817,116.462 C279.736,115.319 280.916,113.242 280.916,111 C280.916,108.758 279.736,106.681 277.81,105.534 L261.918,96.002 C259.958,94.819 257.502,94.784 255.501,95.917 C253.5,97.05 252.266,99.174 252.273,101.474 Z" />
            <path d="M236.364,111 C236.364,95.185 249.185,82.364 265,82.364 C280.815,82.364 293.636,95.185 293.636,111 C293.636,126.815 280.815,139.636 265,139.636 C249.185,139.636 236.364,126.815 236.364,111 Z M230,111 C230,130.33 245.67,146 265,146 C284.33,146 300,130.33 300,111 C300,91.67 284.33,76 265,76 C245.67,76 230,91.67 230,111 Z" />
        </g>
        <g id="Regular-M" transform="translate(0,200)">
            <path d="M458.636,101.455 C458.636,101.454 458.636,101.454 458.636,101.454 C458.636,101.454 458.636,101.454 458.636,101.454 L474.544,110.995 C474.552,111 474.552,111 474.552,111 C474.552,111 474.552,111 474.552,111 L458.645,120.54 C458.636,120.546 458.636,120.546 458.636,120.546 C458.636,120.546 458.636,120.546 458.636,120.546 L458.636,101.464 Z M452.273,101.464 L452.273,120.533 C452.263,122.82 453.497,124.947 455.498,126.081 C457.499,127.216 459.957,127.182 461.926,125.993 L477.817,116.462 C479.736,115.319 480.916,113.242 480.916,111 C480.916,108.758 479.736,106.681 477.81,105.534 L461.918,96.002 C459.958,94.819 457.502,94.784 455.501,95.917 C453.5,97.05 452.266,99.174 452.273,101.474 Z" />
            <path d="M436.364,111 C436.364,95.185 449.185,82.364 465,82.364 C480.815,82.364 493.636,95.185 493.636,111 C493.636,126.815 480.815,139.636 465,139.636 C449.185,139.636 436.364,126.815 436.364,111 Z M430,111 C430,130.33 445.67,146 465,146 C484.33,146 500,130.33 500,111 C500,91.67 484.33,76 465,76 C445.67,76 430,91.67 430,111 Z" />
        </g>
        <g id="Black-M" transform="translate(0,200)">
            <path d="M658.636,101.455 C658.636,101.454 658.636,101.454 658.636,101.454 C658.636,101.454 658.636,101.454 658.636,101.454 L674.544,110.995 C674.552,111 674.552,111 674.552,111 C674.552,111 674.552,111 674.552,111 L658.645,120.54 C658.636,120.546 658.636,120.546 658.636,120.546 C658.636,120.546 658.636,120.546 658.636,120.546 L658.636,101.464 Z M652.273,101.464 L652.273,120.533 C652.263,122.82 653.497,124.947 655.498,126.081 C657.499,127.216 659.957,127.182 661.926,125.993 L677.818,116.462 C679.736,115.319 680.916,113.242 680.916,111 C680.916,108.758 679.736,106.681 677.81,105.534 L661.918,96.002 C659.958,94.819 657.502,94.784 655.501,95.917 C653.5,97.05 652.266,99.174 652.273,101.474 Z" />
            <path d="M636.364,111 C636.364,95.185 649.185,82.364 665,82.364 C680.815,82.364 693.636,95.185 693.636,111 C693.636,126.815 680.815,139.636 665,139.636 C649.185,139.636 636.364,126.815 636.364,111 Z M630,111 C630,130.33 645.67,146 665,146 C684.33,146 700,130.33 700,111 C700,91.67 684.33,76 665,76 C645.67,76 630,91.67 630,111 Z" />
        </g>
    </g>
</svg>