<?xml version="1.0" encoding="UTF-8"?>
<svg height="600" width="800" xmlns="http://www.w3.org/2000/svg" xmlns:xlink="http://www.w3.org/1999/xlink">
    <g id="Notes" font-family="LucidaGrande, 'Lucida Grande', sans-serif" font-size="13">
        <rect fill="white" height="600.0" width="800.0" x="0.0" y="0.0" />
        <g font-size="13">
            <text x="18.0" y="176.0">Small</text>
            <text x="18.0" y="376.0">Medium</text>
            <text x="18.0" y="576.0">Large</text>
        </g>
        <g font-size="9">
            <text x="250.0" y="30.0">Ultralight</text>
            <text x="450.0" y="30.0">Regular</text>
            <text x="650.0" y="30.0">Black</text>
            <text id="template-version" fill="#505050" text-anchor="end" x="785.0" y="575.0">Template v.3.0</text>
            <a href="https://github.com/swhitty/SwiftDraw">
                <text fill="#505050" text-anchor="end" x="785.0" y="590.0">https://github.com/swhitty/SwiftDraw</text>
            </a>
        </g>
    </g>
    <g id="Guides" stroke="rgb(39, 170, 225)" stroke-width="0.5">
        <path id="Capline-S" d="M18,76 l800,0" />
        <path id="H-reference" d="M85,145.755 L87.685,145.755 L113.369,79.287 L114.052,79.287 L114.052,76 L112.148,76 L85,145.755 Z M95.693,121.536 L130.996,121.536 L130.263,119.313 L96.474,119.313 L95.693,121.536 Z M139.15,145.755 L141.787,145.755 L114.638,76 L113.466,76 L113.466,79.287 L139.15,145.755 Z" stroke="none" transform="translate(0,200)" />
        <path id="Baseline-S" d="M18,146 l800,0" />
        <path id="left-margin-Ultralight-M" d="M230,256 l0,110" />
        <path id="right-margin-Ultralight-M" d="M300,256 l0,110" />
        <path id="left-margin-Regular-M" d="M430,256 l0,110" />
        <path id="right-margin-Regular-M" d="M500,256 l0,110" />
        <path id="left-margin-Black-M" d="M630,256 l0,110" />
        <path id="right-margin-Black-M" d="M700,256 l0,110" />
        <path id="Capline-M" d="M18,276 l800,0" />
        <path id="Baseline-M" d="M18,346 l800,0" />
        <path id="Capline-L" d="M18,476 l800,0" />
        <path id="Baseline-L" d="M18,546 l800,0" />
    </g>
    <g id="Symbols">
        <g id="Ultralight-M" transform="translate(0,200)">
            <path d="M281.841,81.432 L294.568,94.159 C295.811,95.402 297.826,95.402 299.068,94.159 C300.311,92.916 300.311,90.902 299.068,89.659 L286.341,76.932 C285.098,75.689 283.084,75.689 281.841,76.932 C280.598,78.175 280.598,80.189 281.841,81.432 Z" />
            <path d="M283.159,97.341 L292.704,87.795 C293.947,86.553 293.947,84.538 292.704,83.296 C291.462,82.053 289.447,82.053 288.205,83.296 L278.659,92.841 C277.417,94.084 277.417,96.098 278.659,97.341 C279.902,98.583 281.916,98.583 283.159,97.341 Z" />
            <path d="M285.023,99.205 L252.25,131.977 C250.331,133.896 247.665,133.896 246.047,132.099 L244.023,130.068 C242.104,128.149 242.104,125.483 243.901,123.865 L276.795,90.977 C278.038,89.735 278.038,87.72 276.795,86.477 C275.553,85.235 273.538,85.235 272.296,86.477 L239.523,119.25 C235.078,123.244 235.078,130.123 239.523,134.568 L241.432,136.477 C245.426,140.922 252.305,140.922 256.75,136.477 L289.523,103.704 C290.765,102.462 290.765,100.447 289.523,99.205 C288.28,97.962 286.265,97.962 285.023,99.205 Z" />
            <path d="M253.205,110.068 L265.932,122.795 C267.174,124.038 269.189,124.038 270.432,122.795 C271.674,121.553 271.674,119.538 270.432,118.296 L257.704,105.568 C256.462,104.326 254.447,104.326 253.205,105.568 C251.962,106.811 251.962,108.825 253.205,110.068 Z" />
            <path d="M240.477,131.023 L230.932,140.568 C229.689,141.811 229.689,143.825 230.932,145.068 C232.175,146.311 234.189,146.311 235.432,145.068 L244.977,135.523 C246.22,134.28 246.22,132.265 244.977,131.023 C243.735,129.78 241.72,129.78 240.477,131.023 Z" />
            <path d="M269.114,87.795 L288.205,106.886 C289.447,108.129 291.462,108.129 292.704,106.886 C293.947,105.644 293.947,103.629 292.704,102.386 L273.614,83.296 C272.371,82.053 270.356,82.053 269.114,83.296 C267.871,84.538 267.871,86.553 269.114,87.795 Z" />
        </g>
        <g id="Regular-M" transform="translate(0,200)">
            <path d="M481.841,81.432 L494.568,94.159 C495.811,95.402 497.826,95.402 499.068,94.159 C500.311,92.916 500.311,90.902 499.068,89.659 L486.341,76.932 C485.098,75.689 483.084,75.689 481.841,76.932 C480.598,78.175 480.598,80.189 481.841,81.432 Z" />
            <path d="M483.159,97.341 L492.704,87.795 C493.947,86.553 493.947,84.538 492.704,83.296 C491.462,82.053 489.447,82.053 488.205,83.296 L478.659,92.841 C477.417,94.084 477.417,96.098 478.659,97.341 C479.902,98.583 481.916,98.583 483.159,97.341 Z" />
            <path d="M485.023,99.205 L452.25,131.977 C450.331,133.896 447.665,133.896 446.047,132.099 L444.023,130.068 C442.104,128.149 442.104,125.483 443.901,123.865 L476.795,90.977 C478.038,89.735 478.038,87.72 476.795,86.477 C475.553,85.235 473.538,85.235 472.296,86.477 L439.523,119.25 C435.078,123.244 435.078,130.123 439.523,134.568 L441.432,136.477 C445.426,140.922 452.305,140.922 456.75,136.477 L489.523,103.704 C490.765,102.462 490.765,100.447 489.523,99.205 C488.28,97.962 486.265,97.962 485.023,99.205 Z" />
            <path d="M453.205,110.068 L465.932,122.795 C467.174,124.038 469.189,124.038 470.432,122.795 C471.674,121.553 471.674,119.538 470.432,118.296 L457.704,105.568 C456.462,104.326 454.447,104.326 453.205,105.568 C451.962,106.811 451.962,108.825 453.205,110.068 Z" />
            <path d="M440.477,131.023 L430.932,140.568 C429.689,141.811 429.689,143.825 430.932,145.068 C432.174,146.311 434.189,146.311 435.432,145.068 L444.977,135.523 C446.22,134.28 446.22,132.265 444.977,131.023 C443.735,129.78 441.72,129.78 440.477,131.023 Z" />
            <path d="M469.114,87.795 L488.205,106.886 C489.447,108.129 491.462,108.129 492.704,106.886 C493.947,105.644 493.947,103.629 492.704,102.386 L473.614,83.296 C472.371,82.053 470.356,82.053 469.114,83.296 C467.871,84.538 467.871,86.553 469.114,87.795 Z" />
        </g>
        <g id="Black-M" transform="translate(0,200)">
            <path d="M681.841,81.432 L694.568,94.159 C695.811,95.402 697.826,95.402 699.068,94.159 C700.311,92.916 700.311,90.902 699.068,89.659 L686.341,76.932 C685.098,75.689 683.084,75.689 681.841,76.932 C680.598,78.175 680.598,80.189 681.841,81.432 Z" />
            <path d="M683.159,97.341 L692.704,87.795 C693.947,86.553 693.947,84.538 692.704,83.296 C691.462,82.053 689.447,82.053 688.205,83.296 L678.659,92.841 C677.417,94.084 677.417,96.098 678.659,97.341 C679.902,98.583 681.916,98.583 683.159,97.341 Z" />
            <path d="M685.023,99.205 L652.25,131.977 C650.331,133.896 647.665,133.896 646.047,132.099 L644.023,130.068 C642.104,128.149 642.104,125.483 643.901,123.865 L676.795,90.977 C678.038,89.735 678.038,87.72 676.795,86.477 C675.553,85.235 673.538,85.235 672.296,86.477 L639.523,119.25 C635.078,123.244 635.078,130.123 639.523,134.568 L641.432,136.477 C645.426,140.922 652.305,140.922 656.75,136.477 L689.523,103.704 C690.765,102.462 690.765,100.447 689.523,99.205 C688.28,97.962 686.265,97.962 685.023,99.205 Z" />
            <path d="M653.205,110.068 L665.932,122.795 C667.174,124.038 669.189,124.038 670.432,122.795 C671.674,121.553 671.674,119.538 670.432,118.296 L657.704,105.568 C656.462,104.326 654.447,104.326 653.205,105.568 C651.962,106.811 651.962,108.825 653.205,110.068 Z" />
            <path d="M640.477,131.023 L630.932,140.568 C629.689,141.811 629.689,143.825 630.932,145.068 C632.174,146.311 634.189,146.311 635.432,145.068 L644.977,135.523 C646.22,134.28 646.22,132.265 644.977,131.023 C643.735,129.78 641.72,129.78 640.477,131.023 Z" />
            <path d="M669.114,87.795 L688.205,106.886 C689.447,108.129 691.462,108.129 692.704,106.886 C693.947,105.644 693.947,103.629 692.704,102.386 L673.614,83.296 C672.371,82.053 670.356,82.053 669.114,83.296 C667.871,84.538 667.871,86.553 669.114,87.795 Z" />
        </g>
    </g>
</svg>