<?xml version="1.0" encoding="UTF-8"?>
<svg height="600" width="800" xmlns="http://www.w3.org/2000/svg" xmlns:xlink="http://www.w3.org/1999/xlink">
    <g id="Notes" font-family="LucidaGrande, 'Lucida Grande', sans-serif" font-size="13">
        <rect fill="white" height="600.0" width="800.0" x="0.0" y="0.0" />
        <g font-size="13">
            <text x="18.0" y="176.0">Small</text>
            <text x="18.0" y="376.0">Medium</text>
            <text x="18.0" y="576.0">Large</text>
        </g>
        <g font-size="9">
            <text x="250.0" y="30.0">Ultralight</text>
            <text x="450.0" y="30.0">Regular</text>
            <text x="650.0" y="30.0">Black</text>
            <text id="template-version" fill="#505050" text-anchor="end" x="785.0" y="575.0">Template v.3.0</text>
            <a href="https://github.com/swhitty/SwiftDraw">
                <text fill="#505050" text-anchor="end" x="785.0" y="590.0">https://github.com/swhitty/SwiftDraw</text>
            </a>
        </g>
    </g>
    <g id="Guides" stroke="rgb(39, 170, 225)" stroke-width="0.5">
        <path id="Capline-S" d="M18,76 l800,0" />
        <path id="H-reference" d="M85,145.755 L87.685,145.755 L113.369,79.287 L114.052,79.287 L114.052,76 L112.148,76 L85,145.755 Z M95.693,121.536 L130.996,121.536 L130.263,119.313 L96.474,119.313 L95.693,121.536 Z M139.15,145.755 L141.787,145.755 L114.638,76 L113.466,76 L113.466,79.287 L139.15,145.755 Z" stroke="none" transform="translate(0,200)" />
        <path id="Baseline-S" d="M18,146 l800,0" />
        <path id="left-margin-Ultralight-M" d="M233.182,256 l0,110" />
        <path id="right-margin-Ultralight-M" d="M296.818,256 l0,110" />
        <path id="left-margin-Regular-M" d="M433.182,256 l0,110" />
        <path id="right-margin-Regular-M" d="M496.818,256 l0,110" />
        <path id="left-margin-Black-M" d="M633.182,256 l0,110" />
        <path id="right-margin-Black-M" d="M696.818,256 l0,110" />
        <path id="Capline-M" d="M18,276 l800,0" />
        <path id="Baseline-M" d="M18,346 l800,0" />
        <path id="Capline-L" d="M18,476 l800,0" />
        <path id="Baseline-L" d="M18,546 l800,0" />
    </g>
    <g id="Symbols">
        <g id="Ultralight-M" transform="translate(0,200)">
            <path d="M265,120.545 L265,136.455 C265,137.298 264.665,138.108 264.068,138.704 C263.471,139.301 262.662,139.636 261.818,139.636 L242.727,139.636 C241.883,139.636 241.074,139.301 240.477,138.704 C239.881,138.108 239.545,137.298 239.545,136.455 L239.545,104.636 C239.545,103.792 239.881,102.983 240.477,102.386 C241.074,101.79 241.883,101.455 242.727,101.455 L261.818,101.455 C262.662,101.455 263.471,101.79 264.068,102.386 C264.665,102.983 265,103.792 265,104.636 L265,120.545 Z M271.364,120.545 L271.364,104.636 C271.364,102.105 270.358,99.677 268.568,97.887 C266.778,96.097 264.35,95.091 261.818,95.091 L242.727,95.091 C240.196,95.091 237.768,96.097 235.978,97.887 C234.188,99.677 233.182,102.105 233.182,104.636 L233.182,136.455 C233.182,138.986 234.188,141.414 235.978,143.204 C237.768,144.994 240.196,146 242.727,146 L261.818,146 C264.35,146 266.778,144.994 268.568,143.204 C270.358,141.414 271.364,138.986 271.364,136.455 L271.364,120.545 Z" />
            <path d="M245.909,85.545 C245.909,84.702 246.244,83.892 246.841,83.296 C247.438,82.699 248.247,82.364 249.091,82.364 L287.273,82.364 C288.117,82.364 288.926,82.699 289.523,83.296 C290.119,83.892 290.455,84.702 290.455,85.545 L290.455,136.455 C290.455,137.298 290.119,138.108 289.523,138.704 C288.926,139.301 288.117,139.636 287.273,139.636 L279.636,139.636 C277.879,139.636 276.455,141.061 276.455,142.818 C276.455,144.575 277.879,146 279.636,146 L287.273,146 C289.804,146 292.232,144.994 294.022,143.204 C295.812,141.414 296.818,138.986 296.818,136.455 L296.818,85.545 C296.818,83.014 295.812,80.586 294.022,78.796 C292.232,77.006 289.804,76 287.273,76 L249.091,76 C246.559,76 244.131,77.006 242.341,78.796 C240.551,80.586 239.545,83.014 239.545,85.545 C239.545,87.303 240.97,88.727 242.727,88.727 C244.485,88.727 245.909,87.303 245.909,85.545 Z" />
            <path d="M252.273,133.273 L252.305,133.273 C254.062,133.273 255.486,131.848 255.486,130.091 C255.486,128.334 254.062,126.909 252.305,126.909 L252.273,126.909 C250.515,126.909 249.091,128.334 249.091,130.091 C249.091,131.848 250.515,133.273 252.273,133.273 Z" />
        </g>
        <g id="Regular-M" transform="translate(0,200)">
            <path d="M465,120.545 L465,136.455 C465,137.298 464.665,138.108 464.068,138.704 C463.471,139.301 462.662,139.636 461.818,139.636 L442.727,139.636 C441.883,139.636 441.074,139.301 440.477,138.704 C439.881,138.108 439.545,137.298 439.545,136.455 L439.545,104.636 C439.545,103.792 439.881,102.983 440.477,102.386 C441.074,101.79 441.883,101.455 442.727,101.455 L461.818,101.455 C462.662,101.455 463.471,101.79 464.068,102.386 C464.665,102.983 465,103.792 465,104.636 L465,120.545 Z M471.364,120.545 L471.364,104.636 C471.364,102.105 470.358,99.677 468.568,97.887 C466.778,96.097 464.35,95.091 461.818,95.091 L442.727,95.091 C440.196,95.091 437.768,96.097 435.978,97.887 C434.188,99.677 433.182,102.105 433.182,104.636 L433.182,136.455 C433.182,138.986 434.188,141.414 435.978,143.204 C437.768,144.994 440.196,146 442.727,146 L461.818,146 C464.35,146 466.778,144.994 468.568,143.204 C470.358,141.414 471.364,138.986 471.364,136.455 L471.364,120.545 Z" />
            <path d="M445.909,85.545 C445.909,84.702 446.244,83.892 446.841,83.296 C447.438,82.699 448.247,82.364 449.091,82.364 L487.273,82.364 C488.117,82.364 488.926,82.699 489.523,83.296 C490.119,83.892 490.455,84.702 490.455,85.545 L490.455,136.455 C490.455,137.298 490.119,138.108 489.523,138.704 C488.926,139.301 488.117,139.636 487.273,139.636 L479.636,139.636 C477.879,139.636 476.455,141.061 476.455,142.818 C476.455,144.575 477.879,146 479.636,146 L487.273,146 C489.804,146 492.232,144.994 494.022,143.204 C495.812,141.414 496.818,138.986 496.818,136.455 L496.818,85.545 C496.818,83.014 495.812,80.586 494.022,78.796 C492.232,77.006 489.804,76 487.273,76 L449.091,76 C446.559,76 444.131,77.006 442.341,78.796 C440.551,80.586 439.545,83.014 439.545,85.545 C439.545,87.303 440.97,88.727 442.727,88.727 C444.485,88.727 445.909,87.303 445.909,85.545 Z" />
            <path d="M452.273,133.273 L452.305,133.273 C454.062,133.273 455.486,131.848 455.486,130.091 C455.486,128.334 454.062,126.909 452.305,126.909 L452.273,126.909 C450.515,126.909 449.091,128.334 449.091,130.091 C449.091,131.848 450.515,133.273 452.273,133.273 Z" />
        </g>
        <g id="Black-M" transform="translate(0,200)">
            <path d="M665,120.545 L665,136.455 C665,137.298 664.665,138.108 664.068,138.704 C663.471,139.301 662.662,139.636 661.818,139.636 L642.727,139.636 C641.883,139.636 641.074,139.301 640.477,138.704 C639.881,138.108 639.545,137.298 639.545,136.455 L639.545,104.636 C639.545,103.792 639.881,102.983 640.477,102.386 C641.074,101.79 641.883,101.455 642.727,101.455 L661.818,101.455 C662.662,101.455 663.471,101.79 664.068,102.386 C664.665,102.983 665,103.792 665,104.636 L665,120.545 Z M671.364,120.545 L671.364,104.636 C671.364,102.105 670.358,99.677 668.568,97.887 C666.778,96.097 664.35,95.091 661.818,95.091 L642.727,95.091 C640.196,95.091 637.768,96.097 635.978,97.887 C634.188,99.677 633.182,102.105 633.182,104.636 L633.182,136.455 C633.182,138.986 634.188,141.414 635.978,143.204 C637.768,144.994 640.196,146 642.727,146 L661.818,146 C664.35,146 666.778,144.994 668.568,143.204 C670.358,141.414 671.364,138.986 671.364,136.455 L671.364,120.545 Z" />
            <path d="M645.909,85.545 C645.909,84.702 646.244,83.892 646.841,83.296 C647.438,82.699 648.247,82.364 649.091,82.364 L687.273,82.364 C688.117,82.364 688.926,82.699 689.523,83.296 C690.119,83.892 690.455,84.702 690.455,85.545 L690.455,136.455 C690.455,137.298 690.119,138.108 689.523,138.704 C688.926,139.301 688.117,139.636 687.273,139.636 L679.636,139.636 C677.879,139.636 676.455,141.061 676.455,142.818 C676.455,144.575 677.879,146 679.636,146 L687.273,146 C689.804,146 692.232,144.994 694.022,143.204 C695.812,141.414 696.818,138.986 696.818,136.455 L696.818,85.545 C696.818,83.014 695.812,80.586 694.022,78.796 C692.232,77.006 689.804,76 687.273,76 L649.091,76 C646.559,76 644.131,77.006 642.341,78.796 C640.551,80.586 639.545,83.014 639.545,85.545 C639.545,87.303 640.97,88.727 642.727,88.727 C644.485,88.727 645.909,87.303 645.909,85.545 Z" />
            <path d="M652.273,133.273 L652.305,133.273 C654.062,133.273 655.486,131.848 655.486,130.091 C655.486,128.334 654.062,126.909 652.305,126.909 L652.273,126.909 C650.515,126.909 649.091,128.334 649.091,130.091 C649.091,131.848 650.515,133.273 652.273,133.273 Z" />
        </g>
    </g>
</svg>