<?xml version="1.0" encoding="UTF-8"?>
<svg height="600" width="800" xmlns="http://www.w3.org/2000/svg" xmlns:xlink="http://www.w3.org/1999/xlink">
    <g id="Notes" font-family="LucidaGrande, 'Lucida Grande', sans-serif" font-size="13">
        <rect fill="white" height="600.0" width="800.0" x="0.0" y="0.0" />
        <g font-size="13">
            <text x="18.0" y="176.0">Small</text>
            <text x="18.0" y="376.0">Medium</text>
            <text x="18.0" y="576.0">Large</text>
        </g>
        <g font-size="9">
            <text x="250.0" y="30.0">Ultralight</text>
            <text x="450.0" y="30.0">Regular</text>
            <text x="650.0" y="30.0">Black</text>
            <text id="template-version" fill="#505050" text-anchor="end" x="785.0" y="575.0">Template v.3.0</text>
            <a href="https://github.com/swhitty/SwiftDraw">
                <text fill="#505050" text-anchor="end" x="785.0" y="590.0">https://github.com/swhitty/SwiftDraw</text>
            </a>
        </g>
    </g>
    <g id="Guides" stroke="rgb(39, 170, 225)" stroke-width="0.5">
        <path id="Capline-S" d="M18,76 l800,0" />
        <path id="H-reference" d="M85,145.755 L87.685,145.755 L113.369,79.287 L114.052,79.287 L114.052,76 L112.148,76 L85,145.755 Z M95.693,121.536 L130.996,121.536 L130.263,119.313 L96.474,119.313 L95.693,121.536 Z M139.15,145.755 L141.787,145.755 L114.638,76 L113.466,76 L113.466,79.287 L139.15,145.755 Z" stroke="none" transform="translate(0,200)" />
        <path id="Baseline-S" d="M18,146 l800,0" />
        <path id="left-margin-Ultralight-M" d="M236.364,256 l0,110" />
        <path id="right-margin-Ultralight-M" d="M293.636,256 l0,110" />
        <path id="left-margin-Regular-M" d="M436.364,256 l0,110" />
        <path id="right-margin-Regular-M" d="M493.636,256 l0,110" />
        <path id="left-margin-Black-M" d="M636.364,256 l0,110" />
        <path id="right-margin-Black-M" d="M693.636,256 l0,110" />
        <path id="Capline-M" d="M18,276 l800,0" />
        <path id="Baseline-M" d="M18,346 l800,0" />
        <path id="Capline-L" d="M18,476 l800,0" />
        <path id="Baseline-L" d="M18,546 l800,0" />
    </g>
    <g id="Symbols">
        <g id="Ultralight-M" transform="translate(0,200)">
            <path d="M260.227,139.636 L245.909,139.636 C245.065,139.636 244.256,139.301 243.659,138.704 C243.062,138.108 242.727,137.298 242.727,136.455 L242.727,85.545 C242.727,84.702 243.062,83.892 243.659,83.296 C244.256,82.699 245.065,82.364 245.909,82.364 L271.364,82.364 C272.559,82.361 273.699,82.832 274.538,83.674 L285.958,95.094 C286.804,95.937 287.276,97.077 287.273,98.265 L287.273,117.364 C287.273,119.121 288.697,120.545 290.455,120.545 C292.212,120.545 293.636,119.121 293.636,117.364 L293.636,98.273 C293.643,95.395 292.498,92.627 290.454,90.591 L279.042,79.178 C277.009,77.139 274.241,75.993 271.356,76 L245.909,76 C243.377,76 240.95,77.006 239.159,78.796 C237.369,80.586 236.364,83.014 236.364,85.545 L236.364,136.455 C236.364,138.986 237.369,141.414 239.159,143.204 C240.95,144.994 243.377,146 245.909,146 L260.227,146 C261.985,146 263.409,144.575 263.409,142.818 C263.409,141.061 261.985,139.636 260.227,139.636 Z" />
            <path d="M268.182,79.182 L268.182,95.091 C268.182,96.779 268.852,98.397 270.046,99.591 C271.239,100.784 272.858,101.455 274.545,101.455 L290.455,101.455 C292.212,101.455 293.636,100.03 293.636,98.273 C293.636,96.515 292.212,95.091 290.455,95.091 L274.545,95.091 C274.545,95.091 274.545,95.091 274.545,95.091 C274.545,95.091 274.545,95.091 274.545,95.091 L274.545,79.182 C274.545,77.425 273.121,76 271.364,76 C269.606,76 268.182,77.425 268.182,79.182 Z" />
            <path d="M269.114,138.704 L275.477,145.068 C276.72,146.311 278.735,146.311 279.977,145.068 L292.704,132.341 C293.947,131.098 293.947,129.084 292.704,127.841 C291.462,126.598 289.447,126.598 288.205,127.841 L275.477,140.568 L279.977,140.568 L273.613,134.205 C272.371,132.962 270.356,132.962 269.114,134.205 C267.871,135.447 267.871,137.462 269.114,138.704 Z" />
        </g>
        <g id="Regular-M" transform="translate(0,200)">
            <path d="M460.227,139.636 L445.909,139.636 C445.065,139.636 444.256,139.301 443.659,138.704 C443.062,138.108 442.727,137.298 442.727,136.455 L442.727,85.545 C442.727,84.702 443.062,83.892 443.659,83.296 C444.256,82.699 445.065,82.364 445.909,82.364 L471.364,82.364 C472.559,82.361 473.699,82.832 474.538,83.674 L485.958,95.094 C486.804,95.937 487.276,97.077 487.273,98.265 L487.273,117.364 C487.273,119.121 488.697,120.545 490.455,120.545 C492.212,120.545 493.636,119.121 493.636,117.364 L493.636,98.273 C493.643,95.395 492.498,92.627 490.454,90.591 L479.042,79.178 C477.009,77.139 474.241,75.993 471.356,76 L445.909,76 C443.377,76 440.95,77.006 439.159,78.796 C437.369,80.586 436.364,83.014 436.364,85.545 L436.364,136.455 C436.364,138.986 437.369,141.414 439.159,143.204 C440.95,144.994 443.378,146 445.909,146 L460.227,146 C461.985,146 463.409,144.575 463.409,142.818 C463.409,141.061 461.985,139.636 460.227,139.636 Z" />
            <path d="M468.182,79.182 L468.182,95.091 C468.182,96.779 468.852,98.397 470.046,99.591 C471.239,100.784 472.858,101.455 474.545,101.455 L490.455,101.455 C492.212,101.455 493.636,100.03 493.636,98.273 C493.636,96.515 492.212,95.091 490.455,95.091 L474.545,95.091 C474.545,95.091 474.545,95.091 474.545,95.091 C474.545,95.091 474.545,95.091 474.545,95.091 L474.545,79.182 C474.545,77.425 473.121,76 471.364,76 C469.606,76 468.182,77.425 468.182,79.182 Z" />
            <path d="M469.114,138.704 L475.477,145.068 C476.72,146.311 478.735,146.311 479.977,145.068 L492.704,132.341 C493.947,131.098 493.947,129.084 492.704,127.841 C491.462,126.598 489.447,126.598 488.205,127.841 L475.477,140.568 L479.977,140.568 L473.614,134.205 C472.371,132.962 470.356,132.962 469.114,134.205 C467.871,135.447 467.871,137.462 469.114,138.704 Z" />
        </g>
        <g id="Black-M" transform="translate(0,200)">
            <path d="M660.227,139.636 L645.909,139.636 C645.065,139.636 644.256,139.301 643.659,138.704 C643.062,138.108 642.727,137.298 642.727,136.455 L642.727,85.545 C642.727,84.702 643.062,83.892 643.659,83.296 C644.256,82.699 645.065,82.364 645.909,82.364 L671.364,82.364 C672.559,82.361 673.699,82.832 674.538,83.674 L685.958,95.094 C686.804,95.937 687.276,97.077 687.273,98.265 L687.273,117.364 C687.273,119.121 688.697,120.545 690.455,120.545 C692.212,120.545 693.636,119.121 693.636,117.364 L693.636,98.273 C693.643,95.395 692.498,92.627 690.454,90.591 L679.042,79.178 C677.009,77.139 674.241,75.993 671.356,76 L645.909,76 C643.378,76 640.95,77.006 639.159,78.796 C637.369,80.586 636.364,83.014 636.364,85.545 L636.364,136.455 C636.364,138.986 637.369,141.414 639.159,143.204 C640.95,144.994 643.378,146 645.909,146 L660.227,146 C661.985,146 663.409,144.575 663.409,142.818 C663.409,141.061 661.985,139.636 660.227,139.636 Z" />
            <path d="M668.182,79.182 L668.182,95.091 C668.182,96.779 668.852,98.397 670.046,99.591 C671.239,100.784 672.858,101.455 674.545,101.455 L690.455,101.455 C692.212,101.455 693.636,100.03 693.636,98.273 C693.636,96.515 692.212,95.091 690.455,95.091 L674.545,95.091 C674.545,95.091 674.545,95.091 674.545,95.091 C674.545,95.091 674.545,95.091 674.545,95.091 L674.545,79.182 C674.545,77.425 673.121,76 671.364,76 C669.606,76 668.182,77.425 668.182,79.182 Z" />
            <path d="M669.114,138.704 L675.477,145.068 C676.72,146.311 678.735,146.311 679.977,145.068 L692.704,132.341 C693.947,131.098 693.947,129.084 692.704,127.841 C691.462,126.598 689.447,126.598 688.205,127.841 L675.477,140.568 L679.977,140.568 L673.614,134.205 C672.371,132.962 670.356,132.962 669.114,134.205 C667.871,135.447 667.871,137.462 669.114,138.704 Z" />
        </g>
    </g>
</svg>