<?xml version="1.0" encoding="UTF-8"?>
<svg height="600" width="800" xmlns="http://www.w3.org/2000/svg" xmlns:xlink="http://www.w3.org/1999/xlink">
    <g id="Notes" font-family="LucidaGrande, 'Lucida Grande', sans-serif" font-size="13">
        <rect fill="white" height="600.0" width="800.0" x="0.0" y="0.0" />
        <g font-size="13">
            <text x="18.0" y="176.0">Small</text>
            <text x="18.0" y="376.0">Medium</text>
            <text x="18.0" y="576.0">Large</text>
        </g>
        <g font-size="9">
            <text x="250.0" y="30.0">Ultralight</text>
            <text x="450.0" y="30.0">Regular</text>
            <text x="650.0" y="30.0">Black</text>
            <text id="template-version" fill="#505050" text-anchor="end" x="785.0" y="575.0">Template v.3.0</text>
            <a href="https://github.com/swhitty/SwiftDraw">
                <text fill="#505050" text-anchor="end" x="785.0" y="590.0">https://github.com/swhitty/SwiftDraw</text>
            </a>
        </g>
    </g>
    <g id="Guides" stroke="rgb(39, 170, 225)" stroke-width="0.5">
        <path id="Capline-S" d="M18,76 l800,0" />
        <path id="H-reference" d="M85,145.755 L87.685,145.755 L113.369,79.287 L114.052,79.287 L114.052,76 L112.148,76 L85,145.755 Z M95.693,121.536 L130.996,121.536 L130.263,119.313 L96.474,119.313 L95.693,121.536 Z M139.15,145.755 L141.787,145.755 L114.638,76 L113.466,76 L113.466,79.287 L139.15,145.755 Z" stroke="none" transform="translate(0,200)" />
        <path id="Baseline-S" d="M18,146 l800,0" />
        <path id="left-margin-Ultralight-M" d="M226.5,256 l0,110" />
        <path id="right-margin-Ultralight-M" d="M303.5,256 l0,110" />
        <path id="left-margin-Regular-M" d="M426.5,256 l0,110" />
        <path id="right-margin-Regular-M" d="M503.5,256 l0,110" />
        <path id="left-margin-Black-M" d="M626.5,256 l0,110" />
        <path id="right-margin-Black-M" d="M703.5,256 l0,110" />
        <path id="Capline-M" d="M18,276 l800,0" />
        <path id="Baseline-M" d="M18,346 l800,0" />
        <path id="Capline-L" d="M18,476 l800,0" />
        <path id="Baseline-L" d="M18,546 l800,0" />
    </g>
    <g id="Symbols">
        <g id="Ultralight-M" transform="translate(0,200)">
            <path d="M261.5,129.089 L261.5,142.618 C261.5,144.486 263.067,146 265,146 C266.933,146 268.5,144.486 268.5,142.618 L268.5,129.089 C268.5,127.221 266.933,125.706 265,125.706 C263.067,125.706 261.5,127.221 261.5,129.089 Z" />
            <path d="M274.406,100.183 L277.636,98.891 C279.423,98.177 280.271,96.199 279.532,94.473 C278.793,92.747 276.746,91.927 274.96,92.641 L271.729,93.933 C269.943,94.647 269.094,96.626 269.834,98.352 C270.573,100.078 272.62,100.898 274.406,100.183 Z" />
            <path d="M277.639,84.876 L274.409,83.581 C272.624,82.865 270.576,83.683 269.835,85.409 C269.094,87.134 269.941,89.113 271.726,89.829 L274.957,91.124 C276.742,91.84 278.79,91.022 279.531,89.297 C280.272,87.571 279.425,85.592 277.639,84.876 Z" />
            <path d="M285.215,81.212 L283.875,78.087 C283.135,76.362 281.087,75.543 279.301,76.258 C277.516,76.973 276.668,78.952 277.408,80.677 L278.749,83.803 C279.489,85.528 281.536,86.347 283.322,85.632 C285.108,84.917 285.955,82.938 285.215,81.212 Z" />
            <path d="M278.749,99.963 L277.409,103.085 C276.668,104.81 277.515,106.789 279.3,107.505 C281.085,108.221 283.133,107.403 283.874,105.677 L285.215,102.555 C285.956,100.83 285.109,98.851 283.323,98.135 C281.538,97.419 279.49,98.237 278.749,99.963 Z" />
            <path d="M293.251,83.803 L294.592,80.677 C295.332,78.952 294.484,76.973 292.699,76.258 C290.913,75.543 288.865,76.362 288.125,78.087 L286.785,81.212 C286.045,82.938 286.892,84.917 288.678,85.632 C290.464,86.347 292.511,85.528 293.251,83.803 Z" />
            <path d="M294.589,103.092 L293.253,99.967 C292.514,98.24 290.467,97.42 288.681,98.133 C286.894,98.847 286.045,100.825 286.784,102.551 L288.121,105.676 C288.859,107.403 290.906,108.224 292.692,107.51 C294.479,106.796 295.328,104.818 294.589,103.092 Z" />
            <path d="M297.042,91.125 L300.276,89.829 C302.062,89.114 302.909,87.135 302.169,85.41 C301.429,83.684 299.381,82.865 297.596,83.58 L294.362,84.876 C292.576,85.591 291.729,87.57 292.469,89.296 C293.209,91.021 295.257,91.84 297.042,91.125 Z" />
            <path d="M294.362,98.891 L297.596,100.186 C299.381,100.901 301.429,100.082 302.169,98.357 C302.909,96.631 302.062,94.652 300.276,93.937 L297.042,92.642 C295.257,91.926 293.209,92.745 292.469,94.471 C291.729,96.197 292.576,98.175 294.362,98.891 Z" />
            <path d="M296.5,115.559 L296.5,122.324 C296.5,123.221 296.131,124.081 295.475,124.716 C294.818,125.35 293.928,125.706 293,125.706 L237,125.706 C236.072,125.706 235.182,125.35 234.525,124.716 C233.869,124.081 233.5,123.221 233.5,122.324 L233.5,88.501 C233.5,87.604 233.869,86.744 234.525,86.109 C235.182,85.475 236.072,85.119 237,85.119 L261.5,85.119 C263.433,85.119 265,83.604 265,81.736 C265,79.868 263.433,78.354 261.5,78.354 L237,78.354 C234.215,78.354 231.545,79.423 229.575,81.326 C227.606,83.229 226.5,85.81 226.5,88.501 L226.5,122.324 C226.5,125.015 227.606,127.596 229.575,129.499 C231.545,131.402 234.215,132.471 237,132.471 L293,132.471 C295.785,132.471 298.455,131.402 300.425,129.499 C302.394,127.596 303.5,125.015 303.5,122.324 L303.5,115.559 C303.5,113.691 301.933,112.177 300,112.177 C298.067,112.177 296.5,113.691 296.5,115.559 Z" />
            <path d="M251,146 L279,146 C280.933,146 282.5,144.486 282.5,142.618 C282.5,140.75 280.933,139.235 279,139.235 L251,139.235 C249.067,139.235 247.5,140.75 247.5,142.618 C247.5,144.486 249.067,146 251,146 Z" />
            <path d="M279,91.883 C279,88.147 282.134,85.119 286,85.119 C289.866,85.119 293,88.147 293,91.883 C293,95.619 289.866,98.648 286,98.648 C282.134,98.648 279,95.619 279,91.883 Z M272,91.883 C272,99.355 278.268,105.412 286,105.412 C293.732,105.412 300,99.355 300,91.883 C300,84.411 293.732,78.354 286,78.354 C278.268,78.354 272,84.411 272,91.883 Z" />
        </g>
        <g id="Regular-M" transform="translate(0,200)">
            <path d="M461.5,129.089 L461.5,142.618 C461.5,144.486 463.067,146 465,146 C466.933,146 468.5,144.486 468.5,142.618 L468.5,129.089 C468.5,127.221 466.933,125.706 465,125.706 C463.067,125.706 461.5,127.221 461.5,129.089 Z" />
            <path d="M474.406,100.183 L477.636,98.891 C479.423,98.177 480.271,96.199 479.532,94.473 C478.793,92.747 476.746,91.927 474.96,92.641 L471.729,93.933 C469.943,94.647 469.094,96.626 469.834,98.352 C470.573,100.078 472.62,100.898 474.406,100.183 Z" />
            <path d="M477.639,84.876 L474.409,83.581 C472.624,82.865 470.576,83.683 469.835,85.409 C469.094,87.134 469.941,89.113 471.726,89.829 L474.957,91.124 C476.742,91.84 478.79,91.022 479.531,89.297 C480.272,87.571 479.425,85.592 477.639,84.876 Z" />
            <path d="M485.215,81.212 L483.875,78.087 C483.135,76.362 481.087,75.543 479.301,76.258 C477.516,76.973 476.668,78.952 477.408,80.677 L478.749,83.803 C479.489,85.528 481.536,86.347 483.322,85.632 C485.108,84.917 485.955,82.938 485.215,81.212 Z" />
            <path d="M478.749,99.963 L477.409,103.085 C476.668,104.81 477.515,106.789 479.3,107.505 C481.085,108.221 483.133,107.403 483.874,105.677 L485.215,102.555 C485.956,100.83 485.109,98.851 483.323,98.135 C481.538,97.419 479.49,98.237 478.749,99.963 Z" />
            <path d="M493.251,83.803 L494.592,80.677 C495.332,78.952 494.484,76.973 492.699,76.258 C490.913,75.543 488.865,76.362 488.125,78.087 L486.785,81.212 C486.045,82.938 486.892,84.917 488.678,85.632 C490.464,86.347 492.511,85.528 493.251,83.803 Z" />
            <path d="M494.589,103.092 L493.253,99.967 C492.514,98.24 490.467,97.42 488.681,98.133 C486.894,98.847 486.045,100.825 486.784,102.551 L488.121,105.676 C488.859,107.403 490.906,108.224 492.692,107.51 C494.479,106.796 495.328,104.818 494.589,103.092 Z" />
            <path d="M497.042,91.125 L500.276,89.829 C502.062,89.114 502.909,87.135 502.169,85.41 C501.429,83.684 499.381,82.865 497.596,83.58 L494.362,84.876 C492.576,85.591 491.729,87.57 492.469,89.296 C493.209,91.021 495.257,91.84 497.042,91.125 Z" />
            <path d="M494.362,98.891 L497.596,100.186 C499.381,100.901 501.429,100.082 502.169,98.357 C502.909,96.631 502.062,94.652 500.276,93.937 L497.042,92.642 C495.257,91.926 493.209,92.745 492.469,94.471 C491.729,96.197 492.576,98.175 494.362,98.891 Z" />
            <path d="M496.5,115.559 L496.5,122.324 C496.5,123.221 496.131,124.081 495.475,124.716 C494.818,125.35 493.928,125.706 493,125.706 L437,125.706 C436.072,125.706 435.182,125.35 434.525,124.716 C433.869,124.081 433.5,123.221 433.5,122.324 L433.5,88.501 C433.5,87.604 433.869,86.744 434.525,86.109 C435.182,85.475 436.072,85.119 437,85.119 L461.5,85.119 C463.433,85.119 465,83.604 465,81.736 C465,79.868 463.433,78.354 461.5,78.354 L437,78.354 C434.215,78.354 431.545,79.423 429.575,81.326 C427.606,83.229 426.5,85.81 426.5,88.501 L426.5,122.324 C426.5,125.015 427.606,127.596 429.575,129.499 C431.545,131.402 434.215,132.471 437,132.471 L493,132.471 C495.785,132.471 498.455,131.402 500.425,129.499 C502.394,127.596 503.5,125.015 503.5,122.324 L503.5,115.559 C503.5,113.691 501.933,112.177 500,112.177 C498.067,112.177 496.5,113.691 496.5,115.559 Z" />
            <path d="M451,146 L479,146 C480.933,146 482.5,144.486 482.5,142.618 C482.5,140.75 480.933,139.235 479,139.235 L451,139.235 C449.067,139.235 447.5,140.75 447.5,142.618 C447.5,144.486 449.067,146 451,146 Z" />
            <path d="M479,91.883 C479,88.147 482.134,85.119 486,85.119 C489.866,85.119 493,88.147 493,91.883 C493,95.619 489.866,98.648 486,98.648 C482.134,98.648 479,95.619 479,91.883 Z M472,91.883 C472,99.355 478.268,105.412 486,105.412 C493.732,105.412 500,99.355 500,91.883 C500,84.411 493.732,78.354 486,78.354 C478.268,78.354 472,84.411 472,91.883 Z" />
        </g>
        <g id="Black-M" transform="translate(0,200)">
            <path d="M661.5,129.089 L661.5,142.618 C661.5,144.486 663.067,146 665,146 C666.933,146 668.5,144.486 668.5,142.618 L668.5,129.089 C668.5,127.221 666.933,125.706 665,125.706 C663.067,125.706 661.5,127.221 661.5,129.089 Z" />
            <path d="M674.406,100.183 L677.636,98.891 C679.422,98.177 680.271,96.199 679.532,94.473 C678.793,92.747 676.746,91.927 674.96,92.641 L671.729,93.933 C669.943,94.647 669.094,96.626 669.833,98.352 C670.573,100.078 672.62,100.898 674.406,100.183 Z" />
            <path d="M677.639,84.876 L674.409,83.581 C672.624,82.865 670.576,83.683 669.835,85.409 C669.094,87.134 669.941,89.113 671.726,89.829 L674.957,91.124 C676.742,91.84 678.79,91.022 679.531,89.297 C680.272,87.571 679.425,85.592 677.639,84.876 Z" />
            <path d="M685.215,81.212 L683.875,78.087 C683.135,76.362 681.087,75.543 679.301,76.258 C677.516,76.973 676.668,78.952 677.408,80.677 L678.749,83.803 C679.489,85.528 681.536,86.347 683.322,85.632 C685.108,84.917 685.955,82.938 685.215,81.212 Z" />
            <path d="M678.749,99.963 L677.409,103.085 C676.668,104.81 677.515,106.789 679.3,107.505 C681.085,108.221 683.133,107.403 683.874,105.677 L685.215,102.555 C685.956,100.83 685.109,98.851 683.323,98.135 C681.538,97.419 679.49,98.237 678.749,99.963 Z" />
            <path d="M693.251,83.803 L694.592,80.677 C695.332,78.952 694.484,76.973 692.699,76.258 C690.913,75.543 688.865,76.362 688.125,78.087 L686.785,81.212 C686.045,82.938 686.892,84.917 688.678,85.632 C690.464,86.347 692.511,85.528 693.251,83.803 Z" />
            <path d="M694.589,103.092 L693.253,99.967 C692.514,98.24 690.467,97.42 688.681,98.133 C686.894,98.847 686.045,100.825 686.784,102.551 L688.12,105.676 C688.859,107.403 690.906,108.224 692.692,107.51 C694.479,106.796 695.328,104.818 694.589,103.092 Z" />
            <path d="M697.042,91.125 L700.276,89.829 C702.062,89.114 702.909,87.135 702.169,85.41 C701.429,83.684 699.381,82.865 697.596,83.58 L694.362,84.876 C692.576,85.591 691.729,87.57 692.469,89.296 C693.209,91.021 695.257,91.84 697.042,91.125 Z" />
            <path d="M694.362,98.891 L697.596,100.186 C699.381,100.901 701.429,100.082 702.169,98.357 C702.909,96.631 702.062,94.652 700.276,93.937 L697.042,92.642 C695.257,91.926 693.209,92.745 692.469,94.471 C691.729,96.197 692.576,98.175 694.362,98.891 Z" />
            <path d="M696.5,115.559 L696.5,122.324 C696.5,123.221 696.131,124.081 695.475,124.716 C694.818,125.35 693.928,125.706 693,125.706 L637,125.706 C636.072,125.706 635.182,125.35 634.525,124.716 C633.869,124.081 633.5,123.221 633.5,122.324 L633.5,88.501 C633.5,87.604 633.869,86.744 634.525,86.109 C635.182,85.475 636.072,85.119 637,85.119 L661.5,85.119 C663.433,85.119 665,83.604 665,81.736 C665,79.868 663.433,78.354 661.5,78.354 L637,78.354 C634.215,78.354 631.544,79.423 629.575,81.326 C627.606,83.229 626.5,85.81 626.5,88.501 L626.5,122.324 C626.5,125.015 627.606,127.596 629.575,129.499 C631.544,131.402 634.215,132.471 637,132.471 L693,132.471 C695.785,132.471 698.456,131.402 700.425,129.499 C702.394,127.596 703.5,125.015 703.5,122.324 L703.5,115.559 C703.5,113.691 701.933,112.177 700,112.177 C698.067,112.177 696.5,113.691 696.5,115.559 Z" />
            <path d="M651,146 L679,146 C680.933,146 682.5,144.486 682.5,142.618 C682.5,140.75 680.933,139.235 679,139.235 L651,139.235 C649.067,139.235 647.5,140.75 647.5,142.618 C647.5,144.486 649.067,146 651,146 Z" />
            <path d="M679,91.883 C679,88.147 682.134,85.119 686,85.119 C689.866,85.119 693,88.147 693,91.883 C693,95.619 689.866,98.648 686,98.648 C682.134,98.648 679,95.619 679,91.883 Z M672,91.883 C672,99.355 678.268,105.412 686,105.412 C693.732,105.412 700,99.355 700,91.883 C700,84.411 693.732,78.354 686,78.354 C678.268,78.354 672,84.411 672,91.883 Z" />
        </g>
    </g>
</svg>