<?xml version="1.0" encoding="UTF-8"?>
<svg height="600" width="800" xmlns="http://www.w3.org/2000/svg" xmlns:xlink="http://www.w3.org/1999/xlink">
    <g id="Notes" font-family="LucidaGrande, 'Lucida Grande', sans-serif" font-size="13">
        <rect fill="white" height="600.0" width="800.0" x="0.0" y="0.0" />
        <g font-size="13">
            <text x="18.0" y="176.0">Small</text>
            <text x="18.0" y="376.0">Medium</text>
            <text x="18.0" y="576.0">Large</text>
        </g>
        <g font-size="9">
            <text x="250.0" y="30.0">Ultralight</text>
            <text x="450.0" y="30.0">Regular</text>
            <text x="650.0" y="30.0">Black</text>
            <text id="template-version" fill="#505050" text-anchor="end" x="785.0" y="575.0">Template v.3.0</text>
            <a href="https://github.com/swhitty/SwiftDraw">
                <text fill="#505050" text-anchor="end" x="785.0" y="590.0">https://github.com/swhitty/SwiftDraw</text>
            </a>
        </g>
    </g>
    <g id="Guides" stroke="rgb(39, 170, 225)" stroke-width="0.5">
        <path id="Capline-S" d="M18,76 l800,0" />
        <path id="H-reference" d="M85,145.755 L87.685,145.755 L113.369,79.287 L114.052,79.287 L114.052,76 L112.148,76 L85,145.755 Z M95.693,121.536 L130.996,121.536 L130.263,119.313 L96.474,119.313 L95.693,121.536 Z M139.15,145.755 L141.787,145.755 L114.638,76 L113.466,76 L113.466,79.287 L139.15,145.755 Z" stroke="none" transform="translate(0,200)" />
        <path id="Baseline-S" d="M18,146 l800,0" />
        <path id="left-margin-Ultralight-M" d="M221,256 l0,110" />
        <path id="right-margin-Ultralight-M" d="M309,256 l0,110" />
        <path id="left-margin-Regular-M" d="M421,256 l0,110" />
        <path id="right-margin-Regular-M" d="M509,256 l0,110" />
        <path id="left-margin-Black-M" d="M621,256 l0,110" />
        <path id="right-margin-Black-M" d="M709,256 l0,110" />
        <path id="Capline-M" d="M18,276 l800,0" />
        <path id="Baseline-M" d="M18,346 l800,0" />
        <path id="Capline-L" d="M18,476 l800,0" />
        <path id="Baseline-L" d="M18,546 l800,0" />
    </g>
    <g id="Symbols">
        <g id="Ultralight-M" transform="translate(0,200)">
            <path d="M261,105 L261,85 C261,85 261,85 261,85 C261,85 261,85 261,85 L269,85 C269,85 269,85 269,85 C269,85 269,85 269,85 L269,105 C269,107.209 270.791,109 273,109 C275.209,109 277,107.209 277,105 L277,85 C277,82.878 276.157,80.843 274.657,79.343 C273.157,77.843 271.122,77 269,77 L261,77 C258.878,77 256.843,77.843 255.343,79.343 C253.843,80.843 253,82.878 253,85 L253,105 C253,107.209 254.791,109 257,109 C259.209,109 261,107.209 261,105 Z" />
            <path d="M273,93 C278.304,93 283.391,95.107 287.142,98.858 C290.893,102.609 293,107.696 293,113 L293,125 C293,127.209 294.791,129 297,129 C299.209,129 301,127.209 301,125 L301,113 C301,105.574 298.05,98.452 292.799,93.201 C287.548,87.95 280.426,85 273,85 C270.791,85 269,86.791 269,89 C269,91.209 270.791,93 273,93 Z" />
            <path d="M237,125 L237,113 C237,107.696 239.107,102.609 242.858,98.858 C246.609,95.107 251.696,93 257,93 C259.209,93 261,91.209 261,89 C261,86.791 259.209,85 257,85 C249.574,85 242.452,87.95 237.201,93.201 C231.95,98.452 229,105.574 229,113 L229,125 C229,127.209 230.791,129 233,129 C235.209,129 237,127.209 237,125 Z" />
            <path d="M301,133 L301,137 C301,137 301,137 301,137 C301,137 301,137 301,137 L229,137 C229,137 229,137 229,137 C229,137 229,137 229,137 L229,129 C229,129 229,129 229,129 C229,129 229,129 229,129 L301,129 C301,129 301,129 301,129 C301,129 301,129 301,129 L301,133 Z M309,133 L309,129 C309,126.878 308.157,124.843 306.657,123.343 C305.157,121.843 303.122,121 301,121 L229,121 C226.878,121 224.843,121.843 223.343,123.343 C221.843,124.843 221,126.878 221,129 L221,137 C221,139.122 221.843,141.157 223.343,142.657 C224.843,144.157 226.878,145 229,145 L301,145 C303.122,145 305.157,144.157 306.657,142.657 C308.157,141.157 309,139.122 309,137 L309,133 Z" />
        </g>
        <g id="Regular-M" transform="translate(0,200)">
            <path d="M461,105 L461,85 C461,85 461,85 461,85 C461,85 461,85 461,85 L469,85 C469,85 469,85 469,85 C469,85 469,85 469,85 L469,105 C469,107.209 470.791,109 473,109 C475.209,109 477,107.209 477,105 L477,85 C477,82.878 476.157,80.843 474.657,79.343 C473.157,77.843 471.122,77 469,77 L461,77 C458.878,77 456.843,77.843 455.343,79.343 C453.843,80.843 453,82.878 453,85 L453,105 C453,107.209 454.791,109 457,109 C459.209,109 461,107.209 461,105 Z" />
            <path d="M473,93 C478.304,93 483.391,95.107 487.142,98.858 C490.893,102.609 493,107.696 493,113 L493,125 C493,127.209 494.791,129 497,129 C499.209,129 501,127.209 501,125 L501,113 C501,105.574 498.05,98.452 492.799,93.201 C487.548,87.95 480.426,85 473,85 C470.791,85 469,86.791 469,89 C469,91.209 470.791,93 473,93 Z" />
            <path d="M437,125 L437,113 C437,107.696 439.107,102.609 442.858,98.858 C446.609,95.107 451.696,93 457,93 C459.209,93 461,91.209 461,89 C461,86.791 459.209,85 457,85 C449.574,85 442.452,87.95 437.201,93.201 C431.95,98.452 429,105.574 429,113 L429,125 C429,127.209 430.791,129 433,129 C435.209,129 437,127.209 437,125 Z" />
            <path d="M501,133 L501,137 C501,137 501,137 501,137 C501,137 501,137 501,137 L429,137 C429,137 429,137 429,137 C429,137 429,137 429,137 L429,129 C429,129 429,129 429,129 C429,129 429,129 429,129 L501,129 C501,129 501,129 501,129 C501,129 501,129 501,129 L501,133 Z M509,133 L509,129 C509,126.878 508.157,124.843 506.657,123.343 C505.157,121.843 503.122,121 501,121 L429,121 C426.878,121 424.843,121.843 423.343,123.343 C421.843,124.843 421,126.878 421,129 L421,137 C421,139.122 421.843,141.157 423.343,142.657 C424.843,144.157 426.878,145 429,145 L501,145 C503.122,145 505.157,144.157 506.657,142.657 C508.157,141.157 509,139.122 509,137 L509,133 Z" />
        </g>
        <g id="Black-M" transform="translate(0,200)">
            <path d="M661,105 L661,85 C661,85 661,85 661,85 C661,85 661,85 661,85 L669,85 C669,85 669,85 669,85 C669,85 669,85 669,85 L669,105 C669,107.209 670.791,109 673,109 C675.209,109 677,107.209 677,105 L677,85 C677,82.878 676.157,80.843 674.657,79.343 C673.157,77.843 671.122,77 669,77 L661,77 C658.878,77 656.843,77.843 655.343,79.343 C653.843,80.843 653,82.878 653,85 L653,105 C653,107.209 654.791,109 657,109 C659.209,109 661,107.209 661,105 Z" />
            <path d="M673,93 C678.304,93 683.391,95.107 687.142,98.858 C690.893,102.609 693,107.696 693,113 L693,125 C693,127.209 694.791,129 697,129 C699.209,129 701,127.209 701,125 L701,113 C701,105.574 698.05,98.452 692.799,93.201 C687.548,87.95 680.426,85 673,85 C670.791,85 669,86.791 669,89 C669,91.209 670.791,93 673,93 Z" />
            <path d="M637,125 L637,113 C637,107.696 639.107,102.609 642.858,98.858 C646.609,95.107 651.696,93 657,93 C659.209,93 661,91.209 661,89 C661,86.791 659.209,85 657,85 C649.574,85 642.452,87.95 637.201,93.201 C631.95,98.452 629,105.574 629,113 L629,125 C629,127.209 630.791,129 633,129 C635.209,129 637,127.209 637,125 Z" />
            <path d="M701,133 L701,137 C701,137 701,137 701,137 C701,137 701,137 701,137 L629,137 C629,137 629,137 629,137 C629,137 629,137 629,137 L629,129 C629,129 629,129 629,129 C629,129 629,129 629,129 L701,129 C701,129 701,129 701,129 C701,129 701,129 701,129 L701,133 Z M709,133 L709,129 C709,126.878 708.157,124.843 706.657,123.343 C705.157,121.843 703.122,121 701,121 L629,121 C626.878,121 624.843,121.843 623.343,123.343 C621.843,124.843 621,126.878 621,129 L621,137 C621,139.122 621.843,141.157 623.343,142.657 C624.843,144.157 626.878,145 629,145 L701,145 C703.122,145 705.157,144.157 706.657,142.657 C708.157,141.157 709,139.122 709,137 L709,133 Z" />
        </g>
    </g>
</svg>