<?xml version="1.0" encoding="UTF-8"?>
<svg height="600" width="800" xmlns="http://www.w3.org/2000/svg" xmlns:xlink="http://www.w3.org/1999/xlink">
    <g id="Notes" font-family="LucidaGrande, 'Lucida Grande', sans-serif" font-size="13">
        <rect fill="white" height="600.0" width="800.0" x="0.0" y="0.0" />
        <g font-size="13">
            <text x="18.0" y="176.0">Small</text>
            <text x="18.0" y="376.0">Medium</text>
            <text x="18.0" y="576.0">Large</text>
        </g>
        <g font-size="9">
            <text x="250.0" y="30.0">Ultralight</text>
            <text x="450.0" y="30.0">Regular</text>
            <text x="650.0" y="30.0">Black</text>
            <text id="template-version" fill="#505050" text-anchor="end" x="785.0" y="575.0">Template v.3.0</text>
            <a href="https://github.com/swhitty/SwiftDraw">
                <text fill="#505050" text-anchor="end" x="785.0" y="590.0">https://github.com/swhitty/SwiftDraw</text>
            </a>
        </g>
    </g>
    <g id="Guides" stroke="rgb(39, 170, 225)" stroke-width="0.5">
        <path id="Capline-S" d="M18,76 l800,0" />
        <path id="H-reference" d="M85,145.755 L87.685,145.755 L113.369,79.287 L114.052,79.287 L114.052,76 L112.148,76 L85,145.755 Z M95.693,121.536 L130.996,121.536 L130.263,119.313 L96.474,119.313 L95.693,121.536 Z M139.15,145.755 L141.787,145.755 L114.638,76 L113.466,76 L113.466,79.287 L139.15,145.755 Z" stroke="none" transform="translate(0,200)" />
        <path id="Baseline-S" d="M18,146 l800,0" />
        <path id="left-margin-Ultralight-M" d="M231.591,256 l0,110" />
        <path id="right-margin-Ultralight-M" d="M298.409,256 l0,110" />
        <path id="left-margin-Regular-M" d="M431.591,256 l0,110" />
        <path id="right-margin-Regular-M" d="M498.409,256 l0,110" />
        <path id="left-margin-Black-M" d="M631.591,256 l0,110" />
        <path id="right-margin-Black-M" d="M698.409,256 l0,110" />
        <path id="Capline-M" d="M18,276 l800,0" />
        <path id="Baseline-M" d="M18,346 l800,0" />
        <path id="Capline-L" d="M18,476 l800,0" />
        <path id="Baseline-L" d="M18,546 l800,0" />
    </g>
    <g id="Symbols">
        <g id="Ultralight-M" transform="translate(0,200)">
            <path d="M267.038,136.458 C269.459,136.458 271.78,135.448 273.49,133.653 L292.182,114.022 C300.481,105.325 300.478,91.227 292.173,82.53 C283.869,73.834 270.406,73.831 262.097,82.522 L243.373,102.129 C241.664,103.918 240.704,106.345 240.703,108.875 L240.703,130.097 C240.703,131.784 241.343,133.402 242.482,134.595 C243.622,135.788 245.167,136.458 246.778,136.458 L267.038,136.458 Z M267.038,130.097 L246.778,130.097 C246.778,130.097 246.778,130.097 246.778,130.097 C246.778,130.097 246.778,130.097 246.778,130.097 L246.778,108.876 C246.778,108.033 247.098,107.224 247.668,106.628 L266.392,87.022 C272.326,80.813 281.945,80.816 287.878,87.028 C293.811,93.241 293.813,103.313 287.882,109.529 L269.188,129.162 C268.618,129.76 267.844,130.097 267.037,130.097 Z" />
            <path d="M275.004,96.042 L232.481,140.57 C231.294,141.812 231.294,143.826 232.481,145.068 C233.667,146.311 235.59,146.311 236.776,145.068 L279.3,100.54 C280.486,99.298 280.486,97.284 279.3,96.042 C278.114,94.8 276.191,94.8 275.004,96.042 Z" />
            <path d="M281.708,117.374 L255.89,117.374 C254.213,117.374 252.853,118.798 252.853,120.555 C252.853,122.312 254.213,123.736 255.89,123.736 L281.708,123.736 C283.386,123.736 284.746,122.312 284.746,120.555 C284.746,118.798 283.386,117.374 281.708,117.374 Z" />
        </g>
        <g id="Regular-M" transform="translate(0,200)">
            <path d="M467.038,136.458 C469.459,136.458 471.78,135.448 473.49,133.653 L492.182,114.022 C500.481,105.325 500.478,91.227 492.173,82.53 C483.869,73.834 470.406,73.831 462.097,82.522 L443.373,102.129 C441.664,103.918 440.704,106.345 440.703,108.875 L440.703,130.097 C440.703,131.784 441.343,133.402 442.482,134.595 C443.622,135.788 445.167,136.458 446.778,136.458 L467.038,136.458 Z M467.038,130.097 L446.778,130.097 C446.778,130.097 446.778,130.097 446.778,130.097 C446.778,130.097 446.778,130.097 446.778,130.097 L446.778,108.876 C446.778,108.033 447.098,107.224 447.668,106.628 L466.392,87.022 C472.326,80.813 481.945,80.816 487.878,87.028 C493.811,93.241 493.813,103.313 487.882,109.529 L469.188,129.162 C468.618,129.76 467.844,130.097 467.037,130.097 Z" />
            <path d="M475.004,96.042 L432.481,140.57 C431.294,141.812 431.294,143.826 432.481,145.068 C433.667,146.311 435.59,146.311 436.776,145.068 L479.3,100.54 C480.486,99.298 480.486,97.284 479.3,96.042 C478.114,94.8 476.191,94.8 475.004,96.042 Z" />
            <path d="M481.708,117.374 L455.89,117.374 C454.213,117.374 452.853,118.798 452.853,120.555 C452.853,122.312 454.213,123.736 455.89,123.736 L481.708,123.736 C483.386,123.736 484.746,122.312 484.746,120.555 C484.746,118.798 483.386,117.374 481.708,117.374 Z" />
        </g>
        <g id="Black-M" transform="translate(0,200)">
            <path d="M667.038,136.458 C669.459,136.458 671.78,135.448 673.49,133.653 L692.182,114.022 C700.481,105.325 700.478,91.227 692.173,82.53 C683.869,73.834 670.406,73.831 662.097,82.522 L643.373,102.129 C641.664,103.918 640.704,106.345 640.703,108.875 L640.703,130.097 C640.703,131.784 641.343,133.402 642.482,134.595 C643.622,135.788 645.167,136.458 646.778,136.458 L667.038,136.458 Z M667.038,130.097 L646.778,130.097 C646.778,130.097 646.778,130.097 646.778,130.097 C646.778,130.097 646.778,130.097 646.778,130.097 L646.778,108.876 C646.778,108.033 647.098,107.224 647.668,106.628 L666.392,87.022 C672.326,80.813 681.945,80.816 687.878,87.028 C693.811,93.241 693.812,103.313 687.882,109.529 L669.188,129.162 C668.618,129.76 667.844,130.097 667.037,130.097 Z" />
            <path d="M675.004,96.042 L632.481,140.57 C631.294,141.812 631.294,143.826 632.481,145.068 C633.667,146.311 635.59,146.311 636.776,145.068 L679.3,100.54 C680.486,99.298 680.486,97.284 679.3,96.042 C678.114,94.8 676.191,94.8 675.004,96.042 Z" />
            <path d="M681.708,117.374 L655.89,117.374 C654.213,117.374 652.853,118.798 652.853,120.555 C652.853,122.312 654.213,123.736 655.89,123.736 L681.708,123.736 C683.386,123.736 684.746,122.312 684.746,120.555 C684.746,118.798 683.386,117.374 681.708,117.374 Z" />
        </g>
    </g>
</svg>