<?xml version="1.0" encoding="UTF-8"?>
<svg height="600" width="800" xmlns="http://www.w3.org/2000/svg" xmlns:xlink="http://www.w3.org/1999/xlink">
    <g id="Notes" font-family="LucidaGrande, 'Lucida Grande', sans-serif" font-size="13">
        <rect fill="white" height="600.0" width="800.0" x="0.0" y="0.0" />
        <g font-size="13">
            <text x="18.0" y="176.0">Small</text>
            <text x="18.0" y="376.0">Medium</text>
            <text x="18.0" y="576.0">Large</text>
        </g>
        <g font-size="9">
            <text x="250.0" y="30.0">Ultralight</text>
            <text x="450.0" y="30.0">Regular</text>
            <text x="650.0" y="30.0">Black</text>
            <text id="template-version" fill="#505050" text-anchor="end" x="785.0" y="575.0">Template v.3.0</text>
            <a href="https://github.com/swhitty/SwiftDraw">
                <text fill="#505050" text-anchor="end" x="785.0" y="590.0">https://github.com/swhitty/SwiftDraw</text>
            </a>
        </g>
    </g>
    <g id="Guides" stroke="rgb(39, 170, 225)" stroke-width="0.5">
        <path id="Capline-S" d="M18,76 l800,0" />
        <path id="H-reference" d="M85,145.755 L87.685,145.755 L113.369,79.287 L114.052,79.287 L114.052,76 L112.148,76 L85,145.755 Z M95.693,121.536 L130.996,121.536 L130.263,119.313 L96.474,119.313 L95.693,121.536 Z M139.15,145.755 L141.787,145.755 L114.638,76 L113.466,76 L113.466,79.287 L139.15,145.755 Z" stroke="none" transform="translate(0,200)" />
        <path id="Baseline-S" d="M18,146 l800,0" />
        <path id="left-margin-Ultralight-M" d="M226.111,256 l0,110" />
        <path id="right-margin-Ultralight-M" d="M303.889,256 l0,110" />
        <path id="left-margin-Regular-M" d="M426.111,256 l0,110" />
        <path id="right-margin-Regular-M" d="M503.889,256 l0,110" />
        <path id="left-margin-Black-M" d="M626.111,256 l0,110" />
        <path id="right-margin-Black-M" d="M703.889,256 l0,110" />
        <path id="Capline-M" d="M18,276 l800,0" />
        <path id="Baseline-M" d="M18,346 l800,0" />
        <path id="Capline-L" d="M18,476 l800,0" />
        <path id="Baseline-L" d="M18,546 l800,0" />
    </g>
    <g id="Symbols">
        <g id="Ultralight-M" transform="translate(0,200)">
            <path d="M300,76 L230,76 C227.852,76 226.111,77.741 226.111,79.889 C226.111,82.037 227.852,83.778 230,83.778 L300,83.778 C302.148,83.778 303.889,82.037 303.889,79.889 C303.889,77.741 302.148,76 300,76 Z" />
            <path d="M288.333,91.556 L241.667,91.556 C239.519,91.556 237.778,93.297 237.778,95.444 C237.778,97.592 239.519,99.333 241.667,99.333 L288.333,99.333 C290.481,99.333 292.222,97.592 292.222,95.444 C292.222,93.297 290.481,91.556 288.333,91.556 Z" />
            <path d="M292.222,107.111 L253.333,107.111 C251.186,107.111 249.444,108.852 249.444,111 C249.444,113.148 251.186,114.889 253.333,114.889 L292.222,114.889 C294.37,114.889 296.111,113.148 296.111,111 C296.111,108.852 294.37,107.111 292.222,107.111 Z" />
            <path d="M280.556,122.667 L257.222,122.667 C255.074,122.667 253.333,124.408 253.333,126.556 C253.333,128.703 255.074,130.444 257.222,130.444 L280.556,130.444 C282.703,130.444 284.444,128.703 284.444,126.556 C284.444,124.408 282.703,122.667 280.556,122.667 Z" />
            <path d="M261.111,138.222 L253.333,138.222 C251.186,138.222 249.444,139.963 249.444,142.111 C249.444,144.259 251.186,146 253.333,146 L261.111,146 C263.259,146 265,144.259 265,142.111 C265,139.963 263.259,138.222 261.111,138.222 Z" />
        </g>
        <g id="Regular-M" transform="translate(0,200)">
            <path d="M500,76 L430,76 C427.852,76 426.111,77.741 426.111,79.889 C426.111,82.037 427.852,83.778 430,83.778 L500,83.778 C502.148,83.778 503.889,82.037 503.889,79.889 C503.889,77.741 502.148,76 500,76 Z" />
            <path d="M488.333,91.556 L441.667,91.556 C439.519,91.556 437.778,93.297 437.778,95.444 C437.778,97.592 439.519,99.333 441.667,99.333 L488.333,99.333 C490.481,99.333 492.222,97.592 492.222,95.444 C492.222,93.297 490.481,91.556 488.333,91.556 Z" />
            <path d="M492.222,107.111 L453.333,107.111 C451.186,107.111 449.444,108.852 449.444,111 C449.444,113.148 451.186,114.889 453.333,114.889 L492.222,114.889 C494.37,114.889 496.111,113.148 496.111,111 C496.111,108.852 494.37,107.111 492.222,107.111 Z" />
            <path d="M480.556,122.667 L457.222,122.667 C455.074,122.667 453.333,124.408 453.333,126.556 C453.333,128.703 455.074,130.444 457.222,130.444 L480.556,130.444 C482.703,130.444 484.444,128.703 484.444,126.556 C484.444,124.408 482.703,122.667 480.556,122.667 Z" />
            <path d="M461.111,138.222 L453.333,138.222 C451.186,138.222 449.444,139.963 449.444,142.111 C449.444,144.259 451.186,146 453.333,146 L461.111,146 C463.259,146 465,144.259 465,142.111 C465,139.963 463.259,138.222 461.111,138.222 Z" />
        </g>
        <g id="Black-M" transform="translate(0,200)">
            <path d="M700,76 L630,76 C627.852,76 626.111,77.741 626.111,79.889 C626.111,82.037 627.852,83.778 630,83.778 L700,83.778 C702.148,83.778 703.889,82.037 703.889,79.889 C703.889,77.741 702.148,76 700,76 Z" />
            <path d="M688.333,91.556 L641.667,91.556 C639.519,91.556 637.778,93.297 637.778,95.444 C637.778,97.592 639.519,99.333 641.667,99.333 L688.333,99.333 C690.481,99.333 692.222,97.592 692.222,95.444 C692.222,93.297 690.481,91.556 688.333,91.556 Z" />
            <path d="M692.222,107.111 L653.333,107.111 C651.186,107.111 649.444,108.852 649.444,111 C649.444,113.148 651.186,114.889 653.333,114.889 L692.222,114.889 C694.37,114.889 696.111,113.148 696.111,111 C696.111,108.852 694.37,107.111 692.222,107.111 Z" />
            <path d="M680.556,122.667 L657.222,122.667 C655.074,122.667 653.333,124.408 653.333,126.556 C653.333,128.703 655.074,130.444 657.222,130.444 L680.556,130.444 C682.703,130.444 684.444,128.703 684.444,126.556 C684.444,124.408 682.703,122.667 680.556,122.667 Z" />
            <path d="M661.111,138.222 L653.333,138.222 C651.186,138.222 649.444,139.963 649.444,142.111 C649.444,144.259 651.186,146 653.333,146 L661.111,146 C663.259,146 665,144.259 665,142.111 C665,139.963 663.259,138.222 661.111,138.222 Z" />
        </g>
    </g>
</svg>