<?xml version="1.0" encoding="UTF-8"?>
<svg height="600" width="800" xmlns="http://www.w3.org/2000/svg" xmlns:xlink="http://www.w3.org/1999/xlink">
    <g id="Notes" font-family="LucidaGrande, 'Lucida Grande', sans-serif" font-size="13">
        <rect fill="white" height="600.0" width="800.0" x="0.0" y="0.0" />
        <g font-size="13">
            <text x="18.0" y="176.0">Small</text>
            <text x="18.0" y="376.0">Medium</text>
            <text x="18.0" y="576.0">Large</text>
        </g>
        <g font-size="9">
            <text x="250.0" y="30.0">Ultralight</text>
            <text x="450.0" y="30.0">Regular</text>
            <text x="650.0" y="30.0">Black</text>
            <text id="template-version" fill="#505050" text-anchor="end" x="785.0" y="575.0">Template v.3.0</text>
            <a href="https://github.com/swhitty/SwiftDraw">
                <text fill="#505050" text-anchor="end" x="785.0" y="590.0">https://github.com/swhitty/SwiftDraw</text>
            </a>
        </g>
    </g>
    <g id="Guides" stroke="rgb(39, 170, 225)" stroke-width="0.5">
        <path id="Capline-S" d="M18,76 l800,0" />
        <path id="H-reference" d="M85,145.755 L87.685,145.755 L113.369,79.287 L114.052,79.287 L114.052,76 L112.148,76 L85,145.755 Z M95.693,121.536 L130.996,121.536 L130.263,119.313 L96.474,119.313 L95.693,121.536 Z M139.15,145.755 L141.787,145.755 L114.638,76 L113.466,76 L113.466,79.287 L139.15,145.755 Z" stroke="none" transform="translate(0,200)" />
        <path id="Baseline-S" d="M18,146 l800,0" />
        <path id="left-margin-Ultralight-M" d="M231.75,256 l0,110" />
        <path id="right-margin-Ultralight-M" d="M298.25,256 l0,110" />
        <path id="left-margin-Regular-M" d="M431.75,256 l0,110" />
        <path id="right-margin-Regular-M" d="M498.25,256 l0,110" />
        <path id="left-margin-Black-M" d="M631.75,256 l0,110" />
        <path id="right-margin-Black-M" d="M698.25,256 l0,110" />
        <path id="Capline-M" d="M18,276 l800,0" />
        <path id="Baseline-M" d="M18,346 l800,0" />
        <path id="Capline-L" d="M18,476 l800,0" />
        <path id="Baseline-L" d="M18,546 l800,0" />
    </g>
    <g id="Symbols">
        <g id="Ultralight-M" transform="translate(0,200)">
            <path d="M294.009,135.256 L274.781,139.314 C272.895,139.713 271.699,141.515 272.111,143.339 C272.522,145.164 274.385,146.32 276.272,145.922 L295.499,141.864 C297.386,141.466 298.581,139.664 298.17,137.84 C297.758,136.015 295.895,134.858 294.009,135.256 Z" />
            <path d="M272.03,86.145 L272.03,124.087 C272.031,126.17 273.023,128.135 274.719,129.417 C276.415,130.698 278.627,131.152 280.715,130.648 L295.546,127.313 C297.426,126.89 298.596,125.073 298.159,123.254 C297.722,121.434 295.843,120.303 293.962,120.726 L279.077,124.073 C279.022,124.086 279.022,124.086 279.022,124.086 C279.022,124.086 279.022,124.086 279.022,124.086 L279.022,86.145 C279.022,84.277 277.457,82.763 275.526,82.763 C273.596,82.763 272.03,84.277 272.03,86.145 Z" />
            <path d="M236.08,141.341 L255.479,136.731 C260.238,135.477 263.431,131.309 263.289,126.626 L263.29,79.382 C263.29,77.514 261.725,76 259.795,76 C257.864,76 256.299,77.514 256.299,79.382 L256.299,126.725 C256.347,128.385 255.283,129.774 253.725,130.185 L234.412,134.772 C232.537,135.218 231.39,137.049 231.851,138.863 C232.311,140.677 234.205,141.786 236.08,141.341 Z" />
            <path d="M294.007,103.131 L238.072,114.967 C236.186,115.366 234.991,117.169 235.404,118.993 C235.816,120.818 237.68,121.973 239.566,121.574 L295.501,109.738 C297.387,109.339 298.582,107.537 298.169,105.712 C297.757,103.888 295.893,102.732 294.007,103.131 Z" />
        </g>
        <g id="Regular-M" transform="translate(0,200)">
            <path d="M494.009,135.256 L474.781,139.314 C472.895,139.713 471.699,141.515 472.111,143.339 C472.522,145.164 474.385,146.32 476.272,145.922 L495.499,141.864 C497.386,141.466 498.581,139.664 498.17,137.84 C497.758,136.015 495.895,134.858 494.009,135.256 Z" />
            <path d="M472.03,86.145 L472.03,124.087 C472.031,126.17 473.023,128.135 474.719,129.417 C476.415,130.698 478.627,131.152 480.715,130.648 L495.546,127.313 C497.426,126.89 498.596,125.073 498.159,123.254 C497.722,121.434 495.843,120.303 493.962,120.726 L479.077,124.073 C479.022,124.086 479.022,124.086 479.022,124.086 C479.022,124.086 479.022,124.086 479.022,124.086 L479.022,86.145 C479.022,84.277 477.457,82.763 475.526,82.763 C473.596,82.763 472.03,84.277 472.03,86.145 Z" />
            <path d="M436.08,141.341 L455.479,136.731 C460.238,135.477 463.431,131.309 463.289,126.626 L463.29,79.382 C463.29,77.514 461.725,76 459.795,76 C457.864,76 456.299,77.514 456.299,79.382 L456.299,126.725 C456.347,128.385 455.283,129.774 453.725,130.185 L434.412,134.772 C432.537,135.218 431.39,137.049 431.851,138.863 C432.311,140.677 434.205,141.786 436.08,141.341 Z" />
            <path d="M494.007,103.131 L438.072,114.967 C436.186,115.366 434.991,117.169 435.404,118.993 C435.816,120.818 437.68,121.973 439.566,121.574 L495.501,109.738 C497.387,109.339 498.582,107.537 498.169,105.712 C497.757,103.888 495.893,102.732 494.007,103.131 Z" />
        </g>
        <g id="Black-M" transform="translate(0,200)">
            <path d="M694.009,135.256 L674.781,139.314 C672.895,139.713 671.699,141.515 672.111,143.339 C672.522,145.164 674.385,146.32 676.272,145.922 L695.499,141.864 C697.386,141.466 698.581,139.664 698.17,137.84 C697.758,136.015 695.895,134.858 694.009,135.256 Z" />
            <path d="M672.03,86.145 L672.03,124.087 C672.031,126.17 673.023,128.135 674.719,129.417 C676.415,130.698 678.627,131.152 680.715,130.648 L695.546,127.313 C697.426,126.89 698.596,125.073 698.159,123.254 C697.722,121.434 695.843,120.303 693.962,120.726 L679.077,124.073 C679.022,124.086 679.022,124.086 679.022,124.086 C679.022,124.086 679.022,124.086 679.022,124.086 L679.022,86.145 C679.022,84.277 677.457,82.763 675.526,82.763 C673.596,82.763 672.03,84.277 672.03,86.145 Z" />
            <path d="M636.08,141.341 L655.479,136.731 C660.238,135.477 663.431,131.309 663.289,126.626 L663.29,79.382 C663.29,77.514 661.725,76 659.795,76 C657.864,76 656.299,77.514 656.299,79.382 L656.299,126.725 C656.347,128.385 655.283,129.774 653.725,130.185 L634.412,134.772 C632.537,135.218 631.39,137.049 631.851,138.863 C632.311,140.677 634.205,141.786 636.08,141.341 Z" />
            <path d="M694.007,103.131 L638.072,114.967 C636.186,115.366 634.991,117.169 635.404,118.993 C635.816,120.818 637.68,121.973 639.566,121.574 L695.501,109.738 C697.387,109.339 698.582,107.537 698.169,105.712 C697.757,103.888 695.893,102.732 694.007,103.131 Z" />
        </g>
    </g>
</svg>