<?xml version="1.0" encoding="UTF-8"?>
<svg height="600" width="800" xmlns="http://www.w3.org/2000/svg" xmlns:xlink="http://www.w3.org/1999/xlink">
    <g id="Notes" font-family="LucidaGrande, 'Lucida Grande', sans-serif" font-size="13">
        <rect fill="white" height="600.0" width="800.0" x="0.0" y="0.0" />
        <g font-size="13">
            <text x="18.0" y="176.0">Small</text>
            <text x="18.0" y="376.0">Medium</text>
            <text x="18.0" y="576.0">Large</text>
        </g>
        <g font-size="9">
            <text x="250.0" y="30.0">Ultralight</text>
            <text x="450.0" y="30.0">Regular</text>
            <text x="650.0" y="30.0">Black</text>
            <text id="template-version" fill="#505050" text-anchor="end" x="785.0" y="575.0">Template v.3.0</text>
            <a href="https://github.com/swhitty/SwiftDraw">
                <text fill="#505050" text-anchor="end" x="785.0" y="590.0">https://github.com/swhitty/SwiftDraw</text>
            </a>
        </g>
    </g>
    <g id="Guides" stroke="rgb(39, 170, 225)" stroke-width="0.5">
        <path id="Capline-S" d="M18,76 l800,0" />
        <path id="H-reference" d="M85,145.755 L87.685,145.755 L113.369,79.287 L114.052,79.287 L114.052,76 L112.148,76 L85,145.755 Z M95.693,121.536 L130.996,121.536 L130.263,119.313 L96.474,119.313 L95.693,121.536 Z M139.15,145.755 L141.787,145.755 L114.638,76 L113.466,76 L113.466,79.287 L139.15,145.755 Z" stroke="none" transform="translate(0,200)" />
        <path id="Baseline-S" d="M18,146 l800,0" />
        <path id="left-margin-Ultralight-M" d="M230,256 l0,110" />
        <path id="right-margin-Ultralight-M" d="M300,256 l0,110" />
        <path id="left-margin-Regular-M" d="M430,256 l0,110" />
        <path id="right-margin-Regular-M" d="M500,256 l0,110" />
        <path id="left-margin-Black-M" d="M630,256 l0,110" />
        <path id="right-margin-Black-M" d="M700,256 l0,110" />
        <path id="Capline-M" d="M18,276 l800,0" />
        <path id="Baseline-M" d="M18,346 l800,0" />
        <path id="Capline-L" d="M18,476 l800,0" />
        <path id="Baseline-L" d="M18,546 l800,0" />
    </g>
    <g id="Symbols">
        <g id="Ultralight-M" transform="translate(0,200)">
            <path d="M266.59,113.779 C265.606,114.347 264.394,114.347 263.41,113.779 L236.373,98.289 C236.36,98.282 236.36,98.282 236.36,98.282 C236.36,98.282 236.36,98.282 236.36,98.282 L263.401,82.79 C264.394,82.217 265.606,82.217 266.59,82.785 L293.627,98.275 C293.64,98.282 293.64,98.282 293.64,98.282 C293.64,98.282 293.64,98.282 293.64,98.282 L266.599,113.774 Z M269.761,119.291 L296.789,103.807 C298.769,102.685 300,100.572 300,98.282 C300,95.992 298.769,93.879 296.776,92.75 L269.761,77.273 C266.818,75.574 263.182,75.574 260.23,77.278 L233.211,92.757 C231.231,93.879 230,95.992 230,98.282 C230,100.572 231.231,102.685 233.224,103.814 L260.239,119.291 C263.182,120.99 266.818,120.99 269.77,119.286 Z" />
            <path d="M288.878,121.035 L293.648,123.722 C293.64,123.718 293.64,123.718 293.64,123.718 C293.64,123.718 293.64,123.718 293.64,123.718 L266.599,139.21 C265.606,139.783 264.394,139.783 263.41,139.215 L236.373,123.725 C236.36,123.718 236.36,123.718 236.36,123.718 C236.36,123.718 236.36,123.718 236.36,123.718 L241.122,121.035 C242.652,120.174 243.194,118.235 242.332,116.705 C241.47,115.175 239.531,114.633 238.001,115.495 L233.231,118.182 C231.231,119.315 230,121.428 230,123.718 C230,126.008 231.231,128.121 233.224,129.25 L260.239,144.727 C263.182,146.426 266.818,146.426 269.77,144.722 L296.789,129.243 C298.769,128.121 300,126.008 300,123.718 C300,121.428 298.769,119.315 296.776,118.186 L291.999,115.495 C290.469,114.633 288.53,115.175 287.668,116.705 C286.806,118.235 287.348,120.174 288.878,121.035 Z" />
        </g>
        <g id="Regular-M" transform="translate(0,200)">
            <path d="M466.59,113.779 C465.606,114.347 464.394,114.347 463.41,113.779 L436.373,98.289 C436.36,98.282 436.36,98.282 436.36,98.282 C436.36,98.282 436.36,98.282 436.36,98.282 L463.401,82.79 C464.394,82.217 465.606,82.217 466.59,82.785 L493.627,98.275 C493.64,98.282 493.64,98.282 493.64,98.282 C493.64,98.282 493.64,98.282 493.64,98.282 L466.599,113.774 Z M469.761,119.291 L496.789,103.807 C498.769,102.685 500,100.572 500,98.282 C500,95.992 498.769,93.879 496.776,92.75 L469.761,77.273 C466.818,75.574 463.182,75.574 460.23,77.278 L433.211,92.757 C431.231,93.879 430,95.992 430,98.282 C430,100.572 431.231,102.685 433.224,103.814 L460.239,119.291 C463.182,120.99 466.818,120.99 469.77,119.286 Z" />
            <path d="M488.878,121.035 L493.648,123.722 C493.64,123.718 493.64,123.718 493.64,123.718 C493.64,123.718 493.64,123.718 493.64,123.718 L466.599,139.21 C465.606,139.783 464.394,139.783 463.41,139.215 L436.373,123.725 C436.36,123.718 436.36,123.718 436.36,123.718 C436.36,123.718 436.36,123.718 436.36,123.718 L441.122,121.035 C442.652,120.174 443.194,118.235 442.332,116.705 C441.47,115.175 439.531,114.633 438.001,115.495 L433.231,118.182 C431.231,119.315 430,121.428 430,123.718 C430,126.008 431.231,128.121 433.224,129.25 L460.239,144.727 C463.182,146.426 466.818,146.426 469.77,144.722 L496.789,129.243 C498.769,128.121 500,126.008 500,123.718 C500,121.428 498.769,119.315 496.776,118.186 L491.999,115.495 C490.469,114.633 488.53,115.175 487.668,116.705 C486.806,118.235 487.348,120.174 488.878,121.035 Z" />
        </g>
        <g id="Black-M" transform="translate(0,200)">
            <path d="M666.59,113.779 C665.606,114.347 664.394,114.347 663.41,113.779 L636.373,98.289 C636.36,98.282 636.36,98.282 636.36,98.282 C636.36,98.282 636.36,98.282 636.36,98.282 L663.401,82.79 C664.394,82.217 665.606,82.217 666.59,82.785 L693.627,98.275 C693.64,98.282 693.64,98.282 693.64,98.282 C693.64,98.282 693.64,98.282 693.64,98.282 L666.599,113.774 Z M669.761,119.291 L696.789,103.807 C698.769,102.685 700,100.572 700,98.282 C700,95.992 698.769,93.879 696.776,92.75 L669.761,77.273 C666.818,75.574 663.182,75.574 660.23,77.278 L633.211,92.757 C631.231,93.879 630,95.992 630,98.282 C630,100.572 631.231,102.685 633.224,103.814 L660.239,119.291 C663.182,120.99 666.818,120.99 669.77,119.286 Z" />
            <path d="M688.878,121.035 L693.648,123.722 C693.64,123.718 693.64,123.718 693.64,123.718 C693.64,123.718 693.64,123.718 693.64,123.718 L666.599,139.21 C665.606,139.783 664.394,139.783 663.41,139.215 L636.373,123.725 C636.36,123.718 636.36,123.718 636.36,123.718 C636.36,123.718 636.36,123.718 636.36,123.718 L641.122,121.035 C642.652,120.174 643.194,118.235 642.332,116.705 C641.47,115.175 639.531,114.633 638.001,115.495 L633.231,118.182 C631.231,119.315 630,121.428 630,123.718 C630,126.008 631.231,128.121 633.224,129.25 L660.239,144.727 C663.182,146.426 666.818,146.426 669.77,144.722 L696.789,129.243 C698.769,128.121 700,126.008 700,123.718 C700,121.428 698.769,119.315 696.776,118.186 L691.999,115.495 C690.469,114.633 688.53,115.175 687.668,116.705 C686.806,118.235 687.348,120.174 688.878,121.035 Z" />
        </g>
    </g>
</svg>