<?xml version="1.0" encoding="UTF-8"?>
<svg height="600" width="800" xmlns="http://www.w3.org/2000/svg" xmlns:xlink="http://www.w3.org/1999/xlink">
    <g id="Notes" font-family="LucidaGrande, 'Lucida Grande', sans-serif" font-size="13">
        <rect fill="white" height="600.0" width="800.0" x="0.0" y="0.0" />
        <g font-size="13">
            <text x="18.0" y="176.0">Small</text>
            <text x="18.0" y="376.0">Medium</text>
            <text x="18.0" y="576.0">Large</text>
        </g>
        <g font-size="9">
            <text x="250.0" y="30.0">Ultralight</text>
            <text x="450.0" y="30.0">Regular</text>
            <text x="650.0" y="30.0">Black</text>
            <text id="template-version" fill="#505050" text-anchor="end" x="785.0" y="575.0">Template v.3.0</text>
            <a href="https://github.com/swhitty/SwiftDraw">
                <text fill="#505050" text-anchor="end" x="785.0" y="590.0">https://github.com/swhitty/SwiftDraw</text>
            </a>
        </g>
    </g>
    <g id="Guides" stroke="rgb(39, 170, 225)" stroke-width="0.5">
        <path id="Capline-S" d="M18,76 l800,0" />
        <path id="H-reference" d="M85,145.755 L87.685,145.755 L113.369,79.287 L114.052,79.287 L114.052,76 L112.148,76 L85,145.755 Z M95.693,121.536 L130.996,121.536 L130.263,119.313 L96.474,119.313 L95.693,121.536 Z M139.15,145.755 L141.787,145.755 L114.638,76 L113.466,76 L113.466,79.287 L139.15,145.755 Z" stroke="none" transform="translate(0,200)" />
        <path id="Baseline-S" d="M18,146 l800,0" />
        <path id="left-margin-Ultralight-M" d="M235,256 l0,110" />
        <path id="right-margin-Ultralight-M" d="M295,256 l0,110" />
        <path id="left-margin-Regular-M" d="M435,256 l0,110" />
        <path id="right-margin-Regular-M" d="M495,256 l0,110" />
        <path id="left-margin-Black-M" d="M635,256 l0,110" />
        <path id="right-margin-Black-M" d="M695,256 l0,110" />
        <path id="Capline-M" d="M18,276 l800,0" />
        <path id="Baseline-M" d="M18,346 l800,0" />
        <path id="Capline-L" d="M18,476 l800,0" />
        <path id="Baseline-L" d="M18,546 l800,0" />
    </g>
    <g id="Symbols">
        <g id="Ultralight-M" transform="translate(0,200)">
            <path d="M260.158,81 L260.158,141 C260.158,143.761 262.326,146 265,146 C267.674,146 269.842,143.761 269.842,141 L269.842,81 C269.842,78.239 267.674,76 265,76 C262.326,76 260.158,78.239 260.158,81 Z" />
            <path d="M287.737,91.67 L237.421,121.67 C235.105,123.051 234.312,126.109 235.649,128.5 C236.986,130.892 239.947,131.711 242.263,130.33 L292.579,100.33 C294.895,98.949 295.688,95.891 294.351,93.5 C293.014,91.108 290.053,90.289 287.737,91.67 Z" />
            <path d="M237.421,100.33 L287.737,130.33 C290.053,131.711 293.014,130.892 294.351,128.5 C295.688,126.109 294.895,123.051 292.579,121.67 L242.263,91.67 C239.947,90.289 236.986,91.108 235.649,93.5 C234.312,95.891 235.105,98.949 237.421,100.33 Z" />
        </g>
        <g id="Regular-M" transform="translate(0,200)">
            <path d="M460.158,81 L460.158,141 C460.158,143.761 462.326,146 465,146 C467.674,146 469.842,143.761 469.842,141 L469.842,81 C469.842,78.239 467.674,76 465,76 C462.326,76 460.158,78.239 460.158,81 Z" />
            <path d="M487.737,91.67 L437.421,121.67 C435.105,123.051 434.312,126.109 435.649,128.5 C436.986,130.892 439.947,131.711 442.263,130.33 L492.579,100.33 C494.895,98.949 495.688,95.891 494.351,93.5 C493.014,91.108 490.053,90.289 487.737,91.67 Z" />
            <path d="M437.421,100.33 L487.737,130.33 C490.053,131.711 493.014,130.892 494.351,128.5 C495.688,126.109 494.895,123.051 492.579,121.67 L442.263,91.67 C439.947,90.289 436.986,91.108 435.649,93.5 C434.312,95.891 435.105,98.949 437.421,100.33 Z" />
        </g>
        <g id="Black-M" transform="translate(0,200)">
            <path d="M660.158,81 L660.158,141 C660.158,143.761 662.326,146 665,146 C667.674,146 669.842,143.761 669.842,141 L669.842,81 C669.842,78.239 667.674,76 665,76 C662.326,76 660.158,78.239 660.158,81 Z" />
            <path d="M687.737,91.67 L637.421,121.67 C635.105,123.051 634.312,126.109 635.649,128.5 C636.986,130.892 639.947,131.711 642.263,130.33 L692.579,100.33 C694.895,98.949 695.688,95.891 694.351,93.5 C693.014,91.108 690.053,90.289 687.737,91.67 Z" />
            <path d="M637.421,100.33 L687.737,130.33 C690.053,131.711 693.014,130.892 694.351,128.5 C695.688,126.109 694.895,123.051 692.579,121.67 L642.263,91.67 C639.947,90.289 636.986,91.108 635.649,93.5 C634.312,95.891 635.105,98.949 637.421,100.33 Z" />
        </g>
    </g>
</svg>