<?xml version="1.0" encoding="UTF-8"?>
<svg height="600" width="800" xmlns="http://www.w3.org/2000/svg" xmlns:xlink="http://www.w3.org/1999/xlink">
    <g id="Notes" font-family="LucidaGrande, 'Lucida Grande', sans-serif" font-size="13">
        <rect fill="white" height="600.0" width="800.0" x="0.0" y="0.0" />
        <g font-size="13">
            <text x="18.0" y="176.0">Small</text>
            <text x="18.0" y="376.0">Medium</text>
            <text x="18.0" y="576.0">Large</text>
        </g>
        <g font-size="9">
            <text x="250.0" y="30.0">Ultralight</text>
            <text x="450.0" y="30.0">Regular</text>
            <text x="650.0" y="30.0">Black</text>
            <text id="template-version" fill="#505050" text-anchor="end" x="785.0" y="575.0">Template v.3.0</text>
            <a href="https://github.com/swhitty/SwiftDraw">
                <text fill="#505050" text-anchor="end" x="785.0" y="590.0">https://github.com/swhitty/SwiftDraw</text>
            </a>
        </g>
    </g>
    <g id="Guides" stroke="rgb(39, 170, 225)" stroke-width="0.5">
        <path id="Capline-S" d="M18,76 l800,0" />
        <path id="H-reference" d="M85,145.755 L87.685,145.755 L113.369,79.287 L114.052,79.287 L114.052,76 L112.148,76 L85,145.755 Z M95.693,121.536 L130.996,121.536 L130.263,119.313 L96.474,119.313 L95.693,121.536 Z M139.15,145.755 L141.787,145.755 L114.638,76 L113.466,76 L113.466,79.287 L139.15,145.755 Z" stroke="none" transform="translate(0,200)" />
        <path id="Baseline-S" d="M18,146 l800,0" />
        <path id="left-margin-Ultralight-M" d="M221,256 l0,110" />
        <path id="right-margin-Ultralight-M" d="M309,256 l0,110" />
        <path id="left-margin-Regular-M" d="M421,256 l0,110" />
        <path id="right-margin-Regular-M" d="M509,256 l0,110" />
        <path id="left-margin-Black-M" d="M621,256 l0,110" />
        <path id="right-margin-Black-M" d="M709,256 l0,110" />
        <path id="Capline-M" d="M18,276 l800,0" />
        <path id="Baseline-M" d="M18,346 l800,0" />
        <path id="Capline-L" d="M18,476 l800,0" />
        <path id="Baseline-L" d="M18,546 l800,0" />
    </g>
    <g id="Symbols">
        <g id="Ultralight-M" transform="translate(0,200)">
            <path d="M280.78,130.532 L290.924,103.657 C290.936,103.627 290.966,103.607 291,103.607 C291.034,103.607 291.064,103.627 291.076,103.656 L301.22,130.532 C301.942,132.446 304.22,133.461 306.308,132.798 C308.396,132.136 309.503,130.047 308.78,128.133 L298.636,101.259 C297.511,98.275 294.445,96.272 291,96.272 C287.555,96.272 284.489,98.275 283.364,101.259 L273.22,128.133 C272.497,130.047 273.604,132.136 275.692,132.798 C277.78,133.461 280.058,132.446 280.78,130.532 Z" />
            <path d="M279.788,125.665 L302.212,125.665 C304.421,125.665 306.212,124.023 306.212,121.998 C306.212,119.972 304.421,118.33 302.212,118.33 L279.788,118.33 C277.579,118.33 275.788,119.972 275.788,121.998 C275.788,124.023 277.579,125.665 279.788,125.665 Z" />
            <path d="M228.692,130.744 L244.848,95.206 C244.537,95.89 243.809,96.335 243.002,96.335 C242.195,96.335 241.467,95.89 241.156,95.207 L257.308,130.743 C258.158,132.613 260.499,133.497 262.539,132.718 C264.578,131.939 265.542,129.792 264.692,127.922 L248.54,92.385 C247.608,90.335 245.424,89 243.002,89 C240.58,89 238.396,90.335 237.464,92.384 L221.308,127.922 C220.458,129.791 221.422,131.938 223.461,132.718 C225.5,133.497 227.842,132.613 228.692,130.744 Z" />
            <path d="M230.216,121.998 L255.784,121.998 C257.993,121.998 259.784,120.356 259.784,118.33 C259.784,116.305 257.993,114.663 255.784,114.663 L230.216,114.663 C228.007,114.663 226.216,116.305 226.216,118.33 C226.216,120.356 228.007,121.998 230.216,121.998 Z" />
        </g>
        <g id="Regular-M" transform="translate(0,200)">
            <path d="M480.78,130.532 L490.924,103.657 C490.936,103.627 490.966,103.607 491,103.607 C491.034,103.607 491.064,103.627 491.076,103.656 L501.22,130.532 C501.942,132.446 504.22,133.461 506.308,132.798 C508.396,132.136 509.503,130.047 508.78,128.133 L498.636,101.259 C497.511,98.275 494.445,96.272 491,96.272 C487.555,96.272 484.489,98.275 483.364,101.259 L473.22,128.133 C472.497,130.047 473.604,132.136 475.692,132.798 C477.78,133.461 480.058,132.446 480.78,130.532 Z" />
            <path d="M479.788,125.665 L502.212,125.665 C504.421,125.665 506.212,124.023 506.212,121.998 C506.212,119.972 504.421,118.33 502.212,118.33 L479.788,118.33 C477.579,118.33 475.788,119.972 475.788,121.998 C475.788,124.023 477.579,125.665 479.788,125.665 Z" />
            <path d="M428.692,130.744 L444.848,95.206 C444.537,95.89 443.809,96.335 443.002,96.335 C442.195,96.335 441.467,95.89 441.156,95.207 L457.308,130.743 C458.158,132.613 460.499,133.497 462.539,132.718 C464.578,131.939 465.542,129.792 464.692,127.922 L448.54,92.385 C447.608,90.335 445.424,89 443.002,89 C440.58,89 438.396,90.335 437.464,92.384 L421.308,127.922 C420.458,129.791 421.422,131.938 423.461,132.718 C425.5,133.497 427.842,132.613 428.692,130.744 Z" />
            <path d="M430.216,121.998 L455.784,121.998 C457.993,121.998 459.784,120.356 459.784,118.33 C459.784,116.305 457.993,114.663 455.784,114.663 L430.216,114.663 C428.007,114.663 426.216,116.305 426.216,118.33 C426.216,120.356 428.007,121.998 430.216,121.998 Z" />
        </g>
        <g id="Black-M" transform="translate(0,200)">
            <path d="M680.78,130.532 L690.924,103.657 C690.936,103.627 690.966,103.607 691,103.607 C691.034,103.607 691.064,103.627 691.076,103.656 L701.22,130.532 C701.942,132.446 704.221,133.461 706.308,132.798 C708.396,132.136 709.503,130.047 708.78,128.133 L698.636,101.259 C697.511,98.275 694.445,96.272 691,96.272 C687.555,96.272 684.489,98.275 683.364,101.259 L673.22,128.133 C672.497,130.047 673.604,132.136 675.692,132.798 C677.779,133.461 680.058,132.446 680.78,130.532 Z" />
            <path d="M679.788,125.665 L702.212,125.665 C704.421,125.665 706.212,124.023 706.212,121.998 C706.212,119.972 704.421,118.33 702.212,118.33 L679.788,118.33 C677.579,118.33 675.788,119.972 675.788,121.998 C675.788,124.023 677.579,125.665 679.788,125.665 Z" />
            <path d="M628.692,130.744 L644.848,95.206 C644.537,95.89 643.809,96.335 643.002,96.335 C642.195,96.335 641.467,95.89 641.156,95.207 L657.308,130.743 C658.158,132.613 660.499,133.497 662.539,132.718 C664.578,131.939 665.542,129.792 664.692,127.922 L648.54,92.385 C647.608,90.335 645.424,89 643.002,89 C640.58,89 638.396,90.335 637.464,92.384 L621.308,127.922 C620.458,129.791 621.422,131.938 623.461,132.718 C625.5,133.497 627.842,132.613 628.692,130.744 Z" />
            <path d="M630.216,121.998 L655.784,121.998 C657.993,121.998 659.784,120.356 659.784,118.33 C659.784,116.305 657.993,114.663 655.784,114.663 L630.216,114.663 C628.007,114.663 626.216,116.305 626.216,118.33 C626.216,120.356 628.007,121.998 630.216,121.998 Z" />
        </g>
    </g>
</svg>