<?xml version="1.0" encoding="UTF-8"?>
<svg height="600" width="800" xmlns="http://www.w3.org/2000/svg" xmlns:xlink="http://www.w3.org/1999/xlink">
    <g id="Notes" font-family="LucidaGrande, 'Lucida Grande', sans-serif" font-size="13">
        <rect fill="white" height="600.0" width="800.0" x="0.0" y="0.0" />
        <g font-size="13">
            <text x="18.0" y="176.0">Small</text>
            <text x="18.0" y="376.0">Medium</text>
            <text x="18.0" y="576.0">Large</text>
        </g>
        <g font-size="9">
            <text x="250.0" y="30.0">Ultralight</text>
            <text x="450.0" y="30.0">Regular</text>
            <text x="650.0" y="30.0">Black</text>
            <text id="template-version" fill="#505050" text-anchor="end" x="785.0" y="575.0">Template v.3.0</text>
            <a href="https://github.com/swhitty/SwiftDraw">
                <text fill="#505050" text-anchor="end" x="785.0" y="590.0">https://github.com/swhitty/SwiftDraw</text>
            </a>
        </g>
    </g>
    <g id="Guides" stroke="rgb(39, 170, 225)" stroke-width="0.5">
        <path id="Capline-S" d="M18,76 l800,0" />
        <path id="H-reference" d="M85,145.755 L87.685,145.755 L113.369,79.287 L114.052,79.287 L114.052,76 L112.148,76 L85,145.755 Z M95.693,121.536 L130.996,121.536 L130.263,119.313 L96.474,119.313 L95.693,121.536 Z M139.15,145.755 L141.787,145.755 L114.638,76 L113.466,76 L113.466,79.287 L139.15,145.755 Z" stroke="none" transform="translate(0,200)" />
        <path id="Baseline-S" d="M18,146 l800,0" />
        <path id="left-margin-Ultralight-M" d="M226.5,256 l0,110" />
        <path id="right-margin-Ultralight-M" d="M303.5,256 l0,110" />
        <path id="left-margin-Regular-M" d="M426.5,256 l0,110" />
        <path id="right-margin-Regular-M" d="M503.5,256 l0,110" />
        <path id="left-margin-Black-M" d="M626.5,256 l0,110" />
        <path id="right-margin-Black-M" d="M703.5,256 l0,110" />
        <path id="Capline-M" d="M18,276 l800,0" />
        <path id="Baseline-M" d="M18,346 l800,0" />
        <path id="Capline-L" d="M18,476 l800,0" />
        <path id="Baseline-L" d="M18,546 l800,0" />
    </g>
    <g id="Symbols">
        <g id="Ultralight-M" transform="translate(0,200)">
            <path d="M265,142.5 C265,139.818 265.558,138.655 267.733,135.936 C270.808,132.092 272,129.61 272,125 C272,123.067 270.433,121.5 268.5,121.5 C266.567,121.5 265,123.067 265,125 C265,127.682 264.442,128.845 262.267,131.564 C259.192,135.408 258,137.89 258,142.5 C258,144.433 259.567,146 261.5,146 C263.433,146 265,144.433 265,142.5 Z" />
            <path d="M282.5,142.5 C282.5,139.818 283.058,138.655 285.233,135.936 C288.308,132.092 289.5,129.61 289.5,125 C289.5,123.067 287.933,121.5 286,121.5 C284.067,121.5 282.5,123.067 282.5,125 C282.5,127.682 281.942,128.845 279.767,131.564 C276.692,135.408 275.5,137.89 275.5,142.5 C275.5,144.433 277.067,146 279,146 C280.933,146 282.5,144.433 282.5,142.5 Z" />
            <path d="M286.118,96.098 L283.318,106.598 C283.189,107.202 282.84,107.493 282.431,107.501 L247.5,107.5 C247.16,107.493 246.811,107.202 246.729,106.801 L243.882,96.098 C243.384,94.23 241.466,93.12 239.598,93.618 C237.73,94.116 236.62,96.034 237.118,97.902 L239.918,108.402 C240.607,111.809 243.747,114.426 247.431,114.499 L282.5,114.5 C286.253,114.426 289.393,111.809 290.129,108.199 L292.882,97.902 C293.38,96.034 292.27,94.116 290.402,93.618 C288.534,93.12 286.616,94.23 286.118,96.098 Z" />
            <path d="M296.5,83 C296.5,83 296.5,83 296.5,83 C296.5,83 296.5,83 296.5,83 L296.5,90 C296.5,90.928 296.131,91.818 295.475,92.475 C294.818,93.131 293.928,93.5 293,93.5 L237,93.5 C236.072,93.5 235.182,93.131 234.525,92.475 C233.869,91.818 233.5,90.928 233.5,90 L233.5,83 C233.5,83 233.5,83 233.5,83 C233.5,83 233.5,83 233.5,83 L296.5,83 Z M296.5,76 L233.5,76 C231.643,76 229.863,76.737 228.55,78.05 C227.238,79.363 226.5,81.143 226.5,83 L226.5,90 C226.5,92.785 227.606,95.455 229.575,97.425 C231.545,99.394 234.215,100.5 237,100.5 L293,100.5 C295.785,100.5 298.456,99.394 300.425,97.425 C302.394,95.455 303.5,92.785 303.5,90 L303.5,83 C303.5,81.143 302.763,79.363 301.45,78.05 C300.137,76.737 298.357,76 296.5,76 Z" />
            <path d="M247.5,142.5 C247.5,139.818 248.058,138.655 250.233,135.936 C253.308,132.092 254.5,129.61 254.5,125 C254.5,123.067 252.933,121.5 251,121.5 C249.067,121.5 247.5,123.067 247.5,125 C247.5,127.682 246.942,128.845 244.767,131.564 C241.692,135.408 240.5,137.89 240.5,142.5 C240.5,144.433 242.067,146 244,146 C245.933,146 247.5,144.433 247.5,142.5 Z" />
        </g>
        <g id="Regular-M" transform="translate(0,200)">
            <path d="M465,142.5 C465,139.818 465.558,138.655 467.733,135.936 C470.808,132.092 472,129.61 472,125 C472,123.067 470.433,121.5 468.5,121.5 C466.567,121.5 465,123.067 465,125 C465,127.682 464.442,128.845 462.267,131.564 C459.192,135.408 458,137.89 458,142.5 C458,144.433 459.567,146 461.5,146 C463.433,146 465,144.433 465,142.5 Z" />
            <path d="M482.5,142.5 C482.5,139.818 483.058,138.655 485.233,135.936 C488.308,132.092 489.5,129.61 489.5,125 C489.5,123.067 487.933,121.5 486,121.5 C484.067,121.5 482.5,123.067 482.5,125 C482.5,127.682 481.942,128.845 479.767,131.564 C476.692,135.408 475.5,137.89 475.5,142.5 C475.5,144.433 477.067,146 479,146 C480.933,146 482.5,144.433 482.5,142.5 Z" />
            <path d="M486.118,96.098 L483.318,106.598 C483.189,107.202 482.84,107.493 482.431,107.501 L447.5,107.5 C447.16,107.493 446.811,107.202 446.729,106.801 L443.882,96.098 C443.384,94.23 441.466,93.12 439.598,93.618 C437.73,94.116 436.62,96.034 437.118,97.902 L439.918,108.402 C440.607,111.809 443.747,114.426 447.431,114.499 L482.5,114.5 C486.253,114.426 489.393,111.809 490.129,108.199 L492.882,97.902 C493.38,96.034 492.27,94.116 490.402,93.618 C488.534,93.12 486.616,94.23 486.118,96.098 Z" />
            <path d="M496.5,83 C496.5,83 496.5,83 496.5,83 C496.5,83 496.5,83 496.5,83 L496.5,90 C496.5,90.928 496.131,91.818 495.475,92.475 C494.818,93.131 493.928,93.5 493,93.5 L437,93.5 C436.072,93.5 435.182,93.131 434.525,92.475 C433.869,91.818 433.5,90.928 433.5,90 L433.5,83 C433.5,83 433.5,83 433.5,83 C433.5,83 433.5,83 433.5,83 L496.5,83 Z M496.5,76 L433.5,76 C431.643,76 429.863,76.737 428.55,78.05 C427.237,79.363 426.5,81.143 426.5,83 L426.5,90 C426.5,92.785 427.606,95.455 429.575,97.425 C431.545,99.394 434.215,100.5 437,100.5 L493,100.5 C495.785,100.5 498.456,99.394 500.425,97.425 C502.394,95.455 503.5,92.785 503.5,90 L503.5,83 C503.5,81.143 502.763,79.363 501.45,78.05 C500.137,76.737 498.357,76 496.5,76 Z" />
            <path d="M447.5,142.5 C447.5,139.818 448.058,138.655 450.233,135.936 C453.308,132.092 454.5,129.61 454.5,125 C454.5,123.067 452.933,121.5 451,121.5 C449.067,121.5 447.5,123.067 447.5,125 C447.5,127.682 446.942,128.845 444.767,131.564 C441.692,135.408 440.5,137.89 440.5,142.5 C440.5,144.433 442.067,146 444,146 C445.933,146 447.5,144.433 447.5,142.5 Z" />
        </g>
        <g id="Black-M" transform="translate(0,200)">
            <path d="M665,142.5 C665,139.818 665.558,138.655 667.733,135.936 C670.808,132.092 672,129.61 672,125 C672,123.067 670.433,121.5 668.5,121.5 C666.567,121.5 665,123.067 665,125 C665,127.682 664.442,128.845 662.267,131.564 C659.192,135.408 658,137.89 658,142.5 C658,144.433 659.567,146 661.5,146 C663.433,146 665,144.433 665,142.5 Z" />
            <path d="M682.5,142.5 C682.5,139.818 683.058,138.655 685.233,135.936 C688.308,132.092 689.5,129.61 689.5,125 C689.5,123.067 687.933,121.5 686,121.5 C684.067,121.5 682.5,123.067 682.5,125 C682.5,127.682 681.942,128.845 679.767,131.564 C676.692,135.408 675.5,137.89 675.5,142.5 C675.5,144.433 677.067,146 679,146 C680.933,146 682.5,144.433 682.5,142.5 Z" />
            <path d="M686.118,96.098 L683.318,106.598 C683.189,107.202 682.84,107.493 682.431,107.501 L647.5,107.5 C647.16,107.493 646.811,107.202 646.729,106.801 L643.882,96.098 C643.384,94.23 641.466,93.12 639.598,93.618 C637.73,94.116 636.62,96.034 637.118,97.902 L639.918,108.402 C640.607,111.809 643.747,114.426 647.431,114.499 L682.5,114.5 C686.253,114.426 689.393,111.809 690.129,108.199 L692.882,97.902 C693.38,96.034 692.27,94.116 690.402,93.618 C688.534,93.12 686.616,94.23 686.118,96.098 Z" />
            <path d="M696.5,83 C696.5,83 696.5,83 696.5,83 C696.5,83 696.5,83 696.5,83 L696.5,90 C696.5,90.928 696.131,91.818 695.475,92.475 C694.818,93.131 693.928,93.5 693,93.5 L637,93.5 C636.072,93.5 635.182,93.131 634.525,92.475 C633.869,91.818 633.5,90.928 633.5,90 L633.5,83 C633.5,83 633.5,83 633.5,83 C633.5,83 633.5,83 633.5,83 L696.5,83 Z M696.5,76 L633.5,76 C631.643,76 629.863,76.737 628.55,78.05 C627.237,79.363 626.5,81.143 626.5,83 L626.5,90 C626.5,92.785 627.606,95.455 629.575,97.425 C631.544,99.394 634.215,100.5 637,100.5 L693,100.5 C695.785,100.5 698.456,99.394 700.425,97.425 C702.394,95.455 703.5,92.785 703.5,90 L703.5,83 C703.5,81.143 702.763,79.363 701.45,78.05 C700.137,76.737 698.357,76 696.5,76 Z" />
            <path d="M647.5,142.5 C647.5,139.818 648.058,138.655 650.233,135.936 C653.308,132.092 654.5,129.61 654.5,125 C654.5,123.067 652.933,121.5 651,121.5 C649.067,121.5 647.5,123.067 647.5,125 C647.5,127.682 646.942,128.845 644.767,131.564 C641.692,135.408 640.5,137.89 640.5,142.5 C640.5,144.433 642.067,146 644,146 C645.933,146 647.5,144.433 647.5,142.5 Z" />
        </g>
    </g>
</svg>