<?xml version="1.0" encoding="UTF-8"?>
<svg height="600" width="800" xmlns="http://www.w3.org/2000/svg" xmlns:xlink="http://www.w3.org/1999/xlink">
    <g id="Notes" font-family="LucidaGrande, 'Lucida Grande', sans-serif" font-size="13">
        <rect fill="white" height="600.0" width="800.0" x="0.0" y="0.0" />
        <g font-size="13">
            <text x="18.0" y="176.0">Small</text>
            <text x="18.0" y="376.0">Medium</text>
            <text x="18.0" y="576.0">Large</text>
        </g>
        <g font-size="9">
            <text x="250.0" y="30.0">Ultralight</text>
            <text x="450.0" y="30.0">Regular</text>
            <text x="650.0" y="30.0">Black</text>
            <text id="template-version" fill="#505050" text-anchor="end" x="785.0" y="575.0">Template v.3.0</text>
            <a href="https://github.com/swhitty/SwiftDraw">
                <text fill="#505050" text-anchor="end" x="785.0" y="590.0">https://github.com/swhitty/SwiftDraw</text>
            </a>
        </g>
    </g>
    <g id="Guides" stroke="rgb(39, 170, 225)" stroke-width="0.5">
        <path id="Capline-S" d="M18,76 l800,0" />
        <path id="H-reference" d="M85,145.755 L87.685,145.755 L113.369,79.287 L114.052,79.287 L114.052,76 L112.148,76 L85,145.755 Z M95.693,121.536 L130.996,121.536 L130.263,119.313 L96.474,119.313 L95.693,121.536 Z M139.15,145.755 L141.787,145.755 L114.638,76 L113.466,76 L113.466,79.287 L139.15,145.755 Z" stroke="none" transform="translate(0,200)" />
        <path id="Baseline-S" d="M18,146 l800,0" />
        <path id="left-margin-Ultralight-M" d="M230,256 l0,110" />
        <path id="right-margin-Ultralight-M" d="M300,256 l0,110" />
        <path id="left-margin-Regular-M" d="M430,256 l0,110" />
        <path id="right-margin-Regular-M" d="M500,256 l0,110" />
        <path id="left-margin-Black-M" d="M630,256 l0,110" />
        <path id="right-margin-Black-M" d="M700,256 l0,110" />
        <path id="Capline-M" d="M18,276 l800,0" />
        <path id="Baseline-M" d="M18,346 l800,0" />
        <path id="Capline-L" d="M18,476 l800,0" />
        <path id="Baseline-L" d="M18,546 l800,0" />
    </g>
    <g id="Symbols">
        <g id="Ultralight-M" transform="translate(0,200)">
            <path d="M249.091,111 L249.091,126.909 C249.091,127.753 248.756,128.562 248.159,129.159 C247.562,129.756 246.753,130.091 245.909,130.091 L239.545,130.091 C238.702,130.091 237.892,129.756 237.296,129.159 C236.699,128.562 236.364,127.753 236.364,126.909 L236.364,95.091 C236.364,94.247 236.699,93.438 237.296,92.841 C237.892,92.244 238.702,91.909 239.545,91.909 L245.909,91.909 C246.753,91.909 247.562,92.244 248.159,92.841 C248.756,93.438 249.091,94.247 249.091,95.091 L249.091,111 Z M255.455,111 L255.455,95.091 C255.455,92.559 254.449,90.131 252.659,88.341 C250.869,86.551 248.441,85.545 245.909,85.545 L239.545,85.545 C237.014,85.545 234.586,86.551 232.796,88.341 C231.006,90.131 230,92.559 230,95.091 L230,126.909 C230,129.441 231.006,131.869 232.796,133.659 C234.586,135.449 237.014,136.455 239.545,136.455 L245.909,136.455 C248.441,136.455 250.869,135.449 252.659,133.659 C254.449,131.869 255.455,129.441 255.455,126.909 L255.455,111 Z" />
            <path d="M280.909,111 L280.909,120.545 C280.909,121.389 280.574,122.199 279.977,122.795 C279.38,123.392 278.571,123.727 277.727,123.727 L271.364,123.727 C270.52,123.727 269.71,123.392 269.114,122.795 C268.517,122.199 268.182,121.389 268.182,120.545 L268.182,101.455 C268.182,100.611 268.517,99.801 269.114,99.205 C269.71,98.608 270.52,98.273 271.364,98.273 L277.727,98.273 C278.571,98.273 279.38,98.608 279.977,99.205 C280.574,99.801 280.909,100.611 280.909,101.455 L280.909,111 Z M287.273,111 L287.273,101.455 C287.273,98.923 286.267,96.495 284.477,94.705 C282.687,92.915 280.259,91.909 277.727,91.909 L271.364,91.909 C268.832,91.909 266.404,92.915 264.614,94.705 C262.824,96.495 261.818,98.923 261.818,101.455 L261.818,120.545 C261.818,123.077 262.824,125.505 264.614,127.295 C266.404,129.085 268.832,130.091 271.364,130.091 L277.727,130.091 C280.259,130.091 282.687,129.085 284.477,127.295 C286.267,125.505 287.273,123.077 287.273,120.545 L287.273,111 Z" />
            <path d="M293.636,79.182 L293.636,142.818 C293.636,144.575 295.061,146 296.818,146 C298.575,146 300,144.575 300,142.818 L300,79.182 C300,77.425 298.575,76 296.818,76 C295.061,76 293.636,77.425 293.636,79.182 Z" />
        </g>
        <g id="Regular-M" transform="translate(0,200)">
            <path d="M449.091,111 L449.091,126.909 C449.091,127.753 448.756,128.562 448.159,129.159 C447.562,129.756 446.753,130.091 445.909,130.091 L439.545,130.091 C438.702,130.091 437.892,129.756 437.296,129.159 C436.699,128.562 436.364,127.753 436.364,126.909 L436.364,95.091 C436.364,94.247 436.699,93.438 437.296,92.841 C437.892,92.244 438.702,91.909 439.545,91.909 L445.909,91.909 C446.753,91.909 447.562,92.244 448.159,92.841 C448.756,93.438 449.091,94.247 449.091,95.091 L449.091,111 Z M455.455,111 L455.455,95.091 C455.455,92.559 454.449,90.131 452.659,88.341 C450.869,86.551 448.441,85.545 445.909,85.545 L439.545,85.545 C437.014,85.545 434.586,86.551 432.796,88.341 C431.006,90.131 430,92.559 430,95.091 L430,126.909 C430,129.441 431.006,131.869 432.796,133.659 C434.586,135.449 437.014,136.455 439.545,136.455 L445.909,136.455 C448.441,136.455 450.869,135.449 452.659,133.659 C454.449,131.869 455.455,129.441 455.455,126.909 L455.455,111 Z" />
            <path d="M480.909,111 L480.909,120.545 C480.909,121.389 480.574,122.199 479.977,122.795 C479.38,123.392 478.571,123.727 477.727,123.727 L471.364,123.727 C470.52,123.727 469.71,123.392 469.114,122.795 C468.517,122.199 468.182,121.389 468.182,120.545 L468.182,101.455 C468.182,100.611 468.517,99.801 469.114,99.205 C469.71,98.608 470.52,98.273 471.364,98.273 L477.727,98.273 C478.571,98.273 479.38,98.608 479.977,99.205 C480.574,99.801 480.909,100.611 480.909,101.455 L480.909,111 Z M487.273,111 L487.273,101.455 C487.273,98.923 486.267,96.495 484.477,94.705 C482.687,92.915 480.259,91.909 477.727,91.909 L471.364,91.909 C468.832,91.909 466.404,92.915 464.614,94.705 C462.824,96.495 461.818,98.923 461.818,101.455 L461.818,120.545 C461.818,123.077 462.824,125.505 464.614,127.295 C466.404,129.085 468.832,130.091 471.364,130.091 L477.727,130.091 C480.259,130.091 482.687,129.085 484.477,127.295 C486.267,125.505 487.273,123.077 487.273,120.545 L487.273,111 Z" />
            <path d="M493.636,79.182 L493.636,142.818 C493.636,144.575 495.061,146 496.818,146 C498.575,146 500,144.575 500,142.818 L500,79.182 C500,77.425 498.575,76 496.818,76 C495.061,76 493.636,77.425 493.636,79.182 Z" />
        </g>
        <g id="Black-M" transform="translate(0,200)">
            <path d="M649.091,111 L649.091,126.909 C649.091,127.753 648.756,128.562 648.159,129.159 C647.562,129.756 646.753,130.091 645.909,130.091 L639.545,130.091 C638.702,130.091 637.892,129.756 637.296,129.159 C636.699,128.562 636.364,127.753 636.364,126.909 L636.364,95.091 C636.364,94.247 636.699,93.438 637.296,92.841 C637.892,92.244 638.702,91.909 639.545,91.909 L645.909,91.909 C646.753,91.909 647.562,92.244 648.159,92.841 C648.756,93.438 649.091,94.247 649.091,95.091 L649.091,111 Z M655.455,111 L655.455,95.091 C655.455,92.559 654.449,90.131 652.659,88.341 C650.869,86.551 648.441,85.545 645.909,85.545 L639.545,85.545 C637.014,85.545 634.586,86.551 632.796,88.341 C631.006,90.131 630,92.559 630,95.091 L630,126.909 C630,129.441 631.006,131.869 632.796,133.659 C634.586,135.449 637.014,136.455 639.545,136.455 L645.909,136.455 C648.441,136.455 650.869,135.449 652.659,133.659 C654.449,131.869 655.455,129.441 655.455,126.909 L655.455,111 Z" />
            <path d="M680.909,111 L680.909,120.545 C680.909,121.389 680.574,122.199 679.977,122.795 C679.38,123.392 678.571,123.727 677.727,123.727 L671.364,123.727 C670.52,123.727 669.71,123.392 669.114,122.795 C668.517,122.199 668.182,121.389 668.182,120.545 L668.182,101.455 C668.182,100.611 668.517,99.801 669.114,99.205 C669.71,98.608 670.52,98.273 671.364,98.273 L677.727,98.273 C678.571,98.273 679.38,98.608 679.977,99.205 C680.574,99.801 680.909,100.611 680.909,101.455 L680.909,111 Z M687.273,111 L687.273,101.455 C687.273,98.923 686.267,96.495 684.477,94.705 C682.687,92.915 680.259,91.909 677.727,91.909 L671.364,91.909 C668.832,91.909 666.404,92.915 664.614,94.705 C662.824,96.495 661.818,98.923 661.818,101.455 L661.818,120.545 C661.818,123.077 662.824,125.505 664.614,127.295 C666.404,129.085 668.832,130.091 671.364,130.091 L677.727,130.091 C680.259,130.091 682.687,129.085 684.477,127.295 C686.267,125.505 687.273,123.077 687.273,120.545 L687.273,111 Z" />
            <path d="M693.636,79.182 L693.636,142.818 C693.636,144.575 695.061,146 696.818,146 C698.575,146 700,144.575 700,142.818 L700,79.182 C700,77.425 698.575,76 696.818,76 C695.061,76 693.636,77.425 693.636,79.182 Z" />
        </g>
    </g>
</svg>