<?xml version="1.0" encoding="UTF-8"?>
<svg height="600" width="800" xmlns="http://www.w3.org/2000/svg" xmlns:xlink="http://www.w3.org/1999/xlink">
    <g id="Notes" font-family="LucidaGrande, 'Lucida Grande', sans-serif" font-size="13">
        <rect fill="white" height="600.0" width="800.0" x="0.0" y="0.0" />
        <g font-size="13">
            <text x="18.0" y="176.0">Small</text>
            <text x="18.0" y="376.0">Medium</text>
            <text x="18.0" y="576.0">Large</text>
        </g>
        <g font-size="9">
            <text x="250.0" y="30.0">Ultralight</text>
            <text x="450.0" y="30.0">Regular</text>
            <text x="650.0" y="30.0">Black</text>
            <text id="template-version" fill="#505050" text-anchor="end" x="785.0" y="575.0">Template v.3.0</text>
            <a href="https://github.com/swhitty/SwiftDraw">
                <text fill="#505050" text-anchor="end" x="785.0" y="590.0">https://github.com/swhitty/SwiftDraw</text>
            </a>
        </g>
    </g>
    <g id="Guides" stroke="rgb(39, 170, 225)" stroke-width="0.5">
        <path id="Capline-S" d="M18,76 l800,0" />
        <path id="H-reference" d="M85,145.755 L87.685,145.755 L113.369,79.287 L114.052,79.287 L114.052,76 L112.148,76 L85,145.755 Z M95.693,121.536 L130.996,121.536 L130.263,119.313 L96.474,119.313 L95.693,121.536 Z M139.15,145.755 L141.787,145.755 L114.638,76 L113.466,76 L113.466,79.287 L139.15,145.755 Z" stroke="none" transform="translate(0,200)" />
        <path id="Baseline-S" d="M18,146 l800,0" />
        <path id="left-margin-Ultralight-M" d="M222.222,256 l0,110" />
        <path id="right-margin-Ultralight-M" d="M307.778,256 l0,110" />
        <path id="left-margin-Regular-M" d="M422.222,256 l0,110" />
        <path id="right-margin-Regular-M" d="M507.778,256 l0,110" />
        <path id="left-margin-Black-M" d="M622.222,256 l0,110" />
        <path id="right-margin-Black-M" d="M707.778,256 l0,110" />
        <path id="Capline-M" d="M18,276 l800,0" />
        <path id="Baseline-M" d="M18,346 l800,0" />
        <path id="Capline-L" d="M18,476 l800,0" />
        <path id="Baseline-L" d="M18,546 l800,0" />
    </g>
    <g id="Symbols">
        <g id="Ultralight-M" transform="translate(0,200)">
            <path d="M280.556,111 L280.556,114.889 C280.556,115.92 280.146,116.909 279.417,117.639 C278.687,118.368 277.698,118.778 276.667,118.778 L253.333,118.778 C252.302,118.778 251.313,118.368 250.583,117.639 C249.854,116.909 249.444,115.92 249.444,114.889 L249.444,107.111 C249.444,106.08 249.854,105.091 250.583,104.361 C251.313,103.632 252.302,103.222 253.333,103.222 L276.667,103.222 C277.698,103.222 278.687,103.632 279.417,104.361 C280.146,105.091 280.556,106.08 280.556,107.111 L280.556,111 Z M288.333,111 L288.333,107.111 C288.333,104.017 287.104,101.049 284.916,98.862 C282.728,96.674 279.761,95.444 276.667,95.444 L253.333,95.444 C250.239,95.444 247.272,96.674 245.084,98.862 C242.896,101.049 241.667,104.017 241.667,107.111 L241.667,114.889 C241.667,117.983 242.896,120.951 245.084,123.138 C247.272,125.326 250.239,126.556 253.333,126.556 L276.667,126.556 C279.761,126.556 282.728,125.326 284.916,123.138 C287.104,120.951 288.333,117.983 288.333,114.889 L288.333,111 Z" />
            <path d="M303.889,138.222 L226.111,138.222 C223.963,138.222 222.222,139.963 222.222,142.111 C222.222,144.259 223.963,146 226.111,146 L303.889,146 C306.037,146 307.778,144.259 307.778,142.111 C307.778,139.963 306.037,138.222 303.889,138.222 Z" />
            <path d="M303.889,76 L226.111,76 C223.963,76 222.222,77.741 222.222,79.889 C222.222,82.037 223.963,83.778 226.111,83.778 L303.889,83.778 C306.037,83.778 307.778,82.037 307.778,79.889 C307.778,77.741 306.037,76 303.889,76 Z" />
        </g>
        <g id="Regular-M" transform="translate(0,200)">
            <path d="M480.556,111 L480.556,114.889 C480.556,115.92 480.146,116.909 479.417,117.639 C478.687,118.368 477.698,118.778 476.667,118.778 L453.333,118.778 C452.302,118.778 451.313,118.368 450.583,117.639 C449.854,116.909 449.444,115.92 449.444,114.889 L449.444,107.111 C449.444,106.08 449.854,105.091 450.583,104.361 C451.313,103.632 452.302,103.222 453.333,103.222 L476.667,103.222 C477.698,103.222 478.687,103.632 479.417,104.361 C480.146,105.091 480.556,106.08 480.556,107.111 L480.556,111 Z M488.333,111 L488.333,107.111 C488.333,104.017 487.104,101.049 484.916,98.862 C482.728,96.674 479.761,95.444 476.667,95.444 L453.333,95.444 C450.239,95.444 447.272,96.674 445.084,98.862 C442.896,101.049 441.667,104.017 441.667,107.111 L441.667,114.889 C441.667,117.983 442.896,120.951 445.084,123.138 C447.272,125.326 450.239,126.556 453.333,126.556 L476.667,126.556 C479.761,126.556 482.728,125.326 484.916,123.138 C487.104,120.951 488.333,117.983 488.333,114.889 L488.333,111 Z" />
            <path d="M503.889,138.222 L426.111,138.222 C423.963,138.222 422.222,139.963 422.222,142.111 C422.222,144.259 423.963,146 426.111,146 L503.889,146 C506.037,146 507.778,144.259 507.778,142.111 C507.778,139.963 506.037,138.222 503.889,138.222 Z" />
            <path d="M503.889,76 L426.111,76 C423.963,76 422.222,77.741 422.222,79.889 C422.222,82.037 423.963,83.778 426.111,83.778 L503.889,83.778 C506.037,83.778 507.778,82.037 507.778,79.889 C507.778,77.741 506.037,76 503.889,76 Z" />
        </g>
        <g id="Black-M" transform="translate(0,200)">
            <path d="M680.556,111 L680.556,114.889 C680.556,115.92 680.146,116.909 679.417,117.639 C678.687,118.368 677.698,118.778 676.667,118.778 L653.333,118.778 C652.302,118.778 651.313,118.368 650.583,117.639 C649.854,116.909 649.444,115.92 649.444,114.889 L649.444,107.111 C649.444,106.08 649.854,105.091 650.583,104.361 C651.313,103.632 652.302,103.222 653.333,103.222 L676.667,103.222 C677.698,103.222 678.687,103.632 679.417,104.361 C680.146,105.091 680.556,106.08 680.556,107.111 L680.556,111 Z M688.333,111 L688.333,107.111 C688.333,104.017 687.104,101.049 684.916,98.862 C682.728,96.674 679.761,95.444 676.667,95.444 L653.333,95.444 C650.239,95.444 647.272,96.674 645.084,98.862 C642.896,101.049 641.667,104.017 641.667,107.111 L641.667,114.889 C641.667,117.983 642.896,120.951 645.084,123.138 C647.272,125.326 650.239,126.556 653.333,126.556 L676.667,126.556 C679.761,126.556 682.728,125.326 684.916,123.138 C687.104,120.951 688.333,117.983 688.333,114.889 L688.333,111 Z" />
            <path d="M703.889,138.222 L626.111,138.222 C623.963,138.222 622.222,139.963 622.222,142.111 C622.222,144.259 623.963,146 626.111,146 L703.889,146 C706.037,146 707.778,144.259 707.778,142.111 C707.778,139.963 706.037,138.222 703.889,138.222 Z" />
            <path d="M703.889,76 L626.111,76 C623.963,76 622.222,77.741 622.222,79.889 C622.222,82.037 623.963,83.778 626.111,83.778 L703.889,83.778 C706.037,83.778 707.778,82.037 707.778,79.889 C707.778,77.741 706.037,76 703.889,76 Z" />
        </g>
    </g>
</svg>