<?xml version="1.0" encoding="UTF-8"?>
<svg height="600" width="800" xmlns="http://www.w3.org/2000/svg" xmlns:xlink="http://www.w3.org/1999/xlink">
    <g id="Notes" font-family="LucidaGrande, 'Lucida Grande', sans-serif" font-size="13">
        <rect fill="white" height="600.0" width="800.0" x="0.0" y="0.0" />
        <g font-size="13">
            <text x="18.0" y="176.0">Small</text>
            <text x="18.0" y="376.0">Medium</text>
            <text x="18.0" y="576.0">Large</text>
        </g>
        <g font-size="9">
            <text x="250.0" y="30.0">Ultralight</text>
            <text x="450.0" y="30.0">Regular</text>
            <text x="650.0" y="30.0">Black</text>
            <text id="template-version" fill="#505050" text-anchor="end" x="785.0" y="575.0">Template v.3.0</text>
            <a href="https://github.com/swhitty/SwiftDraw">
                <text fill="#505050" text-anchor="end" x="785.0" y="590.0">https://github.com/swhitty/SwiftDraw</text>
            </a>
        </g>
    </g>
    <g id="Guides" stroke="rgb(39, 170, 225)" stroke-width="0.5">
        <path id="Capline-S" d="M18,76 l800,0" />
        <path id="H-reference" d="M85,145.755 L87.685,145.755 L113.369,79.287 L114.052,79.287 L114.052,76 L112.148,76 L85,145.755 Z M95.693,121.536 L130.996,121.536 L130.263,119.313 L96.474,119.313 L95.693,121.536 Z M139.15,145.755 L141.787,145.755 L114.638,76 L113.466,76 L113.466,79.287 L139.15,145.755 Z" stroke="none" transform="translate(0,200)" />
        <path id="Baseline-S" d="M18,146 l800,0" />
        <path id="left-margin-Ultralight-M" d="M230,256 l0,110" />
        <path id="right-margin-Ultralight-M" d="M300,256 l0,110" />
        <path id="left-margin-Regular-M" d="M430,256 l0,110" />
        <path id="right-margin-Regular-M" d="M500,256 l0,110" />
        <path id="left-margin-Black-M" d="M630,256 l0,110" />
        <path id="right-margin-Black-M" d="M700,256 l0,110" />
        <path id="Capline-M" d="M18,276 l800,0" />
        <path id="Baseline-M" d="M18,346 l800,0" />
        <path id="Capline-L" d="M18,476 l800,0" />
        <path id="Baseline-L" d="M18,546 l800,0" />
    </g>
    <g id="Symbols">
        <g id="Ultralight-M" transform="translate(0,200)">
            <path d="M284.091,133.273 L284.091,136.455 C284.091,137.298 283.756,138.108 283.159,138.704 C282.562,139.301 281.753,139.636 280.909,139.636 L249.091,139.636 C248.247,139.636 247.438,139.301 246.841,138.704 C246.244,138.108 245.909,137.298 245.909,136.455 L245.909,130.091 C245.909,129.247 246.244,128.438 246.841,127.841 C247.438,127.244 248.247,126.909 249.091,126.909 L280.909,126.909 C281.753,126.909 282.562,127.244 283.159,127.841 C283.756,128.438 284.091,129.247 284.091,130.091 L284.091,133.273 Z M290.455,133.273 L290.455,130.091 C290.455,127.559 289.449,125.131 287.659,123.341 C285.869,121.551 283.441,120.545 280.909,120.545 L249.091,120.545 C246.559,120.545 244.131,121.551 242.341,123.341 C240.551,125.131 239.545,127.559 239.545,130.091 L239.545,136.455 C239.545,138.986 240.551,141.414 242.341,143.204 C244.131,144.994 246.559,146 249.091,146 L280.909,146 C283.441,146 285.869,144.994 287.659,143.204 C289.449,141.414 290.455,138.986 290.455,136.455 L290.455,133.273 Z" />
            <path d="M277.727,88.727 L277.727,91.909 C277.727,92.753 277.392,93.562 276.795,94.159 C276.199,94.756 275.389,95.091 274.545,95.091 L255.455,95.091 C254.611,95.091 253.801,94.756 253.205,94.159 C252.608,93.562 252.273,92.753 252.273,91.909 L252.273,85.545 C252.273,84.702 252.608,83.892 253.205,83.296 C253.801,82.699 254.611,82.364 255.455,82.364 L274.545,82.364 C275.389,82.364 276.199,82.699 276.795,83.296 C277.392,83.892 277.727,84.702 277.727,85.545 L277.727,88.727 Z M284.091,88.727 L284.091,85.545 C284.091,83.014 283.085,80.586 281.295,78.796 C279.505,77.006 277.077,76 274.545,76 L255.455,76 C252.923,76 250.495,77.006 248.705,78.796 C246.915,80.586 245.909,83.014 245.909,85.545 L245.909,91.909 C245.909,94.441 246.915,96.869 248.705,98.659 C250.495,100.449 252.923,101.455 255.455,101.455 L274.545,101.455 C277.077,101.455 279.505,100.449 281.295,98.659 C283.085,96.869 284.091,94.441 284.091,91.909 L284.091,88.727 Z" />
            <path d="M233.182,114.182 L296.818,114.182 C298.575,114.182 300,112.757 300,111 C300,109.243 298.575,107.818 296.818,107.818 L233.182,107.818 C231.425,107.818 230,109.243 230,111 C230,112.757 231.425,114.182 233.182,114.182 Z" />
        </g>
        <g id="Regular-M" transform="translate(0,200)">
            <path d="M484.091,133.273 L484.091,136.455 C484.091,137.298 483.756,138.108 483.159,138.704 C482.562,139.301 481.753,139.636 480.909,139.636 L449.091,139.636 C448.247,139.636 447.438,139.301 446.841,138.704 C446.244,138.108 445.909,137.298 445.909,136.455 L445.909,130.091 C445.909,129.247 446.244,128.438 446.841,127.841 C447.438,127.244 448.247,126.909 449.091,126.909 L480.909,126.909 C481.753,126.909 482.562,127.244 483.159,127.841 C483.756,128.438 484.091,129.247 484.091,130.091 L484.091,133.273 Z M490.455,133.273 L490.455,130.091 C490.455,127.559 489.449,125.131 487.659,123.341 C485.869,121.551 483.441,120.545 480.909,120.545 L449.091,120.545 C446.559,120.545 444.131,121.551 442.341,123.341 C440.551,125.131 439.545,127.559 439.545,130.091 L439.545,136.455 C439.545,138.986 440.551,141.414 442.341,143.204 C444.131,144.994 446.559,146 449.091,146 L480.909,146 C483.441,146 485.869,144.994 487.659,143.204 C489.449,141.414 490.455,138.986 490.455,136.455 L490.455,133.273 Z" />
            <path d="M477.727,88.727 L477.727,91.909 C477.727,92.753 477.392,93.562 476.795,94.159 C476.199,94.756 475.389,95.091 474.545,95.091 L455.455,95.091 C454.611,95.091 453.801,94.756 453.205,94.159 C452.608,93.562 452.273,92.753 452.273,91.909 L452.273,85.545 C452.273,84.702 452.608,83.892 453.205,83.296 C453.801,82.699 454.611,82.364 455.455,82.364 L474.545,82.364 C475.389,82.364 476.199,82.699 476.795,83.296 C477.392,83.892 477.727,84.702 477.727,85.545 L477.727,88.727 Z M484.091,88.727 L484.091,85.545 C484.091,83.014 483.085,80.586 481.295,78.796 C479.505,77.006 477.077,76 474.545,76 L455.455,76 C452.923,76 450.495,77.006 448.705,78.796 C446.915,80.586 445.909,83.014 445.909,85.545 L445.909,91.909 C445.909,94.441 446.915,96.869 448.705,98.659 C450.495,100.449 452.923,101.455 455.455,101.455 L474.545,101.455 C477.077,101.455 479.505,100.449 481.295,98.659 C483.085,96.869 484.091,94.441 484.091,91.909 L484.091,88.727 Z" />
            <path d="M433.182,114.182 L496.818,114.182 C498.575,114.182 500,112.757 500,111 C500,109.243 498.575,107.818 496.818,107.818 L433.182,107.818 C431.425,107.818 430,109.243 430,111 C430,112.757 431.425,114.182 433.182,114.182 Z" />
        </g>
        <g id="Black-M" transform="translate(0,200)">
            <path d="M684.091,133.273 L684.091,136.455 C684.091,137.298 683.756,138.108 683.159,138.704 C682.562,139.301 681.753,139.636 680.909,139.636 L649.091,139.636 C648.247,139.636 647.438,139.301 646.841,138.704 C646.244,138.108 645.909,137.298 645.909,136.455 L645.909,130.091 C645.909,129.247 646.244,128.438 646.841,127.841 C647.438,127.244 648.247,126.909 649.091,126.909 L680.909,126.909 C681.753,126.909 682.562,127.244 683.159,127.841 C683.756,128.438 684.091,129.247 684.091,130.091 L684.091,133.273 Z M690.455,133.273 L690.455,130.091 C690.455,127.559 689.449,125.131 687.659,123.341 C685.869,121.551 683.441,120.545 680.909,120.545 L649.091,120.545 C646.559,120.545 644.131,121.551 642.341,123.341 C640.551,125.131 639.545,127.559 639.545,130.091 L639.545,136.455 C639.545,138.986 640.551,141.414 642.341,143.204 C644.131,144.994 646.559,146 649.091,146 L680.909,146 C683.441,146 685.869,144.994 687.659,143.204 C689.449,141.414 690.455,138.986 690.455,136.455 L690.455,133.273 Z" />
            <path d="M677.727,88.727 L677.727,91.909 C677.727,92.753 677.392,93.562 676.795,94.159 C676.199,94.756 675.389,95.091 674.545,95.091 L655.455,95.091 C654.611,95.091 653.801,94.756 653.205,94.159 C652.608,93.562 652.273,92.753 652.273,91.909 L652.273,85.545 C652.273,84.702 652.608,83.892 653.205,83.296 C653.801,82.699 654.611,82.364 655.455,82.364 L674.545,82.364 C675.389,82.364 676.199,82.699 676.795,83.296 C677.392,83.892 677.727,84.702 677.727,85.545 L677.727,88.727 Z M684.091,88.727 L684.091,85.545 C684.091,83.014 683.085,80.586 681.295,78.796 C679.505,77.006 677.077,76 674.545,76 L655.455,76 C652.923,76 650.495,77.006 648.705,78.796 C646.915,80.586 645.909,83.014 645.909,85.545 L645.909,91.909 C645.909,94.441 646.915,96.869 648.705,98.659 C650.495,100.449 652.923,101.455 655.455,101.455 L674.545,101.455 C677.077,101.455 679.505,100.449 681.295,98.659 C683.085,96.869 684.091,94.441 684.091,91.909 L684.091,88.727 Z" />
            <path d="M633.182,114.182 L696.818,114.182 C698.575,114.182 700,112.757 700,111 C700,109.243 698.575,107.818 696.818,107.818 L633.182,107.818 C631.425,107.818 630,109.243 630,111 C630,112.757 631.425,114.182 633.182,114.182 Z" />
        </g>
    </g>
</svg>