<?xml version="1.0" encoding="UTF-8"?>
<svg height="600" width="800" xmlns="http://www.w3.org/2000/svg" xmlns:xlink="http://www.w3.org/1999/xlink">
    <g id="Notes" font-family="LucidaGrande, 'Lucida Grande', sans-serif" font-size="13">
        <rect fill="white" height="600.0" width="800.0" x="0.0" y="0.0" />
        <g font-size="13">
            <text x="18.0" y="176.0">Small</text>
            <text x="18.0" y="376.0">Medium</text>
            <text x="18.0" y="576.0">Large</text>
        </g>
        <g font-size="9">
            <text x="250.0" y="30.0">Ultralight</text>
            <text x="450.0" y="30.0">Regular</text>
            <text x="650.0" y="30.0">Black</text>
            <text id="template-version" fill="#505050" text-anchor="end" x="785.0" y="575.0">Template v.3.0</text>
            <a href="https://github.com/swhitty/SwiftDraw">
                <text fill="#505050" text-anchor="end" x="785.0" y="590.0">https://github.com/swhitty/SwiftDraw</text>
            </a>
        </g>
    </g>
    <g id="Guides" stroke="rgb(39, 170, 225)" stroke-width="0.5">
        <path id="Capline-S" d="M18,76 l800,0" />
        <path id="H-reference" d="M85,145.755 L87.685,145.755 L113.369,79.287 L114.052,79.287 L114.052,76 L112.148,76 L85,145.755 Z M95.693,121.536 L130.996,121.536 L130.263,119.313 L96.474,119.313 L95.693,121.536 Z M139.15,145.755 L141.787,145.755 L114.638,76 L113.466,76 L113.466,79.287 L139.15,145.755 Z" stroke="none" transform="translate(0,200)" />
        <path id="Baseline-S" d="M18,146 l800,0" />
        <path id="left-margin-Ultralight-M" d="M230,256 l0,110" />
        <path id="right-margin-Ultralight-M" d="M300,256 l0,110" />
        <path id="left-margin-Regular-M" d="M430,256 l0,110" />
        <path id="right-margin-Regular-M" d="M500,256 l0,110" />
        <path id="left-margin-Black-M" d="M630,256 l0,110" />
        <path id="right-margin-Black-M" d="M700,256 l0,110" />
        <path id="Capline-M" d="M18,276 l800,0" />
        <path id="Baseline-M" d="M18,346 l800,0" />
        <path id="Capline-L" d="M18,476 l800,0" />
        <path id="Baseline-L" d="M18,546 l800,0" />
    </g>
    <g id="Symbols">
        <g id="Ultralight-M" transform="translate(0,200)">
            <path d="M255.455,104.636 L255.455,123.727 C255.455,124.571 255.119,125.38 254.523,125.977 C253.926,126.574 253.117,126.909 252.273,126.909 L245.909,126.909 C245.065,126.909 244.256,126.574 243.659,125.977 C243.062,125.38 242.727,124.571 242.727,123.727 L242.727,85.545 C242.727,84.702 243.062,83.892 243.659,83.296 C244.256,82.699 245.065,82.364 245.909,82.364 L252.273,82.364 C253.117,82.364 253.926,82.699 254.523,83.296 C255.119,83.892 255.455,84.702 255.455,85.545 L255.455,104.636 Z M261.818,104.636 L261.818,85.545 C261.818,83.014 260.812,80.586 259.022,78.796 C257.232,77.006 254.804,76 252.273,76 L245.909,76 C243.377,76 240.95,77.006 239.159,78.796 C237.369,80.586 236.364,83.014 236.364,85.545 L236.364,123.727 C236.364,126.259 237.369,128.687 239.159,130.477 C240.95,132.267 243.377,133.273 245.909,133.273 L252.273,133.273 C254.804,133.273 257.232,132.267 259.022,130.477 C260.812,128.687 261.818,126.259 261.818,123.727 L261.818,104.636 Z" />
            <path d="M287.273,115.773 L287.273,123.727 C287.273,124.571 286.938,125.38 286.341,125.977 C285.744,126.574 284.935,126.909 284.091,126.909 L277.727,126.909 C276.883,126.909 276.074,126.574 275.477,125.977 C274.881,125.38 274.545,124.571 274.545,123.727 L274.545,107.818 C274.545,106.974 274.881,106.165 275.477,105.568 C276.074,104.972 276.883,104.636 277.727,104.636 L284.091,104.636 C284.935,104.636 285.744,104.972 286.341,105.568 C286.938,106.165 287.273,106.974 287.273,107.818 L287.273,115.773 Z M293.636,115.773 L293.636,107.818 C293.636,105.287 292.631,102.859 290.841,101.069 C289.05,99.278 286.623,98.273 284.091,98.273 L277.727,98.273 C275.196,98.273 272.768,99.278 270.978,101.069 C269.188,102.859 268.182,105.287 268.182,107.818 L268.182,123.727 C268.182,126.259 269.188,128.687 270.978,130.477 C272.768,132.267 275.196,133.273 277.727,133.273 L284.091,133.273 C286.623,133.273 289.05,132.267 290.841,130.477 C292.631,128.687 293.636,126.259 293.636,123.727 L293.636,115.773 Z" />
            <path d="M296.818,139.636 L233.182,139.636 C231.425,139.636 230,141.061 230,142.818 C230,144.575 231.425,146 233.182,146 L296.818,146 C298.575,146 300,144.575 300,142.818 C300,141.061 298.575,139.636 296.818,139.636 Z" />
        </g>
        <g id="Regular-M" transform="translate(0,200)">
            <path d="M455.455,104.636 L455.455,123.727 C455.455,124.571 455.119,125.38 454.523,125.977 C453.926,126.574 453.117,126.909 452.273,126.909 L445.909,126.909 C445.065,126.909 444.256,126.574 443.659,125.977 C443.062,125.38 442.727,124.571 442.727,123.727 L442.727,85.545 C442.727,84.702 443.062,83.892 443.659,83.296 C444.256,82.699 445.065,82.364 445.909,82.364 L452.273,82.364 C453.117,82.364 453.926,82.699 454.523,83.296 C455.119,83.892 455.455,84.702 455.455,85.545 L455.455,104.636 Z M461.818,104.636 L461.818,85.545 C461.818,83.014 460.812,80.586 459.022,78.796 C457.232,77.006 454.804,76 452.273,76 L445.909,76 C443.377,76 440.95,77.006 439.159,78.796 C437.369,80.586 436.364,83.014 436.364,85.545 L436.364,123.727 C436.364,126.259 437.369,128.687 439.159,130.477 C440.95,132.267 443.377,133.273 445.909,133.273 L452.273,133.273 C454.804,133.273 457.232,132.267 459.022,130.477 C460.812,128.687 461.818,126.259 461.818,123.727 L461.818,104.636 Z" />
            <path d="M487.273,115.773 L487.273,123.727 C487.273,124.571 486.938,125.38 486.341,125.977 C485.744,126.574 484.935,126.909 484.091,126.909 L477.727,126.909 C476.883,126.909 476.074,126.574 475.477,125.977 C474.881,125.38 474.545,124.571 474.545,123.727 L474.545,107.818 C474.545,106.974 474.881,106.165 475.477,105.568 C476.074,104.972 476.883,104.636 477.727,104.636 L484.091,104.636 C484.935,104.636 485.744,104.972 486.341,105.568 C486.938,106.165 487.273,106.974 487.273,107.818 L487.273,115.773 Z M493.636,115.773 L493.636,107.818 C493.636,105.287 492.631,102.859 490.841,101.069 C489.05,99.278 486.623,98.273 484.091,98.273 L477.727,98.273 C475.196,98.273 472.768,99.278 470.978,101.069 C469.188,102.859 468.182,105.287 468.182,107.818 L468.182,123.727 C468.182,126.259 469.188,128.687 470.978,130.477 C472.768,132.267 475.196,133.273 477.727,133.273 L484.091,133.273 C486.623,133.273 489.05,132.267 490.841,130.477 C492.631,128.687 493.636,126.259 493.636,123.727 L493.636,115.773 Z" />
            <path d="M496.818,139.636 L433.182,139.636 C431.425,139.636 430,141.061 430,142.818 C430,144.575 431.425,146 433.182,146 L496.818,146 C498.575,146 500,144.575 500,142.818 C500,141.061 498.575,139.636 496.818,139.636 Z" />
        </g>
        <g id="Black-M" transform="translate(0,200)">
            <path d="M655.455,104.636 L655.455,123.727 C655.455,124.571 655.119,125.38 654.523,125.977 C653.926,126.574 653.117,126.909 652.273,126.909 L645.909,126.909 C645.065,126.909 644.256,126.574 643.659,125.977 C643.062,125.38 642.727,124.571 642.727,123.727 L642.727,85.545 C642.727,84.702 643.062,83.892 643.659,83.296 C644.256,82.699 645.065,82.364 645.909,82.364 L652.273,82.364 C653.117,82.364 653.926,82.699 654.523,83.296 C655.119,83.892 655.455,84.702 655.455,85.545 L655.455,104.636 Z M661.818,104.636 L661.818,85.545 C661.818,83.014 660.812,80.586 659.022,78.796 C657.232,77.006 654.804,76 652.273,76 L645.909,76 C643.378,76 640.95,77.006 639.159,78.796 C637.369,80.586 636.364,83.014 636.364,85.545 L636.364,123.727 C636.364,126.259 637.369,128.687 639.159,130.477 C640.95,132.267 643.378,133.273 645.909,133.273 L652.273,133.273 C654.804,133.273 657.232,132.267 659.022,130.477 C660.812,128.687 661.818,126.259 661.818,123.727 L661.818,104.636 Z" />
            <path d="M687.273,115.773 L687.273,123.727 C687.273,124.571 686.938,125.38 686.341,125.977 C685.744,126.574 684.935,126.909 684.091,126.909 L677.727,126.909 C676.883,126.909 676.074,126.574 675.477,125.977 C674.881,125.38 674.545,124.571 674.545,123.727 L674.545,107.818 C674.545,106.974 674.881,106.165 675.477,105.568 C676.074,104.972 676.883,104.636 677.727,104.636 L684.091,104.636 C684.935,104.636 685.744,104.972 686.341,105.568 C686.938,106.165 687.273,106.974 687.273,107.818 L687.273,115.773 Z M693.636,115.773 L693.636,107.818 C693.636,105.287 692.631,102.859 690.841,101.069 C689.05,99.278 686.622,98.273 684.091,98.273 L677.727,98.273 C675.196,98.273 672.768,99.278 670.978,101.069 C669.188,102.859 668.182,105.287 668.182,107.818 L668.182,123.727 C668.182,126.259 669.188,128.687 670.978,130.477 C672.768,132.267 675.196,133.273 677.727,133.273 L684.091,133.273 C686.622,133.273 689.05,132.267 690.841,130.477 C692.631,128.687 693.636,126.259 693.636,123.727 L693.636,115.773 Z" />
            <path d="M696.818,139.636 L633.182,139.636 C631.425,139.636 630,141.061 630,142.818 C630,144.575 631.425,146 633.182,146 L696.818,146 C698.575,146 700,144.575 700,142.818 C700,141.061 698.575,139.636 696.818,139.636 Z" />
        </g>
    </g>
</svg>