<?xml version="1.0" encoding="UTF-8"?>
<svg height="600" width="800" xmlns="http://www.w3.org/2000/svg" xmlns:xlink="http://www.w3.org/1999/xlink">
    <g id="Notes" font-family="LucidaGrande, 'Lucida Grande', sans-serif" font-size="13">
        <rect fill="white" height="600.0" width="800.0" x="0.0" y="0.0" />
        <g font-size="13">
            <text x="18.0" y="176.0">Small</text>
            <text x="18.0" y="376.0">Medium</text>
            <text x="18.0" y="576.0">Large</text>
        </g>
        <g font-size="9">
            <text x="250.0" y="30.0">Ultralight</text>
            <text x="450.0" y="30.0">Regular</text>
            <text x="650.0" y="30.0">Black</text>
            <text id="template-version" fill="#505050" text-anchor="end" x="785.0" y="575.0">Template v.3.0</text>
            <a href="https://github.com/swhitty/SwiftDraw">
                <text fill="#505050" text-anchor="end" x="785.0" y="590.0">https://github.com/swhitty/SwiftDraw</text>
            </a>
        </g>
    </g>
    <g id="Guides" stroke="rgb(39, 170, 225)" stroke-width="0.5">
        <path id="Capline-S" d="M18,76 l800,0" />
        <path id="H-reference" d="M85,145.755 L87.685,145.755 L113.369,79.287 L114.052,79.287 L114.052,76 L112.148,76 L85,145.755 Z M95.693,121.536 L130.996,121.536 L130.263,119.313 L96.474,119.313 L95.693,121.536 Z M139.15,145.755 L141.787,145.755 L114.638,76 L113.466,76 L113.466,79.287 L139.15,145.755 Z" stroke="none" transform="translate(0,200)" />
        <path id="Baseline-S" d="M18,146 l800,0" />
        <path id="left-margin-Ultralight-M" d="M230,256 l0,110" />
        <path id="right-margin-Ultralight-M" d="M300,256 l0,110" />
        <path id="left-margin-Regular-M" d="M430,256 l0,110" />
        <path id="right-margin-Regular-M" d="M500,256 l0,110" />
        <path id="left-margin-Black-M" d="M630,256 l0,110" />
        <path id="right-margin-Black-M" d="M700,256 l0,110" />
        <path id="Capline-M" d="M18,276 l800,0" />
        <path id="Baseline-M" d="M18,346 l800,0" />
        <path id="Capline-L" d="M18,476 l800,0" />
        <path id="Baseline-L" d="M18,546 l800,0" />
    </g>
    <g id="Symbols">
        <g id="Ultralight-M" transform="translate(0,200)">
            <path d="M255.455,117.364 L255.455,136.455 C255.455,137.298 255.119,138.108 254.523,138.704 C253.926,139.301 253.117,139.636 252.273,139.636 L245.909,139.636 C245.065,139.636 244.256,139.301 243.659,138.704 C243.062,138.108 242.727,137.298 242.727,136.455 L242.727,98.273 C242.727,97.429 243.062,96.62 243.659,96.023 C244.256,95.426 245.065,95.091 245.909,95.091 L252.273,95.091 C253.117,95.091 253.926,95.426 254.523,96.023 C255.119,96.62 255.455,97.429 255.455,98.273 L255.455,117.364 Z M261.818,117.364 L261.818,98.273 C261.818,95.741 260.812,93.313 259.022,91.523 C257.232,89.733 254.804,88.727 252.273,88.727 L245.909,88.727 C243.377,88.727 240.95,89.733 239.159,91.523 C237.369,93.313 236.364,95.741 236.364,98.273 L236.364,136.455 C236.364,138.986 237.369,141.414 239.159,143.204 C240.95,144.994 243.377,146 245.909,146 L252.273,146 C254.804,146 257.232,144.994 259.022,143.204 C260.812,141.414 261.818,138.986 261.818,136.455 L261.818,117.364 Z" />
            <path d="M287.273,106.227 L287.273,114.182 C287.273,115.026 286.938,115.835 286.341,116.432 C285.744,117.028 284.935,117.364 284.091,117.364 L277.727,117.364 C276.883,117.364 276.074,117.028 275.477,116.432 C274.881,115.835 274.545,115.026 274.545,114.182 L274.545,98.273 C274.545,97.429 274.881,96.62 275.477,96.023 C276.074,95.426 276.883,95.091 277.727,95.091 L284.091,95.091 C284.935,95.091 285.744,95.426 286.341,96.023 C286.938,96.62 287.273,97.429 287.273,98.273 L287.273,106.227 Z M293.636,106.227 L293.636,98.273 C293.636,95.741 292.631,93.313 290.841,91.523 C289.05,89.733 286.623,88.727 284.091,88.727 L277.727,88.727 C275.196,88.727 272.768,89.733 270.978,91.523 C269.188,93.313 268.182,95.741 268.182,98.273 L268.182,114.182 C268.182,116.713 269.188,119.141 270.978,120.931 C272.768,122.722 275.196,123.727 277.727,123.727 L284.091,123.727 C286.623,123.727 289.05,122.722 290.841,120.931 C292.631,119.141 293.636,116.713 293.636,114.182 L293.636,106.227 Z" />
            <path d="M296.818,76 L233.182,76 C231.425,76 230,77.425 230,79.182 C230,80.939 231.425,82.364 233.182,82.364 L296.818,82.364 C298.575,82.364 300,80.939 300,79.182 C300,77.425 298.575,76 296.818,76 Z" />
        </g>
        <g id="Regular-M" transform="translate(0,200)">
            <path d="M455.455,117.364 L455.455,136.455 C455.455,137.298 455.119,138.108 454.523,138.704 C453.926,139.301 453.117,139.636 452.273,139.636 L445.909,139.636 C445.065,139.636 444.256,139.301 443.659,138.704 C443.062,138.108 442.727,137.298 442.727,136.455 L442.727,98.273 C442.727,97.429 443.062,96.62 443.659,96.023 C444.256,95.426 445.065,95.091 445.909,95.091 L452.273,95.091 C453.117,95.091 453.926,95.426 454.523,96.023 C455.119,96.62 455.455,97.429 455.455,98.273 L455.455,117.364 Z M461.818,117.364 L461.818,98.273 C461.818,95.741 460.812,93.313 459.022,91.523 C457.232,89.733 454.804,88.727 452.273,88.727 L445.909,88.727 C443.377,88.727 440.95,89.733 439.159,91.523 C437.369,93.313 436.364,95.741 436.364,98.273 L436.364,136.455 C436.364,138.986 437.369,141.414 439.159,143.204 C440.95,144.994 443.377,146 445.909,146 L452.273,146 C454.804,146 457.232,144.994 459.022,143.204 C460.812,141.414 461.818,138.986 461.818,136.455 L461.818,117.364 Z" />
            <path d="M487.273,106.227 L487.273,114.182 C487.273,115.026 486.938,115.835 486.341,116.432 C485.744,117.028 484.935,117.364 484.091,117.364 L477.727,117.364 C476.883,117.364 476.074,117.028 475.477,116.432 C474.881,115.835 474.545,115.026 474.545,114.182 L474.545,98.273 C474.545,97.429 474.881,96.62 475.477,96.023 C476.074,95.426 476.883,95.091 477.727,95.091 L484.091,95.091 C484.935,95.091 485.744,95.426 486.341,96.023 C486.938,96.62 487.273,97.429 487.273,98.273 L487.273,106.227 Z M493.636,106.227 L493.636,98.273 C493.636,95.741 492.631,93.313 490.841,91.523 C489.05,89.733 486.623,88.727 484.091,88.727 L477.727,88.727 C475.196,88.727 472.768,89.733 470.978,91.523 C469.188,93.313 468.182,95.741 468.182,98.273 L468.182,114.182 C468.182,116.713 469.188,119.141 470.978,120.931 C472.768,122.722 475.196,123.727 477.727,123.727 L484.091,123.727 C486.623,123.727 489.05,122.722 490.841,120.931 C492.631,119.141 493.636,116.713 493.636,114.182 L493.636,106.227 Z" />
            <path d="M496.818,76 L433.182,76 C431.425,76 430,77.425 430,79.182 C430,80.939 431.425,82.364 433.182,82.364 L496.818,82.364 C498.575,82.364 500,80.939 500,79.182 C500,77.425 498.575,76 496.818,76 Z" />
        </g>
        <g id="Black-M" transform="translate(0,200)">
            <path d="M655.455,117.364 L655.455,136.455 C655.455,137.298 655.119,138.108 654.523,138.704 C653.926,139.301 653.117,139.636 652.273,139.636 L645.909,139.636 C645.065,139.636 644.256,139.301 643.659,138.704 C643.062,138.108 642.727,137.298 642.727,136.455 L642.727,98.273 C642.727,97.429 643.062,96.62 643.659,96.023 C644.256,95.426 645.065,95.091 645.909,95.091 L652.273,95.091 C653.117,95.091 653.926,95.426 654.523,96.023 C655.119,96.62 655.455,97.429 655.455,98.273 L655.455,117.364 Z M661.818,117.364 L661.818,98.273 C661.818,95.741 660.812,93.313 659.022,91.523 C657.232,89.733 654.804,88.727 652.273,88.727 L645.909,88.727 C643.378,88.727 640.95,89.733 639.159,91.523 C637.369,93.313 636.364,95.741 636.364,98.273 L636.364,136.455 C636.364,138.986 637.369,141.414 639.159,143.204 C640.95,144.994 643.378,146 645.909,146 L652.273,146 C654.804,146 657.232,144.994 659.022,143.204 C660.812,141.414 661.818,138.986 661.818,136.455 L661.818,117.364 Z" />
            <path d="M687.273,106.227 L687.273,114.182 C687.273,115.026 686.938,115.835 686.341,116.432 C685.744,117.028 684.935,117.364 684.091,117.364 L677.727,117.364 C676.883,117.364 676.074,117.028 675.477,116.432 C674.881,115.835 674.545,115.026 674.545,114.182 L674.545,98.273 C674.545,97.429 674.881,96.62 675.477,96.023 C676.074,95.426 676.883,95.091 677.727,95.091 L684.091,95.091 C684.935,95.091 685.744,95.426 686.341,96.023 C686.938,96.62 687.273,97.429 687.273,98.273 L687.273,106.227 Z M693.636,106.227 L693.636,98.273 C693.636,95.741 692.631,93.313 690.841,91.523 C689.05,89.733 686.622,88.727 684.091,88.727 L677.727,88.727 C675.196,88.727 672.768,89.733 670.978,91.523 C669.188,93.313 668.182,95.741 668.182,98.273 L668.182,114.182 C668.182,116.713 669.188,119.141 670.978,120.931 C672.768,122.722 675.196,123.727 677.727,123.727 L684.091,123.727 C686.622,123.727 689.05,122.722 690.841,120.931 C692.631,119.141 693.636,116.713 693.636,114.182 L693.636,106.227 Z" />
            <path d="M696.818,76 L633.182,76 C631.425,76 630,77.425 630,79.182 C630,80.939 631.425,82.364 633.182,82.364 L696.818,82.364 C698.575,82.364 700,80.939 700,79.182 C700,77.425 698.575,76 696.818,76 Z" />
        </g>
    </g>
</svg>