<?xml version="1.0" encoding="UTF-8"?>
<svg height="600" width="800" xmlns="http://www.w3.org/2000/svg" xmlns:xlink="http://www.w3.org/1999/xlink">
    <g id="Notes" font-family="LucidaGrande, 'Lucida Grande', sans-serif" font-size="13">
        <rect fill="white" height="600.0" width="800.0" x="0.0" y="0.0" />
        <g font-size="13">
            <text x="18.0" y="176.0">Small</text>
            <text x="18.0" y="376.0">Medium</text>
            <text x="18.0" y="576.0">Large</text>
        </g>
        <g font-size="9">
            <text x="250.0" y="30.0">Ultralight</text>
            <text x="450.0" y="30.0">Regular</text>
            <text x="650.0" y="30.0">Black</text>
            <text id="template-version" fill="#505050" text-anchor="end" x="785.0" y="575.0">Template v.3.0</text>
            <a href="https://github.com/swhitty/SwiftDraw">
                <text fill="#505050" text-anchor="end" x="785.0" y="590.0">https://github.com/swhitty/SwiftDraw</text>
            </a>
        </g>
    </g>
    <g id="Guides" stroke="rgb(39, 170, 225)" stroke-width="0.5">
        <path id="Capline-S" d="M18,76 l800,0" />
        <path id="H-reference" d="M85,145.755 L87.685,145.755 L113.369,79.287 L114.052,79.287 L114.052,76 L112.148,76 L85,145.755 Z M95.693,121.536 L130.996,121.536 L130.263,119.313 L96.474,119.313 L95.693,121.536 Z M139.15,145.755 L141.787,145.755 L114.638,76 L113.466,76 L113.466,79.287 L139.15,145.755 Z" stroke="none" transform="translate(0,200)" />
        <path id="Baseline-S" d="M18,146 l800,0" />
        <path id="left-margin-Ultralight-M" d="M230,256 l0,110" />
        <path id="right-margin-Ultralight-M" d="M300,256 l0,110" />
        <path id="left-margin-Regular-M" d="M430,256 l0,110" />
        <path id="right-margin-Regular-M" d="M500,256 l0,110" />
        <path id="left-margin-Black-M" d="M630,256 l0,110" />
        <path id="right-margin-Black-M" d="M700,256 l0,110" />
        <path id="Capline-M" d="M18,276 l800,0" />
        <path id="Baseline-M" d="M18,346 l800,0" />
        <path id="Capline-L" d="M18,476 l800,0" />
        <path id="Baseline-L" d="M18,546 l800,0" />
    </g>
    <g id="Symbols">
        <g id="Ultralight-M" transform="translate(0,200)">
            <path d="M233.182,114.182 L296.818,114.182 C298.575,114.182 300,112.757 300,111 C300,109.243 298.575,107.818 296.818,107.818 L233.182,107.818 C231.425,107.818 230,109.243 230,111 C230,112.757 231.425,114.182 233.182,114.182 Z" />
            <path d="M255.455,123.727 L255.455,136.455 C255.455,137.298 255.119,138.108 254.523,138.704 C253.926,139.301 253.117,139.636 252.273,139.636 L245.909,139.636 C245.065,139.636 244.256,139.301 243.659,138.704 C243.062,138.108 242.727,137.298 242.727,136.455 L242.727,123.727 C242.727,121.97 241.303,120.545 239.545,120.545 C237.788,120.545 236.364,121.97 236.364,123.727 L236.364,136.455 C236.364,138.986 237.369,141.414 239.159,143.204 C240.95,144.994 243.377,146 245.909,146 L252.273,146 C254.804,146 257.232,144.994 259.022,143.204 C260.812,141.414 261.818,138.986 261.818,136.455 L261.818,123.727 C261.818,121.97 260.394,120.545 258.636,120.545 C256.879,120.545 255.455,121.97 255.455,123.727 Z" />
            <path d="M261.818,98.273 L261.818,85.545 C261.818,83.014 260.812,80.586 259.022,78.796 C257.232,77.006 254.804,76 252.273,76 L245.909,76 C243.377,76 240.95,77.006 239.159,78.796 C237.369,80.586 236.364,83.014 236.364,85.545 L236.364,98.273 C236.364,100.03 237.788,101.455 239.545,101.455 C241.303,101.455 242.727,100.03 242.727,98.273 L242.727,85.545 C242.727,84.702 243.062,83.892 243.659,83.296 C244.256,82.699 245.065,82.364 245.909,82.364 L252.273,82.364 C253.117,82.364 253.926,82.699 254.523,83.296 C255.119,83.892 255.455,84.702 255.455,85.545 L255.455,98.273 C255.455,100.03 256.879,101.455 258.636,101.455 C260.394,101.455 261.818,100.03 261.818,98.273 Z" />
            <path d="M287.273,123.727 L287.273,126.909 C287.273,127.753 286.938,128.562 286.341,129.159 C285.744,129.756 284.935,130.091 284.091,130.091 L277.727,130.091 C276.883,130.091 276.074,129.756 275.477,129.159 C274.881,128.562 274.545,127.753 274.545,126.909 L274.545,123.727 C274.545,121.97 273.121,120.545 271.364,120.545 C269.606,120.545 268.182,121.97 268.182,123.727 L268.182,126.909 C268.182,129.441 269.188,131.869 270.978,133.659 C272.768,135.449 275.196,136.455 277.727,136.455 L284.091,136.455 C286.623,136.455 289.05,135.449 290.841,133.659 C292.631,131.869 293.636,129.441 293.636,126.909 L293.636,123.727 C293.636,121.97 292.212,120.545 290.455,120.545 C288.697,120.545 287.273,121.97 287.273,123.727 Z" />
            <path d="M274.545,98.273 L274.545,95.091 C274.545,93.348 275.985,91.909 277.727,91.909 L284.091,91.909 C284.935,91.909 285.744,92.244 286.341,92.841 C286.938,93.438 287.273,94.247 287.273,95.091 L287.273,98.273 C287.273,100.03 288.697,101.455 290.455,101.455 C292.212,101.455 293.636,100.03 293.636,98.273 L293.636,95.091 C293.636,92.559 292.631,90.131 290.841,88.341 C289.05,86.551 286.623,85.545 284.091,85.545 L277.727,85.545 C272.47,85.545 268.182,89.834 268.182,95.091 L268.182,98.273 C268.182,100.03 269.606,101.455 271.364,101.455 C273.121,101.455 274.545,100.03 274.545,98.273 Z" />
        </g>
        <g id="Regular-M" transform="translate(0,200)">
            <path d="M433.182,114.182 L496.818,114.182 C498.575,114.182 500,112.757 500,111 C500,109.243 498.575,107.818 496.818,107.818 L433.182,107.818 C431.425,107.818 430,109.243 430,111 C430,112.757 431.425,114.182 433.182,114.182 Z" />
            <path d="M455.455,123.727 L455.455,136.455 C455.455,137.298 455.119,138.108 454.523,138.704 C453.926,139.301 453.117,139.636 452.273,139.636 L445.909,139.636 C445.065,139.636 444.256,139.301 443.659,138.704 C443.062,138.108 442.727,137.298 442.727,136.455 L442.727,123.727 C442.727,121.97 441.303,120.545 439.545,120.545 C437.788,120.545 436.364,121.97 436.364,123.727 L436.364,136.455 C436.364,138.986 437.369,141.414 439.159,143.204 C440.95,144.994 443.377,146 445.909,146 L452.273,146 C454.804,146 457.232,144.994 459.022,143.204 C460.812,141.414 461.818,138.986 461.818,136.455 L461.818,123.727 C461.818,121.97 460.394,120.545 458.636,120.545 C456.879,120.545 455.455,121.97 455.455,123.727 Z" />
            <path d="M461.818,98.273 L461.818,85.545 C461.818,83.014 460.812,80.586 459.022,78.796 C457.232,77.006 454.804,76 452.273,76 L445.909,76 C443.377,76 440.95,77.006 439.159,78.796 C437.369,80.586 436.364,83.014 436.364,85.545 L436.364,98.273 C436.364,100.03 437.788,101.455 439.545,101.455 C441.303,101.455 442.727,100.03 442.727,98.273 L442.727,85.545 C442.727,84.702 443.062,83.892 443.659,83.296 C444.256,82.699 445.065,82.364 445.909,82.364 L452.273,82.364 C453.117,82.364 453.926,82.699 454.523,83.296 C455.119,83.892 455.455,84.702 455.455,85.545 L455.455,98.273 C455.455,100.03 456.879,101.455 458.636,101.455 C460.394,101.455 461.818,100.03 461.818,98.273 Z" />
            <path d="M487.273,123.727 L487.273,126.909 C487.273,127.753 486.938,128.562 486.341,129.159 C485.744,129.756 484.935,130.091 484.091,130.091 L477.727,130.091 C476.883,130.091 476.074,129.756 475.477,129.159 C474.881,128.562 474.545,127.753 474.545,126.909 L474.545,123.727 C474.545,121.97 473.121,120.545 471.364,120.545 C469.606,120.545 468.182,121.97 468.182,123.727 L468.182,126.909 C468.182,129.441 469.188,131.869 470.978,133.659 C472.768,135.449 475.196,136.455 477.727,136.455 L484.091,136.455 C486.623,136.455 489.05,135.449 490.841,133.659 C492.631,131.869 493.636,129.441 493.636,126.909 L493.636,123.727 C493.636,121.97 492.212,120.545 490.455,120.545 C488.697,120.545 487.273,121.97 487.273,123.727 Z" />
            <path d="M474.545,98.273 L474.545,95.091 C474.545,93.348 475.985,91.909 477.727,91.909 L484.091,91.909 C484.935,91.909 485.744,92.244 486.341,92.841 C486.938,93.438 487.273,94.247 487.273,95.091 L487.273,98.273 C487.273,100.03 488.697,101.455 490.455,101.455 C492.212,101.455 493.636,100.03 493.636,98.273 L493.636,95.091 C493.636,92.559 492.631,90.131 490.841,88.341 C489.05,86.551 486.623,85.545 484.091,85.545 L477.727,85.545 C472.47,85.545 468.182,89.834 468.182,95.091 L468.182,98.273 C468.182,100.03 469.606,101.455 471.364,101.455 C473.121,101.455 474.545,100.03 474.545,98.273 Z" />
        </g>
        <g id="Black-M" transform="translate(0,200)">
            <path d="M633.182,114.182 L696.818,114.182 C698.575,114.182 700,112.757 700,111 C700,109.243 698.575,107.818 696.818,107.818 L633.182,107.818 C631.425,107.818 630,109.243 630,111 C630,112.757 631.425,114.182 633.182,114.182 Z" />
            <path d="M655.455,123.727 L655.455,136.455 C655.455,137.298 655.119,138.108 654.523,138.704 C653.926,139.301 653.117,139.636 652.273,139.636 L645.909,139.636 C645.065,139.636 644.256,139.301 643.659,138.704 C643.062,138.108 642.727,137.298 642.727,136.455 L642.727,123.727 C642.727,121.97 641.303,120.545 639.545,120.545 C637.788,120.545 636.364,121.97 636.364,123.727 L636.364,136.455 C636.364,138.986 637.369,141.414 639.159,143.204 C640.95,144.994 643.378,146 645.909,146 L652.273,146 C654.804,146 657.232,144.994 659.022,143.204 C660.812,141.414 661.818,138.986 661.818,136.455 L661.818,123.727 C661.818,121.97 660.394,120.545 658.636,120.545 C656.879,120.545 655.455,121.97 655.455,123.727 Z" />
            <path d="M661.818,98.273 L661.818,85.545 C661.818,83.014 660.812,80.586 659.022,78.796 C657.232,77.006 654.804,76 652.273,76 L645.909,76 C643.378,76 640.95,77.006 639.159,78.796 C637.369,80.586 636.364,83.014 636.364,85.545 L636.364,98.273 C636.364,100.03 637.788,101.455 639.545,101.455 C641.303,101.455 642.727,100.03 642.727,98.273 L642.727,85.545 C642.727,84.702 643.062,83.892 643.659,83.296 C644.256,82.699 645.065,82.364 645.909,82.364 L652.273,82.364 C653.117,82.364 653.926,82.699 654.523,83.296 C655.119,83.892 655.455,84.702 655.455,85.545 L655.455,98.273 C655.455,100.03 656.879,101.455 658.636,101.455 C660.394,101.455 661.818,100.03 661.818,98.273 Z" />
            <path d="M687.273,123.727 L687.273,126.909 C687.273,127.753 686.938,128.562 686.341,129.159 C685.744,129.756 684.935,130.091 684.091,130.091 L677.727,130.091 C676.883,130.091 676.074,129.756 675.477,129.159 C674.881,128.562 674.545,127.753 674.545,126.909 L674.545,123.727 C674.545,121.97 673.121,120.545 671.364,120.545 C669.606,120.545 668.182,121.97 668.182,123.727 L668.182,126.909 C668.182,129.441 669.188,131.869 670.978,133.659 C672.768,135.449 675.196,136.455 677.727,136.455 L684.091,136.455 C686.622,136.455 689.05,135.449 690.841,133.659 C692.631,131.869 693.636,129.441 693.636,126.909 L693.636,123.727 C693.636,121.97 692.212,120.545 690.455,120.545 C688.697,120.545 687.273,121.97 687.273,123.727 Z" />
            <path d="M674.545,98.273 L674.545,95.091 C674.545,93.348 675.985,91.909 677.727,91.909 L684.091,91.909 C684.935,91.909 685.744,92.244 686.341,92.841 C686.938,93.438 687.273,94.247 687.273,95.091 L687.273,98.273 C687.273,100.03 688.697,101.455 690.455,101.455 C692.212,101.455 693.636,100.03 693.636,98.273 L693.636,95.091 C693.636,92.559 692.631,90.131 690.841,88.341 C689.05,86.551 686.622,85.545 684.091,85.545 L677.727,85.545 C672.47,85.545 668.182,89.834 668.182,95.091 L668.182,98.273 C668.182,100.03 669.606,101.455 671.364,101.455 C673.121,101.455 674.545,100.03 674.545,98.273 Z" />
        </g>
    </g>
</svg>