<?xml version="1.0" encoding="UTF-8"?>
<svg height="600" width="800" xmlns="http://www.w3.org/2000/svg" xmlns:xlink="http://www.w3.org/1999/xlink">
    <g id="Notes" font-family="LucidaGrande, 'Lucida Grande', sans-serif" font-size="13">
        <rect fill="white" height="600.0" width="800.0" x="0.0" y="0.0" />
        <g font-size="13">
            <text x="18.0" y="176.0">Small</text>
            <text x="18.0" y="376.0">Medium</text>
            <text x="18.0" y="576.0">Large</text>
        </g>
        <g font-size="9">
            <text x="250.0" y="30.0">Ultralight</text>
            <text x="450.0" y="30.0">Regular</text>
            <text x="650.0" y="30.0">Black</text>
            <text id="template-version" fill="#505050" text-anchor="end" x="785.0" y="575.0">Template v.3.0</text>
            <a href="https://github.com/swhitty/SwiftDraw">
                <text fill="#505050" text-anchor="end" x="785.0" y="590.0">https://github.com/swhitty/SwiftDraw</text>
            </a>
        </g>
    </g>
    <g id="Guides" stroke="rgb(39, 170, 225)" stroke-width="0.5">
        <path id="Capline-S" d="M18,76 l800,0" />
        <path id="H-reference" d="M85,145.755 L87.685,145.755 L113.369,79.287 L114.052,79.287 L114.052,76 L112.148,76 L85,145.755 Z M95.693,121.536 L130.996,121.536 L130.263,119.313 L96.474,119.313 L95.693,121.536 Z M139.15,145.755 L141.787,145.755 L114.638,76 L113.466,76 L113.466,79.287 L139.15,145.755 Z" stroke="none" transform="translate(0,200)" />
        <path id="Baseline-S" d="M18,146 l800,0" />
        <path id="left-margin-Ultralight-M" d="M224.474,256 l0,110" />
        <path id="right-margin-Ultralight-M" d="M305.526,256 l0,110" />
        <path id="left-margin-Regular-M" d="M424.474,256 l0,110" />
        <path id="right-margin-Regular-M" d="M505.526,256 l0,110" />
        <path id="left-margin-Black-M" d="M624.474,256 l0,110" />
        <path id="right-margin-Black-M" d="M705.526,256 l0,110" />
        <path id="Capline-M" d="M18,276 l800,0" />
        <path id="Baseline-M" d="M18,346 l800,0" />
        <path id="Capline-L" d="M18,476 l800,0" />
        <path id="Baseline-L" d="M18,546 l800,0" />
    </g>
    <g id="Symbols">
        <g id="Ultralight-M" transform="translate(0,200)">
            <path d="M246.579,98.105 L242.895,98.105 C239.963,98.105 237.152,96.941 235.079,94.868 C233.007,92.795 231.842,89.984 231.842,87.053 C231.842,87.053 231.842,87.053 231.842,87.053 C231.842,87.053 231.842,87.053 231.842,87.053 L246.579,87.053 C248.614,87.053 250.263,85.403 250.263,83.368 C250.263,81.334 248.614,79.684 246.579,79.684 L231.842,79.684 C229.888,79.684 228.014,80.461 226.632,81.842 C225.25,83.224 224.474,85.098 224.474,87.053 C224.474,91.938 226.414,96.624 229.869,100.078 C233.324,103.533 238.009,105.474 242.895,105.474 L246.579,105.474 C248.614,105.474 250.263,103.824 250.263,101.789 C250.263,99.755 248.614,98.105 246.579,98.105 Z" />
            <path d="M250.263,83.368 C250.263,83.368 250.263,83.368 250.263,83.368 C250.263,83.368 250.263,83.368 250.263,83.368 L298.158,83.368 C298.158,83.368 298.158,83.368 298.158,83.368 C298.158,83.368 298.158,83.368 298.158,83.368 C298.158,89.231 295.829,94.854 291.683,98.999 C287.538,103.145 281.915,105.474 276.053,105.474 L250.263,105.474 C250.263,105.474 250.263,105.474 250.263,105.474 C250.263,105.474 250.263,105.474 250.263,105.474 L250.263,83.368 Z M242.895,83.368 L242.895,105.474 C242.895,107.428 243.671,109.302 245.053,110.684 C246.435,112.066 248.309,112.842 250.263,112.842 L276.053,112.842 C283.87,112.842 291.366,109.737 296.894,104.209 C302.421,98.682 305.526,91.185 305.526,83.368 C305.526,81.414 304.75,79.54 303.368,78.158 C301.986,76.776 300.112,76 298.158,76 L250.263,76 C248.309,76 246.435,76.776 245.053,78.158 C243.671,79.54 242.895,81.414 242.895,83.368 Z" />
            <path d="M250.263,109.158 L250.263,127.579 C250.263,129.614 251.913,131.263 253.947,131.263 C255.982,131.263 257.632,129.614 257.632,127.579 L257.632,109.158 C257.632,107.123 255.982,105.474 253.947,105.474 C251.913,105.474 250.263,107.123 250.263,109.158 Z" />
            <path d="M272.368,109.158 L272.368,127.579 C272.368,129.614 274.018,131.263 276.053,131.263 C278.087,131.263 279.737,129.614 279.737,127.579 L279.737,109.158 C279.737,107.123 278.087,105.474 276.053,105.474 C274.018,105.474 272.368,107.123 272.368,109.158 Z" />
            <path d="M242.895,138.632 C242.895,136.677 243.671,134.803 245.053,133.421 C246.435,132.039 248.309,131.263 250.263,131.263 L279.737,131.263 C281.691,131.263 283.565,132.039 284.947,133.421 C286.329,134.803 287.105,136.677 287.105,138.632 C287.105,138.632 287.105,138.632 287.105,138.632 C287.105,138.632 287.105,138.632 287.105,138.632 L242.895,138.632 C242.895,138.632 242.895,138.632 242.895,138.632 C242.895,138.632 242.895,138.632 242.895,138.632 C242.895,136.597 241.245,134.947 239.211,134.947 C237.176,134.947 235.526,136.597 235.526,138.632 C235.526,140.586 236.303,142.46 237.684,143.842 C239.066,145.224 240.941,146 242.895,146 L287.105,146 C289.059,146 290.934,145.224 292.316,143.842 C293.697,142.46 294.474,140.586 294.474,138.632 C294.474,134.723 292.921,130.975 290.157,128.211 C287.394,125.447 283.645,123.895 279.737,123.895 L250.263,123.895 C246.355,123.895 242.606,125.447 239.843,128.211 C237.079,130.975 235.526,134.723 235.526,138.632 C235.526,140.666 237.176,142.316 239.211,142.316 C241.245,142.316 242.895,140.666 242.895,138.632 Z" />
        </g>
        <g id="Regular-M" transform="translate(0,200)">
            <path d="M446.579,98.105 L442.895,98.105 C439.963,98.105 437.152,96.941 435.079,94.868 C433.007,92.795 431.842,89.984 431.842,87.053 C431.842,87.053 431.842,87.053 431.842,87.053 C431.842,87.053 431.842,87.053 431.842,87.053 L446.579,87.053 C448.614,87.053 450.263,85.403 450.263,83.368 C450.263,81.334 448.614,79.684 446.579,79.684 L431.842,79.684 C429.888,79.684 428.014,80.461 426.632,81.842 C425.25,83.224 424.474,85.098 424.474,87.053 C424.474,91.938 426.414,96.624 429.869,100.078 C433.324,103.533 438.009,105.474 442.895,105.474 L446.579,105.474 C448.614,105.474 450.263,103.824 450.263,101.789 C450.263,99.755 448.614,98.105 446.579,98.105 Z" />
            <path d="M450.263,83.368 C450.263,83.368 450.263,83.368 450.263,83.368 C450.263,83.368 450.263,83.368 450.263,83.368 L498.158,83.368 C498.158,83.368 498.158,83.368 498.158,83.368 C498.158,83.368 498.158,83.368 498.158,83.368 C498.158,89.231 495.829,94.854 491.683,98.999 C487.538,103.145 481.915,105.474 476.053,105.474 L450.263,105.474 C450.263,105.474 450.263,105.474 450.263,105.474 C450.263,105.474 450.263,105.474 450.263,105.474 L450.263,83.368 Z M442.895,83.368 L442.895,105.474 C442.895,107.428 443.671,109.302 445.053,110.684 C446.435,112.066 448.309,112.842 450.263,112.842 L476.053,112.842 C483.87,112.842 491.366,109.737 496.894,104.209 C502.421,98.682 505.526,91.185 505.526,83.368 C505.526,81.414 504.75,79.54 503.368,78.158 C501.986,76.776 500.112,76 498.158,76 L450.263,76 C448.309,76 446.435,76.776 445.053,78.158 C443.671,79.54 442.895,81.414 442.895,83.368 Z" />
            <path d="M450.263,109.158 L450.263,127.579 C450.263,129.614 451.913,131.263 453.947,131.263 C455.982,131.263 457.632,129.614 457.632,127.579 L457.632,109.158 C457.632,107.123 455.982,105.474 453.947,105.474 C451.913,105.474 450.263,107.123 450.263,109.158 Z" />
            <path d="M472.368,109.158 L472.368,127.579 C472.368,129.614 474.018,131.263 476.053,131.263 C478.087,131.263 479.737,129.614 479.737,127.579 L479.737,109.158 C479.737,107.123 478.087,105.474 476.053,105.474 C474.018,105.474 472.368,107.123 472.368,109.158 Z" />
            <path d="M442.895,138.632 C442.895,136.677 443.671,134.803 445.053,133.421 C446.435,132.039 448.309,131.263 450.263,131.263 L479.737,131.263 C481.691,131.263 483.565,132.039 484.947,133.421 C486.329,134.803 487.105,136.677 487.105,138.632 C487.105,138.632 487.105,138.632 487.105,138.632 C487.105,138.632 487.105,138.632 487.105,138.632 L442.895,138.632 C442.895,138.632 442.895,138.632 442.895,138.632 C442.895,138.632 442.895,138.632 442.895,138.632 C442.895,136.597 441.245,134.947 439.211,134.947 C437.176,134.947 435.526,136.597 435.526,138.632 C435.526,140.586 436.303,142.46 437.684,143.842 C439.066,145.224 440.941,146 442.895,146 L487.105,146 C489.06,146 490.934,145.224 492.316,143.842 C493.697,142.46 494.474,140.586 494.474,138.632 C494.474,134.723 492.921,130.975 490.157,128.211 C487.394,125.447 483.645,123.895 479.737,123.895 L450.263,123.895 C446.355,123.895 442.606,125.447 439.843,128.211 C437.079,130.975 435.526,134.723 435.526,138.632 C435.526,140.666 437.176,142.316 439.211,142.316 C441.245,142.316 442.895,140.666 442.895,138.632 Z" />
        </g>
        <g id="Black-M" transform="translate(0,200)">
            <path d="M646.579,98.105 L642.895,98.105 C639.963,98.105 637.152,96.941 635.079,94.868 C633.007,92.795 631.842,89.984 631.842,87.053 C631.842,87.053 631.842,87.053 631.842,87.053 C631.842,87.053 631.842,87.053 631.842,87.053 L646.579,87.053 C648.614,87.053 650.263,85.403 650.263,83.368 C650.263,81.334 648.614,79.684 646.579,79.684 L631.842,79.684 C629.888,79.684 628.014,80.461 626.632,81.842 C625.25,83.224 624.474,85.098 624.474,87.053 C624.474,91.938 626.414,96.624 629.869,100.078 C633.324,103.533 638.009,105.474 642.895,105.474 L646.579,105.474 C648.614,105.474 650.263,103.824 650.263,101.789 C650.263,99.755 648.614,98.105 646.579,98.105 Z" />
            <path d="M650.263,83.368 C650.263,83.368 650.263,83.368 650.263,83.368 C650.263,83.368 650.263,83.368 650.263,83.368 L698.158,83.368 C698.158,83.368 698.158,83.368 698.158,83.368 C698.158,83.368 698.158,83.368 698.158,83.368 C698.158,89.231 695.829,94.854 691.683,98.999 C687.538,103.145 681.915,105.474 676.053,105.474 L650.263,105.474 C650.263,105.474 650.263,105.474 650.263,105.474 C650.263,105.474 650.263,105.474 650.263,105.474 L650.263,83.368 Z M642.895,83.368 L642.895,105.474 C642.895,107.428 643.671,109.302 645.053,110.684 C646.435,112.066 648.309,112.842 650.263,112.842 L676.053,112.842 C683.87,112.842 691.366,109.737 696.894,104.209 C702.421,98.682 705.526,91.185 705.526,83.368 C705.526,81.414 704.75,79.54 703.368,78.158 C701.986,76.776 700.112,76 698.158,76 L650.263,76 C648.309,76 646.435,76.776 645.053,78.158 C643.671,79.54 642.895,81.414 642.895,83.368 Z" />
            <path d="M650.263,109.158 L650.263,127.579 C650.263,129.614 651.913,131.263 653.947,131.263 C655.982,131.263 657.632,129.614 657.632,127.579 L657.632,109.158 C657.632,107.123 655.982,105.474 653.947,105.474 C651.913,105.474 650.263,107.123 650.263,109.158 Z" />
            <path d="M672.368,109.158 L672.368,127.579 C672.368,129.614 674.018,131.263 676.053,131.263 C678.087,131.263 679.737,129.614 679.737,127.579 L679.737,109.158 C679.737,107.123 678.087,105.474 676.053,105.474 C674.018,105.474 672.368,107.123 672.368,109.158 Z" />
            <path d="M642.895,138.632 C642.895,136.677 643.671,134.803 645.053,133.421 C646.435,132.039 648.309,131.263 650.263,131.263 L679.737,131.263 C681.691,131.263 683.565,132.039 684.947,133.421 C686.329,134.803 687.105,136.677 687.105,138.632 C687.105,138.632 687.105,138.632 687.105,138.632 C687.105,138.632 687.105,138.632 687.105,138.632 L642.895,138.632 C642.895,138.632 642.895,138.632 642.895,138.632 C642.895,138.632 642.895,138.632 642.895,138.632 C642.895,136.597 641.245,134.947 639.211,134.947 C637.176,134.947 635.526,136.597 635.526,138.632 C635.526,140.586 636.303,142.46 637.684,143.842 C639.066,145.224 640.941,146 642.895,146 L687.105,146 C689.06,146 690.934,145.224 692.316,143.842 C693.697,142.46 694.474,140.586 694.474,138.632 C694.474,134.723 692.921,130.975 690.157,128.211 C687.394,125.447 683.645,123.895 679.737,123.895 L650.263,123.895 C646.355,123.895 642.606,125.447 639.843,128.211 C637.079,130.975 635.526,134.723 635.526,138.632 C635.526,140.666 637.176,142.316 639.211,142.316 C641.245,142.316 642.895,140.666 642.895,138.632 Z" />
        </g>
    </g>
</svg>