<?xml version="1.0" encoding="UTF-8"?>
<svg height="600" width="800" xmlns="http://www.w3.org/2000/svg" xmlns:xlink="http://www.w3.org/1999/xlink">
    <g id="Notes" font-family="LucidaGrande, 'Lucida Grande', sans-serif" font-size="13">
        <rect fill="white" height="600.0" width="800.0" x="0.0" y="0.0" />
        <g font-size="13">
            <text x="18.0" y="176.0">Small</text>
            <text x="18.0" y="376.0">Medium</text>
            <text x="18.0" y="576.0">Large</text>
        </g>
        <g font-size="9">
            <text x="250.0" y="30.0">Ultralight</text>
            <text x="450.0" y="30.0">Regular</text>
            <text x="650.0" y="30.0">Black</text>
            <text id="template-version" fill="#505050" text-anchor="end" x="785.0" y="575.0">Template v.3.0</text>
            <a href="https://github.com/swhitty/SwiftDraw">
                <text fill="#505050" text-anchor="end" x="785.0" y="590.0">https://github.com/swhitty/SwiftDraw</text>
            </a>
        </g>
    </g>
    <g id="Guides" stroke="rgb(39, 170, 225)" stroke-width="0.5">
        <path id="Capline-S" d="M18,76 l800,0" />
        <path id="H-reference" d="M85,145.755 L87.685,145.755 L113.369,79.287 L114.052,79.287 L114.052,76 L112.148,76 L85,145.755 Z M95.693,121.536 L130.996,121.536 L130.263,119.313 L96.474,119.313 L95.693,121.536 Z M139.15,145.755 L141.787,145.755 L114.638,76 L113.466,76 L113.466,79.287 L139.15,145.755 Z" stroke="none" transform="translate(0,200)" />
        <path id="Baseline-S" d="M18,146 l800,0" />
        <path id="left-margin-Ultralight-M" d="M239.545,256 l0,110" />
        <path id="right-margin-Ultralight-M" d="M290.455,256 l0,110" />
        <path id="left-margin-Regular-M" d="M439.545,256 l0,110" />
        <path id="right-margin-Regular-M" d="M490.455,256 l0,110" />
        <path id="left-margin-Black-M" d="M639.545,256 l0,110" />
        <path id="right-margin-Black-M" d="M690.455,256 l0,110" />
        <path id="Capline-M" d="M18,276 l800,0" />
        <path id="Baseline-M" d="M18,346 l800,0" />
        <path id="Capline-L" d="M18,476 l800,0" />
        <path id="Baseline-L" d="M18,546 l800,0" />
    </g>
    <g id="Symbols">
        <g id="Ultralight-M" transform="translate(0,200)">
            <path d="M261.818,79.182 L261.818,123.727 C261.818,125.485 263.243,126.909 265,126.909 C266.757,126.909 268.182,125.485 268.182,123.727 L268.182,79.182 C268.182,77.425 266.757,76 265,76 C263.243,76 261.818,77.425 261.818,79.182 Z" />
            <path d="M285.023,99.205 L262.75,121.477 L267.25,121.477 L244.977,99.205 C243.735,97.962 241.72,97.962 240.477,99.205 C239.235,100.447 239.235,102.462 240.477,103.704 L262.75,125.977 C263.993,127.22 266.007,127.22 267.25,125.977 L289.523,103.704 C290.765,102.462 290.765,100.447 289.523,99.205 C288.28,97.962 286.265,97.962 285.023,99.205 Z" />
            <path d="M265,139.636 C265,139.636 265,139.636 265,139.636 C265,139.636 265,139.636 265,139.636 C265,139.636 265,139.636 265,139.636 C265,139.636 265,139.636 265,139.636 Z M258.636,139.636 C258.636,143.151 261.485,146 265,146 C268.515,146 271.364,143.151 271.364,139.636 C271.364,136.122 268.515,133.273 265,133.273 C261.485,133.273 258.636,136.122 258.636,139.636 Z" />
        </g>
        <g id="Regular-M" transform="translate(0,200)">
            <path d="M461.818,79.182 L461.818,123.727 C461.818,125.485 463.243,126.909 465,126.909 C466.757,126.909 468.182,125.485 468.182,123.727 L468.182,79.182 C468.182,77.425 466.757,76 465,76 C463.243,76 461.818,77.425 461.818,79.182 Z" />
            <path d="M485.023,99.205 L462.75,121.477 L467.25,121.477 L444.977,99.205 C443.735,97.962 441.72,97.962 440.477,99.205 C439.235,100.447 439.235,102.462 440.477,103.704 L462.75,125.977 C463.993,127.22 466.007,127.22 467.25,125.977 L489.523,103.704 C490.765,102.462 490.765,100.447 489.523,99.205 C488.28,97.962 486.265,97.962 485.023,99.205 Z" />
            <path d="M465,139.636 C465,139.636 465,139.636 465,139.636 C465,139.636 465,139.636 465,139.636 C465,139.636 465,139.636 465,139.636 C465,139.636 465,139.636 465,139.636 Z M458.636,139.636 C458.636,143.151 461.485,146 465,146 C468.515,146 471.364,143.151 471.364,139.636 C471.364,136.122 468.515,133.273 465,133.273 C461.485,133.273 458.636,136.122 458.636,139.636 Z" />
        </g>
        <g id="Black-M" transform="translate(0,200)">
            <path d="M661.818,79.182 L661.818,123.727 C661.818,125.485 663.243,126.909 665,126.909 C666.757,126.909 668.182,125.485 668.182,123.727 L668.182,79.182 C668.182,77.425 666.757,76 665,76 C663.243,76 661.818,77.425 661.818,79.182 Z" />
            <path d="M685.023,99.205 L662.75,121.477 L667.25,121.477 L644.977,99.205 C643.735,97.962 641.72,97.962 640.477,99.205 C639.235,100.447 639.235,102.462 640.477,103.704 L662.75,125.977 C663.993,127.22 666.007,127.22 667.25,125.977 L689.523,103.704 C690.765,102.462 690.765,100.447 689.523,99.205 C688.28,97.962 686.265,97.962 685.023,99.205 Z" />
            <path d="M665,139.636 C665,139.636 665,139.636 665,139.636 C665,139.636 665,139.636 665,139.636 C665,139.636 665,139.636 665,139.636 C665,139.636 665,139.636 665,139.636 Z M658.636,139.636 C658.636,143.151 661.485,146 665,146 C668.515,146 671.364,143.151 671.364,139.636 C671.364,136.122 668.515,133.273 665,133.273 C661.485,133.273 658.636,136.122 658.636,139.636 Z" />
        </g>
    </g>
</svg>