<?xml version="1.0" encoding="UTF-8"?>
<svg height="600" width="800" xmlns="http://www.w3.org/2000/svg" xmlns:xlink="http://www.w3.org/1999/xlink">
    <g id="Notes" font-family="LucidaGrande, 'Lucida Grande', sans-serif" font-size="13">
        <rect fill="white" height="600.0" width="800.0" x="0.0" y="0.0" />
        <g font-size="13">
            <text x="18.0" y="176.0">Small</text>
            <text x="18.0" y="376.0">Medium</text>
            <text x="18.0" y="576.0">Large</text>
        </g>
        <g font-size="9">
            <text x="250.0" y="30.0">Ultralight</text>
            <text x="450.0" y="30.0">Regular</text>
            <text x="650.0" y="30.0">Black</text>
            <text id="template-version" fill="#505050" text-anchor="end" x="785.0" y="575.0">Template v.3.0</text>
            <a href="https://github.com/swhitty/SwiftDraw">
                <text fill="#505050" text-anchor="end" x="785.0" y="590.0">https://github.com/swhitty/SwiftDraw</text>
            </a>
        </g>
    </g>
    <g id="Guides" stroke="rgb(39, 170, 225)" stroke-width="0.5">
        <path id="Capline-S" d="M18,76 l800,0" />
        <path id="H-reference" d="M85,145.755 L87.685,145.755 L113.369,79.287 L114.052,79.287 L114.052,76 L112.148,76 L85,145.755 Z M95.693,121.536 L130.996,121.536 L130.263,119.313 L96.474,119.313 L95.693,121.536 Z M139.15,145.755 L141.787,145.755 L114.638,76 L113.466,76 L113.466,79.287 L139.15,145.755 Z" stroke="none" transform="translate(0,200)" />
        <path id="Baseline-S" d="M18,146 l800,0" />
        <path id="left-margin-Ultralight-M" d="M230,256 l0,110" />
        <path id="right-margin-Ultralight-M" d="M300,256 l0,110" />
        <path id="left-margin-Regular-M" d="M430,256 l0,110" />
        <path id="right-margin-Regular-M" d="M500,256 l0,110" />
        <path id="left-margin-Black-M" d="M630,256 l0,110" />
        <path id="right-margin-Black-M" d="M700,256 l0,110" />
        <path id="Capline-M" d="M18,276 l800,0" />
        <path id="Baseline-M" d="M18,346 l800,0" />
        <path id="Capline-L" d="M18,476 l800,0" />
        <path id="Baseline-L" d="M18,546 l800,0" />
    </g>
    <g id="Symbols">
        <g id="Ultralight-M" transform="translate(0,200)">
            <path d="M272.778,98.703 C272.778,98.703 272.778,98.703 272.778,98.703 C272.778,98.703 272.778,98.703 272.778,98.703 L272.778,106.27 C272.778,108.277 273.597,110.202 275.056,111.621 C276.514,113.04 278.492,113.838 280.555,113.838 L293.361,113.838 C292.901,113.838 292.485,113.568 292.309,113.153 C292.133,112.739 292.23,112.262 292.556,111.945 L265.571,138.201 C265.419,138.35 265.214,138.432 265,138.432 C264.786,138.432 264.581,138.35 264.43,138.203 L237.44,111.942 C237.77,112.264 237.867,112.74 237.691,113.154 C237.515,113.567 237.1,113.837 236.64,113.838 L249.445,113.838 C251.508,113.838 253.486,113.04 254.944,111.621 C256.403,110.202 257.222,108.277 257.222,106.27 L257.222,98.703 C257.222,98.703 257.222,98.703 257.222,98.703 C257.222,98.703 257.222,98.703 257.222,98.703 L272.778,98.703 Z M272.778,91.135 L257.222,91.135 C255.16,91.135 253.181,91.932 251.723,93.352 C250.264,94.771 249.445,96.696 249.445,98.703 L249.445,106.27 C249.445,106.27 249.445,106.27 249.445,106.27 C249.445,106.27 249.445,106.27 249.445,106.27 L236.635,106.27 C233.949,106.273 231.533,107.846 230.506,110.255 C229.479,112.665 230.043,115.44 231.936,117.288 L258.929,143.552 C260.537,145.119 262.722,146 265,146 C267.278,146 269.463,145.119 271.073,143.551 L298.055,117.297 C299.954,115.45 300.522,112.671 299.495,110.257 C298.467,107.843 296.046,106.27 293.36,106.27 L280.555,106.27 C280.555,106.27 280.555,106.27 280.555,106.27 C280.555,106.27 280.555,106.27 280.555,106.27 L280.555,98.703 C280.555,96.696 279.736,94.771 278.277,93.352 C276.819,91.932 274.84,91.135 272.778,91.135 Z" />
            <path d="M253.334,83.568 L276.666,83.568 C278.814,83.568 280.555,81.873 280.555,79.784 C280.555,77.694 278.814,76 276.666,76 L253.334,76 C251.186,76 249.445,77.694 249.445,79.784 C249.445,81.873 251.186,83.568 253.334,83.568 Z" />
        </g>
        <g id="Regular-M" transform="translate(0,200)">
            <path d="M472.778,98.703 C472.778,98.703 472.778,98.703 472.778,98.703 C472.778,98.703 472.778,98.703 472.778,98.703 L472.778,106.27 C472.778,108.277 473.597,110.202 475.056,111.621 C476.514,113.04 478.492,113.838 480.555,113.838 L493.361,113.838 C492.901,113.838 492.485,113.568 492.309,113.153 C492.133,112.739 492.23,112.262 492.556,111.945 L465.571,138.201 C465.419,138.35 465.214,138.432 465,138.432 C464.786,138.432 464.581,138.35 464.43,138.203 L437.44,111.942 C437.77,112.264 437.867,112.74 437.691,113.154 C437.515,113.567 437.1,113.837 436.64,113.838 L449.445,113.838 C451.508,113.838 453.486,113.04 454.944,111.621 C456.403,110.202 457.222,108.277 457.222,106.27 L457.222,98.703 C457.222,98.703 457.222,98.703 457.222,98.703 C457.222,98.703 457.222,98.703 457.222,98.703 L472.778,98.703 Z M472.778,91.135 L457.222,91.135 C455.16,91.135 453.181,91.932 451.723,93.352 C450.264,94.771 449.445,96.696 449.445,98.703 L449.445,106.27 C449.445,106.27 449.445,106.27 449.445,106.27 C449.445,106.27 449.445,106.27 449.445,106.27 L436.635,106.27 C433.949,106.273 431.533,107.846 430.506,110.255 C429.479,112.665 430.043,115.44 431.936,117.288 L458.929,143.552 C460.537,145.119 462.722,146 465,146 C467.278,146 469.463,145.119 471.073,143.551 L498.055,117.297 C499.954,115.45 500.522,112.671 499.495,110.257 C498.467,107.843 496.046,106.27 493.36,106.27 L480.555,106.27 C480.555,106.27 480.555,106.27 480.555,106.27 C480.555,106.27 480.555,106.27 480.555,106.27 L480.555,98.703 C480.555,96.696 479.736,94.771 478.277,93.352 C476.819,91.932 474.84,91.135 472.778,91.135 Z" />
            <path d="M453.334,83.568 L476.666,83.568 C478.814,83.568 480.555,81.873 480.555,79.784 C480.555,77.694 478.814,76 476.666,76 L453.334,76 C451.186,76 449.445,77.694 449.445,79.784 C449.445,81.873 451.186,83.568 453.334,83.568 Z" />
        </g>
        <g id="Black-M" transform="translate(0,200)">
            <path d="M672.778,98.703 C672.778,98.703 672.778,98.703 672.778,98.703 C672.778,98.703 672.778,98.703 672.778,98.703 L672.778,106.27 C672.778,108.277 673.597,110.202 675.056,111.621 C676.514,113.04 678.492,113.838 680.555,113.838 L693.361,113.838 C692.901,113.838 692.485,113.568 692.309,113.153 C692.133,112.739 692.23,112.262 692.556,111.945 L665.571,138.201 C665.419,138.35 665.214,138.432 665,138.432 C664.786,138.432 664.581,138.35 664.43,138.203 L637.44,111.942 C637.77,112.264 637.867,112.74 637.691,113.154 C637.515,113.567 637.1,113.837 636.64,113.838 L649.445,113.838 C651.508,113.838 653.486,113.04 654.944,111.621 C656.403,110.202 657.222,108.277 657.222,106.27 L657.222,98.703 C657.222,98.703 657.222,98.703 657.222,98.703 C657.222,98.703 657.222,98.703 657.222,98.703 L672.778,98.703 Z M672.778,91.135 L657.222,91.135 C655.16,91.135 653.181,91.932 651.723,93.352 C650.264,94.771 649.445,96.696 649.445,98.703 L649.445,106.27 C649.445,106.27 649.445,106.27 649.445,106.27 C649.445,106.27 649.445,106.27 649.445,106.27 L636.635,106.27 C633.949,106.273 631.533,107.846 630.506,110.255 C629.479,112.665 630.043,115.44 631.936,117.288 L658.929,143.552 C660.537,145.119 662.722,146 665,146 C667.278,146 669.463,145.119 671.073,143.551 L698.055,117.297 C699.954,115.45 700.522,112.671 699.495,110.257 C698.467,107.843 696.046,106.27 693.36,106.27 L680.555,106.27 C680.555,106.27 680.555,106.27 680.555,106.27 C680.555,106.27 680.555,106.27 680.555,106.27 L680.555,98.703 C680.555,96.696 679.736,94.771 678.277,93.352 C676.819,91.932 674.84,91.135 672.778,91.135 Z" />
            <path d="M653.334,83.568 L676.666,83.568 C678.814,83.568 680.555,81.873 680.555,79.784 C680.555,77.694 678.814,76 676.666,76 L653.334,76 C651.186,76 649.445,77.694 649.445,79.784 C649.445,81.873 651.186,83.568 653.334,83.568 Z" />
        </g>
    </g>
</svg>