<?xml version="1.0" encoding="UTF-8"?>
<svg height="600" width="800" xmlns="http://www.w3.org/2000/svg" xmlns:xlink="http://www.w3.org/1999/xlink">
    <g id="Notes" font-family="LucidaGrande, 'Lucida Grande', sans-serif" font-size="13">
        <rect fill="white" height="600.0" width="800.0" x="0.0" y="0.0" />
        <g font-size="13">
            <text x="18.0" y="176.0">Small</text>
            <text x="18.0" y="376.0">Medium</text>
            <text x="18.0" y="576.0">Large</text>
        </g>
        <g font-size="9">
            <text x="250.0" y="30.0">Ultralight</text>
            <text x="450.0" y="30.0">Regular</text>
            <text x="650.0" y="30.0">Black</text>
            <text id="template-version" fill="#505050" text-anchor="end" x="785.0" y="575.0">Template v.3.0</text>
            <a href="https://github.com/swhitty/SwiftDraw">
                <text fill="#505050" text-anchor="end" x="785.0" y="590.0">https://github.com/swhitty/SwiftDraw</text>
            </a>
        </g>
    </g>
    <g id="Guides" stroke="rgb(39, 170, 225)" stroke-width="0.5">
        <path id="Capline-S" d="M18,76 l800,0" />
        <path id="H-reference" d="M85,145.755 L87.685,145.755 L113.369,79.287 L114.052,79.287 L114.052,76 L112.148,76 L85,145.755 Z M95.693,121.536 L130.996,121.536 L130.263,119.313 L96.474,119.313 L95.693,121.536 Z M139.15,145.755 L141.787,145.755 L114.638,76 L113.466,76 L113.466,79.287 L139.15,145.755 Z" stroke="none" transform="translate(0,200)" />
        <path id="Baseline-S" d="M18,146 l800,0" />
        <path id="left-margin-Ultralight-M" d="M228.056,256 l0,110" />
        <path id="right-margin-Ultralight-M" d="M301.944,256 l0,110" />
        <path id="left-margin-Regular-M" d="M428.056,256 l0,110" />
        <path id="right-margin-Regular-M" d="M501.944,256 l0,110" />
        <path id="left-margin-Black-M" d="M628.056,256 l0,110" />
        <path id="right-margin-Black-M" d="M701.944,256 l0,110" />
        <path id="Capline-M" d="M18,276 l800,0" />
        <path id="Baseline-M" d="M18,346 l800,0" />
        <path id="Capline-L" d="M18,476 l800,0" />
        <path id="Baseline-L" d="M18,546 l800,0" />
    </g>
    <g id="Symbols">
        <g id="Ultralight-M" transform="translate(0,200)">
            <path d="M234.694,98.194 L250.25,82.639 L244.75,82.639 L260.306,98.194 C261.824,99.713 264.287,99.713 265.805,98.194 C267.324,96.676 267.324,94.213 265.805,92.695 L250.25,77.139 C248.731,75.62 246.269,75.62 244.75,77.139 L229.195,92.695 C227.676,94.213 227.676,96.676 229.195,98.194 C230.713,99.713 233.176,99.713 234.694,98.194 Z" />
            <path d="M243.611,79.889 L243.611,142.111 C243.611,144.259 245.352,146 247.5,146 C249.648,146 251.389,144.259 251.389,142.111 L251.389,79.889 C251.389,77.741 249.648,76 247.5,76 C245.352,76 243.611,77.741 243.611,79.889 Z" />
            <path d="M278.611,83.778 L298.056,83.778 L295.068,77.399 L275.624,100.733 C273.513,103.266 275.314,107.111 278.611,107.111 L298.056,107.111 C300.203,107.111 301.944,105.37 301.944,103.222 C301.944,101.074 300.203,99.333 298.056,99.333 L278.611,99.333 L281.599,105.712 L301.043,82.378 C303.154,79.846 301.353,76 298.056,76 L278.611,76 C276.463,76 274.722,77.741 274.722,79.889 C274.722,82.037 276.463,83.778 278.611,83.778 Z" />
            <path d="M282.5,142.111 L282.5,128.5 C282.5,125.278 285.112,122.667 288.333,122.667 C291.555,122.667 294.167,125.278 294.167,128.5 L294.167,142.111 C294.167,144.259 295.908,146 298.056,146 C300.203,146 301.944,144.259 301.944,142.111 L301.944,128.5 C301.944,120.983 295.851,114.889 288.333,114.889 C280.816,114.889 274.722,120.983 274.722,128.5 L274.722,142.111 C274.722,144.259 276.463,146 278.611,146 C280.759,146 282.5,144.259 282.5,142.111 Z" />
            <path d="M298.056,130.444 L278.611,130.444 C276.463,130.444 274.722,132.186 274.722,134.333 C274.722,136.481 276.463,138.222 278.611,138.222 L298.056,138.222 C300.203,138.222 301.944,136.481 301.944,134.333 C301.944,132.186 300.203,130.444 298.056,130.444 Z" />
        </g>
        <g id="Regular-M" transform="translate(0,200)">
            <path d="M434.694,98.194 L450.25,82.639 L444.75,82.639 L460.306,98.194 C461.824,99.713 464.287,99.713 465.805,98.194 C467.324,96.676 467.324,94.213 465.805,92.695 L450.25,77.139 C448.731,75.62 446.269,75.62 444.75,77.139 L429.195,92.695 C427.676,94.213 427.676,96.676 429.195,98.194 C430.713,99.713 433.176,99.713 434.694,98.194 Z" />
            <path d="M443.611,79.889 L443.611,142.111 C443.611,144.259 445.352,146 447.5,146 C449.648,146 451.389,144.259 451.389,142.111 L451.389,79.889 C451.389,77.741 449.648,76 447.5,76 C445.352,76 443.611,77.741 443.611,79.889 Z" />
            <path d="M478.611,83.778 L498.056,83.778 L495.068,77.399 L475.624,100.733 C473.513,103.266 475.314,107.111 478.611,107.111 L498.056,107.111 C500.203,107.111 501.944,105.37 501.944,103.222 C501.944,101.074 500.203,99.333 498.056,99.333 L478.611,99.333 L481.599,105.712 L501.043,82.378 C503.154,79.846 501.353,76 498.056,76 L478.611,76 C476.463,76 474.722,77.741 474.722,79.889 C474.722,82.037 476.463,83.778 478.611,83.778 Z" />
            <path d="M482.5,142.111 L482.5,128.5 C482.5,125.278 485.112,122.667 488.333,122.667 C491.555,122.667 494.167,125.278 494.167,128.5 L494.167,142.111 C494.167,144.259 495.908,146 498.056,146 C500.203,146 501.944,144.259 501.944,142.111 L501.944,128.5 C501.944,120.983 495.851,114.889 488.333,114.889 C480.816,114.889 474.722,120.983 474.722,128.5 L474.722,142.111 C474.722,144.259 476.463,146 478.611,146 C480.759,146 482.5,144.259 482.5,142.111 Z" />
            <path d="M498.056,130.444 L478.611,130.444 C476.463,130.444 474.722,132.186 474.722,134.333 C474.722,136.481 476.463,138.222 478.611,138.222 L498.056,138.222 C500.203,138.222 501.944,136.481 501.944,134.333 C501.944,132.186 500.203,130.444 498.056,130.444 Z" />
        </g>
        <g id="Black-M" transform="translate(0,200)">
            <path d="M634.694,98.194 L650.25,82.639 L644.75,82.639 L660.306,98.194 C661.824,99.713 664.287,99.713 665.805,98.194 C667.324,96.676 667.324,94.213 665.805,92.695 L650.25,77.139 C648.731,75.62 646.269,75.62 644.75,77.139 L629.195,92.695 C627.676,94.213 627.676,96.676 629.195,98.194 C630.713,99.713 633.176,99.713 634.694,98.194 Z" />
            <path d="M643.611,79.889 L643.611,142.111 C643.611,144.259 645.352,146 647.5,146 C649.648,146 651.389,144.259 651.389,142.111 L651.389,79.889 C651.389,77.741 649.648,76 647.5,76 C645.352,76 643.611,77.741 643.611,79.889 Z" />
            <path d="M678.611,83.778 L698.056,83.778 L695.068,77.399 L675.624,100.733 C673.513,103.266 675.314,107.111 678.611,107.111 L698.056,107.111 C700.203,107.111 701.944,105.37 701.944,103.222 C701.944,101.074 700.203,99.333 698.056,99.333 L678.611,99.333 L681.599,105.712 L701.043,82.378 C703.154,79.846 701.353,76 698.056,76 L678.611,76 C676.463,76 674.722,77.741 674.722,79.889 C674.722,82.037 676.463,83.778 678.611,83.778 Z" />
            <path d="M682.5,142.111 L682.5,128.5 C682.5,125.278 685.112,122.667 688.333,122.667 C691.555,122.667 694.167,125.278 694.167,128.5 L694.167,142.111 C694.167,144.259 695.908,146 698.056,146 C700.203,146 701.944,144.259 701.944,142.111 L701.944,128.5 C701.944,120.983 695.851,114.889 688.333,114.889 C680.816,114.889 674.722,120.983 674.722,128.5 L674.722,142.111 C674.722,144.259 676.463,146 678.611,146 C680.759,146 682.5,144.259 682.5,142.111 Z" />
            <path d="M698.056,130.444 L678.611,130.444 C676.463,130.444 674.722,132.186 674.722,134.333 C674.722,136.481 676.463,138.222 678.611,138.222 L698.056,138.222 C700.203,138.222 701.944,136.481 701.944,134.333 C701.944,132.186 700.203,130.444 698.056,130.444 Z" />
        </g>
    </g>
</svg>