<?xml version="1.0" encoding="UTF-8"?>
<svg height="600" width="800" xmlns="http://www.w3.org/2000/svg" xmlns:xlink="http://www.w3.org/1999/xlink">
    <g id="Notes" font-family="LucidaGrande, 'Lucida Grande', sans-serif" font-size="13">
        <rect fill="white" height="600.0" width="800.0" x="0.0" y="0.0" />
        <g font-size="13">
            <text x="18.0" y="176.0">Small</text>
            <text x="18.0" y="376.0">Medium</text>
            <text x="18.0" y="576.0">Large</text>
        </g>
        <g font-size="9">
            <text x="250.0" y="30.0">Ultralight</text>
            <text x="450.0" y="30.0">Regular</text>
            <text x="650.0" y="30.0">Black</text>
            <text id="template-version" fill="#505050" text-anchor="end" x="785.0" y="575.0">Template v.3.0</text>
            <a href="https://github.com/swhitty/SwiftDraw">
                <text fill="#505050" text-anchor="end" x="785.0" y="590.0">https://github.com/swhitty/SwiftDraw</text>
            </a>
        </g>
    </g>
    <g id="Guides" stroke="rgb(39, 170, 225)" stroke-width="0.5">
        <path id="Capline-S" d="M18,76 l800,0" />
        <path id="H-reference" d="M85,145.755 L87.685,145.755 L113.369,79.287 L114.052,79.287 L114.052,76 L112.148,76 L85,145.755 Z M95.693,121.536 L130.996,121.536 L130.263,119.313 L96.474,119.313 L95.693,121.536 Z M139.15,145.755 L141.787,145.755 L114.638,76 L113.466,76 L113.466,79.287 L139.15,145.755 Z" stroke="none" transform="translate(0,200)" />
        <path id="Baseline-S" d="M18,146 l800,0" />
        <path id="left-margin-Ultralight-M" d="M221.25,256 l0,110" />
        <path id="right-margin-Ultralight-M" d="M308.75,256 l0,110" />
        <path id="left-margin-Regular-M" d="M421.25,256 l0,110" />
        <path id="right-margin-Regular-M" d="M508.75,256 l0,110" />
        <path id="left-margin-Black-M" d="M621.25,256 l0,110" />
        <path id="right-margin-Black-M" d="M708.75,256 l0,110" />
        <path id="Capline-M" d="M18,276 l800,0" />
        <path id="Baseline-M" d="M18,346 l800,0" />
        <path id="Capline-L" d="M18,476 l800,0" />
        <path id="Baseline-L" d="M18,546 l800,0" />
    </g>
    <g id="Symbols">
        <g id="Ultralight-M" transform="translate(0,200)">
            <path d="M230,141.625 L230,80.375 C230,77.959 228.041,76 225.625,76 C223.209,76 221.25,77.959 221.25,80.375 L221.25,141.625 C221.25,144.041 223.209,146 225.625,146 C228.041,146 230,144.041 230,141.625 Z" />
            <path d="M266.281,81.656 L240.031,107.906 C238.323,109.615 238.323,112.385 240.031,114.094 L266.281,140.344 C267.99,142.052 270.76,142.052 272.469,140.344 C274.177,138.635 274.177,135.865 272.469,134.156 L246.219,107.906 L246.219,114.094 L272.469,87.844 C274.177,86.135 274.177,83.365 272.469,81.656 C270.76,79.948 267.99,79.948 266.281,81.656 Z" />
            <path d="M243.125,115.375 L304.375,115.375 C306.791,115.375 308.75,113.416 308.75,111 C308.75,108.584 306.791,106.625 304.375,106.625 L243.125,106.625 C240.709,106.625 238.75,108.584 238.75,111 C238.75,113.416 240.709,115.375 243.125,115.375 Z" />
        </g>
        <g id="Regular-M" transform="translate(0,200)">
            <path d="M430,141.625 L430,80.375 C430,77.959 428.041,76 425.625,76 C423.209,76 421.25,77.959 421.25,80.375 L421.25,141.625 C421.25,144.041 423.209,146 425.625,146 C428.041,146 430,144.041 430,141.625 Z" />
            <path d="M466.281,81.656 L440.031,107.906 C438.323,109.615 438.323,112.385 440.031,114.094 L466.281,140.344 C467.99,142.052 470.76,142.052 472.469,140.344 C474.177,138.635 474.177,135.865 472.469,134.156 L446.219,107.906 L446.219,114.094 L472.469,87.844 C474.177,86.135 474.177,83.365 472.469,81.656 C470.76,79.948 467.99,79.948 466.281,81.656 Z" />
            <path d="M443.125,115.375 L504.375,115.375 C506.791,115.375 508.75,113.416 508.75,111 C508.75,108.584 506.791,106.625 504.375,106.625 L443.125,106.625 C440.709,106.625 438.75,108.584 438.75,111 C438.75,113.416 440.709,115.375 443.125,115.375 Z" />
        </g>
        <g id="Black-M" transform="translate(0,200)">
            <path d="M630,141.625 L630,80.375 C630,77.959 628.041,76 625.625,76 C623.209,76 621.25,77.959 621.25,80.375 L621.25,141.625 C621.25,144.041 623.209,146 625.625,146 C628.041,146 630,144.041 630,141.625 Z" />
            <path d="M666.281,81.656 L640.031,107.906 C638.323,109.615 638.323,112.385 640.031,114.094 L666.281,140.344 C667.99,142.052 670.76,142.052 672.469,140.344 C674.177,138.635 674.177,135.865 672.469,134.156 L646.219,107.906 L646.219,114.094 L672.469,87.844 C674.177,86.135 674.177,83.365 672.469,81.656 C670.76,79.948 667.99,79.948 666.281,81.656 Z" />
            <path d="M643.125,115.375 L704.375,115.375 C706.791,115.375 708.75,113.416 708.75,111 C708.75,108.584 706.791,106.625 704.375,106.625 L643.125,106.625 C640.709,106.625 638.75,108.584 638.75,111 C638.75,113.416 640.709,115.375 643.125,115.375 Z" />
        </g>
    </g>
</svg>