<?xml version="1.0" encoding="UTF-8"?>
<svg height="600" width="800" xmlns="http://www.w3.org/2000/svg" xmlns:xlink="http://www.w3.org/1999/xlink">
    <g id="Notes" font-family="LucidaGrande, 'Lucida Grande', sans-serif" font-size="13">
        <rect fill="white" height="600.0" width="800.0" x="0.0" y="0.0" />
        <g font-size="13">
            <text x="18.0" y="176.0">Small</text>
            <text x="18.0" y="376.0">Medium</text>
            <text x="18.0" y="576.0">Large</text>
        </g>
        <g font-size="9">
            <text x="250.0" y="30.0">Ultralight</text>
            <text x="450.0" y="30.0">Regular</text>
            <text x="650.0" y="30.0">Black</text>
            <text id="template-version" fill="#505050" text-anchor="end" x="785.0" y="575.0">Template v.3.0</text>
            <a href="https://github.com/swhitty/SwiftDraw">
                <text fill="#505050" text-anchor="end" x="785.0" y="590.0">https://github.com/swhitty/SwiftDraw</text>
            </a>
        </g>
    </g>
    <g id="Guides" stroke="rgb(39, 170, 225)" stroke-width="0.5">
        <path id="Capline-S" d="M18,76 l800,0" />
        <path id="H-reference" d="M85,145.755 L87.685,145.755 L113.369,79.287 L114.052,79.287 L114.052,76 L112.148,76 L85,145.755 Z M95.693,121.536 L130.996,121.536 L130.263,119.313 L96.474,119.313 L95.693,121.536 Z M139.15,145.755 L141.787,145.755 L114.638,76 L113.466,76 L113.466,79.287 L139.15,145.755 Z" stroke="none" transform="translate(0,200)" />
        <path id="Baseline-S" d="M18,146 l800,0" />
        <path id="left-margin-Ultralight-M" d="M230,256 l0,110" />
        <path id="right-margin-Ultralight-M" d="M300,256 l0,110" />
        <path id="left-margin-Regular-M" d="M430,256 l0,110" />
        <path id="right-margin-Regular-M" d="M500,256 l0,110" />
        <path id="left-margin-Black-M" d="M630,256 l0,110" />
        <path id="right-margin-Black-M" d="M700,256 l0,110" />
        <path id="Capline-M" d="M18,276 l800,0" />
        <path id="Baseline-M" d="M18,346 l800,0" />
        <path id="Capline-L" d="M18,476 l800,0" />
        <path id="Baseline-L" d="M18,546 l800,0" />
    </g>
    <g id="Symbols">
        <g id="Ultralight-M" transform="translate(0,200)">
            <path d="M265,111 C265,111 265,111 265,111 C265,111 265,111 265,111 C265,111 265,111 265,111 C265,111 265,111 265,111 Z M257.997,111 C257.997,114.868 261.132,118.003 265,118.003 C268.868,118.003 272.003,114.868 272.003,111 C272.003,107.132 268.868,103.997 265,103.997 C261.132,103.997 257.997,107.132 257.997,111 Z" />
            <path d="M296.183,142.195 C305.238,133.185 297.485,112.696 280.437,95.574 C263.304,78.515 242.815,70.762 233.805,79.817 C224.762,88.815 232.515,109.304 249.563,126.426 C266.696,143.485 287.185,151.238 296.195,142.183 Z M291.231,137.243 C286.033,142.467 269.204,136.099 254.515,121.474 C239.901,106.796 233.533,89.967 238.757,84.769 C243.967,79.533 260.796,85.901 275.485,100.526 C290.099,115.204 296.467,132.033 291.243,137.231 Z" />
            <path d="M280.437,126.426 C297.485,109.304 305.238,88.815 296.183,79.805 C287.185,70.762 266.696,78.515 249.574,95.563 C232.515,112.696 224.762,133.185 233.817,142.195 C242.815,151.238 263.304,143.485 280.426,126.437 Z M275.485,121.474 C260.796,136.099 243.967,142.467 238.769,137.243 C233.533,132.033 239.901,115.204 254.526,100.515 C269.204,85.901 286.033,79.533 291.231,84.757 C296.467,89.967 290.099,106.796 275.474,121.485 Z" />
        </g>
        <g id="Regular-M" transform="translate(0,200)">
            <path d="M465,111 C465,111 465,111 465,111 C465,111 465,111 465,111 C465,111 465,111 465,111 C465,111 465,111 465,111 Z M457.997,111 C457.997,114.868 461.132,118.003 465,118.003 C468.868,118.003 472.003,114.868 472.003,111 C472.003,107.132 468.868,103.997 465,103.997 C461.132,103.997 457.997,107.132 457.997,111 Z" />
            <path d="M496.183,142.195 C505.238,133.185 497.485,112.696 480.437,95.574 C463.304,78.515 442.815,70.762 433.805,79.817 C424.762,88.815 432.515,109.304 449.563,126.426 C466.696,143.485 487.185,151.238 496.195,142.183 Z M491.231,137.243 C486.033,142.467 469.204,136.099 454.515,121.474 C439.901,106.796 433.533,89.967 438.757,84.769 C443.967,79.533 460.796,85.901 475.485,100.526 C490.099,115.204 496.467,132.033 491.243,137.231 Z" />
            <path d="M480.437,126.426 C497.485,109.304 505.238,88.815 496.183,79.805 C487.185,70.762 466.696,78.515 449.574,95.563 C432.515,112.696 424.762,133.185 433.817,142.195 C442.815,151.238 463.304,143.485 480.426,126.437 Z M475.485,121.474 C460.796,136.099 443.967,142.467 438.769,137.243 C433.533,132.033 439.901,115.204 454.526,100.515 C469.204,85.901 486.033,79.533 491.231,84.757 C496.467,89.967 490.099,106.796 475.474,121.485 Z" />
        </g>
        <g id="Black-M" transform="translate(0,200)">
            <path d="M665,111 C665,111 665,111 665,111 C665,111 665,111 665,111 C665,111 665,111 665,111 C665,111 665,111 665,111 Z M657.997,111 C657.997,114.868 661.132,118.003 665,118.003 C668.868,118.003 672.003,114.868 672.003,111 C672.003,107.132 668.868,103.997 665,103.997 C661.132,103.997 657.997,107.132 657.997,111 Z" />
            <path d="M696.183,142.195 C705.238,133.185 697.485,112.696 680.437,95.574 C663.304,78.515 642.815,70.762 633.805,79.817 C624.762,88.815 632.515,109.304 649.563,126.426 C666.696,143.485 687.185,151.238 696.195,142.183 Z M691.231,137.243 C686.033,142.467 669.204,136.099 654.515,121.474 C639.901,106.796 633.533,89.967 638.757,84.769 C643.967,79.533 660.796,85.901 675.485,100.526 C690.099,115.204 696.467,132.033 691.243,137.231 Z" />
            <path d="M680.437,126.426 C697.485,109.304 705.238,88.815 696.183,79.805 C687.185,70.762 666.696,78.515 649.574,95.563 C632.515,112.696 624.762,133.185 633.817,142.195 C642.815,151.238 663.304,143.485 680.426,126.437 Z M675.485,121.474 C660.796,136.099 643.967,142.467 638.769,137.243 C633.533,132.033 639.901,115.204 654.526,100.515 C669.204,85.901 686.033,79.533 691.231,84.757 C696.467,89.967 690.099,106.796 675.474,121.485 Z" />
        </g>
    </g>
</svg>