<?xml version="1.0" encoding="UTF-8"?>
<svg height="600" width="800" xmlns="http://www.w3.org/2000/svg" xmlns:xlink="http://www.w3.org/1999/xlink">
    <g id="Notes" font-family="LucidaGrande, 'Lucida Grande', sans-serif" font-size="13">
        <rect fill="white" height="600.0" width="800.0" x="0.0" y="0.0" />
        <g font-size="13">
            <text x="18.0" y="176.0">Small</text>
            <text x="18.0" y="376.0">Medium</text>
            <text x="18.0" y="576.0">Large</text>
        </g>
        <g font-size="9">
            <text x="250.0" y="30.0">Ultralight</text>
            <text x="450.0" y="30.0">Regular</text>
            <text x="650.0" y="30.0">Black</text>
            <text id="template-version" fill="#505050" text-anchor="end" x="785.0" y="575.0">Template v.3.0</text>
            <a href="https://github.com/swhitty/SwiftDraw">
                <text fill="#505050" text-anchor="end" x="785.0" y="590.0">https://github.com/swhitty/SwiftDraw</text>
            </a>
        </g>
    </g>
    <g id="Guides" stroke="rgb(39, 170, 225)" stroke-width="0.5">
        <path id="Capline-S" d="M18,76 l800,0" />
        <path id="H-reference" d="M85,145.755 L87.685,145.755 L113.369,79.287 L114.052,79.287 L114.052,76 L112.148,76 L85,145.755 Z M95.693,121.536 L130.996,121.536 L130.263,119.313 L96.474,119.313 L95.693,121.536 Z M139.15,145.755 L141.787,145.755 L114.638,76 L113.466,76 L113.466,79.287 L139.15,145.755 Z" stroke="none" transform="translate(0,200)" />
        <path id="Baseline-S" d="M18,146 l800,0" />
        <path id="left-margin-Ultralight-M" d="M230,256 l0,110" />
        <path id="right-margin-Ultralight-M" d="M300,256 l0,110" />
        <path id="left-margin-Regular-M" d="M430,256 l0,110" />
        <path id="right-margin-Regular-M" d="M500,256 l0,110" />
        <path id="left-margin-Black-M" d="M630,256 l0,110" />
        <path id="right-margin-Black-M" d="M700,256 l0,110" />
        <path id="Capline-M" d="M18,276 l800,0" />
        <path id="Baseline-M" d="M18,346 l800,0" />
        <path id="Capline-L" d="M18,476 l800,0" />
        <path id="Baseline-L" d="M18,546 l800,0" />
    </g>
    <g id="Symbols">
        <g id="Ultralight-M" transform="translate(0,200)">
            <path d="M233.182,117.364 C235.713,117.364 238.141,116.358 239.931,114.568 C241.722,112.778 242.727,110.35 242.727,107.818 L242.727,95.091 C242.727,93.334 244.152,91.909 245.909,91.909 C247.666,91.909 249.091,93.334 249.091,95.091 L249.091,136.455 C249.091,141.726 253.365,146 258.636,146 C263.908,146 268.182,141.726 268.182,136.455 L268.182,85.545 C268.182,83.788 269.606,82.364 271.364,82.364 C273.121,82.364 274.545,83.788 274.545,85.545 L274.545,126.909 C274.545,132.181 278.819,136.455 284.091,136.455 C289.363,136.455 293.636,132.181 293.636,126.909 L293.636,114.182 C293.636,113.338 293.972,112.529 294.568,111.932 C295.165,111.335 295.974,111 296.818,111 C298.575,111 300,109.575 300,107.818 C300,106.061 298.575,104.636 296.818,104.636 C294.287,104.636 291.859,105.642 290.069,107.432 C288.278,109.222 287.273,111.65 287.273,114.182 L287.273,126.909 C287.273,128.666 285.848,130.091 284.091,130.091 C282.334,130.091 280.909,128.666 280.909,126.909 L280.909,85.545 C280.909,80.274 276.635,76 271.364,76 C266.092,76 261.818,80.274 261.818,85.545 L261.818,136.455 C261.818,138.212 260.394,139.636 258.636,139.636 C256.879,139.636 255.455,138.212 255.455,136.455 L255.455,95.091 C255.455,89.819 251.181,85.545 245.909,85.545 C240.637,85.545 236.364,89.819 236.364,95.091 L236.364,107.818 C236.364,108.662 236.028,109.471 235.432,110.068 C234.835,110.665 234.026,111 233.182,111 C231.425,111 230,112.425 230,114.182 C230,115.939 231.425,117.364 233.182,117.364 Z" />
        </g>
        <g id="Regular-M" transform="translate(0,200)">
            <path d="M433.182,117.364 C435.713,117.364 438.141,116.358 439.931,114.568 C441.722,112.778 442.727,110.35 442.727,107.818 L442.727,95.091 C442.727,93.334 444.152,91.909 445.909,91.909 C447.666,91.909 449.091,93.334 449.091,95.091 L449.091,136.455 C449.091,141.726 453.365,146 458.636,146 C463.908,146 468.182,141.726 468.182,136.455 L468.182,85.545 C468.182,83.788 469.606,82.364 471.364,82.364 C473.121,82.364 474.545,83.788 474.545,85.545 L474.545,126.909 C474.545,132.181 478.819,136.455 484.091,136.455 C489.363,136.455 493.636,132.181 493.636,126.909 L493.636,114.182 C493.636,113.338 493.972,112.529 494.568,111.932 C495.165,111.335 495.974,111 496.818,111 C498.575,111 500,109.575 500,107.818 C500,106.061 498.575,104.636 496.818,104.636 C494.287,104.636 491.859,105.642 490.069,107.432 C488.278,109.222 487.273,111.65 487.273,114.182 L487.273,126.909 C487.273,128.666 485.848,130.091 484.091,130.091 C482.334,130.091 480.909,128.666 480.909,126.909 L480.909,85.545 C480.909,80.274 476.635,76 471.364,76 C466.092,76 461.818,80.274 461.818,85.545 L461.818,136.455 C461.818,138.212 460.394,139.636 458.636,139.636 C456.879,139.636 455.455,138.212 455.455,136.455 L455.455,95.091 C455.455,89.819 451.181,85.545 445.909,85.545 C440.637,85.545 436.364,89.819 436.364,95.091 L436.364,107.818 C436.364,108.662 436.028,109.471 435.432,110.068 C434.835,110.665 434.026,111 433.182,111 C431.425,111 430,112.425 430,114.182 C430,115.939 431.425,117.364 433.182,117.364 Z" />
        </g>
        <g id="Black-M" transform="translate(0,200)">
            <path d="M633.182,117.364 C635.713,117.364 638.141,116.358 639.931,114.568 C641.722,112.778 642.727,110.35 642.727,107.818 L642.727,95.091 C642.727,93.334 644.152,91.909 645.909,91.909 C647.666,91.909 649.091,93.334 649.091,95.091 L649.091,136.455 C649.091,141.726 653.365,146 658.636,146 C663.908,146 668.182,141.726 668.182,136.455 L668.182,85.545 C668.182,83.788 669.606,82.364 671.364,82.364 C673.121,82.364 674.545,83.788 674.545,85.545 L674.545,126.909 C674.545,132.181 678.819,136.455 684.091,136.455 C689.363,136.455 693.636,132.181 693.636,126.909 L693.636,114.182 C693.636,113.338 693.972,112.529 694.568,111.932 C695.165,111.335 695.974,111 696.818,111 C698.575,111 700,109.575 700,107.818 C700,106.061 698.575,104.636 696.818,104.636 C694.287,104.636 691.859,105.642 690.069,107.432 C688.278,109.222 687.273,111.65 687.273,114.182 L687.273,126.909 C687.273,128.666 685.848,130.091 684.091,130.091 C682.334,130.091 680.909,128.666 680.909,126.909 L680.909,85.545 C680.909,80.274 676.635,76 671.364,76 C666.092,76 661.818,80.274 661.818,85.545 L661.818,136.455 C661.818,138.212 660.394,139.636 658.636,139.636 C656.879,139.636 655.455,138.212 655.455,136.455 L655.455,95.091 C655.455,89.819 651.181,85.545 645.909,85.545 C640.637,85.545 636.364,89.819 636.364,95.091 L636.364,107.818 C636.364,108.662 636.028,109.471 635.432,110.068 C634.835,110.665 634.026,111 633.182,111 C631.425,111 630,112.425 630,114.182 C630,115.939 631.425,117.364 633.182,117.364 Z" />
        </g>
    </g>
</svg>