<?xml version="1.0" encoding="UTF-8"?>
<svg height="600" width="800" xmlns="http://www.w3.org/2000/svg" xmlns:xlink="http://www.w3.org/1999/xlink">
    <g id="Notes" font-family="LucidaGrande, 'Lucida Grande', sans-serif" font-size="13">
        <rect fill="white" height="600.0" width="800.0" x="0.0" y="0.0" />
        <g font-size="13">
            <text x="18.0" y="176.0">Small</text>
            <text x="18.0" y="376.0">Medium</text>
            <text x="18.0" y="576.0">Large</text>
        </g>
        <g font-size="9">
            <text x="250.0" y="30.0">Ultralight</text>
            <text x="450.0" y="30.0">Regular</text>
            <text x="650.0" y="30.0">Black</text>
            <text id="template-version" fill="#505050" text-anchor="end" x="785.0" y="575.0">Template v.3.0</text>
            <a href="https://github.com/swhitty/SwiftDraw">
                <text fill="#505050" text-anchor="end" x="785.0" y="590.0">https://github.com/swhitty/SwiftDraw</text>
            </a>
        </g>
    </g>
    <g id="Guides" stroke="rgb(39, 170, 225)" stroke-width="0.5">
        <path id="Capline-S" d="M18,76 l800,0" />
        <path id="H-reference" d="M85,145.755 L87.685,145.755 L113.369,79.287 L114.052,79.287 L114.052,76 L112.148,76 L85,145.755 Z M95.693,121.536 L130.996,121.536 L130.263,119.313 L96.474,119.313 L95.693,121.536 Z M139.15,145.755 L141.787,145.755 L114.638,76 L113.466,76 L113.466,79.287 L139.15,145.755 Z" stroke="none" transform="translate(0,200)" />
        <path id="Baseline-S" d="M18,146 l800,0" />
        <path id="left-margin-Ultralight-M" d="M226.5,256 l0,110" />
        <path id="right-margin-Ultralight-M" d="M303.5,256 l0,110" />
        <path id="left-margin-Regular-M" d="M426.5,256 l0,110" />
        <path id="right-margin-Regular-M" d="M503.5,256 l0,110" />
        <path id="left-margin-Black-M" d="M626.5,256 l0,110" />
        <path id="right-margin-Black-M" d="M703.5,256 l0,110" />
        <path id="Capline-M" d="M18,276 l800,0" />
        <path id="Baseline-M" d="M18,346 l800,0" />
        <path id="Capline-L" d="M18,476 l800,0" />
        <path id="Baseline-L" d="M18,546 l800,0" />
    </g>
    <g id="Symbols">
        <g id="Ultralight-M" transform="translate(0,200)">
            <path d="M269.53,108.524 L240.201,137.85 C238.668,139.384 236.182,139.384 234.649,137.852 C233.116,136.319 233.116,133.834 234.648,132.3 L263.98,102.975 C265.347,101.608 265.347,99.392 263.981,98.026 C262.614,96.659 260.399,96.659 259.032,98.025 L229.699,127.351 C225.433,131.619 225.434,138.536 229.701,142.802 C233.968,147.067 240.885,147.066 245.15,142.799 L274.479,113.473 C275.846,112.107 275.846,109.891 274.479,108.524 C273.113,107.157 270.897,107.157 269.53,108.524 Z" />
            <path d="M272.005,123.247 C272.005,124.639 272.558,125.974 273.542,126.959 C274.526,127.943 275.862,128.496 277.254,128.496 C284.215,128.496 290.891,125.731 295.813,120.809 C300.735,115.887 303.5,109.211 303.5,102.25 C303.5,100.858 302.947,99.522 301.963,98.538 C300.978,97.553 299.643,97 298.251,97 L292.4,97 C291.472,97 290.582,96.631 289.926,95.975 L272.211,78.26 C269.198,75.247 264.313,75.247 261.299,78.26 L253.264,86.295 C250.251,89.308 250.251,94.194 253.264,97.207 L270.979,114.922 C271.636,115.578 272.004,116.468 272.005,117.397 L272.005,123.247 Z M279.004,123.247 L279.004,117.396 C279.003,114.611 277.896,111.941 275.927,109.972 L258.213,92.258 C257.933,91.978 257.933,91.524 258.214,91.244 L266.248,83.209 C266.528,82.929 266.982,82.929 267.263,83.209 L284.977,100.924 C286.945,102.892 289.615,103.999 292.399,103.999 L298.251,103.999 C297.787,103.999 297.342,103.815 297.014,103.487 C296.685,103.159 296.501,102.714 296.501,102.25 C296.501,107.354 294.473,112.25 290.864,115.86 C287.254,119.469 282.358,121.497 277.254,121.497 C277.718,121.497 278.163,121.682 278.491,122.01 C278.819,122.338 279.004,122.783 279.004,123.247 Z" />
        </g>
        <g id="Regular-M" transform="translate(0,200)">
            <path d="M469.53,108.524 L440.201,137.85 C438.668,139.384 436.182,139.384 434.649,137.852 C433.116,136.319 433.116,133.834 434.648,132.3 L463.98,102.975 C465.347,101.608 465.347,99.392 463.981,98.026 C462.614,96.659 460.399,96.659 459.032,98.025 L429.699,127.351 C425.433,131.619 425.434,138.536 429.701,142.802 C433.968,147.067 440.885,147.066 445.15,142.799 L474.479,113.473 C475.846,112.107 475.846,109.891 474.479,108.524 C473.113,107.157 470.897,107.157 469.53,108.524 Z" />
            <path d="M472.005,123.247 C472.005,124.639 472.558,125.974 473.542,126.959 C474.526,127.943 475.862,128.496 477.254,128.496 C484.215,128.496 490.891,125.731 495.813,120.809 C500.735,115.887 503.5,109.211 503.5,102.25 C503.5,100.858 502.947,99.522 501.963,98.538 C500.978,97.553 499.643,97 498.251,97 L492.4,97 C491.472,97 490.582,96.631 489.926,95.975 L472.211,78.26 C469.198,75.247 464.313,75.247 461.299,78.26 L453.264,86.295 C450.251,89.308 450.251,94.194 453.264,97.207 L470.979,114.922 C471.636,115.578 472.004,116.468 472.005,117.397 L472.005,123.247 Z M479.004,123.247 L479.004,117.396 C479.003,114.611 477.896,111.941 475.927,109.972 L458.213,92.258 C457.933,91.978 457.933,91.524 458.214,91.244 L466.248,83.209 C466.528,82.929 466.982,82.929 467.263,83.209 L484.977,100.924 C486.945,102.892 489.615,103.999 492.399,103.999 L498.251,103.999 C497.787,103.999 497.342,103.815 497.014,103.487 C496.685,103.159 496.501,102.714 496.501,102.25 C496.501,107.354 494.473,112.25 490.864,115.86 C487.254,119.469 482.358,121.497 477.254,121.497 C477.718,121.497 478.163,121.682 478.491,122.01 C478.819,122.338 479.004,122.783 479.004,123.247 Z" />
        </g>
        <g id="Black-M" transform="translate(0,200)">
            <path d="M669.53,108.524 L640.201,137.85 C638.668,139.384 636.182,139.384 634.649,137.852 C633.116,136.319 633.116,133.834 634.648,132.3 L663.98,102.975 C665.347,101.608 665.347,99.392 663.981,98.026 C662.614,96.659 660.399,96.659 659.032,98.025 L629.699,127.351 C625.433,131.619 625.434,138.536 629.701,142.802 C633.968,147.067 640.885,147.066 645.15,142.799 L674.479,113.473 C675.846,112.107 675.846,109.891 674.479,108.524 C673.113,107.157 670.897,107.157 669.53,108.524 Z" />
            <path d="M672.005,123.247 C672.005,124.639 672.558,125.974 673.542,126.959 C674.526,127.943 675.862,128.496 677.254,128.496 C684.215,128.496 690.891,125.731 695.813,120.809 C700.735,115.887 703.5,109.211 703.5,102.25 C703.5,100.858 702.947,99.522 701.963,98.538 C700.978,97.553 699.643,97 698.251,97 L692.4,97 C691.472,97 690.582,96.631 689.926,95.975 L672.211,78.26 C669.198,75.247 664.313,75.247 661.299,78.26 L653.264,86.295 C650.251,89.308 650.251,94.194 653.264,97.207 L670.979,114.922 C671.635,115.578 672.004,116.468 672.005,117.397 L672.005,123.247 Z M679.004,123.247 L679.004,117.396 C679.003,114.611 677.896,111.941 675.927,109.972 L658.213,92.258 C657.933,91.978 657.933,91.524 658.214,91.244 L666.248,83.209 C666.528,82.929 666.982,82.929 667.263,83.209 L684.977,100.924 C686.945,102.892 689.615,103.999 692.399,103.999 L698.251,103.999 C697.787,103.999 697.342,103.815 697.013,103.487 C696.685,103.159 696.501,102.714 696.501,102.25 C696.501,107.354 694.473,112.25 690.864,115.86 C687.254,119.469 682.358,121.497 677.254,121.497 C677.718,121.497 678.163,121.682 678.491,122.01 C678.819,122.338 679.004,122.783 679.004,123.247 Z" />
        </g>
    </g>
</svg>