<?xml version="1.0" encoding="UTF-8"?>
<svg height="600" width="800" xmlns="http://www.w3.org/2000/svg" xmlns:xlink="http://www.w3.org/1999/xlink">
    <g id="Notes" font-family="LucidaGrande, 'Lucida Grande', sans-serif" font-size="13">
        <rect fill="white" height="600.0" width="800.0" x="0.0" y="0.0" />
        <g font-size="13">
            <text x="18.0" y="176.0">Small</text>
            <text x="18.0" y="376.0">Medium</text>
            <text x="18.0" y="576.0">Large</text>
        </g>
        <g font-size="9">
            <text x="250.0" y="30.0">Ultralight</text>
            <text x="450.0" y="30.0">Regular</text>
            <text x="650.0" y="30.0">Black</text>
            <text id="template-version" fill="#505050" text-anchor="end" x="785.0" y="575.0">Template v.3.0</text>
            <a href="https://github.com/swhitty/SwiftDraw">
                <text fill="#505050" text-anchor="end" x="785.0" y="590.0">https://github.com/swhitty/SwiftDraw</text>
            </a>
        </g>
    </g>
    <g id="Guides" stroke="rgb(39, 170, 225)" stroke-width="0.5">
        <path id="Capline-S" d="M18,76 l800,0" />
        <path id="H-reference" d="M85,145.755 L87.685,145.755 L113.369,79.287 L114.052,79.287 L114.052,76 L112.148,76 L85,145.755 Z M95.693,121.536 L130.996,121.536 L130.263,119.313 L96.474,119.313 L95.693,121.536 Z M139.15,145.755 L141.787,145.755 L114.638,76 L113.466,76 L113.466,79.287 L139.15,145.755 Z" stroke="none" transform="translate(0,200)" />
        <path id="Baseline-S" d="M18,146 l800,0" />
        <path id="left-margin-Ultralight-M" d="M236.364,256 l0,110" />
        <path id="right-margin-Ultralight-M" d="M293.636,256 l0,110" />
        <path id="left-margin-Regular-M" d="M436.364,256 l0,110" />
        <path id="right-margin-Regular-M" d="M493.636,256 l0,110" />
        <path id="left-margin-Black-M" d="M636.364,256 l0,110" />
        <path id="right-margin-Black-M" d="M693.636,256 l0,110" />
        <path id="Capline-M" d="M18,276 l800,0" />
        <path id="Baseline-M" d="M18,346 l800,0" />
        <path id="Capline-L" d="M18,476 l800,0" />
        <path id="Baseline-L" d="M18,546 l800,0" />
    </g>
    <g id="Symbols">
        <g id="Ultralight-M" transform="translate(0,200)">
            <path d="M242.727,104.636 C242.727,102.105 243.733,99.677 245.523,97.887 C247.313,96.097 249.741,95.091 252.273,95.091 L277.727,95.091 C280.259,95.091 282.687,96.097 284.477,97.887 C286.267,99.677 287.273,102.105 287.273,104.636 L287.273,136.455 C287.273,137.298 286.938,138.108 286.341,138.704 C285.744,139.301 284.935,139.636 284.091,139.636 L245.909,139.636 C245.065,139.636 244.256,139.301 243.659,138.704 C243.062,138.108 242.727,137.298 242.727,136.455 L242.727,104.636 Z M236.364,104.636 L236.364,136.455 C236.364,138.986 237.369,141.414 239.159,143.204 C240.95,144.994 243.377,146 245.909,146 L284.091,146 C286.623,146 289.05,144.994 290.841,143.204 C292.631,141.414 293.636,138.986 293.636,136.455 L293.636,104.636 C293.636,100.417 291.96,96.37 288.977,93.387 C285.993,90.403 281.947,88.727 277.727,88.727 L252.273,88.727 C248.053,88.727 244.007,90.403 241.023,93.387 C238.04,96.37 236.364,100.417 236.364,104.636 Z" />
            <path d="M252.273,107.818 L277.727,107.818 C279.485,107.818 280.909,106.394 280.909,104.636 C280.909,102.879 279.485,101.455 277.727,101.455 L252.273,101.455 C250.515,101.455 249.091,102.879 249.091,104.636 C249.091,106.394 250.515,107.818 252.273,107.818 Z" />
            <path d="M252.273,133.273 L277.727,133.273 C279.485,133.273 280.909,131.848 280.909,130.091 C280.909,128.334 279.485,126.909 277.727,126.909 L252.273,126.909 C250.515,126.909 249.091,128.334 249.091,130.091 C249.091,131.848 250.515,133.273 252.273,133.273 Z" />
            <path d="M255.455,142.818 L255.455,123.727 C255.455,122.883 255.79,122.074 256.386,121.477 C256.983,120.881 257.792,120.545 258.636,120.545 L271.364,120.545 C272.208,120.545 273.017,120.881 273.614,121.477 C274.21,122.074 274.545,122.883 274.545,123.727 L274.545,142.818 C274.545,144.575 275.97,146 277.727,146 C279.485,146 280.909,144.575 280.909,142.818 L280.909,123.727 C280.909,121.196 279.903,118.768 278.113,116.978 C276.323,115.188 273.895,114.182 271.364,114.182 L258.636,114.182 C256.105,114.182 253.677,115.188 251.887,116.978 C250.097,118.768 249.091,121.196 249.091,123.727 L249.091,142.818 C249.091,144.575 250.515,146 252.273,146 C254.03,146 255.455,144.575 255.455,142.818 Z" />
            <path d="M258.636,91.909 L258.636,85.545 C258.636,84.702 258.972,83.892 259.568,83.296 C260.165,82.699 260.974,82.364 261.818,82.364 L268.182,82.364 C269.026,82.364 269.835,82.699 270.432,83.296 C271.028,83.892 271.364,84.702 271.364,85.545 L271.364,91.909 C271.364,93.666 272.788,95.091 274.545,95.091 C276.303,95.091 277.727,93.666 277.727,91.909 L277.727,85.545 C277.727,83.014 276.722,80.586 274.931,78.796 C273.141,77.006 270.713,76 268.182,76 L261.818,76 C259.287,76 256.859,77.006 255.069,78.796 C253.278,80.586 252.273,83.014 252.273,85.545 L252.273,91.909 C252.273,93.666 253.697,95.091 255.455,95.091 C257.212,95.091 258.636,93.666 258.636,91.909 Z" />
        </g>
        <g id="Regular-M" transform="translate(0,200)">
            <path d="M442.727,104.636 C442.727,102.105 443.733,99.677 445.523,97.887 C447.313,96.097 449.741,95.091 452.273,95.091 L477.727,95.091 C480.259,95.091 482.687,96.097 484.477,97.887 C486.267,99.677 487.273,102.105 487.273,104.636 L487.273,136.455 C487.273,137.298 486.938,138.108 486.341,138.704 C485.744,139.301 484.935,139.636 484.091,139.636 L445.909,139.636 C445.065,139.636 444.256,139.301 443.659,138.704 C443.062,138.108 442.727,137.298 442.727,136.455 L442.727,104.636 Z M436.364,104.636 L436.364,136.455 C436.364,138.986 437.369,141.414 439.159,143.204 C440.95,144.994 443.378,146 445.909,146 L484.091,146 C486.623,146 489.05,144.994 490.841,143.204 C492.631,141.414 493.636,138.986 493.636,136.455 L493.636,104.636 C493.636,100.417 491.96,96.37 488.977,93.387 C485.993,90.403 481.947,88.727 477.727,88.727 L452.273,88.727 C448.053,88.727 444.007,90.403 441.023,93.387 C438.04,96.37 436.364,100.417 436.364,104.636 Z" />
            <path d="M452.273,107.818 L477.727,107.818 C479.485,107.818 480.909,106.394 480.909,104.636 C480.909,102.879 479.485,101.455 477.727,101.455 L452.273,101.455 C450.515,101.455 449.091,102.879 449.091,104.636 C449.091,106.394 450.515,107.818 452.273,107.818 Z" />
            <path d="M452.273,133.273 L477.727,133.273 C479.485,133.273 480.909,131.848 480.909,130.091 C480.909,128.334 479.485,126.909 477.727,126.909 L452.273,126.909 C450.515,126.909 449.091,128.334 449.091,130.091 C449.091,131.848 450.515,133.273 452.273,133.273 Z" />
            <path d="M455.455,142.818 L455.455,123.727 C455.455,122.883 455.79,122.074 456.386,121.477 C456.983,120.881 457.793,120.545 458.636,120.545 L471.364,120.545 C472.208,120.545 473.017,120.881 473.614,121.477 C474.21,122.074 474.545,122.883 474.545,123.727 L474.545,142.818 C474.545,144.575 475.97,146 477.727,146 C479.485,146 480.909,144.575 480.909,142.818 L480.909,123.727 C480.909,121.196 479.903,118.768 478.113,116.978 C476.323,115.188 473.895,114.182 471.364,114.182 L458.636,114.182 C456.105,114.182 453.677,115.188 451.887,116.978 C450.097,118.768 449.091,121.196 449.091,123.727 L449.091,142.818 C449.091,144.575 450.515,146 452.273,146 C454.03,146 455.455,144.575 455.455,142.818 Z" />
            <path d="M458.636,91.909 L458.636,85.545 C458.636,84.702 458.972,83.892 459.568,83.296 C460.165,82.699 460.974,82.364 461.818,82.364 L468.182,82.364 C469.026,82.364 469.835,82.699 470.432,83.296 C471.028,83.892 471.364,84.702 471.364,85.545 L471.364,91.909 C471.364,93.666 472.788,95.091 474.545,95.091 C476.303,95.091 477.727,93.666 477.727,91.909 L477.727,85.545 C477.727,83.014 476.722,80.586 474.931,78.796 C473.141,77.006 470.713,76 468.182,76 L461.818,76 C459.287,76 456.859,77.006 455.069,78.796 C453.278,80.586 452.273,83.014 452.273,85.545 L452.273,91.909 C452.273,93.666 453.697,95.091 455.455,95.091 C457.212,95.091 458.636,93.666 458.636,91.909 Z" />
        </g>
        <g id="Black-M" transform="translate(0,200)">
            <path d="M642.727,104.636 C642.727,102.105 643.733,99.677 645.523,97.887 C647.313,96.097 649.741,95.091 652.273,95.091 L677.727,95.091 C680.259,95.091 682.687,96.097 684.477,97.887 C686.267,99.677 687.273,102.105 687.273,104.636 L687.273,136.455 C687.273,137.298 686.938,138.108 686.341,138.704 C685.744,139.301 684.935,139.636 684.091,139.636 L645.909,139.636 C645.065,139.636 644.256,139.301 643.659,138.704 C643.062,138.108 642.727,137.298 642.727,136.455 L642.727,104.636 Z M636.364,104.636 L636.364,136.455 C636.364,138.986 637.369,141.414 639.159,143.204 C640.95,144.994 643.378,146 645.909,146 L684.091,146 C686.623,146 689.05,144.994 690.841,143.204 C692.631,141.414 693.636,138.986 693.636,136.455 L693.636,104.636 C693.636,100.417 691.96,96.37 688.977,93.387 C685.993,90.403 681.947,88.727 677.727,88.727 L652.273,88.727 C648.053,88.727 644.007,90.403 641.023,93.387 C638.04,96.37 636.364,100.417 636.364,104.636 Z" />
            <path d="M652.273,107.818 L677.727,107.818 C679.485,107.818 680.909,106.394 680.909,104.636 C680.909,102.879 679.485,101.455 677.727,101.455 L652.273,101.455 C650.515,101.455 649.091,102.879 649.091,104.636 C649.091,106.394 650.515,107.818 652.273,107.818 Z" />
            <path d="M652.273,133.273 L677.727,133.273 C679.485,133.273 680.909,131.848 680.909,130.091 C680.909,128.334 679.485,126.909 677.727,126.909 L652.273,126.909 C650.515,126.909 649.091,128.334 649.091,130.091 C649.091,131.848 650.515,133.273 652.273,133.273 Z" />
            <path d="M655.455,142.818 L655.455,123.727 C655.455,122.883 655.79,122.074 656.386,121.477 C656.983,120.881 657.792,120.545 658.636,120.545 L671.364,120.545 C672.208,120.545 673.017,120.881 673.614,121.477 C674.21,122.074 674.545,122.883 674.545,123.727 L674.545,142.818 C674.545,144.575 675.97,146 677.727,146 C679.485,146 680.909,144.575 680.909,142.818 L680.909,123.727 C680.909,121.196 679.903,118.768 678.113,116.978 C676.323,115.188 673.895,114.182 671.364,114.182 L658.636,114.182 C656.105,114.182 653.677,115.188 651.887,116.978 C650.097,118.768 649.091,121.196 649.091,123.727 L649.091,142.818 C649.091,144.575 650.515,146 652.273,146 C654.03,146 655.455,144.575 655.455,142.818 Z" />
            <path d="M658.636,91.909 L658.636,85.545 C658.636,84.702 658.972,83.892 659.568,83.296 C660.165,82.699 660.974,82.364 661.818,82.364 L668.182,82.364 C669.026,82.364 669.835,82.699 670.432,83.296 C671.028,83.892 671.364,84.702 671.364,85.545 L671.364,91.909 C671.364,93.666 672.788,95.091 674.545,95.091 C676.303,95.091 677.727,93.666 677.727,91.909 L677.727,85.545 C677.727,83.014 676.722,80.586 674.931,78.796 C673.141,77.006 670.713,76 668.182,76 L661.818,76 C659.287,76 656.859,77.006 655.069,78.796 C653.278,80.586 652.273,83.014 652.273,85.545 L652.273,91.909 C652.273,93.666 653.697,95.091 655.455,95.091 C657.212,95.091 658.636,93.666 658.636,91.909 Z" />
        </g>
    </g>
</svg>