<?xml version="1.0" encoding="UTF-8"?>
<svg height="600" width="800" xmlns="http://www.w3.org/2000/svg" xmlns:xlink="http://www.w3.org/1999/xlink">
    <g id="Notes" font-family="LucidaGrande, 'Lucida Grande', sans-serif" font-size="13">
        <rect fill="white" height="600.0" width="800.0" x="0.0" y="0.0" />
        <g font-size="13">
            <text x="18.0" y="176.0">Small</text>
            <text x="18.0" y="376.0">Medium</text>
            <text x="18.0" y="576.0">Large</text>
        </g>
        <g font-size="9">
            <text x="250.0" y="30.0">Ultralight</text>
            <text x="450.0" y="30.0">Regular</text>
            <text x="650.0" y="30.0">Black</text>
            <text id="template-version" fill="#505050" text-anchor="end" x="785.0" y="575.0">Template v.3.0</text>
            <a href="https://github.com/swhitty/SwiftDraw">
                <text fill="#505050" text-anchor="end" x="785.0" y="590.0">https://github.com/swhitty/SwiftDraw</text>
            </a>
        </g>
    </g>
    <g id="Guides" stroke="rgb(39, 170, 225)" stroke-width="0.5">
        <path id="Capline-S" d="M18,76 l800,0" />
        <path id="H-reference" d="M85,145.755 L87.685,145.755 L113.369,79.287 L114.052,79.287 L114.052,76 L112.148,76 L85,145.755 Z M95.693,121.536 L130.996,121.536 L130.263,119.313 L96.474,119.313 L95.693,121.536 Z M139.15,145.755 L141.787,145.755 L114.638,76 L113.466,76 L113.466,79.287 L139.15,145.755 Z" stroke="none" transform="translate(0,200)" />
        <path id="Baseline-S" d="M18,146 l800,0" />
        <path id="left-margin-Ultralight-M" d="M221,256 l0,110" />
        <path id="right-margin-Ultralight-M" d="M309,256 l0,110" />
        <path id="left-margin-Regular-M" d="M421,256 l0,110" />
        <path id="right-margin-Regular-M" d="M509,256 l0,110" />
        <path id="left-margin-Black-M" d="M621,256 l0,110" />
        <path id="right-margin-Black-M" d="M709,256 l0,110" />
        <path id="Capline-M" d="M18,276 l800,0" />
        <path id="Baseline-M" d="M18,346 l800,0" />
        <path id="Capline-L" d="M18,476 l800,0" />
        <path id="Baseline-L" d="M18,546 l800,0" />
    </g>
    <g id="Symbols">
        <g id="Ultralight-M" transform="translate(0,200)">
            <path d="M263.992,125 L233,125 C231.939,125 230.922,124.579 230.172,123.828 C229.421,123.078 229,122.061 229,121 L229,89 C229,87.939 229.421,86.922 230.172,86.172 C230.922,85.421 231.939,85 233,85 L297,85 C298.061,85 299.078,85.421 299.828,86.172 C300.579,86.922 301,87.939 301,89 L301,108.5 C301,110.709 302.791,112.5 305,112.5 C307.209,112.5 309,110.709 309,108.5 L309,89 C309,85.817 307.736,82.765 305.485,80.515 C303.235,78.264 300.183,77 297,77 L233,77 C229.817,77 226.765,78.264 224.515,80.515 C222.264,82.765 221,85.817 221,89 L221,121 C221,124.183 222.264,127.235 224.515,129.485 C226.765,131.736 229.817,133 233,133 L263.992,133 C266.201,133 267.992,131.209 267.992,129 C267.992,126.791 266.201,125 263.992,125 Z" />
            <path d="M278.172,135.828 L286.172,143.828 C287.734,145.391 290.266,145.391 291.828,143.828 L307.828,127.828 C309.391,126.266 309.391,123.734 307.828,122.172 C306.266,120.609 303.734,120.609 302.172,122.172 L286.172,138.172 L291.828,138.172 L283.828,130.172 C282.266,128.609 279.734,128.609 278.172,130.172 C276.609,131.734 276.609,134.266 278.172,135.828 Z" />
            <path d="M289,109 L289.04,109 C291.249,109 293.04,107.209 293.04,105 C293.04,102.791 291.249,101 289.04,101 L289,101 C286.791,101 285,102.791 285,105 C285,107.209 286.791,109 289,109 Z" />
            <path d="M241,109 L241.04,109 C243.249,109 245.04,107.209 245.04,105 C245.04,102.791 243.249,101 241.04,101 L241,101 C238.791,101 237,102.791 237,105 C237,107.209 238.791,109 241,109 Z" />
            <path d="M261,105 C261,102.791 262.791,101 265,101 C267.209,101 269,102.791 269,105 C269,107.209 267.209,109 265,109 C262.791,109 261,107.209 261,105 Z M253,105 C253,111.627 258.373,117 265,117 C271.627,117 277,111.627 277,105 C277,98.373 271.627,93 265,93 C258.373,93 253,98.373 253,105 Z" />
        </g>
        <g id="Regular-M" transform="translate(0,200)">
            <path d="M463.992,125 L433,125 C431.939,125 430.922,124.579 430.172,123.828 C429.421,123.078 429,122.061 429,121 L429,89 C429,87.939 429.421,86.922 430.172,86.172 C430.922,85.421 431.939,85 433,85 L497,85 C498.061,85 499.078,85.421 499.828,86.172 C500.579,86.922 501,87.939 501,89 L501,108.5 C501,110.709 502.791,112.5 505,112.5 C507.209,112.5 509,110.709 509,108.5 L509,89 C509,85.817 507.736,82.765 505.485,80.515 C503.235,78.264 500.183,77 497,77 L433,77 C429.817,77 426.765,78.264 424.515,80.515 C422.264,82.765 421,85.817 421,89 L421,121 C421,124.183 422.264,127.235 424.515,129.485 C426.765,131.736 429.817,133 433,133 L463.992,133 C466.201,133 467.992,131.209 467.992,129 C467.992,126.791 466.201,125 463.992,125 Z" />
            <path d="M478.172,135.828 L486.172,143.828 C487.734,145.391 490.266,145.391 491.828,143.828 L507.828,127.828 C509.391,126.266 509.391,123.734 507.828,122.172 C506.266,120.609 503.734,120.609 502.172,122.172 L486.172,138.172 L491.828,138.172 L483.828,130.172 C482.266,128.609 479.734,128.609 478.172,130.172 C476.609,131.734 476.609,134.266 478.172,135.828 Z" />
            <path d="M489,109 L489.04,109 C491.249,109 493.04,107.209 493.04,105 C493.04,102.791 491.249,101 489.04,101 L489,101 C486.791,101 485,102.791 485,105 C485,107.209 486.791,109 489,109 Z" />
            <path d="M441,109 L441.04,109 C443.249,109 445.04,107.209 445.04,105 C445.04,102.791 443.249,101 441.04,101 L441,101 C438.791,101 437,102.791 437,105 C437,107.209 438.791,109 441,109 Z" />
            <path d="M461,105 C461,102.791 462.791,101 465,101 C467.209,101 469,102.791 469,105 C469,107.209 467.209,109 465,109 C462.791,109 461,107.209 461,105 Z M453,105 C453,111.627 458.373,117 465,117 C471.627,117 477,111.627 477,105 C477,98.373 471.627,93 465,93 C458.373,93 453,98.373 453,105 Z" />
        </g>
        <g id="Black-M" transform="translate(0,200)">
            <path d="M663.992,125 L633,125 C631.939,125 630.922,124.579 630.172,123.828 C629.421,123.078 629,122.061 629,121 L629,89 C629,87.939 629.421,86.922 630.172,86.172 C630.922,85.421 631.939,85 633,85 L697,85 C698.061,85 699.078,85.421 699.828,86.172 C700.579,86.922 701,87.939 701,89 L701,108.5 C701,110.709 702.791,112.5 705,112.5 C707.209,112.5 709,110.709 709,108.5 L709,89 C709,85.817 707.736,82.765 705.485,80.515 C703.235,78.264 700.183,77 697,77 L633,77 C629.817,77 626.765,78.264 624.515,80.515 C622.264,82.765 621,85.817 621,89 L621,121 C621,124.183 622.264,127.235 624.515,129.485 C626.765,131.736 629.817,133 633,133 L663.992,133 C666.201,133 667.992,131.209 667.992,129 C667.992,126.791 666.201,125 663.992,125 Z" />
            <path d="M678.172,135.828 L686.172,143.828 C687.734,145.391 690.266,145.391 691.828,143.828 L707.828,127.828 C709.391,126.266 709.391,123.734 707.828,122.172 C706.266,120.609 703.734,120.609 702.172,122.172 L686.172,138.172 L691.828,138.172 L683.828,130.172 C682.266,128.609 679.734,128.609 678.172,130.172 C676.609,131.734 676.609,134.266 678.172,135.828 Z" />
            <path d="M689,109 L689.04,109 C691.249,109 693.04,107.209 693.04,105 C693.04,102.791 691.249,101 689.04,101 L689,101 C686.791,101 685,102.791 685,105 C685,107.209 686.791,109 689,109 Z" />
            <path d="M641,109 L641.04,109 C643.249,109 645.04,107.209 645.04,105 C645.04,102.791 643.249,101 641.04,101 L641,101 C638.791,101 637,102.791 637,105 C637,107.209 638.791,109 641,109 Z" />
            <path d="M661,105 C661,102.791 662.791,101 665,101 C667.209,101 669,102.791 669,105 C669,107.209 667.209,109 665,109 C662.791,109 661,107.209 661,105 Z M653,105 C653,111.627 658.373,117 665,117 C671.627,117 677,111.627 677,105 C677,98.373 671.627,93 665,93 C658.373,93 653,98.373 653,105 Z" />
        </g>
    </g>
</svg>