<?xml version="1.0" encoding="UTF-8"?>
<svg height="600" width="800" xmlns="http://www.w3.org/2000/svg" xmlns:xlink="http://www.w3.org/1999/xlink">
    <g id="Notes" font-family="LucidaGrande, 'Lucida Grande', sans-serif" font-size="13">
        <rect fill="white" height="600.0" width="800.0" x="0.0" y="0.0" />
        <g font-size="13">
            <text x="18.0" y="176.0">Small</text>
            <text x="18.0" y="376.0">Medium</text>
            <text x="18.0" y="576.0">Large</text>
        </g>
        <g font-size="9">
            <text x="250.0" y="30.0">Ultralight</text>
            <text x="450.0" y="30.0">Regular</text>
            <text x="650.0" y="30.0">Black</text>
            <text id="template-version" fill="#505050" text-anchor="end" x="785.0" y="575.0">Template v.3.0</text>
            <a href="https://github.com/swhitty/SwiftDraw">
                <text fill="#505050" text-anchor="end" x="785.0" y="590.0">https://github.com/swhitty/SwiftDraw</text>
            </a>
        </g>
    </g>
    <g id="Guides" stroke="rgb(39, 170, 225)" stroke-width="0.5">
        <path id="Capline-S" d="M18,76 l800,0" />
        <path id="H-reference" d="M85,145.755 L87.685,145.755 L113.369,79.287 L114.052,79.287 L114.052,76 L112.148,76 L85,145.755 Z M95.693,121.536 L130.996,121.536 L130.263,119.313 L96.474,119.313 L95.693,121.536 Z M139.15,145.755 L141.787,145.755 L114.638,76 L113.466,76 L113.466,79.287 L139.15,145.755 Z" stroke="none" transform="translate(0,200)" />
        <path id="Baseline-S" d="M18,146 l800,0" />
        <path id="left-margin-Ultralight-M" d="M221,256 l0,110" />
        <path id="right-margin-Ultralight-M" d="M309,256 l0,110" />
        <path id="left-margin-Regular-M" d="M421,256 l0,110" />
        <path id="right-margin-Regular-M" d="M509,256 l0,110" />
        <path id="left-margin-Black-M" d="M621,256 l0,110" />
        <path id="right-margin-Black-M" d="M709,256 l0,110" />
        <path id="Capline-M" d="M18,276 l800,0" />
        <path id="Baseline-M" d="M18,346 l800,0" />
        <path id="Capline-L" d="M18,476 l800,0" />
        <path id="Baseline-L" d="M18,546 l800,0" />
    </g>
    <g id="Symbols">
        <g id="Ultralight-M" transform="translate(0,200)">
            <path d="M309,119 L309,103 C309,100.791 307.209,99 305,99 C302.791,99 301,100.791 301,103 L301,119 C301,121.209 302.791,123 305,123 C307.209,123 309,121.209 309,119 Z" />
            <path d="M285,111 L285,127 C285,128.061 284.579,129.078 283.828,129.828 C283.078,130.579 282.061,131 281,131 L233,131 C231.939,131 230.922,130.579 230.172,129.828 C229.421,129.078 229,128.061 229,127 L229,95 C229,93.939 229.421,92.922 230.172,92.172 C230.922,91.421 231.939,91 233,91 L281,91 C282.061,91 283.078,91.421 283.828,92.172 C284.579,92.922 285,93.939 285,95 L285,111 Z M293,111 L293,95 C293,91.817 291.736,88.765 289.485,86.515 C287.235,84.264 284.183,83 281,83 L233,83 C229.817,83 226.765,84.264 224.515,86.515 C222.264,88.765 221,91.817 221,95 L221,127 C221,130.183 222.264,133.235 224.515,135.485 C226.765,137.736 229.817,139 233,139 L281,139 C284.183,139 287.235,137.736 289.485,135.485 C291.736,133.235 293,130.183 293,127 L293,111 Z" />
        </g>
        <g id="Regular-M" transform="translate(0,200)">
            <path d="M509,119 L509,103 C509,100.791 507.209,99 505,99 C502.791,99 501,100.791 501,103 L501,119 C501,121.209 502.791,123 505,123 C507.209,123 509,121.209 509,119 Z" />
            <path d="M485,111 L485,127 C485,128.061 484.579,129.078 483.828,129.828 C483.078,130.579 482.061,131 481,131 L433,131 C431.939,131 430.922,130.579 430.172,129.828 C429.421,129.078 429,128.061 429,127 L429,95 C429,93.939 429.421,92.922 430.172,92.172 C430.922,91.421 431.939,91 433,91 L481,91 C482.061,91 483.078,91.421 483.828,92.172 C484.579,92.922 485,93.939 485,95 L485,111 Z M493,111 L493,95 C493,91.817 491.736,88.765 489.485,86.515 C487.235,84.264 484.183,83 481,83 L433,83 C429.817,83 426.765,84.264 424.515,86.515 C422.264,88.765 421,91.817 421,95 L421,127 C421,130.183 422.264,133.235 424.515,135.485 C426.765,137.736 429.817,139 433,139 L481,139 C484.183,139 487.235,137.736 489.485,135.485 C491.736,133.235 493,130.183 493,127 L493,111 Z" />
        </g>
        <g id="Black-M" transform="translate(0,200)">
            <path d="M709,119 L709,103 C709,100.791 707.209,99 705,99 C702.791,99 701,100.791 701,103 L701,119 C701,121.209 702.791,123 705,123 C707.209,123 709,121.209 709,119 Z" />
            <path d="M685,111 L685,127 C685,128.061 684.579,129.078 683.828,129.828 C683.078,130.579 682.061,131 681,131 L633,131 C631.939,131 630.922,130.579 630.172,129.828 C629.421,129.078 629,128.061 629,127 L629,95 C629,93.939 629.421,92.922 630.172,92.172 C630.922,91.421 631.939,91 633,91 L681,91 C682.061,91 683.078,91.421 683.828,92.172 C684.579,92.922 685,93.939 685,95 L685,111 Z M693,111 L693,95 C693,91.817 691.736,88.765 689.485,86.515 C687.235,84.264 684.183,83 681,83 L633,83 C629.817,83 626.765,84.264 624.515,86.515 C622.264,88.765 621,91.817 621,95 L621,127 C621,130.183 622.264,133.235 624.515,135.485 C626.765,137.736 629.817,139 633,139 L681,139 C684.183,139 687.235,137.736 689.485,135.485 C691.736,133.235 693,130.183 693,127 L693,111 Z" />
        </g>
    </g>
</svg>