<?xml version="1.0" encoding="UTF-8"?>
<svg height="600" width="800" xmlns="http://www.w3.org/2000/svg" xmlns:xlink="http://www.w3.org/1999/xlink">
    <g id="Notes" font-family="LucidaGrande, 'Lucida Grande', sans-serif" font-size="13">
        <rect fill="white" height="600.0" width="800.0" x="0.0" y="0.0" />
        <g font-size="13">
            <text x="18.0" y="176.0">Small</text>
            <text x="18.0" y="376.0">Medium</text>
            <text x="18.0" y="576.0">Large</text>
        </g>
        <g font-size="9">
            <text x="250.0" y="30.0">Ultralight</text>
            <text x="450.0" y="30.0">Regular</text>
            <text x="650.0" y="30.0">Black</text>
            <text id="template-version" fill="#505050" text-anchor="end" x="785.0" y="575.0">Template v.3.0</text>
            <a href="https://github.com/swhitty/SwiftDraw">
                <text fill="#505050" text-anchor="end" x="785.0" y="590.0">https://github.com/swhitty/SwiftDraw</text>
            </a>
        </g>
    </g>
    <g id="Guides" stroke="rgb(39, 170, 225)" stroke-width="0.5">
        <path id="Capline-S" d="M18,76 l800,0" />
        <path id="H-reference" d="M85,145.755 L87.685,145.755 L113.369,79.287 L114.052,79.287 L114.052,76 L112.148,76 L85,145.755 Z M95.693,121.536 L130.996,121.536 L130.263,119.313 L96.474,119.313 L95.693,121.536 Z M139.15,145.755 L141.787,145.755 L114.638,76 L113.466,76 L113.466,79.287 L139.15,145.755 Z" stroke="none" transform="translate(0,200)" />
        <path id="Baseline-S" d="M18,146 l800,0" />
        <path id="left-margin-Ultralight-M" d="M221,256 l0,110" />
        <path id="right-margin-Ultralight-M" d="M309,256 l0,110" />
        <path id="left-margin-Regular-M" d="M421,256 l0,110" />
        <path id="right-margin-Regular-M" d="M509,256 l0,110" />
        <path id="left-margin-Black-M" d="M621,256 l0,110" />
        <path id="right-margin-Black-M" d="M709,256 l0,110" />
        <path id="Capline-M" d="M18,276 l800,0" />
        <path id="Baseline-M" d="M18,346 l800,0" />
        <path id="Capline-L" d="M18,476 l800,0" />
        <path id="Baseline-L" d="M18,546 l800,0" />
    </g>
    <g id="Symbols">
        <g id="Ultralight-M" transform="translate(0,200)">
            <path d="M253,99 L253,123 C253,125.209 254.791,127 257,127 C259.209,127 261,125.209 261,123 L261,99 C261,96.791 259.209,95 257,95 C254.791,95 253,96.791 253,99 Z" />
            <path d="M267.172,91 L281,91 C282.061,91 283.078,91.421 283.828,92.172 C284.579,92.922 285,93.939 285,95 L285,127 C285,128.061 284.579,129.078 283.828,129.828 C283.078,130.579 282.061,131 281,131 L266.58,131 C264.371,131 262.58,132.791 262.58,135 C262.58,137.209 264.371,139 266.58,139 L281,139 C284.183,139 287.235,137.736 289.485,135.485 C291.736,133.235 293,130.183 293,127 L293,95 C293,91.817 291.736,88.765 289.485,86.515 C287.235,84.264 284.183,83 281,83 L267.172,83 C264.963,83 263.172,84.791 263.172,87 C263.172,89.209 264.963,91 267.172,91 Z" />
            <path d="M309,119 L309,103 C309,100.791 307.209,99 305,99 C302.791,99 301,100.791 301,103 L301,119 C301,121.209 302.791,123 305,123 C307.209,123 309,121.209 309,119 Z" />
            <path d="M245,115 L269,115 C271.209,115 273,113.209 273,111 C273,108.791 271.209,107 269,107 L245,107 C242.791,107 241,108.791 241,111 C241,113.209 242.791,115 245,115 Z" />
            <path d="M247.424,131 L233,131 C231.939,131 230.922,130.579 230.172,129.828 C229.421,129.078 229,128.061 229,127 L229,95 C229,93.939 229.421,92.922 230.172,92.172 C230.922,91.421 231.939,91 233,91 L247.424,91 C249.633,91 251.424,89.209 251.424,87 C251.424,84.791 249.633,83 247.424,83 L233,83 C229.817,83 226.765,84.264 224.515,86.515 C222.264,88.765 221,91.817 221,95 L221,127 C221,130.183 222.264,133.235 224.515,135.485 C226.765,137.736 229.817,139 233,139 L247.424,139 C249.633,139 251.424,137.209 251.424,135 C251.424,132.791 249.633,131 247.424,131 Z" />
        </g>
        <g id="Regular-M" transform="translate(0,200)">
            <path d="M453,99 L453,123 C453,125.209 454.791,127 457,127 C459.209,127 461,125.209 461,123 L461,99 C461,96.791 459.209,95 457,95 C454.791,95 453,96.791 453,99 Z" />
            <path d="M467.172,91 L481,91 C482.061,91 483.078,91.421 483.828,92.172 C484.579,92.922 485,93.939 485,95 L485,127 C485,128.061 484.579,129.078 483.828,129.828 C483.078,130.579 482.061,131 481,131 L466.58,131 C464.371,131 462.58,132.791 462.58,135 C462.58,137.209 464.371,139 466.58,139 L481,139 C484.183,139 487.235,137.736 489.485,135.485 C491.736,133.235 493,130.183 493,127 L493,95 C493,91.817 491.736,88.765 489.485,86.515 C487.235,84.264 484.183,83 481,83 L467.172,83 C464.963,83 463.172,84.791 463.172,87 C463.172,89.209 464.963,91 467.172,91 Z" />
            <path d="M509,119 L509,103 C509,100.791 507.209,99 505,99 C502.791,99 501,100.791 501,103 L501,119 C501,121.209 502.791,123 505,123 C507.209,123 509,121.209 509,119 Z" />
            <path d="M445,115 L469,115 C471.209,115 473,113.209 473,111 C473,108.791 471.209,107 469,107 L445,107 C442.791,107 441,108.791 441,111 C441,113.209 442.791,115 445,115 Z" />
            <path d="M447.424,131 L433,131 C431.939,131 430.922,130.579 430.172,129.828 C429.421,129.078 429,128.061 429,127 L429,95 C429,93.939 429.421,92.922 430.172,92.172 C430.922,91.421 431.939,91 433,91 L447.424,91 C449.633,91 451.424,89.209 451.424,87 C451.424,84.791 449.633,83 447.424,83 L433,83 C429.817,83 426.765,84.264 424.515,86.515 C422.264,88.765 421,91.817 421,95 L421,127 C421,130.183 422.264,133.235 424.515,135.485 C426.765,137.736 429.817,139 433,139 L447.424,139 C449.633,139 451.424,137.209 451.424,135 C451.424,132.791 449.633,131 447.424,131 Z" />
        </g>
        <g id="Black-M" transform="translate(0,200)">
            <path d="M653,99 L653,123 C653,125.209 654.791,127 657,127 C659.209,127 661,125.209 661,123 L661,99 C661,96.791 659.209,95 657,95 C654.791,95 653,96.791 653,99 Z" />
            <path d="M667.172,91 L681,91 C682.061,91 683.078,91.421 683.828,92.172 C684.579,92.922 685,93.939 685,95 L685,127 C685,128.061 684.579,129.078 683.828,129.828 C683.078,130.579 682.061,131 681,131 L666.58,131 C664.371,131 662.58,132.791 662.58,135 C662.58,137.209 664.371,139 666.58,139 L681,139 C684.183,139 687.235,137.736 689.485,135.485 C691.736,133.235 693,130.183 693,127 L693,95 C693,91.817 691.736,88.765 689.485,86.515 C687.235,84.264 684.183,83 681,83 L667.172,83 C664.963,83 663.172,84.791 663.172,87 C663.172,89.209 664.963,91 667.172,91 Z" />
            <path d="M709,119 L709,103 C709,100.791 707.209,99 705,99 C702.791,99 701,100.791 701,103 L701,119 C701,121.209 702.791,123 705,123 C707.209,123 709,121.209 709,119 Z" />
            <path d="M645,115 L669,115 C671.209,115 673,113.209 673,111 C673,108.791 671.209,107 669,107 L645,107 C642.791,107 641,108.791 641,111 C641,113.209 642.791,115 645,115 Z" />
            <path d="M647.424,131 L633,131 C631.939,131 630.922,130.579 630.172,129.828 C629.421,129.078 629,128.061 629,127 L629,95 C629,93.939 629.421,92.922 630.172,92.172 C630.922,91.421 631.939,91 633,91 L647.424,91 C649.633,91 651.424,89.209 651.424,87 C651.424,84.791 649.633,83 647.424,83 L633,83 C629.817,83 626.765,84.264 624.515,86.515 C622.264,88.765 621,91.817 621,95 L621,127 C621,130.183 622.264,133.235 624.515,135.485 C626.765,137.736 629.817,139 633,139 L647.424,139 C649.633,139 651.424,137.209 651.424,135 C651.424,132.791 649.633,131 647.424,131 Z" />
        </g>
    </g>
</svg>