<?xml version="1.0" encoding="UTF-8"?>
<svg height="600" width="800" xmlns="http://www.w3.org/2000/svg" xmlns:xlink="http://www.w3.org/1999/xlink">
    <g id="Notes" font-family="LucidaGrande, 'Lucida Grande', sans-serif" font-size="13">
        <rect fill="white" height="600.0" width="800.0" x="0.0" y="0.0" />
        <g font-size="13">
            <text x="18.0" y="176.0">Small</text>
            <text x="18.0" y="376.0">Medium</text>
            <text x="18.0" y="576.0">Large</text>
        </g>
        <g font-size="9">
            <text x="250.0" y="30.0">Ultralight</text>
            <text x="450.0" y="30.0">Regular</text>
            <text x="650.0" y="30.0">Black</text>
            <text id="template-version" fill="#505050" text-anchor="end" x="785.0" y="575.0">Template v.3.0</text>
            <a href="https://github.com/swhitty/SwiftDraw">
                <text fill="#505050" text-anchor="end" x="785.0" y="590.0">https://github.com/swhitty/SwiftDraw</text>
            </a>
        </g>
    </g>
    <g id="Guides" stroke="rgb(39, 170, 225)" stroke-width="0.5">
        <path id="Capline-S" d="M18,76 l800,0" />
        <path id="H-reference" d="M85,145.755 L87.685,145.755 L113.369,79.287 L114.052,79.287 L114.052,76 L112.148,76 L85,145.755 Z M95.693,121.536 L130.996,121.536 L130.263,119.313 L96.474,119.313 L95.693,121.536 Z M139.15,145.755 L141.787,145.755 L114.638,76 L113.466,76 L113.466,79.287 L139.15,145.755 Z" stroke="none" transform="translate(0,200)" />
        <path id="Baseline-S" d="M18,146 l800,0" />
        <path id="left-margin-Ultralight-M" d="M230,256 l0,110" />
        <path id="right-margin-Ultralight-M" d="M300,256 l0,110" />
        <path id="left-margin-Regular-M" d="M430,256 l0,110" />
        <path id="right-margin-Regular-M" d="M500,256 l0,110" />
        <path id="left-margin-Black-M" d="M630,256 l0,110" />
        <path id="right-margin-Black-M" d="M700,256 l0,110" />
        <path id="Capline-M" d="M18,276 l800,0" />
        <path id="Baseline-M" d="M18,346 l800,0" />
        <path id="Capline-L" d="M18,476 l800,0" />
        <path id="Baseline-L" d="M18,546 l800,0" />
    </g>
    <g id="Symbols">
        <g id="Ultralight-M" transform="translate(0,200)">
            <path d="M265.199,95.3 C266.885,94.786 268.717,95.244 269.964,96.49 C271.211,97.737 271.669,99.569 271.155,101.256 C270.643,102.937 271.59,104.715 273.271,105.227 C274.952,105.739 276.73,104.791 277.242,103.11 C278.441,99.175 277.373,94.9 274.464,91.991 C271.555,89.082 267.279,88.013 263.344,89.212 C261.663,89.724 260.716,91.502 261.228,93.183 C261.74,94.864 263.518,95.812 265.199,95.3 Z" />
            <path d="M286.243,113.39 C292.752,103.913 291.578,91.142 283.451,83.01 C275.323,74.878 262.553,73.697 253.072,80.201 C251.623,81.195 251.254,83.176 252.249,84.625 C253.243,86.074 255.223,86.443 256.672,85.449 C263.625,80.679 272.99,81.545 278.95,87.508 C284.91,93.472 285.771,102.837 280.997,109.787 C280.002,111.236 280.37,113.216 281.819,114.211 C283.267,115.206 285.248,114.839 286.243,113.39 Z" />
            <path d="M282.171,127.627 C272.851,134.923 260.134,139.636 249.091,139.636 C246.687,139.633 244.486,138.27 243.41,136.115 L237.3,123.895 C236.515,122.323 234.603,121.686 233.032,122.472 C231.46,123.258 230.823,125.169 231.609,126.741 L237.718,138.959 C239.869,143.268 244.269,145.993 249.087,146 C261.611,146 275.691,140.781 286.094,132.638 C287.477,131.554 287.721,129.555 286.638,128.171 C285.554,126.787 283.555,126.544 282.171,127.627 Z" />
            <path d="M282.821,93.301 L289.789,107.62 L289.624,107.211 C290.88,111.075 290.748,115.255 289.25,119.032 C288.602,120.665 289.401,122.515 291.035,123.163 C292.668,123.811 294.517,123.012 295.165,121.378 C297.21,116.224 297.391,110.517 295.676,105.243 L295.511,104.835 L288.543,90.517 C287.774,88.937 285.87,88.279 284.289,89.048 C282.709,89.817 282.052,91.721 282.821,93.301 Z" />
            <path d="M230.932,81.432 L294.568,145.068 C295.811,146.311 297.826,146.311 299.068,145.068 C300.311,143.825 300.311,141.811 299.068,140.568 L235.432,76.932 C234.189,75.689 232.175,75.689 230.932,76.932 C229.689,78.175 229.689,80.189 230.932,81.432 Z" />
            <path d="M244.031,92.048 C243.935,92.325 243.844,92.604 243.758,92.884 C243.251,94.32 242.788,95.757 242.286,97.42 C242.242,97.564 241.436,100.276 241.226,100.948 C240.653,102.774 240.183,103.94 239.545,105.057 C238.568,106.766 237.085,108.499 234.542,110.808 C230.507,114.111 228.94,119.764 230.748,124.826 C232.556,129.889 237.35,133.269 242.725,133.273 C253.691,133.273 265.868,129.284 275.82,122.721 C277.287,121.754 277.692,119.78 276.724,118.313 C275.757,116.846 273.784,116.441 272.317,117.409 C263.362,123.313 252.386,126.909 242.727,126.909 C240.042,126.907 237.645,125.217 236.741,122.686 C235.837,120.155 236.62,117.328 238.699,115.624 C241.82,112.795 243.722,110.573 245.07,108.215 C245.972,106.636 246.6,105.077 247.298,102.852 C247.525,102.126 248.346,99.363 248.377,99.26 C248.854,97.682 249.289,96.331 249.802,94.873 C249.906,94.542 249.974,94.333 250.046,94.125 C250.62,92.464 249.738,90.652 248.077,90.079 C246.416,89.505 244.605,90.387 244.031,92.048 Z" />
        </g>
        <g id="Regular-M" transform="translate(0,200)">
            <path d="M465.199,95.3 C466.885,94.786 468.717,95.244 469.964,96.49 C471.211,97.737 471.669,99.569 471.155,101.256 C470.643,102.937 471.59,104.715 473.271,105.227 C474.952,105.739 476.73,104.791 477.242,103.11 C478.441,99.175 477.373,94.9 474.464,91.991 C471.555,89.082 467.279,88.013 463.344,89.212 C461.663,89.724 460.716,91.502 461.228,93.183 C461.74,94.864 463.518,95.812 465.199,95.3 Z" />
            <path d="M486.243,113.39 C492.752,103.913 491.578,91.142 483.451,83.01 C475.323,74.878 462.553,73.697 453.072,80.201 C451.623,81.195 451.254,83.176 452.249,84.625 C453.243,86.074 455.223,86.443 456.672,85.449 C463.625,80.679 472.99,81.545 478.95,87.508 C484.91,93.472 485.771,102.837 480.997,109.787 C480.002,111.236 480.37,113.216 481.819,114.211 C483.267,115.206 485.248,114.839 486.243,113.39 Z" />
            <path d="M482.171,127.627 C472.851,134.923 460.134,139.636 449.091,139.636 C446.687,139.633 444.486,138.27 443.41,136.115 L437.3,123.895 C436.515,122.323 434.603,121.686 433.032,122.472 C431.46,123.258 430.823,125.169 431.609,126.741 L437.718,138.959 C439.869,143.268 444.269,145.993 449.087,146 C461.611,146 475.691,140.781 486.094,132.638 C487.477,131.554 487.721,129.555 486.638,128.171 C485.554,126.787 483.555,126.544 482.171,127.627 Z" />
            <path d="M482.821,93.301 L489.789,107.62 L489.624,107.211 C490.88,111.075 490.748,115.255 489.25,119.032 C488.602,120.665 489.401,122.515 491.035,123.163 C492.668,123.811 494.517,123.012 495.165,121.378 C497.21,116.224 497.391,110.517 495.676,105.243 L495.511,104.835 L488.543,90.517 C487.774,88.937 485.87,88.279 484.289,89.048 C482.709,89.817 482.052,91.721 482.821,93.301 Z" />
            <path d="M430.932,81.432 L494.568,145.068 C495.811,146.311 497.826,146.311 499.068,145.068 C500.311,143.825 500.311,141.811 499.068,140.568 L435.432,76.932 C434.189,75.689 432.174,75.689 430.932,76.932 C429.689,78.175 429.689,80.189 430.932,81.432 Z" />
            <path d="M444.031,92.048 C443.935,92.325 443.844,92.604 443.758,92.884 C443.251,94.32 442.788,95.757 442.286,97.42 C442.242,97.564 441.436,100.276 441.226,100.948 C440.653,102.774 440.183,103.94 439.545,105.057 C438.568,106.766 437.085,108.499 434.542,110.808 C430.507,114.111 428.94,119.764 430.748,124.826 C432.556,129.889 437.35,133.269 442.725,133.273 C453.691,133.273 465.868,129.284 475.82,122.721 C477.287,121.754 477.692,119.78 476.724,118.313 C475.757,116.846 473.784,116.441 472.317,117.409 C463.362,123.313 452.386,126.909 442.727,126.909 C440.042,126.907 437.645,125.217 436.741,122.686 C435.837,120.155 436.62,117.328 438.699,115.624 C441.82,112.795 443.722,110.573 445.07,108.215 C445.972,106.636 446.6,105.077 447.298,102.852 C447.525,102.126 448.346,99.363 448.377,99.26 C448.854,97.682 449.289,96.331 449.802,94.873 C449.906,94.542 449.974,94.333 450.046,94.125 C450.62,92.464 449.738,90.652 448.077,90.079 C446.416,89.505 444.605,90.387 444.031,92.048 Z" />
        </g>
        <g id="Black-M" transform="translate(0,200)">
            <path d="M665.199,95.3 C666.885,94.786 668.717,95.244 669.964,96.49 C671.211,97.737 671.669,99.569 671.155,101.256 C670.643,102.937 671.59,104.715 673.271,105.227 C674.952,105.739 676.73,104.791 677.242,103.11 C678.441,99.175 677.373,94.9 674.464,91.991 C671.555,89.082 667.279,88.013 663.344,89.212 C661.663,89.724 660.716,91.502 661.228,93.183 C661.74,94.864 663.518,95.812 665.199,95.3 Z" />
            <path d="M686.243,113.39 C692.752,103.913 691.578,91.142 683.451,83.01 C675.323,74.878 662.553,73.697 653.072,80.201 C651.623,81.195 651.254,83.176 652.249,84.625 C653.243,86.074 655.223,86.443 656.672,85.449 C663.625,80.679 672.99,81.545 678.95,87.508 C684.91,93.472 685.771,102.837 680.997,109.787 C680.002,111.236 680.37,113.216 681.819,114.211 C683.267,115.206 685.248,114.839 686.243,113.39 Z" />
            <path d="M682.171,127.627 C672.851,134.923 660.135,139.636 649.091,139.636 C646.687,139.633 644.486,138.27 643.41,136.115 L637.3,123.895 C636.515,122.323 634.603,121.686 633.032,122.472 C631.46,123.258 630.823,125.169 631.609,126.741 L637.718,138.959 C639.869,143.268 644.269,145.993 649.087,146 C661.611,146 675.691,140.781 686.094,132.638 C687.477,131.554 687.721,129.555 686.638,128.171 C685.554,126.787 683.555,126.544 682.171,127.627 Z" />
            <path d="M682.821,93.301 L689.789,107.62 L689.624,107.211 C690.88,111.075 690.748,115.255 689.25,119.032 C688.602,120.665 689.401,122.515 691.035,123.163 C692.668,123.811 694.517,123.012 695.165,121.378 C697.21,116.224 697.391,110.517 695.676,105.243 L695.511,104.835 L688.543,90.517 C687.774,88.937 685.87,88.279 684.289,89.048 C682.709,89.817 682.052,91.721 682.821,93.301 Z" />
            <path d="M630.932,81.432 L694.568,145.068 C695.811,146.311 697.826,146.311 699.068,145.068 C700.311,143.825 700.311,141.811 699.068,140.568 L635.432,76.932 C634.189,75.689 632.174,75.689 630.932,76.932 C629.689,78.175 629.689,80.189 630.932,81.432 Z" />
            <path d="M644.031,92.048 C643.935,92.325 643.844,92.604 643.758,92.884 C643.251,94.32 642.788,95.757 642.286,97.42 C642.242,97.564 641.436,100.276 641.226,100.948 C640.653,102.774 640.183,103.94 639.545,105.057 C638.568,106.766 637.085,108.499 634.542,110.808 C630.507,114.111 628.94,119.764 630.748,124.826 C632.556,129.889 637.35,133.269 642.725,133.273 C653.691,133.273 665.868,129.284 675.82,122.721 C677.287,121.754 677.692,119.78 676.724,118.313 C675.757,116.846 673.784,116.441 672.317,117.409 C663.362,123.313 652.386,126.909 642.727,126.909 C640.042,126.907 637.645,125.217 636.741,122.686 C635.837,120.155 636.62,117.328 638.699,115.624 C641.82,112.795 643.722,110.573 645.07,108.215 C645.972,106.636 646.6,105.077 647.298,102.852 C647.525,102.126 648.346,99.363 648.377,99.26 C648.854,97.682 649.289,96.331 649.802,94.873 C649.906,94.542 649.974,94.333 650.046,94.125 C650.62,92.464 649.738,90.652 648.077,90.079 C646.416,89.505 644.605,90.387 644.031,92.048 Z" />
        </g>
    </g>
</svg>