<?xml version="1.0" encoding="UTF-8"?>
<svg height="600" width="800" xmlns="http://www.w3.org/2000/svg" xmlns:xlink="http://www.w3.org/1999/xlink">
    <g id="Notes" font-family="LucidaGrande, 'Lucida Grande', sans-serif" font-size="13">
        <rect fill="white" height="600.0" width="800.0" x="0.0" y="0.0" />
        <g font-size="13">
            <text x="18.0" y="176.0">Small</text>
            <text x="18.0" y="376.0">Medium</text>
            <text x="18.0" y="576.0">Large</text>
        </g>
        <g font-size="9">
            <text x="250.0" y="30.0">Ultralight</text>
            <text x="450.0" y="30.0">Regular</text>
            <text x="650.0" y="30.0">Black</text>
            <text id="template-version" fill="#505050" text-anchor="end" x="785.0" y="575.0">Template v.3.0</text>
            <a href="https://github.com/swhitty/SwiftDraw">
                <text fill="#505050" text-anchor="end" x="785.0" y="590.0">https://github.com/swhitty/SwiftDraw</text>
            </a>
        </g>
    </g>
    <g id="Guides" stroke="rgb(39, 170, 225)" stroke-width="0.5">
        <path id="Capline-S" d="M18,76 l800,0" />
        <path id="H-reference" d="M85,145.755 L87.685,145.755 L113.369,79.287 L114.052,79.287 L114.052,76 L112.148,76 L85,145.755 Z M95.693,121.536 L130.996,121.536 L130.263,119.313 L96.474,119.313 L95.693,121.536 Z M139.15,145.755 L141.787,145.755 L114.638,76 L113.466,76 L113.466,79.287 L139.15,145.755 Z" stroke="none" transform="translate(0,200)" />
        <path id="Baseline-S" d="M18,146 l800,0" />
        <path id="left-margin-Ultralight-M" d="M230,256 l0,110" />
        <path id="right-margin-Ultralight-M" d="M300,256 l0,110" />
        <path id="left-margin-Regular-M" d="M430,256 l0,110" />
        <path id="right-margin-Regular-M" d="M500,256 l0,110" />
        <path id="left-margin-Black-M" d="M630,256 l0,110" />
        <path id="right-margin-Black-M" d="M700,256 l0,110" />
        <path id="Capline-M" d="M18,276 l800,0" />
        <path id="Baseline-M" d="M18,346 l800,0" />
        <path id="Capline-L" d="M18,476 l800,0" />
        <path id="Baseline-L" d="M18,546 l800,0" />
    </g>
    <g id="Symbols">
        <g id="Ultralight-M" transform="translate(0,200)">
            <path d="M265,114.182 L265,130.091 C265,131.848 266.425,133.273 268.182,133.273 C269.939,133.273 271.364,131.848 271.364,130.091 L271.364,114.182 C271.364,112.425 269.939,111 268.182,111 C266.425,111 265,112.425 265,114.182 Z" />
            <path d="M284.091,109.314 L284.091,98.273 C284.091,96.515 282.666,95.091 280.909,95.091 C279.152,95.091 277.727,96.515 277.727,98.273 L277.727,109.314 C277.727,111.071 279.152,112.495 280.909,112.495 C282.666,112.495 284.091,111.071 284.091,109.314 Z" />
            <path d="M280.909,111 L284.091,111 C286.242,111 288.248,112.086 289.423,113.889 C290.598,115.691 290.782,117.964 289.914,119.932 C289.205,121.54 289.933,123.419 291.541,124.128 C293.148,124.837 295.027,124.109 295.736,122.501 C297.473,118.565 297.103,114.018 294.754,110.413 C292.404,106.809 288.393,104.636 284.091,104.636 L280.909,104.636 C279.152,104.636 277.727,106.061 277.727,107.818 C277.727,109.575 279.152,111 280.909,111 Z" />
            <path d="M230.932,81.432 L294.568,145.068 C295.811,146.311 297.826,146.311 299.068,145.068 C300.311,143.825 300.311,141.811 299.068,140.568 L235.432,76.932 C234.189,75.689 232.175,75.689 230.932,76.932 C229.689,78.175 229.689,80.189 230.932,81.432 Z" />
            <path d="M239.545,98.273 L239.545,136.455 C239.545,138.986 240.551,141.414 242.341,143.204 C244.131,144.994 246.559,146 249.091,146 L274.545,146 C277.077,146 279.505,144.994 281.295,143.204 C283.085,141.414 284.091,138.986 284.091,136.455 L284.091,126.909 C284.091,125.152 282.666,123.727 280.909,123.727 C279.152,123.727 277.727,125.152 277.727,126.909 L277.727,136.455 C277.727,137.298 277.392,138.108 276.795,138.704 C276.199,139.301 275.389,139.636 274.545,139.636 L249.091,139.636 C248.247,139.636 247.438,139.301 246.841,138.704 C246.244,138.108 245.909,137.298 245.909,136.455 L245.909,98.273 C245.909,96.515 244.485,95.091 242.727,95.091 C240.97,95.091 239.545,96.515 239.545,98.273 Z" />
            <path d="M250.33,93.646 C249.29,93.8 248.435,94.022 247.094,94.438 C245.76,94.852 245.5,94.927 245.029,95.015 C244.756,95.067 244.524,95.091 244.318,95.091 C242.387,95.091 240.646,93.928 239.907,92.145 C239.168,90.361 239.577,88.308 240.942,86.943 C242.185,85.7 242.185,83.686 240.943,82.443 C239.701,81.2 237.686,81.2 236.443,82.443 C233.257,85.628 232.304,90.418 234.028,94.58 C235.752,98.742 239.814,101.455 244.319,101.455 C244.943,101.455 245.564,101.39 246.206,101.269 C247.022,101.115 247.361,101.018 248.98,100.516 C250.031,100.19 250.626,100.035 251.262,99.941 C253.001,99.683 254.201,98.066 253.944,96.327 C253.687,94.589 252.069,93.388 250.33,93.646 Z" />
            <path d="M256.503,85.552 C256.817,85.315 257.121,85.065 257.505,84.732 C257.566,84.679 258.186,84.137 258.362,83.987 C259.758,82.794 260.62,82.364 261.818,82.364 C262.998,82.364 263.796,82.77 265.168,83.966 C264.87,83.706 266.204,84.886 266.561,85.178 C268.106,86.445 269.534,87.136 271.364,87.136 C273.105,87.136 274.438,86.853 276.547,86.198 C277.877,85.785 278.136,85.71 278.607,85.621 C278.88,85.57 279.112,85.545 279.318,85.545 C281.954,85.545 284.091,87.682 284.091,90.318 C284.091,92.954 281.954,95.091 279.318,95.091 C279.112,95.091 278.88,95.067 278.607,95.015 C278.136,94.926 277.877,94.852 276.547,94.439 C274.438,93.784 273.105,93.5 271.364,93.5 C270.15,93.507 268.963,93.677 267.814,94.003 C266.124,94.484 265.143,96.244 265.624,97.934 C266.105,99.624 267.865,100.605 269.555,100.124 C270.15,99.955 270.765,99.867 271.383,99.864 C272.303,99.864 273.118,100.037 274.66,100.516 C276.274,101.017 276.612,101.114 277.426,101.268 C278.069,101.39 278.691,101.455 279.318,101.455 C285.469,101.455 290.455,96.469 290.455,90.318 C290.455,84.168 285.469,79.182 279.318,79.182 C278.691,79.182 278.069,79.247 277.426,79.368 C276.612,79.522 276.274,79.619 274.66,80.12 C273.118,80.599 272.303,80.773 271.364,80.773 C271.304,80.773 271.11,80.678 270.595,80.256 C270.346,80.052 269.154,78.999 269.35,79.17 C266.93,77.059 264.849,76 261.818,76 C258.799,76 256.667,77.064 254.228,79.149 C254.019,79.328 253.378,79.888 253.341,79.92 C253.055,80.167 252.85,80.337 252.669,80.473 C251.266,81.532 250.988,83.527 252.046,84.93 C253.105,86.332 255.1,86.611 256.503,85.552 Z" />
            <path d="M252.273,119.273 L252.273,130.091 C252.273,131.848 253.697,133.273 255.455,133.273 C257.212,133.273 258.636,131.848 258.636,130.091 L258.636,119.273 C258.636,117.515 257.212,116.091 255.455,116.091 C253.697,116.091 252.273,117.515 252.273,119.273 Z" />
        </g>
        <g id="Regular-M" transform="translate(0,200)">
            <path d="M465,114.182 L465,130.091 C465,131.848 466.425,133.273 468.182,133.273 C469.939,133.273 471.364,131.848 471.364,130.091 L471.364,114.182 C471.364,112.425 469.939,111 468.182,111 C466.425,111 465,112.425 465,114.182 Z" />
            <path d="M484.091,109.314 L484.091,98.273 C484.091,96.515 482.666,95.091 480.909,95.091 C479.152,95.091 477.727,96.515 477.727,98.273 L477.727,109.314 C477.727,111.071 479.152,112.495 480.909,112.495 C482.666,112.495 484.091,111.071 484.091,109.314 Z" />
            <path d="M480.909,111 L484.091,111 C486.242,111 488.248,112.086 489.423,113.889 C490.598,115.691 490.782,117.964 489.914,119.932 C489.205,121.54 489.933,123.419 491.541,124.128 C493.148,124.837 495.027,124.109 495.736,122.501 C497.473,118.565 497.103,114.018 494.754,110.413 C492.404,106.809 488.393,104.636 484.091,104.636 L480.909,104.636 C479.152,104.636 477.727,106.061 477.727,107.818 C477.727,109.575 479.152,111 480.909,111 Z" />
            <path d="M430.932,81.432 L494.568,145.068 C495.811,146.311 497.826,146.311 499.068,145.068 C500.311,143.825 500.311,141.811 499.068,140.568 L435.432,76.932 C434.189,75.689 432.174,75.689 430.932,76.932 C429.689,78.175 429.689,80.189 430.932,81.432 Z" />
            <path d="M439.545,98.273 L439.545,136.455 C439.545,138.986 440.551,141.414 442.341,143.204 C444.131,144.994 446.559,146 449.091,146 L474.545,146 C477.077,146 479.505,144.994 481.295,143.204 C483.085,141.414 484.091,138.986 484.091,136.455 L484.091,126.909 C484.091,125.152 482.666,123.727 480.909,123.727 C479.152,123.727 477.727,125.152 477.727,126.909 L477.727,136.455 C477.727,137.298 477.392,138.108 476.795,138.704 C476.199,139.301 475.389,139.636 474.545,139.636 L449.091,139.636 C448.247,139.636 447.438,139.301 446.841,138.704 C446.244,138.108 445.909,137.298 445.909,136.455 L445.909,98.273 C445.909,96.515 444.485,95.091 442.727,95.091 C440.97,95.091 439.545,96.515 439.545,98.273 Z" />
            <path d="M450.33,93.646 C449.29,93.8 448.435,94.022 447.094,94.438 C445.76,94.852 445.5,94.927 445.029,95.015 C444.756,95.067 444.524,95.091 444.318,95.091 C442.387,95.091 440.646,93.928 439.907,92.145 C439.168,90.361 439.577,88.308 440.942,86.943 C442.185,85.7 442.185,83.686 440.943,82.443 C439.701,81.2 437.686,81.2 436.443,82.443 C433.257,85.628 432.304,90.418 434.028,94.58 C435.752,98.742 439.814,101.455 444.319,101.455 C444.943,101.455 445.564,101.39 446.206,101.269 C447.022,101.115 447.361,101.018 448.98,100.516 C450.031,100.19 450.626,100.035 451.262,99.941 C453.001,99.683 454.201,98.066 453.944,96.327 C453.687,94.589 452.069,93.388 450.33,93.646 Z" />
            <path d="M456.503,85.552 C456.817,85.315 457.121,85.065 457.505,84.732 C457.566,84.679 458.186,84.137 458.362,83.987 C459.758,82.794 460.62,82.364 461.818,82.364 C462.998,82.364 463.796,82.77 465.168,83.966 C464.87,83.706 466.204,84.886 466.561,85.178 C468.106,86.445 469.534,87.136 471.364,87.136 C473.105,87.136 474.438,86.853 476.547,86.198 C477.877,85.785 478.136,85.71 478.607,85.621 C478.88,85.57 479.112,85.545 479.318,85.545 C481.954,85.545 484.091,87.682 484.091,90.318 C484.091,92.954 481.954,95.091 479.318,95.091 C479.112,95.091 478.88,95.067 478.607,95.015 C478.136,94.926 477.877,94.852 476.547,94.439 C474.438,93.784 473.105,93.5 471.364,93.5 C470.15,93.507 468.963,93.677 467.814,94.003 C466.124,94.484 465.143,96.244 465.624,97.934 C466.105,99.624 467.865,100.605 469.555,100.124 C470.15,99.955 470.765,99.867 471.383,99.864 C472.303,99.864 473.118,100.037 474.66,100.516 C476.274,101.017 476.612,101.114 477.426,101.268 C478.069,101.39 478.691,101.455 479.318,101.455 C485.469,101.455 490.455,96.469 490.455,90.318 C490.455,84.168 485.469,79.182 479.318,79.182 C478.691,79.182 478.069,79.247 477.426,79.368 C476.612,79.522 476.274,79.619 474.66,80.12 C473.118,80.599 472.303,80.773 471.364,80.773 C471.304,80.773 471.11,80.678 470.595,80.256 C470.346,80.052 469.154,78.999 469.35,79.17 C466.93,77.059 464.849,76 461.818,76 C458.799,76 456.667,77.064 454.228,79.149 C454.019,79.328 453.378,79.888 453.341,79.92 C453.055,80.167 452.85,80.337 452.669,80.473 C451.267,81.532 450.988,83.527 452.046,84.93 C453.105,86.332 455.1,86.611 456.503,85.552 Z" />
            <path d="M452.273,119.273 L452.273,130.091 C452.273,131.848 453.697,133.273 455.455,133.273 C457.212,133.273 458.636,131.848 458.636,130.091 L458.636,119.273 C458.636,117.515 457.212,116.091 455.455,116.091 C453.697,116.091 452.273,117.515 452.273,119.273 Z" />
        </g>
        <g id="Black-M" transform="translate(0,200)">
            <path d="M665,114.182 L665,130.091 C665,131.848 666.425,133.273 668.182,133.273 C669.939,133.273 671.364,131.848 671.364,130.091 L671.364,114.182 C671.364,112.425 669.939,111 668.182,111 C666.425,111 665,112.425 665,114.182 Z" />
            <path d="M684.091,109.314 L684.091,98.273 C684.091,96.515 682.666,95.091 680.909,95.091 C679.152,95.091 677.727,96.515 677.727,98.273 L677.727,109.314 C677.727,111.071 679.152,112.495 680.909,112.495 C682.666,112.495 684.091,111.071 684.091,109.314 Z" />
            <path d="M680.909,111 L684.091,111 C686.242,111 688.248,112.086 689.423,113.889 C690.598,115.691 690.782,117.964 689.914,119.932 C689.205,121.54 689.933,123.419 691.541,124.128 C693.148,124.837 695.027,124.109 695.736,122.501 C697.473,118.565 697.103,114.018 694.754,110.413 C692.404,106.809 688.393,104.636 684.091,104.636 L680.909,104.636 C679.152,104.636 677.727,106.061 677.727,107.818 C677.727,109.575 679.152,111 680.909,111 Z" />
            <path d="M630.932,81.432 L694.568,145.068 C695.811,146.311 697.826,146.311 699.068,145.068 C700.311,143.825 700.311,141.811 699.068,140.568 L635.432,76.932 C634.189,75.689 632.174,75.689 630.932,76.932 C629.689,78.175 629.689,80.189 630.932,81.432 Z" />
            <path d="M639.545,98.273 L639.545,136.455 C639.545,138.986 640.551,141.414 642.341,143.204 C644.131,144.994 646.559,146 649.091,146 L674.545,146 C677.077,146 679.505,144.994 681.295,143.204 C683.085,141.414 684.091,138.986 684.091,136.455 L684.091,126.909 C684.091,125.152 682.666,123.727 680.909,123.727 C679.152,123.727 677.727,125.152 677.727,126.909 L677.727,136.455 C677.727,137.298 677.392,138.108 676.795,138.704 C676.199,139.301 675.389,139.636 674.545,139.636 L649.091,139.636 C648.247,139.636 647.438,139.301 646.841,138.704 C646.244,138.108 645.909,137.298 645.909,136.455 L645.909,98.273 C645.909,96.515 644.485,95.091 642.727,95.091 C640.97,95.091 639.545,96.515 639.545,98.273 Z" />
            <path d="M650.33,93.646 C649.29,93.8 648.435,94.022 647.094,94.438 C645.76,94.852 645.5,94.927 645.029,95.015 C644.756,95.067 644.524,95.091 644.318,95.091 C642.387,95.091 640.646,93.928 639.907,92.145 C639.168,90.361 639.577,88.308 640.942,86.943 C642.185,85.7 642.185,83.686 640.943,82.443 C639.701,81.2 637.686,81.2 636.443,82.443 C633.257,85.628 632.304,90.418 634.028,94.58 C635.752,98.742 639.814,101.455 644.319,101.455 C644.943,101.455 645.564,101.39 646.206,101.269 C647.022,101.115 647.361,101.018 648.98,100.516 C650.031,100.19 650.626,100.035 651.262,99.941 C653.001,99.683 654.201,98.066 653.944,96.327 C653.687,94.589 652.069,93.388 650.33,93.646 Z" />
            <path d="M656.503,85.552 C656.817,85.315 657.121,85.065 657.505,84.732 C657.566,84.679 658.186,84.137 658.362,83.987 C659.758,82.794 660.62,82.364 661.818,82.364 C662.998,82.364 663.796,82.77 665.168,83.966 C664.87,83.706 666.204,84.886 666.561,85.178 C668.106,86.445 669.534,87.136 671.364,87.136 C673.105,87.136 674.438,86.853 676.547,86.198 C677.878,85.785 678.136,85.71 678.607,85.621 C678.88,85.57 679.112,85.545 679.318,85.545 C681.954,85.545 684.091,87.682 684.091,90.318 C684.091,92.954 681.954,95.091 679.318,95.091 C679.112,95.091 678.88,95.067 678.607,95.015 C678.136,94.926 677.878,94.852 676.547,94.439 C674.438,93.784 673.105,93.5 671.364,93.5 C670.15,93.507 668.963,93.677 667.814,94.003 C666.124,94.484 665.143,96.244 665.624,97.934 C666.105,99.624 667.865,100.605 669.555,100.124 C670.15,99.955 670.765,99.867 671.383,99.864 C672.303,99.864 673.118,100.037 674.66,100.516 C676.274,101.017 676.612,101.114 677.426,101.268 C678.069,101.39 678.692,101.455 679.318,101.455 C685.469,101.455 690.455,96.469 690.455,90.318 C690.455,84.168 685.469,79.182 679.318,79.182 C678.692,79.182 678.069,79.247 677.426,79.368 C676.612,79.522 676.274,79.619 674.66,80.12 C673.118,80.599 672.303,80.773 671.364,80.773 C671.304,80.773 671.11,80.678 670.595,80.256 C670.346,80.052 669.154,78.999 669.35,79.17 C666.93,77.059 664.849,76 661.818,76 C658.799,76 656.667,77.064 654.228,79.149 C654.019,79.328 653.378,79.888 653.341,79.92 C653.055,80.167 652.85,80.337 652.669,80.473 C651.266,81.532 650.988,83.527 652.046,84.93 C653.105,86.332 655.1,86.611 656.503,85.552 Z" />
            <path d="M652.273,119.273 L652.273,130.091 C652.273,131.848 653.697,133.273 655.455,133.273 C657.212,133.273 658.636,131.848 658.636,130.091 L658.636,119.273 C658.636,117.515 657.212,116.091 655.455,116.091 C653.697,116.091 652.273,117.515 652.273,119.273 Z" />
        </g>
    </g>
</svg>