<?xml version="1.0" encoding="UTF-8"?>
<svg height="600" width="800" xmlns="http://www.w3.org/2000/svg" xmlns:xlink="http://www.w3.org/1999/xlink">
    <g id="Notes" font-family="LucidaGrande, 'Lucida Grande', sans-serif" font-size="13">
        <rect fill="white" height="600.0" width="800.0" x="0.0" y="0.0" />
        <g font-size="13">
            <text x="18.0" y="176.0">Small</text>
            <text x="18.0" y="376.0">Medium</text>
            <text x="18.0" y="576.0">Large</text>
        </g>
        <g font-size="9">
            <text x="250.0" y="30.0">Ultralight</text>
            <text x="450.0" y="30.0">Regular</text>
            <text x="650.0" y="30.0">Black</text>
            <text id="template-version" fill="#505050" text-anchor="end" x="785.0" y="575.0">Template v.3.0</text>
            <a href="https://github.com/swhitty/SwiftDraw">
                <text fill="#505050" text-anchor="end" x="785.0" y="590.0">https://github.com/swhitty/SwiftDraw</text>
            </a>
        </g>
    </g>
    <g id="Guides" stroke="rgb(39, 170, 225)" stroke-width="0.5">
        <path id="Capline-S" d="M18,76 l800,0" />
        <path id="H-reference" d="M85,145.755 L87.685,145.755 L113.369,79.287 L114.052,79.287 L114.052,76 L112.148,76 L85,145.755 Z M95.693,121.536 L130.996,121.536 L130.263,119.313 L96.474,119.313 L95.693,121.536 Z M139.15,145.755 L141.787,145.755 L114.638,76 L113.466,76 L113.466,79.287 L139.15,145.755 Z" stroke="none" transform="translate(0,200)" />
        <path id="Baseline-S" d="M18,146 l800,0" />
        <path id="left-margin-Ultralight-M" d="M233.333,256 l0,110" />
        <path id="right-margin-Ultralight-M" d="M296.667,256 l0,110" />
        <path id="left-margin-Regular-M" d="M433.333,256 l0,110" />
        <path id="right-margin-Regular-M" d="M496.667,256 l0,110" />
        <path id="left-margin-Black-M" d="M633.333,256 l0,110" />
        <path id="right-margin-Black-M" d="M696.667,256 l0,110" />
        <path id="Capline-M" d="M18,276 l800,0" />
        <path id="Baseline-M" d="M18,346 l800,0" />
        <path id="Capline-L" d="M18,476 l800,0" />
        <path id="Baseline-L" d="M18,546 l800,0" />
    </g>
    <g id="Symbols">
        <g id="Ultralight-M" transform="translate(0,200)">
            <path d="M256.771,141.228 C258.468,144.181 261.604,146 264.998,146 C268.392,146 271.528,144.181 273.225,141.228 C274.1,139.706 273.581,137.76 272.067,136.881 C270.552,136.002 268.615,136.524 267.741,138.046 C267.175,139.03 266.13,139.636 264.998,139.636 C263.867,139.636 262.822,139.03 262.256,138.046 C261.381,136.524 259.445,136.002 257.93,136.881 C256.415,137.76 255.897,139.706 256.771,141.228 Z" />
            <path d="M263.816,76.033 C252.05,76.665 242.832,86.434 242.831,98.273 C242.831,109.255 240.954,113.248 235.053,119.369 C233.298,121.3 232.86,123.989 233.872,126.295 C234.883,128.6 237.154,130.089 239.662,130.091 L290.332,130.091 C292.839,130.092 295.111,128.606 296.125,126.302 C297.14,123.997 296.705,121.308 295.018,119.445 C291.294,115.583 289.9,113.65 288.685,109.939 C288.138,108.27 286.349,107.362 284.687,107.911 C283.026,108.46 282.122,110.258 282.669,111.928 C284.255,116.771 286.134,119.377 290.402,123.801 C290.333,123.727 290.333,123.727 290.333,123.727 C290.333,123.727 290.333,123.727 290.333,123.727 L239.665,123.727 C239.667,123.727 239.667,123.727 239.667,123.727 C239.667,123.727 239.667,123.727 239.667,123.727 C246.573,116.566 249.165,111.053 249.165,98.273 C249.165,89.817 255.75,82.839 264.154,82.388 C265.9,82.294 267.24,80.796 267.147,79.041 C267.054,77.286 265.562,75.939 263.816,76.033 Z" />
            <path d="M277.665,88.727 C277.665,85.213 280.501,82.364 283.999,82.364 C287.496,82.364 290.332,85.213 290.332,88.727 C290.332,92.242 287.496,95.091 283.999,95.091 C280.501,95.091 277.665,92.242 277.665,88.727 Z M271.332,88.727 C271.332,95.756 277.003,101.455 283.999,101.455 C290.994,101.455 296.665,95.756 296.665,88.727 C296.665,81.698 290.994,76 283.999,76 C277.003,76 271.332,81.698 271.332,88.727 Z" />
        </g>
        <g id="Regular-M" transform="translate(0,200)">
            <path d="M456.771,141.228 C458.468,144.181 461.604,146 464.998,146 C468.392,146 471.528,144.181 473.225,141.228 C474.1,139.706 473.581,137.76 472.067,136.881 C470.552,136.002 468.615,136.524 467.741,138.046 C467.175,139.03 466.13,139.636 464.998,139.636 C463.867,139.636 462.822,139.03 462.256,138.046 C461.381,136.524 459.445,136.002 457.93,136.881 C456.415,137.76 455.897,139.706 456.771,141.228 Z" />
            <path d="M463.816,76.033 C452.05,76.665 442.832,86.434 442.831,98.273 C442.831,109.255 440.954,113.248 435.053,119.369 C433.298,121.3 432.86,123.989 433.872,126.295 C434.883,128.6 437.154,130.089 439.662,130.091 L490.332,130.091 C492.839,130.092 495.111,128.606 496.125,126.302 C497.14,123.997 496.705,121.308 495.018,119.445 C491.294,115.583 489.9,113.65 488.685,109.939 C488.138,108.27 486.349,107.362 484.687,107.911 C483.026,108.46 482.122,110.258 482.669,111.928 C484.255,116.771 486.134,119.377 490.402,123.801 C490.333,123.727 490.333,123.727 490.333,123.727 C490.333,123.727 490.333,123.727 490.333,123.727 L439.665,123.727 C439.667,123.727 439.667,123.727 439.667,123.727 C439.667,123.727 439.667,123.727 439.667,123.727 C446.573,116.566 449.165,111.053 449.165,98.273 C449.165,89.817 455.75,82.839 464.154,82.388 C465.9,82.294 467.24,80.796 467.147,79.041 C467.054,77.286 465.562,75.939 463.816,76.033 Z" />
            <path d="M477.665,88.727 C477.665,85.213 480.501,82.364 483.999,82.364 C487.496,82.364 490.332,85.213 490.332,88.727 C490.332,92.242 487.496,95.091 483.999,95.091 C480.501,95.091 477.665,92.242 477.665,88.727 Z M471.332,88.727 C471.332,95.756 477.003,101.455 483.999,101.455 C490.994,101.455 496.665,95.756 496.665,88.727 C496.665,81.698 490.994,76 483.999,76 C477.003,76 471.332,81.698 471.332,88.727 Z" />
        </g>
        <g id="Black-M" transform="translate(0,200)">
            <path d="M656.771,141.228 C658.468,144.181 661.604,146 664.998,146 C668.392,146 671.528,144.181 673.225,141.228 C674.1,139.706 673.581,137.76 672.067,136.881 C670.552,136.002 668.615,136.524 667.741,138.046 C667.175,139.03 666.13,139.636 664.998,139.636 C663.867,139.636 662.822,139.03 662.256,138.046 C661.381,136.524 659.445,136.002 657.93,136.881 C656.415,137.76 655.897,139.706 656.771,141.228 Z" />
            <path d="M663.816,76.033 C652.05,76.665 642.832,86.434 642.831,98.273 C642.831,109.255 640.954,113.248 635.053,119.369 C633.298,121.3 632.86,123.989 633.872,126.295 C634.883,128.6 637.154,130.089 639.662,130.091 L690.332,130.091 C692.839,130.092 695.111,128.606 696.125,126.302 C697.14,123.997 696.705,121.308 695.018,119.445 C691.294,115.583 689.9,113.65 688.685,109.939 C688.138,108.27 686.349,107.362 684.687,107.911 C683.026,108.46 682.122,110.258 682.669,111.928 C684.255,116.771 686.134,119.377 690.402,123.801 C690.333,123.727 690.333,123.727 690.333,123.727 C690.333,123.727 690.333,123.727 690.333,123.727 L639.664,123.727 C639.667,123.727 639.667,123.727 639.667,123.727 C639.667,123.727 639.667,123.727 639.667,123.727 C646.573,116.566 649.165,111.053 649.165,98.273 C649.165,89.817 655.75,82.839 664.154,82.388 C665.9,82.294 667.24,80.796 667.147,79.041 C667.054,77.286 665.562,75.939 663.816,76.033 Z" />
            <path d="M677.665,88.727 C677.665,85.213 680.501,82.364 683.999,82.364 C687.496,82.364 690.332,85.213 690.332,88.727 C690.332,92.242 687.496,95.091 683.999,95.091 C680.501,95.091 677.665,92.242 677.665,88.727 Z M671.332,88.727 C671.332,95.756 677.003,101.455 683.999,101.455 C690.994,101.455 696.665,95.756 696.665,88.727 C696.665,81.698 690.994,76 683.999,76 C677.003,76 671.332,81.698 671.332,88.727 Z" />
        </g>
    </g>
</svg>