<?xml version="1.0" encoding="UTF-8"?>
<svg height="600" width="800" xmlns="http://www.w3.org/2000/svg" xmlns:xlink="http://www.w3.org/1999/xlink">
    <g id="Notes" font-family="LucidaGrande, 'Lucida Grande', sans-serif" font-size="13">
        <rect fill="white" height="600.0" width="800.0" x="0.0" y="0.0" />
        <g font-size="13">
            <text x="18.0" y="176.0">Small</text>
            <text x="18.0" y="376.0">Medium</text>
            <text x="18.0" y="576.0">Large</text>
        </g>
        <g font-size="9">
            <text x="250.0" y="30.0">Ultralight</text>
            <text x="450.0" y="30.0">Regular</text>
            <text x="650.0" y="30.0">Black</text>
            <text id="template-version" fill="#505050" text-anchor="end" x="785.0" y="575.0">Template v.3.0</text>
            <a href="https://github.com/swhitty/SwiftDraw">
                <text fill="#505050" text-anchor="end" x="785.0" y="590.0">https://github.com/swhitty/SwiftDraw</text>
            </a>
        </g>
    </g>
    <g id="Guides" stroke="rgb(39, 170, 225)" stroke-width="0.5">
        <path id="Capline-S" d="M18,76 l800,0" />
        <path id="H-reference" d="M85,145.755 L87.685,145.755 L113.369,79.287 L114.052,79.287 L114.052,76 L112.148,76 L85,145.755 Z M95.693,121.536 L130.996,121.536 L130.263,119.313 L96.474,119.313 L95.693,121.536 Z M139.15,145.755 L141.787,145.755 L114.638,76 L113.466,76 L113.466,79.287 L139.15,145.755 Z" stroke="none" transform="translate(0,200)" />
        <path id="Baseline-S" d="M18,146 l800,0" />
        <path id="left-margin-Ultralight-M" d="M231.667,256 l0,110" />
        <path id="right-margin-Ultralight-M" d="M298.333,256 l0,110" />
        <path id="left-margin-Regular-M" d="M431.667,256 l0,110" />
        <path id="right-margin-Regular-M" d="M498.333,256 l0,110" />
        <path id="left-margin-Black-M" d="M631.667,256 l0,110" />
        <path id="right-margin-Black-M" d="M698.333,256 l0,110" />
        <path id="Capline-M" d="M18,276 l800,0" />
        <path id="Baseline-M" d="M18,346 l800,0" />
        <path id="Capline-L" d="M18,476 l800,0" />
        <path id="Baseline-L" d="M18,546 l800,0" />
    </g>
    <g id="Symbols">
        <g id="Ultralight-M" transform="translate(0,200)">
            <path d="M255,101 L255,119.333 C255,119.333 255,119.333 255,119.333 C255,119.333 255,119.333 255,119.333 L238.333,119.333 C238.333,119.333 238.333,119.333 238.333,119.333 C238.333,119.333 238.333,119.333 238.333,119.333 L238.333,82.667 C238.333,82.667 238.333,82.667 238.333,82.667 C238.333,82.667 238.333,82.667 238.333,82.667 L255,82.667 C255,82.667 255,82.667 255,82.667 C255,82.667 255,82.667 255,82.667 L255,101 Z M261.667,101 L261.667,82.667 C261.667,80.899 260.964,79.203 259.714,77.953 C258.464,76.702 256.768,76 255,76 L238.333,76 C236.565,76 234.87,76.702 233.619,77.953 C232.369,79.203 231.667,80.899 231.667,82.667 L231.667,119.333 C231.667,121.101 232.369,122.797 233.619,124.047 C234.87,125.298 236.565,126 238.333,126 L255,126 C256.768,126 258.464,125.298 259.714,124.047 C260.964,122.797 261.667,121.101 261.667,119.333 L261.667,101 Z" />
            <path d="M257.357,145.024 L267.357,135.024 L262.643,135.024 L272.643,145.024 C273.945,146.325 276.055,146.325 277.357,145.024 C278.659,143.722 278.659,141.611 277.357,140.31 L267.357,130.31 C266.055,129.008 263.945,129.008 262.643,130.31 L252.643,140.31 C251.341,141.611 251.341,143.722 252.643,145.024 C253.945,146.325 256.055,146.325 257.357,145.024 Z" />
            <path d="M291.667,101 L291.667,119.333 C291.667,119.333 291.667,119.333 291.667,119.333 C291.667,119.333 291.667,119.333 291.667,119.333 L275,119.333 C275,119.333 275,119.333 275,119.333 C275,119.333 275,119.333 275,119.333 L275,82.667 C275,82.667 275,82.667 275,82.667 C275,82.667 275,82.667 275,82.667 L291.667,82.667 C291.667,82.667 291.667,82.667 291.667,82.667 C291.667,82.667 291.667,82.667 291.667,82.667 L291.667,101 Z M298.333,101 L298.333,82.667 C298.333,80.899 297.631,79.203 296.381,77.953 C295.13,76.702 293.435,76 291.667,76 L275,76 C273.232,76 271.536,76.702 270.286,77.953 C269.036,79.203 268.333,80.899 268.333,82.667 L268.333,119.333 C268.333,121.101 269.036,122.797 270.286,124.047 C271.536,125.298 273.232,126 275,126 L291.667,126 C293.435,126 295.13,125.298 296.381,124.047 C297.631,122.797 298.333,121.101 298.333,119.333 L298.333,101 Z" />
        </g>
        <g id="Regular-M" transform="translate(0,200)">
            <path d="M455,101 L455,119.333 C455,119.333 455,119.333 455,119.333 C455,119.333 455,119.333 455,119.333 L438.333,119.333 C438.333,119.333 438.333,119.333 438.333,119.333 C438.333,119.333 438.333,119.333 438.333,119.333 L438.333,82.667 C438.333,82.667 438.333,82.667 438.333,82.667 C438.333,82.667 438.333,82.667 438.333,82.667 L455,82.667 C455,82.667 455,82.667 455,82.667 C455,82.667 455,82.667 455,82.667 L455,101 Z M461.667,101 L461.667,82.667 C461.667,80.899 460.964,79.203 459.714,77.953 C458.464,76.702 456.768,76 455,76 L438.333,76 C436.565,76 434.87,76.702 433.619,77.953 C432.369,79.203 431.667,80.899 431.667,82.667 L431.667,119.333 C431.667,121.101 432.369,122.797 433.619,124.047 C434.87,125.298 436.565,126 438.333,126 L455,126 C456.768,126 458.464,125.298 459.714,124.047 C460.964,122.797 461.667,121.101 461.667,119.333 L461.667,101 Z" />
            <path d="M457.357,145.024 L467.357,135.024 L462.643,135.024 L472.643,145.024 C473.945,146.325 476.055,146.325 477.357,145.024 C478.659,143.722 478.659,141.611 477.357,140.31 L467.357,130.31 C466.055,129.008 463.945,129.008 462.643,130.31 L452.643,140.31 C451.341,141.611 451.341,143.722 452.643,145.024 C453.945,146.325 456.055,146.325 457.357,145.024 Z" />
            <path d="M491.667,101 L491.667,119.333 C491.667,119.333 491.667,119.333 491.667,119.333 C491.667,119.333 491.667,119.333 491.667,119.333 L475,119.333 C475,119.333 475,119.333 475,119.333 C475,119.333 475,119.333 475,119.333 L475,82.667 C475,82.667 475,82.667 475,82.667 C475,82.667 475,82.667 475,82.667 L491.667,82.667 C491.667,82.667 491.667,82.667 491.667,82.667 C491.667,82.667 491.667,82.667 491.667,82.667 L491.667,101 Z M498.333,101 L498.333,82.667 C498.333,80.899 497.631,79.203 496.381,77.953 C495.13,76.702 493.435,76 491.667,76 L475,76 C473.232,76 471.536,76.702 470.286,77.953 C469.036,79.203 468.333,80.899 468.333,82.667 L468.333,119.333 C468.333,121.101 469.036,122.797 470.286,124.047 C471.536,125.298 473.232,126 475,126 L491.667,126 C493.435,126 495.13,125.298 496.381,124.047 C497.631,122.797 498.333,121.101 498.333,119.333 L498.333,101 Z" />
        </g>
        <g id="Black-M" transform="translate(0,200)">
            <path d="M655,101 L655,119.333 C655,119.333 655,119.333 655,119.333 C655,119.333 655,119.333 655,119.333 L638.333,119.333 C638.333,119.333 638.333,119.333 638.333,119.333 C638.333,119.333 638.333,119.333 638.333,119.333 L638.333,82.667 C638.333,82.667 638.333,82.667 638.333,82.667 C638.333,82.667 638.333,82.667 638.333,82.667 L655,82.667 C655,82.667 655,82.667 655,82.667 C655,82.667 655,82.667 655,82.667 L655,101 Z M661.667,101 L661.667,82.667 C661.667,80.899 660.964,79.203 659.714,77.953 C658.464,76.702 656.768,76 655,76 L638.333,76 C636.565,76 634.87,76.702 633.619,77.953 C632.369,79.203 631.667,80.899 631.667,82.667 L631.667,119.333 C631.667,121.101 632.369,122.797 633.619,124.047 C634.87,125.298 636.565,126 638.333,126 L655,126 C656.768,126 658.464,125.298 659.714,124.047 C660.964,122.797 661.667,121.101 661.667,119.333 L661.667,101 Z" />
            <path d="M657.357,145.024 L667.357,135.024 L662.643,135.024 L672.643,145.024 C673.945,146.325 676.055,146.325 677.357,145.024 C678.659,143.722 678.659,141.611 677.357,140.31 L667.357,130.31 C666.055,129.008 663.945,129.008 662.643,130.31 L652.643,140.31 C651.341,141.611 651.341,143.722 652.643,145.024 C653.945,146.325 656.055,146.325 657.357,145.024 Z" />
            <path d="M691.667,101 L691.667,119.333 C691.667,119.333 691.667,119.333 691.667,119.333 C691.667,119.333 691.667,119.333 691.667,119.333 L675,119.333 C675,119.333 675,119.333 675,119.333 C675,119.333 675,119.333 675,119.333 L675,82.667 C675,82.667 675,82.667 675,82.667 C675,82.667 675,82.667 675,82.667 L691.667,82.667 C691.667,82.667 691.667,82.667 691.667,82.667 C691.667,82.667 691.667,82.667 691.667,82.667 L691.667,101 Z M698.333,101 L698.333,82.667 C698.333,80.899 697.631,79.203 696.381,77.953 C695.13,76.702 693.435,76 691.667,76 L675,76 C673.232,76 671.536,76.702 670.286,77.953 C669.036,79.203 668.333,80.899 668.333,82.667 L668.333,119.333 C668.333,121.101 669.036,122.797 670.286,124.047 C671.536,125.298 673.232,126 675,126 L691.667,126 C693.435,126 695.13,125.298 696.381,124.047 C697.631,122.797 698.333,121.101 698.333,119.333 L698.333,101 Z" />
        </g>
    </g>
</svg>