<?xml version="1.0" encoding="UTF-8"?>
<svg height="600" width="800" xmlns="http://www.w3.org/2000/svg" xmlns:xlink="http://www.w3.org/1999/xlink">
    <g id="Notes" font-family="LucidaGrande, 'Lucida Grande', sans-serif" font-size="13">
        <rect fill="white" height="600.0" width="800.0" x="0.0" y="0.0" />
        <g font-size="13">
            <text x="18.0" y="176.0">Small</text>
            <text x="18.0" y="376.0">Medium</text>
            <text x="18.0" y="576.0">Large</text>
        </g>
        <g font-size="9">
            <text x="250.0" y="30.0">Ultralight</text>
            <text x="450.0" y="30.0">Regular</text>
            <text x="650.0" y="30.0">Black</text>
            <text id="template-version" fill="#505050" text-anchor="end" x="785.0" y="575.0">Template v.3.0</text>
            <a href="https://github.com/swhitty/SwiftDraw">
                <text fill="#505050" text-anchor="end" x="785.0" y="590.0">https://github.com/swhitty/SwiftDraw</text>
            </a>
        </g>
    </g>
    <g id="Guides" stroke="rgb(39, 170, 225)" stroke-width="0.5">
        <path id="Capline-S" d="M18,76 l800,0" />
        <path id="H-reference" d="M85,145.755 L87.685,145.755 L113.369,79.287 L114.052,79.287 L114.052,76 L112.148,76 L85,145.755 Z M95.693,121.536 L130.996,121.536 L130.263,119.313 L96.474,119.313 L95.693,121.536 Z M139.15,145.755 L141.787,145.755 L114.638,76 L113.466,76 L113.466,79.287 L139.15,145.755 Z" stroke="none" transform="translate(0,200)" />
        <path id="Baseline-S" d="M18,146 l800,0" />
        <path id="left-margin-Ultralight-M" d="M233.182,256 l0,110" />
        <path id="right-margin-Ultralight-M" d="M296.818,256 l0,110" />
        <path id="left-margin-Regular-M" d="M433.182,256 l0,110" />
        <path id="right-margin-Regular-M" d="M496.818,256 l0,110" />
        <path id="left-margin-Black-M" d="M633.182,256 l0,110" />
        <path id="right-margin-Black-M" d="M696.818,256 l0,110" />
        <path id="Capline-M" d="M18,276 l800,0" />
        <path id="Baseline-M" d="M18,346 l800,0" />
        <path id="Capline-L" d="M18,476 l800,0" />
        <path id="Baseline-L" d="M18,546 l800,0" />
    </g>
    <g id="Symbols">
        <g id="Ultralight-M" transform="translate(0,200)">
            <path d="M261.818,130.091 L261.818,142.818 C261.818,144.575 263.243,146 265,146 C266.757,146 268.182,144.575 268.182,142.818 L268.182,130.091 C268.182,128.334 266.757,126.909 265,126.909 C263.243,126.909 261.818,128.334 261.818,130.091 Z" />
            <path d="M284.046,130.626 L290.269,94.137 C290.565,92.405 289.4,90.761 287.668,90.466 C285.935,90.17 284.292,91.335 283.996,93.067 L277.773,129.556 C277.477,131.288 278.642,132.932 280.374,133.228 C282.106,133.523 283.75,132.358 284.046,130.626 Z" />
            <path d="M238.219,100.858 L263.101,82.992 C264.241,82.159 265.759,82.159 266.877,82.976 L291.781,100.858 C293.208,101.883 295.196,101.556 296.221,100.129 C297.246,98.702 296.92,96.714 295.492,95.689 L270.61,77.823 C267.277,75.387 262.723,75.387 259.368,77.838 L234.508,95.689 C233.08,96.714 232.754,98.702 233.779,100.129 C234.804,101.556 236.792,101.883 238.219,100.858 Z" />
            <path d="M239.545,133.273 L290.455,133.273 C292.212,133.273 293.636,131.848 293.636,130.091 C293.636,128.334 292.212,126.909 290.455,126.909 L239.545,126.909 C237.788,126.909 236.364,128.334 236.364,130.091 C236.364,131.848 237.788,133.273 239.545,133.273 Z" />
            <path d="M252.227,129.556 L246.004,93.067 C245.708,91.335 244.065,90.17 242.332,90.466 C240.6,90.761 239.435,92.405 239.731,94.137 L245.954,130.626 C246.25,132.358 247.894,133.523 249.626,133.228 C251.358,132.932 252.523,131.288 252.227,129.556 Z" />
            <path d="M261.818,104.637 C261.818,102.879 263.243,101.455 265,101.455 C266.757,101.455 268.182,102.879 268.182,104.637 C268.182,106.394 266.757,107.819 265,107.819 C263.243,107.819 261.818,106.394 261.818,104.637 Z M255.455,104.637 C255.455,109.908 259.728,114.182 265,114.182 C270.272,114.182 274.545,109.908 274.545,104.637 C274.545,99.365 270.272,95.091 265,95.091 C259.728,95.091 255.455,99.365 255.455,104.637 Z" />
        </g>
        <g id="Regular-M" transform="translate(0,200)">
            <path d="M461.818,130.091 L461.818,142.818 C461.818,144.575 463.243,146 465,146 C466.757,146 468.182,144.575 468.182,142.818 L468.182,130.091 C468.182,128.334 466.757,126.909 465,126.909 C463.243,126.909 461.818,128.334 461.818,130.091 Z" />
            <path d="M484.046,130.626 L490.269,94.137 C490.565,92.405 489.4,90.761 487.668,90.466 C485.935,90.17 484.292,91.335 483.996,93.067 L477.773,129.556 C477.477,131.288 478.642,132.932 480.374,133.228 C482.106,133.523 483.75,132.358 484.046,130.626 Z" />
            <path d="M438.219,100.858 L463.101,82.992 C464.241,82.159 465.759,82.159 466.877,82.976 L491.781,100.858 C493.208,101.883 495.196,101.556 496.221,100.129 C497.246,98.702 496.92,96.714 495.492,95.689 L470.61,77.823 C467.277,75.387 462.723,75.387 459.368,77.838 L434.508,95.689 C433.08,96.714 432.754,98.702 433.779,100.129 C434.804,101.556 436.792,101.883 438.219,100.858 Z" />
            <path d="M439.545,133.273 L490.455,133.273 C492.212,133.273 493.636,131.848 493.636,130.091 C493.636,128.334 492.212,126.909 490.455,126.909 L439.545,126.909 C437.788,126.909 436.364,128.334 436.364,130.091 C436.364,131.848 437.788,133.273 439.545,133.273 Z" />
            <path d="M452.227,129.556 L446.004,93.067 C445.708,91.335 444.065,90.17 442.332,90.466 C440.6,90.761 439.435,92.405 439.731,94.137 L445.954,130.626 C446.25,132.358 447.894,133.523 449.626,133.228 C451.358,132.932 452.523,131.288 452.227,129.556 Z" />
            <path d="M461.818,104.637 C461.818,102.879 463.243,101.455 465,101.455 C466.757,101.455 468.182,102.879 468.182,104.637 C468.182,106.394 466.757,107.819 465,107.819 C463.243,107.819 461.818,106.394 461.818,104.637 Z M455.455,104.637 C455.455,109.908 459.728,114.182 465,114.182 C470.272,114.182 474.545,109.908 474.545,104.637 C474.545,99.365 470.272,95.091 465,95.091 C459.728,95.091 455.455,99.365 455.455,104.637 Z" />
        </g>
        <g id="Black-M" transform="translate(0,200)">
            <path d="M661.818,130.091 L661.818,142.818 C661.818,144.575 663.243,146 665,146 C666.757,146 668.182,144.575 668.182,142.818 L668.182,130.091 C668.182,128.334 666.757,126.909 665,126.909 C663.243,126.909 661.818,128.334 661.818,130.091 Z" />
            <path d="M684.046,130.626 L690.269,94.137 C690.565,92.405 689.4,90.761 687.668,90.466 C685.935,90.17 684.292,91.335 683.996,93.067 L677.773,129.556 C677.477,131.288 678.642,132.932 680.374,133.228 C682.106,133.523 683.75,132.358 684.046,130.626 Z" />
            <path d="M638.219,100.858 L663.101,82.992 C664.241,82.159 665.759,82.159 666.877,82.976 L691.781,100.858 C693.208,101.883 695.196,101.556 696.221,100.129 C697.246,98.702 696.92,96.714 695.492,95.689 L670.61,77.823 C667.277,75.387 662.723,75.387 659.368,77.838 L634.508,95.689 C633.08,96.714 632.754,98.702 633.779,100.129 C634.804,101.556 636.792,101.883 638.219,100.858 Z" />
            <path d="M639.545,133.273 L690.455,133.273 C692.212,133.273 693.636,131.848 693.636,130.091 C693.636,128.334 692.212,126.909 690.455,126.909 L639.545,126.909 C637.788,126.909 636.364,128.334 636.364,130.091 C636.364,131.848 637.788,133.273 639.545,133.273 Z" />
            <path d="M652.227,129.556 L646.004,93.067 C645.708,91.335 644.065,90.17 642.332,90.466 C640.6,90.761 639.435,92.405 639.731,94.137 L645.954,130.626 C646.25,132.358 647.894,133.523 649.626,133.228 C651.358,132.932 652.523,131.288 652.227,129.556 Z" />
            <path d="M661.818,104.637 C661.818,102.879 663.243,101.455 665,101.455 C666.757,101.455 668.182,102.879 668.182,104.637 C668.182,106.394 666.757,107.819 665,107.819 C663.243,107.819 661.818,106.394 661.818,104.637 Z M655.455,104.637 C655.455,109.908 659.728,114.182 665,114.182 C670.272,114.182 674.545,109.908 674.545,104.637 C674.545,99.365 670.272,95.091 665,95.091 C659.728,95.091 655.455,99.365 655.455,104.637 Z" />
        </g>
    </g>
</svg>