<?xml version="1.0" encoding="UTF-8"?>
<svg height="600" width="800" xmlns="http://www.w3.org/2000/svg" xmlns:xlink="http://www.w3.org/1999/xlink">
    <g id="Notes" font-family="LucidaGrande, 'Lucida Grande', sans-serif" font-size="13">
        <rect fill="white" height="600.0" width="800.0" x="0.0" y="0.0" />
        <g font-size="13">
            <text x="18.0" y="176.0">Small</text>
            <text x="18.0" y="376.0">Medium</text>
            <text x="18.0" y="576.0">Large</text>
        </g>
        <g font-size="9">
            <text x="250.0" y="30.0">Ultralight</text>
            <text x="450.0" y="30.0">Regular</text>
            <text x="650.0" y="30.0">Black</text>
            <text id="template-version" fill="#505050" text-anchor="end" x="785.0" y="575.0">Template v.3.0</text>
            <a href="https://github.com/swhitty/SwiftDraw">
                <text fill="#505050" text-anchor="end" x="785.0" y="590.0">https://github.com/swhitty/SwiftDraw</text>
            </a>
        </g>
    </g>
    <g id="Guides" stroke="rgb(39, 170, 225)" stroke-width="0.5">
        <path id="Capline-S" d="M18,76 l800,0" />
        <path id="H-reference" d="M85,145.755 L87.685,145.755 L113.369,79.287 L114.052,79.287 L114.052,76 L112.148,76 L85,145.755 Z M95.693,121.536 L130.996,121.536 L130.263,119.313 L96.474,119.313 L95.693,121.536 Z M139.15,145.755 L141.787,145.755 L114.638,76 L113.466,76 L113.466,79.287 L139.15,145.755 Z" stroke="none" transform="translate(0,200)" />
        <path id="Baseline-S" d="M18,146 l800,0" />
        <path id="left-margin-Ultralight-M" d="M226.5,256 l0,110" />
        <path id="right-margin-Ultralight-M" d="M303.5,256 l0,110" />
        <path id="left-margin-Regular-M" d="M426.5,256 l0,110" />
        <path id="right-margin-Regular-M" d="M503.5,256 l0,110" />
        <path id="left-margin-Black-M" d="M626.5,256 l0,110" />
        <path id="right-margin-Black-M" d="M703.5,256 l0,110" />
        <path id="Capline-M" d="M18,276 l800,0" />
        <path id="Baseline-M" d="M18,346 l800,0" />
        <path id="Capline-L" d="M18,476 l800,0" />
        <path id="Baseline-L" d="M18,546 l800,0" />
    </g>
    <g id="Symbols">
        <g id="Ultralight-M" transform="translate(0,200)">
            <path d="M279,97.027 L279.035,97.027 C280.968,97.027 282.535,95.46 282.535,93.528 C282.535,91.597 280.968,90.03 279.035,90.03 L279,90.03 C277.067,90.03 275.5,91.597 275.5,93.528 C275.5,95.46 277.067,97.027 279,97.027 Z" />
            <path d="M234.9,135.506 L265,135.506 C273.354,135.506 281.366,132.189 287.274,126.285 C293.181,120.38 296.5,112.373 296.5,104.023 L296.5,93.528 C296.52,85.891 291.568,79.117 284.272,76.814 C276.976,74.51 269.029,77.21 264.65,83.481 L227.134,136.997 C226.024,138.579 226.409,140.76 227.992,141.869 C229.575,142.977 231.757,142.593 232.866,141.011 L270.386,87.49 C273.017,83.723 277.786,82.103 282.163,83.485 C286.541,84.867 289.512,88.931 289.5,93.519 L289.5,104.023 C289.5,110.517 286.919,116.745 282.324,121.338 C277.729,125.93 271.498,128.509 265,128.509 L234.9,128.509 C232.967,128.509 231.4,130.076 231.4,132.008 C231.4,133.94 232.967,135.506 234.9,135.506 Z" />
            <path d="M292.151,96.922 L299.151,98.671 L299.151,91.884 L292.151,93.633 C290.276,94.102 289.136,96.001 289.604,97.875 C290.073,99.749 291.974,100.889 293.849,100.42 L300.849,98.671 C304.384,97.788 304.384,92.767 300.849,91.884 L293.849,90.135 C291.974,89.666 290.073,90.806 289.604,92.68 C289.136,94.554 290.276,96.454 292.151,96.922 Z" />
            <path d="M254.5,132.008 L254.5,142.502 C254.5,144.434 256.067,146 258,146 C259.933,146 261.5,144.434 261.5,142.502 L261.5,132.008 C261.5,130.076 259.933,128.509 258,128.509 C256.067,128.509 254.5,130.076 254.5,132.008 Z" />
            <path d="M268.5,131.133 L268.5,142.502 C268.5,144.434 270.067,146 272,146 C273.933,146 275.5,144.434 275.5,142.502 L275.5,131.133 C275.5,129.201 273.933,127.635 272,127.635 C270.067,127.635 268.5,129.201 268.5,131.133 Z" />
            <path d="M247.5,135.506 C257.816,135.505 267.026,129.047 270.537,119.352 C274.047,109.658 271.106,98.804 263.18,92.205 C261.695,90.968 259.488,91.169 258.251,92.654 C257.014,94.138 257.215,96.344 258.7,97.58 C264.361,102.294 266.462,110.047 263.954,116.971 C261.447,123.896 254.868,128.509 247.5,128.509 C245.567,128.51 244,130.076 244,132.008 C244,133.94 245.567,135.506 247.5,135.506 Z" />
        </g>
        <g id="Regular-M" transform="translate(0,200)">
            <path d="M479,97.027 L479.035,97.027 C480.968,97.027 482.535,95.46 482.535,93.528 C482.535,91.597 480.968,90.03 479.035,90.03 L479,90.03 C477.067,90.03 475.5,91.597 475.5,93.528 C475.5,95.46 477.067,97.027 479,97.027 Z" />
            <path d="M434.9,135.506 L465,135.506 C473.354,135.506 481.366,132.189 487.274,126.285 C493.181,120.38 496.5,112.373 496.5,104.023 L496.5,93.528 C496.52,85.891 491.568,79.117 484.272,76.814 C476.976,74.51 469.029,77.21 464.65,83.481 L427.134,136.997 C426.024,138.579 426.409,140.76 427.992,141.869 C429.575,142.977 431.757,142.593 432.866,141.011 L470.386,87.49 C473.017,83.723 477.786,82.103 482.163,83.485 C486.541,84.867 489.512,88.931 489.5,93.519 L489.5,104.023 C489.5,110.517 486.919,116.745 482.324,121.338 C477.729,125.93 471.498,128.509 465,128.509 L434.9,128.509 C432.967,128.509 431.4,130.076 431.4,132.008 C431.4,133.94 432.967,135.506 434.9,135.506 Z" />
            <path d="M492.151,96.922 L499.151,98.671 L499.151,91.884 L492.151,93.633 C490.276,94.102 489.136,96.001 489.604,97.875 C490.073,99.749 491.974,100.889 493.849,100.42 L500.849,98.671 C504.384,97.788 504.384,92.767 500.849,91.884 L493.849,90.135 C491.974,89.666 490.073,90.806 489.604,92.68 C489.136,94.554 490.276,96.454 492.151,96.922 Z" />
            <path d="M454.5,132.008 L454.5,142.502 C454.5,144.434 456.067,146 458,146 C459.933,146 461.5,144.434 461.5,142.502 L461.5,132.008 C461.5,130.076 459.933,128.509 458,128.509 C456.067,128.509 454.5,130.076 454.5,132.008 Z" />
            <path d="M468.5,131.133 L468.5,142.502 C468.5,144.434 470.067,146 472,146 C473.933,146 475.5,144.434 475.5,142.502 L475.5,131.133 C475.5,129.201 473.933,127.635 472,127.635 C470.067,127.635 468.5,129.201 468.5,131.133 Z" />
            <path d="M447.5,135.506 C457.816,135.505 467.026,129.047 470.537,119.352 C474.047,109.658 471.106,98.804 463.18,92.205 C461.695,90.968 459.488,91.169 458.251,92.654 C457.014,94.138 457.215,96.344 458.7,97.58 C464.361,102.294 466.462,110.047 463.954,116.971 C461.447,123.896 454.868,128.509 447.5,128.509 C445.567,128.51 444,130.076 444,132.008 C444,133.94 445.567,135.506 447.5,135.506 Z" />
        </g>
        <g id="Black-M" transform="translate(0,200)">
            <path d="M679,97.027 L679.035,97.027 C680.968,97.027 682.535,95.46 682.535,93.528 C682.535,91.597 680.968,90.03 679.035,90.03 L679,90.03 C677.067,90.03 675.5,91.597 675.5,93.528 C675.5,95.46 677.067,97.027 679,97.027 Z" />
            <path d="M634.9,135.506 L665,135.506 C673.354,135.506 681.366,132.189 687.274,126.285 C693.181,120.38 696.5,112.373 696.5,104.023 L696.5,93.528 C696.52,85.891 691.568,79.117 684.272,76.814 C676.976,74.51 669.029,77.21 664.65,83.481 L627.134,136.997 C626.024,138.579 626.409,140.76 627.992,141.869 C629.575,142.977 631.757,142.593 632.866,141.011 L670.386,87.49 C673.017,83.723 677.786,82.103 682.163,83.485 C686.541,84.867 689.512,88.931 689.5,93.519 L689.5,104.023 C689.5,110.517 686.919,116.745 682.324,121.338 C677.729,125.93 671.498,128.509 665,128.509 L634.9,128.509 C632.967,128.509 631.4,130.076 631.4,132.008 C631.4,133.94 632.967,135.506 634.9,135.506 Z" />
            <path d="M692.151,96.922 L699.151,98.671 L699.151,91.884 L692.151,93.633 C690.276,94.102 689.136,96.001 689.604,97.875 C690.073,99.749 691.974,100.889 693.849,100.42 L700.849,98.671 C704.384,97.788 704.384,92.767 700.849,91.884 L693.849,90.135 C691.974,89.666 690.073,90.806 689.604,92.68 C689.136,94.554 690.276,96.454 692.151,96.922 Z" />
            <path d="M654.5,132.008 L654.5,142.502 C654.5,144.434 656.067,146 658,146 C659.933,146 661.5,144.434 661.5,142.502 L661.5,132.008 C661.5,130.076 659.933,128.509 658,128.509 C656.067,128.509 654.5,130.076 654.5,132.008 Z" />
            <path d="M668.5,131.133 L668.5,142.502 C668.5,144.434 670.067,146 672,146 C673.933,146 675.5,144.434 675.5,142.502 L675.5,131.133 C675.5,129.201 673.933,127.635 672,127.635 C670.067,127.635 668.5,129.201 668.5,131.133 Z" />
            <path d="M647.5,135.506 C657.816,135.505 667.026,129.047 670.537,119.352 C674.047,109.658 671.106,98.804 663.18,92.205 C661.695,90.968 659.488,91.169 658.251,92.654 C657.014,94.138 657.215,96.344 658.7,97.58 C664.361,102.294 666.462,110.047 663.954,116.971 C661.447,123.896 654.868,128.509 647.5,128.509 C645.567,128.51 644,130.076 644,132.008 C644,133.94 645.567,135.506 647.5,135.506 Z" />
        </g>
    </g>
</svg>