<?xml version="1.0" encoding="UTF-8"?>
<svg height="600" width="800" xmlns="http://www.w3.org/2000/svg" xmlns:xlink="http://www.w3.org/1999/xlink">
    <g id="Notes" font-family="LucidaGrande, 'Lucida Grande', sans-serif" font-size="13">
        <rect fill="white" height="600.0" width="800.0" x="0.0" y="0.0" />
        <g font-size="13">
            <text x="18.0" y="176.0">Small</text>
            <text x="18.0" y="376.0">Medium</text>
            <text x="18.0" y="576.0">Large</text>
        </g>
        <g font-size="9">
            <text x="250.0" y="30.0">Ultralight</text>
            <text x="450.0" y="30.0">Regular</text>
            <text x="650.0" y="30.0">Black</text>
            <text id="template-version" fill="#505050" text-anchor="end" x="785.0" y="575.0">Template v.3.0</text>
            <a href="https://github.com/swhitty/SwiftDraw">
                <text fill="#505050" text-anchor="end" x="785.0" y="590.0">https://github.com/swhitty/SwiftDraw</text>
            </a>
        </g>
    </g>
    <g id="Guides" stroke="rgb(39, 170, 225)" stroke-width="0.5">
        <path id="Capline-S" d="M18,76 l800,0" />
        <path id="H-reference" d="M85,145.755 L87.685,145.755 L113.369,79.287 L114.052,79.287 L114.052,76 L112.148,76 L85,145.755 Z M95.693,121.536 L130.996,121.536 L130.263,119.313 L96.474,119.313 L95.693,121.536 Z M139.15,145.755 L141.787,145.755 L114.638,76 L113.466,76 L113.466,79.287 L139.15,145.755 Z" stroke="none" transform="translate(0,200)" />
        <path id="Baseline-S" d="M18,146 l800,0" />
        <path id="left-margin-Ultralight-M" d="M230,256 l0,110" />
        <path id="right-margin-Ultralight-M" d="M300,256 l0,110" />
        <path id="left-margin-Regular-M" d="M430,256 l0,110" />
        <path id="right-margin-Regular-M" d="M500,256 l0,110" />
        <path id="left-margin-Black-M" d="M630,256 l0,110" />
        <path id="right-margin-Black-M" d="M700,256 l0,110" />
        <path id="Capline-M" d="M18,276 l800,0" />
        <path id="Baseline-M" d="M18,346 l800,0" />
        <path id="Capline-L" d="M18,476 l800,0" />
        <path id="Baseline-L" d="M18,546 l800,0" />
    </g>
    <g id="Symbols">
        <g id="Ultralight-M" transform="translate(0,200)">
            <path d="M236.362,114.184 C236.362,100.127 247.755,88.732 261.81,88.732 C275.864,88.732 287.257,100.127 287.257,114.184 C287.257,128.241 275.864,139.637 261.81,139.637 C247.755,139.637 236.362,128.241 236.362,114.184 Z M230,114.184 C230,131.756 244.242,146 261.81,146 C279.378,146 293.619,131.756 293.619,114.184 C293.619,96.613 279.378,82.369 261.81,82.369 C244.242,82.369 230,96.613 230,114.184 Z" />
            <path d="M274.715,89.868 L280.918,83.664 C282.662,81.928 285.49,81.928 287.24,83.669 L292.324,88.754 C293.167,89.594 293.638,90.729 293.638,91.913 C293.638,93.097 293.167,94.233 292.328,95.068 L286.121,101.276 C284.879,102.519 284.879,104.533 286.121,105.776 C287.364,107.018 289.378,107.018 290.62,105.776 L296.823,99.572 C298.855,97.546 300,94.789 300,91.913 C300,89.038 298.855,86.281 296.819,84.251 L291.733,79.165 C287.496,74.947 280.657,74.947 276.425,79.159 L270.217,85.369 C268.974,86.611 268.974,88.626 270.217,89.868 C271.459,91.11 273.473,91.11 274.715,89.868 Z" />
            <path d="M294.551,76.937 L289.78,81.71 C288.537,82.952 288.537,84.967 289.78,86.209 C291.022,87.452 293.036,87.452 294.278,86.209 L299.05,81.437 C300.292,80.194 300.292,78.18 299.05,76.937 C297.807,75.695 295.793,75.695 294.551,76.937 Z" />
        </g>
        <g id="Regular-M" transform="translate(0,200)">
            <path d="M436.362,114.184 C436.362,100.127 447.755,88.732 461.81,88.732 C475.864,88.732 487.257,100.127 487.257,114.184 C487.257,128.241 475.864,139.637 461.81,139.637 C447.755,139.637 436.362,128.241 436.362,114.184 Z M430,114.184 C430,131.756 444.242,146 461.81,146 C479.378,146 493.619,131.756 493.619,114.184 C493.619,96.613 479.378,82.369 461.81,82.369 C444.242,82.369 430,96.613 430,114.184 Z" />
            <path d="M474.715,89.868 L480.918,83.664 C482.662,81.928 485.49,81.928 487.24,83.669 L492.324,88.754 C493.167,89.594 493.638,90.729 493.638,91.913 C493.638,93.097 493.167,94.233 492.328,95.068 L486.121,101.276 C484.879,102.519 484.879,104.533 486.121,105.776 C487.364,107.018 489.378,107.018 490.62,105.776 L496.823,99.572 C498.855,97.546 500,94.789 500,91.913 C500,89.038 498.855,86.281 496.819,84.251 L491.733,79.165 C487.496,74.947 480.657,74.947 476.425,79.159 L470.217,85.369 C468.974,86.611 468.974,88.626 470.217,89.868 C471.459,91.11 473.473,91.11 474.715,89.868 Z" />
            <path d="M494.551,76.937 L489.78,81.71 C488.537,82.952 488.537,84.967 489.78,86.209 C491.022,87.452 493.036,87.452 494.278,86.209 L499.05,81.437 C500.292,80.194 500.292,78.18 499.05,76.937 C497.807,75.695 495.793,75.695 494.551,76.937 Z" />
        </g>
        <g id="Black-M" transform="translate(0,200)">
            <path d="M636.362,114.184 C636.362,100.127 647.755,88.732 661.81,88.732 C675.864,88.732 687.257,100.127 687.257,114.184 C687.257,128.241 675.864,139.637 661.81,139.637 C647.755,139.637 636.362,128.241 636.362,114.184 Z M630,114.184 C630,131.756 644.242,146 661.81,146 C679.378,146 693.619,131.756 693.619,114.184 C693.619,96.613 679.378,82.369 661.81,82.369 C644.242,82.369 630,96.613 630,114.184 Z" />
            <path d="M674.715,89.868 L680.918,83.664 C682.662,81.928 685.49,81.928 687.24,83.669 L692.324,88.754 C693.167,89.594 693.638,90.729 693.638,91.913 C693.638,93.097 693.167,94.233 692.328,95.068 L686.121,101.276 C684.879,102.519 684.879,104.533 686.121,105.776 C687.364,107.018 689.378,107.018 690.62,105.776 L696.823,99.572 C698.855,97.546 700,94.789 700,91.913 C700,89.038 698.855,86.281 696.819,84.251 L691.733,79.165 C687.496,74.947 680.657,74.947 676.425,79.159 L670.217,85.369 C668.974,86.611 668.974,88.626 670.217,89.868 C671.459,91.11 673.473,91.11 674.715,89.868 Z" />
            <path d="M694.551,76.937 L689.78,81.71 C688.537,82.952 688.537,84.967 689.78,86.209 C691.022,87.452 693.036,87.452 694.278,86.209 L699.05,81.437 C700.292,80.194 700.292,78.18 699.05,76.937 C697.807,75.695 695.793,75.695 694.551,76.937 Z" />
        </g>
    </g>
</svg>