<?xml version="1.0" encoding="UTF-8"?>
<svg height="600" width="800" xmlns="http://www.w3.org/2000/svg" xmlns:xlink="http://www.w3.org/1999/xlink">
    <g id="Notes" font-family="LucidaGrande, 'Lucida Grande', sans-serif" font-size="13">
        <rect fill="white" height="600.0" width="800.0" x="0.0" y="0.0" />
        <g font-size="13">
            <text x="18.0" y="176.0">Small</text>
            <text x="18.0" y="376.0">Medium</text>
            <text x="18.0" y="576.0">Large</text>
        </g>
        <g font-size="9">
            <text x="250.0" y="30.0">Ultralight</text>
            <text x="450.0" y="30.0">Regular</text>
            <text x="650.0" y="30.0">Black</text>
            <text id="template-version" fill="#505050" text-anchor="end" x="785.0" y="575.0">Template v.3.0</text>
            <a href="https://github.com/swhitty/SwiftDraw">
                <text fill="#505050" text-anchor="end" x="785.0" y="590.0">https://github.com/swhitty/SwiftDraw</text>
            </a>
        </g>
    </g>
    <g id="Guides" stroke="rgb(39, 170, 225)" stroke-width="0.5">
        <path id="Capline-S" d="M18,76 l800,0" />
        <path id="H-reference" d="M85,145.755 L87.685,145.755 L113.369,79.287 L114.052,79.287 L114.052,76 L112.148,76 L85,145.755 Z M95.693,121.536 L130.996,121.536 L130.263,119.313 L96.474,119.313 L95.693,121.536 Z M139.15,145.755 L141.787,145.755 L114.638,76 L113.466,76 L113.466,79.287 L139.15,145.755 Z" stroke="none" transform="translate(0,200)" />
        <path id="Baseline-S" d="M18,146 l800,0" />
        <path id="left-margin-Ultralight-M" d="M233.182,256 l0,110" />
        <path id="right-margin-Ultralight-M" d="M296.818,256 l0,110" />
        <path id="left-margin-Regular-M" d="M433.182,256 l0,110" />
        <path id="right-margin-Regular-M" d="M496.818,256 l0,110" />
        <path id="left-margin-Black-M" d="M633.182,256 l0,110" />
        <path id="right-margin-Black-M" d="M696.818,256 l0,110" />
        <path id="Capline-M" d="M18,276 l800,0" />
        <path id="Baseline-M" d="M18,346 l800,0" />
        <path id="Capline-L" d="M18,476 l800,0" />
        <path id="Baseline-L" d="M18,546 l800,0" />
    </g>
    <g id="Symbols">
        <g id="Ultralight-M" transform="translate(0,200)">
            <path d="M242.727,91.909 C240.196,91.909 237.768,92.915 235.978,94.705 C234.188,96.495 233.182,98.923 233.182,101.455 L233.182,136.455 C233.182,138.212 234.606,139.636 236.364,139.636 C238.121,139.636 239.545,138.212 239.545,136.455 L239.545,101.455 C239.545,100.611 239.881,99.801 240.477,99.205 C241.074,98.608 241.883,98.273 242.727,98.273 C244.485,98.273 245.909,96.848 245.909,95.091 C245.909,93.334 244.485,91.909 242.727,91.909 Z" />
            <path d="M245.282,126.909 L242.727,126.909 C237.455,126.909 233.182,131.183 233.182,136.455 C233.182,141.726 237.455,146 242.727,146 L272.955,146 C274.22,146 275.434,145.497 276.329,144.602 C277.224,143.707 277.727,142.493 277.727,141.227 L277.727,139.636 C277.727,137.879 276.303,136.455 274.545,136.455 C272.788,136.455 271.364,137.879 271.364,139.636 L271.364,141.227 C271.364,140.805 271.531,140.401 271.83,140.102 C272.128,139.804 272.533,139.636 272.955,139.636 L242.727,139.636 C240.97,139.636 239.545,138.212 239.545,136.455 C239.545,134.697 240.97,133.273 242.727,133.273 L245.282,133.273 C247.04,133.273 248.464,131.848 248.464,130.091 C248.464,128.334 247.04,126.909 245.282,126.909 Z" />
            <path d="M258.636,120.545 L258.636,85.545 C258.636,84.702 258.972,83.892 259.568,83.296 C260.165,82.699 260.974,82.364 261.818,82.364 L292.045,82.364 C291.624,82.364 291.219,82.196 290.921,81.898 C290.622,81.599 290.455,81.195 290.455,80.773 L290.455,125.318 C290.455,124.896 290.622,124.492 290.921,124.193 C291.219,123.895 291.624,123.727 292.045,123.727 L261.818,123.727 C260.061,123.727 258.636,122.303 258.636,120.545 C258.636,118.788 260.061,117.364 261.818,117.364 L293.636,117.364 C295.394,117.364 296.818,115.939 296.818,114.182 C296.818,112.425 295.394,111 293.636,111 L261.818,111 C256.546,111 252.273,115.274 252.273,120.545 C252.273,125.817 256.546,130.091 261.818,130.091 L292.045,130.091 C293.311,130.091 294.525,129.588 295.42,128.693 C296.315,127.798 296.818,126.584 296.818,125.318 L296.818,80.773 C296.818,79.507 296.315,78.293 295.42,77.398 C294.525,76.503 293.311,76 292.045,76 L261.818,76 C259.287,76 256.859,77.006 255.069,78.796 C253.278,80.586 252.273,83.014 252.273,85.545 L252.273,120.545 C252.273,122.303 253.697,123.727 255.455,123.727 C257.212,123.727 258.636,122.303 258.636,120.545 Z" />
        </g>
        <g id="Regular-M" transform="translate(0,200)">
            <path d="M442.727,91.909 C440.196,91.909 437.768,92.915 435.978,94.705 C434.188,96.495 433.182,98.923 433.182,101.455 L433.182,136.455 C433.182,138.212 434.606,139.636 436.364,139.636 C438.121,139.636 439.545,138.212 439.545,136.455 L439.545,101.455 C439.545,100.611 439.881,99.801 440.477,99.205 C441.074,98.608 441.883,98.273 442.727,98.273 C444.485,98.273 445.909,96.848 445.909,95.091 C445.909,93.334 444.485,91.909 442.727,91.909 Z" />
            <path d="M445.282,126.909 L442.727,126.909 C437.455,126.909 433.182,131.183 433.182,136.455 C433.182,141.726 437.455,146 442.727,146 L472.955,146 C474.22,146 475.434,145.497 476.329,144.602 C477.224,143.707 477.727,142.493 477.727,141.227 L477.727,139.636 C477.727,137.879 476.303,136.455 474.545,136.455 C472.788,136.455 471.364,137.879 471.364,139.636 L471.364,141.227 C471.364,140.805 471.531,140.401 471.83,140.102 C472.128,139.804 472.533,139.636 472.955,139.636 L442.727,139.636 C440.97,139.636 439.545,138.212 439.545,136.455 C439.545,134.697 440.97,133.273 442.727,133.273 L445.282,133.273 C447.04,133.273 448.464,131.848 448.464,130.091 C448.464,128.334 447.04,126.909 445.282,126.909 Z" />
            <path d="M458.636,120.545 L458.636,85.545 C458.636,84.702 458.972,83.892 459.568,83.296 C460.165,82.699 460.974,82.364 461.818,82.364 L492.045,82.364 C491.624,82.364 491.219,82.196 490.921,81.898 C490.622,81.599 490.455,81.195 490.455,80.773 L490.455,125.318 C490.455,124.896 490.622,124.492 490.921,124.193 C491.219,123.895 491.624,123.727 492.045,123.727 L461.818,123.727 C460.061,123.727 458.636,122.303 458.636,120.545 C458.636,118.788 460.061,117.364 461.818,117.364 L493.636,117.364 C495.394,117.364 496.818,115.939 496.818,114.182 C496.818,112.425 495.394,111 493.636,111 L461.818,111 C456.546,111 452.273,115.274 452.273,120.545 C452.273,125.817 456.546,130.091 461.818,130.091 L492.045,130.091 C493.311,130.091 494.525,129.588 495.42,128.693 C496.315,127.798 496.818,126.584 496.818,125.318 L496.818,80.773 C496.818,79.507 496.315,78.293 495.42,77.398 C494.525,76.503 493.311,76 492.045,76 L461.818,76 C459.287,76 456.859,77.006 455.069,78.796 C453.278,80.586 452.273,83.014 452.273,85.545 L452.273,120.545 C452.273,122.303 453.697,123.727 455.455,123.727 C457.212,123.727 458.636,122.303 458.636,120.545 Z" />
        </g>
        <g id="Black-M" transform="translate(0,200)">
            <path d="M642.727,91.909 C640.196,91.909 637.768,92.915 635.978,94.705 C634.188,96.495 633.182,98.923 633.182,101.455 L633.182,136.455 C633.182,138.212 634.606,139.636 636.364,139.636 C638.121,139.636 639.545,138.212 639.545,136.455 L639.545,101.455 C639.545,100.611 639.881,99.801 640.477,99.205 C641.074,98.608 641.883,98.273 642.727,98.273 C644.485,98.273 645.909,96.848 645.909,95.091 C645.909,93.334 644.485,91.909 642.727,91.909 Z" />
            <path d="M645.282,126.909 L642.727,126.909 C637.455,126.909 633.182,131.183 633.182,136.455 C633.182,141.726 637.455,146 642.727,146 L672.955,146 C674.22,146 675.434,145.497 676.329,144.602 C677.224,143.707 677.727,142.493 677.727,141.227 L677.727,139.636 C677.727,137.879 676.303,136.455 674.545,136.455 C672.788,136.455 671.364,137.879 671.364,139.636 L671.364,141.227 C671.364,140.805 671.531,140.401 671.83,140.102 C672.128,139.804 672.533,139.636 672.955,139.636 L642.727,139.636 C640.97,139.636 639.545,138.212 639.545,136.455 C639.545,134.697 640.97,133.273 642.727,133.273 L645.282,133.273 C647.04,133.273 648.464,131.848 648.464,130.091 C648.464,128.334 647.04,126.909 645.282,126.909 Z" />
            <path d="M658.636,120.545 L658.636,85.545 C658.636,84.702 658.972,83.892 659.568,83.296 C660.165,82.699 660.974,82.364 661.818,82.364 L692.045,82.364 C691.624,82.364 691.219,82.196 690.921,81.898 C690.622,81.599 690.455,81.195 690.455,80.773 L690.455,125.318 C690.455,124.896 690.622,124.492 690.92,124.193 C691.219,123.895 691.624,123.727 692.045,123.727 L661.818,123.727 C660.061,123.727 658.636,122.303 658.636,120.545 C658.636,118.788 660.061,117.364 661.818,117.364 L693.636,117.364 C695.394,117.364 696.818,115.939 696.818,114.182 C696.818,112.425 695.394,111 693.636,111 L661.818,111 C656.546,111 652.273,115.274 652.273,120.545 C652.273,125.817 656.546,130.091 661.818,130.091 L692.045,130.091 C693.311,130.091 694.525,129.588 695.42,128.693 C696.315,127.798 696.818,126.584 696.818,125.318 L696.818,80.773 C696.818,79.507 696.315,78.293 695.42,77.398 C694.525,76.503 693.311,76 692.045,76 L661.818,76 C659.287,76 656.859,77.006 655.069,78.796 C653.278,80.586 652.273,83.014 652.273,85.545 L652.273,120.545 C652.273,122.303 653.697,123.727 655.455,123.727 C657.212,123.727 658.636,122.303 658.636,120.545 Z" />
        </g>
    </g>
</svg>