<?xml version="1.0" encoding="UTF-8"?>
<svg height="600" width="800" xmlns="http://www.w3.org/2000/svg" xmlns:xlink="http://www.w3.org/1999/xlink">
    <g id="Notes" font-family="LucidaGrande, 'Lucida Grande', sans-serif" font-size="13">
        <rect fill="white" height="600.0" width="800.0" x="0.0" y="0.0" />
        <g font-size="13">
            <text x="18.0" y="176.0">Small</text>
            <text x="18.0" y="376.0">Medium</text>
            <text x="18.0" y="576.0">Large</text>
        </g>
        <g font-size="9">
            <text x="250.0" y="30.0">Ultralight</text>
            <text x="450.0" y="30.0">Regular</text>
            <text x="650.0" y="30.0">Black</text>
            <text id="template-version" fill="#505050" text-anchor="end" x="785.0" y="575.0">Template v.3.0</text>
            <a href="https://github.com/swhitty/SwiftDraw">
                <text fill="#505050" text-anchor="end" x="785.0" y="590.0">https://github.com/swhitty/SwiftDraw</text>
            </a>
        </g>
    </g>
    <g id="Guides" stroke="rgb(39, 170, 225)" stroke-width="0.5">
        <path id="Capline-S" d="M18,76 l800,0" />
        <path id="H-reference" d="M85,145.755 L87.685,145.755 L113.369,79.287 L114.052,79.287 L114.052,76 L112.148,76 L85,145.755 Z M95.693,121.536 L130.996,121.536 L130.263,119.313 L96.474,119.313 L95.693,121.536 Z M139.15,145.755 L141.787,145.755 L114.638,76 L113.466,76 L113.466,79.287 L139.15,145.755 Z" stroke="none" transform="translate(0,200)" />
        <path id="Baseline-S" d="M18,146 l800,0" />
        <path id="left-margin-Ultralight-M" d="M236.364,256 l0,110" />
        <path id="right-margin-Ultralight-M" d="M293.636,256 l0,110" />
        <path id="left-margin-Regular-M" d="M436.364,256 l0,110" />
        <path id="right-margin-Regular-M" d="M493.636,256 l0,110" />
        <path id="left-margin-Black-M" d="M636.364,256 l0,110" />
        <path id="right-margin-Black-M" d="M693.636,256 l0,110" />
        <path id="Capline-M" d="M18,276 l800,0" />
        <path id="Baseline-M" d="M18,346 l800,0" />
        <path id="Capline-L" d="M18,476 l800,0" />
        <path id="Baseline-L" d="M18,546 l800,0" />
    </g>
    <g id="Symbols">
        <g id="Ultralight-M" transform="translate(0,200)">
            <path d="M242.727,134.864 L242.727,87.136 C242.727,85.871 243.23,84.657 244.125,83.762 C245.02,82.866 246.234,82.364 247.5,82.364 L287.273,82.364 C287.273,82.364 287.273,82.364 287.273,82.364 C287.273,82.364 287.273,82.364 287.273,82.364 L287.273,139.636 C287.273,139.636 287.273,139.636 287.273,139.636 C287.273,139.636 287.273,139.636 287.273,139.636 L247.5,139.636 C244.864,139.636 242.727,137.5 242.727,134.864 C242.727,132.228 244.864,130.091 247.5,130.091 L290.455,130.091 C292.212,130.091 293.636,128.666 293.636,126.909 C293.636,125.152 292.212,123.727 290.455,123.727 L247.5,123.727 C241.35,123.727 236.364,128.713 236.364,134.864 C236.364,141.014 241.35,146 247.5,146 L287.273,146 C288.96,146 290.579,145.33 291.772,144.136 C292.966,142.943 293.636,141.324 293.636,139.636 L293.636,82.364 C293.636,80.676 292.966,79.057 291.772,77.864 C290.579,76.67 288.96,76 287.273,76 L247.5,76 C244.546,76 241.714,77.173 239.625,79.262 C237.537,81.35 236.364,84.183 236.364,87.136 L236.364,134.864 C236.364,136.621 237.788,138.045 239.545,138.045 C241.303,138.045 242.727,136.621 242.727,134.864 Z" />
            <path d="M252.273,111 L277.727,111 C279.485,111 280.909,109.575 280.909,107.818 C280.909,106.061 279.485,104.636 277.727,104.636 L252.273,104.636 C250.515,104.636 249.091,106.061 249.091,107.818 C249.091,109.575 250.515,111 252.273,111 Z" />
            <path d="M252.273,98.273 L271.364,98.273 C273.121,98.273 274.545,96.848 274.545,95.091 C274.545,93.334 273.121,91.909 271.364,91.909 L252.273,91.909 C250.515,91.909 249.091,93.334 249.091,95.091 C249.091,96.848 250.515,98.273 252.273,98.273 Z" />
        </g>
        <g id="Regular-M" transform="translate(0,200)">
            <path d="M442.727,134.864 L442.727,87.136 C442.727,85.871 443.23,84.657 444.125,83.762 C445.02,82.866 446.234,82.364 447.5,82.364 L487.273,82.364 C487.273,82.364 487.273,82.364 487.273,82.364 C487.273,82.364 487.273,82.364 487.273,82.364 L487.273,139.636 C487.273,139.636 487.273,139.636 487.273,139.636 C487.273,139.636 487.273,139.636 487.273,139.636 L447.5,139.636 C444.864,139.636 442.727,137.5 442.727,134.864 C442.727,132.228 444.864,130.091 447.5,130.091 L490.455,130.091 C492.212,130.091 493.636,128.666 493.636,126.909 C493.636,125.152 492.212,123.727 490.455,123.727 L447.5,123.727 C441.35,123.727 436.364,128.713 436.364,134.864 C436.364,141.014 441.35,146 447.5,146 L487.273,146 C488.96,146 490.579,145.33 491.772,144.136 C492.966,142.943 493.636,141.324 493.636,139.636 L493.636,82.364 C493.636,80.676 492.966,79.057 491.773,77.864 C490.579,76.67 488.96,76 487.273,76 L447.5,76 C444.546,76 441.714,77.173 439.625,79.262 C437.537,81.35 436.364,84.183 436.364,87.136 L436.364,134.864 C436.364,136.621 437.788,138.045 439.545,138.045 C441.303,138.045 442.727,136.621 442.727,134.864 Z" />
            <path d="M452.273,111 L477.727,111 C479.485,111 480.909,109.575 480.909,107.818 C480.909,106.061 479.485,104.636 477.727,104.636 L452.273,104.636 C450.515,104.636 449.091,106.061 449.091,107.818 C449.091,109.575 450.515,111 452.273,111 Z" />
            <path d="M452.273,98.273 L471.364,98.273 C473.121,98.273 474.545,96.848 474.545,95.091 C474.545,93.334 473.121,91.909 471.364,91.909 L452.273,91.909 C450.515,91.909 449.091,93.334 449.091,95.091 C449.091,96.848 450.515,98.273 452.273,98.273 Z" />
        </g>
        <g id="Black-M" transform="translate(0,200)">
            <path d="M642.727,134.864 L642.727,87.136 C642.727,85.871 643.23,84.657 644.125,83.762 C645.02,82.866 646.234,82.364 647.5,82.364 L687.273,82.364 C687.273,82.364 687.273,82.364 687.273,82.364 C687.273,82.364 687.273,82.364 687.273,82.364 L687.273,139.636 C687.273,139.636 687.273,139.636 687.273,139.636 C687.273,139.636 687.273,139.636 687.273,139.636 L647.5,139.636 C644.864,139.636 642.727,137.5 642.727,134.864 C642.727,132.228 644.864,130.091 647.5,130.091 L690.455,130.091 C692.212,130.091 693.636,128.666 693.636,126.909 C693.636,125.152 692.212,123.727 690.455,123.727 L647.5,123.727 C641.35,123.727 636.364,128.713 636.364,134.864 C636.364,141.014 641.35,146 647.5,146 L687.273,146 C688.96,146 690.579,145.33 691.773,144.136 C692.966,142.943 693.636,141.324 693.636,139.636 L693.636,82.364 C693.636,80.676 692.966,79.057 691.773,77.864 C690.579,76.67 688.96,76 687.273,76 L647.5,76 C644.546,76 641.714,77.173 639.625,79.262 C637.537,81.35 636.364,84.183 636.364,87.136 L636.364,134.864 C636.364,136.621 637.788,138.045 639.545,138.045 C641.303,138.045 642.727,136.621 642.727,134.864 Z" />
            <path d="M652.273,111 L677.727,111 C679.485,111 680.909,109.575 680.909,107.818 C680.909,106.061 679.485,104.636 677.727,104.636 L652.273,104.636 C650.515,104.636 649.091,106.061 649.091,107.818 C649.091,109.575 650.515,111 652.273,111 Z" />
            <path d="M652.273,98.273 L671.364,98.273 C673.121,98.273 674.545,96.848 674.545,95.091 C674.545,93.334 673.121,91.909 671.364,91.909 L652.273,91.909 C650.515,91.909 649.091,93.334 649.091,95.091 C649.091,96.848 650.515,98.273 652.273,98.273 Z" />
        </g>
    </g>
</svg>