<?xml version="1.0" encoding="UTF-8"?>
<svg height="600" width="800" xmlns="http://www.w3.org/2000/svg" xmlns:xlink="http://www.w3.org/1999/xlink">
    <g id="Notes" font-family="LucidaGrande, 'Lucida Grande', sans-serif" font-size="13">
        <rect fill="white" height="600.0" width="800.0" x="0.0" y="0.0" />
        <g font-size="13">
            <text x="18.0" y="176.0">Small</text>
            <text x="18.0" y="376.0">Medium</text>
            <text x="18.0" y="576.0">Large</text>
        </g>
        <g font-size="9">
            <text x="250.0" y="30.0">Ultralight</text>
            <text x="450.0" y="30.0">Regular</text>
            <text x="650.0" y="30.0">Black</text>
            <text id="template-version" fill="#505050" text-anchor="end" x="785.0" y="575.0">Template v.3.0</text>
            <a href="https://github.com/swhitty/SwiftDraw">
                <text fill="#505050" text-anchor="end" x="785.0" y="590.0">https://github.com/swhitty/SwiftDraw</text>
            </a>
        </g>
    </g>
    <g id="Guides" stroke="rgb(39, 170, 225)" stroke-width="0.5">
        <path id="Capline-S" d="M18,76 l800,0" />
        <path id="H-reference" d="M85,145.755 L87.685,145.755 L113.369,79.287 L114.052,79.287 L114.052,76 L112.148,76 L85,145.755 Z M95.693,121.536 L130.996,121.536 L130.263,119.313 L96.474,119.313 L95.693,121.536 Z M139.15,145.755 L141.787,145.755 L114.638,76 L113.466,76 L113.466,79.287 L139.15,145.755 Z" stroke="none" transform="translate(0,200)" />
        <path id="Baseline-S" d="M18,146 l800,0" />
        <path id="left-margin-Ultralight-M" d="M235.526,256 l0,110" />
        <path id="right-margin-Ultralight-M" d="M294.474,256 l0,110" />
        <path id="left-margin-Regular-M" d="M435.526,256 l0,110" />
        <path id="right-margin-Regular-M" d="M494.474,256 l0,110" />
        <path id="left-margin-Black-M" d="M635.526,256 l0,110" />
        <path id="right-margin-Black-M" d="M694.474,256 l0,110" />
        <path id="Capline-M" d="M18,276 l800,0" />
        <path id="Baseline-M" d="M18,346 l800,0" />
        <path id="Capline-L" d="M18,476 l800,0" />
        <path id="Baseline-L" d="M18,546 l800,0" />
    </g>
    <g id="Symbols">
        <g id="Ultralight-M" transform="translate(0,200)">
            <path d="M261.316,93.5 L261.316,114.501 C261.316,116.434 262.965,118.001 265,118.001 C267.035,118.001 268.684,116.434 268.684,114.501 L268.684,93.5 C268.684,91.567 267.035,90 265,90 C262.965,90 261.316,91.567 261.316,93.5 Z" />
            <path d="M276.053,100.5 L253.947,100.5 C251.913,100.5 250.263,102.067 250.263,104 C250.263,105.933 251.913,107.501 253.947,107.501 L276.053,107.501 C278.087,107.501 279.737,105.933 279.737,104 C279.737,102.067 278.087,100.5 276.053,100.5 Z" />
            <path d="M283.421,83 C284.398,83 285.335,83.369 286.026,84.025 C286.717,84.682 287.105,85.572 287.105,86.5 L287.105,139.001 C287.105,139 287.105,139 287.105,139 C287.105,139 287.105,139 287.105,139 L270.482,129.977 C267.085,128.133 262.915,128.133 259.518,129.977 L242.894,139 C242.895,139 242.895,139 242.895,139 C242.895,139 242.895,139 242.895,139 L242.895,86.5 C242.895,85.572 243.283,84.682 243.974,84.025 C244.665,83.369 245.602,83 246.579,83 L283.421,83 Z M283.421,76 L246.579,76 C243.648,76 240.836,77.106 238.764,79.075 C236.691,81.045 235.526,83.715 235.526,86.5 L235.526,139.001 C235.527,141.497 236.926,143.803 239.197,145.055 C241.468,146.307 244.269,146.316 246.549,145.078 L263.173,136.055 C264.305,135.441 265.695,135.441 266.827,136.055 L283.45,145.078 C285.731,146.316 288.532,146.307 290.803,145.055 C293.074,143.803 294.473,141.497 294.474,139.002 L294.474,86.5 C294.474,83.715 293.309,81.045 291.236,79.075 C289.164,77.106 286.352,76 283.421,76 Z" />
        </g>
        <g id="Regular-M" transform="translate(0,200)">
            <path d="M461.316,93.5 L461.316,114.501 C461.316,116.434 462.965,118.001 465,118.001 C467.035,118.001 468.684,116.434 468.684,114.501 L468.684,93.5 C468.684,91.567 467.035,90 465,90 C462.965,90 461.316,91.567 461.316,93.5 Z" />
            <path d="M476.053,100.5 L453.947,100.5 C451.913,100.5 450.263,102.067 450.263,104 C450.263,105.933 451.913,107.501 453.947,107.501 L476.053,107.501 C478.087,107.501 479.737,105.933 479.737,104 C479.737,102.067 478.087,100.5 476.053,100.5 Z" />
            <path d="M483.421,83 C484.398,83 485.335,83.369 486.026,84.025 C486.717,84.682 487.105,85.572 487.105,86.5 L487.105,139.001 C487.105,139 487.105,139 487.105,139 C487.105,139 487.105,139 487.105,139 L470.482,129.977 C467.085,128.133 462.915,128.133 459.518,129.977 L442.894,139 C442.895,139 442.895,139 442.895,139 C442.895,139 442.895,139 442.895,139 L442.895,86.5 C442.895,85.572 443.283,84.682 443.974,84.025 C444.665,83.369 445.602,83 446.579,83 L483.421,83 Z M483.421,76 L446.579,76 C443.648,76 440.836,77.106 438.764,79.075 C436.691,81.045 435.526,83.715 435.526,86.5 L435.526,139.001 C435.527,141.497 436.926,143.803 439.197,145.055 C441.468,146.307 444.269,146.316 446.549,145.078 L463.173,136.055 C464.305,135.441 465.695,135.441 466.827,136.055 L483.45,145.078 C485.731,146.316 488.532,146.307 490.803,145.055 C493.074,143.803 494.473,141.497 494.474,139.002 L494.474,86.5 C494.474,83.715 493.309,81.045 491.236,79.075 C489.164,77.106 486.352,76 483.421,76 Z" />
        </g>
        <g id="Black-M" transform="translate(0,200)">
            <path d="M661.316,93.5 L661.316,114.501 C661.316,116.434 662.965,118.001 665,118.001 C667.035,118.001 668.684,116.434 668.684,114.501 L668.684,93.5 C668.684,91.567 667.035,90 665,90 C662.965,90 661.316,91.567 661.316,93.5 Z" />
            <path d="M676.053,100.5 L653.947,100.5 C651.913,100.5 650.263,102.067 650.263,104 C650.263,105.933 651.913,107.501 653.947,107.501 L676.053,107.501 C678.087,107.501 679.737,105.933 679.737,104 C679.737,102.067 678.087,100.5 676.053,100.5 Z" />
            <path d="M683.421,83 C684.398,83 685.335,83.369 686.026,84.025 C686.717,84.682 687.105,85.572 687.105,86.5 L687.105,139.001 C687.105,139 687.105,139 687.105,139 C687.105,139 687.105,139 687.105,139 L670.482,129.977 C667.085,128.133 662.915,128.133 659.518,129.977 L642.894,139 C642.895,139 642.895,139 642.895,139 C642.895,139 642.895,139 642.895,139 L642.895,86.5 C642.895,85.572 643.283,84.682 643.974,84.025 C644.665,83.369 645.602,83 646.579,83 L683.421,83 Z M683.421,76 L646.579,76 C643.648,76 640.836,77.106 638.764,79.075 C636.691,81.045 635.526,83.715 635.526,86.5 L635.526,139.001 C635.527,141.497 636.926,143.803 639.197,145.055 C641.468,146.307 644.269,146.316 646.549,145.078 L663.173,136.055 C664.305,135.441 665.695,135.441 666.827,136.055 L683.45,145.078 C685.731,146.316 688.532,146.307 690.803,145.055 C693.074,143.803 694.473,141.497 694.474,139.002 L694.474,86.5 C694.474,83.715 693.309,81.045 691.236,79.075 C689.164,77.106 686.352,76 683.421,76 Z" />
        </g>
    </g>
</svg>