<?xml version="1.0" encoding="UTF-8"?>
<svg height="600" width="800" xmlns="http://www.w3.org/2000/svg" xmlns:xlink="http://www.w3.org/1999/xlink">
    <g id="Notes" font-family="LucidaGrande, 'Lucida Grande', sans-serif" font-size="13">
        <rect fill="white" height="600.0" width="800.0" x="0.0" y="0.0" />
        <g font-size="13">
            <text x="18.0" y="176.0">Small</text>
            <text x="18.0" y="376.0">Medium</text>
            <text x="18.0" y="576.0">Large</text>
        </g>
        <g font-size="9">
            <text x="250.0" y="30.0">Ultralight</text>
            <text x="450.0" y="30.0">Regular</text>
            <text x="650.0" y="30.0">Black</text>
            <text id="template-version" fill="#505050" text-anchor="end" x="785.0" y="575.0">Template v.3.0</text>
            <a href="https://github.com/swhitty/SwiftDraw">
                <text fill="#505050" text-anchor="end" x="785.0" y="590.0">https://github.com/swhitty/SwiftDraw</text>
            </a>
        </g>
    </g>
    <g id="Guides" stroke="rgb(39, 170, 225)" stroke-width="0.5">
        <path id="Capline-S" d="M18,76 l800,0" />
        <path id="H-reference" d="M85,145.755 L87.685,145.755 L113.369,79.287 L114.052,79.287 L114.052,76 L112.148,76 L85,145.755 Z M95.693,121.536 L130.996,121.536 L130.263,119.313 L96.474,119.313 L95.693,121.536 Z M139.15,145.755 L141.787,145.755 L114.638,76 L113.466,76 L113.466,79.287 L139.15,145.755 Z" stroke="none" transform="translate(0,200)" />
        <path id="Baseline-S" d="M18,146 l800,0" />
        <path id="left-margin-Ultralight-M" d="M226.5,256 l0,110" />
        <path id="right-margin-Ultralight-M" d="M303.5,256 l0,110" />
        <path id="left-margin-Regular-M" d="M426.5,256 l0,110" />
        <path id="right-margin-Regular-M" d="M503.5,256 l0,110" />
        <path id="left-margin-Black-M" d="M626.5,256 l0,110" />
        <path id="right-margin-Black-M" d="M703.5,256 l0,110" />
        <path id="Capline-M" d="M18,276 l800,0" />
        <path id="Baseline-M" d="M18,346 l800,0" />
        <path id="Capline-L" d="M18,476 l800,0" />
        <path id="Baseline-L" d="M18,546 l800,0" />
    </g>
    <g id="Symbols">
        <g id="Ultralight-M" transform="translate(0,200)">
            <path d="M261.5,93.5 L261.5,142.5 C261.5,144.433 263.067,146 265,146 C266.933,146 268.5,144.433 268.5,142.5 L268.5,93.5 C268.5,91.567 266.933,90 265,90 C263.067,90 261.5,91.567 261.5,93.5 Z" />
            <path d="M233.5,128.5 C233.5,128.5 233.5,128.5 233.5,128.5 C233.5,128.5 233.5,128.5 233.5,128.5 L233.5,83 C233.5,83 233.5,83 233.5,83 C233.5,83 233.5,83 233.5,83 L251,83 C253.785,83 256.455,84.106 258.425,86.075 C260.394,88.045 261.5,90.715 261.5,93.5 L268.5,93.5 C268.5,90.715 269.606,88.045 271.575,86.075 C273.544,84.106 276.215,83 279,83 L296.5,83 C296.5,83 296.5,83 296.5,83 C296.5,83 296.5,83 296.5,83 L296.5,128.5 C296.5,128.5 296.5,128.5 296.5,128.5 C296.5,128.5 296.5,128.5 296.5,128.5 L275.5,128.5 C271.787,128.5 268.226,129.975 265.6,132.6 C262.975,135.226 261.5,138.787 261.5,142.5 L265,142.5 L268.5,142.5 C268.5,138.787 267.025,135.226 264.4,132.6 C261.774,129.975 258.213,128.5 254.5,128.5 L233.5,128.5 Z M233.5,135.5 L254.5,135.5 C256.357,135.5 258.137,136.238 259.45,137.55 C260.763,138.863 261.5,140.643 261.5,142.5 C261.5,147.167 268.5,147.167 268.5,142.5 C268.5,140.643 269.237,138.863 270.55,137.55 C271.863,136.238 273.643,135.5 275.5,135.5 L296.5,135.5 C298.357,135.5 300.137,134.763 301.45,133.45 C302.763,132.137 303.5,130.357 303.5,128.5 L303.5,83 C303.5,81.143 302.763,79.363 301.45,78.05 C300.137,76.737 298.357,76 296.5,76 L279,76 C274.359,76 269.908,77.844 266.626,81.126 C263.344,84.408 261.5,88.859 261.5,93.5 C261.5,98.167 268.5,98.167 268.5,93.5 C268.5,88.859 266.656,84.408 263.374,81.126 C260.092,77.844 255.641,76 251,76 L233.5,76 C231.643,76 229.863,76.737 228.55,78.05 C227.238,79.363 226.5,81.143 226.5,83 L226.5,128.5 C226.5,130.357 227.237,132.137 228.55,133.45 C229.863,134.763 231.643,135.5 233.5,135.5 Z" />
        </g>
        <g id="Regular-M" transform="translate(0,200)">
            <path d="M461.5,93.5 L461.5,142.5 C461.5,144.433 463.067,146 465,146 C466.933,146 468.5,144.433 468.5,142.5 L468.5,93.5 C468.5,91.567 466.933,90 465,90 C463.067,90 461.5,91.567 461.5,93.5 Z" />
            <path d="M433.5,128.5 C433.5,128.5 433.5,128.5 433.5,128.5 C433.5,128.5 433.5,128.5 433.5,128.5 L433.5,83 C433.5,83 433.5,83 433.5,83 C433.5,83 433.5,83 433.5,83 L451,83 C453.785,83 456.455,84.106 458.425,86.075 C460.394,88.045 461.5,90.715 461.5,93.5 L468.5,93.5 C468.5,90.715 469.606,88.045 471.575,86.075 C473.544,84.106 476.215,83 479,83 L496.5,83 C496.5,83 496.5,83 496.5,83 C496.5,83 496.5,83 496.5,83 L496.5,128.5 C496.5,128.5 496.5,128.5 496.5,128.5 C496.5,128.5 496.5,128.5 496.5,128.5 L475.5,128.5 C471.787,128.5 468.226,129.975 465.6,132.6 C462.975,135.226 461.5,138.787 461.5,142.5 L465,142.5 L468.5,142.5 C468.5,138.787 467.025,135.226 464.4,132.6 C461.774,129.975 458.213,128.5 454.5,128.5 L433.5,128.5 Z M433.5,135.5 L454.5,135.5 C456.357,135.5 458.137,136.238 459.45,137.55 C460.763,138.863 461.5,140.643 461.5,142.5 C461.5,147.167 468.5,147.167 468.5,142.5 C468.5,140.643 469.237,138.863 470.55,137.55 C471.863,136.238 473.643,135.5 475.5,135.5 L496.5,135.5 C498.357,135.5 500.137,134.763 501.45,133.45 C502.763,132.137 503.5,130.357 503.5,128.5 L503.5,83 C503.5,81.143 502.763,79.363 501.45,78.05 C500.137,76.737 498.357,76 496.5,76 L479,76 C474.359,76 469.908,77.844 466.626,81.126 C463.344,84.408 461.5,88.859 461.5,93.5 C461.5,98.167 468.5,98.167 468.5,93.5 C468.5,88.859 466.656,84.408 463.374,81.126 C460.092,77.844 455.641,76 451,76 L433.5,76 C431.643,76 429.863,76.737 428.55,78.05 C427.237,79.363 426.5,81.143 426.5,83 L426.5,128.5 C426.5,130.357 427.237,132.137 428.55,133.45 C429.863,134.763 431.643,135.5 433.5,135.5 Z" />
        </g>
        <g id="Black-M" transform="translate(0,200)">
            <path d="M661.5,93.5 L661.5,142.5 C661.5,144.433 663.067,146 665,146 C666.933,146 668.5,144.433 668.5,142.5 L668.5,93.5 C668.5,91.567 666.933,90 665,90 C663.067,90 661.5,91.567 661.5,93.5 Z" />
            <path d="M633.5,128.5 C633.5,128.5 633.5,128.5 633.5,128.5 C633.5,128.5 633.5,128.5 633.5,128.5 L633.5,83 C633.5,83 633.5,83 633.5,83 C633.5,83 633.5,83 633.5,83 L651,83 C653.785,83 656.456,84.106 658.425,86.075 C660.394,88.045 661.5,90.715 661.5,93.5 L668.5,93.5 C668.5,90.715 669.606,88.045 671.575,86.075 C673.544,84.106 676.215,83 679,83 L696.5,83 C696.5,83 696.5,83 696.5,83 C696.5,83 696.5,83 696.5,83 L696.5,128.5 C696.5,128.5 696.5,128.5 696.5,128.5 C696.5,128.5 696.5,128.5 696.5,128.5 L675.5,128.5 C671.787,128.5 668.226,129.975 665.601,132.6 C662.975,135.226 661.5,138.787 661.5,142.5 L665,142.5 L668.5,142.5 C668.5,138.787 667.025,135.226 664.399,132.6 C661.774,129.975 658.213,128.5 654.5,128.5 L633.5,128.5 Z M633.5,135.5 L654.5,135.5 C656.357,135.5 658.137,136.238 659.45,137.55 C660.763,138.863 661.5,140.643 661.5,142.5 C661.5,147.167 668.5,147.167 668.5,142.5 C668.5,140.643 669.237,138.863 670.55,137.55 C671.863,136.238 673.643,135.5 675.5,135.5 L696.5,135.5 C698.357,135.5 700.137,134.763 701.45,133.45 C702.763,132.137 703.5,130.357 703.5,128.5 L703.5,83 C703.5,81.143 702.763,79.363 701.45,78.05 C700.137,76.737 698.357,76 696.5,76 L679,76 C674.359,76 669.908,77.844 666.626,81.126 C663.344,84.408 661.5,88.859 661.5,93.5 C661.5,98.167 668.5,98.167 668.5,93.5 C668.5,88.859 666.656,84.408 663.374,81.126 C660.092,77.844 655.641,76 651,76 L633.5,76 C631.643,76 629.863,76.737 628.55,78.05 C627.237,79.363 626.5,81.143 626.5,83 L626.5,128.5 C626.5,130.357 627.237,132.137 628.55,133.45 C629.863,134.763 631.643,135.5 633.5,135.5 Z" />
        </g>
    </g>
</svg>