<?xml version="1.0" encoding="UTF-8"?>
<svg height="600" width="800" xmlns="http://www.w3.org/2000/svg" xmlns:xlink="http://www.w3.org/1999/xlink">
    <g id="Notes" font-family="LucidaGrande, 'Lucida Grande', sans-serif" font-size="13">
        <rect fill="white" height="600.0" width="800.0" x="0.0" y="0.0" />
        <g font-size="13">
            <text x="18.0" y="176.0">Small</text>
            <text x="18.0" y="376.0">Medium</text>
            <text x="18.0" y="576.0">Large</text>
        </g>
        <g font-size="9">
            <text x="250.0" y="30.0">Ultralight</text>
            <text x="450.0" y="30.0">Regular</text>
            <text x="650.0" y="30.0">Black</text>
            <text id="template-version" fill="#505050" text-anchor="end" x="785.0" y="575.0">Template v.3.0</text>
            <a href="https://github.com/swhitty/SwiftDraw">
                <text fill="#505050" text-anchor="end" x="785.0" y="590.0">https://github.com/swhitty/SwiftDraw</text>
            </a>
        </g>
    </g>
    <g id="Guides" stroke="rgb(39, 170, 225)" stroke-width="0.5">
        <path id="Capline-S" d="M18,76 l800,0" />
        <path id="H-reference" d="M85,145.755 L87.685,145.755 L113.369,79.287 L114.052,79.287 L114.052,76 L112.148,76 L85,145.755 Z M95.693,121.536 L130.996,121.536 L130.263,119.313 L96.474,119.313 L95.693,121.536 Z M139.15,145.755 L141.787,145.755 L114.638,76 L113.466,76 L113.466,79.287 L139.15,145.755 Z" stroke="none" transform="translate(0,200)" />
        <path id="Baseline-S" d="M18,146 l800,0" />
        <path id="left-margin-Ultralight-M" d="M222.222,256 l0,110" />
        <path id="right-margin-Ultralight-M" d="M307.778,256 l0,110" />
        <path id="left-margin-Regular-M" d="M422.222,256 l0,110" />
        <path id="right-margin-Regular-M" d="M507.778,256 l0,110" />
        <path id="left-margin-Black-M" d="M622.222,256 l0,110" />
        <path id="right-margin-Black-M" d="M707.778,256 l0,110" />
        <path id="Capline-M" d="M18,276 l800,0" />
        <path id="Baseline-M" d="M18,346 l800,0" />
        <path id="Capline-L" d="M18,476 l800,0" />
        <path id="Baseline-L" d="M18,546 l800,0" />
    </g>
    <g id="Symbols">
        <g id="Ultralight-M" transform="translate(0,200)">
            <path d="M268.889,95.444 L268.889,79.889 C268.889,77.741 267.148,76 265,76 L249.444,76 C247.297,76 245.556,77.741 245.556,79.889 C245.556,82.037 247.297,83.778 249.444,83.778 L265,83.778 L261.111,79.889 L261.111,95.444 C261.111,97.592 262.852,99.333 265,99.333 C267.148,99.333 268.889,97.592 268.889,95.444 Z" />
            <path d="M292.222,118.778 L292.222,134.333 C292.222,135.365 291.812,136.354 291.083,137.083 C290.354,137.812 289.365,138.222 288.333,138.222 L241.667,138.222 C240.635,138.222 239.646,137.812 238.917,137.083 C238.188,136.354 237.778,135.365 237.778,134.333 L237.778,103.222 C237.778,102.191 238.188,101.202 238.917,100.472 C239.646,99.743 240.635,99.333 241.667,99.333 L288.333,99.333 C289.365,99.333 290.354,99.743 291.083,100.472 C291.812,101.202 292.222,102.191 292.222,103.222 L292.222,118.778 Z M300,118.778 L300,103.222 C300,100.128 298.771,97.161 296.583,94.973 C294.395,92.785 291.428,91.556 288.333,91.556 L241.667,91.556 C238.572,91.556 235.605,92.785 233.417,94.973 C231.229,97.161 230,100.128 230,103.222 L230,134.333 C230,137.428 231.229,140.395 233.417,142.583 C235.605,144.771 238.572,146 241.667,146 L288.333,146 C291.428,146 294.395,144.771 296.583,142.583 C298.771,140.395 300,137.428 300,134.333 L300,118.778 Z" />
            <path d="M226.111,122.667 L233.889,122.667 C236.037,122.667 237.778,120.926 237.778,118.778 C237.778,116.63 236.037,114.889 233.889,114.889 L226.111,114.889 C223.963,114.889 222.222,116.63 222.222,118.778 C222.222,120.926 223.963,122.667 226.111,122.667 Z" />
            <path d="M296.111,122.667 L303.889,122.667 C306.037,122.667 307.778,120.926 307.778,118.778 C307.778,116.63 306.037,114.889 303.889,114.889 L296.111,114.889 C293.963,114.889 292.222,116.63 292.222,118.778 C292.222,120.926 293.963,122.667 296.111,122.667 Z" />
            <path d="M272.778,114.889 L272.778,122.667 C272.778,124.814 274.519,126.556 276.667,126.556 C278.814,126.556 280.556,124.814 280.556,122.667 L280.556,114.889 C280.556,112.741 278.814,111 276.667,111 C274.519,111 272.778,112.741 272.778,114.889 Z" />
            <path d="M249.444,114.889 L249.444,122.667 C249.444,124.814 251.186,126.556 253.333,126.556 C255.481,126.556 257.222,124.814 257.222,122.667 L257.222,114.889 C257.222,112.741 255.481,111 253.333,111 C251.186,111 249.444,112.741 249.444,114.889 Z" />
        </g>
        <g id="Regular-M" transform="translate(0,200)">
            <path d="M468.889,95.444 L468.889,79.889 C468.889,77.741 467.148,76 465,76 L449.444,76 C447.297,76 445.556,77.741 445.556,79.889 C445.556,82.037 447.297,83.778 449.444,83.778 L465,83.778 L461.111,79.889 L461.111,95.444 C461.111,97.592 462.852,99.333 465,99.333 C467.148,99.333 468.889,97.592 468.889,95.444 Z" />
            <path d="M492.222,118.778 L492.222,134.333 C492.222,135.365 491.812,136.354 491.083,137.083 C490.354,137.812 489.365,138.222 488.333,138.222 L441.667,138.222 C440.635,138.222 439.646,137.812 438.917,137.083 C438.188,136.354 437.778,135.365 437.778,134.333 L437.778,103.222 C437.778,102.191 438.188,101.202 438.917,100.472 C439.646,99.743 440.635,99.333 441.667,99.333 L488.333,99.333 C489.365,99.333 490.354,99.743 491.083,100.472 C491.812,101.202 492.222,102.191 492.222,103.222 L492.222,118.778 Z M500,118.778 L500,103.222 C500,100.128 498.771,97.161 496.583,94.973 C494.395,92.785 491.428,91.556 488.333,91.556 L441.667,91.556 C438.572,91.556 435.605,92.785 433.417,94.973 C431.229,97.161 430,100.128 430,103.222 L430,134.333 C430,137.428 431.229,140.395 433.417,142.583 C435.605,144.771 438.572,146 441.667,146 L488.333,146 C491.428,146 494.395,144.771 496.583,142.583 C498.771,140.395 500,137.428 500,134.333 L500,118.778 Z" />
            <path d="M426.111,122.667 L433.889,122.667 C436.037,122.667 437.778,120.926 437.778,118.778 C437.778,116.63 436.037,114.889 433.889,114.889 L426.111,114.889 C423.963,114.889 422.222,116.63 422.222,118.778 C422.222,120.926 423.963,122.667 426.111,122.667 Z" />
            <path d="M496.111,122.667 L503.889,122.667 C506.037,122.667 507.778,120.926 507.778,118.778 C507.778,116.63 506.037,114.889 503.889,114.889 L496.111,114.889 C493.963,114.889 492.222,116.63 492.222,118.778 C492.222,120.926 493.963,122.667 496.111,122.667 Z" />
            <path d="M472.778,114.889 L472.778,122.667 C472.778,124.814 474.519,126.556 476.667,126.556 C478.814,126.556 480.556,124.814 480.556,122.667 L480.556,114.889 C480.556,112.741 478.814,111 476.667,111 C474.519,111 472.778,112.741 472.778,114.889 Z" />
            <path d="M449.444,114.889 L449.444,122.667 C449.444,124.814 451.186,126.556 453.333,126.556 C455.481,126.556 457.222,124.814 457.222,122.667 L457.222,114.889 C457.222,112.741 455.481,111 453.333,111 C451.186,111 449.444,112.741 449.444,114.889 Z" />
        </g>
        <g id="Black-M" transform="translate(0,200)">
            <path d="M668.889,95.444 L668.889,79.889 C668.889,77.741 667.148,76 665,76 L649.444,76 C647.297,76 645.556,77.741 645.556,79.889 C645.556,82.037 647.297,83.778 649.444,83.778 L665,83.778 L661.111,79.889 L661.111,95.444 C661.111,97.592 662.852,99.333 665,99.333 C667.148,99.333 668.889,97.592 668.889,95.444 Z" />
            <path d="M692.222,118.778 L692.222,134.333 C692.222,135.365 691.812,136.354 691.083,137.083 C690.354,137.812 689.365,138.222 688.333,138.222 L641.667,138.222 C640.635,138.222 639.646,137.812 638.917,137.083 C638.188,136.354 637.778,135.365 637.778,134.333 L637.778,103.222 C637.778,102.191 638.188,101.202 638.917,100.472 C639.646,99.743 640.635,99.333 641.667,99.333 L688.333,99.333 C689.365,99.333 690.354,99.743 691.083,100.472 C691.812,101.202 692.222,102.191 692.222,103.222 L692.222,118.778 Z M700,118.778 L700,103.222 C700,100.128 698.771,97.161 696.583,94.973 C694.395,92.785 691.428,91.556 688.333,91.556 L641.667,91.556 C638.573,91.556 635.605,92.785 633.417,94.973 C631.229,97.161 630,100.128 630,103.222 L630,134.333 C630,137.428 631.229,140.395 633.417,142.583 C635.605,144.771 638.573,146 641.667,146 L688.333,146 C691.428,146 694.395,144.771 696.583,142.583 C698.771,140.395 700,137.428 700,134.333 L700,118.778 Z" />
            <path d="M626.111,122.667 L633.889,122.667 C636.037,122.667 637.778,120.926 637.778,118.778 C637.778,116.63 636.037,114.889 633.889,114.889 L626.111,114.889 C623.963,114.889 622.222,116.63 622.222,118.778 C622.222,120.926 623.963,122.667 626.111,122.667 Z" />
            <path d="M696.111,122.667 L703.889,122.667 C706.037,122.667 707.778,120.926 707.778,118.778 C707.778,116.63 706.037,114.889 703.889,114.889 L696.111,114.889 C693.963,114.889 692.222,116.63 692.222,118.778 C692.222,120.926 693.963,122.667 696.111,122.667 Z" />
            <path d="M672.778,114.889 L672.778,122.667 C672.778,124.814 674.519,126.556 676.667,126.556 C678.814,126.556 680.556,124.814 680.556,122.667 L680.556,114.889 C680.556,112.741 678.814,111 676.667,111 C674.519,111 672.778,112.741 672.778,114.889 Z" />
            <path d="M649.444,114.889 L649.444,122.667 C649.444,124.814 651.186,126.556 653.333,126.556 C655.481,126.556 657.222,124.814 657.222,122.667 L657.222,114.889 C657.222,112.741 655.481,111 653.333,111 C651.186,111 649.444,112.741 649.444,114.889 Z" />
        </g>
    </g>
</svg>