<?xml version="1.0" encoding="UTF-8"?>
<svg height="600" width="800" xmlns="http://www.w3.org/2000/svg" xmlns:xlink="http://www.w3.org/1999/xlink">
    <g id="Notes" font-family="LucidaGrande, 'Lucida Grande', sans-serif" font-size="13">
        <rect fill="white" height="600.0" width="800.0" x="0.0" y="0.0" />
        <g font-size="13">
            <text x="18.0" y="176.0">Small</text>
            <text x="18.0" y="376.0">Medium</text>
            <text x="18.0" y="576.0">Large</text>
        </g>
        <g font-size="9">
            <text x="250.0" y="30.0">Ultralight</text>
            <text x="450.0" y="30.0">Regular</text>
            <text x="650.0" y="30.0">Black</text>
            <text id="template-version" fill="#505050" text-anchor="end" x="785.0" y="575.0">Template v.3.0</text>
            <a href="https://github.com/swhitty/SwiftDraw">
                <text fill="#505050" text-anchor="end" x="785.0" y="590.0">https://github.com/swhitty/SwiftDraw</text>
            </a>
        </g>
    </g>
    <g id="Guides" stroke="rgb(39, 170, 225)" stroke-width="0.5">
        <path id="Capline-S" d="M18,76 l800,0" />
        <path id="H-reference" d="M85,145.755 L87.685,145.755 L113.369,79.287 L114.052,79.287 L114.052,76 L112.148,76 L85,145.755 Z M95.693,121.536 L130.996,121.536 L130.263,119.313 L96.474,119.313 L95.693,121.536 Z M139.15,145.755 L141.787,145.755 L114.638,76 L113.466,76 L113.466,79.287 L139.15,145.755 Z" stroke="none" transform="translate(0,200)" />
        <path id="Baseline-S" d="M18,146 l800,0" />
        <path id="left-margin-Ultralight-M" d="M228.333,256 l0,110" />
        <path id="right-margin-Ultralight-M" d="M301.667,256 l0,110" />
        <path id="left-margin-Regular-M" d="M428.333,256 l0,110" />
        <path id="right-margin-Regular-M" d="M501.667,256 l0,110" />
        <path id="left-margin-Black-M" d="M628.333,256 l0,110" />
        <path id="right-margin-Black-M" d="M701.667,256 l0,110" />
        <path id="Capline-M" d="M18,276 l800,0" />
        <path id="Baseline-M" d="M18,346 l800,0" />
        <path id="Capline-L" d="M18,476 l800,0" />
        <path id="Baseline-L" d="M18,546 l800,0" />
    </g>
    <g id="Symbols">
        <g id="Ultralight-M" transform="translate(0,200)">
            <path d="M233.183,111.199 C230.181,112.974 228.341,116.167 228.333,119.614 L228.333,130.252 C228.341,133.706 230.181,136.899 233.183,138.674 L243.185,144.581 C246.353,146.454 250.314,146.454 253.483,144.58 L266.714,136.773 C267.719,136.18 268.333,135.112 268.333,133.959 L268.333,115.914 C268.333,114.762 267.719,113.694 266.715,113.101 L250.048,103.258 C248.992,102.634 247.673,102.635 246.617,103.259 L233.184,111.199 Z M236.616,116.824 L250.049,108.884 L246.618,108.885 L263.285,118.728 L261.667,115.914 L261.667,133.959 L263.286,131.145 L250.053,138.954 C248.994,139.58 247.673,139.58 246.617,138.955 L236.615,133.049 C235.616,132.458 235.003,131.394 235,130.245 L235,119.622 C235.003,118.48 235.616,117.415 236.617,116.824 Z" />
            <path d="M250.051,122.945 L234.251,113.595 C232.673,112.661 230.625,113.163 229.677,114.716 C228.728,116.269 229.238,118.284 230.816,119.218 L246.616,128.569 C248.193,129.502 250.241,129 251.19,127.447 C252.139,125.895 251.629,123.879 250.051,122.945 Z" />
            <path d="M250.048,128.57 L266.715,118.728 C268.294,117.795 268.805,115.78 267.858,114.226 C266.911,112.672 264.864,112.169 263.285,113.101 L246.618,122.944 C245.04,123.876 244.528,125.891 245.475,127.445 C246.422,128.999 248.47,129.502 250.048,128.57 Z" />
            <path d="M245,125.757 L245,142.719 C245,144.531 246.492,146 248.333,146 C250.174,146 251.667,144.531 251.667,142.719 L251.667,125.757 C251.667,123.945 250.174,122.476 248.333,122.476 C246.492,122.476 245,123.945 245,125.757 Z" />
            <path d="M261.667,115.914 L261.667,133.959 C261.667,135.112 262.281,136.18 263.286,136.773 L276.519,144.582 C279.686,146.454 283.647,146.454 286.817,144.58 L296.815,138.675 C299.819,136.899 301.659,133.707 301.667,130.259 L301.667,119.622 C301.659,116.167 299.819,112.974 296.816,111.199 L283.383,103.259 C282.327,102.635 281.008,102.634 279.952,103.258 L263.285,113.101 C262.281,113.694 261.667,114.762 261.667,115.914 Z M268.333,115.914 L266.715,118.728 L283.382,108.885 L279.951,108.884 L293.384,116.824 C294.384,117.415 294.997,118.48 295,119.629 L295,130.252 C294.997,131.394 294.384,132.458 293.383,133.05 L283.385,138.954 C282.327,139.58 281.006,139.58 279.95,138.955 L266.714,131.145 L268.333,133.959 L268.333,115.914 Z" />
            <path d="M283.382,122.944 L266.715,113.101 C265.136,112.169 263.089,112.672 262.142,114.226 C261.195,115.78 261.706,117.795 263.285,118.728 L279.952,128.57 C281.53,129.502 283.578,128.999 284.525,127.445 C285.472,125.891 284.96,123.876 283.382,122.944 Z" />
            <path d="M283.384,128.569 L299.184,119.218 C300.762,118.284 301.272,116.269 300.323,114.716 C299.375,113.163 297.327,112.661 295.749,113.595 L279.949,122.945 C278.371,123.879 277.861,125.895 278.81,127.447 C279.759,129 281.807,129.502 283.384,128.569 Z" />
            <path d="M278.333,125.757 L278.333,142.719 C278.333,144.531 279.826,146 281.667,146 C283.508,146 285,144.531 285,142.719 L285,125.757 C285,123.945 283.508,122.476 281.667,122.476 C279.826,122.476 278.333,123.945 278.333,125.757 Z" />
            <path d="M249.85,83.311 C246.848,85.087 245.008,88.279 245,91.727 L245,106.071 C245,107.224 245.614,108.292 246.618,108.885 L263.285,118.728 C264.341,119.351 265.659,119.351 266.715,118.728 L283.382,108.885 C284.386,108.292 285,107.224 285,106.071 L285,91.734 C284.992,88.279 283.152,85.087 280.15,83.311 L270.148,77.405 C266.981,75.531 263.019,75.531 259.85,77.406 L249.852,83.31 Z M253.282,88.937 L263.282,83.031 C264.34,82.406 265.66,82.406 266.717,83.03 L276.718,88.937 C277.717,89.528 278.331,90.592 278.333,91.741 L278.333,106.071 L279.952,103.258 L263.285,113.101 L266.715,113.101 L250.048,103.258 L251.667,106.071 L251.667,91.734 C251.669,90.592 252.283,89.528 253.283,88.936 Z" />
            <path d="M266.718,95.057 L250.918,85.707 C249.34,84.773 247.292,85.275 246.343,86.828 C245.395,88.381 245.905,90.397 247.482,91.33 L263.282,100.681 C264.86,101.615 266.908,101.113 267.857,99.56 C268.805,98.007 268.295,95.991 266.718,95.057 Z" />
            <path d="M266.718,100.681 L282.518,91.33 C284.095,90.397 284.605,88.381 283.657,86.828 C282.708,85.275 280.66,84.773 279.082,85.707 L263.282,95.057 C261.705,95.991 261.195,98.007 262.143,99.56 C263.092,101.113 265.14,101.615 266.718,100.681 Z" />
            <path d="M268.333,115.914 L268.333,97.869 C268.333,96.057 266.841,94.588 265,94.588 C263.159,94.588 261.667,96.057 261.667,97.869 L261.667,115.914 C261.667,117.726 263.159,119.195 265,119.195 C266.841,119.195 268.333,117.726 268.333,115.914 Z" />
        </g>
        <g id="Regular-M" transform="translate(0,200)">
            <path d="M433.183,111.199 C430.181,112.974 428.341,116.167 428.333,119.614 L428.333,130.252 C428.341,133.706 430.181,136.899 433.183,138.674 L443.185,144.581 C446.353,146.454 450.314,146.454 453.483,144.58 L466.714,136.773 C467.719,136.18 468.333,135.112 468.333,133.959 L468.333,115.914 C468.333,114.762 467.719,113.694 466.715,113.101 L450.048,103.258 C448.992,102.634 447.673,102.635 446.617,103.259 L433.184,111.199 Z M436.616,116.824 L450.049,108.884 L446.618,108.885 L463.285,118.728 L461.667,115.914 L461.667,133.959 L463.286,131.145 L450.053,138.954 C448.994,139.58 447.673,139.58 446.617,138.955 L436.615,133.049 C435.616,132.458 435.003,131.394 435,130.245 L435,119.622 C435.003,118.48 435.616,117.415 436.617,116.824 Z" />
            <path d="M450.051,122.945 L434.251,113.595 C432.673,112.661 430.625,113.163 429.677,114.716 C428.728,116.269 429.238,118.284 430.816,119.218 L446.616,128.569 C448.193,129.502 450.241,129 451.19,127.447 C452.139,125.895 451.629,123.879 450.051,122.945 Z" />
            <path d="M450.048,128.57 L466.715,118.728 C468.294,117.795 468.805,115.78 467.858,114.226 C466.911,112.672 464.864,112.169 463.285,113.101 L446.618,122.944 C445.04,123.876 444.528,125.891 445.475,127.445 C446.422,128.999 448.47,129.502 450.048,128.57 Z" />
            <path d="M445,125.757 L445,142.719 C445,144.531 446.492,146 448.333,146 C450.174,146 451.667,144.531 451.667,142.719 L451.667,125.757 C451.667,123.945 450.174,122.476 448.333,122.476 C446.492,122.476 445,123.945 445,125.757 Z" />
            <path d="M461.667,115.914 L461.667,133.959 C461.667,135.112 462.281,136.18 463.286,136.773 L476.519,144.582 C479.686,146.454 483.647,146.454 486.817,144.58 L496.815,138.675 C499.819,136.899 501.659,133.707 501.667,130.259 L501.667,119.622 C501.659,116.167 499.819,112.974 496.816,111.199 L483.383,103.259 C482.327,102.635 481.008,102.634 479.952,103.258 L463.285,113.101 C462.281,113.694 461.667,114.762 461.667,115.914 Z M468.333,115.914 L466.715,118.728 L483.382,108.885 L479.951,108.884 L493.384,116.824 C494.384,117.415 494.997,118.48 495,119.629 L495,130.252 C494.997,131.394 494.384,132.458 493.383,133.05 L483.385,138.954 C482.327,139.58 481.006,139.58 479.95,138.955 L466.714,131.145 L468.333,133.959 L468.333,115.914 Z" />
            <path d="M483.382,122.944 L466.715,113.101 C465.136,112.169 463.089,112.672 462.142,114.226 C461.195,115.78 461.706,117.795 463.285,118.728 L479.952,128.57 C481.53,129.502 483.578,128.999 484.525,127.445 C485.472,125.891 484.96,123.876 483.382,122.944 Z" />
            <path d="M483.384,128.569 L499.184,119.218 C500.762,118.284 501.272,116.269 500.323,114.716 C499.375,113.163 497.327,112.661 495.749,113.595 L479.949,122.945 C478.371,123.879 477.861,125.895 478.81,127.447 C479.759,129 481.807,129.502 483.384,128.569 Z" />
            <path d="M478.333,125.757 L478.333,142.719 C478.333,144.531 479.826,146 481.667,146 C483.508,146 485,144.531 485,142.719 L485,125.757 C485,123.945 483.508,122.476 481.667,122.476 C479.826,122.476 478.333,123.945 478.333,125.757 Z" />
            <path d="M449.85,83.311 C446.848,85.087 445.008,88.279 445,91.727 L445,106.071 C445,107.224 445.614,108.292 446.618,108.885 L463.285,118.728 C464.341,119.351 465.659,119.351 466.715,118.728 L483.382,108.885 C484.386,108.292 485,107.224 485,106.071 L485,91.734 C484.992,88.279 483.152,85.087 480.15,83.311 L470.148,77.405 C466.981,75.531 463.019,75.531 459.85,77.406 L449.852,83.31 Z M453.282,88.937 L463.282,83.031 C464.34,82.406 465.66,82.406 466.717,83.03 L476.718,88.937 C477.717,89.528 478.331,90.592 478.333,91.741 L478.333,106.071 L479.952,103.258 L463.285,113.101 L466.715,113.101 L450.048,103.258 L451.667,106.071 L451.667,91.734 C451.669,90.592 452.283,89.528 453.283,88.936 Z" />
            <path d="M466.718,95.057 L450.918,85.707 C449.34,84.773 447.292,85.275 446.343,86.828 C445.395,88.381 445.905,90.397 447.482,91.33 L463.282,100.681 C464.86,101.615 466.908,101.113 467.857,99.56 C468.805,98.007 468.295,95.991 466.718,95.057 Z" />
            <path d="M466.718,100.681 L482.518,91.33 C484.095,90.397 484.605,88.381 483.657,86.828 C482.708,85.275 480.66,84.773 479.082,85.707 L463.282,95.057 C461.705,95.991 461.195,98.007 462.143,99.56 C463.092,101.113 465.14,101.615 466.718,100.681 Z" />
            <path d="M468.333,115.914 L468.333,97.869 C468.333,96.057 466.841,94.588 465,94.588 C463.159,94.588 461.667,96.057 461.667,97.869 L461.667,115.914 C461.667,117.726 463.159,119.195 465,119.195 C466.841,119.195 468.333,117.726 468.333,115.914 Z" />
        </g>
        <g id="Black-M" transform="translate(0,200)">
            <path d="M633.183,111.199 C630.181,112.974 628.341,116.167 628.333,119.614 L628.333,130.252 C628.341,133.706 630.181,136.899 633.183,138.674 L643.185,144.581 C646.353,146.454 650.314,146.454 653.483,144.58 L666.714,136.773 C667.719,136.18 668.333,135.112 668.333,133.959 L668.333,115.914 C668.333,114.762 667.719,113.694 666.715,113.101 L650.048,103.258 C648.992,102.634 647.673,102.635 646.617,103.259 L633.184,111.199 Z M636.616,116.824 L650.049,108.884 L646.618,108.885 L663.285,118.728 L661.667,115.914 L661.667,133.959 L663.286,131.145 L650.053,138.954 C648.993,139.58 647.673,139.58 646.617,138.955 L636.615,133.049 C635.616,132.458 635.003,131.394 635,130.245 L635,119.622 C635.003,118.48 635.616,117.415 636.617,116.824 Z" />
            <path d="M650.051,122.945 L634.251,113.595 C632.673,112.661 630.625,113.163 629.677,114.716 C628.728,116.269 629.238,118.284 630.816,119.218 L646.616,128.569 C648.193,129.502 650.241,129 651.19,127.447 C652.139,125.895 651.629,123.879 650.051,122.945 Z" />
            <path d="M650.048,128.57 L666.715,118.728 C668.294,117.795 668.805,115.78 667.858,114.226 C666.911,112.672 664.864,112.169 663.285,113.101 L646.618,122.944 C645.04,123.876 644.528,125.891 645.475,127.445 C646.422,128.999 648.47,129.502 650.048,128.57 Z" />
            <path d="M645,125.757 L645,142.719 C645,144.531 646.492,146 648.333,146 C650.174,146 651.667,144.531 651.667,142.719 L651.667,125.757 C651.667,123.945 650.174,122.476 648.333,122.476 C646.492,122.476 645,123.945 645,125.757 Z" />
            <path d="M661.667,115.914 L661.667,133.959 C661.667,135.112 662.281,136.18 663.286,136.773 L676.519,144.582 C679.686,146.454 683.647,146.454 686.817,144.58 L696.815,138.675 C699.819,136.899 701.659,133.707 701.667,130.259 L701.667,119.622 C701.659,116.167 699.819,112.974 696.816,111.199 L683.383,103.259 C682.327,102.635 681.008,102.634 679.952,103.258 L663.285,113.101 C662.281,113.694 661.667,114.762 661.667,115.914 Z M668.333,115.914 L666.715,118.728 L683.382,108.885 L679.951,108.884 L693.384,116.824 C694.384,117.415 694.997,118.48 695,119.629 L695,130.252 C694.997,131.394 694.384,132.458 693.383,133.05 L683.385,138.954 C682.327,139.58 681.006,139.58 679.95,138.955 L666.714,131.145 L668.333,133.959 L668.333,115.914 Z" />
            <path d="M683.382,122.944 L666.715,113.101 C665.136,112.169 663.089,112.672 662.142,114.226 C661.195,115.78 661.706,117.795 663.285,118.728 L679.952,128.57 C681.53,129.502 683.578,128.999 684.525,127.445 C685.472,125.891 684.96,123.876 683.382,122.944 Z" />
            <path d="M683.384,128.569 L699.184,119.218 C700.762,118.284 701.272,116.269 700.323,114.716 C699.375,113.163 697.327,112.661 695.749,113.595 L679.949,122.945 C678.371,123.879 677.861,125.895 678.81,127.447 C679.759,129 681.807,129.502 683.384,128.569 Z" />
            <path d="M678.333,125.757 L678.333,142.719 C678.333,144.531 679.826,146 681.667,146 C683.508,146 685,144.531 685,142.719 L685,125.757 C685,123.945 683.508,122.476 681.667,122.476 C679.826,122.476 678.333,123.945 678.333,125.757 Z" />
            <path d="M649.85,83.311 C646.847,85.087 645.008,88.279 645,91.727 L645,106.071 C645,107.224 645.614,108.292 646.618,108.885 L663.285,118.728 C664.341,119.351 665.659,119.351 666.715,118.728 L683.382,108.885 C684.386,108.292 685,107.224 685,106.071 L685,91.734 C684.992,88.279 683.152,85.087 680.15,83.311 L670.148,77.405 C666.981,75.531 663.019,75.531 659.85,77.406 L649.852,83.31 Z M653.281,88.937 L663.281,83.031 C664.34,82.406 665.66,82.406 666.717,83.03 L676.718,88.937 C677.717,89.528 678.331,90.592 678.333,91.741 L678.333,106.071 L679.952,103.258 L663.285,113.101 L666.715,113.101 L650.048,103.258 L651.667,106.071 L651.667,91.734 C651.669,90.592 652.282,89.528 653.283,88.936 Z" />
            <path d="M666.718,95.057 L650.918,85.707 C649.34,84.773 647.292,85.275 646.343,86.828 C645.395,88.381 645.905,90.397 647.482,91.33 L663.282,100.681 C664.86,101.615 666.908,101.113 667.857,99.56 C668.805,98.007 668.295,95.991 666.718,95.057 Z" />
            <path d="M666.718,100.681 L682.518,91.33 C684.095,90.397 684.605,88.381 683.657,86.828 C682.708,85.275 680.66,84.773 679.082,85.707 L663.282,95.057 C661.705,95.991 661.195,98.007 662.143,99.56 C663.092,101.113 665.14,101.615 666.718,100.681 Z" />
            <path d="M668.333,115.914 L668.333,97.869 C668.333,96.057 666.841,94.588 665,94.588 C663.159,94.588 661.667,96.057 661.667,97.869 L661.667,115.914 C661.667,117.726 663.159,119.195 665,119.195 C666.841,119.195 668.333,117.726 668.333,115.914 Z" />
        </g>
    </g>
</svg>