<?xml version="1.0" encoding="UTF-8"?>
<svg height="600" width="800" xmlns="http://www.w3.org/2000/svg" xmlns:xlink="http://www.w3.org/1999/xlink">
    <g id="Notes" font-family="LucidaGrande, 'Lucida Grande', sans-serif" font-size="13">
        <rect fill="white" height="600.0" width="800.0" x="0.0" y="0.0" />
        <g font-size="13">
            <text x="18.0" y="176.0">Small</text>
            <text x="18.0" y="376.0">Medium</text>
            <text x="18.0" y="576.0">Large</text>
        </g>
        <g font-size="9">
            <text x="250.0" y="30.0">Ultralight</text>
            <text x="450.0" y="30.0">Regular</text>
            <text x="650.0" y="30.0">Black</text>
            <text id="template-version" fill="#505050" text-anchor="end" x="785.0" y="575.0">Template v.3.0</text>
            <a href="https://github.com/swhitty/SwiftDraw">
                <text fill="#505050" text-anchor="end" x="785.0" y="590.0">https://github.com/swhitty/SwiftDraw</text>
            </a>
        </g>
    </g>
    <g id="Guides" stroke="rgb(39, 170, 225)" stroke-width="0.5">
        <path id="Capline-S" d="M18,76 l800,0" />
        <path id="H-reference" d="M85,145.755 L87.685,145.755 L113.369,79.287 L114.052,79.287 L114.052,76 L112.148,76 L85,145.755 Z M95.693,121.536 L130.996,121.536 L130.263,119.313 L96.474,119.313 L95.693,121.536 Z M139.15,145.755 L141.787,145.755 L114.638,76 L113.466,76 L113.466,79.287 L139.15,145.755 Z" stroke="none" transform="translate(0,200)" />
        <path id="Baseline-S" d="M18,146 l800,0" />
        <path id="left-margin-Ultralight-M" d="M230,256 l0,110" />
        <path id="right-margin-Ultralight-M" d="M300,256 l0,110" />
        <path id="left-margin-Regular-M" d="M430,256 l0,110" />
        <path id="right-margin-Regular-M" d="M500,256 l0,110" />
        <path id="left-margin-Black-M" d="M630,256 l0,110" />
        <path id="right-margin-Black-M" d="M700,256 l0,110" />
        <path id="Capline-M" d="M18,276 l800,0" />
        <path id="Baseline-M" d="M18,346 l800,0" />
        <path id="Capline-L" d="M18,476 l800,0" />
        <path id="Baseline-L" d="M18,546 l800,0" />
    </g>
    <g id="Symbols">
        <g id="Ultralight-M" transform="translate(0,200)">
            <path d="M251,76 L247.5,76 C244.715,76 242.045,77.106 240.075,79.075 C238.106,81.045 237,83.715 237,86.5 L237,104 C237,104.928 236.631,105.818 235.975,106.475 C235.318,107.131 234.428,107.5 233.5,107.5 L233.5,111 L233.5,114.5 C234.428,114.5 235.318,114.869 235.975,115.525 C236.631,116.182 237,117.072 237,118 L237,135.5 C237,141.283 241.717,146 247.5,146 L251,146 C252.933,146 254.5,144.433 254.5,142.5 C254.5,140.567 252.933,139 251,139 L247.5,139 C245.583,139 244,137.417 244,135.5 L244,118 C244,115.215 242.894,112.545 240.925,110.575 C238.955,108.606 236.285,107.5 233.5,107.5 C228.833,107.5 228.833,114.5 233.5,114.5 C236.285,114.5 238.955,113.394 240.925,111.425 C242.894,109.455 244,106.785 244,104 L244,86.5 C244,85.572 244.369,84.682 245.025,84.025 C245.682,83.369 246.572,83 247.5,83 L251,83 C252.933,83 254.5,81.433 254.5,79.5 C254.5,77.567 252.933,76 251,76 Z" />
            <path d="M279,146 L282.5,146 C285.285,146 287.955,144.894 289.925,142.925 C291.894,140.955 293,138.285 293,135.5 L293,118 C293,116.083 294.583,114.5 296.5,114.5 L296.5,111 L296.5,107.5 C295.572,107.5 294.682,107.131 294.025,106.475 C293.369,105.818 293,104.928 293,104 L293,86.5 C293,83.715 291.894,81.045 289.925,79.075 C287.956,77.106 285.285,76 282.5,76 L279,76 C277.067,76 275.5,77.567 275.5,79.5 C275.5,81.433 277.067,83 279,83 L282.5,83 C283.428,83 284.318,83.369 284.975,84.025 C285.631,84.682 286,85.572 286,86.5 L286,104 C286,106.785 287.106,109.455 289.075,111.425 C291.044,113.394 293.715,114.5 296.5,114.5 C301.167,114.5 301.167,107.5 296.5,107.5 C290.717,107.5 286,112.217 286,118 L286,135.5 C286,136.428 285.631,137.318 284.975,137.975 C284.318,138.631 283.428,139 282.5,139 L279,139 C277.067,139 275.5,140.567 275.5,142.5 C275.5,144.433 277.067,146 279,146 Z" />
        </g>
        <g id="Regular-M" transform="translate(0,200)">
            <path d="M451,76 L447.5,76 C444.715,76 442.045,77.106 440.075,79.075 C438.106,81.045 437,83.715 437,86.5 L437,104 C437,104.928 436.631,105.818 435.975,106.475 C435.318,107.131 434.428,107.5 433.5,107.5 L433.5,111 L433.5,114.5 C434.428,114.5 435.318,114.869 435.975,115.525 C436.631,116.182 437,117.072 437,118 L437,135.5 C437,141.283 441.717,146 447.5,146 L451,146 C452.933,146 454.5,144.433 454.5,142.5 C454.5,140.567 452.933,139 451,139 L447.5,139 C445.583,139 444,137.417 444,135.5 L444,118 C444,115.215 442.894,112.545 440.925,110.575 C438.956,108.606 436.285,107.5 433.5,107.5 C428.833,107.5 428.833,114.5 433.5,114.5 C436.285,114.5 438.956,113.394 440.925,111.425 C442.894,109.455 444,106.785 444,104 L444,86.5 C444,85.572 444.369,84.682 445.025,84.025 C445.682,83.369 446.572,83 447.5,83 L451,83 C452.933,83 454.5,81.433 454.5,79.5 C454.5,77.567 452.933,76 451,76 Z" />
            <path d="M479,146 L482.5,146 C485.285,146 487.955,144.894 489.925,142.925 C491.894,140.955 493,138.285 493,135.5 L493,118 C493,116.083 494.583,114.5 496.5,114.5 L496.5,111 L496.5,107.5 C495.572,107.5 494.682,107.131 494.025,106.475 C493.369,105.818 493,104.928 493,104 L493,86.5 C493,83.715 491.894,81.045 489.925,79.075 C487.956,77.106 485.285,76 482.5,76 L479,76 C477.067,76 475.5,77.567 475.5,79.5 C475.5,81.433 477.067,83 479,83 L482.5,83 C483.428,83 484.318,83.369 484.975,84.025 C485.631,84.682 486,85.572 486,86.5 L486,104 C486,106.785 487.106,109.455 489.075,111.425 C491.044,113.394 493.715,114.5 496.5,114.5 C501.167,114.5 501.167,107.5 496.5,107.5 C490.717,107.5 486,112.217 486,118 L486,135.5 C486,136.428 485.631,137.318 484.975,137.975 C484.318,138.631 483.428,139 482.5,139 L479,139 C477.067,139 475.5,140.567 475.5,142.5 C475.5,144.433 477.067,146 479,146 Z" />
        </g>
        <g id="Black-M" transform="translate(0,200)">
            <path d="M651,76 L647.5,76 C644.715,76 642.044,77.106 640.075,79.075 C638.106,81.045 637,83.715 637,86.5 L637,104 C637,104.928 636.631,105.818 635.975,106.475 C635.318,107.131 634.428,107.5 633.5,107.5 L633.5,111 L633.5,114.5 C634.428,114.5 635.318,114.869 635.975,115.525 C636.631,116.182 637,117.072 637,118 L637,135.5 C637,141.283 641.717,146 647.5,146 L651,146 C652.933,146 654.5,144.433 654.5,142.5 C654.5,140.567 652.933,139 651,139 L647.5,139 C645.583,139 644,137.417 644,135.5 L644,118 C644,115.215 642.894,112.545 640.925,110.575 C638.956,108.606 636.285,107.5 633.5,107.5 C628.833,107.5 628.833,114.5 633.5,114.5 C636.285,114.5 638.956,113.394 640.925,111.425 C642.894,109.455 644,106.785 644,104 L644,86.5 C644,85.572 644.369,84.682 645.025,84.025 C645.682,83.369 646.572,83 647.5,83 L651,83 C652.933,83 654.5,81.433 654.5,79.5 C654.5,77.567 652.933,76 651,76 Z" />
            <path d="M679,146 L682.5,146 C685.285,146 687.956,144.894 689.925,142.925 C691.894,140.955 693,138.285 693,135.5 L693,118 C693,116.083 694.583,114.5 696.5,114.5 L696.5,111 L696.5,107.5 C695.572,107.5 694.682,107.131 694.025,106.475 C693.369,105.818 693,104.928 693,104 L693,86.5 C693,83.715 691.894,81.045 689.925,79.075 C687.956,77.106 685.285,76 682.5,76 L679,76 C677.067,76 675.5,77.567 675.5,79.5 C675.5,81.433 677.067,83 679,83 L682.5,83 C683.428,83 684.318,83.369 684.975,84.025 C685.631,84.682 686,85.572 686,86.5 L686,104 C686,106.785 687.106,109.455 689.075,111.425 C691.044,113.394 693.715,114.5 696.5,114.5 C701.167,114.5 701.167,107.5 696.5,107.5 C690.717,107.5 686,112.217 686,118 L686,135.5 C686,136.428 685.631,137.318 684.975,137.975 C684.318,138.631 683.428,139 682.5,139 L679,139 C677.067,139 675.5,140.567 675.5,142.5 C675.5,144.433 677.067,146 679,146 Z" />
        </g>
    </g>
</svg>