<?xml version="1.0" encoding="UTF-8"?>
<svg height="600" width="800" xmlns="http://www.w3.org/2000/svg" xmlns:xlink="http://www.w3.org/1999/xlink">
    <g id="Notes" font-family="LucidaGrande, 'Lucida Grande', sans-serif" font-size="13">
        <rect fill="white" height="600.0" width="800.0" x="0.0" y="0.0" />
        <g font-size="13">
            <text x="18.0" y="176.0">Small</text>
            <text x="18.0" y="376.0">Medium</text>
            <text x="18.0" y="576.0">Large</text>
        </g>
        <g font-size="9">
            <text x="250.0" y="30.0">Ultralight</text>
            <text x="450.0" y="30.0">Regular</text>
            <text x="650.0" y="30.0">Black</text>
            <text id="template-version" fill="#505050" text-anchor="end" x="785.0" y="575.0">Template v.3.0</text>
            <a href="https://github.com/swhitty/SwiftDraw">
                <text fill="#505050" text-anchor="end" x="785.0" y="590.0">https://github.com/swhitty/SwiftDraw</text>
            </a>
        </g>
    </g>
    <g id="Guides" stroke="rgb(39, 170, 225)" stroke-width="0.5">
        <path id="Capline-S" d="M18,76 l800,0" />
        <path id="H-reference" d="M85,145.755 L87.685,145.755 L113.369,79.287 L114.052,79.287 L114.052,76 L112.148,76 L85,145.755 Z M95.693,121.536 L130.996,121.536 L130.263,119.313 L96.474,119.313 L95.693,121.536 Z M139.15,145.755 L141.787,145.755 L114.638,76 L113.466,76 L113.466,79.287 L139.15,145.755 Z" stroke="none" transform="translate(0,200)" />
        <path id="Baseline-S" d="M18,146 l800,0" />
        <path id="left-margin-Ultralight-M" d="M230,256 l0,110" />
        <path id="right-margin-Ultralight-M" d="M300,256 l0,110" />
        <path id="left-margin-Regular-M" d="M430,256 l0,110" />
        <path id="right-margin-Regular-M" d="M500,256 l0,110" />
        <path id="left-margin-Black-M" d="M630,256 l0,110" />
        <path id="right-margin-Black-M" d="M700,256 l0,110" />
        <path id="Capline-M" d="M18,276 l800,0" />
        <path id="Baseline-M" d="M18,346 l800,0" />
        <path id="Capline-L" d="M18,476 l800,0" />
        <path id="Baseline-L" d="M18,546 l800,0" />
    </g>
    <g id="Symbols">
        <g id="Ultralight-M" transform="translate(0,200)">
            <path d="M250.153,123.817 C250.64,123.645 251.18,123.72 251.601,124.018 C252.022,124.317 252.273,124.801 252.273,125.317 C252.272,127.075 253.696,128.499 255.454,128.5 C257.211,128.501 258.636,127.076 258.636,125.319 C258.637,122.737 257.385,120.316 255.278,118.824 C253.17,117.333 250.47,116.956 248.036,117.815 C246.378,118.4 245.509,120.217 246.093,121.874 C246.678,123.532 248.495,124.401 250.153,123.817 Z" />
            <path d="M277.727,99.864 C277.727,95.47 281.289,91.909 285.682,91.909 C290.075,91.909 293.636,95.47 293.636,99.864 C293.636,104.257 290.075,107.818 285.682,107.818 C281.289,107.818 277.727,104.257 277.727,99.864 Z M271.364,99.864 C271.364,107.771 277.774,114.182 285.682,114.182 C293.59,114.182 300,107.771 300,99.864 C300,91.956 293.59,85.545 285.682,85.545 C277.774,85.545 271.364,91.956 271.364,99.864 Z" />
            <path d="M236.364,125.318 C236.364,117.41 242.774,111 250.682,111 C258.59,111 265,117.41 265,125.318 C265,133.226 258.59,139.636 250.682,139.636 C242.774,139.636 236.364,133.226 236.364,125.318 Z M230,125.318 C230,136.74 239.26,146 250.682,146 C262.104,146 271.364,136.74 271.364,125.318 C271.364,113.896 262.104,104.636 250.682,104.636 C239.26,104.636 230,113.896 230,125.318 Z" />
            <path d="M245.909,87.136 C245.909,84.5 248.046,82.364 250.682,82.364 C253.318,82.364 255.455,84.5 255.455,87.136 C255.455,89.772 253.318,91.909 250.682,91.909 C248.046,91.909 245.909,89.772 245.909,87.136 Z M239.545,87.136 C239.545,93.287 244.531,98.273 250.682,98.273 C256.832,98.273 261.818,93.287 261.818,87.136 C261.818,80.986 256.832,76 250.682,76 C244.531,76 239.545,80.986 239.545,87.136 Z" />
        </g>
        <g id="Regular-M" transform="translate(0,200)">
            <path d="M450.153,123.817 C450.64,123.645 451.18,123.72 451.601,124.018 C452.022,124.317 452.273,124.801 452.273,125.317 C452.272,127.075 453.696,128.499 455.454,128.5 C457.211,128.501 458.636,127.076 458.636,125.319 C458.637,122.737 457.385,120.316 455.278,118.824 C453.17,117.333 450.47,116.956 448.036,117.815 C446.378,118.4 445.509,120.217 446.094,121.874 C446.678,123.532 448.495,124.401 450.153,123.817 Z" />
            <path d="M477.727,99.864 C477.727,95.47 481.289,91.909 485.682,91.909 C490.075,91.909 493.636,95.47 493.636,99.864 C493.636,104.257 490.075,107.818 485.682,107.818 C481.289,107.818 477.727,104.257 477.727,99.864 Z M471.364,99.864 C471.364,107.771 477.774,114.182 485.682,114.182 C493.59,114.182 500,107.771 500,99.864 C500,91.956 493.59,85.545 485.682,85.545 C477.774,85.545 471.364,91.956 471.364,99.864 Z" />
            <path d="M436.364,125.318 C436.364,117.41 442.774,111 450.682,111 C458.59,111 465,117.41 465,125.318 C465,133.226 458.59,139.636 450.682,139.636 C442.774,139.636 436.364,133.226 436.364,125.318 Z M430,125.318 C430,136.74 439.26,146 450.682,146 C462.104,146 471.364,136.74 471.364,125.318 C471.364,113.896 462.104,104.636 450.682,104.636 C439.26,104.636 430,113.896 430,125.318 Z" />
            <path d="M445.909,87.136 C445.909,84.5 448.046,82.364 450.682,82.364 C453.318,82.364 455.455,84.5 455.455,87.136 C455.455,89.772 453.318,91.909 450.682,91.909 C448.046,91.909 445.909,89.772 445.909,87.136 Z M439.545,87.136 C439.545,93.287 444.531,98.273 450.682,98.273 C456.832,98.273 461.818,93.287 461.818,87.136 C461.818,80.986 456.832,76 450.682,76 C444.531,76 439.545,80.986 439.545,87.136 Z" />
        </g>
        <g id="Black-M" transform="translate(0,200)">
            <path d="M650.153,123.817 C650.64,123.645 651.18,123.72 651.601,124.018 C652.022,124.317 652.273,124.801 652.273,125.317 C652.272,127.075 653.696,128.499 655.454,128.5 C657.211,128.501 658.636,127.076 658.636,125.319 C658.637,122.737 657.385,120.316 655.278,118.824 C653.17,117.333 650.47,116.956 648.036,117.815 C646.378,118.4 645.509,120.217 646.094,121.874 C646.678,123.532 648.495,124.401 650.153,123.817 Z" />
            <path d="M677.727,99.864 C677.727,95.47 681.289,91.909 685.682,91.909 C690.075,91.909 693.636,95.47 693.636,99.864 C693.636,104.257 690.075,107.818 685.682,107.818 C681.289,107.818 677.727,104.257 677.727,99.864 Z M671.364,99.864 C671.364,107.771 677.774,114.182 685.682,114.182 C693.59,114.182 700,107.771 700,99.864 C700,91.956 693.59,85.545 685.682,85.545 C677.774,85.545 671.364,91.956 671.364,99.864 Z" />
            <path d="M636.364,125.318 C636.364,117.41 642.774,111 650.682,111 C658.59,111 665,117.41 665,125.318 C665,133.226 658.59,139.636 650.682,139.636 C642.774,139.636 636.364,133.226 636.364,125.318 Z M630,125.318 C630,136.74 639.26,146 650.682,146 C662.104,146 671.364,136.74 671.364,125.318 C671.364,113.896 662.104,104.636 650.682,104.636 C639.26,104.636 630,113.896 630,125.318 Z" />
            <path d="M645.909,87.136 C645.909,84.5 648.046,82.364 650.682,82.364 C653.318,82.364 655.455,84.5 655.455,87.136 C655.455,89.772 653.318,91.909 650.682,91.909 C648.046,91.909 645.909,89.772 645.909,87.136 Z M639.545,87.136 C639.545,93.287 644.531,98.273 650.682,98.273 C656.832,98.273 661.818,93.287 661.818,87.136 C661.818,80.986 656.832,76 650.682,76 C644.531,76 639.545,80.986 639.545,87.136 Z" />
        </g>
    </g>
</svg>