<?xml version="1.0" encoding="UTF-8"?>
<svg height="600" width="800" xmlns="http://www.w3.org/2000/svg" xmlns:xlink="http://www.w3.org/1999/xlink">
    <g id="Notes" font-family="LucidaGrande, 'Lucida Grande', sans-serif" font-size="13">
        <rect fill="white" height="600.0" width="800.0" x="0.0" y="0.0" />
        <g font-size="13">
            <text x="18.0" y="176.0">Small</text>
            <text x="18.0" y="376.0">Medium</text>
            <text x="18.0" y="576.0">Large</text>
        </g>
        <g font-size="9">
            <text x="250.0" y="30.0">Ultralight</text>
            <text x="450.0" y="30.0">Regular</text>
            <text x="650.0" y="30.0">Black</text>
            <text id="template-version" fill="#505050" text-anchor="end" x="785.0" y="575.0">Template v.3.0</text>
            <a href="https://github.com/swhitty/SwiftDraw">
                <text fill="#505050" text-anchor="end" x="785.0" y="590.0">https://github.com/swhitty/SwiftDraw</text>
            </a>
        </g>
    </g>
    <g id="Guides" stroke="rgb(39, 170, 225)" stroke-width="0.5">
        <path id="Capline-S" d="M18,76 l800,0" />
        <path id="H-reference" d="M85,145.755 L87.685,145.755 L113.369,79.287 L114.052,79.287 L114.052,76 L112.148,76 L85,145.755 Z M95.693,121.536 L130.996,121.536 L130.263,119.313 L96.474,119.313 L95.693,121.536 Z M139.15,145.755 L141.787,145.755 L114.638,76 L113.466,76 L113.466,79.287 L139.15,145.755 Z" stroke="none" transform="translate(0,200)" />
        <path id="Baseline-S" d="M18,146 l800,0" />
        <path id="left-margin-Ultralight-M" d="M231.591,256 l0,110" />
        <path id="right-margin-Ultralight-M" d="M298.409,256 l0,110" />
        <path id="left-margin-Regular-M" d="M431.591,256 l0,110" />
        <path id="right-margin-Regular-M" d="M498.409,256 l0,110" />
        <path id="left-margin-Black-M" d="M631.591,256 l0,110" />
        <path id="right-margin-Black-M" d="M698.409,256 l0,110" />
        <path id="Capline-M" d="M18,276 l800,0" />
        <path id="Baseline-M" d="M18,346 l800,0" />
        <path id="Capline-L" d="M18,476 l800,0" />
        <path id="Baseline-L" d="M18,546 l800,0" />
    </g>
    <g id="Symbols">
        <g id="Ultralight-M" transform="translate(0,200)">
            <path d="M261.285,132.357 C254.931,130.11 250.682,124.103 250.68,117.363 L250.68,107.818 C250.68,102.546 254.953,98.273 260.225,98.273 L272.951,98.273 C278.194,98.273 282.456,102.503 282.495,107.747 C282.508,109.504 283.943,110.918 285.7,110.904 C287.458,110.891 288.871,109.456 288.858,107.699 C288.792,98.959 281.69,91.909 272.95,91.909 L260.225,91.909 C251.439,91.909 244.317,99.032 244.317,107.818 L244.317,117.364 C244.32,126.801 250.268,135.211 259.164,138.357 C260.821,138.942 262.638,138.074 263.224,136.417 C263.81,134.761 262.942,132.943 261.285,132.357 Z" />
            <path d="M276.132,120.545 C276.132,120.545 276.132,120.545 276.132,120.545 C276.132,120.545 276.132,120.545 276.132,120.545 L292.039,130.086 C292.046,130.091 292.046,130.091 292.046,130.091 C292.046,130.091 292.046,130.091 292.046,130.091 L276.141,139.631 C276.132,139.636 276.132,139.636 276.132,139.636 C276.132,139.636 276.132,139.636 276.132,139.636 L276.132,120.555 Z M269.769,120.555 L269.769,139.624 C269.76,141.911 270.993,144.038 272.994,145.172 C274.995,146.307 277.453,146.273 279.422,145.084 L295.311,135.553 C297.229,134.409 298.409,132.333 298.409,130.091 C298.409,127.849 297.229,125.772 295.304,124.625 L279.413,115.093 C277.454,113.909 274.997,113.875 272.997,115.008 C270.996,116.141 269.762,118.265 269.769,120.565 Z" />
            <path d="M275.582,87.414 L281.563,81.432 C282.806,80.189 282.806,78.175 281.563,76.932 C280.321,75.689 278.306,75.689 277.064,76.932 L271.083,82.914 C269.84,84.156 269.84,86.171 271.083,87.414 C272.325,88.656 274.34,88.656 275.582,87.414 Z" />
            <path d="M292.04,88.724 C292.034,93.576 288.39,97.652 283.569,98.197 C281.823,98.395 280.568,99.971 280.766,101.717 C280.963,103.463 282.539,104.718 284.285,104.521 C292.319,103.611 298.393,96.818 298.403,88.731 C298.405,86.974 296.982,85.547 295.225,85.545 C293.468,85.543 292.042,86.966 292.04,88.724 Z" />
            <path d="M241.135,139.633 C241.13,134.533 245.133,130.329 250.227,130.087 C251.982,130.004 253.337,128.513 253.254,126.758 C253.17,125.003 251.68,123.647 249.925,123.731 C241.436,124.134 234.763,131.14 234.772,139.64 C234.774,141.397 236.2,142.82 237.957,142.818 C239.715,142.816 241.137,141.39 241.135,139.633 Z" />
            <path d="M234.772,88.731 C234.782,96.818 240.856,103.611 248.89,104.521 C250.636,104.718 252.212,103.463 252.41,101.717 C252.607,99.971 251.352,98.395 249.606,98.197 C244.785,97.652 241.141,93.576 241.135,88.724 C241.133,86.966 239.707,85.543 237.95,85.545 C236.193,85.547 234.77,86.974 234.772,88.731 Z" />
            <path d="M247.498,111 L234.772,111 C233.015,111 231.591,112.425 231.591,114.182 C231.591,115.939 233.015,117.364 234.772,117.364 L247.498,117.364 C249.256,117.364 250.68,115.939 250.68,114.182 C250.68,112.425 249.256,111 247.498,111 Z" />
            <path d="M251.612,81.432 L257.593,87.414 C258.836,88.656 260.85,88.656 262.092,87.414 C263.335,86.171 263.335,84.156 262.092,82.914 L256.111,76.932 C254.869,75.689 252.854,75.689 251.612,76.932 C250.369,78.175 250.369,80.189 251.612,81.432 Z" />
            <path d="M260.225,95.505 L260.225,91.909 C260.225,88.395 263.073,85.545 266.588,85.545 C270.102,85.545 272.951,88.395 272.951,91.909 L272.951,95.505 C272.951,97.262 274.375,98.686 276.132,98.686 C277.889,98.686 279.314,97.262 279.314,95.505 L279.314,91.909 C279.314,84.88 273.616,79.182 266.588,79.182 C259.559,79.182 253.861,84.88 253.861,91.909 L253.861,95.505 C253.861,97.262 255.286,98.686 257.043,98.686 C258.8,98.686 260.225,97.262 260.225,95.505 Z" />
        </g>
        <g id="Regular-M" transform="translate(0,200)">
            <path d="M461.285,132.357 C454.931,130.11 450.682,124.103 450.68,117.363 L450.68,107.818 C450.68,102.546 454.953,98.273 460.225,98.273 L472.951,98.273 C478.194,98.273 482.456,102.503 482.495,107.747 C482.508,109.504 483.943,110.918 485.7,110.904 C487.458,110.891 488.871,109.456 488.858,107.699 C488.792,98.959 481.69,91.909 472.95,91.909 L460.225,91.909 C451.439,91.909 444.317,99.032 444.317,107.818 L444.317,117.364 C444.32,126.801 450.268,135.211 459.164,138.357 C460.821,138.942 462.638,138.074 463.224,136.417 C463.81,134.761 462.942,132.943 461.285,132.357 Z" />
            <path d="M476.132,120.545 C476.132,120.545 476.132,120.545 476.132,120.545 C476.132,120.545 476.132,120.545 476.132,120.545 L492.039,130.086 C492.046,130.091 492.046,130.091 492.046,130.091 C492.046,130.091 492.046,130.091 492.046,130.091 L476.141,139.631 C476.132,139.636 476.132,139.636 476.132,139.636 C476.132,139.636 476.132,139.636 476.132,139.636 L476.132,120.555 Z M469.769,120.555 L469.769,139.624 C469.76,141.911 470.993,144.038 472.994,145.172 C474.995,146.307 477.453,146.273 479.422,145.084 L495.311,135.553 C497.229,134.409 498.409,132.333 498.409,130.091 C498.409,127.849 497.229,125.772 495.304,124.625 L479.413,115.093 C477.454,113.909 474.997,113.875 472.997,115.008 C470.996,116.141 469.762,118.265 469.769,120.565 Z" />
            <path d="M475.582,87.414 L481.563,81.432 C482.806,80.189 482.806,78.175 481.563,76.932 C480.321,75.689 478.306,75.689 477.064,76.932 L471.083,82.914 C469.84,84.156 469.84,86.171 471.083,87.414 C472.325,88.656 474.34,88.656 475.582,87.414 Z" />
            <path d="M492.04,88.724 C492.034,93.576 488.39,97.652 483.569,98.197 C481.823,98.395 480.568,99.971 480.766,101.717 C480.963,103.463 482.539,104.718 484.285,104.521 C492.319,103.611 498.393,96.818 498.403,88.731 C498.405,86.974 496.982,85.547 495.225,85.545 C493.468,85.543 492.042,86.966 492.04,88.724 Z" />
            <path d="M441.135,139.633 C441.13,134.533 445.133,130.329 450.227,130.087 C451.982,130.004 453.337,128.513 453.254,126.758 C453.171,125.003 451.68,123.647 449.925,123.731 C441.436,124.134 434.763,131.14 434.772,139.64 C434.774,141.397 436.2,142.82 437.957,142.818 C439.715,142.816 441.137,141.39 441.135,139.633 Z" />
            <path d="M434.772,88.731 C434.782,96.818 440.856,103.611 448.89,104.521 C450.636,104.718 452.212,103.463 452.41,101.717 C452.607,99.971 451.352,98.395 449.606,98.197 C444.785,97.652 441.141,93.576 441.135,88.724 C441.133,86.966 439.707,85.543 437.95,85.545 C436.193,85.547 434.77,86.974 434.772,88.731 Z" />
            <path d="M447.498,111 L434.772,111 C433.015,111 431.591,112.425 431.591,114.182 C431.591,115.939 433.015,117.364 434.772,117.364 L447.498,117.364 C449.256,117.364 450.68,115.939 450.68,114.182 C450.68,112.425 449.256,111 447.498,111 Z" />
            <path d="M451.612,81.432 L457.593,87.414 C458.836,88.656 460.85,88.656 462.092,87.414 C463.335,86.171 463.335,84.156 462.092,82.914 L456.111,76.932 C454.869,75.689 452.854,75.689 451.612,76.932 C450.369,78.175 450.369,80.189 451.612,81.432 Z" />
            <path d="M460.225,95.505 L460.225,91.909 C460.225,88.395 463.073,85.545 466.588,85.545 C470.102,85.545 472.951,88.395 472.951,91.909 L472.951,95.505 C472.951,97.262 474.375,98.686 476.132,98.686 C477.889,98.686 479.314,97.262 479.314,95.505 L479.314,91.909 C479.314,84.88 473.616,79.182 466.588,79.182 C459.559,79.182 453.861,84.88 453.861,91.909 L453.861,95.505 C453.861,97.262 455.286,98.686 457.043,98.686 C458.8,98.686 460.225,97.262 460.225,95.505 Z" />
        </g>
        <g id="Black-M" transform="translate(0,200)">
            <path d="M661.285,132.357 C654.931,130.11 650.682,124.103 650.68,117.363 L650.68,107.818 C650.68,102.546 654.953,98.273 660.224,98.273 L672.951,98.273 C678.194,98.273 682.456,102.503 682.495,107.747 C682.508,109.504 683.943,110.918 685.7,110.904 C687.458,110.891 688.871,109.456 688.858,107.699 C688.792,98.959 681.69,91.909 672.95,91.909 L660.224,91.909 C651.439,91.909 644.317,99.032 644.317,107.818 L644.317,117.364 C644.32,126.801 650.268,135.211 659.164,138.357 C660.821,138.942 662.638,138.074 663.224,136.417 C663.81,134.761 662.942,132.943 661.285,132.357 Z" />
            <path d="M676.132,120.545 C676.132,120.545 676.132,120.545 676.132,120.545 C676.132,120.545 676.132,120.545 676.132,120.545 L692.039,130.086 C692.046,130.091 692.046,130.091 692.046,130.091 C692.046,130.091 692.046,130.091 692.046,130.091 L676.141,139.631 C676.132,139.636 676.132,139.636 676.132,139.636 C676.132,139.636 676.132,139.636 676.132,139.636 L676.132,120.555 Z M669.769,120.555 L669.769,139.624 C669.76,141.911 670.993,144.038 672.994,145.172 C674.995,146.307 677.453,146.273 679.422,145.084 L695.311,135.553 C697.229,134.409 698.409,132.333 698.409,130.091 C698.409,127.849 697.229,125.772 695.304,124.625 L679.413,115.093 C677.454,113.909 674.997,113.875 672.997,115.008 C670.996,116.141 669.762,118.265 669.769,120.565 Z" />
            <path d="M675.582,87.414 L681.563,81.432 C682.806,80.189 682.806,78.175 681.563,76.932 C680.321,75.689 678.306,75.689 677.064,76.932 L671.083,82.914 C669.84,84.156 669.84,86.171 671.083,87.414 C672.325,88.656 674.34,88.656 675.582,87.414 Z" />
            <path d="M692.04,88.724 C692.034,93.576 688.39,97.652 683.569,98.197 C681.823,98.395 680.568,99.971 680.766,101.717 C680.963,103.463 682.539,104.718 684.285,104.521 C692.319,103.611 698.393,96.818 698.403,88.731 C698.405,86.974 696.982,85.547 695.225,85.545 C693.468,85.543 692.042,86.966 692.04,88.724 Z" />
            <path d="M641.135,139.633 C641.13,134.533 645.133,130.329 650.227,130.087 C651.982,130.004 653.337,128.513 653.254,126.758 C653.17,125.003 651.68,123.647 649.925,123.731 C641.436,124.134 634.763,131.14 634.772,139.64 C634.774,141.397 636.2,142.82 637.957,142.818 C639.714,142.816 641.137,141.39 641.135,139.633 Z" />
            <path d="M634.772,88.731 C634.782,96.818 640.856,103.611 648.89,104.521 C650.636,104.718 652.212,103.463 652.409,101.717 C652.607,99.971 651.352,98.395 649.606,98.197 C644.785,97.652 641.141,93.576 641.135,88.724 C641.133,86.966 639.707,85.543 637.95,85.545 C636.193,85.547 634.77,86.974 634.772,88.731 Z" />
            <path d="M647.498,111 L634.772,111 C633.015,111 631.591,112.425 631.591,114.182 C631.591,115.939 633.015,117.364 634.772,117.364 L647.498,117.364 C649.256,117.364 650.68,115.939 650.68,114.182 C650.68,112.425 649.256,111 647.498,111 Z" />
            <path d="M651.612,81.432 L657.593,87.414 C658.836,88.656 660.85,88.656 662.092,87.414 C663.335,86.171 663.335,84.156 662.092,82.914 L656.111,76.932 C654.869,75.689 652.854,75.689 651.612,76.932 C650.369,78.175 650.369,80.189 651.612,81.432 Z" />
            <path d="M660.224,95.505 L660.224,91.909 C660.224,88.395 663.073,85.545 666.588,85.545 C670.102,85.545 672.951,88.395 672.951,91.909 L672.951,95.505 C672.951,97.262 674.375,98.686 676.132,98.686 C677.889,98.686 679.314,97.262 679.314,95.505 L679.314,91.909 C679.314,84.88 673.616,79.182 666.588,79.182 C659.559,79.182 653.861,84.88 653.861,91.909 L653.861,95.505 C653.861,97.262 655.286,98.686 657.043,98.686 C658.8,98.686 660.224,97.262 660.224,95.505 Z" />
        </g>
    </g>
</svg>