<?xml version="1.0" encoding="UTF-8"?>
<svg height="600" width="800" xmlns="http://www.w3.org/2000/svg" xmlns:xlink="http://www.w3.org/1999/xlink">
    <g id="Notes" font-family="LucidaGrande, 'Lucida Grande', sans-serif" font-size="13">
        <rect fill="white" height="600.0" width="800.0" x="0.0" y="0.0" />
        <g font-size="13">
            <text x="18.0" y="176.0">Small</text>
            <text x="18.0" y="376.0">Medium</text>
            <text x="18.0" y="576.0">Large</text>
        </g>
        <g font-size="9">
            <text x="250.0" y="30.0">Ultralight</text>
            <text x="450.0" y="30.0">Regular</text>
            <text x="650.0" y="30.0">Black</text>
            <text id="template-version" fill="#505050" text-anchor="end" x="785.0" y="575.0">Template v.3.0</text>
            <a href="https://github.com/swhitty/SwiftDraw">
                <text fill="#505050" text-anchor="end" x="785.0" y="590.0">https://github.com/swhitty/SwiftDraw</text>
            </a>
        </g>
    </g>
    <g id="Guides" stroke="rgb(39, 170, 225)" stroke-width="0.5">
        <path id="Capline-S" d="M18,76 l800,0" />
        <path id="H-reference" d="M85,145.755 L87.685,145.755 L113.369,79.287 L114.052,79.287 L114.052,76 L112.148,76 L85,145.755 Z M95.693,121.536 L130.996,121.536 L130.263,119.313 L96.474,119.313 L95.693,121.536 Z M139.15,145.755 L141.787,145.755 L114.638,76 L113.466,76 L113.466,79.287 L139.15,145.755 Z" stroke="none" transform="translate(0,200)" />
        <path id="Baseline-S" d="M18,146 l800,0" />
        <path id="left-margin-Ultralight-M" d="M230,256 l0,110" />
        <path id="right-margin-Ultralight-M" d="M300,256 l0,110" />
        <path id="left-margin-Regular-M" d="M430,256 l0,110" />
        <path id="right-margin-Regular-M" d="M500,256 l0,110" />
        <path id="left-margin-Black-M" d="M630,256 l0,110" />
        <path id="right-margin-Black-M" d="M700,256 l0,110" />
        <path id="Capline-M" d="M18,276 l800,0" />
        <path id="Baseline-M" d="M18,346 l800,0" />
        <path id="Capline-L" d="M18,476 l800,0" />
        <path id="Baseline-L" d="M18,546 l800,0" />
    </g>
    <g id="Symbols">
        <g id="Ultralight-M" transform="translate(0,200)">
            <path d="M268.182,136.455 L268.182,111 C268.182,109.243 266.757,107.818 265,107.818 C263.243,107.818 261.818,109.243 261.818,111 L261.818,136.455 C261.818,138.212 263.243,139.636 265,139.636 C266.757,139.636 268.182,138.212 268.182,136.455 Z" />
            <path d="M267.087,98.273 L271.364,98.273 C273.895,98.273 276.323,99.278 278.113,101.069 C279.903,102.859 280.909,105.287 280.909,107.818 L280.909,112.095 C280.909,113.852 282.334,115.276 284.091,115.276 C285.848,115.276 287.273,113.852 287.273,112.095 L287.273,107.818 C287.273,103.599 285.597,99.552 282.613,96.569 C279.63,93.585 275.583,91.909 271.364,91.909 L267.087,91.909 C265.33,91.909 263.905,93.334 263.905,95.091 C263.905,96.848 265.33,98.273 267.087,98.273 Z" />
            <path d="M273.995,87.414 L279.977,81.432 C281.22,80.189 281.22,78.175 279.977,76.932 C278.735,75.689 276.72,75.689 275.477,76.932 L269.496,82.914 C268.253,84.156 268.253,86.171 269.496,87.414 C270.738,88.656 272.753,88.656 273.995,87.414 Z" />
            <path d="M278.584,125.644 C274.872,131.732 267.564,134.607 260.7,132.68 C253.835,130.752 249.091,124.493 249.091,117.363 L249.091,107.818 C249.091,104.688 250.625,101.757 253.196,99.973 C254.64,98.972 254.999,96.989 253.997,95.545 C252.996,94.101 251.014,93.743 249.57,94.744 C245.284,97.717 242.727,102.601 242.727,107.818 L242.727,117.364 C242.728,127.346 249.369,136.108 258.979,138.806 C268.589,141.505 278.821,137.479 284.017,128.957 C284.932,127.456 284.457,125.498 282.957,124.584 C281.456,123.669 279.498,124.144 278.584,125.644 Z" />
            <path d="M230.932,81.432 L294.568,145.068 C295.811,146.311 297.826,146.311 299.068,145.068 C300.311,143.825 300.311,141.811 299.068,140.568 L235.432,76.932 C234.189,75.689 232.175,75.689 230.932,76.932 C229.689,78.175 229.689,80.189 230.932,81.432 Z" />
            <path d="M290.455,88.724 C290.449,93.576 286.804,97.652 281.983,98.197 C280.237,98.395 278.982,99.971 279.179,101.717 C279.377,103.463 280.953,104.718 282.699,104.521 C290.734,103.611 296.809,96.818 296.818,88.731 C296.82,86.974 295.397,85.547 293.64,85.545 C291.883,85.543 290.457,86.966 290.455,88.724 Z" />
            <path d="M296.818,111 L286.178,111 C284.421,111 282.996,112.425 282.996,114.182 C282.996,115.939 284.421,117.364 286.178,117.364 L296.818,117.364 C298.575,117.364 300,115.939 300,114.182 C300,112.425 298.575,111 296.818,111 Z" />
            <path d="M239.545,139.633 C239.54,134.533 243.544,130.329 248.638,130.087 C250.393,130.004 251.748,128.513 251.665,126.758 C251.582,125.003 250.091,123.647 248.336,123.731 C239.846,124.134 233.173,131.14 233.182,139.64 C233.184,141.397 234.61,142.82 236.367,142.818 C238.124,142.816 239.547,141.39 239.545,139.633 Z" />
            <path d="M233.182,88.731 C233.191,96.818 239.266,103.611 247.301,104.521 C249.047,104.718 250.623,103.463 250.821,101.717 C251.018,99.971 249.763,98.395 248.017,98.197 C243.196,97.652 239.551,93.576 239.545,88.724 C239.543,86.966 238.117,85.543 236.36,85.545 C234.603,85.547 233.18,86.974 233.182,88.731 Z" />
            <path d="M245.909,111 L233.182,111 C231.425,111 230,112.425 230,114.182 C230,115.939 231.425,117.364 233.182,117.364 L245.909,117.364 C247.666,117.364 249.091,115.939 249.091,114.182 C249.091,112.425 247.666,111 245.909,111 Z" />
            <path d="M250.023,81.432 L256.005,87.414 C257.247,88.656 259.262,88.656 260.504,87.414 C261.747,86.171 261.747,84.156 260.504,82.914 L254.523,76.932 C253.28,75.689 251.265,75.689 250.023,76.932 C248.78,78.175 248.78,80.189 250.023,81.432 Z" />
            <path d="M260.147,87.794 C261.873,85.759 264.686,85.017 267.192,85.936 C269.697,86.855 271.363,89.24 271.364,91.909 L271.364,95.505 C271.364,97.262 272.788,98.686 274.545,98.686 C276.303,98.686 277.727,97.262 277.727,95.505 L277.727,91.909 C277.727,86.571 274.395,81.8 269.384,79.962 C264.372,78.123 258.746,79.607 255.293,83.678 C254.157,85.019 254.322,87.026 255.662,88.163 C257.002,89.3 259.01,89.135 260.147,87.794 Z" />
        </g>
        <g id="Regular-M" transform="translate(0,200)">
            <path d="M468.182,136.455 L468.182,111 C468.182,109.243 466.757,107.818 465,107.818 C463.243,107.818 461.818,109.243 461.818,111 L461.818,136.455 C461.818,138.212 463.243,139.636 465,139.636 C466.757,139.636 468.182,138.212 468.182,136.455 Z" />
            <path d="M467.087,98.273 L471.364,98.273 C473.895,98.273 476.323,99.278 478.113,101.069 C479.903,102.859 480.909,105.287 480.909,107.818 L480.909,112.095 C480.909,113.852 482.334,115.276 484.091,115.276 C485.848,115.276 487.273,113.852 487.273,112.095 L487.273,107.818 C487.273,103.599 485.597,99.552 482.613,96.569 C479.63,93.585 475.583,91.909 471.364,91.909 L467.087,91.909 C465.33,91.909 463.905,93.334 463.905,95.091 C463.905,96.848 465.33,98.273 467.087,98.273 Z" />
            <path d="M473.995,87.414 L479.977,81.432 C481.22,80.189 481.22,78.175 479.977,76.932 C478.735,75.689 476.72,75.689 475.477,76.932 L469.496,82.914 C468.253,84.156 468.253,86.171 469.496,87.414 C470.738,88.656 472.753,88.656 473.995,87.414 Z" />
            <path d="M478.584,125.644 C474.872,131.732 467.564,134.607 460.7,132.68 C453.835,130.752 449.091,124.493 449.091,117.363 L449.091,107.818 C449.091,104.688 450.625,101.757 453.196,99.973 C454.64,98.972 454.999,96.989 453.997,95.545 C452.996,94.101 451.014,93.743 449.57,94.744 C445.284,97.717 442.727,102.601 442.727,107.818 L442.727,117.364 C442.728,127.346 449.369,136.108 458.979,138.806 C468.589,141.505 478.821,137.479 484.017,128.957 C484.932,127.456 484.457,125.498 482.957,124.584 C481.456,123.669 479.498,124.144 478.584,125.644 Z" />
            <path d="M430.932,81.432 L494.568,145.068 C495.811,146.311 497.826,146.311 499.068,145.068 C500.311,143.825 500.311,141.811 499.068,140.568 L435.432,76.932 C434.189,75.689 432.174,75.689 430.932,76.932 C429.689,78.175 429.689,80.189 430.932,81.432 Z" />
            <path d="M490.455,88.724 C490.449,93.576 486.804,97.652 481.983,98.197 C480.237,98.395 478.982,99.971 479.179,101.717 C479.377,103.463 480.953,104.718 482.699,104.521 C490.734,103.611 496.809,96.818 496.818,88.731 C496.82,86.974 495.397,85.547 493.64,85.545 C491.883,85.543 490.457,86.966 490.455,88.724 Z" />
            <path d="M496.818,111 L486.178,111 C484.421,111 482.996,112.425 482.996,114.182 C482.996,115.939 484.421,117.364 486.178,117.364 L496.818,117.364 C498.575,117.364 500,115.939 500,114.182 C500,112.425 498.575,111 496.818,111 Z" />
            <path d="M439.545,139.633 C439.54,134.533 443.544,130.329 448.638,130.087 C450.393,130.004 451.748,128.513 451.665,126.758 C451.582,125.003 450.091,123.647 448.336,123.731 C439.846,124.134 433.173,131.14 433.182,139.64 C433.184,141.397 434.61,142.82 436.367,142.818 C438.124,142.816 439.547,141.39 439.545,139.633 Z" />
            <path d="M433.182,88.731 C433.191,96.818 439.266,103.611 447.301,104.521 C449.047,104.718 450.623,103.463 450.821,101.717 C451.018,99.971 449.763,98.395 448.017,98.197 C443.196,97.652 439.551,93.576 439.545,88.724 C439.543,86.966 438.117,85.543 436.36,85.545 C434.603,85.547 433.18,86.974 433.182,88.731 Z" />
            <path d="M445.909,111 L433.182,111 C431.425,111 430,112.425 430,114.182 C430,115.939 431.425,117.364 433.182,117.364 L445.909,117.364 C447.666,117.364 449.091,115.939 449.091,114.182 C449.091,112.425 447.666,111 445.909,111 Z" />
            <path d="M450.023,81.432 L456.005,87.414 C457.247,88.656 459.262,88.656 460.504,87.414 C461.747,86.171 461.747,84.156 460.504,82.914 L454.523,76.932 C453.28,75.689 451.265,75.689 450.023,76.932 C448.78,78.175 448.78,80.189 450.023,81.432 Z" />
            <path d="M460.147,87.794 C461.873,85.759 464.686,85.017 467.192,85.936 C469.697,86.855 471.363,89.24 471.364,91.909 L471.364,95.505 C471.364,97.262 472.788,98.686 474.545,98.686 C476.303,98.686 477.727,97.262 477.727,95.505 L477.727,91.909 C477.727,86.571 474.395,81.8 469.384,79.962 C464.372,78.123 458.746,79.607 455.293,83.678 C454.157,85.019 454.322,87.026 455.662,88.163 C457.002,89.3 459.01,89.135 460.147,87.794 Z" />
        </g>
        <g id="Black-M" transform="translate(0,200)">
            <path d="M668.182,136.455 L668.182,111 C668.182,109.243 666.757,107.818 665,107.818 C663.243,107.818 661.818,109.243 661.818,111 L661.818,136.455 C661.818,138.212 663.243,139.636 665,139.636 C666.757,139.636 668.182,138.212 668.182,136.455 Z" />
            <path d="M667.087,98.273 L671.364,98.273 C673.895,98.273 676.323,99.278 678.113,101.069 C679.903,102.859 680.909,105.287 680.909,107.818 L680.909,112.095 C680.909,113.852 682.334,115.276 684.091,115.276 C685.848,115.276 687.273,113.852 687.273,112.095 L687.273,107.818 C687.273,103.599 685.597,99.552 682.613,96.569 C679.63,93.585 675.583,91.909 671.364,91.909 L667.087,91.909 C665.33,91.909 663.905,93.334 663.905,95.091 C663.905,96.848 665.33,98.273 667.087,98.273 Z" />
            <path d="M673.995,87.414 L679.977,81.432 C681.22,80.189 681.22,78.175 679.977,76.932 C678.735,75.689 676.72,75.689 675.477,76.932 L669.496,82.914 C668.253,84.156 668.253,86.171 669.496,87.414 C670.738,88.656 672.753,88.656 673.995,87.414 Z" />
            <path d="M678.584,125.644 C674.872,131.732 667.564,134.607 660.7,132.68 C653.835,130.752 649.091,124.493 649.091,117.363 L649.091,107.818 C649.091,104.688 650.625,101.757 653.196,99.973 C654.64,98.972 654.999,96.989 653.997,95.545 C652.996,94.101 651.014,93.743 649.57,94.744 C645.284,97.717 642.727,102.601 642.727,107.818 L642.727,117.364 C642.728,127.346 649.369,136.108 658.979,138.806 C668.589,141.505 678.821,137.479 684.017,128.957 C684.932,127.456 684.457,125.498 682.957,124.584 C681.456,123.669 679.498,124.144 678.584,125.644 Z" />
            <path d="M630.932,81.432 L694.568,145.068 C695.811,146.311 697.826,146.311 699.068,145.068 C700.311,143.825 700.311,141.811 699.068,140.568 L635.432,76.932 C634.189,75.689 632.174,75.689 630.932,76.932 C629.689,78.175 629.689,80.189 630.932,81.432 Z" />
            <path d="M690.455,88.724 C690.449,93.576 686.804,97.652 681.983,98.197 C680.237,98.395 678.982,99.971 679.179,101.717 C679.377,103.463 680.953,104.718 682.699,104.521 C690.734,103.611 696.809,96.818 696.818,88.731 C696.82,86.974 695.397,85.547 693.64,85.545 C691.883,85.543 690.457,86.966 690.455,88.724 Z" />
            <path d="M696.818,111 L686.178,111 C684.421,111 682.996,112.425 682.996,114.182 C682.996,115.939 684.421,117.364 686.178,117.364 L696.818,117.364 C698.575,117.364 700,115.939 700,114.182 C700,112.425 698.575,111 696.818,111 Z" />
            <path d="M639.545,139.633 C639.54,134.533 643.544,130.329 648.638,130.087 C650.393,130.004 651.748,128.513 651.665,126.758 C651.582,125.003 650.091,123.647 648.336,123.731 C639.846,124.134 633.173,131.14 633.182,139.64 C633.184,141.397 634.61,142.82 636.367,142.818 C638.124,142.816 639.547,141.39 639.545,139.633 Z" />
            <path d="M633.182,88.731 C633.191,96.818 639.266,103.611 647.301,104.521 C649.047,104.718 650.623,103.463 650.821,101.717 C651.018,99.971 649.763,98.395 648.017,98.197 C643.196,97.652 639.551,93.576 639.545,88.724 C639.543,86.966 638.117,85.543 636.36,85.545 C634.603,85.547 633.18,86.974 633.182,88.731 Z" />
            <path d="M645.909,111 L633.182,111 C631.425,111 630,112.425 630,114.182 C630,115.939 631.425,117.364 633.182,117.364 L645.909,117.364 C647.666,117.364 649.091,115.939 649.091,114.182 C649.091,112.425 647.666,111 645.909,111 Z" />
            <path d="M650.023,81.432 L656.005,87.414 C657.247,88.656 659.262,88.656 660.504,87.414 C661.747,86.171 661.747,84.156 660.504,82.914 L654.523,76.932 C653.28,75.689 651.265,75.689 650.023,76.932 C648.78,78.175 648.78,80.189 650.023,81.432 Z" />
            <path d="M660.147,87.794 C661.873,85.759 664.686,85.017 667.192,85.936 C669.698,86.855 671.363,89.24 671.364,91.909 L671.364,95.505 C671.364,97.262 672.788,98.686 674.545,98.686 C676.303,98.686 677.727,97.262 677.727,95.505 L677.727,91.909 C677.727,86.571 674.395,81.8 669.384,79.962 C664.372,78.123 658.746,79.607 655.293,83.678 C654.157,85.019 654.322,87.026 655.662,88.163 C657.002,89.3 659.01,89.135 660.147,87.794 Z" />
        </g>
    </g>
</svg>