<?xml version="1.0" encoding="UTF-8"?>
<svg height="600" width="800" xmlns="http://www.w3.org/2000/svg" xmlns:xlink="http://www.w3.org/1999/xlink">
    <g id="Notes" font-family="LucidaGrande, 'Lucida Grande', sans-serif" font-size="13">
        <rect fill="white" height="600.0" width="800.0" x="0.0" y="0.0" />
        <g font-size="13">
            <text x="18.0" y="176.0">Small</text>
            <text x="18.0" y="376.0">Medium</text>
            <text x="18.0" y="576.0">Large</text>
        </g>
        <g font-size="9">
            <text x="250.0" y="30.0">Ultralight</text>
            <text x="450.0" y="30.0">Regular</text>
            <text x="650.0" y="30.0">Black</text>
            <text id="template-version" fill="#505050" text-anchor="end" x="785.0" y="575.0">Template v.3.0</text>
            <a href="https://github.com/swhitty/SwiftDraw">
                <text fill="#505050" text-anchor="end" x="785.0" y="590.0">https://github.com/swhitty/SwiftDraw</text>
            </a>
        </g>
    </g>
    <g id="Guides" stroke="rgb(39, 170, 225)" stroke-width="0.5">
        <path id="Capline-S" d="M18,76 l800,0" />
        <path id="H-reference" d="M85,145.755 L87.685,145.755 L113.369,79.287 L114.052,79.287 L114.052,76 L112.148,76 L85,145.755 Z M95.693,121.536 L130.996,121.536 L130.263,119.313 L96.474,119.313 L95.693,121.536 Z M139.15,145.755 L141.787,145.755 L114.638,76 L113.466,76 L113.466,79.287 L139.15,145.755 Z" stroke="none" transform="translate(0,200)" />
        <path id="Baseline-S" d="M18,146 l800,0" />
        <path id="left-margin-Ultralight-M" d="M224.474,256 l0,110" />
        <path id="right-margin-Ultralight-M" d="M305.526,256 l0,110" />
        <path id="left-margin-Regular-M" d="M424.474,256 l0,110" />
        <path id="right-margin-Regular-M" d="M505.526,256 l0,110" />
        <path id="left-margin-Black-M" d="M624.474,256 l0,110" />
        <path id="right-margin-Black-M" d="M705.526,256 l0,110" />
        <path id="Capline-M" d="M18,276 l800,0" />
        <path id="Baseline-M" d="M18,346 l800,0" />
        <path id="Capline-L" d="M18,476 l800,0" />
        <path id="Baseline-L" d="M18,546 l800,0" />
    </g>
    <g id="Symbols">
        <g id="Ultralight-M" transform="translate(0,200)">
            <path d="M298.158,142.316 L298.158,112.842 C298.158,109.911 296.993,107.099 294.921,105.027 C292.848,102.954 290.037,101.789 287.105,101.789 L242.895,101.789 C239.963,101.789 237.152,102.954 235.079,105.027 C233.007,107.099 231.842,109.911 231.842,112.842 L231.842,142.316 C231.842,144.351 233.492,146 235.526,146 C237.561,146 239.211,144.351 239.211,142.316 L239.211,112.842 C239.211,111.865 239.599,110.928 240.29,110.237 C240.981,109.546 241.918,109.158 242.895,109.158 L287.105,109.158 C288.082,109.158 289.019,109.546 289.71,110.237 C290.401,110.928 290.789,111.865 290.789,112.842 L290.789,142.316 C290.789,144.351 292.439,146 294.474,146 C296.508,146 298.158,144.351 298.158,142.316 Z" />
            <path d="M238.822,125.542 C238.83,125.526 239.033,125.255 239.44,124.93 C240.237,124.292 241.329,123.895 242.895,123.895 C244.041,123.895 245.177,124.544 247.962,126.772 C252.085,130.07 254.173,131.263 257.632,131.263 C261.091,131.263 263.178,130.07 267.302,126.772 C270.086,124.544 271.222,123.895 272.368,123.895 C273.515,123.895 274.651,124.544 277.435,126.772 C281.559,130.07 283.646,131.263 287.105,131.263 C290.375,131.263 293.082,130.279 295.163,128.614 C296.484,127.557 297.317,126.447 297.769,125.542 C298.679,123.722 297.941,121.509 296.121,120.599 C294.301,119.69 292.088,120.427 291.178,122.247 C291.17,122.264 290.967,122.535 290.56,122.86 C289.763,123.498 288.671,123.895 287.105,123.895 C285.959,123.895 284.823,123.246 282.038,121.018 C277.915,117.719 275.827,116.526 272.368,116.526 C268.909,116.526 266.822,117.719 262.698,121.018 C259.914,123.246 258.778,123.895 257.632,123.895 C256.485,123.895 255.349,123.246 252.565,121.018 C248.441,117.719 246.354,116.526 242.895,116.526 C239.625,116.526 236.918,117.511 234.837,119.176 C233.516,120.232 232.683,121.343 232.231,122.247 C231.321,124.067 232.059,126.28 233.879,127.19 C235.699,128.1 237.912,127.362 238.822,125.542 Z" />
            <path d="M228.158,146 L301.842,146 C303.877,146 305.526,144.351 305.526,142.316 C305.526,140.281 303.877,138.632 301.842,138.632 L228.158,138.632 C226.123,138.632 224.474,140.281 224.474,142.316 C224.474,144.351 226.123,146 228.158,146 Z" />
            <path d="M242.895,94.421 L242.895,105.474 C242.895,107.508 244.544,109.158 246.579,109.158 C248.614,109.158 250.263,107.508 250.263,105.474 L250.263,94.421 C250.263,92.386 248.614,90.737 246.579,90.737 C244.544,90.737 242.895,92.386 242.895,94.421 Z" />
            <path d="M261.316,94.421 L261.316,105.474 C261.316,107.508 262.965,109.158 265,109.158 C267.035,109.158 268.684,107.508 268.684,105.474 L268.684,94.421 C268.684,92.386 267.035,90.737 265,90.737 C262.965,90.737 261.316,92.386 261.316,94.421 Z" />
            <path d="M279.737,94.421 L279.737,105.474 C279.737,107.508 281.386,109.158 283.421,109.158 C285.456,109.158 287.105,107.508 287.105,105.474 L287.105,94.421 C287.105,92.386 285.456,90.737 283.421,90.737 C281.386,90.737 279.737,92.386 279.737,94.421 Z" />
            <path d="M246.579,83.368 L246.616,83.368 C248.651,83.368 250.3,81.719 250.3,79.684 C250.3,77.649 248.651,76 246.616,76 L246.579,76 C244.544,76 242.895,77.649 242.895,79.684 C242.895,81.719 244.544,83.368 246.579,83.368 Z" />
            <path d="M265,83.368 L265.037,83.368 C267.072,83.368 268.721,81.719 268.721,79.684 C268.721,77.649 267.072,76 265.037,76 L265,76 C262.965,76 261.316,77.649 261.316,79.684 C261.316,81.719 262.965,83.368 265,83.368 Z" />
            <path d="M283.421,83.368 L283.458,83.368 C285.493,83.368 287.142,81.719 287.142,79.684 C287.142,77.649 285.493,76 283.458,76 L283.421,76 C281.386,76 279.737,77.649 279.737,79.684 C279.737,81.719 281.386,83.368 283.421,83.368 Z" />
        </g>
        <g id="Regular-M" transform="translate(0,200)">
            <path d="M498.158,142.316 L498.158,112.842 C498.158,109.911 496.993,107.099 494.921,105.027 C492.848,102.954 490.037,101.789 487.105,101.789 L442.895,101.789 C439.963,101.789 437.152,102.954 435.079,105.027 C433.007,107.099 431.842,109.911 431.842,112.842 L431.842,142.316 C431.842,144.351 433.492,146 435.526,146 C437.561,146 439.211,144.351 439.211,142.316 L439.211,112.842 C439.211,111.865 439.599,110.928 440.29,110.237 C440.981,109.546 441.918,109.158 442.895,109.158 L487.105,109.158 C488.082,109.158 489.019,109.546 489.71,110.237 C490.401,110.928 490.789,111.865 490.789,112.842 L490.789,142.316 C490.789,144.351 492.439,146 494.474,146 C496.508,146 498.158,144.351 498.158,142.316 Z" />
            <path d="M438.822,125.542 C438.83,125.526 439.033,125.255 439.44,124.93 C440.237,124.292 441.329,123.895 442.895,123.895 C444.041,123.895 445.177,124.544 447.962,126.772 C452.085,130.07 454.173,131.263 457.632,131.263 C461.091,131.263 463.178,130.07 467.302,126.772 C470.086,124.544 471.222,123.895 472.368,123.895 C473.515,123.895 474.651,124.544 477.435,126.772 C481.559,130.07 483.646,131.263 487.105,131.263 C490.375,131.263 493.082,130.279 495.163,128.614 C496.484,127.557 497.317,126.447 497.769,125.542 C498.679,123.722 497.941,121.509 496.121,120.599 C494.301,119.69 492.088,120.427 491.178,122.247 C491.17,122.264 490.967,122.535 490.56,122.86 C489.763,123.498 488.671,123.895 487.105,123.895 C485.959,123.895 484.823,123.246 482.038,121.018 C477.915,117.719 475.827,116.526 472.368,116.526 C468.909,116.526 466.822,117.719 462.698,121.018 C459.914,123.246 458.778,123.895 457.632,123.895 C456.485,123.895 455.349,123.246 452.565,121.018 C448.441,117.719 446.354,116.526 442.895,116.526 C439.625,116.526 436.918,117.511 434.837,119.176 C433.516,120.232 432.683,121.343 432.231,122.247 C431.321,124.067 432.059,126.28 433.879,127.19 C435.699,128.1 437.912,127.362 438.822,125.542 Z" />
            <path d="M428.158,146 L501.842,146 C503.877,146 505.526,144.351 505.526,142.316 C505.526,140.281 503.877,138.632 501.842,138.632 L428.158,138.632 C426.123,138.632 424.474,140.281 424.474,142.316 C424.474,144.351 426.123,146 428.158,146 Z" />
            <path d="M442.895,94.421 L442.895,105.474 C442.895,107.508 444.544,109.158 446.579,109.158 C448.614,109.158 450.263,107.508 450.263,105.474 L450.263,94.421 C450.263,92.386 448.614,90.737 446.579,90.737 C444.544,90.737 442.895,92.386 442.895,94.421 Z" />
            <path d="M461.316,94.421 L461.316,105.474 C461.316,107.508 462.965,109.158 465,109.158 C467.035,109.158 468.684,107.508 468.684,105.474 L468.684,94.421 C468.684,92.386 467.035,90.737 465,90.737 C462.965,90.737 461.316,92.386 461.316,94.421 Z" />
            <path d="M479.737,94.421 L479.737,105.474 C479.737,107.508 481.386,109.158 483.421,109.158 C485.456,109.158 487.105,107.508 487.105,105.474 L487.105,94.421 C487.105,92.386 485.456,90.737 483.421,90.737 C481.386,90.737 479.737,92.386 479.737,94.421 Z" />
            <path d="M446.579,83.368 L446.616,83.368 C448.651,83.368 450.3,81.719 450.3,79.684 C450.3,77.649 448.651,76 446.616,76 L446.579,76 C444.544,76 442.895,77.649 442.895,79.684 C442.895,81.719 444.544,83.368 446.579,83.368 Z" />
            <path d="M465,83.368 L465.037,83.368 C467.072,83.368 468.721,81.719 468.721,79.684 C468.721,77.649 467.072,76 465.037,76 L465,76 C462.965,76 461.316,77.649 461.316,79.684 C461.316,81.719 462.965,83.368 465,83.368 Z" />
            <path d="M483.421,83.368 L483.458,83.368 C485.493,83.368 487.142,81.719 487.142,79.684 C487.142,77.649 485.493,76 483.458,76 L483.421,76 C481.386,76 479.737,77.649 479.737,79.684 C479.737,81.719 481.386,83.368 483.421,83.368 Z" />
        </g>
        <g id="Black-M" transform="translate(0,200)">
            <path d="M698.158,142.316 L698.158,112.842 C698.158,109.911 696.993,107.099 694.921,105.027 C692.848,102.954 690.037,101.789 687.105,101.789 L642.895,101.789 C639.963,101.789 637.152,102.954 635.079,105.027 C633.007,107.099 631.842,109.911 631.842,112.842 L631.842,142.316 C631.842,144.351 633.492,146 635.526,146 C637.561,146 639.211,144.351 639.211,142.316 L639.211,112.842 C639.211,111.865 639.599,110.928 640.29,110.237 C640.981,109.546 641.918,109.158 642.895,109.158 L687.105,109.158 C688.082,109.158 689.019,109.546 689.71,110.237 C690.401,110.928 690.789,111.865 690.789,112.842 L690.789,142.316 C690.789,144.351 692.439,146 694.474,146 C696.508,146 698.158,144.351 698.158,142.316 Z" />
            <path d="M638.822,125.542 C638.83,125.526 639.033,125.255 639.44,124.93 C640.237,124.292 641.329,123.895 642.895,123.895 C644.041,123.895 645.177,124.544 647.962,126.772 C652.085,130.07 654.173,131.263 657.632,131.263 C661.091,131.263 663.178,130.07 667.302,126.772 C670.086,124.544 671.222,123.895 672.368,123.895 C673.515,123.895 674.651,124.544 677.435,126.772 C681.559,130.07 683.646,131.263 687.105,131.263 C690.375,131.263 693.082,130.279 695.163,128.614 C696.484,127.557 697.317,126.447 697.769,125.542 C698.679,123.722 697.941,121.509 696.121,120.599 C694.301,119.69 692.088,120.427 691.178,122.247 C691.17,122.264 690.967,122.535 690.56,122.86 C689.763,123.498 688.671,123.895 687.105,123.895 C685.959,123.895 684.823,123.246 682.038,121.018 C677.915,117.719 675.827,116.526 672.368,116.526 C668.909,116.526 666.822,117.719 662.698,121.018 C659.914,123.246 658.778,123.895 657.632,123.895 C656.485,123.895 655.349,123.246 652.565,121.018 C648.441,117.719 646.354,116.526 642.895,116.526 C639.625,116.526 636.918,117.511 634.837,119.176 C633.516,120.232 632.683,121.343 632.231,122.247 C631.321,124.067 632.059,126.28 633.879,127.19 C635.699,128.1 637.912,127.362 638.822,125.542 Z" />
            <path d="M628.158,146 L701.842,146 C703.877,146 705.526,144.351 705.526,142.316 C705.526,140.281 703.877,138.632 701.842,138.632 L628.158,138.632 C626.123,138.632 624.474,140.281 624.474,142.316 C624.474,144.351 626.123,146 628.158,146 Z" />
            <path d="M642.895,94.421 L642.895,105.474 C642.895,107.508 644.544,109.158 646.579,109.158 C648.614,109.158 650.263,107.508 650.263,105.474 L650.263,94.421 C650.263,92.386 648.614,90.737 646.579,90.737 C644.544,90.737 642.895,92.386 642.895,94.421 Z" />
            <path d="M661.316,94.421 L661.316,105.474 C661.316,107.508 662.965,109.158 665,109.158 C667.035,109.158 668.684,107.508 668.684,105.474 L668.684,94.421 C668.684,92.386 667.035,90.737 665,90.737 C662.965,90.737 661.316,92.386 661.316,94.421 Z" />
            <path d="M679.737,94.421 L679.737,105.474 C679.737,107.508 681.386,109.158 683.421,109.158 C685.456,109.158 687.105,107.508 687.105,105.474 L687.105,94.421 C687.105,92.386 685.456,90.737 683.421,90.737 C681.386,90.737 679.737,92.386 679.737,94.421 Z" />
            <path d="M646.579,83.368 L646.616,83.368 C648.651,83.368 650.3,81.719 650.3,79.684 C650.3,77.649 648.651,76 646.616,76 L646.579,76 C644.544,76 642.895,77.649 642.895,79.684 C642.895,81.719 644.544,83.368 646.579,83.368 Z" />
            <path d="M665,83.368 L665.037,83.368 C667.072,83.368 668.721,81.719 668.721,79.684 C668.721,77.649 667.072,76 665.037,76 L665,76 C662.965,76 661.316,77.649 661.316,79.684 C661.316,81.719 662.965,83.368 665,83.368 Z" />
            <path d="M683.421,83.368 L683.458,83.368 C685.493,83.368 687.142,81.719 687.142,79.684 C687.142,77.649 685.493,76 683.458,76 L683.421,76 C681.386,76 679.737,77.649 679.737,79.684 C679.737,81.719 681.386,83.368 683.421,83.368 Z" />
        </g>
    </g>
</svg>