<?xml version="1.0" encoding="UTF-8"?>
<svg height="600" width="800" xmlns="http://www.w3.org/2000/svg" xmlns:xlink="http://www.w3.org/1999/xlink">
    <g id="Notes" font-family="LucidaGrande, 'Lucida Grande', sans-serif" font-size="13">
        <rect fill="white" height="600.0" width="800.0" x="0.0" y="0.0" />
        <g font-size="13">
            <text x="18.0" y="176.0">Small</text>
            <text x="18.0" y="376.0">Medium</text>
            <text x="18.0" y="576.0">Large</text>
        </g>
        <g font-size="9">
            <text x="250.0" y="30.0">Ultralight</text>
            <text x="450.0" y="30.0">Regular</text>
            <text x="650.0" y="30.0">Black</text>
            <text id="template-version" fill="#505050" text-anchor="end" x="785.0" y="575.0">Template v.3.0</text>
            <a href="https://github.com/swhitty/SwiftDraw">
                <text fill="#505050" text-anchor="end" x="785.0" y="590.0">https://github.com/swhitty/SwiftDraw</text>
            </a>
        </g>
    </g>
    <g id="Guides" stroke="rgb(39, 170, 225)" stroke-width="0.5">
        <path id="Capline-S" d="M18,76 l800,0" />
        <path id="H-reference" d="M85,145.755 L87.685,145.755 L113.369,79.287 L114.052,79.287 L114.052,76 L112.148,76 L85,145.755 Z M95.693,121.536 L130.996,121.536 L130.263,119.313 L96.474,119.313 L95.693,121.536 Z M139.15,145.755 L141.787,145.755 L114.638,76 L113.466,76 L113.466,79.287 L139.15,145.755 Z" stroke="none" transform="translate(0,200)" />
        <path id="Baseline-S" d="M18,146 l800,0" />
        <path id="left-margin-Ultralight-M" d="M233.182,256 l0,110" />
        <path id="right-margin-Ultralight-M" d="M296.818,256 l0,110" />
        <path id="left-margin-Regular-M" d="M433.182,256 l0,110" />
        <path id="right-margin-Regular-M" d="M496.818,256 l0,110" />
        <path id="left-margin-Black-M" d="M633.182,256 l0,110" />
        <path id="right-margin-Black-M" d="M696.818,256 l0,110" />
        <path id="Capline-M" d="M18,276 l800,0" />
        <path id="Baseline-M" d="M18,346 l800,0" />
        <path id="Capline-L" d="M18,476 l800,0" />
        <path id="Baseline-L" d="M18,546 l800,0" />
    </g>
    <g id="Symbols">
        <g id="Ultralight-M" transform="translate(0,200)">
            <path d="M263.876,139.632 L242.275,139.632 C241.471,139.632 240.7,139.297 240.131,138.7 C239.563,138.103 239.244,137.294 239.244,136.45 L239.244,91.908 C239.244,91.064 239.563,90.255 240.131,89.658 C240.7,89.062 241.471,88.726 242.275,88.726 L284.708,88.726 C285.511,88.726 286.282,89.062 286.851,89.658 C287.419,90.255 287.739,91.064 287.739,91.908 L287.739,108.214 C287.739,109.971 289.096,111.395 290.769,111.395 C292.443,111.395 293.8,109.971 293.8,108.214 L293.8,91.908 C293.8,89.377 292.842,86.949 291.137,85.159 C289.432,83.369 287.119,82.363 284.708,82.363 L242.275,82.363 C239.863,82.363 237.55,83.369 235.845,85.159 C234.14,86.949 233.182,89.377 233.182,91.908 L233.182,136.45 C233.182,138.982 234.14,141.409 235.845,143.199 C237.55,144.989 239.863,145.995 242.275,145.995 L263.876,145.995 C265.55,145.995 266.907,144.57 266.907,142.813 C266.907,141.056 265.55,139.632 263.876,139.632 Z" />
            <path d="M273.62,130.43 C272.655,129.374 272.32,127.847 272.749,126.455 C273.177,125.062 274.299,124.029 275.67,123.765 C277.041,123.501 278.44,124.049 279.311,125.191 C280.518,126.774 282.809,126.783 284.028,125.209 C284.904,124.079 286.297,123.542 287.661,123.809 C289.025,124.076 290.141,125.104 290.57,126.489 C291,127.874 290.673,129.394 289.72,130.452 L281.731,139.572 C281.675,139.638 281.676,139.637 281.678,139.637 C281.68,139.637 281.682,139.638 281.683,139.639 L273.664,130.479 Z M269.201,134.785 L277.163,143.878 C278.256,145.202 279.924,146 281.678,146 C283.432,146 285.1,145.202 286.25,143.811 L294.152,134.792 C296.602,132.075 297.451,128.122 296.335,124.521 C295.219,120.92 292.318,118.247 288.771,117.553 C285.225,116.86 281.601,118.257 279.325,121.195 L281.677,123.202 L284.042,121.213 C281.777,118.244 278.141,116.82 274.576,117.507 C271.012,118.193 268.094,120.879 266.98,124.499 C265.866,128.119 266.736,132.089 269.245,134.835 Z" />
            <path d="M272.584,79.182 L272.584,91.908 C272.584,93.665 273.941,95.09 275.615,95.09 C277.289,95.09 278.646,93.665 278.646,91.908 L278.646,79.182 C278.646,77.424 277.289,76 275.615,76 C273.941,76 272.584,77.424 272.584,79.182 Z" />
            <path d="M236.213,107.816 L290.769,107.816 C292.443,107.816 293.8,106.391 293.8,104.634 C293.8,102.877 292.443,101.453 290.769,101.453 L236.213,101.453 C234.539,101.453 233.182,102.877 233.182,104.634 C233.182,106.391 234.539,107.816 236.213,107.816 Z" />
            <path d="M248.336,79.182 L248.336,91.908 C248.336,93.665 249.693,95.09 251.367,95.09 C253.041,95.09 254.398,93.665 254.398,91.908 L254.398,79.182 C254.398,77.424 253.041,76 251.367,76 C249.693,76 248.336,77.424 248.336,79.182 Z" />
        </g>
        <g id="Regular-M" transform="translate(0,200)">
            <path d="M463.876,139.632 L442.275,139.632 C441.471,139.632 440.7,139.297 440.131,138.7 C439.563,138.103 439.244,137.294 439.244,136.45 L439.244,91.908 C439.244,91.064 439.563,90.255 440.131,89.658 C440.7,89.062 441.471,88.726 442.275,88.726 L484.708,88.726 C485.511,88.726 486.282,89.062 486.851,89.658 C487.419,90.255 487.739,91.064 487.739,91.908 L487.739,108.214 C487.739,109.971 489.096,111.395 490.769,111.395 C492.443,111.395 493.8,109.971 493.8,108.214 L493.8,91.908 C493.8,89.377 492.842,86.949 491.137,85.159 C489.432,83.369 487.119,82.363 484.708,82.363 L442.275,82.363 C439.863,82.363 437.55,83.369 435.845,85.159 C434.14,86.949 433.182,89.377 433.182,91.908 L433.182,136.45 C433.182,138.982 434.14,141.409 435.845,143.199 C437.55,144.989 439.863,145.995 442.275,145.995 L463.876,145.995 C465.55,145.995 466.907,144.57 466.907,142.813 C466.907,141.056 465.55,139.632 463.876,139.632 Z" />
            <path d="M473.62,130.43 C472.655,129.374 472.32,127.847 472.749,126.455 C473.177,125.062 474.299,124.029 475.67,123.765 C477.041,123.501 478.44,124.049 479.311,125.191 C480.518,126.774 482.809,126.783 484.028,125.209 C484.904,124.079 486.297,123.542 487.661,123.809 C489.025,124.076 490.141,125.104 490.57,126.489 C491,127.874 490.673,129.394 489.72,130.452 L481.731,139.572 C481.675,139.638 481.676,139.637 481.678,139.637 C481.68,139.637 481.682,139.638 481.683,139.639 L473.664,130.479 Z M469.201,134.785 L477.163,143.878 C478.256,145.202 479.924,146 481.678,146 C483.432,146 485.1,145.202 486.25,143.811 L494.152,134.792 C496.602,132.075 497.451,128.122 496.335,124.521 C495.219,120.92 492.318,118.247 488.771,117.553 C485.225,116.86 481.601,118.257 479.325,121.195 L481.677,123.202 L484.042,121.213 C481.777,118.244 478.141,116.82 474.576,117.507 C471.012,118.193 468.094,120.879 466.98,124.499 C465.866,128.119 466.736,132.089 469.245,134.835 Z" />
            <path d="M472.584,79.182 L472.584,91.908 C472.584,93.665 473.941,95.09 475.615,95.09 C477.289,95.09 478.646,93.665 478.646,91.908 L478.646,79.182 C478.646,77.424 477.289,76 475.615,76 C473.941,76 472.584,77.424 472.584,79.182 Z" />
            <path d="M436.213,107.816 L490.769,107.816 C492.443,107.816 493.8,106.391 493.8,104.634 C493.8,102.877 492.443,101.453 490.769,101.453 L436.213,101.453 C434.539,101.453 433.182,102.877 433.182,104.634 C433.182,106.391 434.539,107.816 436.213,107.816 Z" />
            <path d="M448.336,79.182 L448.336,91.908 C448.336,93.665 449.693,95.09 451.367,95.09 C453.041,95.09 454.398,93.665 454.398,91.908 L454.398,79.182 C454.398,77.424 453.041,76 451.367,76 C449.693,76 448.336,77.424 448.336,79.182 Z" />
        </g>
        <g id="Black-M" transform="translate(0,200)">
            <path d="M663.876,139.632 L642.275,139.632 C641.471,139.632 640.7,139.297 640.131,138.7 C639.563,138.103 639.244,137.294 639.244,136.45 L639.244,91.908 C639.244,91.064 639.563,90.255 640.131,89.658 C640.7,89.062 641.471,88.726 642.275,88.726 L684.708,88.726 C685.511,88.726 686.282,89.062 686.851,89.658 C687.419,90.255 687.739,91.064 687.739,91.908 L687.739,108.214 C687.739,109.971 689.096,111.395 690.769,111.395 C692.443,111.395 693.8,109.971 693.8,108.214 L693.8,91.908 C693.8,89.377 692.842,86.949 691.137,85.159 C689.432,83.369 687.119,82.363 684.708,82.363 L642.275,82.363 C639.863,82.363 637.55,83.369 635.845,85.159 C634.14,86.949 633.182,89.377 633.182,91.908 L633.182,136.45 C633.182,138.982 634.14,141.409 635.845,143.199 C637.55,144.989 639.863,145.995 642.275,145.995 L663.876,145.995 C665.55,145.995 666.907,144.57 666.907,142.813 C666.907,141.056 665.55,139.632 663.876,139.632 Z" />
            <path d="M673.62,130.43 C672.655,129.374 672.32,127.847 672.749,126.455 C673.177,125.062 674.299,124.029 675.67,123.765 C677.041,123.501 678.44,124.049 679.311,125.191 C680.518,126.774 682.809,126.783 684.028,125.209 C684.904,124.079 686.297,123.542 687.661,123.809 C689.025,124.076 690.141,125.104 690.57,126.489 C691,127.874 690.673,129.394 689.72,130.452 L681.731,139.572 C681.675,139.638 681.676,139.637 681.678,139.637 C681.68,139.637 681.682,139.638 681.683,139.639 L673.664,130.479 Z M669.201,134.785 L677.163,143.878 C678.256,145.202 679.924,146 681.678,146 C683.432,146 685.1,145.202 686.25,143.811 L694.152,134.792 C696.602,132.075 697.451,128.122 696.335,124.521 C695.219,120.92 692.318,118.247 688.771,117.553 C685.225,116.86 681.601,118.257 679.325,121.195 L681.677,123.202 L684.042,121.213 C681.777,118.244 678.141,116.82 674.576,117.507 C671.012,118.193 668.094,120.879 666.98,124.499 C665.866,128.119 666.736,132.089 669.245,134.835 Z" />
            <path d="M672.584,79.182 L672.584,91.908 C672.584,93.665 673.941,95.09 675.615,95.09 C677.289,95.09 678.646,93.665 678.646,91.908 L678.646,79.182 C678.646,77.424 677.289,76 675.615,76 C673.941,76 672.584,77.424 672.584,79.182 Z" />
            <path d="M636.213,107.816 L690.769,107.816 C692.443,107.816 693.8,106.391 693.8,104.634 C693.8,102.877 692.443,101.453 690.769,101.453 L636.213,101.453 C634.539,101.453 633.182,102.877 633.182,104.634 C633.182,106.391 634.539,107.816 636.213,107.816 Z" />
            <path d="M648.336,79.182 L648.336,91.908 C648.336,93.665 649.693,95.09 651.367,95.09 C653.041,95.09 654.398,93.665 654.398,91.908 L654.398,79.182 C654.398,77.424 653.041,76 651.367,76 C649.693,76 648.336,77.424 648.336,79.182 Z" />
        </g>
    </g>
</svg>