<?xml version="1.0" encoding="UTF-8"?>
<svg height="600" width="800" xmlns="http://www.w3.org/2000/svg" xmlns:xlink="http://www.w3.org/1999/xlink">
    <g id="Notes" font-family="LucidaGrande, 'Lucida Grande', sans-serif" font-size="13">
        <rect fill="white" height="600.0" width="800.0" x="0.0" y="0.0" />
        <g font-size="13">
            <text x="18.0" y="176.0">Small</text>
            <text x="18.0" y="376.0">Medium</text>
            <text x="18.0" y="576.0">Large</text>
        </g>
        <g font-size="9">
            <text x="250.0" y="30.0">Ultralight</text>
            <text x="450.0" y="30.0">Regular</text>
            <text x="650.0" y="30.0">Black</text>
            <text id="template-version" fill="#505050" text-anchor="end" x="785.0" y="575.0">Template v.3.0</text>
            <a href="https://github.com/swhitty/SwiftDraw">
                <text fill="#505050" text-anchor="end" x="785.0" y="590.0">https://github.com/swhitty/SwiftDraw</text>
            </a>
        </g>
    </g>
    <g id="Guides" stroke="rgb(39, 170, 225)" stroke-width="0.5">
        <path id="Capline-S" d="M18,76 l800,0" />
        <path id="H-reference" d="M85,145.755 L87.685,145.755 L113.369,79.287 L114.052,79.287 L114.052,76 L112.148,76 L85,145.755 Z M95.693,121.536 L130.996,121.536 L130.263,119.313 L96.474,119.313 L95.693,121.536 Z M139.15,145.755 L141.787,145.755 L114.638,76 L113.466,76 L113.466,79.287 L139.15,145.755 Z" stroke="none" transform="translate(0,200)" />
        <path id="Baseline-S" d="M18,146 l800,0" />
        <path id="left-margin-Ultralight-M" d="M222.222,256 l0,110" />
        <path id="right-margin-Ultralight-M" d="M307.778,256 l0,110" />
        <path id="left-margin-Regular-M" d="M422.222,256 l0,110" />
        <path id="right-margin-Regular-M" d="M507.778,256 l0,110" />
        <path id="left-margin-Black-M" d="M622.222,256 l0,110" />
        <path id="right-margin-Black-M" d="M707.778,256 l0,110" />
        <path id="Capline-M" d="M18,276 l800,0" />
        <path id="Baseline-M" d="M18,346 l800,0" />
        <path id="Capline-L" d="M18,476 l800,0" />
        <path id="Baseline-L" d="M18,546 l800,0" />
    </g>
    <g id="Symbols">
        <g id="Ultralight-M" transform="translate(0,200)">
            <path d="M272.766,83.778 C274.195,83.778 275.509,84.562 276.188,85.819 L278.079,89.32 C280.115,93.093 284.057,95.445 288.345,95.444 L296.111,95.444 C297.143,95.444 298.132,95.854 298.861,96.583 C299.59,97.313 300,98.302 300,99.333 L300,134.333 C300,135.365 299.59,136.354 298.861,137.083 C298.132,137.812 297.143,138.222 296.111,138.222 L233.889,138.222 C232.857,138.222 231.868,137.812 231.139,137.083 C230.41,136.354 230,135.365 230,134.333 L230,99.333 C230,98.302 230.41,97.313 231.139,96.583 C231.868,95.854 232.857,95.444 233.889,95.444 L241.655,95.444 C245.938,95.445 249.877,93.098 251.916,89.331 L253.818,85.815 C254.497,84.56 255.81,83.778 257.238,83.778 L272.766,83.778 Z M272.766,76 L257.238,76 C252.955,76 249.016,78.347 246.977,82.113 L245.075,85.63 C244.396,86.884 243.083,87.667 241.655,87.667 L233.889,87.667 C230.795,87.667 227.827,88.896 225.639,91.084 C223.451,93.272 222.222,96.239 222.222,99.333 L222.222,134.333 C222.222,137.428 223.451,140.395 225.639,142.583 C227.827,144.771 230.795,146 233.889,146 L296.111,146 C299.205,146 302.173,144.771 304.361,142.583 C306.549,140.395 307.778,137.428 307.778,134.333 L307.778,99.333 C307.778,96.239 306.549,93.272 304.361,91.084 C302.173,88.896 299.205,87.667 296.111,87.667 L288.345,87.667 C286.916,87.667 285.602,86.883 284.923,85.625 L283.032,82.124 C280.996,78.352 277.054,76 272.766,76 Z" />
            <path d="M257.222,114.889 C257.222,110.593 260.704,107.111 265,107.111 C269.296,107.111 272.778,110.593 272.778,114.889 C272.778,119.184 269.296,122.667 265,122.667 C260.704,122.667 257.222,119.184 257.222,114.889 Z M249.444,114.889 C249.444,123.48 256.409,130.444 265,130.444 C273.591,130.444 280.556,123.48 280.556,114.889 C280.556,106.298 273.591,99.333 265,99.333 C256.409,99.333 249.444,106.298 249.444,114.889 Z" />
        </g>
        <g id="Regular-M" transform="translate(0,200)">
            <path d="M472.766,83.778 C474.195,83.778 475.509,84.562 476.188,85.819 L478.079,89.32 C480.115,93.093 484.057,95.445 488.345,95.444 L496.111,95.444 C497.143,95.444 498.132,95.854 498.861,96.583 C499.59,97.313 500,98.302 500,99.333 L500,134.333 C500,135.365 499.59,136.354 498.861,137.083 C498.132,137.812 497.143,138.222 496.111,138.222 L433.889,138.222 C432.858,138.222 431.868,137.812 431.139,137.083 C430.41,136.354 430,135.365 430,134.333 L430,99.333 C430,98.302 430.41,97.313 431.139,96.583 C431.868,95.854 432.857,95.444 433.889,95.444 L441.655,95.444 C445.938,95.445 449.877,93.098 451.916,89.331 L453.818,85.815 C454.497,84.56 455.81,83.778 457.238,83.778 L472.766,83.778 Z M472.766,76 L457.238,76 C452.955,76 449.016,78.347 446.977,82.113 L445.075,85.63 C444.396,86.884 443.083,87.667 441.655,87.667 L433.889,87.667 C430.795,87.667 427.827,88.896 425.639,91.084 C423.451,93.272 422.222,96.239 422.222,99.333 L422.222,134.333 C422.222,137.428 423.451,140.395 425.639,142.583 C427.827,144.771 430.795,146 433.889,146 L496.111,146 C499.205,146 502.173,144.771 504.361,142.583 C506.549,140.395 507.778,137.428 507.778,134.333 L507.778,99.333 C507.778,96.239 506.549,93.272 504.361,91.084 C502.173,88.896 499.205,87.667 496.111,87.667 L488.345,87.667 C486.916,87.667 485.602,86.883 484.923,85.625 L483.032,82.124 C480.996,78.352 477.054,76 472.766,76 Z" />
            <path d="M457.222,114.889 C457.222,110.593 460.704,107.111 465,107.111 C469.296,107.111 472.778,110.593 472.778,114.889 C472.778,119.184 469.296,122.667 465,122.667 C460.704,122.667 457.222,119.184 457.222,114.889 Z M449.444,114.889 C449.444,123.48 456.409,130.444 465,130.444 C473.591,130.444 480.556,123.48 480.556,114.889 C480.556,106.298 473.591,99.333 465,99.333 C456.409,99.333 449.444,106.298 449.444,114.889 Z" />
        </g>
        <g id="Black-M" transform="translate(0,200)">
            <path d="M672.766,83.778 C674.195,83.778 675.51,84.562 676.188,85.819 L678.079,89.32 C680.115,93.093 684.057,95.445 688.345,95.444 L696.111,95.444 C697.143,95.444 698.132,95.854 698.861,96.583 C699.59,97.313 700,98.302 700,99.333 L700,134.333 C700,135.365 699.59,136.354 698.861,137.083 C698.132,137.812 697.143,138.222 696.111,138.222 L633.889,138.222 C632.857,138.222 631.868,137.812 631.139,137.083 C630.41,136.354 630,135.365 630,134.333 L630,99.333 C630,98.302 630.41,97.313 631.139,96.583 C631.868,95.854 632.857,95.444 633.889,95.444 L641.655,95.444 C645.938,95.445 649.877,93.098 651.916,89.331 L653.818,85.815 C654.497,84.56 655.81,83.778 657.238,83.778 L672.766,83.778 Z M672.766,76 L657.238,76 C652.955,76 649.016,78.347 646.977,82.113 L645.075,85.63 C644.396,86.884 643.083,87.667 641.655,87.667 L633.889,87.667 C630.795,87.667 627.827,88.896 625.639,91.084 C623.451,93.272 622.222,96.239 622.222,99.333 L622.222,134.333 C622.222,137.428 623.451,140.395 625.639,142.583 C627.827,144.771 630.795,146 633.889,146 L696.111,146 C699.205,146 702.173,144.771 704.361,142.583 C706.549,140.395 707.778,137.428 707.778,134.333 L707.778,99.333 C707.778,96.239 706.549,93.272 704.361,91.084 C702.173,88.896 699.205,87.667 696.111,87.667 L688.345,87.667 C686.916,87.667 685.602,86.883 684.923,85.625 L683.032,82.124 C680.996,78.352 677.054,76 672.766,76 Z" />
            <path d="M657.222,114.889 C657.222,110.593 660.704,107.111 665,107.111 C669.296,107.111 672.778,110.593 672.778,114.889 C672.778,119.184 669.296,122.667 665,122.667 C660.704,122.667 657.222,119.184 657.222,114.889 Z M649.444,114.889 C649.444,123.48 656.409,130.444 665,130.444 C673.591,130.444 680.556,123.48 680.556,114.889 C680.556,106.298 673.591,99.333 665,99.333 C656.409,99.333 649.444,106.298 649.444,114.889 Z" />
        </g>
    </g>
</svg>