<?xml version="1.0" encoding="UTF-8"?>
<svg height="600" width="800" xmlns="http://www.w3.org/2000/svg" xmlns:xlink="http://www.w3.org/1999/xlink">
    <g id="Notes" font-family="LucidaGrande, 'Lucida Grande', sans-serif" font-size="13">
        <rect fill="white" height="600.0" width="800.0" x="0.0" y="0.0" />
        <g font-size="13">
            <text x="18.0" y="176.0">Small</text>
            <text x="18.0" y="376.0">Medium</text>
            <text x="18.0" y="576.0">Large</text>
        </g>
        <g font-size="9">
            <text x="250.0" y="30.0">Ultralight</text>
            <text x="450.0" y="30.0">Regular</text>
            <text x="650.0" y="30.0">Black</text>
            <text id="template-version" fill="#505050" text-anchor="end" x="785.0" y="575.0">Template v.3.0</text>
            <a href="https://github.com/swhitty/SwiftDraw">
                <text fill="#505050" text-anchor="end" x="785.0" y="590.0">https://github.com/swhitty/SwiftDraw</text>
            </a>
        </g>
    </g>
    <g id="Guides" stroke="rgb(39, 170, 225)" stroke-width="0.5">
        <path id="Capline-S" d="M18,76 l800,0" />
        <path id="H-reference" d="M85,145.755 L87.685,145.755 L113.369,79.287 L114.052,79.287 L114.052,76 L112.148,76 L85,145.755 Z M95.693,121.536 L130.996,121.536 L130.263,119.313 L96.474,119.313 L95.693,121.536 Z M139.15,145.755 L141.787,145.755 L114.638,76 L113.466,76 L113.466,79.287 L139.15,145.755 Z" stroke="none" transform="translate(0,200)" />
        <path id="Baseline-S" d="M18,146 l800,0" />
        <path id="left-margin-Ultralight-M" d="M230,256 l0,110" />
        <path id="right-margin-Ultralight-M" d="M300,256 l0,110" />
        <path id="left-margin-Regular-M" d="M430,256 l0,110" />
        <path id="right-margin-Regular-M" d="M500,256 l0,110" />
        <path id="left-margin-Black-M" d="M630,256 l0,110" />
        <path id="right-margin-Black-M" d="M700,256 l0,110" />
        <path id="Capline-M" d="M18,276 l800,0" />
        <path id="Baseline-M" d="M18,346 l800,0" />
        <path id="Capline-L" d="M18,476 l800,0" />
        <path id="Baseline-L" d="M18,546 l800,0" />
    </g>
    <g id="Symbols">
        <g id="Ultralight-M" transform="translate(0,200)">
            <path d="M270.439,117.488 C269.068,119.745 266.446,120.921 263.849,120.443 C261.251,119.966 259.219,117.934 258.741,115.337 C258.263,112.74 259.438,110.117 261.695,108.746 C263.197,107.834 263.674,105.876 262.762,104.375 C261.849,102.873 259.892,102.395 258.391,103.308 C253.877,106.05 251.526,111.295 252.482,116.489 C253.439,121.683 257.503,125.747 262.698,126.702 C267.892,127.657 273.137,125.305 275.878,120.791 C276.79,119.289 276.312,117.332 274.81,116.419 C273.308,115.507 271.351,115.986 270.439,117.488 Z" />
            <path d="M230.932,81.432 L294.568,145.068 C295.811,146.311 297.826,146.311 299.068,145.068 C300.311,143.825 300.311,141.811 299.068,140.568 L235.432,76.932 C234.189,75.689 232.175,75.689 230.932,76.932 C229.689,78.175 229.689,80.189 230.932,81.432 Z" />
            <path d="M290.455,133.273 L239.545,133.273 C238.702,133.273 237.892,132.938 237.296,132.341 C236.699,131.744 236.364,130.935 236.364,130.091 L236.364,101.455 C236.364,100.611 236.699,99.801 237.296,99.205 C237.892,98.608 238.702,98.273 239.545,98.273 L245.9,98.273 C247.245,98.273 248.578,97.989 249.807,97.438 C251.411,96.719 252.128,94.836 251.409,93.232 C250.69,91.629 248.807,90.912 247.204,91.631 C246.794,91.814 246.35,91.909 245.901,91.909 L239.545,91.909 C237.014,91.909 234.586,92.915 232.796,94.705 C231.006,96.495 230,98.923 230,101.455 L230,130.091 C230,132.623 231.006,135.05 232.796,136.841 C234.586,138.631 237.014,139.636 239.545,139.636 L290.455,139.636 C292.212,139.636 293.636,138.212 293.636,136.455 C293.636,134.697 292.212,133.273 290.455,133.273 Z" />
            <path d="M258.157,88.765 C258.32,88.74 258.484,88.727 258.649,88.727 L271.354,88.727 C272.524,88.727 273.599,89.369 274.154,90.398 L275.701,93.262 C277.367,96.348 280.592,98.273 284.1,98.273 L290.455,98.273 C291.298,98.273 292.108,98.608 292.704,99.205 C293.301,99.801 293.636,100.611 293.636,101.455 L293.636,124.822 C293.636,126.579 295.061,128.004 296.818,128.004 C298.575,128.004 300,126.579 300,124.822 L300,101.455 C300,98.923 298.994,96.495 297.204,94.705 C295.414,92.915 292.986,91.909 290.455,91.909 L284.1,91.909 C282.931,91.909 281.856,91.268 281.3,90.239 L279.754,87.375 C278.088,84.288 274.862,82.364 271.354,82.364 L258.649,82.364 C258.155,82.364 257.662,82.402 257.174,82.478 C255.438,82.75 254.251,84.377 254.522,86.113 C254.794,87.849 256.421,89.037 258.157,88.765 Z" />
        </g>
        <g id="Regular-M" transform="translate(0,200)">
            <path d="M470.439,117.488 C469.068,119.745 466.446,120.921 463.849,120.443 C461.251,119.966 459.219,117.934 458.741,115.337 C458.263,112.74 459.438,110.117 461.695,108.746 C463.197,107.834 463.674,105.876 462.762,104.375 C461.849,102.873 459.892,102.395 458.391,103.308 C453.877,106.05 451.526,111.295 452.482,116.489 C453.439,121.683 457.503,125.747 462.698,126.702 C467.892,127.657 473.137,125.305 475.878,120.791 C476.79,119.289 476.312,117.332 474.81,116.419 C473.308,115.507 471.351,115.986 470.439,117.488 Z" />
            <path d="M430.932,81.432 L494.568,145.068 C495.811,146.311 497.826,146.311 499.068,145.068 C500.311,143.825 500.311,141.811 499.068,140.568 L435.432,76.932 C434.189,75.689 432.174,75.689 430.932,76.932 C429.689,78.175 429.689,80.189 430.932,81.432 Z" />
            <path d="M490.455,133.273 L439.545,133.273 C438.702,133.273 437.892,132.938 437.296,132.341 C436.699,131.744 436.364,130.935 436.364,130.091 L436.364,101.455 C436.364,100.611 436.699,99.801 437.296,99.205 C437.892,98.608 438.702,98.273 439.545,98.273 L445.9,98.273 C447.245,98.273 448.578,97.989 449.807,97.438 C451.411,96.719 452.128,94.836 451.409,93.232 C450.69,91.629 448.807,90.912 447.204,91.631 C446.794,91.814 446.35,91.909 445.901,91.909 L439.545,91.909 C437.014,91.909 434.586,92.915 432.796,94.705 C431.006,96.495 430,98.923 430,101.455 L430,130.091 C430,132.623 431.006,135.05 432.796,136.841 C434.586,138.631 437.014,139.636 439.545,139.636 L490.455,139.636 C492.212,139.636 493.636,138.212 493.636,136.455 C493.636,134.697 492.212,133.273 490.455,133.273 Z" />
            <path d="M458.157,88.765 C458.32,88.74 458.484,88.727 458.649,88.727 L471.354,88.727 C472.524,88.727 473.599,89.369 474.154,90.398 L475.701,93.262 C477.367,96.348 480.592,98.273 484.1,98.273 L490.455,98.273 C491.298,98.273 492.108,98.608 492.704,99.205 C493.301,99.801 493.636,100.611 493.636,101.455 L493.636,124.822 C493.636,126.579 495.061,128.004 496.818,128.004 C498.575,128.004 500,126.579 500,124.822 L500,101.455 C500,98.923 498.994,96.495 497.204,94.705 C495.414,92.915 492.986,91.909 490.455,91.909 L484.1,91.909 C482.931,91.909 481.856,91.268 481.3,90.239 L479.754,87.375 C478.088,84.288 474.862,82.364 471.354,82.364 L458.649,82.364 C458.155,82.364 457.662,82.402 457.174,82.478 C455.438,82.75 454.251,84.377 454.522,86.113 C454.794,87.849 456.421,89.037 458.157,88.765 Z" />
        </g>
        <g id="Black-M" transform="translate(0,200)">
            <path d="M670.439,117.488 C669.068,119.745 666.446,120.921 663.849,120.443 C661.251,119.966 659.219,117.934 658.741,115.337 C658.263,112.74 659.438,110.117 661.695,108.746 C663.197,107.834 663.674,105.876 662.762,104.375 C661.849,102.873 659.892,102.395 658.391,103.308 C653.877,106.05 651.526,111.295 652.482,116.489 C653.439,121.683 657.503,125.747 662.698,126.702 C667.892,127.657 673.137,125.305 675.878,120.791 C676.79,119.289 676.312,117.332 674.81,116.419 C673.308,115.507 671.351,115.986 670.439,117.488 Z" />
            <path d="M630.932,81.432 L694.568,145.068 C695.811,146.311 697.826,146.311 699.068,145.068 C700.311,143.825 700.311,141.811 699.068,140.568 L635.432,76.932 C634.189,75.689 632.174,75.689 630.932,76.932 C629.689,78.175 629.689,80.189 630.932,81.432 Z" />
            <path d="M690.455,133.273 L639.545,133.273 C638.702,133.273 637.892,132.938 637.296,132.341 C636.699,131.744 636.364,130.935 636.364,130.091 L636.364,101.455 C636.364,100.611 636.699,99.801 637.296,99.205 C637.892,98.608 638.702,98.273 639.545,98.273 L645.9,98.273 C647.245,98.273 648.578,97.989 649.807,97.438 C651.411,96.719 652.128,94.836 651.409,93.232 C650.69,91.629 648.807,90.912 647.204,91.631 C646.794,91.814 646.35,91.909 645.901,91.909 L639.545,91.909 C637.014,91.909 634.586,92.915 632.796,94.705 C631.006,96.495 630,98.923 630,101.455 L630,130.091 C630,132.623 631.006,135.05 632.796,136.841 C634.586,138.631 637.014,139.636 639.545,139.636 L690.455,139.636 C692.212,139.636 693.636,138.212 693.636,136.455 C693.636,134.697 692.212,133.273 690.455,133.273 Z" />
            <path d="M658.157,88.765 C658.32,88.74 658.484,88.727 658.649,88.727 L671.354,88.727 C672.523,88.727 673.599,89.369 674.154,90.398 L675.701,93.262 C677.367,96.348 680.592,98.273 684.101,98.273 L690.455,98.273 C691.298,98.273 692.108,98.608 692.704,99.205 C693.301,99.801 693.636,100.611 693.636,101.455 L693.636,124.822 C693.636,126.579 695.061,128.004 696.818,128.004 C698.575,128.004 700,126.579 700,124.822 L700,101.455 C700,98.923 698.994,96.495 697.204,94.705 C695.414,92.915 692.986,91.909 690.455,91.909 L684.1,91.909 C682.931,91.909 681.856,91.268 681.3,90.239 L679.754,87.375 C678.088,84.288 674.862,82.364 671.354,82.364 L658.649,82.364 C658.155,82.364 657.662,82.402 657.174,82.478 C655.438,82.75 654.251,84.377 654.522,86.113 C654.794,87.849 656.421,89.037 658.157,88.765 Z" />
        </g>
    </g>
</svg>