<?xml version="1.0" encoding="UTF-8"?>
<svg height="600" width="800" xmlns="http://www.w3.org/2000/svg" xmlns:xlink="http://www.w3.org/1999/xlink">
    <g id="Notes" font-family="LucidaGrande, 'Lucida Grande', sans-serif" font-size="13">
        <rect fill="white" height="600.0" width="800.0" x="0.0" y="0.0" />
        <g font-size="13">
            <text x="18.0" y="176.0">Small</text>
            <text x="18.0" y="376.0">Medium</text>
            <text x="18.0" y="576.0">Large</text>
        </g>
        <g font-size="9">
            <text x="250.0" y="30.0">Ultralight</text>
            <text x="450.0" y="30.0">Regular</text>
            <text x="650.0" y="30.0">Black</text>
            <text id="template-version" fill="#505050" text-anchor="end" x="785.0" y="575.0">Template v.3.0</text>
            <a href="https://github.com/swhitty/SwiftDraw">
                <text fill="#505050" text-anchor="end" x="785.0" y="590.0">https://github.com/swhitty/SwiftDraw</text>
            </a>
        </g>
    </g>
    <g id="Guides" stroke="rgb(39, 170, 225)" stroke-width="0.5">
        <path id="Capline-S" d="M18,76 l800,0" />
        <path id="H-reference" d="M85,145.755 L87.685,145.755 L113.369,79.287 L114.052,79.287 L114.052,76 L112.148,76 L85,145.755 Z M95.693,121.536 L130.996,121.536 L130.263,119.313 L96.474,119.313 L95.693,121.536 Z M139.15,145.755 L141.787,145.755 L114.638,76 L113.466,76 L113.466,79.287 L139.15,145.755 Z" stroke="none" transform="translate(0,200)" />
        <path id="Baseline-S" d="M18,146 l800,0" />
        <path id="left-margin-Ultralight-M" d="M230,256 l0,110" />
        <path id="right-margin-Ultralight-M" d="M300,256 l0,110" />
        <path id="left-margin-Regular-M" d="M430,256 l0,110" />
        <path id="right-margin-Regular-M" d="M500,256 l0,110" />
        <path id="left-margin-Black-M" d="M630,256 l0,110" />
        <path id="right-margin-Black-M" d="M700,256 l0,110" />
        <path id="Capline-M" d="M18,276 l800,0" />
        <path id="Baseline-M" d="M18,346 l800,0" />
        <path id="Capline-L" d="M18,476 l800,0" />
        <path id="Baseline-L" d="M18,546 l800,0" />
    </g>
    <g id="Symbols">
        <g id="Ultralight-M" transform="translate(0,200)">
            <path d="M258,83 L272,83 C273.933,83 275.5,81.433 275.5,79.5 C275.5,77.567 273.933,76 272,76 L258,76 C256.067,76 254.5,77.567 254.5,79.5 C254.5,81.433 256.067,83 258,83 Z" />
            <path d="M294.025,98.025 L287.025,105.025 L292.744,106.185 L287.494,93.235 C286.008,89.256 282.139,86.543 277.795,86.5 L252.4,86.5 C248.099,86.4 244.116,89.031 242.49,93.1 L237.25,106.2 L242.975,105.025 L235.975,98.025 C234.608,96.658 232.392,96.658 231.025,98.025 C229.658,99.392 229.658,101.608 231.025,102.975 L238.025,109.975 C239.802,111.752 242.817,111.133 243.75,108.8 L248.989,95.699 C249.532,94.342 250.859,93.466 252.32,93.499 L277.761,93.5 C279.175,93.514 280.465,94.418 280.971,95.775 L286.256,108.815 C287.198,111.137 290.203,111.747 291.975,109.975 L298.975,102.975 C300.342,101.608 300.342,99.392 298.975,98.025 C297.608,96.658 295.392,96.658 294.025,98.025 Z" />
            <path d="M247.5,125 L247.535,125 C249.468,125 251.035,123.433 251.035,121.5 C251.035,119.567 249.468,118 247.535,118 L247.5,118 C245.567,118 244,119.567 244,121.5 C244,123.433 245.567,125 247.5,125 Z" />
            <path d="M282.5,125 L282.535,125 C284.468,125 286.035,123.433 286.035,121.5 C286.035,119.567 284.468,118 282.535,118 L282.5,118 C280.567,118 279,119.567 279,121.5 C279,123.433 280.567,125 282.5,125 Z" />
            <path d="M293,121.5 L293,128.5 C293,129.428 292.631,130.318 291.975,130.975 C291.318,131.631 290.428,132 289.5,132 L240.5,132 C239.572,132 238.682,131.631 238.025,130.975 C237.369,130.318 237,129.428 237,128.5 L237,114.5 C237,113.572 237.369,112.682 238.025,112.025 C238.682,111.369 239.572,111 240.5,111 L289.5,111 C290.428,111 291.318,111.369 291.975,112.025 C292.631,112.682 293,113.572 293,114.5 L293,121.5 Z M300,121.5 L300,114.5 C300,111.715 298.894,109.045 296.925,107.075 C294.956,105.106 292.285,104 289.5,104 L240.5,104 C237.715,104 235.045,105.106 233.075,107.075 C231.106,109.045 230,111.715 230,114.5 L230,128.5 C230,131.285 231.106,133.955 233.075,135.925 C235.045,137.894 237.715,139 240.5,139 L289.5,139 C292.285,139 294.955,137.894 296.925,135.925 C298.894,133.955 300,131.285 300,128.5 L300,121.5 Z" />
            <path d="M237,135.5 L237,142.5 C237,144.433 238.567,146 240.5,146 C242.433,146 244,144.433 244,142.5 L244,135.5 C244,133.567 242.433,132 240.5,132 C238.567,132 237,133.567 237,135.5 Z" />
            <path d="M286,135.5 L286,142.5 C286,144.433 287.567,146 289.5,146 C291.433,146 293,144.433 293,142.5 L293,135.5 C293,133.567 291.433,132 289.5,132 C287.567,132 286,133.567 286,135.5 Z" />
        </g>
        <g id="Regular-M" transform="translate(0,200)">
            <path d="M458,83 L472,83 C473.933,83 475.5,81.433 475.5,79.5 C475.5,77.567 473.933,76 472,76 L458,76 C456.067,76 454.5,77.567 454.5,79.5 C454.5,81.433 456.067,83 458,83 Z" />
            <path d="M494.025,98.025 L487.025,105.025 L492.744,106.185 L487.494,93.235 C486.008,89.256 482.139,86.543 477.795,86.5 L452.4,86.5 C448.099,86.4 444.116,89.031 442.49,93.1 L437.25,106.2 L442.975,105.025 L435.975,98.025 C434.608,96.658 432.392,96.658 431.025,98.025 C429.658,99.392 429.658,101.608 431.025,102.975 L438.025,109.975 C439.802,111.752 442.817,111.133 443.75,108.8 L448.989,95.699 C449.532,94.342 450.859,93.466 452.32,93.499 L477.761,93.5 C479.175,93.514 480.465,94.418 480.971,95.775 L486.256,108.815 C487.198,111.137 490.203,111.747 491.975,109.975 L498.975,102.975 C500.342,101.608 500.342,99.392 498.975,98.025 C497.608,96.658 495.392,96.658 494.025,98.025 Z" />
            <path d="M447.5,125 L447.535,125 C449.468,125 451.035,123.433 451.035,121.5 C451.035,119.567 449.468,118 447.535,118 L447.5,118 C445.567,118 444,119.567 444,121.5 C444,123.433 445.567,125 447.5,125 Z" />
            <path d="M482.5,125 L482.535,125 C484.468,125 486.035,123.433 486.035,121.5 C486.035,119.567 484.468,118 482.535,118 L482.5,118 C480.567,118 479,119.567 479,121.5 C479,123.433 480.567,125 482.5,125 Z" />
            <path d="M493,121.5 L493,128.5 C493,129.428 492.631,130.318 491.975,130.975 C491.318,131.631 490.428,132 489.5,132 L440.5,132 C439.572,132 438.682,131.631 438.025,130.975 C437.369,130.318 437,129.428 437,128.5 L437,114.5 C437,113.572 437.369,112.682 438.025,112.025 C438.682,111.369 439.572,111 440.5,111 L489.5,111 C490.428,111 491.318,111.369 491.975,112.025 C492.631,112.682 493,113.572 493,114.5 L493,121.5 Z M500,121.5 L500,114.5 C500,111.715 498.894,109.045 496.925,107.075 C494.956,105.106 492.285,104 489.5,104 L440.5,104 C437.715,104 435.044,105.106 433.075,107.075 C431.106,109.045 430,111.715 430,114.5 L430,128.5 C430,131.285 431.106,133.955 433.075,135.925 C435.045,137.894 437.715,139 440.5,139 L489.5,139 C492.285,139 494.955,137.894 496.925,135.925 C498.894,133.955 500,131.285 500,128.5 L500,121.5 Z" />
            <path d="M437,135.5 L437,142.5 C437,144.433 438.567,146 440.5,146 C442.433,146 444,144.433 444,142.5 L444,135.5 C444,133.567 442.433,132 440.5,132 C438.567,132 437,133.567 437,135.5 Z" />
            <path d="M486,135.5 L486,142.5 C486,144.433 487.567,146 489.5,146 C491.433,146 493,144.433 493,142.5 L493,135.5 C493,133.567 491.433,132 489.5,132 C487.567,132 486,133.567 486,135.5 Z" />
        </g>
        <g id="Black-M" transform="translate(0,200)">
            <path d="M658,83 L672,83 C673.933,83 675.5,81.433 675.5,79.5 C675.5,77.567 673.933,76 672,76 L658,76 C656.067,76 654.5,77.567 654.5,79.5 C654.5,81.433 656.067,83 658,83 Z" />
            <path d="M694.025,98.025 L687.025,105.025 L692.744,106.185 L687.494,93.235 C686.008,89.256 682.139,86.543 677.795,86.5 L652.4,86.5 C648.099,86.4 644.116,89.031 642.49,93.1 L637.25,106.2 L642.975,105.025 L635.975,98.025 C634.608,96.658 632.392,96.658 631.025,98.025 C629.658,99.392 629.658,101.608 631.025,102.975 L638.025,109.975 C639.802,111.752 642.817,111.133 643.75,108.8 L648.989,95.699 C649.532,94.342 650.859,93.466 652.32,93.499 L677.761,93.5 C679.175,93.514 680.465,94.418 680.971,95.775 L686.256,108.815 C687.198,111.137 690.203,111.747 691.975,109.975 L698.975,102.975 C700.342,101.608 700.342,99.392 698.975,98.025 C697.608,96.658 695.392,96.658 694.025,98.025 Z" />
            <path d="M647.5,125 L647.535,125 C649.468,125 651.035,123.433 651.035,121.5 C651.035,119.567 649.468,118 647.535,118 L647.5,118 C645.567,118 644,119.567 644,121.5 C644,123.433 645.567,125 647.5,125 Z" />
            <path d="M682.5,125 L682.535,125 C684.468,125 686.035,123.433 686.035,121.5 C686.035,119.567 684.468,118 682.535,118 L682.5,118 C680.567,118 679,119.567 679,121.5 C679,123.433 680.567,125 682.5,125 Z" />
            <path d="M693,121.5 L693,128.5 C693,129.428 692.631,130.318 691.975,130.975 C691.318,131.631 690.428,132 689.5,132 L640.5,132 C639.572,132 638.682,131.631 638.025,130.975 C637.369,130.318 637,129.428 637,128.5 L637,114.5 C637,113.572 637.369,112.682 638.025,112.025 C638.682,111.369 639.572,111 640.5,111 L689.5,111 C690.428,111 691.318,111.369 691.975,112.025 C692.631,112.682 693,113.572 693,114.5 L693,121.5 Z M700,121.5 L700,114.5 C700,111.715 698.894,109.045 696.925,107.075 C694.956,105.106 692.285,104 689.5,104 L640.5,104 C637.715,104 635.044,105.106 633.075,107.075 C631.106,109.045 630,111.715 630,114.5 L630,128.5 C630,131.285 631.106,133.955 633.075,135.925 C635.044,137.894 637.715,139 640.5,139 L689.5,139 C692.285,139 694.956,137.894 696.925,135.925 C698.894,133.955 700,131.285 700,128.5 L700,121.5 Z" />
            <path d="M637,135.5 L637,142.5 C637,144.433 638.567,146 640.5,146 C642.433,146 644,144.433 644,142.5 L644,135.5 C644,133.567 642.433,132 640.5,132 C638.567,132 637,133.567 637,135.5 Z" />
            <path d="M686,135.5 L686,142.5 C686,144.433 687.567,146 689.5,146 C691.433,146 693,144.433 693,142.5 L693,135.5 C693,133.567 691.433,132 689.5,132 C687.567,132 686,133.567 686,135.5 Z" />
        </g>
    </g>
</svg>