<?xml version="1.0" encoding="UTF-8"?>
<svg height="600" width="800" xmlns="http://www.w3.org/2000/svg" xmlns:xlink="http://www.w3.org/1999/xlink">
    <g id="Notes" font-family="LucidaGrande, 'Lucida Grande', sans-serif" font-size="13">
        <rect fill="white" height="600.0" width="800.0" x="0.0" y="0.0" />
        <g font-size="13">
            <text x="18.0" y="176.0">Small</text>
            <text x="18.0" y="376.0">Medium</text>
            <text x="18.0" y="576.0">Large</text>
        </g>
        <g font-size="9">
            <text x="250.0" y="30.0">Ultralight</text>
            <text x="450.0" y="30.0">Regular</text>
            <text x="650.0" y="30.0">Black</text>
            <text id="template-version" fill="#505050" text-anchor="end" x="785.0" y="575.0">Template v.3.0</text>
            <a href="https://github.com/swhitty/SwiftDraw">
                <text fill="#505050" text-anchor="end" x="785.0" y="590.0">https://github.com/swhitty/SwiftDraw</text>
            </a>
        </g>
    </g>
    <g id="Guides" stroke="rgb(39, 170, 225)" stroke-width="0.5">
        <path id="Capline-S" d="M18,76 l800,0" />
        <path id="H-reference" d="M85,145.755 L87.685,145.755 L113.369,79.287 L114.052,79.287 L114.052,76 L112.148,76 L85,145.755 Z M95.693,121.536 L130.996,121.536 L130.263,119.313 L96.474,119.313 L95.693,121.536 Z M139.15,145.755 L141.787,145.755 L114.638,76 L113.466,76 L113.466,79.287 L139.15,145.755 Z" stroke="none" transform="translate(0,200)" />
        <path id="Baseline-S" d="M18,146 l800,0" />
        <path id="left-margin-Ultralight-M" d="M221,256 l0,110" />
        <path id="right-margin-Ultralight-M" d="M309,256 l0,110" />
        <path id="left-margin-Regular-M" d="M421,256 l0,110" />
        <path id="right-margin-Regular-M" d="M509,256 l0,110" />
        <path id="left-margin-Black-M" d="M621,256 l0,110" />
        <path id="right-margin-Black-M" d="M709,256 l0,110" />
        <path id="Capline-M" d="M18,276 l800,0" />
        <path id="Baseline-M" d="M18,346 l800,0" />
        <path id="Capline-L" d="M18,476 l800,0" />
        <path id="Baseline-L" d="M18,546 l800,0" />
    </g>
    <g id="Symbols">
        <g id="Ultralight-M" transform="translate(0,200)">
            <path d="M293,131 L301,131 C305.609,131 309,127.609 309,123 L309,111 C309,105.647 305.039,100.787 299.97,99.519 C299.055,99.264 297.942,98.966 296.74,98.655 C295.904,98.438 295.03,98.216 294.12,97.988 C291.437,97.317 288.568,96.632 285.699,95.968 C284.695,95.736 283.763,95.523 282.927,95.333 C282.064,95.139 282.064,95.139 281.868,95.095 L283.931,96.278 C283.573,95.893 282.947,95.222 282.137,94.36 C280.788,92.924 279.425,91.488 278.133,90.145 C277.965,89.971 277.965,89.971 277.797,89.797 C276.774,88.737 275.844,87.787 275.028,86.972 L274.699,86.677 C271.78,84.341 268.561,83 265,83 L237,83 C233.218,83 229.956,85.232 227.97,88.542 L222.198,100.461 L222.016,100.903 C221.343,102.865 221,104.925 221,107 L221,123 C221,127.609 224.391,131 229,131 L237,131 C239.209,131 241,129.209 241,127 C241,124.791 239.209,123 237,123 L229,123 C228.809,123 229,123.191 229,123 L229,107 C229,105.808 229.197,104.625 229.584,103.497 L225.8,102.2 L229.402,103.939 L235.002,92.339 C235.479,91.575 236.321,91 237,91 L265,91 C266.559,91 268.099,91.641 269.701,92.923 L272.2,89.8 L269.372,92.628 C270.15,93.407 271.048,94.324 272.04,95.352 C272.204,95.522 272.204,95.522 272.368,95.693 C273.637,97.01 274.978,98.425 276.308,99.839 C277.106,100.688 277.721,101.347 278.069,101.722 C278.621,102.316 279.34,102.729 280.132,102.905 C280.881,103.071 282.199,103.369 283.895,103.762 C286.721,104.416 289.547,105.091 292.18,105.749 C293.068,105.971 293.92,106.188 294.732,106.399 C295.892,106.699 296.961,106.985 297.929,107.254 C299.602,107.674 301,109.389 301,111 L301,123 C301,123.191 301.191,123 301,123 L293,123 C290.791,123 289,124.791 289,127 C289,129.209 290.791,131 293,131 Z" />
            <path d="M241,127 C241,124.791 242.791,123 245,123 C247.209,123 249,124.791 249,127 C249,129.209 247.209,131 245,131 C242.791,131 241,129.209 241,127 Z M233,127 C233,133.627 238.373,139 245,139 C251.627,139 257,133.627 257,127 C257,120.373 251.627,115 245,115 C238.373,115 233,120.373 233,127 Z" />
            <path d="M253,131 L277,131 C279.209,131 281,129.209 281,127 C281,124.791 279.209,123 277,123 L253,123 C250.791,123 249,124.791 249,127 C249,129.209 250.791,131 253,131 Z" />
            <path d="M281,127 C281,124.791 282.791,123 285,123 C287.209,123 289,124.791 289,127 C289,129.209 287.209,131 285,131 C282.791,131 281,129.209 281,127 Z M273,127 C273,133.627 278.373,139 285,139 C291.627,139 297,133.627 297,127 C297,120.373 291.627,115 285,115 C278.373,115 273,120.373 273,127 Z" />
        </g>
        <g id="Regular-M" transform="translate(0,200)">
            <path d="M493,131 L501,131 C505.609,131 509,127.609 509,123 L509,111 C509,105.647 505.039,100.787 499.97,99.519 C499.055,99.264 497.942,98.966 496.74,98.655 C495.904,98.438 495.03,98.216 494.12,97.988 C491.437,97.317 488.568,96.632 485.699,95.968 C484.695,95.736 483.763,95.523 482.927,95.333 C482.064,95.139 482.064,95.139 481.868,95.095 L483.931,96.278 C483.573,95.893 482.947,95.222 482.137,94.36 C480.788,92.924 479.425,91.488 478.133,90.145 C477.965,89.971 477.965,89.971 477.797,89.797 C476.774,88.737 475.844,87.787 475.028,86.972 L474.699,86.677 C471.78,84.341 468.561,83 465,83 L437,83 C433.218,83 429.956,85.232 427.97,88.542 L422.198,100.461 L422.016,100.903 C421.343,102.865 421,104.925 421,107 L421,123 C421,127.609 424.391,131 429,131 L437,131 C439.209,131 441,129.209 441,127 C441,124.791 439.209,123 437,123 L429,123 C428.809,123 429,123.191 429,123 L429,107 C429,105.808 429.197,104.625 429.584,103.497 L425.8,102.2 L429.402,103.939 L435.002,92.339 C435.479,91.575 436.321,91 437,91 L465,91 C466.559,91 468.099,91.641 469.701,92.923 L472.2,89.8 L469.372,92.628 C470.15,93.407 471.048,94.324 472.04,95.352 C472.204,95.522 472.204,95.522 472.368,95.693 C473.637,97.01 474.978,98.425 476.308,99.839 C477.106,100.688 477.721,101.347 478.069,101.722 C478.621,102.316 479.34,102.729 480.132,102.905 C480.881,103.071 482.199,103.369 483.895,103.762 C486.721,104.416 489.547,105.091 492.18,105.749 C493.068,105.971 493.92,106.188 494.732,106.399 C495.892,106.699 496.961,106.985 497.929,107.254 C499.602,107.674 501,109.389 501,111 L501,123 C501,123.191 501.191,123 501,123 L493,123 C490.791,123 489,124.791 489,127 C489,129.209 490.791,131 493,131 Z" />
            <path d="M441,127 C441,124.791 442.791,123 445,123 C447.209,123 449,124.791 449,127 C449,129.209 447.209,131 445,131 C442.791,131 441,129.209 441,127 Z M433,127 C433,133.627 438.373,139 445,139 C451.627,139 457,133.627 457,127 C457,120.373 451.627,115 445,115 C438.373,115 433,120.373 433,127 Z" />
            <path d="M453,131 L477,131 C479.209,131 481,129.209 481,127 C481,124.791 479.209,123 477,123 L453,123 C450.791,123 449,124.791 449,127 C449,129.209 450.791,131 453,131 Z" />
            <path d="M481,127 C481,124.791 482.791,123 485,123 C487.209,123 489,124.791 489,127 C489,129.209 487.209,131 485,131 C482.791,131 481,129.209 481,127 Z M473,127 C473,133.627 478.373,139 485,139 C491.627,139 497,133.627 497,127 C497,120.373 491.627,115 485,115 C478.373,115 473,120.373 473,127 Z" />
        </g>
        <g id="Black-M" transform="translate(0,200)">
            <path d="M693,131 L701,131 C705.609,131 709,127.609 709,123 L709,111 C709,105.647 705.039,100.787 699.97,99.519 C699.055,99.264 697.942,98.966 696.74,98.655 C695.904,98.438 695.03,98.216 694.12,97.988 C691.437,97.317 688.568,96.632 685.699,95.968 C684.695,95.736 683.763,95.523 682.927,95.333 C682.064,95.139 682.064,95.139 681.868,95.095 L683.931,96.278 C683.573,95.893 682.947,95.222 682.137,94.36 C680.788,92.924 679.425,91.488 678.133,90.145 C677.965,89.971 677.965,89.971 677.797,89.797 C676.774,88.737 675.844,87.787 675.028,86.972 L674.699,86.677 C671.78,84.341 668.561,83 665,83 L637,83 C633.218,83 629.956,85.232 627.97,88.542 L622.198,100.461 L622.016,100.903 C621.343,102.865 621,104.925 621,107 L621,123 C621,127.609 624.391,131 629,131 L637,131 C639.209,131 641,129.209 641,127 C641,124.791 639.209,123 637,123 L629,123 C628.809,123 629,123.191 629,123 L629,107 C629,105.808 629.197,104.625 629.584,103.497 L625.8,102.2 L629.402,103.939 L635.002,92.339 C635.479,91.575 636.321,91 637,91 L665,91 C666.559,91 668.099,91.641 669.701,92.923 L672.2,89.8 L669.372,92.628 C670.15,93.407 671.048,94.324 672.04,95.352 C672.204,95.522 672.204,95.522 672.369,95.693 C673.636,97.01 674.978,98.425 676.308,99.839 C677.106,100.688 677.721,101.347 678.069,101.722 C678.621,102.316 679.34,102.729 680.132,102.905 C680.881,103.071 682.199,103.369 683.895,103.762 C686.721,104.416 689.547,105.091 692.18,105.749 C693.068,105.971 693.92,106.188 694.732,106.399 C695.892,106.699 696.961,106.985 697.929,107.254 C699.602,107.674 701,109.389 701,111 L701,123 C701,123.191 701.191,123 701,123 L693,123 C690.791,123 689,124.791 689,127 C689,129.209 690.791,131 693,131 Z" />
            <path d="M641,127 C641,124.791 642.791,123 645,123 C647.209,123 649,124.791 649,127 C649,129.209 647.209,131 645,131 C642.791,131 641,129.209 641,127 Z M633,127 C633,133.627 638.373,139 645,139 C651.627,139 657,133.627 657,127 C657,120.373 651.627,115 645,115 C638.373,115 633,120.373 633,127 Z" />
            <path d="M653,131 L677,131 C679.209,131 681,129.209 681,127 C681,124.791 679.209,123 677,123 L653,123 C650.791,123 649,124.791 649,127 C649,129.209 650.791,131 653,131 Z" />
            <path d="M681,127 C681,124.791 682.791,123 685,123 C687.209,123 689,124.791 689,127 C689,129.209 687.209,131 685,131 C682.791,131 681,129.209 681,127 Z M673,127 C673,133.627 678.373,139 685,139 C691.627,139 697,133.627 697,127 C697,120.373 691.627,115 685,115 C678.373,115 673,120.373 673,127 Z" />
        </g>
    </g>
</svg>