<?xml version="1.0" encoding="UTF-8"?>
<svg height="600" width="800" xmlns="http://www.w3.org/2000/svg" xmlns:xlink="http://www.w3.org/1999/xlink">
    <g id="Notes" font-family="LucidaGrande, 'Lucida Grande', sans-serif" font-size="13">
        <rect fill="white" height="600.0" width="800.0" x="0.0" y="0.0" />
        <g font-size="13">
            <text x="18.0" y="176.0">Small</text>
            <text x="18.0" y="376.0">Medium</text>
            <text x="18.0" y="576.0">Large</text>
        </g>
        <g font-size="9">
            <text x="250.0" y="30.0">Ultralight</text>
            <text x="450.0" y="30.0">Regular</text>
            <text x="650.0" y="30.0">Black</text>
            <text id="template-version" fill="#505050" text-anchor="end" x="785.0" y="575.0">Template v.3.0</text>
            <a href="https://github.com/swhitty/SwiftDraw">
                <text fill="#505050" text-anchor="end" x="785.0" y="590.0">https://github.com/swhitty/SwiftDraw</text>
            </a>
        </g>
    </g>
    <g id="Guides" stroke="rgb(39, 170, 225)" stroke-width="0.5">
        <path id="Capline-S" d="M18,76 l800,0" />
        <path id="H-reference" d="M85,145.755 L87.685,145.755 L113.369,79.287 L114.052,79.287 L114.052,76 L112.148,76 L85,145.755 Z M95.693,121.536 L130.996,121.536 L130.263,119.313 L96.474,119.313 L95.693,121.536 Z M139.15,145.755 L141.787,145.755 L114.638,76 L113.466,76 L113.466,79.287 L139.15,145.755 Z" stroke="none" transform="translate(0,200)" />
        <path id="Baseline-S" d="M18,146 l800,0" />
        <path id="left-margin-Ultralight-M" d="M222.222,256 l0,110" />
        <path id="right-margin-Ultralight-M" d="M307.778,256 l0,110" />
        <path id="left-margin-Regular-M" d="M422.222,256 l0,110" />
        <path id="right-margin-Regular-M" d="M507.778,256 l0,110" />
        <path id="left-margin-Black-M" d="M622.222,256 l0,110" />
        <path id="right-margin-Black-M" d="M707.778,256 l0,110" />
        <path id="Capline-M" d="M18,276 l800,0" />
        <path id="Baseline-M" d="M18,346 l800,0" />
        <path id="Capline-L" d="M18,476 l800,0" />
        <path id="Baseline-L" d="M18,546 l800,0" />
    </g>
    <g id="Symbols">
        <g id="Ultralight-M" transform="translate(0,200)">
            <path d="M300,111 L300,134.333 C300,135.365 299.59,136.354 298.861,137.083 C298.132,137.812 297.143,138.222 296.111,138.222 L233.889,138.222 C232.857,138.222 231.868,137.812 231.139,137.083 C230.41,136.354 230,135.365 230,134.333 L230,87.667 C230,86.635 230.41,85.646 231.139,84.917 C231.868,84.188 232.857,83.778 233.889,83.778 L296.111,83.778 C297.143,83.778 298.132,84.188 298.861,84.917 C299.59,85.646 300,86.635 300,87.667 L300,111 Z M307.778,111 L307.778,87.667 C307.778,84.572 306.549,81.605 304.361,79.417 C302.173,77.229 299.205,76 296.111,76 L233.889,76 C230.795,76 227.827,77.229 225.639,79.417 C223.451,81.605 222.222,84.572 222.222,87.667 L222.222,134.333 C222.222,137.428 223.451,140.395 225.639,142.583 C227.827,144.771 230.795,146 233.889,146 L296.111,146 C299.205,146 302.173,144.771 304.361,142.583 C306.549,140.395 307.778,137.428 307.778,134.333 L307.778,111 Z" />
            <path d="M245.556,103.222 C245.556,101.074 247.297,99.333 249.444,99.333 C251.592,99.333 253.333,101.074 253.333,103.222 C253.333,105.37 251.592,107.111 249.444,107.111 C247.297,107.111 245.556,105.37 245.556,103.222 Z M237.778,103.222 C237.778,109.666 243.001,114.889 249.444,114.889 C255.888,114.889 261.111,109.666 261.111,103.222 C261.111,96.779 255.888,91.556 249.444,91.556 C243.001,91.556 237.778,96.779 237.778,103.222 Z" />
            <path d="M249.444,114.889 L280.556,114.889 C282.703,114.889 284.444,113.148 284.444,111 C284.444,108.852 282.703,107.111 280.556,107.111 L249.444,107.111 C247.297,107.111 245.556,108.852 245.556,111 C245.556,113.148 247.297,114.889 249.444,114.889 Z" />
            <path d="M276.667,103.222 C276.667,101.074 278.408,99.333 280.556,99.333 C282.703,99.333 284.444,101.074 284.444,103.222 C284.444,105.37 282.703,107.111 280.556,107.111 C278.408,107.111 276.667,105.37 276.667,103.222 Z M268.889,103.222 C268.889,109.666 274.112,114.889 280.556,114.889 C286.999,114.889 292.222,109.666 292.222,103.222 C292.222,96.779 286.999,91.556 280.556,91.556 C274.112,91.556 268.889,96.779 268.889,103.222 Z" />
            <path d="M245.447,143.024 L248.169,131.746 C248.347,130.939 248.999,130.426 249.743,130.443 L280.167,130.444 C281.04,130.412 281.68,130.869 281.883,131.552 L284.546,142.995 C285.034,145.086 287.125,146.386 289.217,145.898 C291.309,145.41 292.609,143.319 292.121,141.227 L289.398,129.561 C288.121,125.239 284.276,122.493 280.006,122.67 L249.833,122.667 C245.458,122.564 241.546,125.638 240.59,130.001 L237.886,141.199 C237.382,143.286 238.666,145.387 240.754,145.891 C242.842,146.395 244.943,145.111 245.447,143.024 Z" />
        </g>
        <g id="Regular-M" transform="translate(0,200)">
            <path d="M500,111 L500,134.333 C500,135.365 499.59,136.354 498.861,137.083 C498.132,137.812 497.143,138.222 496.111,138.222 L433.889,138.222 C432.858,138.222 431.868,137.812 431.139,137.083 C430.41,136.354 430,135.365 430,134.333 L430,87.667 C430,86.635 430.41,85.646 431.139,84.917 C431.868,84.188 432.857,83.778 433.889,83.778 L496.111,83.778 C497.143,83.778 498.132,84.188 498.861,84.917 C499.59,85.646 500,86.635 500,87.667 L500,111 Z M507.778,111 L507.778,87.667 C507.778,84.572 506.549,81.605 504.361,79.417 C502.173,77.229 499.205,76 496.111,76 L433.889,76 C430.795,76 427.827,77.229 425.639,79.417 C423.451,81.605 422.222,84.572 422.222,87.667 L422.222,134.333 C422.222,137.428 423.451,140.395 425.639,142.583 C427.827,144.771 430.795,146 433.889,146 L496.111,146 C499.205,146 502.173,144.771 504.361,142.583 C506.549,140.395 507.778,137.428 507.778,134.333 L507.778,111 Z" />
            <path d="M445.556,103.222 C445.556,101.074 447.297,99.333 449.444,99.333 C451.592,99.333 453.333,101.074 453.333,103.222 C453.333,105.37 451.592,107.111 449.444,107.111 C447.297,107.111 445.556,105.37 445.556,103.222 Z M437.778,103.222 C437.778,109.666 443.001,114.889 449.444,114.889 C455.888,114.889 461.111,109.666 461.111,103.222 C461.111,96.779 455.888,91.556 449.444,91.556 C443.001,91.556 437.778,96.779 437.778,103.222 Z" />
            <path d="M449.444,114.889 L480.556,114.889 C482.703,114.889 484.444,113.148 484.444,111 C484.444,108.852 482.703,107.111 480.556,107.111 L449.444,107.111 C447.297,107.111 445.556,108.852 445.556,111 C445.556,113.148 447.297,114.889 449.444,114.889 Z" />
            <path d="M476.667,103.222 C476.667,101.074 478.408,99.333 480.556,99.333 C482.703,99.333 484.444,101.074 484.444,103.222 C484.444,105.37 482.703,107.111 480.556,107.111 C478.408,107.111 476.667,105.37 476.667,103.222 Z M468.889,103.222 C468.889,109.666 474.112,114.889 480.556,114.889 C486.999,114.889 492.222,109.666 492.222,103.222 C492.222,96.779 486.999,91.556 480.556,91.556 C474.112,91.556 468.889,96.779 468.889,103.222 Z" />
            <path d="M445.447,143.024 L448.169,131.746 C448.347,130.939 448.999,130.426 449.743,130.443 L480.167,130.444 C481.04,130.412 481.68,130.869 481.883,131.552 L484.546,142.995 C485.034,145.086 487.125,146.386 489.217,145.898 C491.309,145.41 492.609,143.319 492.121,141.227 L489.398,129.561 C488.121,125.239 484.276,122.493 480.006,122.67 L449.833,122.667 C445.458,122.564 441.546,125.638 440.59,130.001 L437.886,141.199 C437.382,143.286 438.666,145.387 440.754,145.891 C442.842,146.395 444.943,145.111 445.447,143.024 Z" />
        </g>
        <g id="Black-M" transform="translate(0,200)">
            <path d="M700,111 L700,134.333 C700,135.365 699.59,136.354 698.861,137.083 C698.132,137.812 697.143,138.222 696.111,138.222 L633.889,138.222 C632.857,138.222 631.868,137.812 631.139,137.083 C630.41,136.354 630,135.365 630,134.333 L630,87.667 C630,86.635 630.41,85.646 631.139,84.917 C631.868,84.188 632.857,83.778 633.889,83.778 L696.111,83.778 C697.143,83.778 698.132,84.188 698.861,84.917 C699.59,85.646 700,86.635 700,87.667 L700,111 Z M707.778,111 L707.778,87.667 C707.778,84.572 706.549,81.605 704.361,79.417 C702.173,77.229 699.205,76 696.111,76 L633.889,76 C630.795,76 627.827,77.229 625.639,79.417 C623.451,81.605 622.222,84.572 622.222,87.667 L622.222,134.333 C622.222,137.428 623.451,140.395 625.639,142.583 C627.827,144.771 630.795,146 633.889,146 L696.111,146 C699.205,146 702.173,144.771 704.361,142.583 C706.549,140.395 707.778,137.428 707.778,134.333 L707.778,111 Z" />
            <path d="M645.556,103.222 C645.556,101.074 647.297,99.333 649.444,99.333 C651.592,99.333 653.333,101.074 653.333,103.222 C653.333,105.37 651.592,107.111 649.444,107.111 C647.297,107.111 645.556,105.37 645.556,103.222 Z M637.778,103.222 C637.778,109.666 643.001,114.889 649.444,114.889 C655.888,114.889 661.111,109.666 661.111,103.222 C661.111,96.779 655.888,91.556 649.444,91.556 C643.001,91.556 637.778,96.779 637.778,103.222 Z" />
            <path d="M649.444,114.889 L680.556,114.889 C682.703,114.889 684.444,113.148 684.444,111 C684.444,108.852 682.703,107.111 680.556,107.111 L649.444,107.111 C647.297,107.111 645.556,108.852 645.556,111 C645.556,113.148 647.297,114.889 649.444,114.889 Z" />
            <path d="M676.667,103.222 C676.667,101.074 678.408,99.333 680.556,99.333 C682.703,99.333 684.444,101.074 684.444,103.222 C684.444,105.37 682.703,107.111 680.556,107.111 C678.408,107.111 676.667,105.37 676.667,103.222 Z M668.889,103.222 C668.889,109.666 674.112,114.889 680.556,114.889 C686.999,114.889 692.222,109.666 692.222,103.222 C692.222,96.779 686.999,91.556 680.556,91.556 C674.112,91.556 668.889,96.779 668.889,103.222 Z" />
            <path d="M645.447,143.024 L648.169,131.746 C648.347,130.939 648.999,130.426 649.743,130.443 L680.167,130.444 C681.04,130.412 681.68,130.869 681.883,131.552 L684.546,142.995 C685.034,145.086 687.125,146.386 689.217,145.898 C691.309,145.41 692.609,143.319 692.12,141.227 L689.398,129.561 C688.121,125.239 684.276,122.493 680.006,122.67 L649.833,122.667 C645.458,122.564 641.546,125.638 640.59,130.001 L637.886,141.199 C637.382,143.286 638.666,145.387 640.754,145.891 C642.842,146.395 644.943,145.111 645.447,143.024 Z" />
        </g>
    </g>
</svg>