<?xml version="1.0" encoding="UTF-8"?>
<svg height="600" width="800" xmlns="http://www.w3.org/2000/svg" xmlns:xlink="http://www.w3.org/1999/xlink">
    <g id="Notes" font-family="LucidaGrande, 'Lucida Grande', sans-serif" font-size="13">
        <rect fill="white" height="600.0" width="800.0" x="0.0" y="0.0" />
        <g font-size="13">
            <text x="18.0" y="176.0">Small</text>
            <text x="18.0" y="376.0">Medium</text>
            <text x="18.0" y="576.0">Large</text>
        </g>
        <g font-size="9">
            <text x="250.0" y="30.0">Ultralight</text>
            <text x="450.0" y="30.0">Regular</text>
            <text x="650.0" y="30.0">Black</text>
            <text id="template-version" fill="#505050" text-anchor="end" x="785.0" y="575.0">Template v.3.0</text>
            <a href="https://github.com/swhitty/SwiftDraw">
                <text fill="#505050" text-anchor="end" x="785.0" y="590.0">https://github.com/swhitty/SwiftDraw</text>
            </a>
        </g>
    </g>
    <g id="Guides" stroke="rgb(39, 170, 225)" stroke-width="0.5">
        <path id="Capline-S" d="M18,76 l800,0" />
        <path id="H-reference" d="M85,145.755 L87.685,145.755 L113.369,79.287 L114.052,79.287 L114.052,76 L112.148,76 L85,145.755 Z M95.693,121.536 L130.996,121.536 L130.263,119.313 L96.474,119.313 L95.693,121.536 Z M139.15,145.755 L141.787,145.755 L114.638,76 L113.466,76 L113.466,79.287 L139.15,145.755 Z" stroke="none" transform="translate(0,200)" />
        <path id="Baseline-S" d="M18,146 l800,0" />
        <path id="left-margin-Ultralight-M" d="M222.222,256 l0,110" />
        <path id="right-margin-Ultralight-M" d="M307.778,256 l0,110" />
        <path id="left-margin-Regular-M" d="M422.222,256 l0,110" />
        <path id="right-margin-Regular-M" d="M507.778,256 l0,110" />
        <path id="left-margin-Black-M" d="M622.222,256 l0,110" />
        <path id="right-margin-Black-M" d="M707.778,256 l0,110" />
        <path id="Capline-M" d="M18,276 l800,0" />
        <path id="Baseline-M" d="M18,346 l800,0" />
        <path id="Capline-L" d="M18,476 l800,0" />
        <path id="Baseline-L" d="M18,546 l800,0" />
    </g>
    <g id="Symbols">
        <g id="Ultralight-M" transform="translate(0,200)">
            <path d="M230,95.444 L230,87.667 C230,86.635 230.41,85.646 231.139,84.917 C231.868,84.188 232.857,83.778 233.889,83.778 L296.111,83.778 C297.143,83.778 298.132,84.188 298.861,84.917 C299.59,85.646 300,86.635 300,87.667 L300,134.333 C300,135.365 299.59,136.354 298.861,137.083 C298.132,137.812 297.143,138.222 296.111,138.222 L272.778,138.222 C270.63,138.222 268.889,139.963 268.889,142.111 C268.889,144.259 270.63,146 272.778,146 L296.111,146 C299.205,146 302.173,144.771 304.361,142.583 C306.549,140.395 307.778,137.428 307.778,134.333 L307.778,87.667 C307.778,84.572 306.549,81.605 304.361,79.417 C302.173,77.229 299.205,76 296.111,76 L233.889,76 C230.795,76 227.827,77.229 225.639,79.417 C223.451,81.605 222.222,84.572 222.222,87.667 L222.222,95.444 C222.222,97.592 223.963,99.333 226.111,99.333 C228.259,99.333 230,97.592 230,95.444 Z" />
            <path d="M225.701,114.867 C240.285,116.415 251.807,127.937 253.355,142.521 C253.582,144.657 255.497,146.205 257.633,145.978 C259.768,145.752 261.316,143.837 261.089,141.701 C259.155,123.471 244.752,109.067 226.521,107.133 C224.386,106.906 222.471,108.454 222.244,110.59 C222.017,112.725 223.565,114.641 225.701,114.867 Z" />
            <path d="M225.399,130.379 C231.721,131.556 236.666,136.502 237.844,142.823 C238.237,144.935 240.267,146.327 242.379,145.934 C244.49,145.541 245.883,143.511 245.49,141.399 C243.724,131.917 236.305,124.498 226.823,122.732 C224.712,122.339 222.681,123.732 222.288,125.844 C221.895,127.955 223.288,129.985 225.399,130.379 Z" />
            <path d="M226.111,146 L226.15,146 C228.298,146 230.039,144.259 230.039,142.111 C230.039,139.963 228.298,138.222 226.15,138.222 L226.111,138.222 C223.963,138.222 222.222,139.963 222.222,142.111 C222.222,144.259 223.963,146 226.111,146 Z" />
        </g>
        <g id="Regular-M" transform="translate(0,200)">
            <path d="M430,95.444 L430,87.667 C430,86.635 430.41,85.646 431.139,84.917 C431.868,84.188 432.857,83.778 433.889,83.778 L496.111,83.778 C497.143,83.778 498.132,84.188 498.861,84.917 C499.59,85.646 500,86.635 500,87.667 L500,134.333 C500,135.365 499.59,136.354 498.861,137.083 C498.132,137.812 497.143,138.222 496.111,138.222 L472.778,138.222 C470.63,138.222 468.889,139.963 468.889,142.111 C468.889,144.259 470.63,146 472.778,146 L496.111,146 C499.205,146 502.173,144.771 504.361,142.583 C506.549,140.395 507.778,137.428 507.778,134.333 L507.778,87.667 C507.778,84.572 506.549,81.605 504.361,79.417 C502.173,77.229 499.205,76 496.111,76 L433.889,76 C430.795,76 427.827,77.229 425.639,79.417 C423.451,81.605 422.222,84.572 422.222,87.667 L422.222,95.444 C422.222,97.592 423.963,99.333 426.111,99.333 C428.259,99.333 430,97.592 430,95.444 Z" />
            <path d="M425.701,114.867 C440.285,116.415 451.807,127.937 453.355,142.521 C453.582,144.657 455.497,146.205 457.633,145.978 C459.768,145.752 461.316,143.837 461.089,141.701 C459.155,123.471 444.752,109.067 426.522,107.133 C424.386,106.906 422.471,108.454 422.244,110.59 C422.017,112.725 423.565,114.641 425.701,114.867 Z" />
            <path d="M425.399,130.379 C431.721,131.556 436.666,136.502 437.844,142.823 C438.237,144.935 440.267,146.327 442.379,145.934 C444.49,145.541 445.883,143.511 445.49,141.399 C443.724,131.917 436.305,124.498 426.823,122.732 C424.712,122.339 422.681,123.732 422.288,125.844 C421.895,127.955 423.288,129.985 425.399,130.379 Z" />
            <path d="M426.111,146 L426.15,146 C428.298,146 430.039,144.259 430.039,142.111 C430.039,139.963 428.298,138.222 426.15,138.222 L426.111,138.222 C423.963,138.222 422.222,139.963 422.222,142.111 C422.222,144.259 423.963,146 426.111,146 Z" />
        </g>
        <g id="Black-M" transform="translate(0,200)">
            <path d="M630,95.444 L630,87.667 C630,86.635 630.41,85.646 631.139,84.917 C631.868,84.188 632.857,83.778 633.889,83.778 L696.111,83.778 C697.143,83.778 698.132,84.188 698.861,84.917 C699.59,85.646 700,86.635 700,87.667 L700,134.333 C700,135.365 699.59,136.354 698.861,137.083 C698.132,137.812 697.143,138.222 696.111,138.222 L672.778,138.222 C670.63,138.222 668.889,139.963 668.889,142.111 C668.889,144.259 670.63,146 672.778,146 L696.111,146 C699.205,146 702.173,144.771 704.361,142.583 C706.549,140.395 707.778,137.428 707.778,134.333 L707.778,87.667 C707.778,84.572 706.549,81.605 704.361,79.417 C702.173,77.229 699.205,76 696.111,76 L633.889,76 C630.795,76 627.827,77.229 625.639,79.417 C623.451,81.605 622.222,84.572 622.222,87.667 L622.222,95.444 C622.222,97.592 623.963,99.333 626.111,99.333 C628.259,99.333 630,97.592 630,95.444 Z" />
            <path d="M625.701,114.867 C640.285,116.415 651.807,127.937 653.355,142.521 C653.582,144.657 655.497,146.205 657.633,145.978 C659.768,145.752 661.316,143.837 661.089,141.701 C659.155,123.471 644.752,109.067 626.521,107.133 C624.386,106.906 622.471,108.454 622.244,110.59 C622.017,112.725 623.565,114.641 625.701,114.867 Z" />
            <path d="M625.399,130.379 C631.721,131.556 636.666,136.502 637.844,142.823 C638.237,144.935 640.267,146.327 642.379,145.934 C644.49,145.541 645.883,143.511 645.49,141.399 C643.724,131.917 636.305,124.498 626.823,122.732 C624.712,122.339 622.681,123.732 622.288,125.844 C621.895,127.955 623.288,129.985 625.399,130.379 Z" />
            <path d="M626.111,146 L626.15,146 C628.298,146 630.039,144.259 630.039,142.111 C630.039,139.963 628.298,138.222 626.15,138.222 L626.111,138.222 C623.963,138.222 622.222,139.963 622.222,142.111 C622.222,144.259 623.963,146 626.111,146 Z" />
        </g>
    </g>
</svg>