<?xml version="1.0" encoding="UTF-8"?>
<svg height="600" width="800" xmlns="http://www.w3.org/2000/svg" xmlns:xlink="http://www.w3.org/1999/xlink">
    <g id="Notes" font-family="LucidaGrande, 'Lucida Grande', sans-serif" font-size="13">
        <rect fill="white" height="600.0" width="800.0" x="0.0" y="0.0" />
        <g font-size="13">
            <text x="18.0" y="176.0">Small</text>
            <text x="18.0" y="376.0">Medium</text>
            <text x="18.0" y="576.0">Large</text>
        </g>
        <g font-size="9">
            <text x="250.0" y="30.0">Ultralight</text>
            <text x="450.0" y="30.0">Regular</text>
            <text x="650.0" y="30.0">Black</text>
            <text id="template-version" fill="#505050" text-anchor="end" x="785.0" y="575.0">Template v.3.0</text>
            <a href="https://github.com/swhitty/SwiftDraw">
                <text fill="#505050" text-anchor="end" x="785.0" y="590.0">https://github.com/swhitty/SwiftDraw</text>
            </a>
        </g>
    </g>
    <g id="Guides" stroke="rgb(39, 170, 225)" stroke-width="0.5">
        <path id="Capline-S" d="M18,76 l800,0" />
        <path id="H-reference" d="M85,145.755 L87.685,145.755 L113.369,79.287 L114.052,79.287 L114.052,76 L112.148,76 L85,145.755 Z M95.693,121.536 L130.996,121.536 L130.263,119.313 L96.474,119.313 L95.693,121.536 Z M139.15,145.755 L141.787,145.755 L114.638,76 L113.466,76 L113.466,79.287 L139.15,145.755 Z" stroke="none" transform="translate(0,200)" />
        <path id="Baseline-S" d="M18,146 l800,0" />
        <path id="left-margin-Ultralight-M" d="M230,256 l0,110" />
        <path id="right-margin-Ultralight-M" d="M300,256 l0,110" />
        <path id="left-margin-Regular-M" d="M430,256 l0,110" />
        <path id="right-margin-Regular-M" d="M500,256 l0,110" />
        <path id="left-margin-Black-M" d="M630,256 l0,110" />
        <path id="right-margin-Black-M" d="M700,256 l0,110" />
        <path id="Capline-M" d="M18,276 l800,0" />
        <path id="Baseline-M" d="M18,346 l800,0" />
        <path id="Capline-L" d="M18,476 l800,0" />
        <path id="Baseline-L" d="M18,546 l800,0" />
    </g>
    <g id="Symbols">
        <g id="Ultralight-M" transform="translate(0,200)">
            <path d="M230,79.5 L230,135.5 C230,138.285 231.106,140.955 233.075,142.925 C235.045,144.894 237.715,146 240.5,146 L296.5,146 C298.433,146 300,144.433 300,142.5 C300,140.567 298.433,139 296.5,139 L240.5,139 C239.572,139 238.682,138.631 238.025,137.975 C237.369,137.318 237,136.428 237,135.5 L237,79.5 C237,77.567 235.433,76 233.5,76 C231.567,76 230,77.567 230,79.5 Z" />
            <path d="M247.5,111 L275.5,111 C277.433,111 279,109.433 279,107.5 C279,105.567 277.433,104 275.5,104 L247.5,104 C245.567,104 244,105.567 244,107.5 C244,109.433 245.567,111 247.5,111 Z" />
            <path d="M247.5,128.5 L289.5,128.5 C291.433,128.5 293,126.933 293,125 C293,123.067 291.433,121.5 289.5,121.5 L247.5,121.5 C245.567,121.5 244,123.067 244,125 C244,126.933 245.567,128.5 247.5,128.5 Z" />
            <path d="M247.5,93.5 L258,93.5 C259.933,93.5 261.5,91.933 261.5,90 C261.5,88.067 259.933,86.5 258,86.5 L247.5,86.5 C245.567,86.5 244,88.067 244,90 C244,91.933 245.567,93.5 247.5,93.5 Z" />
        </g>
        <g id="Regular-M" transform="translate(0,200)">
            <path d="M430,79.5 L430,135.5 C430,138.285 431.106,140.955 433.075,142.925 C435.044,144.894 437.715,146 440.5,146 L496.5,146 C498.433,146 500,144.433 500,142.5 C500,140.567 498.433,139 496.5,139 L440.5,139 C439.572,139 438.682,138.631 438.025,137.975 C437.369,137.318 437,136.428 437,135.5 L437,79.5 C437,77.567 435.433,76 433.5,76 C431.567,76 430,77.567 430,79.5 Z" />
            <path d="M447.5,111 L475.5,111 C477.433,111 479,109.433 479,107.5 C479,105.567 477.433,104 475.5,104 L447.5,104 C445.567,104 444,105.567 444,107.5 C444,109.433 445.567,111 447.5,111 Z" />
            <path d="M447.5,128.5 L489.5,128.5 C491.433,128.5 493,126.933 493,125 C493,123.067 491.433,121.5 489.5,121.5 L447.5,121.5 C445.567,121.5 444,123.067 444,125 C444,126.933 445.567,128.5 447.5,128.5 Z" />
            <path d="M447.5,93.5 L458,93.5 C459.933,93.5 461.5,91.933 461.5,90 C461.5,88.067 459.933,86.5 458,86.5 L447.5,86.5 C445.567,86.5 444,88.067 444,90 C444,91.933 445.567,93.5 447.5,93.5 Z" />
        </g>
        <g id="Black-M" transform="translate(0,200)">
            <path d="M630,79.5 L630,135.5 C630,138.285 631.106,140.955 633.075,142.925 C635.044,144.894 637.715,146 640.5,146 L696.5,146 C698.433,146 700,144.433 700,142.5 C700,140.567 698.433,139 696.5,139 L640.5,139 C639.572,139 638.682,138.631 638.025,137.975 C637.369,137.318 637,136.428 637,135.5 L637,79.5 C637,77.567 635.433,76 633.5,76 C631.567,76 630,77.567 630,79.5 Z" />
            <path d="M647.5,111 L675.5,111 C677.433,111 679,109.433 679,107.5 C679,105.567 677.433,104 675.5,104 L647.5,104 C645.567,104 644,105.567 644,107.5 C644,109.433 645.567,111 647.5,111 Z" />
            <path d="M647.5,128.5 L689.5,128.5 C691.433,128.5 693,126.933 693,125 C693,123.067 691.433,121.5 689.5,121.5 L647.5,121.5 C645.567,121.5 644,123.067 644,125 C644,126.933 645.567,128.5 647.5,128.5 Z" />
            <path d="M647.5,93.5 L658,93.5 C659.933,93.5 661.5,91.933 661.5,90 C661.5,88.067 659.933,86.5 658,86.5 L647.5,86.5 C645.567,86.5 644,88.067 644,90 C644,91.933 645.567,93.5 647.5,93.5 Z" />
        </g>
    </g>
</svg>