<?xml version="1.0" encoding="UTF-8"?>
<svg height="600" width="800" xmlns="http://www.w3.org/2000/svg" xmlns:xlink="http://www.w3.org/1999/xlink">
    <g id="Notes" font-family="LucidaGrande, 'Lucida Grande', sans-serif" font-size="13">
        <rect fill="white" height="600.0" width="800.0" x="0.0" y="0.0" />
        <g font-size="13">
            <text x="18.0" y="176.0">Small</text>
            <text x="18.0" y="376.0">Medium</text>
            <text x="18.0" y="576.0">Large</text>
        </g>
        <g font-size="9">
            <text x="250.0" y="30.0">Ultralight</text>
            <text x="450.0" y="30.0">Regular</text>
            <text x="650.0" y="30.0">Black</text>
            <text id="template-version" fill="#505050" text-anchor="end" x="785.0" y="575.0">Template v.3.0</text>
            <a href="https://github.com/swhitty/SwiftDraw">
                <text fill="#505050" text-anchor="end" x="785.0" y="590.0">https://github.com/swhitty/SwiftDraw</text>
            </a>
        </g>
    </g>
    <g id="Guides" stroke="rgb(39, 170, 225)" stroke-width="0.5">
        <path id="Capline-S" d="M18,76 l800,0" />
        <path id="H-reference" d="M85,145.755 L87.685,145.755 L113.369,79.287 L114.052,79.287 L114.052,76 L112.148,76 L85,145.755 Z M95.693,121.536 L130.996,121.536 L130.263,119.313 L96.474,119.313 L95.693,121.536 Z M139.15,145.755 L141.787,145.755 L114.638,76 L113.466,76 L113.466,79.287 L139.15,145.755 Z" stroke="none" transform="translate(0,200)" />
        <path id="Baseline-S" d="M18,146 l800,0" />
        <path id="left-margin-Ultralight-M" d="M230,256 l0,110" />
        <path id="right-margin-Ultralight-M" d="M300,256 l0,110" />
        <path id="left-margin-Regular-M" d="M430,256 l0,110" />
        <path id="right-margin-Regular-M" d="M500,256 l0,110" />
        <path id="left-margin-Black-M" d="M630,256 l0,110" />
        <path id="right-margin-Black-M" d="M700,256 l0,110" />
        <path id="Capline-M" d="M18,276 l800,0" />
        <path id="Baseline-M" d="M18,346 l800,0" />
        <path id="Capline-L" d="M18,476 l800,0" />
        <path id="Baseline-L" d="M18,546 l800,0" />
    </g>
    <g id="Symbols">
        <g id="Ultralight-M" transform="translate(0,200)">
            <path d="M265.972,97.764 L272.202,107.116 C273.274,108.725 275.447,109.161 277.055,108.089 C278.664,107.017 279.1,104.844 278.028,103.236 L271.798,93.884 C270.726,92.275 268.553,91.839 266.945,92.911 C265.336,93.983 264.9,96.156 265.972,97.764 Z" />
            <path d="M271.189,110.541 L259.555,115.525 C257.778,116.286 256.955,118.343 257.716,120.12 C258.477,121.897 260.534,122.72 262.311,121.959 L273.945,116.975 C275.722,116.214 276.545,114.157 275.784,112.38 C275.023,110.603 272.966,109.78 271.189,110.541 Z" />
            <path d="M292.151,79.604 L270.941,84.907 C269.066,85.376 267.926,87.276 268.395,89.151 C268.863,91.027 270.764,92.167 272.639,91.698 L293.849,86.396 C295.724,85.927 296.864,84.026 296.396,82.151 C295.927,80.276 294.026,79.136 292.151,79.604 Z" />
            <path d="M230,79.5 L230,135.5 C230,138.285 231.106,140.955 233.075,142.925 C235.045,144.894 237.715,146 240.5,146 L296.5,146 C298.433,146 300,144.433 300,142.5 C300,140.567 298.433,139 296.5,139 L240.5,139 C239.572,139 238.682,138.631 238.025,137.975 C237.369,137.318 237,136.428 237,135.5 L237,79.5 C237,77.567 235.433,76 233.5,76 C231.567,76 230,77.567 230,79.5 Z" />
            <path d="M261.5,90 C261.5,88.067 263.067,86.5 265,86.5 C266.933,86.5 268.5,88.067 268.5,90 C268.5,91.933 266.933,93.5 265,93.5 C263.067,93.5 261.5,91.933 261.5,90 Z M254.5,90 C254.5,95.799 259.201,100.5 265,100.5 C270.799,100.5 275.5,95.799 275.5,90 C275.5,84.201 270.799,79.5 265,79.5 C259.201,79.5 254.5,84.201 254.5,90 Z" />
            <path d="M275.5,111 C275.5,109.067 277.067,107.5 279,107.5 C280.933,107.5 282.5,109.067 282.5,111 C282.5,112.933 280.933,114.5 279,114.5 C277.067,114.5 275.5,112.933 275.5,111 Z M268.5,111 C268.5,116.799 273.201,121.5 279,121.5 C284.799,121.5 289.5,116.799 289.5,111 C289.5,105.201 284.799,100.5 279,100.5 C273.201,100.5 268.5,105.201 268.5,111 Z" />
            <path d="M251,121.5 C251,119.567 252.567,118 254.5,118 C256.433,118 258,119.567 258,121.5 C258,123.433 256.433,125 254.5,125 C252.567,125 251,123.433 251,121.5 Z M244,121.5 C244,127.299 248.701,132 254.5,132 C260.299,132 265,127.299 265,121.5 C265,115.701 260.299,111 254.5,111 C248.701,111 244,115.701 244,121.5 Z" />
        </g>
        <g id="Regular-M" transform="translate(0,200)">
            <path d="M465.972,97.764 L472.202,107.116 C473.274,108.725 475.447,109.161 477.055,108.089 C478.664,107.017 479.1,104.844 478.028,103.236 L471.798,93.884 C470.726,92.275 468.553,91.839 466.945,92.911 C465.336,93.983 464.9,96.156 465.972,97.764 Z" />
            <path d="M471.189,110.541 L459.555,115.525 C457.778,116.286 456.955,118.343 457.716,120.12 C458.477,121.897 460.534,122.72 462.311,121.959 L473.945,116.975 C475.722,116.214 476.545,114.157 475.784,112.38 C475.023,110.603 472.966,109.78 471.189,110.541 Z" />
            <path d="M492.151,79.604 L470.941,84.907 C469.066,85.376 467.926,87.276 468.395,89.151 C468.863,91.027 470.764,92.167 472.639,91.698 L493.849,86.396 C495.724,85.927 496.864,84.026 496.396,82.151 C495.927,80.276 494.026,79.136 492.151,79.604 Z" />
            <path d="M430,79.5 L430,135.5 C430,138.285 431.106,140.955 433.075,142.925 C435.044,144.894 437.715,146 440.5,146 L496.5,146 C498.433,146 500,144.433 500,142.5 C500,140.567 498.433,139 496.5,139 L440.5,139 C439.572,139 438.682,138.631 438.025,137.975 C437.369,137.318 437,136.428 437,135.5 L437,79.5 C437,77.567 435.433,76 433.5,76 C431.567,76 430,77.567 430,79.5 Z" />
            <path d="M461.5,90 C461.5,88.067 463.067,86.5 465,86.5 C466.933,86.5 468.5,88.067 468.5,90 C468.5,91.933 466.933,93.5 465,93.5 C463.067,93.5 461.5,91.933 461.5,90 Z M454.5,90 C454.5,95.799 459.201,100.5 465,100.5 C470.799,100.5 475.5,95.799 475.5,90 C475.5,84.201 470.799,79.5 465,79.5 C459.201,79.5 454.5,84.201 454.5,90 Z" />
            <path d="M475.5,111 C475.5,109.067 477.067,107.5 479,107.5 C480.933,107.5 482.5,109.067 482.5,111 C482.5,112.933 480.933,114.5 479,114.5 C477.067,114.5 475.5,112.933 475.5,111 Z M468.5,111 C468.5,116.799 473.201,121.5 479,121.5 C484.799,121.5 489.5,116.799 489.5,111 C489.5,105.201 484.799,100.5 479,100.5 C473.201,100.5 468.5,105.201 468.5,111 Z" />
            <path d="M451,121.5 C451,119.567 452.567,118 454.5,118 C456.433,118 458,119.567 458,121.5 C458,123.433 456.433,125 454.5,125 C452.567,125 451,123.433 451,121.5 Z M444,121.5 C444,127.299 448.701,132 454.5,132 C460.299,132 465,127.299 465,121.5 C465,115.701 460.299,111 454.5,111 C448.701,111 444,115.701 444,121.5 Z" />
        </g>
        <g id="Black-M" transform="translate(0,200)">
            <path d="M665.972,97.764 L672.202,107.116 C673.274,108.725 675.447,109.161 677.055,108.089 C678.664,107.017 679.1,104.844 678.028,103.236 L671.798,93.884 C670.726,92.275 668.553,91.839 666.945,92.911 C665.336,93.983 664.9,96.156 665.972,97.764 Z" />
            <path d="M671.189,110.541 L659.555,115.525 C657.778,116.286 656.955,118.343 657.716,120.12 C658.477,121.897 660.534,122.72 662.311,121.959 L673.945,116.975 C675.722,116.214 676.545,114.157 675.784,112.38 C675.023,110.603 672.966,109.78 671.189,110.541 Z" />
            <path d="M692.151,79.604 L670.941,84.907 C669.066,85.376 667.926,87.276 668.395,89.151 C668.863,91.027 670.764,92.167 672.639,91.698 L693.849,86.396 C695.724,85.927 696.864,84.026 696.396,82.151 C695.927,80.276 694.026,79.136 692.151,79.604 Z" />
            <path d="M630,79.5 L630,135.5 C630,138.285 631.106,140.955 633.075,142.925 C635.044,144.894 637.715,146 640.5,146 L696.5,146 C698.433,146 700,144.433 700,142.5 C700,140.567 698.433,139 696.5,139 L640.5,139 C639.572,139 638.682,138.631 638.025,137.975 C637.369,137.318 637,136.428 637,135.5 L637,79.5 C637,77.567 635.433,76 633.5,76 C631.567,76 630,77.567 630,79.5 Z" />
            <path d="M661.5,90 C661.5,88.067 663.067,86.5 665,86.5 C666.933,86.5 668.5,88.067 668.5,90 C668.5,91.933 666.933,93.5 665,93.5 C663.067,93.5 661.5,91.933 661.5,90 Z M654.5,90 C654.5,95.799 659.201,100.5 665,100.5 C670.799,100.5 675.5,95.799 675.5,90 C675.5,84.201 670.799,79.5 665,79.5 C659.201,79.5 654.5,84.201 654.5,90 Z" />
            <path d="M675.5,111 C675.5,109.067 677.067,107.5 679,107.5 C680.933,107.5 682.5,109.067 682.5,111 C682.5,112.933 680.933,114.5 679,114.5 C677.067,114.5 675.5,112.933 675.5,111 Z M668.5,111 C668.5,116.799 673.201,121.5 679,121.5 C684.799,121.5 689.5,116.799 689.5,111 C689.5,105.201 684.799,100.5 679,100.5 C673.201,100.5 668.5,105.201 668.5,111 Z" />
            <path d="M651,121.5 C651,119.567 652.567,118 654.5,118 C656.433,118 658,119.567 658,121.5 C658,123.433 656.433,125 654.5,125 C652.567,125 651,123.433 651,121.5 Z M644,121.5 C644,127.299 648.701,132 654.5,132 C660.299,132 665,127.299 665,121.5 C665,115.701 660.299,111 654.5,111 C648.701,111 644,115.701 644,121.5 Z" />
        </g>
    </g>
</svg>