<?xml version="1.0" encoding="UTF-8"?>
<svg height="600" width="800" xmlns="http://www.w3.org/2000/svg" xmlns:xlink="http://www.w3.org/1999/xlink">
    <g id="Notes" font-family="LucidaGrande, 'Lucida Grande', sans-serif" font-size="13">
        <rect fill="white" height="600.0" width="800.0" x="0.0" y="0.0" />
        <g font-size="13">
            <text x="18.0" y="176.0">Small</text>
            <text x="18.0" y="376.0">Medium</text>
            <text x="18.0" y="576.0">Large</text>
        </g>
        <g font-size="9">
            <text x="250.0" y="30.0">Ultralight</text>
            <text x="450.0" y="30.0">Regular</text>
            <text x="650.0" y="30.0">Black</text>
            <text id="template-version" fill="#505050" text-anchor="end" x="785.0" y="575.0">Template v.3.0</text>
            <a href="https://github.com/swhitty/SwiftDraw">
                <text fill="#505050" text-anchor="end" x="785.0" y="590.0">https://github.com/swhitty/SwiftDraw</text>
            </a>
        </g>
    </g>
    <g id="Guides" stroke="rgb(39, 170, 225)" stroke-width="0.5">
        <path id="Capline-S" d="M18,76 l800,0" />
        <path id="H-reference" d="M85,145.755 L87.685,145.755 L113.369,79.287 L114.052,79.287 L114.052,76 L112.148,76 L85,145.755 Z M95.693,121.536 L130.996,121.536 L130.263,119.313 L96.474,119.313 L95.693,121.536 Z M139.15,145.755 L141.787,145.755 L114.638,76 L113.466,76 L113.466,79.287 L139.15,145.755 Z" stroke="none" transform="translate(0,200)" />
        <path id="Baseline-S" d="M18,146 l800,0" />
        <path id="left-margin-Ultralight-M" d="M230,256 l0,110" />
        <path id="right-margin-Ultralight-M" d="M300,256 l0,110" />
        <path id="left-margin-Regular-M" d="M430,256 l0,110" />
        <path id="right-margin-Regular-M" d="M500,256 l0,110" />
        <path id="left-margin-Black-M" d="M630,256 l0,110" />
        <path id="right-margin-Black-M" d="M700,256 l0,110" />
        <path id="Capline-M" d="M18,276 l800,0" />
        <path id="Baseline-M" d="M18,346 l800,0" />
        <path id="Capline-L" d="M18,476 l800,0" />
        <path id="Baseline-L" d="M18,546 l800,0" />
    </g>
    <g id="Symbols">
        <g id="Ultralight-M" transform="translate(0,200)">
            <path d="M272,128.5 L272,100.5 C272,98.567 270.433,97 268.5,97 C266.567,97 265,98.567 265,100.5 L265,128.5 C265,130.433 266.567,132 268.5,132 C270.433,132 272,130.433 272,128.5 Z" />
            <path d="M289.5,128.5 L289.5,86.5 C289.5,84.567 287.933,83 286,83 C284.067,83 282.5,84.567 282.5,86.5 L282.5,128.5 C282.5,130.433 284.067,132 286,132 C287.933,132 289.5,130.433 289.5,128.5 Z" />
            <path d="M230,79.5 L230,135.5 C230,138.285 231.106,140.955 233.075,142.925 C235.045,144.894 237.715,146 240.5,146 L296.5,146 C298.433,146 300,144.433 300,142.5 C300,140.567 298.433,139 296.5,139 L240.5,139 C239.572,139 238.682,138.631 238.025,137.975 C237.369,137.318 237,136.428 237,135.5 L237,79.5 C237,77.567 235.433,76 233.5,76 C231.567,76 230,77.567 230,79.5 Z" />
            <path d="M254.5,128.5 L254.5,118 C254.5,116.067 252.933,114.5 251,114.5 C249.067,114.5 247.5,116.067 247.5,118 L247.5,128.5 C247.5,130.433 249.067,132 251,132 C252.933,132 254.5,130.433 254.5,128.5 Z" />
        </g>
        <g id="Regular-M" transform="translate(0,200)">
            <path d="M472,128.5 L472,100.5 C472,98.567 470.433,97 468.5,97 C466.567,97 465,98.567 465,100.5 L465,128.5 C465,130.433 466.567,132 468.5,132 C470.433,132 472,130.433 472,128.5 Z" />
            <path d="M489.5,128.5 L489.5,86.5 C489.5,84.567 487.933,83 486,83 C484.067,83 482.5,84.567 482.5,86.5 L482.5,128.5 C482.5,130.433 484.067,132 486,132 C487.933,132 489.5,130.433 489.5,128.5 Z" />
            <path d="M430,79.5 L430,135.5 C430,138.285 431.106,140.955 433.075,142.925 C435.044,144.894 437.715,146 440.5,146 L496.5,146 C498.433,146 500,144.433 500,142.5 C500,140.567 498.433,139 496.5,139 L440.5,139 C439.572,139 438.682,138.631 438.025,137.975 C437.369,137.318 437,136.428 437,135.5 L437,79.5 C437,77.567 435.433,76 433.5,76 C431.567,76 430,77.567 430,79.5 Z" />
            <path d="M454.5,128.5 L454.5,118 C454.5,116.067 452.933,114.5 451,114.5 C449.067,114.5 447.5,116.067 447.5,118 L447.5,128.5 C447.5,130.433 449.067,132 451,132 C452.933,132 454.5,130.433 454.5,128.5 Z" />
        </g>
        <g id="Black-M" transform="translate(0,200)">
            <path d="M672,128.5 L672,100.5 C672,98.567 670.433,97 668.5,97 C666.567,97 665,98.567 665,100.5 L665,128.5 C665,130.433 666.567,132 668.5,132 C670.433,132 672,130.433 672,128.5 Z" />
            <path d="M689.5,128.5 L689.5,86.5 C689.5,84.567 687.933,83 686,83 C684.067,83 682.5,84.567 682.5,86.5 L682.5,128.5 C682.5,130.433 684.067,132 686,132 C687.933,132 689.5,130.433 689.5,128.5 Z" />
            <path d="M630,79.5 L630,135.5 C630,138.285 631.106,140.955 633.075,142.925 C635.044,144.894 637.715,146 640.5,146 L696.5,146 C698.433,146 700,144.433 700,142.5 C700,140.567 698.433,139 696.5,139 L640.5,139 C639.572,139 638.682,138.631 638.025,137.975 C637.369,137.318 637,136.428 637,135.5 L637,79.5 C637,77.567 635.433,76 633.5,76 C631.567,76 630,77.567 630,79.5 Z" />
            <path d="M654.5,128.5 L654.5,118 C654.5,116.067 652.933,114.5 651,114.5 C649.067,114.5 647.5,116.067 647.5,118 L647.5,128.5 C647.5,130.433 649.067,132 651,132 C652.933,132 654.5,130.433 654.5,128.5 Z" />
        </g>
    </g>
</svg>