<?xml version="1.0" encoding="UTF-8"?>
<svg height="600" width="800" xmlns="http://www.w3.org/2000/svg" xmlns:xlink="http://www.w3.org/1999/xlink">
    <g id="Notes" font-family="LucidaGrande, 'Lucida Grande', sans-serif" font-size="13">
        <rect fill="white" height="600.0" width="800.0" x="0.0" y="0.0" />
        <g font-size="13">
            <text x="18.0" y="176.0">Small</text>
            <text x="18.0" y="376.0">Medium</text>
            <text x="18.0" y="576.0">Large</text>
        </g>
        <g font-size="9">
            <text x="250.0" y="30.0">Ultralight</text>
            <text x="450.0" y="30.0">Regular</text>
            <text x="650.0" y="30.0">Black</text>
            <text id="template-version" fill="#505050" text-anchor="end" x="785.0" y="575.0">Template v.3.0</text>
            <a href="https://github.com/swhitty/SwiftDraw">
                <text fill="#505050" text-anchor="end" x="785.0" y="590.0">https://github.com/swhitty/SwiftDraw</text>
            </a>
        </g>
    </g>
    <g id="Guides" stroke="rgb(39, 170, 225)" stroke-width="0.5">
        <path id="Capline-S" d="M18,76 l800,0" />
        <path id="H-reference" d="M85,145.755 L87.685,145.755 L113.369,79.287 L114.052,79.287 L114.052,76 L112.148,76 L85,145.755 Z M95.693,121.536 L130.996,121.536 L130.263,119.313 L96.474,119.313 L95.693,121.536 Z M139.15,145.755 L141.787,145.755 L114.638,76 L113.466,76 L113.466,79.287 L139.15,145.755 Z" stroke="none" transform="translate(0,200)" />
        <path id="Baseline-S" d="M18,146 l800,0" />
        <path id="left-margin-Ultralight-M" d="M239.545,256 l0,110" />
        <path id="right-margin-Ultralight-M" d="M290.455,256 l0,110" />
        <path id="left-margin-Regular-M" d="M439.545,256 l0,110" />
        <path id="right-margin-Regular-M" d="M490.455,256 l0,110" />
        <path id="left-margin-Black-M" d="M639.545,256 l0,110" />
        <path id="right-margin-Black-M" d="M690.455,256 l0,110" />
        <path id="Capline-M" d="M18,276 l800,0" />
        <path id="Baseline-M" d="M18,346 l800,0" />
        <path id="Capline-L" d="M18,476 l800,0" />
        <path id="Baseline-L" d="M18,546 l800,0" />
    </g>
    <g id="Symbols">
        <g id="Ultralight-M" transform="translate(0,200)">
            <path d="M245.909,136.455 C245.909,135.611 246.244,134.801 246.841,134.205 C247.438,133.608 248.247,133.273 249.091,133.273 L280.909,133.273 C281.753,133.273 282.562,133.608 283.159,134.205 C283.756,134.801 284.091,135.611 284.091,136.455 L284.091,139.636 C284.091,139.636 284.091,139.636 284.091,139.636 C284.091,139.636 284.091,139.636 284.091,139.636 L245.909,139.636 C245.909,139.636 245.909,139.636 245.909,139.636 C245.909,139.636 245.909,139.636 245.909,139.636 L245.909,136.455 Z M239.545,136.455 L239.545,139.636 C239.545,141.324 240.216,142.943 241.409,144.136 C242.603,145.33 244.221,146 245.909,146 L284.091,146 C285.779,146 287.397,145.33 288.591,144.136 C289.784,142.943 290.455,141.324 290.455,139.636 L290.455,136.455 C290.455,133.923 289.449,131.495 287.659,129.705 C285.869,127.915 283.441,126.909 280.909,126.909 L249.091,126.909 C246.559,126.909 244.131,127.915 242.341,129.705 C240.551,131.495 239.545,133.923 239.545,136.455 Z" />
            <path d="M275.753,133.035 C282.321,130.342 287.273,122.894 287.273,114.427 C287.273,101.802 279.155,88.656 267.233,76.915 C265.994,75.695 264.006,75.695 262.767,76.915 C250.847,88.654 242.727,101.804 242.727,114.427 C242.727,122.894 247.679,130.342 254.248,133.035 C255.873,133.702 257.732,132.924 258.399,131.298 C259.065,129.672 258.288,127.814 256.662,127.147 C252.492,125.437 249.091,120.322 249.091,114.427 C249.091,103.969 256.425,92.093 267.233,81.449 L262.767,81.449 C273.578,92.095 280.909,103.967 280.909,114.427 C280.909,120.322 277.508,125.437 273.338,127.147 C271.712,127.814 270.935,129.672 271.601,131.298 C272.268,132.924 274.127,133.702 275.753,133.035 Z" />
            <path d="M275.477,92.841 L267.523,100.796 C266.28,102.038 266.28,104.053 267.523,105.295 C268.765,106.538 270.78,106.538 272.023,105.295 L279.977,97.341 C281.22,96.098 281.22,94.084 279.977,92.841 C278.735,91.598 276.72,91.598 275.477,92.841 Z" />
            <path d="M255.455,82.364 L274.545,82.364 C276.303,82.364 277.727,80.939 277.727,79.182 C277.727,77.425 276.303,76 274.545,76 L255.455,76 C253.697,76 252.273,77.425 252.273,79.182 C252.273,80.939 253.697,82.364 255.455,82.364 Z" />
        </g>
        <g id="Regular-M" transform="translate(0,200)">
            <path d="M445.909,136.455 C445.909,135.611 446.244,134.801 446.841,134.205 C447.438,133.608 448.247,133.273 449.091,133.273 L480.909,133.273 C481.753,133.273 482.562,133.608 483.159,134.205 C483.756,134.801 484.091,135.611 484.091,136.455 L484.091,139.636 C484.091,139.636 484.091,139.636 484.091,139.636 C484.091,139.636 484.091,139.636 484.091,139.636 L445.909,139.636 C445.909,139.636 445.909,139.636 445.909,139.636 C445.909,139.636 445.909,139.636 445.909,139.636 L445.909,136.455 Z M439.545,136.455 L439.545,139.636 C439.545,141.324 440.216,142.943 441.409,144.136 C442.603,145.33 444.221,146 445.909,146 L484.091,146 C485.779,146 487.397,145.33 488.591,144.136 C489.784,142.943 490.455,141.324 490.455,139.636 L490.455,136.455 C490.455,133.923 489.449,131.495 487.659,129.705 C485.869,127.915 483.441,126.909 480.909,126.909 L449.091,126.909 C446.559,126.909 444.131,127.915 442.341,129.705 C440.551,131.495 439.545,133.923 439.545,136.455 Z" />
            <path d="M475.752,133.035 C482.321,130.342 487.273,122.894 487.273,114.427 C487.273,101.802 479.155,88.656 467.233,76.915 C465.994,75.695 464.006,75.695 462.767,76.915 C450.847,88.654 442.727,101.804 442.727,114.427 C442.727,122.894 447.679,130.342 454.247,133.035 C455.873,133.702 457.732,132.924 458.399,131.298 C459.065,129.672 458.287,127.814 456.662,127.147 C452.492,125.437 449.091,120.322 449.091,114.427 C449.091,103.969 456.425,92.093 467.233,81.449 L462.767,81.449 C473.578,92.095 480.909,103.967 480.909,114.427 C480.909,120.322 477.508,125.437 473.338,127.147 C471.712,127.814 470.935,129.672 471.601,131.298 C472.268,132.924 474.127,133.702 475.752,133.035 Z" />
            <path d="M475.477,92.841 L467.523,100.796 C466.28,102.038 466.28,104.053 467.523,105.295 C468.765,106.538 470.78,106.538 472.023,105.295 L479.977,97.341 C481.22,96.098 481.22,94.084 479.977,92.841 C478.735,91.598 476.72,91.598 475.477,92.841 Z" />
            <path d="M455.455,82.364 L474.545,82.364 C476.303,82.364 477.727,80.939 477.727,79.182 C477.727,77.425 476.303,76 474.545,76 L455.455,76 C453.697,76 452.273,77.425 452.273,79.182 C452.273,80.939 453.697,82.364 455.455,82.364 Z" />
        </g>
        <g id="Black-M" transform="translate(0,200)">
            <path d="M645.909,136.455 C645.909,135.611 646.244,134.801 646.841,134.205 C647.438,133.608 648.247,133.273 649.091,133.273 L680.909,133.273 C681.753,133.273 682.562,133.608 683.159,134.205 C683.756,134.801 684.091,135.611 684.091,136.455 L684.091,139.636 C684.091,139.636 684.091,139.636 684.091,139.636 C684.091,139.636 684.091,139.636 684.091,139.636 L645.909,139.636 C645.909,139.636 645.909,139.636 645.909,139.636 C645.909,139.636 645.909,139.636 645.909,139.636 L645.909,136.455 Z M639.545,136.455 L639.545,139.636 C639.545,141.324 640.216,142.943 641.409,144.136 C642.603,145.33 644.221,146 645.909,146 L684.091,146 C685.779,146 687.397,145.33 688.591,144.136 C689.784,142.943 690.455,141.324 690.455,139.636 L690.455,136.455 C690.455,133.923 689.449,131.495 687.659,129.705 C685.869,127.915 683.441,126.909 680.909,126.909 L649.091,126.909 C646.559,126.909 644.131,127.915 642.341,129.705 C640.551,131.495 639.545,133.923 639.545,136.455 Z" />
            <path d="M675.753,133.035 C682.321,130.342 687.273,122.894 687.273,114.427 C687.273,101.802 679.155,88.656 667.233,76.915 C665.994,75.695 664.006,75.695 662.767,76.915 C650.847,88.654 642.727,101.804 642.727,114.427 C642.727,122.894 647.679,130.342 654.248,133.035 C655.873,133.702 657.732,132.924 658.399,131.298 C659.065,129.672 658.288,127.814 656.662,127.147 C652.492,125.437 649.091,120.322 649.091,114.427 C649.091,103.969 656.425,92.093 667.233,81.449 L662.767,81.449 C673.578,92.095 680.909,103.967 680.909,114.427 C680.909,120.322 677.508,125.437 673.338,127.147 C671.713,127.814 670.935,129.672 671.602,131.298 C672.268,132.924 674.127,133.702 675.753,133.035 Z" />
            <path d="M675.477,92.841 L667.523,100.796 C666.28,102.038 666.28,104.053 667.523,105.295 C668.765,106.538 670.78,106.538 672.023,105.295 L679.977,97.341 C681.22,96.098 681.22,94.084 679.977,92.841 C678.735,91.598 676.72,91.598 675.477,92.841 Z" />
            <path d="M655.455,82.364 L674.545,82.364 C676.303,82.364 677.727,80.939 677.727,79.182 C677.727,77.425 676.303,76 674.545,76 L655.455,76 C653.697,76 652.273,77.425 652.273,79.182 C652.273,80.939 653.697,82.364 655.455,82.364 Z" />
        </g>
    </g>
</svg>