<?xml version="1.0" encoding="UTF-8"?>
<svg height="600" width="800" xmlns="http://www.w3.org/2000/svg" xmlns:xlink="http://www.w3.org/1999/xlink">
    <g id="Notes" font-family="LucidaGrande, 'Lucida Grande', sans-serif" font-size="13">
        <rect fill="white" height="600.0" width="800.0" x="0.0" y="0.0" />
        <g font-size="13">
            <text x="18.0" y="176.0">Small</text>
            <text x="18.0" y="376.0">Medium</text>
            <text x="18.0" y="576.0">Large</text>
        </g>
        <g font-size="9">
            <text x="250.0" y="30.0">Ultralight</text>
            <text x="450.0" y="30.0">Regular</text>
            <text x="650.0" y="30.0">Black</text>
            <text id="template-version" fill="#505050" text-anchor="end" x="785.0" y="575.0">Template v.3.0</text>
            <a href="https://github.com/swhitty/SwiftDraw">
                <text fill="#505050" text-anchor="end" x="785.0" y="590.0">https://github.com/swhitty/SwiftDraw</text>
            </a>
        </g>
    </g>
    <g id="Guides" stroke="rgb(39, 170, 225)" stroke-width="0.5">
        <path id="Capline-S" d="M18,76 l800,0" />
        <path id="H-reference" d="M85,145.755 L87.685,145.755 L113.369,79.287 L114.052,79.287 L114.052,76 L112.148,76 L85,145.755 Z M95.693,121.536 L130.996,121.536 L130.263,119.313 L96.474,119.313 L95.693,121.536 Z M139.15,145.755 L141.787,145.755 L114.638,76 L113.466,76 L113.466,79.287 L139.15,145.755 Z" stroke="none" transform="translate(0,200)" />
        <path id="Baseline-S" d="M18,146 l800,0" />
        <path id="left-margin-Ultralight-M" d="M235,256 l0,110" />
        <path id="right-margin-Ultralight-M" d="M295,256 l0,110" />
        <path id="left-margin-Regular-M" d="M435,256 l0,110" />
        <path id="right-margin-Regular-M" d="M495,256 l0,110" />
        <path id="left-margin-Black-M" d="M635,256 l0,110" />
        <path id="right-margin-Black-M" d="M695,256 l0,110" />
        <path id="Capline-M" d="M18,276 l800,0" />
        <path id="Baseline-M" d="M18,346 l800,0" />
        <path id="Capline-L" d="M18,476 l800,0" />
        <path id="Baseline-L" d="M18,546 l800,0" />
    </g>
    <g id="Symbols">
        <g id="Ultralight-M" transform="translate(0,200)">
            <path d="M243.536,144.536 L273.536,114.536 C275.488,112.583 275.488,109.417 273.536,107.464 L243.536,77.464 C241.583,75.512 238.417,75.512 236.464,77.464 C234.512,79.417 234.512,82.583 236.464,84.536 L266.464,114.536 L266.464,107.464 L236.464,137.464 C234.512,139.417 234.512,142.583 236.464,144.536 C238.417,146.488 241.583,146.488 243.536,144.536 Z" />
            <path d="M285,81 L285,141 C285,143.761 287.239,146 290,146 C292.761,146 295,143.761 295,141 L295,81 C295,78.239 292.761,76 290,76 C287.239,76 285,78.239 285,81 Z" />
        </g>
        <g id="Regular-M" transform="translate(0,200)">
            <path d="M443.536,144.536 L473.536,114.536 C475.488,112.583 475.488,109.417 473.536,107.464 L443.536,77.464 C441.583,75.512 438.417,75.512 436.464,77.464 C434.512,79.417 434.512,82.583 436.464,84.536 L466.464,114.536 L466.464,107.464 L436.464,137.464 C434.512,139.417 434.512,142.583 436.464,144.536 C438.417,146.488 441.583,146.488 443.536,144.536 Z" />
            <path d="M485,81 L485,141 C485,143.761 487.239,146 490,146 C492.761,146 495,143.761 495,141 L495,81 C495,78.239 492.761,76 490,76 C487.239,76 485,78.239 485,81 Z" />
        </g>
        <g id="Black-M" transform="translate(0,200)">
            <path d="M643.536,144.536 L673.536,114.536 C675.488,112.583 675.488,109.417 673.536,107.464 L643.536,77.464 C641.583,75.512 638.417,75.512 636.464,77.464 C634.512,79.417 634.512,82.583 636.464,84.536 L666.464,114.536 L666.464,107.464 L636.464,137.464 C634.512,139.417 634.512,142.583 636.464,144.536 C638.417,146.488 641.583,146.488 643.536,144.536 Z" />
            <path d="M685,81 L685,141 C685,143.761 687.239,146 690,146 C692.761,146 695,143.761 695,141 L695,81 C695,78.239 692.761,76 690,76 C687.239,76 685,78.239 685,81 Z" />
        </g>
    </g>
</svg>