<?xml version="1.0" encoding="UTF-8"?>
<svg height="600" width="800" xmlns="http://www.w3.org/2000/svg" xmlns:xlink="http://www.w3.org/1999/xlink">
    <g id="Notes" font-family="LucidaGrande, 'Lucida Grande', sans-serif" font-size="13">
        <rect fill="white" height="600.0" width="800.0" x="0.0" y="0.0" />
        <g font-size="13">
            <text x="18.0" y="176.0">Small</text>
            <text x="18.0" y="376.0">Medium</text>
            <text x="18.0" y="576.0">Large</text>
        </g>
        <g font-size="9">
            <text x="250.0" y="30.0">Ultralight</text>
            <text x="450.0" y="30.0">Regular</text>
            <text x="650.0" y="30.0">Black</text>
            <text id="template-version" fill="#505050" text-anchor="end" x="785.0" y="575.0">Template v.3.0</text>
            <a href="https://github.com/swhitty/SwiftDraw">
                <text fill="#505050" text-anchor="end" x="785.0" y="590.0">https://github.com/swhitty/SwiftDraw</text>
            </a>
        </g>
    </g>
    <g id="Guides" stroke="rgb(39, 170, 225)" stroke-width="0.5">
        <path id="Capline-S" d="M18,76 l800,0" />
        <path id="H-reference" d="M85,145.755 L87.685,145.755 L113.369,79.287 L114.052,79.287 L114.052,76 L112.148,76 L85,145.755 Z M95.693,121.536 L130.996,121.536 L130.263,119.313 L96.474,119.313 L95.693,121.536 Z M139.15,145.755 L141.787,145.755 L114.638,76 L113.466,76 L113.466,79.287 L139.15,145.755 Z" stroke="none" transform="translate(0,200)" />
        <path id="Baseline-S" d="M18,146 l800,0" />
        <path id="left-margin-Ultralight-M" d="M235,256 l0,110" />
        <path id="right-margin-Ultralight-M" d="M295,256 l0,110" />
        <path id="left-margin-Regular-M" d="M435,256 l0,110" />
        <path id="right-margin-Regular-M" d="M495,256 l0,110" />
        <path id="left-margin-Black-M" d="M635,256 l0,110" />
        <path id="right-margin-Black-M" d="M695,256 l0,110" />
        <path id="Capline-M" d="M18,276 l800,0" />
        <path id="Baseline-M" d="M18,346 l800,0" />
        <path id="Capline-L" d="M18,476 l800,0" />
        <path id="Baseline-L" d="M18,546 l800,0" />
    </g>
    <g id="Symbols">
        <g id="Ultralight-M" transform="translate(0,200)">
            <path d="M293.536,137.464 L263.536,107.464 L263.536,114.536 L293.536,84.536 C295.488,82.583 295.488,79.417 293.536,77.464 C291.583,75.512 288.417,75.512 286.464,77.464 L256.464,107.464 C254.512,109.417 254.512,112.583 256.464,114.536 L286.464,144.536 C288.417,146.488 291.583,146.488 293.536,144.536 C295.488,142.583 295.488,139.417 293.536,137.464 Z" />
            <path d="M235,81 L235,141 C235,143.761 237.239,146 240,146 C242.761,146 245,143.761 245,141 L245,81 C245,78.239 242.761,76 240,76 C237.239,76 235,78.239 235,81 Z" />
        </g>
        <g id="Regular-M" transform="translate(0,200)">
            <path d="M493.536,137.464 L463.536,107.464 L463.536,114.536 L493.536,84.536 C495.488,82.583 495.488,79.417 493.536,77.464 C491.583,75.512 488.417,75.512 486.464,77.464 L456.464,107.464 C454.512,109.417 454.512,112.583 456.464,114.536 L486.464,144.536 C488.417,146.488 491.583,146.488 493.536,144.536 C495.488,142.583 495.488,139.417 493.536,137.464 Z" />
            <path d="M435,81 L435,141 C435,143.761 437.239,146 440,146 C442.761,146 445,143.761 445,141 L445,81 C445,78.239 442.761,76 440,76 C437.239,76 435,78.239 435,81 Z" />
        </g>
        <g id="Black-M" transform="translate(0,200)">
            <path d="M693.536,137.464 L663.536,107.464 L663.536,114.536 L693.536,84.536 C695.488,82.583 695.488,79.417 693.536,77.464 C691.583,75.512 688.417,75.512 686.464,77.464 L656.464,107.464 C654.512,109.417 654.512,112.583 656.464,114.536 L686.464,144.536 C688.417,146.488 691.583,146.488 693.536,144.536 C695.488,142.583 695.488,139.417 693.536,137.464 Z" />
            <path d="M635,81 L635,141 C635,143.761 637.239,146 640,146 C642.761,146 645,143.761 645,141 L645,81 C645,78.239 642.761,76 640,76 C637.239,76 635,78.239 635,81 Z" />
        </g>
    </g>
</svg>