<?xml version="1.0" encoding="UTF-8"?>
<svg height="600" width="800" xmlns="http://www.w3.org/2000/svg" xmlns:xlink="http://www.w3.org/1999/xlink">
    <g id="Notes" font-family="LucidaGrande, 'Lucida Grande', sans-serif" font-size="13">
        <rect fill="white" height="600.0" width="800.0" x="0.0" y="0.0" />
        <g font-size="13">
            <text x="18.0" y="176.0">Small</text>
            <text x="18.0" y="376.0">Medium</text>
            <text x="18.0" y="576.0">Large</text>
        </g>
        <g font-size="9">
            <text x="250.0" y="30.0">Ultralight</text>
            <text x="450.0" y="30.0">Regular</text>
            <text x="650.0" y="30.0">Black</text>
            <text id="template-version" fill="#505050" text-anchor="end" x="785.0" y="575.0">Template v.3.0</text>
            <a href="https://github.com/swhitty/SwiftDraw">
                <text fill="#505050" text-anchor="end" x="785.0" y="590.0">https://github.com/swhitty/SwiftDraw</text>
            </a>
        </g>
    </g>
    <g id="Guides" stroke="rgb(39, 170, 225)" stroke-width="0.5">
        <path id="Capline-S" d="M18,76 l800,0" />
        <path id="H-reference" d="M85,145.755 L87.685,145.755 L113.369,79.287 L114.052,79.287 L114.052,76 L112.148,76 L85,145.755 Z M95.693,121.536 L130.996,121.536 L130.263,119.313 L96.474,119.313 L95.693,121.536 Z M139.15,145.755 L141.787,145.755 L114.638,76 L113.466,76 L113.466,79.287 L139.15,145.755 Z" stroke="none" transform="translate(0,200)" />
        <path id="Baseline-S" d="M18,146 l800,0" />
        <path id="left-margin-Ultralight-M" d="M230,256 l0,110" />
        <path id="right-margin-Ultralight-M" d="M300,256 l0,110" />
        <path id="left-margin-Regular-M" d="M430,256 l0,110" />
        <path id="right-margin-Regular-M" d="M500,256 l0,110" />
        <path id="left-margin-Black-M" d="M630,256 l0,110" />
        <path id="right-margin-Black-M" d="M700,256 l0,110" />
        <path id="Capline-M" d="M18,276 l800,0" />
        <path id="Baseline-M" d="M18,346 l800,0" />
        <path id="Capline-L" d="M18,476 l800,0" />
        <path id="Baseline-L" d="M18,546 l800,0" />
    </g>
    <g id="Symbols">
        <g id="Ultralight-M" transform="translate(0,200)">
            <path d="M293.057,105.282 C295.752,118.507 288.846,131.818 276.482,137.231 C264.118,142.643 249.653,138.687 241.764,127.736 C233.875,116.784 234.705,101.811 243.755,91.798 C252.805,81.786 267.619,79.452 279.309,86.197 C280.831,87.075 282.777,86.553 283.655,85.031 C284.533,83.509 284.012,81.563 282.49,80.685 C268.201,72.441 250.096,75.294 239.034,87.532 C227.973,99.769 226.959,118.07 236.601,131.455 C246.242,144.84 263.922,149.675 279.034,143.06 C294.145,136.445 302.586,120.175 299.292,104.011 C298.941,102.29 297.261,101.178 295.539,101.529 C293.818,101.88 292.706,103.56 293.057,105.282 Z" />
            <path d="M253.196,110.078 L262.741,119.623 C263.984,120.866 265.998,120.866 267.241,119.623 L299.058,87.807 C300.3,86.564 300.3,84.55 299.058,83.307 C297.815,82.065 295.801,82.065 294.558,83.307 L262.741,115.124 L267.241,115.124 L257.696,105.579 C256.453,104.336 254.439,104.336 253.196,105.579 C251.954,106.821 251.954,108.836 253.196,110.078 Z" />
        </g>
        <g id="Regular-M" transform="translate(0,200)">
            <path d="M493.057,105.282 C495.752,118.507 488.846,131.818 476.482,137.231 C464.118,142.643 449.653,138.687 441.764,127.736 C433.875,116.784 434.705,101.811 443.755,91.798 C452.805,81.786 467.619,79.452 479.309,86.197 C480.831,87.075 482.777,86.553 483.655,85.031 C484.533,83.509 484.012,81.563 482.49,80.685 C468.201,72.441 450.096,75.294 439.034,87.532 C427.973,99.769 426.959,118.07 436.601,131.455 C446.242,144.84 463.922,149.675 479.034,143.06 C494.145,136.445 502.586,120.175 499.292,104.011 C498.941,102.29 497.261,101.178 495.539,101.529 C493.818,101.88 492.706,103.56 493.057,105.282 Z" />
            <path d="M453.196,110.078 L462.741,119.623 C463.984,120.866 465.998,120.866 467.241,119.623 L499.058,87.807 C500.3,86.564 500.3,84.55 499.058,83.307 C497.815,82.065 495.801,82.065 494.558,83.307 L462.741,115.124 L467.241,115.124 L457.696,105.579 C456.453,104.336 454.439,104.336 453.196,105.579 C451.954,106.821 451.954,108.836 453.196,110.078 Z" />
        </g>
        <g id="Black-M" transform="translate(0,200)">
            <path d="M693.057,105.282 C695.752,118.507 688.846,131.818 676.482,137.231 C664.118,142.643 649.653,138.687 641.764,127.736 C633.875,116.784 634.705,101.811 643.755,91.798 C652.805,81.786 667.619,79.452 679.309,86.197 C680.831,87.075 682.777,86.553 683.655,85.031 C684.533,83.509 684.012,81.563 682.49,80.685 C668.201,72.441 650.096,75.294 639.034,87.532 C627.973,99.769 626.959,118.07 636.601,131.455 C646.242,144.84 663.922,149.675 679.034,143.06 C694.145,136.445 702.586,120.175 699.292,104.011 C698.941,102.29 697.261,101.178 695.539,101.529 C693.818,101.88 692.706,103.56 693.057,105.282 Z" />
            <path d="M653.196,110.078 L662.741,119.623 C663.984,120.866 665.998,120.866 667.241,119.623 L699.058,87.807 C700.3,86.564 700.3,84.55 699.058,83.307 C697.815,82.065 695.801,82.065 694.558,83.307 L662.741,115.124 L667.241,115.124 L657.696,105.579 C656.453,104.336 654.439,104.336 653.196,105.579 C651.954,106.821 651.954,108.836 653.196,110.078 Z" />
        </g>
    </g>
</svg>