<?xml version="1.0" encoding="UTF-8"?>
<svg height="600" width="800" xmlns="http://www.w3.org/2000/svg" xmlns:xlink="http://www.w3.org/1999/xlink">
    <g id="Notes" font-family="LucidaGrande, 'Lucida Grande', sans-serif" font-size="13">
        <rect fill="white" height="600.0" width="800.0" x="0.0" y="0.0" />
        <g font-size="13">
            <text x="18.0" y="176.0">Small</text>
            <text x="18.0" y="376.0">Medium</text>
            <text x="18.0" y="576.0">Large</text>
        </g>
        <g font-size="9">
            <text x="250.0" y="30.0">Ultralight</text>
            <text x="450.0" y="30.0">Regular</text>
            <text x="650.0" y="30.0">Black</text>
            <text id="template-version" fill="#505050" text-anchor="end" x="785.0" y="575.0">Template v.3.0</text>
            <a href="https://github.com/swhitty/SwiftDraw">
                <text fill="#505050" text-anchor="end" x="785.0" y="590.0">https://github.com/swhitty/SwiftDraw</text>
            </a>
        </g>
    </g>
    <g id="Guides" stroke="rgb(39, 170, 225)" stroke-width="0.5">
        <path id="Capline-S" d="M18,76 l800,0" />
        <path id="H-reference" d="M85,145.755 L87.685,145.755 L113.369,79.287 L114.052,79.287 L114.052,76 L112.148,76 L85,145.755 Z M95.693,121.536 L130.996,121.536 L130.263,119.313 L96.474,119.313 L95.693,121.536 Z M139.15,145.755 L141.787,145.755 L114.638,76 L113.466,76 L113.466,79.287 L139.15,145.755 Z" stroke="none" transform="translate(0,200)" />
        <path id="Baseline-S" d="M18,146 l800,0" />
        <path id="left-margin-Ultralight-M" d="M230,256 l0,110" />
        <path id="right-margin-Ultralight-M" d="M300,256 l0,110" />
        <path id="left-margin-Regular-M" d="M430,256 l0,110" />
        <path id="right-margin-Regular-M" d="M500,256 l0,110" />
        <path id="left-margin-Black-M" d="M630,256 l0,110" />
        <path id="right-margin-Black-M" d="M700,256 l0,110" />
        <path id="Capline-M" d="M18,276 l800,0" />
        <path id="Baseline-M" d="M18,346 l800,0" />
        <path id="Capline-L" d="M18,476 l800,0" />
        <path id="Baseline-L" d="M18,546 l800,0" />
    </g>
    <g id="Symbols">
        <g id="Ultralight-M" transform="translate(0,200)">
            <path d="M259.559,82.885 C263.153,82.19 266.847,82.19 270.441,82.885 C272.166,83.219 273.835,82.091 274.169,80.366 C274.503,78.641 273.375,76.971 271.65,76.638 C267.257,75.787 262.743,75.787 258.35,76.638 C256.625,76.971 255.497,78.641 255.831,80.366 C256.165,82.091 257.834,83.219 259.559,82.885 Z" />
            <path d="M270.441,139.115 C266.847,139.81 263.153,139.81 259.559,139.115 C257.834,138.781 256.165,139.909 255.831,141.634 C255.497,143.359 256.625,145.029 258.35,145.362 C262.743,146.213 267.257,146.213 271.65,145.362 C273.375,145.029 274.503,143.359 274.169,141.634 C273.835,139.909 272.166,138.781 270.441,139.115 Z" />
            <path d="M281.062,87.292 C284.101,89.352 286.717,91.977 288.765,95.024 C289.745,96.482 291.722,96.87 293.181,95.89 C294.639,94.909 295.026,92.932 294.046,91.474 C291.543,87.749 288.346,84.541 284.631,82.024 C283.177,81.038 281.198,81.419 280.212,82.873 C279.227,84.328 279.607,86.306 281.062,87.292 Z" />
            <path d="M236.885,116.441 C236.19,112.847 236.19,109.153 236.885,105.559 C237.219,103.834 236.091,102.165 234.366,101.831 C232.641,101.497 230.971,102.625 230.638,104.35 C229.787,108.743 229.787,113.257 230.638,117.65 C230.971,119.375 232.641,120.503 234.366,120.169 C236.091,119.835 237.219,118.166 236.885,116.441 Z" />
            <path d="M288.708,127.062 C286.648,130.101 284.023,132.717 280.976,134.765 C279.518,135.745 279.13,137.722 280.11,139.181 C281.091,140.639 283.068,141.026 284.526,140.046 C288.25,137.543 291.459,134.346 293.976,130.631 C294.962,129.177 294.581,127.198 293.127,126.212 C291.672,125.227 289.694,125.607 288.708,127.062 Z" />
            <path d="M293.115,105.559 C293.81,109.153 293.81,112.847 293.115,116.441 C292.781,118.166 293.909,119.835 295.634,120.169 C297.359,120.503 299.029,119.375 299.362,117.65 C300.213,113.257 300.213,108.743 299.362,104.35 C299.029,102.625 297.359,101.497 295.634,101.831 C293.909,102.165 292.781,103.834 293.115,105.559 Z" />
            <path d="M241.292,94.938 C243.352,91.899 245.977,89.283 249.024,87.235 C250.482,86.255 250.87,84.278 249.89,82.819 C248.909,81.361 246.932,80.974 245.474,81.954 C241.75,84.457 238.541,87.654 236.024,91.369 C235.038,92.823 235.419,94.802 236.873,95.787 C238.328,96.773 240.306,96.393 241.292,94.938 Z" />
            <path d="M248.938,134.708 C245.899,132.648 243.283,130.023 241.235,126.976 C240.255,125.518 238.278,125.13 236.819,126.11 C235.361,127.091 234.974,129.068 235.954,130.526 C238.457,134.25 241.654,137.459 245.369,139.976 C246.823,140.962 248.802,140.581 249.788,139.127 C250.773,137.672 250.393,135.694 248.938,134.708 Z" />
        </g>
        <g id="Regular-M" transform="translate(0,200)">
            <path d="M459.559,82.885 C463.153,82.19 466.847,82.19 470.441,82.885 C472.166,83.219 473.835,82.091 474.169,80.366 C474.503,78.641 473.375,76.971 471.65,76.638 C467.257,75.787 462.743,75.787 458.35,76.638 C456.625,76.971 455.497,78.641 455.831,80.366 C456.165,82.091 457.834,83.219 459.559,82.885 Z" />
            <path d="M470.441,139.115 C466.847,139.81 463.153,139.81 459.559,139.115 C457.834,138.781 456.165,139.909 455.831,141.634 C455.497,143.359 456.625,145.029 458.35,145.362 C462.743,146.213 467.257,146.213 471.65,145.362 C473.375,145.029 474.503,143.359 474.169,141.634 C473.835,139.909 472.166,138.781 470.441,139.115 Z" />
            <path d="M481.062,87.292 C484.101,89.352 486.717,91.977 488.765,95.024 C489.745,96.482 491.722,96.87 493.181,95.89 C494.639,94.909 495.026,92.932 494.046,91.474 C491.543,87.749 488.346,84.541 484.631,82.024 C483.177,81.038 481.198,81.419 480.212,82.873 C479.227,84.328 479.607,86.306 481.062,87.292 Z" />
            <path d="M436.885,116.441 C436.19,112.847 436.19,109.153 436.885,105.559 C437.219,103.834 436.091,102.165 434.366,101.831 C432.641,101.497 430.971,102.625 430.638,104.35 C429.787,108.743 429.787,113.257 430.638,117.65 C430.971,119.375 432.641,120.503 434.366,120.169 C436.091,119.835 437.219,118.166 436.885,116.441 Z" />
            <path d="M488.708,127.062 C486.648,130.101 484.023,132.717 480.976,134.765 C479.518,135.745 479.13,137.722 480.11,139.181 C481.091,140.639 483.068,141.026 484.526,140.046 C488.25,137.543 491.459,134.346 493.976,130.631 C494.962,129.177 494.581,127.198 493.127,126.212 C491.672,125.227 489.694,125.607 488.708,127.062 Z" />
            <path d="M493.115,105.559 C493.81,109.153 493.81,112.847 493.115,116.441 C492.781,118.166 493.909,119.835 495.634,120.169 C497.359,120.503 499.029,119.375 499.362,117.65 C500.213,113.257 500.213,108.743 499.362,104.35 C499.029,102.625 497.359,101.497 495.634,101.831 C493.909,102.165 492.781,103.834 493.115,105.559 Z" />
            <path d="M441.292,94.938 C443.352,91.899 445.977,89.283 449.024,87.235 C450.482,86.255 450.87,84.278 449.89,82.819 C448.909,81.361 446.932,80.974 445.474,81.954 C441.75,84.457 438.541,87.654 436.024,91.369 C435.038,92.823 435.419,94.802 436.873,95.787 C438.328,96.773 440.306,96.393 441.292,94.938 Z" />
            <path d="M448.938,134.708 C445.899,132.648 443.283,130.023 441.235,126.976 C440.255,125.518 438.278,125.13 436.819,126.11 C435.361,127.091 434.974,129.068 435.954,130.526 C438.457,134.25 441.654,137.459 445.369,139.976 C446.823,140.962 448.802,140.581 449.788,139.127 C450.773,137.672 450.393,135.694 448.938,134.708 Z" />
        </g>
        <g id="Black-M" transform="translate(0,200)">
            <path d="M659.559,82.885 C663.153,82.19 666.847,82.19 670.441,82.885 C672.166,83.219 673.835,82.091 674.169,80.366 C674.503,78.641 673.375,76.971 671.65,76.638 C667.257,75.787 662.743,75.787 658.35,76.638 C656.625,76.971 655.497,78.641 655.831,80.366 C656.165,82.091 657.834,83.219 659.559,82.885 Z" />
            <path d="M670.441,139.115 C666.847,139.81 663.153,139.81 659.559,139.115 C657.834,138.781 656.165,139.909 655.831,141.634 C655.497,143.359 656.625,145.029 658.35,145.362 C662.743,146.213 667.257,146.213 671.65,145.362 C673.375,145.029 674.503,143.359 674.169,141.634 C673.835,139.909 672.166,138.781 670.441,139.115 Z" />
            <path d="M681.062,87.292 C684.101,89.352 686.717,91.977 688.765,95.024 C689.745,96.482 691.722,96.87 693.181,95.89 C694.639,94.909 695.026,92.932 694.046,91.474 C691.543,87.749 688.346,84.541 684.631,82.024 C683.177,81.038 681.198,81.419 680.213,82.873 C679.227,84.328 679.607,86.306 681.062,87.292 Z" />
            <path d="M636.885,116.441 C636.19,112.847 636.19,109.153 636.885,105.559 C637.219,103.834 636.091,102.165 634.366,101.831 C632.641,101.497 630.971,102.625 630.638,104.35 C629.787,108.743 629.787,113.257 630.638,117.65 C630.971,119.375 632.641,120.503 634.366,120.169 C636.091,119.835 637.219,118.166 636.885,116.441 Z" />
            <path d="M688.708,127.062 C686.648,130.101 684.023,132.717 680.976,134.765 C679.518,135.745 679.13,137.722 680.11,139.181 C681.091,140.639 683.068,141.026 684.526,140.046 C688.25,137.543 691.459,134.346 693.976,130.631 C694.962,129.177 694.581,127.198 693.127,126.212 C691.672,125.227 689.694,125.607 688.708,127.062 Z" />
            <path d="M693.115,105.559 C693.81,109.153 693.81,112.847 693.115,116.441 C692.781,118.166 693.909,119.835 695.634,120.169 C697.359,120.503 699.029,119.375 699.362,117.65 C700.213,113.257 700.213,108.743 699.362,104.35 C699.029,102.625 697.359,101.497 695.634,101.831 C693.909,102.165 692.781,103.834 693.115,105.559 Z" />
            <path d="M641.292,94.938 C643.352,91.899 645.977,89.283 649.024,87.235 C650.482,86.255 650.87,84.278 649.89,82.819 C648.909,81.361 646.932,80.974 645.474,81.954 C641.75,84.457 638.541,87.654 636.024,91.369 C635.038,92.823 635.419,94.802 636.873,95.787 C638.328,96.773 640.306,96.393 641.292,94.938 Z" />
            <path d="M648.938,134.708 C645.899,132.648 643.283,130.023 641.235,126.976 C640.255,125.518 638.278,125.13 636.82,126.11 C635.361,127.091 634.974,129.068 635.954,130.526 C638.457,134.25 641.654,137.459 645.369,139.976 C646.823,140.962 648.802,140.581 649.787,139.127 C650.773,137.672 650.393,135.694 648.938,134.708 Z" />
        </g>
    </g>
</svg>