<?xml version="1.0" encoding="UTF-8"?>
<svg height="600" width="800" xmlns="http://www.w3.org/2000/svg" xmlns:xlink="http://www.w3.org/1999/xlink">
    <g id="Notes" font-family="LucidaGrande, 'Lucida Grande', sans-serif" font-size="13">
        <rect fill="white" height="600.0" width="800.0" x="0.0" y="0.0" />
        <g font-size="13">
            <text x="18.0" y="176.0">Small</text>
            <text x="18.0" y="376.0">Medium</text>
            <text x="18.0" y="576.0">Large</text>
        </g>
        <g font-size="9">
            <text x="250.0" y="30.0">Ultralight</text>
            <text x="450.0" y="30.0">Regular</text>
            <text x="650.0" y="30.0">Black</text>
            <text id="template-version" fill="#505050" text-anchor="end" x="785.0" y="575.0">Template v.3.0</text>
            <a href="https://github.com/swhitty/SwiftDraw">
                <text fill="#505050" text-anchor="end" x="785.0" y="590.0">https://github.com/swhitty/SwiftDraw</text>
            </a>
        </g>
    </g>
    <g id="Guides" stroke="rgb(39, 170, 225)" stroke-width="0.5">
        <path id="Capline-S" d="M18,76 l800,0" />
        <path id="H-reference" d="M85,145.755 L87.685,145.755 L113.369,79.287 L114.052,79.287 L114.052,76 L112.148,76 L85,145.755 Z M95.693,121.536 L130.996,121.536 L130.263,119.313 L96.474,119.313 L95.693,121.536 Z M139.15,145.755 L141.787,145.755 L114.638,76 L113.466,76 L113.466,79.287 L139.15,145.755 Z" stroke="none" transform="translate(0,200)" />
        <path id="Baseline-S" d="M18,146 l800,0" />
        <path id="left-margin-Ultralight-M" d="M230,256 l0,110" />
        <path id="right-margin-Ultralight-M" d="M300,256 l0,110" />
        <path id="left-margin-Regular-M" d="M430,256 l0,110" />
        <path id="right-margin-Regular-M" d="M500,256 l0,110" />
        <path id="left-margin-Black-M" d="M630,256 l0,110" />
        <path id="right-margin-Black-M" d="M700,256 l0,110" />
        <path id="Capline-M" d="M18,276 l800,0" />
        <path id="Baseline-M" d="M18,346 l800,0" />
        <path id="Capline-L" d="M18,476 l800,0" />
        <path id="Baseline-L" d="M18,546 l800,0" />
    </g>
    <g id="Symbols">
        <g id="Ultralight-M" transform="translate(0,200)">
            <path d="M259.565,82.886 C263.155,82.187 266.845,82.187 270.435,82.886 C272.159,83.223 273.829,82.097 274.166,80.373 C274.502,78.649 273.376,76.978 271.652,76.642 C267.259,75.786 262.741,75.786 258.348,76.642 C256.624,76.978 255.498,78.649 255.834,80.373 C256.171,82.097 257.841,83.223 259.565,82.886 Z" />
            <path d="M281.031,87.266 C284.07,89.321 286.684,91.944 288.727,94.991 C289.706,96.45 291.682,96.84 293.141,95.861 C294.6,94.882 294.989,92.906 294.011,91.447 C291.51,87.72 288.313,84.51 284.594,81.996 C283.139,81.012 281.162,81.394 280.178,82.849 C279.194,84.305 279.576,86.282 281.031,87.266 Z" />
            <path d="M293.114,105.565 C293.813,109.155 293.813,112.846 293.114,116.435 C292.777,118.16 293.903,119.83 295.627,120.166 C297.351,120.502 299.022,119.377 299.358,117.653 C300.214,113.259 300.214,108.742 299.358,104.348 C299.022,102.624 297.351,101.498 295.627,101.835 C293.903,102.171 292.777,103.841 293.114,105.565 Z" />
            <path d="M288.734,127.031 C286.679,130.071 284.056,132.684 281.009,134.728 C279.55,135.706 279.161,137.682 280.139,139.141 C281.118,140.6 283.094,140.99 284.553,140.011 C288.28,137.511 291.49,134.313 294.004,130.595 C294.988,129.139 294.606,127.162 293.151,126.178 C291.695,125.194 289.718,125.576 288.734,127.031 Z" />
            <path d="M270.436,139.114 C266.846,139.813 263.154,139.813 259.564,139.114 C257.84,138.778 256.17,139.904 255.834,141.628 C255.499,143.353 256.624,145.023 258.348,145.358 C262.742,146.214 267.258,146.214 271.652,145.358 C273.376,145.023 274.501,143.353 274.166,141.628 C273.83,139.904 272.16,138.778 270.436,139.114 Z" />
            <path d="M248.969,134.734 C245.93,132.679 243.316,130.056 241.273,127.009 C240.294,125.55 238.318,125.161 236.859,126.14 C235.4,127.118 235.011,129.094 235.989,130.553 C238.49,134.281 241.687,137.49 245.406,140.005 C246.861,140.989 248.838,140.606 249.822,139.151 C250.806,137.696 250.424,135.718 248.969,134.734 Z" />
            <path d="M236.886,116.435 C236.187,112.846 236.187,109.155 236.886,105.565 C237.223,103.841 236.097,102.171 234.373,101.835 C232.649,101.498 230.978,102.624 230.642,104.348 C229.786,108.742 229.786,113.259 230.642,117.653 C230.978,119.377 232.649,120.502 234.373,120.166 C236.097,119.83 237.223,118.16 236.886,116.435 Z" />
            <path d="M241.266,94.969 C243.321,91.93 245.944,89.316 248.991,87.273 C250.45,86.294 250.839,84.318 249.861,82.859 C248.882,81.4 246.906,81.011 245.447,81.99 C241.72,84.49 238.51,87.687 235.996,91.406 C235.012,92.861 235.394,94.839 236.849,95.823 C238.305,96.807 240.282,96.425 241.266,94.969 Z" />
            <path d="M265,111 C265,111 265,111 265,111 C265,111 265,111 265,111 C265,111 265,111 265,111 C265,111 265,111 265,111 Z M258.638,111 C258.638,114.514 261.487,117.362 265,117.362 C268.513,117.362 271.362,114.514 271.362,111 C271.362,107.487 268.513,104.639 265,104.639 C261.487,104.639 258.638,107.487 258.638,111 Z" />
        </g>
        <g id="Regular-M" transform="translate(0,200)">
            <path d="M459.565,82.886 C463.155,82.187 466.845,82.187 470.435,82.886 C472.159,83.223 473.829,82.097 474.166,80.373 C474.502,78.649 473.376,76.978 471.652,76.642 C467.259,75.786 462.741,75.786 458.348,76.642 C456.624,76.978 455.498,78.649 455.834,80.373 C456.171,82.097 457.841,83.223 459.565,82.886 Z" />
            <path d="M481.031,87.266 C484.07,89.321 486.684,91.944 488.727,94.991 C489.706,96.45 491.682,96.84 493.141,95.861 C494.6,94.882 494.989,92.906 494.011,91.447 C491.51,87.72 488.313,84.51 484.594,81.996 C483.139,81.012 481.162,81.394 480.178,82.849 C479.194,84.305 479.576,86.282 481.031,87.266 Z" />
            <path d="M493.114,105.565 C493.813,109.155 493.813,112.846 493.114,116.435 C492.777,118.16 493.903,119.83 495.627,120.166 C497.351,120.502 499.022,119.377 499.358,117.653 C500.214,113.259 500.214,108.742 499.358,104.348 C499.022,102.624 497.351,101.498 495.627,101.835 C493.903,102.171 492.777,103.841 493.114,105.565 Z" />
            <path d="M488.734,127.031 C486.679,130.071 484.056,132.684 481.009,134.728 C479.55,135.706 479.161,137.682 480.139,139.141 C481.118,140.6 483.094,140.99 484.553,140.011 C488.28,137.511 491.49,134.313 494.004,130.595 C494.988,129.139 494.606,127.162 493.151,126.178 C491.695,125.194 489.718,125.576 488.734,127.031 Z" />
            <path d="M470.436,139.114 C466.846,139.813 463.154,139.813 459.564,139.114 C457.84,138.778 456.17,139.904 455.834,141.628 C455.499,143.353 456.624,145.023 458.348,145.358 C462.742,146.214 467.258,146.214 471.652,145.358 C473.376,145.023 474.501,143.353 474.166,141.628 C473.83,139.904 472.16,138.778 470.436,139.114 Z" />
            <path d="M448.969,134.734 C445.93,132.679 443.316,130.056 441.273,127.009 C440.294,125.55 438.318,125.161 436.859,126.14 C435.4,127.118 435.011,129.094 435.989,130.553 C438.49,134.281 441.687,137.49 445.406,140.005 C446.861,140.989 448.838,140.606 449.822,139.151 C450.806,137.696 450.424,135.718 448.969,134.734 Z" />
            <path d="M436.886,116.435 C436.187,112.846 436.187,109.155 436.886,105.565 C437.223,103.841 436.097,102.171 434.373,101.835 C432.649,101.498 430.978,102.624 430.642,104.348 C429.786,108.742 429.786,113.259 430.642,117.653 C430.978,119.377 432.649,120.502 434.373,120.166 C436.097,119.83 437.223,118.16 436.886,116.435 Z" />
            <path d="M441.266,94.969 C443.321,91.93 445.944,89.316 448.991,87.273 C450.45,86.294 450.839,84.318 449.861,82.859 C448.882,81.4 446.906,81.011 445.447,81.99 C441.72,84.49 438.51,87.687 435.996,91.406 C435.012,92.861 435.394,94.839 436.849,95.823 C438.305,96.807 440.282,96.425 441.266,94.969 Z" />
            <path d="M465,111 C465,111 465,111 465,111 C465,111 465,111 465,111 C465,111 465,111 465,111 C465,111 465,111 465,111 Z M458.638,111 C458.638,114.514 461.487,117.362 465,117.362 C468.513,117.362 471.362,114.514 471.362,111 C471.362,107.487 468.513,104.639 465,104.639 C461.487,104.639 458.638,107.487 458.638,111 Z" />
        </g>
        <g id="Black-M" transform="translate(0,200)">
            <path d="M659.565,82.886 C663.155,82.187 666.845,82.187 670.435,82.886 C672.159,83.223 673.829,82.097 674.166,80.373 C674.502,78.649 673.376,76.978 671.652,76.642 C667.259,75.786 662.741,75.786 658.348,76.642 C656.624,76.978 655.498,78.649 655.834,80.373 C656.171,82.097 657.841,83.223 659.565,82.886 Z" />
            <path d="M681.031,87.266 C684.07,89.321 686.684,91.944 688.727,94.991 C689.706,96.45 691.682,96.84 693.141,95.861 C694.6,94.882 694.989,92.906 694.011,91.447 C691.51,87.72 688.313,84.51 684.594,81.996 C683.139,81.012 681.162,81.394 680.178,82.849 C679.194,84.305 679.576,86.282 681.031,87.266 Z" />
            <path d="M693.114,105.565 C693.813,109.155 693.813,112.846 693.114,116.435 C692.777,118.16 693.903,119.83 695.627,120.166 C697.351,120.502 699.022,119.377 699.358,117.653 C700.214,113.259 700.214,108.742 699.358,104.348 C699.022,102.624 697.351,101.498 695.627,101.835 C693.903,102.171 692.777,103.841 693.114,105.565 Z" />
            <path d="M688.734,127.031 C686.679,130.071 684.056,132.684 681.009,134.728 C679.55,135.706 679.161,137.682 680.139,139.141 C681.118,140.6 683.094,140.99 684.553,140.011 C688.28,137.511 691.49,134.313 694.004,130.595 C694.988,129.139 694.606,127.162 693.151,126.178 C691.695,125.194 689.718,125.576 688.734,127.031 Z" />
            <path d="M670.436,139.114 C666.846,139.813 663.154,139.813 659.564,139.114 C657.84,138.778 656.17,139.904 655.834,141.628 C655.498,143.353 656.624,145.023 658.348,145.358 C662.742,146.214 667.258,146.214 671.652,145.358 C673.376,145.023 674.502,143.353 674.166,141.628 C673.83,139.904 672.16,138.778 670.436,139.114 Z" />
            <path d="M648.969,134.734 C645.93,132.679 643.316,130.056 641.273,127.009 C640.294,125.55 638.318,125.161 636.859,126.14 C635.4,127.118 635.011,129.094 635.989,130.553 C638.49,134.281 641.687,137.49 645.406,140.005 C646.861,140.989 648.838,140.606 649.822,139.151 C650.806,137.696 650.424,135.718 648.969,134.734 Z" />
            <path d="M636.886,116.435 C636.187,112.846 636.187,109.155 636.886,105.565 C637.223,103.841 636.097,102.171 634.373,101.835 C632.649,101.498 630.978,102.624 630.642,104.348 C629.786,108.742 629.786,113.259 630.642,117.653 C630.978,119.377 632.649,120.502 634.373,120.166 C636.097,119.83 637.223,118.16 636.886,116.435 Z" />
            <path d="M641.266,94.969 C643.321,91.93 645.944,89.316 648.991,87.273 C650.45,86.294 650.839,84.318 649.861,82.859 C648.882,81.4 646.906,81.011 645.447,81.99 C641.72,84.49 638.51,87.687 635.996,91.406 C635.012,92.861 635.394,94.839 636.849,95.823 C638.305,96.807 640.282,96.425 641.266,94.969 Z" />
            <path d="M665,111 C665,111 665,111 665,111 C665,111 665,111 665,111 C665,111 665,111 665,111 C665,111 665,111 665,111 Z M658.638,111 C658.638,114.514 661.487,117.362 665,117.362 C668.513,117.362 671.362,114.514 671.362,111 C671.362,107.487 668.513,104.639 665,104.639 C661.487,104.639 658.638,107.487 658.638,111 Z" />
        </g>
    </g>
</svg>