<?xml version="1.0" encoding="UTF-8"?>
<svg height="600" width="800" xmlns="http://www.w3.org/2000/svg" xmlns:xlink="http://www.w3.org/1999/xlink">
    <g id="Notes" font-family="LucidaGrande, 'Lucida Grande', sans-serif" font-size="13">
        <rect fill="white" height="600.0" width="800.0" x="0.0" y="0.0" />
        <g font-size="13">
            <text x="18.0" y="176.0">Small</text>
            <text x="18.0" y="376.0">Medium</text>
            <text x="18.0" y="576.0">Large</text>
        </g>
        <g font-size="9">
            <text x="250.0" y="30.0">Ultralight</text>
            <text x="450.0" y="30.0">Regular</text>
            <text x="650.0" y="30.0">Black</text>
            <text id="template-version" fill="#505050" text-anchor="end" x="785.0" y="575.0">Template v.3.0</text>
            <a href="https://github.com/swhitty/SwiftDraw">
                <text fill="#505050" text-anchor="end" x="785.0" y="590.0">https://github.com/swhitty/SwiftDraw</text>
            </a>
        </g>
    </g>
    <g id="Guides" stroke="rgb(39, 170, 225)" stroke-width="0.5">
        <path id="Capline-S" d="M18,76 l800,0" />
        <path id="H-reference" d="M85,145.755 L87.685,145.755 L113.369,79.287 L114.052,79.287 L114.052,76 L112.148,76 L85,145.755 Z M95.693,121.536 L130.996,121.536 L130.263,119.313 L96.474,119.313 L95.693,121.536 Z M139.15,145.755 L141.787,145.755 L114.638,76 L113.466,76 L113.466,79.287 L139.15,145.755 Z" stroke="none" transform="translate(0,200)" />
        <path id="Baseline-S" d="M18,146 l800,0" />
        <path id="left-margin-Ultralight-M" d="M230,256 l0,110" />
        <path id="right-margin-Ultralight-M" d="M300,256 l0,110" />
        <path id="left-margin-Regular-M" d="M430,256 l0,110" />
        <path id="right-margin-Regular-M" d="M500,256 l0,110" />
        <path id="left-margin-Black-M" d="M630,256 l0,110" />
        <path id="right-margin-Black-M" d="M700,256 l0,110" />
        <path id="Capline-M" d="M18,276 l800,0" />
        <path id="Baseline-M" d="M18,346 l800,0" />
        <path id="Capline-L" d="M18,476 l800,0" />
        <path id="Baseline-L" d="M18,546 l800,0" />
    </g>
    <g id="Symbols">
        <g id="Ultralight-M" transform="translate(0,200)">
            <path d="M236.364,111 C236.364,95.185 249.185,82.364 265,82.364 C280.815,82.364 293.636,95.185 293.636,111 C293.636,126.815 280.815,139.636 265,139.636 C249.185,139.636 236.364,126.815 236.364,111 Z M230,111 C230,130.33 245.67,146 265,146 C284.33,146 300,130.33 300,111 C300,91.67 284.33,76 265,76 C245.67,76 230,91.67 230,111 Z" />
            <path d="M277.727,95.091 L258.636,95.091 C253.365,95.091 249.091,99.365 249.091,104.636 C249.091,109.908 253.365,114.182 258.636,114.182 L271.364,114.182 C273.121,114.182 274.545,115.606 274.545,117.364 C274.545,119.121 273.121,120.545 271.364,120.545 L252.273,120.545 C250.515,120.545 249.091,121.97 249.091,123.727 C249.091,125.485 250.515,126.909 252.273,126.909 L271.364,126.909 C276.635,126.909 280.909,122.635 280.909,117.364 C280.909,112.092 276.635,107.818 271.364,107.818 L258.636,107.818 C256.879,107.818 255.455,106.394 255.455,104.636 C255.455,102.879 256.879,101.455 258.636,101.455 L277.727,101.455 C279.485,101.455 280.909,100.03 280.909,98.273 C280.909,96.515 279.485,95.091 277.727,95.091 Z" />
            <path d="M268.182,130.091 L268.182,91.909 C268.182,90.152 266.757,88.727 265,88.727 C263.243,88.727 261.818,90.152 261.818,91.909 L261.818,130.091 C261.818,131.848 263.243,133.273 265,133.273 C266.757,133.273 268.182,131.848 268.182,130.091 Z" />
        </g>
        <g id="Regular-M" transform="translate(0,200)">
            <path d="M436.364,111 C436.364,95.185 449.185,82.364 465,82.364 C480.815,82.364 493.636,95.185 493.636,111 C493.636,126.815 480.815,139.636 465,139.636 C449.185,139.636 436.364,126.815 436.364,111 Z M430,111 C430,130.33 445.67,146 465,146 C484.33,146 500,130.33 500,111 C500,91.67 484.33,76 465,76 C445.67,76 430,91.67 430,111 Z" />
            <path d="M477.727,95.091 L458.636,95.091 C453.365,95.091 449.091,99.365 449.091,104.636 C449.091,109.908 453.365,114.182 458.636,114.182 L471.364,114.182 C473.121,114.182 474.545,115.606 474.545,117.364 C474.545,119.121 473.121,120.545 471.364,120.545 L452.273,120.545 C450.515,120.545 449.091,121.97 449.091,123.727 C449.091,125.485 450.515,126.909 452.273,126.909 L471.364,126.909 C476.635,126.909 480.909,122.635 480.909,117.364 C480.909,112.092 476.635,107.818 471.364,107.818 L458.636,107.818 C456.879,107.818 455.455,106.394 455.455,104.636 C455.455,102.879 456.879,101.455 458.636,101.455 L477.727,101.455 C479.485,101.455 480.909,100.03 480.909,98.273 C480.909,96.515 479.485,95.091 477.727,95.091 Z" />
            <path d="M468.182,130.091 L468.182,91.909 C468.182,90.152 466.757,88.727 465,88.727 C463.243,88.727 461.818,90.152 461.818,91.909 L461.818,130.091 C461.818,131.848 463.243,133.273 465,133.273 C466.757,133.273 468.182,131.848 468.182,130.091 Z" />
        </g>
        <g id="Black-M" transform="translate(0,200)">
            <path d="M636.364,111 C636.364,95.185 649.185,82.364 665,82.364 C680.815,82.364 693.636,95.185 693.636,111 C693.636,126.815 680.815,139.636 665,139.636 C649.185,139.636 636.364,126.815 636.364,111 Z M630,111 C630,130.33 645.67,146 665,146 C684.33,146 700,130.33 700,111 C700,91.67 684.33,76 665,76 C645.67,76 630,91.67 630,111 Z" />
            <path d="M677.727,95.091 L658.636,95.091 C653.365,95.091 649.091,99.365 649.091,104.636 C649.091,109.908 653.365,114.182 658.636,114.182 L671.364,114.182 C673.121,114.182 674.545,115.606 674.545,117.364 C674.545,119.121 673.121,120.545 671.364,120.545 L652.273,120.545 C650.515,120.545 649.091,121.97 649.091,123.727 C649.091,125.485 650.515,126.909 652.273,126.909 L671.364,126.909 C676.635,126.909 680.909,122.635 680.909,117.364 C680.909,112.092 676.635,107.818 671.364,107.818 L658.636,107.818 C656.879,107.818 655.455,106.394 655.455,104.636 C655.455,102.879 656.879,101.455 658.636,101.455 L677.727,101.455 C679.485,101.455 680.909,100.03 680.909,98.273 C680.909,96.515 679.485,95.091 677.727,95.091 Z" />
            <path d="M668.182,130.091 L668.182,91.909 C668.182,90.152 666.757,88.727 665,88.727 C663.243,88.727 661.818,90.152 661.818,91.909 L661.818,130.091 C661.818,131.848 663.243,133.273 665,133.273 C666.757,133.273 668.182,131.848 668.182,130.091 Z" />
        </g>
    </g>
</svg>