<?xml version="1.0" encoding="UTF-8"?>
<svg height="600" width="800" xmlns="http://www.w3.org/2000/svg" xmlns:xlink="http://www.w3.org/1999/xlink">
    <g id="Notes" font-family="LucidaGrande, 'Lucida Grande', sans-serif" font-size="13">
        <rect fill="white" height="600.0" width="800.0" x="0.0" y="0.0" />
        <g font-size="13">
            <text x="18.0" y="176.0">Small</text>
            <text x="18.0" y="376.0">Medium</text>
            <text x="18.0" y="576.0">Large</text>
        </g>
        <g font-size="9">
            <text x="250.0" y="30.0">Ultralight</text>
            <text x="450.0" y="30.0">Regular</text>
            <text x="650.0" y="30.0">Black</text>
            <text id="template-version" fill="#505050" text-anchor="end" x="785.0" y="575.0">Template v.3.0</text>
            <a href="https://github.com/swhitty/SwiftDraw">
                <text fill="#505050" text-anchor="end" x="785.0" y="590.0">https://github.com/swhitty/SwiftDraw</text>
            </a>
        </g>
    </g>
    <g id="Guides" stroke="rgb(39, 170, 225)" stroke-width="0.5">
        <path id="Capline-S" d="M18,76 l800,0" />
        <path id="H-reference" d="M85,145.755 L87.685,145.755 L113.369,79.287 L114.052,79.287 L114.052,76 L112.148,76 L85,145.755 Z M95.693,121.536 L130.996,121.536 L130.263,119.313 L96.474,119.313 L95.693,121.536 Z M139.15,145.755 L141.787,145.755 L114.638,76 L113.466,76 L113.466,79.287 L139.15,145.755 Z" stroke="none" transform="translate(0,200)" />
        <path id="Baseline-S" d="M18,146 l800,0" />
        <path id="left-margin-Ultralight-M" d="M228.333,256 l0,110" />
        <path id="right-margin-Ultralight-M" d="M301.667,256 l0,110" />
        <path id="left-margin-Regular-M" d="M428.333,256 l0,110" />
        <path id="right-margin-Regular-M" d="M501.667,256 l0,110" />
        <path id="left-margin-Black-M" d="M628.333,256 l0,110" />
        <path id="right-margin-Black-M" d="M701.667,256 l0,110" />
        <path id="Capline-M" d="M18,276 l800,0" />
        <path id="Baseline-M" d="M18,346 l800,0" />
        <path id="Capline-L" d="M18,476 l800,0" />
        <path id="Baseline-L" d="M18,546 l800,0" />
    </g>
    <g id="Symbols">
        <g id="Ultralight-M" transform="translate(0,200)">
            <path d="M264.997,82.364 C276.889,82.362 287.659,89.066 292.454,99.454 C297.248,109.842 295.162,121.954 287.135,130.33 C285.893,131.626 285.986,133.639 287.345,134.825 C288.703,136.011 290.811,135.922 292.054,134.625 C301.864,124.388 304.414,109.585 298.554,96.888 C292.694,84.191 279.53,75.997 264.996,76 C263.155,76 261.663,77.425 261.664,79.182 C261.664,80.94 263.156,82.364 264.997,82.364 Z" />
            <path d="M280.686,108.75 L267.353,96.023 C266.052,94.78 263.941,94.78 262.64,96.023 L249.308,108.75 C248.006,109.993 248.006,112.007 249.308,113.25 C250.609,114.493 252.72,114.493 254.021,113.25 L267.353,100.523 L262.64,100.523 L275.972,113.25 C277.274,114.493 279.384,114.493 280.686,113.25 C281.987,112.007 281.987,109.993 280.686,108.75 Z" />
            <path d="M268.33,123.727 L268.33,98.273 C268.33,96.516 266.837,95.091 264.997,95.091 C263.156,95.091 261.664,96.516 261.664,98.273 L261.664,123.727 C261.664,125.485 263.156,126.909 264.997,126.909 C266.837,126.909 268.33,125.485 268.33,123.727 Z" />
            <path d="M230.167,100.063 C228.998,103.453 228.38,106.994 228.334,110.563 C228.311,112.32 229.784,113.762 231.625,113.784 C233.465,113.806 234.976,112.399 234.999,110.642 C235.037,107.722 235.543,104.825 236.499,102.051 C237.074,100.382 236.123,98.584 234.374,98.034 C232.626,97.485 230.742,98.393 230.167,100.063 Z" />
            <path d="M231.376,124.996 C233.435,129.517 236.471,133.572 240.285,136.896 C241.645,138.08 243.753,137.989 244.994,136.691 C246.235,135.393 246.139,133.38 244.779,132.195 C241.658,129.476 239.174,126.158 237.49,122.459 C236.756,120.847 234.792,120.109 233.104,120.809 C231.416,121.51 230.642,123.384 231.376,124.996 Z" />
            <path d="M242.907,91.628 C243.744,90.758 244.637,89.938 245.58,89.173 C246.983,88.036 247.154,86.028 245.962,84.688 C244.771,83.349 242.667,83.185 241.264,84.323 C240.112,85.258 239.021,86.259 237.998,87.323 C236.752,88.617 236.842,90.63 238.197,91.818 C239.553,93.007 241.662,92.922 242.907,91.628 Z" />
            <path d="M252.692,143.97 C261.835,147.08 271.896,146.601 280.67,142.64 C282.334,141.889 283.045,139.992 282.258,138.404 C281.471,136.815 279.484,136.136 277.82,136.887 C270.642,140.128 262.41,140.52 254.93,137.976 C253.195,137.386 251.289,138.25 250.671,139.905 C250.054,141.561 250.958,143.381 252.692,143.97 Z" />
        </g>
        <g id="Regular-M" transform="translate(0,200)">
            <path d="M464.997,82.364 C476.889,82.362 487.659,89.066 492.454,99.454 C497.248,109.842 495.162,121.954 487.135,130.33 C485.893,131.626 485.986,133.639 487.345,134.825 C488.703,136.011 490.811,135.922 492.054,134.625 C501.864,124.388 504.414,109.585 498.554,96.888 C492.694,84.191 479.53,75.997 464.996,76 C463.155,76 461.663,77.425 461.664,79.182 C461.664,80.94 463.156,82.364 464.997,82.364 Z" />
            <path d="M480.686,108.75 L467.353,96.023 C466.052,94.78 463.941,94.78 462.64,96.023 L449.308,108.75 C448.006,109.993 448.006,112.007 449.308,113.25 C450.609,114.493 452.72,114.493 454.021,113.25 L467.353,100.523 L462.64,100.523 L475.972,113.25 C477.274,114.493 479.384,114.493 480.686,113.25 C481.987,112.007 481.987,109.993 480.686,108.75 Z" />
            <path d="M468.33,123.727 L468.33,98.273 C468.33,96.516 466.837,95.091 464.997,95.091 C463.156,95.091 461.664,96.516 461.664,98.273 L461.664,123.727 C461.664,125.485 463.156,126.909 464.997,126.909 C466.837,126.909 468.33,125.485 468.33,123.727 Z" />
            <path d="M430.167,100.063 C428.998,103.453 428.38,106.994 428.334,110.563 C428.311,112.32 429.784,113.762 431.625,113.784 C433.465,113.806 434.976,112.399 434.999,110.642 C435.037,107.722 435.543,104.825 436.499,102.051 C437.074,100.382 436.123,98.584 434.374,98.034 C432.626,97.485 430.742,98.393 430.167,100.063 Z" />
            <path d="M431.376,124.996 C433.435,129.517 436.471,133.572 440.285,136.896 C441.645,138.08 443.753,137.989 444.994,136.691 C446.235,135.393 446.139,133.38 444.779,132.195 C441.658,129.476 439.174,126.158 437.49,122.459 C436.756,120.847 434.792,120.109 433.104,120.809 C431.416,121.51 430.642,123.384 431.376,124.996 Z" />
            <path d="M442.907,91.628 C443.744,90.758 444.637,89.938 445.58,89.173 C446.983,88.036 447.154,86.028 445.962,84.688 C444.771,83.349 442.667,83.185 441.264,84.323 C440.112,85.258 439.021,86.259 437.998,87.323 C436.752,88.617 436.842,90.63 438.197,91.818 C439.553,93.007 441.662,92.922 442.907,91.628 Z" />
            <path d="M452.692,143.97 C461.835,147.08 471.896,146.601 480.67,142.64 C482.334,141.889 483.045,139.992 482.258,138.404 C481.471,136.815 479.484,136.136 477.82,136.887 C470.642,140.128 462.41,140.52 454.93,137.976 C453.195,137.386 451.289,138.25 450.671,139.905 C450.054,141.561 450.958,143.381 452.692,143.97 Z" />
        </g>
        <g id="Black-M" transform="translate(0,200)">
            <path d="M664.997,82.364 C676.889,82.362 687.659,89.066 692.454,99.454 C697.248,109.842 695.162,121.954 687.135,130.33 C685.893,131.626 685.986,133.639 687.345,134.825 C688.703,136.011 690.811,135.922 692.054,134.625 C701.864,124.388 704.414,109.585 698.554,96.888 C692.694,84.191 679.53,75.997 664.996,76 C663.155,76 661.663,77.425 661.664,79.182 C661.664,80.94 663.156,82.364 664.997,82.364 Z" />
            <path d="M680.686,108.75 L667.353,96.023 C666.052,94.78 663.941,94.78 662.64,96.023 L649.308,108.75 C648.006,109.993 648.006,112.007 649.308,113.25 C650.609,114.493 652.72,114.493 654.021,113.25 L667.353,100.523 L662.64,100.523 L675.972,113.25 C677.274,114.493 679.384,114.493 680.686,113.25 C681.987,112.007 681.987,109.993 680.686,108.75 Z" />
            <path d="M668.33,123.727 L668.33,98.273 C668.33,96.516 666.837,95.091 664.997,95.091 C663.156,95.091 661.664,96.516 661.664,98.273 L661.664,123.727 C661.664,125.485 663.156,126.909 664.997,126.909 C666.837,126.909 668.33,125.485 668.33,123.727 Z" />
            <path d="M630.167,100.063 C628.998,103.453 628.38,106.994 628.334,110.563 C628.311,112.32 629.784,113.762 631.625,113.784 C633.465,113.806 634.976,112.399 634.999,110.642 C635.037,107.722 635.543,104.825 636.499,102.051 C637.074,100.382 636.123,98.584 634.374,98.034 C632.626,97.485 630.742,98.393 630.167,100.063 Z" />
            <path d="M631.376,124.996 C633.435,129.517 636.471,133.572 640.285,136.896 C641.645,138.08 643.753,137.989 644.994,136.691 C646.235,135.393 646.138,133.38 644.779,132.195 C641.658,129.476 639.174,126.158 637.49,122.459 C636.756,120.847 634.792,120.109 633.104,120.809 C631.416,121.51 630.642,123.384 631.376,124.996 Z" />
            <path d="M642.907,91.628 C643.744,90.758 644.636,89.938 645.58,89.173 C646.983,88.036 647.154,86.028 645.962,84.688 C644.771,83.349 642.667,83.185 641.264,84.323 C640.112,85.258 639.021,86.259 637.998,87.323 C636.752,88.617 636.842,90.63 638.197,91.818 C639.553,93.007 641.661,92.922 642.907,91.628 Z" />
            <path d="M652.692,143.97 C661.835,147.08 671.896,146.601 680.67,142.64 C682.334,141.889 683.045,139.992 682.258,138.404 C681.471,136.815 679.484,136.136 677.82,136.887 C670.642,140.128 662.41,140.52 654.93,137.976 C653.195,137.386 651.289,138.25 650.671,139.905 C650.053,141.561 650.958,143.381 652.692,143.97 Z" />
        </g>
    </g>
</svg>