<?xml version="1.0" encoding="UTF-8"?>
<svg height="600" width="800" xmlns="http://www.w3.org/2000/svg" xmlns:xlink="http://www.w3.org/1999/xlink">
    <g id="Notes" font-family="LucidaGrande, 'Lucida Grande', sans-serif" font-size="13">
        <rect fill="white" height="600.0" width="800.0" x="0.0" y="0.0" />
        <g font-size="13">
            <text x="18.0" y="176.0">Small</text>
            <text x="18.0" y="376.0">Medium</text>
            <text x="18.0" y="576.0">Large</text>
        </g>
        <g font-size="9">
            <text x="250.0" y="30.0">Ultralight</text>
            <text x="450.0" y="30.0">Regular</text>
            <text x="650.0" y="30.0">Black</text>
            <text id="template-version" fill="#505050" text-anchor="end" x="785.0" y="575.0">Template v.3.0</text>
            <a href="https://github.com/swhitty/SwiftDraw">
                <text fill="#505050" text-anchor="end" x="785.0" y="590.0">https://github.com/swhitty/SwiftDraw</text>
            </a>
        </g>
    </g>
    <g id="Guides" stroke="rgb(39, 170, 225)" stroke-width="0.5">
        <path id="Capline-S" d="M18,76 l800,0" />
        <path id="H-reference" d="M85,145.755 L87.685,145.755 L113.369,79.287 L114.052,79.287 L114.052,76 L112.148,76 L85,145.755 Z M95.693,121.536 L130.996,121.536 L130.263,119.313 L96.474,119.313 L95.693,121.536 Z M139.15,145.755 L141.787,145.755 L114.638,76 L113.466,76 L113.466,79.287 L139.15,145.755 Z" stroke="none" transform="translate(0,200)" />
        <path id="Baseline-S" d="M18,146 l800,0" />
        <path id="left-margin-Ultralight-M" d="M228.25,256 l0,110" />
        <path id="right-margin-Ultralight-M" d="M301.75,256 l0,110" />
        <path id="left-margin-Regular-M" d="M428.25,256 l0,110" />
        <path id="right-margin-Regular-M" d="M501.75,256 l0,110" />
        <path id="left-margin-Black-M" d="M628.25,256 l0,110" />
        <path id="right-margin-Black-M" d="M701.75,256 l0,110" />
        <path id="Capline-M" d="M18,276 l800,0" />
        <path id="Baseline-M" d="M18,346 l800,0" />
        <path id="Capline-L" d="M18,476 l800,0" />
        <path id="Baseline-L" d="M18,546 l800,0" />
    </g>
    <g id="Symbols">
        <g id="Ultralight-M" transform="translate(0,200)">
            <path d="M258.515,135.93 L258.515,142.643 C258.515,144.497 260.021,146 261.879,146 C263.736,146 265.242,144.497 265.242,142.643 L265.242,135.93 C265.242,134.076 263.736,132.574 261.879,132.574 C260.021,132.574 258.515,134.076 258.515,135.93 Z" />
            <path d="M288.019,120.591 C294.851,117.648 299.886,111.656 301.6,104.43 C302.828,99.252 297.106,96.309 292.789,98.182 C288.996,99.819 284.579,98.978 281.653,96.057 C278.727,93.136 277.885,88.728 279.528,84.938 C281.397,80.63 278.449,74.933 273.265,76.148 C263.322,78.505 256.042,86.982 255.23,97.14 C255.082,98.988 256.463,100.605 258.315,100.753 C260.166,100.9 261.787,99.522 261.935,97.674 C262.516,90.419 267.716,84.364 274.811,82.681 C273.615,82.961 273.311,82.373 273.355,82.271 C270.615,88.589 272.019,95.935 276.896,100.804 C281.773,105.672 289.134,107.074 295.465,104.341 C295.366,104.384 294.771,104.078 295.054,102.883 C293.83,108.045 290.233,112.326 285.354,114.428 C283.648,115.162 282.862,117.138 283.598,118.84 C284.335,120.542 286.314,121.326 288.019,120.591 Z" />
            <path d="M237.664,133.918 C234.353,129.508 234.078,123.528 236.97,118.835 C239.861,114.141 245.332,111.687 250.769,112.645 C256.206,113.603 260.504,117.779 261.61,123.177 C261.931,124.739 263.308,125.861 264.906,125.861 L268.605,125.861 C271.403,125.856 273.908,127.576 274.904,130.18 C275.9,132.784 275.18,135.732 273.095,137.586 C271.708,138.819 271.585,140.941 272.821,142.325 C274.056,143.709 276.182,143.832 277.569,142.599 C281.74,138.89 283.181,132.995 281.189,127.786 C279.197,122.577 274.187,119.139 268.6,119.147 L264.906,119.147 L268.201,121.831 C266.541,113.734 260.094,107.471 251.939,106.034 C243.784,104.597 235.577,108.278 231.239,115.319 C226.902,122.359 227.315,131.329 232.28,137.943 C233.394,139.427 235.502,139.728 236.989,138.616 C238.475,137.505 238.777,135.401 237.664,133.918 Z" />
            <path d="M245.062,132.574 L245.062,139.287 C245.062,141.141 246.568,142.643 248.425,142.643 C250.283,142.643 251.789,141.141 251.789,139.287 L251.789,132.574 C251.789,130.72 250.283,129.217 248.425,129.217 C246.568,129.217 245.062,130.72 245.062,132.574 Z" />
        </g>
        <g id="Regular-M" transform="translate(0,200)">
            <path d="M458.515,135.93 L458.515,142.643 C458.515,144.497 460.021,146 461.879,146 C463.736,146 465.242,144.497 465.242,142.643 L465.242,135.93 C465.242,134.076 463.736,132.574 461.879,132.574 C460.021,132.574 458.515,134.076 458.515,135.93 Z" />
            <path d="M488.019,120.591 C494.851,117.648 499.886,111.656 501.6,104.43 C502.828,99.252 497.106,96.309 492.789,98.182 C488.996,99.819 484.579,98.978 481.653,96.057 C478.727,93.136 477.885,88.728 479.528,84.938 C481.397,80.63 478.449,74.933 473.265,76.148 C463.322,78.505 456.042,86.982 455.23,97.14 C455.082,98.988 456.463,100.605 458.315,100.753 C460.166,100.9 461.787,99.522 461.935,97.674 C462.516,90.419 467.716,84.364 474.811,82.681 C473.615,82.961 473.311,82.373 473.355,82.271 C470.615,88.589 472.019,95.935 476.896,100.804 C481.773,105.672 489.134,107.074 495.465,104.341 C495.366,104.384 494.771,104.078 495.054,102.883 C493.83,108.045 490.233,112.326 485.354,114.428 C483.648,115.162 482.862,117.138 483.598,118.84 C484.335,120.542 486.314,121.326 488.019,120.591 Z" />
            <path d="M437.664,133.918 C434.353,129.508 434.078,123.528 436.97,118.835 C439.861,114.141 445.332,111.687 450.769,112.645 C456.206,113.603 460.504,117.779 461.61,123.177 C461.931,124.739 463.308,125.861 464.906,125.861 L468.605,125.861 C471.403,125.856 473.908,127.576 474.904,130.18 C475.9,132.784 475.18,135.732 473.095,137.586 C471.708,138.819 471.585,140.941 472.821,142.325 C474.056,143.709 476.182,143.832 477.569,142.599 C481.74,138.89 483.181,132.995 481.189,127.786 C479.197,122.577 474.187,119.139 468.6,119.147 L464.906,119.147 L468.201,121.831 C466.541,113.734 460.094,107.471 451.939,106.034 C443.784,104.597 435.577,108.278 431.239,115.319 C426.902,122.359 427.315,131.329 432.28,137.943 C433.394,139.427 435.502,139.728 436.989,138.616 C438.475,137.505 438.777,135.401 437.664,133.918 Z" />
            <path d="M445.062,132.574 L445.062,139.287 C445.062,141.141 446.568,142.643 448.425,142.643 C450.283,142.643 451.789,141.141 451.789,139.287 L451.789,132.574 C451.789,130.72 450.283,129.217 448.425,129.217 C446.568,129.217 445.062,130.72 445.062,132.574 Z" />
        </g>
        <g id="Black-M" transform="translate(0,200)">
            <path d="M658.515,135.93 L658.515,142.643 C658.515,144.497 660.021,146 661.879,146 C663.736,146 665.242,144.497 665.242,142.643 L665.242,135.93 C665.242,134.076 663.736,132.574 661.879,132.574 C660.021,132.574 658.515,134.076 658.515,135.93 Z" />
            <path d="M688.019,120.591 C694.851,117.648 699.886,111.656 701.6,104.43 C702.828,99.252 697.106,96.309 692.789,98.182 C688.996,99.819 684.579,98.978 681.653,96.057 C678.727,93.136 677.885,88.728 679.528,84.938 C681.397,80.63 678.449,74.933 673.265,76.148 C663.323,78.505 656.042,86.982 655.23,97.14 C655.082,98.988 656.463,100.605 658.315,100.753 C660.166,100.9 661.787,99.522 661.935,97.674 C662.516,90.419 667.716,84.364 674.811,82.681 C673.615,82.961 673.311,82.373 673.355,82.271 C670.615,88.589 672.019,95.935 676.896,100.804 C681.773,105.672 689.134,107.074 695.465,104.341 C695.366,104.384 694.771,104.078 695.054,102.883 C693.83,108.045 690.233,112.326 685.354,114.428 C683.648,115.162 682.862,117.138 683.598,118.84 C684.335,120.542 686.314,121.326 688.019,120.591 Z" />
            <path d="M637.664,133.918 C634.353,129.508 634.078,123.528 636.97,118.835 C639.861,114.141 645.332,111.687 650.769,112.645 C656.206,113.603 660.504,117.779 661.61,123.177 C661.931,124.739 663.308,125.861 664.906,125.861 L668.605,125.861 C671.403,125.856 673.908,127.576 674.904,130.18 C675.9,132.784 675.18,135.732 673.095,137.586 C671.708,138.819 671.585,140.941 672.821,142.325 C674.056,143.709 676.182,143.832 677.569,142.599 C681.74,138.89 683.181,132.995 681.189,127.786 C679.197,122.577 674.187,119.139 668.6,119.147 L664.906,119.147 L668.201,121.831 C666.541,113.734 660.094,107.471 651.939,106.034 C643.784,104.597 635.577,108.278 631.239,115.319 C626.902,122.359 627.315,131.329 632.28,137.943 C633.394,139.427 635.502,139.728 636.989,138.616 C638.475,137.505 638.777,135.401 637.664,133.918 Z" />
            <path d="M645.062,132.574 L645.062,139.287 C645.062,141.141 646.568,142.643 648.425,142.643 C650.283,142.643 651.789,141.141 651.789,139.287 L651.789,132.574 C651.789,130.72 650.283,129.217 648.425,129.217 C646.568,129.217 645.062,130.72 645.062,132.574 Z" />
        </g>
    </g>
</svg>