<?xml version="1.0" encoding="UTF-8"?>
<svg height="600" width="800" xmlns="http://www.w3.org/2000/svg" xmlns:xlink="http://www.w3.org/1999/xlink">
    <g id="Notes" font-family="LucidaGrande, 'Lucida Grande', sans-serif" font-size="13">
        <rect fill="white" height="600.0" width="800.0" x="0.0" y="0.0" />
        <g font-size="13">
            <text x="18.0" y="176.0">Small</text>
            <text x="18.0" y="376.0">Medium</text>
            <text x="18.0" y="576.0">Large</text>
        </g>
        <g font-size="9">
            <text x="250.0" y="30.0">Ultralight</text>
            <text x="450.0" y="30.0">Regular</text>
            <text x="650.0" y="30.0">Black</text>
            <text id="template-version" fill="#505050" text-anchor="end" x="785.0" y="575.0">Template v.3.0</text>
            <a href="https://github.com/swhitty/SwiftDraw">
                <text fill="#505050" text-anchor="end" x="785.0" y="590.0">https://github.com/swhitty/SwiftDraw</text>
            </a>
        </g>
    </g>
    <g id="Guides" stroke="rgb(39, 170, 225)" stroke-width="0.5">
        <path id="Capline-S" d="M18,76 l800,0" />
        <path id="H-reference" d="M85,145.755 L87.685,145.755 L113.369,79.287 L114.052,79.287 L114.052,76 L112.148,76 L85,145.755 Z M95.693,121.536 L130.996,121.536 L130.263,119.313 L96.474,119.313 L95.693,121.536 Z M139.15,145.755 L141.787,145.755 L114.638,76 L113.466,76 L113.466,79.287 L139.15,145.755 Z" stroke="none" transform="translate(0,200)" />
        <path id="Baseline-S" d="M18,146 l800,0" />
        <path id="left-margin-Ultralight-M" d="M224.167,256 l0,110" />
        <path id="right-margin-Ultralight-M" d="M305.833,256 l0,110" />
        <path id="left-margin-Regular-M" d="M424.167,256 l0,110" />
        <path id="right-margin-Regular-M" d="M505.833,256 l0,110" />
        <path id="left-margin-Black-M" d="M624.167,256 l0,110" />
        <path id="right-margin-Black-M" d="M705.833,256 l0,110" />
        <path id="Capline-M" d="M18,276 l800,0" />
        <path id="Baseline-M" d="M18,346 l800,0" />
        <path id="Capline-L" d="M18,476 l800,0" />
        <path id="Baseline-L" d="M18,546 l800,0" />
    </g>
    <g id="Symbols">
        <g id="Ultralight-M" transform="translate(0,200)">
            <path d="M261.282,112.836 L261.282,127.576 C261.282,129.611 262.944,131.261 264.995,131.261 C267.045,131.261 268.707,129.611 268.707,127.576 L268.707,112.836 C268.707,110.801 267.045,109.152 264.995,109.152 C262.944,109.152 261.282,110.801 261.282,112.836 Z" />
            <path d="M264.995,146 L265.032,146 C267.082,146 268.744,144.35 268.744,142.315 C268.744,140.28 267.082,138.63 265.032,138.63 L264.995,138.63 C262.944,138.63 261.282,140.28 261.282,142.315 C261.282,144.35 262.944,146 264.995,146 Z" />
            <path d="M251.083,127.417 C240.057,126.038 231.741,116.803 231.594,105.774 C231.447,94.744 239.514,85.294 250.5,83.626 C261.486,81.958 272.03,88.583 275.211,99.152 C275.681,100.713 277.127,101.782 278.768,101.782 L285.414,101.782 C292.59,101.782 298.408,107.556 298.408,114.679 C298.408,121.802 292.59,127.576 285.414,127.576 L279.318,127.576 C277.267,127.576 275.605,129.226 275.605,131.261 C275.605,133.296 277.267,134.945 279.318,134.945 L285.414,134.945 C296.691,134.945 305.833,125.872 305.833,114.679 C305.833,103.486 296.691,94.412 285.414,94.412 L278.768,94.412 L282.326,97.042 C278.083,82.95 264.025,74.117 249.377,76.341 C234.729,78.565 223.973,91.165 224.169,105.871 C224.365,120.577 235.453,132.89 250.155,134.729 C252.19,134.983 254.046,133.552 254.303,131.533 C254.559,129.514 253.118,127.671 251.083,127.417 Z" />
        </g>
        <g id="Regular-M" transform="translate(0,200)">
            <path d="M461.282,112.836 L461.282,127.576 C461.282,129.611 462.944,131.261 464.995,131.261 C467.045,131.261 468.707,129.611 468.707,127.576 L468.707,112.836 C468.707,110.801 467.045,109.152 464.995,109.152 C462.944,109.152 461.282,110.801 461.282,112.836 Z" />
            <path d="M464.995,146 L465.032,146 C467.082,146 468.744,144.35 468.744,142.315 C468.744,140.28 467.082,138.63 465.032,138.63 L464.995,138.63 C462.944,138.63 461.282,140.28 461.282,142.315 C461.282,144.35 462.944,146 464.995,146 Z" />
            <path d="M451.083,127.417 C440.057,126.038 431.741,116.803 431.594,105.774 C431.447,94.744 439.514,85.294 450.5,83.626 C461.486,81.958 472.03,88.583 475.211,99.152 C475.681,100.713 477.127,101.782 478.768,101.782 L485.414,101.782 C492.59,101.782 498.408,107.556 498.408,114.679 C498.408,121.802 492.59,127.576 485.414,127.576 L479.318,127.576 C477.267,127.576 475.605,129.226 475.605,131.261 C475.605,133.296 477.267,134.945 479.318,134.945 L485.414,134.945 C496.691,134.945 505.833,125.872 505.833,114.679 C505.833,103.486 496.691,94.412 485.414,94.412 L478.768,94.412 L482.326,97.042 C478.083,82.95 464.025,74.117 449.377,76.341 C434.729,78.565 423.973,91.165 424.169,105.871 C424.365,120.577 435.453,132.89 450.155,134.729 C452.19,134.983 454.046,133.552 454.303,131.533 C454.559,129.514 453.118,127.671 451.083,127.417 Z" />
        </g>
        <g id="Black-M" transform="translate(0,200)">
            <path d="M661.282,112.836 L661.282,127.576 C661.282,129.611 662.944,131.261 664.995,131.261 C667.045,131.261 668.707,129.611 668.707,127.576 L668.707,112.836 C668.707,110.801 667.045,109.152 664.995,109.152 C662.944,109.152 661.282,110.801 661.282,112.836 Z" />
            <path d="M664.995,146 L665.032,146 C667.082,146 668.744,144.35 668.744,142.315 C668.744,140.28 667.082,138.63 665.032,138.63 L664.995,138.63 C662.944,138.63 661.282,140.28 661.282,142.315 C661.282,144.35 662.944,146 664.995,146 Z" />
            <path d="M651.083,127.417 C640.057,126.038 631.741,116.803 631.594,105.774 C631.447,94.744 639.514,85.294 650.5,83.626 C661.486,81.958 672.03,88.583 675.211,99.152 C675.681,100.713 677.127,101.782 678.768,101.782 L685.414,101.782 C692.59,101.782 698.408,107.556 698.408,114.679 C698.408,121.802 692.59,127.576 685.414,127.576 L679.318,127.576 C677.267,127.576 675.605,129.226 675.605,131.261 C675.605,133.296 677.267,134.945 679.318,134.945 L685.414,134.945 C696.691,134.945 705.833,125.872 705.833,114.679 C705.833,103.486 696.691,94.412 685.414,94.412 L678.768,94.412 L682.326,97.042 C678.083,82.95 664.025,74.117 649.377,76.341 C634.729,78.565 623.973,91.165 624.169,105.871 C624.365,120.577 635.453,132.89 650.155,134.729 C652.19,134.983 654.047,133.552 654.303,131.533 C654.559,129.514 653.118,127.671 651.083,127.417 Z" />
        </g>
    </g>
</svg>