<?xml version="1.0" encoding="UTF-8"?>
<svg height="600" width="800" xmlns="http://www.w3.org/2000/svg" xmlns:xlink="http://www.w3.org/1999/xlink">
    <g id="Notes" font-family="LucidaGrande, 'Lucida Grande', sans-serif" font-size="13">
        <rect fill="white" height="600.0" width="800.0" x="0.0" y="0.0" />
        <g font-size="13">
            <text x="18.0" y="176.0">Small</text>
            <text x="18.0" y="376.0">Medium</text>
            <text x="18.0" y="576.0">Large</text>
        </g>
        <g font-size="9">
            <text x="250.0" y="30.0">Ultralight</text>
            <text x="450.0" y="30.0">Regular</text>
            <text x="650.0" y="30.0">Black</text>
            <text id="template-version" fill="#505050" text-anchor="end" x="785.0" y="575.0">Template v.3.0</text>
            <a href="https://github.com/swhitty/SwiftDraw">
                <text fill="#505050" text-anchor="end" x="785.0" y="590.0">https://github.com/swhitty/SwiftDraw</text>
            </a>
        </g>
    </g>
    <g id="Guides" stroke="rgb(39, 170, 225)" stroke-width="0.5">
        <path id="Capline-S" d="M18,76 l800,0" />
        <path id="H-reference" d="M85,145.755 L87.685,145.755 L113.369,79.287 L114.052,79.287 L114.052,76 L112.148,76 L85,145.755 Z M95.693,121.536 L130.996,121.536 L130.263,119.313 L96.474,119.313 L95.693,121.536 Z M139.15,145.755 L141.787,145.755 L114.638,76 L113.466,76 L113.466,79.287 L139.15,145.755 Z" stroke="none" transform="translate(0,200)" />
        <path id="Baseline-S" d="M18,146 l800,0" />
        <path id="left-margin-Ultralight-M" d="M226.316,256 l0,110" />
        <path id="right-margin-Ultralight-M" d="M303.684,256 l0,110" />
        <path id="left-margin-Regular-M" d="M426.316,256 l0,110" />
        <path id="right-margin-Regular-M" d="M503.684,256 l0,110" />
        <path id="left-margin-Black-M" d="M626.316,256 l0,110" />
        <path id="right-margin-Black-M" d="M703.684,256 l0,110" />
        <path id="Capline-M" d="M18,276 l800,0" />
        <path id="Baseline-M" d="M18,346 l800,0" />
        <path id="Capline-L" d="M18,476 l800,0" />
        <path id="Baseline-L" d="M18,546 l800,0" />
    </g>
    <g id="Symbols">
        <g id="Ultralight-M" transform="translate(0,200)">
            <path d="M257.797,137.799 L256.447,141.084 C255.701,142.897 256.555,144.977 258.354,145.729 C260.153,146.481 262.216,145.62 262.962,143.806 L264.313,140.521 C265.059,138.707 264.205,136.628 262.406,135.876 C260.606,135.124 258.543,135.985 257.797,137.799 Z" />
            <path d="M272.41,120.813 L273.76,117.531 C274.507,115.718 273.654,113.638 271.855,112.885 C270.056,112.132 267.992,112.993 267.246,114.806 L265.895,118.088 C265.148,119.901 266.002,121.981 267.801,122.734 C269.6,123.486 271.663,122.626 272.41,120.813 Z" />
            <path d="M270.501,142.445 C275.159,140.502 278.435,136.2 279.093,131.162 C279.752,126.124 277.693,121.114 273.694,118.02 C269.694,114.927 264.361,114.22 259.704,116.166 L261.055,119.45 L264.312,118.088 L262.961,114.806 C262.215,112.993 260.151,112.133 258.352,112.885 C256.553,113.638 255.7,115.718 256.446,117.531 L257.797,120.813 C258.543,122.626 260.606,123.486 262.405,122.735 C264.734,121.761 267.4,122.115 269.4,123.662 C271.4,125.209 272.43,127.714 272.1,130.233 C271.771,132.752 270.133,134.903 267.804,135.875 C266.004,136.626 265.149,138.705 265.894,140.519 C266.638,142.334 268.701,143.196 270.501,142.445 Z" />
            <path d="M273.759,141.087 L272.411,137.802 C271.667,135.986 269.603,135.123 267.802,135.876 C265.473,136.849 262.807,136.495 260.807,134.948 C258.807,133.401 257.778,130.896 258.107,128.376 C258.437,125.857 260.075,123.706 262.404,122.735 C264.204,121.984 265.059,119.905 264.315,118.091 C263.57,116.276 261.507,115.414 259.707,116.165 C255.049,118.108 251.773,122.409 251.114,127.447 C250.455,132.485 252.513,137.495 256.513,140.589 C260.512,143.683 265.846,144.39 270.503,142.444 L269.152,139.16 L265.893,140.518 L267.24,143.803 C267.985,145.618 270.047,146.48 271.847,145.73 C273.647,144.98 274.503,142.901 273.759,141.087 Z" />
            <path d="M276.231,128.507 L279.486,127.146 C281.285,126.393 282.139,124.313 281.392,122.499 C280.646,120.686 278.582,119.826 276.783,120.578 L273.528,121.94 C271.729,122.692 270.876,124.773 271.622,126.586 C272.369,128.4 274.432,129.26 276.231,128.507 Z" />
            <path d="M273.528,136.67 L276.783,138.032 C278.582,138.784 280.646,137.924 281.392,136.11 C282.139,134.297 281.285,132.217 279.486,131.464 L276.231,130.103 C274.432,129.35 272.369,130.21 271.622,132.024 C270.876,133.837 271.729,135.917 273.528,136.67 Z" />
            <path d="M240.015,119.963 C234.393,114.62 232.106,106.612 234.051,99.074 C235.995,91.535 241.862,85.664 249.354,83.759 C256.846,81.854 264.773,84.217 270.032,89.923 C272.244,92.32 273.878,95.196 274.809,98.329 C275.257,99.833 276.63,100.864 278.188,100.864 L284.5,100.864 C289.821,100.936 294.527,104.499 296.093,109.677 C297.659,114.854 295.725,120.457 291.31,123.537 C289.709,124.655 289.309,126.869 290.417,128.484 C291.525,130.098 293.722,130.502 295.324,129.384 C302.262,124.544 305.3,115.739 302.84,107.603 C300.379,99.467 292.984,93.868 284.548,93.754 L278.188,93.753 L281.566,96.288 C280.324,92.11 278.145,88.276 275.198,85.082 C268.187,77.475 257.618,74.324 247.628,76.865 C237.639,79.405 229.817,87.233 227.224,97.284 C224.632,107.336 227.68,118.013 235.177,125.137 C236.594,126.484 238.826,126.418 240.162,124.989 C241.498,123.56 241.432,121.31 240.015,119.963 Z" />
            <path d="M256.68,121.94 L253.424,120.578 C251.625,119.826 249.562,120.686 248.815,122.499 C248.069,124.313 248.922,126.393 250.721,127.146 L253.976,128.507 C255.775,129.26 257.839,128.4 258.585,126.586 C259.332,124.773 258.478,122.692 256.68,121.94 Z" />
            <path d="M253.976,130.103 L250.721,131.464 C248.922,132.217 248.069,134.297 248.815,136.11 C249.562,137.924 251.625,138.784 253.424,138.032 L256.68,136.67 C258.478,135.917 259.332,133.837 258.585,132.024 C257.839,130.21 255.775,129.35 253.976,130.103 Z" />
        </g>
        <g id="Regular-M" transform="translate(0,200)">
            <path d="M457.797,137.799 L456.447,141.084 C455.701,142.897 456.555,144.977 458.354,145.729 C460.153,146.481 462.216,145.62 462.962,143.806 L464.313,140.521 C465.059,138.707 464.205,136.628 462.406,135.876 C460.606,135.124 458.543,135.985 457.797,137.799 Z" />
            <path d="M472.41,120.813 L473.76,117.531 C474.507,115.718 473.654,113.638 471.855,112.885 C470.056,112.132 467.992,112.993 467.246,114.806 L465.895,118.088 C465.148,119.901 466.002,121.981 467.801,122.734 C469.6,123.486 471.663,122.626 472.41,120.813 Z" />
            <path d="M470.501,142.445 C475.159,140.502 478.435,136.2 479.093,131.162 C479.752,126.124 477.693,121.114 473.694,118.02 C469.694,114.927 464.361,114.22 459.704,116.166 L461.055,119.45 L464.312,118.088 L462.961,114.806 C462.215,112.993 460.151,112.133 458.352,112.885 C456.553,113.638 455.7,115.718 456.446,117.531 L457.797,120.813 C458.543,122.626 460.606,123.486 462.405,122.735 C464.734,121.761 467.4,122.115 469.4,123.662 C471.4,125.209 472.43,127.714 472.1,130.233 C471.771,132.752 470.133,134.903 467.804,135.875 C466.004,136.626 465.149,138.705 465.894,140.519 C466.638,142.334 468.701,143.196 470.501,142.445 Z" />
            <path d="M473.759,141.087 L472.411,137.802 C471.667,135.986 469.603,135.123 467.802,135.876 C465.473,136.849 462.807,136.495 460.807,134.948 C458.807,133.401 457.778,130.896 458.107,128.376 C458.437,125.857 460.075,123.706 462.404,122.735 C464.204,121.984 465.059,119.905 464.315,118.091 C463.57,116.276 461.507,115.414 459.707,116.165 C455.049,118.108 451.773,122.409 451.114,127.447 C450.455,132.485 452.513,137.495 456.513,140.589 C460.512,143.683 465.846,144.39 470.503,142.444 L469.152,139.16 L465.893,140.518 L467.24,143.803 C467.985,145.618 470.047,146.48 471.847,145.73 C473.647,144.98 474.503,142.901 473.759,141.087 Z" />
            <path d="M476.231,128.507 L479.486,127.146 C481.285,126.393 482.139,124.313 481.392,122.499 C480.646,120.686 478.582,119.826 476.783,120.578 L473.528,121.94 C471.729,122.692 470.876,124.773 471.622,126.586 C472.369,128.4 474.432,129.26 476.231,128.507 Z" />
            <path d="M473.528,136.67 L476.783,138.032 C478.582,138.784 480.646,137.924 481.392,136.11 C482.139,134.297 481.285,132.217 479.486,131.464 L476.231,130.103 C474.432,129.35 472.369,130.21 471.622,132.024 C470.876,133.837 471.729,135.917 473.528,136.67 Z" />
            <path d="M440.015,119.963 C434.393,114.62 432.106,106.612 434.051,99.074 C435.995,91.535 441.862,85.664 449.354,83.759 C456.846,81.854 464.773,84.217 470.032,89.923 C472.244,92.32 473.878,95.196 474.809,98.329 C475.257,99.833 476.63,100.864 478.188,100.864 L484.5,100.864 C489.821,100.936 494.527,104.499 496.093,109.677 C497.659,114.854 495.725,120.457 491.31,123.537 C489.709,124.655 489.309,126.869 490.417,128.484 C491.525,130.098 493.722,130.502 495.324,129.384 C502.262,124.544 505.3,115.739 502.84,107.603 C500.379,99.467 492.984,93.868 484.548,93.754 L478.188,93.753 L481.566,96.288 C480.324,92.11 478.145,88.276 475.198,85.082 C468.187,77.475 457.618,74.324 447.628,76.865 C437.639,79.405 429.817,87.233 427.224,97.284 C424.632,107.336 427.68,118.013 435.177,125.137 C436.594,126.484 438.826,126.418 440.162,124.989 C441.498,123.56 441.432,121.31 440.015,119.963 Z" />
            <path d="M456.68,121.94 L453.424,120.578 C451.625,119.826 449.562,120.686 448.815,122.499 C448.069,124.313 448.922,126.393 450.721,127.146 L453.976,128.507 C455.775,129.26 457.839,128.4 458.585,126.586 C459.332,124.773 458.478,122.692 456.68,121.94 Z" />
            <path d="M453.976,130.103 L450.721,131.464 C448.922,132.217 448.069,134.297 448.815,136.11 C449.562,137.924 451.625,138.784 453.424,138.032 L456.68,136.67 C458.478,135.917 459.332,133.837 458.585,132.024 C457.839,130.21 455.775,129.35 453.976,130.103 Z" />
        </g>
        <g id="Black-M" transform="translate(0,200)">
            <path d="M657.797,137.799 L656.447,141.084 C655.701,142.897 656.555,144.977 658.354,145.729 C660.153,146.481 662.216,145.62 662.962,143.806 L664.313,140.521 C665.059,138.707 664.205,136.628 662.406,135.876 C660.606,135.124 658.543,135.985 657.797,137.799 Z" />
            <path d="M672.41,120.813 L673.76,117.531 C674.507,115.718 673.654,113.638 671.855,112.885 C670.056,112.132 667.992,112.993 667.246,114.806 L665.895,118.088 C665.148,119.901 666.002,121.981 667.801,122.734 C669.6,123.486 671.663,122.626 672.41,120.813 Z" />
            <path d="M670.501,142.445 C675.159,140.502 678.435,136.2 679.093,131.162 C679.752,126.124 677.693,121.114 673.694,118.02 C669.694,114.927 664.361,114.22 659.704,116.166 L661.055,119.45 L664.312,118.088 L662.961,114.806 C662.215,112.993 660.151,112.133 658.352,112.885 C656.553,113.638 655.7,115.718 656.446,117.531 L657.797,120.813 C658.543,122.626 660.606,123.486 662.405,122.735 C664.734,121.761 667.4,122.115 669.4,123.662 C671.4,125.209 672.43,127.714 672.1,130.233 C671.771,132.752 670.133,134.903 667.804,135.875 C666.004,136.626 665.149,138.705 665.894,140.519 C666.638,142.334 668.701,143.196 670.501,142.445 Z" />
            <path d="M673.759,141.087 L672.411,137.802 C671.667,135.986 669.603,135.123 667.802,135.876 C665.473,136.849 662.807,136.495 660.807,134.948 C658.807,133.401 657.778,130.896 658.107,128.376 C658.437,125.857 660.075,123.706 662.404,122.735 C664.204,121.984 665.059,119.905 664.315,118.091 C663.57,116.276 661.507,115.414 659.707,116.165 C655.049,118.108 651.773,122.409 651.114,127.447 C650.456,132.485 652.513,137.495 656.513,140.589 C660.512,143.683 665.846,144.39 670.503,142.444 L669.152,139.16 L665.893,140.518 L667.24,143.803 C667.985,145.618 670.047,146.48 671.847,145.73 C673.647,144.98 674.503,142.901 673.759,141.087 Z" />
            <path d="M676.231,128.507 L679.486,127.146 C681.285,126.393 682.139,124.313 681.392,122.499 C680.646,120.686 678.582,119.826 676.783,120.578 L673.528,121.94 C671.729,122.692 670.876,124.773 671.622,126.586 C672.369,128.4 674.432,129.26 676.231,128.507 Z" />
            <path d="M673.528,136.67 L676.783,138.032 C678.582,138.784 680.646,137.924 681.392,136.11 C682.139,134.297 681.285,132.217 679.486,131.464 L676.231,130.103 C674.432,129.35 672.369,130.21 671.622,132.024 C670.876,133.837 671.729,135.917 673.528,136.67 Z" />
            <path d="M640.015,119.963 C634.393,114.62 632.106,106.612 634.051,99.074 C635.995,91.535 641.862,85.664 649.354,83.759 C656.846,81.854 664.773,84.217 670.032,89.923 C672.244,92.32 673.878,95.196 674.809,98.329 C675.257,99.833 676.63,100.864 678.188,100.864 L684.5,100.864 C689.821,100.936 694.527,104.499 696.093,109.677 C697.659,114.854 695.725,120.457 691.31,123.537 C689.709,124.655 689.309,126.869 690.417,128.484 C691.525,130.098 693.722,130.502 695.324,129.384 C702.262,124.544 705.3,115.739 702.84,107.603 C700.379,99.467 692.984,93.868 684.548,93.754 L678.188,93.753 L681.566,96.288 C680.324,92.11 678.145,88.276 675.198,85.082 C668.187,77.475 657.618,74.324 647.628,76.865 C637.639,79.405 629.817,87.233 627.224,97.284 C624.632,107.336 627.68,118.013 635.177,125.137 C636.594,126.484 638.826,126.418 640.162,124.989 C641.498,123.56 641.432,121.31 640.015,119.963 Z" />
            <path d="M656.68,121.94 L653.424,120.578 C651.625,119.826 649.562,120.686 648.815,122.499 C648.069,124.313 648.922,126.393 650.721,127.146 L653.976,128.507 C655.775,129.26 657.839,128.4 658.585,126.586 C659.332,124.773 658.479,122.692 656.68,121.94 Z" />
            <path d="M653.976,130.103 L650.721,131.464 C648.922,132.217 648.069,134.297 648.815,136.11 C649.562,137.924 651.625,138.784 653.424,138.032 L656.68,136.67 C658.479,135.917 659.332,133.837 658.585,132.024 C657.839,130.21 655.775,129.35 653.976,130.103 Z" />
        </g>
    </g>
</svg>