<?xml version="1.0" encoding="UTF-8"?>
<svg height="600" width="800" xmlns="http://www.w3.org/2000/svg" xmlns:xlink="http://www.w3.org/1999/xlink">
    <g id="Notes" font-family="LucidaGrande, 'Lucida Grande', sans-serif" font-size="13">
        <rect fill="white" height="600.0" width="800.0" x="0.0" y="0.0" />
        <g font-size="13">
            <text x="18.0" y="176.0">Small</text>
            <text x="18.0" y="376.0">Medium</text>
            <text x="18.0" y="576.0">Large</text>
        </g>
        <g font-size="9">
            <text x="250.0" y="30.0">Ultralight</text>
            <text x="450.0" y="30.0">Regular</text>
            <text x="650.0" y="30.0">Black</text>
            <text id="template-version" fill="#505050" text-anchor="end" x="785.0" y="575.0">Template v.3.0</text>
            <a href="https://github.com/swhitty/SwiftDraw">
                <text fill="#505050" text-anchor="end" x="785.0" y="590.0">https://github.com/swhitty/SwiftDraw</text>
            </a>
        </g>
    </g>
    <g id="Guides" stroke="rgb(39, 170, 225)" stroke-width="0.5">
        <path id="Capline-S" d="M18,76 l800,0" />
        <path id="H-reference" d="M85,145.755 L87.685,145.755 L113.369,79.287 L114.052,79.287 L114.052,76 L112.148,76 L85,145.755 Z M95.693,121.536 L130.996,121.536 L130.263,119.313 L96.474,119.313 L95.693,121.536 Z M139.15,145.755 L141.787,145.755 L114.638,76 L113.466,76 L113.466,79.287 L139.15,145.755 Z" stroke="none" transform="translate(0,200)" />
        <path id="Baseline-S" d="M18,146 l800,0" />
        <path id="left-margin-Ultralight-M" d="M226.316,256 l0,110" />
        <path id="right-margin-Ultralight-M" d="M303.684,256 l0,110" />
        <path id="left-margin-Regular-M" d="M426.316,256 l0,110" />
        <path id="right-margin-Regular-M" d="M503.684,256 l0,110" />
        <path id="left-margin-Black-M" d="M626.316,256 l0,110" />
        <path id="right-margin-Black-M" d="M703.684,256 l0,110" />
        <path id="Capline-M" d="M18,276 l800,0" />
        <path id="Baseline-M" d="M18,346 l800,0" />
        <path id="Capline-L" d="M18,476 l800,0" />
        <path id="Baseline-L" d="M18,546 l800,0" />
    </g>
    <g id="Symbols">
        <g id="Ultralight-M" transform="translate(0,200)">
            <path d="M261.479,114.499 L261.479,142.5 L267.482,140.025 L253.415,126.025 C252.042,124.658 249.815,124.658 248.441,126.025 C247.068,127.392 247.068,129.608 248.441,130.975 L262.509,144.975 C264.724,147.18 268.512,145.618 268.512,142.5 L268.512,114.499 C268.512,112.566 266.938,110.999 264.996,110.999 C263.053,110.999 261.479,112.566 261.479,114.499 Z" />
            <path d="M267.482,144.975 L281.55,130.975 C282.923,129.608 282.923,127.392 281.55,126.025 C280.176,124.658 277.95,124.658 276.576,126.025 L262.509,140.025 C261.135,141.392 261.135,143.608 262.509,144.975 C263.882,146.342 266.109,146.342 267.482,144.975 Z" />
            <path d="M240.558,119.807 C233.807,113.928 231.527,104.444 234.876,96.162 C238.224,87.879 246.469,82.609 255.43,83.023 C264.391,83.437 272.109,89.444 274.673,97.999 C275.117,99.483 276.488,100.499 278.043,100.499 L284.338,100.499 C289.8,100.498 294.609,104.079 296.149,109.293 C297.69,114.508 295.594,120.109 291.002,123.05 C289.369,124.097 288.897,126.262 289.948,127.888 C290.999,129.513 293.175,129.983 294.809,128.937 C302.025,124.314 305.318,115.512 302.897,107.319 C300.476,99.125 292.92,93.498 284.338,93.499 L278.043,93.499 L281.413,95.999 C277.995,84.591 267.704,76.582 255.756,76.03 C243.808,75.479 232.815,82.505 228.351,93.549 C223.886,104.592 226.925,117.238 235.927,125.075 C237.389,126.348 239.611,126.2 240.89,124.746 C242.169,123.291 242.02,121.079 240.558,119.807 Z" />
        </g>
        <g id="Regular-M" transform="translate(0,200)">
            <path d="M461.479,114.499 L461.479,142.5 L467.482,140.025 L453.415,126.025 C452.042,124.658 449.815,124.658 448.441,126.025 C447.068,127.392 447.068,129.608 448.441,130.975 L462.509,144.975 C464.724,147.18 468.512,145.618 468.512,142.5 L468.512,114.499 C468.512,112.566 466.938,110.999 464.996,110.999 C463.053,110.999 461.479,112.566 461.479,114.499 Z" />
            <path d="M467.482,144.975 L481.55,130.975 C482.923,129.608 482.923,127.392 481.55,126.025 C480.176,124.658 477.95,124.658 476.576,126.025 L462.509,140.025 C461.135,141.392 461.135,143.608 462.509,144.975 C463.882,146.342 466.109,146.342 467.482,144.975 Z" />
            <path d="M440.558,119.807 C433.807,113.928 431.527,104.444 434.876,96.162 C438.224,87.879 446.469,82.609 455.43,83.023 C464.391,83.437 472.109,89.444 474.673,97.999 C475.117,99.483 476.488,100.499 478.043,100.499 L484.338,100.499 C489.8,100.498 494.609,104.079 496.149,109.293 C497.69,114.508 495.594,120.109 491.002,123.05 C489.369,124.097 488.897,126.262 489.948,127.888 C490.999,129.513 493.175,129.983 494.809,128.937 C502.025,124.314 505.318,115.512 502.897,107.319 C500.476,99.125 492.92,93.498 484.338,93.499 L478.043,93.499 L481.413,95.999 C477.995,84.591 467.704,76.582 455.756,76.03 C443.808,75.479 432.815,82.505 428.351,93.549 C423.886,104.592 426.925,117.238 435.927,125.075 C437.389,126.348 439.611,126.2 440.89,124.746 C442.169,123.291 442.02,121.079 440.558,119.807 Z" />
        </g>
        <g id="Black-M" transform="translate(0,200)">
            <path d="M661.479,114.499 L661.479,142.5 L667.482,140.025 L653.415,126.025 C652.042,124.658 649.815,124.658 648.441,126.025 C647.068,127.392 647.068,129.608 648.441,130.975 L662.509,144.975 C664.724,147.18 668.512,145.618 668.512,142.5 L668.512,114.499 C668.512,112.566 666.938,110.999 664.996,110.999 C663.053,110.999 661.479,112.566 661.479,114.499 Z" />
            <path d="M667.482,144.975 L681.55,130.975 C682.923,129.608 682.923,127.392 681.55,126.025 C680.176,124.658 677.95,124.658 676.576,126.025 L662.509,140.025 C661.135,141.392 661.135,143.608 662.509,144.975 C663.882,146.342 666.109,146.342 667.482,144.975 Z" />
            <path d="M640.558,119.807 C633.807,113.928 631.527,104.444 634.876,96.162 C638.224,87.879 646.469,82.609 655.43,83.023 C664.391,83.437 672.109,89.444 674.673,97.999 C675.117,99.483 676.488,100.499 678.043,100.499 L684.338,100.499 C689.8,100.498 694.609,104.079 696.149,109.293 C697.69,114.508 695.594,120.109 691.002,123.05 C689.369,124.097 688.897,126.262 689.948,127.888 C690.999,129.513 693.175,129.983 694.809,128.937 C702.025,124.314 705.318,115.512 702.897,107.319 C700.476,99.125 692.92,93.498 684.338,93.499 L678.043,93.499 L681.413,95.999 C677.995,84.591 667.704,76.582 655.756,76.03 C643.808,75.479 632.815,82.505 628.351,93.549 C623.886,104.592 626.925,117.238 635.927,125.075 C637.389,126.348 639.611,126.2 640.89,124.746 C642.169,123.291 642.02,121.079 640.558,119.807 Z" />
        </g>
    </g>
</svg>