<?xml version="1.0" encoding="UTF-8"?>
<svg height="600" width="800" xmlns="http://www.w3.org/2000/svg" xmlns:xlink="http://www.w3.org/1999/xlink">
    <g id="Notes" font-family="LucidaGrande, 'Lucida Grande', sans-serif" font-size="13">
        <rect fill="white" height="600.0" width="800.0" x="0.0" y="0.0" />
        <g font-size="13">
            <text x="18.0" y="176.0">Small</text>
            <text x="18.0" y="376.0">Medium</text>
            <text x="18.0" y="576.0">Large</text>
        </g>
        <g font-size="9">
            <text x="250.0" y="30.0">Ultralight</text>
            <text x="450.0" y="30.0">Regular</text>
            <text x="650.0" y="30.0">Black</text>
            <text id="template-version" fill="#505050" text-anchor="end" x="785.0" y="575.0">Template v.3.0</text>
            <a href="https://github.com/swhitty/SwiftDraw">
                <text fill="#505050" text-anchor="end" x="785.0" y="590.0">https://github.com/swhitty/SwiftDraw</text>
            </a>
        </g>
    </g>
    <g id="Guides" stroke="rgb(39, 170, 225)" stroke-width="0.5">
        <path id="Capline-S" d="M18,76 l800,0" />
        <path id="H-reference" d="M85,145.755 L87.685,145.755 L113.369,79.287 L114.052,79.287 L114.052,76 L112.148,76 L85,145.755 Z M95.693,121.536 L130.996,121.536 L130.263,119.313 L96.474,119.313 L95.693,121.536 Z M139.15,145.755 L141.787,145.755 L114.638,76 L113.466,76 L113.466,79.287 L139.15,145.755 Z" stroke="none" transform="translate(0,200)" />
        <path id="Baseline-S" d="M18,146 l800,0" />
        <path id="left-margin-Ultralight-M" d="M230,256 l0,110" />
        <path id="right-margin-Ultralight-M" d="M300,256 l0,110" />
        <path id="left-margin-Regular-M" d="M430,256 l0,110" />
        <path id="right-margin-Regular-M" d="M500,256 l0,110" />
        <path id="left-margin-Black-M" d="M630,256 l0,110" />
        <path id="right-margin-Black-M" d="M700,256 l0,110" />
        <path id="Capline-M" d="M18,276 l800,0" />
        <path id="Baseline-M" d="M18,346 l800,0" />
        <path id="Capline-L" d="M18,476 l800,0" />
        <path id="Baseline-L" d="M18,546 l800,0" />
    </g>
    <g id="Symbols">
        <g id="Ultralight-M" transform="translate(0,200)">
            <path d="M278.222,93.062 L230.977,140.308 C229.674,141.61 229.674,143.721 230.977,145.023 C232.279,146.326 234.39,146.326 235.692,145.023 L282.938,97.778 C284.24,96.476 284.24,94.365 282.938,93.062 C281.635,91.76 279.524,91.76 278.222,93.062 Z" />
            <path d="M242.207,106.765 C240.488,105.328 239.696,103.064 240.145,100.868 C240.594,98.673 242.213,96.902 244.359,96.257 C246.504,95.612 248.831,96.196 250.417,97.78 C253.56,100.918 258.271,96.208 255.132,93.064 C253.549,91.479 252.964,89.152 253.609,87.006 C254.255,84.86 256.026,83.242 258.221,82.792 C260.416,82.343 262.681,83.135 264.118,84.855 C265.45,86.45 267.902,86.45 269.235,84.855 C270.672,83.135 272.936,82.343 275.132,82.792 C277.327,83.242 279.098,84.86 279.743,87.006 C280.388,89.152 279.804,91.479 278.22,93.064 C275.082,96.208 279.792,100.918 282.936,97.78 C284.521,96.196 286.848,95.612 288.994,96.257 C291.14,96.902 292.758,98.673 293.208,100.868 C293.657,103.064 292.865,105.328 291.145,106.765 C289.55,108.098 289.55,110.55 291.145,111.882 C292.865,113.319 293.657,115.584 293.208,117.779 C292.758,119.974 291.14,121.745 288.994,122.391 C286.848,123.036 284.521,122.451 282.936,120.868 C279.792,117.729 275.082,122.44 278.22,125.583 C279.804,127.169 280.388,129.496 279.743,131.641 C279.098,133.787 277.327,135.406 275.131,135.855 C272.936,136.304 270.672,135.512 269.235,133.793 C267.902,132.198 265.45,132.198 264.118,133.793 C262.681,135.513 260.416,136.305 258.221,135.855 C256.026,135.406 254.255,133.787 253.609,131.642 C252.964,129.496 253.549,127.169 255.132,125.583 C258.206,122.505 253.721,117.829 250.517,120.772 C248.034,123.052 244.173,122.888 241.892,120.406 C239.611,117.924 239.774,114.063 242.256,111.781 C243.611,110.535 243.7,108.426 242.454,107.07 C241.207,105.715 239.098,105.626 237.743,106.872 C232.55,111.646 232.21,119.725 236.982,124.918 C241.755,130.112 249.833,130.454 255.028,125.683 L250.413,120.872 C247.097,124.193 245.872,129.067 247.223,133.562 C248.575,138.057 252.285,141.447 256.883,142.388 C261.482,143.329 266.226,141.67 269.235,138.068 L264.118,138.068 C267.127,141.67 271.871,143.329 276.469,142.388 C281.067,141.446 284.777,138.057 286.129,133.562 C287.481,129.067 286.256,124.193 282.939,120.872 L278.224,125.587 C281.546,128.903 286.42,130.128 290.914,128.777 C295.409,127.425 298.799,123.715 299.74,119.117 C300.682,114.518 299.023,109.774 295.421,106.765 L295.421,111.882 C299.023,108.873 300.682,104.129 299.74,99.531 C298.799,94.933 295.409,91.223 290.914,89.871 C286.42,88.519 281.546,89.744 278.224,93.061 L282.939,97.776 C286.256,94.454 287.481,89.58 286.129,85.086 C284.777,80.591 281.067,77.201 276.469,76.26 C271.871,75.318 267.127,76.977 264.118,80.579 L269.235,80.579 C266.226,76.977 261.482,75.318 256.883,76.26 C252.285,77.201 248.575,80.591 247.223,85.086 C245.872,89.58 247.097,94.454 250.413,97.776 L255.128,93.061 C251.807,89.744 246.933,88.519 242.438,89.871 C237.943,91.223 234.553,94.933 233.612,99.531 C232.671,104.129 234.33,108.873 237.932,111.882 C239.345,113.063 241.447,112.875 242.628,111.462 C243.809,110.048 243.62,107.946 242.207,106.765 Z" />
            <path d="M250.415,97.778 L278.222,125.585 C279.524,126.887 281.635,126.887 282.938,125.585 C284.24,124.283 284.24,122.172 282.938,120.87 L255.13,93.062 C253.828,91.76 251.717,91.76 250.415,93.062 C249.113,94.365 249.113,96.476 250.415,97.778 Z" />
        </g>
        <g id="Regular-M" transform="translate(0,200)">
            <path d="M478.222,93.062 L430.977,140.308 C429.674,141.61 429.674,143.721 430.977,145.023 C432.279,146.326 434.39,146.326 435.692,145.023 L482.938,97.778 C484.24,96.476 484.24,94.365 482.938,93.062 C481.635,91.76 479.524,91.76 478.222,93.062 Z" />
            <path d="M442.207,106.765 C440.488,105.328 439.695,103.064 440.145,100.868 C440.594,98.673 442.213,96.902 444.359,96.257 C446.504,95.612 448.831,96.196 450.417,97.78 C453.56,100.918 458.271,96.208 455.132,93.064 C453.549,91.479 452.964,89.152 453.609,87.006 C454.255,84.86 456.026,83.242 458.221,82.792 C460.416,82.343 462.681,83.135 464.118,84.855 C465.45,86.45 467.902,86.45 469.235,84.855 C470.672,83.135 472.936,82.343 475.132,82.792 C477.327,83.242 479.098,84.86 479.743,87.006 C480.388,89.152 479.804,91.479 478.22,93.064 C475.082,96.208 479.792,100.918 482.936,97.78 C484.521,96.196 486.848,95.612 488.994,96.257 C491.14,96.902 492.758,98.673 493.208,100.868 C493.657,103.064 492.865,105.328 491.145,106.765 C489.55,108.098 489.55,110.55 491.145,111.882 C492.865,113.319 493.657,115.584 493.208,117.779 C492.758,119.974 491.14,121.745 488.994,122.391 C486.848,123.036 484.521,122.451 482.936,120.868 C479.792,117.729 475.082,122.44 478.22,125.583 C479.804,127.169 480.388,129.496 479.743,131.641 C479.098,133.787 477.327,135.406 475.131,135.855 C472.936,136.304 470.672,135.512 469.235,133.793 C467.902,132.198 465.45,132.198 464.118,133.793 C462.681,135.513 460.416,136.305 458.221,135.855 C456.026,135.406 454.255,133.787 453.609,131.642 C452.964,129.496 453.549,127.169 455.132,125.583 C458.206,122.505 453.721,117.829 450.517,120.772 C448.034,123.052 444.173,122.888 441.892,120.406 C439.612,117.924 439.774,114.063 442.256,111.781 C443.611,110.535 443.7,108.426 442.454,107.07 C441.207,105.715 439.098,105.626 437.743,106.872 C432.55,111.646 432.21,119.725 436.982,124.918 C441.755,130.112 449.833,130.454 455.028,125.683 L450.413,120.872 C447.097,124.193 445.872,129.067 447.223,133.562 C448.575,138.057 452.285,141.447 456.883,142.388 C461.482,143.329 466.226,141.67 469.235,138.068 L464.118,138.068 C467.127,141.67 471.871,143.329 476.469,142.388 C481.067,141.446 484.777,138.057 486.129,133.562 C487.481,129.067 486.256,124.193 482.939,120.872 L478.224,125.587 C481.546,128.903 486.42,130.128 490.914,128.777 C495.409,127.425 498.799,123.715 499.74,119.117 C500.682,114.518 499.023,109.774 495.421,106.765 L495.421,111.882 C499.023,108.873 500.682,104.129 499.74,99.531 C498.799,94.933 495.409,91.223 490.914,89.871 C486.42,88.519 481.546,89.744 478.224,93.061 L482.939,97.776 C486.256,94.454 487.481,89.58 486.129,85.086 C484.777,80.591 481.067,77.201 476.469,76.26 C471.871,75.318 467.127,76.977 464.118,80.579 L469.235,80.579 C466.226,76.977 461.482,75.318 456.883,76.26 C452.285,77.201 448.575,80.591 447.223,85.086 C445.872,89.58 447.097,94.454 450.413,97.776 L455.128,93.061 C451.807,89.744 446.933,88.519 442.438,89.871 C437.943,91.223 434.553,94.933 433.612,99.531 C432.671,104.129 434.33,108.873 437.932,111.882 C439.345,113.063 441.447,112.875 442.628,111.462 C443.809,110.048 443.62,107.946 442.207,106.765 Z" />
            <path d="M450.415,97.778 L478.222,125.585 C479.524,126.887 481.635,126.887 482.938,125.585 C484.24,124.283 484.24,122.172 482.938,120.87 L455.13,93.062 C453.828,91.76 451.717,91.76 450.415,93.062 C449.113,94.365 449.113,96.476 450.415,97.778 Z" />
        </g>
        <g id="Black-M" transform="translate(0,200)">
            <path d="M678.222,93.062 L630.977,140.308 C629.674,141.61 629.674,143.721 630.977,145.023 C632.279,146.326 634.39,146.326 635.692,145.023 L682.938,97.778 C684.24,96.476 684.24,94.365 682.938,93.062 C681.635,91.76 679.524,91.76 678.222,93.062 Z" />
            <path d="M642.207,106.765 C640.487,105.328 639.695,103.064 640.145,100.868 C640.594,98.673 642.213,96.902 644.359,96.257 C646.504,95.612 648.831,96.196 650.417,97.78 C653.56,100.918 658.271,96.208 655.132,93.064 C653.549,91.479 652.964,89.152 653.609,87.006 C654.255,84.86 656.026,83.242 658.221,82.792 C660.416,82.343 662.681,83.135 664.118,84.855 C665.45,86.45 667.902,86.45 669.235,84.855 C670.672,83.135 672.936,82.343 675.131,82.792 C677.327,83.242 679.098,84.86 679.743,87.006 C680.388,89.152 679.804,91.479 678.22,93.064 C675.082,96.208 679.792,100.918 682.936,97.78 C684.521,96.196 686.848,95.612 688.994,96.257 C691.14,96.902 692.758,98.673 693.208,100.868 C693.657,103.064 692.865,105.328 691.145,106.765 C689.55,108.098 689.55,110.55 691.145,111.882 C692.865,113.319 693.657,115.584 693.208,117.779 C692.758,119.974 691.14,121.745 688.994,122.391 C686.848,123.036 684.521,122.451 682.936,120.868 C679.792,117.729 675.082,122.44 678.22,125.583 C679.804,127.169 680.388,129.496 679.743,131.641 C679.098,133.787 677.327,135.406 675.131,135.855 C672.936,136.304 670.672,135.512 669.235,133.793 C667.902,132.198 665.45,132.198 664.118,133.793 C662.681,135.513 660.416,136.305 658.221,135.855 C656.026,135.406 654.255,133.787 653.609,131.642 C652.964,129.496 653.549,127.169 655.132,125.583 C658.206,122.505 653.721,117.829 650.517,120.772 C648.034,123.052 644.173,122.888 641.892,120.406 C639.612,117.924 639.774,114.063 642.256,111.781 C643.611,110.535 643.7,108.426 642.454,107.07 C641.207,105.715 639.098,105.626 637.743,106.872 C632.55,111.646 632.21,119.725 636.982,124.918 C641.755,130.112 649.833,130.454 655.028,125.683 L650.413,120.872 C647.097,124.193 645.872,129.067 647.223,133.562 C648.575,138.057 652.285,141.447 656.883,142.388 C661.482,143.329 666.226,141.67 669.235,138.068 L664.118,138.068 C667.127,141.67 671.871,143.329 676.469,142.388 C681.067,141.446 684.777,138.057 686.129,133.562 C687.481,129.067 686.256,124.193 682.939,120.872 L678.224,125.587 C681.546,128.903 686.419,130.128 690.914,128.777 C695.409,127.425 698.799,123.715 699.74,119.117 C700.682,114.518 699.023,109.774 695.421,106.765 L695.421,111.882 C699.023,108.873 700.682,104.129 699.74,99.531 C698.799,94.933 695.409,91.223 690.914,89.871 C686.42,88.519 681.546,89.744 678.224,93.061 L682.939,97.776 C686.256,94.454 687.481,89.58 686.129,85.086 C684.777,80.591 681.067,77.201 676.469,76.26 C671.871,75.318 667.127,76.977 664.118,80.579 L669.235,80.579 C666.226,76.977 661.482,75.318 656.883,76.26 C652.285,77.201 648.575,80.591 647.223,85.086 C645.872,89.58 647.097,94.454 650.413,97.776 L655.128,93.061 C651.807,89.744 646.933,88.519 642.438,89.871 C637.943,91.223 634.554,94.933 633.612,99.531 C632.671,104.129 634.33,108.873 637.932,111.882 C639.345,113.063 641.447,112.875 642.628,111.462 C643.809,110.048 643.62,107.946 642.207,106.765 Z" />
            <path d="M650.415,97.778 L678.222,125.585 C679.524,126.887 681.635,126.887 682.938,125.585 C684.24,124.283 684.24,122.172 682.938,120.87 L655.13,93.062 C653.828,91.76 651.717,91.76 650.415,93.062 C649.113,94.365 649.113,96.476 650.415,97.778 Z" />
        </g>
    </g>
</svg>