<?xml version="1.0" encoding="UTF-8"?>
<svg height="600" width="800" xmlns="http://www.w3.org/2000/svg" xmlns:xlink="http://www.w3.org/1999/xlink">
    <g id="Notes" font-family="LucidaGrande, 'Lucida Grande', sans-serif" font-size="13">
        <rect fill="white" height="600.0" width="800.0" x="0.0" y="0.0" />
        <g font-size="13">
            <text x="18.0" y="176.0">Small</text>
            <text x="18.0" y="376.0">Medium</text>
            <text x="18.0" y="576.0">Large</text>
        </g>
        <g font-size="9">
            <text x="250.0" y="30.0">Ultralight</text>
            <text x="450.0" y="30.0">Regular</text>
            <text x="650.0" y="30.0">Black</text>
            <text id="template-version" fill="#505050" text-anchor="end" x="785.0" y="575.0">Template v.3.0</text>
            <a href="https://github.com/swhitty/SwiftDraw">
                <text fill="#505050" text-anchor="end" x="785.0" y="590.0">https://github.com/swhitty/SwiftDraw</text>
            </a>
        </g>
    </g>
    <g id="Guides" stroke="rgb(39, 170, 225)" stroke-width="0.5">
        <path id="Capline-S" d="M18,76 l800,0" />
        <path id="H-reference" d="M85,145.755 L87.685,145.755 L113.369,79.287 L114.052,79.287 L114.052,76 L112.148,76 L85,145.755 Z M95.693,121.536 L130.996,121.536 L130.263,119.313 L96.474,119.313 L95.693,121.536 Z M139.15,145.755 L141.787,145.755 L114.638,76 L113.466,76 L113.466,79.287 L139.15,145.755 Z" stroke="none" transform="translate(0,200)" />
        <path id="Baseline-S" d="M18,146 l800,0" />
        <path id="left-margin-Ultralight-M" d="M230,256 l0,110" />
        <path id="right-margin-Ultralight-M" d="M300,256 l0,110" />
        <path id="left-margin-Regular-M" d="M430,256 l0,110" />
        <path id="right-margin-Regular-M" d="M500,256 l0,110" />
        <path id="left-margin-Black-M" d="M630,256 l0,110" />
        <path id="right-margin-Black-M" d="M700,256 l0,110" />
        <path id="Capline-M" d="M18,276 l800,0" />
        <path id="Baseline-M" d="M18,346 l800,0" />
        <path id="Capline-L" d="M18,476 l800,0" />
        <path id="Baseline-L" d="M18,546 l800,0" />
    </g>
    <g id="Symbols">
        <g id="Ultralight-M" transform="translate(0,200)">
            <path d="M267.503,128.331 C265.304,135.6 258.276,140.301 250.719,139.559 C243.162,138.817 237.183,132.838 236.441,125.281 C235.699,117.724 240.4,110.696 247.669,108.497 C249.351,107.989 250.302,106.213 249.793,104.531 C249.284,102.849 247.508,101.897 245.826,102.406 C235.651,105.484 229.068,115.323 230.107,125.903 C231.146,136.483 239.517,144.854 250.097,145.893 C260.677,146.932 270.516,140.349 273.594,130.174 C274.103,128.492 273.151,126.716 271.469,126.207 C269.787,125.698 268.011,126.649 267.503,128.331 Z" />
            <path d="M274.545,95.091 L277.727,95.091 L274.545,91.91 L274.545,104.637 C274.545,106.395 275.969,107.819 277.727,107.819 C279.484,107.819 280.909,106.395 280.909,104.637 L280.909,91.91 C280.909,90.152 279.484,88.728 277.727,88.728 L274.545,88.728 C272.787,88.728 271.363,90.152 271.363,91.91 C271.363,93.667 272.787,95.091 274.545,95.091 Z" />
            <path d="M247.925,122.564 L250.68,120.973 L249.089,118.218 L246.334,119.809 L252.698,130.831 C253.576,132.353 255.522,132.874 257.044,131.995 C258.566,131.117 259.087,129.171 258.209,127.649 L251.845,116.627 C250.966,115.105 249.02,114.583 247.498,115.462 L244.743,117.053 C243.221,117.932 242.7,119.878 243.578,121.4 C244.457,122.921 246.403,123.443 247.925,122.564 Z" />
            <path d="M261.817,98.273 C261.817,89.487 268.94,82.364 277.727,82.364 C286.513,82.364 293.636,89.487 293.636,98.273 C293.636,107.06 286.513,114.183 277.727,114.183 C268.94,114.183 261.817,107.06 261.817,98.273 Z M255.453,98.273 C255.453,110.575 265.425,120.547 277.727,120.547 C290.028,120.547 300,110.575 300,98.273 C300,85.972 290.028,76 277.727,76 C265.425,76 255.453,85.972 255.453,98.273 Z" />
        </g>
        <g id="Regular-M" transform="translate(0,200)">
            <path d="M467.503,128.331 C465.304,135.6 458.276,140.301 450.719,139.559 C443.162,138.817 437.183,132.838 436.441,125.281 C435.699,117.724 440.4,110.696 447.669,108.497 C449.351,107.989 450.302,106.213 449.793,104.531 C449.284,102.849 447.508,101.897 445.826,102.406 C435.651,105.484 429.068,115.323 430.107,125.903 C431.146,136.483 439.517,144.854 450.097,145.893 C460.677,146.932 470.516,140.349 473.594,130.174 C474.103,128.492 473.151,126.716 471.469,126.207 C469.787,125.698 468.011,126.649 467.503,128.331 Z" />
            <path d="M474.545,95.091 L477.727,95.091 L474.545,91.91 L474.545,104.637 C474.545,106.395 475.969,107.819 477.727,107.819 C479.484,107.819 480.909,106.395 480.909,104.637 L480.909,91.91 C480.909,90.152 479.484,88.728 477.727,88.728 L474.545,88.728 C472.787,88.728 471.363,90.152 471.363,91.91 C471.363,93.667 472.787,95.091 474.545,95.091 Z" />
            <path d="M447.925,122.564 L450.68,120.973 L449.089,118.218 L446.334,119.809 L452.698,130.831 C453.576,132.353 455.522,132.874 457.044,131.995 C458.566,131.117 459.087,129.171 458.209,127.649 L451.845,116.627 C450.966,115.105 449.02,114.583 447.498,115.462 L444.743,117.053 C443.221,117.932 442.7,119.878 443.578,121.4 C444.457,122.921 446.403,123.443 447.925,122.564 Z" />
            <path d="M461.817,98.273 C461.817,89.487 468.94,82.364 477.727,82.364 C486.513,82.364 493.636,89.487 493.636,98.273 C493.636,107.06 486.513,114.183 477.727,114.183 C468.94,114.183 461.817,107.06 461.817,98.273 Z M455.453,98.273 C455.453,110.575 465.425,120.547 477.727,120.547 C490.028,120.547 500,110.575 500,98.273 C500,85.972 490.028,76 477.727,76 C465.425,76 455.453,85.972 455.453,98.273 Z" />
        </g>
        <g id="Black-M" transform="translate(0,200)">
            <path d="M667.503,128.331 C665.304,135.6 658.276,140.301 650.719,139.559 C643.162,138.817 637.183,132.838 636.441,125.281 C635.699,117.724 640.4,110.696 647.669,108.497 C649.351,107.989 650.302,106.213 649.793,104.531 C649.284,102.849 647.508,101.897 645.826,102.406 C635.651,105.484 629.068,115.323 630.107,125.903 C631.146,136.483 639.517,144.854 650.097,145.893 C660.677,146.932 670.516,140.349 673.594,130.174 C674.103,128.492 673.151,126.716 671.469,126.207 C669.787,125.698 668.011,126.649 667.503,128.331 Z" />
            <path d="M674.545,95.091 L677.727,95.091 L674.545,91.91 L674.545,104.637 C674.545,106.395 675.969,107.819 677.727,107.819 C679.484,107.819 680.909,106.395 680.909,104.637 L680.909,91.91 C680.909,90.152 679.484,88.728 677.727,88.728 L674.545,88.728 C672.787,88.728 671.363,90.152 671.363,91.91 C671.363,93.667 672.787,95.091 674.545,95.091 Z" />
            <path d="M647.925,122.564 L650.68,120.973 L649.089,118.218 L646.334,119.809 L652.698,130.831 C653.576,132.353 655.522,132.874 657.044,131.995 C658.566,131.117 659.087,129.171 658.209,127.649 L651.845,116.627 C650.966,115.105 649.02,114.583 647.498,115.462 L644.743,117.053 C643.221,117.932 642.7,119.878 643.578,121.4 C644.457,122.921 646.403,123.443 647.925,122.564 Z" />
            <path d="M661.817,98.273 C661.817,89.487 668.94,82.364 677.727,82.364 C686.513,82.364 693.636,89.487 693.636,98.273 C693.636,107.06 686.513,114.183 677.727,114.183 C668.94,114.183 661.817,107.06 661.817,98.273 Z M655.453,98.273 C655.453,110.575 665.425,120.547 677.727,120.547 C690.028,120.547 700,110.575 700,98.273 C700,85.972 690.028,76 677.727,76 C665.425,76 655.453,85.972 655.453,98.273 Z" />
        </g>
    </g>
</svg>