<?xml version="1.0" encoding="UTF-8"?>
<svg height="600" width="800" xmlns="http://www.w3.org/2000/svg" xmlns:xlink="http://www.w3.org/1999/xlink">
    <g id="Notes" font-family="LucidaGrande, 'Lucida Grande', sans-serif" font-size="13">
        <rect fill="white" height="600.0" width="800.0" x="0.0" y="0.0" />
        <g font-size="13">
            <text x="18.0" y="176.0">Small</text>
            <text x="18.0" y="376.0">Medium</text>
            <text x="18.0" y="576.0">Large</text>
        </g>
        <g font-size="9">
            <text x="250.0" y="30.0">Ultralight</text>
            <text x="450.0" y="30.0">Regular</text>
            <text x="650.0" y="30.0">Black</text>
            <text id="template-version" fill="#505050" text-anchor="end" x="785.0" y="575.0">Template v.3.0</text>
            <a href="https://github.com/swhitty/SwiftDraw">
                <text fill="#505050" text-anchor="end" x="785.0" y="590.0">https://github.com/swhitty/SwiftDraw</text>
            </a>
        </g>
    </g>
    <g id="Guides" stroke="rgb(39, 170, 225)" stroke-width="0.5">
        <path id="Capline-S" d="M18,76 l800,0" />
        <path id="H-reference" d="M85,145.755 L87.685,145.755 L113.369,79.287 L114.052,79.287 L114.052,76 L112.148,76 L85,145.755 Z M95.693,121.536 L130.996,121.536 L130.263,119.313 L96.474,119.313 L95.693,121.536 Z M139.15,145.755 L141.787,145.755 L114.638,76 L113.466,76 L113.466,79.287 L139.15,145.755 Z" stroke="none" transform="translate(0,200)" />
        <path id="Baseline-S" d="M18,146 l800,0" />
        <path id="left-margin-Ultralight-M" d="M230,256 l0,110" />
        <path id="right-margin-Ultralight-M" d="M300,256 l0,110" />
        <path id="left-margin-Regular-M" d="M430,256 l0,110" />
        <path id="right-margin-Regular-M" d="M500,256 l0,110" />
        <path id="left-margin-Black-M" d="M630,256 l0,110" />
        <path id="right-margin-Black-M" d="M700,256 l0,110" />
        <path id="Capline-M" d="M18,276 l800,0" />
        <path id="Baseline-M" d="M18,346 l800,0" />
        <path id="Capline-L" d="M18,476 l800,0" />
        <path id="Baseline-L" d="M18,546 l800,0" />
    </g>
    <g id="Symbols">
        <g id="Ultralight-M" transform="translate(0,200)">
            <path d="M258.744,136.87 L240.145,136.87 C239.248,136.87 238.388,136.513 237.754,135.879 C237.12,135.245 236.763,134.385 236.763,133.488 L236.763,86.145 C236.763,85.248 237.12,84.388 237.754,83.754 C238.388,83.12 239.248,82.763 240.145,82.763 L287.488,82.763 C288.385,82.763 289.245,83.12 289.879,83.754 C290.513,84.388 290.87,85.248 290.87,86.145 L290.87,104.744 C290.87,106.612 292.384,108.126 294.251,108.126 C296.119,108.126 297.633,106.612 297.633,104.744 L297.633,86.145 C297.633,83.454 296.564,80.874 294.661,78.971 C292.759,77.069 290.179,76 287.488,76 L240.145,76 C237.454,76 234.874,77.069 232.971,78.971 C231.069,80.874 230,83.454 230,86.145 L230,133.488 C230,136.179 231.069,138.759 232.971,140.661 C234.874,142.564 237.454,143.633 240.145,143.633 L258.744,143.633 C260.612,143.633 262.126,142.119 262.126,140.251 C262.126,138.384 260.612,136.87 258.744,136.87 Z" />
            <path d="M272.85,138.657 L276.232,137.304 C277.966,136.61 278.809,134.642 278.116,132.908 C277.422,131.174 275.454,130.331 273.72,131.024 L270.338,132.377 C268.604,133.071 267.761,135.039 268.454,136.773 C269.148,138.507 271.116,139.35 272.85,138.657 Z" />
            <path d="M270.58,79.382 L270.58,104.744 C270.58,106.612 272.094,108.126 273.961,108.126 C275.829,108.126 277.343,106.612 277.343,104.744 L277.343,79.382 C277.343,77.514 275.829,76 273.961,76 C272.094,76 270.58,77.514 270.58,79.382 Z" />
            <path d="M275.707,123.178 L272.664,122.164 C270.892,121.573 268.977,122.531 268.386,124.303 C267.796,126.074 268.753,127.989 270.525,128.58 L273.568,129.595 C275.34,130.185 277.255,129.228 277.846,127.456 C278.436,125.684 277.479,123.769 275.707,123.178 Z" />
            <path d="M282.58,143.688 L283.595,140.644 C284.185,138.872 283.228,136.957 281.456,136.367 C279.684,135.776 277.769,136.734 277.178,138.506 L276.164,141.549 C275.573,143.321 276.531,145.236 278.303,145.826 C280.074,146.417 281.99,145.46 282.58,143.688 Z" />
            <path d="M283.188,119.72 L281.835,116.338 C281.142,114.604 279.174,113.761 277.44,114.454 C275.706,115.148 274.862,117.116 275.556,118.85 L276.909,122.232 C277.602,123.966 279.57,124.809 281.304,124.116 C283.038,123.422 283.882,121.454 283.188,119.72 Z" />
            <path d="M291.034,121.707 L292.049,118.664 C292.639,116.892 291.682,114.977 289.91,114.386 C288.138,113.796 286.223,114.753 285.632,116.525 L284.618,119.568 C284.027,121.34 284.985,123.255 286.757,123.846 C288.529,124.436 290.444,123.479 291.034,121.707 Z" />
            <path d="M292.657,141.362 L291.304,137.981 C290.61,136.247 288.642,135.403 286.908,136.097 C285.174,136.791 284.331,138.759 285.024,140.493 L286.377,143.874 C287.071,145.608 289.039,146.452 290.773,145.758 C292.507,145.065 293.35,143.096 292.657,141.362 Z" />
            <path d="M294.493,129.188 L297.874,127.835 C299.608,127.142 300.452,125.174 299.758,123.44 C299.065,121.706 297.096,120.862 295.362,121.556 L291.981,122.909 C290.247,123.602 289.403,125.57 290.097,127.304 C290.791,129.038 292.759,129.882 294.493,129.188 Z" />
            <path d="M297.688,131.632 L294.644,130.618 C292.872,130.027 290.957,130.985 290.367,132.757 C289.776,134.529 290.734,136.444 292.506,137.034 L295.549,138.049 C297.321,138.639 299.236,137.682 299.826,135.91 C300.417,134.138 299.46,132.223 297.688,131.632 Z" />
            <path d="M250.29,79.382 L250.29,140.251 C250.29,142.119 251.804,143.633 253.671,143.633 C255.539,143.633 257.053,142.119 257.053,140.251 L257.053,79.382 C257.053,77.514 255.539,76 253.671,76 C251.804,76 250.29,77.514 250.29,79.382 Z" />
            <path d="M277.343,130.106 C277.343,126.371 280.371,123.343 284.106,123.343 C287.842,123.343 290.87,126.371 290.87,130.106 C290.87,133.842 287.842,136.87 284.106,136.87 C280.371,136.87 277.343,133.842 277.343,130.106 Z M270.58,130.106 C270.58,137.577 276.636,143.633 284.106,143.633 C291.577,143.633 297.633,137.577 297.633,130.106 C297.633,122.636 291.577,116.58 284.106,116.58 C276.636,116.58 270.58,122.636 270.58,130.106 Z" />
        </g>
        <g id="Regular-M" transform="translate(0,200)">
            <path d="M458.744,136.87 L440.145,136.87 C439.248,136.87 438.388,136.513 437.754,135.879 C437.12,135.245 436.763,134.385 436.763,133.488 L436.763,86.145 C436.763,85.248 437.12,84.388 437.754,83.754 C438.388,83.12 439.248,82.763 440.145,82.763 L487.488,82.763 C488.385,82.763 489.245,83.12 489.879,83.754 C490.513,84.388 490.87,85.248 490.87,86.145 L490.87,104.744 C490.87,106.612 492.384,108.126 494.251,108.126 C496.119,108.126 497.633,106.612 497.633,104.744 L497.633,86.145 C497.633,83.454 496.564,80.874 494.661,78.971 C492.759,77.069 490.179,76 487.488,76 L440.145,76 C437.454,76 434.874,77.069 432.971,78.971 C431.069,80.874 430,83.454 430,86.145 L430,133.488 C430,136.179 431.069,138.759 432.971,140.661 C434.874,142.564 437.454,143.633 440.145,143.633 L458.744,143.633 C460.612,143.633 462.126,142.119 462.126,140.251 C462.126,138.384 460.612,136.87 458.744,136.87 Z" />
            <path d="M472.85,138.657 L476.232,137.304 C477.966,136.61 478.809,134.642 478.116,132.908 C477.422,131.174 475.454,130.331 473.72,131.024 L470.338,132.377 C468.604,133.071 467.761,135.039 468.454,136.773 C469.148,138.507 471.116,139.35 472.85,138.657 Z" />
            <path d="M470.58,79.382 L470.58,104.744 C470.58,106.612 472.094,108.126 473.961,108.126 C475.829,108.126 477.343,106.612 477.343,104.744 L477.343,79.382 C477.343,77.514 475.829,76 473.961,76 C472.094,76 470.58,77.514 470.58,79.382 Z" />
            <path d="M475.707,123.178 L472.664,122.164 C470.892,121.573 468.977,122.531 468.386,124.303 C467.796,126.074 468.753,127.989 470.525,128.58 L473.568,129.595 C475.34,130.185 477.255,129.228 477.846,127.456 C478.436,125.684 477.479,123.769 475.707,123.178 Z" />
            <path d="M482.58,143.688 L483.595,140.644 C484.185,138.872 483.228,136.957 481.456,136.367 C479.684,135.776 477.769,136.734 477.178,138.506 L476.164,141.549 C475.573,143.321 476.531,145.236 478.303,145.826 C480.074,146.417 481.99,145.46 482.58,143.688 Z" />
            <path d="M483.188,119.72 L481.835,116.338 C481.142,114.604 479.174,113.761 477.44,114.454 C475.706,115.148 474.862,117.116 475.556,118.85 L476.909,122.232 C477.602,123.966 479.57,124.809 481.304,124.116 C483.038,123.422 483.882,121.454 483.188,119.72 Z" />
            <path d="M491.034,121.707 L492.049,118.664 C492.639,116.892 491.682,114.977 489.91,114.386 C488.138,113.796 486.223,114.753 485.632,116.525 L484.618,119.568 C484.027,121.34 484.985,123.255 486.757,123.846 C488.529,124.436 490.444,123.479 491.034,121.707 Z" />
            <path d="M492.657,141.362 L491.304,137.981 C490.61,136.247 488.642,135.403 486.908,136.097 C485.174,136.791 484.331,138.759 485.024,140.493 L486.377,143.874 C487.071,145.608 489.039,146.452 490.773,145.758 C492.507,145.065 493.35,143.096 492.657,141.362 Z" />
            <path d="M494.493,129.188 L497.874,127.835 C499.608,127.142 500.452,125.174 499.758,123.44 C499.065,121.706 497.096,120.862 495.362,121.556 L491.981,122.909 C490.247,123.602 489.403,125.57 490.097,127.304 C490.791,129.038 492.759,129.882 494.493,129.188 Z" />
            <path d="M497.688,131.632 L494.644,130.618 C492.872,130.027 490.957,130.985 490.367,132.757 C489.776,134.529 490.734,136.444 492.506,137.034 L495.549,138.049 C497.321,138.639 499.236,137.682 499.826,135.91 C500.417,134.138 499.46,132.223 497.688,131.632 Z" />
            <path d="M450.29,79.382 L450.29,140.251 C450.29,142.119 451.804,143.633 453.672,143.633 C455.539,143.633 457.053,142.119 457.053,140.251 L457.053,79.382 C457.053,77.514 455.539,76 453.672,76 C451.804,76 450.29,77.514 450.29,79.382 Z" />
            <path d="M477.343,130.106 C477.343,126.371 480.371,123.343 484.106,123.343 C487.842,123.343 490.87,126.371 490.87,130.106 C490.87,133.842 487.842,136.87 484.106,136.87 C480.371,136.87 477.343,133.842 477.343,130.106 Z M470.58,130.106 C470.58,137.577 476.636,143.633 484.106,143.633 C491.577,143.633 497.633,137.577 497.633,130.106 C497.633,122.636 491.577,116.58 484.106,116.58 C476.636,116.58 470.58,122.636 470.58,130.106 Z" />
        </g>
        <g id="Black-M" transform="translate(0,200)">
            <path d="M658.744,136.87 L640.145,136.87 C639.248,136.87 638.388,136.513 637.754,135.879 C637.12,135.245 636.763,134.385 636.763,133.488 L636.763,86.145 C636.763,85.248 637.12,84.388 637.754,83.754 C638.388,83.12 639.248,82.763 640.145,82.763 L687.488,82.763 C688.385,82.763 689.245,83.12 689.879,83.754 C690.513,84.388 690.87,85.248 690.87,86.145 L690.87,104.744 C690.87,106.612 692.384,108.126 694.251,108.126 C696.119,108.126 697.633,106.612 697.633,104.744 L697.633,86.145 C697.633,83.454 696.564,80.874 694.661,78.971 C692.759,77.069 690.179,76 687.488,76 L640.145,76 C637.454,76 634.874,77.069 632.971,78.971 C631.069,80.874 630,83.454 630,86.145 L630,133.488 C630,136.179 631.069,138.759 632.971,140.661 C634.874,142.564 637.454,143.633 640.145,143.633 L658.744,143.633 C660.612,143.633 662.126,142.119 662.126,140.251 C662.126,138.384 660.612,136.87 658.744,136.87 Z" />
            <path d="M672.85,138.657 L676.232,137.304 C677.966,136.61 678.809,134.642 678.116,132.908 C677.422,131.174 675.454,130.331 673.72,131.024 L670.338,132.377 C668.604,133.071 667.761,135.039 668.454,136.773 C669.148,138.507 671.116,139.35 672.85,138.657 Z" />
            <path d="M670.58,79.382 L670.58,104.744 C670.58,106.612 672.094,108.126 673.961,108.126 C675.829,108.126 677.343,106.612 677.343,104.744 L677.343,79.382 C677.343,77.514 675.829,76 673.961,76 C672.094,76 670.58,77.514 670.58,79.382 Z" />
            <path d="M675.707,123.178 L672.664,122.164 C670.892,121.573 668.977,122.531 668.386,124.303 C667.795,126.074 668.753,127.989 670.525,128.58 L673.568,129.595 C675.34,130.185 677.255,129.228 677.846,127.456 C678.436,125.684 677.479,123.769 675.707,123.178 Z" />
            <path d="M682.58,143.688 L683.595,140.644 C684.185,138.872 683.228,136.957 681.456,136.367 C679.684,135.776 677.769,136.734 677.178,138.506 L676.164,141.549 C675.573,143.321 676.531,145.236 678.303,145.826 C680.074,146.417 681.99,145.46 682.58,143.688 Z" />
            <path d="M683.188,119.72 L681.835,116.338 C681.142,114.604 679.174,113.761 677.44,114.454 C675.706,115.148 674.862,117.116 675.556,118.85 L676.909,122.232 C677.602,123.966 679.57,124.809 681.304,124.116 C683.038,123.422 683.882,121.454 683.188,119.72 Z" />
            <path d="M691.034,121.707 L692.049,118.664 C692.639,116.892 691.682,114.977 689.91,114.386 C688.138,113.796 686.223,114.753 685.632,116.525 L684.618,119.568 C684.027,121.34 684.985,123.255 686.757,123.846 C688.529,124.436 690.444,123.479 691.034,121.707 Z" />
            <path d="M692.657,141.362 L691.304,137.981 C690.61,136.247 688.642,135.403 686.908,136.097 C685.174,136.791 684.331,138.759 685.024,140.493 L686.377,143.874 C687.071,145.608 689.039,146.452 690.773,145.758 C692.507,145.065 693.35,143.096 692.657,141.362 Z" />
            <path d="M694.493,129.188 L697.874,127.835 C699.608,127.142 700.452,125.174 699.758,123.44 C699.065,121.706 697.096,120.862 695.362,121.556 L691.981,122.909 C690.247,123.602 689.403,125.57 690.097,127.304 C690.791,129.038 692.759,129.882 694.493,129.188 Z" />
            <path d="M697.688,131.632 L694.644,130.618 C692.872,130.027 690.957,130.985 690.367,132.757 C689.776,134.529 690.734,136.444 692.505,137.034 L695.549,138.049 C697.321,138.639 699.236,137.682 699.826,135.91 C700.417,134.138 699.46,132.223 697.688,131.632 Z" />
            <path d="M650.29,79.382 L650.29,140.251 C650.29,142.119 651.804,143.633 653.672,143.633 C655.539,143.633 657.053,142.119 657.053,140.251 L657.053,79.382 C657.053,77.514 655.539,76 653.672,76 C651.804,76 650.29,77.514 650.29,79.382 Z" />
            <path d="M677.343,130.106 C677.343,126.371 680.371,123.343 684.106,123.343 C687.842,123.343 690.87,126.371 690.87,130.106 C690.87,133.842 687.842,136.87 684.106,136.87 C680.371,136.87 677.343,133.842 677.343,130.106 Z M670.58,130.106 C670.58,137.577 676.636,143.633 684.106,143.633 C691.577,143.633 697.633,137.577 697.633,130.106 C697.633,122.636 691.577,116.58 684.106,116.58 C676.636,116.58 670.58,122.636 670.58,130.106 Z" />
        </g>
    </g>
</svg>