<?xml version="1.0" encoding="UTF-8"?>
<svg height="600" width="800" xmlns="http://www.w3.org/2000/svg" xmlns:xlink="http://www.w3.org/1999/xlink">
    <g id="Notes" font-family="LucidaGrande, 'Lucida Grande', sans-serif" font-size="13">
        <rect fill="white" height="600.0" width="800.0" x="0.0" y="0.0" />
        <g font-size="13">
            <text x="18.0" y="176.0">Small</text>
            <text x="18.0" y="376.0">Medium</text>
            <text x="18.0" y="576.0">Large</text>
        </g>
        <g font-size="9">
            <text x="250.0" y="30.0">Ultralight</text>
            <text x="450.0" y="30.0">Regular</text>
            <text x="650.0" y="30.0">Black</text>
            <text id="template-version" fill="#505050" text-anchor="end" x="785.0" y="575.0">Template v.3.0</text>
            <a href="https://github.com/swhitty/SwiftDraw">
                <text fill="#505050" text-anchor="end" x="785.0" y="590.0">https://github.com/swhitty/SwiftDraw</text>
            </a>
        </g>
    </g>
    <g id="Guides" stroke="rgb(39, 170, 225)" stroke-width="0.5">
        <path id="Capline-S" d="M18,76 l800,0" />
        <path id="H-reference" d="M85,145.755 L87.685,145.755 L113.369,79.287 L114.052,79.287 L114.052,76 L112.148,76 L85,145.755 Z M95.693,121.536 L130.996,121.536 L130.263,119.313 L96.474,119.313 L95.693,121.536 Z M139.15,145.755 L141.787,145.755 L114.638,76 L113.466,76 L113.466,79.287 L139.15,145.755 Z" stroke="none" transform="translate(0,200)" />
        <path id="Baseline-S" d="M18,146 l800,0" />
        <path id="left-margin-Ultralight-M" d="M222.222,256 l0,110" />
        <path id="right-margin-Ultralight-M" d="M307.778,256 l0,110" />
        <path id="left-margin-Regular-M" d="M422.222,256 l0,110" />
        <path id="right-margin-Regular-M" d="M507.778,256 l0,110" />
        <path id="left-margin-Black-M" d="M622.222,256 l0,110" />
        <path id="right-margin-Black-M" d="M707.778,256 l0,110" />
        <path id="Capline-M" d="M18,276 l800,0" />
        <path id="Baseline-M" d="M18,346 l800,0" />
        <path id="Capline-L" d="M18,476 l800,0" />
        <path id="Baseline-L" d="M18,546 l800,0" />
    </g>
    <g id="Symbols">
        <g id="Ultralight-M" transform="translate(0,200)">
            <path d="M230,138.222 C230,138.222 230,138.222 230,138.222 C230,138.222 230,138.222 230,138.222 L230,134.333 C230,133.302 230.41,132.313 231.139,131.583 C231.868,130.854 232.857,130.444 233.889,130.444 L296.111,130.444 C297.143,130.444 298.132,130.854 298.861,131.583 C299.59,132.313 300,133.302 300,134.333 L300,138.222 C300,138.222 300,138.222 300,138.222 C300,138.222 300,138.222 300,138.222 L230,138.222 Z M230,146 L300,146 C302.063,146 304.041,145.181 305.5,143.722 C306.958,142.263 307.778,140.285 307.778,138.222 L307.778,134.333 C307.778,131.239 306.549,128.272 304.361,126.084 C302.173,123.896 299.205,122.667 296.111,122.667 L233.889,122.667 C230.795,122.667 227.827,123.896 225.639,126.084 C223.451,128.272 222.222,131.239 222.222,134.333 L222.222,138.222 C222.222,140.285 223.042,142.263 224.5,143.722 C225.959,145.181 227.937,146 230,146 Z" />
            <path d="M300,126.556 C300,107.226 284.33,91.556 265,91.556 C245.67,91.556 230,107.226 230,126.556 C230,128.703 231.741,130.444 233.889,130.444 C236.037,130.444 237.778,128.703 237.778,126.556 C237.778,111.521 249.966,99.333 265,99.333 C280.034,99.333 292.222,111.521 292.222,126.556 C292.222,128.703 293.963,130.444 296.111,130.444 C298.259,130.444 300,128.703 300,126.556 Z" />
            <path d="M261.111,79.889 L261.111,95.444 C261.111,97.592 262.852,99.333 265,99.333 C267.148,99.333 268.889,97.592 268.889,95.444 L268.889,79.889 C268.889,77.741 267.148,76 265,76 C262.852,76 261.111,77.741 261.111,79.889 Z" />
            <path d="M257.222,83.778 L272.778,83.778 C274.926,83.778 276.667,82.037 276.667,79.889 C276.667,77.741 274.926,76 272.778,76 L257.222,76 C255.074,76 253.333,77.741 253.333,79.889 C253.333,82.037 255.074,83.778 257.222,83.778 Z" />
        </g>
        <g id="Regular-M" transform="translate(0,200)">
            <path d="M430,138.222 C430,138.222 430,138.222 430,138.222 C430,138.222 430,138.222 430,138.222 L430,134.333 C430,133.302 430.41,132.313 431.139,131.583 C431.868,130.854 432.858,130.444 433.889,130.444 L496.111,130.444 C497.143,130.444 498.132,130.854 498.861,131.583 C499.59,132.313 500,133.302 500,134.333 L500,138.222 C500,138.222 500,138.222 500,138.222 C500,138.222 500,138.222 500,138.222 L430,138.222 Z M430,146 L500,146 C502.063,146 504.041,145.181 505.5,143.722 C506.958,142.263 507.778,140.285 507.778,138.222 L507.778,134.333 C507.778,131.239 506.549,128.272 504.361,126.084 C502.173,123.896 499.205,122.667 496.111,122.667 L433.889,122.667 C430.795,122.667 427.827,123.896 425.639,126.084 C423.451,128.272 422.222,131.239 422.222,134.333 L422.222,138.222 C422.222,140.285 423.042,142.263 424.5,143.722 C425.959,145.181 427.937,146 430,146 Z" />
            <path d="M500,126.556 C500,107.226 484.33,91.556 465,91.556 C445.67,91.556 430,107.226 430,126.556 C430,128.703 431.741,130.444 433.889,130.444 C436.037,130.444 437.778,128.703 437.778,126.556 C437.778,111.521 449.966,99.333 465,99.333 C480.034,99.333 492.222,111.521 492.222,126.556 C492.222,128.703 493.963,130.444 496.111,130.444 C498.259,130.444 500,128.703 500,126.556 Z" />
            <path d="M461.111,79.889 L461.111,95.444 C461.111,97.592 462.852,99.333 465,99.333 C467.148,99.333 468.889,97.592 468.889,95.444 L468.889,79.889 C468.889,77.741 467.148,76 465,76 C462.852,76 461.111,77.741 461.111,79.889 Z" />
            <path d="M457.222,83.778 L472.778,83.778 C474.926,83.778 476.667,82.037 476.667,79.889 C476.667,77.741 474.926,76 472.778,76 L457.222,76 C455.074,76 453.333,77.741 453.333,79.889 C453.333,82.037 455.074,83.778 457.222,83.778 Z" />
        </g>
        <g id="Black-M" transform="translate(0,200)">
            <path d="M630,138.222 C630,138.222 630,138.222 630,138.222 C630,138.222 630,138.222 630,138.222 L630,134.333 C630,133.302 630.41,132.313 631.139,131.583 C631.868,130.854 632.857,130.444 633.889,130.444 L696.111,130.444 C697.143,130.444 698.132,130.854 698.861,131.583 C699.59,132.313 700,133.302 700,134.333 L700,138.222 C700,138.222 700,138.222 700,138.222 C700,138.222 700,138.222 700,138.222 L630,138.222 Z M630,146 L700,146 C702.063,146 704.041,145.181 705.5,143.722 C706.958,142.263 707.778,140.285 707.778,138.222 L707.778,134.333 C707.778,131.239 706.549,128.272 704.361,126.084 C702.173,123.896 699.205,122.667 696.111,122.667 L633.889,122.667 C630.795,122.667 627.827,123.896 625.639,126.084 C623.451,128.272 622.222,131.239 622.222,134.333 L622.222,138.222 C622.222,140.285 623.042,142.263 624.5,143.722 C625.959,145.181 627.937,146 630,146 Z" />
            <path d="M700,126.556 C700,107.226 684.33,91.556 665,91.556 C645.67,91.556 630,107.226 630,126.556 C630,128.703 631.741,130.444 633.889,130.444 C636.037,130.444 637.778,128.703 637.778,126.556 C637.778,111.521 649.966,99.333 665,99.333 C680.034,99.333 692.222,111.521 692.222,126.556 C692.222,128.703 693.963,130.444 696.111,130.444 C698.259,130.444 700,128.703 700,126.556 Z" />
            <path d="M661.111,79.889 L661.111,95.444 C661.111,97.592 662.852,99.333 665,99.333 C667.148,99.333 668.889,97.592 668.889,95.444 L668.889,79.889 C668.889,77.741 667.148,76 665,76 C662.852,76 661.111,77.741 661.111,79.889 Z" />
            <path d="M657.222,83.778 L672.778,83.778 C674.926,83.778 676.667,82.037 676.667,79.889 C676.667,77.741 674.926,76 672.778,76 L657.222,76 C655.074,76 653.333,77.741 653.333,79.889 C653.333,82.037 655.074,83.778 657.222,83.778 Z" />
        </g>
    </g>
</svg>