<?xml version="1.0" encoding="UTF-8"?>
<svg height="600" width="800" xmlns="http://www.w3.org/2000/svg" xmlns:xlink="http://www.w3.org/1999/xlink">
    <g id="Notes" font-family="LucidaGrande, 'Lucida Grande', sans-serif" font-size="13">
        <rect fill="white" height="600.0" width="800.0" x="0.0" y="0.0" />
        <g font-size="13">
            <text x="18.0" y="176.0">Small</text>
            <text x="18.0" y="376.0">Medium</text>
            <text x="18.0" y="576.0">Large</text>
        </g>
        <g font-size="9">
            <text x="250.0" y="30.0">Ultralight</text>
            <text x="450.0" y="30.0">Regular</text>
            <text x="650.0" y="30.0">Black</text>
            <text id="template-version" fill="#505050" text-anchor="end" x="785.0" y="575.0">Template v.3.0</text>
            <a href="https://github.com/swhitty/SwiftDraw">
                <text fill="#505050" text-anchor="end" x="785.0" y="590.0">https://github.com/swhitty/SwiftDraw</text>
            </a>
        </g>
    </g>
    <g id="Guides" stroke="rgb(39, 170, 225)" stroke-width="0.5">
        <path id="Capline-S" d="M18,76 l800,0" />
        <path id="H-reference" d="M85,145.755 L87.685,145.755 L113.369,79.287 L114.052,79.287 L114.052,76 L112.148,76 L85,145.755 Z M95.693,121.536 L130.996,121.536 L130.263,119.313 L96.474,119.313 L95.693,121.536 Z M139.15,145.755 L141.787,145.755 L114.638,76 L113.466,76 L113.466,79.287 L139.15,145.755 Z" stroke="none" transform="translate(0,200)" />
        <path id="Baseline-S" d="M18,146 l800,0" />
        <path id="left-margin-Ultralight-M" d="M226.5,256 l0,110" />
        <path id="right-margin-Ultralight-M" d="M303.5,256 l0,110" />
        <path id="left-margin-Regular-M" d="M426.5,256 l0,110" />
        <path id="right-margin-Regular-M" d="M503.5,256 l0,110" />
        <path id="left-margin-Black-M" d="M626.5,256 l0,110" />
        <path id="right-margin-Black-M" d="M703.5,256 l0,110" />
        <path id="Capline-M" d="M18,276 l800,0" />
        <path id="Baseline-M" d="M18,346 l800,0" />
        <path id="Capline-L" d="M18,476 l800,0" />
        <path id="Baseline-L" d="M18,546 l800,0" />
    </g>
    <g id="Symbols">
        <g id="Ultralight-M" transform="translate(0,200)">
            <path d="M296.5,104 L296.5,114.5 C296.5,114.5 296.5,114.5 296.5,114.5 C296.5,114.5 296.5,114.5 296.5,114.5 L233.5,114.5 C233.5,114.5 233.5,114.5 233.5,114.5 C233.5,114.5 233.5,114.5 233.5,114.5 L233.5,93.5 C233.5,93.5 233.5,93.5 233.5,93.5 C233.5,93.5 233.5,93.5 233.5,93.5 L296.5,93.5 C296.5,93.5 296.5,93.5 296.5,93.5 C296.5,93.5 296.5,93.5 296.5,93.5 L296.5,104 Z M303.5,104 L303.5,93.5 C303.5,91.643 302.763,89.863 301.45,88.55 C300.137,87.237 298.357,86.5 296.5,86.5 L233.5,86.5 C231.643,86.5 229.863,87.237 228.55,88.55 C227.238,89.863 226.5,91.643 226.5,93.5 L226.5,114.5 C226.5,116.357 227.238,118.137 228.55,119.45 C229.863,120.763 231.643,121.5 233.5,121.5 L296.5,121.5 C298.357,121.5 300.137,120.763 301.45,119.45 C302.763,118.137 303.5,116.357 303.5,114.5 L303.5,104 Z" />
            <path d="M279,118 L279,142.5 C279,144.433 280.567,146 282.5,146 C284.433,146 286,144.433 286,142.5 L286,118 C286,116.067 284.433,114.5 282.5,114.5 C280.567,114.5 279,116.067 279,118 Z" />
            <path d="M244,118 L244,142.5 C244,144.433 245.567,146 247.5,146 C249.433,146 251,144.433 251,142.5 L251,118 C251,116.067 249.433,114.5 247.5,114.5 C245.567,114.5 244,116.067 244,118 Z" />
            <path d="M279,79.5 L279,90 C279,91.933 280.567,93.5 282.5,93.5 C284.433,93.5 286,91.933 286,90 L286,79.5 C286,77.567 284.433,76 282.5,76 C280.567,76 279,77.567 279,79.5 Z" />
            <path d="M244,79.5 L244,90 C244,91.933 245.567,93.5 247.5,93.5 C249.433,93.5 251,91.933 251,90 L251,79.5 C251,77.567 249.433,76 247.5,76 C245.567,76 244,77.567 244,79.5 Z" />
            <path d="M260.475,115.525 L233.525,88.575 C232.158,87.208 229.942,87.208 228.575,88.575 C227.208,89.942 227.208,92.158 228.575,93.525 L255.525,120.475 C256.892,121.842 259.108,121.842 260.475,120.475 C261.842,119.108 261.842,116.892 260.475,115.525 Z" />
            <path d="M269.525,92.475 L296.475,119.425 C297.842,120.792 300.058,120.792 301.425,119.425 C302.792,118.058 302.792,115.842 301.425,114.475 L274.475,87.525 C273.108,86.158 270.892,86.158 269.525,87.525 C268.158,88.892 268.158,91.108 269.525,92.475 Z" />
            <path d="M248.525,92.475 L276.525,120.475 C277.892,121.842 280.108,121.842 281.475,120.475 C282.842,119.108 282.842,116.892 281.475,115.525 L253.475,87.525 C252.108,86.158 249.892,86.158 248.525,87.525 C247.158,88.892 247.158,91.108 248.525,92.475 Z" />
        </g>
        <g id="Regular-M" transform="translate(0,200)">
            <path d="M496.5,104 L496.5,114.5 C496.5,114.5 496.5,114.5 496.5,114.5 C496.5,114.5 496.5,114.5 496.5,114.5 L433.5,114.5 C433.5,114.5 433.5,114.5 433.5,114.5 C433.5,114.5 433.5,114.5 433.5,114.5 L433.5,93.5 C433.5,93.5 433.5,93.5 433.5,93.5 C433.5,93.5 433.5,93.5 433.5,93.5 L496.5,93.5 C496.5,93.5 496.5,93.5 496.5,93.5 C496.5,93.5 496.5,93.5 496.5,93.5 L496.5,104 Z M503.5,104 L503.5,93.5 C503.5,91.643 502.763,89.863 501.45,88.55 C500.137,87.237 498.357,86.5 496.5,86.5 L433.5,86.5 C431.643,86.5 429.863,87.237 428.55,88.55 C427.237,89.863 426.5,91.643 426.5,93.5 L426.5,114.5 C426.5,116.357 427.237,118.137 428.55,119.45 C429.863,120.763 431.643,121.5 433.5,121.5 L496.5,121.5 C498.357,121.5 500.137,120.763 501.45,119.45 C502.763,118.137 503.5,116.357 503.5,114.5 L503.5,104 Z" />
            <path d="M479,118 L479,142.5 C479,144.433 480.567,146 482.5,146 C484.433,146 486,144.433 486,142.5 L486,118 C486,116.067 484.433,114.5 482.5,114.5 C480.567,114.5 479,116.067 479,118 Z" />
            <path d="M444,118 L444,142.5 C444,144.433 445.567,146 447.5,146 C449.433,146 451,144.433 451,142.5 L451,118 C451,116.067 449.433,114.5 447.5,114.5 C445.567,114.5 444,116.067 444,118 Z" />
            <path d="M479,79.5 L479,90 C479,91.933 480.567,93.5 482.5,93.5 C484.433,93.5 486,91.933 486,90 L486,79.5 C486,77.567 484.433,76 482.5,76 C480.567,76 479,77.567 479,79.5 Z" />
            <path d="M444,79.5 L444,90 C444,91.933 445.567,93.5 447.5,93.5 C449.433,93.5 451,91.933 451,90 L451,79.5 C451,77.567 449.433,76 447.5,76 C445.567,76 444,77.567 444,79.5 Z" />
            <path d="M460.475,115.525 L433.525,88.575 C432.158,87.208 429.942,87.208 428.575,88.575 C427.208,89.942 427.208,92.158 428.575,93.525 L455.525,120.475 C456.892,121.842 459.108,121.842 460.475,120.475 C461.842,119.108 461.842,116.892 460.475,115.525 Z" />
            <path d="M469.525,92.475 L496.475,119.425 C497.842,120.792 500.058,120.792 501.425,119.425 C502.792,118.058 502.792,115.842 501.425,114.475 L474.475,87.525 C473.108,86.158 470.892,86.158 469.525,87.525 C468.158,88.892 468.158,91.108 469.525,92.475 Z" />
            <path d="M448.525,92.475 L476.525,120.475 C477.892,121.842 480.108,121.842 481.475,120.475 C482.842,119.108 482.842,116.892 481.475,115.525 L453.475,87.525 C452.108,86.158 449.892,86.158 448.525,87.525 C447.158,88.892 447.158,91.108 448.525,92.475 Z" />
        </g>
        <g id="Black-M" transform="translate(0,200)">
            <path d="M696.5,104 L696.5,114.5 C696.5,114.5 696.5,114.5 696.5,114.5 C696.5,114.5 696.5,114.5 696.5,114.5 L633.5,114.5 C633.5,114.5 633.5,114.5 633.5,114.5 C633.5,114.5 633.5,114.5 633.5,114.5 L633.5,93.5 C633.5,93.5 633.5,93.5 633.5,93.5 C633.5,93.5 633.5,93.5 633.5,93.5 L696.5,93.5 C696.5,93.5 696.5,93.5 696.5,93.5 C696.5,93.5 696.5,93.5 696.5,93.5 L696.5,104 Z M703.5,104 L703.5,93.5 C703.5,91.643 702.763,89.863 701.45,88.55 C700.137,87.237 698.357,86.5 696.5,86.5 L633.5,86.5 C631.643,86.5 629.863,87.237 628.55,88.55 C627.237,89.863 626.5,91.643 626.5,93.5 L626.5,114.5 C626.5,116.357 627.237,118.137 628.55,119.45 C629.863,120.763 631.643,121.5 633.5,121.5 L696.5,121.5 C698.357,121.5 700.137,120.763 701.45,119.45 C702.763,118.137 703.5,116.357 703.5,114.5 L703.5,104 Z" />
            <path d="M679,118 L679,142.5 C679,144.433 680.567,146 682.5,146 C684.433,146 686,144.433 686,142.5 L686,118 C686,116.067 684.433,114.5 682.5,114.5 C680.567,114.5 679,116.067 679,118 Z" />
            <path d="M644,118 L644,142.5 C644,144.433 645.567,146 647.5,146 C649.433,146 651,144.433 651,142.5 L651,118 C651,116.067 649.433,114.5 647.5,114.5 C645.567,114.5 644,116.067 644,118 Z" />
            <path d="M679,79.5 L679,90 C679,91.933 680.567,93.5 682.5,93.5 C684.433,93.5 686,91.933 686,90 L686,79.5 C686,77.567 684.433,76 682.5,76 C680.567,76 679,77.567 679,79.5 Z" />
            <path d="M644,79.5 L644,90 C644,91.933 645.567,93.5 647.5,93.5 C649.433,93.5 651,91.933 651,90 L651,79.5 C651,77.567 649.433,76 647.5,76 C645.567,76 644,77.567 644,79.5 Z" />
            <path d="M660.475,115.525 L633.525,88.575 C632.158,87.208 629.942,87.208 628.575,88.575 C627.208,89.942 627.208,92.158 628.575,93.525 L655.525,120.475 C656.892,121.842 659.108,121.842 660.475,120.475 C661.842,119.108 661.842,116.892 660.475,115.525 Z" />
            <path d="M669.525,92.475 L696.475,119.425 C697.842,120.792 700.058,120.792 701.425,119.425 C702.792,118.058 702.792,115.842 701.425,114.475 L674.475,87.525 C673.108,86.158 670.892,86.158 669.525,87.525 C668.158,88.892 668.158,91.108 669.525,92.475 Z" />
            <path d="M648.525,92.475 L676.525,120.475 C677.892,121.842 680.108,121.842 681.475,120.475 C682.842,119.108 682.842,116.892 681.475,115.525 L653.475,87.525 C652.108,86.158 649.892,86.158 648.525,87.525 C647.158,88.892 647.158,91.108 648.525,92.475 Z" />
        </g>
    </g>
</svg>