<?xml version="1.0" encoding="UTF-8"?>
<svg height="600" width="800" xmlns="http://www.w3.org/2000/svg" xmlns:xlink="http://www.w3.org/1999/xlink">
    <g id="Notes" font-family="LucidaGrande, 'Lucida Grande', sans-serif" font-size="13">
        <rect fill="white" height="600.0" width="800.0" x="0.0" y="0.0" />
        <g font-size="13">
            <text x="18.0" y="176.0">Small</text>
            <text x="18.0" y="376.0">Medium</text>
            <text x="18.0" y="576.0">Large</text>
        </g>
        <g font-size="9">
            <text x="250.0" y="30.0">Ultralight</text>
            <text x="450.0" y="30.0">Regular</text>
            <text x="650.0" y="30.0">Black</text>
            <text id="template-version" fill="#505050" text-anchor="end" x="785.0" y="575.0">Template v.3.0</text>
            <a href="https://github.com/swhitty/SwiftDraw">
                <text fill="#505050" text-anchor="end" x="785.0" y="590.0">https://github.com/swhitty/SwiftDraw</text>
            </a>
        </g>
    </g>
    <g id="Guides" stroke="rgb(39, 170, 225)" stroke-width="0.5">
        <path id="Capline-S" d="M18,76 l800,0" />
        <path id="H-reference" d="M85,145.755 L87.685,145.755 L113.369,79.287 L114.052,79.287 L114.052,76 L112.148,76 L85,145.755 Z M95.693,121.536 L130.996,121.536 L130.263,119.313 L96.474,119.313 L95.693,121.536 Z M139.15,145.755 L141.787,145.755 L114.638,76 L113.466,76 L113.466,79.287 L139.15,145.755 Z" stroke="none" transform="translate(0,200)" />
        <path id="Baseline-S" d="M18,146 l800,0" />
        <path id="left-margin-Ultralight-M" d="M230,256 l0,110" />
        <path id="right-margin-Ultralight-M" d="M300,256 l0,110" />
        <path id="left-margin-Regular-M" d="M430,256 l0,110" />
        <path id="right-margin-Regular-M" d="M500,256 l0,110" />
        <path id="left-margin-Black-M" d="M630,256 l0,110" />
        <path id="right-margin-Black-M" d="M700,256 l0,110" />
        <path id="Capline-M" d="M18,276 l800,0" />
        <path id="Baseline-M" d="M18,346 l800,0" />
        <path id="Capline-L" d="M18,476 l800,0" />
        <path id="Baseline-L" d="M18,546 l800,0" />
    </g>
    <g id="Symbols">
        <g id="Ultralight-M" transform="translate(0,200)">
            <path d="M236.364,111 C236.364,95.185 249.185,82.364 265,82.364 C280.815,82.364 293.636,95.185 293.636,111 C293.636,126.815 280.815,139.636 265,139.636 C249.185,139.636 236.364,126.815 236.364,111 Z M230,111 C230,130.33 245.67,146 265,146 C284.33,146 300,130.33 300,111 C300,91.67 284.33,76 265,76 C245.67,76 230,91.67 230,111 Z" />
            <path d="M271.756,117.753 C268.027,121.478 261.985,121.476 258.259,117.748 C254.533,114.021 254.533,107.979 258.259,104.252 C261.985,100.524 268.027,100.522 271.756,104.247 C272.999,105.488 275.014,105.487 276.256,104.244 C277.498,103.001 277.496,100.986 276.253,99.744 C270.038,93.537 259.969,93.54 253.758,99.753 C247.548,105.965 247.548,116.035 253.758,122.247 C259.969,128.46 270.038,128.463 276.253,122.256 C277.496,121.014 277.498,118.999 276.256,117.756 C275.014,116.513 272.999,116.512 271.756,117.753 Z" />
        </g>
        <g id="Regular-M" transform="translate(0,200)">
            <path d="M436.364,111 C436.364,95.185 449.185,82.364 465,82.364 C480.815,82.364 493.636,95.185 493.636,111 C493.636,126.815 480.815,139.636 465,139.636 C449.185,139.636 436.364,126.815 436.364,111 Z M430,111 C430,130.33 445.67,146 465,146 C484.33,146 500,130.33 500,111 C500,91.67 484.33,76 465,76 C445.67,76 430,91.67 430,111 Z" />
            <path d="M471.756,117.753 C468.027,121.478 461.985,121.476 458.259,117.748 C454.533,114.021 454.533,107.979 458.259,104.252 C461.985,100.524 468.027,100.522 471.756,104.247 C472.999,105.488 475.014,105.487 476.256,104.244 C477.498,103.001 477.496,100.986 476.253,99.744 C470.038,93.537 459.969,93.54 453.759,99.753 C447.548,105.965 447.548,116.035 453.759,122.247 C459.969,128.46 470.038,128.463 476.253,122.256 C477.496,121.014 477.498,118.999 476.256,117.756 C475.014,116.513 472.999,116.512 471.756,117.753 Z" />
        </g>
        <g id="Black-M" transform="translate(0,200)">
            <path d="M636.364,111 C636.364,95.185 649.185,82.364 665,82.364 C680.815,82.364 693.636,95.185 693.636,111 C693.636,126.815 680.815,139.636 665,139.636 C649.185,139.636 636.364,126.815 636.364,111 Z M630,111 C630,130.33 645.67,146 665,146 C684.33,146 700,130.33 700,111 C700,91.67 684.33,76 665,76 C645.67,76 630,91.67 630,111 Z" />
            <path d="M671.756,117.753 C668.027,121.478 661.985,121.476 658.259,117.748 C654.533,114.021 654.533,107.979 658.259,104.252 C661.985,100.524 668.027,100.522 671.756,104.247 C672.999,105.488 675.014,105.487 676.256,104.244 C677.498,103.001 677.496,100.986 676.253,99.744 C670.038,93.537 659.969,93.54 653.758,99.753 C647.548,105.965 647.548,116.035 653.758,122.247 C659.969,128.46 670.038,128.463 676.253,122.256 C677.496,121.014 677.498,118.999 676.256,117.756 C675.014,116.513 672.999,116.512 671.756,117.753 Z" />
        </g>
    </g>
</svg>