<?xml version="1.0" encoding="UTF-8"?>
<svg height="600" width="800" xmlns="http://www.w3.org/2000/svg" xmlns:xlink="http://www.w3.org/1999/xlink">
    <g id="Notes" font-family="LucidaGrande, 'Lucida Grande', sans-serif" font-size="13">
        <rect fill="white" height="600.0" width="800.0" x="0.0" y="0.0" />
        <g font-size="13">
            <text x="18.0" y="176.0">Small</text>
            <text x="18.0" y="376.0">Medium</text>
            <text x="18.0" y="576.0">Large</text>
        </g>
        <g font-size="9">
            <text x="250.0" y="30.0">Ultralight</text>
            <text x="450.0" y="30.0">Regular</text>
            <text x="650.0" y="30.0">Black</text>
            <text id="template-version" fill="#505050" text-anchor="end" x="785.0" y="575.0">Template v.3.0</text>
            <a href="https://github.com/swhitty/SwiftDraw">
                <text fill="#505050" text-anchor="end" x="785.0" y="590.0">https://github.com/swhitty/SwiftDraw</text>
            </a>
        </g>
    </g>
    <g id="Guides" stroke="rgb(39, 170, 225)" stroke-width="0.5">
        <path id="Capline-S" d="M18,76 l800,0" />
        <path id="H-reference" d="M85,145.755 L87.685,145.755 L113.369,79.287 L114.052,79.287 L114.052,76 L112.148,76 L85,145.755 Z M95.693,121.536 L130.996,121.536 L130.263,119.313 L96.474,119.313 L95.693,121.536 Z M139.15,145.755 L141.787,145.755 L114.638,76 L113.466,76 L113.466,79.287 L139.15,145.755 Z" stroke="none" transform="translate(0,200)" />
        <path id="Baseline-S" d="M18,146 l800,0" />
        <path id="left-margin-Ultralight-M" d="M230,256 l0,110" />
        <path id="right-margin-Ultralight-M" d="M300,256 l0,110" />
        <path id="left-margin-Regular-M" d="M430,256 l0,110" />
        <path id="right-margin-Regular-M" d="M500,256 l0,110" />
        <path id="left-margin-Black-M" d="M630,256 l0,110" />
        <path id="right-margin-Black-M" d="M700,256 l0,110" />
        <path id="Capline-M" d="M18,276 l800,0" />
        <path id="Baseline-M" d="M18,346 l800,0" />
        <path id="Capline-L" d="M18,476 l800,0" />
        <path id="Baseline-L" d="M18,546 l800,0" />
    </g>
    <g id="Symbols">
        <g id="Ultralight-M" transform="translate(0,200)">
            <path d="M259.972,102.083 L279.417,82.639 L273.917,82.639 L293.361,102.083 C294.88,103.602 297.342,103.602 298.861,102.083 C300.38,100.564 300.38,98.102 298.861,96.583 L279.417,77.139 C277.898,75.62 275.436,75.62 273.917,77.139 L254.472,96.583 C252.954,98.102 252.954,100.564 254.472,102.083 C255.991,103.602 258.453,103.602 259.972,102.083 Z" />
            <path d="M233.889,146 L261.111,146 C266.268,146 271.214,143.951 274.86,140.305 C278.507,136.658 280.556,131.713 280.556,126.556 L280.556,79.889 C280.556,77.741 278.814,76 276.667,76 C274.519,76 272.778,77.741 272.778,79.889 L272.778,126.556 C272.778,129.65 271.549,132.617 269.361,134.805 C267.173,136.993 264.205,138.222 261.111,138.222 L233.889,138.222 C231.741,138.222 230,139.963 230,142.111 C230,144.259 231.741,146 233.889,146 Z" />
        </g>
        <g id="Regular-M" transform="translate(0,200)">
            <path d="M459.972,102.083 L479.417,82.639 L473.917,82.639 L493.361,102.083 C494.88,103.602 497.342,103.602 498.861,102.083 C500.38,100.564 500.38,98.102 498.861,96.583 L479.417,77.139 C477.898,75.62 475.436,75.62 473.917,77.139 L454.472,96.583 C452.954,98.102 452.954,100.564 454.472,102.083 C455.991,103.602 458.453,103.602 459.972,102.083 Z" />
            <path d="M433.889,146 L461.111,146 C466.268,146 471.214,143.951 474.86,140.305 C478.507,136.658 480.556,131.713 480.556,126.556 L480.556,79.889 C480.556,77.741 478.814,76 476.667,76 C474.519,76 472.778,77.741 472.778,79.889 L472.778,126.556 C472.778,129.65 471.549,132.617 469.361,134.805 C467.173,136.993 464.205,138.222 461.111,138.222 L433.889,138.222 C431.741,138.222 430,139.963 430,142.111 C430,144.259 431.741,146 433.889,146 Z" />
        </g>
        <g id="Black-M" transform="translate(0,200)">
            <path d="M659.972,102.083 L679.417,82.639 L673.917,82.639 L693.361,102.083 C694.88,103.602 697.342,103.602 698.861,102.083 C700.38,100.564 700.38,98.102 698.861,96.583 L679.417,77.139 C677.898,75.62 675.435,75.62 673.917,77.139 L654.472,96.583 C652.954,98.102 652.954,100.564 654.472,102.083 C655.991,103.602 658.453,103.602 659.972,102.083 Z" />
            <path d="M633.889,146 L661.111,146 C666.268,146 671.214,143.951 674.86,140.305 C678.507,136.658 680.556,131.713 680.556,126.556 L680.556,79.889 C680.556,77.741 678.814,76 676.667,76 C674.519,76 672.778,77.741 672.778,79.889 L672.778,126.556 C672.778,129.65 671.549,132.617 669.361,134.805 C667.173,136.993 664.205,138.222 661.111,138.222 L633.889,138.222 C631.741,138.222 630,139.963 630,142.111 C630,144.259 631.741,146 633.889,146 Z" />
        </g>
    </g>
</svg>