<?xml version="1.0" encoding="UTF-8"?>
<svg height="600" width="800" xmlns="http://www.w3.org/2000/svg" xmlns:xlink="http://www.w3.org/1999/xlink">
    <g id="Notes" font-family="LucidaGrande, 'Lucida Grande', sans-serif" font-size="13">
        <rect fill="white" height="600.0" width="800.0" x="0.0" y="0.0" />
        <g font-size="13">
            <text x="18.0" y="176.0">Small</text>
            <text x="18.0" y="376.0">Medium</text>
            <text x="18.0" y="576.0">Large</text>
        </g>
        <g font-size="9">
            <text x="250.0" y="30.0">Ultralight</text>
            <text x="450.0" y="30.0">Regular</text>
            <text x="650.0" y="30.0">Black</text>
            <text id="template-version" fill="#505050" text-anchor="end" x="785.0" y="575.0">Template v.3.0</text>
            <a href="https://github.com/swhitty/SwiftDraw">
                <text fill="#505050" text-anchor="end" x="785.0" y="590.0">https://github.com/swhitty/SwiftDraw</text>
            </a>
        </g>
    </g>
    <g id="Guides" stroke="rgb(39, 170, 225)" stroke-width="0.5">
        <path id="Capline-S" d="M18,76 l800,0" />
        <path id="H-reference" d="M85,145.755 L87.685,145.755 L113.369,79.287 L114.052,79.287 L114.052,76 L112.148,76 L85,145.755 Z M95.693,121.536 L130.996,121.536 L130.263,119.313 L96.474,119.313 L95.693,121.536 Z M139.15,145.755 L141.787,145.755 L114.638,76 L113.466,76 L113.466,79.287 L139.15,145.755 Z" stroke="none" transform="translate(0,200)" />
        <path id="Baseline-S" d="M18,146 l800,0" />
        <path id="left-margin-Ultralight-M" d="M230,256 l0,110" />
        <path id="right-margin-Ultralight-M" d="M300,256 l0,110" />
        <path id="left-margin-Regular-M" d="M430,256 l0,110" />
        <path id="right-margin-Regular-M" d="M500,256 l0,110" />
        <path id="left-margin-Black-M" d="M630,256 l0,110" />
        <path id="right-margin-Black-M" d="M700,256 l0,110" />
        <path id="Capline-M" d="M18,276 l800,0" />
        <path id="Baseline-M" d="M18,346 l800,0" />
        <path id="Capline-L" d="M18,476 l800,0" />
        <path id="Baseline-L" d="M18,546 l800,0" />
    </g>
    <g id="Symbols">
        <g id="Ultralight-M" transform="translate(0,200)">
            <path d="M270.028,119.917 L250.583,139.361 L256.083,139.361 L236.639,119.917 C235.12,118.398 232.658,118.398 231.139,119.917 C229.62,121.436 229.62,123.898 231.139,125.417 L250.583,144.861 C252.102,146.38 254.564,146.38 256.083,144.861 L275.528,125.417 C277.046,123.898 277.046,121.436 275.528,119.917 C274.009,118.398 271.547,118.398 270.028,119.917 Z" />
            <path d="M296.111,76 L268.889,76 C263.732,76 258.786,78.049 255.14,81.695 C251.493,85.342 249.444,90.287 249.444,95.444 L249.444,142.111 C249.444,144.259 251.186,146 253.333,146 C255.481,146 257.222,144.259 257.222,142.111 L257.222,95.444 C257.222,92.35 258.451,89.383 260.639,87.195 C262.827,85.007 265.795,83.778 268.889,83.778 L296.111,83.778 C298.259,83.778 300,82.037 300,79.889 C300,77.741 298.259,76 296.111,76 Z" />
        </g>
        <g id="Regular-M" transform="translate(0,200)">
            <path d="M470.028,119.917 L450.583,139.361 L456.083,139.361 L436.639,119.917 C435.12,118.398 432.658,118.398 431.139,119.917 C429.62,121.436 429.62,123.898 431.139,125.417 L450.583,144.861 C452.102,146.38 454.564,146.38 456.083,144.861 L475.528,125.417 C477.046,123.898 477.046,121.436 475.528,119.917 C474.009,118.398 471.547,118.398 470.028,119.917 Z" />
            <path d="M496.111,76 L468.889,76 C463.732,76 458.786,78.049 455.14,81.695 C451.493,85.342 449.444,90.287 449.444,95.444 L449.444,142.111 C449.444,144.259 451.186,146 453.333,146 C455.481,146 457.222,144.259 457.222,142.111 L457.222,95.444 C457.222,92.35 458.451,89.383 460.639,87.195 C462.827,85.007 465.795,83.778 468.889,83.778 L496.111,83.778 C498.259,83.778 500,82.037 500,79.889 C500,77.741 498.259,76 496.111,76 Z" />
        </g>
        <g id="Black-M" transform="translate(0,200)">
            <path d="M670.028,119.917 L650.583,139.361 L656.083,139.361 L636.639,119.917 C635.12,118.398 632.658,118.398 631.139,119.917 C629.62,121.436 629.62,123.898 631.139,125.417 L650.583,144.861 C652.102,146.38 654.565,146.38 656.083,144.861 L675.528,125.417 C677.046,123.898 677.046,121.436 675.528,119.917 C674.009,118.398 671.547,118.398 670.028,119.917 Z" />
            <path d="M696.111,76 L668.889,76 C663.732,76 658.786,78.049 655.14,81.695 C651.493,85.342 649.444,90.287 649.444,95.444 L649.444,142.111 C649.444,144.259 651.186,146 653.333,146 C655.481,146 657.222,144.259 657.222,142.111 L657.222,95.444 C657.222,92.35 658.451,89.383 660.639,87.195 C662.827,85.007 665.795,83.778 668.889,83.778 L696.111,83.778 C698.259,83.778 700,82.037 700,79.889 C700,77.741 698.259,76 696.111,76 Z" />
        </g>
    </g>
</svg>