<?xml version="1.0" encoding="UTF-8"?>
<svg height="600" width="800" xmlns="http://www.w3.org/2000/svg" xmlns:xlink="http://www.w3.org/1999/xlink">
    <g id="Notes" font-family="LucidaGrande, 'Lucida Grande', sans-serif" font-size="13">
        <rect fill="white" height="600.0" width="800.0" x="0.0" y="0.0" />
        <g font-size="13">
            <text x="18.0" y="176.0">Small</text>
            <text x="18.0" y="376.0">Medium</text>
            <text x="18.0" y="576.0">Large</text>
        </g>
        <g font-size="9">
            <text x="250.0" y="30.0">Ultralight</text>
            <text x="450.0" y="30.0">Regular</text>
            <text x="650.0" y="30.0">Black</text>
            <text id="template-version" fill="#505050" text-anchor="end" x="785.0" y="575.0">Template v.3.0</text>
            <a href="https://github.com/swhitty/SwiftDraw">
                <text fill="#505050" text-anchor="end" x="785.0" y="590.0">https://github.com/swhitty/SwiftDraw</text>
            </a>
        </g>
    </g>
    <g id="Guides" stroke="rgb(39, 170, 225)" stroke-width="0.5">
        <path id="Capline-S" d="M18,76 l800,0" />
        <path id="H-reference" d="M85,145.755 L87.685,145.755 L113.369,79.287 L114.052,79.287 L114.052,76 L112.148,76 L85,145.755 Z M95.693,121.536 L130.996,121.536 L130.263,119.313 L96.474,119.313 L95.693,121.536 Z M139.15,145.755 L141.787,145.755 L114.638,76 L113.466,76 L113.466,79.287 L139.15,145.755 Z" stroke="none" transform="translate(0,200)" />
        <path id="Baseline-S" d="M18,146 l800,0" />
        <path id="left-margin-Ultralight-M" d="M230,256 l0,110" />
        <path id="right-margin-Ultralight-M" d="M300,256 l0,110" />
        <path id="left-margin-Regular-M" d="M430,256 l0,110" />
        <path id="right-margin-Regular-M" d="M500,256 l0,110" />
        <path id="left-margin-Black-M" d="M630,256 l0,110" />
        <path id="right-margin-Black-M" d="M700,256 l0,110" />
        <path id="Capline-M" d="M18,276 l800,0" />
        <path id="Baseline-M" d="M18,346 l800,0" />
        <path id="Capline-L" d="M18,476 l800,0" />
        <path id="Baseline-L" d="M18,546 l800,0" />
    </g>
    <g id="Symbols">
        <g id="Ultralight-M" transform="translate(0,200)">
            <path d="M261.818,142.817 L261.818,117.363 C261.818,115.606 260.394,114.182 258.636,114.182 C256.879,114.182 255.455,115.606 255.455,117.363 L255.455,142.817 C255.455,144.574 256.879,145.999 258.636,145.999 C260.394,145.999 261.818,144.574 261.818,142.817 Z" />
            <path d="M232.486,103.752 L256.871,120.011 C257.894,120.693 259.219,120.724 260.273,120.092 L297.548,97.727 C299.055,96.823 299.544,94.869 298.64,93.362 C297.736,91.855 295.781,91.367 294.274,92.271 L256.999,114.635 L260.401,114.716 L236.016,98.458 C234.554,97.483 232.578,97.878 231.604,99.34 C230.629,100.802 231.024,102.777 232.486,103.752 Z" />
            <path d="M293.636,117.363 C293.636,118.481 293.05,119.517 292.092,120.092 L260.273,139.182 C259.219,139.815 257.894,139.784 256.871,139.103 L237.782,126.377 C236.895,125.787 236.363,124.792 236.364,123.728 L236.364,104.637 C236.364,103.519 236.95,102.483 237.908,101.908 L269.727,82.818 C270.781,82.185 272.106,82.216 273.129,82.897 L292.218,95.623 C293.105,96.213 293.637,97.208 293.636,98.272 L293.636,117.363 Z M300,117.363 L300,98.273 C300.001,95.081 298.405,92.098 295.748,90.328 L276.657,77.601 C273.586,75.556 269.614,75.463 266.452,77.362 L234.634,96.452 C231.759,98.177 230,101.284 230,104.637 L230,123.727 C229.999,126.919 231.595,129.902 234.252,131.672 L253.343,144.399 C256.414,146.444 260.386,146.537 263.548,144.638 L295.366,125.548 C298.241,123.823 300,120.716 300,117.363 Z" />
        </g>
        <g id="Regular-M" transform="translate(0,200)">
            <path d="M461.818,142.817 L461.818,117.363 C461.818,115.606 460.394,114.182 458.636,114.182 C456.879,114.182 455.455,115.606 455.455,117.363 L455.455,142.817 C455.455,144.574 456.879,145.999 458.636,145.999 C460.394,145.999 461.818,144.574 461.818,142.817 Z" />
            <path d="M432.486,103.752 L456.871,120.011 C457.894,120.693 459.219,120.724 460.273,120.092 L497.548,97.727 C499.055,96.823 499.544,94.869 498.64,93.362 C497.736,91.855 495.781,91.367 494.274,92.271 L456.999,114.635 L460.401,114.716 L436.016,98.458 C434.554,97.483 432.578,97.878 431.604,99.34 C430.629,100.802 431.024,102.777 432.486,103.752 Z" />
            <path d="M493.636,117.363 C493.636,118.481 493.05,119.517 492.092,120.092 L460.273,139.182 C459.219,139.815 457.894,139.784 456.871,139.103 L437.782,126.377 C436.895,125.787 436.363,124.792 436.364,123.728 L436.364,104.637 C436.364,103.519 436.95,102.483 437.908,101.908 L469.727,82.818 C470.781,82.185 472.106,82.216 473.129,82.897 L492.218,95.623 C493.105,96.213 493.637,97.208 493.636,98.272 L493.636,117.363 Z M500,117.363 L500,98.273 C500.001,95.081 498.405,92.098 495.748,90.328 L476.657,77.601 C473.586,75.556 469.614,75.463 466.452,77.362 L434.634,96.452 C431.759,98.177 430,101.284 430,104.637 L430,123.727 C429.999,126.919 431.595,129.902 434.252,131.672 L453.343,144.399 C456.414,146.444 460.386,146.537 463.548,144.638 L495.366,125.548 C498.241,123.823 500,120.716 500,117.363 Z" />
        </g>
        <g id="Black-M" transform="translate(0,200)">
            <path d="M661.818,142.817 L661.818,117.363 C661.818,115.606 660.394,114.182 658.636,114.182 C656.879,114.182 655.455,115.606 655.455,117.363 L655.455,142.817 C655.455,144.574 656.879,145.999 658.636,145.999 C660.394,145.999 661.818,144.574 661.818,142.817 Z" />
            <path d="M632.486,103.752 L656.871,120.011 C657.894,120.693 659.219,120.724 660.273,120.092 L697.548,97.727 C699.055,96.823 699.544,94.869 698.64,93.362 C697.736,91.855 695.781,91.367 694.274,92.271 L656.999,114.635 L660.401,114.716 L636.016,98.458 C634.554,97.483 632.578,97.878 631.604,99.34 C630.629,100.802 631.024,102.777 632.486,103.752 Z" />
            <path d="M693.636,117.363 C693.636,118.481 693.05,119.517 692.092,120.092 L660.273,139.182 C659.219,139.815 657.894,139.784 656.871,139.103 L637.782,126.377 C636.895,125.787 636.363,124.792 636.364,123.728 L636.364,104.637 C636.364,103.519 636.95,102.483 637.908,101.908 L669.727,82.818 C670.781,82.185 672.106,82.216 673.129,82.897 L692.218,95.623 C693.105,96.213 693.637,97.208 693.636,98.272 L693.636,117.363 Z M700,117.363 L700,98.273 C700.001,95.081 698.405,92.098 695.748,90.328 L676.657,77.601 C673.586,75.556 669.614,75.463 666.452,77.362 L634.634,96.452 C631.759,98.177 630,101.284 630,104.637 L630,123.727 C629.999,126.919 631.595,129.902 634.252,131.672 L653.343,144.399 C656.414,146.444 660.386,146.537 663.548,144.638 L695.366,125.548 C698.241,123.823 700,120.716 700,117.363 Z" />
        </g>
    </g>
</svg>