<?xml version="1.0" encoding="UTF-8"?>
<svg height="600" width="800" xmlns="http://www.w3.org/2000/svg" xmlns:xlink="http://www.w3.org/1999/xlink">
    <g id="Notes" font-family="LucidaGrande, 'Lucida Grande', sans-serif" font-size="13">
        <rect fill="white" height="600.0" width="800.0" x="0.0" y="0.0" />
        <g font-size="13">
            <text x="18.0" y="176.0">Small</text>
            <text x="18.0" y="376.0">Medium</text>
            <text x="18.0" y="576.0">Large</text>
        </g>
        <g font-size="9">
            <text x="250.0" y="30.0">Ultralight</text>
            <text x="450.0" y="30.0">Regular</text>
            <text x="650.0" y="30.0">Black</text>
            <text id="template-version" fill="#505050" text-anchor="end" x="785.0" y="575.0">Template v.3.0</text>
            <a href="https://github.com/swhitty/SwiftDraw">
                <text fill="#505050" text-anchor="end" x="785.0" y="590.0">https://github.com/swhitty/SwiftDraw</text>
            </a>
        </g>
    </g>
    <g id="Guides" stroke="rgb(39, 170, 225)" stroke-width="0.5">
        <path id="Capline-S" d="M18,76 l800,0" />
        <path id="H-reference" d="M85,145.755 L87.685,145.755 L113.369,79.287 L114.052,79.287 L114.052,76 L112.148,76 L85,145.755 Z M95.693,121.536 L130.996,121.536 L130.263,119.313 L96.474,119.313 L95.693,121.536 Z M139.15,145.755 L141.787,145.755 L114.638,76 L113.466,76 L113.466,79.287 L139.15,145.755 Z" stroke="none" transform="translate(0,200)" />
        <path id="Baseline-S" d="M18,146 l800,0" />
        <path id="left-margin-Ultralight-M" d="M231.591,256 l0,110" />
        <path id="right-margin-Ultralight-M" d="M298.409,256 l0,110" />
        <path id="left-margin-Regular-M" d="M431.591,256 l0,110" />
        <path id="right-margin-Regular-M" d="M498.409,256 l0,110" />
        <path id="left-margin-Black-M" d="M631.591,256 l0,110" />
        <path id="right-margin-Black-M" d="M698.409,256 l0,110" />
        <path id="Capline-M" d="M18,276 l800,0" />
        <path id="Baseline-M" d="M18,346 l800,0" />
        <path id="Capline-L" d="M18,476 l800,0" />
        <path id="Baseline-L" d="M18,546 l800,0" />
    </g>
    <g id="Symbols">
        <g id="Ultralight-M" transform="translate(0,200)">
            <path d="M282.5,123.726 L282.5,142.817 C282.5,144.574 283.925,145.999 285.682,145.999 C287.439,145.999 288.864,144.574 288.864,142.817 L288.864,123.726 C288.864,121.969 287.439,120.545 285.682,120.545 C283.925,120.545 282.5,121.969 282.5,123.726 Z" />
            <path d="M295.227,112.705 L295.227,88.727 C295.227,86.97 293.803,85.545 292.045,85.545 C290.288,85.545 288.864,86.97 288.864,88.727 L288.864,112.705 C288.864,114.462 290.288,115.887 292.045,115.887 C293.803,115.887 295.227,114.462 295.227,112.705 Z" />
            <path d="M295.227,130.09 L276.136,130.09 C274.379,130.09 272.955,131.515 272.955,133.272 C272.955,135.029 274.379,136.454 276.136,136.454 L295.227,136.454 C296.985,136.454 298.409,135.029 298.409,133.272 C298.409,131.515 296.985,130.09 295.227,130.09 Z" />
            <path d="M231.591,110.999 C231.591,116.209 237.338,119.861 246.415,121.952 C254.527,123.821 264.773,124.239 273.932,123.085 C275.675,122.865 276.911,121.274 276.691,119.53 C276.471,117.787 274.88,116.551 273.136,116.771 C264.7,117.834 255.205,117.447 247.843,115.751 C244.34,114.944 241.559,113.893 239.756,112.747 C238.437,111.909 237.955,111.262 237.955,110.999 C237.955,109.242 236.53,107.818 234.773,107.818 C233.015,107.818 231.591,109.242 231.591,110.999 Z" />
            <path d="M231.591,88.727 L231.591,133.272 C231.591,137.977 236.276,141.387 243.823,143.558 C250.486,145.474 259.193,146.316 267.763,145.893 C269.518,145.806 270.871,144.313 270.784,142.558 C270.697,140.803 269.204,139.451 267.449,139.537 C259.544,139.928 251.529,139.153 245.582,137.442 C242.785,136.638 240.618,135.674 239.246,134.675 C238.283,133.974 237.955,133.475 237.955,133.272 L237.955,88.727 C237.955,86.97 236.53,85.545 234.773,85.545 C233.015,85.545 231.591,86.97 231.591,88.727 Z" />
            <path d="M237.955,88.727 C237.955,86.16 249.343,82.364 263.409,82.364 C277.475,82.364 288.864,86.16 288.864,88.727 C288.864,91.295 277.475,95.091 263.409,95.091 C249.343,95.091 237.955,91.295 237.955,88.727 Z M231.591,88.727 C231.591,96.703 245.845,101.454 263.409,101.454 C280.974,101.454 295.227,96.703 295.227,88.727 C295.227,80.751 280.974,76 263.409,76 C245.845,76 231.591,80.751 231.591,88.727 Z" />
        </g>
        <g id="Regular-M" transform="translate(0,200)">
            <path d="M482.5,123.726 L482.5,142.817 C482.5,144.574 483.925,145.999 485.682,145.999 C487.439,145.999 488.864,144.574 488.864,142.817 L488.864,123.726 C488.864,121.969 487.439,120.545 485.682,120.545 C483.925,120.545 482.5,121.969 482.5,123.726 Z" />
            <path d="M495.227,112.705 L495.227,88.727 C495.227,86.97 493.803,85.545 492.045,85.545 C490.288,85.545 488.864,86.97 488.864,88.727 L488.864,112.705 C488.864,114.462 490.288,115.887 492.045,115.887 C493.803,115.887 495.227,114.462 495.227,112.705 Z" />
            <path d="M495.227,130.09 L476.136,130.09 C474.379,130.09 472.955,131.515 472.955,133.272 C472.955,135.029 474.379,136.454 476.136,136.454 L495.227,136.454 C496.985,136.454 498.409,135.029 498.409,133.272 C498.409,131.515 496.985,130.09 495.227,130.09 Z" />
            <path d="M431.591,110.999 C431.591,116.209 437.338,119.861 446.415,121.952 C454.527,123.821 464.773,124.239 473.932,123.085 C475.675,122.865 476.911,121.274 476.691,119.53 C476.471,117.787 474.88,116.551 473.136,116.771 C464.7,117.834 455.205,117.447 447.843,115.751 C444.34,114.944 441.559,113.893 439.756,112.747 C438.437,111.909 437.955,111.262 437.955,110.999 C437.955,109.242 436.53,107.818 434.773,107.818 C433.015,107.818 431.591,109.242 431.591,110.999 Z" />
            <path d="M431.591,88.727 L431.591,133.272 C431.591,137.977 436.276,141.387 443.823,143.558 C450.486,145.474 459.193,146.316 467.763,145.893 C469.518,145.806 470.871,144.313 470.784,142.558 C470.697,140.803 469.204,139.451 467.449,139.537 C459.544,139.928 451.529,139.153 445.582,137.442 C442.785,136.638 440.618,135.674 439.246,134.675 C438.283,133.974 437.955,133.475 437.955,133.272 L437.955,88.727 C437.955,86.97 436.53,85.545 434.773,85.545 C433.015,85.545 431.591,86.97 431.591,88.727 Z" />
            <path d="M437.955,88.727 C437.955,86.16 449.343,82.364 463.409,82.364 C477.475,82.364 488.864,86.16 488.864,88.727 C488.864,91.295 477.475,95.091 463.409,95.091 C449.343,95.091 437.955,91.295 437.955,88.727 Z M431.591,88.727 C431.591,96.703 445.845,101.454 463.409,101.454 C480.974,101.454 495.227,96.703 495.227,88.727 C495.227,80.751 480.974,76 463.409,76 C445.845,76 431.591,80.751 431.591,88.727 Z" />
        </g>
        <g id="Black-M" transform="translate(0,200)">
            <path d="M682.5,123.726 L682.5,142.817 C682.5,144.574 683.924,145.999 685.682,145.999 C687.439,145.999 688.864,144.574 688.864,142.817 L688.864,123.726 C688.864,121.969 687.439,120.545 685.682,120.545 C683.924,120.545 682.5,121.969 682.5,123.726 Z" />
            <path d="M695.227,112.705 L695.227,88.727 C695.227,86.97 693.803,85.545 692.045,85.545 C690.288,85.545 688.864,86.97 688.864,88.727 L688.864,112.705 C688.864,114.462 690.288,115.887 692.045,115.887 C693.803,115.887 695.227,114.462 695.227,112.705 Z" />
            <path d="M695.227,130.09 L676.136,130.09 C674.379,130.09 672.955,131.515 672.955,133.272 C672.955,135.029 674.379,136.454 676.136,136.454 L695.227,136.454 C696.984,136.454 698.409,135.029 698.409,133.272 C698.409,131.515 696.984,130.09 695.227,130.09 Z" />
            <path d="M631.591,110.999 C631.591,116.209 637.338,119.861 646.414,121.952 C654.527,123.821 664.773,124.239 673.932,123.085 C675.675,122.865 676.911,121.274 676.691,119.53 C676.471,117.787 674.88,116.551 673.136,116.771 C664.7,117.834 655.205,117.447 647.843,115.751 C644.34,114.944 641.559,113.893 639.756,112.747 C638.437,111.909 637.955,111.262 637.955,110.999 C637.955,109.242 636.53,107.818 634.773,107.818 C633.015,107.818 631.591,109.242 631.591,110.999 Z" />
            <path d="M631.591,88.727 L631.591,133.272 C631.591,137.977 636.276,141.387 643.823,143.558 C650.486,145.474 659.193,146.316 667.763,145.893 C669.518,145.806 670.871,144.313 670.784,142.558 C670.697,140.803 669.204,139.451 667.449,139.537 C659.544,139.928 651.529,139.153 645.582,137.442 C642.785,136.638 640.618,135.674 639.246,134.675 C638.283,133.974 637.955,133.475 637.955,133.272 L637.955,88.727 C637.955,86.97 636.53,85.545 634.773,85.545 C633.015,85.545 631.591,86.97 631.591,88.727 Z" />
            <path d="M637.955,88.727 C637.955,86.16 649.343,82.364 663.409,82.364 C677.475,82.364 688.864,86.16 688.864,88.727 C688.864,91.295 677.475,95.091 663.409,95.091 C649.343,95.091 637.955,91.295 637.955,88.727 Z M631.591,88.727 C631.591,96.703 645.845,101.454 663.409,101.454 C680.974,101.454 695.227,96.703 695.227,88.727 C695.227,80.751 680.974,76 663.409,76 C645.845,76 631.591,80.751 631.591,88.727 Z" />
        </g>
    </g>
</svg>