<?xml version="1.0" encoding="UTF-8"?>
<svg height="600" width="800" xmlns="http://www.w3.org/2000/svg" xmlns:xlink="http://www.w3.org/1999/xlink">
    <g id="Notes" font-family="LucidaGrande, 'Lucida Grande', sans-serif" font-size="13">
        <rect fill="white" height="600.0" width="800.0" x="0.0" y="0.0" />
        <g font-size="13">
            <text x="18.0" y="176.0">Small</text>
            <text x="18.0" y="376.0">Medium</text>
            <text x="18.0" y="576.0">Large</text>
        </g>
        <g font-size="9">
            <text x="250.0" y="30.0">Ultralight</text>
            <text x="450.0" y="30.0">Regular</text>
            <text x="650.0" y="30.0">Black</text>
            <text id="template-version" fill="#505050" text-anchor="end" x="785.0" y="575.0">Template v.3.0</text>
            <a href="https://github.com/swhitty/SwiftDraw">
                <text fill="#505050" text-anchor="end" x="785.0" y="590.0">https://github.com/swhitty/SwiftDraw</text>
            </a>
        </g>
    </g>
    <g id="Guides" stroke="rgb(39, 170, 225)" stroke-width="0.5">
        <path id="Capline-S" d="M18,76 l800,0" />
        <path id="H-reference" d="M85,145.755 L87.685,145.755 L113.369,79.287 L114.052,79.287 L114.052,76 L112.148,76 L85,145.755 Z M95.693,121.536 L130.996,121.536 L130.263,119.313 L96.474,119.313 L95.693,121.536 Z M139.15,145.755 L141.787,145.755 L114.638,76 L113.466,76 L113.466,79.287 L139.15,145.755 Z" stroke="none" transform="translate(0,200)" />
        <path id="Baseline-S" d="M18,146 l800,0" />
        <path id="left-margin-Ultralight-M" d="M231.591,256 l0,110" />
        <path id="right-margin-Ultralight-M" d="M298.409,256 l0,110" />
        <path id="left-margin-Regular-M" d="M431.591,256 l0,110" />
        <path id="right-margin-Regular-M" d="M498.409,256 l0,110" />
        <path id="left-margin-Black-M" d="M631.591,256 l0,110" />
        <path id="right-margin-Black-M" d="M698.409,256 l0,110" />
        <path id="Capline-M" d="M18,276 l800,0" />
        <path id="Baseline-M" d="M18,346 l800,0" />
        <path id="Capline-L" d="M18,476 l800,0" />
        <path id="Baseline-L" d="M18,546 l800,0" />
    </g>
    <g id="Symbols">
        <g id="Ultralight-M" transform="translate(0,200)">
            <path d="M237.955,88.721 C237.955,86.154 249.343,82.36 263.409,82.36 C277.476,82.36 288.864,86.154 288.864,88.721 C288.864,91.287 277.476,95.081 263.409,95.081 C249.343,95.081 237.955,91.287 237.955,88.721 Z M231.591,88.721 C231.591,96.692 245.845,101.441 263.409,101.441 C280.974,101.441 295.227,96.692 295.227,88.721 C295.227,80.749 280.974,76 263.409,76 C245.845,76 231.591,80.749 231.591,88.721 Z" />
            <path d="M231.591,88.721 L231.591,133.243 C231.532,138.39 237.162,142.039 246.098,144.153 C254.069,146.038 264.186,146.509 273.327,145.432 C275.073,145.227 276.321,143.646 276.115,141.902 C275.909,140.158 274.328,138.91 272.583,139.116 C264.158,140.108 254.786,139.672 247.564,137.964 C244.133,137.152 241.42,136.106 239.671,134.973 C238.403,134.15 237.952,133.528 237.955,133.279 L237.955,88.721 C237.955,86.964 236.53,85.54 234.773,85.54 C233.016,85.54 231.591,86.964 231.591,88.721 Z" />
            <path d="M288.864,88.721 L288.864,98.261 C288.864,100.017 290.288,101.441 292.045,101.441 C293.803,101.441 295.227,100.017 295.227,98.261 L295.227,88.721 C295.227,86.964 293.803,85.54 292.045,85.54 C290.288,85.54 288.864,86.964 288.864,88.721 Z" />
            <path d="M289.317,109.345 L279.772,125.246 C278.499,127.366 280.027,130.062 282.5,130.062 L295.227,130.062 L292.499,125.246 L282.953,141.147 C282.049,142.653 282.538,144.606 284.045,145.51 C285.552,146.414 287.506,145.925 288.41,144.419 L297.956,128.518 C299.228,126.399 297.701,123.702 295.227,123.702 L282.5,123.702 L285.228,128.518 L294.774,112.618 C295.678,111.112 295.189,109.158 293.682,108.255 C292.176,107.351 290.221,107.839 289.317,109.345 Z" />
            <path d="M231.591,110.992 C231.608,116.03 237,119.597 245.57,121.718 C253.203,123.606 262.955,124.175 271.97,123.273 C273.719,123.097 274.994,121.539 274.819,119.791 C274.644,118.044 273.085,116.769 271.336,116.944 C263.019,117.777 253.996,117.25 247.1,115.544 C243.828,114.734 241.251,113.71 239.59,112.611 C238.388,111.816 237.956,111.216 237.955,110.971 C237.949,109.214 236.519,107.795 234.762,107.801 C233.005,107.807 231.585,109.236 231.591,110.992 Z" />
        </g>
        <g id="Regular-M" transform="translate(0,200)">
            <path d="M437.955,88.721 C437.955,86.154 449.343,82.36 463.409,82.36 C477.476,82.36 488.864,86.154 488.864,88.721 C488.864,91.287 477.476,95.081 463.409,95.081 C449.343,95.081 437.955,91.287 437.955,88.721 Z M431.591,88.721 C431.591,96.692 445.845,101.441 463.409,101.441 C480.974,101.441 495.227,96.692 495.227,88.721 C495.227,80.749 480.974,76 463.409,76 C445.845,76 431.591,80.749 431.591,88.721 Z" />
            <path d="M431.591,88.721 L431.591,133.243 C431.532,138.39 437.162,142.039 446.098,144.153 C454.069,146.038 464.186,146.509 473.327,145.432 C475.073,145.227 476.321,143.646 476.115,141.902 C475.909,140.158 474.328,138.91 472.583,139.116 C464.158,140.108 454.786,139.672 447.564,137.964 C444.133,137.152 441.42,136.106 439.671,134.973 C438.403,134.15 437.952,133.528 437.955,133.279 L437.955,88.721 C437.955,86.964 436.53,85.54 434.773,85.54 C433.016,85.54 431.591,86.964 431.591,88.721 Z" />
            <path d="M488.864,88.721 L488.864,98.261 C488.864,100.017 490.288,101.441 492.045,101.441 C493.803,101.441 495.227,100.017 495.227,98.261 L495.227,88.721 C495.227,86.964 493.803,85.54 492.045,85.54 C490.288,85.54 488.864,86.964 488.864,88.721 Z" />
            <path d="M489.317,109.345 L479.772,125.246 C478.499,127.366 480.027,130.062 482.5,130.062 L495.227,130.062 L492.499,125.246 L482.953,141.147 C482.049,142.653 482.538,144.606 484.045,145.51 C485.552,146.414 487.506,145.925 488.41,144.419 L497.956,128.518 C499.228,126.399 497.701,123.702 495.227,123.702 L482.5,123.702 L485.228,128.518 L494.774,112.618 C495.678,111.112 495.189,109.158 493.682,108.255 C492.176,107.351 490.221,107.839 489.317,109.345 Z" />
            <path d="M431.591,110.992 C431.608,116.03 437,119.597 445.57,121.718 C453.203,123.606 462.955,124.175 471.97,123.273 C473.719,123.097 474.994,121.539 474.819,119.791 C474.644,118.044 473.085,116.769 471.336,116.944 C463.019,117.777 453.996,117.25 447.1,115.544 C443.828,114.734 441.251,113.71 439.59,112.611 C438.388,111.816 437.956,111.216 437.955,110.971 C437.949,109.214 436.519,107.795 434.762,107.801 C433.005,107.807 431.585,109.236 431.591,110.992 Z" />
        </g>
        <g id="Black-M" transform="translate(0,200)">
            <path d="M637.955,88.721 C637.955,86.154 649.343,82.36 663.409,82.36 C677.476,82.36 688.864,86.154 688.864,88.721 C688.864,91.287 677.476,95.081 663.409,95.081 C649.343,95.081 637.955,91.287 637.955,88.721 Z M631.591,88.721 C631.591,96.692 645.845,101.441 663.409,101.441 C680.974,101.441 695.227,96.692 695.227,88.721 C695.227,80.749 680.974,76 663.409,76 C645.845,76 631.591,80.749 631.591,88.721 Z" />
            <path d="M631.591,88.721 L631.591,133.243 C631.531,138.39 637.162,142.039 646.098,144.153 C654.069,146.038 664.186,146.509 673.327,145.432 C675.073,145.227 676.321,143.646 676.115,141.902 C675.909,140.158 674.328,138.91 672.583,139.116 C664.158,140.108 654.786,139.672 647.564,137.964 C644.133,137.152 641.42,136.106 639.671,134.973 C638.403,134.15 637.952,133.528 637.955,133.279 L637.955,88.721 C637.955,86.964 636.53,85.54 634.773,85.54 C633.016,85.54 631.591,86.964 631.591,88.721 Z" />
            <path d="M688.864,88.721 L688.864,98.261 C688.864,100.017 690.288,101.441 692.045,101.441 C693.803,101.441 695.227,100.017 695.227,98.261 L695.227,88.721 C695.227,86.964 693.803,85.54 692.045,85.54 C690.288,85.54 688.864,86.964 688.864,88.721 Z" />
            <path d="M689.317,109.345 L679.772,125.246 C678.499,127.366 680.027,130.062 682.5,130.062 L695.227,130.062 L692.499,125.246 L682.953,141.147 C682.049,142.653 682.538,144.606 684.045,145.51 C685.552,146.414 687.506,145.925 688.41,144.419 L697.956,128.518 C699.228,126.399 697.7,123.702 695.227,123.702 L682.5,123.702 L685.228,128.518 L694.774,112.618 C695.678,111.112 695.189,109.158 693.682,108.255 C692.176,107.351 690.221,107.839 689.317,109.345 Z" />
            <path d="M631.591,110.992 C631.608,116.03 637,119.597 645.57,121.718 C653.203,123.606 662.955,124.175 671.97,123.273 C673.719,123.097 674.994,121.539 674.819,119.791 C674.644,118.044 673.084,116.769 671.336,116.944 C663.019,117.777 653.996,117.25 647.1,115.544 C643.828,114.734 641.251,113.71 639.59,112.611 C638.388,111.816 637.956,111.216 637.955,110.971 C637.949,109.214 636.519,107.795 634.762,107.801 C633.005,107.807 631.585,109.236 631.591,110.992 Z" />
        </g>
    </g>
</svg>