<?xml version="1.0" encoding="UTF-8"?>
<svg height="600" width="800" xmlns="http://www.w3.org/2000/svg" xmlns:xlink="http://www.w3.org/1999/xlink">
    <g id="Notes" font-family="LucidaGrande, 'Lucida Grande', sans-serif" font-size="13">
        <rect fill="white" height="600.0" width="800.0" x="0.0" y="0.0" />
        <g font-size="13">
            <text x="18.0" y="176.0">Small</text>
            <text x="18.0" y="376.0">Medium</text>
            <text x="18.0" y="576.0">Large</text>
        </g>
        <g font-size="9">
            <text x="250.0" y="30.0">Ultralight</text>
            <text x="450.0" y="30.0">Regular</text>
            <text x="650.0" y="30.0">Black</text>
            <text id="template-version" fill="#505050" text-anchor="end" x="785.0" y="575.0">Template v.3.0</text>
            <a href="https://github.com/swhitty/SwiftDraw">
                <text fill="#505050" text-anchor="end" x="785.0" y="590.0">https://github.com/swhitty/SwiftDraw</text>
            </a>
        </g>
    </g>
    <g id="Guides" stroke="rgb(39, 170, 225)" stroke-width="0.5">
        <path id="Capline-S" d="M18,76 l800,0" />
        <path id="H-reference" d="M85,145.755 L87.685,145.755 L113.369,79.287 L114.052,79.287 L114.052,76 L112.148,76 L85,145.755 Z M95.693,121.536 L130.996,121.536 L130.263,119.313 L96.474,119.313 L95.693,121.536 Z M139.15,145.755 L141.787,145.755 L114.638,76 L113.466,76 L113.466,79.287 L139.15,145.755 Z" stroke="none" transform="translate(0,200)" />
        <path id="Baseline-S" d="M18,146 l800,0" />
        <path id="left-margin-Ultralight-M" d="M230,256 l0,110" />
        <path id="right-margin-Ultralight-M" d="M300,256 l0,110" />
        <path id="left-margin-Regular-M" d="M430,256 l0,110" />
        <path id="right-margin-Regular-M" d="M500,256 l0,110" />
        <path id="left-margin-Black-M" d="M630,256 l0,110" />
        <path id="right-margin-Black-M" d="M700,256 l0,110" />
        <path id="Capline-M" d="M18,276 l800,0" />
        <path id="Baseline-M" d="M18,346 l800,0" />
        <path id="Capline-L" d="M18,476 l800,0" />
        <path id="Baseline-L" d="M18,546 l800,0" />
    </g>
    <g id="Symbols">
        <g id="Ultralight-M" transform="translate(0,200)">
            <path d="M236.364,111 C236.364,95.185 249.185,82.364 265,82.364 C280.815,82.364 293.636,95.185 293.636,111 C293.636,126.815 280.815,139.636 265,139.636 C249.185,139.636 236.364,126.815 236.364,111 Z M230,111 C230,130.33 245.67,146 265,146 C284.33,146 300,130.33 300,111 C300,91.67 284.33,76 265,76 C245.67,76 230,91.67 230,111 Z" />
            <path d="M249.091,111 C249.091,106.636 250.831,102.668 253.777,99.991 C255.077,98.809 255.173,96.796 253.991,95.496 C252.809,94.196 250.796,94.1 249.496,95.282 C245.219,99.171 242.727,104.851 242.727,111 C242.727,112.757 244.152,114.182 245.909,114.182 C247.666,114.182 249.091,112.757 249.091,111 Z" />
            <path d="M261.818,111 C261.818,109.243 263.243,107.818 265,107.818 C266.757,107.818 268.182,109.243 268.182,111 C268.182,112.757 266.757,114.182 265,114.182 C263.243,114.182 261.818,112.757 261.818,111 Z M255.455,111 C255.455,116.272 259.728,120.545 265,120.545 C270.272,120.545 274.545,116.272 274.545,111 C274.545,105.728 270.272,101.455 265,101.455 C259.728,101.455 255.455,105.728 255.455,111 Z" />
            <path d="M280.909,111 C280.909,115.364 279.169,119.332 276.223,122.009 C274.923,123.191 274.827,125.204 276.009,126.504 C277.191,127.804 279.204,127.9 280.504,126.718 C284.781,122.829 287.273,117.149 287.273,111 C287.273,109.243 285.848,107.818 284.091,107.818 C282.334,107.818 280.909,109.243 280.909,111 Z" />
        </g>
        <g id="Regular-M" transform="translate(0,200)">
            <path d="M436.364,111 C436.364,95.185 449.185,82.364 465,82.364 C480.815,82.364 493.636,95.185 493.636,111 C493.636,126.815 480.815,139.636 465,139.636 C449.185,139.636 436.364,126.815 436.364,111 Z M430,111 C430,130.33 445.67,146 465,146 C484.33,146 500,130.33 500,111 C500,91.67 484.33,76 465,76 C445.67,76 430,91.67 430,111 Z" />
            <path d="M449.091,111 C449.091,106.636 450.831,102.668 453.777,99.991 C455.077,98.809 455.173,96.796 453.991,95.496 C452.809,94.196 450.796,94.1 449.496,95.282 C445.219,99.171 442.727,104.851 442.727,111 C442.727,112.757 444.152,114.182 445.909,114.182 C447.666,114.182 449.091,112.757 449.091,111 Z" />
            <path d="M461.818,111 C461.818,109.243 463.243,107.818 465,107.818 C466.757,107.818 468.182,109.243 468.182,111 C468.182,112.757 466.757,114.182 465,114.182 C463.243,114.182 461.818,112.757 461.818,111 Z M455.455,111 C455.455,116.272 459.728,120.545 465,120.545 C470.272,120.545 474.545,116.272 474.545,111 C474.545,105.728 470.272,101.455 465,101.455 C459.728,101.455 455.455,105.728 455.455,111 Z" />
            <path d="M480.909,111 C480.909,115.364 479.169,119.332 476.223,122.009 C474.923,123.191 474.827,125.204 476.009,126.504 C477.191,127.804 479.204,127.9 480.504,126.718 C484.781,122.829 487.273,117.149 487.273,111 C487.273,109.243 485.848,107.818 484.091,107.818 C482.334,107.818 480.909,109.243 480.909,111 Z" />
        </g>
        <g id="Black-M" transform="translate(0,200)">
            <path d="M636.364,111 C636.364,95.185 649.185,82.364 665,82.364 C680.815,82.364 693.636,95.185 693.636,111 C693.636,126.815 680.815,139.636 665,139.636 C649.185,139.636 636.364,126.815 636.364,111 Z M630,111 C630,130.33 645.67,146 665,146 C684.33,146 700,130.33 700,111 C700,91.67 684.33,76 665,76 C645.67,76 630,91.67 630,111 Z" />
            <path d="M649.091,111 C649.091,106.636 650.831,102.668 653.777,99.991 C655.077,98.809 655.173,96.796 653.991,95.496 C652.809,94.196 650.796,94.1 649.496,95.282 C645.219,99.171 642.727,104.851 642.727,111 C642.727,112.757 644.152,114.182 645.909,114.182 C647.666,114.182 649.091,112.757 649.091,111 Z" />
            <path d="M661.818,111 C661.818,109.243 663.243,107.818 665,107.818 C666.757,107.818 668.182,109.243 668.182,111 C668.182,112.757 666.757,114.182 665,114.182 C663.243,114.182 661.818,112.757 661.818,111 Z M655.455,111 C655.455,116.272 659.728,120.545 665,120.545 C670.272,120.545 674.545,116.272 674.545,111 C674.545,105.728 670.272,101.455 665,101.455 C659.728,101.455 655.455,105.728 655.455,111 Z" />
            <path d="M680.909,111 C680.909,115.364 679.169,119.332 676.223,122.009 C674.923,123.191 674.827,125.204 676.009,126.504 C677.191,127.804 679.204,127.9 680.504,126.718 C684.781,122.829 687.273,117.149 687.273,111 C687.273,109.243 685.848,107.818 684.091,107.818 C682.334,107.818 680.909,109.243 680.909,111 Z" />
        </g>
    </g>
</svg>