<?xml version="1.0" encoding="UTF-8"?>
<svg height="600" width="800" xmlns="http://www.w3.org/2000/svg" xmlns:xlink="http://www.w3.org/1999/xlink">
    <g id="Notes" font-family="LucidaGrande, 'Lucida Grande', sans-serif" font-size="13">
        <rect fill="white" height="600.0" width="800.0" x="0.0" y="0.0" />
        <g font-size="13">
            <text x="18.0" y="176.0">Small</text>
            <text x="18.0" y="376.0">Medium</text>
            <text x="18.0" y="576.0">Large</text>
        </g>
        <g font-size="9">
            <text x="250.0" y="30.0">Ultralight</text>
            <text x="450.0" y="30.0">Regular</text>
            <text x="650.0" y="30.0">Black</text>
            <text id="template-version" fill="#505050" text-anchor="end" x="785.0" y="575.0">Template v.3.0</text>
            <a href="https://github.com/swhitty/SwiftDraw">
                <text fill="#505050" text-anchor="end" x="785.0" y="590.0">https://github.com/swhitty/SwiftDraw</text>
            </a>
        </g>
    </g>
    <g id="Guides" stroke="rgb(39, 170, 225)" stroke-width="0.5">
        <path id="Capline-S" d="M18,76 l800,0" />
        <path id="H-reference" d="M85,145.755 L87.685,145.755 L113.369,79.287 L114.052,79.287 L114.052,76 L112.148,76 L85,145.755 Z M95.693,121.536 L130.996,121.536 L130.263,119.313 L96.474,119.313 L95.693,121.536 Z M139.15,145.755 L141.787,145.755 L114.638,76 L113.466,76 L113.466,79.287 L139.15,145.755 Z" stroke="none" transform="translate(0,200)" />
        <path id="Baseline-S" d="M18,146 l800,0" />
        <path id="left-margin-Ultralight-M" d="M242.727,256 l0,110" />
        <path id="right-margin-Ultralight-M" d="M287.273,256 l0,110" />
        <path id="left-margin-Regular-M" d="M442.727,256 l0,110" />
        <path id="right-margin-Regular-M" d="M487.273,256 l0,110" />
        <path id="left-margin-Black-M" d="M642.727,256 l0,110" />
        <path id="right-margin-Black-M" d="M687.273,256 l0,110" />
        <path id="Capline-M" d="M18,276 l800,0" />
        <path id="Baseline-M" d="M18,346 l800,0" />
        <path id="Capline-L" d="M18,476 l800,0" />
        <path id="Baseline-L" d="M18,546 l800,0" />
    </g>
    <g id="Symbols">
        <g id="Ultralight-M" transform="translate(0,200)">
            <path d="M261.818,79.182 L261.818,142.818 C261.818,144.575 263.243,146 265,146 C266.757,146 268.182,144.575 268.182,142.818 L268.182,79.182 C268.182,77.425 266.757,76 265,76 C263.243,76 261.818,77.425 261.818,79.182 Z" />
            <path d="M280.909,85.545 L257.045,85.545 C249.138,85.545 242.727,91.956 242.727,99.864 C242.727,107.771 249.138,114.182 257.045,114.182 L272.955,114.182 C277.348,114.182 280.909,117.743 280.909,122.136 C280.909,126.53 277.348,130.091 272.955,130.091 L245.909,130.091 C244.152,130.091 242.727,131.515 242.727,133.273 C242.727,135.03 244.152,136.455 245.909,136.455 L272.955,136.455 C280.862,136.455 287.273,130.044 287.273,122.136 C287.273,114.229 280.862,107.818 272.955,107.818 L257.045,107.818 C252.652,107.818 249.091,104.257 249.091,99.864 C249.091,95.47 252.652,91.909 257.045,91.909 L280.909,91.909 C282.666,91.909 284.091,90.485 284.091,88.727 C284.091,86.97 282.666,85.545 280.909,85.545 Z" />
        </g>
        <g id="Regular-M" transform="translate(0,200)">
            <path d="M461.818,79.182 L461.818,142.818 C461.818,144.575 463.243,146 465,146 C466.757,146 468.182,144.575 468.182,142.818 L468.182,79.182 C468.182,77.425 466.757,76 465,76 C463.243,76 461.818,77.425 461.818,79.182 Z" />
            <path d="M480.909,85.545 L457.045,85.545 C449.138,85.545 442.727,91.956 442.727,99.864 C442.727,107.771 449.138,114.182 457.045,114.182 L472.955,114.182 C477.348,114.182 480.909,117.743 480.909,122.136 C480.909,126.53 477.348,130.091 472.955,130.091 L445.909,130.091 C444.152,130.091 442.727,131.515 442.727,133.273 C442.727,135.03 444.152,136.455 445.909,136.455 L472.955,136.455 C480.862,136.455 487.273,130.044 487.273,122.136 C487.273,114.229 480.862,107.818 472.955,107.818 L457.045,107.818 C452.652,107.818 449.091,104.257 449.091,99.864 C449.091,95.47 452.652,91.909 457.045,91.909 L480.909,91.909 C482.666,91.909 484.091,90.485 484.091,88.727 C484.091,86.97 482.666,85.545 480.909,85.545 Z" />
        </g>
        <g id="Black-M" transform="translate(0,200)">
            <path d="M661.818,79.182 L661.818,142.818 C661.818,144.575 663.243,146 665,146 C666.757,146 668.182,144.575 668.182,142.818 L668.182,79.182 C668.182,77.425 666.757,76 665,76 C663.243,76 661.818,77.425 661.818,79.182 Z" />
            <path d="M680.909,85.545 L657.045,85.545 C649.138,85.545 642.727,91.956 642.727,99.864 C642.727,107.771 649.138,114.182 657.045,114.182 L672.955,114.182 C677.348,114.182 680.909,117.743 680.909,122.136 C680.909,126.53 677.348,130.091 672.955,130.091 L645.909,130.091 C644.152,130.091 642.727,131.515 642.727,133.273 C642.727,135.03 644.152,136.455 645.909,136.455 L672.955,136.455 C680.862,136.455 687.273,130.044 687.273,122.136 C687.273,114.229 680.862,107.818 672.955,107.818 L657.045,107.818 C652.652,107.818 649.091,104.257 649.091,99.864 C649.091,95.47 652.652,91.909 657.045,91.909 L680.909,91.909 C682.666,91.909 684.091,90.485 684.091,88.727 C684.091,86.97 682.666,85.545 680.909,85.545 Z" />
        </g>
    </g>
</svg>