<?xml version="1.0" encoding="UTF-8"?>
<svg height="600" width="800" xmlns="http://www.w3.org/2000/svg" xmlns:xlink="http://www.w3.org/1999/xlink">
    <g id="Notes" font-family="LucidaGrande, 'Lucida Grande', sans-serif" font-size="13">
        <rect fill="white" height="600.0" width="800.0" x="0.0" y="0.0" />
        <g font-size="13">
            <text x="18.0" y="176.0">Small</text>
            <text x="18.0" y="376.0">Medium</text>
            <text x="18.0" y="576.0">Large</text>
        </g>
        <g font-size="9">
            <text x="250.0" y="30.0">Ultralight</text>
            <text x="450.0" y="30.0">Regular</text>
            <text x="650.0" y="30.0">Black</text>
            <text id="template-version" fill="#505050" text-anchor="end" x="785.0" y="575.0">Template v.3.0</text>
            <a href="https://github.com/swhitty/SwiftDraw">
                <text fill="#505050" text-anchor="end" x="785.0" y="590.0">https://github.com/swhitty/SwiftDraw</text>
            </a>
        </g>
    </g>
    <g id="Guides" stroke="rgb(39, 170, 225)" stroke-width="0.5">
        <path id="Capline-S" d="M18,76 l800,0" />
        <path id="H-reference" d="M85,145.755 L87.685,145.755 L113.369,79.287 L114.052,79.287 L114.052,76 L112.148,76 L85,145.755 Z M95.693,121.536 L130.996,121.536 L130.263,119.313 L96.474,119.313 L95.693,121.536 Z M139.15,145.755 L141.787,145.755 L114.638,76 L113.466,76 L113.466,79.287 L139.15,145.755 Z" stroke="none" transform="translate(0,200)" />
        <path id="Baseline-S" d="M18,146 l800,0" />
        <path id="left-margin-Ultralight-M" d="M230,256 l0,110" />
        <path id="right-margin-Ultralight-M" d="M300,256 l0,110" />
        <path id="left-margin-Regular-M" d="M430,256 l0,110" />
        <path id="right-margin-Regular-M" d="M500,256 l0,110" />
        <path id="left-margin-Black-M" d="M630,256 l0,110" />
        <path id="right-margin-Black-M" d="M700,256 l0,110" />
        <path id="Capline-M" d="M18,276 l800,0" />
        <path id="Baseline-M" d="M18,346 l800,0" />
        <path id="Capline-L" d="M18,476 l800,0" />
        <path id="Baseline-L" d="M18,546 l800,0" />
    </g>
    <g id="Symbols">
        <g id="Ultralight-M" transform="translate(0,200)">
            <path d="M292.213,101.482 C290.797,101.454 289.466,100.798 288.581,99.692 C287.696,98.586 287.348,97.143 287.632,95.755 C288.035,93.783 286.528,91.937 284.514,91.937 L284.196,91.937 C281.945,91.96 279.884,90.798 278.756,88.889 C277.628,86.98 277.605,84.614 278.695,82.683 C279.66,80.973 278.861,78.805 277.016,78.131 C261.961,72.627 245.091,78.054 236.069,91.304 C227.048,104.554 228.181,122.239 238.82,134.229 C249.459,146.219 266.884,149.449 281.114,142.068 C295.343,134.687 302.739,118.582 299.065,102.979 C298.557,100.82 296.05,99.831 294.204,101.061 C293.905,101.26 292.966,101.481 292.15,101.481 C290.393,101.481 288.969,102.906 288.969,104.663 C288.969,106.42 290.393,107.845 292.15,107.845 C294.119,107.845 296.253,107.343 297.733,106.356 L295.968,103.709 L292.871,104.438 C295.877,117.204 289.826,130.38 278.184,136.419 C266.542,142.458 252.285,139.816 243.58,130.006 C234.875,120.196 233.948,105.726 241.329,94.885 C248.71,84.044 262.513,79.604 274.831,84.107 L273.153,79.555 C270.945,83.467 270.993,88.259 273.278,92.126 C275.563,95.993 279.738,98.347 284.23,98.3 L284.514,98.3 L284.514,95.118 L281.397,94.481 C280.735,97.72 281.547,101.086 283.612,103.667 C285.677,106.248 288.782,107.779 292.088,107.844 C293.844,107.879 295.297,106.483 295.331,104.726 C295.366,102.969 293.97,101.517 292.213,101.482 Z" />
            <path d="M258.743,111.026 C258.743,107.512 261.592,104.663 265.106,104.663 C268.621,104.663 271.47,107.512 271.47,111.026 C271.47,114.541 268.621,117.39 265.106,117.39 C261.592,117.39 258.743,114.541 258.743,111.026 Z M252.379,111.026 C252.379,118.055 258.077,123.753 265.106,123.753 C272.135,123.753 277.833,118.055 277.833,111.026 C277.833,103.998 272.135,98.3 265.106,98.3 C258.077,98.3 252.379,103.998 252.379,111.026 Z" />
        </g>
        <g id="Regular-M" transform="translate(0,200)">
            <path d="M492.213,101.482 C490.797,101.454 489.466,100.798 488.581,99.692 C487.696,98.586 487.348,97.143 487.632,95.755 C488.035,93.783 486.528,91.937 484.514,91.937 L484.196,91.937 C481.945,91.96 479.884,90.798 478.756,88.889 C477.628,86.98 477.605,84.614 478.695,82.683 C479.66,80.973 478.861,78.805 477.016,78.131 C461.961,72.627 445.091,78.054 436.069,91.304 C427.048,104.554 428.181,122.239 438.82,134.229 C449.459,146.219 466.884,149.449 481.114,142.068 C495.343,134.687 502.739,118.582 499.065,102.979 C498.557,100.82 496.05,99.831 494.204,101.061 C493.905,101.26 492.966,101.481 492.15,101.481 C490.393,101.481 488.969,102.906 488.969,104.663 C488.969,106.42 490.393,107.845 492.15,107.845 C494.119,107.845 496.253,107.343 497.733,106.356 L495.968,103.709 L492.871,104.438 C495.877,117.204 489.826,130.38 478.184,136.419 C466.542,142.458 452.285,139.816 443.58,130.006 C434.875,120.196 433.948,105.726 441.329,94.885 C448.71,84.044 462.513,79.604 474.831,84.107 L473.153,79.555 C470.945,83.467 470.993,88.259 473.278,92.126 C475.563,95.993 479.738,98.347 484.23,98.3 L484.514,98.3 L484.514,95.118 L481.397,94.481 C480.735,97.72 481.547,101.086 483.612,103.667 C485.677,106.248 488.782,107.779 492.088,107.844 C493.844,107.879 495.297,106.483 495.331,104.726 C495.366,102.969 493.97,101.517 492.213,101.482 Z" />
            <path d="M458.743,111.026 C458.743,107.512 461.592,104.663 465.106,104.663 C468.621,104.663 471.47,107.512 471.47,111.026 C471.47,114.541 468.621,117.39 465.106,117.39 C461.592,117.39 458.743,114.541 458.743,111.026 Z M452.379,111.026 C452.379,118.055 458.077,123.753 465.106,123.753 C472.135,123.753 477.833,118.055 477.833,111.026 C477.833,103.998 472.135,98.3 465.106,98.3 C458.077,98.3 452.379,103.998 452.379,111.026 Z" />
        </g>
        <g id="Black-M" transform="translate(0,200)">
            <path d="M692.213,101.482 C690.797,101.454 689.466,100.798 688.581,99.692 C687.696,98.586 687.348,97.143 687.632,95.755 C688.035,93.783 686.528,91.937 684.514,91.937 L684.196,91.937 C681.945,91.96 679.884,90.798 678.756,88.889 C677.628,86.98 677.604,84.614 678.695,82.683 C679.66,80.973 678.861,78.805 677.016,78.131 C661.961,72.627 645.091,78.054 636.069,91.304 C627.048,104.554 628.181,122.239 638.82,134.229 C649.459,146.219 666.884,149.449 681.114,142.068 C695.343,134.687 702.739,118.582 699.065,102.979 C698.557,100.82 696.05,99.831 694.204,101.061 C693.905,101.26 692.966,101.481 692.15,101.481 C690.393,101.481 688.969,102.906 688.969,104.663 C688.969,106.42 690.393,107.845 692.15,107.845 C694.119,107.845 696.253,107.343 697.733,106.356 L695.968,103.709 L692.871,104.438 C695.878,117.204 689.826,130.38 678.184,136.419 C666.542,142.458 652.285,139.816 643.58,130.006 C634.875,120.196 633.948,105.726 641.329,94.885 C648.71,84.044 662.513,79.604 674.831,84.107 L673.153,79.555 C670.945,83.467 670.993,88.259 673.278,92.126 C675.563,95.993 679.738,98.347 684.23,98.3 L684.514,98.3 L684.514,95.118 L681.397,94.481 C680.735,97.72 681.547,101.086 683.612,103.667 C685.677,106.248 688.782,107.779 692.088,107.844 C693.844,107.879 695.297,106.483 695.331,104.726 C695.366,102.969 693.97,101.517 692.213,101.482 Z" />
            <path d="M658.743,111.026 C658.743,107.512 661.592,104.663 665.106,104.663 C668.621,104.663 671.47,107.512 671.47,111.026 C671.47,114.541 668.621,117.39 665.106,117.39 C661.592,117.39 658.743,114.541 658.743,111.026 Z M652.379,111.026 C652.379,118.055 658.077,123.753 665.106,123.753 C672.135,123.753 677.833,118.055 677.833,111.026 C677.833,103.998 672.135,98.3 665.106,98.3 C658.077,98.3 652.379,103.998 652.379,111.026 Z" />
        </g>
    </g>
</svg>