<?xml version="1.0" encoding="UTF-8"?>
<svg height="600" width="800" xmlns="http://www.w3.org/2000/svg" xmlns:xlink="http://www.w3.org/1999/xlink">
    <g id="Notes" font-family="LucidaGrande, 'Lucida Grande', sans-serif" font-size="13">
        <rect fill="white" height="600.0" width="800.0" x="0.0" y="0.0" />
        <g font-size="13">
            <text x="18.0" y="176.0">Small</text>
            <text x="18.0" y="376.0">Medium</text>
            <text x="18.0" y="576.0">Large</text>
        </g>
        <g font-size="9">
            <text x="250.0" y="30.0">Ultralight</text>
            <text x="450.0" y="30.0">Regular</text>
            <text x="650.0" y="30.0">Black</text>
            <text id="template-version" fill="#505050" text-anchor="end" x="785.0" y="575.0">Template v.3.0</text>
            <a href="https://github.com/swhitty/SwiftDraw">
                <text fill="#505050" text-anchor="end" x="785.0" y="590.0">https://github.com/swhitty/SwiftDraw</text>
            </a>
        </g>
    </g>
    <g id="Guides" stroke="rgb(39, 170, 225)" stroke-width="0.5">
        <path id="Capline-S" d="M18,76 l800,0" />
        <path id="H-reference" d="M85,145.755 L87.685,145.755 L113.369,79.287 L114.052,79.287 L114.052,76 L112.148,76 L85,145.755 Z M95.693,121.536 L130.996,121.536 L130.263,119.313 L96.474,119.313 L95.693,121.536 Z M139.15,145.755 L141.787,145.755 L114.638,76 L113.466,76 L113.466,79.287 L139.15,145.755 Z" stroke="none" transform="translate(0,200)" />
        <path id="Baseline-S" d="M18,146 l800,0" />
        <path id="left-margin-Ultralight-M" d="M222.222,256 l0,110" />
        <path id="right-margin-Ultralight-M" d="M307.778,256 l0,110" />
        <path id="left-margin-Regular-M" d="M422.222,256 l0,110" />
        <path id="right-margin-Regular-M" d="M507.778,256 l0,110" />
        <path id="left-margin-Black-M" d="M622.222,256 l0,110" />
        <path id="right-margin-Black-M" d="M707.778,256 l0,110" />
        <path id="Capline-M" d="M18,276 l800,0" />
        <path id="Baseline-M" d="M18,346 l800,0" />
        <path id="Capline-L" d="M18,476 l800,0" />
        <path id="Baseline-L" d="M18,546 l800,0" />
    </g>
    <g id="Symbols">
        <g id="Ultralight-M" transform="translate(0,200)">
            <path d="M257.222,114.889 L257.261,114.889 C259.409,114.889 261.15,113.148 261.15,111 C261.15,108.852 259.409,107.111 257.261,107.111 L257.222,107.111 C255.074,107.111 253.333,108.852 253.333,111 C253.333,113.148 255.074,114.889 257.222,114.889 Z" />
            <path d="M292.222,142.111 L292.222,87.667 C292.222,84.572 290.993,81.605 288.805,79.417 C286.617,77.229 283.65,76 280.556,76 L249.444,76 C246.35,76 243.383,77.229 241.195,79.417 C239.007,81.605 237.778,84.572 237.778,87.667 L237.778,142.111 C237.778,144.259 239.519,146 241.667,146 C243.814,146 245.556,144.259 245.556,142.111 L245.556,87.667 C245.556,86.635 245.965,85.646 246.695,84.917 C247.424,84.188 248.413,83.778 249.444,83.778 L280.556,83.778 C281.587,83.778 282.576,84.188 283.305,84.917 C284.035,85.646 284.444,86.635 284.444,87.667 L284.444,142.111 C284.444,144.259 286.186,146 288.333,146 C290.481,146 292.222,144.259 292.222,142.111 Z" />
            <path d="M226.111,146 L303.889,146 C306.037,146 307.778,144.259 307.778,142.111 C307.778,139.963 306.037,138.222 303.889,138.222 L226.111,138.222 C223.963,138.222 222.222,139.963 222.222,142.111 C222.222,144.259 223.963,146 226.111,146 Z" />
        </g>
        <g id="Regular-M" transform="translate(0,200)">
            <path d="M457.222,114.889 L457.261,114.889 C459.409,114.889 461.15,113.148 461.15,111 C461.15,108.852 459.409,107.111 457.261,107.111 L457.222,107.111 C455.074,107.111 453.333,108.852 453.333,111 C453.333,113.148 455.074,114.889 457.222,114.889 Z" />
            <path d="M492.222,142.111 L492.222,87.667 C492.222,84.572 490.993,81.605 488.805,79.417 C486.617,77.229 483.65,76 480.556,76 L449.444,76 C446.35,76 443.383,77.229 441.195,79.417 C439.007,81.605 437.778,84.572 437.778,87.667 L437.778,142.111 C437.778,144.259 439.519,146 441.667,146 C443.814,146 445.556,144.259 445.556,142.111 L445.556,87.667 C445.556,86.635 445.965,85.646 446.695,84.917 C447.424,84.188 448.413,83.778 449.444,83.778 L480.556,83.778 C481.587,83.778 482.576,84.188 483.305,84.917 C484.035,85.646 484.444,86.635 484.444,87.667 L484.444,142.111 C484.444,144.259 486.186,146 488.333,146 C490.481,146 492.222,144.259 492.222,142.111 Z" />
            <path d="M426.111,146 L503.889,146 C506.037,146 507.778,144.259 507.778,142.111 C507.778,139.963 506.037,138.222 503.889,138.222 L426.111,138.222 C423.963,138.222 422.222,139.963 422.222,142.111 C422.222,144.259 423.963,146 426.111,146 Z" />
        </g>
        <g id="Black-M" transform="translate(0,200)">
            <path d="M657.222,114.889 L657.261,114.889 C659.409,114.889 661.15,113.148 661.15,111 C661.15,108.852 659.409,107.111 657.261,107.111 L657.222,107.111 C655.074,107.111 653.333,108.852 653.333,111 C653.333,113.148 655.074,114.889 657.222,114.889 Z" />
            <path d="M692.222,142.111 L692.222,87.667 C692.222,84.572 690.993,81.605 688.805,79.417 C686.617,77.229 683.65,76 680.556,76 L649.444,76 C646.35,76 643.383,77.229 641.195,79.417 C639.007,81.605 637.778,84.572 637.778,87.667 L637.778,142.111 C637.778,144.259 639.519,146 641.667,146 C643.814,146 645.556,144.259 645.556,142.111 L645.556,87.667 C645.556,86.635 645.965,85.646 646.695,84.917 C647.424,84.188 648.413,83.778 649.444,83.778 L680.556,83.778 C681.587,83.778 682.576,84.188 683.305,84.917 C684.035,85.646 684.444,86.635 684.444,87.667 L684.444,142.111 C684.444,144.259 686.186,146 688.333,146 C690.481,146 692.222,144.259 692.222,142.111 Z" />
            <path d="M626.111,146 L703.889,146 C706.037,146 707.778,144.259 707.778,142.111 C707.778,139.963 706.037,138.222 703.889,138.222 L626.111,138.222 C623.963,138.222 622.222,139.963 622.222,142.111 C622.222,144.259 623.963,146 626.111,146 Z" />
        </g>
    </g>
</svg>