<?xml version="1.0" encoding="UTF-8"?>
<svg height="600" width="800" xmlns="http://www.w3.org/2000/svg" xmlns:xlink="http://www.w3.org/1999/xlink">
    <g id="Notes" font-family="LucidaGrande, 'Lucida Grande', sans-serif" font-size="13">
        <rect fill="white" height="600.0" width="800.0" x="0.0" y="0.0" />
        <g font-size="13">
            <text x="18.0" y="176.0">Small</text>
            <text x="18.0" y="376.0">Medium</text>
            <text x="18.0" y="576.0">Large</text>
        </g>
        <g font-size="9">
            <text x="250.0" y="30.0">Ultralight</text>
            <text x="450.0" y="30.0">Regular</text>
            <text x="650.0" y="30.0">Black</text>
            <text id="template-version" fill="#505050" text-anchor="end" x="785.0" y="575.0">Template v.3.0</text>
            <a href="https://github.com/swhitty/SwiftDraw">
                <text fill="#505050" text-anchor="end" x="785.0" y="590.0">https://github.com/swhitty/SwiftDraw</text>
            </a>
        </g>
    </g>
    <g id="Guides" stroke="rgb(39, 170, 225)" stroke-width="0.5">
        <path id="Capline-S" d="M18,76 l800,0" />
        <path id="H-reference" d="M85,145.755 L87.685,145.755 L113.369,79.287 L114.052,79.287 L114.052,76 L112.148,76 L85,145.755 Z M95.693,121.536 L130.996,121.536 L130.263,119.313 L96.474,119.313 L95.693,121.536 Z M139.15,145.755 L141.787,145.755 L114.638,76 L113.466,76 L113.466,79.287 L139.15,145.755 Z" stroke="none" transform="translate(0,200)" />
        <path id="Baseline-S" d="M18,146 l800,0" />
        <path id="left-margin-Ultralight-M" d="M230,256 l0,110" />
        <path id="right-margin-Ultralight-M" d="M300,256 l0,110" />
        <path id="left-margin-Regular-M" d="M430,256 l0,110" />
        <path id="right-margin-Regular-M" d="M500,256 l0,110" />
        <path id="left-margin-Black-M" d="M630,256 l0,110" />
        <path id="right-margin-Black-M" d="M700,256 l0,110" />
        <path id="Capline-M" d="M18,276 l800,0" />
        <path id="Baseline-M" d="M18,346 l800,0" />
        <path id="Capline-L" d="M18,476 l800,0" />
        <path id="Baseline-L" d="M18,546 l800,0" />
    </g>
    <g id="Symbols">
        <g id="Ultralight-M" transform="translate(0,200)">
            <path d="M258.636,133.273 C258.636,133.273 258.636,133.273 258.636,133.273 C258.636,133.273 258.636,133.273 258.636,133.273 L258.636,139.636 C258.636,139.636 258.636,139.636 258.636,139.636 C258.636,139.636 258.636,139.636 258.636,139.636 L242.727,139.636 C241.04,139.636 239.421,138.966 238.228,137.772 C237.034,136.579 236.364,134.96 236.364,133.273 C236.364,133.273 236.364,133.273 236.364,133.273 C236.364,133.273 236.364,133.273 236.364,133.273 L258.636,133.273 Z M258.636,126.909 L236.364,126.909 C234.676,126.909 233.057,127.58 231.864,128.773 C230.67,129.966 230,131.585 230,133.273 C230,136.648 231.341,139.885 233.728,142.272 C236.115,144.659 239.352,146 242.727,146 L258.636,146 C260.324,146 261.943,145.33 263.136,144.136 C264.33,142.943 265,141.324 265,139.636 L265,133.273 C265,131.585 264.33,129.966 263.136,128.773 C261.943,127.58 260.324,126.909 258.636,126.909 Z" />
            <path d="M268.182,101.455 L239.545,101.455 C238.702,101.455 237.892,101.119 237.296,100.523 C236.699,99.926 236.364,99.117 236.364,98.273 L236.364,85.545 C236.364,84.702 236.699,83.892 237.296,83.296 C237.892,82.699 238.702,82.364 239.545,82.364 L268.182,82.364 C268.182,82.364 268.182,82.364 268.182,82.364 C268.182,82.364 268.182,82.364 268.182,82.364 L268.182,101.455 C268.182,101.455 268.182,101.455 268.182,101.455 C268.182,101.455 268.182,101.455 268.182,101.455 C266.722,101.455 265.449,102.448 265.095,103.865 L262.518,114.181 C262.517,114.182 262.517,114.182 262.517,114.182 L252.273,114.182 C250.515,114.182 249.091,115.606 249.091,117.364 C249.091,119.121 250.515,120.545 252.273,120.545 L262.518,120.545 C265.44,120.545 267.985,118.556 268.692,115.722 L271.269,105.408 L268.182,104.636 L268.182,107.818 C269.87,107.818 271.488,107.148 272.682,105.954 C273.875,104.761 274.545,103.142 274.545,101.455 L274.545,82.364 C274.545,80.676 273.875,79.057 272.682,77.864 C271.488,76.67 269.87,76 268.182,76 L239.545,76 C237.014,76 234.586,77.006 232.796,78.796 C231.006,80.586 230,83.014 230,85.545 L230,98.273 C230,100.804 231.006,103.232 232.796,105.022 C234.586,106.812 237.014,107.818 239.545,107.818 L268.182,107.818 C269.939,107.818 271.364,106.394 271.364,104.636 C271.364,102.879 269.939,101.455 268.182,101.455 Z" />
            <path d="M271.364,88.727 L280.909,88.727 C280.909,88.727 280.909,88.727 280.909,88.727 C280.909,88.727 280.909,88.727 280.909,88.727 L280.909,95.091 C280.909,95.091 280.909,95.091 280.909,95.091 C280.909,95.091 280.909,95.091 280.909,95.091 L271.364,95.091 C269.606,95.091 268.182,96.515 268.182,98.273 C268.182,100.03 269.606,101.455 271.364,101.455 L280.909,101.455 C282.597,101.455 284.215,100.784 285.409,99.591 C286.602,98.397 287.273,96.779 287.273,95.091 L287.273,88.727 C287.273,87.04 286.602,85.421 285.409,84.228 C284.215,83.034 282.597,82.364 280.909,82.364 L271.364,82.364 C269.606,82.364 268.182,83.788 268.182,85.545 C268.182,87.303 269.606,88.727 271.364,88.727 Z" />
            <path d="M284.091,95.091 L296.818,95.091 C298.575,95.091 300,93.666 300,91.909 C300,90.152 298.575,88.727 296.818,88.727 L284.091,88.727 C282.334,88.727 280.909,90.152 280.909,91.909 C280.909,93.666 282.334,95.091 284.091,95.091 Z" />
            <path d="M239.64,103.865 L233.277,129.319 C232.851,131.024 233.887,132.752 235.592,133.178 C237.297,133.604 239.024,132.567 239.45,130.863 L245.814,105.408 C246.24,103.703 245.204,101.976 243.499,101.55 C241.794,101.123 240.067,102.16 239.64,103.865 Z" />
            <path d="M252.178,130.863 L258.541,105.408 C258.968,103.703 257.931,101.976 256.226,101.55 C254.521,101.123 252.794,102.16 252.368,103.865 L246.004,129.319 C245.578,131.024 246.614,132.752 248.319,133.178 C250.024,133.604 251.752,132.567 252.178,130.863 Z" />
        </g>
        <g id="Regular-M" transform="translate(0,200)">
            <path d="M458.636,133.273 C458.636,133.273 458.636,133.273 458.636,133.273 C458.636,133.273 458.636,133.273 458.636,133.273 L458.636,139.636 C458.636,139.636 458.636,139.636 458.636,139.636 C458.636,139.636 458.636,139.636 458.636,139.636 L442.727,139.636 C441.04,139.636 439.421,138.966 438.228,137.772 C437.034,136.579 436.364,134.96 436.364,133.273 C436.364,133.273 436.364,133.273 436.364,133.273 C436.364,133.273 436.364,133.273 436.364,133.273 L458.636,133.273 Z M458.636,126.909 L436.364,126.909 C434.676,126.909 433.057,127.58 431.864,128.773 C430.67,129.966 430,131.585 430,133.273 C430,136.648 431.341,139.885 433.728,142.272 C436.115,144.659 439.352,146 442.727,146 L458.636,146 C460.324,146 461.943,145.33 463.136,144.136 C464.33,142.943 465,141.324 465,139.636 L465,133.273 C465,131.585 464.33,129.966 463.136,128.773 C461.943,127.58 460.324,126.909 458.636,126.909 Z" />
            <path d="M468.182,101.455 L439.545,101.455 C438.702,101.455 437.892,101.119 437.296,100.523 C436.699,99.926 436.364,99.117 436.364,98.273 L436.364,85.545 C436.364,84.702 436.699,83.892 437.296,83.296 C437.892,82.699 438.702,82.364 439.545,82.364 L468.182,82.364 C468.182,82.364 468.182,82.364 468.182,82.364 C468.182,82.364 468.182,82.364 468.182,82.364 L468.182,101.455 C468.182,101.455 468.182,101.455 468.182,101.455 C468.182,101.455 468.182,101.455 468.182,101.455 C466.722,101.455 465.449,102.448 465.095,103.865 L462.518,114.181 C462.517,114.182 462.517,114.182 462.517,114.182 L452.273,114.182 C450.515,114.182 449.091,115.606 449.091,117.364 C449.091,119.121 450.515,120.545 452.273,120.545 L462.518,120.545 C465.44,120.545 467.985,118.556 468.692,115.722 L471.269,105.408 L468.182,104.636 L468.182,107.818 C469.87,107.818 471.488,107.148 472.682,105.954 C473.875,104.761 474.545,103.142 474.545,101.455 L474.545,82.364 C474.545,80.676 473.875,79.057 472.682,77.864 C471.488,76.67 469.87,76 468.182,76 L439.545,76 C437.014,76 434.586,77.006 432.796,78.796 C431.006,80.586 430,83.014 430,85.545 L430,98.273 C430,100.804 431.006,103.232 432.796,105.022 C434.586,106.812 437.014,107.818 439.545,107.818 L468.182,107.818 C469.939,107.818 471.364,106.394 471.364,104.636 C471.364,102.879 469.939,101.455 468.182,101.455 Z" />
            <path d="M471.364,88.727 L480.909,88.727 C480.909,88.727 480.909,88.727 480.909,88.727 C480.909,88.727 480.909,88.727 480.909,88.727 L480.909,95.091 C480.909,95.091 480.909,95.091 480.909,95.091 C480.909,95.091 480.909,95.091 480.909,95.091 L471.364,95.091 C469.606,95.091 468.182,96.515 468.182,98.273 C468.182,100.03 469.606,101.455 471.364,101.455 L480.909,101.455 C482.597,101.455 484.215,100.784 485.409,99.591 C486.602,98.397 487.273,96.779 487.273,95.091 L487.273,88.727 C487.273,87.04 486.602,85.421 485.409,84.228 C484.215,83.034 482.597,82.364 480.909,82.364 L471.364,82.364 C469.606,82.364 468.182,83.788 468.182,85.545 C468.182,87.303 469.606,88.727 471.364,88.727 Z" />
            <path d="M484.091,95.091 L496.818,95.091 C498.575,95.091 500,93.666 500,91.909 C500,90.152 498.575,88.727 496.818,88.727 L484.091,88.727 C482.334,88.727 480.909,90.152 480.909,91.909 C480.909,93.666 482.334,95.091 484.091,95.091 Z" />
            <path d="M439.64,103.865 L433.277,129.319 C432.851,131.024 433.887,132.752 435.592,133.178 C437.297,133.604 439.024,132.567 439.45,130.863 L445.814,105.408 C446.24,103.703 445.204,101.976 443.499,101.55 C441.794,101.123 440.067,102.16 439.64,103.865 Z" />
            <path d="M452.178,130.863 L458.541,105.408 C458.968,103.703 457.931,101.976 456.226,101.55 C454.521,101.123 452.794,102.16 452.368,103.865 L446.004,129.319 C445.578,131.024 446.614,132.752 448.319,133.178 C450.024,133.604 451.752,132.567 452.178,130.863 Z" />
        </g>
        <g id="Black-M" transform="translate(0,200)">
            <path d="M658.636,133.273 C658.636,133.273 658.636,133.273 658.636,133.273 C658.636,133.273 658.636,133.273 658.636,133.273 L658.636,139.636 C658.636,139.636 658.636,139.636 658.636,139.636 C658.636,139.636 658.636,139.636 658.636,139.636 L642.727,139.636 C641.04,139.636 639.421,138.966 638.227,137.772 C637.034,136.579 636.364,134.96 636.364,133.273 C636.364,133.273 636.364,133.273 636.364,133.273 C636.364,133.273 636.364,133.273 636.364,133.273 L658.636,133.273 Z M658.636,126.909 L636.364,126.909 C634.676,126.909 633.057,127.58 631.864,128.773 C630.67,129.966 630,131.585 630,133.273 C630,136.648 631.341,139.885 633.728,142.272 C636.115,144.659 639.352,146 642.727,146 L658.636,146 C660.324,146 661.943,145.33 663.136,144.136 C664.33,142.943 665,141.324 665,139.636 L665,133.273 C665,131.585 664.33,129.966 663.136,128.773 C661.943,127.58 660.324,126.909 658.636,126.909 Z" />
            <path d="M668.182,101.455 L639.545,101.455 C638.702,101.455 637.892,101.119 637.296,100.523 C636.699,99.926 636.364,99.117 636.364,98.273 L636.364,85.545 C636.364,84.702 636.699,83.892 637.296,83.296 C637.892,82.699 638.702,82.364 639.545,82.364 L668.182,82.364 C668.182,82.364 668.182,82.364 668.182,82.364 C668.182,82.364 668.182,82.364 668.182,82.364 L668.182,101.455 C668.182,101.455 668.182,101.455 668.182,101.455 C668.182,101.455 668.182,101.455 668.182,101.455 C666.722,101.455 665.449,102.448 665.095,103.865 L662.518,114.181 C662.517,114.182 662.517,114.182 662.517,114.182 L652.273,114.182 C650.515,114.182 649.091,115.606 649.091,117.364 C649.091,119.121 650.515,120.545 652.273,120.545 L662.518,120.545 C665.44,120.545 667.985,118.556 668.692,115.722 L671.269,105.408 L668.182,104.636 L668.182,107.818 C669.87,107.818 671.488,107.148 672.682,105.954 C673.875,104.761 674.545,103.142 674.545,101.455 L674.545,82.364 C674.545,80.676 673.875,79.057 672.682,77.864 C671.488,76.67 669.87,76 668.182,76 L639.545,76 C637.014,76 634.586,77.006 632.796,78.796 C631.006,80.586 630,83.014 630,85.545 L630,98.273 C630,100.804 631.006,103.232 632.796,105.022 C634.586,106.812 637.014,107.818 639.545,107.818 L668.182,107.818 C669.939,107.818 671.364,106.394 671.364,104.636 C671.364,102.879 669.939,101.455 668.182,101.455 Z" />
            <path d="M671.364,88.727 L680.909,88.727 C680.909,88.727 680.909,88.727 680.909,88.727 C680.909,88.727 680.909,88.727 680.909,88.727 L680.909,95.091 C680.909,95.091 680.909,95.091 680.909,95.091 C680.909,95.091 680.909,95.091 680.909,95.091 L671.364,95.091 C669.606,95.091 668.182,96.515 668.182,98.273 C668.182,100.03 669.606,101.455 671.364,101.455 L680.909,101.455 C682.597,101.455 684.215,100.784 685.409,99.591 C686.602,98.397 687.273,96.779 687.273,95.091 L687.273,88.727 C687.273,87.04 686.602,85.421 685.409,84.228 C684.215,83.034 682.597,82.364 680.909,82.364 L671.364,82.364 C669.606,82.364 668.182,83.788 668.182,85.545 C668.182,87.303 669.606,88.727 671.364,88.727 Z" />
            <path d="M684.091,95.091 L696.818,95.091 C698.575,95.091 700,93.666 700,91.909 C700,90.152 698.575,88.727 696.818,88.727 L684.091,88.727 C682.334,88.727 680.909,90.152 680.909,91.909 C680.909,93.666 682.334,95.091 684.091,95.091 Z" />
            <path d="M639.64,103.865 L633.277,129.319 C632.851,131.024 633.887,132.752 635.592,133.178 C637.297,133.604 639.024,132.567 639.45,130.863 L645.814,105.408 C646.24,103.703 645.204,101.976 643.499,101.55 C641.794,101.123 640.067,102.16 639.64,103.865 Z" />
            <path d="M652.178,130.863 L658.541,105.408 C658.968,103.703 657.931,101.976 656.226,101.55 C654.521,101.123 652.794,102.16 652.368,103.865 L646.004,129.319 C645.578,131.024 646.614,132.752 648.319,133.178 C650.024,133.604 651.752,132.567 652.178,130.863 Z" />
        </g>
    </g>
</svg>