<?xml version="1.0" encoding="UTF-8"?>
<svg height="600" width="800" xmlns="http://www.w3.org/2000/svg" xmlns:xlink="http://www.w3.org/1999/xlink">
    <g id="Notes" font-family="LucidaGrande, 'Lucida Grande', sans-serif" font-size="13">
        <rect fill="white" height="600.0" width="800.0" x="0.0" y="0.0" />
        <g font-size="13">
            <text x="18.0" y="176.0">Small</text>
            <text x="18.0" y="376.0">Medium</text>
            <text x="18.0" y="576.0">Large</text>
        </g>
        <g font-size="9">
            <text x="250.0" y="30.0">Ultralight</text>
            <text x="450.0" y="30.0">Regular</text>
            <text x="650.0" y="30.0">Black</text>
            <text id="template-version" fill="#505050" text-anchor="end" x="785.0" y="575.0">Template v.3.0</text>
            <a href="https://github.com/swhitty/SwiftDraw">
                <text fill="#505050" text-anchor="end" x="785.0" y="590.0">https://github.com/swhitty/SwiftDraw</text>
            </a>
        </g>
    </g>
    <g id="Guides" stroke="rgb(39, 170, 225)" stroke-width="0.5">
        <path id="Capline-S" d="M18,76 l800,0" />
        <path id="H-reference" d="M85,145.755 L87.685,145.755 L113.369,79.287 L114.052,79.287 L114.052,76 L112.148,76 L85,145.755 Z M95.693,121.536 L130.996,121.536 L130.263,119.313 L96.474,119.313 L95.693,121.536 Z M139.15,145.755 L141.787,145.755 L114.638,76 L113.466,76 L113.466,79.287 L139.15,145.755 Z" stroke="none" transform="translate(0,200)" />
        <path id="Baseline-S" d="M18,146 l800,0" />
        <path id="left-margin-Ultralight-M" d="M230,256 l0,110" />
        <path id="right-margin-Ultralight-M" d="M300,256 l0,110" />
        <path id="left-margin-Regular-M" d="M430,256 l0,110" />
        <path id="right-margin-Regular-M" d="M500,256 l0,110" />
        <path id="left-margin-Black-M" d="M630,256 l0,110" />
        <path id="right-margin-Black-M" d="M700,256 l0,110" />
        <path id="Capline-M" d="M18,276 l800,0" />
        <path id="Baseline-M" d="M18,346 l800,0" />
        <path id="Capline-L" d="M18,476 l800,0" />
        <path id="Baseline-L" d="M18,546 l800,0" />
    </g>
    <g id="Symbols">
        <g id="Ultralight-M" transform="translate(0,200)">
            <path d="M280.456,115.663 C284.16,119.368 290.166,119.368 293.87,115.663 C297.575,111.959 297.575,105.953 293.87,102.249 L288.28,96.662 L283.81,101.134 C287.515,104.837 293.52,104.836 297.223,101.132 C300.927,97.427 300.925,91.422 297.221,87.719 L288.281,78.779 C284.578,75.075 278.573,75.074 274.868,78.777 C271.164,82.48 271.163,88.485 274.866,92.19 L279.338,87.72 L273.752,82.13 C270.047,78.425 264.041,78.425 260.337,82.13 C256.632,85.834 256.632,91.84 260.337,95.544 L280.456,115.663 Z M284.927,111.193 L264.807,91.073 C263.572,89.838 263.572,87.836 264.807,86.601 C266.043,85.366 268.045,85.366 269.28,86.601 L274.866,92.189 C277.846,95.171 282.318,90.701 279.338,87.72 C278.103,86.485 278.104,84.483 279.338,83.248 C280.573,82.014 282.575,82.014 283.81,83.249 L292.75,92.19 C293.986,93.425 293.986,95.427 292.752,96.662 C291.517,97.896 289.515,97.897 288.28,96.662 C285.299,93.682 280.829,98.154 283.811,101.134 L289.4,106.72 C290.634,107.955 290.634,109.957 289.399,111.193 C288.164,112.428 286.162,112.428 284.927,111.193 Z" />
            <path d="M237.202,143.269 L241.628,138.843 C242.863,137.608 242.863,135.606 241.628,134.372 C240.394,133.137 238.392,133.137 237.157,134.372 L232.731,138.798 C231.497,140.032 231.497,142.034 232.731,143.269 C233.966,144.503 235.968,144.503 237.202,143.269 Z" />
            <path d="M292.843,87.628 L297.269,83.202 C298.503,81.968 298.503,79.966 297.269,78.731 C296.034,77.497 294.032,77.497 292.798,78.731 L288.372,83.157 C287.137,84.392 287.137,86.394 288.372,87.628 C289.606,88.863 291.608,88.863 292.843,87.628 Z" />
            <path d="M241.719,143.221 C245.422,146.925 251.427,146.926 255.132,143.223 C258.836,139.52 258.837,133.515 255.134,129.81 L250.662,134.28 L256.248,139.87 C259.953,143.575 265.959,143.575 269.663,139.87 C273.368,136.166 273.368,130.16 269.663,126.456 L249.544,106.337 C247.149,103.94 243.655,103.003 240.381,103.88 C237.107,104.758 234.55,107.315 233.673,110.589 C232.797,113.863 233.733,117.356 236.131,119.752 L241.72,125.338 L246.19,120.866 C242.486,117.163 236.48,117.164 232.777,120.869 C229.074,124.573 229.075,130.579 232.78,134.282 L241.719,143.221 Z M246.19,138.75 L237.25,129.81 C236.015,128.576 236.014,126.574 237.249,125.339 C238.483,124.104 240.485,124.104 241.72,125.338 C244.701,128.318 249.171,123.846 246.19,120.866 L240.601,115.28 C239.801,114.481 239.489,113.316 239.781,112.225 C240.073,111.133 240.926,110.28 242.018,109.988 C243.109,109.695 244.274,110.008 245.073,110.807 L265.193,130.927 C266.428,132.162 266.428,134.164 265.193,135.399 C263.957,136.634 261.955,136.634 260.72,135.399 L255.134,129.811 C252.154,126.829 247.682,131.299 250.662,134.28 C251.897,135.515 251.896,137.517 250.662,138.752 C249.427,139.986 247.425,139.986 246.19,138.751 Z" />
            <path d="M259.648,120.823 L274.823,105.648 C276.057,104.413 276.057,102.412 274.823,101.177 C273.588,99.943 271.587,99.943 270.352,101.177 L255.177,116.352 C253.943,117.587 253.943,119.588 255.177,120.823 C256.412,122.057 258.413,122.057 259.648,120.823 Z" />
        </g>
        <g id="Regular-M" transform="translate(0,200)">
            <path d="M480.456,115.663 C484.16,119.368 490.166,119.368 493.87,115.663 C497.575,111.959 497.575,105.953 493.87,102.249 L488.28,96.662 L483.81,101.134 C487.515,104.837 493.52,104.836 497.223,101.132 C500.927,97.427 500.925,91.422 497.221,87.719 L488.281,78.779 C484.578,75.075 478.573,75.074 474.868,78.777 C471.164,82.48 471.163,88.485 474.866,92.19 L479.338,87.72 L473.752,82.13 C470.047,78.425 464.041,78.425 460.337,82.13 C456.632,85.834 456.632,91.84 460.337,95.544 L480.456,115.663 Z M484.927,111.193 L464.807,91.073 C463.572,89.838 463.572,87.836 464.807,86.601 C466.043,85.366 468.045,85.366 469.28,86.601 L474.866,92.189 C477.846,95.171 482.318,90.701 479.338,87.72 C478.103,86.485 478.104,84.483 479.338,83.248 C480.573,82.014 482.575,82.014 483.81,83.249 L492.75,92.19 C493.986,93.425 493.986,95.427 492.752,96.662 C491.517,97.896 489.515,97.897 488.28,96.662 C485.299,93.682 480.829,98.154 483.811,101.134 L489.4,106.72 C490.634,107.955 490.634,109.957 489.399,111.193 C488.164,112.428 486.162,112.428 484.927,111.193 Z" />
            <path d="M437.202,143.269 L441.628,138.843 C442.863,137.608 442.863,135.606 441.628,134.372 C440.394,133.137 438.392,133.137 437.157,134.372 L432.731,138.798 C431.497,140.032 431.497,142.034 432.731,143.269 C433.966,144.503 435.968,144.503 437.202,143.269 Z" />
            <path d="M492.843,87.628 L497.269,83.202 C498.503,81.968 498.503,79.966 497.269,78.731 C496.034,77.497 494.032,77.497 492.798,78.731 L488.372,83.157 C487.137,84.392 487.137,86.394 488.372,87.628 C489.606,88.863 491.608,88.863 492.843,87.628 Z" />
            <path d="M441.719,143.221 C445.422,146.925 451.427,146.926 455.132,143.223 C458.836,139.52 458.837,133.515 455.134,129.81 L450.662,134.28 L456.248,139.87 C459.953,143.575 465.959,143.575 469.663,139.87 C473.368,136.166 473.368,130.16 469.663,126.456 L449.544,106.337 C447.149,103.94 443.655,103.003 440.381,103.88 C437.107,104.758 434.55,107.315 433.673,110.589 C432.797,113.863 433.733,117.356 436.131,119.752 L441.72,125.338 L446.19,120.866 C442.486,117.163 436.48,117.164 432.777,120.869 C429.074,124.573 429.075,130.579 432.78,134.282 L441.719,143.221 Z M446.19,138.75 L437.25,129.81 C436.015,128.576 436.014,126.574 437.249,125.339 C438.483,124.104 440.485,124.104 441.72,125.338 C444.701,128.318 449.171,123.846 446.19,120.866 L440.601,115.28 C439.801,114.481 439.489,113.316 439.781,112.225 C440.073,111.133 440.926,110.28 442.018,109.988 C443.109,109.695 444.274,110.008 445.073,110.807 L465.193,130.927 C466.428,132.162 466.428,134.164 465.193,135.399 C463.957,136.634 461.955,136.634 460.72,135.399 L455.134,129.811 C452.154,126.829 447.682,131.299 450.662,134.28 C451.897,135.515 451.896,137.517 450.662,138.752 C449.427,139.986 447.425,139.986 446.19,138.751 Z" />
            <path d="M459.648,120.823 L474.823,105.648 C476.057,104.413 476.057,102.412 474.823,101.177 C473.588,99.943 471.587,99.943 470.352,101.177 L455.177,116.352 C453.943,117.587 453.943,119.588 455.177,120.823 C456.412,122.057 458.413,122.057 459.648,120.823 Z" />
        </g>
        <g id="Black-M" transform="translate(0,200)">
            <path d="M680.456,115.663 C684.16,119.368 690.166,119.368 693.87,115.663 C697.575,111.959 697.575,105.953 693.87,102.249 L688.28,96.662 L683.81,101.134 C687.515,104.837 693.52,104.836 697.223,101.132 C700.927,97.427 700.925,91.422 697.221,87.719 L688.281,78.779 C684.578,75.075 678.573,75.074 674.868,78.777 C671.164,82.48 671.163,88.485 674.866,92.19 L679.338,87.72 L673.752,82.13 C670.047,78.425 664.041,78.425 660.337,82.13 C656.632,85.834 656.632,91.84 660.337,95.544 L680.456,115.663 Z M684.927,111.193 L664.807,91.073 C663.572,89.838 663.572,87.836 664.807,86.601 C666.043,85.366 668.045,85.366 669.28,86.601 L674.866,92.189 C677.846,95.171 682.318,90.701 679.338,87.72 C678.103,86.485 678.104,84.483 679.339,83.248 C680.573,82.014 682.575,82.014 683.81,83.249 L692.75,92.19 C693.986,93.425 693.986,95.427 692.752,96.662 C691.517,97.896 689.515,97.897 688.28,96.662 C685.299,93.682 680.829,98.154 683.811,101.134 L689.4,106.72 C690.634,107.955 690.634,109.957 689.399,111.193 C688.164,112.428 686.162,112.428 684.927,111.193 Z" />
            <path d="M637.202,143.269 L641.628,138.843 C642.863,137.608 642.863,135.606 641.628,134.372 C640.393,133.137 638.392,133.137 637.157,134.372 L632.731,138.798 C631.497,140.032 631.497,142.034 632.731,143.269 C633.966,144.503 635.968,144.503 637.202,143.269 Z" />
            <path d="M692.843,87.628 L697.269,83.202 C698.503,81.968 698.503,79.966 697.269,78.731 C696.034,77.497 694.032,77.497 692.798,78.731 L688.372,83.157 C687.137,84.392 687.137,86.394 688.372,87.628 C689.607,88.863 691.608,88.863 692.843,87.628 Z" />
            <path d="M641.719,143.221 C645.422,146.925 651.427,146.926 655.132,143.223 C658.836,139.52 658.837,133.515 655.134,129.81 L650.662,134.28 L656.248,139.87 C659.953,143.575 665.959,143.575 669.663,139.87 C673.368,136.166 673.368,130.16 669.663,126.456 L649.544,106.337 C647.149,103.94 643.655,103.003 640.381,103.88 C637.107,104.758 634.55,107.315 633.673,110.589 C632.797,113.863 633.733,117.356 636.131,119.752 L641.72,125.338 L646.19,120.866 C642.486,117.163 636.48,117.164 632.777,120.869 C629.074,124.573 629.075,130.579 632.78,134.282 L641.719,143.221 Z M646.19,138.75 L637.25,129.81 C636.015,128.576 636.014,126.574 637.249,125.339 C638.483,124.104 640.485,124.104 641.72,125.338 C644.701,128.318 649.171,123.846 646.19,120.866 L640.601,115.28 C639.801,114.481 639.489,113.316 639.781,112.225 C640.073,111.133 640.926,110.28 642.018,109.988 C643.109,109.695 644.274,110.008 645.073,110.807 L665.193,130.927 C666.428,132.162 666.428,134.164 665.193,135.399 C663.957,136.634 661.955,136.634 660.72,135.399 L655.134,129.811 C652.154,126.829 647.682,131.299 650.662,134.28 C651.897,135.515 651.896,137.517 650.662,138.752 C649.427,139.986 647.425,139.986 646.19,138.751 Z" />
            <path d="M659.648,120.823 L674.823,105.648 C676.057,104.413 676.057,102.412 674.823,101.177 C673.588,99.943 671.586,99.943 670.352,101.177 L655.177,116.352 C653.943,117.587 653.943,119.588 655.177,120.823 C656.412,122.057 658.414,122.057 659.648,120.823 Z" />
        </g>
    </g>
</svg>