<?xml version="1.0" encoding="UTF-8"?>
<svg height="600" width="800" xmlns="http://www.w3.org/2000/svg" xmlns:xlink="http://www.w3.org/1999/xlink">
    <g id="Notes" font-family="LucidaGrande, 'Lucida Grande', sans-serif" font-size="13">
        <rect fill="white" height="600.0" width="800.0" x="0.0" y="0.0" />
        <g font-size="13">
            <text x="18.0" y="176.0">Small</text>
            <text x="18.0" y="376.0">Medium</text>
            <text x="18.0" y="576.0">Large</text>
        </g>
        <g font-size="9">
            <text x="250.0" y="30.0">Ultralight</text>
            <text x="450.0" y="30.0">Regular</text>
            <text x="650.0" y="30.0">Black</text>
            <text id="template-version" fill="#505050" text-anchor="end" x="785.0" y="575.0">Template v.3.0</text>
            <a href="https://github.com/swhitty/SwiftDraw">
                <text fill="#505050" text-anchor="end" x="785.0" y="590.0">https://github.com/swhitty/SwiftDraw</text>
            </a>
        </g>
    </g>
    <g id="Guides" stroke="rgb(39, 170, 225)" stroke-width="0.5">
        <path id="Capline-S" d="M18,76 l800,0" />
        <path id="H-reference" d="M85,145.755 L87.685,145.755 L113.369,79.287 L114.052,79.287 L114.052,76 L112.148,76 L85,145.755 Z M95.693,121.536 L130.996,121.536 L130.263,119.313 L96.474,119.313 L95.693,121.536 Z M139.15,145.755 L141.787,145.755 L114.638,76 L113.466,76 L113.466,79.287 L139.15,145.755 Z" stroke="none" transform="translate(0,200)" />
        <path id="Baseline-S" d="M18,146 l800,0" />
        <path id="left-margin-Ultralight-M" d="M230,256 l0,110" />
        <path id="right-margin-Ultralight-M" d="M300,256 l0,110" />
        <path id="left-margin-Regular-M" d="M430,256 l0,110" />
        <path id="right-margin-Regular-M" d="M500,256 l0,110" />
        <path id="left-margin-Black-M" d="M630,256 l0,110" />
        <path id="right-margin-Black-M" d="M700,256 l0,110" />
        <path id="Capline-M" d="M18,276 l800,0" />
        <path id="Baseline-M" d="M18,346 l800,0" />
        <path id="Capline-L" d="M18,476 l800,0" />
        <path id="Baseline-L" d="M18,546 l800,0" />
    </g>
    <g id="Symbols">
        <g id="Ultralight-M" transform="translate(0,200)">
            <path d="M242.727,131.686 C242.727,139.591 249.138,146 257.045,146 C264.953,146 271.364,139.591 271.364,131.686 C271.364,128.528 272.777,126.423 276.718,123.116 C278.064,121.987 278.24,119.98 277.11,118.635 C275.98,117.289 273.973,117.114 272.627,118.243 C267.384,122.642 265,126.193 265,131.686 C265,136.078 261.439,139.638 257.045,139.638 C252.652,139.638 249.091,136.078 249.091,131.686 C249.091,129.929 247.666,128.505 245.909,128.505 C244.152,128.505 242.727,129.929 242.727,131.686 Z" />
            <path d="M249.091,99.876 C249.091,97.908 249.424,95.966 250.064,94.101 C250.635,92.44 249.75,90.63 248.088,90.06 C246.426,89.49 244.616,90.374 244.045,92.036 C243.18,94.557 242.727,97.196 242.727,99.876 C242.727,101.633 244.152,103.057 245.909,103.057 C247.666,103.057 249.091,101.633 249.091,99.876 Z" />
            <path d="M256.629,85.473 C261.983,81.767 268.953,81.34 274.72,84.364 C280.486,87.388 284.097,93.363 284.091,99.873 C284.091,104.037 283.102,107.23 281.179,110.04 C280.186,111.49 280.558,113.47 282.008,114.462 C283.458,115.454 285.438,115.083 286.431,113.633 C289.077,109.765 290.455,105.32 290.455,99.876 C290.463,91.001 285.539,82.853 277.675,78.73 C269.812,74.606 260.308,75.189 253.007,80.242 C251.562,81.242 251.202,83.224 252.202,84.668 C253.202,86.113 255.185,86.473 256.629,85.473 Z" />
            <path d="M266.591,95.104 C267.857,95.104 269.071,95.607 269.966,96.502 C270.861,97.397 271.364,98.61 271.364,99.876 C271.364,101.633 272.788,103.057 274.545,103.057 C276.303,103.057 277.727,101.633 277.727,99.876 C277.727,96.923 276.554,94.091 274.466,92.003 C272.377,89.916 269.544,88.743 266.591,88.743 C264.834,88.743 263.409,90.167 263.409,91.924 C263.409,93.68 264.834,95.104 266.591,95.104 Z M258.643,117.371 C262.393,117.363 265.792,115.161 267.329,111.741 C268.05,110.139 267.335,108.256 265.732,107.535 C264.129,106.815 262.246,107.53 261.525,109.133 C261.013,110.272 259.88,111.007 258.63,111.009 C256.872,111.013 255.451,112.44 255.455,114.197 C255.458,115.954 256.886,117.375 258.643,117.371 Z" />
            <path d="M230.932,81.449 L294.568,145.068 C295.811,146.311 297.826,146.311 299.068,145.068 C300.311,143.826 300.311,141.812 299.068,140.57 L235.432,76.95 C234.189,75.708 232.175,75.708 230.932,76.95 C229.689,78.193 229.689,80.207 230.932,81.449 Z" />
        </g>
        <g id="Regular-M" transform="translate(0,200)">
            <path d="M442.727,131.686 C442.727,139.591 449.138,146 457.045,146 C464.953,146 471.364,139.591 471.364,131.686 C471.364,128.528 472.777,126.423 476.718,123.116 C478.064,121.987 478.24,119.98 477.11,118.635 C475.98,117.289 473.973,117.114 472.627,118.243 C467.384,122.642 465,126.193 465,131.686 C465,136.078 461.439,139.638 457.045,139.638 C452.652,139.638 449.091,136.078 449.091,131.686 C449.091,129.929 447.666,128.505 445.909,128.505 C444.152,128.505 442.727,129.929 442.727,131.686 Z" />
            <path d="M449.091,99.876 C449.091,97.908 449.424,95.966 450.064,94.101 C450.635,92.44 449.75,90.63 448.088,90.06 C446.426,89.49 444.616,90.374 444.045,92.036 C443.18,94.557 442.727,97.196 442.727,99.876 C442.727,101.633 444.152,103.057 445.909,103.057 C447.666,103.057 449.091,101.633 449.091,99.876 Z" />
            <path d="M456.629,85.473 C461.983,81.767 468.953,81.34 474.72,84.364 C480.486,87.388 484.097,93.363 484.091,99.873 C484.091,104.037 483.102,107.23 481.179,110.04 C480.186,111.49 480.558,113.47 482.008,114.462 C483.458,115.454 485.438,115.083 486.431,113.633 C489.077,109.765 490.455,105.32 490.455,99.876 C490.463,91.001 485.539,82.853 477.675,78.73 C469.812,74.606 460.308,75.189 453.007,80.242 C451.562,81.242 451.202,83.224 452.202,84.668 C453.202,86.113 455.185,86.473 456.629,85.473 Z" />
            <path d="M466.591,95.104 C467.857,95.104 469.071,95.607 469.966,96.502 C470.861,97.397 471.364,98.61 471.364,99.876 C471.364,101.633 472.788,103.057 474.545,103.057 C476.303,103.057 477.727,101.633 477.727,99.876 C477.727,96.923 476.554,94.091 474.466,92.003 C472.377,89.916 469.544,88.743 466.591,88.743 C464.834,88.743 463.409,90.167 463.409,91.924 C463.409,93.68 464.834,95.104 466.591,95.104 Z M458.643,117.371 C462.393,117.363 465.792,115.161 467.329,111.741 C468.05,110.139 467.335,108.256 465.732,107.535 C464.129,106.815 462.246,107.53 461.525,109.133 C461.013,110.272 459.88,111.007 458.63,111.009 C456.872,111.013 455.451,112.44 455.455,114.197 C455.458,115.954 456.886,117.375 458.643,117.371 Z" />
            <path d="M430.932,81.449 L494.568,145.068 C495.811,146.311 497.826,146.311 499.068,145.068 C500.311,143.826 500.311,141.812 499.068,140.57 L435.432,76.95 C434.189,75.708 432.174,75.708 430.932,76.95 C429.689,78.193 429.689,80.207 430.932,81.449 Z" />
        </g>
        <g id="Black-M" transform="translate(0,200)">
            <path d="M642.727,131.686 C642.727,139.591 649.138,146 657.045,146 C664.953,146 671.364,139.591 671.364,131.686 C671.364,128.528 672.777,126.423 676.718,123.116 C678.064,121.987 678.24,119.98 677.11,118.635 C675.98,117.289 673.973,117.114 672.627,118.243 C667.384,122.642 665,126.193 665,131.686 C665,136.078 661.439,139.638 657.045,139.638 C652.652,139.638 649.091,136.078 649.091,131.686 C649.091,129.929 647.666,128.505 645.909,128.505 C644.152,128.505 642.727,129.929 642.727,131.686 Z" />
            <path d="M649.091,99.876 C649.091,97.908 649.424,95.966 650.064,94.101 C650.635,92.44 649.75,90.63 648.088,90.06 C646.426,89.49 644.616,90.374 644.045,92.036 C643.18,94.557 642.727,97.196 642.727,99.876 C642.727,101.633 644.152,103.057 645.909,103.057 C647.666,103.057 649.091,101.633 649.091,99.876 Z" />
            <path d="M656.629,85.473 C661.983,81.767 668.953,81.34 674.72,84.364 C680.486,87.388 684.097,93.363 684.091,99.873 C684.091,104.037 683.102,107.23 681.179,110.04 C680.186,111.49 680.558,113.47 682.008,114.462 C683.458,115.454 685.438,115.083 686.431,113.633 C689.077,109.765 690.455,105.32 690.455,99.876 C690.463,91.001 685.539,82.853 677.675,78.73 C669.812,74.606 660.308,75.189 653.007,80.242 C651.562,81.242 651.202,83.224 652.202,84.668 C653.202,86.113 655.185,86.473 656.629,85.473 Z" />
            <path d="M666.591,95.104 C667.857,95.104 669.071,95.607 669.966,96.502 C670.861,97.397 671.364,98.61 671.364,99.876 C671.364,101.633 672.788,103.057 674.545,103.057 C676.303,103.057 677.727,101.633 677.727,99.876 C677.727,96.923 676.554,94.091 674.466,92.003 C672.377,89.916 669.544,88.743 666.591,88.743 C664.834,88.743 663.409,90.167 663.409,91.924 C663.409,93.68 664.834,95.104 666.591,95.104 Z M658.643,117.371 C662.393,117.363 665.792,115.161 667.329,111.741 C668.05,110.139 667.335,108.256 665.732,107.535 C664.129,106.815 662.246,107.53 661.525,109.133 C661.013,110.272 659.88,111.007 658.63,111.009 C656.872,111.013 655.451,112.44 655.455,114.197 C655.458,115.954 656.886,117.375 658.643,117.371 Z" />
            <path d="M630.932,81.449 L694.568,145.068 C695.811,146.311 697.826,146.311 699.068,145.068 C700.311,143.826 700.311,141.812 699.068,140.57 L635.432,76.95 C634.189,75.708 632.174,75.708 630.932,76.95 C629.689,78.193 629.689,80.207 630.932,81.449 Z" />
        </g>
    </g>
</svg>