<?xml version="1.0" encoding="UTF-8"?>
<svg height="600" width="800" xmlns="http://www.w3.org/2000/svg" xmlns:xlink="http://www.w3.org/1999/xlink">
    <g id="Notes" font-family="LucidaGrande, 'Lucida Grande', sans-serif" font-size="13">
        <rect fill="white" height="600.0" width="800.0" x="0.0" y="0.0" />
        <g font-size="13">
            <text x="18.0" y="176.0">Small</text>
            <text x="18.0" y="376.0">Medium</text>
            <text x="18.0" y="576.0">Large</text>
        </g>
        <g font-size="9">
            <text x="250.0" y="30.0">Ultralight</text>
            <text x="450.0" y="30.0">Regular</text>
            <text x="650.0" y="30.0">Black</text>
            <text id="template-version" fill="#505050" text-anchor="end" x="785.0" y="575.0">Template v.3.0</text>
            <a href="https://github.com/swhitty/SwiftDraw">
                <text fill="#505050" text-anchor="end" x="785.0" y="590.0">https://github.com/swhitty/SwiftDraw</text>
            </a>
        </g>
    </g>
    <g id="Guides" stroke="rgb(39, 170, 225)" stroke-width="0.5">
        <path id="Capline-S" d="M18,76 l800,0" />
        <path id="H-reference" d="M85,145.755 L87.685,145.755 L113.369,79.287 L114.052,79.287 L114.052,76 L112.148,76 L85,145.755 Z M95.693,121.536 L130.996,121.536 L130.263,119.313 L96.474,119.313 L95.693,121.536 Z M139.15,145.755 L141.787,145.755 L114.638,76 L113.466,76 L113.466,79.287 L139.15,145.755 Z" stroke="none" transform="translate(0,200)" />
        <path id="Baseline-S" d="M18,146 l800,0" />
        <path id="left-margin-Ultralight-M" d="M230,256 l0,110" />
        <path id="right-margin-Ultralight-M" d="M300,256 l0,110" />
        <path id="left-margin-Regular-M" d="M430,256 l0,110" />
        <path id="right-margin-Regular-M" d="M500,256 l0,110" />
        <path id="left-margin-Black-M" d="M630,256 l0,110" />
        <path id="right-margin-Black-M" d="M700,256 l0,110" />
        <path id="Capline-M" d="M18,276 l800,0" />
        <path id="Baseline-M" d="M18,346 l800,0" />
        <path id="Capline-L" d="M18,476 l800,0" />
        <path id="Baseline-L" d="M18,546 l800,0" />
    </g>
    <g id="Symbols">
        <g id="Ultralight-M" transform="translate(0,200)">
            <path d="M295.355,117.364 L280.909,117.364 C278.377,117.364 275.95,118.369 274.159,120.159 C272.369,121.95 271.364,124.377 271.364,126.909 L271.364,141.355 C271.364,143.112 272.788,144.536 274.545,144.536 C276.303,144.536 277.727,143.112 277.727,141.355 L277.727,126.909 C277.727,126.065 278.062,125.256 278.659,124.659 C279.256,124.062 280.065,123.727 280.909,123.727 L295.355,123.727 C297.112,123.727 298.536,122.303 298.536,120.545 C298.536,118.788 297.112,117.364 295.355,117.364 Z" />
            <path d="M245.909,83.445 L245.909,88.727 C245.909,92.103 247.25,95.34 249.637,97.727 C252.024,100.114 255.261,101.455 258.636,101.455 C259.48,101.455 260.29,101.79 260.886,102.386 C261.483,102.983 261.818,103.792 261.818,104.636 C261.818,109.894 266.106,114.182 271.364,114.182 C276.635,114.182 280.909,109.908 280.909,104.636 C280.909,102.894 282.348,101.455 284.091,101.455 L294.177,101.455 C295.935,101.455 297.359,100.03 297.359,98.273 C297.359,96.515 295.935,95.091 294.177,95.091 L284.091,95.091 C278.834,95.091 274.545,99.379 274.545,104.636 C274.545,106.394 273.121,107.818 271.364,107.818 C269.621,107.818 268.182,106.379 268.182,104.636 C268.182,102.105 267.176,99.677 265.386,97.887 C263.596,96.097 261.168,95.091 258.636,95.091 C256.949,95.091 255.33,94.42 254.137,93.227 C252.943,92.034 252.273,90.415 252.273,88.727 L252.273,83.445 C252.273,81.688 250.848,80.264 249.091,80.264 C247.334,80.264 245.909,81.688 245.909,83.445 Z" />
            <path d="M265,142.659 L265,130.091 C265,127.559 263.994,125.131 262.204,123.341 C260.414,121.551 257.986,120.545 255.455,120.545 C254.611,120.545 253.801,120.21 253.205,119.614 C252.608,119.017 252.273,118.208 252.273,117.364 L252.273,114.182 C252.273,111.65 251.267,109.222 249.477,107.432 C247.687,105.642 245.259,104.636 242.727,104.636 L233.341,104.636 C231.584,104.636 230.159,106.061 230.159,107.818 C230.159,109.575 231.584,111 233.341,111 L242.727,111 C243.571,111 244.38,111.335 244.977,111.932 C245.574,112.529 245.909,113.338 245.909,114.182 L245.909,117.364 C245.909,119.895 246.915,122.323 248.705,124.113 C250.495,125.903 252.923,126.909 255.455,126.909 C256.298,126.909 257.108,127.244 257.704,127.841 C258.301,128.438 258.636,129.247 258.636,130.091 L258.636,142.659 C258.636,144.416 260.061,145.841 261.818,145.841 C263.575,145.841 265,144.416 265,142.659 Z" />
            <path d="M236.364,111 C236.364,95.185 249.185,82.364 265,82.364 C280.815,82.364 293.636,95.185 293.636,111 C293.636,126.815 280.815,139.636 265,139.636 C249.185,139.636 236.364,126.815 236.364,111 Z M230,111 C230,130.33 245.67,146 265,146 C284.33,146 300,130.33 300,111 C300,91.67 284.33,76 265,76 C245.67,76 230,91.67 230,111 Z" />
        </g>
        <g id="Regular-M" transform="translate(0,200)">
            <path d="M495.355,117.364 L480.909,117.364 C478.377,117.364 475.95,118.369 474.159,120.159 C472.369,121.95 471.364,124.377 471.364,126.909 L471.364,141.355 C471.364,143.112 472.788,144.536 474.545,144.536 C476.303,144.536 477.727,143.112 477.727,141.355 L477.727,126.909 C477.727,126.065 478.062,125.256 478.659,124.659 C479.256,124.062 480.065,123.727 480.909,123.727 L495.355,123.727 C497.112,123.727 498.536,122.303 498.536,120.545 C498.536,118.788 497.112,117.364 495.355,117.364 Z" />
            <path d="M445.909,83.445 L445.909,88.727 C445.909,92.103 447.25,95.34 449.637,97.727 C452.024,100.114 455.261,101.455 458.636,101.455 C459.48,101.455 460.29,101.79 460.886,102.386 C461.483,102.983 461.818,103.792 461.818,104.636 C461.818,109.894 466.106,114.182 471.364,114.182 C476.635,114.182 480.909,109.908 480.909,104.636 C480.909,102.894 482.348,101.455 484.091,101.455 L494.177,101.455 C495.935,101.455 497.359,100.03 497.359,98.273 C497.359,96.515 495.935,95.091 494.177,95.091 L484.091,95.091 C478.834,95.091 474.545,99.379 474.545,104.636 C474.545,106.394 473.121,107.818 471.364,107.818 C469.621,107.818 468.182,106.379 468.182,104.636 C468.182,102.105 467.176,99.677 465.386,97.887 C463.596,96.097 461.168,95.091 458.636,95.091 C456.949,95.091 455.33,94.42 454.137,93.227 C452.943,92.034 452.273,90.415 452.273,88.727 L452.273,83.445 C452.273,81.688 450.848,80.264 449.091,80.264 C447.334,80.264 445.909,81.688 445.909,83.445 Z" />
            <path d="M465,142.659 L465,130.091 C465,127.559 463.994,125.131 462.204,123.341 C460.414,121.551 457.986,120.545 455.455,120.545 C454.611,120.545 453.801,120.21 453.205,119.614 C452.608,119.017 452.273,118.208 452.273,117.364 L452.273,114.182 C452.273,111.65 451.267,109.222 449.477,107.432 C447.687,105.642 445.259,104.636 442.727,104.636 L433.341,104.636 C431.584,104.636 430.159,106.061 430.159,107.818 C430.159,109.575 431.584,111 433.341,111 L442.727,111 C443.571,111 444.38,111.335 444.977,111.932 C445.574,112.529 445.909,113.338 445.909,114.182 L445.909,117.364 C445.909,119.895 446.915,122.323 448.705,124.113 C450.495,125.903 452.923,126.909 455.455,126.909 C456.298,126.909 457.108,127.244 457.704,127.841 C458.301,128.438 458.636,129.247 458.636,130.091 L458.636,142.659 C458.636,144.416 460.061,145.841 461.818,145.841 C463.575,145.841 465,144.416 465,142.659 Z" />
            <path d="M436.364,111 C436.364,95.185 449.185,82.364 465,82.364 C480.815,82.364 493.636,95.185 493.636,111 C493.636,126.815 480.815,139.636 465,139.636 C449.185,139.636 436.364,126.815 436.364,111 Z M430,111 C430,130.33 445.67,146 465,146 C484.33,146 500,130.33 500,111 C500,91.67 484.33,76 465,76 C445.67,76 430,91.67 430,111 Z" />
        </g>
        <g id="Black-M" transform="translate(0,200)">
            <path d="M695.355,117.364 L680.909,117.364 C678.378,117.364 675.95,118.369 674.159,120.159 C672.369,121.95 671.364,124.377 671.364,126.909 L671.364,141.355 C671.364,143.112 672.788,144.536 674.545,144.536 C676.303,144.536 677.727,143.112 677.727,141.355 L677.727,126.909 C677.727,126.065 678.062,125.256 678.659,124.659 C679.256,124.062 680.065,123.727 680.909,123.727 L695.355,123.727 C697.112,123.727 698.536,122.303 698.536,120.545 C698.536,118.788 697.112,117.364 695.355,117.364 Z" />
            <path d="M645.909,83.445 L645.909,88.727 C645.909,92.103 647.25,95.34 649.637,97.727 C652.024,100.114 655.261,101.455 658.636,101.455 C659.48,101.455 660.29,101.79 660.886,102.386 C661.483,102.983 661.818,103.792 661.818,104.636 C661.818,109.894 666.106,114.182 671.364,114.182 C676.635,114.182 680.909,109.908 680.909,104.636 C680.909,102.894 682.348,101.455 684.091,101.455 L694.177,101.455 C695.935,101.455 697.359,100.03 697.359,98.273 C697.359,96.515 695.935,95.091 694.177,95.091 L684.091,95.091 C678.834,95.091 674.545,99.379 674.545,104.636 C674.545,106.394 673.121,107.818 671.364,107.818 C669.621,107.818 668.182,106.379 668.182,104.636 C668.182,102.105 667.176,99.677 665.386,97.887 C663.596,96.097 661.168,95.091 658.636,95.091 C656.949,95.091 655.33,94.42 654.137,93.227 C652.943,92.034 652.273,90.415 652.273,88.727 L652.273,83.445 C652.273,81.688 650.848,80.264 649.091,80.264 C647.334,80.264 645.909,81.688 645.909,83.445 Z" />
            <path d="M665,142.659 L665,130.091 C665,127.559 663.994,125.131 662.204,123.341 C660.414,121.551 657.986,120.545 655.455,120.545 C654.611,120.545 653.801,120.21 653.205,119.614 C652.608,119.017 652.273,118.208 652.273,117.364 L652.273,114.182 C652.273,111.65 651.267,109.222 649.477,107.432 C647.687,105.642 645.259,104.636 642.727,104.636 L633.341,104.636 C631.584,104.636 630.159,106.061 630.159,107.818 C630.159,109.575 631.584,111 633.341,111 L642.727,111 C643.571,111 644.38,111.335 644.977,111.932 C645.574,112.529 645.909,113.338 645.909,114.182 L645.909,117.364 C645.909,119.895 646.915,122.323 648.705,124.113 C650.495,125.903 652.923,126.909 655.455,126.909 C656.298,126.909 657.108,127.244 657.704,127.841 C658.301,128.438 658.636,129.247 658.636,130.091 L658.636,142.659 C658.636,144.416 660.061,145.841 661.818,145.841 C663.575,145.841 665,144.416 665,142.659 Z" />
            <path d="M636.364,111 C636.364,95.185 649.185,82.364 665,82.364 C680.815,82.364 693.636,95.185 693.636,111 C693.636,126.815 680.815,139.636 665,139.636 C649.185,139.636 636.364,126.815 636.364,111 Z M630,111 C630,130.33 645.67,146 665,146 C684.33,146 700,130.33 700,111 C700,91.67 684.33,76 665,76 C645.67,76 630,91.67 630,111 Z" />
        </g>
    </g>
</svg>