<?xml version="1.0" encoding="UTF-8"?>
<svg height="600" width="800" xmlns="http://www.w3.org/2000/svg" xmlns:xlink="http://www.w3.org/1999/xlink">
    <g id="Notes" font-family="LucidaGrande, 'Lucida Grande', sans-serif" font-size="13">
        <rect fill="white" height="600.0" width="800.0" x="0.0" y="0.0" />
        <g font-size="13">
            <text x="18.0" y="176.0">Small</text>
            <text x="18.0" y="376.0">Medium</text>
            <text x="18.0" y="576.0">Large</text>
        </g>
        <g font-size="9">
            <text x="250.0" y="30.0">Ultralight</text>
            <text x="450.0" y="30.0">Regular</text>
            <text x="650.0" y="30.0">Black</text>
            <text id="template-version" fill="#505050" text-anchor="end" x="785.0" y="575.0">Template v.3.0</text>
            <a href="https://github.com/swhitty/SwiftDraw">
                <text fill="#505050" text-anchor="end" x="785.0" y="590.0">https://github.com/swhitty/SwiftDraw</text>
            </a>
        </g>
    </g>
    <g id="Guides" stroke="rgb(39, 170, 225)" stroke-width="0.5">
        <path id="Capline-S" d="M18,76 l800,0" />
        <path id="H-reference" d="M85,145.755 L87.685,145.755 L113.369,79.287 L114.052,79.287 L114.052,76 L112.148,76 L85,145.755 Z M95.693,121.536 L130.996,121.536 L130.263,119.313 L96.474,119.313 L95.693,121.536 Z M139.15,145.755 L141.787,145.755 L114.638,76 L113.466,76 L113.466,79.287 L139.15,145.755 Z" stroke="none" transform="translate(0,200)" />
        <path id="Baseline-S" d="M18,146 l800,0" />
        <path id="left-margin-Ultralight-M" d="M236.364,256 l0,110" />
        <path id="right-margin-Ultralight-M" d="M293.636,256 l0,110" />
        <path id="left-margin-Regular-M" d="M436.364,256 l0,110" />
        <path id="right-margin-Regular-M" d="M493.636,256 l0,110" />
        <path id="left-margin-Black-M" d="M636.364,256 l0,110" />
        <path id="right-margin-Black-M" d="M693.636,256 l0,110" />
        <path id="Capline-M" d="M18,276 l800,0" />
        <path id="Baseline-M" d="M18,346 l800,0" />
        <path id="Capline-L" d="M18,476 l800,0" />
        <path id="Baseline-L" d="M18,546 l800,0" />
    </g>
    <g id="Symbols">
        <g id="Ultralight-M" transform="translate(0,200)">
            <path d="M265,76 C250.179,76 236.364,96.723 236.364,117.364 C236.364,133.179 249.185,146 265,146 C280.815,146 293.636,133.179 293.636,117.364 C293.636,96.723 279.821,76 265,76 C263.243,76 261.818,77.425 261.818,79.182 C261.818,80.939 263.243,82.364 265,82.364 C275.634,82.364 287.273,99.822 287.273,117.364 C287.273,129.665 277.301,139.636 265,139.636 C252.699,139.636 242.727,129.665 242.727,117.364 C242.727,99.822 254.366,82.364 265,82.364 C266.757,82.364 268.182,80.939 268.182,79.182 C268.182,77.425 266.757,76 265,76 Z" />
        </g>
        <g id="Regular-M" transform="translate(0,200)">
            <path d="M465,76 C450.179,76 436.364,96.723 436.364,117.364 C436.364,133.179 449.185,146 465,146 C480.815,146 493.636,133.179 493.636,117.364 C493.636,96.723 479.821,76 465,76 C463.243,76 461.818,77.425 461.818,79.182 C461.818,80.939 463.243,82.364 465,82.364 C475.634,82.364 487.273,99.822 487.273,117.364 C487.273,129.665 477.301,139.636 465,139.636 C452.699,139.636 442.727,129.665 442.727,117.364 C442.727,99.822 454.366,82.364 465,82.364 C466.757,82.364 468.182,80.939 468.182,79.182 C468.182,77.425 466.757,76 465,76 Z" />
        </g>
        <g id="Black-M" transform="translate(0,200)">
            <path d="M665,76 C650.179,76 636.364,96.723 636.364,117.364 C636.364,133.179 649.185,146 665,146 C680.815,146 693.636,133.179 693.636,117.364 C693.636,96.723 679.821,76 665,76 C663.243,76 661.818,77.425 661.818,79.182 C661.818,80.939 663.243,82.364 665,82.364 C675.634,82.364 687.273,99.822 687.273,117.364 C687.273,129.665 677.301,139.636 665,139.636 C652.699,139.636 642.727,129.665 642.727,117.364 C642.727,99.822 654.366,82.364 665,82.364 C666.757,82.364 668.182,80.939 668.182,79.182 C668.182,77.425 666.757,76 665,76 Z" />
        </g>
    </g>
</svg>