<?xml version="1.0" encoding="UTF-8"?>
<svg height="600" width="800" xmlns="http://www.w3.org/2000/svg" xmlns:xlink="http://www.w3.org/1999/xlink">
    <g id="Notes" font-family="LucidaGrande, 'Lucida Grande', sans-serif" font-size="13">
        <rect fill="white" height="600.0" width="800.0" x="0.0" y="0.0" />
        <g font-size="13">
            <text x="18.0" y="176.0">Small</text>
            <text x="18.0" y="376.0">Medium</text>
            <text x="18.0" y="576.0">Large</text>
        </g>
        <g font-size="9">
            <text x="250.0" y="30.0">Ultralight</text>
            <text x="450.0" y="30.0">Regular</text>
            <text x="650.0" y="30.0">Black</text>
            <text id="template-version" fill="#505050" text-anchor="end" x="785.0" y="575.0">Template v.3.0</text>
            <a href="https://github.com/swhitty/SwiftDraw">
                <text fill="#505050" text-anchor="end" x="785.0" y="590.0">https://github.com/swhitty/SwiftDraw</text>
            </a>
        </g>
    </g>
    <g id="Guides" stroke="rgb(39, 170, 225)" stroke-width="0.5">
        <path id="Capline-S" d="M18,76 l800,0" />
        <path id="H-reference" d="M85,145.755 L87.685,145.755 L113.369,79.287 L114.052,79.287 L114.052,76 L112.148,76 L85,145.755 Z M95.693,121.536 L130.996,121.536 L130.263,119.313 L96.474,119.313 L95.693,121.536 Z M139.15,145.755 L141.787,145.755 L114.638,76 L113.466,76 L113.466,79.287 L139.15,145.755 Z" stroke="none" transform="translate(0,200)" />
        <path id="Baseline-S" d="M18,146 l800,0" />
        <path id="left-margin-Ultralight-M" d="M221,256 l0,110" />
        <path id="right-margin-Ultralight-M" d="M309,256 l0,110" />
        <path id="left-margin-Regular-M" d="M421,256 l0,110" />
        <path id="right-margin-Regular-M" d="M509,256 l0,110" />
        <path id="left-margin-Black-M" d="M621,256 l0,110" />
        <path id="right-margin-Black-M" d="M709,256 l0,110" />
        <path id="Capline-M" d="M18,276 l800,0" />
        <path id="Baseline-M" d="M18,346 l800,0" />
        <path id="Capline-L" d="M18,476 l800,0" />
        <path id="Baseline-L" d="M18,546 l800,0" />
    </g>
    <g id="Symbols">
        <g id="Ultralight-M" transform="translate(0,200)">
            <path d="M229,111 C229,111 229,111 229,111 C234.97,97.434 249.205,88.501 265,88.501 C280.795,88.501 295.03,97.434 301.052,111.125 C301,111 301,111 301,111 C295.03,124.566 280.795,133.499 265,133.499 C249.205,133.499 234.97,124.566 228.948,110.875 C228.105,108.96 225.767,108.048 223.725,108.838 C221.683,109.628 220.71,111.82 221.552,113.735 C228.81,130.234 245.965,141 265,141 C284.035,141 301.19,130.234 308.448,113.735 C309.167,111.926 309.167,110.074 308.5,108.39 C301.19,91.766 284.035,81 265,81 C245.965,81 228.81,91.766 221.552,108.265 C220.833,110.074 220.833,111.926 221.5,113.61 C222.269,115.552 224.571,116.542 226.642,115.821 C228.713,115.1 229.768,112.942 229,111 Z" />
            <path d="M257,111 C257,106.858 260.582,103.499 265,103.499 C269.418,103.499 273,106.858 273,111 C273,115.142 269.418,118.501 265,118.501 C260.582,118.501 257,115.142 257,111 Z M249.001,111 C249.001,119.285 256.164,126.001 265,126.001 C273.836,126.001 280.999,119.285 280.999,111 C280.999,102.715 273.836,95.999 265,95.999 C256.164,95.999 249.001,102.715 249.001,111 Z" />
        </g>
        <g id="Regular-M" transform="translate(0,200)">
            <path d="M429,111 C429,111 429,111 429,111 C434.97,97.434 449.205,88.501 465,88.501 C480.795,88.501 495.03,97.434 501.052,111.125 C501,111 501,111 501,111 C495.03,124.566 480.795,133.499 465,133.499 C449.205,133.499 434.97,124.566 428.948,110.875 C428.105,108.96 425.767,108.048 423.725,108.838 C421.683,109.628 420.71,111.82 421.552,113.735 C428.81,130.234 445.965,141 465,141 C484.035,141 501.19,130.234 508.448,113.735 C509.167,111.926 509.167,110.074 508.5,108.39 C501.19,91.766 484.035,81 465,81 C445.965,81 428.81,91.766 421.552,108.265 C420.833,110.074 420.833,111.926 421.5,113.61 C422.269,115.552 424.571,116.542 426.642,115.821 C428.713,115.1 429.768,112.942 429,111 Z" />
            <path d="M457,111 C457,106.858 460.582,103.499 465,103.499 C469.418,103.499 473,106.858 473,111 C473,115.142 469.418,118.501 465,118.501 C460.582,118.501 457,115.142 457,111 Z M449.001,111 C449.001,119.285 456.164,126.001 465,126.001 C473.836,126.001 480.999,119.285 480.999,111 C480.999,102.715 473.836,95.999 465,95.999 C456.164,95.999 449.001,102.715 449.001,111 Z" />
        </g>
        <g id="Black-M" transform="translate(0,200)">
            <path d="M629,111 C629,111 629,111 629,111 C634.97,97.434 649.205,88.501 665,88.501 C680.795,88.501 695.03,97.434 701.052,111.125 C701,111 701,111 701,111 C695.03,124.566 680.795,133.499 665,133.499 C649.205,133.499 634.97,124.566 628.948,110.875 C628.105,108.96 625.767,108.048 623.725,108.838 C621.683,109.628 620.71,111.82 621.552,113.735 C628.81,130.234 645.965,141 665,141 C684.035,141 701.19,130.234 708.448,113.735 C709.167,111.926 709.167,110.074 708.5,108.39 C701.19,91.766 684.035,81 665,81 C645.965,81 628.81,91.766 621.552,108.265 C620.833,110.074 620.833,111.926 621.5,113.61 C622.269,115.552 624.571,116.542 626.642,115.821 C628.713,115.1 629.768,112.942 629,111 Z" />
            <path d="M657,111 C657,106.858 660.582,103.499 665,103.499 C669.418,103.499 673,106.858 673,111 C673,115.142 669.418,118.501 665,118.501 C660.582,118.501 657,115.142 657,111 Z M649.001,111 C649.001,119.285 656.164,126.001 665,126.001 C673.836,126.001 680.999,119.285 680.999,111 C680.999,102.715 673.836,95.999 665,95.999 C656.164,95.999 649.001,102.715 649.001,111 Z" />
        </g>
    </g>
</svg>