<?xml version="1.0" encoding="UTF-8"?>
<svg height="600" width="800" xmlns="http://www.w3.org/2000/svg" xmlns:xlink="http://www.w3.org/1999/xlink">
    <g id="Notes" font-family="LucidaGrande, 'Lucida Grande', sans-serif" font-size="13">
        <rect fill="white" height="600.0" width="800.0" x="0.0" y="0.0" />
        <g font-size="13">
            <text x="18.0" y="176.0">Small</text>
            <text x="18.0" y="376.0">Medium</text>
            <text x="18.0" y="576.0">Large</text>
        </g>
        <g font-size="9">
            <text x="250.0" y="30.0">Ultralight</text>
            <text x="450.0" y="30.0">Regular</text>
            <text x="650.0" y="30.0">Black</text>
            <text id="template-version" fill="#505050" text-anchor="end" x="785.0" y="575.0">Template v.3.0</text>
            <a href="https://github.com/swhitty/SwiftDraw">
                <text fill="#505050" text-anchor="end" x="785.0" y="590.0">https://github.com/swhitty/SwiftDraw</text>
            </a>
        </g>
    </g>
    <g id="Guides" stroke="rgb(39, 170, 225)" stroke-width="0.5">
        <path id="Capline-S" d="M18,76 l800,0" />
        <path id="H-reference" d="M85,145.755 L87.685,145.755 L113.369,79.287 L114.052,79.287 L114.052,76 L112.148,76 L85,145.755 Z M95.693,121.536 L130.996,121.536 L130.263,119.313 L96.474,119.313 L95.693,121.536 Z M139.15,145.755 L141.787,145.755 L114.638,76 L113.466,76 L113.466,79.287 L139.15,145.755 Z" stroke="none" transform="translate(0,200)" />
        <path id="Baseline-S" d="M18,146 l800,0" />
        <path id="left-margin-Ultralight-M" d="M233.182,256 l0,110" />
        <path id="right-margin-Ultralight-M" d="M296.818,256 l0,110" />
        <path id="left-margin-Regular-M" d="M433.182,256 l0,110" />
        <path id="right-margin-Regular-M" d="M496.818,256 l0,110" />
        <path id="left-margin-Black-M" d="M633.182,256 l0,110" />
        <path id="right-margin-Black-M" d="M696.818,256 l0,110" />
        <path id="Capline-M" d="M18,276 l800,0" />
        <path id="Baseline-M" d="M18,346 l800,0" />
        <path id="Capline-L" d="M18,476 l800,0" />
        <path id="Baseline-L" d="M18,546 l800,0" />
    </g>
    <g id="Symbols">
        <g id="Ultralight-M" transform="translate(0,200)">
            <path d="M261.818,111 C261.818,109.243 263.243,107.818 265,107.818 C266.757,107.818 268.182,109.243 268.182,111 C268.182,112.757 266.757,114.182 265,114.182 C263.243,114.182 261.818,112.757 261.818,111 Z M255.455,111 C255.455,116.272 259.728,120.545 265,120.545 C270.272,120.545 274.545,116.272 274.545,111 C274.545,105.728 270.272,101.455 265,101.455 C259.728,101.455 255.455,105.728 255.455,111 Z" />
            <path d="M261.818,79.182 L261.818,91.909 C261.818,93.666 263.243,95.091 265,95.091 C266.757,95.091 268.182,93.666 268.182,91.909 L268.182,79.182 C268.182,77.425 266.757,76 265,76 C263.243,76 261.818,77.425 261.818,79.182 Z" />
            <path d="M246.877,117.783 L235.741,124.146 C234.215,125.018 233.685,126.962 234.557,128.488 C235.429,130.013 237.372,130.544 238.898,129.672 L250.034,123.308 C251.559,122.436 252.089,120.493 251.218,118.967 C250.346,117.441 248.402,116.911 246.877,117.783 Z" />
            <path d="M291.102,92.328 L279.966,98.692 C278.441,99.564 277.911,101.507 278.782,103.033 C279.654,104.559 281.598,105.089 283.123,104.217 L294.259,97.854 C295.785,96.982 296.315,95.038 295.443,93.512 C294.571,91.987 292.628,91.456 291.102,92.328 Z" />
            <path d="M250.034,98.692 L238.898,92.328 C237.372,91.456 235.429,91.987 234.557,93.512 C233.685,95.038 234.215,96.982 235.741,97.854 L246.877,104.217 C248.402,105.089 250.346,104.559 251.218,103.033 C252.089,101.507 251.559,99.564 250.034,98.692 Z" />
            <path d="M294.259,124.146 L283.123,117.783 C281.598,116.911 279.654,117.441 278.782,118.967 C277.911,120.493 278.441,122.436 279.966,123.308 L291.102,129.672 C292.628,130.544 294.571,130.013 295.443,128.488 C296.315,126.962 295.785,125.018 294.259,124.146 Z" />
            <path d="M258.434,143.935 L267.979,118.481 L262.021,118.481 L271.566,143.935 C272.183,145.581 274.017,146.414 275.662,145.797 C277.308,145.18 278.141,143.346 277.524,141.701 L267.979,116.246 C266.947,113.494 263.053,113.494 262.021,116.246 L252.476,141.701 C251.859,143.346 252.692,145.18 254.338,145.797 C255.983,146.414 257.817,145.581 258.434,143.935 Z" />
            <path d="M252.273,146 L277.727,146 C279.484,146 280.908,144.575 280.908,142.818 C280.908,141.061 279.484,139.636 277.727,139.636 L252.273,139.636 C250.516,139.636 249.092,141.061 249.092,142.818 C249.092,144.575 250.516,146 252.273,146 Z" />
            <path d="M286.211,134.69 C296.044,125.895 299.43,111.944 294.723,99.62 C290.015,87.297 278.192,79.156 265,79.156 C251.808,79.156 239.985,87.297 235.277,99.62 C230.57,111.944 233.956,125.895 243.789,134.69 C245.098,135.861 247.11,135.749 248.281,134.439 C249.453,133.13 249.341,131.118 248.031,129.947 C240.165,122.911 237.456,111.75 241.222,101.891 C244.988,92.032 254.447,85.519 265,85.519 C275.553,85.519 285.012,92.032 288.778,101.891 C292.544,111.75 289.835,122.911 281.969,129.947 C280.659,131.118 280.547,133.13 281.719,134.439 C282.89,135.749 284.902,135.861 286.211,134.69 Z" />
        </g>
        <g id="Regular-M" transform="translate(0,200)">
            <path d="M461.818,111 C461.818,109.243 463.243,107.818 465,107.818 C466.757,107.818 468.182,109.243 468.182,111 C468.182,112.757 466.757,114.182 465,114.182 C463.243,114.182 461.818,112.757 461.818,111 Z M455.455,111 C455.455,116.272 459.728,120.545 465,120.545 C470.272,120.545 474.545,116.272 474.545,111 C474.545,105.728 470.272,101.455 465,101.455 C459.728,101.455 455.455,105.728 455.455,111 Z" />
            <path d="M461.818,79.182 L461.818,91.909 C461.818,93.666 463.243,95.091 465,95.091 C466.757,95.091 468.182,93.666 468.182,91.909 L468.182,79.182 C468.182,77.425 466.757,76 465,76 C463.243,76 461.818,77.425 461.818,79.182 Z" />
            <path d="M446.877,117.783 L435.741,124.146 C434.215,125.018 433.685,126.962 434.557,128.488 C435.429,130.013 437.372,130.544 438.898,129.672 L450.034,123.308 C451.559,122.436 452.089,120.493 451.218,118.967 C450.346,117.441 448.402,116.911 446.877,117.783 Z" />
            <path d="M491.102,92.328 L479.966,98.692 C478.441,99.564 477.911,101.507 478.782,103.033 C479.654,104.559 481.598,105.089 483.123,104.217 L494.259,97.854 C495.785,96.982 496.315,95.038 495.443,93.512 C494.571,91.987 492.628,91.456 491.102,92.328 Z" />
            <path d="M450.034,98.692 L438.898,92.328 C437.372,91.456 435.429,91.987 434.557,93.512 C433.685,95.038 434.215,96.982 435.741,97.854 L446.877,104.217 C448.402,105.089 450.346,104.559 451.218,103.033 C452.089,101.507 451.559,99.564 450.034,98.692 Z" />
            <path d="M494.259,124.146 L483.123,117.783 C481.598,116.911 479.654,117.441 478.782,118.967 C477.911,120.493 478.441,122.436 479.966,123.308 L491.102,129.672 C492.628,130.544 494.571,130.013 495.443,128.488 C496.315,126.962 495.785,125.018 494.259,124.146 Z" />
            <path d="M458.434,143.935 L467.979,118.481 L462.021,118.481 L471.566,143.935 C472.183,145.581 474.017,146.414 475.662,145.797 C477.308,145.18 478.141,143.346 477.524,141.701 L467.979,116.246 C466.947,113.494 463.053,113.494 462.021,116.246 L452.476,141.701 C451.859,143.346 452.692,145.18 454.338,145.797 C455.983,146.414 457.817,145.581 458.434,143.935 Z" />
            <path d="M452.273,146 L477.727,146 C479.484,146 480.908,144.575 480.908,142.818 C480.908,141.061 479.484,139.636 477.727,139.636 L452.273,139.636 C450.516,139.636 449.092,141.061 449.092,142.818 C449.092,144.575 450.516,146 452.273,146 Z" />
            <path d="M486.211,134.69 C496.044,125.895 499.43,111.944 494.723,99.62 C490.015,87.297 478.192,79.156 465,79.156 C451.808,79.156 439.985,87.297 435.277,99.62 C430.57,111.944 433.956,125.895 443.789,134.69 C445.098,135.861 447.11,135.749 448.281,134.439 C449.453,133.13 449.341,131.118 448.031,129.947 C440.165,122.911 437.456,111.75 441.222,101.891 C444.988,92.032 454.447,85.519 465,85.519 C475.553,85.519 485.012,92.032 488.778,101.891 C492.544,111.75 489.835,122.911 481.969,129.947 C480.659,131.118 480.547,133.13 481.719,134.439 C482.89,135.749 484.902,135.861 486.211,134.69 Z" />
        </g>
        <g id="Black-M" transform="translate(0,200)">
            <path d="M661.818,111 C661.818,109.243 663.243,107.818 665,107.818 C666.757,107.818 668.182,109.243 668.182,111 C668.182,112.757 666.757,114.182 665,114.182 C663.243,114.182 661.818,112.757 661.818,111 Z M655.455,111 C655.455,116.272 659.728,120.545 665,120.545 C670.272,120.545 674.545,116.272 674.545,111 C674.545,105.728 670.272,101.455 665,101.455 C659.728,101.455 655.455,105.728 655.455,111 Z" />
            <path d="M661.818,79.182 L661.818,91.909 C661.818,93.666 663.243,95.091 665,95.091 C666.757,95.091 668.182,93.666 668.182,91.909 L668.182,79.182 C668.182,77.425 666.757,76 665,76 C663.243,76 661.818,77.425 661.818,79.182 Z" />
            <path d="M646.877,117.783 L635.741,124.146 C634.215,125.018 633.685,126.962 634.557,128.488 C635.429,130.013 637.372,130.544 638.898,129.672 L650.034,123.308 C651.559,122.436 652.089,120.493 651.218,118.967 C650.346,117.441 648.402,116.911 646.877,117.783 Z" />
            <path d="M691.102,92.328 L679.966,98.692 C678.441,99.564 677.911,101.507 678.782,103.033 C679.654,104.559 681.598,105.089 683.123,104.217 L694.259,97.854 C695.785,96.982 696.315,95.038 695.443,93.512 C694.571,91.987 692.628,91.456 691.102,92.328 Z" />
            <path d="M650.034,98.692 L638.898,92.328 C637.372,91.456 635.429,91.987 634.557,93.512 C633.685,95.038 634.215,96.982 635.741,97.854 L646.877,104.217 C648.402,105.089 650.346,104.559 651.218,103.033 C652.089,101.507 651.559,99.564 650.034,98.692 Z" />
            <path d="M694.259,124.146 L683.123,117.783 C681.598,116.911 679.654,117.441 678.782,118.967 C677.911,120.493 678.441,122.436 679.966,123.308 L691.102,129.672 C692.628,130.544 694.571,130.013 695.443,128.488 C696.315,126.962 695.785,125.018 694.259,124.146 Z" />
            <path d="M658.434,143.935 L667.979,118.481 L662.021,118.481 L671.566,143.935 C672.183,145.581 674.017,146.414 675.662,145.797 C677.308,145.18 678.141,143.346 677.524,141.701 L667.979,116.246 C666.947,113.494 663.053,113.494 662.021,116.246 L652.476,141.701 C651.859,143.346 652.692,145.18 654.338,145.797 C655.983,146.414 657.817,145.581 658.434,143.935 Z" />
            <path d="M652.273,146 L677.727,146 C679.484,146 680.909,144.575 680.909,142.818 C680.909,141.061 679.484,139.636 677.727,139.636 L652.273,139.636 C650.516,139.636 649.092,141.061 649.092,142.818 C649.092,144.575 650.516,146 652.273,146 Z" />
            <path d="M686.211,134.69 C696.044,125.895 699.43,111.944 694.723,99.62 C690.015,87.297 678.192,79.156 665,79.156 C651.808,79.156 639.985,87.297 635.277,99.62 C630.57,111.944 633.956,125.895 643.789,134.69 C645.098,135.861 647.11,135.749 648.281,134.439 C649.453,133.13 649.341,131.118 648.031,129.947 C640.165,122.911 637.456,111.75 641.222,101.891 C644.988,92.032 654.447,85.519 665,85.519 C675.553,85.519 685.012,92.032 688.778,101.891 C692.544,111.75 689.835,122.911 681.969,129.947 C680.659,131.118 680.547,133.13 681.719,134.439 C682.89,135.749 684.902,135.861 686.211,134.69 Z" />
        </g>
    </g>
</svg>