<?xml version="1.0" encoding="UTF-8"?>
<svg height="600" width="800" xmlns="http://www.w3.org/2000/svg" xmlns:xlink="http://www.w3.org/1999/xlink">
    <g id="Notes" font-family="LucidaGrande, 'Lucida Grande', sans-serif" font-size="13">
        <rect fill="white" height="600.0" width="800.0" x="0.0" y="0.0" />
        <g font-size="13">
            <text x="18.0" y="176.0">Small</text>
            <text x="18.0" y="376.0">Medium</text>
            <text x="18.0" y="576.0">Large</text>
        </g>
        <g font-size="9">
            <text x="250.0" y="30.0">Ultralight</text>
            <text x="450.0" y="30.0">Regular</text>
            <text x="650.0" y="30.0">Black</text>
            <text id="template-version" fill="#505050" text-anchor="end" x="785.0" y="575.0">Template v.3.0</text>
            <a href="https://github.com/swhitty/SwiftDraw">
                <text fill="#505050" text-anchor="end" x="785.0" y="590.0">https://github.com/swhitty/SwiftDraw</text>
            </a>
        </g>
    </g>
    <g id="Guides" stroke="rgb(39, 170, 225)" stroke-width="0.5">
        <path id="Capline-S" d="M18,76 l800,0" />
        <path id="H-reference" d="M85,145.755 L87.685,145.755 L113.369,79.287 L114.052,79.287 L114.052,76 L112.148,76 L85,145.755 Z M95.693,121.536 L130.996,121.536 L130.263,119.313 L96.474,119.313 L95.693,121.536 Z M139.15,145.755 L141.787,145.755 L114.638,76 L113.466,76 L113.466,79.287 L139.15,145.755 Z" stroke="none" transform="translate(0,200)" />
        <path id="Baseline-S" d="M18,146 l800,0" />
        <path id="left-margin-Ultralight-M" d="M233.182,256 l0,110" />
        <path id="right-margin-Ultralight-M" d="M296.818,256 l0,110" />
        <path id="left-margin-Regular-M" d="M433.182,256 l0,110" />
        <path id="right-margin-Regular-M" d="M496.818,256 l0,110" />
        <path id="left-margin-Black-M" d="M633.182,256 l0,110" />
        <path id="right-margin-Black-M" d="M696.818,256 l0,110" />
        <path id="Capline-M" d="M18,276 l800,0" />
        <path id="Baseline-M" d="M18,346 l800,0" />
        <path id="Capline-L" d="M18,476 l800,0" />
        <path id="Baseline-L" d="M18,546 l800,0" />
    </g>
    <g id="Symbols">
        <g id="Ultralight-M" transform="translate(0,200)">
            <path d="M258.636,139.636 C258.636,139.636 258.636,139.636 258.636,139.636 C258.636,139.636 258.636,139.636 258.636,139.636 L239.545,139.636 C239.545,139.636 239.545,139.636 239.545,139.636 C239.545,139.636 239.545,139.636 239.545,139.636 L239.545,114.182 C239.545,114.182 239.545,114.182 239.545,114.182 C239.545,114.182 239.545,114.182 239.545,114.182 C241.303,114.182 242.727,112.757 242.727,111 C242.727,109.243 241.303,107.818 239.545,107.818 C237.858,107.818 236.239,108.489 235.046,109.682 C233.852,110.875 233.182,112.494 233.182,114.182 L233.182,139.636 C233.182,141.324 233.852,142.943 235.046,144.136 C236.239,145.33 237.858,146 239.545,146 L258.636,146 C260.324,146 261.943,145.33 263.136,144.136 C264.33,142.943 265,141.324 265,139.636 C265,137.879 263.575,136.455 261.818,136.455 C260.061,136.455 258.636,137.879 258.636,139.636 Z" />
            <path d="M274.545,123.727 C274.545,123.727 274.545,123.727 274.545,123.727 C274.545,123.727 274.545,123.727 274.545,123.727 L255.455,123.727 C255.455,123.727 255.455,123.727 255.455,123.727 C255.455,123.727 255.455,123.727 255.455,123.727 L255.455,98.273 C255.455,98.273 255.455,98.273 255.455,98.273 C255.455,98.273 255.455,98.273 255.455,98.273 C257.212,98.273 258.636,96.848 258.636,95.091 C258.636,93.334 257.212,91.909 255.455,91.909 C253.767,91.909 252.148,92.58 250.955,93.773 C249.761,94.966 249.091,96.585 249.091,98.273 L249.091,123.727 C249.091,125.415 249.761,127.034 250.955,128.227 C252.148,129.42 253.767,130.091 255.455,130.091 L274.545,130.091 C276.233,130.091 277.852,129.42 279.045,128.227 C280.239,127.034 280.909,125.415 280.909,123.727 C280.909,121.97 279.485,120.545 277.727,120.545 C275.97,120.545 274.545,121.97 274.545,123.727 Z" />
            <path d="M296.818,91.909 C296.818,89.379 295.812,86.951 294.023,85.161 L287.659,78.797 C285.87,77.007 283.442,76.001 280.91,76 L271.364,76 C269.676,76 268.057,76.67 266.864,77.864 C265.67,79.057 265,80.676 265,82.364 L265,107.818 C265,109.506 265.67,111.125 266.864,112.318 C268.057,113.511 269.676,114.182 271.364,114.182 L290.455,114.182 C292.142,114.182 293.761,113.511 294.954,112.318 C296.148,111.125 296.818,109.506 296.818,107.818 L296.818,91.909 Z M290.455,91.909 L290.455,107.818 C290.455,107.818 290.455,107.818 290.455,107.818 C290.455,107.818 290.455,107.818 290.455,107.818 L271.364,107.818 C271.364,107.818 271.364,107.818 271.364,107.818 C271.364,107.818 271.364,107.818 271.364,107.818 L271.364,82.364 C271.364,82.364 271.364,82.364 271.364,82.364 C271.364,82.364 271.364,82.364 271.364,82.364 L280.909,82.364 C281.752,82.364 282.562,82.699 283.158,83.296 L289.523,89.661 C290.119,90.257 290.455,91.067 290.455,91.909 Z" />
        </g>
        <g id="Regular-M" transform="translate(0,200)">
            <path d="M458.636,139.636 C458.636,139.636 458.636,139.636 458.636,139.636 C458.636,139.636 458.636,139.636 458.636,139.636 L439.545,139.636 C439.545,139.636 439.545,139.636 439.545,139.636 C439.545,139.636 439.545,139.636 439.545,139.636 L439.545,114.182 C439.545,114.182 439.545,114.182 439.545,114.182 C439.545,114.182 439.545,114.182 439.545,114.182 C441.303,114.182 442.727,112.757 442.727,111 C442.727,109.243 441.303,107.818 439.545,107.818 C437.858,107.818 436.239,108.489 435.046,109.682 C433.852,110.875 433.182,112.494 433.182,114.182 L433.182,139.636 C433.182,141.324 433.852,142.943 435.046,144.136 C436.239,145.33 437.858,146 439.545,146 L458.636,146 C460.324,146 461.943,145.33 463.136,144.136 C464.33,142.943 465,141.324 465,139.636 C465,137.879 463.575,136.455 461.818,136.455 C460.061,136.455 458.636,137.879 458.636,139.636 Z" />
            <path d="M474.545,123.727 C474.545,123.727 474.545,123.727 474.545,123.727 C474.545,123.727 474.545,123.727 474.545,123.727 L455.455,123.727 C455.455,123.727 455.455,123.727 455.455,123.727 C455.455,123.727 455.455,123.727 455.455,123.727 L455.455,98.273 C455.455,98.273 455.455,98.273 455.455,98.273 C455.455,98.273 455.455,98.273 455.455,98.273 C457.212,98.273 458.636,96.848 458.636,95.091 C458.636,93.334 457.212,91.909 455.455,91.909 C453.767,91.909 452.148,92.58 450.955,93.773 C449.761,94.966 449.091,96.585 449.091,98.273 L449.091,123.727 C449.091,125.415 449.761,127.034 450.955,128.227 C452.148,129.42 453.767,130.091 455.455,130.091 L474.545,130.091 C476.233,130.091 477.852,129.42 479.045,128.227 C480.239,127.034 480.909,125.415 480.909,123.727 C480.909,121.97 479.485,120.545 477.727,120.545 C475.97,120.545 474.545,121.97 474.545,123.727 Z" />
            <path d="M496.818,91.909 C496.818,89.379 495.812,86.951 494.023,85.161 L487.659,78.797 C485.87,77.007 483.442,76.001 480.91,76 L471.364,76 C469.676,76 468.057,76.67 466.864,77.864 C465.67,79.057 465,80.676 465,82.364 L465,107.818 C465,109.506 465.67,111.125 466.864,112.318 C468.057,113.511 469.676,114.182 471.364,114.182 L490.455,114.182 C492.142,114.182 493.761,113.511 494.954,112.318 C496.148,111.125 496.818,109.506 496.818,107.818 L496.818,91.909 Z M490.455,91.909 L490.455,107.818 C490.455,107.818 490.455,107.818 490.455,107.818 C490.455,107.818 490.455,107.818 490.455,107.818 L471.364,107.818 C471.364,107.818 471.364,107.818 471.364,107.818 C471.364,107.818 471.364,107.818 471.364,107.818 L471.364,82.364 C471.364,82.364 471.364,82.364 471.364,82.364 C471.364,82.364 471.364,82.364 471.364,82.364 L480.909,82.364 C481.752,82.364 482.562,82.699 483.158,83.296 L489.523,89.661 C490.119,90.257 490.455,91.067 490.455,91.909 Z" />
        </g>
        <g id="Black-M" transform="translate(0,200)">
            <path d="M658.636,139.636 C658.636,139.636 658.636,139.636 658.636,139.636 C658.636,139.636 658.636,139.636 658.636,139.636 L639.545,139.636 C639.545,139.636 639.545,139.636 639.545,139.636 C639.545,139.636 639.545,139.636 639.545,139.636 L639.545,114.182 C639.545,114.182 639.545,114.182 639.545,114.182 C639.545,114.182 639.545,114.182 639.545,114.182 C641.303,114.182 642.727,112.757 642.727,111 C642.727,109.243 641.303,107.818 639.545,107.818 C637.858,107.818 636.239,108.489 635.046,109.682 C633.852,110.875 633.182,112.494 633.182,114.182 L633.182,139.636 C633.182,141.324 633.852,142.943 635.046,144.136 C636.239,145.33 637.858,146 639.545,146 L658.636,146 C660.324,146 661.943,145.33 663.136,144.136 C664.33,142.943 665,141.324 665,139.636 C665,137.879 663.575,136.455 661.818,136.455 C660.061,136.455 658.636,137.879 658.636,139.636 Z" />
            <path d="M674.545,123.727 C674.545,123.727 674.545,123.727 674.545,123.727 C674.545,123.727 674.545,123.727 674.545,123.727 L655.455,123.727 C655.455,123.727 655.455,123.727 655.455,123.727 C655.455,123.727 655.455,123.727 655.455,123.727 L655.455,98.273 C655.455,98.273 655.455,98.273 655.455,98.273 C655.455,98.273 655.455,98.273 655.455,98.273 C657.212,98.273 658.636,96.848 658.636,95.091 C658.636,93.334 657.212,91.909 655.455,91.909 C653.767,91.909 652.148,92.58 650.955,93.773 C649.761,94.966 649.091,96.585 649.091,98.273 L649.091,123.727 C649.091,125.415 649.761,127.034 650.955,128.227 C652.148,129.42 653.767,130.091 655.455,130.091 L674.545,130.091 C676.233,130.091 677.852,129.42 679.045,128.227 C680.239,127.034 680.909,125.415 680.909,123.727 C680.909,121.97 679.485,120.545 677.727,120.545 C675.97,120.545 674.545,121.97 674.545,123.727 Z" />
            <path d="M696.818,91.909 C696.818,89.379 695.812,86.951 694.023,85.161 L687.659,78.797 C685.87,77.007 683.442,76.001 680.91,76 L671.364,76 C669.676,76 668.057,76.67 666.864,77.864 C665.67,79.057 665,80.676 665,82.364 L665,107.818 C665,109.506 665.67,111.125 666.864,112.318 C668.057,113.511 669.676,114.182 671.364,114.182 L690.455,114.182 C692.142,114.182 693.761,113.511 694.954,112.318 C696.148,111.125 696.818,109.506 696.818,107.818 L696.818,91.909 Z M690.455,91.909 L690.455,107.818 C690.455,107.818 690.455,107.818 690.455,107.818 C690.455,107.818 690.455,107.818 690.455,107.818 L671.364,107.818 C671.364,107.818 671.364,107.818 671.364,107.818 C671.364,107.818 671.364,107.818 671.364,107.818 L671.364,82.364 C671.364,82.364 671.364,82.364 671.364,82.364 C671.364,82.364 671.364,82.364 671.364,82.364 L680.909,82.364 C681.752,82.364 682.562,82.699 683.158,83.296 L689.523,89.661 C690.119,90.257 690.455,91.067 690.455,91.909 Z" />
        </g>
    </g>
</svg>