<?xml version="1.0" encoding="UTF-8"?>
<svg height="600" width="800" xmlns="http://www.w3.org/2000/svg" xmlns:xlink="http://www.w3.org/1999/xlink">
    <g id="Notes" font-family="LucidaGrande, 'Lucida Grande', sans-serif" font-size="13">
        <rect fill="white" height="600.0" width="800.0" x="0.0" y="0.0" />
        <g font-size="13">
            <text x="18.0" y="176.0">Small</text>
            <text x="18.0" y="376.0">Medium</text>
            <text x="18.0" y="576.0">Large</text>
        </g>
        <g font-size="9">
            <text x="250.0" y="30.0">Ultralight</text>
            <text x="450.0" y="30.0">Regular</text>
            <text x="650.0" y="30.0">Black</text>
            <text id="template-version" fill="#505050" text-anchor="end" x="785.0" y="575.0">Template v.3.0</text>
            <a href="https://github.com/swhitty/SwiftDraw">
                <text fill="#505050" text-anchor="end" x="785.0" y="590.0">https://github.com/swhitty/SwiftDraw</text>
            </a>
        </g>
    </g>
    <g id="Guides" stroke="rgb(39, 170, 225)" stroke-width="0.5">
        <path id="Capline-S" d="M18,76 l800,0" />
        <path id="H-reference" d="M85,145.755 L87.685,145.755 L113.369,79.287 L114.052,79.287 L114.052,76 L112.148,76 L85,145.755 Z M95.693,121.536 L130.996,121.536 L130.263,119.313 L96.474,119.313 L95.693,121.536 Z M139.15,145.755 L141.787,145.755 L114.638,76 L113.466,76 L113.466,79.287 L139.15,145.755 Z" stroke="none" transform="translate(0,200)" />
        <path id="Baseline-S" d="M18,146 l800,0" />
        <path id="left-margin-Ultralight-M" d="M236.364,256 l0,110" />
        <path id="right-margin-Ultralight-M" d="M293.636,256 l0,110" />
        <path id="left-margin-Regular-M" d="M436.364,256 l0,110" />
        <path id="right-margin-Regular-M" d="M493.636,256 l0,110" />
        <path id="left-margin-Black-M" d="M636.364,256 l0,110" />
        <path id="right-margin-Black-M" d="M693.636,256 l0,110" />
        <path id="Capline-M" d="M18,276 l800,0" />
        <path id="Baseline-M" d="M18,346 l800,0" />
        <path id="Capline-L" d="M18,476 l800,0" />
        <path id="Baseline-L" d="M18,546 l800,0" />
    </g>
    <g id="Symbols">
        <g id="Ultralight-M" transform="translate(0,200)">
            <path d="M245.909,139.636 C245.065,139.636 244.256,139.301 243.659,138.704 C243.062,138.108 242.727,137.298 242.727,136.455 L242.727,85.545 C242.727,84.702 243.062,83.892 243.659,83.296 C244.256,82.699 245.065,82.364 245.909,82.364 L271.364,82.364 C272.555,82.362 273.694,82.833 274.531,83.674 L285.952,95.094 C286.802,95.939 287.275,97.079 287.273,98.268 L287.273,136.455 C287.273,137.298 286.938,138.108 286.341,138.704 C285.744,139.301 284.935,139.636 284.091,139.636 L245.909,139.636 Z M245.909,146 L284.091,146 C286.622,146 289.05,144.994 290.841,143.204 C292.631,141.414 293.636,138.986 293.636,136.455 L293.636,98.273 C293.641,95.391 292.492,92.623 290.445,90.588 L279.035,79.178 C277.005,77.141 274.24,75.995 271.358,76 L245.909,76 C243.377,76 240.95,77.006 239.159,78.796 C237.369,80.586 236.364,83.014 236.364,85.545 L236.364,136.455 C236.364,138.986 237.369,141.414 239.159,143.204 C240.95,144.994 243.377,146 245.909,146 Z" />
            <path d="M268.182,79.182 L268.182,95.091 C268.182,96.779 268.852,98.397 270.046,99.591 C271.239,100.784 272.858,101.455 274.545,101.455 L290.455,101.455 C292.212,101.455 293.636,100.03 293.636,98.273 C293.636,96.515 292.212,95.091 290.455,95.091 L274.545,95.091 C274.545,95.091 274.545,95.091 274.545,95.091 C274.545,95.091 274.545,95.091 274.545,95.091 L274.545,79.182 C274.545,77.425 273.121,76 271.364,76 C269.606,76 268.182,77.425 268.182,79.182 Z" />
            <path d="M268.182,130.091 L268.182,111 C268.182,109.243 266.757,107.818 265,107.818 C263.243,107.818 261.818,109.243 261.818,111 L261.818,130.091 C261.818,131.848 263.243,133.273 265,133.273 C266.757,133.273 268.182,131.848 268.182,130.091 Z" />
            <path d="M253.205,122.795 L262.75,132.341 C263.993,133.583 266.007,133.583 267.25,132.341 L276.795,122.795 C278.038,121.553 278.038,119.538 276.795,118.296 C275.553,117.053 273.538,117.053 272.296,118.296 L262.75,127.841 L267.25,127.841 L257.704,118.296 C256.462,117.053 254.447,117.053 253.205,118.296 C251.962,119.538 251.962,121.553 253.205,122.795 Z" />
        </g>
        <g id="Regular-M" transform="translate(0,200)">
            <path d="M445.909,139.636 C445.065,139.636 444.256,139.301 443.659,138.704 C443.062,138.108 442.727,137.298 442.727,136.455 L442.727,85.545 C442.727,84.702 443.062,83.892 443.659,83.296 C444.256,82.699 445.065,82.364 445.909,82.364 L471.364,82.364 C472.555,82.362 473.694,82.833 474.532,83.674 L485.952,95.094 C486.802,95.939 487.275,97.079 487.273,98.268 L487.273,136.455 C487.273,137.298 486.938,138.108 486.341,138.704 C485.744,139.301 484.935,139.636 484.091,139.636 L445.909,139.636 Z M445.909,146 L484.091,146 C486.623,146 489.05,144.994 490.841,143.204 C492.631,141.414 493.636,138.986 493.636,136.455 L493.636,98.273 C493.641,95.391 492.492,92.623 490.445,90.588 L479.035,79.178 C477.005,77.141 474.24,75.995 471.358,76 L445.909,76 C443.378,76 440.95,77.006 439.159,78.796 C437.369,80.586 436.364,83.014 436.364,85.545 L436.364,136.455 C436.364,138.986 437.369,141.414 439.159,143.204 C440.95,144.994 443.378,146 445.909,146 Z" />
            <path d="M468.182,79.182 L468.182,95.091 C468.182,96.779 468.852,98.397 470.046,99.591 C471.239,100.784 472.858,101.455 474.545,101.455 L490.455,101.455 C492.212,101.455 493.636,100.03 493.636,98.273 C493.636,96.515 492.212,95.091 490.455,95.091 L474.545,95.091 C474.545,95.091 474.545,95.091 474.545,95.091 C474.545,95.091 474.545,95.091 474.545,95.091 L474.545,79.182 C474.545,77.425 473.121,76 471.364,76 C469.606,76 468.182,77.425 468.182,79.182 Z" />
            <path d="M468.182,130.091 L468.182,111 C468.182,109.243 466.757,107.818 465,107.818 C463.243,107.818 461.818,109.243 461.818,111 L461.818,130.091 C461.818,131.848 463.243,133.273 465,133.273 C466.757,133.273 468.182,131.848 468.182,130.091 Z" />
            <path d="M453.205,122.795 L462.75,132.341 C463.993,133.583 466.007,133.583 467.25,132.341 L476.795,122.795 C478.038,121.553 478.038,119.538 476.795,118.296 C475.553,117.053 473.538,117.053 472.296,118.296 L462.75,127.841 L467.25,127.841 L457.704,118.296 C456.462,117.053 454.447,117.053 453.205,118.296 C451.962,119.538 451.962,121.553 453.205,122.795 Z" />
        </g>
        <g id="Black-M" transform="translate(0,200)">
            <path d="M645.909,139.636 C645.065,139.636 644.256,139.301 643.659,138.704 C643.062,138.108 642.727,137.298 642.727,136.455 L642.727,85.545 C642.727,84.702 643.062,83.892 643.659,83.296 C644.256,82.699 645.065,82.364 645.909,82.364 L671.364,82.364 C672.555,82.362 673.694,82.833 674.531,83.674 L685.952,95.094 C686.802,95.939 687.275,97.079 687.273,98.268 L687.273,136.455 C687.273,137.298 686.938,138.108 686.341,138.704 C685.744,139.301 684.935,139.636 684.091,139.636 L645.909,139.636 Z M645.909,146 L684.091,146 C686.623,146 689.05,144.994 690.841,143.204 C692.631,141.414 693.636,138.986 693.636,136.455 L693.636,98.273 C693.641,95.391 692.492,92.623 690.445,90.588 L679.035,79.178 C677.005,77.141 674.24,75.995 671.358,76 L645.909,76 C643.378,76 640.95,77.006 639.159,78.796 C637.369,80.586 636.364,83.014 636.364,85.545 L636.364,136.455 C636.364,138.986 637.369,141.414 639.159,143.204 C640.95,144.994 643.378,146 645.909,146 Z" />
            <path d="M668.182,79.182 L668.182,95.091 C668.182,96.779 668.852,98.397 670.046,99.591 C671.239,100.784 672.858,101.455 674.545,101.455 L690.455,101.455 C692.212,101.455 693.636,100.03 693.636,98.273 C693.636,96.515 692.212,95.091 690.455,95.091 L674.545,95.091 C674.545,95.091 674.545,95.091 674.545,95.091 C674.545,95.091 674.545,95.091 674.545,95.091 L674.545,79.182 C674.545,77.425 673.121,76 671.364,76 C669.606,76 668.182,77.425 668.182,79.182 Z" />
            <path d="M668.182,130.091 L668.182,111 C668.182,109.243 666.757,107.818 665,107.818 C663.243,107.818 661.818,109.243 661.818,111 L661.818,130.091 C661.818,131.848 663.243,133.273 665,133.273 C666.757,133.273 668.182,131.848 668.182,130.091 Z" />
            <path d="M653.205,122.795 L662.75,132.341 C663.993,133.583 666.007,133.583 667.25,132.341 L676.795,122.795 C678.038,121.553 678.038,119.538 676.795,118.296 C675.553,117.053 673.538,117.053 672.296,118.296 L662.75,127.841 L667.25,127.841 L657.704,118.296 C656.462,117.053 654.447,117.053 653.205,118.296 C651.962,119.538 651.962,121.553 653.205,122.795 Z" />
        </g>
    </g>
</svg>