<?xml version="1.0" encoding="UTF-8"?>
<svg height="600" width="800" xmlns="http://www.w3.org/2000/svg" xmlns:xlink="http://www.w3.org/1999/xlink">
    <g id="Notes" font-family="LucidaGrande, 'Lucida Grande', sans-serif" font-size="13">
        <rect fill="white" height="600.0" width="800.0" x="0.0" y="0.0" />
        <g font-size="13">
            <text x="18.0" y="176.0">Small</text>
            <text x="18.0" y="376.0">Medium</text>
            <text x="18.0" y="576.0">Large</text>
        </g>
        <g font-size="9">
            <text x="250.0" y="30.0">Ultralight</text>
            <text x="450.0" y="30.0">Regular</text>
            <text x="650.0" y="30.0">Black</text>
            <text id="template-version" fill="#505050" text-anchor="end" x="785.0" y="575.0">Template v.3.0</text>
            <a href="https://github.com/swhitty/SwiftDraw">
                <text fill="#505050" text-anchor="end" x="785.0" y="590.0">https://github.com/swhitty/SwiftDraw</text>
            </a>
        </g>
    </g>
    <g id="Guides" stroke="rgb(39, 170, 225)" stroke-width="0.5">
        <path id="Capline-S" d="M18,76 l800,0" />
        <path id="H-reference" d="M85,145.755 L87.685,145.755 L113.369,79.287 L114.052,79.287 L114.052,76 L112.148,76 L85,145.755 Z M95.693,121.536 L130.996,121.536 L130.263,119.313 L96.474,119.313 L95.693,121.536 Z M139.15,145.755 L141.787,145.755 L114.638,76 L113.466,76 L113.466,79.287 L139.15,145.755 Z" stroke="none" transform="translate(0,200)" />
        <path id="Baseline-S" d="M18,146 l800,0" />
        <path id="left-margin-Ultralight-M" d="M234.773,256 l0,110" />
        <path id="right-margin-Ultralight-M" d="M295.227,256 l0,110" />
        <path id="left-margin-Regular-M" d="M434.773,256 l0,110" />
        <path id="right-margin-Regular-M" d="M495.227,256 l0,110" />
        <path id="left-margin-Black-M" d="M634.773,256 l0,110" />
        <path id="right-margin-Black-M" d="M695.227,256 l0,110" />
        <path id="Capline-M" d="M18,276 l800,0" />
        <path id="Baseline-M" d="M18,346 l800,0" />
        <path id="Capline-L" d="M18,476 l800,0" />
        <path id="Baseline-L" d="M18,546 l800,0" />
    </g>
    <g id="Symbols">
        <g id="Ultralight-M" transform="translate(0,200)">
            <path d="M266.591,146 L285.682,146 C288.213,146 290.641,144.994 292.431,143.204 C294.222,141.414 295.227,138.986 295.227,136.455 L295.227,98.273 C295.234,95.396 294.089,92.627 292.045,90.591 L280.633,79.179 C278.6,77.139 275.832,75.993 272.947,76 L247.5,76 C244.968,76 242.54,77.006 240.75,78.796 C238.96,80.586 237.955,83.014 237.955,85.545 L237.955,104.636 C237.955,106.394 239.379,107.818 241.136,107.818 C242.894,107.818 244.318,106.394 244.318,104.636 L244.318,85.545 C244.318,84.702 244.653,83.892 245.25,83.296 C245.847,82.699 246.656,82.364 247.5,82.364 L272.955,82.364 C274.15,82.361 275.29,82.833 276.129,83.674 L287.549,95.095 C288.395,95.937 288.867,97.077 288.864,98.265 L288.864,136.455 C288.864,137.298 288.528,138.108 287.932,138.704 C287.335,139.301 286.526,139.636 285.682,139.636 L266.591,139.636 C264.834,139.636 263.409,141.061 263.409,142.818 C263.409,144.575 264.834,146 266.591,146 Z" />
            <path d="M269.773,79.182 L269.773,95.091 C269.773,96.779 270.443,98.397 271.637,99.591 C272.83,100.784 274.449,101.455 276.136,101.455 L292.045,101.455 C293.803,101.455 295.227,100.03 295.227,98.273 C295.227,96.515 293.803,95.091 292.045,95.091 L276.136,95.091 C276.136,95.091 276.136,95.091 276.136,95.091 C276.136,95.091 276.136,95.091 276.136,95.091 L276.136,79.182 C276.136,77.425 274.712,76 272.955,76 C271.197,76 269.773,77.425 269.773,79.182 Z" />
            <path d="M241.136,123.727 L241.136,118.955 C241.136,119.376 240.969,119.781 240.67,120.079 C240.372,120.378 239.967,120.545 239.545,120.545 L261.818,120.545 C261.396,120.545 260.992,120.378 260.693,120.08 C260.395,119.781 260.227,119.376 260.227,118.955 L260.227,123.727 C260.227,125.485 261.652,126.909 263.409,126.909 C265.166,126.909 266.591,125.485 266.591,123.727 L266.591,118.955 C266.591,117.689 266.088,116.475 265.193,115.58 C264.298,114.685 263.084,114.182 261.818,114.182 L239.545,114.182 C238.28,114.182 237.066,114.685 236.171,115.58 C235.276,116.475 234.773,117.689 234.773,118.955 L234.773,123.727 C234.773,125.485 236.197,126.909 237.955,126.909 C239.712,126.909 241.136,125.485 241.136,123.727 Z" />
            <path d="M247.5,146 L253.864,146 C255.621,146 257.045,144.575 257.045,142.818 C257.045,141.061 255.621,139.636 253.864,139.636 L247.5,139.636 C245.743,139.636 244.318,141.061 244.318,142.818 C244.318,144.575 245.743,146 247.5,146 Z" />
            <path d="M247.5,117.364 L247.5,142.818 C247.5,144.575 248.925,146 250.682,146 C252.439,146 253.864,144.575 253.864,142.818 L253.864,117.364 C253.864,115.606 252.439,114.182 250.682,114.182 C248.925,114.182 247.5,115.606 247.5,117.364 Z" />
        </g>
        <g id="Regular-M" transform="translate(0,200)">
            <path d="M466.591,146 L485.682,146 C488.213,146 490.641,144.994 492.431,143.204 C494.222,141.414 495.227,138.986 495.227,136.455 L495.227,98.273 C495.234,95.396 494.089,92.627 492.045,90.591 L480.633,79.179 C478.601,77.139 475.832,75.993 472.947,76 L447.5,76 C444.968,76 442.54,77.006 440.75,78.796 C438.96,80.586 437.955,83.014 437.955,85.545 L437.955,104.636 C437.955,106.394 439.379,107.818 441.136,107.818 C442.894,107.818 444.318,106.394 444.318,104.636 L444.318,85.545 C444.318,84.702 444.653,83.892 445.25,83.296 C445.847,82.699 446.656,82.364 447.5,82.364 L472.955,82.364 C474.15,82.361 475.29,82.833 476.129,83.674 L487.549,95.095 C488.395,95.937 488.867,97.077 488.864,98.265 L488.864,136.455 C488.864,137.298 488.528,138.108 487.932,138.704 C487.335,139.301 486.526,139.636 485.682,139.636 L466.591,139.636 C464.834,139.636 463.409,141.061 463.409,142.818 C463.409,144.575 464.834,146 466.591,146 Z" />
            <path d="M469.773,79.182 L469.773,95.091 C469.773,96.779 470.443,98.397 471.637,99.591 C472.83,100.784 474.449,101.455 476.136,101.455 L492.045,101.455 C493.803,101.455 495.227,100.03 495.227,98.273 C495.227,96.515 493.803,95.091 492.045,95.091 L476.136,95.091 C476.136,95.091 476.136,95.091 476.136,95.091 C476.136,95.091 476.136,95.091 476.136,95.091 L476.136,79.182 C476.136,77.425 474.712,76 472.955,76 C471.197,76 469.773,77.425 469.773,79.182 Z" />
            <path d="M441.136,123.727 L441.136,118.955 C441.136,119.376 440.969,119.781 440.67,120.079 C440.372,120.378 439.967,120.545 439.545,120.545 L461.818,120.545 C461.396,120.545 460.992,120.378 460.693,120.08 C460.395,119.781 460.227,119.376 460.227,118.955 L460.227,123.727 C460.227,125.485 461.652,126.909 463.409,126.909 C465.166,126.909 466.591,125.485 466.591,123.727 L466.591,118.955 C466.591,117.689 466.088,116.475 465.193,115.58 C464.298,114.685 463.084,114.182 461.818,114.182 L439.545,114.182 C438.28,114.182 437.066,114.685 436.171,115.58 C435.276,116.475 434.773,117.689 434.773,118.955 L434.773,123.727 C434.773,125.485 436.197,126.909 437.955,126.909 C439.712,126.909 441.136,125.485 441.136,123.727 Z" />
            <path d="M447.5,146 L453.864,146 C455.621,146 457.045,144.575 457.045,142.818 C457.045,141.061 455.621,139.636 453.864,139.636 L447.5,139.636 C445.743,139.636 444.318,141.061 444.318,142.818 C444.318,144.575 445.743,146 447.5,146 Z" />
            <path d="M447.5,117.364 L447.5,142.818 C447.5,144.575 448.925,146 450.682,146 C452.439,146 453.864,144.575 453.864,142.818 L453.864,117.364 C453.864,115.606 452.439,114.182 450.682,114.182 C448.925,114.182 447.5,115.606 447.5,117.364 Z" />
        </g>
        <g id="Black-M" transform="translate(0,200)">
            <path d="M666.591,146 L685.682,146 C688.213,146 690.641,144.994 692.431,143.204 C694.222,141.414 695.227,138.986 695.227,136.455 L695.227,98.273 C695.234,95.396 694.089,92.627 692.045,90.591 L680.633,79.179 C678.6,77.139 675.832,75.993 672.947,76 L647.5,76 C644.968,76 642.54,77.006 640.75,78.796 C638.96,80.586 637.955,83.014 637.955,85.545 L637.955,104.636 C637.955,106.394 639.379,107.818 641.136,107.818 C642.894,107.818 644.318,106.394 644.318,104.636 L644.318,85.545 C644.318,84.702 644.653,83.892 645.25,83.296 C645.847,82.699 646.656,82.364 647.5,82.364 L672.955,82.364 C674.15,82.361 675.29,82.833 676.129,83.674 L687.549,95.095 C688.395,95.937 688.867,97.077 688.864,98.265 L688.864,136.455 C688.864,137.298 688.528,138.108 687.932,138.704 C687.335,139.301 686.526,139.636 685.682,139.636 L666.591,139.636 C664.834,139.636 663.409,141.061 663.409,142.818 C663.409,144.575 664.834,146 666.591,146 Z" />
            <path d="M669.773,79.182 L669.773,95.091 C669.773,96.779 670.443,98.397 671.637,99.591 C672.83,100.784 674.449,101.455 676.136,101.455 L692.045,101.455 C693.803,101.455 695.227,100.03 695.227,98.273 C695.227,96.515 693.803,95.091 692.045,95.091 L676.136,95.091 C676.136,95.091 676.136,95.091 676.136,95.091 C676.136,95.091 676.136,95.091 676.136,95.091 L676.136,79.182 C676.136,77.425 674.712,76 672.955,76 C671.197,76 669.773,77.425 669.773,79.182 Z" />
            <path d="M641.136,123.727 L641.136,118.955 C641.136,119.376 640.969,119.781 640.67,120.079 C640.372,120.378 639.967,120.545 639.545,120.545 L661.818,120.545 C661.396,120.545 660.992,120.378 660.693,120.08 C660.395,119.781 660.227,119.376 660.227,118.955 L660.227,123.727 C660.227,125.485 661.652,126.909 663.409,126.909 C665.166,126.909 666.591,125.485 666.591,123.727 L666.591,118.955 C666.591,117.689 666.088,116.475 665.193,115.58 C664.298,114.685 663.084,114.182 661.818,114.182 L639.545,114.182 C638.28,114.182 637.066,114.685 636.171,115.58 C635.276,116.475 634.773,117.689 634.773,118.955 L634.773,123.727 C634.773,125.485 636.197,126.909 637.955,126.909 C639.712,126.909 641.136,125.485 641.136,123.727 Z" />
            <path d="M647.5,146 L653.864,146 C655.621,146 657.045,144.575 657.045,142.818 C657.045,141.061 655.621,139.636 653.864,139.636 L647.5,139.636 C645.743,139.636 644.318,141.061 644.318,142.818 C644.318,144.575 645.743,146 647.5,146 Z" />
            <path d="M647.5,117.364 L647.5,142.818 C647.5,144.575 648.924,146 650.682,146 C652.439,146 653.864,144.575 653.864,142.818 L653.864,117.364 C653.864,115.606 652.439,114.182 650.682,114.182 C648.924,114.182 647.5,115.606 647.5,117.364 Z" />
        </g>
    </g>
</svg>