<?xml version="1.0" encoding="UTF-8"?>
<svg height="600" width="800" xmlns="http://www.w3.org/2000/svg" xmlns:xlink="http://www.w3.org/1999/xlink">
    <g id="Notes" font-family="LucidaGrande, 'Lucida Grande', sans-serif" font-size="13">
        <rect fill="white" height="600.0" width="800.0" x="0.0" y="0.0" />
        <g font-size="13">
            <text x="18.0" y="176.0">Small</text>
            <text x="18.0" y="376.0">Medium</text>
            <text x="18.0" y="576.0">Large</text>
        </g>
        <g font-size="9">
            <text x="250.0" y="30.0">Ultralight</text>
            <text x="450.0" y="30.0">Regular</text>
            <text x="650.0" y="30.0">Black</text>
            <text id="template-version" fill="#505050" text-anchor="end" x="785.0" y="575.0">Template v.3.0</text>
            <a href="https://github.com/swhitty/SwiftDraw">
                <text fill="#505050" text-anchor="end" x="785.0" y="590.0">https://github.com/swhitty/SwiftDraw</text>
            </a>
        </g>
    </g>
    <g id="Guides" stroke="rgb(39, 170, 225)" stroke-width="0.5">
        <path id="Capline-S" d="M18,76 l800,0" />
        <path id="H-reference" d="M85,145.755 L87.685,145.755 L113.369,79.287 L114.052,79.287 L114.052,76 L112.148,76 L85,145.755 Z M95.693,121.536 L130.996,121.536 L130.263,119.313 L96.474,119.313 L95.693,121.536 Z M139.15,145.755 L141.787,145.755 L114.638,76 L113.466,76 L113.466,79.287 L139.15,145.755 Z" stroke="none" transform="translate(0,200)" />
        <path id="Baseline-S" d="M18,146 l800,0" />
        <path id="left-margin-Ultralight-M" d="M230,256 l0,110" />
        <path id="right-margin-Ultralight-M" d="M300,256 l0,110" />
        <path id="left-margin-Regular-M" d="M430,256 l0,110" />
        <path id="right-margin-Regular-M" d="M500,256 l0,110" />
        <path id="left-margin-Black-M" d="M630,256 l0,110" />
        <path id="right-margin-Black-M" d="M700,256 l0,110" />
        <path id="Capline-M" d="M18,276 l800,0" />
        <path id="Baseline-M" d="M18,346 l800,0" />
        <path id="Capline-L" d="M18,476 l800,0" />
        <path id="Baseline-L" d="M18,546 l800,0" />
    </g>
    <g id="Symbols">
        <g id="Ultralight-M" transform="translate(0,200)">
            <path d="M277.727,120.545 C274.28,120.545 271.786,119.833 266.182,117.591 C259.854,115.06 256.78,114.182 252.273,114.182 C246.794,114.182 241.508,116.201 237.424,119.854 C236.114,121.025 236.002,123.037 237.174,124.347 C238.345,125.656 240.357,125.769 241.667,124.597 C244.583,121.988 248.359,120.546 252.273,120.545 C255.72,120.545 258.214,121.258 263.818,123.5 C270.146,126.031 273.22,126.909 277.727,126.909 C279.485,126.909 280.909,125.485 280.909,123.727 C280.909,121.97 279.485,120.545 277.727,120.545 Z" />
            <path d="M230.932,81.432 L294.568,145.068 C295.811,146.311 297.826,146.311 299.068,145.068 C300.311,143.825 300.311,141.811 299.068,140.568 L235.432,76.932 C234.189,75.689 232.175,75.689 230.932,76.932 C229.689,78.175 229.689,80.189 230.932,81.432 Z" />
            <path d="M242.727,142.818 L242.727,85.545 C242.727,83.788 241.303,82.364 239.545,82.364 C237.788,82.364 236.364,83.788 236.364,85.545 L236.364,142.818 C236.364,144.575 237.788,146 239.545,146 C241.303,146 242.727,144.575 242.727,142.818 Z" />
            <path d="M251.178,82.364 L252.273,82.364 C255.752,82.364 258.559,83.179 263.481,85.288 C267.249,86.903 267.609,87.052 269.168,87.571 C271.445,88.33 273.509,88.727 275.605,88.727 C280.48,88.727 284.389,87.708 287.272,85.546 C287.273,85.545 287.273,85.545 287.273,85.545 C287.273,85.545 287.273,85.545 287.273,85.545 L287.273,118.468 C287.273,120.225 288.697,121.65 290.455,121.65 C292.212,121.65 293.636,120.225 293.636,118.468 L293.636,85.545 C293.636,83.135 292.275,80.932 290.119,79.854 C287.963,78.776 285.383,79.008 283.455,80.455 C281.812,81.686 279.215,82.364 275.605,82.364 C274.266,82.364 272.855,82.092 271.18,81.534 C269.869,81.097 269.533,80.958 265.988,79.439 C260.331,77.015 256.836,76 252.273,76 L251.178,76 C249.421,76 247.996,77.425 247.996,79.182 C247.996,80.939 249.421,82.364 251.178,82.364 Z" />
        </g>
        <g id="Regular-M" transform="translate(0,200)">
            <path d="M477.727,120.545 C474.28,120.545 471.786,119.833 466.182,117.591 C459.854,115.06 456.78,114.182 452.273,114.182 C446.794,114.182 441.508,116.201 437.424,119.854 C436.114,121.025 436.002,123.037 437.174,124.347 C438.345,125.656 440.357,125.769 441.667,124.597 C444.583,121.988 448.359,120.546 452.273,120.545 C455.72,120.545 458.214,121.258 463.818,123.5 C470.146,126.031 473.22,126.909 477.727,126.909 C479.485,126.909 480.909,125.485 480.909,123.727 C480.909,121.97 479.485,120.545 477.727,120.545 Z" />
            <path d="M430.932,81.432 L494.568,145.068 C495.811,146.311 497.826,146.311 499.068,145.068 C500.311,143.825 500.311,141.811 499.068,140.568 L435.432,76.932 C434.189,75.689 432.174,75.689 430.932,76.932 C429.689,78.175 429.689,80.189 430.932,81.432 Z" />
            <path d="M442.727,142.818 L442.727,85.545 C442.727,83.788 441.303,82.364 439.545,82.364 C437.788,82.364 436.364,83.788 436.364,85.545 L436.364,142.818 C436.364,144.575 437.788,146 439.545,146 C441.303,146 442.727,144.575 442.727,142.818 Z" />
            <path d="M451.178,82.364 L452.273,82.364 C455.752,82.364 458.559,83.179 463.481,85.288 C467.249,86.903 467.609,87.052 469.168,87.571 C471.445,88.33 473.509,88.727 475.605,88.727 C480.48,88.727 484.389,87.708 487.272,85.546 C487.273,85.545 487.273,85.545 487.273,85.545 C487.273,85.545 487.273,85.545 487.273,85.545 L487.273,118.468 C487.273,120.225 488.697,121.65 490.455,121.65 C492.212,121.65 493.636,120.225 493.636,118.468 L493.636,85.545 C493.636,83.135 492.275,80.932 490.119,79.854 C487.963,78.776 485.383,79.008 483.455,80.455 C481.812,81.686 479.215,82.364 475.605,82.364 C474.266,82.364 472.855,82.092 471.18,81.534 C469.869,81.097 469.533,80.958 465.988,79.439 C460.331,77.015 456.836,76 452.273,76 L451.178,76 C449.421,76 447.996,77.425 447.996,79.182 C447.996,80.939 449.421,82.364 451.178,82.364 Z" />
        </g>
        <g id="Black-M" transform="translate(0,200)">
            <path d="M677.727,120.545 C674.28,120.545 671.786,119.833 666.182,117.591 C659.854,115.06 656.78,114.182 652.273,114.182 C646.794,114.182 641.508,116.201 637.424,119.854 C636.114,121.025 636.002,123.037 637.174,124.347 C638.346,125.656 640.357,125.769 641.667,124.597 C644.583,121.988 648.359,120.546 652.273,120.545 C655.72,120.545 658.214,121.258 663.818,123.5 C670.146,126.031 673.22,126.909 677.727,126.909 C679.485,126.909 680.909,125.485 680.909,123.727 C680.909,121.97 679.485,120.545 677.727,120.545 Z" />
            <path d="M630.932,81.432 L694.568,145.068 C695.811,146.311 697.826,146.311 699.068,145.068 C700.311,143.825 700.311,141.811 699.068,140.568 L635.432,76.932 C634.189,75.689 632.174,75.689 630.932,76.932 C629.689,78.175 629.689,80.189 630.932,81.432 Z" />
            <path d="M642.727,142.818 L642.727,85.545 C642.727,83.788 641.303,82.364 639.545,82.364 C637.788,82.364 636.364,83.788 636.364,85.545 L636.364,142.818 C636.364,144.575 637.788,146 639.545,146 C641.303,146 642.727,144.575 642.727,142.818 Z" />
            <path d="M651.178,82.364 L652.273,82.364 C655.752,82.364 658.559,83.179 663.481,85.288 C667.249,86.903 667.609,87.052 669.168,87.571 C671.445,88.33 673.509,88.727 675.605,88.727 C680.48,88.727 684.389,87.708 687.272,85.546 C687.273,85.545 687.273,85.545 687.273,85.545 C687.273,85.545 687.273,85.545 687.273,85.545 L687.273,118.468 C687.273,120.225 688.697,121.65 690.455,121.65 C692.212,121.65 693.636,120.225 693.636,118.468 L693.636,85.545 C693.636,83.135 692.275,80.932 690.119,79.854 C687.963,78.776 685.383,79.008 683.455,80.455 C681.812,81.686 679.215,82.364 675.605,82.364 C674.266,82.364 672.855,82.092 671.18,81.534 C669.869,81.097 669.533,80.958 665.988,79.439 C660.331,77.015 656.836,76 652.273,76 L651.178,76 C649.421,76 647.996,77.425 647.996,79.182 C647.996,80.939 649.421,82.364 651.178,82.364 Z" />
        </g>
    </g>
</svg>