<?xml version="1.0" encoding="UTF-8"?>
<svg height="600" width="800" xmlns="http://www.w3.org/2000/svg" xmlns:xlink="http://www.w3.org/1999/xlink">
    <g id="Notes" font-family="LucidaGrande, 'Lucida Grande', sans-serif" font-size="13">
        <rect fill="white" height="600.0" width="800.0" x="0.0" y="0.0" />
        <g font-size="13">
            <text x="18.0" y="176.0">Small</text>
            <text x="18.0" y="376.0">Medium</text>
            <text x="18.0" y="576.0">Large</text>
        </g>
        <g font-size="9">
            <text x="250.0" y="30.0">Ultralight</text>
            <text x="450.0" y="30.0">Regular</text>
            <text x="650.0" y="30.0">Black</text>
            <text id="template-version" fill="#505050" text-anchor="end" x="785.0" y="575.0">Template v.3.0</text>
            <a href="https://github.com/swhitty/SwiftDraw">
                <text fill="#505050" text-anchor="end" x="785.0" y="590.0">https://github.com/swhitty/SwiftDraw</text>
            </a>
        </g>
    </g>
    <g id="Guides" stroke="rgb(39, 170, 225)" stroke-width="0.5">
        <path id="Capline-S" d="M18,76 l800,0" />
        <path id="H-reference" d="M85,145.755 L87.685,145.755 L113.369,79.287 L114.052,79.287 L114.052,76 L112.148,76 L85,145.755 Z M95.693,121.536 L130.996,121.536 L130.263,119.313 L96.474,119.313 L95.693,121.536 Z M139.15,145.755 L141.787,145.755 L114.638,76 L113.466,76 L113.466,79.287 L139.15,145.755 Z" stroke="none" transform="translate(0,200)" />
        <path id="Baseline-S" d="M18,146 l800,0" />
        <path id="left-margin-Ultralight-M" d="M242.727,256 l0,110" />
        <path id="right-margin-Ultralight-M" d="M287.273,256 l0,110" />
        <path id="left-margin-Regular-M" d="M442.727,256 l0,110" />
        <path id="right-margin-Regular-M" d="M487.273,256 l0,110" />
        <path id="left-margin-Black-M" d="M642.727,256 l0,110" />
        <path id="right-margin-Black-M" d="M687.273,256 l0,110" />
        <path id="Capline-M" d="M18,276 l800,0" />
        <path id="Baseline-M" d="M18,346 l800,0" />
        <path id="Capline-L" d="M18,476 l800,0" />
        <path id="Baseline-L" d="M18,546 l800,0" />
    </g>
    <g id="Symbols">
        <g id="Ultralight-M" transform="translate(0,200)">
            <path d="M261.818,114.182 L261.818,117.364 C261.818,119.121 263.243,120.545 265,120.545 C266.757,120.545 268.182,119.121 268.182,117.364 L268.182,114.182 C268.182,112.425 266.757,111 265,111 C263.243,111 261.818,112.425 261.818,114.182 Z" />
            <path d="M280.909,82.364 C280.909,82.364 280.909,82.364 280.909,82.364 C280.909,82.364 280.909,82.364 280.909,82.364 L280.909,95.091 C280.909,96.47 280.462,97.809 279.635,98.911 L277.725,101.457 C275.661,104.211 274.545,107.559 274.545,111 L274.545,136.455 C274.545,137.298 274.21,138.108 273.614,138.704 C273.017,139.301 272.207,139.636 271.364,139.636 L258.636,139.636 C257.792,139.636 256.983,139.301 256.386,138.704 C255.79,138.108 255.455,137.298 255.455,136.455 L255.455,111 C255.453,107.553 254.336,104.204 252.269,101.45 L250.361,98.906 C249.537,97.806 249.091,96.467 249.091,95.091 L249.091,82.364 C249.091,82.364 249.091,82.364 249.091,82.364 C249.091,82.364 249.091,82.364 249.091,82.364 L280.909,82.364 Z M280.909,76 L249.091,76 C247.403,76 245.785,76.67 244.591,77.864 C243.398,79.057 242.727,80.676 242.727,82.364 L242.727,95.091 C242.727,97.843 243.619,100.52 245.269,102.723 L247.179,105.269 C248.42,106.922 249.09,108.932 249.091,111.001 L249.091,136.455 C249.091,138.986 250.097,141.414 251.887,143.204 C253.677,144.994 256.105,146 258.636,146 L271.364,146 C273.895,146 276.323,144.994 278.113,143.204 C279.903,141.414 280.909,138.986 280.909,136.455 L280.909,111 C280.909,108.936 281.578,106.927 282.817,105.275 L284.725,102.73 C286.378,100.528 287.272,97.849 287.273,95.092 L287.273,82.364 C287.273,80.676 286.602,79.057 285.409,77.864 C284.215,76.67 282.597,76 280.909,76 Z" />
            <path d="M245.909,95.091 L284.091,95.091 C285.848,95.091 287.273,93.666 287.273,91.909 C287.273,90.152 285.848,88.727 284.091,88.727 L245.909,88.727 C244.152,88.727 242.727,90.152 242.727,91.909 C242.727,93.666 244.152,95.091 245.909,95.091 Z" />
        </g>
        <g id="Regular-M" transform="translate(0,200)">
            <path d="M461.818,114.182 L461.818,117.364 C461.818,119.121 463.243,120.545 465,120.545 C466.757,120.545 468.182,119.121 468.182,117.364 L468.182,114.182 C468.182,112.425 466.757,111 465,111 C463.243,111 461.818,112.425 461.818,114.182 Z" />
            <path d="M480.909,82.364 C480.909,82.364 480.909,82.364 480.909,82.364 C480.909,82.364 480.909,82.364 480.909,82.364 L480.909,95.091 C480.909,96.47 480.462,97.809 479.635,98.911 L477.725,101.457 C475.661,104.211 474.545,107.559 474.545,111 L474.545,136.455 C474.545,137.298 474.21,138.108 473.614,138.704 C473.017,139.301 472.207,139.636 471.364,139.636 L458.636,139.636 C457.792,139.636 456.983,139.301 456.386,138.704 C455.79,138.108 455.455,137.298 455.455,136.455 L455.455,111 C455.453,107.553 454.336,104.204 452.269,101.45 L450.361,98.906 C449.537,97.806 449.091,96.467 449.091,95.091 L449.091,82.364 C449.091,82.364 449.091,82.364 449.091,82.364 C449.091,82.364 449.091,82.364 449.091,82.364 L480.909,82.364 Z M480.909,76 L449.091,76 C447.403,76 445.785,76.67 444.591,77.864 C443.398,79.057 442.727,80.676 442.727,82.364 L442.727,95.091 C442.727,97.843 443.619,100.52 445.269,102.723 L447.179,105.269 C448.42,106.922 449.09,108.932 449.091,111.001 L449.091,136.455 C449.091,138.986 450.097,141.414 451.887,143.204 C453.677,144.994 456.105,146 458.636,146 L471.364,146 C473.895,146 476.323,144.994 478.113,143.204 C479.903,141.414 480.909,138.986 480.909,136.455 L480.909,111 C480.909,108.936 481.578,106.927 482.817,105.275 L484.725,102.73 C486.378,100.528 487.272,97.849 487.273,95.092 L487.273,82.364 C487.273,80.676 486.602,79.057 485.409,77.864 C484.215,76.67 482.597,76 480.909,76 Z" />
            <path d="M445.909,95.091 L484.091,95.091 C485.848,95.091 487.273,93.666 487.273,91.909 C487.273,90.152 485.848,88.727 484.091,88.727 L445.909,88.727 C444.152,88.727 442.727,90.152 442.727,91.909 C442.727,93.666 444.152,95.091 445.909,95.091 Z" />
        </g>
        <g id="Black-M" transform="translate(0,200)">
            <path d="M661.818,114.182 L661.818,117.364 C661.818,119.121 663.243,120.545 665,120.545 C666.757,120.545 668.182,119.121 668.182,117.364 L668.182,114.182 C668.182,112.425 666.757,111 665,111 C663.243,111 661.818,112.425 661.818,114.182 Z" />
            <path d="M680.909,82.364 C680.909,82.364 680.909,82.364 680.909,82.364 C680.909,82.364 680.909,82.364 680.909,82.364 L680.909,95.091 C680.909,96.47 680.462,97.809 679.635,98.911 L677.725,101.457 C675.661,104.211 674.545,107.559 674.545,111 L674.545,136.455 C674.545,137.298 674.21,138.108 673.614,138.704 C673.017,139.301 672.208,139.636 671.364,139.636 L658.636,139.636 C657.793,139.636 656.983,139.301 656.386,138.704 C655.79,138.108 655.455,137.298 655.455,136.455 L655.455,111 C655.453,107.553 654.336,104.204 652.269,101.45 L650.361,98.906 C649.537,97.806 649.091,96.467 649.091,95.091 L649.091,82.364 C649.091,82.364 649.091,82.364 649.091,82.364 C649.091,82.364 649.091,82.364 649.091,82.364 L680.909,82.364 Z M680.909,76 L649.091,76 C647.403,76 645.785,76.67 644.591,77.864 C643.398,79.057 642.727,80.676 642.727,82.364 L642.727,95.091 C642.727,97.843 643.619,100.52 645.269,102.723 L647.179,105.269 C648.42,106.922 649.09,108.932 649.091,111.001 L649.091,136.455 C649.091,138.986 650.097,141.414 651.887,143.204 C653.677,144.994 656.105,146 658.636,146 L671.364,146 C673.895,146 676.323,144.994 678.113,143.204 C679.903,141.414 680.909,138.986 680.909,136.455 L680.909,111 C680.909,108.936 681.578,106.927 682.817,105.275 L684.725,102.73 C686.378,100.528 687.272,97.849 687.273,95.092 L687.273,82.364 C687.273,80.676 686.602,79.057 685.409,77.864 C684.215,76.67 682.597,76 680.909,76 Z" />
            <path d="M645.909,95.091 L684.091,95.091 C685.848,95.091 687.273,93.666 687.273,91.909 C687.273,90.152 685.848,88.727 684.091,88.727 L645.909,88.727 C644.152,88.727 642.727,90.152 642.727,91.909 C642.727,93.666 644.152,95.091 645.909,95.091 Z" />
        </g>
    </g>
</svg>