<?xml version="1.0" encoding="UTF-8"?>
<svg height="600" width="800" xmlns="http://www.w3.org/2000/svg" xmlns:xlink="http://www.w3.org/1999/xlink">
    <g id="Notes" font-family="LucidaGrande, 'Lucida Grande', sans-serif" font-size="13">
        <rect fill="white" height="600.0" width="800.0" x="0.0" y="0.0" />
        <g font-size="13">
            <text x="18.0" y="176.0">Small</text>
            <text x="18.0" y="376.0">Medium</text>
            <text x="18.0" y="576.0">Large</text>
        </g>
        <g font-size="9">
            <text x="250.0" y="30.0">Ultralight</text>
            <text x="450.0" y="30.0">Regular</text>
            <text x="650.0" y="30.0">Black</text>
            <text id="template-version" fill="#505050" text-anchor="end" x="785.0" y="575.0">Template v.3.0</text>
            <a href="https://github.com/swhitty/SwiftDraw">
                <text fill="#505050" text-anchor="end" x="785.0" y="590.0">https://github.com/swhitty/SwiftDraw</text>
            </a>
        </g>
    </g>
    <g id="Guides" stroke="rgb(39, 170, 225)" stroke-width="0.5">
        <path id="Capline-S" d="M18,76 l800,0" />
        <path id="H-reference" d="M85,145.755 L87.685,145.755 L113.369,79.287 L114.052,79.287 L114.052,76 L112.148,76 L85,145.755 Z M95.693,121.536 L130.996,121.536 L130.263,119.313 L96.474,119.313 L95.693,121.536 Z M139.15,145.755 L141.787,145.755 L114.638,76 L113.466,76 L113.466,79.287 L139.15,145.755 Z" stroke="none" transform="translate(0,200)" />
        <path id="Baseline-S" d="M18,146 l800,0" />
        <path id="left-margin-Ultralight-M" d="M226.5,256 l0,110" />
        <path id="right-margin-Ultralight-M" d="M303.5,256 l0,110" />
        <path id="left-margin-Regular-M" d="M426.5,256 l0,110" />
        <path id="right-margin-Regular-M" d="M503.5,256 l0,110" />
        <path id="left-margin-Black-M" d="M626.5,256 l0,110" />
        <path id="right-margin-Black-M" d="M703.5,256 l0,110" />
        <path id="Capline-M" d="M18,276 l800,0" />
        <path id="Baseline-M" d="M18,346 l800,0" />
        <path id="Capline-L" d="M18,476 l800,0" />
        <path id="Baseline-L" d="M18,546 l800,0" />
    </g>
    <g id="Symbols">
        <g id="Ultralight-M" transform="translate(0,200)">
            <path d="M272,135.5 C272,133.567 273.567,132 275.5,132 C277.433,132 279,133.567 279,135.5 C279,137.433 277.433,139 275.5,139 C273.567,139 272,137.433 272,135.5 Z M265,135.5 C265,141.299 269.701,146 275.5,146 C281.299,146 286,141.299 286,135.5 C286,129.701 281.299,125 275.5,125 C269.701,125 265,129.701 265,135.5 Z" />
            <path d="M297.725,141.426 C301.29,139.629 303.528,135.967 303.5,131.976 L303.5,97 C303.5,94.215 302.394,91.545 300.424,89.575 C298.455,87.606 295.785,86.5 293,86.5 L265.35,86.5 C264.126,86.512 263.012,85.919 262.358,84.925 L259.501,80.692 C257.581,77.776 254.287,76.001 250.756,76 L237,76 C234.215,76 231.544,77.106 229.575,79.075 C227.606,81.045 226.5,83.715 226.5,86.5 L226.5,132 C226.5,134.785 227.606,137.455 229.575,139.425 C231.544,141.394 234.215,142.5 237,142.5 L254.85,142.5 C256.783,142.5 258.35,140.933 258.35,139 C258.35,137.067 256.783,135.5 254.85,135.5 L237,135.5 C236.072,135.5 235.181,135.131 234.525,134.475 C233.869,133.818 233.5,132.928 233.5,132 L233.5,86.5 C233.5,85.572 233.869,84.682 234.525,84.025 C235.181,83.369 236.072,83 237,83 L250.755,83 C251.931,83 253.029,83.592 253.677,84.575 L256.534,88.808 C258.474,91.755 261.816,93.535 265.384,93.5 L293,93.5 C293.928,93.5 294.818,93.869 295.475,94.525 C296.131,95.182 296.5,96.072 296.5,97 L296.5,132 C296.509,133.355 295.763,134.576 294.575,135.174 C292.849,136.044 292.154,138.149 293.024,139.875 C293.894,141.601 295.999,142.295 297.725,141.426 Z" />
            <path d="M279,107.5 L279,104 C279,102.067 277.433,100.5 275.5,100.5 C273.567,100.5 272,102.067 272,104 L272,107.5 C272,109.433 273.567,111 275.5,111 C277.433,111 279,109.433 279,107.5 Z" />
            <path d="M279,128.5 L279,121.5 C279,119.567 277.433,118 275.5,118 C273.567,118 272,119.567 272,121.5 L272,128.5 C272,130.433 273.567,132 275.5,132 C277.433,132 279,130.433 279,128.5 Z" />
        </g>
        <g id="Regular-M" transform="translate(0,200)">
            <path d="M472,135.5 C472,133.567 473.567,132 475.5,132 C477.433,132 479,133.567 479,135.5 C479,137.433 477.433,139 475.5,139 C473.567,139 472,137.433 472,135.5 Z M465,135.5 C465,141.299 469.701,146 475.5,146 C481.299,146 486,141.299 486,135.5 C486,129.701 481.299,125 475.5,125 C469.701,125 465,129.701 465,135.5 Z" />
            <path d="M497.725,141.426 C501.29,139.629 503.528,135.967 503.5,131.976 L503.5,97 C503.5,94.215 502.394,91.545 500.424,89.575 C498.455,87.606 495.785,86.5 493,86.5 L465.35,86.5 C464.126,86.512 463.012,85.919 462.358,84.925 L459.501,80.692 C457.581,77.776 454.287,76.001 450.756,76 L437,76 C434.215,76 431.544,77.106 429.575,79.075 C427.606,81.045 426.5,83.715 426.5,86.5 L426.5,132 C426.5,134.785 427.606,137.455 429.575,139.425 C431.544,141.394 434.215,142.5 437,142.5 L454.85,142.5 C456.783,142.5 458.35,140.933 458.35,139 C458.35,137.067 456.783,135.5 454.85,135.5 L437,135.5 C436.072,135.5 435.181,135.131 434.525,134.475 C433.869,133.818 433.5,132.928 433.5,132 L433.5,86.5 C433.5,85.572 433.869,84.682 434.525,84.025 C435.181,83.369 436.072,83 437,83 L450.755,83 C451.931,83 453.03,83.592 453.677,84.575 L456.534,88.808 C458.474,91.755 461.816,93.535 465.384,93.5 L493,93.5 C493.928,93.5 494.818,93.869 495.475,94.525 C496.131,95.182 496.5,96.072 496.5,97 L496.5,132 C496.509,133.355 495.763,134.576 494.575,135.174 C492.849,136.044 492.154,138.149 493.024,139.875 C493.894,141.601 495.999,142.295 497.725,141.426 Z" />
            <path d="M479,107.5 L479,104 C479,102.067 477.433,100.5 475.5,100.5 C473.567,100.5 472,102.067 472,104 L472,107.5 C472,109.433 473.567,111 475.5,111 C477.433,111 479,109.433 479,107.5 Z" />
            <path d="M479,128.5 L479,121.5 C479,119.567 477.433,118 475.5,118 C473.567,118 472,119.567 472,121.5 L472,128.5 C472,130.433 473.567,132 475.5,132 C477.433,132 479,130.433 479,128.5 Z" />
        </g>
        <g id="Black-M" transform="translate(0,200)">
            <path d="M672,135.5 C672,133.567 673.567,132 675.5,132 C677.433,132 679,133.567 679,135.5 C679,137.433 677.433,139 675.5,139 C673.567,139 672,137.433 672,135.5 Z M665,135.5 C665,141.299 669.701,146 675.5,146 C681.299,146 686,141.299 686,135.5 C686,129.701 681.299,125 675.5,125 C669.701,125 665,129.701 665,135.5 Z" />
            <path d="M697.725,141.426 C701.29,139.629 703.528,135.967 703.5,131.976 L703.5,97 C703.5,94.215 702.394,91.545 700.424,89.575 C698.455,87.606 695.785,86.5 693,86.5 L665.35,86.5 C664.126,86.512 663.012,85.919 662.358,84.925 L659.501,80.692 C657.581,77.776 654.287,76.001 650.755,76 L637,76 C634.215,76 631.544,77.106 629.575,79.075 C627.606,81.045 626.5,83.715 626.5,86.5 L626.5,132 C626.5,134.785 627.606,137.455 629.575,139.425 C631.544,141.394 634.215,142.5 637,142.5 L654.85,142.5 C656.783,142.5 658.35,140.933 658.35,139 C658.35,137.067 656.783,135.5 654.85,135.5 L637,135.5 C636.072,135.5 635.181,135.131 634.525,134.475 C633.869,133.818 633.5,132.928 633.5,132 L633.5,86.5 C633.5,85.572 633.869,84.682 634.525,84.025 C635.181,83.369 636.072,83 637,83 L650.755,83 C651.931,83 653.029,83.592 653.677,84.575 L656.534,88.808 C658.474,91.755 661.816,93.535 665.384,93.5 L693,93.5 C693.928,93.5 694.818,93.869 695.475,94.525 C696.131,95.182 696.5,96.072 696.5,97 L696.5,132 C696.509,133.355 695.763,134.576 694.575,135.174 C692.849,136.044 692.154,138.149 693.024,139.875 C693.894,141.601 695.999,142.295 697.725,141.426 Z" />
            <path d="M679,107.5 L679,104 C679,102.067 677.433,100.5 675.5,100.5 C673.567,100.5 672,102.067 672,104 L672,107.5 C672,109.433 673.567,111 675.5,111 C677.433,111 679,109.433 679,107.5 Z" />
            <path d="M679,128.5 L679,121.5 C679,119.567 677.433,118 675.5,118 C673.567,118 672,119.567 672,121.5 L672,128.5 C672,130.433 673.567,132 675.5,132 C677.433,132 679,130.433 679,128.5 Z" />
        </g>
    </g>
</svg>