<?xml version="1.0" encoding="UTF-8"?>
<svg height="600" width="800" xmlns="http://www.w3.org/2000/svg" xmlns:xlink="http://www.w3.org/1999/xlink">
    <g id="Notes" font-family="LucidaGrande, 'Lucida Grande', sans-serif" font-size="13">
        <rect fill="white" height="600.0" width="800.0" x="0.0" y="0.0" />
        <g font-size="13">
            <text x="18.0" y="176.0">Small</text>
            <text x="18.0" y="376.0">Medium</text>
            <text x="18.0" y="576.0">Large</text>
        </g>
        <g font-size="9">
            <text x="250.0" y="30.0">Ultralight</text>
            <text x="450.0" y="30.0">Regular</text>
            <text x="650.0" y="30.0">Black</text>
            <text id="template-version" fill="#505050" text-anchor="end" x="785.0" y="575.0">Template v.3.0</text>
            <a href="https://github.com/swhitty/SwiftDraw">
                <text fill="#505050" text-anchor="end" x="785.0" y="590.0">https://github.com/swhitty/SwiftDraw</text>
            </a>
        </g>
    </g>
    <g id="Guides" stroke="rgb(39, 170, 225)" stroke-width="0.5">
        <path id="Capline-S" d="M18,76 l800,0" />
        <path id="H-reference" d="M85,145.755 L87.685,145.755 L113.369,79.287 L114.052,79.287 L114.052,76 L112.148,76 L85,145.755 Z M95.693,121.536 L130.996,121.536 L130.263,119.313 L96.474,119.313 L95.693,121.536 Z M139.15,145.755 L141.787,145.755 L114.638,76 L113.466,76 L113.466,79.287 L139.15,145.755 Z" stroke="none" transform="translate(0,200)" />
        <path id="Baseline-S" d="M18,146 l800,0" />
        <path id="left-margin-Ultralight-M" d="M230,256 l0,110" />
        <path id="right-margin-Ultralight-M" d="M300,256 l0,110" />
        <path id="left-margin-Regular-M" d="M430,256 l0,110" />
        <path id="right-margin-Regular-M" d="M500,256 l0,110" />
        <path id="left-margin-Black-M" d="M630,256 l0,110" />
        <path id="right-margin-Black-M" d="M700,256 l0,110" />
        <path id="Capline-M" d="M18,276 l800,0" />
        <path id="Baseline-M" d="M18,346 l800,0" />
        <path id="Capline-L" d="M18,476 l800,0" />
        <path id="Baseline-L" d="M18,546 l800,0" />
    </g>
    <g id="Symbols">
        <g id="Ultralight-M" transform="translate(0,200)">
            <path d="M293,107.5 C294.857,107.5 296.637,106.763 297.95,105.45 C299.263,104.137 300,102.357 300,100.5 L300,90 C300,88.143 299.263,86.363 297.95,85.05 C296.637,83.737 294.857,83 293,83 L284.25,83 C284.25,83 284.25,83 284.25,83 L281.1,78.8 C279.778,77.037 277.703,76 275.5,76 L268.5,76 C266.643,76 264.863,76.737 263.55,78.05 C262.237,79.363 261.5,81.143 261.5,83 L261.5,100.5 C261.5,102.357 262.237,104.137 263.55,105.45 C264.863,106.762 266.643,107.5 268.5,107.5 L293,107.5 Z M293,100.5 L268.5,100.5 C268.5,100.5 268.5,100.5 268.5,100.5 C268.5,100.5 268.5,100.5 268.5,100.5 L268.5,83 C268.5,83 268.5,83 268.5,83 C268.5,83 268.5,83 268.5,83 L275.5,83 C275.5,83 275.5,83 275.5,83 L278.65,87.2 C279.972,88.963 282.047,90 284.25,90 L293,90 C293,90 293,90 293,90 C293,90 293,90 293,90 L293,100.5 C293,100.5 293,100.5 293,100.5 C293,100.5 293,100.5 293,100.5 Z" />
            <path d="M293,146 C294.857,146 296.637,145.263 297.95,143.95 C299.263,142.637 300,140.857 300,139 L300,128.5 C300,126.643 299.263,124.863 297.95,123.55 C296.637,122.237 294.857,121.5 293,121.5 L282.85,121.5 C282.896,121.5 282.896,121.5 282.896,121.5 L281.438,118.55 C280.391,116.141 277.86,114.49 275.068,114.5 L268.5,114.5 C266.643,114.5 264.863,115.238 263.55,116.55 C262.237,117.863 261.5,119.643 261.5,121.5 L261.5,139 C261.5,140.857 262.237,142.637 263.55,143.95 C264.863,145.263 266.643,146 268.5,146 L293,146 Z M293,139 L268.5,139 C268.5,139 268.5,139 268.5,139 C268.5,139 268.5,139 268.5,139 L268.5,121.5 C268.5,121.5 268.5,121.5 268.5,121.5 C268.5,121.5 268.5,121.5 268.5,121.5 L275.08,121.5 C275.092,121.5 275.092,121.5 275.092,121.5 L276.632,124.625 C277.819,126.981 280.194,128.466 282.804,128.5 L293,128.5 C293,128.5 293,128.5 293,128.5 C293,128.5 293,128.5 293,128.5 L293,139 C293,139 293,139 293,139 C293,139 293,139 293,139 Z" />
            <path d="M230,86.5 C230,89.285 231.106,91.955 233.075,93.925 C235.045,95.894 237.715,97 240.5,97 L251,97 C252.933,97 254.5,95.433 254.5,93.5 C254.5,91.567 252.933,90 251,90 L240.5,90 C239.572,90 238.682,89.631 238.025,88.975 C237.369,88.318 237,87.428 237,86.5 C237,84.567 235.433,83 233.5,83 C231.567,83 230,84.567 230,86.5 Z" />
            <path d="M230,79.5 L230,125 C230,127.785 231.106,130.455 233.075,132.425 C235.045,134.394 237.715,135.5 240.5,135.5 L251,135.5 C252.933,135.5 254.5,133.933 254.5,132 C254.5,130.067 252.933,128.5 251,128.5 L240.5,128.5 C239.572,128.5 238.682,128.131 238.025,127.475 C237.369,126.818 237,125.928 237,125 L237,79.5 C237,77.567 235.433,76 233.5,76 C231.567,76 230,77.567 230,79.5 Z" />
        </g>
        <g id="Regular-M" transform="translate(0,200)">
            <path d="M493,107.5 C494.857,107.5 496.637,106.763 497.95,105.45 C499.263,104.137 500,102.357 500,100.5 L500,90 C500,88.143 499.263,86.363 497.95,85.05 C496.637,83.737 494.857,83 493,83 L484.25,83 C484.25,83 484.25,83 484.25,83 L481.1,78.8 C479.778,77.037 477.703,76 475.5,76 L468.5,76 C466.643,76 464.863,76.737 463.55,78.05 C462.237,79.363 461.5,81.143 461.5,83 L461.5,100.5 C461.5,102.357 462.237,104.137 463.55,105.45 C464.863,106.762 466.643,107.5 468.5,107.5 L493,107.5 Z M493,100.5 L468.5,100.5 C468.5,100.5 468.5,100.5 468.5,100.5 C468.5,100.5 468.5,100.5 468.5,100.5 L468.5,83 C468.5,83 468.5,83 468.5,83 C468.5,83 468.5,83 468.5,83 L475.5,83 C475.5,83 475.5,83 475.5,83 L478.65,87.2 C479.972,88.963 482.047,90 484.25,90 L493,90 C493,90 493,90 493,90 C493,90 493,90 493,90 L493,100.5 C493,100.5 493,100.5 493,100.5 C493,100.5 493,100.5 493,100.5 Z" />
            <path d="M493,146 C494.857,146 496.637,145.263 497.95,143.95 C499.263,142.637 500,140.857 500,139 L500,128.5 C500,126.643 499.263,124.863 497.95,123.55 C496.637,122.237 494.857,121.5 493,121.5 L482.85,121.5 C482.896,121.5 482.896,121.5 482.896,121.5 L481.438,118.55 C480.391,116.141 477.86,114.49 475.068,114.5 L468.5,114.5 C466.643,114.5 464.863,115.238 463.55,116.55 C462.237,117.863 461.5,119.643 461.5,121.5 L461.5,139 C461.5,140.857 462.237,142.637 463.55,143.95 C464.863,145.263 466.643,146 468.5,146 L493,146 Z M493,139 L468.5,139 C468.5,139 468.5,139 468.5,139 C468.5,139 468.5,139 468.5,139 L468.5,121.5 C468.5,121.5 468.5,121.5 468.5,121.5 C468.5,121.5 468.5,121.5 468.5,121.5 L475.08,121.5 C475.092,121.5 475.092,121.5 475.092,121.5 L476.632,124.625 C477.819,126.981 480.194,128.466 482.804,128.5 L493,128.5 C493,128.5 493,128.5 493,128.5 C493,128.5 493,128.5 493,128.5 L493,139 C493,139 493,139 493,139 C493,139 493,139 493,139 Z" />
            <path d="M430,86.5 C430,89.285 431.106,91.955 433.075,93.925 C435.045,95.894 437.715,97 440.5,97 L451,97 C452.933,97 454.5,95.433 454.5,93.5 C454.5,91.567 452.933,90 451,90 L440.5,90 C439.572,90 438.682,89.631 438.025,88.975 C437.369,88.318 437,87.428 437,86.5 C437,84.567 435.433,83 433.5,83 C431.567,83 430,84.567 430,86.5 Z" />
            <path d="M430,79.5 L430,125 C430,127.785 431.106,130.455 433.075,132.425 C435.044,134.394 437.715,135.5 440.5,135.5 L451,135.5 C452.933,135.5 454.5,133.933 454.5,132 C454.5,130.067 452.933,128.5 451,128.5 L440.5,128.5 C439.572,128.5 438.682,128.131 438.025,127.475 C437.369,126.818 437,125.928 437,125 L437,79.5 C437,77.567 435.433,76 433.5,76 C431.567,76 430,77.567 430,79.5 Z" />
        </g>
        <g id="Black-M" transform="translate(0,200)">
            <path d="M693,107.5 C694.857,107.5 696.637,106.763 697.95,105.45 C699.263,104.137 700,102.357 700,100.5 L700,90 C700,88.143 699.263,86.363 697.95,85.05 C696.637,83.737 694.857,83 693,83 L684.25,83 C684.25,83 684.25,83 684.25,83 L681.1,78.8 C679.778,77.037 677.703,76 675.5,76 L668.5,76 C666.643,76 664.863,76.737 663.55,78.05 C662.237,79.363 661.5,81.143 661.5,83 L661.5,100.5 C661.5,102.357 662.237,104.137 663.55,105.45 C664.863,106.762 666.643,107.5 668.5,107.5 L693,107.5 Z M693,100.5 L668.5,100.5 C668.5,100.5 668.5,100.5 668.5,100.5 C668.5,100.5 668.5,100.5 668.5,100.5 L668.5,83 C668.5,83 668.5,83 668.5,83 C668.5,83 668.5,83 668.5,83 L675.5,83 C675.5,83 675.5,83 675.5,83 L678.65,87.2 C679.972,88.963 682.047,90 684.25,90 L693,90 C693,90 693,90 693,90 C693,90 693,90 693,90 L693,100.5 C693,100.5 693,100.5 693,100.5 C693,100.5 693,100.5 693,100.5 Z" />
            <path d="M693,146 C694.857,146 696.637,145.263 697.95,143.95 C699.263,142.637 700,140.857 700,139 L700,128.5 C700,126.643 699.263,124.863 697.95,123.55 C696.637,122.237 694.857,121.5 693,121.5 L682.85,121.5 C682.896,121.5 682.896,121.5 682.896,121.5 L681.438,118.55 C680.391,116.141 677.86,114.49 675.068,114.5 L668.5,114.5 C666.643,114.5 664.863,115.238 663.55,116.55 C662.237,117.863 661.5,119.643 661.5,121.5 L661.5,139 C661.5,140.857 662.237,142.637 663.55,143.95 C664.863,145.263 666.643,146 668.5,146 L693,146 Z M693,139 L668.5,139 C668.5,139 668.5,139 668.5,139 C668.5,139 668.5,139 668.5,139 L668.5,121.5 C668.5,121.5 668.5,121.5 668.5,121.5 C668.5,121.5 668.5,121.5 668.5,121.5 L675.08,121.5 C675.092,121.5 675.092,121.5 675.092,121.5 L676.632,124.625 C677.819,126.981 680.194,128.466 682.804,128.5 L693,128.5 C693,128.5 693,128.5 693,128.5 C693,128.5 693,128.5 693,128.5 L693,139 C693,139 693,139 693,139 C693,139 693,139 693,139 Z" />
            <path d="M630,86.5 C630,89.285 631.106,91.955 633.075,93.925 C635.044,95.894 637.715,97 640.5,97 L651,97 C652.933,97 654.5,95.433 654.5,93.5 C654.5,91.567 652.933,90 651,90 L640.5,90 C639.572,90 638.682,89.631 638.025,88.975 C637.369,88.318 637,87.428 637,86.5 C637,84.567 635.433,83 633.5,83 C631.567,83 630,84.567 630,86.5 Z" />
            <path d="M630,79.5 L630,125 C630,127.785 631.106,130.455 633.075,132.425 C635.044,134.394 637.715,135.5 640.5,135.5 L651,135.5 C652.933,135.5 654.5,133.933 654.5,132 C654.5,130.067 652.933,128.5 651,128.5 L640.5,128.5 C639.572,128.5 638.682,128.131 638.025,127.475 C637.369,126.818 637,125.928 637,125 L637,79.5 C637,77.567 635.433,76 633.5,76 C631.567,76 630,77.567 630,79.5 Z" />
        </g>
    </g>
</svg>