<?xml version="1.0" encoding="UTF-8"?>
<svg height="600" width="800" xmlns="http://www.w3.org/2000/svg" xmlns:xlink="http://www.w3.org/1999/xlink">
    <g id="Notes" font-family="LucidaGrande, 'Lucida Grande', sans-serif" font-size="13">
        <rect fill="white" height="600.0" width="800.0" x="0.0" y="0.0" />
        <g font-size="13">
            <text x="18.0" y="176.0">Small</text>
            <text x="18.0" y="376.0">Medium</text>
            <text x="18.0" y="576.0">Large</text>
        </g>
        <g font-size="9">
            <text x="250.0" y="30.0">Ultralight</text>
            <text x="450.0" y="30.0">Regular</text>
            <text x="650.0" y="30.0">Black</text>
            <text id="template-version" fill="#505050" text-anchor="end" x="785.0" y="575.0">Template v.3.0</text>
            <a href="https://github.com/swhitty/SwiftDraw">
                <text fill="#505050" text-anchor="end" x="785.0" y="590.0">https://github.com/swhitty/SwiftDraw</text>
            </a>
        </g>
    </g>
    <g id="Guides" stroke="rgb(39, 170, 225)" stroke-width="0.5">
        <path id="Capline-S" d="M18,76 l800,0" />
        <path id="H-reference" d="M85,145.755 L87.685,145.755 L113.369,79.287 L114.052,79.287 L114.052,76 L112.148,76 L85,145.755 Z M95.693,121.536 L130.996,121.536 L130.263,119.313 L96.474,119.313 L95.693,121.536 Z M139.15,145.755 L141.787,145.755 L114.638,76 L113.466,76 L113.466,79.287 L139.15,145.755 Z" stroke="none" transform="translate(0,200)" />
        <path id="Baseline-S" d="M18,146 l800,0" />
        <path id="left-margin-Ultralight-M" d="M228.333,256 l0,110" />
        <path id="right-margin-Ultralight-M" d="M301.667,256 l0,110" />
        <path id="left-margin-Regular-M" d="M428.333,256 l0,110" />
        <path id="right-margin-Regular-M" d="M501.667,256 l0,110" />
        <path id="left-margin-Black-M" d="M628.333,256 l0,110" />
        <path id="right-margin-Black-M" d="M701.667,256 l0,110" />
        <path id="Capline-M" d="M18,276 l800,0" />
        <path id="Baseline-M" d="M18,346 l800,0" />
        <path id="Capline-L" d="M18,476 l800,0" />
        <path id="Baseline-L" d="M18,546 l800,0" />
    </g>
    <g id="Symbols">
        <g id="Ultralight-M" transform="translate(0,200)">
            <path d="M260.46,132.662 L238.333,132.662 C237.449,132.662 236.601,132.311 235.976,131.686 C235.351,131.061 235,130.213 235,129.329 L235,86 C235,85.116 235.351,84.268 235.976,83.643 C236.601,83.018 237.449,82.666 238.333,82.666 L251.333,82.666 C252.499,82.655 253.56,83.22 254.183,84.166 L256.904,88.198 C258.732,90.974 261.87,92.665 265.233,92.666 L291.667,92.666 C292.551,92.666 293.399,93.017 294.024,93.642 C294.649,94.267 295,95.115 295,95.999 L295,107.388 C295,109.229 296.492,110.721 298.333,110.721 C300.174,110.721 301.667,109.229 301.667,107.388 L301.667,95.999 C301.667,93.347 300.613,90.803 298.738,88.928 C296.862,87.053 294.319,86 291.667,86 L265.233,86 C264.113,85.999 263.067,85.436 262.451,84.5 L259.729,80.468 C257.882,77.662 254.699,75.967 251.301,76 L238.333,76 C235.681,76 233.138,77.054 231.262,78.929 C229.387,80.804 228.333,83.348 228.333,86 L228.333,129.329 C228.333,131.981 229.387,134.525 231.262,136.4 C233.138,138.275 235.681,139.329 238.333,139.329 L260.46,139.329 C262.301,139.329 263.793,137.836 263.793,135.995 C263.793,134.155 262.301,132.662 260.46,132.662 Z" />
            <path d="M276.139,129.689 C275.078,128.582 274.71,126.983 275.181,125.524 C275.652,124.065 276.886,122.983 278.394,122.707 C279.902,122.43 281.44,123.004 282.398,124.2 C283.726,125.858 286.246,125.868 287.586,124.22 C288.549,123.036 290.082,122.473 291.582,122.752 C293.082,123.032 294.309,124.109 294.781,125.56 C295.253,127.011 294.894,128.603 293.845,129.712 L285.06,139.266 C284.998,139.335 285,139.334 285.002,139.334 C285.004,139.334 285.005,139.335 285.007,139.336 L276.187,129.74 Z M271.279,134.251 L280.036,143.777 C281.238,145.164 283.073,146 285.002,146 C286.931,146 288.765,145.164 290.03,143.707 L298.72,134.258 C301.415,131.412 302.348,127.27 301.121,123.498 C299.894,119.725 296.703,116.925 292.803,116.199 C288.902,115.473 284.917,116.936 282.414,120.014 L285,122.117 L287.602,120.033 C285.11,116.922 281.112,115.431 277.191,116.15 C273.271,116.869 270.062,119.683 268.837,123.475 C267.612,127.268 268.569,131.427 271.328,134.303 Z" />
        </g>
        <g id="Regular-M" transform="translate(0,200)">
            <path d="M460.46,132.662 L438.333,132.662 C437.449,132.662 436.601,132.311 435.976,131.686 C435.351,131.061 435,130.213 435,129.329 L435,86 C435,85.116 435.351,84.268 435.976,83.643 C436.601,83.018 437.449,82.666 438.333,82.666 L451.333,82.666 C452.499,82.655 453.56,83.22 454.183,84.166 L456.904,88.198 C458.732,90.974 461.87,92.665 465.233,92.666 L491.667,92.666 C492.551,92.666 493.399,93.017 494.024,93.642 C494.649,94.267 495,95.115 495,95.999 L495,107.388 C495,109.229 496.492,110.721 498.333,110.721 C500.174,110.721 501.667,109.229 501.667,107.388 L501.667,95.999 C501.667,93.347 500.613,90.803 498.738,88.928 C496.862,87.053 494.319,86 491.667,86 L465.233,86 C464.113,85.999 463.067,85.436 462.451,84.5 L459.729,80.468 C457.882,77.662 454.699,75.967 451.301,76 L438.333,76 C435.681,76 433.138,77.054 431.262,78.929 C429.387,80.804 428.333,83.348 428.333,86 L428.333,129.329 C428.333,131.981 429.387,134.525 431.262,136.4 C433.138,138.275 435.681,139.329 438.333,139.329 L460.46,139.329 C462.301,139.329 463.793,137.836 463.793,135.995 C463.793,134.155 462.301,132.662 460.46,132.662 Z" />
            <path d="M476.139,129.689 C475.078,128.582 474.71,126.983 475.181,125.524 C475.652,124.065 476.886,122.983 478.394,122.707 C479.902,122.43 481.44,123.004 482.398,124.2 C483.726,125.858 486.246,125.868 487.586,124.22 C488.549,123.036 490.082,122.473 491.582,122.752 C493.082,123.032 494.309,124.109 494.781,125.56 C495.253,127.011 494.894,128.603 493.845,129.712 L485.06,139.266 C484.998,139.335 485,139.334 485.002,139.334 C485.004,139.334 485.005,139.335 485.007,139.336 L476.187,129.74 Z M471.279,134.251 L480.036,143.777 C481.238,145.164 483.073,146 485.002,146 C486.931,146 488.765,145.164 490.03,143.707 L498.72,134.258 C501.415,131.412 502.348,127.27 501.121,123.498 C499.894,119.725 496.703,116.925 492.803,116.199 C488.902,115.473 484.917,116.936 482.414,120.014 L485,122.117 L487.602,120.033 C485.11,116.922 481.112,115.431 477.191,116.15 C473.271,116.869 470.062,119.683 468.837,123.475 C467.612,127.268 468.569,131.427 471.328,134.303 Z" />
        </g>
        <g id="Black-M" transform="translate(0,200)">
            <path d="M660.46,132.662 L638.333,132.662 C637.449,132.662 636.601,132.311 635.976,131.686 C635.351,131.061 635,130.213 635,129.329 L635,86 C635,85.116 635.351,84.268 635.976,83.643 C636.601,83.018 637.449,82.666 638.333,82.666 L651.333,82.666 C652.499,82.655 653.56,83.22 654.183,84.166 L656.904,88.198 C658.732,90.974 661.87,92.665 665.233,92.666 L691.667,92.666 C692.551,92.666 693.399,93.017 694.024,93.642 C694.649,94.267 695,95.115 695,95.999 L695,107.388 C695,109.229 696.492,110.721 698.333,110.721 C700.174,110.721 701.667,109.229 701.667,107.388 L701.667,95.999 C701.667,93.347 700.613,90.803 698.738,88.928 C696.862,87.053 694.319,86 691.667,86 L665.233,86 C664.113,85.999 663.067,85.436 662.451,84.5 L659.729,80.468 C657.882,77.662 654.699,75.967 651.301,76 L638.333,76 C635.681,76 633.138,77.054 631.262,78.929 C629.387,80.804 628.333,83.348 628.333,86 L628.333,129.329 C628.333,131.981 629.387,134.525 631.262,136.4 C633.138,138.275 635.681,139.329 638.333,139.329 L660.46,139.329 C662.301,139.329 663.793,137.836 663.793,135.995 C663.793,134.155 662.301,132.662 660.46,132.662 Z" />
            <path d="M676.139,129.689 C675.078,128.582 674.71,126.983 675.181,125.524 C675.652,124.065 676.886,122.983 678.394,122.707 C679.902,122.43 681.44,123.004 682.398,124.2 C683.726,125.858 686.246,125.868 687.586,124.22 C688.549,123.036 690.082,122.473 691.582,122.752 C693.082,123.032 694.309,124.109 694.781,125.56 C695.253,127.011 694.894,128.603 693.845,129.712 L685.06,139.266 C684.998,139.335 685,139.334 685.002,139.334 C685.004,139.334 685.005,139.335 685.007,139.336 L676.187,129.74 Z M671.279,134.251 L680.036,143.777 C681.238,145.164 683.073,146 685.002,146 C686.931,146 688.765,145.164 690.03,143.707 L698.72,134.258 C701.415,131.412 702.348,127.27 701.121,123.498 C699.894,119.725 696.703,116.925 692.802,116.199 C688.902,115.473 684.917,116.936 682.414,120.014 L685,122.117 L687.602,120.033 C685.11,116.922 681.112,115.431 677.191,116.15 C673.271,116.869 670.062,119.683 668.837,123.475 C667.612,127.268 668.569,131.427 671.328,134.303 Z" />
        </g>
    </g>
</svg>