<?xml version="1.0" encoding="UTF-8"?>
<svg height="600" width="800" xmlns="http://www.w3.org/2000/svg" xmlns:xlink="http://www.w3.org/1999/xlink">
    <g id="Notes" font-family="LucidaGrande, 'Lucida Grande', sans-serif" font-size="13">
        <rect fill="white" height="600.0" width="800.0" x="0.0" y="0.0" />
        <g font-size="13">
            <text x="18.0" y="176.0">Small</text>
            <text x="18.0" y="376.0">Medium</text>
            <text x="18.0" y="576.0">Large</text>
        </g>
        <g font-size="9">
            <text x="250.0" y="30.0">Ultralight</text>
            <text x="450.0" y="30.0">Regular</text>
            <text x="650.0" y="30.0">Black</text>
            <text id="template-version" fill="#505050" text-anchor="end" x="785.0" y="575.0">Template v.3.0</text>
            <a href="https://github.com/swhitty/SwiftDraw">
                <text fill="#505050" text-anchor="end" x="785.0" y="590.0">https://github.com/swhitty/SwiftDraw</text>
            </a>
        </g>
    </g>
    <g id="Guides" stroke="rgb(39, 170, 225)" stroke-width="0.5">
        <path id="Capline-S" d="M18,76 l800,0" />
        <path id="H-reference" d="M85,145.755 L87.685,145.755 L113.369,79.287 L114.052,79.287 L114.052,76 L112.148,76 L85,145.755 Z M95.693,121.536 L130.996,121.536 L130.263,119.313 L96.474,119.313 L95.693,121.536 Z M139.15,145.755 L141.787,145.755 L114.638,76 L113.466,76 L113.466,79.287 L139.15,145.755 Z" stroke="none" transform="translate(0,200)" />
        <path id="Baseline-S" d="M18,146 l800,0" />
        <path id="left-margin-Ultralight-M" d="M233.182,256 l0,110" />
        <path id="right-margin-Ultralight-M" d="M296.818,256 l0,110" />
        <path id="left-margin-Regular-M" d="M433.182,256 l0,110" />
        <path id="right-margin-Regular-M" d="M496.818,256 l0,110" />
        <path id="left-margin-Black-M" d="M633.182,256 l0,110" />
        <path id="right-margin-Black-M" d="M696.818,256 l0,110" />
        <path id="Capline-M" d="M18,276 l800,0" />
        <path id="Baseline-M" d="M18,346 l800,0" />
        <path id="Capline-L" d="M18,476 l800,0" />
        <path id="Baseline-L" d="M18,546 l800,0" />
    </g>
    <g id="Symbols">
        <g id="Ultralight-M" transform="translate(0,200)">
            <path d="M242.729,123.727 L242.729,116.155 C242.729,113.31 242.303,111.136 241.314,107.881 C241.236,107.625 241.154,107.358 240.997,106.846 C239.894,103.257 239.511,101.298 239.547,98.311 C239.643,89.55 244.258,82.364 250.683,82.364 C253.739,82.364 255.455,85.269 255.455,90.318 C255.455,93.966 254.708,96.851 252.458,103.167 C252.249,103.753 252.249,103.753 252.04,104.344 C249.956,110.235 249.092,113.743 249.092,117.936 L249.092,123.727 C249.092,125.485 247.667,126.909 245.91,126.909 C244.153,126.909 242.729,125.485 242.729,123.727 Z M236.365,123.727 C236.365,128.999 240.639,133.273 245.91,133.273 C251.182,133.273 255.455,128.999 255.455,123.727 L255.455,117.936 C255.455,114.665 256.182,111.717 258.039,106.466 C258.244,105.887 258.244,105.887 258.452,105.302 C260.941,98.315 261.818,94.929 261.818,90.318 C261.818,82.216 258.148,76 250.683,76 C240.011,76 233.314,86.427 233.184,98.238 C233.139,102.015 233.635,104.55 234.914,108.715 C235.073,109.231 235.151,109.486 235.226,109.731 C236.048,112.439 236.365,114.058 236.365,116.155 L236.365,123.727 Z" />
            <path d="M293.635,136.455 L293.635,128.882 C293.635,126.786 293.952,125.166 294.774,122.459 C294.849,122.214 294.927,121.958 295.086,121.442 C296.365,117.277 296.861,114.742 296.816,110.962 C296.686,99.155 289.989,88.727 279.317,88.727 C271.852,88.727 268.182,94.943 268.182,103.045 C268.182,107.656 269.059,111.042 271.548,118.03 C271.756,118.614 271.756,118.614 271.961,119.193 C273.818,124.444 274.545,127.393 274.545,130.664 L274.545,136.455 C274.545,141.726 278.818,146 284.09,146 C289.361,146 293.635,141.726 293.635,136.455 Z M287.271,136.455 C287.271,138.212 285.847,139.636 284.09,139.636 C282.333,139.636 280.908,138.212 280.908,136.455 L280.908,130.664 C280.908,126.47 280.044,122.962 277.96,117.071 C277.751,116.48 277.751,116.48 277.542,115.894 C275.292,109.578 274.545,106.693 274.545,103.045 C274.545,97.997 276.261,95.091 279.317,95.091 C285.742,95.091 290.357,102.277 290.453,111.035 C290.489,114.026 290.106,115.984 289.003,119.573 C288.846,120.085 288.764,120.352 288.686,120.609 C287.697,123.863 287.271,126.037 287.271,128.882 L287.271,136.455 Z" />
            <path d="M277.726,130.091 L290.453,130.091 C292.21,130.091 293.635,128.666 293.635,126.909 C293.635,125.152 292.21,123.727 290.453,123.727 L277.726,123.727 C275.969,123.727 274.545,125.152 274.545,126.909 C274.545,128.666 275.969,130.091 277.726,130.091 Z" />
            <path d="M239.547,117.364 L252.274,117.364 C254.031,117.364 255.455,115.939 255.455,114.182 C255.455,112.425 254.031,111 252.274,111 L239.547,111 C237.79,111 236.365,112.425 236.365,114.182 C236.365,115.939 237.79,117.364 239.547,117.364 Z" />
        </g>
        <g id="Regular-M" transform="translate(0,200)">
            <path d="M442.729,123.727 L442.729,116.155 C442.729,113.31 442.303,111.136 441.314,107.881 C441.236,107.625 441.154,107.358 440.997,106.846 C439.894,103.257 439.511,101.298 439.547,98.311 C439.643,89.55 444.258,82.364 450.683,82.364 C453.739,82.364 455.455,85.269 455.455,90.318 C455.455,93.966 454.708,96.851 452.458,103.167 C452.249,103.753 452.249,103.753 452.04,104.344 C449.956,110.235 449.092,113.743 449.092,117.936 L449.092,123.727 C449.092,125.485 447.667,126.909 445.91,126.909 C444.153,126.909 442.729,125.485 442.729,123.727 Z M436.365,123.727 C436.365,128.999 440.639,133.273 445.91,133.273 C451.182,133.273 455.455,128.999 455.455,123.727 L455.455,117.936 C455.455,114.665 456.182,111.717 458.039,106.466 C458.244,105.887 458.244,105.887 458.452,105.302 C460.941,98.315 461.818,94.929 461.818,90.318 C461.818,82.216 458.148,76 450.683,76 C440.011,76 433.314,86.427 433.184,98.238 C433.139,102.015 433.635,104.55 434.914,108.715 C435.073,109.231 435.151,109.486 435.226,109.731 C436.048,112.439 436.365,114.058 436.365,116.155 L436.365,123.727 Z" />
            <path d="M493.635,136.455 L493.635,128.882 C493.635,126.786 493.952,125.166 494.774,122.459 C494.849,122.214 494.927,121.958 495.086,121.442 C496.365,117.277 496.861,114.742 496.816,110.962 C496.686,99.155 489.989,88.727 479.317,88.727 C471.852,88.727 468.182,94.943 468.182,103.045 C468.182,107.656 469.059,111.042 471.548,118.03 C471.756,118.614 471.756,118.614 471.961,119.193 C473.818,124.444 474.545,127.393 474.545,130.664 L474.545,136.455 C474.545,141.726 478.818,146 484.09,146 C489.361,146 493.635,141.726 493.635,136.455 Z M487.271,136.455 C487.271,138.212 485.847,139.636 484.09,139.636 C482.333,139.636 480.908,138.212 480.908,136.455 L480.908,130.664 C480.908,126.47 480.044,122.962 477.96,117.071 C477.751,116.48 477.751,116.48 477.542,115.894 C475.292,109.578 474.545,106.693 474.545,103.045 C474.545,97.997 476.261,95.091 479.317,95.091 C485.742,95.091 490.357,102.277 490.453,111.035 C490.489,114.026 490.106,115.984 489.003,119.573 C488.846,120.085 488.764,120.352 488.686,120.609 C487.697,123.863 487.271,126.037 487.271,128.882 L487.271,136.455 Z" />
            <path d="M477.726,130.091 L490.453,130.091 C492.21,130.091 493.635,128.666 493.635,126.909 C493.635,125.152 492.21,123.727 490.453,123.727 L477.726,123.727 C475.969,123.727 474.545,125.152 474.545,126.909 C474.545,128.666 475.969,130.091 477.726,130.091 Z" />
            <path d="M439.547,117.364 L452.274,117.364 C454.031,117.364 455.455,115.939 455.455,114.182 C455.455,112.425 454.031,111 452.274,111 L439.547,111 C437.79,111 436.365,112.425 436.365,114.182 C436.365,115.939 437.79,117.364 439.547,117.364 Z" />
        </g>
        <g id="Black-M" transform="translate(0,200)">
            <path d="M642.729,123.727 L642.729,116.155 C642.729,113.31 642.303,111.136 641.314,107.881 C641.236,107.625 641.154,107.358 640.997,106.846 C639.894,103.257 639.511,101.298 639.547,98.311 C639.643,89.55 644.258,82.364 650.683,82.364 C653.739,82.364 655.455,85.269 655.455,90.318 C655.455,93.966 654.708,96.851 652.458,103.167 C652.249,103.753 652.249,103.753 652.04,104.344 C649.956,110.235 649.092,113.743 649.092,117.936 L649.092,123.727 C649.092,125.485 647.667,126.909 645.91,126.909 C644.153,126.909 642.729,125.485 642.729,123.727 Z M636.365,123.727 C636.365,128.999 640.639,133.273 645.91,133.273 C651.182,133.273 655.455,128.999 655.455,123.727 L655.455,117.936 C655.455,114.665 656.182,111.717 658.039,106.466 C658.244,105.887 658.244,105.887 658.452,105.302 C660.941,98.315 661.818,94.929 661.818,90.318 C661.818,82.216 658.148,76 650.683,76 C640.011,76 633.314,86.427 633.184,98.238 C633.139,102.015 633.635,104.55 634.914,108.715 C635.073,109.231 635.151,109.486 635.226,109.731 C636.048,112.439 636.365,114.058 636.365,116.155 L636.365,123.727 Z" />
            <path d="M693.635,136.455 L693.635,128.882 C693.635,126.786 693.952,125.166 694.774,122.459 C694.849,122.214 694.927,121.958 695.086,121.442 C696.365,117.277 696.861,114.742 696.816,110.962 C696.686,99.155 689.989,88.727 679.317,88.727 C671.852,88.727 668.182,94.943 668.182,103.045 C668.182,107.656 669.059,111.042 671.548,118.03 C671.756,118.614 671.756,118.614 671.961,119.193 C673.818,124.444 674.545,127.393 674.545,130.664 L674.545,136.455 C674.545,141.726 678.818,146 684.09,146 C689.361,146 693.635,141.726 693.635,136.455 Z M687.271,136.455 C687.271,138.212 685.847,139.636 684.09,139.636 C682.333,139.636 680.908,138.212 680.908,136.455 L680.908,130.664 C680.908,126.47 680.044,122.962 677.96,117.071 C677.751,116.48 677.751,116.48 677.542,115.894 C675.292,109.578 674.545,106.693 674.545,103.045 C674.545,97.997 676.261,95.091 679.317,95.091 C685.742,95.091 690.357,102.277 690.453,111.035 C690.489,114.026 690.106,115.984 689.003,119.573 C688.846,120.085 688.764,120.352 688.686,120.609 C687.697,123.863 687.271,126.037 687.271,128.882 L687.271,136.455 Z" />
            <path d="M677.726,130.091 L690.453,130.091 C692.21,130.091 693.635,128.666 693.635,126.909 C693.635,125.152 692.21,123.727 690.453,123.727 L677.726,123.727 C675.969,123.727 674.545,125.152 674.545,126.909 C674.545,128.666 675.969,130.091 677.726,130.091 Z" />
            <path d="M639.547,117.364 L652.274,117.364 C654.031,117.364 655.455,115.939 655.455,114.182 C655.455,112.425 654.031,111 652.274,111 L639.547,111 C637.79,111 636.365,112.425 636.365,114.182 C636.365,115.939 637.79,117.364 639.547,117.364 Z" />
        </g>
    </g>
</svg>