<?xml version="1.0" encoding="UTF-8"?>
<svg height="600" width="800" xmlns="http://www.w3.org/2000/svg" xmlns:xlink="http://www.w3.org/1999/xlink">
    <g id="Notes" font-family="LucidaGrande, 'Lucida Grande', sans-serif" font-size="13">
        <rect fill="white" height="600.0" width="800.0" x="0.0" y="0.0" />
        <g font-size="13">
            <text x="18.0" y="176.0">Small</text>
            <text x="18.0" y="376.0">Medium</text>
            <text x="18.0" y="576.0">Large</text>
        </g>
        <g font-size="9">
            <text x="250.0" y="30.0">Ultralight</text>
            <text x="450.0" y="30.0">Regular</text>
            <text x="650.0" y="30.0">Black</text>
            <text id="template-version" fill="#505050" text-anchor="end" x="785.0" y="575.0">Template v.3.0</text>
            <a href="https://github.com/swhitty/SwiftDraw">
                <text fill="#505050" text-anchor="end" x="785.0" y="590.0">https://github.com/swhitty/SwiftDraw</text>
            </a>
        </g>
    </g>
    <g id="Guides" stroke="rgb(39, 170, 225)" stroke-width="0.5">
        <path id="Capline-S" d="M18,76 l800,0" />
        <path id="H-reference" d="M85,145.755 L87.685,145.755 L113.369,79.287 L114.052,79.287 L114.052,76 L112.148,76 L85,145.755 Z M95.693,121.536 L130.996,121.536 L130.263,119.313 L96.474,119.313 L95.693,121.536 Z M139.15,145.755 L141.787,145.755 L114.638,76 L113.466,76 L113.466,79.287 L139.15,145.755 Z" stroke="none" transform="translate(0,200)" />
        <path id="Baseline-S" d="M18,146 l800,0" />
        <path id="left-margin-Ultralight-M" d="M233.182,256 l0,110" />
        <path id="right-margin-Ultralight-M" d="M296.818,256 l0,110" />
        <path id="left-margin-Regular-M" d="M433.182,256 l0,110" />
        <path id="right-margin-Regular-M" d="M496.818,256 l0,110" />
        <path id="left-margin-Black-M" d="M633.182,256 l0,110" />
        <path id="right-margin-Black-M" d="M696.818,256 l0,110" />
        <path id="Capline-M" d="M18,276 l800,0" />
        <path id="Baseline-M" d="M18,346 l800,0" />
        <path id="Capline-L" d="M18,476 l800,0" />
        <path id="Baseline-L" d="M18,546 l800,0" />
    </g>
    <g id="Symbols">
        <g id="Ultralight-M" transform="translate(0,200)">
            <path d="M236.364,82.364 L293.636,82.364 C295.394,82.364 296.818,80.939 296.818,79.182 C296.818,77.425 295.394,76 293.636,76 L236.364,76 C234.606,76 233.182,77.425 233.182,79.182 C233.182,80.939 234.606,82.364 236.364,82.364 Z" />
            <path d="M290.455,111 L290.455,123.727 C290.455,124.571 290.119,125.38 289.523,125.977 C288.926,126.574 288.117,126.909 287.273,126.909 L242.727,126.909 C241.883,126.909 241.074,126.574 240.477,125.977 C239.881,125.38 239.545,124.571 239.545,123.727 L239.545,98.273 C239.545,97.429 239.881,96.62 240.477,96.023 C241.074,95.426 241.883,95.091 242.727,95.091 L287.273,95.091 C288.117,95.091 288.926,95.426 289.523,96.023 C290.119,96.62 290.455,97.429 290.455,98.273 L290.455,111 Z M296.818,111 L296.818,98.273 C296.818,95.741 295.812,93.313 294.022,91.523 C292.232,89.733 289.804,88.727 287.273,88.727 L242.727,88.727 C240.196,88.727 237.768,89.733 235.978,91.523 C234.188,93.313 233.182,95.741 233.182,98.273 L233.182,123.727 C233.182,126.259 234.188,128.687 235.978,130.477 C237.768,132.267 240.196,133.273 242.727,133.273 L287.273,133.273 C289.804,133.273 292.232,132.267 294.022,130.477 C295.812,128.687 296.818,126.259 296.818,123.727 L296.818,111 Z" />
            <path d="M236.364,146 L293.636,146 C295.394,146 296.818,144.575 296.818,142.818 C296.818,141.061 295.394,139.636 293.636,139.636 L236.364,139.636 C234.606,139.636 233.182,141.061 233.182,142.818 C233.182,144.575 234.606,146 236.364,146 Z" />
        </g>
        <g id="Regular-M" transform="translate(0,200)">
            <path d="M436.364,82.364 L493.636,82.364 C495.394,82.364 496.818,80.939 496.818,79.182 C496.818,77.425 495.394,76 493.636,76 L436.364,76 C434.606,76 433.182,77.425 433.182,79.182 C433.182,80.939 434.606,82.364 436.364,82.364 Z" />
            <path d="M490.455,111 L490.455,123.727 C490.455,124.571 490.119,125.38 489.523,125.977 C488.926,126.574 488.117,126.909 487.273,126.909 L442.727,126.909 C441.883,126.909 441.074,126.574 440.477,125.977 C439.881,125.38 439.545,124.571 439.545,123.727 L439.545,98.273 C439.545,97.429 439.881,96.62 440.477,96.023 C441.074,95.426 441.883,95.091 442.727,95.091 L487.273,95.091 C488.117,95.091 488.926,95.426 489.523,96.023 C490.119,96.62 490.455,97.429 490.455,98.273 L490.455,111 Z M496.818,111 L496.818,98.273 C496.818,95.741 495.812,93.313 494.022,91.523 C492.232,89.733 489.804,88.727 487.273,88.727 L442.727,88.727 C440.196,88.727 437.768,89.733 435.978,91.523 C434.188,93.313 433.182,95.741 433.182,98.273 L433.182,123.727 C433.182,126.259 434.188,128.687 435.978,130.477 C437.768,132.267 440.196,133.273 442.727,133.273 L487.273,133.273 C489.804,133.273 492.232,132.267 494.022,130.477 C495.812,128.687 496.818,126.259 496.818,123.727 L496.818,111 Z" />
            <path d="M436.364,146 L493.636,146 C495.394,146 496.818,144.575 496.818,142.818 C496.818,141.061 495.394,139.636 493.636,139.636 L436.364,139.636 C434.606,139.636 433.182,141.061 433.182,142.818 C433.182,144.575 434.606,146 436.364,146 Z" />
        </g>
        <g id="Black-M" transform="translate(0,200)">
            <path d="M636.364,82.364 L693.636,82.364 C695.394,82.364 696.818,80.939 696.818,79.182 C696.818,77.425 695.394,76 693.636,76 L636.364,76 C634.606,76 633.182,77.425 633.182,79.182 C633.182,80.939 634.606,82.364 636.364,82.364 Z" />
            <path d="M690.455,111 L690.455,123.727 C690.455,124.571 690.119,125.38 689.523,125.977 C688.926,126.574 688.117,126.909 687.273,126.909 L642.727,126.909 C641.883,126.909 641.074,126.574 640.477,125.977 C639.881,125.38 639.545,124.571 639.545,123.727 L639.545,98.273 C639.545,97.429 639.881,96.62 640.477,96.023 C641.074,95.426 641.883,95.091 642.727,95.091 L687.273,95.091 C688.117,95.091 688.926,95.426 689.523,96.023 C690.119,96.62 690.455,97.429 690.455,98.273 L690.455,111 Z M696.818,111 L696.818,98.273 C696.818,95.741 695.812,93.313 694.022,91.523 C692.232,89.733 689.804,88.727 687.273,88.727 L642.727,88.727 C640.196,88.727 637.768,89.733 635.978,91.523 C634.188,93.313 633.182,95.741 633.182,98.273 L633.182,123.727 C633.182,126.259 634.188,128.687 635.978,130.477 C637.768,132.267 640.196,133.273 642.727,133.273 L687.273,133.273 C689.804,133.273 692.232,132.267 694.022,130.477 C695.812,128.687 696.818,126.259 696.818,123.727 L696.818,111 Z" />
            <path d="M636.364,146 L693.636,146 C695.394,146 696.818,144.575 696.818,142.818 C696.818,141.061 695.394,139.636 693.636,139.636 L636.364,139.636 C634.606,139.636 633.182,141.061 633.182,142.818 C633.182,144.575 634.606,146 636.364,146 Z" />
        </g>
    </g>
</svg>