<?xml version="1.0" encoding="UTF-8"?>
<svg height="600" width="800" xmlns="http://www.w3.org/2000/svg" xmlns:xlink="http://www.w3.org/1999/xlink">
    <g id="Notes" font-family="LucidaGrande, 'Lucida Grande', sans-serif" font-size="13">
        <rect fill="white" height="600.0" width="800.0" x="0.0" y="0.0" />
        <g font-size="13">
            <text x="18.0" y="176.0">Small</text>
            <text x="18.0" y="376.0">Medium</text>
            <text x="18.0" y="576.0">Large</text>
        </g>
        <g font-size="9">
            <text x="250.0" y="30.0">Ultralight</text>
            <text x="450.0" y="30.0">Regular</text>
            <text x="650.0" y="30.0">Black</text>
            <text id="template-version" fill="#505050" text-anchor="end" x="785.0" y="575.0">Template v.3.0</text>
            <a href="https://github.com/swhitty/SwiftDraw">
                <text fill="#505050" text-anchor="end" x="785.0" y="590.0">https://github.com/swhitty/SwiftDraw</text>
            </a>
        </g>
    </g>
    <g id="Guides" stroke="rgb(39, 170, 225)" stroke-width="0.5">
        <path id="Capline-S" d="M18,76 l800,0" />
        <path id="H-reference" d="M85,145.755 L87.685,145.755 L113.369,79.287 L114.052,79.287 L114.052,76 L112.148,76 L85,145.755 Z M95.693,121.536 L130.996,121.536 L130.263,119.313 L96.474,119.313 L95.693,121.536 Z M139.15,145.755 L141.787,145.755 L114.638,76 L113.466,76 L113.466,79.287 L139.15,145.755 Z" stroke="none" transform="translate(0,200)" />
        <path id="Baseline-S" d="M18,146 l800,0" />
        <path id="left-margin-Ultralight-M" d="M228.333,256 l0,110" />
        <path id="right-margin-Ultralight-M" d="M301.667,256 l0,110" />
        <path id="left-margin-Regular-M" d="M428.333,256 l0,110" />
        <path id="right-margin-Regular-M" d="M501.667,256 l0,110" />
        <path id="left-margin-Black-M" d="M628.333,256 l0,110" />
        <path id="right-margin-Black-M" d="M701.667,256 l0,110" />
        <path id="Capline-M" d="M18,276 l800,0" />
        <path id="Baseline-M" d="M18,346 l800,0" />
        <path id="Capline-L" d="M18,476 l800,0" />
        <path id="Baseline-L" d="M18,546 l800,0" />
    </g>
    <g id="Symbols">
        <g id="Ultralight-M" transform="translate(0,200)">
            <path d="M256.924,78.051 L248.591,98.051 C248.291,98.77 248.253,99.57 248.482,100.314 L261.815,143.647 C262.78,146.784 267.221,146.784 268.186,143.647 L281.52,100.314 C281.748,99.57 281.71,98.77 281.411,98.051 L273.077,78.051 C272.369,76.352 270.418,75.548 268.718,76.256 C267.019,76.964 266.216,78.916 266.924,80.615 L275.257,100.615 L275.148,98.353 L261.815,141.686 L268.186,141.686 L254.853,98.353 L254.744,100.615 L263.078,80.615 C263.786,78.916 262.982,76.964 261.283,76.256 C259.583,75.548 257.632,76.352 256.924,78.051 Z" />
            <path d="M281.667,82.667 C282.716,82.667 283.704,83.161 284.334,84 L294.333,97.333 C295.214,98.507 295.222,100.119 294.355,101.303 L267.715,137.933 C267.078,138.817 266.071,139.333 264.999,139.333 C263.926,139.333 262.919,138.817 262.293,137.947 L235.65,101.313 C234.777,100.12 234.786,98.508 235.667,97.334 L245.661,84.01 C246.294,83.163 247.283,82.667 248.335,82.667 L281.667,82.667 Z M281.667,76 L248.334,76 C245.18,76 242.211,77.488 240.324,80.015 L230.335,93.333 C227.692,96.854 227.664,101.69 230.265,105.243 L256.892,141.854 C258.761,144.452 261.781,146 264.999,146 C268.216,146 271.237,144.452 273.116,141.84 L299.739,105.234 C302.335,101.692 302.308,96.856 299.667,93.334 L289.667,80 C287.778,77.482 284.815,76 281.667,76 Z" />
            <path d="M231.668,102.667 L298.333,102.667 C300.174,102.667 301.667,101.174 301.667,99.333 C301.667,97.492 300.174,96 298.333,96 L231.668,96 C229.827,96 228.334,97.492 228.334,99.333 C228.334,101.174 229.827,102.667 231.668,102.667 Z" />
        </g>
        <g id="Regular-M" transform="translate(0,200)">
            <path d="M456.924,78.051 L448.591,98.051 C448.291,98.77 448.253,99.57 448.482,100.314 L461.815,143.647 C462.78,146.784 467.221,146.784 468.186,143.647 L481.52,100.314 C481.748,99.57 481.71,98.77 481.411,98.051 L473.077,78.051 C472.369,76.352 470.418,75.548 468.718,76.256 C467.019,76.964 466.216,78.916 466.924,80.615 L475.257,100.615 L475.148,98.353 L461.815,141.686 L468.186,141.686 L454.853,98.353 L454.744,100.615 L463.078,80.615 C463.786,78.916 462.982,76.964 461.283,76.256 C459.583,75.548 457.632,76.352 456.924,78.051 Z" />
            <path d="M481.667,82.667 C482.716,82.667 483.704,83.161 484.334,84 L494.333,97.333 C495.214,98.507 495.222,100.119 494.355,101.303 L467.715,137.933 C467.078,138.817 466.071,139.333 464.999,139.333 C463.926,139.333 462.919,138.817 462.293,137.947 L435.65,101.313 C434.777,100.12 434.786,98.508 435.667,97.334 L445.661,84.01 C446.294,83.163 447.283,82.667 448.335,82.667 L481.667,82.667 Z M481.667,76 L448.334,76 C445.18,76 442.211,77.488 440.324,80.015 L430.335,93.333 C427.692,96.854 427.664,101.69 430.265,105.243 L456.892,141.854 C458.761,144.452 461.781,146 464.999,146 C468.216,146 471.237,144.452 473.116,141.84 L499.739,105.234 C502.335,101.692 502.308,96.856 499.667,93.334 L489.667,80 C487.778,77.482 484.815,76 481.667,76 Z" />
            <path d="M431.668,102.667 L498.333,102.667 C500.174,102.667 501.667,101.174 501.667,99.333 C501.667,97.492 500.174,96 498.333,96 L431.668,96 C429.827,96 428.334,97.492 428.334,99.333 C428.334,101.174 429.827,102.667 431.668,102.667 Z" />
        </g>
        <g id="Black-M" transform="translate(0,200)">
            <path d="M656.924,78.051 L648.591,98.051 C648.291,98.77 648.253,99.57 648.482,100.314 L661.815,143.647 C662.78,146.784 667.221,146.784 668.186,143.647 L681.52,100.314 C681.748,99.57 681.71,98.77 681.411,98.051 L673.077,78.051 C672.369,76.352 670.418,75.548 668.718,76.256 C667.019,76.964 666.216,78.916 666.924,80.615 L675.257,100.615 L675.148,98.353 L661.815,141.686 L668.186,141.686 L654.853,98.353 L654.744,100.615 L663.078,80.615 C663.786,78.916 662.982,76.964 661.283,76.256 C659.583,75.548 657.632,76.352 656.924,78.051 Z" />
            <path d="M681.667,82.667 C682.716,82.667 683.704,83.161 684.334,84 L694.333,97.333 C695.214,98.507 695.222,100.119 694.355,101.303 L667.715,137.933 C667.078,138.817 666.071,139.333 664.999,139.333 C663.926,139.333 662.919,138.817 662.293,137.947 L635.65,101.313 C634.777,100.12 634.786,98.508 635.667,97.334 L645.661,84.01 C646.294,83.163 647.283,82.667 648.335,82.667 L681.667,82.667 Z M681.667,76 L648.334,76 C645.18,76 642.211,77.488 640.324,80.015 L630.334,93.333 C627.692,96.854 627.664,101.69 630.265,105.243 L656.892,141.854 C658.76,144.452 661.781,146 664.999,146 C668.216,146 671.237,144.452 673.116,141.84 L699.739,105.234 C702.335,101.692 702.308,96.856 699.667,93.334 L689.667,80 C687.778,77.482 684.814,76 681.667,76 Z" />
            <path d="M631.668,102.667 L698.333,102.667 C700.174,102.667 701.667,101.174 701.667,99.333 C701.667,97.492 700.174,96 698.333,96 L631.668,96 C629.827,96 628.334,97.492 628.334,99.333 C628.334,101.174 629.827,102.667 631.668,102.667 Z" />
        </g>
    </g>
</svg>