<?xml version="1.0" encoding="UTF-8"?>
<svg height="600" width="800" xmlns="http://www.w3.org/2000/svg" xmlns:xlink="http://www.w3.org/1999/xlink">
    <g id="Notes" font-family="LucidaGrande, 'Lucida Grande', sans-serif" font-size="13">
        <rect fill="white" height="600.0" width="800.0" x="0.0" y="0.0" />
        <g font-size="13">
            <text x="18.0" y="176.0">Small</text>
            <text x="18.0" y="376.0">Medium</text>
            <text x="18.0" y="576.0">Large</text>
        </g>
        <g font-size="9">
            <text x="250.0" y="30.0">Ultralight</text>
            <text x="450.0" y="30.0">Regular</text>
            <text x="650.0" y="30.0">Black</text>
            <text id="template-version" fill="#505050" text-anchor="end" x="785.0" y="575.0">Template v.3.0</text>
            <a href="https://github.com/swhitty/SwiftDraw">
                <text fill="#505050" text-anchor="end" x="785.0" y="590.0">https://github.com/swhitty/SwiftDraw</text>
            </a>
        </g>
    </g>
    <g id="Guides" stroke="rgb(39, 170, 225)" stroke-width="0.5">
        <path id="Capline-S" d="M18,76 l800,0" />
        <path id="H-reference" d="M85,145.755 L87.685,145.755 L113.369,79.287 L114.052,79.287 L114.052,76 L112.148,76 L85,145.755 Z M95.693,121.536 L130.996,121.536 L130.263,119.313 L96.474,119.313 L95.693,121.536 Z M139.15,145.755 L141.787,145.755 L114.638,76 L113.466,76 L113.466,79.287 L139.15,145.755 Z" stroke="none" transform="translate(0,200)" />
        <path id="Baseline-S" d="M18,146 l800,0" />
        <path id="left-margin-Ultralight-M" d="M230,256 l0,110" />
        <path id="right-margin-Ultralight-M" d="M300,256 l0,110" />
        <path id="left-margin-Regular-M" d="M430,256 l0,110" />
        <path id="right-margin-Regular-M" d="M500,256 l0,110" />
        <path id="left-margin-Black-M" d="M630,256 l0,110" />
        <path id="right-margin-Black-M" d="M700,256 l0,110" />
        <path id="Capline-M" d="M18,276 l800,0" />
        <path id="Baseline-M" d="M18,346 l800,0" />
        <path id="Capline-L" d="M18,476 l800,0" />
        <path id="Baseline-L" d="M18,546 l800,0" />
    </g>
    <g id="Symbols">
        <g id="Ultralight-M" transform="translate(0,200)">
            <path d="M265,93.5 L279,93.5 C279.928,93.5 280.818,93.869 281.475,94.525 C282.131,95.182 282.5,96.072 282.5,97 L282.5,121.5 C282.5,123.433 284.067,125 286,125 C287.933,125 289.5,123.433 289.5,121.5 L289.5,97 C289.5,94.215 288.394,91.545 286.425,89.575 C284.456,87.606 281.785,86.5 279,86.5 L265,86.5 C263.067,86.5 261.5,88.067 261.5,90 C261.5,91.933 263.067,93.5 265,93.5 Z" />
            <path d="M240.5,111 L240.5,142.5 C240.5,144.433 242.067,146 244,146 C245.933,146 247.5,144.433 247.5,142.5 L247.5,111 C247.5,109.067 245.933,107.5 244,107.5 C242.067,107.5 240.5,109.067 240.5,111 Z" />
            <path d="M252.025,77.025 L231.025,98.025 C229.658,99.392 229.658,101.608 231.025,102.975 C232.392,104.342 234.608,104.342 235.975,102.975 L256.975,81.975 C258.342,80.608 258.342,78.392 256.975,77.025 C255.608,75.658 253.392,75.658 252.025,77.025 Z" />
            <path d="M256.975,98.025 L235.975,77.025 C234.608,75.658 232.392,75.658 231.025,77.025 C229.658,78.392 229.658,80.608 231.025,81.975 L252.025,102.975 C253.392,104.342 255.608,104.342 256.975,102.975 C258.342,101.608 258.342,99.392 256.975,98.025 Z" />
            <path d="M279,132 C279,128.134 282.134,125 286,125 C289.866,125 293,128.134 293,132 C293,135.866 289.866,139 286,139 C282.134,139 279,135.866 279,132 Z M272,132 C272,139.732 278.268,146 286,146 C293.732,146 300,139.732 300,132 C300,124.268 293.732,118 286,118 C278.268,118 272,124.268 272,132 Z" />
        </g>
        <g id="Regular-M" transform="translate(0,200)">
            <path d="M465,93.5 L479,93.5 C479.928,93.5 480.818,93.869 481.475,94.525 C482.131,95.182 482.5,96.072 482.5,97 L482.5,121.5 C482.5,123.433 484.067,125 486,125 C487.933,125 489.5,123.433 489.5,121.5 L489.5,97 C489.5,94.215 488.394,91.545 486.425,89.575 C484.456,87.606 481.785,86.5 479,86.5 L465,86.5 C463.067,86.5 461.5,88.067 461.5,90 C461.5,91.933 463.067,93.5 465,93.5 Z" />
            <path d="M440.5,111 L440.5,142.5 C440.5,144.433 442.067,146 444,146 C445.933,146 447.5,144.433 447.5,142.5 L447.5,111 C447.5,109.067 445.933,107.5 444,107.5 C442.067,107.5 440.5,109.067 440.5,111 Z" />
            <path d="M452.025,77.025 L431.025,98.025 C429.658,99.392 429.658,101.608 431.025,102.975 C432.392,104.342 434.608,104.342 435.975,102.975 L456.975,81.975 C458.342,80.608 458.342,78.392 456.975,77.025 C455.608,75.658 453.392,75.658 452.025,77.025 Z" />
            <path d="M456.975,98.025 L435.975,77.025 C434.608,75.658 432.392,75.658 431.025,77.025 C429.658,78.392 429.658,80.608 431.025,81.975 L452.025,102.975 C453.392,104.342 455.608,104.342 456.975,102.975 C458.342,101.608 458.342,99.392 456.975,98.025 Z" />
            <path d="M479,132 C479,128.134 482.134,125 486,125 C489.866,125 493,128.134 493,132 C493,135.866 489.866,139 486,139 C482.134,139 479,135.866 479,132 Z M472,132 C472,139.732 478.268,146 486,146 C493.732,146 500,139.732 500,132 C500,124.268 493.732,118 486,118 C478.268,118 472,124.268 472,132 Z" />
        </g>
        <g id="Black-M" transform="translate(0,200)">
            <path d="M665,93.5 L679,93.5 C679.928,93.5 680.818,93.869 681.475,94.525 C682.131,95.182 682.5,96.072 682.5,97 L682.5,121.5 C682.5,123.433 684.067,125 686,125 C687.933,125 689.5,123.433 689.5,121.5 L689.5,97 C689.5,94.215 688.394,91.545 686.425,89.575 C684.456,87.606 681.785,86.5 679,86.5 L665,86.5 C663.067,86.5 661.5,88.067 661.5,90 C661.5,91.933 663.067,93.5 665,93.5 Z" />
            <path d="M640.5,111 L640.5,142.5 C640.5,144.433 642.067,146 644,146 C645.933,146 647.5,144.433 647.5,142.5 L647.5,111 C647.5,109.067 645.933,107.5 644,107.5 C642.067,107.5 640.5,109.067 640.5,111 Z" />
            <path d="M652.025,77.025 L631.025,98.025 C629.658,99.392 629.658,101.608 631.025,102.975 C632.392,104.342 634.608,104.342 635.975,102.975 L656.975,81.975 C658.342,80.608 658.342,78.392 656.975,77.025 C655.608,75.658 653.392,75.658 652.025,77.025 Z" />
            <path d="M656.975,98.025 L635.975,77.025 C634.608,75.658 632.392,75.658 631.025,77.025 C629.658,78.392 629.658,80.608 631.025,81.975 L652.025,102.975 C653.392,104.342 655.608,104.342 656.975,102.975 C658.342,101.608 658.342,99.392 656.975,98.025 Z" />
            <path d="M679,132 C679,128.134 682.134,125 686,125 C689.866,125 693,128.134 693,132 C693,135.866 689.866,139 686,139 C682.134,139 679,135.866 679,132 Z M672,132 C672,139.732 678.268,146 686,146 C693.732,146 700,139.732 700,132 C700,124.268 693.732,118 686,118 C678.268,118 672,124.268 672,132 Z" />
        </g>
    </g>
</svg>