<?xml version="1.0" encoding="UTF-8"?>
<svg height="600" width="800" xmlns="http://www.w3.org/2000/svg" xmlns:xlink="http://www.w3.org/1999/xlink">
    <g id="Notes" font-family="LucidaGrande, 'Lucida Grande', sans-serif" font-size="13">
        <rect fill="white" height="600.0" width="800.0" x="0.0" y="0.0" />
        <g font-size="13">
            <text x="18.0" y="176.0">Small</text>
            <text x="18.0" y="376.0">Medium</text>
            <text x="18.0" y="576.0">Large</text>
        </g>
        <g font-size="9">
            <text x="250.0" y="30.0">Ultralight</text>
            <text x="450.0" y="30.0">Regular</text>
            <text x="650.0" y="30.0">Black</text>
            <text id="template-version" fill="#505050" text-anchor="end" x="785.0" y="575.0">Template v.3.0</text>
            <a href="https://github.com/swhitty/SwiftDraw">
                <text fill="#505050" text-anchor="end" x="785.0" y="590.0">https://github.com/swhitty/SwiftDraw</text>
            </a>
        </g>
    </g>
    <g id="Guides" stroke="rgb(39, 170, 225)" stroke-width="0.5">
        <path id="Capline-S" d="M18,76 l800,0" />
        <path id="H-reference" d="M85,145.755 L87.685,145.755 L113.369,79.287 L114.052,79.287 L114.052,76 L112.148,76 L85,145.755 Z M95.693,121.536 L130.996,121.536 L130.263,119.313 L96.474,119.313 L95.693,121.536 Z M139.15,145.755 L141.787,145.755 L114.638,76 L113.466,76 L113.466,79.287 L139.15,145.755 Z" stroke="none" transform="translate(0,200)" />
        <path id="Baseline-S" d="M18,146 l800,0" />
        <path id="left-margin-Ultralight-M" d="M240,256 l0,110" />
        <path id="right-margin-Ultralight-M" d="M290,256 l0,110" />
        <path id="left-margin-Regular-M" d="M440,256 l0,110" />
        <path id="right-margin-Regular-M" d="M490,256 l0,110" />
        <path id="left-margin-Black-M" d="M640,256 l0,110" />
        <path id="right-margin-Black-M" d="M690,256 l0,110" />
        <path id="Capline-M" d="M18,276 l800,0" />
        <path id="Baseline-M" d="M18,346 l800,0" />
        <path id="Capline-L" d="M18,476 l800,0" />
        <path id="Baseline-L" d="M18,546 l800,0" />
    </g>
    <g id="Symbols">
        <g id="Ultralight-M" transform="translate(0,200)">
            <path d="M246.338,82.667 C246.338,82.667 246.338,82.667 246.338,82.667 C246.338,82.667 246.338,82.667 246.338,82.667 L283.664,82.667 C283.662,82.667 283.662,82.667 283.662,82.667 C283.662,82.667 283.662,82.667 283.662,82.667 L278.294,136.351 C278.124,138.047 276.763,139.334 275.142,139.333 L254.86,139.333 C253.214,139.343 251.844,138.053 251.673,136.35 L246.338,82.667 Z M240.034,83.36 L245.371,137.047 C245.884,142.159 249.993,146.028 254.877,146 L275.14,146 C280.004,146.003 284.086,142.14 284.597,137.05 L289.965,83.365 C290.154,81.488 289.575,79.613 288.374,78.208 C287.173,76.803 285.462,76.001 283.665,76 L246.336,76 C244.539,76.001 242.829,76.803 241.628,78.206 C240.427,79.609 239.848,81.482 240.034,83.36 Z" />
            <path d="M247.888,112 C252.395,108.444 258.592,108.444 263.099,112 C269.859,117.333 279.154,117.333 285.914,112 C287.314,110.895 287.598,108.806 286.548,107.333 C285.497,105.861 283.511,105.562 282.111,106.667 C277.605,110.222 271.408,110.222 266.901,106.667 C260.141,101.333 250.846,101.333 244.086,106.667 C242.686,107.771 242.402,109.861 243.452,111.333 C244.502,112.806 246.488,113.105 247.888,112 Z" />
        </g>
        <g id="Regular-M" transform="translate(0,200)">
            <path d="M446.338,82.667 C446.338,82.667 446.338,82.667 446.338,82.667 C446.338,82.667 446.338,82.667 446.338,82.667 L483.664,82.667 C483.662,82.667 483.662,82.667 483.662,82.667 C483.662,82.667 483.662,82.667 483.662,82.667 L478.294,136.351 C478.124,138.047 476.763,139.334 475.142,139.333 L454.86,139.333 C453.214,139.343 451.844,138.053 451.673,136.35 L446.338,82.667 Z M440.034,83.36 L445.371,137.047 C445.884,142.159 449.993,146.028 454.877,146 L475.14,146 C480.004,146.003 484.086,142.14 484.597,137.05 L489.965,83.365 C490.154,81.488 489.575,79.613 488.374,78.208 C487.173,76.803 485.462,76.001 483.665,76 L446.336,76 C444.539,76.001 442.829,76.803 441.628,78.206 C440.427,79.609 439.848,81.482 440.034,83.36 Z" />
            <path d="M447.888,112 C452.395,108.444 458.592,108.444 463.099,112 C469.859,117.333 479.154,117.333 485.914,112 C487.314,110.895 487.598,108.806 486.548,107.333 C485.497,105.861 483.511,105.562 482.111,106.667 C477.605,110.222 471.408,110.222 466.901,106.667 C460.141,101.333 450.846,101.333 444.086,106.667 C442.686,107.771 442.402,109.861 443.452,111.333 C444.502,112.806 446.488,113.105 447.888,112 Z" />
        </g>
        <g id="Black-M" transform="translate(0,200)">
            <path d="M646.338,82.667 C646.338,82.667 646.338,82.667 646.338,82.667 C646.338,82.667 646.338,82.667 646.338,82.667 L683.664,82.667 C683.662,82.667 683.662,82.667 683.662,82.667 C683.662,82.667 683.662,82.667 683.662,82.667 L678.294,136.351 C678.124,138.047 676.763,139.334 675.142,139.333 L654.86,139.333 C653.214,139.343 651.844,138.053 651.673,136.35 L646.338,82.667 Z M640.034,83.36 L645.371,137.047 C645.884,142.159 649.993,146.028 654.877,146 L675.14,146 C680.004,146.003 684.086,142.14 684.597,137.05 L689.965,83.365 C690.154,81.488 689.575,79.613 688.374,78.208 C687.173,76.803 685.462,76.001 683.665,76 L646.336,76 C644.539,76.001 642.829,76.803 641.628,78.206 C640.427,79.609 639.848,81.482 640.034,83.36 Z" />
            <path d="M647.888,112 C652.395,108.444 658.592,108.444 663.099,112 C669.859,117.333 679.154,117.333 685.914,112 C687.314,110.895 687.598,108.806 686.547,107.333 C685.497,105.861 683.511,105.562 682.111,106.667 C677.604,110.222 671.408,110.222 666.901,106.667 C660.141,101.333 650.846,101.333 644.086,106.667 C642.686,107.771 642.402,109.861 643.452,111.333 C644.502,112.806 646.488,113.105 647.888,112 Z" />
        </g>
    </g>
</svg>