<?xml version="1.0" encoding="UTF-8"?>
<svg height="600" width="800" xmlns="http://www.w3.org/2000/svg" xmlns:xlink="http://www.w3.org/1999/xlink">
    <g id="Notes" font-family="LucidaGrande, 'Lucida Grande', sans-serif" font-size="13">
        <rect fill="white" height="600.0" width="800.0" x="0.0" y="0.0" />
        <g font-size="13">
            <text x="18.0" y="176.0">Small</text>
            <text x="18.0" y="376.0">Medium</text>
            <text x="18.0" y="576.0">Large</text>
        </g>
        <g font-size="9">
            <text x="250.0" y="30.0">Ultralight</text>
            <text x="450.0" y="30.0">Regular</text>
            <text x="650.0" y="30.0">Black</text>
            <text id="template-version" fill="#505050" text-anchor="end" x="785.0" y="575.0">Template v.3.0</text>
            <a href="https://github.com/swhitty/SwiftDraw">
                <text fill="#505050" text-anchor="end" x="785.0" y="590.0">https://github.com/swhitty/SwiftDraw</text>
            </a>
        </g>
    </g>
    <g id="Guides" stroke="rgb(39, 170, 225)" stroke-width="0.5">
        <path id="Capline-S" d="M18,76 l800,0" />
        <path id="H-reference" d="M85,145.755 L87.685,145.755 L113.369,79.287 L114.052,79.287 L114.052,76 L112.148,76 L85,145.755 Z M95.693,121.536 L130.996,121.536 L130.263,119.313 L96.474,119.313 L95.693,121.536 Z M139.15,145.755 L141.787,145.755 L114.638,76 L113.466,76 L113.466,79.287 L139.15,145.755 Z" stroke="none" transform="translate(0,200)" />
        <path id="Baseline-S" d="M18,146 l800,0" />
        <path id="left-margin-Ultralight-M" d="M230,256 l0,110" />
        <path id="right-margin-Ultralight-M" d="M300,256 l0,110" />
        <path id="left-margin-Regular-M" d="M430,256 l0,110" />
        <path id="right-margin-Regular-M" d="M500,256 l0,110" />
        <path id="left-margin-Black-M" d="M630,256 l0,110" />
        <path id="right-margin-Black-M" d="M700,256 l0,110" />
        <path id="Capline-M" d="M18,276 l800,0" />
        <path id="Baseline-M" d="M18,346 l800,0" />
        <path id="Capline-L" d="M18,476 l800,0" />
        <path id="Baseline-L" d="M18,546 l800,0" />
    </g>
    <g id="Symbols">
        <g id="Ultralight-M" transform="translate(0,200)">
            <path d="M275.477,84.614 L291.386,100.523 C292.629,101.765 294.644,101.765 295.886,100.523 C297.129,99.28 297.129,97.265 295.886,96.023 L279.977,80.114 C278.735,78.871 276.72,78.871 275.477,80.114 C274.235,81.356 274.235,83.371 275.477,84.614 Z" />
            <path d="M233.182,114.182 L296.818,114.182 L293.636,111 C293.636,126.815 280.815,139.636 265,139.636 C249.185,139.636 236.364,126.815 236.364,111 C236.364,95.185 249.185,82.364 265,82.364 L262.696,76.987 C244.556,96.034 244.556,125.966 262.696,145.013 C263.95,146.329 266.05,146.329 267.304,145.013 C276.038,135.842 280.909,123.664 280.909,111 C280.909,109.243 279.485,107.818 277.727,107.818 C275.97,107.818 274.545,109.243 274.545,111 C274.545,122.03 270.303,132.637 262.696,140.624 L267.304,140.624 C251.505,124.034 251.505,97.966 267.304,81.376 C269.233,79.35 267.797,76 265,76 C245.67,76 230,91.67 230,111 C230,130.33 245.67,146 265,146 C284.33,146 300,130.33 300,111 C300,109.243 298.575,107.818 296.818,107.818 L233.182,107.818 C231.425,107.818 230,109.243 230,111 C230,112.757 231.425,114.182 233.182,114.182 Z" />
            <path d="M291.386,80.114 L275.477,96.023 C274.235,97.265 274.235,99.28 275.477,100.523 C276.72,101.765 278.735,101.765 279.977,100.523 L295.886,84.614 C297.129,83.371 297.129,81.356 295.886,80.114 C294.644,78.871 292.629,78.871 291.386,80.114 Z" />
        </g>
        <g id="Regular-M" transform="translate(0,200)">
            <path d="M475.477,84.614 L491.386,100.523 C492.629,101.765 494.644,101.765 495.886,100.523 C497.129,99.28 497.129,97.265 495.886,96.023 L479.977,80.114 C478.735,78.871 476.72,78.871 475.477,80.114 C474.235,81.356 474.235,83.371 475.477,84.614 Z" />
            <path d="M433.182,114.182 L496.818,114.182 L493.636,111 C493.636,126.815 480.815,139.636 465,139.636 C449.185,139.636 436.364,126.815 436.364,111 C436.364,95.185 449.185,82.364 465,82.364 L462.696,76.987 C444.556,96.034 444.556,125.966 462.696,145.013 C463.95,146.329 466.05,146.329 467.304,145.013 C476.038,135.842 480.909,123.664 480.909,111 C480.909,109.243 479.485,107.818 477.727,107.818 C475.97,107.818 474.545,109.243 474.545,111 C474.545,122.03 470.303,132.637 462.696,140.624 L467.304,140.624 C451.505,124.034 451.505,97.966 467.304,81.376 C469.233,79.35 467.797,76 465,76 C445.67,76 430,91.67 430,111 C430,130.33 445.67,146 465,146 C484.33,146 500,130.33 500,111 C500,109.243 498.575,107.818 496.818,107.818 L433.182,107.818 C431.425,107.818 430,109.243 430,111 C430,112.757 431.425,114.182 433.182,114.182 Z" />
            <path d="M491.386,80.114 L475.477,96.023 C474.235,97.265 474.235,99.28 475.477,100.523 C476.72,101.765 478.735,101.765 479.977,100.523 L495.886,84.614 C497.129,83.371 497.129,81.356 495.886,80.114 C494.644,78.871 492.629,78.871 491.386,80.114 Z" />
        </g>
        <g id="Black-M" transform="translate(0,200)">
            <path d="M675.477,84.614 L691.386,100.523 C692.629,101.765 694.644,101.765 695.886,100.523 C697.129,99.28 697.129,97.265 695.886,96.023 L679.977,80.114 C678.735,78.871 676.72,78.871 675.477,80.114 C674.235,81.356 674.235,83.371 675.477,84.614 Z" />
            <path d="M633.182,114.182 L696.818,114.182 L693.636,111 C693.636,126.815 680.815,139.636 665,139.636 C649.185,139.636 636.364,126.815 636.364,111 C636.364,95.185 649.185,82.364 665,82.364 L662.696,76.987 C644.556,96.034 644.556,125.966 662.696,145.013 C663.95,146.329 666.05,146.329 667.304,145.013 C676.038,135.842 680.909,123.664 680.909,111 C680.909,109.243 679.485,107.818 677.727,107.818 C675.97,107.818 674.545,109.243 674.545,111 C674.545,122.03 670.303,132.637 662.696,140.624 L667.304,140.624 C651.505,124.034 651.505,97.966 667.304,81.376 C669.233,79.35 667.797,76 665,76 C645.67,76 630,91.67 630,111 C630,130.33 645.67,146 665,146 C684.33,146 700,130.33 700,111 C700,109.243 698.575,107.818 696.818,107.818 L633.182,107.818 C631.425,107.818 630,109.243 630,111 C630,112.757 631.425,114.182 633.182,114.182 Z" />
            <path d="M691.386,80.114 L675.477,96.023 C674.235,97.265 674.235,99.28 675.477,100.523 C676.72,101.765 678.735,101.765 679.977,100.523 L695.886,84.614 C697.129,83.371 697.129,81.356 695.886,80.114 C694.644,78.871 692.629,78.871 691.386,80.114 Z" />
        </g>
    </g>
</svg>