<?xml version="1.0" encoding="UTF-8"?>
<svg height="600" width="800" xmlns="http://www.w3.org/2000/svg" xmlns:xlink="http://www.w3.org/1999/xlink">
    <g id="Notes" font-family="LucidaGrande, 'Lucida Grande', sans-serif" font-size="13">
        <rect fill="white" height="600.0" width="800.0" x="0.0" y="0.0" />
        <g font-size="13">
            <text x="18.0" y="176.0">Small</text>
            <text x="18.0" y="376.0">Medium</text>
            <text x="18.0" y="576.0">Large</text>
        </g>
        <g font-size="9">
            <text x="250.0" y="30.0">Ultralight</text>
            <text x="450.0" y="30.0">Regular</text>
            <text x="650.0" y="30.0">Black</text>
            <text id="template-version" fill="#505050" text-anchor="end" x="785.0" y="575.0">Template v.3.0</text>
            <a href="https://github.com/swhitty/SwiftDraw">
                <text fill="#505050" text-anchor="end" x="785.0" y="590.0">https://github.com/swhitty/SwiftDraw</text>
            </a>
        </g>
    </g>
    <g id="Guides" stroke="rgb(39, 170, 225)" stroke-width="0.5">
        <path id="Capline-S" d="M18,76 l800,0" />
        <path id="H-reference" d="M85,145.755 L87.685,145.755 L113.369,79.287 L114.052,79.287 L114.052,76 L112.148,76 L85,145.755 Z M95.693,121.536 L130.996,121.536 L130.263,119.313 L96.474,119.313 L95.693,121.536 Z M139.15,145.755 L141.787,145.755 L114.638,76 L113.466,76 L113.466,79.287 L139.15,145.755 Z" stroke="none" transform="translate(0,200)" />
        <path id="Baseline-S" d="M18,146 l800,0" />
        <path id="left-margin-Ultralight-M" d="M230,256 l0,110" />
        <path id="right-margin-Ultralight-M" d="M300,256 l0,110" />
        <path id="left-margin-Regular-M" d="M430,256 l0,110" />
        <path id="right-margin-Regular-M" d="M500,256 l0,110" />
        <path id="left-margin-Black-M" d="M630,256 l0,110" />
        <path id="right-margin-Black-M" d="M700,256 l0,110" />
        <path id="Capline-M" d="M18,276 l800,0" />
        <path id="Baseline-M" d="M18,346 l800,0" />
        <path id="Capline-L" d="M18,476 l800,0" />
        <path id="Baseline-L" d="M18,546 l800,0" />
    </g>
    <g id="Symbols">
        <g id="Ultralight-M" transform="translate(0,200)">
            <path d="M236.364,111 C236.364,95.185 249.185,82.364 265,82.364 C280.815,82.364 293.636,95.185 293.636,111 C293.636,126.815 280.815,139.636 265,139.636 C249.185,139.636 236.364,126.815 236.364,111 Z M230,111 C230,130.33 245.67,146 265,146 C284.33,146 300,130.33 300,111 C300,91.67 284.33,76 265,76 C245.67,76 230,91.67 230,111 Z" />
            <path d="M262.696,76.987 C244.556,96.034 244.556,125.966 262.696,145.013 C263.95,146.329 266.05,146.329 267.304,145.013 C285.444,125.966 285.444,96.034 267.304,76.987 C266.092,75.715 264.078,75.666 262.806,76.878 C261.533,78.09 261.484,80.104 262.696,81.376 C278.495,97.966 278.495,124.034 262.696,140.624 L267.304,140.624 C251.505,124.034 251.505,97.966 267.304,81.376 C268.516,80.104 268.467,78.09 267.194,76.878 C265.922,75.666 263.908,75.715 262.696,76.987 Z" />
            <path d="M233.182,114.182 L296.818,114.182 C298.575,114.182 300,112.757 300,111 C300,109.243 298.575,107.818 296.818,107.818 L233.182,107.818 C231.425,107.818 230,109.243 230,111 C230,112.757 231.425,114.182 233.182,114.182 Z" />
        </g>
        <g id="Regular-M" transform="translate(0,200)">
            <path d="M436.364,111 C436.364,95.185 449.185,82.364 465,82.364 C480.815,82.364 493.636,95.185 493.636,111 C493.636,126.815 480.815,139.636 465,139.636 C449.185,139.636 436.364,126.815 436.364,111 Z M430,111 C430,130.33 445.67,146 465,146 C484.33,146 500,130.33 500,111 C500,91.67 484.33,76 465,76 C445.67,76 430,91.67 430,111 Z" />
            <path d="M462.696,76.987 C444.556,96.034 444.556,125.966 462.696,145.013 C463.95,146.329 466.05,146.329 467.304,145.013 C485.444,125.966 485.444,96.034 467.304,76.987 C466.092,75.715 464.078,75.666 462.806,76.878 C461.533,78.09 461.484,80.104 462.696,81.376 C478.495,97.966 478.495,124.034 462.696,140.624 L467.304,140.624 C451.505,124.034 451.505,97.966 467.304,81.376 C468.516,80.104 468.467,78.09 467.194,76.878 C465.922,75.666 463.908,75.715 462.696,76.987 Z" />
            <path d="M433.182,114.182 L496.818,114.182 C498.575,114.182 500,112.757 500,111 C500,109.243 498.575,107.818 496.818,107.818 L433.182,107.818 C431.425,107.818 430,109.243 430,111 C430,112.757 431.425,114.182 433.182,114.182 Z" />
        </g>
        <g id="Black-M" transform="translate(0,200)">
            <path d="M636.364,111 C636.364,95.185 649.185,82.364 665,82.364 C680.815,82.364 693.636,95.185 693.636,111 C693.636,126.815 680.815,139.636 665,139.636 C649.185,139.636 636.364,126.815 636.364,111 Z M630,111 C630,130.33 645.67,146 665,146 C684.33,146 700,130.33 700,111 C700,91.67 684.33,76 665,76 C645.67,76 630,91.67 630,111 Z" />
            <path d="M662.696,76.987 C644.556,96.034 644.556,125.966 662.696,145.013 C663.95,146.329 666.05,146.329 667.304,145.013 C685.444,125.966 685.444,96.034 667.304,76.987 C666.092,75.715 664.078,75.666 662.806,76.878 C661.533,78.09 661.484,80.104 662.696,81.376 C678.495,97.966 678.495,124.034 662.696,140.624 L667.304,140.624 C651.505,124.034 651.505,97.966 667.304,81.376 C668.516,80.104 668.467,78.09 667.194,76.878 C665.922,75.666 663.908,75.715 662.696,76.987 Z" />
            <path d="M633.182,114.182 L696.818,114.182 C698.575,114.182 700,112.757 700,111 C700,109.243 698.575,107.818 696.818,107.818 L633.182,107.818 C631.425,107.818 630,109.243 630,111 C630,112.757 631.425,114.182 633.182,114.182 Z" />
        </g>
    </g>
</svg>