<?xml version="1.0" encoding="UTF-8"?>
<svg height="600" width="800" xmlns="http://www.w3.org/2000/svg" xmlns:xlink="http://www.w3.org/1999/xlink">
    <g id="Notes" font-family="LucidaGrande, 'Lucida Grande', sans-serif" font-size="13">
        <rect fill="white" height="600.0" width="800.0" x="0.0" y="0.0" />
        <g font-size="13">
            <text x="18.0" y="176.0">Small</text>
            <text x="18.0" y="376.0">Medium</text>
            <text x="18.0" y="576.0">Large</text>
        </g>
        <g font-size="9">
            <text x="250.0" y="30.0">Ultralight</text>
            <text x="450.0" y="30.0">Regular</text>
            <text x="650.0" y="30.0">Black</text>
            <text id="template-version" fill="#505050" text-anchor="end" x="785.0" y="575.0">Template v.3.0</text>
            <a href="https://github.com/swhitty/SwiftDraw">
                <text fill="#505050" text-anchor="end" x="785.0" y="590.0">https://github.com/swhitty/SwiftDraw</text>
            </a>
        </g>
    </g>
    <g id="Guides" stroke="rgb(39, 170, 225)" stroke-width="0.5">
        <path id="Capline-S" d="M18,76 l800,0" />
        <path id="H-reference" d="M85,145.755 L87.685,145.755 L113.369,79.287 L114.052,79.287 L114.052,76 L112.148,76 L85,145.755 Z M95.693,121.536 L130.996,121.536 L130.263,119.313 L96.474,119.313 L95.693,121.536 Z M139.15,145.755 L141.787,145.755 L114.638,76 L113.466,76 L113.466,79.287 L139.15,145.755 Z" stroke="none" transform="translate(0,200)" />
        <path id="Baseline-S" d="M18,146 l800,0" />
        <path id="left-margin-Ultralight-M" d="M228.333,256 l0,110" />
        <path id="right-margin-Ultralight-M" d="M301.667,256 l0,110" />
        <path id="left-margin-Regular-M" d="M428.333,256 l0,110" />
        <path id="right-margin-Regular-M" d="M501.667,256 l0,110" />
        <path id="left-margin-Black-M" d="M628.333,256 l0,110" />
        <path id="right-margin-Black-M" d="M701.667,256 l0,110" />
        <path id="Capline-M" d="M18,276 l800,0" />
        <path id="Baseline-M" d="M18,346 l800,0" />
        <path id="Capline-L" d="M18,476 l800,0" />
        <path id="Baseline-L" d="M18,546 l800,0" />
    </g>
    <g id="Symbols">
        <g id="Ultralight-M" transform="translate(0,200)">
            <path d="M288.397,111 L288.397,102.667 C288.397,100.015 287.348,97.471 285.482,95.596 C283.616,93.72 281.084,92.667 278.445,92.667 C275.805,92.667 273.274,93.72 271.407,95.596 C269.541,97.471 268.493,100.015 268.493,102.667 L268.493,107.333 C268.493,109.174 269.978,110.667 271.81,110.667 C273.642,110.667 275.127,109.174 275.127,107.333 L275.127,102.667 C275.127,101.783 275.477,100.935 276.099,100.31 C276.721,99.685 277.565,99.333 278.445,99.333 C279.325,99.333 280.168,99.685 280.791,100.31 C281.413,100.935 281.762,101.783 281.762,102.667 L281.762,111 C281.762,112.841 283.247,114.333 285.08,114.333 C286.912,114.333 288.397,112.841 288.397,111 Z" />
            <path d="M275.127,106 L275.127,99.333 C275.127,93.81 270.672,89.333 265.175,89.333 C259.679,89.333 255.223,93.81 255.223,99.333 L255.223,106 C255.223,107.841 256.708,109.333 258.54,109.333 C260.372,109.333 261.858,107.841 261.858,106 L261.858,99.333 C261.858,97.492 263.343,96 265.175,96 C267.007,96 268.493,97.492 268.493,99.333 L268.493,106 C268.493,107.841 269.978,109.333 271.81,109.333 C273.642,109.333 275.127,107.841 275.127,106 Z" />
            <path d="M261.858,104.333 L261.858,86 C261.858,80.477 257.402,76 251.905,76 C246.409,76 241.953,80.477 241.953,86 L241.953,116 C241.953,117.841 243.438,119.333 245.271,119.333 C247.103,119.333 248.588,117.841 248.588,116 L248.588,86 C248.588,84.159 250.073,82.667 251.905,82.667 C253.738,82.667 255.223,84.159 255.223,86 L255.223,104.333 C255.223,106.174 256.708,107.667 258.54,107.667 C260.372,107.667 261.858,106.174 261.858,104.333 Z" />
            <path d="M250.934,116.976 L245.095,111.11 C241.056,107.413 235.019,107.552 231.261,111.315 C227.502,115.079 227.343,121.143 230.899,125.101 L242.958,137.224 C248.966,143.22 255.615,146 265.175,146 L271.81,146 C279.728,146 287.323,142.839 292.922,137.213 C298.521,131.587 301.667,123.956 301.667,116 L301.667,92.667 C301.667,87.144 297.211,82.667 291.714,82.667 C286.218,82.667 281.762,87.144 281.762,92.667 L281.762,109.333 C281.762,111.174 283.247,112.667 285.08,112.667 C286.912,112.667 288.397,111.174 288.397,109.333 L288.397,92.667 C288.397,90.826 289.882,89.333 291.714,89.333 C293.547,89.333 295.032,90.826 295.032,92.667 L295.032,116 C295.032,122.188 292.585,128.123 288.23,132.499 C283.875,136.875 277.969,139.333 271.81,139.333 L265.175,139.333 C257.375,139.333 252.404,137.255 247.642,132.502 L235.707,120.51 C234.638,119.314 234.691,117.292 235.944,116.038 C237.197,114.783 239.209,114.737 240.518,115.933 L246.242,121.69 C247.538,122.992 249.638,122.992 250.934,121.69 C252.229,120.389 252.229,118.278 250.934,116.976 Z" />
        </g>
        <g id="Regular-M" transform="translate(0,200)">
            <path d="M488.397,111 L488.397,102.667 C488.397,100.015 487.348,97.471 485.482,95.596 C483.616,93.72 481.084,92.667 478.445,92.667 C475.805,92.667 473.274,93.72 471.407,95.596 C469.541,97.471 468.493,100.015 468.493,102.667 L468.493,107.333 C468.493,109.174 469.978,110.667 471.81,110.667 C473.642,110.667 475.127,109.174 475.127,107.333 L475.127,102.667 C475.127,101.783 475.477,100.935 476.099,100.31 C476.721,99.685 477.565,99.333 478.445,99.333 C479.325,99.333 480.168,99.685 480.791,100.31 C481.413,100.935 481.762,101.783 481.762,102.667 L481.762,111 C481.762,112.841 483.247,114.333 485.08,114.333 C486.912,114.333 488.397,112.841 488.397,111 Z" />
            <path d="M475.127,106 L475.127,99.333 C475.127,93.81 470.672,89.333 465.175,89.333 C459.679,89.333 455.223,93.81 455.223,99.333 L455.223,106 C455.223,107.841 456.708,109.333 458.54,109.333 C460.372,109.333 461.858,107.841 461.858,106 L461.858,99.333 C461.858,97.492 463.343,96 465.175,96 C467.007,96 468.493,97.492 468.493,99.333 L468.493,106 C468.493,107.841 469.978,109.333 471.81,109.333 C473.642,109.333 475.127,107.841 475.127,106 Z" />
            <path d="M461.858,104.333 L461.858,86 C461.858,80.477 457.402,76 451.905,76 C446.409,76 441.953,80.477 441.953,86 L441.953,116 C441.953,117.841 443.438,119.333 445.271,119.333 C447.103,119.333 448.588,117.841 448.588,116 L448.588,86 C448.588,84.159 450.073,82.667 451.905,82.667 C453.738,82.667 455.223,84.159 455.223,86 L455.223,104.333 C455.223,106.174 456.708,107.667 458.54,107.667 C460.372,107.667 461.858,106.174 461.858,104.333 Z" />
            <path d="M450.934,116.976 L445.095,111.11 C441.056,107.413 435.019,107.552 431.261,111.315 C427.502,115.079 427.343,121.143 430.899,125.101 L442.958,137.224 C448.966,143.22 455.615,146 465.175,146 L471.81,146 C479.728,146 487.323,142.839 492.922,137.213 C498.521,131.587 501.667,123.956 501.667,116 L501.667,92.667 C501.667,87.144 497.211,82.667 491.714,82.667 C486.218,82.667 481.762,87.144 481.762,92.667 L481.762,109.333 C481.762,111.174 483.247,112.667 485.08,112.667 C486.912,112.667 488.397,111.174 488.397,109.333 L488.397,92.667 C488.397,90.826 489.882,89.333 491.714,89.333 C493.547,89.333 495.032,90.826 495.032,92.667 L495.032,116 C495.032,122.188 492.585,128.123 488.23,132.499 C483.875,136.875 477.969,139.333 471.81,139.333 L465.175,139.333 C457.375,139.333 452.404,137.255 447.642,132.502 L435.707,120.51 C434.638,119.314 434.691,117.292 435.944,116.038 C437.197,114.783 439.209,114.737 440.518,115.933 L446.242,121.69 C447.538,122.992 449.638,122.992 450.934,121.69 C452.229,120.389 452.229,118.278 450.934,116.976 Z" />
        </g>
        <g id="Black-M" transform="translate(0,200)">
            <path d="M688.397,111 L688.397,102.667 C688.397,100.015 687.348,97.471 685.482,95.596 C683.616,93.72 681.084,92.667 678.445,92.667 C675.805,92.667 673.274,93.72 671.407,95.596 C669.541,97.471 668.492,100.015 668.492,102.667 L668.492,107.333 C668.492,109.174 669.978,110.667 671.81,110.667 C673.642,110.667 675.127,109.174 675.127,107.333 L675.127,102.667 C675.127,101.783 675.477,100.935 676.099,100.31 C676.721,99.685 677.565,99.333 678.445,99.333 C679.325,99.333 680.168,99.685 680.791,100.31 C681.413,100.935 681.762,101.783 681.762,102.667 L681.762,111 C681.762,112.841 683.247,114.333 685.08,114.333 C686.912,114.333 688.397,112.841 688.397,111 Z" />
            <path d="M675.127,106 L675.127,99.333 C675.127,93.81 670.672,89.333 665.175,89.333 C659.679,89.333 655.223,93.81 655.223,99.333 L655.223,106 C655.223,107.841 656.708,109.333 658.54,109.333 C660.372,109.333 661.858,107.841 661.858,106 L661.858,99.333 C661.858,97.492 663.343,96 665.175,96 C667.007,96 668.492,97.492 668.492,99.333 L668.492,106 C668.492,107.841 669.978,109.333 671.81,109.333 C673.642,109.333 675.127,107.841 675.127,106 Z" />
            <path d="M661.858,104.333 L661.858,86 C661.858,80.477 657.402,76 651.905,76 C646.409,76 641.953,80.477 641.953,86 L641.953,116 C641.953,117.841 643.438,119.333 645.271,119.333 C647.103,119.333 648.588,117.841 648.588,116 L648.588,86 C648.588,84.159 650.073,82.667 651.905,82.667 C653.738,82.667 655.223,84.159 655.223,86 L655.223,104.333 C655.223,106.174 656.708,107.667 658.54,107.667 C660.372,107.667 661.858,106.174 661.858,104.333 Z" />
            <path d="M650.934,116.976 L645.095,111.11 C641.056,107.413 635.019,107.552 631.261,111.315 C627.502,115.079 627.343,121.143 630.899,125.101 L642.958,137.224 C648.966,143.22 655.615,146 665.175,146 L671.81,146 C679.728,146 687.323,142.839 692.922,137.213 C698.521,131.587 701.667,123.956 701.667,116 L701.667,92.667 C701.667,87.144 697.211,82.667 691.714,82.667 C686.218,82.667 681.762,87.144 681.762,92.667 L681.762,109.333 C681.762,111.174 683.247,112.667 685.08,112.667 C686.912,112.667 688.397,111.174 688.397,109.333 L688.397,92.667 C688.397,90.826 689.882,89.333 691.714,89.333 C693.547,89.333 695.032,90.826 695.032,92.667 L695.032,116 C695.032,122.188 692.585,128.123 688.23,132.499 C683.875,136.875 677.969,139.333 671.81,139.333 L665.175,139.333 C657.375,139.333 652.404,137.255 647.642,132.502 L635.707,120.51 C634.638,119.314 634.691,117.292 635.944,116.038 C637.197,114.783 639.209,114.737 640.517,115.933 L646.242,121.69 C647.538,122.992 649.638,122.992 650.934,121.69 C652.229,120.389 652.229,118.278 650.934,116.976 Z" />
        </g>
    </g>
</svg>