<?xml version="1.0" encoding="UTF-8"?>
<svg height="600" width="800" xmlns="http://www.w3.org/2000/svg" xmlns:xlink="http://www.w3.org/1999/xlink">
    <g id="Notes" font-family="LucidaGrande, 'Lucida Grande', sans-serif" font-size="13">
        <rect fill="white" height="600.0" width="800.0" x="0.0" y="0.0" />
        <g font-size="13">
            <text x="18.0" y="176.0">Small</text>
            <text x="18.0" y="376.0">Medium</text>
            <text x="18.0" y="576.0">Large</text>
        </g>
        <g font-size="9">
            <text x="250.0" y="30.0">Ultralight</text>
            <text x="450.0" y="30.0">Regular</text>
            <text x="650.0" y="30.0">Black</text>
            <text id="template-version" fill="#505050" text-anchor="end" x="785.0" y="575.0">Template v.3.0</text>
            <a href="https://github.com/swhitty/SwiftDraw">
                <text fill="#505050" text-anchor="end" x="785.0" y="590.0">https://github.com/swhitty/SwiftDraw</text>
            </a>
        </g>
    </g>
    <g id="Guides" stroke="rgb(39, 170, 225)" stroke-width="0.5">
        <path id="Capline-S" d="M18,76 l800,0" />
        <path id="H-reference" d="M85,145.755 L87.685,145.755 L113.369,79.287 L114.052,79.287 L114.052,76 L112.148,76 L85,145.755 Z M95.693,121.536 L130.996,121.536 L130.263,119.313 L96.474,119.313 L95.693,121.536 Z M139.15,145.755 L141.787,145.755 L114.638,76 L113.466,76 L113.466,79.287 L139.15,145.755 Z" stroke="none" transform="translate(0,200)" />
        <path id="Baseline-S" d="M18,146 l800,0" />
        <path id="left-margin-Ultralight-M" d="M222.222,256 l0,110" />
        <path id="right-margin-Ultralight-M" d="M307.778,256 l0,110" />
        <path id="left-margin-Regular-M" d="M422.222,256 l0,110" />
        <path id="right-margin-Regular-M" d="M507.778,256 l0,110" />
        <path id="left-margin-Black-M" d="M622.222,256 l0,110" />
        <path id="right-margin-Black-M" d="M707.778,256 l0,110" />
        <path id="Capline-M" d="M18,276 l800,0" />
        <path id="Baseline-M" d="M18,346 l800,0" />
        <path id="Capline-L" d="M18,476 l800,0" />
        <path id="Baseline-L" d="M18,546 l800,0" />
    </g>
    <g id="Symbols">
        <g id="Ultralight-M" transform="translate(0,200)">
            <path d="M292.222,101.278 L292.222,91.556 C292.222,88.461 290.993,85.494 288.805,83.306 C286.617,81.118 283.65,79.889 280.556,79.889 C277.461,79.889 274.494,81.118 272.306,83.306 C270.118,85.494 268.889,88.461 268.889,91.556 L268.889,97 C268.889,99.148 270.63,100.889 272.778,100.889 C274.926,100.889 276.667,99.148 276.667,97 L276.667,91.556 C276.667,90.524 277.076,89.535 277.806,88.806 C278.535,88.076 279.524,87.667 280.556,87.667 C281.587,87.667 282.576,88.076 283.305,88.806 C284.035,89.535 284.444,90.524 284.444,91.556 L284.444,101.278 C284.444,103.426 286.186,105.167 288.333,105.167 C290.481,105.167 292.222,103.426 292.222,101.278 Z" />
            <path d="M276.667,95.444 L276.667,87.667 C276.667,84.572 275.438,81.605 273.25,79.417 C271.062,77.229 268.094,76 265,76 C261.906,76 258.938,77.229 256.75,79.417 C254.562,81.605 253.333,84.572 253.333,87.667 L253.333,95.444 C253.333,97.592 255.074,99.333 257.222,99.333 C259.37,99.333 261.111,97.592 261.111,95.444 L261.111,87.667 C261.111,86.635 261.521,85.646 262.25,84.917 C262.979,84.188 263.969,83.778 265,83.778 C266.031,83.778 267.021,84.188 267.75,84.917 C268.479,85.646 268.889,86.635 268.889,87.667 L268.889,95.444 C268.889,97.592 270.63,99.333 272.778,99.333 C274.926,99.333 276.667,97.592 276.667,95.444 Z" />
            <path d="M261.111,95.056 L261.111,91.556 C261.111,88.461 259.882,85.494 257.694,83.306 C255.506,81.118 252.539,79.889 249.444,79.889 C246.35,79.889 243.383,81.118 241.195,83.306 C239.007,85.494 237.778,88.461 237.778,91.556 L237.778,111 C237.778,113.148 239.519,114.889 241.667,114.889 C243.814,114.889 245.556,113.148 245.556,111 L245.556,91.556 C245.556,90.524 245.965,89.535 246.695,88.806 C247.424,88.076 248.413,87.667 249.444,87.667 C250.476,87.667 251.465,88.076 252.194,88.806 C252.924,89.535 253.333,90.524 253.333,91.556 L253.333,95.056 C253.333,97.203 255.074,98.944 257.222,98.944 C259.37,98.944 261.111,97.203 261.111,95.056 Z" />
            <path d="M245.556,111 C245.556,107.906 244.326,104.938 242.138,102.75 C239.951,100.562 236.983,99.333 233.889,99.333 C230.795,99.333 227.827,100.562 225.639,102.75 C223.451,104.938 222.222,107.906 222.222,111 C222.222,113.148 223.963,114.889 226.111,114.889 C228.259,114.889 230,113.148 230,111 C230,109.969 230.41,108.979 231.139,108.25 C231.868,107.521 232.857,107.111 233.889,107.111 C234.92,107.111 235.909,107.521 236.639,108.25 C237.368,108.979 237.778,109.969 237.778,111 C237.778,113.148 239.519,114.889 241.667,114.889 C243.814,114.889 245.556,113.148 245.556,111 Z" />
            <path d="M292.222,99.333 C292.222,97.186 293.963,95.444 296.111,95.444 C298.259,95.444 300,97.186 300,99.333 L300,111 C300,118.22 297.132,125.144 292.027,130.249 C286.922,135.354 279.998,138.222 272.778,138.222 L257.222,138.222 C250.002,138.222 243.078,135.354 237.973,130.249 C232.868,125.144 230,118.22 230,111 C230,108.852 231.741,107.111 233.889,107.111 C236.037,107.111 237.778,108.852 237.778,111 C237.778,113.148 239.519,114.889 241.667,114.889 C243.814,114.889 245.556,113.148 245.556,111 C245.556,104.557 240.332,99.333 233.889,99.333 C227.446,99.333 222.222,104.557 222.222,111 C222.222,120.283 225.91,129.185 232.473,135.749 C239.037,142.312 247.94,146 257.222,146 L272.778,146 C282.06,146 290.963,142.312 297.527,135.749 C304.09,129.185 307.778,120.283 307.778,111 L307.778,99.333 C307.778,92.89 302.554,87.667 296.111,87.667 C289.668,87.667 284.444,92.89 284.444,99.333 C284.444,101.481 286.186,103.222 288.333,103.222 C290.481,103.222 292.222,101.481 292.222,99.333 Z" />
        </g>
        <g id="Regular-M" transform="translate(0,200)">
            <path d="M492.222,101.278 L492.222,91.556 C492.222,88.461 490.993,85.494 488.805,83.306 C486.617,81.118 483.65,79.889 480.556,79.889 C477.461,79.889 474.494,81.118 472.306,83.306 C470.118,85.494 468.889,88.461 468.889,91.556 L468.889,97 C468.889,99.148 470.63,100.889 472.778,100.889 C474.926,100.889 476.667,99.148 476.667,97 L476.667,91.556 C476.667,90.524 477.076,89.535 477.806,88.806 C478.535,88.076 479.524,87.667 480.556,87.667 C481.587,87.667 482.576,88.076 483.305,88.806 C484.035,89.535 484.444,90.524 484.444,91.556 L484.444,101.278 C484.444,103.426 486.186,105.167 488.333,105.167 C490.481,105.167 492.222,103.426 492.222,101.278 Z" />
            <path d="M476.667,95.444 L476.667,87.667 C476.667,84.572 475.438,81.605 473.25,79.417 C471.062,77.229 468.094,76 465,76 C461.906,76 458.938,77.229 456.75,79.417 C454.562,81.605 453.333,84.572 453.333,87.667 L453.333,95.444 C453.333,97.592 455.074,99.333 457.222,99.333 C459.37,99.333 461.111,97.592 461.111,95.444 L461.111,87.667 C461.111,86.635 461.521,85.646 462.25,84.917 C462.979,84.188 463.969,83.778 465,83.778 C466.031,83.778 467.021,84.188 467.75,84.917 C468.479,85.646 468.889,86.635 468.889,87.667 L468.889,95.444 C468.889,97.592 470.63,99.333 472.778,99.333 C474.926,99.333 476.667,97.592 476.667,95.444 Z" />
            <path d="M461.111,95.056 L461.111,91.556 C461.111,88.461 459.882,85.494 457.694,83.306 C455.506,81.118 452.539,79.889 449.444,79.889 C446.35,79.889 443.383,81.118 441.195,83.306 C439.007,85.494 437.778,88.461 437.778,91.556 L437.778,111 C437.778,113.148 439.519,114.889 441.667,114.889 C443.814,114.889 445.556,113.148 445.556,111 L445.556,91.556 C445.556,90.524 445.965,89.535 446.695,88.806 C447.424,88.076 448.413,87.667 449.444,87.667 C450.476,87.667 451.465,88.076 452.194,88.806 C452.924,89.535 453.333,90.524 453.333,91.556 L453.333,95.056 C453.333,97.203 455.074,98.944 457.222,98.944 C459.37,98.944 461.111,97.203 461.111,95.056 Z" />
            <path d="M445.556,111 C445.556,107.906 444.326,104.938 442.138,102.75 C439.951,100.562 436.983,99.333 433.889,99.333 C430.795,99.333 427.827,100.562 425.639,102.75 C423.451,104.938 422.222,107.906 422.222,111 C422.222,113.148 423.963,114.889 426.111,114.889 C428.259,114.889 430,113.148 430,111 C430,109.969 430.41,108.979 431.139,108.25 C431.868,107.521 432.857,107.111 433.889,107.111 C434.92,107.111 435.909,107.521 436.639,108.25 C437.368,108.979 437.778,109.969 437.778,111 C437.778,113.148 439.519,114.889 441.667,114.889 C443.814,114.889 445.556,113.148 445.556,111 Z" />
            <path d="M492.222,99.333 C492.222,97.186 493.963,95.444 496.111,95.444 C498.259,95.444 500,97.186 500,99.333 L500,111 C500,118.22 497.132,125.144 492.027,130.249 C486.922,135.354 479.998,138.222 472.778,138.222 L457.222,138.222 C450.002,138.222 443.078,135.354 437.973,130.249 C432.868,125.144 430,118.22 430,111 C430,108.852 431.741,107.111 433.889,107.111 C436.037,107.111 437.778,108.852 437.778,111 C437.778,113.148 439.519,114.889 441.667,114.889 C443.814,114.889 445.556,113.148 445.556,111 C445.556,104.557 440.332,99.333 433.889,99.333 C427.446,99.333 422.222,104.557 422.222,111 C422.222,120.283 425.91,129.185 432.473,135.749 C439.037,142.312 447.94,146 457.222,146 L472.778,146 C482.06,146 490.963,142.312 497.527,135.749 C504.09,129.185 507.778,120.283 507.778,111 L507.778,99.333 C507.778,92.89 502.554,87.667 496.111,87.667 C489.668,87.667 484.444,92.89 484.444,99.333 C484.444,101.481 486.186,103.222 488.333,103.222 C490.481,103.222 492.222,101.481 492.222,99.333 Z" />
        </g>
        <g id="Black-M" transform="translate(0,200)">
            <path d="M692.222,101.278 L692.222,91.556 C692.222,88.461 690.993,85.494 688.805,83.306 C686.617,81.118 683.65,79.889 680.556,79.889 C677.461,79.889 674.494,81.118 672.306,83.306 C670.118,85.494 668.889,88.461 668.889,91.556 L668.889,97 C668.889,99.148 670.63,100.889 672.778,100.889 C674.926,100.889 676.667,99.148 676.667,97 L676.667,91.556 C676.667,90.524 677.076,89.535 677.806,88.806 C678.535,88.076 679.524,87.667 680.556,87.667 C681.587,87.667 682.576,88.076 683.305,88.806 C684.035,89.535 684.444,90.524 684.444,91.556 L684.444,101.278 C684.444,103.426 686.186,105.167 688.333,105.167 C690.481,105.167 692.222,103.426 692.222,101.278 Z" />
            <path d="M676.667,95.444 L676.667,87.667 C676.667,84.572 675.438,81.605 673.25,79.417 C671.062,77.229 668.094,76 665,76 C661.906,76 658.938,77.229 656.75,79.417 C654.562,81.605 653.333,84.572 653.333,87.667 L653.333,95.444 C653.333,97.592 655.074,99.333 657.222,99.333 C659.37,99.333 661.111,97.592 661.111,95.444 L661.111,87.667 C661.111,86.635 661.521,85.646 662.25,84.917 C662.979,84.188 663.969,83.778 665,83.778 C666.031,83.778 667.021,84.188 667.75,84.917 C668.479,85.646 668.889,86.635 668.889,87.667 L668.889,95.444 C668.889,97.592 670.63,99.333 672.778,99.333 C674.926,99.333 676.667,97.592 676.667,95.444 Z" />
            <path d="M661.111,95.056 L661.111,91.556 C661.111,88.461 659.882,85.494 657.694,83.306 C655.506,81.118 652.539,79.889 649.444,79.889 C646.35,79.889 643.383,81.118 641.195,83.306 C639.007,85.494 637.778,88.461 637.778,91.556 L637.778,111 C637.778,113.148 639.519,114.889 641.667,114.889 C643.814,114.889 645.556,113.148 645.556,111 L645.556,91.556 C645.556,90.524 645.965,89.535 646.695,88.806 C647.424,88.076 648.413,87.667 649.444,87.667 C650.476,87.667 651.465,88.076 652.194,88.806 C652.924,89.535 653.333,90.524 653.333,91.556 L653.333,95.056 C653.333,97.203 655.074,98.944 657.222,98.944 C659.37,98.944 661.111,97.203 661.111,95.056 Z" />
            <path d="M645.556,111 C645.556,107.906 644.326,104.938 642.138,102.75 C639.951,100.562 636.983,99.333 633.889,99.333 C630.795,99.333 627.827,100.562 625.639,102.75 C623.451,104.938 622.222,107.906 622.222,111 C622.222,113.148 623.963,114.889 626.111,114.889 C628.259,114.889 630,113.148 630,111 C630,109.969 630.41,108.979 631.139,108.25 C631.868,107.521 632.857,107.111 633.889,107.111 C634.92,107.111 635.909,107.521 636.639,108.25 C637.368,108.979 637.778,109.969 637.778,111 C637.778,113.148 639.519,114.889 641.667,114.889 C643.814,114.889 645.556,113.148 645.556,111 Z" />
            <path d="M692.222,99.333 C692.222,97.186 693.963,95.444 696.111,95.444 C698.259,95.444 700,97.186 700,99.333 L700,111 C700,118.22 697.132,125.144 692.027,130.249 C686.922,135.354 679.998,138.222 672.778,138.222 L657.222,138.222 C650.002,138.222 643.078,135.354 637.973,130.249 C632.868,125.144 630,118.22 630,111 C630,108.852 631.741,107.111 633.889,107.111 C636.037,107.111 637.778,108.852 637.778,111 C637.778,113.148 639.519,114.889 641.667,114.889 C643.814,114.889 645.556,113.148 645.556,111 C645.556,104.557 640.332,99.333 633.889,99.333 C627.446,99.333 622.222,104.557 622.222,111 C622.222,120.283 625.91,129.185 632.474,135.749 C639.037,142.312 647.94,146 657.222,146 L672.778,146 C682.06,146 690.963,142.312 697.526,135.749 C704.09,129.185 707.778,120.283 707.778,111 L707.778,99.333 C707.778,92.89 702.554,87.667 696.111,87.667 C689.668,87.667 684.444,92.89 684.444,99.333 C684.444,101.481 686.186,103.222 688.333,103.222 C690.481,103.222 692.222,101.481 692.222,99.333 Z" />
        </g>
    </g>
</svg>