<?xml version="1.0" encoding="UTF-8"?>
<svg height="600" width="800" xmlns="http://www.w3.org/2000/svg" xmlns:xlink="http://www.w3.org/1999/xlink">
    <g id="Notes" font-family="LucidaGrande, 'Lucida Grande', sans-serif" font-size="13">
        <rect fill="white" height="600.0" width="800.0" x="0.0" y="0.0" />
        <g font-size="13">
            <text x="18.0" y="176.0">Small</text>
            <text x="18.0" y="376.0">Medium</text>
            <text x="18.0" y="576.0">Large</text>
        </g>
        <g font-size="9">
            <text x="250.0" y="30.0">Ultralight</text>
            <text x="450.0" y="30.0">Regular</text>
            <text x="650.0" y="30.0">Black</text>
            <text id="template-version" fill="#505050" text-anchor="end" x="785.0" y="575.0">Template v.3.0</text>
            <a href="https://github.com/swhitty/SwiftDraw">
                <text fill="#505050" text-anchor="end" x="785.0" y="590.0">https://github.com/swhitty/SwiftDraw</text>
            </a>
        </g>
    </g>
    <g id="Guides" stroke="rgb(39, 170, 225)" stroke-width="0.5">
        <path id="Capline-S" d="M18,76 l800,0" />
        <path id="H-reference" d="M85,145.755 L87.685,145.755 L113.369,79.287 L114.052,79.287 L114.052,76 L112.148,76 L85,145.755 Z M95.693,121.536 L130.996,121.536 L130.263,119.313 L96.474,119.313 L95.693,121.536 Z M139.15,145.755 L141.787,145.755 L114.638,76 L113.466,76 L113.466,79.287 L139.15,145.755 Z" stroke="none" transform="translate(0,200)" />
        <path id="Baseline-S" d="M18,146 l800,0" />
        <path id="left-margin-Ultralight-M" d="M222.222,256 l0,110" />
        <path id="right-margin-Ultralight-M" d="M307.778,256 l0,110" />
        <path id="left-margin-Regular-M" d="M422.222,256 l0,110" />
        <path id="right-margin-Regular-M" d="M507.778,256 l0,110" />
        <path id="left-margin-Black-M" d="M622.222,256 l0,110" />
        <path id="right-margin-Black-M" d="M707.778,256 l0,110" />
        <path id="Capline-M" d="M18,276 l800,0" />
        <path id="Baseline-M" d="M18,346 l800,0" />
        <path id="Capline-L" d="M18,476 l800,0" />
        <path id="Baseline-L" d="M18,546 l800,0" />
    </g>
    <g id="Symbols">
        <g id="Ultralight-M" transform="translate(0,200)">
            <path d="M257.222,130.444 L257.261,130.444 C259.409,130.444 261.15,128.703 261.15,126.556 C261.15,124.408 259.409,122.667 257.261,122.667 L257.222,122.667 C255.074,122.667 253.333,124.408 253.333,126.556 C253.333,128.703 255.074,130.444 257.222,130.444 Z" />
            <path d="M223.459,107.613 C222.646,109.235 222.222,111.024 222.222,112.839 L222.222,134.333 C222.222,137.428 223.451,140.395 225.639,142.583 C227.827,144.771 230.795,146 233.889,146 L296.111,146 C299.205,146 302.173,144.771 304.361,142.583 C306.549,140.395 307.778,137.428 307.778,134.333 L307.778,112.839 C307.778,111.025 307.354,109.236 306.541,107.613 L293.95,82.464 C291.985,78.51 287.94,76.002 283.513,76 L246.489,76 C242.06,76.002 238.015,78.51 236.045,82.475 L223.458,107.614 Z M230.413,111.096 L243.005,85.947 C243.667,84.615 245.015,83.779 246.491,83.778 L283.511,83.778 C284.985,83.779 286.333,84.615 286.99,85.936 L299.587,111.097 C299.859,111.638 300,112.235 300,112.839 L300,134.333 C300,135.365 299.59,136.354 298.861,137.083 C298.132,137.812 297.143,138.222 296.111,138.222 L233.889,138.222 C232.857,138.222 231.868,137.812 231.139,137.083 C230.41,136.354 230,135.365 230,134.333 L230,112.839 C230,112.235 230.141,111.638 230.412,111.097 Z" />
            <path d="M303.679,107.162 L226.321,107.162 C224.173,107.162 222.432,108.903 222.432,111.051 C222.432,113.198 224.173,114.939 226.321,114.939 L303.679,114.939 C305.827,114.939 307.568,113.198 307.568,111.051 C307.568,108.903 305.827,107.162 303.679,107.162 Z" />
            <path d="M241.667,130.444 L241.706,130.444 C243.853,130.444 245.594,128.703 245.594,126.556 C245.594,124.408 243.853,122.667 241.706,122.667 L241.667,122.667 C239.519,122.667 237.778,124.408 237.778,126.556 C237.778,128.703 239.519,130.444 241.667,130.444 Z" />
        </g>
        <g id="Regular-M" transform="translate(0,200)">
            <path d="M457.222,130.444 L457.261,130.444 C459.409,130.444 461.15,128.703 461.15,126.556 C461.15,124.408 459.409,122.667 457.261,122.667 L457.222,122.667 C455.074,122.667 453.333,124.408 453.333,126.556 C453.333,128.703 455.074,130.444 457.222,130.444 Z" />
            <path d="M423.459,107.613 C422.646,109.235 422.222,111.024 422.222,112.839 L422.222,134.333 C422.222,137.428 423.451,140.395 425.639,142.583 C427.827,144.771 430.795,146 433.889,146 L496.111,146 C499.205,146 502.173,144.771 504.361,142.583 C506.549,140.395 507.778,137.428 507.778,134.333 L507.778,112.839 C507.778,111.025 507.354,109.236 506.541,107.613 L493.95,82.464 C491.985,78.51 487.94,76.002 483.513,76 L446.489,76 C442.06,76.002 438.015,78.51 436.045,82.475 L423.458,107.614 Z M430.413,111.096 L443.005,85.947 C443.667,84.615 445.015,83.779 446.491,83.778 L483.511,83.778 C484.985,83.779 486.333,84.615 486.99,85.936 L499.587,111.097 C499.859,111.638 500,112.235 500,112.839 L500,134.333 C500,135.365 499.59,136.354 498.861,137.083 C498.132,137.812 497.143,138.222 496.111,138.222 L433.889,138.222 C432.857,138.222 431.868,137.812 431.139,137.083 C430.41,136.354 430,135.365 430,134.333 L430,112.839 C430,112.235 430.141,111.638 430.412,111.097 Z" />
            <path d="M503.679,107.162 L426.321,107.162 C424.173,107.162 422.432,108.903 422.432,111.051 C422.432,113.198 424.173,114.939 426.321,114.939 L503.679,114.939 C505.827,114.939 507.568,113.198 507.568,111.051 C507.568,108.903 505.827,107.162 503.679,107.162 Z" />
            <path d="M441.667,130.444 L441.706,130.444 C443.853,130.444 445.594,128.703 445.594,126.556 C445.594,124.408 443.853,122.667 441.706,122.667 L441.667,122.667 C439.519,122.667 437.778,124.408 437.778,126.556 C437.778,128.703 439.519,130.444 441.667,130.444 Z" />
        </g>
        <g id="Black-M" transform="translate(0,200)">
            <path d="M657.222,130.444 L657.261,130.444 C659.409,130.444 661.15,128.703 661.15,126.556 C661.15,124.408 659.409,122.667 657.261,122.667 L657.222,122.667 C655.074,122.667 653.333,124.408 653.333,126.556 C653.333,128.703 655.074,130.444 657.222,130.444 Z" />
            <path d="M623.459,107.613 C622.646,109.235 622.222,111.024 622.222,112.839 L622.222,134.333 C622.222,137.428 623.451,140.395 625.639,142.583 C627.827,144.771 630.795,146 633.889,146 L696.111,146 C699.205,146 702.173,144.771 704.361,142.583 C706.549,140.395 707.778,137.428 707.778,134.333 L707.778,112.839 C707.778,111.025 707.354,109.236 706.541,107.613 L693.95,82.464 C691.985,78.51 687.94,76.002 683.513,76 L646.489,76 C642.06,76.002 638.015,78.51 636.045,82.475 L623.458,107.614 Z M630.413,111.096 L643.005,85.947 C643.667,84.615 645.015,83.779 646.491,83.778 L683.511,83.778 C684.985,83.779 686.333,84.615 686.99,85.936 L699.587,111.097 C699.859,111.638 700,112.235 700,112.839 L700,134.333 C700,135.365 699.59,136.354 698.861,137.083 C698.132,137.812 697.143,138.222 696.111,138.222 L633.889,138.222 C632.857,138.222 631.868,137.812 631.139,137.083 C630.41,136.354 630,135.365 630,134.333 L630,112.839 C630,112.235 630.141,111.638 630.412,111.097 Z" />
            <path d="M703.679,107.162 L626.321,107.162 C624.173,107.162 622.432,108.903 622.432,111.051 C622.432,113.198 624.173,114.939 626.321,114.939 L703.679,114.939 C705.827,114.939 707.568,113.198 707.568,111.051 C707.568,108.903 705.827,107.162 703.679,107.162 Z" />
            <path d="M641.667,130.444 L641.706,130.444 C643.853,130.444 645.594,128.703 645.594,126.556 C645.594,124.408 643.853,122.667 641.706,122.667 L641.667,122.667 C639.519,122.667 637.778,124.408 637.778,126.556 C637.778,128.703 639.519,130.444 641.667,130.444 Z" />
        </g>
    </g>
</svg>