<?xml version="1.0" encoding="UTF-8"?>
<svg height="600" width="800" xmlns="http://www.w3.org/2000/svg" xmlns:xlink="http://www.w3.org/1999/xlink">
    <g id="Notes" font-family="LucidaGrande, 'Lucida Grande', sans-serif" font-size="13">
        <rect fill="white" height="600.0" width="800.0" x="0.0" y="0.0" />
        <g font-size="13">
            <text x="18.0" y="176.0">Small</text>
            <text x="18.0" y="376.0">Medium</text>
            <text x="18.0" y="576.0">Large</text>
        </g>
        <g font-size="9">
            <text x="250.0" y="30.0">Ultralight</text>
            <text x="450.0" y="30.0">Regular</text>
            <text x="650.0" y="30.0">Black</text>
            <text id="template-version" fill="#505050" text-anchor="end" x="785.0" y="575.0">Template v.3.0</text>
            <a href="https://github.com/swhitty/SwiftDraw">
                <text fill="#505050" text-anchor="end" x="785.0" y="590.0">https://github.com/swhitty/SwiftDraw</text>
            </a>
        </g>
    </g>
    <g id="Guides" stroke="rgb(39, 170, 225)" stroke-width="0.5">
        <path id="Capline-S" d="M18,76 l800,0" />
        <path id="H-reference" d="M85,145.755 L87.685,145.755 L113.369,79.287 L114.052,79.287 L114.052,76 L112.148,76 L85,145.755 Z M95.693,121.536 L130.996,121.536 L130.263,119.313 L96.474,119.313 L95.693,121.536 Z M139.15,145.755 L141.787,145.755 L114.638,76 L113.466,76 L113.466,79.287 L139.15,145.755 Z" stroke="none" transform="translate(0,200)" />
        <path id="Baseline-S" d="M18,146 l800,0" />
        <path id="left-margin-Ultralight-M" d="M233.182,256 l0,110" />
        <path id="right-margin-Ultralight-M" d="M296.818,256 l0,110" />
        <path id="left-margin-Regular-M" d="M433.182,256 l0,110" />
        <path id="right-margin-Regular-M" d="M496.818,256 l0,110" />
        <path id="left-margin-Black-M" d="M633.182,256 l0,110" />
        <path id="right-margin-Black-M" d="M696.818,256 l0,110" />
        <path id="Capline-M" d="M18,276 l800,0" />
        <path id="Baseline-M" d="M18,346 l800,0" />
        <path id="Capline-L" d="M18,476 l800,0" />
        <path id="Baseline-L" d="M18,546 l800,0" />
    </g>
    <g id="Symbols">
        <g id="Ultralight-M" transform="translate(0,200)">
            <path d="M236.364,111 L245.909,111 C246.753,111 247.562,111.335 248.159,111.932 C248.756,112.529 249.091,113.338 249.091,114.182 L249.091,123.727 C249.091,124.571 248.756,125.38 248.159,125.977 C247.562,126.574 246.753,126.909 245.909,126.909 L242.727,126.909 C241.883,126.909 241.074,126.574 240.477,125.977 C239.881,125.38 239.545,124.571 239.545,123.727 L239.545,107.818 L236.364,111 Z M236.364,104.636 C234.606,104.636 233.182,106.061 233.182,107.818 L233.182,123.727 C233.182,126.259 234.188,128.687 235.978,130.477 C237.768,132.267 240.196,133.273 242.727,133.273 L245.909,133.273 C248.441,133.273 250.869,132.267 252.659,130.477 C254.449,128.687 255.455,126.259 255.455,123.727 L255.455,114.182 C255.455,111.65 254.449,109.222 252.659,107.432 C250.869,105.642 248.441,104.636 245.909,104.636 L236.364,104.636 Z M239.545,107.818 C239.545,93.76 250.942,82.364 265,82.364 C279.058,82.364 290.455,93.76 290.455,107.818 C290.455,109.575 291.879,111 293.636,111 C295.394,111 296.818,109.575 296.818,107.818 C296.818,90.245 282.573,76 265,76 C247.427,76 233.182,90.245 233.182,107.818 C233.182,109.575 234.606,111 236.364,111 C238.121,111 239.545,109.575 239.545,107.818 Z M290.455,107.818 L290.455,123.727 C290.455,125.485 289.03,126.909 287.273,126.909 L284.091,126.909 C283.247,126.909 282.438,126.574 281.841,125.977 C281.244,125.38 280.909,124.571 280.909,123.727 L280.909,114.182 C280.909,113.338 281.244,112.529 281.841,111.932 C282.438,111.335 283.247,111 284.091,111 L293.636,111 L290.455,107.818 Z M296.818,107.818 C296.818,106.061 295.394,104.636 293.636,104.636 L284.091,104.636 C281.559,104.636 279.131,105.642 277.341,107.432 C275.551,109.222 274.545,111.65 274.545,114.182 L274.545,123.727 C274.545,126.259 275.551,128.687 277.341,130.477 C279.131,132.267 281.559,133.273 284.091,133.273 L287.273,133.273 C292.545,133.273 296.818,128.999 296.818,123.727 L296.818,107.818 Z" />
            <path d="M290.455,123.727 L290.455,130.091 C290.455,132.623 289.449,135.05 287.659,136.841 C285.869,138.631 283.441,139.636 280.909,139.636 L265,139.636 C263.243,139.636 261.818,141.061 261.818,142.818 C261.818,144.575 263.243,146 265,146 L280.909,146 C285.128,146 289.175,144.324 292.159,141.34 C295.142,138.357 296.818,134.31 296.818,130.091 L296.818,123.727 C296.818,121.97 295.394,120.545 293.636,120.545 C291.879,120.545 290.455,121.97 290.455,123.727 Z" />
        </g>
        <g id="Regular-M" transform="translate(0,200)">
            <path d="M436.364,111 L445.909,111 C446.753,111 447.562,111.335 448.159,111.932 C448.756,112.529 449.091,113.338 449.091,114.182 L449.091,123.727 C449.091,124.571 448.756,125.38 448.159,125.977 C447.562,126.574 446.753,126.909 445.909,126.909 L442.727,126.909 C441.883,126.909 441.074,126.574 440.477,125.977 C439.881,125.38 439.545,124.571 439.545,123.727 L439.545,107.818 L436.364,111 Z M436.364,104.636 C434.606,104.636 433.182,106.061 433.182,107.818 L433.182,123.727 C433.182,126.259 434.188,128.687 435.978,130.477 C437.768,132.267 440.196,133.273 442.727,133.273 L445.909,133.273 C448.441,133.273 450.869,132.267 452.659,130.477 C454.449,128.687 455.455,126.259 455.455,123.727 L455.455,114.182 C455.455,111.65 454.449,109.222 452.659,107.432 C450.869,105.642 448.441,104.636 445.909,104.636 L436.364,104.636 Z M439.545,107.818 C439.545,93.76 450.942,82.364 465,82.364 C479.058,82.364 490.455,93.76 490.455,107.818 C490.455,109.575 491.879,111 493.636,111 C495.394,111 496.818,109.575 496.818,107.818 C496.818,90.245 482.573,76 465,76 C447.427,76 433.182,90.245 433.182,107.818 C433.182,109.575 434.606,111 436.364,111 C438.121,111 439.545,109.575 439.545,107.818 Z M490.455,107.818 L490.455,123.727 C490.455,125.485 489.03,126.909 487.273,126.909 L484.091,126.909 C483.247,126.909 482.438,126.574 481.841,125.977 C481.244,125.38 480.909,124.571 480.909,123.727 L480.909,114.182 C480.909,113.338 481.244,112.529 481.841,111.932 C482.438,111.335 483.247,111 484.091,111 L493.636,111 L490.455,107.818 Z M496.818,107.818 C496.818,106.061 495.394,104.636 493.636,104.636 L484.091,104.636 C481.559,104.636 479.131,105.642 477.341,107.432 C475.551,109.222 474.545,111.65 474.545,114.182 L474.545,123.727 C474.545,126.259 475.551,128.687 477.341,130.477 C479.131,132.267 481.559,133.273 484.091,133.273 L487.273,133.273 C492.545,133.273 496.818,128.999 496.818,123.727 L496.818,107.818 Z" />
            <path d="M490.455,123.727 L490.455,130.091 C490.455,132.623 489.449,135.05 487.659,136.841 C485.869,138.631 483.441,139.636 480.909,139.636 L465,139.636 C463.243,139.636 461.818,141.061 461.818,142.818 C461.818,144.575 463.243,146 465,146 L480.909,146 C485.128,146 489.175,144.324 492.159,141.34 C495.142,138.357 496.818,134.31 496.818,130.091 L496.818,123.727 C496.818,121.97 495.394,120.545 493.636,120.545 C491.879,120.545 490.455,121.97 490.455,123.727 Z" />
        </g>
        <g id="Black-M" transform="translate(0,200)">
            <path d="M636.364,111 L645.909,111 C646.753,111 647.562,111.335 648.159,111.932 C648.756,112.529 649.091,113.338 649.091,114.182 L649.091,123.727 C649.091,124.571 648.756,125.38 648.159,125.977 C647.562,126.574 646.753,126.909 645.909,126.909 L642.727,126.909 C641.883,126.909 641.074,126.574 640.477,125.977 C639.881,125.38 639.545,124.571 639.545,123.727 L639.545,107.818 L636.364,111 Z M636.364,104.636 C634.606,104.636 633.182,106.061 633.182,107.818 L633.182,123.727 C633.182,126.259 634.188,128.687 635.978,130.477 C637.768,132.267 640.196,133.273 642.727,133.273 L645.909,133.273 C648.441,133.273 650.869,132.267 652.659,130.477 C654.449,128.687 655.455,126.259 655.455,123.727 L655.455,114.182 C655.455,111.65 654.449,109.222 652.659,107.432 C650.869,105.642 648.441,104.636 645.909,104.636 L636.364,104.636 Z M639.545,107.818 C639.545,93.76 650.942,82.364 665,82.364 C679.058,82.364 690.455,93.76 690.455,107.818 C690.455,109.575 691.879,111 693.636,111 C695.394,111 696.818,109.575 696.818,107.818 C696.818,90.245 682.573,76 665,76 C647.427,76 633.182,90.245 633.182,107.818 C633.182,109.575 634.606,111 636.364,111 C638.121,111 639.545,109.575 639.545,107.818 Z M690.455,107.818 L690.455,123.727 C690.455,125.485 689.03,126.909 687.273,126.909 L684.091,126.909 C683.247,126.909 682.438,126.574 681.841,125.977 C681.244,125.38 680.909,124.571 680.909,123.727 L680.909,114.182 C680.909,113.338 681.244,112.529 681.841,111.932 C682.438,111.335 683.247,111 684.091,111 L693.636,111 L690.455,107.818 Z M696.818,107.818 C696.818,106.061 695.394,104.636 693.636,104.636 L684.091,104.636 C681.559,104.636 679.131,105.642 677.341,107.432 C675.551,109.222 674.545,111.65 674.545,114.182 L674.545,123.727 C674.545,126.259 675.551,128.687 677.341,130.477 C679.131,132.267 681.559,133.273 684.091,133.273 L687.273,133.273 C692.545,133.273 696.818,128.999 696.818,123.727 L696.818,107.818 Z" />
            <path d="M690.455,123.727 L690.455,130.091 C690.455,132.623 689.449,135.05 687.659,136.841 C685.869,138.631 683.441,139.636 680.909,139.636 L665,139.636 C663.243,139.636 661.818,141.061 661.818,142.818 C661.818,144.575 663.243,146 665,146 L680.909,146 C685.128,146 689.175,144.324 692.159,141.34 C695.142,138.357 696.818,134.31 696.818,130.091 L696.818,123.727 C696.818,121.97 695.394,120.545 693.636,120.545 C691.879,120.545 690.455,121.97 690.455,123.727 Z" />
        </g>
    </g>
</svg>