<?xml version="1.0" encoding="UTF-8"?>
<svg height="600" width="800" xmlns="http://www.w3.org/2000/svg" xmlns:xlink="http://www.w3.org/1999/xlink">
    <g id="Notes" font-family="LucidaGrande, 'Lucida Grande', sans-serif" font-size="13">
        <rect fill="white" height="600.0" width="800.0" x="0.0" y="0.0" />
        <g font-size="13">
            <text x="18.0" y="176.0">Small</text>
            <text x="18.0" y="376.0">Medium</text>
            <text x="18.0" y="576.0">Large</text>
        </g>
        <g font-size="9">
            <text x="250.0" y="30.0">Ultralight</text>
            <text x="450.0" y="30.0">Regular</text>
            <text x="650.0" y="30.0">Black</text>
            <text id="template-version" fill="#505050" text-anchor="end" x="785.0" y="575.0">Template v.3.0</text>
            <a href="https://github.com/swhitty/SwiftDraw">
                <text fill="#505050" text-anchor="end" x="785.0" y="590.0">https://github.com/swhitty/SwiftDraw</text>
            </a>
        </g>
    </g>
    <g id="Guides" stroke="rgb(39, 170, 225)" stroke-width="0.5">
        <path id="Capline-S" d="M18,76 l800,0" />
        <path id="H-reference" d="M85,145.755 L87.685,145.755 L113.369,79.287 L114.052,79.287 L114.052,76 L112.148,76 L85,145.755 Z M95.693,121.536 L130.996,121.536 L130.263,119.313 L96.474,119.313 L95.693,121.536 Z M139.15,145.755 L141.787,145.755 L114.638,76 L113.466,76 L113.466,79.287 L139.15,145.755 Z" stroke="none" transform="translate(0,200)" />
        <path id="Baseline-S" d="M18,146 l800,0" />
        <path id="left-margin-Ultralight-M" d="M237.778,256 l0,110" />
        <path id="right-margin-Ultralight-M" d="M292.222,256 l0,110" />
        <path id="left-margin-Regular-M" d="M437.778,256 l0,110" />
        <path id="right-margin-Regular-M" d="M492.222,256 l0,110" />
        <path id="left-margin-Black-M" d="M637.778,256 l0,110" />
        <path id="right-margin-Black-M" d="M692.222,256 l0,110" />
        <path id="Capline-M" d="M18,276 l800,0" />
        <path id="Baseline-M" d="M18,346 l800,0" />
        <path id="Capline-L" d="M18,476 l800,0" />
        <path id="Baseline-L" d="M18,546 l800,0" />
    </g>
    <g id="Symbols">
        <g id="Ultralight-M" transform="translate(0,200)">
            <path d="M241.667,114.889 L288.333,114.889 C290.481,114.889 292.222,113.148 292.222,111 C292.222,108.852 290.481,107.111 288.333,107.111 L241.667,107.111 C239.519,107.111 237.778,108.852 237.778,111 C237.778,113.148 239.519,114.889 241.667,114.889 Z" />
            <path d="M245.556,142.111 L245.556,79.889 C245.556,77.741 243.814,76 241.667,76 C239.519,76 237.778,77.741 237.778,79.889 L237.778,142.111 C237.778,144.259 239.519,146 241.667,146 C243.814,146 245.556,144.259 245.556,142.111 Z" />
            <path d="M292.222,142.111 L292.222,79.889 C292.222,77.741 290.481,76 288.333,76 C286.186,76 284.444,77.741 284.444,79.889 L284.444,142.111 C284.444,144.259 286.186,146 288.333,146 C290.481,146 292.222,144.259 292.222,142.111 Z" />
        </g>
        <g id="Regular-M" transform="translate(0,200)">
            <path d="M441.667,114.889 L488.333,114.889 C490.481,114.889 492.222,113.148 492.222,111 C492.222,108.852 490.481,107.111 488.333,107.111 L441.667,107.111 C439.519,107.111 437.778,108.852 437.778,111 C437.778,113.148 439.519,114.889 441.667,114.889 Z" />
            <path d="M445.556,142.111 L445.556,79.889 C445.556,77.741 443.814,76 441.667,76 C439.519,76 437.778,77.741 437.778,79.889 L437.778,142.111 C437.778,144.259 439.519,146 441.667,146 C443.814,146 445.556,144.259 445.556,142.111 Z" />
            <path d="M492.222,142.111 L492.222,79.889 C492.222,77.741 490.481,76 488.333,76 C486.186,76 484.444,77.741 484.444,79.889 L484.444,142.111 C484.444,144.259 486.186,146 488.333,146 C490.481,146 492.222,144.259 492.222,142.111 Z" />
        </g>
        <g id="Black-M" transform="translate(0,200)">
            <path d="M641.667,114.889 L688.333,114.889 C690.481,114.889 692.222,113.148 692.222,111 C692.222,108.852 690.481,107.111 688.333,107.111 L641.667,107.111 C639.519,107.111 637.778,108.852 637.778,111 C637.778,113.148 639.519,114.889 641.667,114.889 Z" />
            <path d="M645.556,142.111 L645.556,79.889 C645.556,77.741 643.814,76 641.667,76 C639.519,76 637.778,77.741 637.778,79.889 L637.778,142.111 C637.778,144.259 639.519,146 641.667,146 C643.814,146 645.556,144.259 645.556,142.111 Z" />
            <path d="M692.222,142.111 L692.222,79.889 C692.222,77.741 690.481,76 688.333,76 C686.186,76 684.444,77.741 684.444,79.889 L684.444,142.111 C684.444,144.259 686.186,146 688.333,146 C690.481,146 692.222,144.259 692.222,142.111 Z" />
        </g>
    </g>
</svg>