<?xml version="1.0" encoding="UTF-8"?>
<svg height="600" width="800" xmlns="http://www.w3.org/2000/svg" xmlns:xlink="http://www.w3.org/1999/xlink">
    <g id="Notes" font-family="LucidaGrande, 'Lucida Grande', sans-serif" font-size="13">
        <rect fill="white" height="600.0" width="800.0" x="0.0" y="0.0" />
        <g font-size="13">
            <text x="18.0" y="176.0">Small</text>
            <text x="18.0" y="376.0">Medium</text>
            <text x="18.0" y="576.0">Large</text>
        </g>
        <g font-size="9">
            <text x="250.0" y="30.0">Ultralight</text>
            <text x="450.0" y="30.0">Regular</text>
            <text x="650.0" y="30.0">Black</text>
            <text id="template-version" fill="#505050" text-anchor="end" x="785.0" y="575.0">Template v.3.0</text>
            <a href="https://github.com/swhitty/SwiftDraw">
                <text fill="#505050" text-anchor="end" x="785.0" y="590.0">https://github.com/swhitty/SwiftDraw</text>
            </a>
        </g>
    </g>
    <g id="Guides" stroke="rgb(39, 170, 225)" stroke-width="0.5">
        <path id="Capline-S" d="M18,76 l800,0" />
        <path id="H-reference" d="M85,145.755 L87.685,145.755 L113.369,79.287 L114.052,79.287 L114.052,76 L112.148,76 L85,145.755 Z M95.693,121.536 L130.996,121.536 L130.263,119.313 L96.474,119.313 L95.693,121.536 Z M139.15,145.755 L141.787,145.755 L114.638,76 L113.466,76 L113.466,79.287 L139.15,145.755 Z" stroke="none" transform="translate(0,200)" />
        <path id="Baseline-S" d="M18,146 l800,0" />
        <path id="left-margin-Ultralight-M" d="M230,256 l0,110" />
        <path id="right-margin-Ultralight-M" d="M300,256 l0,110" />
        <path id="left-margin-Regular-M" d="M430,256 l0,110" />
        <path id="right-margin-Regular-M" d="M500,256 l0,110" />
        <path id="left-margin-Black-M" d="M630,256 l0,110" />
        <path id="right-margin-Black-M" d="M700,256 l0,110" />
        <path id="Capline-M" d="M18,276 l800,0" />
        <path id="Baseline-M" d="M18,346 l800,0" />
        <path id="Capline-L" d="M18,476 l800,0" />
        <path id="Baseline-L" d="M18,546 l800,0" />
    </g>
    <g id="Symbols">
        <g id="Ultralight-M" transform="translate(0,200)">
            <path d="M233.5,121.5 L244,121.5 C244.928,121.5 245.818,121.869 246.475,122.525 C247.131,123.182 247.5,124.072 247.5,125 L247.5,135.5 C247.5,136.428 247.131,137.318 246.475,137.975 C245.818,138.631 244.928,139 244,139 L240.5,139 C239.572,139 238.682,138.631 238.025,137.975 C237.369,137.318 237,136.428 237,135.5 L237,111 C237,95.536 249.536,83 265,83 C280.464,83 293,95.536 293,111 L293,135.5 C293,136.428 292.631,137.318 291.975,137.975 C291.318,138.631 290.428,139 289.5,139 L286,139 C285.072,139 284.182,138.631 283.525,137.975 C282.869,137.318 282.5,136.428 282.5,135.5 L282.5,125 C282.5,124.072 282.869,123.181 283.525,122.525 C284.182,121.869 285.072,121.5 286,121.5 L296.5,121.5 C298.433,121.5 300,119.933 300,118 C300,116.067 298.433,114.5 296.5,114.5 L286,114.5 C283.215,114.5 280.544,115.606 278.575,117.575 C276.606,119.544 275.5,122.215 275.5,125 L275.5,135.5 C275.5,138.285 276.606,140.955 278.575,142.925 C280.545,144.894 283.215,146 286,146 L289.5,146 C292.285,146 294.955,144.894 296.925,142.925 C298.894,140.955 300,138.285 300,135.5 L300,111 C300,91.67 284.33,76 265,76 C245.67,76 230,91.67 230,111 L230,135.5 C230,138.285 231.106,140.955 233.075,142.925 C235.045,144.894 237.715,146 240.5,146 L244,146 C246.785,146 249.455,144.894 251.425,142.925 C253.394,140.955 254.5,138.285 254.5,135.5 L254.5,125 C254.5,122.215 253.394,119.545 251.425,117.575 C249.455,115.606 246.785,114.5 244,114.5 L233.5,114.5 C231.567,114.5 230,116.067 230,118 C230,119.933 231.567,121.5 233.5,121.5 Z" />
        </g>
        <g id="Regular-M" transform="translate(0,200)">
            <path d="M433.5,121.5 L444,121.5 C444.928,121.5 445.818,121.869 446.475,122.525 C447.131,123.182 447.5,124.072 447.5,125 L447.5,135.5 C447.5,136.428 447.131,137.318 446.475,137.975 C445.818,138.631 444.928,139 444,139 L440.5,139 C439.572,139 438.682,138.631 438.025,137.975 C437.369,137.318 437,136.428 437,135.5 L437,111 C437,95.536 449.536,83 465,83 C480.464,83 493,95.536 493,111 L493,135.5 C493,136.428 492.631,137.318 491.975,137.975 C491.318,138.631 490.428,139 489.5,139 L486,139 C485.072,139 484.182,138.631 483.525,137.975 C482.869,137.318 482.5,136.428 482.5,135.5 L482.5,125 C482.5,124.072 482.869,123.181 483.525,122.525 C484.182,121.869 485.072,121.5 486,121.5 L496.5,121.5 C498.433,121.5 500,119.933 500,118 C500,116.067 498.433,114.5 496.5,114.5 L486,114.5 C483.215,114.5 480.544,115.606 478.575,117.575 C476.606,119.544 475.5,122.215 475.5,125 L475.5,135.5 C475.5,138.285 476.606,140.955 478.575,142.925 C480.545,144.894 483.215,146 486,146 L489.5,146 C492.285,146 494.955,144.894 496.925,142.925 C498.894,140.955 500,138.285 500,135.5 L500,111 C500,91.67 484.33,76 465,76 C445.67,76 430,91.67 430,111 L430,135.5 C430,138.285 431.106,140.955 433.075,142.925 C435.045,144.894 437.715,146 440.5,146 L444,146 C446.785,146 449.455,144.894 451.425,142.925 C453.394,140.955 454.5,138.285 454.5,135.5 L454.5,125 C454.5,122.215 453.394,119.545 451.425,117.575 C449.456,115.606 446.785,114.5 444,114.5 L433.5,114.5 C431.567,114.5 430,116.067 430,118 C430,119.933 431.567,121.5 433.5,121.5 Z" />
        </g>
        <g id="Black-M" transform="translate(0,200)">
            <path d="M633.5,121.5 L644,121.5 C644.928,121.5 645.818,121.869 646.475,122.525 C647.131,123.182 647.5,124.072 647.5,125 L647.5,135.5 C647.5,136.428 647.131,137.318 646.475,137.975 C645.818,138.631 644.928,139 644,139 L640.5,139 C639.572,139 638.682,138.631 638.025,137.975 C637.369,137.318 637,136.428 637,135.5 L637,111 C637,95.536 649.536,83 665,83 C680.464,83 693,95.536 693,111 L693,135.5 C693,136.428 692.631,137.318 691.975,137.975 C691.318,138.631 690.428,139 689.5,139 L686,139 C685.072,139 684.182,138.631 683.525,137.975 C682.869,137.318 682.5,136.428 682.5,135.5 L682.5,125 C682.5,124.072 682.869,123.181 683.525,122.525 C684.182,121.869 685.072,121.5 686,121.5 L696.5,121.5 C698.433,121.5 700,119.933 700,118 C700,116.067 698.433,114.5 696.5,114.5 L686,114.5 C683.215,114.5 680.544,115.606 678.575,117.575 C676.606,119.544 675.5,122.215 675.5,125 L675.5,135.5 C675.5,138.285 676.606,140.955 678.575,142.925 C680.544,144.894 683.215,146 686,146 L689.5,146 C692.285,146 694.956,144.894 696.925,142.925 C698.894,140.955 700,138.285 700,135.5 L700,111 C700,91.67 684.33,76 665,76 C645.67,76 630,91.67 630,111 L630,135.5 C630,138.285 631.106,140.955 633.075,142.925 C635.044,144.894 637.715,146 640.5,146 L644,146 C646.785,146 649.456,144.894 651.425,142.925 C653.394,140.955 654.5,138.285 654.5,135.5 L654.5,125 C654.5,122.215 653.394,119.545 651.425,117.575 C649.456,115.606 646.785,114.5 644,114.5 L633.5,114.5 C631.567,114.5 630,116.067 630,118 C630,119.933 631.567,121.5 633.5,121.5 Z" />
        </g>
    </g>
</svg>