<?xml version="1.0" encoding="UTF-8"?>
<svg height="600" width="800" xmlns="http://www.w3.org/2000/svg" xmlns:xlink="http://www.w3.org/1999/xlink">
    <g id="Notes" font-family="LucidaGrande, 'Lucida Grande', sans-serif" font-size="13">
        <rect fill="white" height="600.0" width="800.0" x="0.0" y="0.0" />
        <g font-size="13">
            <text x="18.0" y="176.0">Small</text>
            <text x="18.0" y="376.0">Medium</text>
            <text x="18.0" y="576.0">Large</text>
        </g>
        <g font-size="9">
            <text x="250.0" y="30.0">Ultralight</text>
            <text x="450.0" y="30.0">Regular</text>
            <text x="650.0" y="30.0">Black</text>
            <text id="template-version" fill="#505050" text-anchor="end" x="785.0" y="575.0">Template v.3.0</text>
            <a href="https://github.com/swhitty/SwiftDraw">
                <text fill="#505050" text-anchor="end" x="785.0" y="590.0">https://github.com/swhitty/SwiftDraw</text>
            </a>
        </g>
    </g>
    <g id="Guides" stroke="rgb(39, 170, 225)" stroke-width="0.5">
        <path id="Capline-S" d="M18,76 l800,0" />
        <path id="H-reference" d="M85,145.755 L87.685,145.755 L113.369,79.287 L114.052,79.287 L114.052,76 L112.148,76 L85,145.755 Z M95.693,121.536 L130.996,121.536 L130.263,119.313 L96.474,119.313 L95.693,121.536 Z M139.15,145.755 L141.787,145.755 L114.638,76 L113.466,76 L113.466,79.287 L139.15,145.755 Z" stroke="none" transform="translate(0,200)" />
        <path id="Baseline-S" d="M18,146 l800,0" />
        <path id="left-margin-Ultralight-M" d="M224.474,256 l0,110" />
        <path id="right-margin-Ultralight-M" d="M305.526,256 l0,110" />
        <path id="left-margin-Regular-M" d="M424.474,256 l0,110" />
        <path id="right-margin-Regular-M" d="M505.526,256 l0,110" />
        <path id="left-margin-Black-M" d="M624.474,256 l0,110" />
        <path id="right-margin-Black-M" d="M705.526,256 l0,110" />
        <path id="Capline-M" d="M18,276 l800,0" />
        <path id="Baseline-M" d="M18,346 l800,0" />
        <path id="Capline-L" d="M18,476 l800,0" />
        <path id="Baseline-L" d="M18,546 l800,0" />
    </g>
    <g id="Symbols">
        <g id="Ultralight-M" transform="translate(0,200)">
            <path d="M294.92,120.657 C302.414,113.163 305.526,107.745 305.526,99.948 C305.526,90.029 299.412,81.137 290.15,77.587 C280.888,74.037 270.396,76.564 263.767,83.942 C264.558,83.184 265.435,83.183 266.002,83.709 C259.605,76.568 249.114,74.041 239.852,77.589 C230.591,81.138 224.475,90.029 224.474,99.947 C224.474,108.394 228.29,114.501 236.605,122.816 L257.039,142.611 C258.949,144.672 261.798,145.944 264.799,145.998 C267.799,146.052 270.693,144.884 272.815,142.762 C274.972,140.601 276.181,137.674 276.177,134.623 C276.173,131.572 274.956,128.647 272.795,126.494 C269.404,123.117 264.252,128.026 267.462,131.575 C270.313,134.728 274.668,136.053 278.791,135.021 C282.914,133.99 286.133,130.771 287.165,126.648 C288.196,122.525 286.871,118.17 283.718,115.319 C280.165,112.106 275.255,117.269 278.642,120.657 C280.801,122.815 283.728,124.028 286.781,124.028 C289.834,124.028 292.762,122.815 294.92,120.657 C299.235,116.34 299.235,109.344 294.92,105.028 L287.991,98.095 C285.634,95.737 282.438,94.413 279.105,94.413 C275.772,94.413 272.576,95.737 270.22,98.095 L263.92,104.394 C262.482,105.832 260.15,105.832 258.711,104.394 C257.274,102.956 257.274,100.624 258.712,99.185 L269.083,89.038 C270.538,87.615 270.563,85.283 269.14,83.828 C267.717,82.374 265.385,82.348 263.93,83.771 L253.53,93.947 C249.186,98.292 249.186,105.288 253.501,109.604 C257.818,113.919 264.814,113.919 269.13,109.605 L275.43,103.304 C276.405,102.329 277.727,101.782 279.105,101.782 C280.483,101.782 281.805,102.329 282.779,103.304 L289.709,110.237 C291.147,111.676 291.147,114.008 289.709,115.447 C288.933,116.224 287.879,116.66 286.781,116.66 C285.683,116.66 284.629,116.224 283.853,115.447 L281.247,118.052 L278.776,120.784 C279.911,121.81 280.387,123.377 280.016,124.861 C279.645,126.344 278.487,127.502 277.004,127.873 C275.52,128.244 273.953,127.767 272.927,126.633 L270.195,129.104 L267.595,131.715 C268.371,132.487 268.808,133.537 268.809,134.632 C268.81,135.728 268.376,136.779 267.602,137.554 C266.897,138.26 265.932,138.649 264.932,138.631 C263.932,138.613 262.982,138.189 262.301,137.456 L241.774,117.565 C234.78,110.57 231.842,105.869 231.842,99.948 C231.843,93.082 236.077,86.927 242.489,84.47 C248.901,82.013 256.164,83.763 260.753,88.87 C263.252,91.213 266.761,91.209 269.022,89.097 C273.837,83.759 281.101,82.01 287.513,84.467 C293.925,86.925 298.158,93.081 298.158,99.948 C298.158,105.366 295.954,109.202 289.71,115.447 C288.271,116.885 288.271,119.218 289.71,120.657 C291.148,122.096 293.481,122.096 294.92,120.657 Z" />
        </g>
        <g id="Regular-M" transform="translate(0,200)">
            <path d="M494.92,120.657 C502.414,113.163 505.526,107.745 505.526,99.948 C505.526,90.029 499.412,81.137 490.15,77.587 C480.888,74.037 470.396,76.564 463.767,83.942 C464.558,83.184 465.435,83.183 466.002,83.709 C459.605,76.568 449.114,74.041 439.852,77.589 C430.591,81.138 424.475,90.029 424.474,99.947 C424.474,108.394 428.29,114.501 436.605,122.816 L457.039,142.611 C458.949,144.672 461.798,145.944 464.799,145.998 C467.799,146.052 470.693,144.884 472.815,142.762 C474.972,140.601 476.181,137.674 476.177,134.623 C476.173,131.572 474.956,128.647 472.795,126.494 C469.404,123.117 464.252,128.026 467.462,131.575 C470.313,134.728 474.668,136.053 478.791,135.021 C482.914,133.99 486.133,130.771 487.165,126.648 C488.196,122.525 486.871,118.17 483.718,115.319 C480.165,112.106 475.255,117.269 478.642,120.657 C480.801,122.815 483.728,124.028 486.781,124.028 C489.834,124.028 492.762,122.815 494.92,120.657 C499.235,116.34 499.235,109.344 494.92,105.028 L487.991,98.095 C485.634,95.737 482.438,94.413 479.105,94.413 C475.772,94.413 472.576,95.737 470.22,98.095 L463.92,104.394 C462.482,105.832 460.15,105.832 458.711,104.394 C457.274,102.956 457.274,100.624 458.712,99.185 L469.083,89.038 C470.538,87.615 470.563,85.283 469.14,83.828 C467.717,82.374 465.385,82.348 463.93,83.771 L453.53,93.947 C449.186,98.292 449.186,105.288 453.501,109.604 C457.818,113.919 464.814,113.919 469.13,109.605 L475.43,103.304 C476.405,102.329 477.727,101.782 479.105,101.782 C480.483,101.782 481.805,102.329 482.779,103.304 L489.709,110.237 C491.147,111.676 491.147,114.008 489.709,115.447 C488.933,116.224 487.879,116.66 486.781,116.66 C485.683,116.66 484.629,116.224 483.853,115.447 L481.247,118.052 L478.776,120.784 C479.911,121.81 480.387,123.377 480.016,124.861 C479.645,126.344 478.487,127.502 477.004,127.873 C475.52,128.244 473.953,127.767 472.927,126.633 L470.195,129.104 L467.595,131.715 C468.371,132.487 468.808,133.537 468.809,134.632 C468.81,135.728 468.376,136.779 467.603,137.554 C466.897,138.26 465.932,138.649 464.932,138.631 C463.932,138.613 462.982,138.189 462.301,137.456 L441.774,117.565 C434.78,110.57 431.842,105.869 431.842,99.948 C431.843,93.082 436.077,86.927 442.489,84.47 C448.901,82.013 456.164,83.763 460.753,88.87 C463.252,91.213 466.761,91.209 469.022,89.097 C473.837,83.759 481.101,82.01 487.513,84.467 C493.925,86.925 498.158,93.081 498.158,99.948 C498.158,105.366 495.954,109.202 489.71,115.447 C488.271,116.885 488.271,119.218 489.71,120.657 C491.148,122.096 493.481,122.096 494.92,120.657 Z" />
        </g>
        <g id="Black-M" transform="translate(0,200)">
            <path d="M694.92,120.657 C702.414,113.163 705.526,107.745 705.526,99.948 C705.526,90.029 699.412,81.137 690.15,77.587 C680.888,74.037 670.396,76.564 663.767,83.942 C664.558,83.184 665.435,83.183 666.002,83.709 C659.605,76.568 649.114,74.041 639.852,77.589 C630.591,81.138 624.475,90.029 624.474,99.947 C624.474,108.394 628.29,114.501 636.605,122.816 L657.039,142.611 C658.949,144.672 661.798,145.944 664.799,145.998 C667.799,146.052 670.693,144.884 672.815,142.762 C674.972,140.601 676.182,137.674 676.177,134.623 C676.173,131.572 674.956,128.647 672.795,126.494 C669.404,123.117 664.252,128.026 667.462,131.575 C670.313,134.728 674.668,136.053 678.791,135.021 C682.914,133.99 686.133,130.771 687.165,126.648 C688.196,122.525 686.871,118.17 683.718,115.319 C680.165,112.106 675.255,117.269 678.642,120.657 C680.801,122.815 683.728,124.028 686.781,124.028 C689.834,124.028 692.762,122.815 694.92,120.657 C699.235,116.34 699.235,109.344 694.92,105.028 L687.991,98.095 C685.634,95.737 682.438,94.413 679.105,94.413 C675.772,94.413 672.576,95.737 670.22,98.095 L663.92,104.394 C662.482,105.832 660.15,105.832 658.711,104.394 C657.274,102.956 657.274,100.624 658.712,99.185 L669.083,89.038 C670.538,87.615 670.563,85.283 669.14,83.828 C667.717,82.374 665.385,82.348 663.93,83.771 L653.53,93.947 C649.186,98.292 649.186,105.288 653.501,109.604 C657.818,113.919 664.814,113.919 669.13,109.605 L675.43,103.304 C676.405,102.329 677.727,101.782 679.105,101.782 C680.483,101.782 681.805,102.329 682.779,103.304 L689.709,110.237 C691.147,111.676 691.147,114.008 689.709,115.447 C688.933,116.224 687.879,116.66 686.781,116.66 C685.683,116.66 684.629,116.224 683.853,115.447 L681.247,118.052 L678.776,120.784 C679.911,121.81 680.387,123.377 680.016,124.861 C679.645,126.344 678.487,127.502 677.004,127.873 C675.52,128.244 673.953,127.767 672.927,126.633 L670.195,129.104 L667.595,131.715 C668.371,132.487 668.808,133.537 668.809,134.632 C668.81,135.728 668.376,136.779 667.602,137.554 C666.897,138.26 665.932,138.649 664.932,138.631 C663.932,138.613 662.982,138.189 662.301,137.456 L641.774,117.565 C634.78,110.57 631.842,105.869 631.842,99.948 C631.843,93.082 636.077,86.927 642.489,84.47 C648.901,82.013 656.164,83.763 660.753,88.87 C663.252,91.213 666.761,91.209 669.022,89.097 C673.837,83.759 681.101,82.01 687.513,84.467 C693.925,86.925 698.158,93.081 698.158,99.948 C698.158,105.366 695.954,109.202 689.71,115.447 C688.271,116.885 688.271,119.218 689.71,120.657 C691.148,122.096 693.481,122.096 694.92,120.657 Z" />
        </g>
    </g>
</svg>