<?xml version="1.0" encoding="UTF-8"?>
<svg height="600" width="800" xmlns="http://www.w3.org/2000/svg" xmlns:xlink="http://www.w3.org/1999/xlink">
    <g id="Notes" font-family="LucidaGrande, 'Lucida Grande', sans-serif" font-size="13">
        <rect fill="white" height="600.0" width="800.0" x="0.0" y="0.0" />
        <g font-size="13">
            <text x="18.0" y="176.0">Small</text>
            <text x="18.0" y="376.0">Medium</text>
            <text x="18.0" y="576.0">Large</text>
        </g>
        <g font-size="9">
            <text x="250.0" y="30.0">Ultralight</text>
            <text x="450.0" y="30.0">Regular</text>
            <text x="650.0" y="30.0">Black</text>
            <text id="template-version" fill="#505050" text-anchor="end" x="785.0" y="575.0">Template v.3.0</text>
            <a href="https://github.com/swhitty/SwiftDraw">
                <text fill="#505050" text-anchor="end" x="785.0" y="590.0">https://github.com/swhitty/SwiftDraw</text>
            </a>
        </g>
    </g>
    <g id="Guides" stroke="rgb(39, 170, 225)" stroke-width="0.5">
        <path id="Capline-S" d="M18,76 l800,0" />
        <path id="H-reference" d="M85,145.755 L87.685,145.755 L113.369,79.287 L114.052,79.287 L114.052,76 L112.148,76 L85,145.755 Z M95.693,121.536 L130.996,121.536 L130.263,119.313 L96.474,119.313 L95.693,121.536 Z M139.15,145.755 L141.787,145.755 L114.638,76 L113.466,76 L113.466,79.287 L139.15,145.755 Z" stroke="none" transform="translate(0,200)" />
        <path id="Baseline-S" d="M18,146 l800,0" />
        <path id="left-margin-Ultralight-M" d="M224.474,256 l0,110" />
        <path id="right-margin-Ultralight-M" d="M305.526,256 l0,110" />
        <path id="left-margin-Regular-M" d="M424.474,256 l0,110" />
        <path id="right-margin-Regular-M" d="M505.526,256 l0,110" />
        <path id="left-margin-Black-M" d="M624.474,256 l0,110" />
        <path id="right-margin-Black-M" d="M705.526,256 l0,110" />
        <path id="Capline-M" d="M18,276 l800,0" />
        <path id="Baseline-M" d="M18,346 l800,0" />
        <path id="Capline-L" d="M18,476 l800,0" />
        <path id="Baseline-L" d="M18,546 l800,0" />
    </g>
    <g id="Symbols">
        <g id="Ultralight-M" transform="translate(0,200)">
            <path d="M273.034,132.275 L267.994,137.145 C267.083,138.171 266.079,138.631 265.022,138.638 C263.964,138.644 262.955,138.197 262.251,137.409 L241.773,117.589 C234.78,110.601 231.842,105.904 231.842,99.987 C231.842,93.127 236.075,86.976 242.487,84.52 C248.899,82.065 256.163,83.813 260.752,88.916 C261.889,90.131 263.409,90.79 265,90.79 C266.591,90.79 268.11,90.131 269.197,88.97 C273.833,83.767 281.111,81.997 287.536,84.457 C293.961,86.918 298.191,93.095 298.158,99.97 C298.157,101.574 297.912,103.151 297.431,104.662 C296.814,106.6 297.887,108.67 299.826,109.286 C301.765,109.901 303.837,108.83 304.453,106.892 C305.163,104.661 305.525,102.334 305.526,99.99 C305.574,90.068 299.46,81.139 290.173,77.583 C280.887,74.026 270.366,76.585 263.754,84.008 C264.122,83.614 264.551,83.428 265,83.428 C265.448,83.428 265.877,83.614 266.184,83.941 C259.603,76.624 249.112,74.099 239.85,77.646 C230.588,81.193 224.474,90.077 224.474,99.987 C224.474,108.427 228.29,114.528 236.605,122.836 L256.941,142.506 C258.868,144.677 261.896,146.02 265.068,146 C268.241,145.98 271.251,144.599 273.334,142.208 L278.157,137.567 C279.619,136.154 279.658,133.823 278.244,132.362 C276.829,130.901 274.497,130.862 273.034,132.275 Z" />
            <path d="M276.052,123.915 L298.158,123.915 C300.192,123.915 301.842,122.266 301.842,120.233 C301.842,118.2 300.192,116.552 298.158,116.552 L276.052,116.552 C274.018,116.552 272.368,118.2 272.368,120.233 C272.368,122.266 274.018,123.915 276.052,123.915 Z" />
        </g>
        <g id="Regular-M" transform="translate(0,200)">
            <path d="M473.034,132.275 L467.994,137.145 C467.083,138.171 466.079,138.631 465.022,138.638 C463.964,138.644 462.955,138.197 462.251,137.409 L441.773,117.589 C434.78,110.601 431.842,105.904 431.842,99.987 C431.842,93.127 436.075,86.976 442.487,84.52 C448.899,82.065 456.163,83.813 460.752,88.916 C461.889,90.131 463.409,90.79 465,90.79 C466.591,90.79 468.11,90.131 469.197,88.97 C473.833,83.767 481.111,81.997 487.536,84.457 C493.961,86.918 498.191,93.095 498.158,99.97 C498.157,101.574 497.912,103.151 497.431,104.662 C496.814,106.6 497.887,108.67 499.826,109.286 C501.765,109.901 503.837,108.83 504.453,106.892 C505.163,104.661 505.525,102.334 505.526,99.99 C505.574,90.068 499.46,81.139 490.173,77.583 C480.887,74.026 470.366,76.585 463.754,84.008 C464.122,83.614 464.551,83.428 465,83.428 C465.448,83.428 465.877,83.614 466.184,83.941 C459.603,76.624 449.112,74.099 439.85,77.646 C430.588,81.193 424.474,90.077 424.474,99.987 C424.474,108.427 428.29,114.528 436.605,122.836 L456.941,142.506 C458.869,144.677 461.896,146.02 465.069,146 C468.241,145.98 471.251,144.599 473.334,142.208 L478.157,137.567 C479.619,136.154 479.658,133.823 478.244,132.362 C476.829,130.901 474.497,130.862 473.034,132.275 Z" />
            <path d="M476.052,123.915 L498.158,123.915 C500.192,123.915 501.842,122.266 501.842,120.233 C501.842,118.2 500.192,116.552 498.158,116.552 L476.052,116.552 C474.018,116.552 472.368,118.2 472.368,120.233 C472.368,122.266 474.018,123.915 476.052,123.915 Z" />
        </g>
        <g id="Black-M" transform="translate(0,200)">
            <path d="M673.034,132.275 L667.994,137.145 C667.083,138.171 666.079,138.631 665.022,138.638 C663.964,138.644 662.955,138.197 662.251,137.409 L641.773,117.589 C634.78,110.601 631.842,105.904 631.842,99.987 C631.842,93.127 636.075,86.976 642.487,84.52 C648.899,82.065 656.163,83.813 660.753,88.916 C661.889,90.131 663.409,90.79 665,90.79 C666.591,90.79 668.11,90.131 669.197,88.97 C673.833,83.767 681.111,81.997 687.536,84.457 C693.961,86.918 698.191,93.095 698.158,99.97 C698.157,101.574 697.912,103.151 697.431,104.662 C696.814,106.6 697.887,108.67 699.826,109.286 C701.765,109.901 703.837,108.83 704.453,106.892 C705.163,104.661 705.525,102.334 705.526,99.99 C705.574,90.068 699.46,81.139 690.173,77.583 C680.887,74.026 670.366,76.585 663.754,84.008 C664.122,83.614 664.551,83.428 665,83.428 C665.448,83.428 665.877,83.614 666.184,83.941 C659.603,76.624 649.112,74.099 639.85,77.646 C630.588,81.193 624.474,90.077 624.474,99.987 C624.474,108.427 628.29,114.528 636.605,122.836 L656.941,142.506 C658.869,144.677 661.896,146.02 665.068,146 C668.241,145.98 671.251,144.599 673.334,142.208 L678.157,137.567 C679.62,136.154 679.659,133.823 678.244,132.362 C676.829,130.901 674.497,130.862 673.034,132.275 Z" />
            <path d="M676.052,123.915 L698.158,123.915 C700.192,123.915 701.842,122.266 701.842,120.233 C701.842,118.2 700.192,116.552 698.158,116.552 L676.052,116.552 C674.018,116.552 672.368,118.2 672.368,120.233 C672.368,122.266 674.018,123.915 676.052,123.915 Z" />
        </g>
    </g>
</svg>