<?xml version="1.0" encoding="UTF-8"?>
<svg height="600" width="800" xmlns="http://www.w3.org/2000/svg" xmlns:xlink="http://www.w3.org/1999/xlink">
    <g id="Notes" font-family="LucidaGrande, 'Lucida Grande', sans-serif" font-size="13">
        <rect fill="white" height="600.0" width="800.0" x="0.0" y="0.0" />
        <g font-size="13">
            <text x="18.0" y="176.0">Small</text>
            <text x="18.0" y="376.0">Medium</text>
            <text x="18.0" y="576.0">Large</text>
        </g>
        <g font-size="9">
            <text x="250.0" y="30.0">Ultralight</text>
            <text x="450.0" y="30.0">Regular</text>
            <text x="650.0" y="30.0">Black</text>
            <text id="template-version" fill="#505050" text-anchor="end" x="785.0" y="575.0">Template v.3.0</text>
            <a href="https://github.com/swhitty/SwiftDraw">
                <text fill="#505050" text-anchor="end" x="785.0" y="590.0">https://github.com/swhitty/SwiftDraw</text>
            </a>
        </g>
    </g>
    <g id="Guides" stroke="rgb(39, 170, 225)" stroke-width="0.5">
        <path id="Capline-S" d="M18,76 l800,0" />
        <path id="H-reference" d="M85,145.755 L87.685,145.755 L113.369,79.287 L114.052,79.287 L114.052,76 L112.148,76 L85,145.755 Z M95.693,121.536 L130.996,121.536 L130.263,119.313 L96.474,119.313 L95.693,121.536 Z M139.15,145.755 L141.787,145.755 L114.638,76 L113.466,76 L113.466,79.287 L139.15,145.755 Z" stroke="none" transform="translate(0,200)" />
        <path id="Baseline-S" d="M18,146 l800,0" />
        <path id="left-margin-Ultralight-M" d="M230,256 l0,110" />
        <path id="right-margin-Ultralight-M" d="M300,256 l0,110" />
        <path id="left-margin-Regular-M" d="M430,256 l0,110" />
        <path id="right-margin-Regular-M" d="M500,256 l0,110" />
        <path id="left-margin-Black-M" d="M630,256 l0,110" />
        <path id="right-margin-Black-M" d="M700,256 l0,110" />
        <path id="Capline-M" d="M18,276 l800,0" />
        <path id="Baseline-M" d="M18,346 l800,0" />
        <path id="Capline-L" d="M18,476 l800,0" />
        <path id="Baseline-L" d="M18,546 l800,0" />
    </g>
    <g id="Symbols">
        <g id="Ultralight-M" transform="translate(0,200)">
            <path d="M260.218,127.196 C265.065,128.916 271.228,129.782 277.651,130.085 C281.277,130.283 284.277,127.284 284.078,123.636 C283.782,117.371 282.889,111.073 281.192,106.243 C280.609,104.582 278.789,103.709 277.127,104.292 C275.466,104.875 274.592,106.695 275.175,108.355 C276.621,112.47 277.439,118.239 277.709,123.96 C277.703,123.841 277.833,123.711 277.975,123.719 C272.106,123.441 266.468,122.649 262.352,121.188 C260.692,120.599 258.869,121.467 258.28,123.126 C257.691,124.784 258.559,126.607 260.218,127.196 Z" />
            <path d="M263.453,96.717 C270.205,96.717 280.788,95.194 286.041,93.075 C290.031,91.542 290.451,86.529 287.243,83.919 C273.299,72.546 253.001,73.572 240.273,86.295 C227.545,99.019 226.518,119.309 237.898,133.251 C240.5,136.447 245.446,136.031 247.055,132.047 C249.175,126.796 250.699,116.216 250.699,109.467 L246.495,112.488 C252.729,114.581 258.115,115.448 263.566,114.591 C266.158,114.172 268.17,112.134 268.552,109.55 C269.437,103.24 268.798,99.482 266.478,92.522 C265.921,90.852 264.115,89.95 262.445,90.506 C260.774,91.063 259.871,92.868 260.428,94.538 C262.465,100.645 262.956,103.538 262.24,108.642 C262.268,108.453 262.397,108.323 262.561,108.296 C258.34,108.96 253.874,108.241 248.526,106.445 C246.46,105.752 244.322,107.288 244.322,109.467 C244.322,115.469 242.908,125.286 241.142,129.661 C241.441,128.92 242.52,128.83 242.841,129.224 C233.528,117.814 234.368,101.213 244.782,90.803 C255.196,80.393 271.803,79.553 283.215,88.86 C282.817,88.537 282.908,87.451 283.703,87.145 C279.278,88.929 269.458,90.343 263.453,90.343 C261.692,90.343 260.264,91.77 260.264,93.53 C260.264,95.29 261.692,96.717 263.453,96.717 Z" />
            <path d="M273.486,127.567 C274.64,132.47 275.279,136.766 275.005,140.228 C275.02,140.031 275.122,139.841 275.286,139.714 C275.449,139.587 275.658,139.535 275.862,139.57 C271.688,138.758 267.578,137.388 263.696,135.507 C262.111,134.74 260.204,135.401 259.436,136.985 C258.668,138.569 259.33,140.476 260.914,141.244 C265.293,143.365 269.929,144.91 274.705,145.839 C276.334,146.123 277.945,145.722 279.201,144.746 C280.457,143.769 281.242,142.308 281.363,140.722 C281.704,136.409 280.993,131.629 279.693,126.107 C279.29,124.394 277.573,123.332 275.859,123.735 C274.145,124.138 273.083,125.854 273.486,127.567 Z" />
            <path d="M277.078,142.883 C281.84,144.7 287.624,145.639 293.556,145.988 C295.272,146.107 296.987,145.465 298.226,144.226 C299.465,142.988 300.107,141.273 299.986,139.526 C299.754,134.03 298.734,128.509 296.958,123.211 C296.399,121.542 294.592,120.642 292.922,121.202 C291.252,121.761 290.352,123.567 290.912,125.236 C292.497,129.967 293.408,134.896 293.619,139.881 C293.617,139.874 293.651,139.784 293.716,139.719 C293.782,139.654 293.872,139.62 293.964,139.626 C288.593,139.31 283.378,138.464 279.353,136.928 C277.708,136.3 275.865,137.124 275.237,138.768 C274.609,140.413 275.433,142.255 277.078,142.883 Z" />
            <path d="M280.076,125.703 C285.715,127.014 290.41,127.71 294.728,127.369 C296.306,127.249 297.768,126.464 298.745,125.208 C299.722,123.953 300.123,122.343 299.85,120.776 C298.909,115.94 297.364,111.306 295.242,106.929 C294.474,105.345 292.567,104.683 290.982,105.451 C289.397,106.219 288.735,108.125 289.503,109.709 C291.385,113.59 292.755,117.699 293.579,121.932 C293.532,121.667 293.585,121.458 293.711,121.295 C293.838,121.132 294.028,121.03 294.235,121.014 C290.766,121.288 286.54,120.661 281.521,119.494 C279.805,119.095 278.092,120.162 277.693,121.876 C277.294,123.591 278.361,125.304 280.076,125.703 Z" />
            <path d="M281.798,92.563 C285.575,96.672 288.79,101.263 291.36,106.217 C291.201,105.879 291.214,105.657 291.322,105.477 C291.43,105.297 291.62,105.182 291.83,105.17 C284.679,105.782 275.689,104.111 266.89,100.409 C265.267,99.726 263.397,100.488 262.714,102.111 C262.031,103.733 262.793,105.602 264.416,106.285 C274.119,110.367 284.128,112.227 292.295,111.527 C294.101,111.419 295.811,110.383 296.786,108.764 C297.761,107.145 297.875,105.149 297.092,103.429 C294.191,97.829 290.652,92.774 286.494,88.25 C285.303,86.954 283.286,86.869 281.989,88.059 C280.692,89.25 280.607,91.267 281.798,92.563 Z" />
            <path d="M244.759,86.272 L238.605,80.121 C238.766,80.278 238.869,80.524 238.869,80.781 C238.869,81.038 238.766,81.284 238.582,81.464 C239.84,80.232 239.861,78.214 238.628,76.957 C237.396,75.699 235.377,75.679 234.119,76.911 C233.079,77.93 232.492,79.325 232.492,80.781 C232.492,82.237 233.079,83.632 234.119,84.651 L240.25,90.78 C241.495,92.025 243.514,92.025 244.759,90.78 C246.004,89.535 246.004,87.517 244.759,86.272 Z" />
            <path d="M254.387,112.859 C258.084,121.74 259.763,130.73 259.16,137.752 C259.167,137.624 259.282,137.434 259.462,137.325 C259.642,137.217 259.864,137.204 260.055,137.291 C255.247,134.794 250.654,131.58 246.543,127.805 C245.246,126.614 243.229,126.7 242.038,127.996 C240.846,129.292 240.932,131.309 242.229,132.499 C246.754,136.655 251.811,140.194 257.266,143.022 C259.134,143.876 261.13,143.762 262.75,142.787 C264.37,141.813 265.406,140.103 265.52,138.217 C266.211,130.181 264.344,120.185 260.275,110.41 C259.598,108.784 257.732,108.015 256.106,108.691 C254.48,109.368 253.711,111.233 254.387,112.859 Z" />
        </g>
        <g id="Regular-M" transform="translate(0,200)">
            <path d="M460.218,127.196 C465.065,128.916 471.228,129.782 477.651,130.085 C481.277,130.283 484.277,127.284 484.078,123.636 C483.782,117.371 482.889,111.073 481.192,106.243 C480.609,104.582 478.789,103.709 477.127,104.292 C475.466,104.875 474.592,106.695 475.175,108.355 C476.621,112.47 477.439,118.239 477.709,123.96 C477.703,123.841 477.833,123.711 477.975,123.719 C472.106,123.441 466.468,122.649 462.352,121.188 C460.692,120.599 458.869,121.467 458.28,123.126 C457.691,124.784 458.559,126.607 460.218,127.196 Z" />
            <path d="M463.453,96.717 C470.205,96.717 480.788,95.194 486.041,93.075 C490.031,91.542 490.451,86.529 487.243,83.919 C473.299,72.546 453.001,73.572 440.273,86.295 C427.545,99.019 426.518,119.309 437.898,133.251 C440.5,136.447 445.446,136.031 447.055,132.047 C449.175,126.796 450.699,116.216 450.699,109.467 L446.495,112.488 C452.729,114.581 458.115,115.448 463.566,114.591 C466.158,114.172 468.17,112.134 468.552,109.55 C469.437,103.24 468.798,99.482 466.478,92.522 C465.921,90.852 464.115,89.95 462.445,90.506 C460.774,91.063 459.871,92.868 460.428,94.538 C462.465,100.645 462.956,103.538 462.24,108.642 C462.268,108.453 462.397,108.323 462.561,108.296 C458.34,108.96 453.874,108.241 448.526,106.445 C446.46,105.752 444.322,107.288 444.322,109.467 C444.322,115.469 442.908,125.286 441.142,129.661 C441.441,128.92 442.52,128.83 442.841,129.224 C433.528,117.814 434.368,101.213 444.782,90.803 C455.196,80.393 471.803,79.553 483.215,88.86 C482.817,88.537 482.908,87.451 483.703,87.145 C479.278,88.929 469.458,90.343 463.453,90.343 C461.692,90.343 460.264,91.77 460.264,93.53 C460.264,95.29 461.692,96.717 463.453,96.717 Z" />
            <path d="M473.486,127.567 C474.64,132.47 475.279,136.766 475.005,140.228 C475.02,140.031 475.122,139.841 475.286,139.714 C475.449,139.587 475.658,139.535 475.862,139.57 C471.688,138.758 467.578,137.388 463.696,135.507 C462.111,134.74 460.204,135.401 459.436,136.985 C458.668,138.569 459.33,140.476 460.914,141.244 C465.293,143.365 469.929,144.91 474.705,145.839 C476.334,146.123 477.945,145.722 479.201,144.746 C480.457,143.769 481.242,142.308 481.363,140.722 C481.704,136.409 480.993,131.629 479.693,126.107 C479.29,124.394 477.573,123.332 475.859,123.735 C474.145,124.138 473.083,125.854 473.486,127.567 Z" />
            <path d="M477.078,142.883 C481.84,144.7 487.624,145.639 493.556,145.988 C495.272,146.107 496.987,145.465 498.226,144.226 C499.465,142.988 500.107,141.273 499.986,139.526 C499.754,134.03 498.734,128.509 496.958,123.211 C496.399,121.542 494.592,120.642 492.922,121.202 C491.252,121.761 490.352,123.567 490.912,125.236 C492.497,129.967 493.408,134.896 493.619,139.881 C493.617,139.874 493.651,139.784 493.716,139.719 C493.782,139.654 493.872,139.62 493.964,139.626 C488.593,139.31 483.378,138.464 479.353,136.928 C477.708,136.3 475.865,137.124 475.237,138.768 C474.609,140.413 475.433,142.255 477.078,142.883 Z" />
            <path d="M480.076,125.703 C485.715,127.014 490.41,127.71 494.728,127.369 C496.306,127.249 497.768,126.464 498.745,125.208 C499.722,123.953 500.123,122.343 499.85,120.776 C498.909,115.94 497.364,111.306 495.242,106.929 C494.474,105.345 492.567,104.683 490.982,105.451 C489.397,106.219 488.735,108.125 489.503,109.709 C491.385,113.59 492.755,117.699 493.579,121.932 C493.532,121.667 493.585,121.458 493.711,121.295 C493.838,121.132 494.028,121.03 494.235,121.014 C490.766,121.288 486.54,120.661 481.521,119.494 C479.805,119.095 478.092,120.162 477.693,121.876 C477.294,123.591 478.361,125.304 480.076,125.703 Z" />
            <path d="M481.798,92.563 C485.575,96.672 488.79,101.263 491.36,106.217 C491.201,105.879 491.214,105.657 491.322,105.477 C491.43,105.297 491.62,105.182 491.83,105.17 C484.679,105.782 475.689,104.111 466.89,100.409 C465.267,99.726 463.397,100.488 462.714,102.111 C462.031,103.733 462.793,105.602 464.416,106.285 C474.119,110.367 484.128,112.227 492.295,111.527 C494.101,111.419 495.811,110.383 496.786,108.764 C497.761,107.145 497.875,105.149 497.092,103.429 C494.191,97.829 490.652,92.774 486.494,88.25 C485.303,86.954 483.286,86.869 481.989,88.059 C480.692,89.25 480.607,91.267 481.798,92.563 Z" />
            <path d="M444.759,86.272 L438.605,80.121 C438.766,80.278 438.869,80.524 438.869,80.781 C438.869,81.038 438.766,81.284 438.582,81.464 C439.84,80.232 439.861,78.214 438.628,76.957 C437.396,75.699 435.377,75.679 434.119,76.911 C433.079,77.93 432.492,79.325 432.492,80.781 C432.492,82.237 433.079,83.632 434.119,84.651 L440.25,90.78 C441.495,92.025 443.514,92.025 444.759,90.78 C446.004,89.535 446.004,87.517 444.759,86.272 Z" />
            <path d="M454.387,112.859 C458.084,121.74 459.763,130.73 459.16,137.752 C459.167,137.624 459.282,137.434 459.462,137.325 C459.642,137.217 459.864,137.204 460.055,137.291 C455.247,134.794 450.654,131.58 446.543,127.805 C445.246,126.614 443.229,126.7 442.038,127.996 C440.846,129.292 440.932,131.309 442.229,132.499 C446.754,136.655 451.811,140.194 457.266,143.022 C459.134,143.876 461.13,143.762 462.75,142.787 C464.37,141.813 465.406,140.103 465.52,138.217 C466.211,130.181 464.344,120.185 460.275,110.41 C459.598,108.784 457.732,108.015 456.106,108.691 C454.48,109.368 453.711,111.233 454.387,112.859 Z" />
        </g>
        <g id="Black-M" transform="translate(0,200)">
            <path d="M660.218,127.196 C665.065,128.916 671.228,129.782 677.651,130.085 C681.277,130.283 684.277,127.284 684.078,123.636 C683.782,117.371 682.889,111.073 681.192,106.243 C680.609,104.582 678.789,103.709 677.127,104.292 C675.466,104.875 674.592,106.695 675.175,108.355 C676.621,112.47 677.439,118.239 677.709,123.96 C677.703,123.841 677.833,123.711 677.975,123.719 C672.106,123.441 666.468,122.649 662.352,121.188 C660.692,120.599 658.869,121.467 658.28,123.126 C657.691,124.784 658.559,126.607 660.218,127.196 Z" />
            <path d="M663.453,96.717 C670.205,96.717 680.788,95.194 686.041,93.075 C690.031,91.542 690.451,86.529 687.243,83.919 C673.299,72.546 653.001,73.572 640.273,86.295 C627.545,99.019 626.518,119.309 637.898,133.251 C640.5,136.447 645.446,136.031 647.055,132.047 C649.175,126.796 650.699,116.216 650.699,109.467 L646.495,112.488 C652.729,114.581 658.115,115.448 663.566,114.591 C666.158,114.172 668.17,112.134 668.552,109.55 C669.437,103.24 668.798,99.482 666.478,92.522 C665.921,90.852 664.115,89.95 662.445,90.506 C660.774,91.063 659.871,92.868 660.428,94.538 C662.465,100.645 662.956,103.538 662.24,108.642 C662.268,108.453 662.397,108.323 662.561,108.296 C658.34,108.96 653.874,108.241 648.526,106.445 C646.46,105.752 644.322,107.288 644.322,109.467 C644.322,115.469 642.908,125.286 641.142,129.661 C641.441,128.92 642.52,128.83 642.841,129.224 C633.528,117.814 634.368,101.213 644.782,90.803 C655.196,80.393 671.803,79.553 683.215,88.86 C682.817,88.537 682.908,87.451 683.703,87.145 C679.278,88.929 669.458,90.343 663.453,90.343 C661.692,90.343 660.264,91.77 660.264,93.53 C660.264,95.29 661.692,96.717 663.453,96.717 Z" />
            <path d="M673.486,127.567 C674.64,132.47 675.279,136.766 675.005,140.228 C675.02,140.031 675.122,139.841 675.286,139.714 C675.449,139.587 675.658,139.535 675.862,139.57 C671.688,138.758 667.578,137.388 663.696,135.507 C662.111,134.74 660.204,135.401 659.436,136.985 C658.668,138.569 659.33,140.476 660.914,141.244 C665.293,143.365 669.929,144.91 674.705,145.839 C676.334,146.123 677.945,145.722 679.201,144.746 C680.457,143.769 681.242,142.308 681.363,140.722 C681.704,136.409 680.993,131.629 679.693,126.107 C679.29,124.394 677.573,123.332 675.859,123.735 C674.145,124.138 673.083,125.854 673.486,127.567 Z" />
            <path d="M677.078,142.883 C681.84,144.7 687.624,145.639 693.556,145.988 C695.272,146.107 696.987,145.465 698.226,144.226 C699.465,142.988 700.107,141.273 699.986,139.526 C699.754,134.03 698.734,128.509 696.958,123.211 C696.399,121.542 694.592,120.642 692.922,121.202 C691.252,121.761 690.352,123.567 690.912,125.236 C692.497,129.967 693.408,134.896 693.619,139.881 C693.617,139.874 693.651,139.784 693.716,139.719 C693.782,139.654 693.872,139.62 693.964,139.626 C688.593,139.31 683.378,138.464 679.353,136.928 C677.708,136.3 675.865,137.124 675.237,138.768 C674.609,140.413 675.433,142.255 677.078,142.883 Z" />
            <path d="M680.076,125.703 C685.715,127.014 690.41,127.71 694.728,127.369 C696.306,127.249 697.768,126.464 698.745,125.208 C699.722,123.953 700.123,122.343 699.85,120.776 C698.909,115.94 697.364,111.306 695.242,106.929 C694.474,105.345 692.567,104.683 690.982,105.451 C689.397,106.219 688.735,108.125 689.503,109.709 C691.385,113.59 692.755,117.699 693.579,121.932 C693.532,121.667 693.584,121.458 693.711,121.295 C693.838,121.132 694.028,121.03 694.235,121.014 C690.766,121.288 686.54,120.661 681.521,119.494 C679.805,119.095 678.092,120.162 677.693,121.876 C677.294,123.591 678.361,125.304 680.076,125.703 Z" />
            <path d="M681.798,92.563 C685.575,96.672 688.79,101.263 691.36,106.217 C691.201,105.879 691.214,105.657 691.322,105.477 C691.43,105.297 691.62,105.182 691.83,105.17 C684.679,105.782 675.689,104.111 666.89,100.409 C665.267,99.726 663.397,100.488 662.714,102.111 C662.031,103.733 662.793,105.602 664.416,106.285 C674.119,110.367 684.128,112.227 692.295,111.527 C694.101,111.419 695.811,110.383 696.786,108.764 C697.761,107.145 697.875,105.149 697.092,103.429 C694.191,97.829 690.652,92.774 686.494,88.25 C685.303,86.954 683.286,86.869 681.989,88.059 C680.692,89.25 680.607,91.267 681.798,92.563 Z" />
            <path d="M644.759,86.272 L638.605,80.121 C638.766,80.278 638.869,80.524 638.869,80.781 C638.869,81.038 638.766,81.284 638.582,81.464 C639.84,80.232 639.861,78.214 638.628,76.957 C637.396,75.699 635.377,75.679 634.119,76.911 C633.079,77.93 632.492,79.325 632.492,80.781 C632.492,82.237 633.079,83.632 634.119,84.651 L640.25,90.78 C641.495,92.025 643.514,92.025 644.759,90.78 C646.004,89.535 646.004,87.517 644.759,86.272 Z" />
            <path d="M654.387,112.859 C658.084,121.74 659.763,130.73 659.16,137.752 C659.167,137.624 659.282,137.434 659.462,137.325 C659.642,137.217 659.864,137.204 660.055,137.291 C655.247,134.794 650.654,131.58 646.543,127.805 C645.246,126.614 643.229,126.7 642.038,127.996 C640.846,129.292 640.932,131.309 642.229,132.499 C646.754,136.655 651.811,140.194 657.266,143.022 C659.134,143.876 661.13,143.762 662.75,142.787 C664.37,141.813 665.406,140.103 665.52,138.217 C666.211,130.181 664.344,120.185 660.275,110.41 C659.598,108.784 657.732,108.015 656.106,108.691 C654.48,109.368 653.711,111.233 654.387,112.859 Z" />
        </g>
    </g>
</svg>