<?xml version="1.0" encoding="UTF-8"?>
<svg height="600" width="800" xmlns="http://www.w3.org/2000/svg" xmlns:xlink="http://www.w3.org/1999/xlink">
    <g id="Notes" font-family="LucidaGrande, 'Lucida Grande', sans-serif" font-size="13">
        <rect fill="white" height="600.0" width="800.0" x="0.0" y="0.0" />
        <g font-size="13">
            <text x="18.0" y="176.0">Small</text>
            <text x="18.0" y="376.0">Medium</text>
            <text x="18.0" y="576.0">Large</text>
        </g>
        <g font-size="9">
            <text x="250.0" y="30.0">Ultralight</text>
            <text x="450.0" y="30.0">Regular</text>
            <text x="650.0" y="30.0">Black</text>
            <text id="template-version" fill="#505050" text-anchor="end" x="785.0" y="575.0">Template v.3.0</text>
            <a href="https://github.com/swhitty/SwiftDraw">
                <text fill="#505050" text-anchor="end" x="785.0" y="590.0">https://github.com/swhitty/SwiftDraw</text>
            </a>
        </g>
    </g>
    <g id="Guides" stroke="rgb(39, 170, 225)" stroke-width="0.5">
        <path id="Capline-S" d="M18,76 l800,0" />
        <path id="H-reference" d="M85,145.755 L87.685,145.755 L113.369,79.287 L114.052,79.287 L114.052,76 L112.148,76 L85,145.755 Z M95.693,121.536 L130.996,121.536 L130.263,119.313 L96.474,119.313 L95.693,121.536 Z M139.15,145.755 L141.787,145.755 L114.638,76 L113.466,76 L113.466,79.287 L139.15,145.755 Z" stroke="none" transform="translate(0,200)" />
        <path id="Baseline-S" d="M18,146 l800,0" />
        <path id="left-margin-Ultralight-M" d="M239.545,256 l0,110" />
        <path id="right-margin-Ultralight-M" d="M290.455,256 l0,110" />
        <path id="left-margin-Regular-M" d="M439.545,256 l0,110" />
        <path id="right-margin-Regular-M" d="M490.455,256 l0,110" />
        <path id="left-margin-Black-M" d="M639.545,256 l0,110" />
        <path id="right-margin-Black-M" d="M690.455,256 l0,110" />
        <path id="Capline-M" d="M18,276 l800,0" />
        <path id="Baseline-M" d="M18,346 l800,0" />
        <path id="Capline-L" d="M18,476 l800,0" />
        <path id="Baseline-L" d="M18,546 l800,0" />
    </g>
    <g id="Symbols">
        <g id="Ultralight-M" transform="translate(0,200)">
            <path d="M242.727,146 L287.273,146 C289.03,146 290.455,144.575 290.455,142.818 C290.455,141.061 289.03,139.636 287.273,139.636 L242.727,139.636 C240.97,139.636 239.545,141.061 239.545,142.818 C239.545,144.575 240.97,146 242.727,146 Z" />
            <path d="M242.727,82.364 L287.273,82.364 C289.03,82.364 290.455,80.939 290.455,79.182 C290.455,77.425 289.03,76 287.273,76 L242.727,76 C240.97,76 239.545,77.425 239.545,79.182 C239.545,80.939 240.97,82.364 242.727,82.364 Z" />
            <path d="M284.091,142.818 L284.091,129.544 C284.091,127.013 283.085,124.586 281.296,122.796 L267.25,108.75 C266.007,107.508 263.993,107.508 262.75,108.75 L248.706,122.795 C246.916,124.584 245.91,127.012 245.909,129.543 L245.909,142.818 C245.909,144.575 247.334,146 249.091,146 C250.848,146 252.273,144.575 252.273,142.818 L252.273,129.544 C252.273,128.701 252.608,127.891 253.205,127.295 L267.25,113.25 L262.75,113.25 L276.796,127.295 C277.392,127.892 277.727,128.701 277.727,129.544 L277.727,142.818 C277.727,144.575 279.152,146 280.909,146 C282.666,146 284.091,144.575 284.091,142.818 Z" />
            <path d="M245.909,79.182 L245.909,92.456 C245.909,94.987 246.915,97.414 248.704,99.204 L262.75,113.25 C263.993,114.492 266.007,114.492 267.25,113.25 L281.294,99.205 C283.084,97.416 284.09,94.988 284.091,92.457 L284.091,79.182 C284.091,77.425 282.666,76 280.909,76 C279.152,76 277.727,77.425 277.727,79.182 L277.727,92.456 C277.727,93.299 277.392,94.109 276.795,94.705 L262.75,108.75 L267.25,108.75 L253.204,94.705 C252.608,94.108 252.273,93.299 252.273,92.456 L252.273,79.182 C252.273,77.425 250.848,76 249.091,76 C247.334,76 245.909,77.425 245.909,79.182 Z" />
        </g>
        <g id="Regular-M" transform="translate(0,200)">
            <path d="M442.727,146 L487.273,146 C489.03,146 490.455,144.575 490.455,142.818 C490.455,141.061 489.03,139.636 487.273,139.636 L442.727,139.636 C440.97,139.636 439.545,141.061 439.545,142.818 C439.545,144.575 440.97,146 442.727,146 Z" />
            <path d="M442.727,82.364 L487.273,82.364 C489.03,82.364 490.455,80.939 490.455,79.182 C490.455,77.425 489.03,76 487.273,76 L442.727,76 C440.97,76 439.545,77.425 439.545,79.182 C439.545,80.939 440.97,82.364 442.727,82.364 Z" />
            <path d="M484.091,142.818 L484.091,129.544 C484.091,127.013 483.085,124.586 481.296,122.796 L467.25,108.75 C466.007,107.508 463.993,107.508 462.75,108.75 L448.706,122.795 C446.916,124.584 445.91,127.012 445.909,129.543 L445.909,142.818 C445.909,144.575 447.334,146 449.091,146 C450.848,146 452.273,144.575 452.273,142.818 L452.273,129.544 C452.273,128.701 452.608,127.891 453.205,127.295 L467.25,113.25 L462.75,113.25 L476.796,127.295 C477.392,127.892 477.727,128.701 477.727,129.544 L477.727,142.818 C477.727,144.575 479.152,146 480.909,146 C482.666,146 484.091,144.575 484.091,142.818 Z" />
            <path d="M445.909,79.182 L445.909,92.456 C445.909,94.987 446.915,97.414 448.704,99.204 L462.75,113.25 C463.993,114.492 466.007,114.492 467.25,113.25 L481.294,99.205 C483.084,97.416 484.09,94.988 484.091,92.457 L484.091,79.182 C484.091,77.425 482.666,76 480.909,76 C479.152,76 477.727,77.425 477.727,79.182 L477.727,92.456 C477.727,93.299 477.392,94.109 476.795,94.705 L462.75,108.75 L467.25,108.75 L453.204,94.705 C452.608,94.108 452.273,93.299 452.273,92.456 L452.273,79.182 C452.273,77.425 450.848,76 449.091,76 C447.334,76 445.909,77.425 445.909,79.182 Z" />
        </g>
        <g id="Black-M" transform="translate(0,200)">
            <path d="M642.727,146 L687.273,146 C689.03,146 690.455,144.575 690.455,142.818 C690.455,141.061 689.03,139.636 687.273,139.636 L642.727,139.636 C640.97,139.636 639.545,141.061 639.545,142.818 C639.545,144.575 640.97,146 642.727,146 Z" />
            <path d="M642.727,82.364 L687.273,82.364 C689.03,82.364 690.455,80.939 690.455,79.182 C690.455,77.425 689.03,76 687.273,76 L642.727,76 C640.97,76 639.545,77.425 639.545,79.182 C639.545,80.939 640.97,82.364 642.727,82.364 Z" />
            <path d="M684.091,142.818 L684.091,129.544 C684.091,127.013 683.085,124.586 681.296,122.796 L667.25,108.75 C666.007,107.508 663.993,107.508 662.75,108.75 L648.706,122.795 C646.916,124.584 645.91,127.012 645.909,129.543 L645.909,142.818 C645.909,144.575 647.334,146 649.091,146 C650.848,146 652.273,144.575 652.273,142.818 L652.273,129.544 C652.273,128.701 652.608,127.891 653.205,127.295 L667.25,113.25 L662.75,113.25 L676.796,127.295 C677.392,127.892 677.727,128.701 677.727,129.544 L677.727,142.818 C677.727,144.575 679.152,146 680.909,146 C682.666,146 684.091,144.575 684.091,142.818 Z" />
            <path d="M645.909,79.182 L645.909,92.456 C645.909,94.987 646.915,97.414 648.704,99.204 L662.75,113.25 C663.993,114.492 666.007,114.492 667.25,113.25 L681.294,99.205 C683.084,97.416 684.09,94.988 684.091,92.457 L684.091,79.182 C684.091,77.425 682.666,76 680.909,76 C679.152,76 677.727,77.425 677.727,79.182 L677.727,92.456 C677.727,93.299 677.392,94.109 676.795,94.705 L662.75,108.75 L667.25,108.75 L653.204,94.705 C652.608,94.108 652.273,93.299 652.273,92.456 L652.273,79.182 C652.273,77.425 650.848,76 649.091,76 C647.334,76 645.909,77.425 645.909,79.182 Z" />
        </g>
    </g>
</svg>