<?xml version="1.0" encoding="UTF-8"?>
<svg height="600" width="800" xmlns="http://www.w3.org/2000/svg" xmlns:xlink="http://www.w3.org/1999/xlink">
    <g id="Notes" font-family="LucidaGrande, 'Lucida Grande', sans-serif" font-size="13">
        <rect fill="white" height="600.0" width="800.0" x="0.0" y="0.0" />
        <g font-size="13">
            <text x="18.0" y="176.0">Small</text>
            <text x="18.0" y="376.0">Medium</text>
            <text x="18.0" y="576.0">Large</text>
        </g>
        <g font-size="9">
            <text x="250.0" y="30.0">Ultralight</text>
            <text x="450.0" y="30.0">Regular</text>
            <text x="650.0" y="30.0">Black</text>
            <text id="template-version" fill="#505050" text-anchor="end" x="785.0" y="575.0">Template v.3.0</text>
            <a href="https://github.com/swhitty/SwiftDraw">
                <text fill="#505050" text-anchor="end" x="785.0" y="590.0">https://github.com/swhitty/SwiftDraw</text>
            </a>
        </g>
    </g>
    <g id="Guides" stroke="rgb(39, 170, 225)" stroke-width="0.5">
        <path id="Capline-S" d="M18,76 l800,0" />
        <path id="H-reference" d="M85,145.755 L87.685,145.755 L113.369,79.287 L114.052,79.287 L114.052,76 L112.148,76 L85,145.755 Z M95.693,121.536 L130.996,121.536 L130.263,119.313 L96.474,119.313 L95.693,121.536 Z M139.15,145.755 L141.787,145.755 L114.638,76 L113.466,76 L113.466,79.287 L139.15,145.755 Z" stroke="none" transform="translate(0,200)" />
        <path id="Baseline-S" d="M18,146 l800,0" />
        <path id="left-margin-Ultralight-M" d="M231.667,256 l0,110" />
        <path id="right-margin-Ultralight-M" d="M298.333,256 l0,110" />
        <path id="left-margin-Regular-M" d="M431.667,256 l0,110" />
        <path id="right-margin-Regular-M" d="M498.333,256 l0,110" />
        <path id="left-margin-Black-M" d="M631.667,256 l0,110" />
        <path id="right-margin-Black-M" d="M698.333,256 l0,110" />
        <path id="Capline-M" d="M18,276 l800,0" />
        <path id="Baseline-M" d="M18,346 l800,0" />
        <path id="Capline-L" d="M18,476 l800,0" />
        <path id="Baseline-L" d="M18,546 l800,0" />
    </g>
    <g id="Symbols">
        <g id="Ultralight-M" transform="translate(0,200)">
            <path d="M266.167,139.334 L241.667,139.334 C240.783,139.334 239.935,138.983 239.31,138.358 C238.685,137.733 238.333,136.885 238.333,136.001 L238.333,106.003 C238.333,105.018 238.766,104.085 239.517,103.451 L262.869,83.436 C264.092,82.404 265.908,82.404 267.15,83.452 L290.464,103.434 C291.234,104.085 291.667,105.018 291.667,106.001 L291.667,113.836 C291.667,115.677 293.159,117.169 295,117.169 C296.841,117.169 298.333,115.677 298.333,113.836 L298.333,106.003 C298.336,103.057 297.036,100.258 294.783,98.356 L271.469,78.375 C267.725,75.214 262.275,75.214 258.55,78.358 L235.197,98.373 C232.963,100.258 231.664,103.058 231.667,106.006 L231.667,136.001 C231.667,138.653 232.72,141.196 234.596,143.071 C236.471,144.947 239.015,146 241.667,146 L266.167,146 C268.008,146 269.5,144.508 269.5,142.667 C269.5,140.826 268.008,139.334 266.167,139.334 Z" />
            <path d="M277,112.003 C275.741,110.324 273.765,109.336 271.667,109.336 L258.333,109.336 C256.565,109.336 254.87,110.039 253.619,111.289 C252.369,112.539 251.667,114.234 251.667,116.002 L251.667,142.667 C251.667,144.508 253.159,146 255,146 C256.841,146 258.333,144.508 258.333,142.667 L258.333,116.002 C258.333,116.002 258.333,116.002 258.333,116.002 C258.333,116.002 258.333,116.002 258.333,116.002 L271.667,116.002 C271.667,116.002 271.667,116.002 271.667,116.002 C272.771,117.475 274.861,117.773 276.333,116.669 C277.806,115.564 278.105,113.475 277,112.003 Z" />
            <path d="M275,136.001 L295,136.001 C296.841,136.001 298.333,134.509 298.333,132.668 C298.333,130.827 296.841,129.335 295,129.335 L275,129.335 C273.159,129.335 271.667,130.827 271.667,132.668 C271.667,134.509 273.159,136.001 275,136.001 Z" />
            <path d="M281.667,122.668 L281.667,142.667 C281.667,144.508 283.159,146 285,146 C286.841,146 288.333,144.508 288.333,142.667 L288.333,122.668 C288.333,120.828 286.841,119.335 285,119.335 C283.159,119.335 281.667,120.828 281.667,122.668 Z" />
        </g>
        <g id="Regular-M" transform="translate(0,200)">
            <path d="M466.167,139.334 L441.667,139.334 C440.783,139.334 439.935,138.983 439.31,138.358 C438.685,137.733 438.333,136.885 438.333,136.001 L438.333,106.003 C438.332,105.018 438.766,104.085 439.517,103.451 L462.869,83.436 C464.092,82.404 465.908,82.404 467.15,83.452 L490.464,103.434 C491.234,104.085 491.667,105.018 491.667,106.001 L491.667,113.836 C491.667,115.677 493.159,117.169 495,117.169 C496.841,117.169 498.333,115.677 498.333,113.836 L498.333,106.003 C498.336,103.057 497.036,100.258 494.783,98.356 L471.469,78.375 C467.725,75.214 462.275,75.214 458.55,78.358 L435.197,98.373 C432.963,100.258 431.664,103.058 431.667,106.006 L431.667,136.001 C431.667,138.653 432.72,141.196 434.596,143.071 C436.471,144.947 439.014,146 441.667,146 L466.167,146 C468.008,146 469.5,144.508 469.5,142.667 C469.5,140.826 468.008,139.334 466.167,139.334 Z" />
            <path d="M477,112.003 C475.741,110.324 473.765,109.336 471.667,109.336 L458.333,109.336 C456.565,109.336 454.87,110.039 453.619,111.289 C452.369,112.539 451.667,114.234 451.667,116.002 L451.667,142.667 C451.667,144.508 453.159,146 455,146 C456.841,146 458.333,144.508 458.333,142.667 L458.333,116.002 C458.333,116.002 458.333,116.002 458.333,116.002 C458.333,116.002 458.333,116.002 458.333,116.002 L471.667,116.002 C471.667,116.002 471.667,116.002 471.667,116.002 C472.771,117.475 474.861,117.773 476.333,116.669 C477.806,115.564 478.105,113.475 477,112.003 Z" />
            <path d="M475,136.001 L495,136.001 C496.841,136.001 498.333,134.509 498.333,132.668 C498.333,130.827 496.841,129.335 495,129.335 L475,129.335 C473.159,129.335 471.667,130.827 471.667,132.668 C471.667,134.509 473.159,136.001 475,136.001 Z" />
            <path d="M481.667,122.668 L481.667,142.667 C481.667,144.508 483.159,146 485,146 C486.841,146 488.333,144.508 488.333,142.667 L488.333,122.668 C488.333,120.828 486.841,119.335 485,119.335 C483.159,119.335 481.667,120.828 481.667,122.668 Z" />
        </g>
        <g id="Black-M" transform="translate(0,200)">
            <path d="M666.167,139.334 L641.667,139.334 C640.783,139.334 639.935,138.983 639.31,138.358 C638.685,137.733 638.333,136.885 638.333,136.001 L638.333,106.003 C638.333,105.018 638.766,104.085 639.517,103.451 L662.869,83.436 C664.092,82.404 665.908,82.404 667.15,83.452 L690.464,103.434 C691.234,104.085 691.667,105.018 691.667,106.001 L691.667,113.836 C691.667,115.677 693.159,117.169 695,117.169 C696.841,117.169 698.333,115.677 698.333,113.836 L698.333,106.003 C698.336,103.057 697.036,100.258 694.783,98.356 L671.469,78.375 C667.725,75.214 662.275,75.214 658.55,78.358 L635.197,98.373 C632.963,100.258 631.664,103.058 631.667,106.006 L631.667,136.001 C631.667,138.653 632.72,141.196 634.596,143.071 C636.471,144.947 639.015,146 641.667,146 L666.167,146 C668.008,146 669.5,144.508 669.5,142.667 C669.5,140.826 668.008,139.334 666.167,139.334 Z" />
            <path d="M677,112.003 C675.741,110.324 673.765,109.336 671.667,109.336 L658.333,109.336 C656.565,109.336 654.87,110.039 653.619,111.289 C652.369,112.539 651.667,114.234 651.667,116.002 L651.667,142.667 C651.667,144.508 653.159,146 655,146 C656.841,146 658.333,144.508 658.333,142.667 L658.333,116.002 C658.333,116.002 658.333,116.002 658.333,116.002 C658.333,116.002 658.333,116.002 658.333,116.002 L671.667,116.002 C671.667,116.002 671.667,116.002 671.667,116.002 C672.771,117.475 674.861,117.773 676.333,116.669 C677.806,115.564 678.105,113.475 677,112.003 Z" />
            <path d="M675,136.001 L695,136.001 C696.841,136.001 698.333,134.509 698.333,132.668 C698.333,130.827 696.841,129.335 695,129.335 L675,129.335 C673.159,129.335 671.667,130.827 671.667,132.668 C671.667,134.509 673.159,136.001 675,136.001 Z" />
            <path d="M681.667,122.668 L681.667,142.667 C681.667,144.508 683.159,146 685,146 C686.841,146 688.333,144.508 688.333,142.667 L688.333,122.668 C688.333,120.828 686.841,119.335 685,119.335 C683.159,119.335 681.667,120.828 681.667,122.668 Z" />
        </g>
    </g>
</svg>