<?xml version="1.0" encoding="UTF-8"?>
<svg height="600" width="800" xmlns="http://www.w3.org/2000/svg" xmlns:xlink="http://www.w3.org/1999/xlink">
    <g id="Notes" font-family="LucidaGrande, 'Lucida Grande', sans-serif" font-size="13">
        <rect fill="white" height="600.0" width="800.0" x="0.0" y="0.0" />
        <g font-size="13">
            <text x="18.0" y="176.0">Small</text>
            <text x="18.0" y="376.0">Medium</text>
            <text x="18.0" y="576.0">Large</text>
        </g>
        <g font-size="9">
            <text x="250.0" y="30.0">Ultralight</text>
            <text x="450.0" y="30.0">Regular</text>
            <text x="650.0" y="30.0">Black</text>
            <text id="template-version" fill="#505050" text-anchor="end" x="785.0" y="575.0">Template v.3.0</text>
            <a href="https://github.com/swhitty/SwiftDraw">
                <text fill="#505050" text-anchor="end" x="785.0" y="590.0">https://github.com/swhitty/SwiftDraw</text>
            </a>
        </g>
    </g>
    <g id="Guides" stroke="rgb(39, 170, 225)" stroke-width="0.5">
        <path id="Capline-S" d="M18,76 l800,0" />
        <path id="H-reference" d="M85,145.755 L87.685,145.755 L113.369,79.287 L114.052,79.287 L114.052,76 L112.148,76 L85,145.755 Z M95.693,121.536 L130.996,121.536 L130.263,119.313 L96.474,119.313 L95.693,121.536 Z M139.15,145.755 L141.787,145.755 L114.638,76 L113.466,76 L113.466,79.287 L139.15,145.755 Z" stroke="none" transform="translate(0,200)" />
        <path id="Baseline-S" d="M18,146 l800,0" />
        <path id="left-margin-Ultralight-M" d="M239.545,256 l0,110" />
        <path id="right-margin-Ultralight-M" d="M290.455,256 l0,110" />
        <path id="left-margin-Regular-M" d="M439.545,256 l0,110" />
        <path id="right-margin-Regular-M" d="M490.455,256 l0,110" />
        <path id="left-margin-Black-M" d="M639.545,256 l0,110" />
        <path id="right-margin-Black-M" d="M690.455,256 l0,110" />
        <path id="Capline-M" d="M18,276 l800,0" />
        <path id="Baseline-M" d="M18,346 l800,0" />
        <path id="Capline-L" d="M18,476 l800,0" />
        <path id="Baseline-L" d="M18,546 l800,0" />
    </g>
    <g id="Symbols">
        <g id="Ultralight-M" transform="translate(0,200)">
            <path d="M269.773,95.091 L260.227,95.091 C258.47,95.091 257.045,96.515 257.045,98.273 C257.045,100.03 258.47,101.455 260.227,101.455 L269.773,101.455 C271.53,101.455 272.955,100.03 272.955,98.273 C272.955,96.515 271.53,95.091 269.773,95.091 Z" />
            <path d="M271.7,77.759 L268.518,84.123 C267.46,86.238 268.998,88.727 271.364,88.727 L280.909,88.727 C281.753,88.727 282.562,89.062 283.159,89.659 C283.756,90.256 284.091,91.065 284.091,91.909 L284.091,136.455 C284.091,137.298 283.756,138.108 283.159,138.704 C282.562,139.301 281.753,139.636 280.909,139.636 L249.091,139.636 C248.247,139.636 247.438,139.301 246.841,138.704 C246.244,138.108 245.909,137.298 245.909,136.455 L245.909,91.909 C245.909,91.065 246.244,90.256 246.841,89.659 C247.438,89.062 248.247,88.727 249.091,88.727 L258.636,88.727 C260.394,88.727 261.818,87.303 261.818,85.545 C261.818,83.788 260.394,82.364 258.636,82.364 L249.091,82.364 C246.559,82.364 244.131,83.369 242.341,85.159 C240.551,86.95 239.545,89.377 239.545,91.909 L239.545,136.455 C239.545,138.986 240.551,141.414 242.341,143.204 C244.131,144.994 246.559,146 249.091,146 L280.909,146 C283.441,146 285.869,144.994 287.659,143.204 C289.449,141.414 290.455,138.986 290.455,136.455 L290.455,91.909 C290.455,89.377 289.449,86.95 287.659,85.159 C285.869,83.369 283.441,82.364 280.909,82.364 L271.364,82.364 L274.21,86.968 L277.391,80.605 C278.177,79.033 277.54,77.122 275.968,76.336 C274.397,75.55 272.485,76.187 271.7,77.759 Z" />
            <path d="M283.706,142.183 C281.895,133.29 274.074,126.901 264.998,126.901 C255.923,126.901 248.102,133.29 246.291,142.183 C245.941,143.905 247.052,145.585 248.774,145.936 C250.496,146.287 252.176,145.175 252.527,143.453 C253.734,137.524 258.948,133.265 264.998,133.265 C271.049,133.265 276.263,137.524 277.47,143.453 C277.82,145.175 279.501,146.287 281.222,145.936 C282.944,145.585 284.056,143.905 283.706,142.183 Z" />
            <path d="M252.609,80.605 L262.154,99.696 C262.94,101.267 264.851,101.905 266.423,101.119 C267.995,100.333 268.632,98.422 267.846,96.85 L258.3,77.759 C257.515,76.187 255.603,75.55 254.032,76.336 C252.46,77.122 251.823,79.033 252.609,80.605 Z" />
            <path d="M258.636,120.545 C258.636,117.031 261.485,114.182 265,114.182 C268.515,114.182 271.364,117.031 271.364,120.545 C271.364,124.06 268.515,126.909 265,126.909 C261.485,126.909 258.636,124.06 258.636,120.545 Z M252.273,120.545 C252.273,127.575 257.971,133.273 265,133.273 C272.029,133.273 277.727,127.575 277.727,120.545 C277.727,113.516 272.029,107.818 265,107.818 C257.971,107.818 252.273,113.516 252.273,120.545 Z" />
        </g>
        <g id="Regular-M" transform="translate(0,200)">
            <path d="M469.773,95.091 L460.227,95.091 C458.47,95.091 457.045,96.515 457.045,98.273 C457.045,100.03 458.47,101.455 460.227,101.455 L469.773,101.455 C471.53,101.455 472.955,100.03 472.955,98.273 C472.955,96.515 471.53,95.091 469.773,95.091 Z" />
            <path d="M471.7,77.759 L468.518,84.123 C467.46,86.238 468.998,88.727 471.364,88.727 L480.909,88.727 C481.753,88.727 482.562,89.062 483.159,89.659 C483.756,90.256 484.091,91.065 484.091,91.909 L484.091,136.455 C484.091,137.298 483.756,138.108 483.159,138.704 C482.562,139.301 481.753,139.636 480.909,139.636 L449.091,139.636 C448.247,139.636 447.438,139.301 446.841,138.704 C446.244,138.108 445.909,137.298 445.909,136.455 L445.909,91.909 C445.909,91.065 446.244,90.256 446.841,89.659 C447.438,89.062 448.247,88.727 449.091,88.727 L458.636,88.727 C460.394,88.727 461.818,87.303 461.818,85.545 C461.818,83.788 460.394,82.364 458.636,82.364 L449.091,82.364 C446.559,82.364 444.131,83.369 442.341,85.159 C440.551,86.95 439.545,89.377 439.545,91.909 L439.545,136.455 C439.545,138.986 440.551,141.414 442.341,143.204 C444.131,144.994 446.559,146 449.091,146 L480.909,146 C483.441,146 485.869,144.994 487.659,143.204 C489.449,141.414 490.455,138.986 490.455,136.455 L490.455,91.909 C490.455,89.377 489.449,86.95 487.659,85.159 C485.869,83.369 483.441,82.364 480.909,82.364 L471.364,82.364 L474.21,86.968 L477.391,80.605 C478.177,79.033 477.54,77.122 475.968,76.336 C474.397,75.55 472.485,76.187 471.7,77.759 Z" />
            <path d="M483.706,142.183 C481.895,133.29 474.074,126.901 464.998,126.901 C455.923,126.901 448.102,133.29 446.291,142.183 C445.941,143.905 447.052,145.585 448.774,145.936 C450.496,146.287 452.176,145.175 452.527,143.453 C453.734,137.524 458.948,133.265 464.998,133.265 C471.049,133.265 476.263,137.524 477.47,143.453 C477.82,145.175 479.5,146.287 481.222,145.936 C482.944,145.585 484.056,143.905 483.706,142.183 Z" />
            <path d="M452.609,80.605 L462.154,99.696 C462.94,101.267 464.851,101.905 466.423,101.119 C467.995,100.333 468.632,98.422 467.846,96.85 L458.3,77.759 C457.515,76.187 455.603,75.55 454.032,76.336 C452.46,77.122 451.823,79.033 452.609,80.605 Z" />
            <path d="M458.636,120.545 C458.636,117.031 461.485,114.182 465,114.182 C468.515,114.182 471.364,117.031 471.364,120.545 C471.364,124.06 468.515,126.909 465,126.909 C461.485,126.909 458.636,124.06 458.636,120.545 Z M452.273,120.545 C452.273,127.575 457.971,133.273 465,133.273 C472.029,133.273 477.727,127.575 477.727,120.545 C477.727,113.516 472.029,107.818 465,107.818 C457.971,107.818 452.273,113.516 452.273,120.545 Z" />
        </g>
        <g id="Black-M" transform="translate(0,200)">
            <path d="M669.773,95.091 L660.227,95.091 C658.47,95.091 657.045,96.515 657.045,98.273 C657.045,100.03 658.47,101.455 660.227,101.455 L669.773,101.455 C671.53,101.455 672.955,100.03 672.955,98.273 C672.955,96.515 671.53,95.091 669.773,95.091 Z" />
            <path d="M671.7,77.759 L668.518,84.123 C667.46,86.238 668.998,88.727 671.364,88.727 L680.909,88.727 C681.753,88.727 682.562,89.062 683.159,89.659 C683.756,90.256 684.091,91.065 684.091,91.909 L684.091,136.455 C684.091,137.298 683.756,138.108 683.159,138.704 C682.562,139.301 681.753,139.636 680.909,139.636 L649.091,139.636 C648.247,139.636 647.438,139.301 646.841,138.704 C646.244,138.108 645.909,137.298 645.909,136.455 L645.909,91.909 C645.909,91.065 646.244,90.256 646.841,89.659 C647.438,89.062 648.247,88.727 649.091,88.727 L658.636,88.727 C660.394,88.727 661.818,87.303 661.818,85.545 C661.818,83.788 660.394,82.364 658.636,82.364 L649.091,82.364 C646.559,82.364 644.131,83.369 642.341,85.159 C640.551,86.95 639.545,89.377 639.545,91.909 L639.545,136.455 C639.545,138.986 640.551,141.414 642.341,143.204 C644.131,144.994 646.559,146 649.091,146 L680.909,146 C683.441,146 685.869,144.994 687.659,143.204 C689.449,141.414 690.455,138.986 690.455,136.455 L690.455,91.909 C690.455,89.377 689.449,86.95 687.659,85.159 C685.869,83.369 683.441,82.364 680.909,82.364 L671.364,82.364 L674.21,86.968 L677.391,80.605 C678.177,79.033 677.54,77.122 675.968,76.336 C674.397,75.55 672.485,76.187 671.7,77.759 Z" />
            <path d="M683.706,142.183 C681.895,133.29 674.074,126.901 664.998,126.901 C655.923,126.901 648.102,133.29 646.291,142.183 C645.941,143.905 647.052,145.585 648.774,145.936 C650.496,146.287 652.176,145.175 652.527,143.453 C653.734,137.524 658.948,133.265 664.998,133.265 C671.049,133.265 676.263,137.524 677.47,143.453 C677.82,145.175 679.501,146.287 681.222,145.936 C682.944,145.585 684.056,143.905 683.706,142.183 Z" />
            <path d="M652.609,80.605 L662.154,99.696 C662.94,101.267 664.851,101.905 666.423,101.119 C667.995,100.333 668.632,98.422 667.846,96.85 L658.3,77.759 C657.515,76.187 655.603,75.55 654.032,76.336 C652.46,77.122 651.823,79.033 652.609,80.605 Z" />
            <path d="M658.636,120.545 C658.636,117.031 661.485,114.182 665,114.182 C668.515,114.182 671.364,117.031 671.364,120.545 C671.364,124.06 668.515,126.909 665,126.909 C661.485,126.909 658.636,124.06 658.636,120.545 Z M652.273,120.545 C652.273,127.575 657.971,133.273 665,133.273 C672.029,133.273 677.727,127.575 677.727,120.545 C677.727,113.516 672.029,107.818 665,107.818 C657.971,107.818 652.273,113.516 652.273,120.545 Z" />
        </g>
    </g>
</svg>