<?xml version="1.0" encoding="UTF-8"?>
<svg height="600" width="800" xmlns="http://www.w3.org/2000/svg" xmlns:xlink="http://www.w3.org/1999/xlink">
    <g id="Notes" font-family="LucidaGrande, 'Lucida Grande', sans-serif" font-size="13">
        <rect fill="white" height="600.0" width="800.0" x="0.0" y="0.0" />
        <g font-size="13">
            <text x="18.0" y="176.0">Small</text>
            <text x="18.0" y="376.0">Medium</text>
            <text x="18.0" y="576.0">Large</text>
        </g>
        <g font-size="9">
            <text x="250.0" y="30.0">Ultralight</text>
            <text x="450.0" y="30.0">Regular</text>
            <text x="650.0" y="30.0">Black</text>
            <text id="template-version" fill="#505050" text-anchor="end" x="785.0" y="575.0">Template v.3.0</text>
            <a href="https://github.com/swhitty/SwiftDraw">
                <text fill="#505050" text-anchor="end" x="785.0" y="590.0">https://github.com/swhitty/SwiftDraw</text>
            </a>
        </g>
    </g>
    <g id="Guides" stroke="rgb(39, 170, 225)" stroke-width="0.5">
        <path id="Capline-S" d="M18,76 l800,0" />
        <path id="H-reference" d="M85,145.755 L87.685,145.755 L113.369,79.287 L114.052,79.287 L114.052,76 L112.148,76 L85,145.755 Z M95.693,121.536 L130.996,121.536 L130.263,119.313 L96.474,119.313 L95.693,121.536 Z M139.15,145.755 L141.787,145.755 L114.638,76 L113.466,76 L113.466,79.287 L139.15,145.755 Z" stroke="none" transform="translate(0,200)" />
        <path id="Baseline-S" d="M18,146 l800,0" />
        <path id="left-margin-Ultralight-M" d="M230,256 l0,110" />
        <path id="right-margin-Ultralight-M" d="M300,256 l0,110" />
        <path id="left-margin-Regular-M" d="M430,256 l0,110" />
        <path id="right-margin-Regular-M" d="M500,256 l0,110" />
        <path id="left-margin-Black-M" d="M630,256 l0,110" />
        <path id="right-margin-Black-M" d="M700,256 l0,110" />
        <path id="Capline-M" d="M18,276 l800,0" />
        <path id="Baseline-M" d="M18,346 l800,0" />
        <path id="Capline-L" d="M18,476 l800,0" />
        <path id="Baseline-L" d="M18,546 l800,0" />
    </g>
    <g id="Symbols">
        <g id="Ultralight-M" transform="translate(0,200)">
            <path d="M279,83 L296.5,83 L293,79.5 L293,97 C293,98.933 294.567,100.5 296.5,100.5 C298.433,100.5 300,98.933 300,97 L300,79.5 C300,77.567 298.433,76 296.5,76 L279,76 C277.067,76 275.5,77.567 275.5,79.5 C275.5,81.433 277.067,83 279,83 Z" />
            <path d="M282.5,146 L289.5,146 C292.285,146 294.955,144.894 296.925,142.925 C298.894,140.955 300,138.285 300,135.5 C300,133.567 298.433,132 296.5,132 C294.567,132 293,133.567 293,135.5 C293,136.428 292.631,137.318 291.975,137.975 C291.318,138.631 290.428,139 289.5,139 L282.5,139 C280.567,139 279,140.567 279,142.5 C279,144.433 280.567,146 282.5,146 Z" />
            <path d="M293,111 L293,121.5 C293,123.433 294.567,125 296.5,125 C298.433,125 300,123.433 300,121.5 L300,111 C300,109.067 298.433,107.5 296.5,107.5 C294.567,107.5 293,109.067 293,111 Z" />
            <path d="M294.025,77.025 L276.525,94.525 C275.158,95.892 275.158,98.108 276.525,99.475 C277.892,100.842 280.108,100.842 281.475,99.475 L298.975,81.975 C300.342,80.608 300.342,78.392 298.975,77.025 C297.608,75.658 295.392,75.658 294.025,77.025 Z" />
            <path d="M237,93.5 L237,86.5 C237,85.572 237.369,84.682 238.025,84.025 C238.682,83.369 239.572,83 240.5,83 C242.433,83 244,81.433 244,79.5 C244,77.567 242.433,76 240.5,76 C237.715,76 235.045,77.106 233.075,79.075 C231.106,81.045 230,83.715 230,86.5 L230,93.5 C230,95.433 231.567,97 233.5,97 C235.433,97 237,95.433 237,93.5 Z" />
            <path d="M242.975,144.975 L257.479,130.471 C257.618,130.332 257.805,130.254 258,130.254 C258.195,130.254 258.382,130.332 258.52,130.47 L266.025,137.975 C267.392,139.342 269.608,139.342 270.975,137.975 C272.342,136.608 272.342,134.392 270.975,133.025 L263.471,125.521 C262.021,124.07 260.053,123.254 258,123.254 C255.947,123.254 253.979,124.07 252.528,125.522 L238.025,140.025 C236.658,141.392 236.658,143.608 238.025,144.975 C239.392,146.342 241.608,146.342 242.975,144.975 Z" />
            <path d="M254.5,83 L265,83 C266.933,83 268.5,81.433 268.5,79.5 C268.5,77.567 266.933,76 265,76 L254.5,76 C252.567,76 251,77.567 251,79.5 C251,81.433 252.567,83 254.5,83 Z" />
            <path d="M265,125 L265,139 C265,139 265,139 265,139 C265,139 265,139 265,139 L237,139 C237,139 237,139 237,139 C237,139 237,139 237,139 L237,111 C237,111 237,111 237,111 C237,111 237,111 237,111 L265,111 C265,111 265,111 265,111 C265,111 265,111 265,111 L265,125 Z M272,125 L272,111 C272,109.143 271.263,107.363 269.95,106.05 C268.637,104.738 266.857,104 265,104 L237,104 C235.143,104 233.363,104.737 232.05,106.05 C230.738,107.363 230,109.143 230,111 L230,139 C230,140.857 230.737,142.637 232.05,143.95 C233.363,145.263 235.143,146 237,146 L265,146 C266.857,146 268.637,145.263 269.95,143.95 C271.263,142.637 272,140.857 272,139 L272,125 Z" />
        </g>
        <g id="Regular-M" transform="translate(0,200)">
            <path d="M479,83 L496.5,83 L493,79.5 L493,97 C493,98.933 494.567,100.5 496.5,100.5 C498.433,100.5 500,98.933 500,97 L500,79.5 C500,77.567 498.433,76 496.5,76 L479,76 C477.067,76 475.5,77.567 475.5,79.5 C475.5,81.433 477.067,83 479,83 Z" />
            <path d="M482.5,146 L489.5,146 C492.285,146 494.955,144.894 496.925,142.925 C498.894,140.955 500,138.285 500,135.5 C500,133.567 498.433,132 496.5,132 C494.567,132 493,133.567 493,135.5 C493,136.428 492.631,137.318 491.975,137.975 C491.318,138.631 490.428,139 489.5,139 L482.5,139 C480.567,139 479,140.567 479,142.5 C479,144.433 480.567,146 482.5,146 Z" />
            <path d="M493,111 L493,121.5 C493,123.433 494.567,125 496.5,125 C498.433,125 500,123.433 500,121.5 L500,111 C500,109.067 498.433,107.5 496.5,107.5 C494.567,107.5 493,109.067 493,111 Z" />
            <path d="M494.025,77.025 L476.525,94.525 C475.158,95.892 475.158,98.108 476.525,99.475 C477.892,100.842 480.108,100.842 481.475,99.475 L498.975,81.975 C500.342,80.608 500.342,78.392 498.975,77.025 C497.608,75.658 495.392,75.658 494.025,77.025 Z" />
            <path d="M437,93.5 L437,86.5 C437,85.572 437.369,84.682 438.025,84.025 C438.682,83.369 439.572,83 440.5,83 C442.433,83 444,81.433 444,79.5 C444,77.567 442.433,76 440.5,76 C437.715,76 435.045,77.106 433.075,79.075 C431.106,81.045 430,83.715 430,86.5 L430,93.5 C430,95.433 431.567,97 433.5,97 C435.433,97 437,95.433 437,93.5 Z" />
            <path d="M442.975,144.975 L457.479,130.471 C457.618,130.332 457.805,130.254 458,130.254 C458.195,130.254 458.382,130.332 458.52,130.47 L466.025,137.975 C467.392,139.342 469.608,139.342 470.975,137.975 C472.342,136.608 472.342,134.392 470.975,133.025 L463.471,125.521 C462.021,124.07 460.053,123.254 458,123.254 C455.947,123.254 453.979,124.07 452.528,125.522 L438.025,140.025 C436.658,141.392 436.658,143.608 438.025,144.975 C439.392,146.342 441.608,146.342 442.975,144.975 Z" />
            <path d="M454.5,83 L465,83 C466.933,83 468.5,81.433 468.5,79.5 C468.5,77.567 466.933,76 465,76 L454.5,76 C452.567,76 451,77.567 451,79.5 C451,81.433 452.567,83 454.5,83 Z" />
            <path d="M465,125 L465,139 C465,139 465,139 465,139 C465,139 465,139 465,139 L437,139 C437,139 437,139 437,139 C437,139 437,139 437,139 L437,111 C437,111 437,111 437,111 C437,111 437,111 437,111 L465,111 C465,111 465,111 465,111 C465,111 465,111 465,111 L465,125 Z M472,125 L472,111 C472,109.143 471.263,107.363 469.95,106.05 C468.637,104.738 466.857,104 465,104 L437,104 C435.143,104 433.363,104.737 432.05,106.05 C430.737,107.363 430,109.143 430,111 L430,139 C430,140.857 430.737,142.637 432.05,143.95 C433.363,145.263 435.143,146 437,146 L465,146 C466.857,146 468.637,145.263 469.95,143.95 C471.263,142.637 472,140.857 472,139 L472,125 Z" />
        </g>
        <g id="Black-M" transform="translate(0,200)">
            <path d="M679,83 L696.5,83 L693,79.5 L693,97 C693,98.933 694.567,100.5 696.5,100.5 C698.433,100.5 700,98.933 700,97 L700,79.5 C700,77.567 698.433,76 696.5,76 L679,76 C677.067,76 675.5,77.567 675.5,79.5 C675.5,81.433 677.067,83 679,83 Z" />
            <path d="M682.5,146 L689.5,146 C692.285,146 694.956,144.894 696.925,142.925 C698.894,140.955 700,138.285 700,135.5 C700,133.567 698.433,132 696.5,132 C694.567,132 693,133.567 693,135.5 C693,136.428 692.631,137.318 691.975,137.975 C691.318,138.631 690.428,139 689.5,139 L682.5,139 C680.567,139 679,140.567 679,142.5 C679,144.433 680.567,146 682.5,146 Z" />
            <path d="M693,111 L693,121.5 C693,123.433 694.567,125 696.5,125 C698.433,125 700,123.433 700,121.5 L700,111 C700,109.067 698.433,107.5 696.5,107.5 C694.567,107.5 693,109.067 693,111 Z" />
            <path d="M694.025,77.025 L676.525,94.525 C675.158,95.892 675.158,98.108 676.525,99.475 C677.892,100.842 680.108,100.842 681.475,99.475 L698.975,81.975 C700.342,80.608 700.342,78.392 698.975,77.025 C697.608,75.658 695.392,75.658 694.025,77.025 Z" />
            <path d="M637,93.5 L637,86.5 C637,85.572 637.369,84.682 638.025,84.025 C638.682,83.369 639.572,83 640.5,83 C642.433,83 644,81.433 644,79.5 C644,77.567 642.433,76 640.5,76 C637.715,76 635.044,77.106 633.075,79.075 C631.106,81.045 630,83.715 630,86.5 L630,93.5 C630,95.433 631.567,97 633.5,97 C635.433,97 637,95.433 637,93.5 Z" />
            <path d="M642.975,144.975 L657.479,130.471 C657.618,130.332 657.805,130.254 658,130.254 C658.195,130.254 658.382,130.332 658.52,130.47 L666.025,137.975 C667.392,139.342 669.608,139.342 670.975,137.975 C672.342,136.608 672.342,134.392 670.975,133.025 L663.471,125.521 C662.021,124.07 660.053,123.254 658,123.254 C655.947,123.254 653.979,124.07 652.528,125.522 L638.025,140.025 C636.658,141.392 636.658,143.608 638.025,144.975 C639.392,146.342 641.608,146.342 642.975,144.975 Z" />
            <path d="M654.5,83 L665,83 C666.933,83 668.5,81.433 668.5,79.5 C668.5,77.567 666.933,76 665,76 L654.5,76 C652.567,76 651,77.567 651,79.5 C651,81.433 652.567,83 654.5,83 Z" />
            <path d="M665,125 L665,139 C665,139 665,139 665,139 C665,139 665,139 665,139 L637,139 C637,139 637,139 637,139 C637,139 637,139 637,139 L637,111 C637,111 637,111 637,111 C637,111 637,111 637,111 L665,111 C665,111 665,111 665,111 C665,111 665,111 665,111 L665,125 Z M672,125 L672,111 C672,109.143 671.263,107.363 669.95,106.05 C668.637,104.738 666.857,104 665,104 L637,104 C635.143,104 633.363,104.737 632.05,106.05 C630.737,107.363 630,109.143 630,111 L630,139 C630,140.857 630.737,142.637 632.05,143.95 C633.363,145.263 635.143,146 637,146 L665,146 C666.857,146 668.637,145.263 669.95,143.95 C671.263,142.637 672,140.857 672,139 L672,125 Z" />
        </g>
    </g>
</svg>