<?xml version="1.0" encoding="UTF-8"?>
<svg height="600" width="800" xmlns="http://www.w3.org/2000/svg" xmlns:xlink="http://www.w3.org/1999/xlink">
    <g id="Notes" font-family="LucidaGrande, 'Lucida Grande', sans-serif" font-size="13">
        <rect fill="white" height="600.0" width="800.0" x="0.0" y="0.0" />
        <g font-size="13">
            <text x="18.0" y="176.0">Small</text>
            <text x="18.0" y="376.0">Medium</text>
            <text x="18.0" y="576.0">Large</text>
        </g>
        <g font-size="9">
            <text x="250.0" y="30.0">Ultralight</text>
            <text x="450.0" y="30.0">Regular</text>
            <text x="650.0" y="30.0">Black</text>
            <text id="template-version" fill="#505050" text-anchor="end" x="785.0" y="575.0">Template v.3.0</text>
            <a href="https://github.com/swhitty/SwiftDraw">
                <text fill="#505050" text-anchor="end" x="785.0" y="590.0">https://github.com/swhitty/SwiftDraw</text>
            </a>
        </g>
    </g>
    <g id="Guides" stroke="rgb(39, 170, 225)" stroke-width="0.5">
        <path id="Capline-S" d="M18,76 l800,0" />
        <path id="H-reference" d="M85,145.755 L87.685,145.755 L113.369,79.287 L114.052,79.287 L114.052,76 L112.148,76 L85,145.755 Z M95.693,121.536 L130.996,121.536 L130.263,119.313 L96.474,119.313 L95.693,121.536 Z M139.15,145.755 L141.787,145.755 L114.638,76 L113.466,76 L113.466,79.287 L139.15,145.755 Z" stroke="none" transform="translate(0,200)" />
        <path id="Baseline-S" d="M18,146 l800,0" />
        <path id="left-margin-Ultralight-M" d="M230,256 l0,110" />
        <path id="right-margin-Ultralight-M" d="M300,256 l0,110" />
        <path id="left-margin-Regular-M" d="M430,256 l0,110" />
        <path id="right-margin-Regular-M" d="M500,256 l0,110" />
        <path id="left-margin-Black-M" d="M630,256 l0,110" />
        <path id="right-margin-Black-M" d="M700,256 l0,110" />
        <path id="Capline-M" d="M18,276 l800,0" />
        <path id="Baseline-M" d="M18,346 l800,0" />
        <path id="Capline-L" d="M18,476 l800,0" />
        <path id="Baseline-L" d="M18,546 l800,0" />
    </g>
    <g id="Symbols">
        <g id="Ultralight-M" transform="translate(0,200)">
            <path d="M276.662,119.333 C276.662,119.333 276.662,119.333 276.662,119.333 C276.662,119.333 276.662,119.333 276.662,119.333 L293.326,129.329 C293.334,129.333 293.334,129.333 293.334,129.333 C293.334,129.333 293.334,129.333 293.334,129.333 L276.671,139.328 C276.662,139.333 276.662,139.333 276.662,139.333 C276.662,139.333 276.662,139.333 276.662,139.333 L276.662,119.343 Z M269.996,119.343 L269.996,139.32 C269.987,141.717 271.278,143.944 273.375,145.133 C275.471,146.322 278.046,146.286 280.109,145.04 L296.755,135.055 C298.764,133.857 300,131.682 300,129.333 C300,126.985 298.764,124.809 296.747,123.607 L280.1,113.621 C278.047,112.381 275.474,112.345 273.378,113.532 C271.282,114.719 269.989,116.944 269.996,119.353 Z" />
            <path d="M296.66,109.9 L296.66,86 C296.66,83.348 295.607,80.804 293.732,78.929 C291.856,77.054 289.313,76 286.661,76 L239.999,76 C237.347,76 234.804,77.054 232.929,78.929 C231.053,80.804 230,83.348 230,86 L230,132.667 C230,135.319 231.053,137.862 232.929,139.738 C234.804,141.613 237.347,142.667 239.999,142.667 L259.997,142.667 C261.838,142.667 263.33,141.174 263.33,139.333 C263.33,137.492 261.838,136 259.997,136 L239.999,136 C239.115,136 238.267,135.649 237.642,135.024 C237.017,134.399 236.666,133.551 236.666,132.667 L236.666,86 C236.666,85.116 237.017,84.268 237.642,83.643 C238.267,83.018 239.115,82.667 239.999,82.667 L286.661,82.667 C287.545,82.667 288.393,83.018 289.018,83.643 C289.643,84.268 289.994,85.116 289.994,86 L289.994,109.9 C289.994,111.741 291.486,113.233 293.327,113.233 C295.168,113.233 296.66,111.741 296.66,109.9 Z" />
            <path d="M245.689,141.69 L262.354,125.024 C263.656,123.722 263.656,121.611 262.354,120.31 C261.052,119.008 258.942,119.008 257.64,120.31 L240.975,136.976 C239.674,138.278 239.674,140.389 240.975,141.69 C242.277,142.992 244.387,142.992 245.689,141.69 Z" />
            <path d="M249.998,99.333 C249.998,97.492 251.49,96 253.331,96 C255.172,96 256.664,97.492 256.664,99.333 C256.664,101.174 255.172,102.667 253.331,102.667 C251.49,102.667 249.998,101.174 249.998,99.333 Z M243.332,99.333 C243.332,104.856 247.809,109.333 253.331,109.333 C258.853,109.333 263.33,104.856 263.33,99.333 C263.33,93.81 258.853,89.333 253.331,89.333 C247.809,89.333 243.332,93.81 243.332,99.333 Z" />
        </g>
        <g id="Regular-M" transform="translate(0,200)">
            <path d="M476.662,119.333 C476.662,119.333 476.662,119.333 476.662,119.333 C476.662,119.333 476.662,119.333 476.662,119.333 L493.326,129.329 C493.334,129.333 493.334,129.333 493.334,129.333 C493.334,129.333 493.334,129.333 493.334,129.333 L476.671,139.328 C476.662,139.333 476.662,139.333 476.662,139.333 C476.662,139.333 476.662,139.333 476.662,139.333 L476.662,119.343 Z M469.996,119.343 L469.996,139.32 C469.987,141.717 471.278,143.944 473.375,145.133 C475.471,146.322 478.046,146.286 480.109,145.04 L496.755,135.055 C498.764,133.857 500,131.682 500,129.333 C500,126.985 498.764,124.809 496.747,123.607 L480.1,113.621 C478.047,112.381 475.474,112.345 473.378,113.532 C471.282,114.719 469.989,116.944 469.996,119.353 Z" />
            <path d="M496.66,109.9 L496.66,86 C496.66,83.348 495.607,80.804 493.732,78.929 C491.856,77.054 489.313,76 486.661,76 L439.999,76 C437.347,76 434.804,77.054 432.929,78.929 C431.053,80.804 430,83.348 430,86 L430,132.667 C430,135.319 431.053,137.862 432.929,139.738 C434.804,141.613 437.347,142.667 439.999,142.667 L459.997,142.667 C461.838,142.667 463.33,141.174 463.33,139.333 C463.33,137.492 461.838,136 459.997,136 L439.999,136 C439.115,136 438.267,135.649 437.642,135.024 C437.017,134.399 436.666,133.551 436.666,132.667 L436.666,86 C436.666,85.116 437.017,84.268 437.642,83.643 C438.267,83.018 439.115,82.667 439.999,82.667 L486.661,82.667 C487.545,82.667 488.393,83.018 489.018,83.643 C489.643,84.268 489.994,85.116 489.994,86 L489.994,109.9 C489.994,111.741 491.486,113.233 493.327,113.233 C495.168,113.233 496.66,111.741 496.66,109.9 Z" />
            <path d="M445.689,141.69 L462.354,125.024 C463.656,123.722 463.656,121.611 462.354,120.31 C461.052,119.008 458.942,119.008 457.64,120.31 L440.975,136.976 C439.674,138.278 439.674,140.389 440.975,141.69 C442.277,142.992 444.387,142.992 445.689,141.69 Z" />
            <path d="M449.998,99.333 C449.998,97.492 451.49,96 453.331,96 C455.172,96 456.664,97.492 456.664,99.333 C456.664,101.174 455.172,102.667 453.331,102.667 C451.49,102.667 449.998,101.174 449.998,99.333 Z M443.332,99.333 C443.332,104.856 447.809,109.333 453.331,109.333 C458.853,109.333 463.33,104.856 463.33,99.333 C463.33,93.81 458.853,89.333 453.331,89.333 C447.809,89.333 443.332,93.81 443.332,99.333 Z" />
        </g>
        <g id="Black-M" transform="translate(0,200)">
            <path d="M676.662,119.333 C676.662,119.333 676.662,119.333 676.662,119.333 C676.662,119.333 676.662,119.333 676.662,119.333 L693.326,129.329 C693.334,129.333 693.334,129.333 693.334,129.333 C693.334,129.333 693.334,129.333 693.334,129.333 L676.671,139.328 C676.662,139.333 676.662,139.333 676.662,139.333 C676.662,139.333 676.662,139.333 676.662,139.333 L676.662,119.343 Z M669.996,119.343 L669.996,139.32 C669.987,141.717 671.278,143.944 673.375,145.133 C675.471,146.322 678.046,146.286 680.109,145.04 L696.755,135.055 C698.764,133.857 700,131.682 700,129.333 C700,126.985 698.764,124.809 696.747,123.607 L680.1,113.621 C678.047,112.381 675.474,112.345 673.378,113.532 C671.282,114.719 669.989,116.944 669.996,119.353 Z" />
            <path d="M696.66,109.9 L696.66,86 C696.66,83.348 695.607,80.804 693.732,78.929 C691.856,77.054 689.313,76 686.661,76 L639.999,76 C637.347,76 634.804,77.054 632.929,78.929 C631.053,80.804 630,83.348 630,86 L630,132.667 C630,135.319 631.053,137.862 632.929,139.738 C634.804,141.613 637.347,142.667 639.999,142.667 L659.997,142.667 C661.838,142.667 663.33,141.174 663.33,139.333 C663.33,137.492 661.838,136 659.997,136 L639.999,136 C639.115,136 638.267,135.649 637.642,135.024 C637.017,134.399 636.666,133.551 636.666,132.667 L636.666,86 C636.666,85.116 637.017,84.268 637.642,83.643 C638.267,83.018 639.115,82.667 639.999,82.667 L686.661,82.667 C687.545,82.667 688.393,83.018 689.018,83.643 C689.643,84.268 689.994,85.116 689.994,86 L689.994,109.9 C689.994,111.741 691.486,113.233 693.327,113.233 C695.168,113.233 696.66,111.741 696.66,109.9 Z" />
            <path d="M645.689,141.69 L662.354,125.024 C663.656,123.722 663.656,121.611 662.354,120.31 C661.052,119.008 658.942,119.008 657.64,120.31 L640.975,136.976 C639.674,138.278 639.674,140.389 640.975,141.69 C642.277,142.992 644.387,142.992 645.689,141.69 Z" />
            <path d="M649.998,99.333 C649.998,97.492 651.49,96 653.331,96 C655.172,96 656.664,97.492 656.664,99.333 C656.664,101.174 655.172,102.667 653.331,102.667 C651.49,102.667 649.998,101.174 649.998,99.333 Z M643.332,99.333 C643.332,104.856 647.809,109.333 653.331,109.333 C658.853,109.333 663.33,104.856 663.33,99.333 C663.33,93.81 658.853,89.333 653.331,89.333 C647.809,89.333 643.332,93.81 643.332,99.333 Z" />
        </g>
    </g>
</svg>