<?xml version="1.0" encoding="UTF-8"?>
<svg height="600" width="800" xmlns="http://www.w3.org/2000/svg" xmlns:xlink="http://www.w3.org/1999/xlink">
    <g id="Notes" font-family="LucidaGrande, 'Lucida Grande', sans-serif" font-size="13">
        <rect fill="white" height="600.0" width="800.0" x="0.0" y="0.0" />
        <g font-size="13">
            <text x="18.0" y="176.0">Small</text>
            <text x="18.0" y="376.0">Medium</text>
            <text x="18.0" y="576.0">Large</text>
        </g>
        <g font-size="9">
            <text x="250.0" y="30.0">Ultralight</text>
            <text x="450.0" y="30.0">Regular</text>
            <text x="650.0" y="30.0">Black</text>
            <text id="template-version" fill="#505050" text-anchor="end" x="785.0" y="575.0">Template v.3.0</text>
            <a href="https://github.com/swhitty/SwiftDraw">
                <text fill="#505050" text-anchor="end" x="785.0" y="590.0">https://github.com/swhitty/SwiftDraw</text>
            </a>
        </g>
    </g>
    <g id="Guides" stroke="rgb(39, 170, 225)" stroke-width="0.5">
        <path id="Capline-S" d="M18,76 l800,0" />
        <path id="H-reference" d="M85,145.755 L87.685,145.755 L113.369,79.287 L114.052,79.287 L114.052,76 L112.148,76 L85,145.755 Z M95.693,121.536 L130.996,121.536 L130.263,119.313 L96.474,119.313 L95.693,121.536 Z M139.15,145.755 L141.787,145.755 L114.638,76 L113.466,76 L113.466,79.287 L139.15,145.755 Z" stroke="none" transform="translate(0,200)" />
        <path id="Baseline-S" d="M18,146 l800,0" />
        <path id="left-margin-Ultralight-M" d="M237,256 l0,110" />
        <path id="right-margin-Ultralight-M" d="M293,256 l0,110" />
        <path id="left-margin-Regular-M" d="M437,256 l0,110" />
        <path id="right-margin-Regular-M" d="M493,256 l0,110" />
        <path id="left-margin-Black-M" d="M637,256 l0,110" />
        <path id="right-margin-Black-M" d="M693,256 l0,110" />
        <path id="Capline-M" d="M18,276 l800,0" />
        <path id="Baseline-M" d="M18,346 l800,0" />
        <path id="Capline-L" d="M18,476 l800,0" />
        <path id="Baseline-L" d="M18,546 l800,0" />
    </g>
    <g id="Symbols">
        <g id="Ultralight-M" transform="translate(0,200)">
            <path d="M237,79.5 L237,128.5 C237,130.433 238.567,132 240.5,132 C242.433,132 244,130.433 244,128.5 L244,79.5 C244,77.567 242.433,76 240.5,76 C238.567,76 237,77.567 237,79.5 Z" />
            <path d="M261.5,79.5 L261.5,107.5 C261.5,109.433 263.067,111 265,111 C266.933,111 268.5,109.433 268.5,107.5 L268.5,79.5 C268.5,77.567 266.933,76 265,76 C263.067,76 261.5,77.567 261.5,79.5 Z" />
            <path d="M286,79.5 L286,142.5 C286,144.433 287.567,146 289.5,146 C291.433,146 293,144.433 293,142.5 L293,79.5 C293,77.567 291.433,76 289.5,76 C287.567,76 286,77.567 286,79.5 Z" />
        </g>
        <g id="Regular-M" transform="translate(0,200)">
            <path d="M437,79.5 L437,128.5 C437,130.433 438.567,132 440.5,132 C442.433,132 444,130.433 444,128.5 L444,79.5 C444,77.567 442.433,76 440.5,76 C438.567,76 437,77.567 437,79.5 Z" />
            <path d="M461.5,79.5 L461.5,107.5 C461.5,109.433 463.067,111 465,111 C466.933,111 468.5,109.433 468.5,107.5 L468.5,79.5 C468.5,77.567 466.933,76 465,76 C463.067,76 461.5,77.567 461.5,79.5 Z" />
            <path d="M486,79.5 L486,142.5 C486,144.433 487.567,146 489.5,146 C491.433,146 493,144.433 493,142.5 L493,79.5 C493,77.567 491.433,76 489.5,76 C487.567,76 486,77.567 486,79.5 Z" />
        </g>
        <g id="Black-M" transform="translate(0,200)">
            <path d="M637,79.5 L637,128.5 C637,130.433 638.567,132 640.5,132 C642.433,132 644,130.433 644,128.5 L644,79.5 C644,77.567 642.433,76 640.5,76 C638.567,76 637,77.567 637,79.5 Z" />
            <path d="M661.5,79.5 L661.5,107.5 C661.5,109.433 663.067,111 665,111 C666.933,111 668.5,109.433 668.5,107.5 L668.5,79.5 C668.5,77.567 666.933,76 665,76 C663.067,76 661.5,77.567 661.5,79.5 Z" />
            <path d="M686,79.5 L686,142.5 C686,144.433 687.567,146 689.5,146 C691.433,146 693,144.433 693,142.5 L693,79.5 C693,77.567 691.433,76 689.5,76 C687.567,76 686,77.567 686,79.5 Z" />
        </g>
    </g>
</svg>