<?xml version="1.0" encoding="UTF-8"?>
<svg height="600" width="800" xmlns="http://www.w3.org/2000/svg" xmlns:xlink="http://www.w3.org/1999/xlink">
    <g id="Notes" font-family="LucidaGrande, 'Lucida Grande', sans-serif" font-size="13">
        <rect fill="white" height="600.0" width="800.0" x="0.0" y="0.0" />
        <g font-size="13">
            <text x="18.0" y="176.0">Small</text>
            <text x="18.0" y="376.0">Medium</text>
            <text x="18.0" y="576.0">Large</text>
        </g>
        <g font-size="9">
            <text x="250.0" y="30.0">Ultralight</text>
            <text x="450.0" y="30.0">Regular</text>
            <text x="650.0" y="30.0">Black</text>
            <text id="template-version" fill="#505050" text-anchor="end" x="785.0" y="575.0">Template v.3.0</text>
            <a href="https://github.com/swhitty/SwiftDraw">
                <text fill="#505050" text-anchor="end" x="785.0" y="590.0">https://github.com/swhitty/SwiftDraw</text>
            </a>
        </g>
    </g>
    <g id="Guides" stroke="rgb(39, 170, 225)" stroke-width="0.5">
        <path id="Capline-S" d="M18,76 l800,0" />
        <path id="H-reference" d="M85,145.755 L87.685,145.755 L113.369,79.287 L114.052,79.287 L114.052,76 L112.148,76 L85,145.755 Z M95.693,121.536 L130.996,121.536 L130.263,119.313 L96.474,119.313 L95.693,121.536 Z M139.15,145.755 L141.787,145.755 L114.638,76 L113.466,76 L113.466,79.287 L139.15,145.755 Z" stroke="none" transform="translate(0,200)" />
        <path id="Baseline-S" d="M18,146 l800,0" />
        <path id="left-margin-Ultralight-M" d="M231.842,256 l0,110" />
        <path id="right-margin-Ultralight-M" d="M298.158,256 l0,110" />
        <path id="left-margin-Regular-M" d="M431.842,256 l0,110" />
        <path id="right-margin-Regular-M" d="M498.158,256 l0,110" />
        <path id="left-margin-Black-M" d="M631.842,256 l0,110" />
        <path id="right-margin-Black-M" d="M698.158,256 l0,110" />
        <path id="Capline-M" d="M18,276 l800,0" />
        <path id="Baseline-M" d="M18,346 l800,0" />
        <path id="Capline-L" d="M18,476 l800,0" />
        <path id="Baseline-L" d="M18,546 l800,0" />
    </g>
    <g id="Symbols">
        <g id="Ultralight-M" transform="translate(0,200)">
            <path d="M290.79,138.632 C290.79,138.632 290.79,138.632 290.79,138.632 C290.79,138.632 290.79,138.632 290.79,138.632 L253.947,138.632 C253.949,138.632 253.949,138.632 253.949,138.632 C253.949,138.632 253.949,138.632 253.949,138.632 L261.317,120.212 C261.318,120.211 261.318,120.211 261.318,120.211 L283.42,120.211 C283.418,120.211 283.418,120.211 283.418,120.211 L290.79,138.634 Z M297.631,135.896 L290.259,117.475 C289.142,114.679 286.435,112.844 283.422,112.842 L261.315,112.842 C258.301,112.844 255.593,114.679 254.475,117.477 L247.107,135.896 C246.2,138.167 246.478,140.738 247.847,142.762 C249.217,144.786 251.501,145.998 253.945,146 L290.788,146 C293.232,146.001 295.518,144.789 296.889,142.765 C298.261,140.741 298.539,138.168 297.632,135.898 Z" />
            <path d="M242.895,83.368 C243.872,83.368 244.809,83.757 245.5,84.448 C246.19,85.138 246.579,86.076 246.579,87.053 L246.579,94.421 C246.579,95.398 246.19,96.335 245.5,97.026 C244.809,97.717 243.872,98.105 242.895,98.105 L239.21,98.105 C239.21,98.105 239.21,98.105 239.21,98.105 C239.21,98.105 239.21,98.105 239.21,98.105 L239.21,83.368 C239.21,83.368 239.21,83.368 239.21,83.368 C239.21,83.368 239.21,83.368 239.21,83.368 L242.895,83.368 Z M242.895,76 L239.21,76 C237.256,76 235.382,76.776 234,78.158 C232.618,79.54 231.842,81.414 231.842,83.368 L231.842,98.105 C231.842,100.059 232.618,101.934 234,103.316 C235.382,104.697 237.256,105.474 239.21,105.474 L242.895,105.474 C245.826,105.474 248.637,104.309 250.71,102.236 C252.782,100.164 253.947,97.352 253.947,94.421 L253.947,87.053 C253.947,84.121 252.782,81.31 250.71,79.237 C248.637,77.164 245.826,76 242.895,76 Z" />
            <path d="M250.263,94.421 L264.999,94.421 C265.976,94.421 266.913,94.809 267.604,95.5 C268.295,96.191 268.683,97.128 268.683,98.105 L268.683,116.526 C268.683,118.561 270.333,120.211 272.368,120.211 C274.402,120.211 276.052,118.561 276.052,116.526 L276.052,98.105 C276.052,95.174 274.887,92.363 272.815,90.29 C270.742,88.217 267.931,87.053 264.999,87.053 L250.263,87.053 C248.228,87.053 246.579,88.702 246.579,90.737 C246.579,92.772 248.228,94.421 250.263,94.421 Z" />
        </g>
        <g id="Regular-M" transform="translate(0,200)">
            <path d="M490.79,138.632 C490.79,138.632 490.79,138.632 490.79,138.632 C490.79,138.632 490.79,138.632 490.79,138.632 L453.947,138.632 C453.949,138.632 453.949,138.632 453.949,138.632 C453.949,138.632 453.949,138.632 453.949,138.632 L461.317,120.212 C461.318,120.211 461.318,120.211 461.318,120.211 L483.42,120.211 C483.418,120.211 483.418,120.211 483.418,120.211 L490.79,138.634 Z M497.631,135.896 L490.259,117.475 C489.142,114.679 486.435,112.844 483.422,112.842 L461.315,112.842 C458.301,112.844 455.593,114.679 454.475,117.477 L447.107,135.896 C446.2,138.167 446.478,140.738 447.847,142.762 C449.217,144.786 451.501,145.998 453.945,146 L490.788,146 C493.232,146.001 495.518,144.789 496.889,142.765 C498.261,140.741 498.539,138.168 497.632,135.898 Z" />
            <path d="M442.895,83.368 C443.872,83.368 444.809,83.757 445.5,84.448 C446.19,85.138 446.579,86.076 446.579,87.053 L446.579,94.421 C446.579,95.398 446.19,96.335 445.5,97.026 C444.809,97.717 443.872,98.105 442.895,98.105 L439.21,98.105 C439.21,98.105 439.21,98.105 439.21,98.105 C439.21,98.105 439.21,98.105 439.21,98.105 L439.21,83.368 C439.21,83.368 439.21,83.368 439.21,83.368 C439.21,83.368 439.21,83.368 439.21,83.368 L442.895,83.368 Z M442.895,76 L439.21,76 C437.256,76 435.382,76.776 434,78.158 C432.618,79.54 431.842,81.414 431.842,83.368 L431.842,98.105 C431.842,100.059 432.618,101.934 434,103.316 C435.382,104.697 437.256,105.474 439.21,105.474 L442.895,105.474 C445.826,105.474 448.637,104.309 450.71,102.236 C452.782,100.164 453.947,97.352 453.947,94.421 L453.947,87.053 C453.947,84.121 452.782,81.31 450.71,79.237 C448.637,77.164 445.826,76 442.895,76 Z" />
            <path d="M450.263,94.421 L464.999,94.421 C465.976,94.421 466.913,94.809 467.604,95.5 C468.295,96.191 468.683,97.128 468.683,98.105 L468.683,116.526 C468.683,118.561 470.333,120.211 472.368,120.211 C474.402,120.211 476.052,118.561 476.052,116.526 L476.052,98.105 C476.052,95.174 474.887,92.363 472.815,90.29 C470.742,88.217 467.931,87.053 464.999,87.053 L450.263,87.053 C448.228,87.053 446.579,88.702 446.579,90.737 C446.579,92.772 448.228,94.421 450.263,94.421 Z" />
        </g>
        <g id="Black-M" transform="translate(0,200)">
            <path d="M690.79,138.632 C690.79,138.632 690.79,138.632 690.79,138.632 C690.79,138.632 690.79,138.632 690.79,138.632 L653.947,138.632 C653.949,138.632 653.949,138.632 653.949,138.632 C653.949,138.632 653.949,138.632 653.949,138.632 L661.317,120.212 C661.318,120.211 661.318,120.211 661.318,120.211 L683.42,120.211 C683.418,120.211 683.418,120.211 683.418,120.211 L690.79,138.634 Z M697.631,135.896 L690.259,117.475 C689.143,114.679 686.435,112.844 683.422,112.842 L661.315,112.842 C658.3,112.844 655.593,114.679 654.475,117.477 L647.107,135.896 C646.2,138.167 646.478,140.738 647.847,142.762 C649.217,144.786 651.501,145.998 653.945,146 L690.788,146 C693.232,146.001 695.518,144.789 696.889,142.765 C698.261,140.741 698.539,138.168 697.632,135.898 Z" />
            <path d="M642.895,83.368 C643.872,83.368 644.809,83.757 645.5,84.448 C646.19,85.138 646.579,86.076 646.579,87.053 L646.579,94.421 C646.579,95.398 646.19,96.335 645.5,97.026 C644.809,97.717 643.872,98.105 642.895,98.105 L639.21,98.105 C639.21,98.105 639.21,98.105 639.21,98.105 C639.21,98.105 639.21,98.105 639.21,98.105 L639.21,83.368 C639.21,83.368 639.21,83.368 639.21,83.368 C639.21,83.368 639.21,83.368 639.21,83.368 L642.895,83.368 Z M642.895,76 L639.21,76 C637.256,76 635.382,76.776 634,78.158 C632.618,79.54 631.842,81.414 631.842,83.368 L631.842,98.105 C631.842,100.059 632.618,101.934 634,103.316 C635.382,104.697 637.256,105.474 639.21,105.474 L642.895,105.474 C645.826,105.474 648.637,104.309 650.71,102.236 C652.782,100.164 653.947,97.352 653.947,94.421 L653.947,87.053 C653.947,84.121 652.782,81.31 650.71,79.237 C648.637,77.164 645.826,76 642.895,76 Z" />
            <path d="M650.263,94.421 L664.999,94.421 C665.976,94.421 666.913,94.809 667.604,95.5 C668.295,96.191 668.683,97.128 668.683,98.105 L668.683,116.526 C668.683,118.561 670.333,120.211 672.368,120.211 C674.402,120.211 676.052,118.561 676.052,116.526 L676.052,98.105 C676.052,95.174 674.887,92.363 672.815,90.29 C670.742,88.217 667.931,87.053 664.999,87.053 L650.263,87.053 C648.228,87.053 646.579,88.702 646.579,90.737 C646.579,92.772 648.228,94.421 650.263,94.421 Z" />
        </g>
    </g>
</svg>