<?xml version="1.0" encoding="UTF-8"?>
<svg height="600" width="800" xmlns="http://www.w3.org/2000/svg" xmlns:xlink="http://www.w3.org/1999/xlink">
    <g id="Notes" font-family="LucidaGrande, 'Lucida Grande', sans-serif" font-size="13">
        <rect fill="white" height="600.0" width="800.0" x="0.0" y="0.0" />
        <g font-size="13">
            <text x="18.0" y="176.0">Small</text>
            <text x="18.0" y="376.0">Medium</text>
            <text x="18.0" y="576.0">Large</text>
        </g>
        <g font-size="9">
            <text x="250.0" y="30.0">Ultralight</text>
            <text x="450.0" y="30.0">Regular</text>
            <text x="650.0" y="30.0">Black</text>
            <text id="template-version" fill="#505050" text-anchor="end" x="785.0" y="575.0">Template v.3.0</text>
            <a href="https://github.com/swhitty/SwiftDraw">
                <text fill="#505050" text-anchor="end" x="785.0" y="590.0">https://github.com/swhitty/SwiftDraw</text>
            </a>
        </g>
    </g>
    <g id="Guides" stroke="rgb(39, 170, 225)" stroke-width="0.5">
        <path id="Capline-S" d="M18,76 l800,0" />
        <path id="H-reference" d="M85,145.755 L87.685,145.755 L113.369,79.287 L114.052,79.287 L114.052,76 L112.148,76 L85,145.755 Z M95.693,121.536 L130.996,121.536 L130.263,119.313 L96.474,119.313 L95.693,121.536 Z M139.15,145.755 L141.787,145.755 L114.638,76 L113.466,76 L113.466,79.287 L139.15,145.755 Z" stroke="none" transform="translate(0,200)" />
        <path id="Baseline-S" d="M18,146 l800,0" />
        <path id="left-margin-Ultralight-M" d="M231.667,256 l0,110" />
        <path id="right-margin-Ultralight-M" d="M298.333,256 l0,110" />
        <path id="left-margin-Regular-M" d="M431.667,256 l0,110" />
        <path id="right-margin-Regular-M" d="M498.333,256 l0,110" />
        <path id="left-margin-Black-M" d="M631.667,256 l0,110" />
        <path id="right-margin-Black-M" d="M698.333,256 l0,110" />
        <path id="Capline-M" d="M18,276 l800,0" />
        <path id="Baseline-M" d="M18,346 l800,0" />
        <path id="Capline-L" d="M18,476 l800,0" />
        <path id="Baseline-L" d="M18,546 l800,0" />
    </g>
    <g id="Symbols">
        <g id="Ultralight-M" transform="translate(0,200)">
            <path d="M261.665,130.091 L261.665,107.817 C261.665,106.06 260.173,104.635 258.332,104.635 C256.491,104.635 254.999,106.06 254.999,107.817 L254.999,130.091 C254.999,131.848 256.491,133.272 258.332,133.272 C260.173,133.272 261.665,131.848 261.665,130.091 Z" />
            <path d="M263.53,82.689 C264.456,82.255 265.54,82.255 266.467,82.689 L292.599,94.927 C291.903,94.602 291.534,93.859 291.71,93.138 C291.886,92.416 292.561,91.906 293.337,91.908 L236.667,91.908 C237.442,91.908 238.115,92.418 238.29,93.14 C238.465,93.861 238.096,94.602 237.4,94.927 L263.53,82.689 Z M260.594,76.976 L234.465,89.214 C232.378,90.19 231.271,92.413 231.796,94.577 C232.321,96.74 234.34,98.272 236.667,98.272 L293.33,98.272 C295.652,98.276 297.675,96.746 298.203,94.581 C298.731,92.417 297.624,90.191 295.533,89.213 L269.403,76.976 C266.625,75.675 263.372,75.675 260.594,76.976 Z" />
            <path d="M274.998,130.091 L274.998,107.817 C274.998,106.06 273.505,104.635 271.665,104.635 C269.824,104.635 268.331,106.06 268.331,107.817 L268.331,130.091 C268.331,131.848 269.824,133.272 271.665,133.272 C273.505,133.272 274.998,131.848 274.998,130.091 Z" />
            <path d="M288.33,130.091 L288.33,107.817 C288.33,106.06 286.838,104.635 284.997,104.635 C283.156,104.635 281.664,106.06 281.664,107.817 L281.664,130.091 C281.664,131.848 283.156,133.272 284.997,133.272 C286.838,133.272 288.33,131.848 288.33,130.091 Z" />
            <path d="M235,146 L294.997,146 C296.838,146 298.33,144.575 298.33,142.818 C298.33,141.061 296.838,139.636 294.997,139.636 L235,139.636 C233.159,139.636 231.667,141.061 231.667,142.818 C231.667,144.575 233.159,146 235,146 Z" />
            <path d="M248.333,130.091 L248.333,107.817 C248.333,106.06 246.84,104.635 244.999,104.635 C243.159,104.635 241.666,106.06 241.666,107.817 L241.666,130.091 C241.666,131.848 243.159,133.272 244.999,133.272 C246.84,133.272 248.333,131.848 248.333,130.091 Z" />
        </g>
        <g id="Regular-M" transform="translate(0,200)">
            <path d="M461.665,130.091 L461.665,107.817 C461.665,106.06 460.173,104.635 458.332,104.635 C456.491,104.635 454.999,106.06 454.999,107.817 L454.999,130.091 C454.999,131.848 456.491,133.272 458.332,133.272 C460.173,133.272 461.665,131.848 461.665,130.091 Z" />
            <path d="M463.53,82.689 C464.456,82.255 465.54,82.255 466.467,82.689 L492.599,94.927 C491.903,94.602 491.534,93.859 491.71,93.138 C491.886,92.416 492.561,91.906 493.337,91.908 L436.667,91.908 C437.442,91.908 438.115,92.418 438.29,93.14 C438.465,93.861 438.096,94.602 437.4,94.927 L463.53,82.689 Z M460.594,76.976 L434.465,89.214 C432.378,90.19 431.271,92.413 431.796,94.577 C432.321,96.74 434.34,98.272 436.667,98.272 L493.33,98.272 C495.652,98.276 497.675,96.746 498.203,94.581 C498.731,92.417 497.624,90.191 495.533,89.213 L469.403,76.976 C466.625,75.675 463.372,75.675 460.594,76.976 Z" />
            <path d="M474.998,130.091 L474.998,107.817 C474.998,106.06 473.505,104.635 471.665,104.635 C469.824,104.635 468.331,106.06 468.331,107.817 L468.331,130.091 C468.331,131.848 469.824,133.272 471.665,133.272 C473.505,133.272 474.998,131.848 474.998,130.091 Z" />
            <path d="M488.33,130.091 L488.33,107.817 C488.33,106.06 486.838,104.635 484.997,104.635 C483.156,104.635 481.664,106.06 481.664,107.817 L481.664,130.091 C481.664,131.848 483.156,133.272 484.997,133.272 C486.838,133.272 488.33,131.848 488.33,130.091 Z" />
            <path d="M435,146 L494.997,146 C496.838,146 498.33,144.575 498.33,142.818 C498.33,141.061 496.838,139.636 494.997,139.636 L435,139.636 C433.159,139.636 431.667,141.061 431.667,142.818 C431.667,144.575 433.159,146 435,146 Z" />
            <path d="M448.333,130.091 L448.333,107.817 C448.333,106.06 446.84,104.635 444.999,104.635 C443.159,104.635 441.666,106.06 441.666,107.817 L441.666,130.091 C441.666,131.848 443.159,133.272 444.999,133.272 C446.84,133.272 448.333,131.848 448.333,130.091 Z" />
        </g>
        <g id="Black-M" transform="translate(0,200)">
            <path d="M661.665,130.091 L661.665,107.817 C661.665,106.06 660.173,104.635 658.332,104.635 C656.491,104.635 654.999,106.06 654.999,107.817 L654.999,130.091 C654.999,131.848 656.491,133.272 658.332,133.272 C660.173,133.272 661.665,131.848 661.665,130.091 Z" />
            <path d="M663.53,82.689 C664.456,82.255 665.541,82.255 666.467,82.689 L692.599,94.927 C691.903,94.602 691.534,93.859 691.71,93.138 C691.886,92.416 692.561,91.906 693.337,91.908 L636.667,91.908 C637.442,91.908 638.115,92.418 638.29,93.14 C638.465,93.861 638.096,94.602 637.4,94.927 L663.53,82.689 Z M660.594,76.976 L634.465,89.214 C632.378,90.19 631.271,92.413 631.796,94.577 C632.321,96.74 634.34,98.272 636.667,98.272 L693.33,98.272 C695.652,98.276 697.675,96.746 698.203,94.581 C698.731,92.417 697.624,90.191 695.533,89.213 L669.403,76.976 C666.625,75.675 663.372,75.675 660.594,76.976 Z" />
            <path d="M674.998,130.091 L674.998,107.817 C674.998,106.06 673.505,104.635 671.665,104.635 C669.824,104.635 668.331,106.06 668.331,107.817 L668.331,130.091 C668.331,131.848 669.824,133.272 671.665,133.272 C673.505,133.272 674.998,131.848 674.998,130.091 Z" />
            <path d="M688.33,130.091 L688.33,107.817 C688.33,106.06 686.838,104.635 684.997,104.635 C683.156,104.635 681.664,106.06 681.664,107.817 L681.664,130.091 C681.664,131.848 683.156,133.272 684.997,133.272 C686.838,133.272 688.33,131.848 688.33,130.091 Z" />
            <path d="M635,146 L694.997,146 C696.838,146 698.33,144.575 698.33,142.818 C698.33,141.061 696.838,139.636 694.997,139.636 L635,139.636 C633.159,139.636 631.667,141.061 631.667,142.818 C631.667,144.575 633.159,146 635,146 Z" />
            <path d="M648.333,130.091 L648.333,107.817 C648.333,106.06 646.84,104.635 644.999,104.635 C643.159,104.635 641.666,106.06 641.666,107.817 L641.666,130.091 C641.666,131.848 643.159,133.272 644.999,133.272 C646.84,133.272 648.333,131.848 648.333,130.091 Z" />
        </g>
    </g>
</svg>