<?xml version="1.0" encoding="UTF-8"?>
<svg height="600" width="800" xmlns="http://www.w3.org/2000/svg" xmlns:xlink="http://www.w3.org/1999/xlink">
    <g id="Notes" font-family="LucidaGrande, 'Lucida Grande', sans-serif" font-size="13">
        <rect fill="white" height="600.0" width="800.0" x="0.0" y="0.0" />
        <g font-size="13">
            <text x="18.0" y="176.0">Small</text>
            <text x="18.0" y="376.0">Medium</text>
            <text x="18.0" y="576.0">Large</text>
        </g>
        <g font-size="9">
            <text x="250.0" y="30.0">Ultralight</text>
            <text x="450.0" y="30.0">Regular</text>
            <text x="650.0" y="30.0">Black</text>
            <text id="template-version" fill="#505050" text-anchor="end" x="785.0" y="575.0">Template v.3.0</text>
            <a href="https://github.com/swhitty/SwiftDraw">
                <text fill="#505050" text-anchor="end" x="785.0" y="590.0">https://github.com/swhitty/SwiftDraw</text>
            </a>
        </g>
    </g>
    <g id="Guides" stroke="rgb(39, 170, 225)" stroke-width="0.5">
        <path id="Capline-S" d="M18,76 l800,0" />
        <path id="H-reference" d="M85,145.755 L87.685,145.755 L113.369,79.287 L114.052,79.287 L114.052,76 L112.148,76 L85,145.755 Z M95.693,121.536 L130.996,121.536 L130.263,119.313 L96.474,119.313 L95.693,121.536 Z M139.15,145.755 L141.787,145.755 L114.638,76 L113.466,76 L113.466,79.287 L139.15,145.755 Z" stroke="none" transform="translate(0,200)" />
        <path id="Baseline-S" d="M18,146 l800,0" />
        <path id="left-margin-Ultralight-M" d="M230,256 l0,110" />
        <path id="right-margin-Ultralight-M" d="M300,256 l0,110" />
        <path id="left-margin-Regular-M" d="M430,256 l0,110" />
        <path id="right-margin-Regular-M" d="M500,256 l0,110" />
        <path id="left-margin-Black-M" d="M630,256 l0,110" />
        <path id="right-margin-Black-M" d="M700,256 l0,110" />
        <path id="Capline-M" d="M18,276 l800,0" />
        <path id="Baseline-M" d="M18,346 l800,0" />
        <path id="Capline-L" d="M18,476 l800,0" />
        <path id="Baseline-L" d="M18,546 l800,0" />
    </g>
    <g id="Symbols">
        <g id="Ultralight-M" transform="translate(0,200)">
            <path d="M254.5,91.75 L254.5,100.5 C254.5,100.5 254.5,100.5 254.5,100.5 C254.5,100.5 254.5,100.5 254.5,100.5 L237,100.5 C237,100.5 237,100.5 237,100.5 C237,100.5 237,100.5 237,100.5 L237,83 C237,83 237,83 237,83 C237,83 237,83 237,83 L254.5,83 C254.5,83 254.5,83 254.5,83 C254.5,83 254.5,83 254.5,83 L254.5,91.75 Z M261.5,91.75 L261.5,83 C261.5,81.143 260.763,79.363 259.45,78.05 C258.137,76.737 256.357,76 254.5,76 L237,76 C235.143,76 233.363,76.737 232.05,78.05 C230.738,79.363 230,81.143 230,83 L230,100.5 C230,102.357 230.738,104.137 232.05,105.45 C233.363,106.763 235.143,107.5 237,107.5 L254.5,107.5 C256.357,107.5 258.137,106.762 259.45,105.45 C260.763,104.137 261.5,102.357 261.5,100.5 L261.5,91.75 Z" />
            <path d="M254.5,130.25 L254.5,139 C254.5,139 254.5,139 254.5,139 C254.5,139 254.5,139 254.5,139 L237,139 C237,139 237,139 237,139 C237,139 237,139 237,139 L237,121.5 C237,121.5 237,121.5 237,121.5 C237,121.5 237,121.5 237,121.5 L254.5,121.5 C254.5,121.5 254.5,121.5 254.5,121.5 C254.5,121.5 254.5,121.5 254.5,121.5 L254.5,130.25 Z M261.5,130.25 L261.5,121.5 C261.5,119.643 260.763,117.863 259.45,116.55 C258.137,115.238 256.357,114.5 254.5,114.5 L237,114.5 C235.143,114.5 233.363,115.237 232.05,116.55 C230.738,117.863 230,119.643 230,121.5 L230,139 C230,140.857 230.737,142.637 232.05,143.95 C233.363,145.263 235.143,146 237,146 L254.5,146 C256.357,146 258.137,145.263 259.45,143.95 C260.763,142.637 261.5,140.857 261.5,139 L261.5,130.25 Z" />
            <path d="M272,86.5 L296.5,86.5 C298.433,86.5 300,84.933 300,83 C300,81.067 298.433,79.5 296.5,79.5 L272,79.5 C270.067,79.5 268.5,81.067 268.5,83 C268.5,84.933 270.067,86.5 272,86.5 Z" />
            <path d="M272,104 L296.5,104 C298.433,104 300,102.433 300,100.5 C300,98.567 298.433,97 296.5,97 L272,97 C270.067,97 268.5,98.567 268.5,100.5 C268.5,102.433 270.067,104 272,104 Z" />
            <path d="M272,125 L296.5,125 C298.433,125 300,123.433 300,121.5 C300,119.567 298.433,118 296.5,118 L272,118 C270.067,118 268.5,119.567 268.5,121.5 C268.5,123.433 270.067,125 272,125 Z" />
            <path d="M272,142.5 L296.5,142.5 C298.433,142.5 300,140.933 300,139 C300,137.067 298.433,135.5 296.5,135.5 L272,135.5 C270.067,135.5 268.5,137.067 268.5,139 C268.5,140.933 270.067,142.5 272,142.5 Z" />
        </g>
        <g id="Regular-M" transform="translate(0,200)">
            <path d="M454.5,91.75 L454.5,100.5 C454.5,100.5 454.5,100.5 454.5,100.5 C454.5,100.5 454.5,100.5 454.5,100.5 L437,100.5 C437,100.5 437,100.5 437,100.5 C437,100.5 437,100.5 437,100.5 L437,83 C437,83 437,83 437,83 C437,83 437,83 437,83 L454.5,83 C454.5,83 454.5,83 454.5,83 C454.5,83 454.5,83 454.5,83 L454.5,91.75 Z M461.5,91.75 L461.5,83 C461.5,81.143 460.763,79.363 459.45,78.05 C458.137,76.737 456.357,76 454.5,76 L437,76 C435.143,76 433.363,76.737 432.05,78.05 C430.737,79.363 430,81.143 430,83 L430,100.5 C430,102.357 430.737,104.137 432.05,105.45 C433.363,106.763 435.143,107.5 437,107.5 L454.5,107.5 C456.357,107.5 458.137,106.762 459.45,105.45 C460.763,104.137 461.5,102.357 461.5,100.5 L461.5,91.75 Z" />
            <path d="M454.5,130.25 L454.5,139 C454.5,139 454.5,139 454.5,139 C454.5,139 454.5,139 454.5,139 L437,139 C437,139 437,139 437,139 C437,139 437,139 437,139 L437,121.5 C437,121.5 437,121.5 437,121.5 C437,121.5 437,121.5 437,121.5 L454.5,121.5 C454.5,121.5 454.5,121.5 454.5,121.5 C454.5,121.5 454.5,121.5 454.5,121.5 L454.5,130.25 Z M461.5,130.25 L461.5,121.5 C461.5,119.643 460.763,117.863 459.45,116.55 C458.137,115.238 456.357,114.5 454.5,114.5 L437,114.5 C435.143,114.5 433.363,115.237 432.05,116.55 C430.737,117.863 430,119.643 430,121.5 L430,139 C430,140.857 430.737,142.637 432.05,143.95 C433.363,145.263 435.143,146 437,146 L454.5,146 C456.357,146 458.137,145.263 459.45,143.95 C460.763,142.637 461.5,140.857 461.5,139 L461.5,130.25 Z" />
            <path d="M472,86.5 L496.5,86.5 C498.433,86.5 500,84.933 500,83 C500,81.067 498.433,79.5 496.5,79.5 L472,79.5 C470.067,79.5 468.5,81.067 468.5,83 C468.5,84.933 470.067,86.5 472,86.5 Z" />
            <path d="M472,104 L496.5,104 C498.433,104 500,102.433 500,100.5 C500,98.567 498.433,97 496.5,97 L472,97 C470.067,97 468.5,98.567 468.5,100.5 C468.5,102.433 470.067,104 472,104 Z" />
            <path d="M472,125 L496.5,125 C498.433,125 500,123.433 500,121.5 C500,119.567 498.433,118 496.5,118 L472,118 C470.067,118 468.5,119.567 468.5,121.5 C468.5,123.433 470.067,125 472,125 Z" />
            <path d="M472,142.5 L496.5,142.5 C498.433,142.5 500,140.933 500,139 C500,137.067 498.433,135.5 496.5,135.5 L472,135.5 C470.067,135.5 468.5,137.067 468.5,139 C468.5,140.933 470.067,142.5 472,142.5 Z" />
        </g>
        <g id="Black-M" transform="translate(0,200)">
            <path d="M654.5,91.75 L654.5,100.5 C654.5,100.5 654.5,100.5 654.5,100.5 C654.5,100.5 654.5,100.5 654.5,100.5 L637,100.5 C637,100.5 637,100.5 637,100.5 C637,100.5 637,100.5 637,100.5 L637,83 C637,83 637,83 637,83 C637,83 637,83 637,83 L654.5,83 C654.5,83 654.5,83 654.5,83 C654.5,83 654.5,83 654.5,83 L654.5,91.75 Z M661.5,91.75 L661.5,83 C661.5,81.143 660.763,79.363 659.45,78.05 C658.137,76.737 656.357,76 654.5,76 L637,76 C635.143,76 633.363,76.737 632.05,78.05 C630.737,79.363 630,81.143 630,83 L630,100.5 C630,102.357 630.737,104.137 632.05,105.45 C633.363,106.763 635.143,107.5 637,107.5 L654.5,107.5 C656.357,107.5 658.137,106.762 659.45,105.45 C660.763,104.137 661.5,102.357 661.5,100.5 L661.5,91.75 Z" />
            <path d="M654.5,130.25 L654.5,139 C654.5,139 654.5,139 654.5,139 C654.5,139 654.5,139 654.5,139 L637,139 C637,139 637,139 637,139 C637,139 637,139 637,139 L637,121.5 C637,121.5 637,121.5 637,121.5 C637,121.5 637,121.5 637,121.5 L654.5,121.5 C654.5,121.5 654.5,121.5 654.5,121.5 C654.5,121.5 654.5,121.5 654.5,121.5 L654.5,130.25 Z M661.5,130.25 L661.5,121.5 C661.5,119.643 660.763,117.863 659.45,116.55 C658.137,115.238 656.357,114.5 654.5,114.5 L637,114.5 C635.143,114.5 633.363,115.237 632.05,116.55 C630.737,117.863 630,119.643 630,121.5 L630,139 C630,140.857 630.737,142.637 632.05,143.95 C633.363,145.263 635.143,146 637,146 L654.5,146 C656.357,146 658.137,145.263 659.45,143.95 C660.763,142.637 661.5,140.857 661.5,139 L661.5,130.25 Z" />
            <path d="M672,86.5 L696.5,86.5 C698.433,86.5 700,84.933 700,83 C700,81.067 698.433,79.5 696.5,79.5 L672,79.5 C670.067,79.5 668.5,81.067 668.5,83 C668.5,84.933 670.067,86.5 672,86.5 Z" />
            <path d="M672,104 L696.5,104 C698.433,104 700,102.433 700,100.5 C700,98.567 698.433,97 696.5,97 L672,97 C670.067,97 668.5,98.567 668.5,100.5 C668.5,102.433 670.067,104 672,104 Z" />
            <path d="M672,125 L696.5,125 C698.433,125 700,123.433 700,121.5 C700,119.567 698.433,118 696.5,118 L672,118 C670.067,118 668.5,119.567 668.5,121.5 C668.5,123.433 670.067,125 672,125 Z" />
            <path d="M672,142.5 L696.5,142.5 C698.433,142.5 700,140.933 700,139 C700,137.067 698.433,135.5 696.5,135.5 L672,135.5 C670.067,135.5 668.5,137.067 668.5,139 C668.5,140.933 670.067,142.5 672,142.5 Z" />
        </g>
    </g>
</svg>