<?xml version="1.0" encoding="UTF-8"?>
<svg height="600" width="800" xmlns="http://www.w3.org/2000/svg" xmlns:xlink="http://www.w3.org/1999/xlink">
    <g id="Notes" font-family="LucidaGrande, 'Lucida Grande', sans-serif" font-size="13">
        <rect fill="white" height="600.0" width="800.0" x="0.0" y="0.0" />
        <g font-size="13">
            <text x="18.0" y="176.0">Small</text>
            <text x="18.0" y="376.0">Medium</text>
            <text x="18.0" y="576.0">Large</text>
        </g>
        <g font-size="9">
            <text x="250.0" y="30.0">Ultralight</text>
            <text x="450.0" y="30.0">Regular</text>
            <text x="650.0" y="30.0">Black</text>
            <text id="template-version" fill="#505050" text-anchor="end" x="785.0" y="575.0">Template v.3.0</text>
            <a href="https://github.com/swhitty/SwiftDraw">
                <text fill="#505050" text-anchor="end" x="785.0" y="590.0">https://github.com/swhitty/SwiftDraw</text>
            </a>
        </g>
    </g>
    <g id="Guides" stroke="rgb(39, 170, 225)" stroke-width="0.5">
        <path id="Capline-S" d="M18,76 l800,0" />
        <path id="H-reference" d="M85,145.755 L87.685,145.755 L113.369,79.287 L114.052,79.287 L114.052,76 L112.148,76 L85,145.755 Z M95.693,121.536 L130.996,121.536 L130.263,119.313 L96.474,119.313 L95.693,121.536 Z M139.15,145.755 L141.787,145.755 L114.638,76 L113.466,76 L113.466,79.287 L139.15,145.755 Z" stroke="none" transform="translate(0,200)" />
        <path id="Baseline-S" d="M18,146 l800,0" />
        <path id="left-margin-Ultralight-M" d="M242.727,256 l0,110" />
        <path id="right-margin-Ultralight-M" d="M287.273,256 l0,110" />
        <path id="left-margin-Regular-M" d="M442.727,256 l0,110" />
        <path id="right-margin-Regular-M" d="M487.273,256 l0,110" />
        <path id="left-margin-Black-M" d="M642.727,256 l0,110" />
        <path id="right-margin-Black-M" d="M687.273,256 l0,110" />
        <path id="Capline-M" d="M18,276 l800,0" />
        <path id="Baseline-M" d="M18,346 l800,0" />
        <path id="Capline-L" d="M18,476 l800,0" />
        <path id="Baseline-L" d="M18,546 l800,0" />
    </g>
    <g id="Symbols">
        <g id="Ultralight-M" transform="translate(0,200)">
            <path d="M249.091,76 C246.681,76 244.477,77.362 243.399,79.518 C242.321,81.674 242.554,84.254 244,86.182 C255.03,100.889 255.03,121.111 244,135.818 C242.554,137.746 242.321,140.326 243.399,142.482 C244.477,144.638 246.681,146 249.091,146 L280.909,146 C283.319,146 285.523,144.638 286.601,142.482 C287.679,140.326 287.446,137.746 286,135.818 C274.97,121.111 274.97,100.889 286,86.182 C287.446,84.254 287.679,81.674 286.601,79.518 C285.523,77.362 283.319,76 280.909,76 L249.091,76 Z M249.091,82.364 L280.909,82.364 C280.909,82.364 280.909,82.364 280.909,82.364 C280.909,82.364 280.909,82.364 280.909,82.364 C268.182,99.333 268.182,122.667 280.909,139.636 C280.909,139.636 280.909,139.636 280.909,139.636 C280.909,139.636 280.909,139.636 280.909,139.636 L249.091,139.636 C249.091,139.636 249.091,139.636 249.091,139.636 C249.091,139.636 249.091,139.636 249.091,139.636 C261.818,122.667 261.818,99.333 249.091,82.364 C249.091,82.364 249.091,82.364 249.091,82.364 C249.091,82.364 249.091,82.364 249.091,82.364 Z" />
        </g>
        <g id="Regular-M" transform="translate(0,200)">
            <path d="M449.091,76 C446.681,76 444.477,77.362 443.399,79.518 C442.321,81.674 442.554,84.254 444,86.182 C455.03,100.889 455.03,121.111 444,135.818 C442.554,137.746 442.321,140.326 443.399,142.482 C444.477,144.638 446.681,146 449.091,146 L480.909,146 C483.319,146 485.523,144.638 486.601,142.482 C487.679,140.326 487.446,137.746 486,135.818 C474.97,121.111 474.97,100.889 486,86.182 C487.446,84.254 487.679,81.674 486.601,79.518 C485.523,77.362 483.319,76 480.909,76 L449.091,76 Z M449.091,82.364 L480.909,82.364 C480.909,82.364 480.909,82.364 480.909,82.364 C480.909,82.364 480.909,82.364 480.909,82.364 C468.182,99.333 468.182,122.667 480.909,139.636 C480.909,139.636 480.909,139.636 480.909,139.636 C480.909,139.636 480.909,139.636 480.909,139.636 L449.091,139.636 C449.091,139.636 449.091,139.636 449.091,139.636 C449.091,139.636 449.091,139.636 449.091,139.636 C461.818,122.667 461.818,99.333 449.091,82.364 C449.091,82.364 449.091,82.364 449.091,82.364 C449.091,82.364 449.091,82.364 449.091,82.364 Z" />
        </g>
        <g id="Black-M" transform="translate(0,200)">
            <path d="M649.091,76 C646.681,76 644.477,77.362 643.399,79.518 C642.321,81.674 642.554,84.254 644,86.182 C655.03,100.889 655.03,121.111 644,135.818 C642.554,137.746 642.321,140.326 643.399,142.482 C644.477,144.638 646.681,146 649.091,146 L680.909,146 C683.319,146 685.523,144.638 686.601,142.482 C687.679,140.326 687.446,137.746 686,135.818 C674.97,121.111 674.97,100.889 686,86.182 C687.446,84.254 687.679,81.674 686.601,79.518 C685.523,77.362 683.319,76 680.909,76 L649.091,76 Z M649.091,82.364 L680.909,82.364 C680.909,82.364 680.909,82.364 680.909,82.364 C680.909,82.364 680.909,82.364 680.909,82.364 C668.182,99.333 668.182,122.667 680.909,139.636 C680.909,139.636 680.909,139.636 680.909,139.636 C680.909,139.636 680.909,139.636 680.909,139.636 L649.091,139.636 C649.091,139.636 649.091,139.636 649.091,139.636 C649.091,139.636 649.091,139.636 649.091,139.636 C661.818,122.667 661.818,99.333 649.091,82.364 C649.091,82.364 649.091,82.364 649.091,82.364 C649.091,82.364 649.091,82.364 649.091,82.364 Z" />
        </g>
    </g>
</svg>