<?xml version="1.0" encoding="UTF-8"?>
<svg height="600" width="800" xmlns="http://www.w3.org/2000/svg" xmlns:xlink="http://www.w3.org/1999/xlink">
    <g id="Notes" font-family="LucidaGrande, 'Lucida Grande', sans-serif" font-size="13">
        <rect fill="white" height="600.0" width="800.0" x="0.0" y="0.0" />
        <g font-size="13">
            <text x="18.0" y="176.0">Small</text>
            <text x="18.0" y="376.0">Medium</text>
            <text x="18.0" y="576.0">Large</text>
        </g>
        <g font-size="9">
            <text x="250.0" y="30.0">Ultralight</text>
            <text x="450.0" y="30.0">Regular</text>
            <text x="650.0" y="30.0">Black</text>
            <text id="template-version" fill="#505050" text-anchor="end" x="785.0" y="575.0">Template v.3.0</text>
            <a href="https://github.com/swhitty/SwiftDraw">
                <text fill="#505050" text-anchor="end" x="785.0" y="590.0">https://github.com/swhitty/SwiftDraw</text>
            </a>
        </g>
    </g>
    <g id="Guides" stroke="rgb(39, 170, 225)" stroke-width="0.5">
        <path id="Capline-S" d="M18,76 l800,0" />
        <path id="H-reference" d="M85,145.755 L87.685,145.755 L113.369,79.287 L114.052,79.287 L114.052,76 L112.148,76 L85,145.755 Z M95.693,121.536 L130.996,121.536 L130.263,119.313 L96.474,119.313 L95.693,121.536 Z M139.15,145.755 L141.787,145.755 L114.638,76 L113.466,76 L113.466,79.287 L139.15,145.755 Z" stroke="none" transform="translate(0,200)" />
        <path id="Baseline-S" d="M18,146 l800,0" />
        <path id="left-margin-Ultralight-M" d="M230,256 l0,110" />
        <path id="right-margin-Ultralight-M" d="M300,256 l0,110" />
        <path id="left-margin-Regular-M" d="M430,256 l0,110" />
        <path id="right-margin-Regular-M" d="M500,256 l0,110" />
        <path id="left-margin-Black-M" d="M630,256 l0,110" />
        <path id="right-margin-Black-M" d="M700,256 l0,110" />
        <path id="Capline-M" d="M18,276 l800,0" />
        <path id="Baseline-M" d="M18,346 l800,0" />
        <path id="Capline-L" d="M18,476 l800,0" />
        <path id="Baseline-L" d="M18,546 l800,0" />
    </g>
    <g id="Symbols">
        <g id="Ultralight-M" transform="translate(0,200)">
            <path d="M282.651,110.568 C285.694,107.145 287.273,102.902 287.273,98.273 C287.258,90.083 282.755,82.566 275.547,78.69 C268.339,74.815 259.585,75.205 252.75,79.706 C251.282,80.673 250.876,82.646 251.843,84.114 C252.809,85.581 254.782,85.987 256.25,85.021 C261.132,81.806 267.385,81.527 272.534,84.295 C277.682,87.064 280.898,92.433 280.909,98.279 C280.909,101.359 279.891,104.094 277.895,106.341 C276.727,107.654 276.845,109.665 278.159,110.833 C279.472,112 281.483,111.882 282.651,110.568 Z" />
            <path d="M230.932,81.432 L294.568,145.068 C295.811,146.311 297.826,146.311 299.068,145.068 C300.311,143.825 300.311,141.811 299.068,140.568 L235.432,76.932 C234.189,75.689 232.175,75.689 230.932,76.932 C229.689,78.175 229.689,80.189 230.932,81.432 Z" />
            <path d="M243.91,91.679 C241.101,98.686 242.95,106.701 248.546,111.768 C250.652,113.879 251.907,115.852 252.335,117.988 C252.679,119.711 254.355,120.828 256.079,120.484 C257.802,120.139 258.919,118.463 258.575,116.74 C257.862,113.175 255.961,110.189 252.932,107.159 C249.195,103.771 247.998,98.583 249.817,94.048 C250.471,92.417 249.679,90.564 248.048,89.91 C246.417,89.256 244.564,90.048 243.91,91.679 Z" />
            <path d="M255.455,133.273 L274.545,133.273 C276.303,133.273 277.727,131.848 277.727,130.091 C277.727,128.334 276.303,126.909 274.545,126.909 L255.455,126.909 C253.697,126.909 252.273,128.334 252.273,130.091 C252.273,131.848 253.697,133.273 255.455,133.273 Z" />
            <path d="M258.636,146 L271.364,146 C273.121,146 274.545,144.575 274.545,142.818 C274.545,141.061 273.121,139.636 271.364,139.636 L258.636,139.636 C256.879,139.636 255.455,141.061 255.455,142.818 C255.455,144.575 256.879,146 258.636,146 Z" />
        </g>
        <g id="Regular-M" transform="translate(0,200)">
            <path d="M482.651,110.568 C485.694,107.145 487.273,102.902 487.273,98.273 C487.258,90.083 482.755,82.566 475.547,78.69 C468.339,74.815 459.585,75.205 452.75,79.706 C451.282,80.673 450.876,82.646 451.843,84.114 C452.809,85.581 454.782,85.987 456.25,85.021 C461.132,81.806 467.385,81.527 472.534,84.295 C477.682,87.064 480.898,92.433 480.909,98.279 C480.909,101.359 479.891,104.094 477.895,106.341 C476.727,107.654 476.845,109.665 478.159,110.833 C479.472,112 481.483,111.882 482.651,110.568 Z" />
            <path d="M430.932,81.432 L494.568,145.068 C495.811,146.311 497.826,146.311 499.068,145.068 C500.311,143.825 500.311,141.811 499.068,140.568 L435.432,76.932 C434.189,75.689 432.174,75.689 430.932,76.932 C429.689,78.175 429.689,80.189 430.932,81.432 Z" />
            <path d="M443.91,91.679 C441.101,98.686 442.95,106.701 448.546,111.768 C450.652,113.879 451.907,115.852 452.335,117.988 C452.679,119.711 454.355,120.828 456.079,120.484 C457.802,120.139 458.919,118.463 458.575,116.74 C457.862,113.175 455.961,110.189 452.932,107.159 C449.195,103.771 447.998,98.583 449.817,94.048 C450.471,92.417 449.679,90.564 448.048,89.91 C446.417,89.256 444.564,90.048 443.91,91.679 Z" />
            <path d="M455.455,133.273 L474.545,133.273 C476.303,133.273 477.727,131.848 477.727,130.091 C477.727,128.334 476.303,126.909 474.545,126.909 L455.455,126.909 C453.697,126.909 452.273,128.334 452.273,130.091 C452.273,131.848 453.697,133.273 455.455,133.273 Z" />
            <path d="M458.636,146 L471.364,146 C473.121,146 474.545,144.575 474.545,142.818 C474.545,141.061 473.121,139.636 471.364,139.636 L458.636,139.636 C456.879,139.636 455.455,141.061 455.455,142.818 C455.455,144.575 456.879,146 458.636,146 Z" />
        </g>
        <g id="Black-M" transform="translate(0,200)">
            <path d="M682.651,110.568 C685.694,107.145 687.273,102.902 687.273,98.273 C687.258,90.083 682.755,82.566 675.547,78.69 C668.339,74.815 659.585,75.205 652.75,79.706 C651.282,80.673 650.876,82.646 651.843,84.114 C652.809,85.581 654.782,85.987 656.25,85.021 C661.132,81.806 667.385,81.527 672.534,84.295 C677.682,87.064 680.898,92.433 680.909,98.279 C680.909,101.359 679.891,104.094 677.895,106.341 C676.727,107.654 676.845,109.665 678.159,110.833 C679.472,112 681.483,111.882 682.651,110.568 Z" />
            <path d="M630.932,81.432 L694.568,145.068 C695.811,146.311 697.826,146.311 699.068,145.068 C700.311,143.825 700.311,141.811 699.068,140.568 L635.432,76.932 C634.189,75.689 632.174,75.689 630.932,76.932 C629.689,78.175 629.689,80.189 630.932,81.432 Z" />
            <path d="M643.91,91.679 C641.101,98.686 642.95,106.701 648.546,111.768 C650.652,113.879 651.907,115.852 652.335,117.988 C652.679,119.711 654.355,120.828 656.079,120.484 C657.802,120.139 658.919,118.463 658.575,116.74 C657.862,113.175 655.961,110.189 652.932,107.159 C649.195,103.771 647.998,98.583 649.817,94.048 C650.471,92.417 649.679,90.564 648.048,89.91 C646.417,89.256 644.565,90.048 643.91,91.679 Z" />
            <path d="M655.455,133.273 L674.545,133.273 C676.303,133.273 677.727,131.848 677.727,130.091 C677.727,128.334 676.303,126.909 674.545,126.909 L655.455,126.909 C653.697,126.909 652.273,128.334 652.273,130.091 C652.273,131.848 653.697,133.273 655.455,133.273 Z" />
            <path d="M658.636,146 L671.364,146 C673.121,146 674.545,144.575 674.545,142.818 C674.545,141.061 673.121,139.636 671.364,139.636 L658.636,139.636 C656.879,139.636 655.455,141.061 655.455,142.818 C655.455,144.575 656.879,146 658.636,146 Z" />
        </g>
    </g>
</svg>