<?xml version="1.0" encoding="UTF-8"?>
<svg height="600" width="800" xmlns="http://www.w3.org/2000/svg" xmlns:xlink="http://www.w3.org/1999/xlink">
    <g id="Notes" font-family="LucidaGrande, 'Lucida Grande', sans-serif" font-size="13">
        <rect fill="white" height="600.0" width="800.0" x="0.0" y="0.0" />
        <g font-size="13">
            <text x="18.0" y="176.0">Small</text>
            <text x="18.0" y="376.0">Medium</text>
            <text x="18.0" y="576.0">Large</text>
        </g>
        <g font-size="9">
            <text x="250.0" y="30.0">Ultralight</text>
            <text x="450.0" y="30.0">Regular</text>
            <text x="650.0" y="30.0">Black</text>
            <text id="template-version" fill="#505050" text-anchor="end" x="785.0" y="575.0">Template v.3.0</text>
            <a href="https://github.com/swhitty/SwiftDraw">
                <text fill="#505050" text-anchor="end" x="785.0" y="590.0">https://github.com/swhitty/SwiftDraw</text>
            </a>
        </g>
    </g>
    <g id="Guides" stroke="rgb(39, 170, 225)" stroke-width="0.5">
        <path id="Capline-S" d="M18,76 l800,0" />
        <path id="H-reference" d="M85,145.755 L87.685,145.755 L113.369,79.287 L114.052,79.287 L114.052,76 L112.148,76 L85,145.755 Z M95.693,121.536 L130.996,121.536 L130.263,119.313 L96.474,119.313 L95.693,121.536 Z M139.15,145.755 L141.787,145.755 L114.638,76 L113.466,76 L113.466,79.287 L139.15,145.755 Z" stroke="none" transform="translate(0,200)" />
        <path id="Baseline-S" d="M18,146 l800,0" />
        <path id="left-margin-Ultralight-M" d="M228.158,256 l0,110" />
        <path id="right-margin-Ultralight-M" d="M301.842,256 l0,110" />
        <path id="left-margin-Regular-M" d="M428.158,256 l0,110" />
        <path id="right-margin-Regular-M" d="M501.842,256 l0,110" />
        <path id="left-margin-Black-M" d="M628.158,256 l0,110" />
        <path id="right-margin-Black-M" d="M701.842,256 l0,110" />
        <path id="Capline-M" d="M18,276 l800,0" />
        <path id="Baseline-M" d="M18,346 l800,0" />
        <path id="Capline-L" d="M18,476 l800,0" />
        <path id="Baseline-L" d="M18,546 l800,0" />
    </g>
    <g id="Symbols">
        <g id="Ultralight-M" transform="translate(0,200)">
            <path d="M231.842,94.421 L253.947,94.421 C255.982,94.421 257.632,92.772 257.632,90.737 C257.632,88.702 255.982,87.053 253.947,87.053 L231.842,87.053 C229.807,87.053 228.158,88.702 228.158,90.737 C228.158,92.772 229.807,94.421 231.842,94.421 Z" />
            <path d="M231.842,120.211 L279.737,120.211 C281.772,120.211 283.421,118.561 283.421,116.526 C283.421,114.492 281.772,112.842 279.737,112.842 L231.842,112.842 C229.807,112.842 228.158,114.492 228.158,116.526 C228.158,118.561 229.807,120.211 231.842,120.211 Z" />
            <path d="M231.842,146 L279.737,146 C281.772,146 283.421,144.351 283.421,142.316 C283.421,140.281 281.772,138.632 279.737,138.632 L231.842,138.632 C229.807,138.632 228.158,140.281 228.158,142.316 C228.158,144.351 229.807,146 231.842,146 Z" />
            <path d="M282.342,99.184 L271.289,88.132 L271.289,93.342 L282.342,82.289 C283.781,80.851 283.781,78.518 282.342,77.079 C280.903,75.64 278.57,75.64 277.132,77.079 L266.079,88.132 C264.64,89.57 264.64,91.903 266.079,93.342 L277.132,104.395 C278.57,105.833 280.903,105.833 282.342,104.395 C283.781,102.956 283.781,100.623 282.342,99.184 Z" />
            <path d="M301.842,142.316 L301.842,98.105 C301.842,95.174 300.678,92.363 298.605,90.29 C296.532,88.217 293.721,87.053 290.789,87.053 L268.684,87.053 C266.649,87.053 265,88.702 265,90.737 C265,92.772 266.649,94.421 268.684,94.421 L290.789,94.421 C291.767,94.421 292.704,94.809 293.395,95.5 C294.086,96.191 294.474,97.128 294.474,98.105 L294.474,142.316 C294.474,144.351 296.123,146 298.158,146 C300.193,146 301.842,144.351 301.842,142.316 Z" />
        </g>
        <g id="Regular-M" transform="translate(0,200)">
            <path d="M431.842,94.421 L453.947,94.421 C455.982,94.421 457.632,92.772 457.632,90.737 C457.632,88.702 455.982,87.053 453.947,87.053 L431.842,87.053 C429.807,87.053 428.158,88.702 428.158,90.737 C428.158,92.772 429.807,94.421 431.842,94.421 Z" />
            <path d="M431.842,120.211 L479.737,120.211 C481.772,120.211 483.421,118.561 483.421,116.526 C483.421,114.492 481.772,112.842 479.737,112.842 L431.842,112.842 C429.807,112.842 428.158,114.492 428.158,116.526 C428.158,118.561 429.807,120.211 431.842,120.211 Z" />
            <path d="M431.842,146 L479.737,146 C481.772,146 483.421,144.351 483.421,142.316 C483.421,140.281 481.772,138.632 479.737,138.632 L431.842,138.632 C429.807,138.632 428.158,140.281 428.158,142.316 C428.158,144.351 429.807,146 431.842,146 Z" />
            <path d="M482.342,99.184 L471.289,88.132 L471.289,93.342 L482.342,82.289 C483.781,80.851 483.781,78.518 482.342,77.079 C480.903,75.64 478.57,75.64 477.132,77.079 L466.079,88.132 C464.64,89.57 464.64,91.903 466.079,93.342 L477.132,104.395 C478.57,105.833 480.903,105.833 482.342,104.395 C483.781,102.956 483.781,100.623 482.342,99.184 Z" />
            <path d="M501.842,142.316 L501.842,98.105 C501.842,95.174 500.678,92.363 498.605,90.29 C496.532,88.217 493.721,87.053 490.789,87.053 L468.684,87.053 C466.649,87.053 465,88.702 465,90.737 C465,92.772 466.649,94.421 468.684,94.421 L490.789,94.421 C491.767,94.421 492.704,94.809 493.395,95.5 C494.086,96.191 494.474,97.128 494.474,98.105 L494.474,142.316 C494.474,144.351 496.123,146 498.158,146 C500.193,146 501.842,144.351 501.842,142.316 Z" />
        </g>
        <g id="Black-M" transform="translate(0,200)">
            <path d="M631.842,94.421 L653.947,94.421 C655.982,94.421 657.632,92.772 657.632,90.737 C657.632,88.702 655.982,87.053 653.947,87.053 L631.842,87.053 C629.807,87.053 628.158,88.702 628.158,90.737 C628.158,92.772 629.807,94.421 631.842,94.421 Z" />
            <path d="M631.842,120.211 L679.737,120.211 C681.772,120.211 683.421,118.561 683.421,116.526 C683.421,114.492 681.772,112.842 679.737,112.842 L631.842,112.842 C629.807,112.842 628.158,114.492 628.158,116.526 C628.158,118.561 629.807,120.211 631.842,120.211 Z" />
            <path d="M631.842,146 L679.737,146 C681.772,146 683.421,144.351 683.421,142.316 C683.421,140.281 681.772,138.632 679.737,138.632 L631.842,138.632 C629.807,138.632 628.158,140.281 628.158,142.316 C628.158,144.351 629.807,146 631.842,146 Z" />
            <path d="M682.342,99.184 L671.289,88.132 L671.289,93.342 L682.342,82.289 C683.781,80.851 683.781,78.518 682.342,77.079 C680.903,75.64 678.57,75.64 677.132,77.079 L666.079,88.132 C664.64,89.57 664.64,91.903 666.079,93.342 L677.132,104.395 C678.57,105.833 680.903,105.833 682.342,104.395 C683.781,102.956 683.781,100.623 682.342,99.184 Z" />
            <path d="M701.842,142.316 L701.842,98.105 C701.842,95.174 700.678,92.363 698.605,90.29 C696.532,88.217 693.721,87.053 690.789,87.053 L668.684,87.053 C666.649,87.053 665,88.702 665,90.737 C665,92.772 666.649,94.421 668.684,94.421 L690.789,94.421 C691.767,94.421 692.704,94.809 693.395,95.5 C694.086,96.191 694.474,97.128 694.474,98.105 L694.474,142.316 C694.474,144.351 696.123,146 698.158,146 C700.193,146 701.842,144.351 701.842,142.316 Z" />
        </g>
    </g>
</svg>