<?xml version="1.0" encoding="UTF-8"?>
<svg height="600" width="800" xmlns="http://www.w3.org/2000/svg" xmlns:xlink="http://www.w3.org/1999/xlink">
    <g id="Notes" font-family="LucidaGrande, 'Lucida Grande', sans-serif" font-size="13">
        <rect fill="white" height="600.0" width="800.0" x="0.0" y="0.0" />
        <g font-size="13">
            <text x="18.0" y="176.0">Small</text>
            <text x="18.0" y="376.0">Medium</text>
            <text x="18.0" y="576.0">Large</text>
        </g>
        <g font-size="9">
            <text x="250.0" y="30.0">Ultralight</text>
            <text x="450.0" y="30.0">Regular</text>
            <text x="650.0" y="30.0">Black</text>
            <text id="template-version" fill="#505050" text-anchor="end" x="785.0" y="575.0">Template v.3.0</text>
            <a href="https://github.com/swhitty/SwiftDraw">
                <text fill="#505050" text-anchor="end" x="785.0" y="590.0">https://github.com/swhitty/SwiftDraw</text>
            </a>
        </g>
    </g>
    <g id="Guides" stroke="rgb(39, 170, 225)" stroke-width="0.5">
        <path id="Capline-S" d="M18,76 l800,0" />
        <path id="H-reference" d="M85,145.755 L87.685,145.755 L113.369,79.287 L114.052,79.287 L114.052,76 L112.148,76 L85,145.755 Z M95.693,121.536 L130.996,121.536 L130.263,119.313 L96.474,119.313 L95.693,121.536 Z M139.15,145.755 L141.787,145.755 L114.638,76 L113.466,76 L113.466,79.287 L139.15,145.755 Z" stroke="none" transform="translate(0,200)" />
        <path id="Baseline-S" d="M18,146 l800,0" />
        <path id="left-margin-Ultralight-M" d="M221.25,256 l0,110" />
        <path id="right-margin-Ultralight-M" d="M308.75,256 l0,110" />
        <path id="left-margin-Regular-M" d="M421.25,256 l0,110" />
        <path id="right-margin-Regular-M" d="M508.75,256 l0,110" />
        <path id="left-margin-Black-M" d="M621.25,256 l0,110" />
        <path id="right-margin-Black-M" d="M708.75,256 l0,110" />
        <path id="Capline-M" d="M18,276 l800,0" />
        <path id="Baseline-M" d="M18,346 l800,0" />
        <path id="Capline-L" d="M18,476 l800,0" />
        <path id="Baseline-L" d="M18,546 l800,0" />
    </g>
    <g id="Symbols">
        <g id="Ultralight-M" transform="translate(0,200)">
            <path d="M282.5,76 L225.625,76 C223.209,76 221.25,77.959 221.25,80.375 C221.25,82.791 223.209,84.75 225.625,84.75 L282.5,84.75 C284.916,84.75 286.875,82.791 286.875,80.375 C286.875,77.959 284.916,76 282.5,76 Z" />
            <path d="M260.625,106.625 L225.625,106.625 C223.209,106.625 221.25,108.584 221.25,111 C221.25,113.416 223.209,115.375 225.625,115.375 L260.625,115.375 C263.041,115.375 265,113.416 265,111 C265,108.584 263.041,106.625 260.625,106.625 Z" />
            <path d="M260.625,137.25 L225.625,137.25 C223.209,137.25 221.25,139.209 221.25,141.625 C221.25,144.041 223.209,146 225.625,146 L260.625,146 C263.041,146 265,144.041 265,141.625 C265,139.209 263.041,137.25 260.625,137.25 Z" />
            <path d="M308.75,128.5 L308.75,80.375 C308.75,77.959 306.791,76 304.375,76 C301.959,76 300,77.959 300,80.375 L300,128.5 C300,130.916 301.959,132.875 304.375,132.875 C306.791,132.875 308.75,130.916 308.75,128.5 Z" />
            <path d="M282.5,128.5 C282.5,123.668 286.418,119.75 291.25,119.75 C296.082,119.75 300,123.668 300,128.5 C300,133.332 296.082,137.25 291.25,137.25 C286.418,137.25 282.5,133.332 282.5,128.5 Z M273.75,128.5 C273.75,138.165 281.585,146 291.25,146 C300.915,146 308.75,138.165 308.75,128.5 C308.75,118.835 300.915,111 291.25,111 C281.585,111 273.75,118.835 273.75,128.5 Z" />
        </g>
        <g id="Regular-M" transform="translate(0,200)">
            <path d="M482.5,76 L425.625,76 C423.209,76 421.25,77.959 421.25,80.375 C421.25,82.791 423.209,84.75 425.625,84.75 L482.5,84.75 C484.916,84.75 486.875,82.791 486.875,80.375 C486.875,77.959 484.916,76 482.5,76 Z" />
            <path d="M460.625,106.625 L425.625,106.625 C423.209,106.625 421.25,108.584 421.25,111 C421.25,113.416 423.209,115.375 425.625,115.375 L460.625,115.375 C463.041,115.375 465,113.416 465,111 C465,108.584 463.041,106.625 460.625,106.625 Z" />
            <path d="M460.625,137.25 L425.625,137.25 C423.209,137.25 421.25,139.209 421.25,141.625 C421.25,144.041 423.209,146 425.625,146 L460.625,146 C463.041,146 465,144.041 465,141.625 C465,139.209 463.041,137.25 460.625,137.25 Z" />
            <path d="M508.75,128.5 L508.75,80.375 C508.75,77.959 506.791,76 504.375,76 C501.959,76 500,77.959 500,80.375 L500,128.5 C500,130.916 501.959,132.875 504.375,132.875 C506.791,132.875 508.75,130.916 508.75,128.5 Z" />
            <path d="M482.5,128.5 C482.5,123.668 486.418,119.75 491.25,119.75 C496.082,119.75 500,123.668 500,128.5 C500,133.332 496.082,137.25 491.25,137.25 C486.418,137.25 482.5,133.332 482.5,128.5 Z M473.75,128.5 C473.75,138.165 481.585,146 491.25,146 C500.915,146 508.75,138.165 508.75,128.5 C508.75,118.835 500.915,111 491.25,111 C481.585,111 473.75,118.835 473.75,128.5 Z" />
        </g>
        <g id="Black-M" transform="translate(0,200)">
            <path d="M682.5,76 L625.625,76 C623.209,76 621.25,77.959 621.25,80.375 C621.25,82.791 623.209,84.75 625.625,84.75 L682.5,84.75 C684.916,84.75 686.875,82.791 686.875,80.375 C686.875,77.959 684.916,76 682.5,76 Z" />
            <path d="M660.625,106.625 L625.625,106.625 C623.209,106.625 621.25,108.584 621.25,111 C621.25,113.416 623.209,115.375 625.625,115.375 L660.625,115.375 C663.041,115.375 665,113.416 665,111 C665,108.584 663.041,106.625 660.625,106.625 Z" />
            <path d="M660.625,137.25 L625.625,137.25 C623.209,137.25 621.25,139.209 621.25,141.625 C621.25,144.041 623.209,146 625.625,146 L660.625,146 C663.041,146 665,144.041 665,141.625 C665,139.209 663.041,137.25 660.625,137.25 Z" />
            <path d="M708.75,128.5 L708.75,80.375 C708.75,77.959 706.791,76 704.375,76 C701.959,76 700,77.959 700,80.375 L700,128.5 C700,130.916 701.959,132.875 704.375,132.875 C706.791,132.875 708.75,130.916 708.75,128.5 Z" />
            <path d="M682.5,128.5 C682.5,123.668 686.417,119.75 691.25,119.75 C696.083,119.75 700,123.668 700,128.5 C700,133.332 696.083,137.25 691.25,137.25 C686.417,137.25 682.5,133.332 682.5,128.5 Z M673.75,128.5 C673.75,138.165 681.585,146 691.25,146 C700.915,146 708.75,138.165 708.75,128.5 C708.75,118.835 700.915,111 691.25,111 C681.585,111 673.75,118.835 673.75,128.5 Z" />
        </g>
    </g>
</svg>