<?xml version="1.0" encoding="UTF-8"?>
<svg height="600" width="800" xmlns="http://www.w3.org/2000/svg" xmlns:xlink="http://www.w3.org/1999/xlink">
    <g id="Notes" font-family="LucidaGrande, 'Lucida Grande', sans-serif" font-size="13">
        <rect fill="white" height="600.0" width="800.0" x="0.0" y="0.0" />
        <g font-size="13">
            <text x="18.0" y="176.0">Small</text>
            <text x="18.0" y="376.0">Medium</text>
            <text x="18.0" y="576.0">Large</text>
        </g>
        <g font-size="9">
            <text x="250.0" y="30.0">Ultralight</text>
            <text x="450.0" y="30.0">Regular</text>
            <text x="650.0" y="30.0">Black</text>
            <text id="template-version" fill="#505050" text-anchor="end" x="785.0" y="575.0">Template v.3.0</text>
            <a href="https://github.com/swhitty/SwiftDraw">
                <text fill="#505050" text-anchor="end" x="785.0" y="590.0">https://github.com/swhitty/SwiftDraw</text>
            </a>
        </g>
    </g>
    <g id="Guides" stroke="rgb(39, 170, 225)" stroke-width="0.5">
        <path id="Capline-S" d="M18,76 l800,0" />
        <path id="H-reference" d="M85,145.755 L87.685,145.755 L113.369,79.287 L114.052,79.287 L114.052,76 L112.148,76 L85,145.755 Z M95.693,121.536 L130.996,121.536 L130.263,119.313 L96.474,119.313 L95.693,121.536 Z M139.15,145.755 L141.787,145.755 L114.638,76 L113.466,76 L113.466,79.287 L139.15,145.755 Z" stroke="none" transform="translate(0,200)" />
        <path id="Baseline-S" d="M18,146 l800,0" />
        <path id="left-margin-Ultralight-M" d="M230,256 l0,110" />
        <path id="right-margin-Ultralight-M" d="M300,256 l0,110" />
        <path id="left-margin-Regular-M" d="M430,256 l0,110" />
        <path id="right-margin-Regular-M" d="M500,256 l0,110" />
        <path id="left-margin-Black-M" d="M630,256 l0,110" />
        <path id="right-margin-Black-M" d="M700,256 l0,110" />
        <path id="Capline-M" d="M18,276 l800,0" />
        <path id="Baseline-M" d="M18,346 l800,0" />
        <path id="Capline-L" d="M18,476 l800,0" />
        <path id="Baseline-L" d="M18,546 l800,0" />
    </g>
    <g id="Symbols">
        <g id="Ultralight-M" transform="translate(0,200)">
            <path d="M237,107.5 C237,93.969 247.969,83 261.5,83 C275.031,83 286,93.969 286,107.5 C286,121.031 275.031,132 261.5,132 C247.969,132 237,121.031 237,107.5 Z M230,107.5 C230,124.897 244.103,139 261.5,139 C278.897,139 293,124.897 293,107.5 C293,90.103 278.897,76 261.5,76 C244.103,76 230,90.103 230,107.5 Z" />
            <path d="M298.975,140.025 L283.925,124.975 C282.558,123.608 280.342,123.608 278.975,124.975 C277.608,126.342 277.608,128.558 278.975,129.925 L294.025,144.975 C295.392,146.342 297.608,146.342 298.975,144.975 C300.342,143.608 300.342,141.392 298.975,140.025 Z" />
            <path d="M258,107.5 C258,113.299 262.701,118 268.5,118 C274.299,118 279,113.299 279,107.5 C279,97.835 271.165,90 261.5,90 C251.835,90 244,97.835 244,107.5 C244,121.031 254.969,132 268.5,132 C282.031,132 293,121.031 293,107.5 C293,105.567 291.433,104 289.5,104 C287.567,104 286,105.567 286,107.5 C286,117.165 278.165,125 268.5,125 C258.835,125 251,117.165 251,107.5 C251,101.701 255.701,97 261.5,97 C267.299,97 272,101.701 272,107.5 C272,109.433 270.433,111 268.5,111 C266.567,111 265,109.433 265,107.5 C265,105.567 263.433,104 261.5,104 C259.567,104 258,105.567 258,107.5 Z" />
        </g>
        <g id="Regular-M" transform="translate(0,200)">
            <path d="M437,107.5 C437,93.969 447.969,83 461.5,83 C475.031,83 486,93.969 486,107.5 C486,121.031 475.031,132 461.5,132 C447.969,132 437,121.031 437,107.5 Z M430,107.5 C430,124.897 444.103,139 461.5,139 C478.897,139 493,124.897 493,107.5 C493,90.103 478.897,76 461.5,76 C444.103,76 430,90.103 430,107.5 Z" />
            <path d="M498.975,140.025 L483.925,124.975 C482.558,123.608 480.342,123.608 478.975,124.975 C477.608,126.342 477.608,128.558 478.975,129.925 L494.025,144.975 C495.392,146.342 497.608,146.342 498.975,144.975 C500.342,143.608 500.342,141.392 498.975,140.025 Z" />
            <path d="M458,107.5 C458,113.299 462.701,118 468.5,118 C474.299,118 479,113.299 479,107.5 C479,97.835 471.165,90 461.5,90 C451.835,90 444,97.835 444,107.5 C444,121.031 454.969,132 468.5,132 C482.031,132 493,121.031 493,107.5 C493,105.567 491.433,104 489.5,104 C487.567,104 486,105.567 486,107.5 C486,117.165 478.165,125 468.5,125 C458.835,125 451,117.165 451,107.5 C451,101.701 455.701,97 461.5,97 C467.299,97 472,101.701 472,107.5 C472,109.433 470.433,111 468.5,111 C466.567,111 465,109.433 465,107.5 C465,105.567 463.433,104 461.5,104 C459.567,104 458,105.567 458,107.5 Z" />
        </g>
        <g id="Black-M" transform="translate(0,200)">
            <path d="M637,107.5 C637,93.969 647.969,83 661.5,83 C675.031,83 686,93.969 686,107.5 C686,121.031 675.031,132 661.5,132 C647.969,132 637,121.031 637,107.5 Z M630,107.5 C630,124.897 644.103,139 661.5,139 C678.897,139 693,124.897 693,107.5 C693,90.103 678.897,76 661.5,76 C644.103,76 630,90.103 630,107.5 Z" />
            <path d="M698.975,140.025 L683.925,124.975 C682.558,123.608 680.342,123.608 678.975,124.975 C677.608,126.342 677.608,128.558 678.975,129.925 L694.025,144.975 C695.392,146.342 697.608,146.342 698.975,144.975 C700.342,143.608 700.342,141.392 698.975,140.025 Z" />
            <path d="M658,107.5 C658,113.299 662.701,118 668.5,118 C674.299,118 679,113.299 679,107.5 C679,97.835 671.165,90 661.5,90 C651.835,90 644,97.835 644,107.5 C644,121.031 654.969,132 668.5,132 C682.031,132 693,121.031 693,107.5 C693,105.567 691.433,104 689.5,104 C687.567,104 686,105.567 686,107.5 C686,117.165 678.165,125 668.5,125 C658.835,125 651,117.165 651,107.5 C651,101.701 655.701,97 661.5,97 C667.299,97 672,101.701 672,107.5 C672,109.433 670.433,111 668.5,111 C666.567,111 665,109.433 665,107.5 C665,105.567 663.433,104 661.5,104 C659.567,104 658,105.567 658,107.5 Z" />
        </g>
    </g>
</svg>