<?xml version="1.0" encoding="UTF-8"?>
<svg height="600" width="800" xmlns="http://www.w3.org/2000/svg" xmlns:xlink="http://www.w3.org/1999/xlink">
    <g id="Notes" font-family="LucidaGrande, 'Lucida Grande', sans-serif" font-size="13">
        <rect fill="white" height="600.0" width="800.0" x="0.0" y="0.0" />
        <g font-size="13">
            <text x="18.0" y="176.0">Small</text>
            <text x="18.0" y="376.0">Medium</text>
            <text x="18.0" y="576.0">Large</text>
        </g>
        <g font-size="9">
            <text x="250.0" y="30.0">Ultralight</text>
            <text x="450.0" y="30.0">Regular</text>
            <text x="650.0" y="30.0">Black</text>
            <text id="template-version" fill="#505050" text-anchor="end" x="785.0" y="575.0">Template v.3.0</text>
            <a href="https://github.com/swhitty/SwiftDraw">
                <text fill="#505050" text-anchor="end" x="785.0" y="590.0">https://github.com/swhitty/SwiftDraw</text>
            </a>
        </g>
    </g>
    <g id="Guides" stroke="rgb(39, 170, 225)" stroke-width="0.5">
        <path id="Capline-S" d="M18,76 l800,0" />
        <path id="H-reference" d="M85,145.755 L87.685,145.755 L113.369,79.287 L114.052,79.287 L114.052,76 L112.148,76 L85,145.755 Z M95.693,121.536 L130.996,121.536 L130.263,119.313 L96.474,119.313 L95.693,121.536 Z M139.15,145.755 L141.787,145.755 L114.638,76 L113.466,76 L113.466,79.287 L139.15,145.755 Z" stroke="none" transform="translate(0,200)" />
        <path id="Baseline-S" d="M18,146 l800,0" />
        <path id="left-margin-Ultralight-M" d="M226.5,256 l0,110" />
        <path id="right-margin-Ultralight-M" d="M303.5,256 l0,110" />
        <path id="left-margin-Regular-M" d="M426.5,256 l0,110" />
        <path id="right-margin-Regular-M" d="M503.5,256 l0,110" />
        <path id="left-margin-Black-M" d="M626.5,256 l0,110" />
        <path id="right-margin-Black-M" d="M703.5,256 l0,110" />
        <path id="Capline-M" d="M18,276 l800,0" />
        <path id="Baseline-M" d="M18,346 l800,0" />
        <path id="Capline-L" d="M18,476 l800,0" />
        <path id="Baseline-L" d="M18,546 l800,0" />
    </g>
    <g id="Symbols">
        <g id="Ultralight-M" transform="translate(0,200)">
            <path d="M274.487,124.761 C273.247,126.008 272.339,127.549 271.847,129.242 L268.936,139.283 C268.403,141.123 268.909,143.108 270.255,144.463 C271.602,145.818 273.576,146.327 275.405,145.79 L285.385,142.862 C287.069,142.367 288.601,141.454 289.841,140.207 L300.316,129.683 C303.063,126.92 304.135,122.895 303.129,119.123 C302.124,115.351 299.195,112.406 295.445,111.396 C291.695,110.386 287.695,111.465 284.951,114.228 L274.485,124.763 Z M279.405,129.708 L289.87,119.173 C290.858,118.179 292.297,117.791 293.647,118.154 C294.996,118.518 296.05,119.578 296.412,120.935 C296.773,122.292 296.388,123.74 295.4,124.734 L284.924,135.258 C284.508,135.676 283.998,135.981 283.437,136.146 L273.457,139.073 C274.067,138.895 274.725,139.064 275.173,139.516 C275.622,139.967 275.791,140.629 275.613,141.242 L278.524,131.202 C278.687,130.639 278.99,130.125 279.403,129.71 Z" />
            <path d="M303.006,101.698 L303.006,86.495 C303.006,83.711 301.907,81.042 299.95,79.074 C297.994,77.106 295.34,76 292.573,76 L236.933,76 C234.166,76 231.512,77.106 229.556,79.074 C227.599,81.042 226.5,83.711 226.5,86.495 L226.5,128.474 C226.5,131.257 227.599,133.926 229.556,135.895 C231.512,137.863 234.166,138.968 236.933,138.968 L259.175,138.968 C261.095,138.968 262.652,137.402 262.652,135.47 C262.652,133.538 261.095,131.972 259.175,131.972 L236.933,131.972 C236.01,131.972 235.126,131.603 234.474,130.947 C233.821,130.291 233.455,129.402 233.455,128.474 L233.455,86.495 C233.455,85.567 233.821,84.677 234.474,84.021 C235.126,83.365 236.01,82.996 236.933,82.996 L292.573,82.996 C293.495,82.996 294.38,83.365 295.032,84.021 C295.684,84.677 296.051,85.567 296.051,86.495 L296.051,101.698 C296.051,103.63 297.608,105.196 299.528,105.196 C301.449,105.196 303.006,103.63 303.006,101.698 Z" />
            <path d="M297.66,87.042 L266.393,107.077 C265.435,107.633 264.102,107.633 263.022,107.002 L231.844,87.042 C230.224,86.004 228.075,86.485 227.044,88.115 C226.013,89.745 226.49,91.907 228.111,92.944 L259.408,112.979 C262.768,114.945 266.768,114.945 270.008,113.052 L301.396,92.944 C303.016,91.906 303.493,89.743 302.461,88.114 C301.429,86.484 299.28,86.005 297.66,87.042 Z" />
        </g>
        <g id="Regular-M" transform="translate(0,200)">
            <path d="M474.487,124.761 C473.247,126.008 472.339,127.549 471.847,129.242 L468.936,139.283 C468.403,141.123 468.909,143.108 470.255,144.463 C471.602,145.818 473.576,146.327 475.405,145.79 L485.385,142.862 C487.069,142.367 488.601,141.454 489.841,140.207 L500.316,129.683 C503.063,126.92 504.135,122.895 503.129,119.123 C502.124,115.351 499.195,112.406 495.445,111.396 C491.695,110.386 487.695,111.465 484.951,114.228 L474.485,124.763 Z M479.405,129.708 L489.87,119.173 C490.858,118.179 492.297,117.791 493.647,118.154 C494.996,118.518 496.05,119.578 496.412,120.935 C496.773,122.292 496.388,123.74 495.4,124.734 L484.924,135.258 C484.508,135.676 483.998,135.981 483.437,136.146 L473.457,139.073 C474.067,138.895 474.725,139.064 475.173,139.516 C475.622,139.967 475.791,140.629 475.613,141.242 L478.524,131.202 C478.687,130.639 478.99,130.125 479.403,129.71 Z" />
            <path d="M503.006,101.698 L503.006,86.495 C503.006,83.711 501.907,81.042 499.95,79.074 C497.994,77.106 495.34,76 492.573,76 L436.933,76 C434.166,76 431.512,77.106 429.556,79.074 C427.599,81.042 426.5,83.711 426.5,86.495 L426.5,128.474 C426.5,131.257 427.599,133.926 429.556,135.895 C431.512,137.863 434.166,138.968 436.933,138.968 L459.175,138.968 C461.095,138.968 462.652,137.402 462.652,135.47 C462.652,133.538 461.095,131.972 459.175,131.972 L436.933,131.972 C436.01,131.972 435.126,131.603 434.474,130.947 C433.821,130.291 433.455,129.402 433.455,128.474 L433.455,86.495 C433.455,85.567 433.821,84.677 434.474,84.021 C435.126,83.365 436.01,82.996 436.933,82.996 L492.573,82.996 C493.495,82.996 494.38,83.365 495.032,84.021 C495.684,84.677 496.051,85.567 496.051,86.495 L496.051,101.698 C496.051,103.63 497.608,105.196 499.528,105.196 C501.449,105.196 503.006,103.63 503.006,101.698 Z" />
            <path d="M497.66,87.042 L466.393,107.077 C465.435,107.633 464.102,107.633 463.022,107.002 L431.844,87.042 C430.224,86.004 428.075,86.485 427.044,88.115 C426.013,89.745 426.49,91.907 428.111,92.944 L459.408,112.979 C462.768,114.945 466.768,114.945 470.008,113.052 L501.396,92.944 C503.016,91.906 503.493,89.743 502.461,88.114 C501.429,86.484 499.28,86.005 497.66,87.042 Z" />
        </g>
        <g id="Black-M" transform="translate(0,200)">
            <path d="M674.487,124.761 C673.247,126.008 672.339,127.549 671.847,129.242 L668.936,139.283 C668.403,141.123 668.909,143.108 670.255,144.463 C671.602,145.818 673.576,146.327 675.405,145.79 L685.385,142.862 C687.069,142.367 688.601,141.454 689.841,140.207 L700.316,129.683 C703.063,126.92 704.135,122.895 703.13,119.123 C702.124,115.351 699.195,112.406 695.445,111.396 C691.695,110.386 687.695,111.465 684.951,114.228 L674.485,124.763 Z M679.405,129.708 L689.87,119.173 C690.858,118.179 692.297,117.791 693.647,118.154 C694.996,118.518 696.05,119.578 696.412,120.935 C696.773,122.292 696.388,123.74 695.4,124.734 L684.924,135.258 C684.508,135.676 683.998,135.981 683.437,136.146 L673.457,139.073 C674.067,138.895 674.724,139.064 675.173,139.516 C675.622,139.967 675.791,140.629 675.613,141.242 L678.524,131.202 C678.687,130.639 678.99,130.125 679.403,129.71 Z" />
            <path d="M703.006,101.698 L703.006,86.495 C703.006,83.711 701.906,81.042 699.95,79.074 C697.994,77.106 695.34,76 692.573,76 L636.933,76 C634.166,76 631.512,77.106 629.556,79.074 C627.599,81.042 626.5,83.711 626.5,86.495 L626.5,128.474 C626.5,131.257 627.599,133.926 629.556,135.895 C631.512,137.863 634.166,138.968 636.933,138.968 L659.175,138.968 C661.095,138.968 662.652,137.402 662.652,135.47 C662.652,133.538 661.095,131.972 659.175,131.972 L636.933,131.972 C636.01,131.972 635.126,131.603 634.474,130.947 C633.821,130.291 633.455,129.402 633.455,128.474 L633.455,86.495 C633.455,85.567 633.821,84.677 634.474,84.021 C635.126,83.365 636.01,82.996 636.933,82.996 L692.573,82.996 C693.495,82.996 694.38,83.365 695.032,84.021 C695.684,84.677 696.051,85.567 696.051,86.495 L696.051,101.698 C696.051,103.63 697.608,105.196 699.528,105.196 C701.449,105.196 703.006,103.63 703.006,101.698 Z" />
            <path d="M697.66,87.042 L666.393,107.077 C665.435,107.633 664.102,107.633 663.022,107.002 L631.844,87.042 C630.224,86.004 628.075,86.485 627.044,88.115 C626.013,89.745 626.49,91.907 628.111,92.944 L659.408,112.979 C662.768,114.945 666.768,114.945 670.008,113.052 L701.396,92.944 C703.016,91.906 703.493,89.743 702.461,88.114 C701.429,86.484 699.28,86.005 697.66,87.042 Z" />
        </g>
    </g>
</svg>