<?xml version="1.0" encoding="UTF-8"?>
<svg height="600" width="800" xmlns="http://www.w3.org/2000/svg" xmlns:xlink="http://www.w3.org/1999/xlink">
    <g id="Notes" font-family="LucidaGrande, 'Lucida Grande', sans-serif" font-size="13">
        <rect fill="white" height="600.0" width="800.0" x="0.0" y="0.0" />
        <g font-size="13">
            <text x="18.0" y="176.0">Small</text>
            <text x="18.0" y="376.0">Medium</text>
            <text x="18.0" y="576.0">Large</text>
        </g>
        <g font-size="9">
            <text x="250.0" y="30.0">Ultralight</text>
            <text x="450.0" y="30.0">Regular</text>
            <text x="650.0" y="30.0">Black</text>
            <text id="template-version" fill="#505050" text-anchor="end" x="785.0" y="575.0">Template v.3.0</text>
            <a href="https://github.com/swhitty/SwiftDraw">
                <text fill="#505050" text-anchor="end" x="785.0" y="590.0">https://github.com/swhitty/SwiftDraw</text>
            </a>
        </g>
    </g>
    <g id="Guides" stroke="rgb(39, 170, 225)" stroke-width="0.5">
        <path id="Capline-S" d="M18,76 l800,0" />
        <path id="H-reference" d="M85,145.755 L87.685,145.755 L113.369,79.287 L114.052,79.287 L114.052,76 L112.148,76 L85,145.755 Z M95.693,121.536 L130.996,121.536 L130.263,119.313 L96.474,119.313 L95.693,121.536 Z M139.15,145.755 L141.787,145.755 L114.638,76 L113.466,76 L113.466,79.287 L139.15,145.755 Z" stroke="none" transform="translate(0,200)" />
        <path id="Baseline-S" d="M18,146 l800,0" />
        <path id="left-margin-Ultralight-M" d="M233.182,256 l0,110" />
        <path id="right-margin-Ultralight-M" d="M296.818,256 l0,110" />
        <path id="left-margin-Regular-M" d="M433.182,256 l0,110" />
        <path id="right-margin-Regular-M" d="M496.818,256 l0,110" />
        <path id="left-margin-Black-M" d="M633.182,256 l0,110" />
        <path id="right-margin-Black-M" d="M696.818,256 l0,110" />
        <path id="Capline-M" d="M18,276 l800,0" />
        <path id="Baseline-M" d="M18,346 l800,0" />
        <path id="Capline-L" d="M18,476 l800,0" />
        <path id="Baseline-L" d="M18,546 l800,0" />
    </g>
    <g id="Symbols">
        <g id="Ultralight-M" transform="translate(0,200)">
            <path d="M261.82,139.636 C261.82,139.636 261.82,139.636 261.82,139.636 C249.42,128.92 239.545,115.947 239.545,104.636 C239.545,92.335 249.517,82.364 261.818,82.364 C274.119,82.364 284.091,92.335 284.091,104.636 C284.091,105.765 283.987,106.921 283.781,108.108 C283.481,109.839 284.641,111.486 286.373,111.787 C288.104,112.087 289.751,110.927 290.051,109.195 C290.318,107.656 290.455,106.137 290.455,104.636 C290.455,88.821 277.634,76 261.818,76 C246.003,76 233.182,88.821 233.182,104.636 C233.182,118.489 243.88,132.545 257.826,144.587 C259.535,145.882 261.523,146.28 263.395,145.802 C265.097,145.367 266.125,143.634 265.69,141.932 C265.255,140.229 263.522,139.201 261.82,139.636 Z" />
            <path d="M295.886,140.568 L289.904,134.586 C288.662,133.344 286.647,133.344 285.405,134.586 C284.162,135.829 284.162,137.843 285.405,139.086 L291.386,145.068 C292.629,146.31 294.644,146.31 295.886,145.068 C297.129,143.825 297.129,141.811 295.886,140.568 Z" />
            <path d="M255.455,104.636 C255.455,101.122 258.304,98.273 261.818,98.273 C265.333,98.273 268.182,101.122 268.182,104.636 C268.182,108.151 265.333,111 261.818,111 C258.304,111 255.455,108.151 255.455,104.636 Z M249.091,104.636 C249.091,111.665 254.789,117.363 261.818,117.363 C268.847,117.363 274.545,111.665 274.545,104.636 C274.545,97.607 268.847,91.909 261.818,91.909 C254.789,91.909 249.091,97.607 249.091,104.636 Z" />
            <path d="M274.545,130.091 C274.545,126.576 277.395,123.727 280.909,123.727 C284.424,123.727 287.273,126.576 287.273,130.091 C287.273,133.605 284.424,136.454 280.909,136.454 C277.395,136.454 274.545,133.605 274.545,130.091 Z M268.182,130.091 C268.182,137.12 273.88,142.818 280.909,142.818 C287.938,142.818 293.636,137.12 293.636,130.091 C293.636,123.062 287.938,117.363 280.909,117.363 C273.88,117.363 268.182,123.062 268.182,130.091 Z" />
        </g>
        <g id="Regular-M" transform="translate(0,200)">
            <path d="M461.82,139.636 C461.82,139.636 461.82,139.636 461.82,139.636 C449.42,128.92 439.545,115.947 439.545,104.636 C439.545,92.335 449.517,82.364 461.818,82.364 C474.119,82.364 484.091,92.335 484.091,104.636 C484.091,105.765 483.987,106.921 483.781,108.108 C483.481,109.839 484.641,111.486 486.373,111.787 C488.104,112.087 489.751,110.927 490.051,109.195 C490.318,107.656 490.455,106.137 490.455,104.636 C490.455,88.821 477.634,76 461.818,76 C446.003,76 433.182,88.821 433.182,104.636 C433.182,118.489 443.88,132.545 457.826,144.587 C459.535,145.882 461.523,146.28 463.395,145.802 C465.097,145.367 466.125,143.634 465.69,141.932 C465.255,140.229 463.522,139.201 461.82,139.636 Z" />
            <path d="M495.886,140.568 L489.904,134.586 C488.662,133.344 486.647,133.344 485.405,134.586 C484.162,135.829 484.162,137.843 485.405,139.086 L491.386,145.068 C492.629,146.31 494.644,146.31 495.886,145.068 C497.129,143.825 497.129,141.811 495.886,140.568 Z" />
            <path d="M455.455,104.636 C455.455,101.122 458.304,98.273 461.818,98.273 C465.333,98.273 468.182,101.122 468.182,104.636 C468.182,108.151 465.333,111 461.818,111 C458.304,111 455.455,108.151 455.455,104.636 Z M449.091,104.636 C449.091,111.665 454.789,117.363 461.818,117.363 C468.847,117.363 474.545,111.665 474.545,104.636 C474.545,97.607 468.847,91.909 461.818,91.909 C454.789,91.909 449.091,97.607 449.091,104.636 Z" />
            <path d="M474.545,130.091 C474.545,126.576 477.395,123.727 480.909,123.727 C484.424,123.727 487.273,126.576 487.273,130.091 C487.273,133.605 484.424,136.454 480.909,136.454 C477.395,136.454 474.545,133.605 474.545,130.091 Z M468.182,130.091 C468.182,137.12 473.88,142.818 480.909,142.818 C487.938,142.818 493.636,137.12 493.636,130.091 C493.636,123.062 487.938,117.363 480.909,117.363 C473.88,117.363 468.182,123.062 468.182,130.091 Z" />
        </g>
        <g id="Black-M" transform="translate(0,200)">
            <path d="M661.82,139.636 C661.82,139.636 661.82,139.636 661.82,139.636 C649.42,128.92 639.545,115.947 639.545,104.636 C639.545,92.335 649.517,82.364 661.818,82.364 C674.119,82.364 684.091,92.335 684.091,104.636 C684.091,105.765 683.987,106.921 683.781,108.108 C683.481,109.839 684.641,111.486 686.373,111.787 C688.104,112.087 689.751,110.927 690.051,109.195 C690.318,107.656 690.455,106.137 690.455,104.636 C690.455,88.821 677.634,76 661.818,76 C646.003,76 633.182,88.821 633.182,104.636 C633.182,118.489 643.88,132.545 657.826,144.587 C659.535,145.882 661.523,146.28 663.395,145.802 C665.097,145.367 666.125,143.634 665.69,141.932 C665.255,140.229 663.522,139.201 661.82,139.636 Z" />
            <path d="M695.886,140.568 L689.904,134.586 C688.662,133.344 686.647,133.344 685.405,134.586 C684.162,135.829 684.162,137.843 685.405,139.086 L691.386,145.068 C692.629,146.31 694.644,146.31 695.886,145.068 C697.129,143.825 697.129,141.811 695.886,140.568 Z" />
            <path d="M655.455,104.636 C655.455,101.122 658.304,98.273 661.818,98.273 C665.333,98.273 668.182,101.122 668.182,104.636 C668.182,108.151 665.333,111 661.818,111 C658.304,111 655.455,108.151 655.455,104.636 Z M649.091,104.636 C649.091,111.665 654.789,117.363 661.818,117.363 C668.847,117.363 674.545,111.665 674.545,104.636 C674.545,97.607 668.847,91.909 661.818,91.909 C654.789,91.909 649.091,97.607 649.091,104.636 Z" />
            <path d="M674.545,130.091 C674.545,126.576 677.395,123.727 680.909,123.727 C684.424,123.727 687.273,126.576 687.273,130.091 C687.273,133.605 684.424,136.454 680.909,136.454 C677.395,136.454 674.545,133.605 674.545,130.091 Z M668.182,130.091 C668.182,137.12 673.88,142.818 680.909,142.818 C687.938,142.818 693.636,137.12 693.636,130.091 C693.636,123.062 687.938,117.363 680.909,117.363 C673.88,117.363 668.182,123.062 668.182,130.091 Z" />
        </g>
    </g>
</svg>