<?xml version="1.0" encoding="UTF-8"?>
<svg height="600" width="800" xmlns="http://www.w3.org/2000/svg" xmlns:xlink="http://www.w3.org/1999/xlink">
    <g id="Notes" font-family="LucidaGrande, 'Lucida Grande', sans-serif" font-size="13">
        <rect fill="white" height="600.0" width="800.0" x="0.0" y="0.0" />
        <g font-size="13">
            <text x="18.0" y="176.0">Small</text>
            <text x="18.0" y="376.0">Medium</text>
            <text x="18.0" y="576.0">Large</text>
        </g>
        <g font-size="9">
            <text x="250.0" y="30.0">Ultralight</text>
            <text x="450.0" y="30.0">Regular</text>
            <text x="650.0" y="30.0">Black</text>
            <text id="template-version" fill="#505050" text-anchor="end" x="785.0" y="575.0">Template v.3.0</text>
            <a href="https://github.com/swhitty/SwiftDraw">
                <text fill="#505050" text-anchor="end" x="785.0" y="590.0">https://github.com/swhitty/SwiftDraw</text>
            </a>
        </g>
    </g>
    <g id="Guides" stroke="rgb(39, 170, 225)" stroke-width="0.5">
        <path id="Capline-S" d="M18,76 l800,0" />
        <path id="H-reference" d="M85,145.755 L87.685,145.755 L113.369,79.287 L114.052,79.287 L114.052,76 L112.148,76 L85,145.755 Z M95.693,121.536 L130.996,121.536 L130.263,119.313 L96.474,119.313 L95.693,121.536 Z M139.15,145.755 L141.787,145.755 L114.638,76 L113.466,76 L113.466,79.287 L139.15,145.755 Z" stroke="none" transform="translate(0,200)" />
        <path id="Baseline-S" d="M18,146 l800,0" />
        <path id="left-margin-Ultralight-M" d="M228.158,256 l0,110" />
        <path id="right-margin-Ultralight-M" d="M301.842,256 l0,110" />
        <path id="left-margin-Regular-M" d="M428.158,256 l0,110" />
        <path id="right-margin-Regular-M" d="M501.842,256 l0,110" />
        <path id="left-margin-Black-M" d="M628.158,256 l0,110" />
        <path id="right-margin-Black-M" d="M701.842,256 l0,110" />
        <path id="Capline-M" d="M18,276 l800,0" />
        <path id="Baseline-M" d="M18,346 l800,0" />
        <path id="Capline-L" d="M18,476 l800,0" />
        <path id="Baseline-L" d="M18,546 l800,0" />
    </g>
    <g id="Symbols">
        <g id="Ultralight-M" transform="translate(0,200)">
            <path d="M262.961,132.206 L258.886,130.251 C255.778,128.757 252.117,128.757 249.007,130.251 L235.525,136.733 C235.526,136.733 235.526,136.733 235.526,136.733 C235.526,136.733 235.526,136.733 235.526,136.733 L235.526,91.52 C235.526,91.522 235.526,91.522 235.526,91.522 L252.302,83.457 C253.338,82.959 254.558,82.959 255.594,83.457 L271.112,90.916 C274.223,92.41 277.883,92.41 280.993,90.916 L294.475,84.434 C294.474,84.435 294.474,84.435 294.474,84.435 C294.474,84.435 294.474,84.435 294.474,84.435 L294.474,110.582 C294.474,112.538 296.123,114.124 298.158,114.124 C300.193,114.124 301.842,112.538 301.842,110.582 L301.842,84.44 C301.846,81.989 300.525,79.706 298.353,78.413 C296.181,77.119 293.466,77 291.18,78.098 L277.699,84.58 C276.663,85.078 275.443,85.078 274.406,84.58 L258.889,77.121 C255.778,75.627 252.117,75.627 249.007,77.121 L232.232,85.186 C229.737,86.384 228.16,88.836 228.158,91.518 L228.158,136.724 C228.152,139.173 229.471,141.458 231.644,142.753 C233.817,144.048 236.533,144.168 238.82,143.069 L252.302,136.587 C253.337,136.09 254.557,136.09 255.594,136.588 L259.671,138.544 C261.491,139.417 263.704,138.706 264.612,136.956 C265.521,135.206 264.782,133.079 262.961,132.206 Z" />
            <path d="M272.368,88.495 L272.368,110.582 C272.368,112.538 274.018,114.124 276.053,114.124 C278.087,114.124 279.737,112.538 279.737,110.582 L279.737,88.495 C279.737,86.539 278.087,84.954 276.053,84.954 C274.018,84.954 272.368,86.539 272.368,88.495 Z" />
            <path d="M283.421,121.207 L283.421,142.458 C283.421,144.414 285.071,146 287.105,146 C289.14,146 290.789,144.414 290.789,142.458 L290.789,121.207 C290.789,119.251 289.14,117.666 287.105,117.666 C285.071,117.666 283.421,119.251 283.421,121.207 Z" />
            <path d="M298.158,128.291 L276.053,128.291 C274.018,128.291 272.368,129.877 272.368,131.833 C272.368,133.789 274.018,135.375 276.053,135.375 L298.158,135.375 C300.193,135.375 301.842,133.789 301.842,131.833 C301.842,129.877 300.193,128.291 298.158,128.291 Z" />
            <path d="M250.263,79.542 L250.263,132.669 C250.263,134.625 251.913,136.21 253.947,136.21 C255.982,136.21 257.632,134.625 257.632,132.669 L257.632,79.542 C257.632,77.586 255.982,76 253.947,76 C251.913,76 250.263,77.586 250.263,79.542 Z" />
        </g>
        <g id="Regular-M" transform="translate(0,200)">
            <path d="M462.961,132.206 L458.886,130.251 C455.778,128.757 452.117,128.757 449.007,130.251 L435.525,136.733 C435.526,136.733 435.526,136.733 435.526,136.733 C435.526,136.733 435.526,136.733 435.526,136.733 L435.526,91.52 C435.526,91.522 435.526,91.522 435.526,91.522 L452.302,83.457 C453.338,82.959 454.558,82.959 455.594,83.457 L471.112,90.916 C474.223,92.41 477.883,92.41 480.993,90.916 L494.475,84.434 C494.474,84.435 494.474,84.435 494.474,84.435 C494.474,84.435 494.474,84.435 494.474,84.435 L494.474,110.582 C494.474,112.538 496.123,114.124 498.158,114.124 C500.193,114.124 501.842,112.538 501.842,110.582 L501.842,84.44 C501.846,81.989 500.525,79.706 498.353,78.413 C496.181,77.119 493.466,77 491.18,78.098 L477.699,84.58 C476.663,85.078 475.443,85.078 474.406,84.58 L458.889,77.121 C455.778,75.627 452.117,75.627 449.007,77.121 L432.232,85.186 C429.737,86.384 428.16,88.836 428.158,91.518 L428.158,136.724 C428.152,139.173 429.471,141.458 431.644,142.753 C433.817,144.048 436.533,144.168 438.82,143.069 L452.302,136.587 C453.337,136.09 454.557,136.09 455.594,136.588 L459.671,138.544 C461.491,139.417 463.704,138.706 464.612,136.956 C465.521,135.206 464.782,133.079 462.961,132.206 Z" />
            <path d="M472.368,88.495 L472.368,110.582 C472.368,112.538 474.018,114.124 476.053,114.124 C478.087,114.124 479.737,112.538 479.737,110.582 L479.737,88.495 C479.737,86.539 478.087,84.954 476.053,84.954 C474.018,84.954 472.368,86.539 472.368,88.495 Z" />
            <path d="M483.421,121.207 L483.421,142.458 C483.421,144.414 485.071,146 487.105,146 C489.14,146 490.789,144.414 490.789,142.458 L490.789,121.207 C490.789,119.251 489.14,117.666 487.105,117.666 C485.071,117.666 483.421,119.251 483.421,121.207 Z" />
            <path d="M498.158,128.291 L476.053,128.291 C474.018,128.291 472.368,129.877 472.368,131.833 C472.368,133.789 474.018,135.375 476.053,135.375 L498.158,135.375 C500.193,135.375 501.842,133.789 501.842,131.833 C501.842,129.877 500.193,128.291 498.158,128.291 Z" />
            <path d="M450.263,79.542 L450.263,132.669 C450.263,134.625 451.913,136.21 453.947,136.21 C455.982,136.21 457.632,134.625 457.632,132.669 L457.632,79.542 C457.632,77.586 455.982,76 453.947,76 C451.913,76 450.263,77.586 450.263,79.542 Z" />
        </g>
        <g id="Black-M" transform="translate(0,200)">
            <path d="M662.961,132.206 L658.886,130.251 C655.778,128.757 652.117,128.757 649.007,130.251 L635.525,136.733 C635.526,136.733 635.526,136.733 635.526,136.733 C635.526,136.733 635.526,136.733 635.526,136.733 L635.526,91.52 C635.526,91.522 635.526,91.522 635.526,91.522 L652.302,83.457 C653.338,82.959 654.558,82.959 655.594,83.457 L671.112,90.916 C674.223,92.41 677.883,92.41 680.993,90.916 L694.475,84.434 C694.474,84.435 694.474,84.435 694.474,84.435 C694.474,84.435 694.474,84.435 694.474,84.435 L694.474,110.582 C694.474,112.538 696.123,114.124 698.158,114.124 C700.193,114.124 701.842,112.538 701.842,110.582 L701.842,84.44 C701.846,81.989 700.526,79.706 698.353,78.413 C696.181,77.119 693.466,77 691.18,78.098 L677.699,84.58 C676.663,85.078 675.443,85.078 674.406,84.58 L658.889,77.121 C655.778,75.627 652.117,75.627 649.007,77.121 L632.232,85.186 C629.737,86.384 628.16,88.836 628.158,91.518 L628.158,136.724 C628.152,139.173 629.471,141.458 631.644,142.753 C633.817,144.048 636.533,144.168 638.82,143.069 L652.302,136.587 C653.337,136.09 654.557,136.09 655.594,136.588 L659.671,138.544 C661.491,139.417 663.704,138.706 664.612,136.956 C665.521,135.206 664.782,133.079 662.961,132.206 Z" />
            <path d="M672.368,88.495 L672.368,110.582 C672.368,112.538 674.018,114.124 676.053,114.124 C678.087,114.124 679.737,112.538 679.737,110.582 L679.737,88.495 C679.737,86.539 678.087,84.954 676.053,84.954 C674.018,84.954 672.368,86.539 672.368,88.495 Z" />
            <path d="M683.421,121.207 L683.421,142.458 C683.421,144.414 685.071,146 687.105,146 C689.14,146 690.789,144.414 690.789,142.458 L690.789,121.207 C690.789,119.251 689.14,117.666 687.105,117.666 C685.071,117.666 683.421,119.251 683.421,121.207 Z" />
            <path d="M698.158,128.291 L676.053,128.291 C674.018,128.291 672.368,129.877 672.368,131.833 C672.368,133.789 674.018,135.375 676.053,135.375 L698.158,135.375 C700.193,135.375 701.842,133.789 701.842,131.833 C701.842,129.877 700.193,128.291 698.158,128.291 Z" />
            <path d="M650.263,79.542 L650.263,132.669 C650.263,134.625 651.913,136.21 653.947,136.21 C655.982,136.21 657.632,134.625 657.632,132.669 L657.632,79.542 C657.632,77.586 655.982,76 653.947,76 C651.913,76 650.263,77.586 650.263,79.542 Z" />
        </g>
    </g>
</svg>