<?xml version="1.0" encoding="UTF-8"?>
<svg height="600" width="800" xmlns="http://www.w3.org/2000/svg" xmlns:xlink="http://www.w3.org/1999/xlink">
    <g id="Notes" font-family="LucidaGrande, 'Lucida Grande', sans-serif" font-size="13">
        <rect fill="white" height="600.0" width="800.0" x="0.0" y="0.0" />
        <g font-size="13">
            <text x="18.0" y="176.0">Small</text>
            <text x="18.0" y="376.0">Medium</text>
            <text x="18.0" y="576.0">Large</text>
        </g>
        <g font-size="9">
            <text x="250.0" y="30.0">Ultralight</text>
            <text x="450.0" y="30.0">Regular</text>
            <text x="650.0" y="30.0">Black</text>
            <text id="template-version" fill="#505050" text-anchor="end" x="785.0" y="575.0">Template v.3.0</text>
            <a href="https://github.com/swhitty/SwiftDraw">
                <text fill="#505050" text-anchor="end" x="785.0" y="590.0">https://github.com/swhitty/SwiftDraw</text>
            </a>
        </g>
    </g>
    <g id="Guides" stroke="rgb(39, 170, 225)" stroke-width="0.5">
        <path id="Capline-S" d="M18,76 l800,0" />
        <path id="H-reference" d="M85,145.755 L87.685,145.755 L113.369,79.287 L114.052,79.287 L114.052,76 L112.148,76 L85,145.755 Z M95.693,121.536 L130.996,121.536 L130.263,119.313 L96.474,119.313 L95.693,121.536 Z M139.15,145.755 L141.787,145.755 L114.638,76 L113.466,76 L113.466,79.287 L139.15,145.755 Z" stroke="none" transform="translate(0,200)" />
        <path id="Baseline-S" d="M18,146 l800,0" />
        <path id="left-margin-Ultralight-M" d="M228.158,256 l0,110" />
        <path id="right-margin-Ultralight-M" d="M301.842,256 l0,110" />
        <path id="left-margin-Regular-M" d="M428.158,256 l0,110" />
        <path id="right-margin-Regular-M" d="M501.842,256 l0,110" />
        <path id="left-margin-Black-M" d="M628.158,256 l0,110" />
        <path id="right-margin-Black-M" d="M701.842,256 l0,110" />
        <path id="Capline-M" d="M18,276 l800,0" />
        <path id="Baseline-M" d="M18,346 l800,0" />
        <path id="Capline-L" d="M18,476 l800,0" />
        <path id="Baseline-L" d="M18,546 l800,0" />
    </g>
    <g id="Symbols">
        <g id="Ultralight-M" transform="translate(0,200)">
            <path d="M262.961,134.015 L258.886,131.997 C255.778,130.456 252.117,130.456 249.007,131.998 L235.525,138.689 C235.526,138.688 235.526,138.688 235.526,138.688 C235.526,138.688 235.526,138.688 235.526,138.688 L235.526,92.02 C235.526,92.022 235.526,92.022 235.526,92.022 L252.302,83.697 C253.338,83.183 254.558,83.183 255.594,83.697 L271.112,91.396 C274.223,92.939 277.883,92.939 280.993,91.397 L294.475,84.706 C294.474,84.706 294.474,84.706 294.474,84.706 C294.474,84.706 294.474,84.706 294.474,84.706 L294.474,119.007 C294.474,121.026 296.123,122.663 298.158,122.663 C300.193,122.663 301.842,121.026 301.842,119.007 L301.842,84.712 C301.846,82.182 300.525,79.825 298.353,78.49 C296.181,77.155 293.466,77.032 291.18,78.166 L277.699,84.857 C276.663,85.37 275.443,85.37 274.406,84.856 L258.889,77.157 C255.778,75.615 252.117,75.615 249.007,77.157 L232.232,85.482 C229.737,86.719 228.16,89.249 228.158,92.018 L228.158,138.679 C228.152,141.207 229.471,143.566 231.644,144.903 C233.817,146.239 236.533,146.363 238.82,145.229 L252.302,138.538 C253.337,138.025 254.557,138.025 255.594,138.539 L259.671,140.557 C261.491,141.459 263.704,140.726 264.612,138.919 C265.521,137.112 264.782,134.917 262.961,134.015 Z" />
            <path d="M272.368,88.898 L272.368,119.007 C272.368,121.026 274.018,122.663 276.053,122.663 C278.087,122.663 279.737,121.026 279.737,119.007 L279.737,88.898 C279.737,86.879 278.087,85.242 276.053,85.242 C274.018,85.242 272.368,86.879 272.368,88.898 Z" />
            <path d="M298.158,129.975 L276.053,129.975 C274.018,129.975 272.368,131.612 272.368,133.631 C272.368,135.65 274.018,137.286 276.053,137.286 L298.158,137.286 C300.193,137.286 301.842,135.65 301.842,133.631 C301.842,131.612 300.193,129.975 298.158,129.975 Z" />
            <path d="M250.263,79.656 L250.263,134.493 C250.263,136.512 251.913,138.149 253.947,138.149 C255.982,138.149 257.632,136.512 257.632,134.493 L257.632,79.656 C257.632,77.637 255.982,76 253.947,76 C251.913,76 250.263,77.637 250.263,79.656 Z" />
        </g>
        <g id="Regular-M" transform="translate(0,200)">
            <path d="M462.961,134.015 L458.886,131.997 C455.778,130.456 452.117,130.456 449.007,131.998 L435.525,138.689 C435.526,138.688 435.526,138.688 435.526,138.688 C435.526,138.688 435.526,138.688 435.526,138.688 L435.526,92.02 C435.526,92.022 435.526,92.022 435.526,92.022 L452.302,83.697 C453.338,83.183 454.558,83.183 455.594,83.697 L471.112,91.396 C474.223,92.939 477.883,92.939 480.993,91.397 L494.475,84.706 C494.474,84.706 494.474,84.706 494.474,84.706 C494.474,84.706 494.474,84.706 494.474,84.706 L494.474,119.007 C494.474,121.026 496.123,122.663 498.158,122.663 C500.193,122.663 501.842,121.026 501.842,119.007 L501.842,84.712 C501.846,82.182 500.525,79.825 498.353,78.49 C496.181,77.155 493.466,77.032 491.18,78.166 L477.699,84.857 C476.663,85.37 475.443,85.37 474.406,84.856 L458.889,77.157 C455.778,75.615 452.117,75.615 449.007,77.157 L432.232,85.482 C429.737,86.719 428.16,89.249 428.158,92.018 L428.158,138.679 C428.152,141.207 429.471,143.566 431.644,144.903 C433.817,146.239 436.533,146.363 438.82,145.229 L452.302,138.538 C453.337,138.025 454.557,138.025 455.594,138.539 L459.671,140.557 C461.491,141.459 463.704,140.726 464.612,138.919 C465.521,137.112 464.782,134.917 462.961,134.015 Z" />
            <path d="M472.368,88.898 L472.368,119.007 C472.368,121.026 474.018,122.663 476.053,122.663 C478.087,122.663 479.737,121.026 479.737,119.007 L479.737,88.898 C479.737,86.879 478.087,85.242 476.053,85.242 C474.018,85.242 472.368,86.879 472.368,88.898 Z" />
            <path d="M498.158,129.975 L476.053,129.975 C474.018,129.975 472.368,131.612 472.368,133.631 C472.368,135.65 474.018,137.286 476.053,137.286 L498.158,137.286 C500.193,137.286 501.842,135.65 501.842,133.631 C501.842,131.612 500.193,129.975 498.158,129.975 Z" />
            <path d="M450.263,79.656 L450.263,134.493 C450.263,136.512 451.913,138.149 453.947,138.149 C455.982,138.149 457.632,136.512 457.632,134.493 L457.632,79.656 C457.632,77.637 455.982,76 453.947,76 C451.913,76 450.263,77.637 450.263,79.656 Z" />
        </g>
        <g id="Black-M" transform="translate(0,200)">
            <path d="M662.961,134.015 L658.886,131.997 C655.778,130.456 652.117,130.456 649.007,131.998 L635.525,138.689 C635.526,138.688 635.526,138.688 635.526,138.688 C635.526,138.688 635.526,138.688 635.526,138.688 L635.526,92.02 C635.526,92.022 635.526,92.022 635.526,92.022 L652.302,83.697 C653.338,83.183 654.558,83.183 655.594,83.697 L671.112,91.396 C674.223,92.939 677.883,92.939 680.993,91.397 L694.475,84.706 C694.474,84.706 694.474,84.706 694.474,84.706 C694.474,84.706 694.474,84.706 694.474,84.706 L694.474,119.007 C694.474,121.026 696.123,122.663 698.158,122.663 C700.193,122.663 701.842,121.026 701.842,119.007 L701.842,84.712 C701.846,82.182 700.526,79.825 698.353,78.49 C696.181,77.155 693.466,77.032 691.18,78.166 L677.699,84.857 C676.663,85.37 675.443,85.37 674.406,84.856 L658.889,77.157 C655.778,75.615 652.117,75.615 649.007,77.157 L632.232,85.482 C629.737,86.719 628.16,89.249 628.158,92.018 L628.158,138.679 C628.152,141.207 629.471,143.566 631.644,144.903 C633.817,146.239 636.533,146.363 638.82,145.229 L652.302,138.538 C653.337,138.025 654.557,138.025 655.594,138.539 L659.671,140.557 C661.491,141.459 663.704,140.726 664.612,138.919 C665.521,137.112 664.782,134.917 662.961,134.015 Z" />
            <path d="M672.368,88.898 L672.368,119.007 C672.368,121.026 674.018,122.663 676.053,122.663 C678.087,122.663 679.737,121.026 679.737,119.007 L679.737,88.898 C679.737,86.879 678.087,85.242 676.053,85.242 C674.018,85.242 672.368,86.879 672.368,88.898 Z" />
            <path d="M698.158,129.975 L676.053,129.975 C674.018,129.975 672.368,131.612 672.368,133.631 C672.368,135.65 674.018,137.286 676.053,137.286 L698.158,137.286 C700.193,137.286 701.842,135.65 701.842,133.631 C701.842,131.612 700.193,129.975 698.158,129.975 Z" />
            <path d="M650.263,79.656 L650.263,134.493 C650.263,136.512 651.913,138.149 653.947,138.149 C655.982,138.149 657.632,136.512 657.632,134.493 L657.632,79.656 C657.632,77.637 655.982,76 653.947,76 C651.913,76 650.263,77.637 650.263,79.656 Z" />
        </g>
    </g>
</svg>