<?xml version="1.0" encoding="UTF-8"?>
<svg height="600" width="800" xmlns="http://www.w3.org/2000/svg" xmlns:xlink="http://www.w3.org/1999/xlink">
    <g id="Notes" font-family="LucidaGrande, 'Lucida Grande', sans-serif" font-size="13">
        <rect fill="white" height="600.0" width="800.0" x="0.0" y="0.0" />
        <g font-size="13">
            <text x="18.0" y="176.0">Small</text>
            <text x="18.0" y="376.0">Medium</text>
            <text x="18.0" y="576.0">Large</text>
        </g>
        <g font-size="9">
            <text x="250.0" y="30.0">Ultralight</text>
            <text x="450.0" y="30.0">Regular</text>
            <text x="650.0" y="30.0">Black</text>
            <text id="template-version" fill="#505050" text-anchor="end" x="785.0" y="575.0">Template v.3.0</text>
            <a href="https://github.com/swhitty/SwiftDraw">
                <text fill="#505050" text-anchor="end" x="785.0" y="590.0">https://github.com/swhitty/SwiftDraw</text>
            </a>
        </g>
    </g>
    <g id="Guides" stroke="rgb(39, 170, 225)" stroke-width="0.5">
        <path id="Capline-S" d="M18,76 l800,0" />
        <path id="H-reference" d="M85,145.755 L87.685,145.755 L113.369,79.287 L114.052,79.287 L114.052,76 L112.148,76 L85,145.755 Z M95.693,121.536 L130.996,121.536 L130.263,119.313 L96.474,119.313 L95.693,121.536 Z M139.15,145.755 L141.787,145.755 L114.638,76 L113.466,76 L113.466,79.287 L139.15,145.755 Z" stroke="none" transform="translate(0,200)" />
        <path id="Baseline-S" d="M18,146 l800,0" />
        <path id="left-margin-Ultralight-M" d="M231.667,256 l0,110" />
        <path id="right-margin-Ultralight-M" d="M298.333,256 l0,110" />
        <path id="left-margin-Regular-M" d="M431.667,256 l0,110" />
        <path id="right-margin-Regular-M" d="M498.333,256 l0,110" />
        <path id="left-margin-Black-M" d="M631.667,256 l0,110" />
        <path id="right-margin-Black-M" d="M698.333,256 l0,110" />
        <path id="Capline-M" d="M18,276 l800,0" />
        <path id="Baseline-M" d="M18,346 l800,0" />
        <path id="Capline-L" d="M18,476 l800,0" />
        <path id="Baseline-L" d="M18,546 l800,0" />
    </g>
    <g id="Symbols">
        <g id="Ultralight-M" transform="translate(0,200)">
            <path d="M289.56,115.077 C290.937,111.517 291.667,108.029 291.667,104.637 C291.667,88.821 278.235,76 261.667,76 C245.098,76 231.667,88.821 231.667,104.637 C231.667,118.489 242.874,132.546 257.485,144.588 C260.033,146.426 263.3,146.426 265.673,144.722 C266.797,143.804 267.728,143.008 268.646,142.197 C269.996,141.003 270.076,138.99 268.825,137.7 C267.574,136.411 265.465,136.335 264.115,137.529 C263.253,138.291 262.377,139.039 261.489,139.773 C261.667,139.636 261.667,139.636 261.667,139.636 C248.678,128.921 238.333,115.948 238.333,104.637 C238.333,92.336 248.78,82.364 261.667,82.364 C274.553,82.364 285,92.336 285,104.637 C285,107.229 284.424,109.983 283.306,112.873 C282.669,114.522 283.552,116.352 285.279,116.96 C287.006,117.569 288.923,116.726 289.56,115.077 Z" />
            <path d="M255,104.637 C255,101.122 257.985,98.273 261.667,98.273 C265.349,98.273 268.333,101.122 268.333,104.637 C268.333,108.151 265.349,111 261.667,111 C257.985,111 255,108.151 255,104.637 Z M248.333,104.637 C248.333,111.666 254.303,117.364 261.667,117.364 C269.03,117.364 275,111.666 275,104.637 C275,97.608 269.03,91.909 261.667,91.909 C254.303,91.909 248.333,97.608 248.333,104.637 Z" />
            <path d="M272.643,132.341 L279.31,138.705 C280.611,139.948 282.722,139.948 284.024,138.705 L297.357,125.978 C298.659,124.735 298.659,122.72 297.357,121.478 C296.055,120.235 293.945,120.235 292.643,121.478 L279.31,134.205 L284.024,134.205 L277.357,127.842 C276.055,126.599 273.945,126.599 272.643,127.842 C271.341,129.084 271.341,131.099 272.643,132.341 Z" />
        </g>
        <g id="Regular-M" transform="translate(0,200)">
            <path d="M489.56,115.077 C490.937,111.517 491.667,108.029 491.667,104.637 C491.667,88.821 478.235,76 461.667,76 C445.098,76 431.667,88.821 431.667,104.637 C431.667,118.489 442.874,132.546 457.485,144.588 C460.033,146.426 463.3,146.426 465.673,144.722 C466.797,143.804 467.728,143.008 468.646,142.197 C469.996,141.003 470.076,138.99 468.825,137.7 C467.574,136.411 465.465,136.335 464.115,137.529 C463.253,138.291 462.377,139.039 461.489,139.773 C461.667,139.636 461.667,139.636 461.667,139.636 C448.678,128.921 438.333,115.948 438.333,104.637 C438.333,92.336 448.78,82.364 461.667,82.364 C474.553,82.364 485,92.336 485,104.637 C485,107.229 484.424,109.983 483.306,112.873 C482.669,114.522 483.552,116.352 485.279,116.96 C487.006,117.569 488.923,116.726 489.56,115.077 Z" />
            <path d="M455,104.637 C455,101.122 457.985,98.273 461.667,98.273 C465.349,98.273 468.333,101.122 468.333,104.637 C468.333,108.151 465.349,111 461.667,111 C457.985,111 455,108.151 455,104.637 Z M448.333,104.637 C448.333,111.666 454.303,117.364 461.667,117.364 C469.03,117.364 475,111.666 475,104.637 C475,97.608 469.03,91.909 461.667,91.909 C454.303,91.909 448.333,97.608 448.333,104.637 Z" />
            <path d="M472.643,132.341 L479.31,138.705 C480.611,139.948 482.722,139.948 484.024,138.705 L497.357,125.978 C498.659,124.735 498.659,122.72 497.357,121.478 C496.055,120.235 493.945,120.235 492.643,121.478 L479.31,134.205 L484.024,134.205 L477.357,127.842 C476.055,126.599 473.945,126.599 472.643,127.842 C471.341,129.084 471.341,131.099 472.643,132.341 Z" />
        </g>
        <g id="Black-M" transform="translate(0,200)">
            <path d="M689.56,115.077 C690.937,111.517 691.667,108.029 691.667,104.637 C691.667,88.821 678.235,76 661.667,76 C645.098,76 631.667,88.821 631.667,104.637 C631.667,118.489 642.874,132.546 657.485,144.588 C660.033,146.426 663.3,146.426 665.673,144.722 C666.797,143.804 667.728,143.008 668.646,142.197 C669.996,141.003 670.076,138.99 668.825,137.7 C667.574,136.411 665.465,136.335 664.115,137.529 C663.253,138.291 662.377,139.039 661.489,139.773 C661.667,139.636 661.667,139.636 661.667,139.636 C648.678,128.921 638.333,115.948 638.333,104.637 C638.333,92.336 648.78,82.364 661.667,82.364 C674.553,82.364 685,92.336 685,104.637 C685,107.229 684.424,109.983 683.306,112.873 C682.669,114.522 683.552,116.352 685.279,116.96 C687.006,117.569 688.923,116.726 689.56,115.077 Z" />
            <path d="M655,104.637 C655,101.122 657.985,98.273 661.667,98.273 C665.349,98.273 668.333,101.122 668.333,104.637 C668.333,108.151 665.349,111 661.667,111 C657.985,111 655,108.151 655,104.637 Z M648.333,104.637 C648.333,111.666 654.303,117.364 661.667,117.364 C669.031,117.364 675,111.666 675,104.637 C675,97.608 669.03,91.909 661.667,91.909 C654.303,91.909 648.333,97.608 648.333,104.637 Z" />
            <path d="M672.643,132.341 L679.31,138.705 C680.611,139.948 682.722,139.948 684.024,138.705 L697.357,125.978 C698.659,124.735 698.659,122.72 697.357,121.478 C696.055,120.235 693.945,120.235 692.643,121.478 L679.31,134.205 L684.024,134.205 L677.357,127.842 C676.055,126.599 673.945,126.599 672.643,127.842 C671.341,129.084 671.341,131.099 672.643,132.341 Z" />
        </g>
    </g>
</svg>