<?xml version="1.0" encoding="UTF-8"?>
<svg height="600" width="800" xmlns="http://www.w3.org/2000/svg" xmlns:xlink="http://www.w3.org/1999/xlink">
    <g id="Notes" font-family="LucidaGrande, 'Lucida Grande', sans-serif" font-size="13">
        <rect fill="white" height="600.0" width="800.0" x="0.0" y="0.0" />
        <g font-size="13">
            <text x="18.0" y="176.0">Small</text>
            <text x="18.0" y="376.0">Medium</text>
            <text x="18.0" y="576.0">Large</text>
        </g>
        <g font-size="9">
            <text x="250.0" y="30.0">Ultralight</text>
            <text x="450.0" y="30.0">Regular</text>
            <text x="650.0" y="30.0">Black</text>
            <text id="template-version" fill="#505050" text-anchor="end" x="785.0" y="575.0">Template v.3.0</text>
            <a href="https://github.com/swhitty/SwiftDraw">
                <text fill="#505050" text-anchor="end" x="785.0" y="590.0">https://github.com/swhitty/SwiftDraw</text>
            </a>
        </g>
    </g>
    <g id="Guides" stroke="rgb(39, 170, 225)" stroke-width="0.5">
        <path id="Capline-S" d="M18,76 l800,0" />
        <path id="H-reference" d="M85,145.755 L87.685,145.755 L113.369,79.287 L114.052,79.287 L114.052,76 L112.148,76 L85,145.755 Z M95.693,121.536 L130.996,121.536 L130.263,119.313 L96.474,119.313 L95.693,121.536 Z M139.15,145.755 L141.787,145.755 L114.638,76 L113.466,76 L113.466,79.287 L139.15,145.755 Z" stroke="none" transform="translate(0,200)" />
        <path id="Baseline-S" d="M18,146 l800,0" />
        <path id="left-margin-Ultralight-M" d="M235,256 l0,110" />
        <path id="right-margin-Ultralight-M" d="M295,256 l0,110" />
        <path id="left-margin-Regular-M" d="M435,256 l0,110" />
        <path id="right-margin-Regular-M" d="M495,256 l0,110" />
        <path id="left-margin-Black-M" d="M635,256 l0,110" />
        <path id="right-margin-Black-M" d="M695,256 l0,110" />
        <path id="Capline-M" d="M18,276 l800,0" />
        <path id="Baseline-M" d="M18,346 l800,0" />
        <path id="Capline-L" d="M18,476 l800,0" />
        <path id="Baseline-L" d="M18,546 l800,0" />
    </g>
    <g id="Symbols">
        <g id="Ultralight-M" transform="translate(0,200)">
            <path d="M267.357,106.976 L241.381,81 C241.66,81.279 241.743,81.699 241.592,82.064 C241.441,82.429 241.085,82.667 240.69,82.667 L289.31,82.667 C288.915,82.667 288.559,82.429 288.408,82.064 C288.257,81.699 288.34,81.279 288.62,80.999 L262.643,106.976 L267.357,106.976 Z M262.643,111.69 C263.945,112.992 266.055,112.992 267.357,111.69 L293.333,85.714 C294.961,84.087 295.448,81.639 294.567,79.512 C293.686,77.386 291.611,76 289.309,76 L240.69,76 C238.389,76 236.314,77.386 235.433,79.512 C234.552,81.639 235.039,84.087 236.667,85.714 L262.643,111.69 Z" />
            <path d="M261.667,109.333 L261.667,142.667 C261.667,144.508 263.159,146 265,146 C266.841,146 268.333,144.508 268.333,142.667 L268.333,109.333 C268.333,107.492 266.841,106 265,106 C263.159,106 261.667,107.492 261.667,109.333 Z" />
            <path d="M248.334,146 L281.666,146 C283.507,146 285,144.508 285,142.667 C285,140.826 283.507,139.333 281.666,139.333 L248.334,139.333 C246.493,139.333 245,140.826 245,142.667 C245,144.508 246.493,146 248.334,146 Z" />
        </g>
        <g id="Regular-M" transform="translate(0,200)">
            <path d="M467.357,106.976 L441.381,81 C441.66,81.279 441.743,81.699 441.592,82.064 C441.441,82.429 441.085,82.667 440.69,82.667 L489.31,82.667 C488.915,82.667 488.559,82.429 488.408,82.064 C488.257,81.699 488.34,81.279 488.62,80.999 L462.643,106.976 L467.357,106.976 Z M462.643,111.69 C463.945,112.992 466.055,112.992 467.357,111.69 L493.333,85.714 C494.961,84.087 495.448,81.639 494.567,79.512 C493.686,77.386 491.611,76 489.309,76 L440.69,76 C438.389,76 436.314,77.386 435.433,79.512 C434.552,81.639 435.039,84.087 436.667,85.714 L462.643,111.69 Z" />
            <path d="M461.667,109.333 L461.667,142.667 C461.667,144.508 463.159,146 465,146 C466.841,146 468.333,144.508 468.333,142.667 L468.333,109.333 C468.333,107.492 466.841,106 465,106 C463.159,106 461.667,107.492 461.667,109.333 Z" />
            <path d="M448.334,146 L481.666,146 C483.507,146 485,144.508 485,142.667 C485,140.826 483.507,139.333 481.666,139.333 L448.334,139.333 C446.493,139.333 445,140.826 445,142.667 C445,144.508 446.493,146 448.334,146 Z" />
        </g>
        <g id="Black-M" transform="translate(0,200)">
            <path d="M667.357,106.976 L641.381,81 C641.66,81.279 641.743,81.699 641.592,82.064 C641.441,82.429 641.085,82.667 640.69,82.667 L689.31,82.667 C688.915,82.667 688.559,82.429 688.408,82.064 C688.257,81.699 688.34,81.279 688.62,80.999 L662.643,106.976 L667.357,106.976 Z M662.643,111.69 C663.945,112.992 666.055,112.992 667.357,111.69 L693.333,85.714 C694.961,84.087 695.448,81.639 694.567,79.512 C693.686,77.386 691.611,76 689.309,76 L640.69,76 C638.389,76 636.314,77.386 635.433,79.512 C634.552,81.639 635.039,84.087 636.667,85.714 L662.643,111.69 Z" />
            <path d="M661.667,109.333 L661.667,142.667 C661.667,144.508 663.159,146 665,146 C666.841,146 668.333,144.508 668.333,142.667 L668.333,109.333 C668.333,107.492 666.841,106 665,106 C663.159,106 661.667,107.492 661.667,109.333 Z" />
            <path d="M648.334,146 L681.666,146 C683.507,146 685,144.508 685,142.667 C685,140.826 683.507,139.333 681.666,139.333 L648.334,139.333 C646.493,139.333 645,140.826 645,142.667 C645,144.508 646.493,146 648.334,146 Z" />
        </g>
    </g>
</svg>