<?xml version="1.0" encoding="UTF-8"?>
<svg height="600" width="800" xmlns="http://www.w3.org/2000/svg" xmlns:xlink="http://www.w3.org/1999/xlink">
    <g id="Notes" font-family="LucidaGrande, 'Lucida Grande', sans-serif" font-size="13">
        <rect fill="white" height="600.0" width="800.0" x="0.0" y="0.0" />
        <g font-size="13">
            <text x="18.0" y="176.0">Small</text>
            <text x="18.0" y="376.0">Medium</text>
            <text x="18.0" y="576.0">Large</text>
        </g>
        <g font-size="9">
            <text x="250.0" y="30.0">Ultralight</text>
            <text x="450.0" y="30.0">Regular</text>
            <text x="650.0" y="30.0">Black</text>
            <text id="template-version" fill="#505050" text-anchor="end" x="785.0" y="575.0">Template v.3.0</text>
            <a href="https://github.com/swhitty/SwiftDraw">
                <text fill="#505050" text-anchor="end" x="785.0" y="590.0">https://github.com/swhitty/SwiftDraw</text>
            </a>
        </g>
    </g>
    <g id="Guides" stroke="rgb(39, 170, 225)" stroke-width="0.5">
        <path id="Capline-S" d="M18,76 l800,0" />
        <path id="H-reference" d="M85,145.755 L87.685,145.755 L113.369,79.287 L114.052,79.287 L114.052,76 L112.148,76 L85,145.755 Z M95.693,121.536 L130.996,121.536 L130.263,119.313 L96.474,119.313 L95.693,121.536 Z M139.15,145.755 L141.787,145.755 L114.638,76 L113.466,76 L113.466,79.287 L139.15,145.755 Z" stroke="none" transform="translate(0,200)" />
        <path id="Baseline-S" d="M18,146 l800,0" />
        <path id="left-margin-Ultralight-M" d="M231.591,256 l0,110" />
        <path id="right-margin-Ultralight-M" d="M298.409,256 l0,110" />
        <path id="left-margin-Regular-M" d="M431.591,256 l0,110" />
        <path id="right-margin-Regular-M" d="M498.409,256 l0,110" />
        <path id="left-margin-Black-M" d="M631.591,256 l0,110" />
        <path id="right-margin-Black-M" d="M698.409,256 l0,110" />
        <path id="Capline-M" d="M18,276 l800,0" />
        <path id="Baseline-M" d="M18,346 l800,0" />
        <path id="Capline-L" d="M18,476 l800,0" />
        <path id="Baseline-L" d="M18,546 l800,0" />
    </g>
    <g id="Symbols">
        <g id="Ultralight-M" transform="translate(0,200)">
            <path d="M252.645,118.951 L238.314,93.942 C237.682,92.84 237.763,91.463 238.519,90.443 L243.585,83.64 C244.183,82.835 245.117,82.364 246.108,82.364 L283.906,82.364 C284.897,82.364 285.831,82.835 286.426,83.636 L291.462,90.442 C292.233,91.472 292.32,92.849 291.693,93.955 L277.368,118.951 C276.497,120.472 277.011,122.419 278.516,123.299 C280.022,124.18 281.949,123.66 282.82,122.14 L297.152,97.13 C299.041,93.8 298.78,89.668 296.498,86.618 L291.468,79.822 C289.681,77.415 286.88,76 283.906,76 L246.108,76 C243.134,76 240.333,77.415 238.548,79.818 L233.48,86.623 C231.208,89.69 230.966,93.821 232.861,97.13 L247.193,122.14 C248.065,123.66 249.992,124.18 251.497,123.299 C253.003,122.419 253.517,120.472 252.645,118.951 Z" />
            <path d="M264.558,109.363 L246.037,78.181 C245.142,76.674 243.207,76.186 241.716,77.09 C240.224,77.994 239.74,79.948 240.635,81.455 L259.156,112.637 C260.051,114.144 261.986,114.632 263.478,113.728 C264.969,112.824 265.453,110.87 264.558,109.363 Z" />
            <path d="M270.858,112.637 L289.379,81.455 C290.274,79.948 289.79,77.994 288.298,77.09 C286.806,76.186 284.872,76.674 283.977,78.181 L265.456,109.363 C264.561,110.87 265.044,112.824 266.536,113.728 C268.028,114.632 269.963,114.144 270.858,112.637 Z" />
            <path d="M252.408,98.273 L277.606,98.273 C279.346,98.273 280.756,96.848 280.756,95.091 C280.756,93.334 279.346,91.909 277.606,91.909 L252.408,91.909 C250.668,91.909 249.258,93.334 249.258,95.091 C249.258,96.848 250.668,98.273 252.408,98.273 Z" />
            <path d="M252.408,126.909 C252.408,119.88 258.048,114.182 265.007,114.182 C271.965,114.182 277.606,119.88 277.606,126.909 C277.606,133.938 271.965,139.636 265.007,139.636 C258.048,139.636 252.408,133.938 252.408,126.909 Z M246.108,126.909 C246.108,137.453 254.569,146 265.007,146 C275.444,146 283.906,137.453 283.906,126.909 C283.906,116.365 275.444,107.818 265.007,107.818 C254.569,107.818 246.108,116.365 246.108,126.909 Z" />
            <path d="M268.157,130.091 L268.157,123.727 C268.157,121.97 266.746,120.545 265.007,120.545 L263.432,120.545 C261.692,120.545 260.282,121.97 260.282,123.727 C260.282,125.485 261.692,126.909 263.432,126.909 L265.007,126.909 L265.007,123.727 L261.857,123.727 L261.857,130.091 C261.857,131.848 263.267,133.273 265.007,133.273 C266.746,133.273 268.157,131.848 268.157,130.091 Z" />
        </g>
        <g id="Regular-M" transform="translate(0,200)">
            <path d="M452.645,118.951 L438.314,93.942 C437.682,92.84 437.763,91.463 438.519,90.443 L443.585,83.64 C444.183,82.835 445.117,82.364 446.108,82.364 L483.906,82.364 C484.897,82.364 485.831,82.835 486.426,83.636 L491.462,90.442 C492.233,91.472 492.32,92.849 491.693,93.955 L477.368,118.951 C476.497,120.472 477.011,122.419 478.516,123.299 C480.022,124.18 481.949,123.66 482.82,122.14 L497.152,97.13 C499.041,93.8 498.78,89.668 496.498,86.618 L491.468,79.822 C489.681,77.415 486.88,76 483.906,76 L446.108,76 C443.134,76 440.333,77.415 438.548,79.818 L433.48,86.623 C431.208,89.69 430.966,93.821 432.861,97.13 L447.193,122.14 C448.065,123.66 449.992,124.18 451.497,123.299 C453.003,122.419 453.517,120.472 452.645,118.951 Z" />
            <path d="M464.558,109.363 L446.037,78.181 C445.142,76.674 443.207,76.186 441.716,77.09 C440.224,77.994 439.74,79.948 440.635,81.455 L459.156,112.637 C460.051,114.144 461.986,114.632 463.478,113.728 C464.969,112.824 465.453,110.87 464.558,109.363 Z" />
            <path d="M470.858,112.637 L489.379,81.455 C490.274,79.948 489.79,77.994 488.298,77.09 C486.806,76.186 484.872,76.674 483.977,78.181 L465.456,109.363 C464.561,110.87 465.044,112.824 466.536,113.728 C468.028,114.632 469.963,114.144 470.858,112.637 Z" />
            <path d="M452.408,98.273 L477.606,98.273 C479.346,98.273 480.756,96.848 480.756,95.091 C480.756,93.334 479.346,91.909 477.606,91.909 L452.408,91.909 C450.668,91.909 449.258,93.334 449.258,95.091 C449.258,96.848 450.668,98.273 452.408,98.273 Z" />
            <path d="M452.408,126.909 C452.408,119.88 458.048,114.182 465.007,114.182 C471.965,114.182 477.606,119.88 477.606,126.909 C477.606,133.938 471.965,139.636 465.007,139.636 C458.048,139.636 452.408,133.938 452.408,126.909 Z M446.108,126.909 C446.108,137.453 454.569,146 465.007,146 C475.444,146 483.906,137.453 483.906,126.909 C483.906,116.365 475.444,107.818 465.007,107.818 C454.569,107.818 446.108,116.365 446.108,126.909 Z" />
            <path d="M468.157,130.091 L468.157,123.727 C468.157,121.97 466.746,120.545 465.007,120.545 L463.432,120.545 C461.692,120.545 460.282,121.97 460.282,123.727 C460.282,125.485 461.692,126.909 463.432,126.909 L465.007,126.909 L465.007,123.727 L461.857,123.727 L461.857,130.091 C461.857,131.848 463.267,133.273 465.007,133.273 C466.746,133.273 468.157,131.848 468.157,130.091 Z" />
        </g>
        <g id="Black-M" transform="translate(0,200)">
            <path d="M652.645,118.951 L638.314,93.942 C637.682,92.84 637.763,91.463 638.519,90.443 L643.585,83.64 C644.183,82.835 645.116,82.364 646.108,82.364 L683.906,82.364 C684.897,82.364 685.831,82.835 686.426,83.636 L691.462,90.442 C692.233,91.472 692.32,92.849 691.693,93.955 L677.368,118.951 C676.497,120.472 677.011,122.419 678.516,123.299 C680.022,124.18 681.949,123.66 682.82,122.14 L697.152,97.13 C699.041,93.8 698.78,89.668 696.498,86.618 L691.468,79.822 C689.681,77.415 686.88,76 683.906,76 L646.108,76 C643.134,76 640.333,77.415 638.548,79.818 L633.48,86.623 C631.208,89.69 630.966,93.821 632.861,97.13 L647.193,122.14 C648.065,123.66 649.992,124.18 651.497,123.299 C653.003,122.419 653.517,120.472 652.645,118.951 Z" />
            <path d="M664.558,109.363 L646.037,78.181 C645.142,76.674 643.207,76.186 641.716,77.09 C640.224,77.994 639.74,79.948 640.635,81.455 L659.156,112.637 C660.051,114.144 661.986,114.632 663.478,113.728 C664.969,112.824 665.453,110.87 664.558,109.363 Z" />
            <path d="M670.858,112.637 L689.378,81.455 C690.273,79.948 689.79,77.994 688.298,77.09 C686.806,76.186 684.872,76.674 683.977,78.181 L665.456,109.363 C664.561,110.87 665.044,112.824 666.536,113.728 C668.028,114.632 669.963,114.144 670.858,112.637 Z" />
            <path d="M652.408,98.273 L677.606,98.273 C679.346,98.273 680.756,96.848 680.756,95.091 C680.756,93.334 679.346,91.909 677.606,91.909 L652.408,91.909 C650.668,91.909 649.258,93.334 649.258,95.091 C649.258,96.848 650.668,98.273 652.408,98.273 Z" />
            <path d="M652.408,126.909 C652.408,119.88 658.048,114.182 665.007,114.182 C671.965,114.182 677.606,119.88 677.606,126.909 C677.606,133.938 671.965,139.636 665.007,139.636 C658.048,139.636 652.408,133.938 652.408,126.909 Z M646.108,126.909 C646.108,137.453 654.569,146 665.007,146 C675.444,146 683.906,137.453 683.906,126.909 C683.906,116.365 675.444,107.818 665.007,107.818 C654.569,107.818 646.108,116.365 646.108,126.909 Z" />
            <path d="M668.157,130.091 L668.157,123.727 C668.157,121.97 666.746,120.545 665.007,120.545 L663.432,120.545 C661.692,120.545 660.282,121.97 660.282,123.727 C660.282,125.485 661.692,126.909 663.432,126.909 L665.007,126.909 L665.007,123.727 L661.857,123.727 L661.857,130.091 C661.857,131.848 663.267,133.273 665.007,133.273 C666.746,133.273 668.157,131.848 668.157,130.091 Z" />
        </g>
    </g>
</svg>