<?xml version="1.0" encoding="UTF-8"?>
<svg height="600" width="800" xmlns="http://www.w3.org/2000/svg" xmlns:xlink="http://www.w3.org/1999/xlink">
    <g id="Notes" font-family="LucidaGrande, 'Lucida Grande', sans-serif" font-size="13">
        <rect fill="white" height="600.0" width="800.0" x="0.0" y="0.0" />
        <g font-size="13">
            <text x="18.0" y="176.0">Small</text>
            <text x="18.0" y="376.0">Medium</text>
            <text x="18.0" y="576.0">Large</text>
        </g>
        <g font-size="9">
            <text x="250.0" y="30.0">Ultralight</text>
            <text x="450.0" y="30.0">Regular</text>
            <text x="650.0" y="30.0">Black</text>
            <text id="template-version" fill="#505050" text-anchor="end" x="785.0" y="575.0">Template v.3.0</text>
            <a href="https://github.com/swhitty/SwiftDraw">
                <text fill="#505050" text-anchor="end" x="785.0" y="590.0">https://github.com/swhitty/SwiftDraw</text>
            </a>
        </g>
    </g>
    <g id="Guides" stroke="rgb(39, 170, 225)" stroke-width="0.5">
        <path id="Capline-S" d="M18,76 l800,0" />
        <path id="H-reference" d="M85,145.755 L87.685,145.755 L113.369,79.287 L114.052,79.287 L114.052,76 L112.148,76 L85,145.755 Z M95.693,121.536 L130.996,121.536 L130.263,119.313 L96.474,119.313 L95.693,121.536 Z M139.15,145.755 L141.787,145.755 L114.638,76 L113.466,76 L113.466,79.287 L139.15,145.755 Z" stroke="none" transform="translate(0,200)" />
        <path id="Baseline-S" d="M18,146 l800,0" />
        <path id="left-margin-Ultralight-M" d="M221,256 l0,110" />
        <path id="right-margin-Ultralight-M" d="M309,256 l0,110" />
        <path id="left-margin-Regular-M" d="M421,256 l0,110" />
        <path id="right-margin-Regular-M" d="M509,256 l0,110" />
        <path id="left-margin-Black-M" d="M621,256 l0,110" />
        <path id="right-margin-Black-M" d="M709,256 l0,110" />
        <path id="Capline-M" d="M18,276 l800,0" />
        <path id="Baseline-M" d="M18,346 l800,0" />
        <path id="Capline-L" d="M18,476 l800,0" />
        <path id="Baseline-L" d="M18,546 l800,0" />
    </g>
    <g id="Symbols">
        <g id="Ultralight-M" transform="translate(0,200)">
            <path d="M269,111 L269,103 C269,100.791 267.209,99 265,99 C262.791,99 261,100.791 261,103 L261,111 C261,113.209 262.791,115 265,115 C267.209,115 269,113.209 269,111 Z" />
            <path d="M269,135 L269,127 C269,124.791 267.209,123 265,123 C262.791,123 261,124.791 261,127 L261,135 C261,137.209 262.791,139 265,139 C267.209,139 269,137.209 269,135 Z" />
            <path d="M285,111 L285,103 C285,100.791 283.209,99 281,99 C278.791,99 277,100.791 277,103 L277,111 C277,113.209 278.791,115 281,115 C283.209,115 285,113.209 285,111 Z" />
            <path d="M285,135 L285,127 C285,124.791 283.209,123 281,123 C278.791,123 277,124.791 277,127 L277,135 C277,137.209 278.791,139 281,139 C283.209,139 285,137.209 285,135 Z" />
            <path d="M225,111 L231,111 C233.209,111 235,109.209 235,107 C235,104.791 233.209,103 231,103 L225,103 C222.791,103 221,104.791 221,107 C221,109.209 222.791,111 225,111 Z" />
            <path d="M301,135 L301,127 C301,124.791 299.209,123 297,123 C294.791,123 293,124.791 293,127 L293,135 C293,137.209 294.791,139 297,139 C299.209,139 301,137.209 301,135 Z" />
            <path d="M299,111 L305,111 C307.209,111 309,109.209 309,107 C309,104.791 307.209,103 305,103 L299,103 C296.791,103 295,104.791 295,107 C295,109.209 296.791,111 299,111 Z" />
            <path d="M237,135 L237,127 C237,124.791 235.209,123 233,123 C230.791,123 229,124.791 229,127 L229,135 C229,137.209 230.791,139 233,139 C235.209,139 237,137.209 237,135 Z" />
            <path d="M253,111 L253,103 C253,100.791 251.209,99 249,99 C246.791,99 245,100.791 245,103 L245,111 C245,113.209 246.791,115 249,115 C251.209,115 253,113.209 253,111 Z" />
            <path d="M253,135 L253,127 C253,124.791 251.209,123 249,123 C246.791,123 245,124.791 245,127 L245,135 C245,137.209 246.791,139 249,139 C251.209,139 253,137.209 253,135 Z" />
            <path d="M301,107 L301,119 C301,120.061 300.579,121.078 299.828,121.828 C299.078,122.579 298.061,123 297,123 L233,123 C231.939,123 230.922,122.579 230.172,121.828 C229.421,121.078 229,120.061 229,119 L229,95 C229,93.939 229.421,92.922 230.172,92.172 C230.922,91.421 231.939,91 233,91 L297,91 C298.061,91 299.078,91.421 299.828,92.172 C300.579,92.922 301,93.939 301,95 L301,107 Z M309,107 L309,95 C309,91.817 307.736,88.765 305.485,86.515 C303.235,84.264 300.183,83 297,83 L233,83 C229.817,83 226.765,84.264 224.515,86.515 C222.264,88.765 221,91.817 221,95 L221,119 C221,122.183 222.264,125.235 224.515,127.485 C226.765,129.736 229.817,131 233,131 L297,131 C300.183,131 303.235,129.736 305.485,127.485 C307.736,125.235 309,122.183 309,119 L309,107 Z" />
        </g>
        <g id="Regular-M" transform="translate(0,200)">
            <path d="M469,111 L469,103 C469,100.791 467.209,99 465,99 C462.791,99 461,100.791 461,103 L461,111 C461,113.209 462.791,115 465,115 C467.209,115 469,113.209 469,111 Z" />
            <path d="M469,135 L469,127 C469,124.791 467.209,123 465,123 C462.791,123 461,124.791 461,127 L461,135 C461,137.209 462.791,139 465,139 C467.209,139 469,137.209 469,135 Z" />
            <path d="M485,111 L485,103 C485,100.791 483.209,99 481,99 C478.791,99 477,100.791 477,103 L477,111 C477,113.209 478.791,115 481,115 C483.209,115 485,113.209 485,111 Z" />
            <path d="M485,135 L485,127 C485,124.791 483.209,123 481,123 C478.791,123 477,124.791 477,127 L477,135 C477,137.209 478.791,139 481,139 C483.209,139 485,137.209 485,135 Z" />
            <path d="M425,111 L431,111 C433.209,111 435,109.209 435,107 C435,104.791 433.209,103 431,103 L425,103 C422.791,103 421,104.791 421,107 C421,109.209 422.791,111 425,111 Z" />
            <path d="M501,135 L501,127 C501,124.791 499.209,123 497,123 C494.791,123 493,124.791 493,127 L493,135 C493,137.209 494.791,139 497,139 C499.209,139 501,137.209 501,135 Z" />
            <path d="M499,111 L505,111 C507.209,111 509,109.209 509,107 C509,104.791 507.209,103 505,103 L499,103 C496.791,103 495,104.791 495,107 C495,109.209 496.791,111 499,111 Z" />
            <path d="M437,135 L437,127 C437,124.791 435.209,123 433,123 C430.791,123 429,124.791 429,127 L429,135 C429,137.209 430.791,139 433,139 C435.209,139 437,137.209 437,135 Z" />
            <path d="M453,111 L453,103 C453,100.791 451.209,99 449,99 C446.791,99 445,100.791 445,103 L445,111 C445,113.209 446.791,115 449,115 C451.209,115 453,113.209 453,111 Z" />
            <path d="M453,135 L453,127 C453,124.791 451.209,123 449,123 C446.791,123 445,124.791 445,127 L445,135 C445,137.209 446.791,139 449,139 C451.209,139 453,137.209 453,135 Z" />
            <path d="M501,107 L501,119 C501,120.061 500.579,121.078 499.828,121.828 C499.078,122.579 498.061,123 497,123 L433,123 C431.939,123 430.922,122.579 430.172,121.828 C429.421,121.078 429,120.061 429,119 L429,95 C429,93.939 429.421,92.922 430.172,92.172 C430.922,91.421 431.939,91 433,91 L497,91 C498.061,91 499.078,91.421 499.828,92.172 C500.579,92.922 501,93.939 501,95 L501,107 Z M509,107 L509,95 C509,91.817 507.736,88.765 505.485,86.515 C503.235,84.264 500.183,83 497,83 L433,83 C429.817,83 426.765,84.264 424.515,86.515 C422.264,88.765 421,91.817 421,95 L421,119 C421,122.183 422.264,125.235 424.515,127.485 C426.765,129.736 429.817,131 433,131 L497,131 C500.183,131 503.235,129.736 505.485,127.485 C507.736,125.235 509,122.183 509,119 L509,107 Z" />
        </g>
        <g id="Black-M" transform="translate(0,200)">
            <path d="M669,111 L669,103 C669,100.791 667.209,99 665,99 C662.791,99 661,100.791 661,103 L661,111 C661,113.209 662.791,115 665,115 C667.209,115 669,113.209 669,111 Z" />
            <path d="M669,135 L669,127 C669,124.791 667.209,123 665,123 C662.791,123 661,124.791 661,127 L661,135 C661,137.209 662.791,139 665,139 C667.209,139 669,137.209 669,135 Z" />
            <path d="M685,111 L685,103 C685,100.791 683.209,99 681,99 C678.791,99 677,100.791 677,103 L677,111 C677,113.209 678.791,115 681,115 C683.209,115 685,113.209 685,111 Z" />
            <path d="M685,135 L685,127 C685,124.791 683.209,123 681,123 C678.791,123 677,124.791 677,127 L677,135 C677,137.209 678.791,139 681,139 C683.209,139 685,137.209 685,135 Z" />
            <path d="M625,111 L631,111 C633.209,111 635,109.209 635,107 C635,104.791 633.209,103 631,103 L625,103 C622.791,103 621,104.791 621,107 C621,109.209 622.791,111 625,111 Z" />
            <path d="M701,135 L701,127 C701,124.791 699.209,123 697,123 C694.791,123 693,124.791 693,127 L693,135 C693,137.209 694.791,139 697,139 C699.209,139 701,137.209 701,135 Z" />
            <path d="M699,111 L705,111 C707.209,111 709,109.209 709,107 C709,104.791 707.209,103 705,103 L699,103 C696.791,103 695,104.791 695,107 C695,109.209 696.791,111 699,111 Z" />
            <path d="M637,135 L637,127 C637,124.791 635.209,123 633,123 C630.791,123 629,124.791 629,127 L629,135 C629,137.209 630.791,139 633,139 C635.209,139 637,137.209 637,135 Z" />
            <path d="M653,111 L653,103 C653,100.791 651.209,99 649,99 C646.791,99 645,100.791 645,103 L645,111 C645,113.209 646.791,115 649,115 C651.209,115 653,113.209 653,111 Z" />
            <path d="M653,135 L653,127 C653,124.791 651.209,123 649,123 C646.791,123 645,124.791 645,127 L645,135 C645,137.209 646.791,139 649,139 C651.209,139 653,137.209 653,135 Z" />
            <path d="M701,107 L701,119 C701,120.061 700.579,121.078 699.828,121.828 C699.078,122.579 698.061,123 697,123 L633,123 C631.939,123 630.922,122.579 630.172,121.828 C629.421,121.078 629,120.061 629,119 L629,95 C629,93.939 629.421,92.922 630.172,92.172 C630.922,91.421 631.939,91 633,91 L697,91 C698.061,91 699.078,91.421 699.828,92.172 C700.579,92.922 701,93.939 701,95 L701,107 Z M709,107 L709,95 C709,91.817 707.736,88.765 705.485,86.515 C703.235,84.264 700.183,83 697,83 L633,83 C629.817,83 626.765,84.264 624.515,86.515 C622.264,88.765 621,91.817 621,95 L621,119 C621,122.183 622.264,125.235 624.515,127.485 C626.765,129.736 629.817,131 633,131 L697,131 C700.183,131 703.235,129.736 705.485,127.485 C707.736,125.235 709,122.183 709,119 L709,107 Z" />
        </g>
    </g>
</svg>