<?xml version="1.0" encoding="UTF-8"?>
<svg height="600" width="800" xmlns="http://www.w3.org/2000/svg" xmlns:xlink="http://www.w3.org/1999/xlink">
    <g id="Notes" font-family="LucidaGrande, 'Lucida Grande', sans-serif" font-size="13">
        <rect fill="white" height="600.0" width="800.0" x="0.0" y="0.0" />
        <g font-size="13">
            <text x="18.0" y="176.0">Small</text>
            <text x="18.0" y="376.0">Medium</text>
            <text x="18.0" y="576.0">Large</text>
        </g>
        <g font-size="9">
            <text x="250.0" y="30.0">Ultralight</text>
            <text x="450.0" y="30.0">Regular</text>
            <text x="650.0" y="30.0">Black</text>
            <text id="template-version" fill="#505050" text-anchor="end" x="785.0" y="575.0">Template v.3.0</text>
            <a href="https://github.com/swhitty/SwiftDraw">
                <text fill="#505050" text-anchor="end" x="785.0" y="590.0">https://github.com/swhitty/SwiftDraw</text>
            </a>
        </g>
    </g>
    <g id="Guides" stroke="rgb(39, 170, 225)" stroke-width="0.5">
        <path id="Capline-S" d="M18,76 l800,0" />
        <path id="H-reference" d="M85,145.755 L87.685,145.755 L113.369,79.287 L114.052,79.287 L114.052,76 L112.148,76 L85,145.755 Z M95.693,121.536 L130.996,121.536 L130.263,119.313 L96.474,119.313 L95.693,121.536 Z M139.15,145.755 L141.787,145.755 L114.638,76 L113.466,76 L113.466,79.287 L139.15,145.755 Z" stroke="none" transform="translate(0,200)" />
        <path id="Baseline-S" d="M18,146 l800,0" />
        <path id="left-margin-Ultralight-M" d="M230,256 l0,110" />
        <path id="right-margin-Ultralight-M" d="M300,256 l0,110" />
        <path id="left-margin-Regular-M" d="M430,256 l0,110" />
        <path id="right-margin-Regular-M" d="M500,256 l0,110" />
        <path id="left-margin-Black-M" d="M630,256 l0,110" />
        <path id="right-margin-Black-M" d="M700,256 l0,110" />
        <path id="Capline-M" d="M18,276 l800,0" />
        <path id="Baseline-M" d="M18,346 l800,0" />
        <path id="Capline-L" d="M18,476 l800,0" />
        <path id="Baseline-L" d="M18,546 l800,0" />
    </g>
    <g id="Symbols">
        <g id="Ultralight-M" transform="translate(0,200)">
            <path d="M233.382,125.985 C233.616,126.575 233.668,127.221 233.532,127.841 L230.223,138.013 L230.134,138.352 C229.69,140.511 230.395,142.745 231.996,144.259 C233.598,145.773 235.869,146.35 237.999,145.784 L248.935,142.588 C249.246,142.539 249.852,142.589 250.409,142.801 C265.621,149.915 283.997,144.969 293.726,130.993 C303.454,117.017 301.711,98.068 289.597,86.1 C277.483,74.133 258.513,72.622 244.657,82.521 C230.801,92.419 226.08,110.854 233.474,126.194 C234.237,127.777 236.138,128.441 237.721,127.679 C239.304,126.916 239.969,125.014 239.206,123.431 C233.157,110.88 237.019,95.797 248.356,87.698 C259.693,79.6 275.213,80.836 285.125,90.627 C295.037,100.419 296.463,115.923 288.503,127.358 C280.543,138.793 265.509,142.839 252.885,136.944 C250.995,136.217 249.178,136.065 247.423,136.413 L236.29,139.655 C236.367,139.634 236.367,139.634 236.367,139.634 C236.367,139.634 236.367,139.634 236.367,139.634 L233.25,138.993 L236.277,139.973 L239.666,129.505 C240.155,127.35 239.999,125.41 239.298,123.64 C238.65,122.006 236.801,121.207 235.167,121.855 C233.534,122.502 232.734,124.351 233.382,125.985 Z" />
            <path d="M254.026,112.203 C251.663,109.732 251.676,105.834 254.056,103.378 C256.435,100.922 260.33,100.786 262.875,103.07 C264.084,104.155 265.917,104.155 267.126,103.069 C268.992,101.394 271.669,100.971 273.961,101.99 C276.253,103.009 277.732,105.279 277.74,107.787 C277.745,109.433 277.112,111.017 275.975,112.206 L265.003,123.729 C265.002,123.73 265.002,123.73 265.002,123.73 C265.002,123.73 265.002,123.73 265.002,123.73 L254.03,112.208 Z M249.422,116.596 L260.389,128.114 C261.586,129.375 263.253,130.092 264.997,130.093 C266.742,130.094 268.41,129.379 269.612,128.116 L280.578,116.599 C282.848,114.226 284.113,111.059 284.103,107.768 C284.089,102.752 281.129,98.212 276.545,96.175 C271.961,94.138 266.608,94.983 262.875,98.334 L267.125,98.334 C262.035,93.766 254.245,94.039 249.486,98.95 C244.727,103.862 244.701,111.657 249.426,116.601 Z" />
        </g>
        <g id="Regular-M" transform="translate(0,200)">
            <path d="M433.382,125.985 C433.616,126.575 433.668,127.221 433.532,127.841 L430.223,138.013 L430.134,138.352 C429.69,140.511 430.395,142.745 431.996,144.259 C433.598,145.773 435.869,146.35 437.999,145.784 L448.935,142.588 C449.246,142.539 449.852,142.589 450.409,142.801 C465.621,149.915 483.997,144.969 493.726,130.993 C503.454,117.017 501.711,98.068 489.597,86.1 C477.483,74.133 458.513,72.622 444.657,82.521 C430.801,92.419 426.08,110.854 433.474,126.194 C434.237,127.777 436.138,128.441 437.721,127.679 C439.304,126.916 439.969,125.014 439.206,123.431 C433.157,110.88 437.019,95.797 448.356,87.698 C459.693,79.6 475.213,80.836 485.125,90.627 C495.037,100.419 496.463,115.923 488.503,127.358 C480.543,138.793 465.509,142.839 452.885,136.944 C450.995,136.217 449.178,136.065 447.423,136.413 L436.29,139.655 C436.367,139.634 436.367,139.634 436.367,139.634 C436.367,139.634 436.367,139.634 436.367,139.634 L433.25,138.993 L436.277,139.973 L439.666,129.505 C440.155,127.35 439.999,125.41 439.298,123.64 C438.65,122.006 436.801,121.207 435.167,121.855 C433.534,122.502 432.734,124.351 433.382,125.985 Z" />
            <path d="M454.026,112.203 C451.663,109.732 451.676,105.834 454.056,103.378 C456.435,100.922 460.33,100.786 462.875,103.07 C464.084,104.155 465.917,104.155 467.126,103.069 C468.992,101.394 471.669,100.971 473.961,101.99 C476.253,103.009 477.732,105.279 477.74,107.787 C477.745,109.433 477.112,111.017 475.975,112.206 L465.003,123.729 C465.002,123.73 465.002,123.73 465.002,123.73 C465.002,123.73 465.002,123.73 465.002,123.73 L454.03,112.208 Z M449.422,116.596 L460.389,128.114 C461.586,129.375 463.253,130.092 464.997,130.093 C466.742,130.094 468.41,129.379 469.612,128.116 L480.578,116.599 C482.848,114.226 484.113,111.059 484.103,107.768 C484.089,102.752 481.129,98.212 476.545,96.175 C471.961,94.138 466.608,94.983 462.875,98.334 L467.125,98.334 C462.035,93.766 454.245,94.039 449.486,98.95 C444.727,103.862 444.701,111.657 449.426,116.601 Z" />
        </g>
        <g id="Black-M" transform="translate(0,200)">
            <path d="M633.382,125.985 C633.616,126.575 633.668,127.221 633.532,127.841 L630.223,138.013 L630.134,138.352 C629.69,140.511 630.395,142.745 631.996,144.259 C633.598,145.773 635.869,146.35 637.999,145.784 L648.935,142.588 C649.246,142.539 649.852,142.589 650.409,142.801 C665.621,149.915 683.997,144.969 693.726,130.993 C703.454,117.017 701.711,98.068 689.597,86.1 C677.483,74.133 658.513,72.622 644.657,82.521 C630.801,92.419 626.08,110.854 633.474,126.194 C634.237,127.777 636.138,128.441 637.721,127.679 C639.304,126.916 639.969,125.014 639.206,123.431 C633.157,110.88 637.019,95.797 648.356,87.698 C659.693,79.6 675.213,80.836 685.125,90.627 C695.037,100.419 696.463,115.923 688.503,127.358 C680.543,138.793 665.509,142.839 652.885,136.944 C650.995,136.217 649.178,136.065 647.423,136.413 L636.29,139.655 C636.367,139.634 636.367,139.634 636.367,139.634 C636.367,139.634 636.367,139.634 636.367,139.634 L633.25,138.993 L636.277,139.973 L639.666,129.505 C640.156,127.35 639.999,125.41 639.297,123.64 C638.65,122.006 636.801,121.207 635.167,121.855 C633.534,122.502 632.734,124.351 633.382,125.985 Z" />
            <path d="M654.026,112.203 C651.663,109.732 651.676,105.834 654.056,103.378 C656.435,100.922 660.33,100.786 662.875,103.07 C664.084,104.155 665.917,104.155 667.126,103.069 C668.992,101.394 671.669,100.971 673.961,101.99 C676.253,103.009 677.732,105.279 677.74,107.787 C677.745,109.433 677.112,111.017 675.975,112.206 L665.003,123.729 C665.002,123.73 665.002,123.73 665.002,123.73 C665.002,123.73 665.002,123.73 665.002,123.73 L654.03,112.208 Z M649.422,116.596 L660.389,128.114 C661.586,129.375 663.253,130.092 664.997,130.093 C666.742,130.094 668.41,129.379 669.612,128.116 L680.578,116.599 C682.848,114.226 684.113,111.059 684.103,107.768 C684.089,102.752 681.129,98.212 676.545,96.175 C671.961,94.138 666.608,94.983 662.875,98.334 L667.125,98.334 C662.035,93.766 654.245,94.039 649.486,98.95 C644.727,103.862 644.701,111.657 649.427,116.601 Z" />
        </g>
    </g>
</svg>