<?xml version="1.0" encoding="UTF-8"?>
<svg height="600" width="800" xmlns="http://www.w3.org/2000/svg" xmlns:xlink="http://www.w3.org/1999/xlink">
    <g id="Notes" font-family="LucidaGrande, 'Lucida Grande', sans-serif" font-size="13">
        <rect fill="white" height="600.0" width="800.0" x="0.0" y="0.0" />
        <g font-size="13">
            <text x="18.0" y="176.0">Small</text>
            <text x="18.0" y="376.0">Medium</text>
            <text x="18.0" y="576.0">Large</text>
        </g>
        <g font-size="9">
            <text x="250.0" y="30.0">Ultralight</text>
            <text x="450.0" y="30.0">Regular</text>
            <text x="650.0" y="30.0">Black</text>
            <text id="template-version" fill="#505050" text-anchor="end" x="785.0" y="575.0">Template v.3.0</text>
            <a href="https://github.com/swhitty/SwiftDraw">
                <text fill="#505050" text-anchor="end" x="785.0" y="590.0">https://github.com/swhitty/SwiftDraw</text>
            </a>
        </g>
    </g>
    <g id="Guides" stroke="rgb(39, 170, 225)" stroke-width="0.5">
        <path id="Capline-S" d="M18,76 l800,0" />
        <path id="H-reference" d="M85,145.755 L87.685,145.755 L113.369,79.287 L114.052,79.287 L114.052,76 L112.148,76 L85,145.755 Z M95.693,121.536 L130.996,121.536 L130.263,119.313 L96.474,119.313 L95.693,121.536 Z M139.15,145.755 L141.787,145.755 L114.638,76 L113.466,76 L113.466,79.287 L139.15,145.755 Z" stroke="none" transform="translate(0,200)" />
        <path id="Baseline-S" d="M18,146 l800,0" />
        <path id="left-margin-Ultralight-M" d="M228.333,256 l0,110" />
        <path id="right-margin-Ultralight-M" d="M301.667,256 l0,110" />
        <path id="left-margin-Regular-M" d="M428.333,256 l0,110" />
        <path id="right-margin-Regular-M" d="M501.667,256 l0,110" />
        <path id="left-margin-Black-M" d="M628.333,256 l0,110" />
        <path id="right-margin-Black-M" d="M701.667,256 l0,110" />
        <path id="Capline-M" d="M18,276 l800,0" />
        <path id="Baseline-M" d="M18,346 l800,0" />
        <path id="Capline-L" d="M18,476 l800,0" />
        <path id="Baseline-L" d="M18,546 l800,0" />
    </g>
    <g id="Symbols">
        <g id="Ultralight-M" transform="translate(0,200)">
            <path d="M295,125.973 C295,126.857 294.649,127.704 294.024,128.329 C293.399,128.954 292.551,129.305 291.667,129.305 L247.761,129.305 C245.109,129.306 242.565,130.359 240.691,132.233 L233.351,139.569 C233.552,139.35 233.997,139.253 234.383,139.413 C234.768,139.573 235.014,139.955 234.999,140.372 L235.001,85.995 C235.001,85.111 235.353,84.264 235.978,83.639 C236.603,83.014 237.451,82.663 238.335,82.663 L291.667,82.663 C292.551,82.663 293.399,83.014 294.024,83.639 C294.649,84.264 295,85.111 295,85.995 L295,125.973 Z M301.667,125.973 L301.667,85.995 C301.667,83.344 300.613,80.802 298.738,78.927 C296.862,77.053 294.319,76 291.667,76 L238.335,76 C235.683,76 233.139,77.053 231.264,78.927 C229.388,80.802 228.335,83.344 228.335,85.995 L228.335,140.252 C228.252,142.496 229.645,144.664 231.831,145.569 C234.018,146.474 236.536,145.926 238.148,144.194 L245.405,136.945 C246.03,136.319 246.878,135.968 247.762,135.968 L291.667,135.968 C294.319,135.968 296.862,134.915 298.738,133.041 C300.613,131.166 301.667,128.624 301.667,125.973 Z" />
            <path d="M252.644,108.34 L259.311,115.003 C260.612,116.304 262.723,116.304 264.024,115.003 L277.358,101.677 C278.659,100.376 278.659,98.266 277.358,96.965 C276.056,95.664 273.945,95.664 272.644,96.965 L259.311,110.291 L264.024,110.291 L257.358,103.628 C256.056,102.327 253.946,102.327 252.644,103.628 C251.342,104.929 251.342,107.039 252.644,108.34 Z" />
        </g>
        <g id="Regular-M" transform="translate(0,200)">
            <path d="M495,125.973 C495,126.857 494.649,127.704 494.024,128.329 C493.399,128.954 492.551,129.305 491.667,129.305 L447.761,129.305 C445.109,129.306 442.565,130.359 440.691,132.233 L433.351,139.569 C433.552,139.35 433.997,139.253 434.383,139.413 C434.768,139.573 435.014,139.955 434.999,140.372 L435.001,85.995 C435.001,85.111 435.353,84.264 435.978,83.639 C436.603,83.014 437.451,82.663 438.335,82.663 L491.667,82.663 C492.551,82.663 493.399,83.014 494.024,83.639 C494.649,84.264 495,85.111 495,85.995 L495,125.973 Z M501.667,125.973 L501.667,85.995 C501.667,83.344 500.613,80.802 498.738,78.927 C496.862,77.053 494.319,76 491.667,76 L438.335,76 C435.683,76 433.139,77.053 431.264,78.927 C429.388,80.802 428.335,83.344 428.335,85.995 L428.335,140.252 C428.252,142.496 429.645,144.664 431.832,145.569 C434.018,146.474 436.536,145.926 438.148,144.194 L445.405,136.945 C446.03,136.319 446.878,135.968 447.762,135.968 L491.667,135.968 C494.319,135.968 496.862,134.915 498.738,133.041 C500.613,131.166 501.667,128.624 501.667,125.973 Z" />
            <path d="M452.644,108.34 L459.311,115.003 C460.612,116.304 462.723,116.304 464.024,115.003 L477.358,101.677 C478.659,100.376 478.659,98.266 477.358,96.965 C476.056,95.664 473.945,95.664 472.644,96.965 L459.311,110.291 L464.024,110.291 L457.358,103.628 C456.056,102.327 453.946,102.327 452.644,103.628 C451.342,104.929 451.342,107.039 452.644,108.34 Z" />
        </g>
        <g id="Black-M" transform="translate(0,200)">
            <path d="M695,125.973 C695,126.857 694.649,127.704 694.024,128.329 C693.399,128.954 692.551,129.305 691.667,129.305 L647.761,129.305 C645.109,129.306 642.565,130.359 640.691,132.233 L633.351,139.569 C633.552,139.35 633.997,139.253 634.383,139.413 C634.768,139.573 635.014,139.955 634.999,140.372 L635.001,85.995 C635.001,85.111 635.353,84.264 635.978,83.639 C636.603,83.014 637.451,82.663 638.335,82.663 L691.667,82.663 C692.551,82.663 693.399,83.014 694.024,83.639 C694.649,84.264 695,85.111 695,85.995 L695,125.973 Z M701.667,125.973 L701.667,85.995 C701.667,83.344 700.613,80.802 698.738,78.927 C696.862,77.053 694.319,76 691.667,76 L638.335,76 C635.682,76 633.139,77.053 631.264,78.927 C629.388,80.802 628.335,83.344 628.335,85.995 L628.335,140.252 C628.252,142.496 629.645,144.664 631.831,145.569 C634.018,146.474 636.536,145.926 638.148,144.194 L645.405,136.945 C646.03,136.319 646.878,135.968 647.762,135.968 L691.667,135.968 C694.319,135.968 696.862,134.915 698.738,133.041 C700.613,131.166 701.667,128.624 701.667,125.973 Z" />
            <path d="M652.644,108.34 L659.31,115.003 C660.612,116.304 662.723,116.304 664.024,115.003 L677.357,101.677 C678.659,100.376 678.659,98.266 677.357,96.965 C676.056,95.664 673.945,95.664 672.644,96.965 L659.31,110.291 L664.024,110.291 L657.358,103.628 C656.056,102.327 653.946,102.327 652.644,103.628 C651.342,104.929 651.342,107.039 652.644,108.34 Z" />
        </g>
    </g>
</svg>