<?xml version="1.0" encoding="UTF-8"?>
<svg height="600" width="800" xmlns="http://www.w3.org/2000/svg" xmlns:xlink="http://www.w3.org/1999/xlink">
    <g id="Notes" font-family="LucidaGrande, 'Lucida Grande', sans-serif" font-size="13">
        <rect fill="white" height="600.0" width="800.0" x="0.0" y="0.0" />
        <g font-size="13">
            <text x="18.0" y="176.0">Small</text>
            <text x="18.0" y="376.0">Medium</text>
            <text x="18.0" y="576.0">Large</text>
        </g>
        <g font-size="9">
            <text x="250.0" y="30.0">Ultralight</text>
            <text x="450.0" y="30.0">Regular</text>
            <text x="650.0" y="30.0">Black</text>
            <text id="template-version" fill="#505050" text-anchor="end" x="785.0" y="575.0">Template v.3.0</text>
            <a href="https://github.com/swhitty/SwiftDraw">
                <text fill="#505050" text-anchor="end" x="785.0" y="590.0">https://github.com/swhitty/SwiftDraw</text>
            </a>
        </g>
    </g>
    <g id="Guides" stroke="rgb(39, 170, 225)" stroke-width="0.5">
        <path id="Capline-S" d="M18,76 l800,0" />
        <path id="H-reference" d="M85,145.755 L87.685,145.755 L113.369,79.287 L114.052,79.287 L114.052,76 L112.148,76 L85,145.755 Z M95.693,121.536 L130.996,121.536 L130.263,119.313 L96.474,119.313 L95.693,121.536 Z M139.15,145.755 L141.787,145.755 L114.638,76 L113.466,76 L113.466,79.287 L139.15,145.755 Z" stroke="none" transform="translate(0,200)" />
        <path id="Baseline-S" d="M18,146 l800,0" />
        <path id="left-margin-Ultralight-M" d="M236.364,256 l0,110" />
        <path id="right-margin-Ultralight-M" d="M293.636,256 l0,110" />
        <path id="left-margin-Regular-M" d="M436.364,256 l0,110" />
        <path id="right-margin-Regular-M" d="M493.636,256 l0,110" />
        <path id="left-margin-Black-M" d="M636.364,256 l0,110" />
        <path id="right-margin-Black-M" d="M693.636,256 l0,110" />
        <path id="Capline-M" d="M18,276 l800,0" />
        <path id="Baseline-M" d="M18,346 l800,0" />
        <path id="Capline-L" d="M18,476 l800,0" />
        <path id="Baseline-L" d="M18,546 l800,0" />
    </g>
    <g id="Symbols">
        <g id="Ultralight-M" transform="translate(0,200)">
            <path d="M256.455,95.092 L237.58,121.108 C235.744,123.637 236.012,127.138 238.21,129.354 L240.78,131.95 C243.015,134.202 246.552,134.438 249.059,132.506 L273.787,113.467 C275.169,112.402 275.435,110.409 274.379,109.015 C273.324,107.62 271.348,107.352 269.966,108.417 L245.236,127.457 C245.234,127.458 245.234,127.458 245.234,127.458 L242.664,124.862 C242.662,124.86 242.662,124.86 242.662,124.86 L261.538,98.844 C262.565,97.429 262.26,95.441 260.856,94.405 C259.453,93.369 257.482,93.677 256.455,95.092 Z" />
            <path d="M278.076,137.449 C273.98,134.664 269.905,133.178 265.295,133.178 C262.046,133.178 259.784,134.119 254.985,136.813 C254.826,136.903 254.826,136.903 254.667,136.992 C250.66,139.239 248.811,139.902 246.933,139.576 C243.297,138.946 241.512,132.806 243.766,130.789 C245.067,129.625 245.186,127.617 244.032,126.305 C242.878,124.992 240.888,124.872 239.587,126.036 C233.36,131.608 237.052,144.31 245.867,145.838 C249.668,146.497 252.475,145.49 257.728,142.544 C257.889,142.454 257.889,142.454 258.048,142.364 C261.877,140.214 263.52,139.531 265.295,139.531 C268.524,139.531 271.427,140.59 274.556,142.717 C275.999,143.698 277.956,143.313 278.928,141.859 C279.9,140.404 279.519,138.43 278.076,137.449 Z" />
            <path d="M262.146,95.059 C262.146,88.042 267.785,82.353 274.742,82.353 C281.699,82.353 287.338,88.042 287.338,95.059 C287.338,102.077 281.699,107.765 274.742,107.765 C267.785,107.765 262.146,102.077 262.146,95.059 Z M255.847,95.059 C255.847,105.585 264.307,114.118 274.742,114.118 C285.177,114.118 293.636,105.585 293.636,95.059 C293.636,84.533 285.177,76 274.742,76 C264.307,76 255.847,84.533 255.847,95.059 Z" />
        </g>
        <g id="Regular-M" transform="translate(0,200)">
            <path d="M456.455,95.092 L437.58,121.108 C435.744,123.637 436.012,127.138 438.21,129.354 L440.78,131.95 C443.015,134.202 446.552,134.438 449.059,132.506 L473.787,113.467 C475.169,112.402 475.435,110.409 474.379,109.015 C473.324,107.62 471.348,107.352 469.966,108.417 L445.236,127.457 C445.234,127.458 445.234,127.458 445.234,127.458 L442.664,124.862 C442.662,124.86 442.662,124.86 442.662,124.86 L461.538,98.844 C462.565,97.429 462.26,95.441 460.856,94.405 C459.453,93.369 457.482,93.677 456.455,95.092 Z" />
            <path d="M478.076,137.449 C473.98,134.664 469.905,133.178 465.295,133.178 C462.046,133.178 459.784,134.119 454.985,136.813 C454.826,136.903 454.826,136.903 454.667,136.992 C450.66,139.239 448.811,139.902 446.933,139.576 C443.297,138.946 441.512,132.806 443.766,130.789 C445.067,129.625 445.186,127.617 444.032,126.305 C442.878,124.992 440.888,124.872 439.587,126.036 C433.36,131.608 437.052,144.31 445.867,145.838 C449.668,146.497 452.475,145.49 457.728,142.544 C457.889,142.454 457.889,142.454 458.048,142.364 C461.877,140.214 463.52,139.531 465.295,139.531 C468.524,139.531 471.427,140.59 474.556,142.717 C475.999,143.698 477.956,143.313 478.928,141.859 C479.9,140.404 479.519,138.43 478.076,137.449 Z" />
            <path d="M462.146,95.059 C462.146,88.042 467.785,82.353 474.742,82.353 C481.699,82.353 487.338,88.042 487.338,95.059 C487.338,102.077 481.699,107.765 474.742,107.765 C467.785,107.765 462.146,102.077 462.146,95.059 Z M455.847,95.059 C455.847,105.585 464.307,114.118 474.742,114.118 C485.177,114.118 493.636,105.585 493.636,95.059 C493.636,84.533 485.177,76 474.742,76 C464.307,76 455.847,84.533 455.847,95.059 Z" />
        </g>
        <g id="Black-M" transform="translate(0,200)">
            <path d="M656.455,95.092 L637.58,121.108 C635.744,123.637 636.012,127.138 638.21,129.354 L640.78,131.95 C643.015,134.202 646.552,134.438 649.059,132.506 L673.787,113.467 C675.169,112.402 675.435,110.409 674.379,109.015 C673.324,107.62 671.348,107.352 669.966,108.417 L645.236,127.457 C645.234,127.458 645.234,127.458 645.234,127.458 L642.664,124.862 C642.662,124.86 642.662,124.86 642.662,124.86 L661.538,98.844 C662.565,97.429 662.26,95.441 660.856,94.405 C659.453,93.369 657.482,93.677 656.455,95.092 Z" />
            <path d="M678.076,137.449 C673.98,134.664 669.905,133.178 665.295,133.178 C662.046,133.178 659.784,134.119 654.985,136.813 C654.826,136.903 654.826,136.903 654.667,136.992 C650.66,139.239 648.811,139.902 646.933,139.576 C643.297,138.946 641.512,132.806 643.766,130.789 C645.067,129.625 645.186,127.617 644.032,126.305 C642.878,124.992 640.888,124.872 639.587,126.036 C633.36,131.608 637.052,144.31 645.867,145.838 C649.668,146.497 652.475,145.49 657.728,142.544 C657.889,142.454 657.889,142.454 658.048,142.364 C661.877,140.214 663.52,139.531 665.295,139.531 C668.524,139.531 671.427,140.59 674.556,142.717 C675.999,143.698 677.956,143.313 678.928,141.859 C679.9,140.404 679.519,138.43 678.076,137.449 Z" />
            <path d="M662.146,95.059 C662.146,88.042 667.785,82.353 674.742,82.353 C681.699,82.353 687.338,88.042 687.338,95.059 C687.338,102.077 681.699,107.765 674.742,107.765 C667.785,107.765 662.146,102.077 662.146,95.059 Z M655.847,95.059 C655.847,105.585 664.307,114.118 674.742,114.118 C685.177,114.118 693.636,105.585 693.636,95.059 C693.636,84.533 685.177,76 674.742,76 C664.307,76 655.847,84.533 655.847,95.059 Z" />
        </g>
    </g>
</svg>