<?xml version="1.0" encoding="UTF-8"?>
<svg height="600" width="800" xmlns="http://www.w3.org/2000/svg" xmlns:xlink="http://www.w3.org/1999/xlink">
    <g id="Notes" font-family="LucidaGrande, 'Lucida Grande', sans-serif" font-size="13">
        <rect fill="white" height="600.0" width="800.0" x="0.0" y="0.0" />
        <g font-size="13">
            <text x="18.0" y="176.0">Small</text>
            <text x="18.0" y="376.0">Medium</text>
            <text x="18.0" y="576.0">Large</text>
        </g>
        <g font-size="9">
            <text x="250.0" y="30.0">Ultralight</text>
            <text x="450.0" y="30.0">Regular</text>
            <text x="650.0" y="30.0">Black</text>
            <text id="template-version" fill="#505050" text-anchor="end" x="785.0" y="575.0">Template v.3.0</text>
            <a href="https://github.com/swhitty/SwiftDraw">
                <text fill="#505050" text-anchor="end" x="785.0" y="590.0">https://github.com/swhitty/SwiftDraw</text>
            </a>
        </g>
    </g>
    <g id="Guides" stroke="rgb(39, 170, 225)" stroke-width="0.5">
        <path id="Capline-S" d="M18,76 l800,0" />
        <path id="H-reference" d="M85,145.755 L87.685,145.755 L113.369,79.287 L114.052,79.287 L114.052,76 L112.148,76 L85,145.755 Z M95.693,121.536 L130.996,121.536 L130.263,119.313 L96.474,119.313 L95.693,121.536 Z M139.15,145.755 L141.787,145.755 L114.638,76 L113.466,76 L113.466,79.287 L139.15,145.755 Z" stroke="none" transform="translate(0,200)" />
        <path id="Baseline-S" d="M18,146 l800,0" />
        <path id="left-margin-Ultralight-M" d="M245.909,256 l0,110" />
        <path id="right-margin-Ultralight-M" d="M284.091,256 l0,110" />
        <path id="left-margin-Regular-M" d="M445.909,256 l0,110" />
        <path id="right-margin-Regular-M" d="M484.091,256 l0,110" />
        <path id="left-margin-Black-M" d="M645.909,256 l0,110" />
        <path id="right-margin-Black-M" d="M684.091,256 l0,110" />
        <path id="Capline-M" d="M18,276 l800,0" />
        <path id="Baseline-M" d="M18,346 l800,0" />
        <path id="Capline-L" d="M18,476 l800,0" />
        <path id="Baseline-L" d="M18,546 l800,0" />
    </g>
    <g id="Symbols">
        <g id="Ultralight-M" transform="translate(0,200)">
            <path d="M252.273,82.364 L277.727,82.364 C279.485,82.364 280.909,80.939 280.909,79.182 C280.909,77.425 279.485,76 277.727,76 L252.273,76 C250.515,76 249.091,77.425 249.091,79.182 C249.091,80.939 250.515,82.364 252.273,82.364 Z" />
            <path d="M252.273,79.182 L252.273,88.056 C252.273,89.94 251.715,91.783 250.669,93.351 L248.582,96.482 C246.838,99.096 245.908,102.169 245.909,105.312 L245.909,136.455 C245.909,138.986 246.915,141.414 248.705,143.204 C250.495,144.994 252.923,146 255.455,146 L274.545,146 C279.817,146 284.091,141.726 284.091,136.455 L284.091,105.308 C284.091,102.167 283.161,99.096 281.418,96.482 L279.331,93.352 C278.285,91.783 277.727,89.939 277.727,88.053 L277.727,79.182 C277.727,77.425 276.303,76 274.545,76 C272.788,76 271.364,77.425 271.364,79.182 L271.364,88.053 C271.363,91.195 272.293,94.267 274.037,96.882 L276.124,100.013 C277.169,101.581 277.727,103.423 277.727,105.308 L277.727,136.455 C277.727,138.212 276.303,139.636 274.545,139.636 L255.455,139.636 C254.611,139.636 253.801,139.301 253.205,138.704 C252.608,138.108 252.273,137.298 252.273,136.455 L252.273,105.311 C252.272,103.425 252.83,101.581 253.876,100.012 L255.964,96.881 C257.706,94.268 258.636,91.197 258.636,88.056 L258.636,79.182 C258.636,77.425 257.212,76 255.455,76 C253.697,76 252.273,77.425 252.273,79.182 Z" />
            <path d="M250.32,123.48 C254.623,121.678 259.468,121.678 263.771,123.48 C269.646,125.942 276.263,125.942 282.139,123.48 C283.759,122.801 284.523,120.937 283.844,119.316 C283.165,117.695 281.3,116.932 279.68,117.611 C275.377,119.413 270.532,119.413 266.229,117.611 C260.354,115.15 253.737,115.15 247.862,117.611 C246.241,118.289 245.477,120.154 246.156,121.775 C246.835,123.395 248.699,124.159 250.32,123.48 Z" />
        </g>
        <g id="Regular-M" transform="translate(0,200)">
            <path d="M452.273,82.364 L477.727,82.364 C479.485,82.364 480.909,80.939 480.909,79.182 C480.909,77.425 479.485,76 477.727,76 L452.273,76 C450.515,76 449.091,77.425 449.091,79.182 C449.091,80.939 450.515,82.364 452.273,82.364 Z" />
            <path d="M452.273,79.182 L452.273,88.056 C452.273,89.94 451.715,91.783 450.669,93.351 L448.582,96.482 C446.838,99.096 445.908,102.169 445.909,105.312 L445.909,136.455 C445.909,138.986 446.915,141.414 448.705,143.204 C450.495,144.994 452.923,146 455.455,146 L474.545,146 C479.817,146 484.091,141.726 484.091,136.455 L484.091,105.308 C484.091,102.167 483.161,99.096 481.418,96.482 L479.331,93.352 C478.285,91.783 477.727,89.939 477.727,88.053 L477.727,79.182 C477.727,77.425 476.303,76 474.545,76 C472.788,76 471.364,77.425 471.364,79.182 L471.364,88.053 C471.363,91.195 472.293,94.267 474.037,96.882 L476.124,100.013 C477.169,101.581 477.727,103.423 477.727,105.308 L477.727,136.455 C477.727,138.212 476.303,139.636 474.545,139.636 L455.455,139.636 C454.611,139.636 453.801,139.301 453.205,138.704 C452.608,138.108 452.273,137.298 452.273,136.455 L452.273,105.311 C452.272,103.425 452.83,101.581 453.876,100.012 L455.964,96.881 C457.706,94.268 458.636,91.197 458.636,88.056 L458.636,79.182 C458.636,77.425 457.212,76 455.455,76 C453.697,76 452.273,77.425 452.273,79.182 Z" />
            <path d="M450.32,123.48 C454.623,121.678 459.468,121.678 463.771,123.48 C469.646,125.942 476.263,125.942 482.139,123.48 C483.759,122.801 484.523,120.937 483.844,119.316 C483.165,117.695 481.3,116.932 479.68,117.611 C475.377,119.413 470.532,119.413 466.229,117.611 C460.354,115.15 453.737,115.15 447.862,117.611 C446.241,118.289 445.477,120.154 446.156,121.775 C446.835,123.395 448.699,124.159 450.32,123.48 Z" />
        </g>
        <g id="Black-M" transform="translate(0,200)">
            <path d="M652.273,82.364 L677.727,82.364 C679.485,82.364 680.909,80.939 680.909,79.182 C680.909,77.425 679.485,76 677.727,76 L652.273,76 C650.516,76 649.091,77.425 649.091,79.182 C649.091,80.939 650.516,82.364 652.273,82.364 Z" />
            <path d="M652.273,79.182 L652.273,88.056 C652.273,89.94 651.715,91.783 650.669,93.351 L648.582,96.482 C646.839,99.096 645.908,102.169 645.909,105.312 L645.909,136.455 C645.909,138.986 646.915,141.414 648.705,143.204 C650.495,144.994 652.923,146 655.455,146 L674.545,146 C679.817,146 684.091,141.726 684.091,136.455 L684.091,105.308 C684.091,102.167 683.161,99.096 681.418,96.482 L679.331,93.352 C678.285,91.783 677.727,89.939 677.727,88.053 L677.727,79.182 C677.727,77.425 676.303,76 674.545,76 C672.788,76 671.364,77.425 671.364,79.182 L671.364,88.053 C671.363,91.195 672.293,94.267 674.037,96.882 L676.124,100.013 C677.169,101.581 677.727,103.423 677.727,105.308 L677.727,136.455 C677.727,138.212 676.303,139.636 674.545,139.636 L655.455,139.636 C654.611,139.636 653.801,139.301 653.205,138.704 C652.608,138.108 652.273,137.298 652.273,136.455 L652.273,105.311 C652.272,103.425 652.83,101.581 653.877,100.012 L655.964,96.881 C657.706,94.268 658.636,91.197 658.636,88.056 L658.636,79.182 C658.636,77.425 657.212,76 655.455,76 C653.697,76 652.273,77.425 652.273,79.182 Z" />
            <path d="M650.32,123.48 C654.623,121.678 659.468,121.678 663.771,123.48 C669.646,125.942 676.263,125.942 682.139,123.48 C683.759,122.801 684.523,120.937 683.844,119.316 C683.165,117.695 681.3,116.932 679.68,117.611 C675.377,119.413 670.532,119.413 666.229,117.611 C660.354,115.15 653.737,115.15 647.862,117.611 C646.241,118.289 645.477,120.154 646.156,121.775 C646.835,123.395 648.699,124.159 650.32,123.48 Z" />
        </g>
    </g>
</svg>