<?xml version="1.0" encoding="UTF-8"?>
<svg height="600" width="800" xmlns="http://www.w3.org/2000/svg" xmlns:xlink="http://www.w3.org/1999/xlink">
    <g id="Notes" font-family="LucidaGrande, 'Lucida Grande', sans-serif" font-size="13">
        <rect fill="white" height="600.0" width="800.0" x="0.0" y="0.0" />
        <g font-size="13">
            <text x="18.0" y="176.0">Small</text>
            <text x="18.0" y="376.0">Medium</text>
            <text x="18.0" y="576.0">Large</text>
        </g>
        <g font-size="9">
            <text x="250.0" y="30.0">Ultralight</text>
            <text x="450.0" y="30.0">Regular</text>
            <text x="650.0" y="30.0">Black</text>
            <text id="template-version" fill="#505050" text-anchor="end" x="785.0" y="575.0">Template v.3.0</text>
            <a href="https://github.com/swhitty/SwiftDraw">
                <text fill="#505050" text-anchor="end" x="785.0" y="590.0">https://github.com/swhitty/SwiftDraw</text>
            </a>
        </g>
    </g>
    <g id="Guides" stroke="rgb(39, 170, 225)" stroke-width="0.5">
        <path id="Capline-S" d="M18,76 l800,0" />
        <path id="H-reference" d="M85,145.755 L87.685,145.755 L113.369,79.287 L114.052,79.287 L114.052,76 L112.148,76 L85,145.755 Z M95.693,121.536 L130.996,121.536 L130.263,119.313 L96.474,119.313 L95.693,121.536 Z M139.15,145.755 L141.787,145.755 L114.638,76 L113.466,76 L113.466,79.287 L139.15,145.755 Z" stroke="none" transform="translate(0,200)" />
        <path id="Baseline-S" d="M18,146 l800,0" />
        <path id="left-margin-Ultralight-M" d="M230,256 l0,110" />
        <path id="right-margin-Ultralight-M" d="M300,256 l0,110" />
        <path id="left-margin-Regular-M" d="M430,256 l0,110" />
        <path id="right-margin-Regular-M" d="M500,256 l0,110" />
        <path id="left-margin-Black-M" d="M630,256 l0,110" />
        <path id="right-margin-Black-M" d="M700,256 l0,110" />
        <path id="Capline-M" d="M18,276 l800,0" />
        <path id="Baseline-M" d="M18,346 l800,0" />
        <path id="Capline-L" d="M18,476 l800,0" />
        <path id="Baseline-L" d="M18,546 l800,0" />
    </g>
    <g id="Symbols">
        <g id="Ultralight-M" transform="translate(0,200)">
            <path d="M261.818,126.909 L261.818,139.636 C261.818,141.394 263.243,142.818 265,142.818 C266.757,142.818 268.182,141.394 268.182,139.636 L268.182,126.909 C268.182,125.152 266.757,123.727 265,123.727 C263.243,123.727 261.818,125.152 261.818,126.909 Z" />
            <path d="M280.909,123.727 L239.545,123.727 C238.702,123.727 237.892,123.392 237.296,122.795 C236.699,122.199 236.364,121.389 236.364,120.545 L236.364,88.727 C236.363,87.473 237.101,86.335 238.246,85.823 C239.85,85.105 240.569,83.223 239.852,81.619 C239.134,80.015 237.252,79.296 235.648,80.014 C232.211,81.551 229.999,84.965 230,88.728 L230,120.545 C230,123.077 231.006,125.505 232.796,127.295 C234.586,129.085 237.014,130.091 239.545,130.091 L280.909,130.091 C282.666,130.091 284.091,128.666 284.091,126.909 C284.091,125.152 282.666,123.727 280.909,123.727 Z" />
            <path d="M230.932,81.432 L294.568,145.068 C295.811,146.311 297.826,146.311 299.068,145.068 C300.311,143.825 300.311,141.811 299.068,140.568 L235.432,76.932 C234.189,75.689 232.175,75.689 230.932,76.932 C229.689,78.175 229.689,80.189 230.932,81.432 Z" />
            <path d="M252.273,142.818 L277.727,142.818 C279.485,142.818 280.909,141.394 280.909,139.636 C280.909,137.879 279.485,136.455 277.727,136.455 L252.273,136.455 C250.515,136.455 249.091,137.879 249.091,139.636 C249.091,141.394 250.515,142.818 252.273,142.818 Z" />
            <path d="M254.36,85.545 L290.455,85.545 C291.298,85.545 292.108,85.881 292.704,86.477 C293.301,87.074 293.636,87.883 293.636,88.727 L293.636,120.545 C293.636,121.13 293.475,121.703 293.17,122.203 C292.255,123.703 292.729,125.661 294.228,126.576 C295.728,127.492 297.686,127.018 298.602,125.518 C299.516,124.021 300,122.3 300,120.545 L300,88.727 C300,86.196 298.994,83.768 297.204,81.978 C295.414,80.188 292.986,79.182 290.455,79.182 L254.36,79.182 C252.603,79.182 251.178,80.606 251.178,82.364 C251.178,84.121 252.603,85.545 254.36,85.545 Z" />
        </g>
        <g id="Regular-M" transform="translate(0,200)">
            <path d="M461.818,126.909 L461.818,139.636 C461.818,141.394 463.243,142.818 465,142.818 C466.757,142.818 468.182,141.394 468.182,139.636 L468.182,126.909 C468.182,125.152 466.757,123.727 465,123.727 C463.243,123.727 461.818,125.152 461.818,126.909 Z" />
            <path d="M480.909,123.727 L439.545,123.727 C438.702,123.727 437.892,123.392 437.296,122.795 C436.699,122.199 436.364,121.389 436.364,120.545 L436.364,88.727 C436.363,87.473 437.101,86.335 438.246,85.823 C439.85,85.105 440.569,83.223 439.852,81.619 C439.134,80.015 437.252,79.296 435.648,80.014 C432.211,81.551 429.999,84.965 430,88.728 L430,120.545 C430,123.077 431.006,125.505 432.796,127.295 C434.586,129.085 437.014,130.091 439.545,130.091 L480.909,130.091 C482.666,130.091 484.091,128.666 484.091,126.909 C484.091,125.152 482.666,123.727 480.909,123.727 Z" />
            <path d="M430.932,81.432 L494.568,145.068 C495.811,146.311 497.826,146.311 499.068,145.068 C500.311,143.825 500.311,141.811 499.068,140.568 L435.432,76.932 C434.189,75.689 432.174,75.689 430.932,76.932 C429.689,78.175 429.689,80.189 430.932,81.432 Z" />
            <path d="M452.273,142.818 L477.727,142.818 C479.485,142.818 480.909,141.394 480.909,139.636 C480.909,137.879 479.485,136.455 477.727,136.455 L452.273,136.455 C450.515,136.455 449.091,137.879 449.091,139.636 C449.091,141.394 450.515,142.818 452.273,142.818 Z" />
            <path d="M454.36,85.545 L490.455,85.545 C491.298,85.545 492.108,85.881 492.704,86.477 C493.301,87.074 493.636,87.883 493.636,88.727 L493.636,120.545 C493.636,121.13 493.475,121.703 493.17,122.203 C492.255,123.703 492.729,125.661 494.228,126.576 C495.728,127.492 497.686,127.018 498.602,125.518 C499.516,124.021 500,122.3 500,120.545 L500,88.727 C500,86.196 498.994,83.768 497.204,81.978 C495.414,80.188 492.986,79.182 490.455,79.182 L454.36,79.182 C452.603,79.182 451.178,80.606 451.178,82.364 C451.178,84.121 452.603,85.545 454.36,85.545 Z" />
        </g>
        <g id="Black-M" transform="translate(0,200)">
            <path d="M661.818,126.909 L661.818,139.636 C661.818,141.394 663.243,142.818 665,142.818 C666.757,142.818 668.182,141.394 668.182,139.636 L668.182,126.909 C668.182,125.152 666.757,123.727 665,123.727 C663.243,123.727 661.818,125.152 661.818,126.909 Z" />
            <path d="M680.909,123.727 L639.545,123.727 C638.702,123.727 637.892,123.392 637.296,122.795 C636.699,122.199 636.364,121.389 636.364,120.545 L636.364,88.727 C636.363,87.473 637.101,86.335 638.246,85.823 C639.85,85.105 640.569,83.223 639.852,81.619 C639.134,80.015 637.252,79.296 635.648,80.014 C632.211,81.551 629.999,84.965 630,88.728 L630,120.545 C630,123.077 631.006,125.505 632.796,127.295 C634.586,129.085 637.014,130.091 639.545,130.091 L680.909,130.091 C682.666,130.091 684.091,128.666 684.091,126.909 C684.091,125.152 682.666,123.727 680.909,123.727 Z" />
            <path d="M630.932,81.432 L694.568,145.068 C695.811,146.311 697.826,146.311 699.068,145.068 C700.311,143.825 700.311,141.811 699.068,140.568 L635.432,76.932 C634.189,75.689 632.174,75.689 630.932,76.932 C629.689,78.175 629.689,80.189 630.932,81.432 Z" />
            <path d="M652.273,142.818 L677.727,142.818 C679.485,142.818 680.909,141.394 680.909,139.636 C680.909,137.879 679.485,136.455 677.727,136.455 L652.273,136.455 C650.515,136.455 649.091,137.879 649.091,139.636 C649.091,141.394 650.515,142.818 652.273,142.818 Z" />
            <path d="M654.36,85.545 L690.455,85.545 C691.298,85.545 692.108,85.881 692.704,86.477 C693.301,87.074 693.636,87.883 693.636,88.727 L693.636,120.545 C693.636,121.13 693.475,121.703 693.17,122.203 C692.255,123.703 692.729,125.661 694.228,126.576 C695.728,127.492 697.686,127.018 698.602,125.518 C699.516,124.021 700,122.3 700,120.545 L700,88.727 C700,86.196 698.994,83.768 697.204,81.978 C695.414,80.188 692.986,79.182 690.455,79.182 L654.36,79.182 C652.603,79.182 651.178,80.606 651.178,82.364 C651.178,84.121 652.603,85.545 654.36,85.545 Z" />
        </g>
    </g>
</svg>