<?xml version="1.0" encoding="UTF-8"?>
<svg height="600" width="800" xmlns="http://www.w3.org/2000/svg" xmlns:xlink="http://www.w3.org/1999/xlink">
    <g id="Notes" font-family="LucidaGrande, 'Lucida Grande', sans-serif" font-size="13">
        <rect fill="white" height="600.0" width="800.0" x="0.0" y="0.0" />
        <g font-size="13">
            <text x="18.0" y="176.0">Small</text>
            <text x="18.0" y="376.0">Medium</text>
            <text x="18.0" y="576.0">Large</text>
        </g>
        <g font-size="9">
            <text x="250.0" y="30.0">Ultralight</text>
            <text x="450.0" y="30.0">Regular</text>
            <text x="650.0" y="30.0">Black</text>
            <text id="template-version" fill="#505050" text-anchor="end" x="785.0" y="575.0">Template v.3.0</text>
            <a href="https://github.com/swhitty/SwiftDraw">
                <text fill="#505050" text-anchor="end" x="785.0" y="590.0">https://github.com/swhitty/SwiftDraw</text>
            </a>
        </g>
    </g>
    <g id="Guides" stroke="rgb(39, 170, 225)" stroke-width="0.5">
        <path id="Capline-S" d="M18,76 l800,0" />
        <path id="H-reference" d="M85,145.755 L87.685,145.755 L113.369,79.287 L114.052,79.287 L114.052,76 L112.148,76 L85,145.755 Z M95.693,121.536 L130.996,121.536 L130.263,119.313 L96.474,119.313 L95.693,121.536 Z M139.15,145.755 L141.787,145.755 L114.638,76 L113.466,76 L113.466,79.287 L139.15,145.755 Z" stroke="none" transform="translate(0,200)" />
        <path id="Baseline-S" d="M18,146 l800,0" />
        <path id="left-margin-Ultralight-M" d="M239.545,256 l0,110" />
        <path id="right-margin-Ultralight-M" d="M290.455,256 l0,110" />
        <path id="left-margin-Regular-M" d="M439.545,256 l0,110" />
        <path id="right-margin-Regular-M" d="M490.455,256 l0,110" />
        <path id="left-margin-Black-M" d="M639.545,256 l0,110" />
        <path id="right-margin-Black-M" d="M690.455,256 l0,110" />
        <path id="Capline-M" d="M18,276 l800,0" />
        <path id="Baseline-M" d="M18,346 l800,0" />
        <path id="Capline-L" d="M18,476 l800,0" />
        <path id="Baseline-L" d="M18,546 l800,0" />
    </g>
    <g id="Symbols">
        <g id="Ultralight-M" transform="translate(0,200)">
            <path d="M284.091,111 L284.091,120.545 C284.091,125.609 282.08,130.465 278.499,134.045 C274.919,137.625 270.063,139.636 265,139.636 C259.937,139.636 255.081,137.625 251.501,134.045 C247.92,130.465 245.909,125.609 245.909,120.545 L245.909,101.455 C245.909,96.391 247.92,91.535 251.501,87.955 C255.081,84.375 259.937,82.364 265,82.364 C270.063,82.364 274.919,84.375 278.499,87.955 C282.08,91.535 284.091,96.391 284.091,101.455 L284.091,111 Z M290.455,111 L290.455,101.455 C290.455,94.704 287.773,88.229 282.999,83.455 C278.225,78.682 271.751,76 265,76 C258.249,76 251.775,78.682 247.001,83.455 C242.227,88.229 239.545,94.704 239.545,101.455 L239.545,120.545 C239.545,127.296 242.227,133.771 247.001,138.545 C251.775,143.318 258.249,146 265,146 C271.751,146 278.225,143.318 282.999,138.545 C287.773,133.771 290.455,127.296 290.455,120.545 L290.455,111 Z" />
            <path d="M261.818,91.909 L261.818,104.636 C261.818,106.394 263.243,107.818 265,107.818 C266.757,107.818 268.182,106.394 268.182,104.636 L268.182,91.909 C268.182,90.152 266.757,88.727 265,88.727 C263.243,88.727 261.818,90.152 261.818,91.909 Z" />
        </g>
        <g id="Regular-M" transform="translate(0,200)">
            <path d="M484.091,111 L484.091,120.545 C484.091,125.609 482.08,130.465 478.499,134.045 C474.919,137.625 470.063,139.636 465,139.636 C459.937,139.636 455.081,137.625 451.501,134.045 C447.92,130.465 445.909,125.609 445.909,120.545 L445.909,101.455 C445.909,96.391 447.92,91.535 451.501,87.955 C455.081,84.375 459.937,82.364 465,82.364 C470.063,82.364 474.919,84.375 478.499,87.955 C482.08,91.535 484.091,96.391 484.091,101.455 L484.091,111 Z M490.455,111 L490.455,101.455 C490.455,94.704 487.773,88.229 482.999,83.455 C478.225,78.682 471.751,76 465,76 C458.249,76 451.775,78.682 447.001,83.455 C442.227,88.229 439.545,94.704 439.545,101.455 L439.545,120.545 C439.545,127.296 442.227,133.771 447.001,138.545 C451.775,143.318 458.249,146 465,146 C471.751,146 478.225,143.318 482.999,138.545 C487.773,133.771 490.455,127.296 490.455,120.545 L490.455,111 Z" />
            <path d="M461.818,91.909 L461.818,104.636 C461.818,106.394 463.243,107.818 465,107.818 C466.757,107.818 468.182,106.394 468.182,104.636 L468.182,91.909 C468.182,90.152 466.757,88.727 465,88.727 C463.243,88.727 461.818,90.152 461.818,91.909 Z" />
        </g>
        <g id="Black-M" transform="translate(0,200)">
            <path d="M684.091,111 L684.091,120.545 C684.091,125.609 682.08,130.465 678.499,134.045 C674.919,137.625 670.063,139.636 665,139.636 C659.937,139.636 655.081,137.625 651.501,134.045 C647.92,130.465 645.909,125.609 645.909,120.545 L645.909,101.455 C645.909,96.391 647.92,91.535 651.501,87.955 C655.081,84.375 659.937,82.364 665,82.364 C670.063,82.364 674.919,84.375 678.499,87.955 C682.08,91.535 684.091,96.391 684.091,101.455 L684.091,111 Z M690.455,111 L690.455,101.455 C690.455,94.704 687.773,88.229 682.999,83.455 C678.225,78.682 671.751,76 665,76 C658.249,76 651.775,78.682 647.001,83.455 C642.227,88.229 639.545,94.704 639.545,101.455 L639.545,120.545 C639.545,127.296 642.227,133.771 647.001,138.545 C651.775,143.318 658.249,146 665,146 C671.751,146 678.225,143.318 682.999,138.545 C687.773,133.771 690.455,127.296 690.455,120.545 L690.455,111 Z" />
            <path d="M661.818,91.909 L661.818,104.636 C661.818,106.394 663.243,107.818 665,107.818 C666.757,107.818 668.182,106.394 668.182,104.636 L668.182,91.909 C668.182,90.152 666.757,88.727 665,88.727 C663.243,88.727 661.818,90.152 661.818,91.909 Z" />
        </g>
    </g>
</svg>