<?xml version="1.0" encoding="UTF-8"?>
<svg height="600" width="800" xmlns="http://www.w3.org/2000/svg" xmlns:xlink="http://www.w3.org/1999/xlink">
    <g id="Notes" font-family="LucidaGrande, 'Lucida Grande', sans-serif" font-size="13">
        <rect fill="white" height="600.0" width="800.0" x="0.0" y="0.0" />
        <g font-size="13">
            <text x="18.0" y="176.0">Small</text>
            <text x="18.0" y="376.0">Medium</text>
            <text x="18.0" y="576.0">Large</text>
        </g>
        <g font-size="9">
            <text x="250.0" y="30.0">Ultralight</text>
            <text x="450.0" y="30.0">Regular</text>
            <text x="650.0" y="30.0">Black</text>
            <text id="template-version" fill="#505050" text-anchor="end" x="785.0" y="575.0">Template v.3.0</text>
            <a href="https://github.com/swhitty/SwiftDraw">
                <text fill="#505050" text-anchor="end" x="785.0" y="590.0">https://github.com/swhitty/SwiftDraw</text>
            </a>
        </g>
    </g>
    <g id="Guides" stroke="rgb(39, 170, 225)" stroke-width="0.5">
        <path id="Capline-S" d="M18,76 l800,0" />
        <path id="H-reference" d="M85,145.755 L87.685,145.755 L113.369,79.287 L114.052,79.287 L114.052,76 L112.148,76 L85,145.755 Z M95.693,121.536 L130.996,121.536 L130.263,119.313 L96.474,119.313 L95.693,121.536 Z M139.15,145.755 L141.787,145.755 L114.638,76 L113.466,76 L113.466,79.287 L139.15,145.755 Z" stroke="none" transform="translate(0,200)" />
        <path id="Baseline-S" d="M18,146 l800,0" />
        <path id="left-margin-Ultralight-M" d="M230,256 l0,110" />
        <path id="right-margin-Ultralight-M" d="M300,256 l0,110" />
        <path id="left-margin-Regular-M" d="M430,256 l0,110" />
        <path id="right-margin-Regular-M" d="M500,256 l0,110" />
        <path id="left-margin-Black-M" d="M630,256 l0,110" />
        <path id="right-margin-Black-M" d="M700,256 l0,110" />
        <path id="Capline-M" d="M18,276 l800,0" />
        <path id="Baseline-M" d="M18,346 l800,0" />
        <path id="Capline-L" d="M18,476 l800,0" />
        <path id="Baseline-L" d="M18,546 l800,0" />
    </g>
    <g id="Symbols">
        <g id="Ultralight-M" transform="translate(0,200)">
            <path d="M237.214,80.767 C237.517,81.468 237.362,82.283 236.822,82.822 C236.283,83.362 235.468,83.517 234.767,83.214 L293.783,107.19 C293.045,106.889 292.584,106.153 292.637,105.361 C292.69,104.569 293.244,103.9 294.012,103.7 L271.459,109.519 C267.568,110.519 264.526,113.556 263.516,117.447 L257.699,140.018 C257.9,139.244 258.569,138.69 259.361,138.637 C260.153,138.584 260.889,139.045 261.189,139.78 L237.247,80.846 Z M230.421,83.618 L254.365,142.556 C255.264,144.764 257.474,146.146 259.85,145.988 C262.225,145.83 264.233,144.168 264.831,141.863 L270.649,119.291 C270.984,117.999 271.998,116.987 273.296,116.653 L295.858,110.832 C298.168,110.233 299.83,108.225 299.988,105.85 C300.146,103.474 298.764,101.264 296.559,100.366 L237.618,76.421 C235.623,75.556 233.211,76.015 231.613,77.613 C230.015,79.211 229.556,81.623 230.454,83.697 Z" />
        </g>
        <g id="Regular-M" transform="translate(0,200)">
            <path d="M437.214,80.767 C437.517,81.468 437.362,82.283 436.822,82.822 C436.283,83.362 435.468,83.517 434.767,83.214 L493.783,107.19 C493.045,106.889 492.584,106.153 492.637,105.361 C492.69,104.569 493.244,103.9 494.012,103.7 L471.459,109.519 C467.568,110.519 464.526,113.556 463.516,117.447 L457.699,140.018 C457.9,139.244 458.569,138.69 459.361,138.637 C460.153,138.584 460.889,139.045 461.189,139.78 L437.247,80.846 Z M430.421,83.618 L454.365,142.556 C455.264,144.764 457.474,146.146 459.85,145.988 C462.225,145.83 464.233,144.168 464.831,141.863 L470.649,119.291 C470.984,117.999 471.998,116.987 473.296,116.653 L495.858,110.832 C498.168,110.233 499.83,108.225 499.988,105.85 C500.146,103.474 498.764,101.264 496.559,100.366 L437.618,76.421 C435.623,75.556 433.211,76.015 431.613,77.613 C430.015,79.211 429.556,81.623 430.454,83.697 Z" />
        </g>
        <g id="Black-M" transform="translate(0,200)">
            <path d="M637.214,80.767 C637.517,81.468 637.362,82.283 636.822,82.822 C636.283,83.362 635.468,83.517 634.767,83.214 L693.783,107.19 C693.045,106.889 692.584,106.153 692.637,105.361 C692.69,104.569 693.244,103.9 694.012,103.7 L671.459,109.519 C667.568,110.519 664.526,113.556 663.516,117.447 L657.699,140.018 C657.9,139.244 658.569,138.69 659.361,138.637 C660.153,138.584 660.889,139.045 661.189,139.78 L637.247,80.846 Z M630.421,83.618 L654.365,142.556 C655.264,144.764 657.474,146.146 659.85,145.988 C662.225,145.83 664.233,144.168 664.831,141.863 L670.649,119.291 C670.984,117.999 671.998,116.987 673.296,116.653 L695.858,110.832 C698.168,110.233 699.83,108.225 699.988,105.85 C700.146,103.474 698.764,101.264 696.559,100.366 L637.618,76.421 C635.623,75.556 633.211,76.015 631.613,77.613 C630.015,79.211 629.556,81.623 630.454,83.697 Z" />
        </g>
    </g>
</svg>