<?xml version="1.0" encoding="UTF-8"?>
<svg height="600" width="800" xmlns="http://www.w3.org/2000/svg" xmlns:xlink="http://www.w3.org/1999/xlink">
    <g id="Notes" font-family="LucidaGrande, 'Lucida Grande', sans-serif" font-size="13">
        <rect fill="white" height="600.0" width="800.0" x="0.0" y="0.0" />
        <g font-size="13">
            <text x="18.0" y="176.0">Small</text>
            <text x="18.0" y="376.0">Medium</text>
            <text x="18.0" y="576.0">Large</text>
        </g>
        <g font-size="9">
            <text x="250.0" y="30.0">Ultralight</text>
            <text x="450.0" y="30.0">Regular</text>
            <text x="650.0" y="30.0">Black</text>
            <text id="template-version" fill="#505050" text-anchor="end" x="785.0" y="575.0">Template v.3.0</text>
            <a href="https://github.com/swhitty/SwiftDraw">
                <text fill="#505050" text-anchor="end" x="785.0" y="590.0">https://github.com/swhitty/SwiftDraw</text>
            </a>
        </g>
    </g>
    <g id="Guides" stroke="rgb(39, 170, 225)" stroke-width="0.5">
        <path id="Capline-S" d="M18,76 l800,0" />
        <path id="H-reference" d="M85,145.755 L87.685,145.755 L113.369,79.287 L114.052,79.287 L114.052,76 L112.148,76 L85,145.755 Z M95.693,121.536 L130.996,121.536 L130.263,119.313 L96.474,119.313 L95.693,121.536 Z M139.15,145.755 L141.787,145.755 L114.638,76 L113.466,76 L113.466,79.287 L139.15,145.755 Z" stroke="none" transform="translate(0,200)" />
        <path id="Baseline-S" d="M18,146 l800,0" />
        <path id="left-margin-Ultralight-M" d="M221,256 l0,110" />
        <path id="right-margin-Ultralight-M" d="M309,256 l0,110" />
        <path id="left-margin-Regular-M" d="M421,256 l0,110" />
        <path id="right-margin-Regular-M" d="M509,256 l0,110" />
        <path id="left-margin-Black-M" d="M621,256 l0,110" />
        <path id="right-margin-Black-M" d="M709,256 l0,110" />
        <path id="Capline-M" d="M18,276 l800,0" />
        <path id="Baseline-M" d="M18,346 l800,0" />
        <path id="Capline-L" d="M18,476 l800,0" />
        <path id="Baseline-L" d="M18,546 l800,0" />
    </g>
    <g id="Symbols">
        <g id="Ultralight-M" transform="translate(0,200)">
            <path d="M286.172,97.828 L302.172,113.828 L302.172,108.172 L286.172,124.172 C284.609,125.734 284.609,128.266 286.172,129.828 C287.734,131.391 290.266,131.391 291.828,129.828 L307.828,113.828 C309.391,112.266 309.391,109.734 307.828,108.172 L291.828,92.172 C290.266,90.609 287.734,90.609 286.172,92.172 C284.609,93.734 284.609,96.266 286.172,97.828 Z" />
            <path d="M225,115 L305,115 C307.209,115 309,113.209 309,111 C309,108.791 307.209,107 305,107 L225,107 C222.791,107 221,108.791 221,111 C221,113.209 222.791,115 225,115 Z" />
        </g>
        <g id="Regular-M" transform="translate(0,200)">
            <path d="M486.172,97.828 L502.172,113.828 L502.172,108.172 L486.172,124.172 C484.609,125.734 484.609,128.266 486.172,129.828 C487.734,131.391 490.266,131.391 491.828,129.828 L507.828,113.828 C509.391,112.266 509.391,109.734 507.828,108.172 L491.828,92.172 C490.266,90.609 487.734,90.609 486.172,92.172 C484.609,93.734 484.609,96.266 486.172,97.828 Z" />
            <path d="M425,115 L505,115 C507.209,115 509,113.209 509,111 C509,108.791 507.209,107 505,107 L425,107 C422.791,107 421,108.791 421,111 C421,113.209 422.791,115 425,115 Z" />
        </g>
        <g id="Black-M" transform="translate(0,200)">
            <path d="M686.172,97.828 L702.172,113.828 L702.172,108.172 L686.172,124.172 C684.609,125.734 684.609,128.266 686.172,129.828 C687.734,131.391 690.266,131.391 691.828,129.828 L707.828,113.828 C709.391,112.266 709.391,109.734 707.828,108.172 L691.828,92.172 C690.266,90.609 687.734,90.609 686.172,92.172 C684.609,93.734 684.609,96.266 686.172,97.828 Z" />
            <path d="M625,115 L705,115 C707.209,115 709,113.209 709,111 C709,108.791 707.209,107 705,107 L625,107 C622.791,107 621,108.791 621,111 C621,113.209 622.791,115 625,115 Z" />
        </g>
    </g>
</svg>