<?xml version="1.0" encoding="UTF-8"?>
<svg height="600" width="800" xmlns="http://www.w3.org/2000/svg" xmlns:xlink="http://www.w3.org/1999/xlink">
    <g id="Notes" font-family="LucidaGrande, 'Lucida Grande', sans-serif" font-size="13">
        <rect fill="white" height="600.0" width="800.0" x="0.0" y="0.0" />
        <g font-size="13">
            <text x="18.0" y="176.0">Small</text>
            <text x="18.0" y="376.0">Medium</text>
            <text x="18.0" y="576.0">Large</text>
        </g>
        <g font-size="9">
            <text x="250.0" y="30.0">Ultralight</text>
            <text x="450.0" y="30.0">Regular</text>
            <text x="650.0" y="30.0">Black</text>
            <text id="template-version" fill="#505050" text-anchor="end" x="785.0" y="575.0">Template v.3.0</text>
            <a href="https://github.com/swhitty/SwiftDraw">
                <text fill="#505050" text-anchor="end" x="785.0" y="590.0">https://github.com/swhitty/SwiftDraw</text>
            </a>
        </g>
    </g>
    <g id="Guides" stroke="rgb(39, 170, 225)" stroke-width="0.5">
        <path id="Capline-S" d="M18,76 l800,0" />
        <path id="H-reference" d="M85,145.755 L87.685,145.755 L113.369,79.287 L114.052,79.287 L114.052,76 L112.148,76 L85,145.755 Z M95.693,121.536 L130.996,121.536 L130.263,119.313 L96.474,119.313 L95.693,121.536 Z M139.15,145.755 L141.787,145.755 L114.638,76 L113.466,76 L113.466,79.287 L139.15,145.755 Z" stroke="none" transform="translate(0,200)" />
        <path id="Baseline-S" d="M18,146 l800,0" />
        <path id="left-margin-Ultralight-M" d="M230,256 l0,110" />
        <path id="right-margin-Ultralight-M" d="M300,256 l0,110" />
        <path id="left-margin-Regular-M" d="M430,256 l0,110" />
        <path id="right-margin-Regular-M" d="M500,256 l0,110" />
        <path id="left-margin-Black-M" d="M630,256 l0,110" />
        <path id="right-margin-Black-M" d="M700,256 l0,110" />
        <path id="Capline-M" d="M18,276 l800,0" />
        <path id="Baseline-M" d="M18,346 l800,0" />
        <path id="Capline-L" d="M18,476 l800,0" />
        <path id="Baseline-L" d="M18,546 l800,0" />
    </g>
    <g id="Symbols">
        <g id="Ultralight-M" transform="translate(0,200)">
            <path d="M240,79.333 L240,132.667 C240,134.508 241.492,136 243.333,136 L296.667,136 C298.508,136 300,134.508 300,132.667 C300,130.826 298.508,129.333 296.667,129.333 L243.333,129.333 L246.667,132.667 L246.667,79.333 C246.667,77.492 245.174,76 243.333,76 C241.492,76 240,77.492 240,79.333 Z" />
            <path d="M245.69,135.024 L265.69,115.024 C266.992,113.722 266.992,111.611 265.69,110.31 C264.389,109.008 262.278,109.008 260.976,110.31 L240.976,130.31 C239.675,131.611 239.675,133.722 240.976,135.024 C242.278,136.325 244.389,136.325 245.69,135.024 Z" />
            <path d="M235.69,91.69 L245.69,81.69 L240.976,81.69 L250.976,91.69 C252.278,92.992 254.389,92.992 255.69,91.69 C256.992,90.389 256.992,88.278 255.69,86.976 L245.69,76.976 C244.389,75.675 242.278,75.675 240.976,76.976 L230.976,86.976 C229.675,88.278 229.675,90.389 230.976,91.69 C232.278,92.992 234.389,92.992 235.69,91.69 Z" />
            <path d="M284.31,125.024 L294.31,135.024 L294.31,130.31 L284.31,140.31 C283.008,141.611 283.008,143.722 284.31,145.024 C285.611,146.325 287.722,146.325 289.024,145.024 L299.024,135.024 C300.325,133.722 300.325,131.611 299.024,130.31 L289.024,120.31 C287.722,119.008 285.611,119.008 284.31,120.31 C283.008,121.611 283.008,123.722 284.31,125.024 Z" />
        </g>
        <g id="Regular-M" transform="translate(0,200)">
            <path d="M440,79.333 L440,132.667 C440,134.508 441.492,136 443.333,136 L496.667,136 C498.508,136 500,134.508 500,132.667 C500,130.826 498.508,129.333 496.667,129.333 L443.333,129.333 L446.667,132.667 L446.667,79.333 C446.667,77.492 445.174,76 443.333,76 C441.492,76 440,77.492 440,79.333 Z" />
            <path d="M445.69,135.024 L465.69,115.024 C466.992,113.722 466.992,111.611 465.69,110.31 C464.389,109.008 462.278,109.008 460.976,110.31 L440.976,130.31 C439.675,131.611 439.675,133.722 440.976,135.024 C442.278,136.325 444.389,136.325 445.69,135.024 Z" />
            <path d="M435.69,91.69 L445.69,81.69 L440.976,81.69 L450.976,91.69 C452.278,92.992 454.389,92.992 455.69,91.69 C456.992,90.389 456.992,88.278 455.69,86.976 L445.69,76.976 C444.389,75.675 442.278,75.675 440.976,76.976 L430.976,86.976 C429.675,88.278 429.675,90.389 430.976,91.69 C432.278,92.992 434.389,92.992 435.69,91.69 Z" />
            <path d="M484.31,125.024 L494.31,135.024 L494.31,130.31 L484.31,140.31 C483.008,141.611 483.008,143.722 484.31,145.024 C485.611,146.325 487.722,146.325 489.024,145.024 L499.024,135.024 C500.325,133.722 500.325,131.611 499.024,130.31 L489.024,120.31 C487.722,119.008 485.611,119.008 484.31,120.31 C483.008,121.611 483.008,123.722 484.31,125.024 Z" />
        </g>
        <g id="Black-M" transform="translate(0,200)">
            <path d="M640,79.333 L640,132.667 C640,134.508 641.492,136 643.333,136 L696.667,136 C698.508,136 700,134.508 700,132.667 C700,130.826 698.508,129.333 696.667,129.333 L643.333,129.333 L646.667,132.667 L646.667,79.333 C646.667,77.492 645.174,76 643.333,76 C641.492,76 640,77.492 640,79.333 Z" />
            <path d="M645.69,135.024 L665.69,115.024 C666.992,113.722 666.992,111.611 665.69,110.31 C664.389,109.008 662.278,109.008 660.976,110.31 L640.976,130.31 C639.675,131.611 639.675,133.722 640.976,135.024 C642.278,136.325 644.389,136.325 645.69,135.024 Z" />
            <path d="M635.69,91.69 L645.69,81.69 L640.976,81.69 L650.976,91.69 C652.278,92.992 654.389,92.992 655.69,91.69 C656.992,90.389 656.992,88.278 655.69,86.976 L645.69,76.976 C644.389,75.675 642.278,75.675 640.976,76.976 L630.976,86.976 C629.675,88.278 629.675,90.389 630.976,91.69 C632.278,92.992 634.389,92.992 635.69,91.69 Z" />
            <path d="M684.31,125.024 L694.31,135.024 L694.31,130.31 L684.31,140.31 C683.008,141.611 683.008,143.722 684.31,145.024 C685.611,146.325 687.722,146.325 689.024,145.024 L699.024,135.024 C700.325,133.722 700.325,131.611 699.024,130.31 L689.024,120.31 C687.722,119.008 685.611,119.008 684.31,120.31 C683.008,121.611 683.008,123.722 684.31,125.024 Z" />
        </g>
    </g>
</svg>