<?xml version="1.0" encoding="UTF-8"?>
<svg height="600" width="800" xmlns="http://www.w3.org/2000/svg" xmlns:xlink="http://www.w3.org/1999/xlink">
    <g id="Notes" font-family="LucidaGrande, 'Lucida Grande', sans-serif" font-size="13">
        <rect fill="white" height="600.0" width="800.0" x="0.0" y="0.0" />
        <g font-size="13">
            <text x="18.0" y="176.0">Small</text>
            <text x="18.0" y="376.0">Medium</text>
            <text x="18.0" y="576.0">Large</text>
        </g>
        <g font-size="9">
            <text x="250.0" y="30.0">Ultralight</text>
            <text x="450.0" y="30.0">Regular</text>
            <text x="650.0" y="30.0">Black</text>
            <text id="template-version" fill="#505050" text-anchor="end" x="785.0" y="575.0">Template v.3.0</text>
            <a href="https://github.com/swhitty/SwiftDraw">
                <text fill="#505050" text-anchor="end" x="785.0" y="590.0">https://github.com/swhitty/SwiftDraw</text>
            </a>
        </g>
    </g>
    <g id="Guides" stroke="rgb(39, 170, 225)" stroke-width="0.5">
        <path id="Capline-S" d="M18,76 l800,0" />
        <path id="H-reference" d="M85,145.755 L87.685,145.755 L113.369,79.287 L114.052,79.287 L114.052,76 L112.148,76 L85,145.755 Z M95.693,121.536 L130.996,121.536 L130.263,119.313 L96.474,119.313 L95.693,121.536 Z M139.15,145.755 L141.787,145.755 L114.638,76 L113.466,76 L113.466,79.287 L139.15,145.755 Z" stroke="none" transform="translate(0,200)" />
        <path id="Baseline-S" d="M18,146 l800,0" />
        <path id="left-margin-Ultralight-M" d="M237.955,256 l0,110" />
        <path id="right-margin-Ultralight-M" d="M292.045,256 l0,110" />
        <path id="left-margin-Regular-M" d="M437.955,256 l0,110" />
        <path id="right-margin-Regular-M" d="M492.045,256 l0,110" />
        <path id="left-margin-Black-M" d="M637.955,256 l0,110" />
        <path id="right-margin-Black-M" d="M692.045,256 l0,110" />
        <path id="Capline-M" d="M18,276 l800,0" />
        <path id="Baseline-M" d="M18,346 l800,0" />
        <path id="Capline-L" d="M18,476 l800,0" />
        <path id="Baseline-L" d="M18,546 l800,0" />
    </g>
    <g id="Symbols">
        <g id="Ultralight-M" transform="translate(0,200)">
            <path d="M244.318,130.091 C244.318,124.819 248.592,120.545 253.864,120.545 C259.135,120.545 263.409,124.819 263.409,130.091 C263.409,135.363 259.135,139.636 253.864,139.636 C248.592,139.636 244.318,135.363 244.318,130.091 Z M237.955,130.091 C237.955,138.877 245.077,146 253.864,146 C262.65,146 269.773,138.877 269.773,130.091 C269.773,121.305 262.65,114.182 253.864,114.182 C245.077,114.182 237.955,121.305 237.955,130.091 Z" />
            <path d="M269.773,130.091 L269.773,79.182 L265.012,81.944 L287.285,94.672 C288.811,95.544 290.754,95.013 291.626,93.488 C292.498,91.962 291.968,90.018 290.442,89.146 L268.17,76.419 C266.048,75.207 263.409,76.739 263.409,79.182 L263.409,130.091 C263.409,131.848 264.834,133.273 266.591,133.273 C268.348,133.273 269.773,131.848 269.773,130.091 Z" />
        </g>
        <g id="Regular-M" transform="translate(0,200)">
            <path d="M444.318,130.091 C444.318,124.819 448.592,120.545 453.864,120.545 C459.135,120.545 463.409,124.819 463.409,130.091 C463.409,135.363 459.135,139.636 453.864,139.636 C448.592,139.636 444.318,135.363 444.318,130.091 Z M437.955,130.091 C437.955,138.877 445.077,146 453.864,146 C462.65,146 469.773,138.877 469.773,130.091 C469.773,121.305 462.65,114.182 453.864,114.182 C445.077,114.182 437.955,121.305 437.955,130.091 Z" />
            <path d="M469.773,130.091 L469.773,79.182 L465.012,81.944 L487.285,94.672 C488.811,95.544 490.754,95.013 491.626,93.488 C492.498,91.962 491.968,90.018 490.442,89.146 L468.17,76.419 C466.048,75.207 463.409,76.739 463.409,79.182 L463.409,130.091 C463.409,131.848 464.834,133.273 466.591,133.273 C468.348,133.273 469.773,131.848 469.773,130.091 Z" />
        </g>
        <g id="Black-M" transform="translate(0,200)">
            <path d="M644.318,130.091 C644.318,124.819 648.592,120.545 653.864,120.545 C659.135,120.545 663.409,124.819 663.409,130.091 C663.409,135.363 659.135,139.636 653.864,139.636 C648.592,139.636 644.318,135.363 644.318,130.091 Z M637.955,130.091 C637.955,138.877 645.077,146 653.864,146 C662.65,146 669.773,138.877 669.773,130.091 C669.773,121.305 662.65,114.182 653.864,114.182 C645.077,114.182 637.955,121.305 637.955,130.091 Z" />
            <path d="M669.773,130.091 L669.773,79.182 L665.012,81.944 L687.285,94.672 C688.811,95.544 690.754,95.013 691.626,93.488 C692.498,91.962 691.968,90.018 690.442,89.146 L668.169,76.419 C666.048,75.207 663.409,76.739 663.409,79.182 L663.409,130.091 C663.409,131.848 664.834,133.273 666.591,133.273 C668.348,133.273 669.773,131.848 669.773,130.091 Z" />
        </g>
    </g>
</svg>