<?xml version="1.0" encoding="UTF-8"?>
<svg height="600" width="800" xmlns="http://www.w3.org/2000/svg" xmlns:xlink="http://www.w3.org/1999/xlink">
    <g id="Notes" font-family="LucidaGrande, 'Lucida Grande', sans-serif" font-size="13">
        <rect fill="white" height="600.0" width="800.0" x="0.0" y="0.0" />
        <g font-size="13">
            <text x="18.0" y="176.0">Small</text>
            <text x="18.0" y="376.0">Medium</text>
            <text x="18.0" y="576.0">Large</text>
        </g>
        <g font-size="9">
            <text x="250.0" y="30.0">Ultralight</text>
            <text x="450.0" y="30.0">Regular</text>
            <text x="650.0" y="30.0">Black</text>
            <text id="template-version" fill="#505050" text-anchor="end" x="785.0" y="575.0">Template v.3.0</text>
            <a href="https://github.com/swhitty/SwiftDraw">
                <text fill="#505050" text-anchor="end" x="785.0" y="590.0">https://github.com/swhitty/SwiftDraw</text>
            </a>
        </g>
    </g>
    <g id="Guides" stroke="rgb(39, 170, 225)" stroke-width="0.5">
        <path id="Capline-S" d="M18,76 l800,0" />
        <path id="H-reference" d="M85,145.755 L87.685,145.755 L113.369,79.287 L114.052,79.287 L114.052,76 L112.148,76 L85,145.755 Z M95.693,121.536 L130.996,121.536 L130.263,119.313 L96.474,119.313 L95.693,121.536 Z M139.15,145.755 L141.787,145.755 L114.638,76 L113.466,76 L113.466,79.287 L139.15,145.755 Z" stroke="none" transform="translate(0,200)" />
        <path id="Baseline-S" d="M18,146 l800,0" />
        <path id="left-margin-Ultralight-M" d="M230,256 l0,110" />
        <path id="right-margin-Ultralight-M" d="M300,256 l0,110" />
        <path id="left-margin-Regular-M" d="M430,256 l0,110" />
        <path id="right-margin-Regular-M" d="M500,256 l0,110" />
        <path id="left-margin-Black-M" d="M630,256 l0,110" />
        <path id="right-margin-Black-M" d="M700,256 l0,110" />
        <path id="Capline-M" d="M18,276 l800,0" />
        <path id="Baseline-M" d="M18,346 l800,0" />
        <path id="Capline-L" d="M18,476 l800,0" />
        <path id="Baseline-L" d="M18,546 l800,0" />
    </g>
    <g id="Symbols">
        <g id="Ultralight-M" transform="translate(0,200)">
            <path d="M253.456,101.34 L239.742,138.536 C238.714,141.322 241.727,143.873 244.306,142.399 L266.579,129.672 L263.421,129.672 L285.694,142.399 C288.273,143.873 291.286,141.322 290.258,138.535 L286.535,128.448 C285.927,126.8 284.097,125.957 282.448,126.565 C280.8,127.173 279.957,129.003 280.565,130.652 L284.288,140.738 L288.851,136.874 L266.579,124.146 C265.6,123.588 264.4,123.588 263.421,124.146 L241.149,136.874 L245.713,140.737 L259.426,103.542 C260.034,101.893 259.19,100.063 257.542,99.456 C255.893,98.848 254.063,99.691 253.456,101.34 Z" />
            <path d="M276.036,99.975 L267.986,78.084 C266.965,75.307 263.039,75.305 262.015,78.08 L258.292,88.166 C257.684,89.815 258.527,91.645 260.176,92.253 C261.824,92.862 263.654,92.018 264.262,90.37 L267.985,80.284 L262.014,80.28 L270.064,102.171 C270.67,103.82 272.499,104.666 274.148,104.059 C275.797,103.453 276.643,101.624 276.036,99.975 Z" />
            <path d="M230.932,81.432 L294.568,145.068 C295.811,146.311 297.826,146.311 299.068,145.068 C300.311,143.825 300.311,141.811 299.068,140.568 L235.432,76.932 C234.189,75.689 232.175,75.689 230.932,76.932 C229.689,78.175 229.689,80.189 230.932,81.432 Z" />
        </g>
        <g id="Regular-M" transform="translate(0,200)">
            <path d="M453.456,101.34 L439.742,138.536 C438.714,141.322 441.727,143.873 444.306,142.399 L466.579,129.672 L463.421,129.672 L485.694,142.399 C488.273,143.873 491.286,141.322 490.258,138.535 L486.535,128.448 C485.927,126.8 484.097,125.957 482.448,126.565 C480.8,127.173 479.957,129.003 480.565,130.652 L484.288,140.738 L488.851,136.874 L466.579,124.146 C465.6,123.588 464.4,123.588 463.421,124.146 L441.149,136.874 L445.713,140.737 L459.426,103.542 C460.034,101.893 459.19,100.063 457.542,99.456 C455.893,98.848 454.063,99.691 453.456,101.34 Z" />
            <path d="M476.036,99.975 L467.986,78.084 C466.965,75.307 463.039,75.305 462.015,78.08 L458.292,88.166 C457.684,89.815 458.527,91.645 460.176,92.253 C461.824,92.862 463.654,92.018 464.262,90.37 L467.985,80.284 L462.014,80.28 L470.064,102.171 C470.67,103.82 472.499,104.666 474.148,104.059 C475.797,103.453 476.643,101.624 476.036,99.975 Z" />
            <path d="M430.932,81.432 L494.568,145.068 C495.811,146.311 497.826,146.311 499.068,145.068 C500.311,143.825 500.311,141.811 499.068,140.568 L435.432,76.932 C434.189,75.689 432.174,75.689 430.932,76.932 C429.689,78.175 429.689,80.189 430.932,81.432 Z" />
        </g>
        <g id="Black-M" transform="translate(0,200)">
            <path d="M653.456,101.34 L639.742,138.536 C638.714,141.322 641.727,143.873 644.306,142.399 L666.579,129.672 L663.421,129.672 L685.694,142.399 C688.273,143.873 691.286,141.322 690.258,138.535 L686.535,128.448 C685.927,126.8 684.097,125.957 682.448,126.565 C680.8,127.173 679.957,129.003 680.565,130.652 L684.288,140.738 L688.851,136.874 L666.579,124.146 C665.6,123.588 664.4,123.588 663.421,124.146 L641.149,136.874 L645.713,140.737 L659.426,103.542 C660.034,101.893 659.19,100.063 657.542,99.456 C655.893,98.848 654.063,99.691 653.456,101.34 Z" />
            <path d="M676.036,99.975 L667.986,78.084 C666.965,75.307 663.039,75.305 662.015,78.08 L658.292,88.166 C657.684,89.815 658.527,91.645 660.176,92.253 C661.824,92.862 663.654,92.018 664.262,90.37 L667.985,80.284 L662.014,80.28 L670.064,102.171 C670.67,103.82 672.499,104.666 674.148,104.059 C675.797,103.453 676.643,101.624 676.036,99.975 Z" />
            <path d="M630.932,81.432 L694.568,145.068 C695.811,146.311 697.826,146.311 699.068,145.068 C700.311,143.825 700.311,141.811 699.068,140.568 L635.432,76.932 C634.189,75.689 632.174,75.689 630.932,76.932 C629.689,78.175 629.689,80.189 630.932,81.432 Z" />
        </g>
    </g>
</svg>