<?xml version="1.0" encoding="UTF-8"?>
<svg height="600" width="800" xmlns="http://www.w3.org/2000/svg" xmlns:xlink="http://www.w3.org/1999/xlink">
    <g id="Notes" font-family="LucidaGrande, 'Lucida Grande', sans-serif" font-size="13">
        <rect fill="white" height="600.0" width="800.0" x="0.0" y="0.0" />
        <g font-size="13">
            <text x="18.0" y="176.0">Small</text>
            <text x="18.0" y="376.0">Medium</text>
            <text x="18.0" y="576.0">Large</text>
        </g>
        <g font-size="9">
            <text x="250.0" y="30.0">Ultralight</text>
            <text x="450.0" y="30.0">Regular</text>
            <text x="650.0" y="30.0">Black</text>
            <text id="template-version" fill="#505050" text-anchor="end" x="785.0" y="575.0">Template v.3.0</text>
            <a href="https://github.com/swhitty/SwiftDraw">
                <text fill="#505050" text-anchor="end" x="785.0" y="590.0">https://github.com/swhitty/SwiftDraw</text>
            </a>
        </g>
    </g>
    <g id="Guides" stroke="rgb(39, 170, 225)" stroke-width="0.5">
        <path id="Capline-S" d="M18,76 l800,0" />
        <path id="H-reference" d="M85,145.755 L87.685,145.755 L113.369,79.287 L114.052,79.287 L114.052,76 L112.148,76 L85,145.755 Z M95.693,121.536 L130.996,121.536 L130.263,119.313 L96.474,119.313 L95.693,121.536 Z M139.15,145.755 L141.787,145.755 L114.638,76 L113.466,76 L113.466,79.287 L139.15,145.755 Z" stroke="none" transform="translate(0,200)" />
        <path id="Baseline-S" d="M18,146 l800,0" />
        <path id="left-margin-Ultralight-M" d="M230,256 l0,110" />
        <path id="right-margin-Ultralight-M" d="M300,256 l0,110" />
        <path id="left-margin-Regular-M" d="M430,256 l0,110" />
        <path id="right-margin-Regular-M" d="M500,256 l0,110" />
        <path id="left-margin-Black-M" d="M630,256 l0,110" />
        <path id="right-margin-Black-M" d="M700,256 l0,110" />
        <path id="Capline-M" d="M18,276 l800,0" />
        <path id="Baseline-M" d="M18,346 l800,0" />
        <path id="Capline-L" d="M18,476 l800,0" />
        <path id="Baseline-L" d="M18,546 l800,0" />
    </g>
    <g id="Symbols">
        <g id="Ultralight-M" transform="translate(0,200)">
            <path d="M274.545,126.909 L258.636,126.909 C256.879,126.909 255.455,128.334 255.455,130.091 C255.455,131.848 256.879,133.273 258.636,133.273 L274.545,133.273 C276.303,133.273 277.727,131.848 277.727,130.091 C277.727,128.334 276.303,126.909 274.545,126.909 Z" />
            <path d="M284.091,114.182 L258.636,114.182 C256.879,114.182 255.455,115.606 255.455,117.364 C255.455,119.121 256.879,120.545 258.636,120.545 L284.091,120.545 C285.848,120.545 287.273,119.121 287.273,117.364 C287.273,115.606 285.848,114.182 284.091,114.182 Z" />
            <path d="M239.545,146 L290.455,146 C292.986,146 295.414,144.994 297.204,143.204 C298.994,141.414 300,138.986 300,136.455 L300,85.545 C300,83.014 298.994,80.586 297.204,78.796 C295.414,77.006 292.986,76 290.455,76 L252.273,76 C249.741,76 247.313,77.006 245.523,78.796 C243.733,80.586 242.727,83.014 242.727,85.545 L242.727,136.455 C242.727,138.212 241.303,139.636 239.545,139.636 C237.788,139.636 236.364,138.212 236.364,136.455 L236.364,107.818 C236.364,106.974 236.699,106.165 237.296,105.568 C237.892,104.972 238.702,104.636 239.545,104.636 L245.909,104.636 C247.666,104.636 249.091,103.212 249.091,101.455 C249.091,99.697 247.666,98.273 245.909,98.273 L239.545,98.273 C237.014,98.273 234.586,99.278 232.796,101.069 C231.006,102.859 230,105.287 230,107.818 L230,136.455 C230,141.726 234.274,146 239.545,146 C244.817,146 249.091,141.726 249.091,136.455 L249.091,85.545 C249.091,84.702 249.426,83.892 250.023,83.296 C250.62,82.699 251.429,82.364 252.273,82.364 L290.455,82.364 C291.298,82.364 292.108,82.699 292.704,83.296 C293.301,83.892 293.636,84.702 293.636,85.545 L293.636,136.455 C293.636,137.298 293.301,138.108 292.704,138.704 C292.108,139.301 291.298,139.636 290.455,139.636 L239.545,139.636 C237.788,139.636 236.364,141.061 236.364,142.818 C236.364,144.575 237.788,146 239.545,146 Z" />
            <path d="M280.909,98.273 L280.909,101.455 C280.909,101.455 280.909,101.455 280.909,101.455 C280.909,101.455 280.909,101.455 280.909,101.455 L261.818,101.455 C261.818,101.455 261.818,101.455 261.818,101.455 C261.818,101.455 261.818,101.455 261.818,101.455 L261.818,95.091 C261.818,95.091 261.818,95.091 261.818,95.091 C261.818,95.091 261.818,95.091 261.818,95.091 L280.909,95.091 C280.909,95.091 280.909,95.091 280.909,95.091 C280.909,95.091 280.909,95.091 280.909,95.091 L280.909,98.273 Z M287.273,98.273 L287.273,95.091 C287.273,93.403 286.602,91.785 285.409,90.591 C284.215,89.398 282.597,88.727 280.909,88.727 L261.818,88.727 C260.13,88.727 258.512,89.398 257.318,90.591 C256.125,91.785 255.455,93.403 255.455,95.091 L255.455,101.455 C255.455,103.142 256.125,104.761 257.318,105.954 C258.512,107.148 260.13,107.818 261.818,107.818 L280.909,107.818 C282.597,107.818 284.215,107.148 285.409,105.954 C286.602,104.761 287.273,103.142 287.273,101.455 L287.273,98.273 Z" />
        </g>
        <g id="Regular-M" transform="translate(0,200)">
            <path d="M474.545,126.909 L458.636,126.909 C456.879,126.909 455.455,128.334 455.455,130.091 C455.455,131.848 456.879,133.273 458.636,133.273 L474.545,133.273 C476.303,133.273 477.727,131.848 477.727,130.091 C477.727,128.334 476.303,126.909 474.545,126.909 Z" />
            <path d="M484.091,114.182 L458.636,114.182 C456.879,114.182 455.455,115.606 455.455,117.364 C455.455,119.121 456.879,120.545 458.636,120.545 L484.091,120.545 C485.848,120.545 487.273,119.121 487.273,117.364 C487.273,115.606 485.848,114.182 484.091,114.182 Z" />
            <path d="M439.545,146 L490.455,146 C492.986,146 495.414,144.994 497.204,143.204 C498.994,141.414 500,138.986 500,136.455 L500,85.545 C500,83.014 498.994,80.586 497.204,78.796 C495.414,77.006 492.986,76 490.455,76 L452.273,76 C449.741,76 447.313,77.006 445.523,78.796 C443.733,80.586 442.727,83.014 442.727,85.545 L442.727,136.455 C442.727,138.212 441.303,139.636 439.545,139.636 C437.788,139.636 436.364,138.212 436.364,136.455 L436.364,107.818 C436.364,106.974 436.699,106.165 437.296,105.568 C437.892,104.972 438.702,104.636 439.545,104.636 L445.909,104.636 C447.666,104.636 449.091,103.212 449.091,101.455 C449.091,99.697 447.666,98.273 445.909,98.273 L439.545,98.273 C437.014,98.273 434.586,99.278 432.796,101.069 C431.006,102.859 430,105.287 430,107.818 L430,136.455 C430,141.726 434.274,146 439.545,146 C444.817,146 449.091,141.726 449.091,136.455 L449.091,85.545 C449.091,84.702 449.426,83.892 450.023,83.296 C450.62,82.699 451.429,82.364 452.273,82.364 L490.455,82.364 C491.298,82.364 492.108,82.699 492.704,83.296 C493.301,83.892 493.636,84.702 493.636,85.545 L493.636,136.455 C493.636,137.298 493.301,138.108 492.704,138.704 C492.108,139.301 491.298,139.636 490.455,139.636 L439.545,139.636 C437.788,139.636 436.364,141.061 436.364,142.818 C436.364,144.575 437.788,146 439.545,146 Z" />
            <path d="M480.909,98.273 L480.909,101.455 C480.909,101.455 480.909,101.455 480.909,101.455 C480.909,101.455 480.909,101.455 480.909,101.455 L461.818,101.455 C461.818,101.455 461.818,101.455 461.818,101.455 C461.818,101.455 461.818,101.455 461.818,101.455 L461.818,95.091 C461.818,95.091 461.818,95.091 461.818,95.091 C461.818,95.091 461.818,95.091 461.818,95.091 L480.909,95.091 C480.909,95.091 480.909,95.091 480.909,95.091 C480.909,95.091 480.909,95.091 480.909,95.091 L480.909,98.273 Z M487.273,98.273 L487.273,95.091 C487.273,93.403 486.602,91.785 485.409,90.591 C484.215,89.398 482.597,88.727 480.909,88.727 L461.818,88.727 C460.13,88.727 458.512,89.398 457.318,90.591 C456.125,91.785 455.455,93.403 455.455,95.091 L455.455,101.455 C455.455,103.142 456.125,104.761 457.318,105.954 C458.512,107.148 460.13,107.818 461.818,107.818 L480.909,107.818 C482.597,107.818 484.215,107.148 485.409,105.954 C486.602,104.761 487.273,103.142 487.273,101.455 L487.273,98.273 Z" />
        </g>
        <g id="Black-M" transform="translate(0,200)">
            <path d="M674.545,126.909 L658.636,126.909 C656.879,126.909 655.455,128.334 655.455,130.091 C655.455,131.848 656.879,133.273 658.636,133.273 L674.545,133.273 C676.303,133.273 677.727,131.848 677.727,130.091 C677.727,128.334 676.303,126.909 674.545,126.909 Z" />
            <path d="M684.091,114.182 L658.636,114.182 C656.879,114.182 655.455,115.606 655.455,117.364 C655.455,119.121 656.879,120.545 658.636,120.545 L684.091,120.545 C685.848,120.545 687.273,119.121 687.273,117.364 C687.273,115.606 685.848,114.182 684.091,114.182 Z" />
            <path d="M639.545,146 L690.455,146 C692.986,146 695.414,144.994 697.204,143.204 C698.994,141.414 700,138.986 700,136.455 L700,85.545 C700,83.014 698.994,80.586 697.204,78.796 C695.414,77.006 692.986,76 690.455,76 L652.273,76 C649.741,76 647.313,77.006 645.523,78.796 C643.733,80.586 642.727,83.014 642.727,85.545 L642.727,136.455 C642.727,138.212 641.303,139.636 639.545,139.636 C637.788,139.636 636.364,138.212 636.364,136.455 L636.364,107.818 C636.364,106.974 636.699,106.165 637.296,105.568 C637.892,104.972 638.702,104.636 639.545,104.636 L645.909,104.636 C647.666,104.636 649.091,103.212 649.091,101.455 C649.091,99.697 647.666,98.273 645.909,98.273 L639.545,98.273 C637.014,98.273 634.586,99.278 632.796,101.069 C631.006,102.859 630,105.287 630,107.818 L630,136.455 C630,141.726 634.274,146 639.545,146 C644.817,146 649.091,141.726 649.091,136.455 L649.091,85.545 C649.091,84.702 649.426,83.892 650.023,83.296 C650.62,82.699 651.429,82.364 652.273,82.364 L690.455,82.364 C691.298,82.364 692.108,82.699 692.704,83.296 C693.301,83.892 693.636,84.702 693.636,85.545 L693.636,136.455 C693.636,137.298 693.301,138.108 692.704,138.704 C692.108,139.301 691.298,139.636 690.455,139.636 L639.545,139.636 C637.788,139.636 636.364,141.061 636.364,142.818 C636.364,144.575 637.788,146 639.545,146 Z" />
            <path d="M680.909,98.273 L680.909,101.455 C680.909,101.455 680.909,101.455 680.909,101.455 C680.909,101.455 680.909,101.455 680.909,101.455 L661.818,101.455 C661.818,101.455 661.818,101.455 661.818,101.455 C661.818,101.455 661.818,101.455 661.818,101.455 L661.818,95.091 C661.818,95.091 661.818,95.091 661.818,95.091 C661.818,95.091 661.818,95.091 661.818,95.091 L680.909,95.091 C680.909,95.091 680.909,95.091 680.909,95.091 C680.909,95.091 680.909,95.091 680.909,95.091 L680.909,98.273 Z M687.273,98.273 L687.273,95.091 C687.273,93.403 686.602,91.785 685.409,90.591 C684.215,89.398 682.597,88.727 680.909,88.727 L661.818,88.727 C660.13,88.727 658.512,89.398 657.318,90.591 C656.125,91.785 655.455,93.403 655.455,95.091 L655.455,101.455 C655.455,103.142 656.125,104.761 657.318,105.954 C658.512,107.148 660.13,107.818 661.818,107.818 L680.909,107.818 C682.597,107.818 684.215,107.148 685.409,105.954 C686.602,104.761 687.273,103.142 687.273,101.455 L687.273,98.273 Z" />
        </g>
    </g>
</svg>