<?xml version="1.0" encoding="UTF-8"?>
<svg height="600" width="800" xmlns="http://www.w3.org/2000/svg" xmlns:xlink="http://www.w3.org/1999/xlink">
    <g id="Notes" font-family="LucidaGrande, 'Lucida Grande', sans-serif" font-size="13">
        <rect fill="white" height="600.0" width="800.0" x="0.0" y="0.0" />
        <g font-size="13">
            <text x="18.0" y="176.0">Small</text>
            <text x="18.0" y="376.0">Medium</text>
            <text x="18.0" y="576.0">Large</text>
        </g>
        <g font-size="9">
            <text x="250.0" y="30.0">Ultralight</text>
            <text x="450.0" y="30.0">Regular</text>
            <text x="650.0" y="30.0">Black</text>
            <text id="template-version" fill="#505050" text-anchor="end" x="785.0" y="575.0">Template v.3.0</text>
            <a href="https://github.com/swhitty/SwiftDraw">
                <text fill="#505050" text-anchor="end" x="785.0" y="590.0">https://github.com/swhitty/SwiftDraw</text>
            </a>
        </g>
    </g>
    <g id="Guides" stroke="rgb(39, 170, 225)" stroke-width="0.5">
        <path id="Capline-S" d="M18,76 l800,0" />
        <path id="H-reference" d="M85,145.755 L87.685,145.755 L113.369,79.287 L114.052,79.287 L114.052,76 L112.148,76 L85,145.755 Z M95.693,121.536 L130.996,121.536 L130.263,119.313 L96.474,119.313 L95.693,121.536 Z M139.15,145.755 L141.787,145.755 L114.638,76 L113.466,76 L113.466,79.287 L139.15,145.755 Z" stroke="none" transform="translate(0,200)" />
        <path id="Baseline-S" d="M18,146 l800,0" />
        <path id="left-margin-Ultralight-M" d="M230,256 l0,110" />
        <path id="right-margin-Ultralight-M" d="M300,256 l0,110" />
        <path id="left-margin-Regular-M" d="M430,256 l0,110" />
        <path id="right-margin-Regular-M" d="M500,256 l0,110" />
        <path id="left-margin-Black-M" d="M630,256 l0,110" />
        <path id="right-margin-Black-M" d="M700,256 l0,110" />
        <path id="Capline-M" d="M18,276 l800,0" />
        <path id="Baseline-M" d="M18,346 l800,0" />
        <path id="Capline-L" d="M18,476 l800,0" />
        <path id="Baseline-L" d="M18,546 l800,0" />
    </g>
    <g id="Symbols">
        <g id="Ultralight-M" transform="translate(0,200)">
            <path d="M269.454,76 L245.909,76 C243.377,76 240.949,77.006 239.159,78.796 C237.369,80.586 236.364,83.014 236.364,85.546 L236.364,136.455 C236.364,138.986 237.369,141.414 239.159,143.204 C240.949,144.994 243.377,146 245.909,146 L284.091,146 C286.622,146 289.05,144.994 290.84,143.204 C292.63,141.414 293.636,138.986 293.636,136.455 L293.636,112.909 C293.636,111.152 292.211,109.728 290.454,109.728 C288.697,109.728 287.272,111.152 287.272,112.909 L287.272,136.455 C287.272,137.298 286.937,138.108 286.34,138.704 C285.744,139.301 284.934,139.636 284.091,139.636 L245.909,139.636 C245.065,139.636 244.256,139.301 243.659,138.704 C243.062,138.108 242.727,137.298 242.727,136.455 L242.727,85.546 C242.727,84.702 243.062,83.893 243.659,83.296 C244.256,82.699 245.065,82.364 245.909,82.364 L269.454,82.364 C271.212,82.364 272.636,80.94 272.636,79.182 C272.636,77.425 271.212,76 269.454,76 Z" />
            <path d="M233.182,95.091 L245.909,95.091 C247.666,95.091 249.091,93.667 249.091,91.909 C249.091,90.152 247.666,88.728 245.909,88.728 L233.182,88.728 C231.425,88.728 230,90.152 230,91.909 C230,93.667 231.425,95.091 233.182,95.091 Z" />
            <path d="M233.182,107.818 L245.909,107.818 C247.666,107.818 249.091,106.394 249.091,104.637 C249.091,102.879 247.666,101.455 245.909,101.455 L233.182,101.455 C231.425,101.455 230,102.879 230,104.637 C230,106.394 231.425,107.818 233.182,107.818 Z" />
            <path d="M233.182,120.546 L245.909,120.546 C247.666,120.546 249.091,119.121 249.091,117.364 C249.091,115.607 247.666,114.182 245.909,114.182 L233.182,114.182 C231.425,114.182 230,115.607 230,117.364 C230,119.121 231.425,120.546 233.182,120.546 Z" />
            <path d="M233.182,133.273 L245.909,133.273 C247.666,133.273 249.091,131.848 249.091,130.091 C249.091,128.334 247.666,126.909 245.909,126.909 L233.182,126.909 C231.425,126.909 230,128.334 230,130.091 C230,131.848 231.425,133.273 233.182,133.273 Z" />
            <path d="M297.089,92.969 C300.97,89.087 300.97,82.793 297.089,78.911 C293.207,75.03 286.913,75.03 283.031,78.911 L267.089,94.859 C265.956,95.992 265.125,97.394 264.676,98.934 L262.012,108.067 C261.524,109.74 261.987,111.546 263.219,112.778 C264.451,114.01 266.257,114.473 267.93,113.985 L277.062,111.322 C278.603,110.872 280.005,110.041 281.139,108.906 L297.088,92.97 Z M292.59,88.469 L276.639,104.406 C276.26,104.786 275.793,105.063 275.279,105.213 L266.148,107.876 C266.706,107.713 267.308,107.867 267.719,108.278 C268.13,108.689 268.284,109.291 268.121,109.848 L270.784,100.717 C270.934,100.204 271.211,99.737 271.589,99.359 L287.531,83.411 C288.927,82.014 291.192,82.014 292.589,83.411 C293.986,84.808 293.986,87.073 292.589,88.47 Z" />
        </g>
        <g id="Regular-M" transform="translate(0,200)">
            <path d="M469.454,76 L445.909,76 C443.377,76 440.949,77.006 439.159,78.796 C437.369,80.586 436.364,83.014 436.364,85.546 L436.364,136.455 C436.364,138.986 437.369,141.414 439.159,143.204 C440.949,144.994 443.377,146 445.909,146 L484.091,146 C486.622,146 489.05,144.994 490.84,143.204 C492.63,141.414 493.636,138.986 493.636,136.455 L493.636,112.909 C493.636,111.152 492.211,109.728 490.454,109.728 C488.697,109.728 487.272,111.152 487.272,112.909 L487.272,136.455 C487.272,137.298 486.937,138.108 486.34,138.704 C485.744,139.301 484.934,139.636 484.091,139.636 L445.909,139.636 C445.065,139.636 444.256,139.301 443.659,138.704 C443.062,138.108 442.727,137.298 442.727,136.455 L442.727,85.546 C442.727,84.702 443.062,83.893 443.659,83.296 C444.256,82.699 445.065,82.364 445.909,82.364 L469.454,82.364 C471.212,82.364 472.636,80.94 472.636,79.182 C472.636,77.425 471.212,76 469.454,76 Z" />
            <path d="M433.182,95.091 L445.909,95.091 C447.666,95.091 449.091,93.667 449.091,91.909 C449.091,90.152 447.666,88.728 445.909,88.728 L433.182,88.728 C431.425,88.728 430,90.152 430,91.909 C430,93.667 431.425,95.091 433.182,95.091 Z" />
            <path d="M433.182,107.818 L445.909,107.818 C447.666,107.818 449.091,106.394 449.091,104.637 C449.091,102.879 447.666,101.455 445.909,101.455 L433.182,101.455 C431.425,101.455 430,102.879 430,104.637 C430,106.394 431.425,107.818 433.182,107.818 Z" />
            <path d="M433.182,120.546 L445.909,120.546 C447.666,120.546 449.091,119.121 449.091,117.364 C449.091,115.607 447.666,114.182 445.909,114.182 L433.182,114.182 C431.425,114.182 430,115.607 430,117.364 C430,119.121 431.425,120.546 433.182,120.546 Z" />
            <path d="M433.182,133.273 L445.909,133.273 C447.666,133.273 449.091,131.848 449.091,130.091 C449.091,128.334 447.666,126.909 445.909,126.909 L433.182,126.909 C431.425,126.909 430,128.334 430,130.091 C430,131.848 431.425,133.273 433.182,133.273 Z" />
            <path d="M497.089,92.969 C500.97,89.087 500.97,82.793 497.089,78.911 C493.207,75.03 486.913,75.03 483.031,78.911 L467.089,94.859 C465.956,95.992 465.125,97.394 464.676,98.934 L462.012,108.067 C461.524,109.74 461.987,111.546 463.219,112.778 C464.451,114.01 466.257,114.473 467.93,113.985 L477.062,111.322 C478.603,110.872 480.005,110.041 481.139,108.906 L497.088,92.97 Z M492.59,88.469 L476.639,104.406 C476.26,104.786 475.793,105.063 475.279,105.213 L466.148,107.876 C466.706,107.713 467.308,107.867 467.719,108.278 C468.13,108.689 468.284,109.291 468.121,109.848 L470.784,100.717 C470.934,100.204 471.211,99.737 471.589,99.359 L487.531,83.411 C488.927,82.014 491.192,82.014 492.589,83.411 C493.986,84.808 493.986,87.073 492.589,88.47 Z" />
        </g>
        <g id="Black-M" transform="translate(0,200)">
            <path d="M669.454,76 L645.909,76 C643.377,76 640.949,77.006 639.159,78.796 C637.369,80.586 636.364,83.014 636.364,85.546 L636.364,136.455 C636.364,138.986 637.369,141.414 639.159,143.204 C640.949,144.994 643.377,146 645.909,146 L684.091,146 C686.622,146 689.05,144.994 690.84,143.204 C692.63,141.414 693.636,138.986 693.636,136.455 L693.636,112.909 C693.636,111.152 692.211,109.728 690.454,109.728 C688.697,109.728 687.272,111.152 687.272,112.909 L687.272,136.455 C687.272,137.298 686.937,138.108 686.34,138.704 C685.744,139.301 684.934,139.636 684.091,139.636 L645.909,139.636 C645.065,139.636 644.256,139.301 643.659,138.704 C643.062,138.108 642.727,137.298 642.727,136.455 L642.727,85.546 C642.727,84.702 643.062,83.893 643.659,83.296 C644.256,82.699 645.065,82.364 645.909,82.364 L669.454,82.364 C671.212,82.364 672.636,80.94 672.636,79.182 C672.636,77.425 671.212,76 669.454,76 Z" />
            <path d="M633.182,95.091 L645.909,95.091 C647.666,95.091 649.091,93.667 649.091,91.909 C649.091,90.152 647.666,88.728 645.909,88.728 L633.182,88.728 C631.425,88.728 630,90.152 630,91.909 C630,93.667 631.425,95.091 633.182,95.091 Z" />
            <path d="M633.182,107.818 L645.909,107.818 C647.666,107.818 649.091,106.394 649.091,104.637 C649.091,102.879 647.666,101.455 645.909,101.455 L633.182,101.455 C631.425,101.455 630,102.879 630,104.637 C630,106.394 631.425,107.818 633.182,107.818 Z" />
            <path d="M633.182,120.546 L645.909,120.546 C647.666,120.546 649.091,119.121 649.091,117.364 C649.091,115.607 647.666,114.182 645.909,114.182 L633.182,114.182 C631.425,114.182 630,115.607 630,117.364 C630,119.121 631.425,120.546 633.182,120.546 Z" />
            <path d="M633.182,133.273 L645.909,133.273 C647.666,133.273 649.091,131.848 649.091,130.091 C649.091,128.334 647.666,126.909 645.909,126.909 L633.182,126.909 C631.425,126.909 630,128.334 630,130.091 C630,131.848 631.425,133.273 633.182,133.273 Z" />
            <path d="M697.089,92.969 C700.971,89.087 700.971,82.793 697.089,78.911 C693.207,75.03 686.913,75.03 683.031,78.911 L667.089,94.859 C665.956,95.992 665.125,97.394 664.675,98.934 L662.012,108.067 C661.524,109.74 661.987,111.546 663.219,112.778 C664.451,114.01 666.257,114.473 667.93,113.985 L677.062,111.322 C678.603,110.872 680.005,110.041 681.139,108.906 L697.088,92.97 Z M692.59,88.469 L676.639,104.406 C676.26,104.786 675.793,105.063 675.279,105.213 L666.148,107.876 C666.706,107.713 667.308,107.867 667.719,108.278 C668.13,108.689 668.284,109.291 668.121,109.848 L670.784,100.717 C670.934,100.204 671.211,99.737 671.589,99.359 L687.531,83.411 C688.927,82.014 691.192,82.014 692.589,83.411 C693.986,84.808 693.986,87.073 692.589,88.47 Z" />
        </g>
    </g>
</svg>