<?xml version="1.0" encoding="UTF-8"?>
<svg height="600" width="800" xmlns="http://www.w3.org/2000/svg" xmlns:xlink="http://www.w3.org/1999/xlink">
    <g id="Notes" font-family="LucidaGrande, 'Lucida Grande', sans-serif" font-size="13">
        <rect fill="white" height="600.0" width="800.0" x="0.0" y="0.0" />
        <g font-size="13">
            <text x="18.0" y="176.0">Small</text>
            <text x="18.0" y="376.0">Medium</text>
            <text x="18.0" y="576.0">Large</text>
        </g>
        <g font-size="9">
            <text x="250.0" y="30.0">Ultralight</text>
            <text x="450.0" y="30.0">Regular</text>
            <text x="650.0" y="30.0">Black</text>
            <text id="template-version" fill="#505050" text-anchor="end" x="785.0" y="575.0">Template v.3.0</text>
            <a href="https://github.com/swhitty/SwiftDraw">
                <text fill="#505050" text-anchor="end" x="785.0" y="590.0">https://github.com/swhitty/SwiftDraw</text>
            </a>
        </g>
    </g>
    <g id="Guides" stroke="rgb(39, 170, 225)" stroke-width="0.5">
        <path id="Capline-S" d="M18,76 l800,0" />
        <path id="H-reference" d="M85,145.755 L87.685,145.755 L113.369,79.287 L114.052,79.287 L114.052,76 L112.148,76 L85,145.755 Z M95.693,121.536 L130.996,121.536 L130.263,119.313 L96.474,119.313 L95.693,121.536 Z M139.15,145.755 L141.787,145.755 L114.638,76 L113.466,76 L113.466,79.287 L139.15,145.755 Z" stroke="none" transform="translate(0,200)" />
        <path id="Baseline-S" d="M18,146 l800,0" />
        <path id="left-margin-Ultralight-M" d="M230,256 l0,110" />
        <path id="right-margin-Ultralight-M" d="M300,256 l0,110" />
        <path id="left-margin-Regular-M" d="M430,256 l0,110" />
        <path id="right-margin-Regular-M" d="M500,256 l0,110" />
        <path id="left-margin-Black-M" d="M630,256 l0,110" />
        <path id="right-margin-Black-M" d="M700,256 l0,110" />
        <path id="Capline-M" d="M18,276 l800,0" />
        <path id="Baseline-M" d="M18,346 l800,0" />
        <path id="Capline-L" d="M18,476 l800,0" />
        <path id="Baseline-L" d="M18,546 l800,0" />
    </g>
    <g id="Symbols">
        <g id="Ultralight-M" transform="translate(0,200)">
            <path d="M233.5,83 L254.5,83 L251.18,80.607 L272.18,143.607 C272.656,145.036 273.993,146 275.5,146 L296.5,146 C298.433,146 300,144.433 300,142.5 C300,140.567 298.433,139 296.5,139 L275.5,139 L278.82,141.393 L257.82,78.393 C257.344,76.964 256.007,76 254.5,76 L233.5,76 C231.567,76 230,77.567 230,79.5 C230,81.433 231.567,83 233.5,83 Z" />
            <path d="M272,83 L296.5,83 C298.433,83 300,81.433 300,79.5 C300,77.567 298.433,76 296.5,76 L272,76 C270.067,76 268.5,77.567 268.5,79.5 C268.5,81.433 270.067,83 272,83 Z" />
        </g>
        <g id="Regular-M" transform="translate(0,200)">
            <path d="M433.5,83 L454.5,83 L451.18,80.607 L472.18,143.607 C472.656,145.036 473.993,146 475.5,146 L496.5,146 C498.433,146 500,144.433 500,142.5 C500,140.567 498.433,139 496.5,139 L475.5,139 L478.82,141.393 L457.82,78.393 C457.344,76.964 456.007,76 454.5,76 L433.5,76 C431.567,76 430,77.567 430,79.5 C430,81.433 431.567,83 433.5,83 Z" />
            <path d="M472,83 L496.5,83 C498.433,83 500,81.433 500,79.5 C500,77.567 498.433,76 496.5,76 L472,76 C470.067,76 468.5,77.567 468.5,79.5 C468.5,81.433 470.067,83 472,83 Z" />
        </g>
        <g id="Black-M" transform="translate(0,200)">
            <path d="M633.5,83 L654.5,83 L651.18,80.607 L672.18,143.607 C672.656,145.036 673.993,146 675.5,146 L696.5,146 C698.433,146 700,144.433 700,142.5 C700,140.567 698.433,139 696.5,139 L675.5,139 L678.82,141.393 L657.82,78.393 C657.344,76.964 656.007,76 654.5,76 L633.5,76 C631.567,76 630,77.567 630,79.5 C630,81.433 631.567,83 633.5,83 Z" />
            <path d="M672,83 L696.5,83 C698.433,83 700,81.433 700,79.5 C700,77.567 698.433,76 696.5,76 L672,76 C670.067,76 668.5,77.567 668.5,79.5 C668.5,81.433 670.067,83 672,83 Z" />
        </g>
    </g>
</svg>