<?xml version="1.0" encoding="UTF-8"?>
<svg height="600" width="800" xmlns="http://www.w3.org/2000/svg" xmlns:xlink="http://www.w3.org/1999/xlink">
    <g id="Notes" font-family="LucidaGrande, 'Lucida Grande', sans-serif" font-size="13">
        <rect fill="white" height="600.0" width="800.0" x="0.0" y="0.0" />
        <g font-size="13">
            <text x="18.0" y="176.0">Small</text>
            <text x="18.0" y="376.0">Medium</text>
            <text x="18.0" y="576.0">Large</text>
        </g>
        <g font-size="9">
            <text x="250.0" y="30.0">Ultralight</text>
            <text x="450.0" y="30.0">Regular</text>
            <text x="650.0" y="30.0">Black</text>
            <text id="template-version" fill="#505050" text-anchor="end" x="785.0" y="575.0">Template v.3.0</text>
            <a href="https://github.com/swhitty/SwiftDraw">
                <text fill="#505050" text-anchor="end" x="785.0" y="590.0">https://github.com/swhitty/SwiftDraw</text>
            </a>
        </g>
    </g>
    <g id="Guides" stroke="rgb(39, 170, 225)" stroke-width="0.5">
        <path id="Capline-S" d="M18,76 l800,0" />
        <path id="H-reference" d="M85,145.755 L87.685,145.755 L113.369,79.287 L114.052,79.287 L114.052,76 L112.148,76 L85,145.755 Z M95.693,121.536 L130.996,121.536 L130.263,119.313 L96.474,119.313 L95.693,121.536 Z M139.15,145.755 L141.787,145.755 L114.638,76 L113.466,76 L113.466,79.287 L139.15,145.755 Z" stroke="none" transform="translate(0,200)" />
        <path id="Baseline-S" d="M18,146 l800,0" />
        <path id="left-margin-Ultralight-M" d="M231.75,256 l0,110" />
        <path id="right-margin-Ultralight-M" d="M298.25,256 l0,110" />
        <path id="left-margin-Regular-M" d="M431.75,256 l0,110" />
        <path id="right-margin-Regular-M" d="M498.25,256 l0,110" />
        <path id="left-margin-Black-M" d="M631.75,256 l0,110" />
        <path id="right-margin-Black-M" d="M698.25,256 l0,110" />
        <path id="Capline-M" d="M18,276 l800,0" />
        <path id="Baseline-M" d="M18,346 l800,0" />
        <path id="Capline-L" d="M18,476 l800,0" />
        <path id="Baseline-L" d="M18,546 l800,0" />
    </g>
    <g id="Symbols">
        <g id="Ultralight-M" transform="translate(0,200)">
            <path d="M268.963,111 L268.963,83 C268.963,83 268.963,83 268.963,83 C268.963,83 268.963,83 268.963,83 L290.025,83 C290.024,83 290.024,83 290.024,83 C290.024,83 290.024,83 290.024,83 L274.318,97.087 C272.916,98.345 272.753,100.554 273.955,102.022 C275.158,103.489 277.269,103.659 278.672,102.401 L294.379,88.314 C296.504,86.406 297.27,83.317 296.298,80.57 C295.327,77.824 292.824,76 290.025,76 L268.963,76 C267.188,76 265.487,76.737 264.232,78.05 C262.978,79.363 262.273,81.143 262.273,83 L262.273,111 C262.273,112.933 263.771,114.5 265.618,114.5 C267.465,114.5 268.963,112.933 268.963,111 Z" />
            <path d="M267.983,140.025 L243.185,114.076 C242.557,113.42 242.204,112.529 242.204,111.601 L242.204,91.452 C242.204,91.467 242.206,91.465 242.208,91.464 C242.211,91.463 242.214,91.463 242.216,91.465 L290.01,141.506 C291.316,142.873 293.434,142.874 294.741,141.507 C296.047,140.141 296.048,137.925 294.742,136.557 L246.935,86.504 C245.007,84.506 242.14,83.917 239.649,84.996 C237.158,86.076 235.528,88.614 235.515,91.435 L235.515,111.602 C235.515,114.387 236.573,117.058 238.455,119.026 L263.253,144.975 C264.559,146.342 266.677,146.342 267.983,144.975 C269.289,143.608 269.289,141.392 267.983,140.025 Z" />
            <path d="M263.418,82.549 L291.561,134.93 C291.56,134.928 291.56,134.928 291.56,134.928 L287.651,139.001 C287.653,139 287.653,139 287.653,139 L246.723,139 C246.722,139 246.722,139 246.722,139 L238.441,132.067 C238.44,132.066 238.44,132.066 238.44,132.066 C238.44,132.066 238.44,132.066 238.44,132.066 L252.371,132.161 C254.218,132.173 255.725,130.617 255.737,128.684 C255.749,126.751 254.261,125.174 252.414,125.161 L238.483,125.067 C235.634,125.047 233.086,126.918 232.134,129.729 C231.183,132.539 232.037,135.672 234.262,137.534 L242.543,144.466 C243.731,145.46 245.205,146.001 246.725,146 L287.65,146 C289.417,146.001 291.115,145.269 292.37,143.963 L296.278,139.891 C298.408,137.676 298.865,134.243 297.393,131.501 L269.249,79.118 C268.344,77.433 266.305,76.835 264.694,77.783 C263.084,78.73 262.513,80.864 263.418,82.549 Z" />
        </g>
        <g id="Regular-M" transform="translate(0,200)">
            <path d="M468.963,111 L468.963,83 C468.963,83 468.963,83 468.963,83 C468.963,83 468.963,83 468.963,83 L490.025,83 C490.024,83 490.024,83 490.024,83 C490.024,83 490.024,83 490.024,83 L474.318,97.087 C472.916,98.345 472.753,100.554 473.955,102.022 C475.158,103.489 477.269,103.659 478.672,102.401 L494.379,88.314 C496.504,86.406 497.27,83.317 496.298,80.57 C495.327,77.824 492.824,76 490.025,76 L468.963,76 C467.188,76 465.487,76.737 464.232,78.05 C462.978,79.363 462.273,81.143 462.273,83 L462.273,111 C462.273,112.933 463.771,114.5 465.618,114.5 C467.465,114.5 468.963,112.933 468.963,111 Z" />
            <path d="M467.983,140.025 L443.185,114.076 C442.557,113.42 442.204,112.529 442.204,111.601 L442.204,91.452 C442.204,91.467 442.206,91.465 442.208,91.464 C442.211,91.463 442.214,91.463 442.216,91.465 L490.01,141.506 C491.316,142.873 493.434,142.874 494.741,141.507 C496.047,140.141 496.048,137.925 494.742,136.557 L446.935,86.504 C445.007,84.506 442.14,83.917 439.649,84.996 C437.158,86.076 435.528,88.614 435.515,91.435 L435.515,111.602 C435.515,114.387 436.573,117.058 438.455,119.026 L463.253,144.975 C464.559,146.342 466.677,146.342 467.983,144.975 C469.289,143.608 469.289,141.392 467.983,140.025 Z" />
            <path d="M463.418,82.549 L491.561,134.93 C491.56,134.928 491.56,134.928 491.56,134.928 L487.651,139.001 C487.653,139 487.653,139 487.653,139 L446.723,139 C446.722,139 446.722,139 446.722,139 L438.441,132.067 C438.44,132.066 438.44,132.066 438.44,132.066 C438.44,132.066 438.44,132.066 438.44,132.066 L452.371,132.161 C454.218,132.173 455.725,130.617 455.737,128.684 C455.749,126.751 454.261,125.174 452.414,125.161 L438.483,125.067 C435.634,125.047 433.086,126.918 432.134,129.729 C431.183,132.539 432.037,135.672 434.262,137.534 L442.543,144.466 C443.73,145.46 445.205,146.001 446.725,146 L487.65,146 C489.417,146.001 491.115,145.269 492.37,143.963 L496.278,139.891 C498.408,137.676 498.865,134.243 497.393,131.501 L469.249,79.118 C468.344,77.433 466.305,76.835 464.694,77.783 C463.084,78.73 462.513,80.864 463.418,82.549 Z" />
        </g>
        <g id="Black-M" transform="translate(0,200)">
            <path d="M668.963,111 L668.963,83 C668.963,83 668.963,83 668.963,83 C668.963,83 668.963,83 668.963,83 L690.025,83 C690.024,83 690.024,83 690.024,83 C690.024,83 690.024,83 690.024,83 L674.318,97.087 C672.916,98.345 672.753,100.554 673.956,102.022 C675.158,103.489 677.269,103.659 678.672,102.401 L694.379,88.314 C696.504,86.406 697.27,83.317 696.298,80.57 C695.327,77.824 692.824,76 690.025,76 L668.963,76 C667.188,76 665.487,76.737 664.232,78.05 C662.978,79.363 662.273,81.143 662.273,83 L662.273,111 C662.273,112.933 663.771,114.5 665.618,114.5 C667.465,114.5 668.963,112.933 668.963,111 Z" />
            <path d="M667.983,140.025 L643.185,114.076 C642.557,113.42 642.204,112.529 642.204,111.601 L642.204,91.452 C642.204,91.467 642.206,91.465 642.208,91.464 C642.211,91.463 642.214,91.463 642.216,91.465 L690.01,141.506 C691.316,142.873 693.434,142.874 694.741,141.507 C696.047,140.141 696.048,137.925 694.742,136.557 L646.935,86.504 C645.007,84.506 642.14,83.917 639.649,84.996 C637.158,86.076 635.528,88.614 635.515,91.435 L635.515,111.602 C635.515,114.387 636.573,117.058 638.455,119.026 L663.253,144.975 C664.559,146.342 666.677,146.342 667.983,144.975 C669.289,143.608 669.289,141.392 667.983,140.025 Z" />
            <path d="M663.418,82.549 L691.561,134.93 C691.56,134.928 691.56,134.928 691.56,134.928 L687.651,139.001 C687.653,139 687.653,139 687.653,139 L646.723,139 C646.722,139 646.722,139 646.722,139 L638.441,132.067 C638.44,132.066 638.44,132.066 638.44,132.066 C638.44,132.066 638.44,132.066 638.44,132.066 L652.371,132.161 C654.218,132.173 655.725,130.617 655.737,128.684 C655.749,126.751 654.261,125.174 652.414,125.161 L638.483,125.067 C635.634,125.047 633.086,126.918 632.134,129.729 C631.183,132.539 632.037,135.672 634.262,137.534 L642.543,144.466 C643.731,145.46 645.205,146.001 646.725,146 L687.65,146 C689.417,146.001 691.115,145.269 692.37,143.963 L696.278,139.891 C698.408,137.676 698.865,134.243 697.393,131.501 L669.249,79.118 C668.344,77.433 666.305,76.835 664.694,77.783 C663.084,78.73 662.513,80.864 663.418,82.549 Z" />
        </g>
    </g>
</svg>