<?xml version="1.0" encoding="UTF-8"?>
<svg height="600" width="800" xmlns="http://www.w3.org/2000/svg" xmlns:xlink="http://www.w3.org/1999/xlink">
    <g id="Notes" font-family="LucidaGrande, 'Lucida Grande', sans-serif" font-size="13">
        <rect fill="white" height="600.0" width="800.0" x="0.0" y="0.0" />
        <g font-size="13">
            <text x="18.0" y="176.0">Small</text>
            <text x="18.0" y="376.0">Medium</text>
            <text x="18.0" y="576.0">Large</text>
        </g>
        <g font-size="9">
            <text x="250.0" y="30.0">Ultralight</text>
            <text x="450.0" y="30.0">Regular</text>
            <text x="650.0" y="30.0">Black</text>
            <text id="template-version" fill="#505050" text-anchor="end" x="785.0" y="575.0">Template v.3.0</text>
            <a href="https://github.com/swhitty/SwiftDraw">
                <text fill="#505050" text-anchor="end" x="785.0" y="590.0">https://github.com/swhitty/SwiftDraw</text>
            </a>
        </g>
    </g>
    <g id="Guides" stroke="rgb(39, 170, 225)" stroke-width="0.5">
        <path id="Capline-S" d="M18,76 l800,0" />
        <path id="H-reference" d="M85,145.755 L87.685,145.755 L113.369,79.287 L114.052,79.287 L114.052,76 L112.148,76 L85,145.755 Z M95.693,121.536 L130.996,121.536 L130.263,119.313 L96.474,119.313 L95.693,121.536 Z M139.15,145.755 L141.787,145.755 L114.638,76 L113.466,76 L113.466,79.287 L139.15,145.755 Z" stroke="none" transform="translate(0,200)" />
        <path id="Baseline-S" d="M18,146 l800,0" />
        <path id="left-margin-Ultralight-M" d="M231.591,256 l0,110" />
        <path id="right-margin-Ultralight-M" d="M298.409,256 l0,110" />
        <path id="left-margin-Regular-M" d="M431.591,256 l0,110" />
        <path id="right-margin-Regular-M" d="M498.409,256 l0,110" />
        <path id="left-margin-Black-M" d="M631.591,256 l0,110" />
        <path id="right-margin-Black-M" d="M698.409,256 l0,110" />
        <path id="Capline-M" d="M18,276 l800,0" />
        <path id="Baseline-M" d="M18,346 l800,0" />
        <path id="Capline-L" d="M18,476 l800,0" />
        <path id="Baseline-L" d="M18,546 l800,0" />
    </g>
    <g id="Symbols">
        <g id="Ultralight-M" transform="translate(0,200)">
            <path d="M268.043,142.821 L268.043,114.206 C268.043,112.45 266.68,111.027 265,111.027 C263.32,111.027 261.957,112.45 261.957,114.206 L261.957,142.821 C261.957,144.577 263.32,146 265,146 C266.68,146 268.043,144.577 268.043,142.821 Z" />
            <path d="M276.13,82.676 C276.749,82.314 277.502,82.314 278.12,82.676 L290.894,90.176 C291.775,90.696 292.324,91.679 292.324,92.745 C292.324,93.811 291.775,94.795 290.887,95.319 L253.831,117.127 C253.205,117.5 252.454,117.5 251.842,117.136 L239.111,109.625 C238.225,109.102 237.676,108.118 237.676,107.053 C237.676,105.987 238.225,105.003 239.113,104.479 L276.14,82.67 Z M273.151,77.131 L236.121,98.942 C233.32,100.597 231.591,103.695 231.591,107.053 C231.591,110.41 233.32,113.509 236.118,115.161 L248.838,122.666 C251.307,124.138 254.351,124.138 256.832,122.659 L293.878,100.857 C296.68,99.201 298.409,96.103 298.409,92.745 C298.409,89.387 296.68,86.289 293.882,84.636 L281.096,77.129 C278.626,75.686 275.624,75.686 273.161,77.126 Z" />
            <path d="M286.299,114.206 L286.299,126.51 C286.3,127.773 285.63,128.927 284.561,129.508 L266.318,139.293 C265.487,139.744 264.513,139.744 263.695,139.3 L245.425,129.5 C244.37,128.927 243.7,127.773 243.701,126.514 L243.701,114.206 C243.701,112.45 242.339,111.027 240.658,111.027 C238.978,111.027 237.616,112.45 237.616,114.206 L237.616,126.51 C237.612,130.141 239.546,133.474 242.632,135.15 L260.902,144.95 C263.466,146.342 266.534,146.342 269.111,144.942 L287.354,135.157 C290.453,133.474 292.388,130.141 292.385,126.507 L292.385,114.206 C292.385,112.45 291.022,111.027 289.342,111.027 C287.661,111.027 286.299,112.45 286.299,114.206 Z" />
            <path d="M293.882,115.161 C296.68,113.509 298.409,110.41 298.409,107.053 C298.409,103.695 296.68,100.597 293.882,98.944 L256.85,77.1 C254.394,75.63 251.356,75.63 248.883,77.11 L236.12,84.635 C233.32,86.289 231.591,89.387 231.591,92.745 C231.591,96.103 233.32,99.201 236.118,100.854 L273.183,122.667 C275.634,124.139 278.677,124.139 281.151,122.654 L293.878,115.164 Z M290.891,109.624 L278.142,117.127 C277.523,117.499 276.789,117.499 276.192,117.14 L239.109,95.316 C238.225,94.795 237.676,93.811 237.676,92.745 C237.676,91.679 238.225,90.696 239.113,90.172 L251.89,82.638 C252.507,82.269 253.243,82.269 253.842,82.628 L290.889,104.48 C291.775,105.003 292.324,105.987 292.324,107.053 C292.324,108.118 291.775,109.102 290.887,109.626 Z" />
        </g>
        <g id="Regular-M" transform="translate(0,200)">
            <path d="M468.043,142.821 L468.043,114.206 C468.043,112.45 466.68,111.027 465,111.027 C463.32,111.027 461.957,112.45 461.957,114.206 L461.957,142.821 C461.957,144.577 463.32,146 465,146 C466.68,146 468.043,144.577 468.043,142.821 Z" />
            <path d="M476.13,82.676 C476.749,82.314 477.502,82.314 478.12,82.676 L490.894,90.176 C491.775,90.696 492.324,91.679 492.324,92.745 C492.324,93.811 491.775,94.795 490.887,95.319 L453.831,117.127 C453.205,117.5 452.454,117.5 451.842,117.136 L439.111,109.625 C438.225,109.102 437.676,108.118 437.676,107.053 C437.676,105.987 438.225,105.003 439.113,104.479 L476.14,82.67 Z M473.151,77.131 L436.121,98.942 C433.32,100.597 431.591,103.695 431.591,107.053 C431.591,110.41 433.32,113.509 436.118,115.161 L448.838,122.666 C451.307,124.138 454.351,124.138 456.832,122.659 L493.878,100.857 C496.68,99.201 498.409,96.103 498.409,92.745 C498.409,89.387 496.68,86.289 493.882,84.636 L481.096,77.129 C478.626,75.686 475.624,75.686 473.161,77.126 Z" />
            <path d="M486.299,114.206 L486.299,126.51 C486.3,127.773 485.63,128.927 484.561,129.508 L466.318,139.293 C465.487,139.744 464.513,139.744 463.695,139.3 L445.425,129.5 C444.37,128.927 443.7,127.773 443.701,126.514 L443.701,114.206 C443.701,112.45 442.339,111.027 440.658,111.027 C438.978,111.027 437.616,112.45 437.616,114.206 L437.616,126.51 C437.612,130.141 439.546,133.474 442.632,135.15 L460.902,144.95 C463.466,146.342 466.534,146.342 469.111,144.942 L487.354,135.157 C490.453,133.474 492.388,130.141 492.385,126.507 L492.385,114.206 C492.385,112.45 491.022,111.027 489.342,111.027 C487.661,111.027 486.299,112.45 486.299,114.206 Z" />
            <path d="M493.882,115.161 C496.68,113.509 498.409,110.41 498.409,107.053 C498.409,103.695 496.68,100.597 493.882,98.944 L456.85,77.1 C454.394,75.63 451.356,75.63 448.883,77.11 L436.12,84.635 C433.32,86.289 431.591,89.387 431.591,92.745 C431.591,96.103 433.32,99.201 436.118,100.854 L473.183,122.667 C475.634,124.139 478.677,124.139 481.151,122.654 L493.878,115.164 Z M490.891,109.624 L478.142,117.127 C477.523,117.499 476.789,117.499 476.192,117.14 L439.109,95.316 C438.225,94.795 437.676,93.811 437.676,92.745 C437.676,91.679 438.225,90.696 439.113,90.172 L451.89,82.638 C452.507,82.269 453.243,82.269 453.842,82.628 L490.889,104.48 C491.775,105.003 492.324,105.987 492.324,107.053 C492.324,108.118 491.775,109.102 490.887,109.626 Z" />
        </g>
        <g id="Black-M" transform="translate(0,200)">
            <path d="M668.043,142.821 L668.043,114.206 C668.043,112.45 666.68,111.027 665,111.027 C663.32,111.027 661.957,112.45 661.957,114.206 L661.957,142.821 C661.957,144.577 663.32,146 665,146 C666.68,146 668.043,144.577 668.043,142.821 Z" />
            <path d="M676.13,82.676 C676.749,82.314 677.502,82.314 678.12,82.676 L690.894,90.176 C691.775,90.696 692.324,91.679 692.324,92.745 C692.324,93.811 691.775,94.795 690.887,95.319 L653.831,117.127 C653.205,117.5 652.454,117.5 651.842,117.136 L639.111,109.625 C638.225,109.102 637.676,108.118 637.676,107.053 C637.676,105.987 638.225,105.003 639.113,104.479 L676.14,82.67 Z M673.151,77.131 L636.121,98.942 C633.32,100.597 631.591,103.695 631.591,107.053 C631.591,110.41 633.32,113.509 636.118,115.161 L648.838,122.666 C651.307,124.138 654.351,124.138 656.832,122.659 L693.878,100.857 C696.68,99.201 698.409,96.103 698.409,92.745 C698.409,89.387 696.68,86.289 693.882,84.636 L681.096,77.129 C678.626,75.686 675.624,75.686 673.16,77.126 Z" />
            <path d="M686.299,114.206 L686.299,126.51 C686.3,127.773 685.63,128.927 684.561,129.508 L666.318,139.293 C665.487,139.744 664.513,139.744 663.695,139.3 L645.425,129.5 C644.37,128.927 643.7,127.773 643.701,126.514 L643.701,114.206 C643.701,112.45 642.339,111.027 640.658,111.027 C638.978,111.027 637.615,112.45 637.615,114.206 L637.615,126.51 C637.612,130.141 639.546,133.474 642.632,135.15 L660.902,144.95 C663.466,146.342 666.534,146.342 669.111,144.942 L687.354,135.157 C690.453,133.474 692.388,130.141 692.384,126.507 L692.384,114.206 C692.384,112.45 691.022,111.027 689.342,111.027 C687.661,111.027 686.299,112.45 686.299,114.206 Z" />
            <path d="M693.882,115.161 C696.68,113.509 698.409,110.41 698.409,107.053 C698.409,103.695 696.68,100.597 693.882,98.944 L656.85,77.1 C654.394,75.63 651.356,75.63 648.883,77.11 L636.12,84.635 C633.32,86.289 631.591,89.387 631.591,92.745 C631.591,96.103 633.32,99.201 636.118,100.854 L673.183,122.667 C675.634,124.139 678.677,124.139 681.151,122.654 L693.878,115.164 Z M690.891,109.624 L678.142,117.127 C677.523,117.499 676.789,117.499 676.192,117.14 L639.109,95.316 C638.225,94.795 637.676,93.811 637.676,92.745 C637.676,91.679 638.225,90.696 639.113,90.172 L651.89,82.638 C652.506,82.269 653.243,82.269 653.842,82.628 L690.889,104.48 C691.775,105.003 692.324,105.987 692.324,107.053 C692.324,108.118 691.775,109.102 690.887,109.626 Z" />
        </g>
    </g>
</svg>