<?xml version="1.0" encoding="UTF-8"?>
<svg height="600" width="800" xmlns="http://www.w3.org/2000/svg" xmlns:xlink="http://www.w3.org/1999/xlink">
    <g id="Notes" font-family="LucidaGrande, 'Lucida Grande', sans-serif" font-size="13">
        <rect fill="white" height="600.0" width="800.0" x="0.0" y="0.0" />
        <g font-size="13">
            <text x="18.0" y="176.0">Small</text>
            <text x="18.0" y="376.0">Medium</text>
            <text x="18.0" y="576.0">Large</text>
        </g>
        <g font-size="9">
            <text x="250.0" y="30.0">Ultralight</text>
            <text x="450.0" y="30.0">Regular</text>
            <text x="650.0" y="30.0">Black</text>
            <text id="template-version" fill="#505050" text-anchor="end" x="785.0" y="575.0">Template v.3.0</text>
            <a href="https://github.com/swhitty/SwiftDraw">
                <text fill="#505050" text-anchor="end" x="785.0" y="590.0">https://github.com/swhitty/SwiftDraw</text>
            </a>
        </g>
    </g>
    <g id="Guides" stroke="rgb(39, 170, 225)" stroke-width="0.5">
        <path id="Capline-S" d="M18,76 l800,0" />
        <path id="H-reference" d="M85,145.755 L87.685,145.755 L113.369,79.287 L114.052,79.287 L114.052,76 L112.148,76 L85,145.755 Z M95.693,121.536 L130.996,121.536 L130.263,119.313 L96.474,119.313 L95.693,121.536 Z M139.15,145.755 L141.787,145.755 L114.638,76 L113.466,76 L113.466,79.287 L139.15,145.755 Z" stroke="none" transform="translate(0,200)" />
        <path id="Baseline-S" d="M18,146 l800,0" />
        <path id="left-margin-Ultralight-M" d="M230,256 l0,110" />
        <path id="right-margin-Ultralight-M" d="M300,256 l0,110" />
        <path id="left-margin-Regular-M" d="M430,256 l0,110" />
        <path id="right-margin-Regular-M" d="M500,256 l0,110" />
        <path id="left-margin-Black-M" d="M630,256 l0,110" />
        <path id="right-margin-Black-M" d="M700,256 l0,110" />
        <path id="Capline-M" d="M18,276 l800,0" />
        <path id="Baseline-M" d="M18,346 l800,0" />
        <path id="Capline-L" d="M18,476 l800,0" />
        <path id="Baseline-L" d="M18,546 l800,0" />
    </g>
    <g id="Symbols">
        <g id="Ultralight-M" transform="translate(0,200)">
            <path d="M266.667,142.818 L266.667,110.997 C266.667,109.239 265.174,107.815 263.333,107.815 C261.492,107.815 260,109.239 260,110.997 L260,142.818 C260,144.575 261.492,146 263.333,146 C265.174,146 266.667,144.575 266.667,142.818 Z" />
            <path d="M288.543,133.199 L294.31,138.704 C295.611,139.946 297.722,139.946 299.024,138.704 C300.325,137.461 300.325,135.446 299.024,134.204 L293.257,128.699 C291.955,127.456 289.845,127.456 288.543,128.699 C287.241,129.941 287.241,131.956 288.543,133.199 Z" />
            <path d="M296.667,106.217 L296.667,98.268 C296.663,94.858 294.757,91.711 291.667,90.007 L268.32,77.272 C265.239,75.574 261.427,75.574 258.333,77.279 L235.013,90 C231.909,91.711 230.004,94.858 230,98.265 L230,123.725 C230.006,127.136 231.911,130.28 235,131.983 L258.346,144.718 C261.425,146.417 265.237,146.419 268.332,144.715 L271.585,142.944 C273.184,142.073 273.741,140.13 272.829,138.603 C271.917,137.077 269.881,136.545 268.282,137.416 L265.015,139.195 C263.97,139.77 262.699,139.77 261.668,139.201 L238.321,126.464 C237.304,125.904 236.669,124.856 236.667,123.72 L236.667,98.268 C236.668,97.136 237.303,96.087 238.333,95.519 L261.654,82.798 C262.698,82.222 263.969,82.222 265,82.791 L288.346,95.526 C289.364,96.087 289.999,97.136 290,98.272 L290,106.217 C290,107.975 291.492,109.399 293.333,109.399 C295.174,109.399 296.667,107.975 296.667,106.217 Z" />
            <path d="M232.64,97.846 L261.674,113.756 C262.702,114.32 263.965,114.32 264.993,113.756 L294.026,97.846 C295.623,96.971 296.174,95.026 295.258,93.502 C294.341,91.978 292.304,91.451 290.707,92.326 L261.674,108.237 L264.993,108.237 L235.96,92.326 C234.363,91.451 232.326,91.978 231.409,93.502 C230.493,95.026 231.044,96.971 232.64,97.846 Z" />
            <path d="M246.678,89.161 L276.668,105.542 C278.266,106.415 280.302,105.886 281.217,104.361 C282.131,102.835 281.577,100.891 279.979,100.019 L249.989,83.637 C248.391,82.764 246.354,83.293 245.44,84.819 C244.526,86.344 245.08,88.288 246.678,89.161 Z" />
            <path d="M280,125.316 C280,122.68 282.239,120.543 285,120.543 C287.761,120.543 290,122.68 290,125.316 C290,127.952 287.761,130.089 285,130.089 C282.239,130.089 280,127.952 280,125.316 Z M273.333,125.316 C273.333,131.467 278.557,136.454 285,136.454 C291.443,136.454 296.667,131.467 296.667,125.316 C296.667,119.165 291.443,114.179 285,114.179 C278.557,114.179 273.333,119.165 273.333,125.316 Z" />
        </g>
        <g id="Regular-M" transform="translate(0,200)">
            <path d="M466.667,142.818 L466.667,110.997 C466.667,109.239 465.174,107.815 463.333,107.815 C461.492,107.815 460,109.239 460,110.997 L460,142.818 C460,144.575 461.492,146 463.333,146 C465.174,146 466.667,144.575 466.667,142.818 Z" />
            <path d="M488.543,133.199 L494.31,138.704 C495.611,139.946 497.722,139.946 499.024,138.704 C500.325,137.461 500.325,135.446 499.024,134.204 L493.257,128.699 C491.955,127.456 489.845,127.456 488.543,128.699 C487.241,129.941 487.241,131.956 488.543,133.199 Z" />
            <path d="M496.667,106.217 L496.667,98.268 C496.663,94.858 494.757,91.711 491.667,90.007 L468.32,77.272 C465.239,75.574 461.427,75.574 458.333,77.279 L435.013,90 C431.909,91.711 430.004,94.858 430,98.265 L430,123.725 C430.006,127.136 431.911,130.28 435,131.983 L458.346,144.718 C461.425,146.417 465.237,146.419 468.332,144.715 L471.585,142.944 C473.184,142.073 473.741,140.13 472.829,138.603 C471.917,137.077 469.881,136.545 468.282,137.416 L465.015,139.195 C463.97,139.77 462.699,139.77 461.668,139.201 L438.321,126.464 C437.304,125.904 436.668,124.856 436.667,123.72 L436.667,98.268 C436.668,97.136 437.303,96.087 438.333,95.519 L461.654,82.798 C462.698,82.222 463.969,82.222 465,82.791 L488.346,95.526 C489.364,96.087 489.999,97.136 490,98.272 L490,106.217 C490,107.975 491.492,109.399 493.333,109.399 C495.174,109.399 496.667,107.975 496.667,106.217 Z" />
            <path d="M432.64,97.846 L461.674,113.756 C462.702,114.32 463.965,114.32 464.993,113.756 L494.026,97.846 C495.623,96.971 496.174,95.026 495.258,93.502 C494.341,91.978 492.304,91.451 490.707,92.326 L461.674,108.237 L464.993,108.237 L435.96,92.326 C434.363,91.451 432.326,91.978 431.409,93.502 C430.493,95.026 431.044,96.971 432.64,97.846 Z" />
            <path d="M446.678,89.161 L476.668,105.542 C478.266,106.415 480.302,105.886 481.217,104.361 C482.131,102.835 481.577,100.891 479.979,100.019 L449.989,83.637 C448.391,82.764 446.354,83.293 445.44,84.819 C444.526,86.344 445.08,88.288 446.678,89.161 Z" />
            <path d="M480,125.316 C480,122.68 482.239,120.543 485,120.543 C487.761,120.543 490,122.68 490,125.316 C490,127.952 487.761,130.089 485,130.089 C482.239,130.089 480,127.952 480,125.316 Z M473.333,125.316 C473.333,131.467 478.557,136.454 485,136.454 C491.443,136.454 496.667,131.467 496.667,125.316 C496.667,119.165 491.443,114.179 485,114.179 C478.557,114.179 473.333,119.165 473.333,125.316 Z" />
        </g>
        <g id="Black-M" transform="translate(0,200)">
            <path d="M666.667,142.818 L666.667,110.997 C666.667,109.239 665.174,107.815 663.333,107.815 C661.492,107.815 660,109.239 660,110.997 L660,142.818 C660,144.575 661.492,146 663.333,146 C665.174,146 666.667,144.575 666.667,142.818 Z" />
            <path d="M688.543,133.199 L694.31,138.704 C695.611,139.946 697.722,139.946 699.024,138.704 C700.325,137.461 700.325,135.446 699.024,134.204 L693.257,128.699 C691.955,127.456 689.845,127.456 688.543,128.699 C687.241,129.941 687.241,131.956 688.543,133.199 Z" />
            <path d="M696.667,106.217 L696.667,98.268 C696.663,94.858 694.757,91.711 691.667,90.007 L668.32,77.272 C665.239,75.574 661.427,75.574 658.333,77.279 L635.013,90 C631.909,91.711 630.004,94.858 630,98.265 L630,123.725 C630.005,127.136 631.911,130.28 635,131.983 L658.346,144.718 C661.425,146.417 665.237,146.419 668.332,144.715 L671.585,142.944 C673.184,142.073 673.741,140.13 672.829,138.603 C671.917,137.077 669.881,136.545 668.282,137.416 L665.015,139.195 C663.97,139.77 662.699,139.77 661.668,139.201 L638.321,126.464 C637.304,125.904 636.669,124.856 636.667,123.72 L636.667,98.268 C636.668,97.136 637.303,96.087 638.333,95.519 L661.654,82.798 C662.698,82.222 663.969,82.222 665,82.791 L688.346,95.526 C689.364,96.087 689.999,97.136 690,98.272 L690,106.217 C690,107.975 691.492,109.399 693.333,109.399 C695.174,109.399 696.667,107.975 696.667,106.217 Z" />
            <path d="M632.641,97.846 L661.674,113.756 C662.702,114.32 663.965,114.32 664.993,113.756 L694.026,97.846 C695.623,96.971 696.174,95.026 695.258,93.502 C694.341,91.978 692.304,91.451 690.707,92.326 L661.674,108.237 L664.993,108.237 L635.96,92.326 C634.363,91.451 632.326,91.978 631.409,93.502 C630.493,95.026 631.044,96.971 632.641,97.846 Z" />
            <path d="M646.678,89.161 L676.668,105.542 C678.266,106.415 680.302,105.886 681.217,104.361 C682.131,102.835 681.577,100.891 679.979,100.019 L649.989,83.637 C648.391,82.764 646.354,83.293 645.44,84.819 C644.526,86.344 645.08,88.288 646.678,89.161 Z" />
            <path d="M680,125.316 C680,122.68 682.239,120.543 685,120.543 C687.761,120.543 690,122.68 690,125.316 C690,127.952 687.761,130.089 685,130.089 C682.239,130.089 680,127.952 680,125.316 Z M673.333,125.316 C673.333,131.467 678.557,136.454 685,136.454 C691.443,136.454 696.667,131.467 696.667,125.316 C696.667,119.165 691.443,114.179 685,114.179 C678.557,114.179 673.333,119.165 673.333,125.316 Z" />
        </g>
    </g>
</svg>