<?xml version="1.0" encoding="UTF-8"?>
<svg height="600" width="800" xmlns="http://www.w3.org/2000/svg" xmlns:xlink="http://www.w3.org/1999/xlink">
    <g id="Notes" font-family="LucidaGrande, 'Lucida Grande', sans-serif" font-size="13">
        <rect fill="white" height="600.0" width="800.0" x="0.0" y="0.0" />
        <g font-size="13">
            <text x="18.0" y="176.0">Small</text>
            <text x="18.0" y="376.0">Medium</text>
            <text x="18.0" y="576.0">Large</text>
        </g>
        <g font-size="9">
            <text x="250.0" y="30.0">Ultralight</text>
            <text x="450.0" y="30.0">Regular</text>
            <text x="650.0" y="30.0">Black</text>
            <text id="template-version" fill="#505050" text-anchor="end" x="785.0" y="575.0">Template v.3.0</text>
            <a href="https://github.com/swhitty/SwiftDraw">
                <text fill="#505050" text-anchor="end" x="785.0" y="590.0">https://github.com/swhitty/SwiftDraw</text>
            </a>
        </g>
    </g>
    <g id="Guides" stroke="rgb(39, 170, 225)" stroke-width="0.5">
        <path id="Capline-S" d="M18,76 l800,0" />
        <path id="H-reference" d="M85,145.755 L87.685,145.755 L113.369,79.287 L114.052,79.287 L114.052,76 L112.148,76 L85,145.755 Z M95.693,121.536 L130.996,121.536 L130.263,119.313 L96.474,119.313 L95.693,121.536 Z M139.15,145.755 L141.787,145.755 L114.638,76 L113.466,76 L113.466,79.287 L139.15,145.755 Z" stroke="none" transform="translate(0,200)" />
        <path id="Baseline-S" d="M18,146 l800,0" />
        <path id="left-margin-Ultralight-M" d="M231.667,256 l0,110" />
        <path id="right-margin-Ultralight-M" d="M298.333,256 l0,110" />
        <path id="left-margin-Regular-M" d="M431.667,256 l0,110" />
        <path id="right-margin-Regular-M" d="M498.333,256 l0,110" />
        <path id="left-margin-Black-M" d="M631.667,256 l0,110" />
        <path id="right-margin-Black-M" d="M698.333,256 l0,110" />
        <path id="Capline-M" d="M18,276 l800,0" />
        <path id="Baseline-M" d="M18,346 l800,0" />
        <path id="Capline-L" d="M18,476 l800,0" />
        <path id="Baseline-L" d="M18,546 l800,0" />
    </g>
    <g id="Symbols">
        <g id="Ultralight-M" transform="translate(0,200)">
            <path d="M260,144.715 C263.094,146.42 266.906,146.42 270,144.715 L293.32,131.993 C296.424,130.283 298.33,127.136 298.333,123.728 L298.333,98.268 C298.33,94.858 296.424,91.711 293.333,90.007 L269.987,77.272 C266.906,75.574 263.094,75.574 260,77.279 L236.679,90 C233.576,91.711 231.67,94.858 231.667,98.265 L231.667,123.725 C231.67,127.136 233.576,130.283 236.667,131.986 L260.013,144.722 Z M263.32,139.196 L239.987,126.467 C238.97,125.907 238.335,124.858 238.333,123.722 L238.333,98.268 C238.335,97.136 238.97,96.087 240,95.519 L263.32,82.798 C264.365,82.222 265.635,82.222 266.667,82.791 L290.013,95.526 C291.03,96.087 291.665,97.136 291.667,98.272 L291.667,123.725 C291.665,124.858 291.03,125.907 290,126.474 L266.68,139.196 C265.635,139.771 264.365,139.771 263.333,139.203 Z" />
            <path d="M268.333,142.818 L268.333,110.997 C268.333,109.239 266.841,107.815 265,107.815 C263.159,107.815 261.667,109.239 261.667,110.997 L261.667,142.818 C261.667,144.575 263.159,146 265,146 C266.841,146 268.333,144.575 268.333,142.818 Z" />
            <path d="M234.307,97.846 L263.34,113.756 C264.368,114.32 265.632,114.32 266.66,113.756 L295.693,97.846 C297.289,96.971 297.841,95.026 296.924,93.502 C296.008,91.978 293.97,91.451 292.374,92.326 L263.34,108.237 L266.66,108.237 L237.626,92.326 C236.03,91.451 233.992,91.978 233.076,93.502 C232.159,95.026 232.711,96.971 234.307,97.846 Z" />
            <path d="M248.344,89.161 L278.344,105.549 C279.942,106.422 281.979,105.893 282.893,104.367 C283.807,102.842 283.253,100.898 281.656,100.025 L251.656,83.637 C250.058,82.764 248.021,83.293 247.107,84.819 C246.193,86.344 246.747,88.288 248.344,89.161 Z" />
        </g>
        <g id="Regular-M" transform="translate(0,200)">
            <path d="M460,144.715 C463.094,146.42 466.906,146.42 470,144.715 L493.32,131.993 C496.424,130.283 498.33,127.136 498.333,123.728 L498.333,98.268 C498.33,94.858 496.424,91.711 493.333,90.007 L469.987,77.272 C466.906,75.574 463.094,75.574 460,77.279 L436.679,90 C433.576,91.711 431.67,94.858 431.667,98.265 L431.667,123.725 C431.67,127.136 433.576,130.283 436.667,131.986 L460.013,144.722 Z M463.32,139.196 L439.987,126.467 C438.97,125.907 438.335,124.858 438.333,123.722 L438.333,98.268 C438.335,97.136 438.97,96.087 440,95.519 L463.32,82.798 C464.365,82.222 465.635,82.222 466.667,82.791 L490.013,95.526 C491.03,96.087 491.665,97.136 491.667,98.272 L491.667,123.725 C491.665,124.858 491.03,125.907 490,126.474 L466.68,139.196 C465.635,139.771 464.365,139.771 463.333,139.203 Z" />
            <path d="M468.333,142.818 L468.333,110.997 C468.333,109.239 466.841,107.815 465,107.815 C463.159,107.815 461.667,109.239 461.667,110.997 L461.667,142.818 C461.667,144.575 463.159,146 465,146 C466.841,146 468.333,144.575 468.333,142.818 Z" />
            <path d="M434.307,97.846 L463.34,113.756 C464.368,114.32 465.632,114.32 466.659,113.756 L495.693,97.846 C497.289,96.971 497.841,95.026 496.924,93.502 C496.008,91.978 493.97,91.451 492.374,92.326 L463.34,108.237 L466.659,108.237 L437.626,92.326 C436.03,91.451 433.992,91.978 433.076,93.502 C432.159,95.026 432.711,96.971 434.307,97.846 Z" />
            <path d="M448.344,89.161 L478.344,105.549 C479.942,106.422 481.979,105.893 482.893,104.367 C483.807,102.842 483.253,100.898 481.656,100.025 L451.656,83.637 C450.058,82.764 448.021,83.293 447.107,84.819 C446.193,86.344 446.747,88.288 448.344,89.161 Z" />
        </g>
        <g id="Black-M" transform="translate(0,200)">
            <path d="M660,144.715 C663.094,146.42 666.906,146.42 670,144.715 L693.32,131.993 C696.424,130.283 698.33,127.136 698.333,123.728 L698.333,98.268 C698.33,94.858 696.424,91.711 693.333,90.007 L669.987,77.272 C666.906,75.574 663.094,75.574 660,77.279 L636.68,90 C633.576,91.711 631.67,94.858 631.667,98.265 L631.667,123.725 C631.67,127.136 633.576,130.283 636.667,131.986 L660.013,144.722 Z M663.32,139.196 L639.987,126.467 C638.97,125.907 638.335,124.858 638.333,123.722 L638.333,98.268 C638.335,97.136 638.97,96.087 640,95.519 L663.32,82.798 C664.365,82.222 665.635,82.222 666.667,82.791 L690.013,95.526 C691.03,96.087 691.665,97.136 691.667,98.272 L691.667,123.725 C691.665,124.858 691.03,125.907 690,126.474 L666.68,139.196 C665.635,139.771 664.365,139.771 663.333,139.203 Z" />
            <path d="M668.333,142.818 L668.333,110.997 C668.333,109.239 666.841,107.815 665,107.815 C663.159,107.815 661.667,109.239 661.667,110.997 L661.667,142.818 C661.667,144.575 663.159,146 665,146 C666.841,146 668.333,144.575 668.333,142.818 Z" />
            <path d="M634.307,97.846 L663.341,113.756 C664.368,114.32 665.632,114.32 666.66,113.756 L695.693,97.846 C697.289,96.971 697.841,95.026 696.924,93.502 C696.008,91.978 693.97,91.451 692.374,92.326 L663.341,108.237 L666.66,108.237 L637.626,92.326 C636.03,91.451 633.992,91.978 633.076,93.502 C632.159,95.026 632.711,96.971 634.307,97.846 Z" />
            <path d="M648.344,89.161 L678.344,105.549 C679.942,106.422 681.979,105.893 682.893,104.367 C683.807,102.842 683.253,100.898 681.656,100.025 L651.656,83.637 C650.058,82.764 648.021,83.293 647.107,84.819 C646.193,86.344 646.747,88.288 648.344,89.161 Z" />
        </g>
    </g>
</svg>