<?xml version="1.0" encoding="UTF-8"?>
<svg height="600" width="800" xmlns="http://www.w3.org/2000/svg" xmlns:xlink="http://www.w3.org/1999/xlink">
    <g id="Notes" font-family="LucidaGrande, 'Lucida Grande', sans-serif" font-size="13">
        <rect fill="white" height="600.0" width="800.0" x="0.0" y="0.0" />
        <g font-size="13">
            <text x="18.0" y="176.0">Small</text>
            <text x="18.0" y="376.0">Medium</text>
            <text x="18.0" y="576.0">Large</text>
        </g>
        <g font-size="9">
            <text x="250.0" y="30.0">Ultralight</text>
            <text x="450.0" y="30.0">Regular</text>
            <text x="650.0" y="30.0">Black</text>
            <text id="template-version" fill="#505050" text-anchor="end" x="785.0" y="575.0">Template v.3.0</text>
            <a href="https://github.com/swhitty/SwiftDraw">
                <text fill="#505050" text-anchor="end" x="785.0" y="590.0">https://github.com/swhitty/SwiftDraw</text>
            </a>
        </g>
    </g>
    <g id="Guides" stroke="rgb(39, 170, 225)" stroke-width="0.5">
        <path id="Capline-S" d="M18,76 l800,0" />
        <path id="H-reference" d="M85,145.755 L87.685,145.755 L113.369,79.287 L114.052,79.287 L114.052,76 L112.148,76 L85,145.755 Z M95.693,121.536 L130.996,121.536 L130.263,119.313 L96.474,119.313 L95.693,121.536 Z M139.15,145.755 L141.787,145.755 L114.638,76 L113.466,76 L113.466,79.287 L139.15,145.755 Z" stroke="none" transform="translate(0,200)" />
        <path id="Baseline-S" d="M18,146 l800,0" />
        <path id="left-margin-Ultralight-M" d="M230,256 l0,110" />
        <path id="right-margin-Ultralight-M" d="M300,256 l0,110" />
        <path id="left-margin-Regular-M" d="M430,256 l0,110" />
        <path id="right-margin-Regular-M" d="M500,256 l0,110" />
        <path id="left-margin-Black-M" d="M630,256 l0,110" />
        <path id="right-margin-Black-M" d="M700,256 l0,110" />
        <path id="Capline-M" d="M18,276 l800,0" />
        <path id="Baseline-M" d="M18,346 l800,0" />
        <path id="Capline-L" d="M18,476 l800,0" />
        <path id="Baseline-L" d="M18,546 l800,0" />
    </g>
    <g id="Symbols">
        <g id="Ultralight-M" transform="translate(0,200)">
            <path d="M265,139.636 C249.185,139.636 236.364,126.815 236.364,111 C236.364,95.185 249.185,82.364 265,82.364 C272.663,82.364 279.996,85.097 285.37,89.934 C290.677,94.71 293.636,101.14 293.636,107.818 C293.636,111.194 292.295,114.431 289.909,116.818 C287.522,119.205 284.285,120.545 280.909,120.545 L273.75,120.545 C270.436,120.545 267.406,122.418 265.924,125.382 C264.442,128.347 264.761,131.894 266.75,134.545 L267.705,135.818 C268.247,136.541 268.334,137.509 267.93,138.317 C267.526,139.126 266.699,139.636 265.795,139.636 L265,139.636 Z M265,146 L265.795,146 C269.11,146 272.14,144.127 273.622,141.163 C275.104,138.199 274.784,134.651 272.795,132 L271.841,130.727 C271.299,130.004 271.211,129.037 271.616,128.228 C272.02,127.42 272.846,126.909 273.75,126.909 L280.909,126.909 C285.972,126.909 290.828,124.898 294.408,121.317 C297.989,117.737 300,112.881 300,107.818 C300,99.307 296.255,91.169 289.627,85.204 C283.068,79.301 274.214,76 265,76 C245.67,76 230,91.67 230,111 C230,130.33 245.67,146 265,146 Z" />
            <path d="M271.364,93.5 C271.364,94.379 270.651,95.091 269.773,95.091 C268.894,95.091 268.182,94.379 268.182,93.5 C268.182,92.621 268.894,91.909 269.773,91.909 C270.651,91.909 271.364,92.621 271.364,93.5 Z M265,93.5 C265,96.136 267.137,98.273 269.773,98.273 C272.409,98.273 274.545,96.136 274.545,93.5 C274.545,90.864 272.409,88.727 269.773,88.727 C267.137,88.727 265,90.864 265,93.5 Z" />
            <path d="M284.091,106.227 C284.091,107.106 283.379,107.818 282.5,107.818 C281.621,107.818 280.909,107.106 280.909,106.227 C280.909,105.349 281.621,104.636 282.5,104.636 C283.379,104.636 284.091,105.349 284.091,106.227 Z M277.727,106.227 C277.727,108.863 279.864,111 282.5,111 C285.136,111 287.273,108.863 287.273,106.227 C287.273,103.591 285.136,101.455 282.5,101.455 C279.864,101.455 277.727,103.591 277.727,106.227 Z" />
            <path d="M249.091,112.591 C249.091,113.47 248.379,114.182 247.5,114.182 C246.621,114.182 245.909,113.47 245.909,112.591 C245.909,111.712 246.621,111 247.5,111 C248.379,111 249.091,111.712 249.091,112.591 Z M242.727,112.591 C242.727,115.227 244.864,117.364 247.5,117.364 C250.136,117.364 252.273,115.227 252.273,112.591 C252.273,109.955 250.136,107.818 247.5,107.818 C244.864,107.818 242.727,109.955 242.727,112.591 Z" />
            <path d="M255.455,96.682 C255.455,97.56 254.742,98.273 253.864,98.273 C252.985,98.273 252.273,97.56 252.273,96.682 C252.273,95.803 252.985,95.091 253.864,95.091 C254.742,95.091 255.455,95.803 255.455,96.682 Z M249.091,96.682 C249.091,99.318 251.228,101.455 253.864,101.455 C256.5,101.455 258.636,99.318 258.636,96.682 C258.636,94.046 256.5,91.909 253.864,91.909 C251.228,91.909 249.091,94.046 249.091,96.682 Z" />
        </g>
        <g id="Regular-M" transform="translate(0,200)">
            <path d="M465,139.636 C449.185,139.636 436.364,126.815 436.364,111 C436.364,95.185 449.185,82.364 465,82.364 C472.663,82.364 479.996,85.097 485.37,89.934 C490.677,94.71 493.636,101.14 493.636,107.818 C493.636,111.194 492.295,114.431 489.909,116.818 C487.522,119.205 484.285,120.545 480.909,120.545 L473.75,120.545 C470.436,120.545 467.406,122.418 465.924,125.382 C464.442,128.347 464.761,131.894 466.75,134.545 L467.705,135.818 C468.247,136.541 468.334,137.509 467.93,138.317 C467.526,139.126 466.699,139.636 465.795,139.636 L465,139.636 Z M465,146 L465.795,146 C469.11,146 472.14,144.127 473.622,141.163 C475.104,138.199 474.784,134.651 472.795,132 L471.841,130.727 C471.299,130.004 471.211,129.037 471.616,128.228 C472.02,127.42 472.846,126.909 473.75,126.909 L480.909,126.909 C485.972,126.909 490.828,124.898 494.408,121.317 C497.989,117.737 500,112.881 500,107.818 C500,99.307 496.255,91.169 489.627,85.204 C483.068,79.301 474.214,76 465,76 C445.67,76 430,91.67 430,111 C430,130.33 445.67,146 465,146 Z" />
            <path d="M471.364,93.5 C471.364,94.379 470.651,95.091 469.773,95.091 C468.894,95.091 468.182,94.379 468.182,93.5 C468.182,92.621 468.894,91.909 469.773,91.909 C470.651,91.909 471.364,92.621 471.364,93.5 Z M465,93.5 C465,96.136 467.137,98.273 469.773,98.273 C472.409,98.273 474.545,96.136 474.545,93.5 C474.545,90.864 472.409,88.727 469.773,88.727 C467.137,88.727 465,90.864 465,93.5 Z" />
            <path d="M484.091,106.227 C484.091,107.106 483.379,107.818 482.5,107.818 C481.621,107.818 480.909,107.106 480.909,106.227 C480.909,105.349 481.621,104.636 482.5,104.636 C483.379,104.636 484.091,105.349 484.091,106.227 Z M477.727,106.227 C477.727,108.863 479.864,111 482.5,111 C485.136,111 487.273,108.863 487.273,106.227 C487.273,103.591 485.136,101.455 482.5,101.455 C479.864,101.455 477.727,103.591 477.727,106.227 Z" />
            <path d="M449.091,112.591 C449.091,113.47 448.379,114.182 447.5,114.182 C446.621,114.182 445.909,113.47 445.909,112.591 C445.909,111.712 446.621,111 447.5,111 C448.379,111 449.091,111.712 449.091,112.591 Z M442.727,112.591 C442.727,115.227 444.864,117.364 447.5,117.364 C450.136,117.364 452.273,115.227 452.273,112.591 C452.273,109.955 450.136,107.818 447.5,107.818 C444.864,107.818 442.727,109.955 442.727,112.591 Z" />
            <path d="M455.455,96.682 C455.455,97.56 454.742,98.273 453.864,98.273 C452.985,98.273 452.273,97.56 452.273,96.682 C452.273,95.803 452.985,95.091 453.864,95.091 C454.742,95.091 455.455,95.803 455.455,96.682 Z M449.091,96.682 C449.091,99.318 451.228,101.455 453.864,101.455 C456.5,101.455 458.636,99.318 458.636,96.682 C458.636,94.046 456.5,91.909 453.864,91.909 C451.228,91.909 449.091,94.046 449.091,96.682 Z" />
        </g>
        <g id="Black-M" transform="translate(0,200)">
            <path d="M665,139.636 C649.185,139.636 636.364,126.815 636.364,111 C636.364,95.185 649.185,82.364 665,82.364 C672.663,82.364 679.996,85.097 685.37,89.934 C690.677,94.71 693.636,101.14 693.636,107.818 C693.636,111.194 692.295,114.431 689.909,116.818 C687.522,119.205 684.285,120.545 680.909,120.545 L673.75,120.545 C670.436,120.545 667.406,122.418 665.924,125.382 C664.442,128.347 664.761,131.894 666.75,134.545 L667.705,135.818 C668.247,136.541 668.334,137.509 667.93,138.317 C667.526,139.126 666.699,139.636 665.795,139.636 L665,139.636 Z M665,146 L665.795,146 C669.11,146 672.14,144.127 673.622,141.163 C675.104,138.199 674.784,134.651 672.795,132 L671.841,130.727 C671.299,130.004 671.211,129.037 671.616,128.228 C672.02,127.42 672.846,126.909 673.75,126.909 L680.909,126.909 C685.972,126.909 690.828,124.898 694.408,121.317 C697.989,117.737 700,112.881 700,107.818 C700,99.307 696.255,91.169 689.627,85.204 C683.068,79.301 674.214,76 665,76 C645.67,76 630,91.67 630,111 C630,130.33 645.67,146 665,146 Z" />
            <path d="M671.364,93.5 C671.364,94.379 670.651,95.091 669.773,95.091 C668.894,95.091 668.182,94.379 668.182,93.5 C668.182,92.621 668.894,91.909 669.773,91.909 C670.651,91.909 671.364,92.621 671.364,93.5 Z M665,93.5 C665,96.136 667.137,98.273 669.773,98.273 C672.409,98.273 674.545,96.136 674.545,93.5 C674.545,90.864 672.409,88.727 669.773,88.727 C667.137,88.727 665,90.864 665,93.5 Z" />
            <path d="M684.091,106.227 C684.091,107.106 683.379,107.818 682.5,107.818 C681.621,107.818 680.909,107.106 680.909,106.227 C680.909,105.349 681.621,104.636 682.5,104.636 C683.379,104.636 684.091,105.349 684.091,106.227 Z M677.727,106.227 C677.727,108.863 679.864,111 682.5,111 C685.136,111 687.273,108.863 687.273,106.227 C687.273,103.591 685.136,101.455 682.5,101.455 C679.864,101.455 677.727,103.591 677.727,106.227 Z" />
            <path d="M649.091,112.591 C649.091,113.47 648.379,114.182 647.5,114.182 C646.621,114.182 645.909,113.47 645.909,112.591 C645.909,111.712 646.621,111 647.5,111 C648.379,111 649.091,111.712 649.091,112.591 Z M642.727,112.591 C642.727,115.227 644.864,117.364 647.5,117.364 C650.136,117.364 652.273,115.227 652.273,112.591 C652.273,109.955 650.136,107.818 647.5,107.818 C644.864,107.818 642.727,109.955 642.727,112.591 Z" />
            <path d="M655.455,96.682 C655.455,97.56 654.742,98.273 653.864,98.273 C652.985,98.273 652.273,97.56 652.273,96.682 C652.273,95.803 652.985,95.091 653.864,95.091 C654.742,95.091 655.455,95.803 655.455,96.682 Z M649.091,96.682 C649.091,99.318 651.228,101.455 653.864,101.455 C656.5,101.455 658.636,99.318 658.636,96.682 C658.636,94.046 656.5,91.909 653.864,91.909 C651.228,91.909 649.091,94.046 649.091,96.682 Z" />
        </g>
    </g>
</svg>