<?xml version="1.0" encoding="UTF-8"?>
<svg height="600" width="800" xmlns="http://www.w3.org/2000/svg" xmlns:xlink="http://www.w3.org/1999/xlink">
    <g id="Notes" font-family="LucidaGrande, 'Lucida Grande', sans-serif" font-size="13">
        <rect fill="white" height="600.0" width="800.0" x="0.0" y="0.0" />
        <g font-size="13">
            <text x="18.0" y="176.0">Small</text>
            <text x="18.0" y="376.0">Medium</text>
            <text x="18.0" y="576.0">Large</text>
        </g>
        <g font-size="9">
            <text x="250.0" y="30.0">Ultralight</text>
            <text x="450.0" y="30.0">Regular</text>
            <text x="650.0" y="30.0">Black</text>
            <text id="template-version" fill="#505050" text-anchor="end" x="785.0" y="575.0">Template v.3.0</text>
            <a href="https://github.com/swhitty/SwiftDraw">
                <text fill="#505050" text-anchor="end" x="785.0" y="590.0">https://github.com/swhitty/SwiftDraw</text>
            </a>
        </g>
    </g>
    <g id="Guides" stroke="rgb(39, 170, 225)" stroke-width="0.5">
        <path id="Capline-S" d="M18,76 l800,0" />
        <path id="H-reference" d="M85,145.755 L87.685,145.755 L113.369,79.287 L114.052,79.287 L114.052,76 L112.148,76 L85,145.755 Z M95.693,121.536 L130.996,121.536 L130.263,119.313 L96.474,119.313 L95.693,121.536 Z M139.15,145.755 L141.787,145.755 L114.638,76 L113.466,76 L113.466,79.287 L139.15,145.755 Z" stroke="none" transform="translate(0,200)" />
        <path id="Baseline-S" d="M18,146 l800,0" />
        <path id="left-margin-Ultralight-M" d="M237.778,256 l0,110" />
        <path id="right-margin-Ultralight-M" d="M292.222,256 l0,110" />
        <path id="left-margin-Regular-M" d="M437.778,256 l0,110" />
        <path id="right-margin-Regular-M" d="M492.222,256 l0,110" />
        <path id="left-margin-Black-M" d="M637.778,256 l0,110" />
        <path id="right-margin-Black-M" d="M692.222,256 l0,110" />
        <path id="Capline-M" d="M18,276 l800,0" />
        <path id="Baseline-M" d="M18,346 l800,0" />
        <path id="Capline-L" d="M18,476 l800,0" />
        <path id="Baseline-L" d="M18,546 l800,0" />
    </g>
    <g id="Symbols">
        <g id="Ultralight-M" transform="translate(0,200)">
            <path d="M265,83.778 C265,83.778 265,83.778 265,83.778 C265,83.778 265,83.778 265,83.778 C265,83.778 265,83.778 265,83.778 C265,83.778 265,83.778 265,83.778 Z M257.222,83.778 C257.222,88.073 260.704,91.556 265,91.556 C269.296,91.556 272.778,88.073 272.778,83.778 C272.778,79.482 269.296,76 265,76 C260.704,76 257.222,79.482 257.222,83.778 Z" />
            <path d="M256.812,143.85 L268.478,120.517 L261.522,120.517 L273.188,143.85 C274.149,145.771 276.485,146.55 278.406,145.589 C280.327,144.629 281.105,142.293 280.145,140.372 L268.478,117.039 C267.045,114.172 262.955,114.172 261.522,117.039 L249.855,140.372 C248.894,142.293 249.673,144.629 251.594,145.589 C253.515,146.55 255.851,145.771 256.812,143.85 Z" />
            <path d="M240.437,99.134 L263.77,106.912 C264.568,107.178 265.432,107.178 266.23,106.912 L289.563,99.134 C291.601,98.455 292.702,96.252 292.023,94.215 C291.343,92.177 289.141,91.076 287.104,91.755 L263.77,99.533 L266.23,99.533 L242.896,91.755 C240.859,91.076 238.657,92.177 237.977,94.215 C237.298,96.252 238.399,98.455 240.437,99.134 Z" />
            <path d="M261.111,103.222 L261.111,118.778 C261.111,120.926 262.852,122.667 265,122.667 C267.148,122.667 268.889,120.926 268.889,118.778 L268.889,103.222 C268.889,101.074 267.148,99.333 265,99.333 C262.852,99.333 261.111,101.074 261.111,103.222 Z" />
        </g>
        <g id="Regular-M" transform="translate(0,200)">
            <path d="M465,83.778 C465,83.778 465,83.778 465,83.778 C465,83.778 465,83.778 465,83.778 C465,83.778 465,83.778 465,83.778 C465,83.778 465,83.778 465,83.778 Z M457.222,83.778 C457.222,88.073 460.704,91.556 465,91.556 C469.296,91.556 472.778,88.073 472.778,83.778 C472.778,79.482 469.296,76 465,76 C460.704,76 457.222,79.482 457.222,83.778 Z" />
            <path d="M456.812,143.85 L468.478,120.517 L461.522,120.517 L473.188,143.85 C474.149,145.771 476.485,146.55 478.406,145.589 C480.327,144.629 481.105,142.293 480.145,140.372 L468.478,117.039 C467.045,114.172 462.955,114.172 461.522,117.039 L449.855,140.372 C448.894,142.293 449.673,144.629 451.594,145.589 C453.515,146.55 455.851,145.771 456.812,143.85 Z" />
            <path d="M440.437,99.134 L463.77,106.912 C464.568,107.178 465.432,107.178 466.23,106.912 L489.563,99.134 C491.601,98.455 492.702,96.252 492.023,94.215 C491.343,92.177 489.141,91.076 487.104,91.755 L463.77,99.533 L466.23,99.533 L442.896,91.755 C440.859,91.076 438.657,92.177 437.977,94.215 C437.298,96.252 438.399,98.455 440.437,99.134 Z" />
            <path d="M461.111,103.222 L461.111,118.778 C461.111,120.926 462.852,122.667 465,122.667 C467.148,122.667 468.889,120.926 468.889,118.778 L468.889,103.222 C468.889,101.074 467.148,99.333 465,99.333 C462.852,99.333 461.111,101.074 461.111,103.222 Z" />
        </g>
        <g id="Black-M" transform="translate(0,200)">
            <path d="M665,83.778 C665,83.778 665,83.778 665,83.778 C665,83.778 665,83.778 665,83.778 C665,83.778 665,83.778 665,83.778 C665,83.778 665,83.778 665,83.778 Z M657.222,83.778 C657.222,88.073 660.704,91.556 665,91.556 C669.296,91.556 672.778,88.073 672.778,83.778 C672.778,79.482 669.296,76 665,76 C660.704,76 657.222,79.482 657.222,83.778 Z" />
            <path d="M656.812,143.85 L668.478,120.517 L661.522,120.517 L673.188,143.85 C674.149,145.771 676.485,146.55 678.406,145.589 C680.327,144.629 681.106,142.293 680.145,140.372 L668.478,117.039 C667.045,114.172 662.955,114.172 661.522,117.039 L649.855,140.372 C648.894,142.293 649.673,144.629 651.594,145.589 C653.515,146.55 655.851,145.771 656.812,143.85 Z" />
            <path d="M640.437,99.134 L663.77,106.912 C664.568,107.178 665.432,107.178 666.23,106.912 L689.563,99.134 C691.601,98.455 692.702,96.252 692.023,94.215 C691.343,92.177 689.141,91.076 687.104,91.755 L663.77,99.533 L666.23,99.533 L642.896,91.755 C640.859,91.076 638.656,92.177 637.977,94.215 C637.298,96.252 638.399,98.455 640.437,99.134 Z" />
            <path d="M661.111,103.222 L661.111,118.778 C661.111,120.926 662.852,122.667 665,122.667 C667.148,122.667 668.889,120.926 668.889,118.778 L668.889,103.222 C668.889,101.074 667.148,99.333 665,99.333 C662.852,99.333 661.111,101.074 661.111,103.222 Z" />
        </g>
    </g>
</svg>