<?xml version="1.0" encoding="UTF-8"?>
<svg height="600" width="800" xmlns="http://www.w3.org/2000/svg" xmlns:xlink="http://www.w3.org/1999/xlink">
    <g id="Notes" font-family="LucidaGrande, 'Lucida Grande', sans-serif" font-size="13">
        <rect fill="white" height="600.0" width="800.0" x="0.0" y="0.0" />
        <g font-size="13">
            <text x="18.0" y="176.0">Small</text>
            <text x="18.0" y="376.0">Medium</text>
            <text x="18.0" y="576.0">Large</text>
        </g>
        <g font-size="9">
            <text x="250.0" y="30.0">Ultralight</text>
            <text x="450.0" y="30.0">Regular</text>
            <text x="650.0" y="30.0">Black</text>
            <text id="template-version" fill="#505050" text-anchor="end" x="785.0" y="575.0">Template v.3.0</text>
            <a href="https://github.com/swhitty/SwiftDraw">
                <text fill="#505050" text-anchor="end" x="785.0" y="590.0">https://github.com/swhitty/SwiftDraw</text>
            </a>
        </g>
    </g>
    <g id="Guides" stroke="rgb(39, 170, 225)" stroke-width="0.5">
        <path id="Capline-S" d="M18,76 l800,0" />
        <path id="H-reference" d="M85,145.755 L87.685,145.755 L113.369,79.287 L114.052,79.287 L114.052,76 L112.148,76 L85,145.755 Z M95.693,121.536 L130.996,121.536 L130.263,119.313 L96.474,119.313 L95.693,121.536 Z M139.15,145.755 L141.787,145.755 L114.638,76 L113.466,76 L113.466,79.287 L139.15,145.755 Z" stroke="none" transform="translate(0,200)" />
        <path id="Baseline-S" d="M18,146 l800,0" />
        <path id="left-margin-Ultralight-M" d="M230,256 l0,110" />
        <path id="right-margin-Ultralight-M" d="M300,256 l0,110" />
        <path id="left-margin-Regular-M" d="M430,256 l0,110" />
        <path id="right-margin-Regular-M" d="M500,256 l0,110" />
        <path id="left-margin-Black-M" d="M630,256 l0,110" />
        <path id="right-margin-Black-M" d="M700,256 l0,110" />
        <path id="Capline-M" d="M18,276 l800,0" />
        <path id="Baseline-M" d="M18,346 l800,0" />
        <path id="Capline-L" d="M18,476 l800,0" />
        <path id="Baseline-L" d="M18,546 l800,0" />
    </g>
    <g id="Symbols">
        <g id="Ultralight-M" transform="translate(0,200)">
            <path d="M256.705,119.296 C260.417,123.006 264.716,126.08 269.428,128.391 C272.208,129.669 275.416,128.868 277.22,126.498 L278.347,125.022 C278.965,124.199 279.908,123.727 280.909,123.727 L290.455,123.727 C291.298,123.727 292.108,124.062 292.704,124.659 C293.301,125.256 293.636,126.065 293.636,126.909 L293.636,136.455 C293.636,137.298 293.301,138.108 292.704,138.704 C292.108,139.301 291.298,139.636 290.455,139.636 C276.109,139.636 262.35,133.938 252.206,123.794 C250.964,122.551 248.949,122.551 247.706,123.794 C246.464,125.036 246.464,127.051 247.706,128.294 C259.044,139.631 274.421,146 290.455,146 C292.986,146 295.414,144.994 297.204,143.204 C298.994,141.414 300,138.986 300,136.455 L300,126.909 C300,124.377 298.994,121.95 297.204,120.159 C295.414,118.369 292.986,117.364 290.455,117.364 L280.909,117.364 C277.905,117.364 275.075,118.778 273.273,121.182 L272.16,122.64 C272.157,122.643 272.157,122.643 272.157,122.643 C268.147,120.675 264.421,118.011 261.204,114.795 C259.961,113.553 257.947,113.553 256.704,114.796 C255.462,116.039 255.462,118.053 256.705,119.296 Z" />
            <path d="M294.568,76.932 L230.932,140.568 C229.689,141.811 229.689,143.825 230.932,145.068 C232.175,146.311 234.189,146.311 235.432,145.068 L299.068,81.432 C300.311,80.189 300.311,78.175 299.068,76.932 C297.826,75.689 295.811,75.689 294.568,76.932 Z" />
            <path d="M244.658,114.341 C239.236,105.715 236.362,95.734 236.364,85.546 C236.364,84.702 236.699,83.892 237.296,83.296 C237.892,82.699 238.702,82.364 239.545,82.364 L249.091,82.364 C249.935,82.364 250.744,82.699 251.341,83.296 C251.938,83.892 252.273,84.702 252.273,85.545 L252.273,95.091 C252.273,96.092 251.801,97.035 251,97.636 L249.511,98.753 C247.08,100.609 246.303,103.892 247.631,106.616 C247.903,107.169 248.18,107.707 248.468,108.239 C249.303,109.785 251.233,110.361 252.779,109.526 C254.326,108.691 254.902,106.761 254.067,105.215 C253.818,104.753 253.577,104.288 253.346,103.817 C253.351,103.828 253.351,103.828 253.351,103.828 L254.818,102.727 C257.222,100.925 258.636,98.095 258.636,95.091 L258.636,85.545 C258.636,83.014 257.631,80.586 255.841,78.796 C254.05,77.006 251.623,76 249.091,76 L239.545,76 C237.014,76 234.586,77.006 232.796,78.796 C231.006,80.586 230,83.014 230,85.545 C229.998,96.931 233.211,108.086 239.27,117.727 C240.205,119.215 242.169,119.663 243.657,118.728 C245.145,117.792 245.593,115.828 244.658,114.341 Z" />
        </g>
        <g id="Regular-M" transform="translate(0,200)">
            <path d="M456.705,119.296 C460.417,123.006 464.716,126.08 469.428,128.391 C472.208,129.669 475.416,128.868 477.22,126.498 L478.347,125.022 C478.965,124.199 479.908,123.727 480.909,123.727 L490.455,123.727 C491.298,123.727 492.108,124.062 492.704,124.659 C493.301,125.256 493.636,126.065 493.636,126.909 L493.636,136.455 C493.636,137.298 493.301,138.108 492.704,138.704 C492.108,139.301 491.298,139.636 490.455,139.636 C476.109,139.636 462.35,133.938 452.206,123.794 C450.964,122.551 448.949,122.551 447.706,123.794 C446.464,125.036 446.464,127.051 447.706,128.294 C459.044,139.631 474.421,146 490.455,146 C492.986,146 495.414,144.994 497.204,143.204 C498.994,141.414 500,138.986 500,136.455 L500,126.909 C500,124.377 498.994,121.95 497.204,120.159 C495.414,118.369 492.986,117.364 490.455,117.364 L480.909,117.364 C477.905,117.364 475.075,118.778 473.273,121.182 L472.16,122.64 C472.157,122.643 472.157,122.643 472.157,122.643 C468.147,120.675 464.421,118.011 461.204,114.795 C459.961,113.553 457.947,113.553 456.704,114.796 C455.462,116.039 455.462,118.053 456.705,119.296 Z" />
            <path d="M494.568,76.932 L430.932,140.568 C429.689,141.811 429.689,143.825 430.932,145.068 C432.174,146.311 434.189,146.311 435.432,145.068 L499.068,81.432 C500.311,80.189 500.311,78.175 499.068,76.932 C497.826,75.689 495.811,75.689 494.568,76.932 Z" />
            <path d="M444.658,114.341 C439.236,105.715 436.362,95.734 436.364,85.546 C436.364,84.702 436.699,83.892 437.296,83.296 C437.892,82.699 438.702,82.364 439.545,82.364 L449.091,82.364 C449.935,82.364 450.744,82.699 451.341,83.296 C451.938,83.892 452.273,84.702 452.273,85.545 L452.273,95.091 C452.273,96.092 451.801,97.035 451,97.636 L449.511,98.753 C447.08,100.609 446.303,103.892 447.631,106.616 C447.903,107.169 448.18,107.707 448.468,108.239 C449.303,109.785 451.233,110.361 452.779,109.526 C454.326,108.691 454.902,106.761 454.067,105.215 C453.818,104.753 453.577,104.288 453.346,103.817 C453.351,103.828 453.351,103.828 453.351,103.828 L454.818,102.727 C457.222,100.925 458.636,98.095 458.636,95.091 L458.636,85.545 C458.636,83.014 457.631,80.586 455.841,78.796 C454.05,77.006 451.623,76 449.091,76 L439.545,76 C437.014,76 434.586,77.006 432.796,78.796 C431.006,80.586 430,83.014 430,85.545 C429.998,96.931 433.211,108.086 439.27,117.727 C440.205,119.215 442.169,119.663 443.657,118.728 C445.145,117.792 445.593,115.828 444.658,114.341 Z" />
        </g>
        <g id="Black-M" transform="translate(0,200)">
            <path d="M656.705,119.296 C660.417,123.006 664.716,126.08 669.428,128.391 C672.208,129.669 675.416,128.868 677.22,126.498 L678.347,125.022 C678.965,124.199 679.908,123.727 680.909,123.727 L690.455,123.727 C691.298,123.727 692.108,124.062 692.704,124.659 C693.301,125.256 693.636,126.065 693.636,126.909 L693.636,136.455 C693.636,137.298 693.301,138.108 692.704,138.704 C692.108,139.301 691.298,139.636 690.455,139.636 C676.109,139.636 662.35,133.938 652.206,123.794 C650.964,122.551 648.949,122.551 647.706,123.794 C646.464,125.036 646.464,127.051 647.706,128.294 C659.044,139.631 674.421,146 690.455,146 C692.986,146 695.414,144.994 697.204,143.204 C698.994,141.414 700,138.986 700,136.455 L700,126.909 C700,124.377 698.994,121.95 697.204,120.159 C695.414,118.369 692.986,117.364 690.455,117.364 L680.909,117.364 C677.905,117.364 675.075,118.778 673.273,121.182 L672.16,122.64 C672.157,122.643 672.157,122.643 672.157,122.643 C668.147,120.675 664.421,118.011 661.204,114.795 C659.961,113.553 657.947,113.553 656.704,114.796 C655.462,116.039 655.462,118.053 656.705,119.296 Z" />
            <path d="M694.568,76.932 L630.932,140.568 C629.689,141.811 629.689,143.825 630.932,145.068 C632.174,146.311 634.189,146.311 635.432,145.068 L699.068,81.432 C700.311,80.189 700.311,78.175 699.068,76.932 C697.826,75.689 695.811,75.689 694.568,76.932 Z" />
            <path d="M644.658,114.341 C639.237,105.715 636.362,95.734 636.364,85.546 C636.364,84.702 636.699,83.892 637.296,83.296 C637.892,82.699 638.702,82.364 639.545,82.364 L649.091,82.364 C649.935,82.364 650.744,82.699 651.341,83.296 C651.938,83.892 652.273,84.702 652.273,85.545 L652.273,95.091 C652.273,96.092 651.801,97.035 651,97.636 L649.511,98.753 C647.08,100.609 646.303,103.892 647.631,106.616 C647.903,107.169 648.18,107.707 648.468,108.239 C649.303,109.785 651.233,110.361 652.779,109.526 C654.326,108.691 654.902,106.761 654.067,105.215 C653.818,104.753 653.577,104.288 653.346,103.817 C653.351,103.828 653.351,103.828 653.351,103.828 L654.818,102.727 C657.222,100.925 658.636,98.095 658.636,95.091 L658.636,85.545 C658.636,83.014 657.631,80.586 655.841,78.796 C654.05,77.006 651.622,76 649.091,76 L639.545,76 C637.014,76 634.586,77.006 632.796,78.796 C631.006,80.586 630,83.014 630,85.545 C629.998,96.931 633.211,108.086 639.27,117.727 C640.205,119.215 642.169,119.663 643.657,118.728 C645.145,117.792 645.593,115.828 644.658,114.341 Z" />
        </g>
    </g>
</svg>