<?xml version="1.0" encoding="UTF-8"?>
<svg height="600" width="800" xmlns="http://www.w3.org/2000/svg" xmlns:xlink="http://www.w3.org/1999/xlink">
    <g id="Notes" font-family="LucidaGrande, 'Lucida Grande', sans-serif" font-size="13">
        <rect fill="white" height="600.0" width="800.0" x="0.0" y="0.0" />
        <g font-size="13">
            <text x="18.0" y="176.0">Small</text>
            <text x="18.0" y="376.0">Medium</text>
            <text x="18.0" y="576.0">Large</text>
        </g>
        <g font-size="9">
            <text x="250.0" y="30.0">Ultralight</text>
            <text x="450.0" y="30.0">Regular</text>
            <text x="650.0" y="30.0">Black</text>
            <text id="template-version" fill="#505050" text-anchor="end" x="785.0" y="575.0">Template v.3.0</text>
            <a href="https://github.com/swhitty/SwiftDraw">
                <text fill="#505050" text-anchor="end" x="785.0" y="590.0">https://github.com/swhitty/SwiftDraw</text>
            </a>
        </g>
    </g>
    <g id="Guides" stroke="rgb(39, 170, 225)" stroke-width="0.5">
        <path id="Capline-S" d="M18,76 l800,0" />
        <path id="H-reference" d="M85,145.755 L87.685,145.755 L113.369,79.287 L114.052,79.287 L114.052,76 L112.148,76 L85,145.755 Z M95.693,121.536 L130.996,121.536 L130.263,119.313 L96.474,119.313 L95.693,121.536 Z M139.15,145.755 L141.787,145.755 L114.638,76 L113.466,76 L113.466,79.287 L139.15,145.755 Z" stroke="none" transform="translate(0,200)" />
        <path id="Baseline-S" d="M18,146 l800,0" />
        <path id="left-margin-Ultralight-M" d="M222.222,256 l0,110" />
        <path id="right-margin-Ultralight-M" d="M307.778,256 l0,110" />
        <path id="left-margin-Regular-M" d="M422.222,256 l0,110" />
        <path id="right-margin-Regular-M" d="M507.778,256 l0,110" />
        <path id="left-margin-Black-M" d="M622.222,256 l0,110" />
        <path id="right-margin-Black-M" d="M707.778,256 l0,110" />
        <path id="Capline-M" d="M18,276 l800,0" />
        <path id="Baseline-M" d="M18,346 l800,0" />
        <path id="Capline-L" d="M18,476 l800,0" />
        <path id="Baseline-L" d="M18,546 l800,0" />
    </g>
    <g id="Symbols">
        <g id="Ultralight-M" transform="translate(0,200)">
            <path d="M303.889,99.333 L303.889,87.667 C303.889,84.572 302.66,81.605 300.472,79.417 C298.284,77.229 295.316,76 292.222,76 L233.889,76 C230.795,76 227.827,77.229 225.639,79.417 C223.451,81.605 222.222,84.572 222.222,87.667 L222.222,126.556 C222.222,132.981 227.463,138.222 233.889,138.222 L249.444,138.222 C251.592,138.222 253.333,136.481 253.333,134.333 C253.333,132.186 251.592,130.444 249.444,130.444 L233.889,130.444 C231.759,130.444 230,128.686 230,126.556 L230,87.667 C230,86.635 230.41,85.646 231.139,84.917 C231.868,84.188 232.857,83.778 233.889,83.778 L292.222,83.778 C293.254,83.778 294.243,84.188 294.972,84.917 C295.701,85.646 296.111,86.635 296.111,87.667 L296.111,99.333 C296.111,101.481 297.852,103.222 300,103.222 C302.148,103.222 303.889,101.481 303.889,99.333 Z" />
            <path d="M300,128.5 L300,134.333 C300,135.365 299.59,136.354 298.861,137.083 C298.132,137.812 297.143,138.222 296.111,138.222 L272.778,138.222 C271.746,138.222 270.757,137.812 270.028,137.083 C269.299,136.354 268.889,135.365 268.889,134.333 L268.889,122.667 C268.889,121.635 269.299,120.646 270.028,119.917 C270.757,119.188 271.746,118.778 272.778,118.778 L296.111,118.778 C297.143,118.778 298.132,119.188 298.861,119.917 C299.59,120.646 300,121.635 300,122.667 L300,128.5 Z M307.778,128.5 L307.778,122.667 C307.778,119.572 306.549,116.605 304.361,114.417 C302.173,112.229 299.205,111 296.111,111 L272.778,111 C269.684,111 266.716,112.229 264.528,114.417 C262.34,116.605 261.111,119.572 261.111,122.667 L261.111,134.333 C261.111,137.428 262.34,140.395 264.528,142.583 C266.716,144.771 269.684,146 272.778,146 L296.111,146 C299.205,146 302.173,144.771 304.361,142.583 C306.549,140.395 307.778,137.428 307.778,134.333 L307.778,128.5 Z" />
        </g>
        <g id="Regular-M" transform="translate(0,200)">
            <path d="M503.889,99.333 L503.889,87.667 C503.889,84.572 502.66,81.605 500.472,79.417 C498.284,77.229 495.316,76 492.222,76 L433.889,76 C430.795,76 427.827,77.229 425.639,79.417 C423.451,81.605 422.222,84.572 422.222,87.667 L422.222,126.556 C422.222,132.981 427.463,138.222 433.889,138.222 L449.444,138.222 C451.592,138.222 453.333,136.481 453.333,134.333 C453.333,132.186 451.592,130.444 449.444,130.444 L433.889,130.444 C431.759,130.444 430,128.686 430,126.556 L430,87.667 C430,86.635 430.41,85.646 431.139,84.917 C431.868,84.188 432.857,83.778 433.889,83.778 L492.222,83.778 C493.254,83.778 494.243,84.188 494.972,84.917 C495.701,85.646 496.111,86.635 496.111,87.667 L496.111,99.333 C496.111,101.481 497.852,103.222 500,103.222 C502.148,103.222 503.889,101.481 503.889,99.333 Z" />
            <path d="M500,128.5 L500,134.333 C500,135.365 499.59,136.354 498.861,137.083 C498.132,137.812 497.143,138.222 496.111,138.222 L472.778,138.222 C471.746,138.222 470.757,137.812 470.028,137.083 C469.299,136.354 468.889,135.365 468.889,134.333 L468.889,122.667 C468.889,121.635 469.299,120.646 470.028,119.917 C470.757,119.188 471.746,118.778 472.778,118.778 L496.111,118.778 C497.143,118.778 498.132,119.188 498.861,119.917 C499.59,120.646 500,121.635 500,122.667 L500,128.5 Z M507.778,128.5 L507.778,122.667 C507.778,119.572 506.549,116.605 504.361,114.417 C502.173,112.229 499.205,111 496.111,111 L472.778,111 C469.684,111 466.716,112.229 464.528,114.417 C462.34,116.605 461.111,119.572 461.111,122.667 L461.111,134.333 C461.111,137.428 462.34,140.395 464.528,142.583 C466.716,144.771 469.684,146 472.778,146 L496.111,146 C499.205,146 502.173,144.771 504.361,142.583 C506.549,140.395 507.778,137.428 507.778,134.333 L507.778,128.5 Z" />
        </g>
        <g id="Black-M" transform="translate(0,200)">
            <path d="M703.889,99.333 L703.889,87.667 C703.889,84.572 702.66,81.605 700.472,79.417 C698.284,77.229 695.316,76 692.222,76 L633.889,76 C630.795,76 627.827,77.229 625.639,79.417 C623.451,81.605 622.222,84.572 622.222,87.667 L622.222,126.556 C622.222,132.981 627.463,138.222 633.889,138.222 L649.444,138.222 C651.592,138.222 653.333,136.481 653.333,134.333 C653.333,132.186 651.592,130.444 649.444,130.444 L633.889,130.444 C631.759,130.444 630,128.686 630,126.556 L630,87.667 C630,86.635 630.41,85.646 631.139,84.917 C631.868,84.188 632.857,83.778 633.889,83.778 L692.222,83.778 C693.254,83.778 694.243,84.188 694.972,84.917 C695.701,85.646 696.111,86.635 696.111,87.667 L696.111,99.333 C696.111,101.481 697.852,103.222 700,103.222 C702.148,103.222 703.889,101.481 703.889,99.333 Z" />
            <path d="M700,128.5 L700,134.333 C700,135.365 699.59,136.354 698.861,137.083 C698.132,137.812 697.143,138.222 696.111,138.222 L672.778,138.222 C671.746,138.222 670.757,137.812 670.028,137.083 C669.299,136.354 668.889,135.365 668.889,134.333 L668.889,122.667 C668.889,121.635 669.299,120.646 670.028,119.917 C670.757,119.188 671.746,118.778 672.778,118.778 L696.111,118.778 C697.143,118.778 698.132,119.188 698.861,119.917 C699.59,120.646 700,121.635 700,122.667 L700,128.5 Z M707.778,128.5 L707.778,122.667 C707.778,119.572 706.549,116.605 704.361,114.417 C702.173,112.229 699.205,111 696.111,111 L672.778,111 C669.684,111 666.716,112.229 664.528,114.417 C662.34,116.605 661.111,119.572 661.111,122.667 L661.111,134.333 C661.111,137.428 662.34,140.395 664.528,142.583 C666.716,144.771 669.684,146 672.778,146 L696.111,146 C699.205,146 702.173,144.771 704.361,142.583 C706.549,140.395 707.778,137.428 707.778,134.333 L707.778,128.5 Z" />
        </g>
    </g>
</svg>