<?xml version="1.0" encoding="UTF-8"?>
<svg height="600" width="800" xmlns="http://www.w3.org/2000/svg" xmlns:xlink="http://www.w3.org/1999/xlink">
    <g id="Notes" font-family="LucidaGrande, 'Lucida Grande', sans-serif" font-size="13">
        <rect fill="white" height="600.0" width="800.0" x="0.0" y="0.0" />
        <g font-size="13">
            <text x="18.0" y="176.0">Small</text>
            <text x="18.0" y="376.0">Medium</text>
            <text x="18.0" y="576.0">Large</text>
        </g>
        <g font-size="9">
            <text x="250.0" y="30.0">Ultralight</text>
            <text x="450.0" y="30.0">Regular</text>
            <text x="650.0" y="30.0">Black</text>
            <text id="template-version" fill="#505050" text-anchor="end" x="785.0" y="575.0">Template v.3.0</text>
            <a href="https://github.com/swhitty/SwiftDraw">
                <text fill="#505050" text-anchor="end" x="785.0" y="590.0">https://github.com/swhitty/SwiftDraw</text>
            </a>
        </g>
    </g>
    <g id="Guides" stroke="rgb(39, 170, 225)" stroke-width="0.5">
        <path id="Capline-S" d="M18,76 l800,0" />
        <path id="H-reference" d="M85,145.755 L87.685,145.755 L113.369,79.287 L114.052,79.287 L114.052,76 L112.148,76 L85,145.755 Z M95.693,121.536 L130.996,121.536 L130.263,119.313 L96.474,119.313 L95.693,121.536 Z M139.15,145.755 L141.787,145.755 L114.638,76 L113.466,76 L113.466,79.287 L139.15,145.755 Z" stroke="none" transform="translate(0,200)" />
        <path id="Baseline-S" d="M18,146 l800,0" />
        <path id="left-margin-Ultralight-M" d="M233.889,256 l0,110" />
        <path id="right-margin-Ultralight-M" d="M296.111,256 l0,110" />
        <path id="left-margin-Regular-M" d="M433.889,256 l0,110" />
        <path id="right-margin-Regular-M" d="M496.111,256 l0,110" />
        <path id="left-margin-Black-M" d="M633.889,256 l0,110" />
        <path id="right-margin-Black-M" d="M696.111,256 l0,110" />
        <path id="Capline-M" d="M18,276 l800,0" />
        <path id="Baseline-M" d="M18,346 l800,0" />
        <path id="Capline-L" d="M18,476 l800,0" />
        <path id="Baseline-L" d="M18,546 l800,0" />
    </g>
    <g id="Symbols">
        <g id="Ultralight-M" transform="translate(0,200)">
            <path d="M265,79.889 L265,142.111 C265,144.259 266.741,146 268.889,146 C271.037,146 272.778,144.259 272.778,142.111 L272.778,79.889 C272.778,77.741 271.037,76 268.889,76 C266.741,76 265,77.741 265,79.889 Z" />
            <path d="M280.556,79.889 L280.556,142.111 C280.556,144.259 282.297,146 284.444,146 C286.592,146 288.333,144.259 288.333,142.111 L288.333,79.889 C288.333,77.741 286.592,76 284.444,76 C282.297,76 280.556,77.741 280.556,79.889 Z" />
            <path d="M292.222,76 L255.278,76 C243.465,76 233.889,85.576 233.889,97.389 C233.889,109.202 243.465,118.778 255.278,118.778 L268.889,118.778 C271.037,118.778 272.778,117.037 272.778,114.889 C272.778,112.741 271.037,111 268.889,111 L255.278,111 C247.761,111 241.667,104.906 241.667,97.389 C241.667,89.872 247.761,83.778 255.278,83.778 L292.222,83.778 C294.37,83.778 296.111,82.037 296.111,79.889 C296.111,77.741 294.37,76 292.222,76 Z" />
        </g>
        <g id="Regular-M" transform="translate(0,200)">
            <path d="M465,79.889 L465,142.111 C465,144.259 466.741,146 468.889,146 C471.037,146 472.778,144.259 472.778,142.111 L472.778,79.889 C472.778,77.741 471.037,76 468.889,76 C466.741,76 465,77.741 465,79.889 Z" />
            <path d="M480.556,79.889 L480.556,142.111 C480.556,144.259 482.297,146 484.444,146 C486.592,146 488.333,144.259 488.333,142.111 L488.333,79.889 C488.333,77.741 486.592,76 484.444,76 C482.297,76 480.556,77.741 480.556,79.889 Z" />
            <path d="M492.222,76 L455.278,76 C443.465,76 433.889,85.576 433.889,97.389 C433.889,109.202 443.465,118.778 455.278,118.778 L468.889,118.778 C471.037,118.778 472.778,117.037 472.778,114.889 C472.778,112.741 471.037,111 468.889,111 L455.278,111 C447.761,111 441.667,104.906 441.667,97.389 C441.667,89.872 447.761,83.778 455.278,83.778 L492.222,83.778 C494.37,83.778 496.111,82.037 496.111,79.889 C496.111,77.741 494.37,76 492.222,76 Z" />
        </g>
        <g id="Black-M" transform="translate(0,200)">
            <path d="M665,79.889 L665,142.111 C665,144.259 666.741,146 668.889,146 C671.037,146 672.778,144.259 672.778,142.111 L672.778,79.889 C672.778,77.741 671.037,76 668.889,76 C666.741,76 665,77.741 665,79.889 Z" />
            <path d="M680.556,79.889 L680.556,142.111 C680.556,144.259 682.297,146 684.444,146 C686.592,146 688.333,144.259 688.333,142.111 L688.333,79.889 C688.333,77.741 686.592,76 684.444,76 C682.297,76 680.556,77.741 680.556,79.889 Z" />
            <path d="M692.222,76 L655.278,76 C643.465,76 633.889,85.576 633.889,97.389 C633.889,109.202 643.465,118.778 655.278,118.778 L668.889,118.778 C671.037,118.778 672.778,117.037 672.778,114.889 C672.778,112.741 671.037,111 668.889,111 L655.278,111 C647.761,111 641.667,104.906 641.667,97.389 C641.667,89.872 647.761,83.778 655.278,83.778 L692.222,83.778 C694.37,83.778 696.111,82.037 696.111,79.889 C696.111,77.741 694.37,76 692.222,76 Z" />
        </g>
    </g>
</svg>