<?xml version="1.0" encoding="UTF-8"?>
<svg height="600" width="800" xmlns="http://www.w3.org/2000/svg" xmlns:xlink="http://www.w3.org/1999/xlink">
    <g id="Notes" font-family="LucidaGrande, 'Lucida Grande', sans-serif" font-size="13">
        <rect fill="white" height="600.0" width="800.0" x="0.0" y="0.0" />
        <g font-size="13">
            <text x="18.0" y="176.0">Small</text>
            <text x="18.0" y="376.0">Medium</text>
            <text x="18.0" y="576.0">Large</text>
        </g>
        <g font-size="9">
            <text x="250.0" y="30.0">Ultralight</text>
            <text x="450.0" y="30.0">Regular</text>
            <text x="650.0" y="30.0">Black</text>
            <text id="template-version" fill="#505050" text-anchor="end" x="785.0" y="575.0">Template v.3.0</text>
            <a href="https://github.com/swhitty/SwiftDraw">
                <text fill="#505050" text-anchor="end" x="785.0" y="590.0">https://github.com/swhitty/SwiftDraw</text>
            </a>
        </g>
    </g>
    <g id="Guides" stroke="rgb(39, 170, 225)" stroke-width="0.5">
        <path id="Capline-S" d="M18,76 l800,0" />
        <path id="H-reference" d="M85,145.755 L87.685,145.755 L113.369,79.287 L114.052,79.287 L114.052,76 L112.148,76 L85,145.755 Z M95.693,121.536 L130.996,121.536 L130.263,119.313 L96.474,119.313 L95.693,121.536 Z M139.15,145.755 L141.787,145.755 L114.638,76 L113.466,76 L113.466,79.287 L139.15,145.755 Z" stroke="none" transform="translate(0,200)" />
        <path id="Baseline-S" d="M18,146 l800,0" />
        <path id="left-margin-Ultralight-M" d="M236.364,256 l0,110" />
        <path id="right-margin-Ultralight-M" d="M293.636,256 l0,110" />
        <path id="left-margin-Regular-M" d="M436.364,256 l0,110" />
        <path id="right-margin-Regular-M" d="M493.636,256 l0,110" />
        <path id="left-margin-Black-M" d="M636.364,256 l0,110" />
        <path id="right-margin-Black-M" d="M693.636,256 l0,110" />
        <path id="Capline-M" d="M18,276 l800,0" />
        <path id="Baseline-M" d="M18,346 l800,0" />
        <path id="Capline-L" d="M18,476 l800,0" />
        <path id="Baseline-L" d="M18,546 l800,0" />
    </g>
    <g id="Symbols">
        <g id="Ultralight-M" transform="translate(0,200)">
            <path d="M284.091,104.636 L271.364,104.636 C269.676,104.636 268.057,105.307 266.864,106.5 C265.67,107.694 265,109.312 265,111 L265,126.909 C265,128.597 265.67,130.215 266.864,131.409 C268.057,132.602 269.676,133.273 271.364,133.273 L284.091,133.273 C285.848,133.273 287.273,131.848 287.273,130.091 C287.273,128.334 285.848,126.909 284.091,126.909 L271.364,126.909 C271.364,126.909 271.364,126.909 271.364,126.909 C271.364,126.909 271.364,126.909 271.364,126.909 L271.364,111 C271.364,111 271.364,111 271.364,111 C271.364,111 271.364,111 271.364,111 L284.091,111 C285.848,111 287.273,109.575 287.273,107.818 C287.273,106.061 285.848,104.636 284.091,104.636 Z" />
            <path d="M242.727,95.091 L242.727,136.455 C242.727,138.986 243.733,141.414 245.523,143.204 C247.313,144.994 249.741,146 252.273,146 L277.727,146 C280.259,146 282.687,144.994 284.477,143.204 C286.267,141.414 287.273,138.986 287.273,136.455 L287.273,95.091 C287.273,93.334 285.848,91.909 284.091,91.909 C282.334,91.909 280.909,93.334 280.909,95.091 L280.909,136.455 C280.909,137.298 280.574,138.108 279.977,138.704 C279.38,139.301 278.571,139.636 277.727,139.636 L252.273,139.636 C251.429,139.636 250.62,139.301 250.023,138.704 C249.426,138.108 249.091,137.298 249.091,136.455 L249.091,95.091 C249.091,93.334 247.666,91.909 245.909,91.909 C244.152,91.909 242.727,93.334 242.727,95.091 Z" />
            <path d="M287.273,87.136 L287.273,91.909 C287.273,91.909 287.273,91.909 287.273,91.909 C287.273,91.909 287.273,91.909 287.273,91.909 L242.727,91.909 C242.727,91.909 242.727,91.909 242.727,91.909 C242.727,91.909 242.727,91.909 242.727,91.909 L242.727,82.364 C242.727,82.364 242.727,82.364 242.727,82.364 C242.727,82.364 242.727,82.364 242.727,82.364 L287.273,82.364 C287.273,82.364 287.273,82.364 287.273,82.364 C287.273,82.364 287.273,82.364 287.273,82.364 L287.273,87.136 Z M293.636,87.136 L293.636,82.364 C293.636,80.676 292.966,79.057 291.772,77.864 C290.579,76.67 288.96,76 287.273,76 L242.727,76 C241.04,76 239.421,76.67 238.227,77.864 C237.034,79.057 236.364,80.676 236.364,82.364 L236.364,91.909 C236.364,93.597 237.034,95.215 238.228,96.409 C239.421,97.602 241.04,98.273 242.727,98.273 L287.273,98.273 C288.96,98.273 290.579,97.602 291.772,96.409 C292.966,95.215 293.636,93.597 293.636,91.909 L293.636,87.136 Z" />
        </g>
        <g id="Regular-M" transform="translate(0,200)">
            <path d="M484.091,104.636 L471.364,104.636 C469.676,104.636 468.057,105.307 466.864,106.5 C465.67,107.694 465,109.312 465,111 L465,126.909 C465,128.597 465.67,130.215 466.864,131.409 C468.057,132.602 469.676,133.273 471.364,133.273 L484.091,133.273 C485.848,133.273 487.273,131.848 487.273,130.091 C487.273,128.334 485.848,126.909 484.091,126.909 L471.364,126.909 C471.364,126.909 471.364,126.909 471.364,126.909 C471.364,126.909 471.364,126.909 471.364,126.909 L471.364,111 C471.364,111 471.364,111 471.364,111 C471.364,111 471.364,111 471.364,111 L484.091,111 C485.848,111 487.273,109.575 487.273,107.818 C487.273,106.061 485.848,104.636 484.091,104.636 Z" />
            <path d="M442.727,95.091 L442.727,136.455 C442.727,138.986 443.733,141.414 445.523,143.204 C447.313,144.994 449.741,146 452.273,146 L477.727,146 C480.259,146 482.687,144.994 484.477,143.204 C486.267,141.414 487.273,138.986 487.273,136.455 L487.273,95.091 C487.273,93.334 485.848,91.909 484.091,91.909 C482.334,91.909 480.909,93.334 480.909,95.091 L480.909,136.455 C480.909,137.298 480.574,138.108 479.977,138.704 C479.38,139.301 478.571,139.636 477.727,139.636 L452.273,139.636 C451.429,139.636 450.62,139.301 450.023,138.704 C449.426,138.108 449.091,137.298 449.091,136.455 L449.091,95.091 C449.091,93.334 447.666,91.909 445.909,91.909 C444.152,91.909 442.727,93.334 442.727,95.091 Z" />
            <path d="M487.273,87.136 L487.273,91.909 C487.273,91.909 487.273,91.909 487.273,91.909 C487.273,91.909 487.273,91.909 487.273,91.909 L442.727,91.909 C442.727,91.909 442.727,91.909 442.727,91.909 C442.727,91.909 442.727,91.909 442.727,91.909 L442.727,82.364 C442.727,82.364 442.727,82.364 442.727,82.364 C442.727,82.364 442.727,82.364 442.727,82.364 L487.273,82.364 C487.273,82.364 487.273,82.364 487.273,82.364 C487.273,82.364 487.273,82.364 487.273,82.364 L487.273,87.136 Z M493.636,87.136 L493.636,82.364 C493.636,80.676 492.966,79.057 491.773,77.864 C490.579,76.67 488.96,76 487.273,76 L442.727,76 C441.04,76 439.421,76.67 438.228,77.864 C437.034,79.057 436.364,80.676 436.364,82.364 L436.364,91.909 C436.364,93.597 437.034,95.215 438.228,96.409 C439.421,97.602 441.04,98.273 442.727,98.273 L487.273,98.273 C488.96,98.273 490.579,97.602 491.772,96.409 C492.966,95.215 493.636,93.597 493.636,91.909 L493.636,87.136 Z" />
        </g>
        <g id="Black-M" transform="translate(0,200)">
            <path d="M684.091,104.636 L671.364,104.636 C669.676,104.636 668.057,105.307 666.864,106.5 C665.67,107.694 665,109.312 665,111 L665,126.909 C665,128.597 665.67,130.215 666.864,131.409 C668.057,132.602 669.676,133.273 671.364,133.273 L684.091,133.273 C685.848,133.273 687.273,131.848 687.273,130.091 C687.273,128.334 685.848,126.909 684.091,126.909 L671.364,126.909 C671.364,126.909 671.364,126.909 671.364,126.909 C671.364,126.909 671.364,126.909 671.364,126.909 L671.364,111 C671.364,111 671.364,111 671.364,111 C671.364,111 671.364,111 671.364,111 L684.091,111 C685.848,111 687.273,109.575 687.273,107.818 C687.273,106.061 685.848,104.636 684.091,104.636 Z" />
            <path d="M642.727,95.091 L642.727,136.455 C642.727,138.986 643.733,141.414 645.523,143.204 C647.313,144.994 649.741,146 652.273,146 L677.727,146 C680.259,146 682.687,144.994 684.477,143.204 C686.267,141.414 687.273,138.986 687.273,136.455 L687.273,95.091 C687.273,93.334 685.848,91.909 684.091,91.909 C682.334,91.909 680.909,93.334 680.909,95.091 L680.909,136.455 C680.909,137.298 680.574,138.108 679.977,138.704 C679.38,139.301 678.571,139.636 677.727,139.636 L652.273,139.636 C651.429,139.636 650.62,139.301 650.023,138.704 C649.426,138.108 649.091,137.298 649.091,136.455 L649.091,95.091 C649.091,93.334 647.666,91.909 645.909,91.909 C644.152,91.909 642.727,93.334 642.727,95.091 Z" />
            <path d="M687.273,87.136 L687.273,91.909 C687.273,91.909 687.273,91.909 687.273,91.909 C687.273,91.909 687.273,91.909 687.273,91.909 L642.727,91.909 C642.727,91.909 642.727,91.909 642.727,91.909 C642.727,91.909 642.727,91.909 642.727,91.909 L642.727,82.364 C642.727,82.364 642.727,82.364 642.727,82.364 C642.727,82.364 642.727,82.364 642.727,82.364 L687.273,82.364 C687.273,82.364 687.273,82.364 687.273,82.364 C687.273,82.364 687.273,82.364 687.273,82.364 L687.273,87.136 Z M693.636,87.136 L693.636,82.364 C693.636,80.676 692.966,79.057 691.773,77.864 C690.579,76.67 688.96,76 687.273,76 L642.727,76 C641.04,76 639.421,76.67 638.228,77.864 C637.034,79.057 636.364,80.676 636.364,82.364 L636.364,91.909 C636.364,93.597 637.034,95.215 638.228,96.409 C639.421,97.602 641.04,98.273 642.727,98.273 L687.273,98.273 C688.96,98.273 690.579,97.602 691.773,96.409 C692.966,95.215 693.636,93.597 693.636,91.909 L693.636,87.136 Z" />
        </g>
    </g>
</svg>