<?xml version="1.0" encoding="UTF-8"?>
<svg height="600" width="800" xmlns="http://www.w3.org/2000/svg" xmlns:xlink="http://www.w3.org/1999/xlink">
    <g id="Notes" font-family="LucidaGrande, 'Lucida Grande', sans-serif" font-size="13">
        <rect fill="white" height="600.0" width="800.0" x="0.0" y="0.0" />
        <g font-size="13">
            <text x="18.0" y="176.0">Small</text>
            <text x="18.0" y="376.0">Medium</text>
            <text x="18.0" y="576.0">Large</text>
        </g>
        <g font-size="9">
            <text x="250.0" y="30.0">Ultralight</text>
            <text x="450.0" y="30.0">Regular</text>
            <text x="650.0" y="30.0">Black</text>
            <text id="template-version" fill="#505050" text-anchor="end" x="785.0" y="575.0">Template v.3.0</text>
            <a href="https://github.com/swhitty/SwiftDraw">
                <text fill="#505050" text-anchor="end" x="785.0" y="590.0">https://github.com/swhitty/SwiftDraw</text>
            </a>
        </g>
    </g>
    <g id="Guides" stroke="rgb(39, 170, 225)" stroke-width="0.5">
        <path id="Capline-S" d="M18,76 l800,0" />
        <path id="H-reference" d="M85,145.755 L87.685,145.755 L113.369,79.287 L114.052,79.287 L114.052,76 L112.148,76 L85,145.755 Z M95.693,121.536 L130.996,121.536 L130.263,119.313 L96.474,119.313 L95.693,121.536 Z M139.15,145.755 L141.787,145.755 L114.638,76 L113.466,76 L113.466,79.287 L139.15,145.755 Z" stroke="none" transform="translate(0,200)" />
        <path id="Baseline-S" d="M18,146 l800,0" />
        <path id="left-margin-Ultralight-M" d="M222.222,256 l0,110" />
        <path id="right-margin-Ultralight-M" d="M307.778,256 l0,110" />
        <path id="left-margin-Regular-M" d="M422.222,256 l0,110" />
        <path id="right-margin-Regular-M" d="M507.778,256 l0,110" />
        <path id="left-margin-Black-M" d="M622.222,256 l0,110" />
        <path id="right-margin-Black-M" d="M707.778,256 l0,110" />
        <path id="Capline-M" d="M18,276 l800,0" />
        <path id="Baseline-M" d="M18,346 l800,0" />
        <path id="Capline-L" d="M18,476 l800,0" />
        <path id="Baseline-L" d="M18,546 l800,0" />
    </g>
    <g id="Symbols">
        <g id="Ultralight-M" transform="translate(0,200)">
            <path d="M226.107,146 L303.795,146 C305.94,146 307.679,144.32 307.679,142.248 C307.679,140.175 305.94,138.495 303.795,138.495 L226.107,138.495 C223.961,138.495 222.222,140.175 222.222,142.248 C222.222,144.32 223.961,146 226.107,146 Z" />
            <path d="M243.692,121.288 L234.525,119.787 L237.35,121.808 L229.581,106.799 L227.844,111.833 L232.117,109.77 C233.227,109.229 234.524,109.229 235.623,109.765 L236.062,110.023 C239.582,111.745 243.473,111.745 246.772,110.14 L251.113,108.099 C253.057,107.185 253.854,104.915 252.887,103.047 L241.234,80.533 L239.497,85.568 L242.993,83.879 C244.288,83.264 245.859,83.409 247.03,84.265 L262.666,95.537 C266.163,98.108 270.905,98.544 274.873,96.642 L291.136,88.918 C292.388,88.309 293.79,88.176 295.103,88.528 L298.833,89.569 C299.321,89.7 299.692,90.01 299.879,90.424 C300.066,90.838 300.051,91.311 299.837,91.713 L298.339,94.604 C297.806,95.636 296.956,96.468 295.891,96.993 L246.055,120.876 C245.324,121.225 244.495,121.344 243.688,121.212 C241.318,120.826 239.158,122.591 239.158,124.912 L239.158,124.988 L243.043,124.987 L243.692,121.288 Z M242.394,128.687 C244.764,129.075 246.927,127.31 246.927,124.987 L246.927,124.912 L243.043,124.912 L242.397,128.612 C244.818,129.006 247.306,128.652 249.506,127.599 L299.384,103.696 C301.973,102.42 304.016,100.418 305.288,97.961 L306.764,95.109 C308.027,92.74 308.121,89.901 306.997,87.418 C305.874,84.935 303.652,83.073 300.95,82.348 L297.22,81.308 C294.007,80.446 290.617,80.767 287.674,82.2 L271.433,89.913 C270.098,90.553 268.517,90.408 267.342,89.544 L251.697,78.266 C248.206,75.713 243.494,75.278 239.541,77.156 L236.023,78.855 C234.104,79.782 233.326,82.036 234.286,83.89 L245.939,106.403 L247.713,101.351 L243.324,103.415 C242.176,103.973 240.879,103.973 239.78,103.438 L239.341,103.179 C235.821,101.457 231.93,101.457 228.632,103.063 L224.369,105.121 C222.451,106.048 221.673,108.302 222.632,110.155 L230.401,125.164 C230.955,126.235 232.005,126.986 233.226,127.186 L242.394,128.687 Z" />
        </g>
        <g id="Regular-M" transform="translate(0,200)">
            <path d="M426.107,146 L503.795,146 C505.94,146 507.679,144.32 507.679,142.248 C507.679,140.175 505.94,138.495 503.795,138.495 L426.107,138.495 C423.961,138.495 422.222,140.175 422.222,142.248 C422.222,144.32 423.961,146 426.107,146 Z" />
            <path d="M443.692,121.288 L434.525,119.787 L437.35,121.808 L429.581,106.799 L427.844,111.833 L432.117,109.77 C433.227,109.229 434.524,109.229 435.623,109.765 L436.062,110.023 C439.582,111.745 443.473,111.745 446.772,110.14 L451.113,108.099 C453.057,107.185 453.854,104.915 452.887,103.047 L441.234,80.533 L439.497,85.568 L442.993,83.879 C444.288,83.264 445.859,83.409 447.03,84.265 L462.666,95.537 C466.163,98.108 470.905,98.544 474.873,96.642 L491.136,88.918 C492.388,88.309 493.79,88.176 495.103,88.528 L498.833,89.569 C499.321,89.7 499.692,90.01 499.879,90.424 C500.066,90.838 500.051,91.311 499.837,91.713 L498.339,94.604 C497.806,95.636 496.956,96.468 495.891,96.993 L446.055,120.876 C445.324,121.225 444.495,121.344 443.688,121.212 C441.318,120.826 439.158,122.591 439.158,124.912 L439.158,124.988 L443.043,124.987 L443.692,121.288 Z M442.394,128.687 C444.764,129.075 446.927,127.31 446.927,124.987 L446.927,124.912 L443.043,124.912 L442.397,128.612 C444.818,129.006 447.306,128.652 449.506,127.599 L499.384,103.696 C501.973,102.42 504.016,100.418 505.288,97.961 L506.764,95.109 C508.027,92.74 508.121,89.901 506.997,87.418 C505.874,84.935 503.652,83.073 500.95,82.348 L497.22,81.308 C494.007,80.446 490.617,80.767 487.674,82.2 L471.433,89.913 C470.098,90.553 468.517,90.408 467.342,89.544 L451.697,78.266 C448.206,75.713 443.494,75.278 439.541,77.156 L436.023,78.855 C434.104,79.782 433.326,82.036 434.286,83.89 L445.939,106.403 L447.713,101.351 L443.324,103.415 C442.176,103.973 440.879,103.973 439.78,103.438 L439.341,103.179 C435.821,101.457 431.93,101.457 428.632,103.063 L424.369,105.121 C422.451,106.048 421.673,108.302 422.632,110.155 L430.401,125.164 C430.955,126.235 432.005,126.986 433.226,127.186 L442.394,128.687 Z" />
        </g>
        <g id="Black-M" transform="translate(0,200)">
            <path d="M626.107,146 L703.795,146 C705.94,146 707.679,144.32 707.679,142.248 C707.679,140.175 705.94,138.495 703.795,138.495 L626.107,138.495 C623.961,138.495 622.222,140.175 622.222,142.248 C622.222,144.32 623.961,146 626.107,146 Z" />
            <path d="M643.692,121.288 L634.525,119.787 L637.35,121.808 L629.581,106.799 L627.844,111.833 L632.117,109.77 C633.227,109.229 634.524,109.229 635.623,109.765 L636.062,110.023 C639.582,111.745 643.473,111.745 646.772,110.14 L651.113,108.099 C653.057,107.185 653.854,104.915 652.887,103.047 L641.234,80.533 L639.497,85.568 L642.993,83.879 C644.288,83.264 645.859,83.409 647.03,84.265 L662.666,95.537 C666.163,98.108 670.905,98.544 674.873,96.642 L691.136,88.918 C692.388,88.309 693.79,88.176 695.103,88.528 L698.833,89.569 C699.321,89.7 699.692,90.01 699.879,90.424 C700.066,90.838 700.051,91.311 699.837,91.713 L698.339,94.604 C697.806,95.636 696.956,96.468 695.891,96.993 L646.055,120.876 C645.324,121.225 644.495,121.344 643.688,121.212 C641.318,120.826 639.158,122.591 639.158,124.912 L639.158,124.988 L643.043,124.987 L643.692,121.288 Z M642.394,128.687 C644.764,129.075 646.927,127.31 646.927,124.987 L646.927,124.912 L643.043,124.912 L642.397,128.612 C644.818,129.006 647.306,128.652 649.506,127.599 L699.384,103.696 C701.973,102.42 704.016,100.418 705.288,97.961 L706.764,95.109 C708.027,92.74 708.121,89.901 706.997,87.418 C705.874,84.935 703.652,83.073 700.95,82.348 L697.22,81.308 C694.007,80.446 690.617,80.767 687.674,82.2 L671.433,89.913 C670.098,90.553 668.517,90.408 667.342,89.544 L651.697,78.266 C648.206,75.713 643.494,75.278 639.541,77.156 L636.023,78.855 C634.104,79.782 633.326,82.036 634.286,83.89 L645.939,106.403 L647.713,101.351 L643.324,103.415 C642.176,103.973 640.879,103.973 639.78,103.438 L639.341,103.179 C635.821,101.457 631.93,101.457 628.632,103.063 L624.369,105.121 C622.451,106.048 621.673,108.302 622.632,110.155 L630.401,125.164 C630.955,126.235 632.005,126.986 633.226,127.186 L642.394,128.687 Z" />
        </g>
    </g>
</svg>