<?xml version="1.0" encoding="UTF-8"?>
<svg height="600" width="800" xmlns="http://www.w3.org/2000/svg" xmlns:xlink="http://www.w3.org/1999/xlink">
    <g id="Notes" font-family="LucidaGrande, 'Lucida Grande', sans-serif" font-size="13">
        <rect fill="white" height="600.0" width="800.0" x="0.0" y="0.0" />
        <g font-size="13">
            <text x="18.0" y="176.0">Small</text>
            <text x="18.0" y="376.0">Medium</text>
            <text x="18.0" y="576.0">Large</text>
        </g>
        <g font-size="9">
            <text x="250.0" y="30.0">Ultralight</text>
            <text x="450.0" y="30.0">Regular</text>
            <text x="650.0" y="30.0">Black</text>
            <text id="template-version" fill="#505050" text-anchor="end" x="785.0" y="575.0">Template v.3.0</text>
            <a href="https://github.com/swhitty/SwiftDraw">
                <text fill="#505050" text-anchor="end" x="785.0" y="590.0">https://github.com/swhitty/SwiftDraw</text>
            </a>
        </g>
    </g>
    <g id="Guides" stroke="rgb(39, 170, 225)" stroke-width="0.5">
        <path id="Capline-S" d="M18,76 l800,0" />
        <path id="H-reference" d="M85,145.755 L87.685,145.755 L113.369,79.287 L114.052,79.287 L114.052,76 L112.148,76 L85,145.755 Z M95.693,121.536 L130.996,121.536 L130.263,119.313 L96.474,119.313 L95.693,121.536 Z M139.15,145.755 L141.787,145.755 L114.638,76 L113.466,76 L113.466,79.287 L139.15,145.755 Z" stroke="none" transform="translate(0,200)" />
        <path id="Baseline-S" d="M18,146 l800,0" />
        <path id="left-margin-Ultralight-M" d="M231.667,256 l0,110" />
        <path id="right-margin-Ultralight-M" d="M298.333,256 l0,110" />
        <path id="left-margin-Regular-M" d="M431.667,256 l0,110" />
        <path id="right-margin-Regular-M" d="M498.333,256 l0,110" />
        <path id="left-margin-Black-M" d="M631.667,256 l0,110" />
        <path id="right-margin-Black-M" d="M698.333,256 l0,110" />
        <path id="Capline-M" d="M18,276 l800,0" />
        <path id="Baseline-M" d="M18,346 l800,0" />
        <path id="Capline-L" d="M18,476 l800,0" />
        <path id="Baseline-L" d="M18,546 l800,0" />
    </g>
    <g id="Symbols">
        <g id="Ultralight-M" transform="translate(0,200)">
            <path d="M246.972,139.353 C249.099,141.487 251.987,142.686 255,142.686 C258.013,142.686 260.901,141.487 263.028,139.353 L270.69,131.69 C271.992,130.389 271.992,128.278 270.69,126.976 L250.69,106.976 C249.389,105.675 247.278,105.675 245.976,106.976 L238.31,114.643 C236.18,116.765 234.98,119.654 234.98,122.667 C234.98,125.679 236.18,128.568 238.314,130.694 L246.976,139.357 Z M251.69,134.643 L243.024,125.976 C242.141,125.097 241.647,123.907 241.647,122.667 C241.647,121.426 242.141,120.237 243.02,119.361 L250.69,111.69 L245.976,111.69 L265.976,131.69 L265.976,126.976 L258.31,134.643 C257.43,135.526 256.24,136.02 255,136.02 C253.76,136.02 252.57,135.526 251.694,134.647 Z" />
            <path d="M237.357,145.024 L247.357,135.024 C248.659,133.722 248.659,131.611 247.357,130.31 C246.055,129.008 243.945,129.008 242.643,130.31 L232.643,140.31 C231.341,141.611 231.341,143.722 232.643,145.024 C233.945,146.325 236.055,146.325 237.357,145.024 Z" />
            <path d="M255.69,116.69 L264.024,108.357 C265.325,107.055 265.325,104.945 264.024,103.643 C262.722,102.341 260.611,102.341 259.31,103.643 L250.976,111.976 C249.675,113.278 249.675,115.389 250.976,116.69 C252.278,117.992 254.389,117.992 255.69,116.69 Z" />
            <path d="M265.69,126.69 L274.024,118.357 C275.325,117.055 275.325,114.945 274.024,113.643 C272.722,112.341 270.611,112.341 269.31,113.643 L260.976,121.976 C259.675,123.278 259.675,125.389 260.976,126.69 C262.278,127.992 264.389,127.992 265.69,126.69 Z" />
            <path d="M285.976,76.976 L272.643,90.31 C270.543,92.41 272.03,96 275,96 L295,96 L292.643,90.31 L279.31,103.643 C278.008,104.945 278.008,107.055 279.31,108.357 C280.611,109.659 282.722,109.659 284.024,108.357 L297.357,95.024 C299.457,92.924 297.97,89.333 295,89.333 L275,89.333 L277.357,95.024 L290.69,81.69 C291.992,80.389 291.992,78.278 290.69,76.976 C289.389,75.675 287.278,75.675 285.976,76.976 Z" />
        </g>
        <g id="Regular-M" transform="translate(0,200)">
            <path d="M446.972,139.353 C449.099,141.487 451.987,142.686 455,142.686 C458.013,142.686 460.901,141.487 463.028,139.353 L470.69,131.69 C471.992,130.389 471.992,128.278 470.69,126.976 L450.69,106.976 C449.389,105.675 447.278,105.675 445.976,106.976 L438.31,114.643 C436.18,116.765 434.98,119.654 434.98,122.667 C434.98,125.679 436.18,128.568 438.314,130.694 L446.976,139.357 Z M451.69,134.643 L443.024,125.976 C442.141,125.097 441.647,123.907 441.647,122.667 C441.647,121.426 442.141,120.237 443.02,119.361 L450.69,111.69 L445.976,111.69 L465.976,131.69 L465.976,126.976 L458.31,134.643 C457.43,135.526 456.24,136.02 455,136.02 C453.76,136.02 452.57,135.526 451.694,134.647 Z" />
            <path d="M437.357,145.024 L447.357,135.024 C448.659,133.722 448.659,131.611 447.357,130.31 C446.055,129.008 443.945,129.008 442.643,130.31 L432.643,140.31 C431.341,141.611 431.341,143.722 432.643,145.024 C433.945,146.325 436.055,146.325 437.357,145.024 Z" />
            <path d="M455.69,116.69 L464.024,108.357 C465.325,107.055 465.325,104.945 464.024,103.643 C462.722,102.341 460.611,102.341 459.31,103.643 L450.976,111.976 C449.675,113.278 449.675,115.389 450.976,116.69 C452.278,117.992 454.389,117.992 455.69,116.69 Z" />
            <path d="M465.69,126.69 L474.024,118.357 C475.325,117.055 475.325,114.945 474.024,113.643 C472.722,112.341 470.611,112.341 469.31,113.643 L460.976,121.976 C459.675,123.278 459.675,125.389 460.976,126.69 C462.278,127.992 464.389,127.992 465.69,126.69 Z" />
            <path d="M485.976,76.976 L472.643,90.31 C470.543,92.41 472.03,96 475,96 L495,96 L492.643,90.31 L479.31,103.643 C478.008,104.945 478.008,107.055 479.31,108.357 C480.611,109.659 482.722,109.659 484.024,108.357 L497.357,95.024 C499.457,92.924 497.97,89.333 495,89.333 L475,89.333 L477.357,95.024 L490.69,81.69 C491.992,80.389 491.992,78.278 490.69,76.976 C489.389,75.675 487.278,75.675 485.976,76.976 Z" />
        </g>
        <g id="Black-M" transform="translate(0,200)">
            <path d="M646.972,139.353 C649.099,141.487 651.987,142.686 655,142.686 C658.013,142.686 660.901,141.487 663.028,139.353 L670.69,131.69 C671.992,130.389 671.992,128.278 670.69,126.976 L650.69,106.976 C649.389,105.675 647.278,105.675 645.976,106.976 L638.31,114.643 C636.18,116.765 634.98,119.654 634.98,122.667 C634.98,125.679 636.18,128.568 638.314,130.694 L646.976,139.357 Z M651.69,134.643 L643.024,125.976 C642.141,125.097 641.647,123.907 641.647,122.667 C641.647,121.426 642.141,120.237 643.02,119.361 L650.69,111.69 L645.976,111.69 L665.976,131.69 L665.976,126.976 L658.31,134.643 C657.43,135.526 656.24,136.02 655,136.02 C653.76,136.02 652.57,135.526 651.694,134.647 Z" />
            <path d="M637.357,145.024 L647.357,135.024 C648.659,133.722 648.659,131.611 647.357,130.31 C646.055,129.008 643.945,129.008 642.643,130.31 L632.643,140.31 C631.341,141.611 631.341,143.722 632.643,145.024 C633.945,146.325 636.055,146.325 637.357,145.024 Z" />
            <path d="M655.69,116.69 L664.024,108.357 C665.325,107.055 665.325,104.945 664.024,103.643 C662.722,102.341 660.611,102.341 659.31,103.643 L650.976,111.976 C649.675,113.278 649.675,115.389 650.976,116.69 C652.278,117.992 654.389,117.992 655.69,116.69 Z" />
            <path d="M665.69,126.69 L674.024,118.357 C675.325,117.055 675.325,114.945 674.024,113.643 C672.722,112.341 670.611,112.341 669.31,113.643 L660.976,121.976 C659.675,123.278 659.675,125.389 660.976,126.69 C662.278,127.992 664.389,127.992 665.69,126.69 Z" />
            <path d="M685.976,76.976 L672.643,90.31 C670.543,92.41 672.03,96 675,96 L695,96 L692.643,90.31 L679.31,103.643 C678.008,104.945 678.008,107.055 679.31,108.357 C680.611,109.659 682.722,109.659 684.024,108.357 L697.357,95.024 C699.457,92.924 697.97,89.333 695,89.333 L675,89.333 L677.357,95.024 L690.69,81.69 C691.992,80.389 691.992,78.278 690.69,76.976 C689.389,75.675 687.278,75.675 685.976,76.976 Z" />
        </g>
    </g>
</svg>