<?xml version="1.0" encoding="UTF-8"?>
<svg height="600" width="800" xmlns="http://www.w3.org/2000/svg" xmlns:xlink="http://www.w3.org/1999/xlink">
    <g id="Notes" font-family="LucidaGrande, 'Lucida Grande', sans-serif" font-size="13">
        <rect fill="white" height="600.0" width="800.0" x="0.0" y="0.0" />
        <g font-size="13">
            <text x="18.0" y="176.0">Small</text>
            <text x="18.0" y="376.0">Medium</text>
            <text x="18.0" y="576.0">Large</text>
        </g>
        <g font-size="9">
            <text x="250.0" y="30.0">Ultralight</text>
            <text x="450.0" y="30.0">Regular</text>
            <text x="650.0" y="30.0">Black</text>
            <text id="template-version" fill="#505050" text-anchor="end" x="785.0" y="575.0">Template v.3.0</text>
            <a href="https://github.com/swhitty/SwiftDraw">
                <text fill="#505050" text-anchor="end" x="785.0" y="590.0">https://github.com/swhitty/SwiftDraw</text>
            </a>
        </g>
    </g>
    <g id="Guides" stroke="rgb(39, 170, 225)" stroke-width="0.5">
        <path id="Capline-S" d="M18,76 l800,0" />
        <path id="H-reference" d="M85,145.755 L87.685,145.755 L113.369,79.287 L114.052,79.287 L114.052,76 L112.148,76 L85,145.755 Z M95.693,121.536 L130.996,121.536 L130.263,119.313 L96.474,119.313 L95.693,121.536 Z M139.15,145.755 L141.787,145.755 L114.638,76 L113.466,76 L113.466,79.287 L139.15,145.755 Z" stroke="none" transform="translate(0,200)" />
        <path id="Baseline-S" d="M18,146 l800,0" />
        <path id="left-margin-Ultralight-M" d="M230,256 l0,110" />
        <path id="right-margin-Ultralight-M" d="M300,256 l0,110" />
        <path id="left-margin-Regular-M" d="M430,256 l0,110" />
        <path id="right-margin-Regular-M" d="M500,256 l0,110" />
        <path id="left-margin-Black-M" d="M630,256 l0,110" />
        <path id="right-margin-Black-M" d="M700,256 l0,110" />
        <path id="Capline-M" d="M18,276 l800,0" />
        <path id="Baseline-M" d="M18,346 l800,0" />
        <path id="Capline-L" d="M18,476 l800,0" />
        <path id="Baseline-L" d="M18,546 l800,0" />
    </g>
    <g id="Symbols">
        <g id="Ultralight-M" transform="translate(0,200)">
            <path d="M262.037,87.129 L262.037,85.539 C262.037,82.668 260.749,79.948 258.531,78.137 C256.313,76.326 253.4,75.616 250.603,76.204 C248.893,76.563 247.796,78.248 248.154,79.967 C248.512,81.686 250.188,82.788 251.898,82.428 C252.831,82.232 253.802,82.469 254.541,83.073 C255.28,83.677 255.71,84.583 255.71,85.539 L255.71,87.129 C255.71,88.885 257.126,90.308 258.873,90.308 C260.621,90.308 262.037,88.885 262.037,87.129 Z" />
            <path d="M274.231,98.581 C273.329,95.683 271.109,93.389 268.252,92.404 C266.599,91.834 264.8,92.719 264.233,94.38 C263.666,96.041 264.546,97.85 266.199,98.42 C267.151,98.748 267.891,99.512 268.192,100.478 C268.713,102.154 270.488,103.088 272.155,102.564 C273.823,102.04 274.752,100.257 274.231,98.581 Z" />
            <path d="M298.932,125.194 C299.65,122.633 300.01,119.984 300,117.324 L300,107.797 C300,102.528 295.751,98.258 290.509,98.258 C285.268,98.258 281.018,102.528 281.018,107.797 L287.346,107.797 L287.346,104.617 C287.344,100.466 284.672,96.793 280.739,95.532 C276.805,94.271 272.512,95.711 270.12,99.093 C269.107,100.524 269.441,102.509 270.865,103.527 C272.289,104.544 274.264,104.209 275.276,102.777 C276.074,101.65 277.505,101.17 278.816,101.591 C280.127,102.011 281.018,103.235 281.018,104.619 L281.018,107.797 C281.018,112.036 287.346,112.036 287.346,107.797 C287.346,106.041 288.762,104.617 290.509,104.617 C292.256,104.617 293.673,106.041 293.673,107.797 L293.673,117.336 C293.68,119.417 293.401,121.477 292.842,123.468 C292.368,125.158 293.347,126.915 295.029,127.391 C296.711,127.868 298.458,126.884 298.932,125.194 Z" />
            <path d="M251.62,118.267 L245.925,112.544 C241.996,109.035 236.235,109.245 232.697,112.889 C229.16,116.534 229.094,122.328 232.547,126.053 L243.967,137.693 C249.579,143.433 257.399,146.446 265.397,145.947 L271.528,145.953 C279.079,145.953 286.321,142.938 291.661,137.571 C292.896,136.33 292.896,134.316 291.661,133.075 C290.426,131.833 288.423,131.833 287.187,133.075 C283.034,137.249 277.401,139.594 271.528,139.593 L265.201,139.593 C258.837,139.984 252.807,137.661 248.475,133.231 L237.114,121.653 C236.025,120.476 236.047,118.545 237.226,117.33 C238.405,116.115 240.326,116.045 241.589,117.171 L247.146,122.764 C248.381,124.005 250.384,124.005 251.62,122.764 C252.855,121.522 252.855,119.509 251.62,118.267 Z" />
            <path d="M243.055,91.898 L243.055,117.336 C243.055,119.092 244.472,120.515 246.219,120.515 C247.966,120.515 249.383,119.092 249.383,117.336 L249.383,91.898 C249.383,90.142 247.966,88.719 246.219,88.719 C244.472,88.719 243.055,90.142 243.055,91.898 Z" />
            <path d="M231.328,81.428 L294.599,145.021 C295.835,146.263 297.838,146.263 299.073,145.021 C300.309,143.78 300.309,141.766 299.073,140.525 L235.802,76.931 C234.566,75.69 232.563,75.69 231.328,76.931 C230.092,78.173 230.092,80.186 231.328,81.428 Z" />
        </g>
        <g id="Regular-M" transform="translate(0,200)">
            <path d="M462.037,87.129 L462.037,85.539 C462.037,82.668 460.749,79.948 458.531,78.137 C456.313,76.326 453.4,75.616 450.603,76.204 C448.893,76.563 447.796,78.248 448.154,79.967 C448.512,81.686 450.188,82.788 451.898,82.428 C452.831,82.232 453.802,82.469 454.541,83.073 C455.28,83.677 455.71,84.583 455.71,85.539 L455.71,87.129 C455.71,88.885 457.126,90.308 458.873,90.308 C460.621,90.308 462.037,88.885 462.037,87.129 Z" />
            <path d="M474.231,98.581 C473.329,95.683 471.109,93.389 468.252,92.404 C466.599,91.834 464.8,92.719 464.233,94.38 C463.666,96.041 464.546,97.85 466.199,98.42 C467.151,98.748 467.891,99.512 468.192,100.478 C468.713,102.154 470.488,103.088 472.155,102.564 C473.823,102.04 474.752,100.257 474.231,98.581 Z" />
            <path d="M498.932,125.194 C499.65,122.633 500.01,119.984 500,117.324 L500,107.797 C500,102.528 495.751,98.258 490.509,98.258 C485.268,98.258 481.018,102.528 481.018,107.797 L487.346,107.797 L487.346,104.617 C487.344,100.466 484.672,96.793 480.739,95.532 C476.805,94.271 472.512,95.711 470.12,99.093 C469.107,100.524 469.441,102.509 470.865,103.527 C472.289,104.544 474.264,104.209 475.276,102.777 C476.074,101.65 477.505,101.17 478.816,101.591 C480.127,102.011 481.018,103.235 481.018,104.619 L481.018,107.797 C481.018,112.036 487.346,112.036 487.346,107.797 C487.346,106.041 488.762,104.617 490.509,104.617 C492.256,104.617 493.673,106.041 493.673,107.797 L493.673,117.336 C493.68,119.417 493.401,121.477 492.842,123.468 C492.368,125.158 493.347,126.915 495.029,127.391 C496.711,127.868 498.458,126.884 498.932,125.194 Z" />
            <path d="M451.62,118.267 L445.925,112.544 C441.996,109.035 436.235,109.245 432.697,112.889 C429.16,116.534 429.094,122.328 432.547,126.053 L443.967,137.693 C449.579,143.433 457.399,146.446 465.397,145.947 L471.528,145.953 C479.079,145.953 486.321,142.938 491.661,137.571 C492.896,136.33 492.896,134.316 491.661,133.075 C490.426,131.833 488.423,131.833 487.187,133.075 C483.034,137.249 477.401,139.594 471.528,139.593 L465.201,139.593 C458.837,139.984 452.807,137.661 448.475,133.231 L437.114,121.653 C436.025,120.476 436.047,118.545 437.226,117.33 C438.405,116.115 440.326,116.045 441.589,117.171 L447.146,122.764 C448.381,124.005 450.384,124.005 451.62,122.764 C452.855,121.522 452.855,119.509 451.62,118.267 Z" />
            <path d="M443.055,91.898 L443.055,117.336 C443.055,119.092 444.472,120.515 446.219,120.515 C447.966,120.515 449.383,119.092 449.383,117.336 L449.383,91.898 C449.383,90.142 447.966,88.719 446.219,88.719 C444.472,88.719 443.055,90.142 443.055,91.898 Z" />
            <path d="M431.328,81.428 L494.599,145.021 C495.835,146.263 497.838,146.263 499.073,145.021 C500.309,143.78 500.309,141.766 499.073,140.525 L435.802,76.931 C434.566,75.69 432.563,75.69 431.328,76.931 C430.092,78.173 430.092,80.186 431.328,81.428 Z" />
        </g>
        <g id="Black-M" transform="translate(0,200)">
            <path d="M662.037,87.129 L662.037,85.539 C662.037,82.668 660.749,79.948 658.531,78.137 C656.313,76.326 653.401,75.616 650.603,76.204 C648.893,76.563 647.796,78.248 648.154,79.967 C648.512,81.686 650.188,82.788 651.898,82.428 C652.831,82.232 653.802,82.469 654.541,83.073 C655.28,83.677 655.71,84.583 655.71,85.539 L655.71,87.129 C655.71,88.885 657.126,90.308 658.873,90.308 C660.621,90.308 662.037,88.885 662.037,87.129 Z" />
            <path d="M674.231,98.581 C673.329,95.683 671.109,93.389 668.252,92.404 C666.599,91.834 664.8,92.719 664.233,94.38 C663.666,96.041 664.546,97.85 666.199,98.42 C667.151,98.748 667.891,99.512 668.192,100.478 C668.713,102.154 670.488,103.088 672.155,102.564 C673.823,102.04 674.752,100.257 674.231,98.581 Z" />
            <path d="M698.932,125.194 C699.65,122.633 700.01,119.984 700,117.324 L700,107.797 C700,102.528 695.751,98.258 690.509,98.258 C685.268,98.258 681.018,102.528 681.018,107.797 L687.346,107.797 L687.346,104.617 C687.344,100.466 684.672,96.793 680.739,95.532 C676.805,94.271 672.512,95.711 670.12,99.093 C669.107,100.524 669.441,102.509 670.865,103.527 C672.289,104.544 674.264,104.209 675.276,102.777 C676.074,101.65 677.505,101.17 678.816,101.591 C680.127,102.011 681.018,103.235 681.018,104.619 L681.018,107.797 C681.018,112.036 687.346,112.036 687.346,107.797 C687.346,106.041 688.762,104.617 690.509,104.617 C692.256,104.617 693.673,106.041 693.673,107.797 L693.673,117.336 C693.68,119.417 693.401,121.477 692.842,123.468 C692.368,125.158 693.347,126.915 695.029,127.391 C696.711,127.868 698.458,126.884 698.932,125.194 Z" />
            <path d="M651.62,118.267 L645.925,112.544 C641.996,109.035 636.235,109.245 632.697,112.889 C629.16,116.534 629.094,122.328 632.547,126.053 L643.967,137.693 C649.579,143.433 657.399,146.446 665.396,145.947 L671.528,145.953 C679.079,145.953 686.321,142.938 691.661,137.571 C692.896,136.33 692.896,134.316 691.661,133.075 C690.426,131.833 688.423,131.833 687.187,133.075 C683.034,137.249 677.401,139.594 671.528,139.593 L665.201,139.593 C658.837,139.984 652.807,137.661 648.475,133.231 L637.114,121.653 C636.025,120.476 636.047,118.545 637.226,117.33 C638.405,116.115 640.326,116.045 641.589,117.171 L647.146,122.764 C648.381,124.005 650.384,124.005 651.62,122.764 C652.855,121.522 652.855,119.509 651.62,118.267 Z" />
            <path d="M643.055,91.898 L643.055,117.336 C643.055,119.092 644.472,120.515 646.219,120.515 C647.966,120.515 649.383,119.092 649.383,117.336 L649.383,91.898 C649.383,90.142 647.966,88.719 646.219,88.719 C644.472,88.719 643.055,90.142 643.055,91.898 Z" />
            <path d="M631.328,81.428 L694.599,145.021 C695.835,146.263 697.838,146.263 699.073,145.021 C700.309,143.78 700.309,141.766 699.073,140.525 L635.802,76.931 C634.566,75.69 632.563,75.69 631.328,76.931 C630.092,78.173 630.092,80.186 631.328,81.428 Z" />
        </g>
    </g>
</svg>