<?xml version="1.0" encoding="UTF-8"?>
<svg height="600" width="800" xmlns="http://www.w3.org/2000/svg" xmlns:xlink="http://www.w3.org/1999/xlink">
    <g id="Notes" font-family="LucidaGrande, 'Lucida Grande', sans-serif" font-size="13">
        <rect fill="white" height="600.0" width="800.0" x="0.0" y="0.0" />
        <g font-size="13">
            <text x="18.0" y="176.0">Small</text>
            <text x="18.0" y="376.0">Medium</text>
            <text x="18.0" y="576.0">Large</text>
        </g>
        <g font-size="9">
            <text x="250.0" y="30.0">Ultralight</text>
            <text x="450.0" y="30.0">Regular</text>
            <text x="650.0" y="30.0">Black</text>
            <text id="template-version" fill="#505050" text-anchor="end" x="785.0" y="575.0">Template v.3.0</text>
            <a href="https://github.com/swhitty/SwiftDraw">
                <text fill="#505050" text-anchor="end" x="785.0" y="590.0">https://github.com/swhitty/SwiftDraw</text>
            </a>
        </g>
    </g>
    <g id="Guides" stroke="rgb(39, 170, 225)" stroke-width="0.5">
        <path id="Capline-S" d="M18,76 l800,0" />
        <path id="H-reference" d="M85,145.755 L87.685,145.755 L113.369,79.287 L114.052,79.287 L114.052,76 L112.148,76 L85,145.755 Z M95.693,121.536 L130.996,121.536 L130.263,119.313 L96.474,119.313 L95.693,121.536 Z M139.15,145.755 L141.787,145.755 L114.638,76 L113.466,76 L113.466,79.287 L139.15,145.755 Z" stroke="none" transform="translate(0,200)" />
        <path id="Baseline-S" d="M18,146 l800,0" />
        <path id="left-margin-Ultralight-M" d="M230,256 l0,110" />
        <path id="right-margin-Ultralight-M" d="M300,256 l0,110" />
        <path id="left-margin-Regular-M" d="M430,256 l0,110" />
        <path id="right-margin-Regular-M" d="M500,256 l0,110" />
        <path id="left-margin-Black-M" d="M630,256 l0,110" />
        <path id="right-margin-Black-M" d="M700,256 l0,110" />
        <path id="Capline-M" d="M18,276 l800,0" />
        <path id="Baseline-M" d="M18,346 l800,0" />
        <path id="Capline-L" d="M18,476 l800,0" />
        <path id="Baseline-L" d="M18,546 l800,0" />
    </g>
    <g id="Symbols">
        <g id="Ultralight-M" transform="translate(0,200)">
            <path d="M245.909,126.909 L239.545,126.909 C238.702,126.909 237.892,126.574 237.296,125.977 C236.699,125.38 236.364,124.571 236.364,123.727 L236.364,107.818 C236.364,106.974 236.699,106.165 237.296,105.568 C237.892,104.972 238.702,104.636 239.545,104.636 L290.455,104.636 C291.298,104.636 292.108,104.972 292.704,105.568 C293.301,106.165 293.636,106.974 293.636,107.818 L293.636,123.727 C293.636,124.571 293.301,125.38 292.704,125.977 C292.108,126.574 291.298,126.909 290.455,126.909 L284.091,126.909 C282.334,126.909 280.909,128.334 280.909,130.091 C280.909,131.848 282.334,133.273 284.091,133.273 L290.455,133.273 C292.986,133.273 295.414,132.267 297.204,130.477 C298.994,128.687 300,126.259 300,123.727 L300,107.818 C300,105.287 298.994,102.859 297.204,101.069 C295.414,99.278 292.986,98.273 290.455,98.273 L239.545,98.273 C237.014,98.273 234.586,99.278 232.796,101.069 C231.006,102.859 230,105.287 230,107.818 L230,123.727 C230,126.259 231.006,128.687 232.796,130.477 C234.586,132.267 237.014,133.273 239.545,133.273 L245.909,133.273 C247.666,133.273 249.091,131.848 249.091,130.091 C249.091,128.334 247.666,126.909 245.909,126.909 Z" />
            <path d="M249.091,101.455 L249.091,82.364 C249.091,82.364 249.091,82.364 249.091,82.364 C249.091,82.364 249.091,82.364 249.091,82.364 L280.909,82.364 C280.909,82.364 280.909,82.364 280.909,82.364 C280.909,82.364 280.909,82.364 280.909,82.364 L280.909,101.455 C280.909,103.212 282.334,104.636 284.091,104.636 C285.848,104.636 287.273,103.212 287.273,101.455 L287.273,82.364 C287.273,80.676 286.602,79.057 285.409,77.864 C284.215,76.67 282.597,76 280.909,76 L249.091,76 C247.403,76 245.785,76.67 244.591,77.864 C243.398,79.057 242.727,80.676 242.727,82.364 L242.727,101.455 C242.727,103.212 244.152,104.636 245.909,104.636 C247.666,104.636 249.091,103.212 249.091,101.455 Z" />
            <path d="M280.909,130.091 L280.909,139.636 C280.909,139.636 280.909,139.636 280.909,139.636 C280.909,139.636 280.909,139.636 280.909,139.636 L249.091,139.636 C249.091,139.636 249.091,139.636 249.091,139.636 C249.091,139.636 249.091,139.636 249.091,139.636 L249.091,120.545 C249.091,120.545 249.091,120.545 249.091,120.545 C249.091,120.545 249.091,120.545 249.091,120.545 L280.909,120.545 C280.909,120.545 280.909,120.545 280.909,120.545 C280.909,120.545 280.909,120.545 280.909,120.545 L280.909,130.091 Z M287.273,130.091 L287.273,120.545 C287.273,118.858 286.602,117.239 285.409,116.046 C284.215,114.852 282.597,114.182 280.909,114.182 L249.091,114.182 C247.403,114.182 245.785,114.852 244.591,116.046 C243.398,117.239 242.727,118.858 242.727,120.545 L242.727,139.636 C242.727,141.324 243.398,142.943 244.591,144.136 C245.785,145.33 247.403,146 249.091,146 L280.909,146 C282.597,146 284.215,145.33 285.409,144.136 C286.602,142.943 287.273,141.324 287.273,139.636 L287.273,130.091 Z" />
        </g>
        <g id="Regular-M" transform="translate(0,200)">
            <path d="M445.909,126.909 L439.545,126.909 C438.702,126.909 437.892,126.574 437.296,125.977 C436.699,125.38 436.364,124.571 436.364,123.727 L436.364,107.818 C436.364,106.974 436.699,106.165 437.296,105.568 C437.892,104.972 438.702,104.636 439.545,104.636 L490.455,104.636 C491.298,104.636 492.108,104.972 492.704,105.568 C493.301,106.165 493.636,106.974 493.636,107.818 L493.636,123.727 C493.636,124.571 493.301,125.38 492.704,125.977 C492.108,126.574 491.298,126.909 490.455,126.909 L484.091,126.909 C482.334,126.909 480.909,128.334 480.909,130.091 C480.909,131.848 482.334,133.273 484.091,133.273 L490.455,133.273 C492.986,133.273 495.414,132.267 497.204,130.477 C498.994,128.687 500,126.259 500,123.727 L500,107.818 C500,105.287 498.994,102.859 497.204,101.069 C495.414,99.278 492.986,98.273 490.455,98.273 L439.545,98.273 C437.014,98.273 434.586,99.278 432.796,101.069 C431.006,102.859 430,105.287 430,107.818 L430,123.727 C430,126.259 431.006,128.687 432.796,130.477 C434.586,132.267 437.014,133.273 439.545,133.273 L445.909,133.273 C447.666,133.273 449.091,131.848 449.091,130.091 C449.091,128.334 447.666,126.909 445.909,126.909 Z" />
            <path d="M449.091,101.455 L449.091,82.364 C449.091,82.364 449.091,82.364 449.091,82.364 C449.091,82.364 449.091,82.364 449.091,82.364 L480.909,82.364 C480.909,82.364 480.909,82.364 480.909,82.364 C480.909,82.364 480.909,82.364 480.909,82.364 L480.909,101.455 C480.909,103.212 482.334,104.636 484.091,104.636 C485.848,104.636 487.273,103.212 487.273,101.455 L487.273,82.364 C487.273,80.676 486.602,79.057 485.409,77.864 C484.215,76.67 482.597,76 480.909,76 L449.091,76 C447.403,76 445.785,76.67 444.591,77.864 C443.398,79.057 442.727,80.676 442.727,82.364 L442.727,101.455 C442.727,103.212 444.152,104.636 445.909,104.636 C447.666,104.636 449.091,103.212 449.091,101.455 Z" />
            <path d="M480.909,130.091 L480.909,139.636 C480.909,139.636 480.909,139.636 480.909,139.636 C480.909,139.636 480.909,139.636 480.909,139.636 L449.091,139.636 C449.091,139.636 449.091,139.636 449.091,139.636 C449.091,139.636 449.091,139.636 449.091,139.636 L449.091,120.545 C449.091,120.545 449.091,120.545 449.091,120.545 C449.091,120.545 449.091,120.545 449.091,120.545 L480.909,120.545 C480.909,120.545 480.909,120.545 480.909,120.545 C480.909,120.545 480.909,120.545 480.909,120.545 L480.909,130.091 Z M487.273,130.091 L487.273,120.545 C487.273,118.858 486.602,117.239 485.409,116.046 C484.215,114.852 482.597,114.182 480.909,114.182 L449.091,114.182 C447.403,114.182 445.785,114.852 444.591,116.046 C443.398,117.239 442.727,118.858 442.727,120.545 L442.727,139.636 C442.727,141.324 443.398,142.943 444.591,144.136 C445.785,145.33 447.403,146 449.091,146 L480.909,146 C482.597,146 484.215,145.33 485.409,144.136 C486.602,142.943 487.273,141.324 487.273,139.636 L487.273,130.091 Z" />
        </g>
        <g id="Black-M" transform="translate(0,200)">
            <path d="M645.909,126.909 L639.545,126.909 C638.702,126.909 637.892,126.574 637.296,125.977 C636.699,125.38 636.364,124.571 636.364,123.727 L636.364,107.818 C636.364,106.974 636.699,106.165 637.296,105.568 C637.892,104.972 638.702,104.636 639.545,104.636 L690.455,104.636 C691.298,104.636 692.108,104.972 692.704,105.568 C693.301,106.165 693.636,106.974 693.636,107.818 L693.636,123.727 C693.636,124.571 693.301,125.38 692.704,125.977 C692.108,126.574 691.298,126.909 690.455,126.909 L684.091,126.909 C682.334,126.909 680.909,128.334 680.909,130.091 C680.909,131.848 682.334,133.273 684.091,133.273 L690.455,133.273 C692.986,133.273 695.414,132.267 697.204,130.477 C698.994,128.687 700,126.259 700,123.727 L700,107.818 C700,105.287 698.994,102.859 697.204,101.069 C695.414,99.278 692.986,98.273 690.455,98.273 L639.545,98.273 C637.014,98.273 634.586,99.278 632.796,101.069 C631.006,102.859 630,105.287 630,107.818 L630,123.727 C630,126.259 631.006,128.687 632.796,130.477 C634.586,132.267 637.014,133.273 639.545,133.273 L645.909,133.273 C647.666,133.273 649.091,131.848 649.091,130.091 C649.091,128.334 647.666,126.909 645.909,126.909 Z" />
            <path d="M649.091,101.455 L649.091,82.364 C649.091,82.364 649.091,82.364 649.091,82.364 C649.091,82.364 649.091,82.364 649.091,82.364 L680.909,82.364 C680.909,82.364 680.909,82.364 680.909,82.364 C680.909,82.364 680.909,82.364 680.909,82.364 L680.909,101.455 C680.909,103.212 682.334,104.636 684.091,104.636 C685.848,104.636 687.273,103.212 687.273,101.455 L687.273,82.364 C687.273,80.676 686.602,79.057 685.409,77.864 C684.215,76.67 682.597,76 680.909,76 L649.091,76 C647.403,76 645.785,76.67 644.591,77.864 C643.398,79.057 642.727,80.676 642.727,82.364 L642.727,101.455 C642.727,103.212 644.152,104.636 645.909,104.636 C647.666,104.636 649.091,103.212 649.091,101.455 Z" />
            <path d="M680.909,130.091 L680.909,139.636 C680.909,139.636 680.909,139.636 680.909,139.636 C680.909,139.636 680.909,139.636 680.909,139.636 L649.091,139.636 C649.091,139.636 649.091,139.636 649.091,139.636 C649.091,139.636 649.091,139.636 649.091,139.636 L649.091,120.545 C649.091,120.545 649.091,120.545 649.091,120.545 C649.091,120.545 649.091,120.545 649.091,120.545 L680.909,120.545 C680.909,120.545 680.909,120.545 680.909,120.545 C680.909,120.545 680.909,120.545 680.909,120.545 L680.909,130.091 Z M687.273,130.091 L687.273,120.545 C687.273,118.858 686.602,117.239 685.409,116.046 C684.215,114.852 682.597,114.182 680.909,114.182 L649.091,114.182 C647.403,114.182 645.785,114.852 644.591,116.046 C643.398,117.239 642.727,118.858 642.727,120.545 L642.727,139.636 C642.727,141.324 643.398,142.943 644.591,144.136 C645.785,145.33 647.403,146 649.091,146 L680.909,146 C682.597,146 684.215,145.33 685.409,144.136 C686.602,142.943 687.273,141.324 687.273,139.636 L687.273,130.091 Z" />
        </g>
    </g>
</svg>