<?xml version="1.0" encoding="UTF-8"?>
<svg height="600" width="800" xmlns="http://www.w3.org/2000/svg" xmlns:xlink="http://www.w3.org/1999/xlink">
    <g id="Notes" font-family="LucidaGrande, 'Lucida Grande', sans-serif" font-size="13">
        <rect fill="white" height="600.0" width="800.0" x="0.0" y="0.0" />
        <g font-size="13">
            <text x="18.0" y="176.0">Small</text>
            <text x="18.0" y="376.0">Medium</text>
            <text x="18.0" y="576.0">Large</text>
        </g>
        <g font-size="9">
            <text x="250.0" y="30.0">Ultralight</text>
            <text x="450.0" y="30.0">Regular</text>
            <text x="650.0" y="30.0">Black</text>
            <text id="template-version" fill="#505050" text-anchor="end" x="785.0" y="575.0">Template v.3.0</text>
            <a href="https://github.com/swhitty/SwiftDraw">
                <text fill="#505050" text-anchor="end" x="785.0" y="590.0">https://github.com/swhitty/SwiftDraw</text>
            </a>
        </g>
    </g>
    <g id="Guides" stroke="rgb(39, 170, 225)" stroke-width="0.5">
        <path id="Capline-S" d="M18,76 l800,0" />
        <path id="H-reference" d="M85,145.755 L87.685,145.755 L113.369,79.287 L114.052,79.287 L114.052,76 L112.148,76 L85,145.755 Z M95.693,121.536 L130.996,121.536 L130.263,119.313 L96.474,119.313 L95.693,121.536 Z M139.15,145.755 L141.787,145.755 L114.638,76 L113.466,76 L113.466,79.287 L139.15,145.755 Z" stroke="none" transform="translate(0,200)" />
        <path id="Baseline-S" d="M18,146 l800,0" />
        <path id="left-margin-Ultralight-M" d="M224.474,256 l0,110" />
        <path id="right-margin-Ultralight-M" d="M305.526,256 l0,110" />
        <path id="left-margin-Regular-M" d="M424.474,256 l0,110" />
        <path id="right-margin-Regular-M" d="M505.526,256 l0,110" />
        <path id="left-margin-Black-M" d="M624.474,256 l0,110" />
        <path id="right-margin-Black-M" d="M705.526,256 l0,110" />
        <path id="Capline-M" d="M18,276 l800,0" />
        <path id="Baseline-M" d="M18,346 l800,0" />
        <path id="Capline-L" d="M18,476 l800,0" />
        <path id="Baseline-L" d="M18,546 l800,0" />
    </g>
    <g id="Symbols">
        <g id="Ultralight-M" transform="translate(0,200)">
            <path d="M241.816,91.816 L234.447,84.448 C233.008,83.009 230.676,83.009 229.237,84.448 C227.798,85.886 227.798,88.219 229.237,89.658 L236.605,97.026 C238.044,98.465 240.377,98.465 241.816,97.026 C243.254,95.587 243.254,93.255 241.816,91.816 Z" />
            <path d="M257.632,90.737 L257.632,79.684 C257.632,77.649 255.982,76 253.947,76 C251.913,76 250.263,77.649 250.263,79.684 L250.263,90.737 C250.263,92.772 251.913,94.421 253.947,94.421 C255.982,94.421 257.632,92.772 257.632,90.737 Z" />
            <path d="M271.289,97.026 L278.658,89.658 C280.097,88.219 280.097,85.886 278.658,84.448 C277.219,83.009 274.886,83.009 273.448,84.448 L266.079,91.816 C264.64,93.255 264.64,95.587 266.079,97.026 C267.518,98.465 269.851,98.465 271.289,97.026 Z" />
            <path d="M246.579,116.526 C246.579,112.457 249.878,109.158 253.947,109.158 C258.017,109.158 261.316,112.457 261.316,116.526 C261.316,120.596 258.017,123.895 253.947,123.895 C249.878,123.895 246.579,120.596 246.579,116.526 Z M239.211,116.526 C239.211,124.665 245.808,131.263 253.947,131.263 C262.086,131.263 268.684,124.665 268.684,116.526 C268.684,108.387 262.086,101.789 253.947,101.789 C245.808,101.789 239.211,108.387 239.211,116.526 Z" />
            <path d="M264.374,116.526 L294.474,116.526 C295.451,116.526 296.388,116.914 297.079,117.605 C297.77,118.296 298.158,119.233 298.158,120.211 L298.158,134.947 C298.158,135.924 297.77,136.862 297.079,137.552 C296.388,138.243 295.451,138.632 294.474,138.632 L235.526,138.632 C234.549,138.632 233.612,138.243 232.921,137.552 C232.23,136.862 231.842,135.924 231.842,134.947 L231.842,120.211 C231.842,119.233 232.23,118.296 232.921,117.605 C233.612,116.914 234.549,116.526 235.526,116.526 L243.521,116.526 C245.556,116.526 247.205,114.877 247.205,112.842 C247.205,110.807 245.556,109.158 243.521,109.158 L235.526,109.158 C232.595,109.158 229.784,110.322 227.711,112.395 C225.638,114.468 224.474,117.279 224.474,120.211 L224.474,134.947 C224.474,137.879 225.638,140.69 227.711,142.763 C229.784,144.836 232.595,146 235.526,146 L294.474,146 C297.405,146 300.216,144.836 302.289,142.763 C304.362,140.69 305.526,137.879 305.526,134.947 L305.526,120.211 C305.526,117.279 304.362,114.468 302.289,112.395 C300.216,110.322 297.405,109.158 294.474,109.158 L264.374,109.158 C262.339,109.158 260.689,110.807 260.689,112.842 C260.689,114.877 262.339,116.526 264.374,116.526 Z" />
            <path d="M279.737,131.263 L287.105,131.263 C289.14,131.263 290.789,129.614 290.789,127.579 C290.789,125.544 289.14,123.895 287.105,123.895 L279.737,123.895 C277.702,123.895 276.053,125.544 276.053,127.579 C276.053,129.614 277.702,131.263 279.737,131.263 Z" />
        </g>
        <g id="Regular-M" transform="translate(0,200)">
            <path d="M441.816,91.816 L434.447,84.448 C433.008,83.009 430.676,83.009 429.237,84.448 C427.798,85.886 427.798,88.219 429.237,89.658 L436.605,97.026 C438.044,98.465 440.377,98.465 441.816,97.026 C443.254,95.587 443.254,93.255 441.816,91.816 Z" />
            <path d="M457.632,90.737 L457.632,79.684 C457.632,77.649 455.982,76 453.947,76 C451.913,76 450.263,77.649 450.263,79.684 L450.263,90.737 C450.263,92.772 451.913,94.421 453.947,94.421 C455.982,94.421 457.632,92.772 457.632,90.737 Z" />
            <path d="M471.289,97.026 L478.658,89.658 C480.097,88.219 480.097,85.886 478.658,84.448 C477.219,83.009 474.886,83.009 473.448,84.448 L466.079,91.816 C464.64,93.255 464.64,95.587 466.079,97.026 C467.518,98.465 469.851,98.465 471.289,97.026 Z" />
            <path d="M446.579,116.526 C446.579,112.457 449.878,109.158 453.947,109.158 C458.017,109.158 461.316,112.457 461.316,116.526 C461.316,120.596 458.017,123.895 453.947,123.895 C449.878,123.895 446.579,120.596 446.579,116.526 Z M439.211,116.526 C439.211,124.665 445.808,131.263 453.947,131.263 C462.086,131.263 468.684,124.665 468.684,116.526 C468.684,108.387 462.086,101.789 453.947,101.789 C445.808,101.789 439.211,108.387 439.211,116.526 Z" />
            <path d="M464.374,116.526 L494.474,116.526 C495.451,116.526 496.388,116.914 497.079,117.605 C497.77,118.296 498.158,119.233 498.158,120.211 L498.158,134.947 C498.158,135.924 497.77,136.862 497.079,137.552 C496.388,138.243 495.451,138.632 494.474,138.632 L435.526,138.632 C434.549,138.632 433.612,138.243 432.921,137.552 C432.23,136.862 431.842,135.924 431.842,134.947 L431.842,120.211 C431.842,119.233 432.23,118.296 432.921,117.605 C433.612,116.914 434.549,116.526 435.526,116.526 L443.521,116.526 C445.556,116.526 447.205,114.877 447.205,112.842 C447.205,110.807 445.556,109.158 443.521,109.158 L435.526,109.158 C432.595,109.158 429.784,110.322 427.711,112.395 C425.638,114.468 424.474,117.279 424.474,120.211 L424.474,134.947 C424.474,137.879 425.638,140.69 427.711,142.763 C429.784,144.836 432.595,146 435.526,146 L494.474,146 C497.405,146 500.216,144.836 502.289,142.763 C504.362,140.69 505.526,137.879 505.526,134.947 L505.526,120.211 C505.526,117.279 504.362,114.468 502.289,112.395 C500.216,110.322 497.405,109.158 494.474,109.158 L464.374,109.158 C462.339,109.158 460.689,110.807 460.689,112.842 C460.689,114.877 462.339,116.526 464.374,116.526 Z" />
            <path d="M479.737,131.263 L487.105,131.263 C489.14,131.263 490.789,129.614 490.789,127.579 C490.789,125.544 489.14,123.895 487.105,123.895 L479.737,123.895 C477.702,123.895 476.053,125.544 476.053,127.579 C476.053,129.614 477.702,131.263 479.737,131.263 Z" />
        </g>
        <g id="Black-M" transform="translate(0,200)">
            <path d="M641.816,91.816 L634.447,84.448 C633.008,83.009 630.676,83.009 629.237,84.448 C627.798,85.886 627.798,88.219 629.237,89.658 L636.605,97.026 C638.044,98.465 640.377,98.465 641.816,97.026 C643.254,95.587 643.254,93.255 641.816,91.816 Z" />
            <path d="M657.632,90.737 L657.632,79.684 C657.632,77.649 655.982,76 653.947,76 C651.913,76 650.263,77.649 650.263,79.684 L650.263,90.737 C650.263,92.772 651.913,94.421 653.947,94.421 C655.982,94.421 657.632,92.772 657.632,90.737 Z" />
            <path d="M671.289,97.026 L678.658,89.658 C680.097,88.219 680.097,85.886 678.658,84.448 C677.219,83.009 674.886,83.009 673.448,84.448 L666.079,91.816 C664.64,93.255 664.64,95.587 666.079,97.026 C667.518,98.465 669.851,98.465 671.289,97.026 Z" />
            <path d="M646.579,116.526 C646.579,112.457 649.878,109.158 653.947,109.158 C658.017,109.158 661.316,112.457 661.316,116.526 C661.316,120.596 658.017,123.895 653.947,123.895 C649.878,123.895 646.579,120.596 646.579,116.526 Z M639.211,116.526 C639.211,124.665 645.808,131.263 653.947,131.263 C662.086,131.263 668.684,124.665 668.684,116.526 C668.684,108.387 662.086,101.789 653.947,101.789 C645.808,101.789 639.211,108.387 639.211,116.526 Z" />
            <path d="M664.374,116.526 L694.474,116.526 C695.451,116.526 696.388,116.914 697.079,117.605 C697.77,118.296 698.158,119.233 698.158,120.211 L698.158,134.947 C698.158,135.924 697.77,136.862 697.079,137.552 C696.388,138.243 695.451,138.632 694.474,138.632 L635.526,138.632 C634.549,138.632 633.612,138.243 632.921,137.552 C632.23,136.862 631.842,135.924 631.842,134.947 L631.842,120.211 C631.842,119.233 632.23,118.296 632.921,117.605 C633.612,116.914 634.549,116.526 635.526,116.526 L643.521,116.526 C645.556,116.526 647.205,114.877 647.205,112.842 C647.205,110.807 645.556,109.158 643.521,109.158 L635.526,109.158 C632.595,109.158 629.784,110.322 627.711,112.395 C625.638,114.468 624.474,117.279 624.474,120.211 L624.474,134.947 C624.474,137.879 625.638,140.69 627.711,142.763 C629.784,144.836 632.595,146 635.526,146 L694.474,146 C697.405,146 700.216,144.836 702.289,142.763 C704.362,140.69 705.526,137.879 705.526,134.947 L705.526,120.211 C705.526,117.279 704.362,114.468 702.289,112.395 C700.216,110.322 697.405,109.158 694.474,109.158 L664.374,109.158 C662.339,109.158 660.689,110.807 660.689,112.842 C660.689,114.877 662.339,116.526 664.374,116.526 Z" />
            <path d="M679.737,131.263 L687.105,131.263 C689.14,131.263 690.789,129.614 690.789,127.579 C690.789,125.544 689.14,123.895 687.105,123.895 L679.737,123.895 C677.702,123.895 676.053,125.544 676.053,127.579 C676.053,129.614 677.702,131.263 679.737,131.263 Z" />
        </g>
    </g>
</svg>