<?xml version="1.0" encoding="UTF-8"?>
<svg height="600" width="800" xmlns="http://www.w3.org/2000/svg" xmlns:xlink="http://www.w3.org/1999/xlink">
    <g id="Notes" font-family="LucidaGrande, 'Lucida Grande', sans-serif" font-size="13">
        <rect fill="white" height="600.0" width="800.0" x="0.0" y="0.0" />
        <g font-size="13">
            <text x="18.0" y="176.0">Small</text>
            <text x="18.0" y="376.0">Medium</text>
            <text x="18.0" y="576.0">Large</text>
        </g>
        <g font-size="9">
            <text x="250.0" y="30.0">Ultralight</text>
            <text x="450.0" y="30.0">Regular</text>
            <text x="650.0" y="30.0">Black</text>
            <text id="template-version" fill="#505050" text-anchor="end" x="785.0" y="575.0">Template v.3.0</text>
            <a href="https://github.com/swhitty/SwiftDraw">
                <text fill="#505050" text-anchor="end" x="785.0" y="590.0">https://github.com/swhitty/SwiftDraw</text>
            </a>
        </g>
    </g>
    <g id="Guides" stroke="rgb(39, 170, 225)" stroke-width="0.5">
        <path id="Capline-S" d="M18,76 l800,0" />
        <path id="H-reference" d="M85,145.755 L87.685,145.755 L113.369,79.287 L114.052,79.287 L114.052,76 L112.148,76 L85,145.755 Z M95.693,121.536 L130.996,121.536 L130.263,119.313 L96.474,119.313 L95.693,121.536 Z M139.15,145.755 L141.787,145.755 L114.638,76 L113.466,76 L113.466,79.287 L139.15,145.755 Z" stroke="none" transform="translate(0,200)" />
        <path id="Baseline-S" d="M18,146 l800,0" />
        <path id="left-margin-Ultralight-M" d="M222.222,256 l0,110" />
        <path id="right-margin-Ultralight-M" d="M307.778,256 l0,110" />
        <path id="left-margin-Regular-M" d="M422.222,256 l0,110" />
        <path id="right-margin-Regular-M" d="M507.778,256 l0,110" />
        <path id="left-margin-Black-M" d="M622.222,256 l0,110" />
        <path id="right-margin-Black-M" d="M707.778,256 l0,110" />
        <path id="Capline-M" d="M18,276 l800,0" />
        <path id="Baseline-M" d="M18,346 l800,0" />
        <path id="Capline-L" d="M18,476 l800,0" />
        <path id="Baseline-L" d="M18,546 l800,0" />
    </g>
    <g id="Symbols">
        <g id="Ultralight-M" transform="translate(0,200)">
            <path d="M300,111 L300,134.333 C300,135.365 299.59,136.354 298.861,137.083 C298.132,137.812 297.143,138.222 296.111,138.222 L233.889,138.222 C232.857,138.222 231.868,137.812 231.139,137.083 C230.41,136.354 230,135.365 230,134.333 L230,87.667 C230,86.635 230.41,85.646 231.139,84.917 C231.868,84.188 232.857,83.778 233.889,83.778 L296.111,83.778 C297.143,83.778 298.132,84.188 298.861,84.917 C299.59,85.646 300,86.635 300,87.667 L300,111 Z M307.778,111 L307.778,87.667 C307.778,84.572 306.549,81.605 304.361,79.417 C302.173,77.229 299.205,76 296.111,76 L233.889,76 C230.795,76 227.827,77.229 225.639,79.417 C223.451,81.605 222.222,84.572 222.222,87.667 L222.222,134.333 C222.222,137.428 223.451,140.395 225.639,142.583 C227.827,144.771 230.795,146 233.889,146 L296.111,146 C299.205,146 302.173,144.771 304.361,142.583 C306.549,140.395 307.778,137.428 307.778,134.333 L307.778,111 Z" />
            <path d="M261.111,99.333 L261.111,142.111 C261.111,144.259 262.852,146 265,146 C267.148,146 268.889,144.259 268.889,142.111 L268.889,99.333 C268.889,97.186 267.148,95.444 265,95.444 C262.852,95.444 261.111,97.186 261.111,99.333 Z" />
            <path d="M226.111,103.222 L276.667,103.222 C277.698,103.222 278.687,103.632 279.417,104.361 C280.146,105.091 280.556,106.08 280.556,107.111 L280.556,142.111 C280.556,144.259 282.297,146 284.444,146 C286.592,146 288.333,144.259 288.333,142.111 L288.333,107.111 C288.333,104.017 287.104,101.049 284.916,98.862 C282.728,96.674 279.761,95.444 276.667,95.444 L226.111,95.444 C223.963,95.444 222.222,97.186 222.222,99.333 C222.222,101.481 223.963,103.222 226.111,103.222 Z" />
        </g>
        <g id="Regular-M" transform="translate(0,200)">
            <path d="M500,111 L500,134.333 C500,135.365 499.59,136.354 498.861,137.083 C498.132,137.812 497.143,138.222 496.111,138.222 L433.889,138.222 C432.858,138.222 431.868,137.812 431.139,137.083 C430.41,136.354 430,135.365 430,134.333 L430,87.667 C430,86.635 430.41,85.646 431.139,84.917 C431.868,84.188 432.857,83.778 433.889,83.778 L496.111,83.778 C497.143,83.778 498.132,84.188 498.861,84.917 C499.59,85.646 500,86.635 500,87.667 L500,111 Z M507.778,111 L507.778,87.667 C507.778,84.572 506.549,81.605 504.361,79.417 C502.173,77.229 499.205,76 496.111,76 L433.889,76 C430.795,76 427.827,77.229 425.639,79.417 C423.451,81.605 422.222,84.572 422.222,87.667 L422.222,134.333 C422.222,137.428 423.451,140.395 425.639,142.583 C427.827,144.771 430.795,146 433.889,146 L496.111,146 C499.205,146 502.173,144.771 504.361,142.583 C506.549,140.395 507.778,137.428 507.778,134.333 L507.778,111 Z" />
            <path d="M461.111,99.333 L461.111,142.111 C461.111,144.259 462.852,146 465,146 C467.148,146 468.889,144.259 468.889,142.111 L468.889,99.333 C468.889,97.186 467.148,95.444 465,95.444 C462.852,95.444 461.111,97.186 461.111,99.333 Z" />
            <path d="M426.111,103.222 L476.667,103.222 C477.698,103.222 478.687,103.632 479.417,104.361 C480.146,105.091 480.556,106.08 480.556,107.111 L480.556,142.111 C480.556,144.259 482.297,146 484.444,146 C486.592,146 488.333,144.259 488.333,142.111 L488.333,107.111 C488.333,104.017 487.104,101.049 484.916,98.862 C482.728,96.674 479.761,95.444 476.667,95.444 L426.111,95.444 C423.963,95.444 422.222,97.186 422.222,99.333 C422.222,101.481 423.963,103.222 426.111,103.222 Z" />
        </g>
        <g id="Black-M" transform="translate(0,200)">
            <path d="M700,111 L700,134.333 C700,135.365 699.59,136.354 698.861,137.083 C698.132,137.812 697.143,138.222 696.111,138.222 L633.889,138.222 C632.857,138.222 631.868,137.812 631.139,137.083 C630.41,136.354 630,135.365 630,134.333 L630,87.667 C630,86.635 630.41,85.646 631.139,84.917 C631.868,84.188 632.857,83.778 633.889,83.778 L696.111,83.778 C697.143,83.778 698.132,84.188 698.861,84.917 C699.59,85.646 700,86.635 700,87.667 L700,111 Z M707.778,111 L707.778,87.667 C707.778,84.572 706.549,81.605 704.361,79.417 C702.173,77.229 699.205,76 696.111,76 L633.889,76 C630.795,76 627.827,77.229 625.639,79.417 C623.451,81.605 622.222,84.572 622.222,87.667 L622.222,134.333 C622.222,137.428 623.451,140.395 625.639,142.583 C627.827,144.771 630.795,146 633.889,146 L696.111,146 C699.205,146 702.173,144.771 704.361,142.583 C706.549,140.395 707.778,137.428 707.778,134.333 L707.778,111 Z" />
            <path d="M661.111,99.333 L661.111,142.111 C661.111,144.259 662.852,146 665,146 C667.148,146 668.889,144.259 668.889,142.111 L668.889,99.333 C668.889,97.186 667.148,95.444 665,95.444 C662.852,95.444 661.111,97.186 661.111,99.333 Z" />
            <path d="M626.111,103.222 L676.667,103.222 C677.698,103.222 678.687,103.632 679.417,104.361 C680.146,105.091 680.556,106.08 680.556,107.111 L680.556,142.111 C680.556,144.259 682.297,146 684.444,146 C686.592,146 688.333,144.259 688.333,142.111 L688.333,107.111 C688.333,104.017 687.104,101.049 684.916,98.862 C682.728,96.674 679.761,95.444 676.667,95.444 L626.111,95.444 C623.963,95.444 622.222,97.186 622.222,99.333 C622.222,101.481 623.963,103.222 626.111,103.222 Z" />
        </g>
    </g>
</svg>