<?xml version="1.0" encoding="UTF-8"?>
<svg height="600" width="800" xmlns="http://www.w3.org/2000/svg" xmlns:xlink="http://www.w3.org/1999/xlink">
    <g id="Notes" font-family="LucidaGrande, 'Lucida Grande', sans-serif" font-size="13">
        <rect fill="white" height="600.0" width="800.0" x="0.0" y="0.0" />
        <g font-size="13">
            <text x="18.0" y="176.0">Small</text>
            <text x="18.0" y="376.0">Medium</text>
            <text x="18.0" y="576.0">Large</text>
        </g>
        <g font-size="9">
            <text x="250.0" y="30.0">Ultralight</text>
            <text x="450.0" y="30.0">Regular</text>
            <text x="650.0" y="30.0">Black</text>
            <text id="template-version" fill="#505050" text-anchor="end" x="785.0" y="575.0">Template v.3.0</text>
            <a href="https://github.com/swhitty/SwiftDraw">
                <text fill="#505050" text-anchor="end" x="785.0" y="590.0">https://github.com/swhitty/SwiftDraw</text>
            </a>
        </g>
    </g>
    <g id="Guides" stroke="rgb(39, 170, 225)" stroke-width="0.5">
        <path id="Capline-S" d="M18,76 l800,0" />
        <path id="H-reference" d="M85,145.755 L87.685,145.755 L113.369,79.287 L114.052,79.287 L114.052,76 L112.148,76 L85,145.755 Z M95.693,121.536 L130.996,121.536 L130.263,119.313 L96.474,119.313 L95.693,121.536 Z M139.15,145.755 L141.787,145.755 L114.638,76 L113.466,76 L113.466,79.287 L139.15,145.755 Z" stroke="none" transform="translate(0,200)" />
        <path id="Baseline-S" d="M18,146 l800,0" />
        <path id="left-margin-Ultralight-M" d="M230,256 l0,110" />
        <path id="right-margin-Ultralight-M" d="M300,256 l0,110" />
        <path id="left-margin-Regular-M" d="M430,256 l0,110" />
        <path id="right-margin-Regular-M" d="M500,256 l0,110" />
        <path id="left-margin-Black-M" d="M630,256 l0,110" />
        <path id="right-margin-Black-M" d="M700,256 l0,110" />
        <path id="Capline-M" d="M18,276 l800,0" />
        <path id="Baseline-M" d="M18,346 l800,0" />
        <path id="Capline-L" d="M18,476 l800,0" />
        <path id="Baseline-L" d="M18,546 l800,0" />
    </g>
    <g id="Symbols">
        <g id="Ultralight-M" transform="translate(0,200)">
            <path d="M267.21,113.289 C266.411,114.116 265.228,114.447 264.116,114.156 C263.003,113.865 262.134,112.996 261.843,111.884 C261.552,110.771 261.884,109.588 262.711,108.79 C263.975,107.569 264.01,105.554 262.789,104.29 C261.568,103.026 259.554,102.991 258.29,104.212 C255.809,106.609 254.814,110.158 255.687,113.495 C256.561,116.833 259.167,119.439 262.504,120.313 C265.842,121.186 269.391,120.191 271.787,117.71 C273.008,116.446 272.973,114.431 271.709,113.21 C270.445,111.99 268.431,112.025 267.21,113.289 Z" />
            <path d="M276.26,99.76 C279.454,102.96 281.136,107.368 280.885,111.883 C280.787,113.637 282.13,115.139 283.885,115.236 C285.639,115.334 287.141,113.991 287.238,112.236 C287.59,105.916 285.236,99.745 280.764,95.265 C279.523,94.021 277.509,94.019 276.265,95.26 C275.021,96.502 275.019,98.516 276.26,99.76 Z" />
            <path d="M285.259,90.763 C293.303,98.815 295.814,110.866 291.657,121.461 C291.015,123.097 291.821,124.943 293.456,125.585 C295.092,126.227 296.939,125.421 297.581,123.785 C302.662,110.836 299.592,96.107 289.762,86.265 C288.52,85.022 286.505,85.021 285.262,86.263 C284.019,87.505 284.018,89.519 285.259,90.763 Z" />
            <path d="M230.932,81.432 L294.567,145.068 C295.81,146.311 297.824,146.311 299.067,145.068 C300.31,143.825 300.31,141.811 299.067,140.568 L235.432,76.932 C234.189,75.689 232.174,75.689 230.932,76.932 C229.689,78.175 229.689,80.189 230.932,81.432 Z" />
            <path d="M244.74,131.237 C233.572,120.057 233.572,101.943 244.74,90.763 C245.981,89.519 245.98,87.505 244.737,86.263 C243.494,85.021 241.479,85.022 240.237,86.266 C226.588,99.931 226.588,122.069 240.237,135.734 C241.479,136.978 243.494,136.979 244.737,135.737 C245.98,134.495 245.981,132.481 244.74,131.237 Z" />
            <path d="M253.738,122.24 C247.538,116.029 247.538,105.971 253.738,99.76 C254.98,98.517 254.978,96.502 253.734,95.26 C252.491,94.019 250.476,94.021 249.235,95.264 C240.555,103.959 240.555,118.041 249.235,126.736 C250.476,127.979 252.491,127.981 253.734,126.74 C254.978,125.498 254.98,123.483 253.738,122.24 Z" />
        </g>
        <g id="Regular-M" transform="translate(0,200)">
            <path d="M467.21,113.289 C466.411,114.116 465.228,114.447 464.116,114.156 C463.003,113.865 462.134,112.996 461.843,111.884 C461.552,110.771 461.884,109.588 462.711,108.79 C463.975,107.569 464.01,105.554 462.789,104.29 C461.568,103.026 459.554,102.991 458.29,104.212 C455.809,106.609 454.814,110.158 455.687,113.495 C456.561,116.833 459.167,119.439 462.504,120.313 C465.842,121.186 469.391,120.191 471.787,117.71 C473.008,116.446 472.973,114.431 471.709,113.21 C470.445,111.99 468.431,112.025 467.21,113.289 Z" />
            <path d="M476.26,99.76 C479.454,102.96 481.136,107.368 480.885,111.883 C480.787,113.637 482.13,115.139 483.885,115.236 C485.639,115.334 487.141,113.991 487.238,112.236 C487.59,105.916 485.236,99.745 480.764,95.265 C479.523,94.021 477.509,94.019 476.265,95.26 C475.021,96.502 475.019,98.516 476.26,99.76 Z" />
            <path d="M485.259,90.763 C493.303,98.815 495.814,110.866 491.657,121.461 C491.015,123.097 491.821,124.943 493.456,125.585 C495.092,126.227 496.939,125.421 497.581,123.785 C502.662,110.836 499.592,96.107 489.762,86.265 C488.52,85.022 486.505,85.021 485.262,86.263 C484.019,87.505 484.018,89.519 485.259,90.763 Z" />
            <path d="M430.932,81.432 L494.567,145.068 C495.81,146.311 497.824,146.311 499.067,145.068 C500.31,143.825 500.31,141.811 499.067,140.568 L435.432,76.932 C434.189,75.689 432.174,75.689 430.932,76.932 C429.689,78.175 429.689,80.189 430.932,81.432 Z" />
            <path d="M444.74,131.237 C433.572,120.057 433.572,101.943 444.74,90.763 C445.981,89.519 445.98,87.505 444.737,86.263 C443.494,85.021 441.479,85.022 440.237,86.266 C426.588,99.931 426.588,122.069 440.237,135.734 C441.479,136.978 443.494,136.979 444.737,135.737 C445.98,134.495 445.981,132.481 444.74,131.237 Z" />
            <path d="M453.738,122.24 C447.538,116.029 447.538,105.971 453.738,99.76 C454.98,98.517 454.978,96.502 453.734,95.26 C452.491,94.019 450.476,94.021 449.235,95.264 C440.555,103.959 440.555,118.041 449.235,126.736 C450.476,127.979 452.491,127.981 453.734,126.74 C454.978,125.498 454.98,123.483 453.738,122.24 Z" />
        </g>
        <g id="Black-M" transform="translate(0,200)">
            <path d="M667.21,113.289 C666.411,114.116 665.228,114.447 664.116,114.156 C663.003,113.865 662.134,112.996 661.843,111.884 C661.552,110.771 661.884,109.588 662.711,108.79 C663.975,107.569 664.01,105.554 662.789,104.29 C661.568,103.026 659.554,102.991 658.29,104.212 C655.809,106.609 654.814,110.158 655.687,113.495 C656.561,116.833 659.167,119.439 662.504,120.313 C665.842,121.186 669.391,120.191 671.787,117.71 C673.008,116.446 672.973,114.431 671.709,113.21 C670.445,111.99 668.431,112.025 667.21,113.289 Z" />
            <path d="M676.26,99.76 C679.454,102.96 681.136,107.368 680.885,111.883 C680.787,113.637 682.13,115.139 683.885,115.236 C685.639,115.334 687.141,113.991 687.238,112.236 C687.59,105.916 685.236,99.745 680.764,95.265 C679.523,94.021 677.509,94.019 676.265,95.26 C675.021,96.502 675.019,98.516 676.26,99.76 Z" />
            <path d="M685.259,90.763 C693.303,98.815 695.814,110.866 691.657,121.461 C691.015,123.097 691.821,124.943 693.456,125.585 C695.092,126.227 696.939,125.421 697.581,123.785 C702.662,110.836 699.592,96.107 689.762,86.265 C688.52,85.022 686.505,85.021 685.262,86.263 C684.019,87.505 684.018,89.519 685.259,90.763 Z" />
            <path d="M630.932,81.432 L694.567,145.068 C695.81,146.311 697.824,146.311 699.067,145.068 C700.31,143.825 700.31,141.811 699.067,140.568 L635.432,76.932 C634.189,75.689 632.174,75.689 630.932,76.932 C629.689,78.175 629.689,80.189 630.932,81.432 Z" />
            <path d="M644.74,131.237 C633.572,120.057 633.572,101.943 644.74,90.763 C645.981,89.519 645.98,87.505 644.737,86.263 C643.494,85.021 641.479,85.022 640.237,86.266 C626.588,99.931 626.588,122.069 640.237,135.734 C641.479,136.978 643.494,136.979 644.737,135.737 C645.98,134.495 645.981,132.481 644.74,131.237 Z" />
            <path d="M653.738,122.24 C647.538,116.029 647.538,105.971 653.738,99.76 C654.98,98.517 654.978,96.502 653.734,95.26 C652.491,94.019 650.476,94.021 649.235,95.264 C640.555,103.959 640.555,118.041 649.235,126.736 C650.476,127.979 652.491,127.981 653.734,126.74 C654.978,125.498 654.98,123.483 653.738,122.24 Z" />
        </g>
    </g>
</svg>