<?xml version="1.0" encoding="UTF-8"?>
<svg height="600" width="800" xmlns="http://www.w3.org/2000/svg" xmlns:xlink="http://www.w3.org/1999/xlink">
    <g id="Notes" font-family="LucidaGrande, 'Lucida Grande', sans-serif" font-size="13">
        <rect fill="white" height="600.0" width="800.0" x="0.0" y="0.0" />
        <g font-size="13">
            <text x="18.0" y="176.0">Small</text>
            <text x="18.0" y="376.0">Medium</text>
            <text x="18.0" y="576.0">Large</text>
        </g>
        <g font-size="9">
            <text x="250.0" y="30.0">Ultralight</text>
            <text x="450.0" y="30.0">Regular</text>
            <text x="650.0" y="30.0">Black</text>
            <text id="template-version" fill="#505050" text-anchor="end" x="785.0" y="575.0">Template v.3.0</text>
            <a href="https://github.com/swhitty/SwiftDraw">
                <text fill="#505050" text-anchor="end" x="785.0" y="590.0">https://github.com/swhitty/SwiftDraw</text>
            </a>
        </g>
    </g>
    <g id="Guides" stroke="rgb(39, 170, 225)" stroke-width="0.5">
        <path id="Capline-S" d="M18,76 l800,0" />
        <path id="H-reference" d="M85,145.755 L87.685,145.755 L113.369,79.287 L114.052,79.287 L114.052,76 L112.148,76 L85,145.755 Z M95.693,121.536 L130.996,121.536 L130.263,119.313 L96.474,119.313 L95.693,121.536 Z M139.15,145.755 L141.787,145.755 L114.638,76 L113.466,76 L113.466,79.287 L139.15,145.755 Z" stroke="none" transform="translate(0,200)" />
        <path id="Baseline-S" d="M18,146 l800,0" />
        <path id="left-margin-Ultralight-M" d="M221,256 l0,110" />
        <path id="right-margin-Ultralight-M" d="M309,256 l0,110" />
        <path id="left-margin-Regular-M" d="M421,256 l0,110" />
        <path id="right-margin-Regular-M" d="M509,256 l0,110" />
        <path id="left-margin-Black-M" d="M621,256 l0,110" />
        <path id="right-margin-Black-M" d="M709,256 l0,110" />
        <path id="Capline-M" d="M18,276 l800,0" />
        <path id="Baseline-M" d="M18,346 l800,0" />
        <path id="Capline-L" d="M18,476 l800,0" />
        <path id="Baseline-L" d="M18,546 l800,0" />
    </g>
    <g id="Symbols">
        <g id="Ultralight-M" transform="translate(0,200)">
            <path d="M309,131 C309,106.699 289.301,87 265,87 C240.699,87 221,106.699 221,131 C221,133.209 222.791,135 225,135 C227.209,135 229,133.209 229,131 C229,111.118 245.118,95 265,95 C284.882,95 301,111.118 301,131 C301,133.209 302.791,135 305,135 C307.209,135 309,133.209 309,131 Z" />
            <path d="M245,131 C245,119.954 253.954,111 265,111 C276.046,111 285,119.954 285,131 C285,133.209 286.791,135 289,135 C291.209,135 293,133.209 293,131 C293,115.536 280.464,103 265,103 C249.536,103 237,115.536 237,131 C237,133.209 238.791,135 241,135 C243.209,135 245,133.209 245,131 Z" />
            <path d="M261,131 C261,128.791 262.791,127 265,127 C267.209,127 269,128.791 269,131 C269,133.209 270.791,135 273,135 C275.209,135 277,133.209 277,131 C277,124.373 271.627,119 265,119 C258.373,119 253,124.373 253,131 C253,133.209 254.791,135 257,135 C259.209,135 261,133.209 261,131 Z" />
        </g>
        <g id="Regular-M" transform="translate(0,200)">
            <path d="M509,131 C509,106.699 489.301,87 465,87 C440.699,87 421,106.699 421,131 C421,133.209 422.791,135 425,135 C427.209,135 429,133.209 429,131 C429,111.118 445.118,95 465,95 C484.882,95 501,111.118 501,131 C501,133.209 502.791,135 505,135 C507.209,135 509,133.209 509,131 Z" />
            <path d="M445,131 C445,119.954 453.954,111 465,111 C476.046,111 485,119.954 485,131 C485,133.209 486.791,135 489,135 C491.209,135 493,133.209 493,131 C493,115.536 480.464,103 465,103 C449.536,103 437,115.536 437,131 C437,133.209 438.791,135 441,135 C443.209,135 445,133.209 445,131 Z" />
            <path d="M461,131 C461,128.791 462.791,127 465,127 C467.209,127 469,128.791 469,131 C469,133.209 470.791,135 473,135 C475.209,135 477,133.209 477,131 C477,124.373 471.627,119 465,119 C458.373,119 453,124.373 453,131 C453,133.209 454.791,135 457,135 C459.209,135 461,133.209 461,131 Z" />
        </g>
        <g id="Black-M" transform="translate(0,200)">
            <path d="M709,131 C709,106.699 689.301,87 665,87 C640.699,87 621,106.699 621,131 C621,133.209 622.791,135 625,135 C627.209,135 629,133.209 629,131 C629,111.118 645.118,95 665,95 C684.882,95 701,111.118 701,131 C701,133.209 702.791,135 705,135 C707.209,135 709,133.209 709,131 Z" />
            <path d="M645,131 C645,119.954 653.954,111 665,111 C676.046,111 685,119.954 685,131 C685,133.209 686.791,135 689,135 C691.209,135 693,133.209 693,131 C693,115.536 680.464,103 665,103 C649.536,103 637,115.536 637,131 C637,133.209 638.791,135 641,135 C643.209,135 645,133.209 645,131 Z" />
            <path d="M661,131 C661,128.791 662.791,127 665,127 C667.209,127 669,128.791 669,131 C669,133.209 670.791,135 673,135 C675.209,135 677,133.209 677,131 C677,124.373 671.627,119 665,119 C658.373,119 653,124.373 653,131 C653,133.209 654.791,135 657,135 C659.209,135 661,133.209 661,131 Z" />
        </g>
    </g>
</svg>