<?xml version="1.0" encoding="UTF-8"?>
<svg height="600" width="800" xmlns="http://www.w3.org/2000/svg" xmlns:xlink="http://www.w3.org/1999/xlink">
    <g id="Notes" font-family="LucidaGrande, 'Lucida Grande', sans-serif" font-size="13">
        <rect fill="white" height="600.0" width="800.0" x="0.0" y="0.0" />
        <g font-size="13">
            <text x="18.0" y="176.0">Small</text>
            <text x="18.0" y="376.0">Medium</text>
            <text x="18.0" y="576.0">Large</text>
        </g>
        <g font-size="9">
            <text x="250.0" y="30.0">Ultralight</text>
            <text x="450.0" y="30.0">Regular</text>
            <text x="650.0" y="30.0">Black</text>
            <text id="template-version" fill="#505050" text-anchor="end" x="785.0" y="575.0">Template v.3.0</text>
            <a href="https://github.com/swhitty/SwiftDraw">
                <text fill="#505050" text-anchor="end" x="785.0" y="590.0">https://github.com/swhitty/SwiftDraw</text>
            </a>
        </g>
    </g>
    <g id="Guides" stroke="rgb(39, 170, 225)" stroke-width="0.5">
        <path id="Capline-S" d="M18,76 l800,0" />
        <path id="H-reference" d="M85,145.755 L87.685,145.755 L113.369,79.287 L114.052,79.287 L114.052,76 L112.148,76 L85,145.755 Z M95.693,121.536 L130.996,121.536 L130.263,119.313 L96.474,119.313 L95.693,121.536 Z M139.15,145.755 L141.787,145.755 L114.638,76 L113.466,76 L113.466,79.287 L139.15,145.755 Z" stroke="none" transform="translate(0,200)" />
        <path id="Baseline-S" d="M18,146 l800,0" />
        <path id="left-margin-Ultralight-M" d="M242.727,256 l0,110" />
        <path id="right-margin-Ultralight-M" d="M287.273,256 l0,110" />
        <path id="left-margin-Regular-M" d="M442.727,256 l0,110" />
        <path id="right-margin-Regular-M" d="M487.273,256 l0,110" />
        <path id="left-margin-Black-M" d="M642.727,256 l0,110" />
        <path id="right-margin-Black-M" d="M687.273,256 l0,110" />
        <path id="Capline-M" d="M18,276 l800,0" />
        <path id="Baseline-M" d="M18,346 l800,0" />
        <path id="Capline-L" d="M18,476 l800,0" />
        <path id="Baseline-L" d="M18,546 l800,0" />
    </g>
    <g id="Symbols">
        <g id="Ultralight-M" transform="translate(0,200)">
            <path d="M280.909,111 L280.909,136.455 C280.909,137.298 280.574,138.108 279.977,138.704 C279.38,139.301 278.571,139.636 277.727,139.636 L252.273,139.636 C251.429,139.636 250.62,139.301 250.023,138.704 C249.426,138.108 249.091,137.298 249.091,136.455 L249.091,85.545 C249.091,84.702 249.426,83.892 250.023,83.296 C250.62,82.699 251.429,82.364 252.273,82.364 L277.727,82.364 C278.571,82.364 279.38,82.699 279.977,83.296 C280.574,83.892 280.909,84.702 280.909,85.545 L280.909,111 Z M287.273,111 L287.273,85.545 C287.273,83.014 286.267,80.586 284.477,78.796 C282.687,77.006 280.259,76 277.727,76 L252.273,76 C249.741,76 247.313,77.006 245.523,78.796 C243.733,80.586 242.727,83.014 242.727,85.545 L242.727,136.455 C242.727,138.986 243.733,141.414 245.523,143.204 C247.313,144.994 249.741,146 252.273,146 L277.727,146 C280.259,146 282.687,144.994 284.477,143.204 C286.267,141.414 287.273,138.986 287.273,136.455 L287.273,111 Z" />
        </g>
        <g id="Regular-M" transform="translate(0,200)">
            <path d="M480.909,111 L480.909,136.455 C480.909,137.298 480.574,138.108 479.977,138.704 C479.38,139.301 478.571,139.636 477.727,139.636 L452.273,139.636 C451.429,139.636 450.62,139.301 450.023,138.704 C449.426,138.108 449.091,137.298 449.091,136.455 L449.091,85.545 C449.091,84.702 449.426,83.892 450.023,83.296 C450.62,82.699 451.429,82.364 452.273,82.364 L477.727,82.364 C478.571,82.364 479.38,82.699 479.977,83.296 C480.574,83.892 480.909,84.702 480.909,85.545 L480.909,111 Z M487.273,111 L487.273,85.545 C487.273,83.014 486.267,80.586 484.477,78.796 C482.687,77.006 480.259,76 477.727,76 L452.273,76 C449.741,76 447.313,77.006 445.523,78.796 C443.733,80.586 442.727,83.014 442.727,85.545 L442.727,136.455 C442.727,138.986 443.733,141.414 445.523,143.204 C447.313,144.994 449.741,146 452.273,146 L477.727,146 C480.259,146 482.687,144.994 484.477,143.204 C486.267,141.414 487.273,138.986 487.273,136.455 L487.273,111 Z" />
        </g>
        <g id="Black-M" transform="translate(0,200)">
            <path d="M680.909,111 L680.909,136.455 C680.909,137.298 680.574,138.108 679.977,138.704 C679.38,139.301 678.571,139.636 677.727,139.636 L652.273,139.636 C651.429,139.636 650.62,139.301 650.023,138.704 C649.426,138.108 649.091,137.298 649.091,136.455 L649.091,85.545 C649.091,84.702 649.426,83.892 650.023,83.296 C650.62,82.699 651.429,82.364 652.273,82.364 L677.727,82.364 C678.571,82.364 679.38,82.699 679.977,83.296 C680.574,83.892 680.909,84.702 680.909,85.545 L680.909,111 Z M687.273,111 L687.273,85.545 C687.273,83.014 686.267,80.586 684.477,78.796 C682.687,77.006 680.259,76 677.727,76 L652.273,76 C649.741,76 647.313,77.006 645.523,78.796 C643.733,80.586 642.727,83.014 642.727,85.545 L642.727,136.455 C642.727,138.986 643.733,141.414 645.523,143.204 C647.313,144.994 649.741,146 652.273,146 L677.727,146 C680.259,146 682.687,144.994 684.477,143.204 C686.267,141.414 687.273,138.986 687.273,136.455 L687.273,111 Z" />
        </g>
    </g>
</svg>