<?xml version="1.0" encoding="UTF-8"?>
<svg height="600" width="800" xmlns="http://www.w3.org/2000/svg" xmlns:xlink="http://www.w3.org/1999/xlink">
    <g id="Notes" font-family="LucidaGrande, 'Lucida Grande', sans-serif" font-size="13">
        <rect fill="white" height="600.0" width="800.0" x="0.0" y="0.0" />
        <g font-size="13">
            <text x="18.0" y="176.0">Small</text>
            <text x="18.0" y="376.0">Medium</text>
            <text x="18.0" y="576.0">Large</text>
        </g>
        <g font-size="9">
            <text x="250.0" y="30.0">Ultralight</text>
            <text x="450.0" y="30.0">Regular</text>
            <text x="650.0" y="30.0">Black</text>
            <text id="template-version" fill="#505050" text-anchor="end" x="785.0" y="575.0">Template v.3.0</text>
            <a href="https://github.com/swhitty/SwiftDraw">
                <text fill="#505050" text-anchor="end" x="785.0" y="590.0">https://github.com/swhitty/SwiftDraw</text>
            </a>
        </g>
    </g>
    <g id="Guides" stroke="rgb(39, 170, 225)" stroke-width="0.5">
        <path id="Capline-S" d="M18,76 l800,0" />
        <path id="H-reference" d="M85,145.755 L87.685,145.755 L113.369,79.287 L114.052,79.287 L114.052,76 L112.148,76 L85,145.755 Z M95.693,121.536 L130.996,121.536 L130.263,119.313 L96.474,119.313 L95.693,121.536 Z M139.15,145.755 L141.787,145.755 L114.638,76 L113.466,76 L113.466,79.287 L139.15,145.755 Z" stroke="none" transform="translate(0,200)" />
        <path id="Baseline-S" d="M18,146 l800,0" />
        <path id="left-margin-Ultralight-M" d="M221,256 l0,110" />
        <path id="right-margin-Ultralight-M" d="M309,256 l0,110" />
        <path id="left-margin-Regular-M" d="M421,256 l0,110" />
        <path id="right-margin-Regular-M" d="M509,256 l0,110" />
        <path id="left-margin-Black-M" d="M621,256 l0,110" />
        <path id="right-margin-Black-M" d="M709,256 l0,110" />
        <path id="Capline-M" d="M18,276 l800,0" />
        <path id="Baseline-M" d="M18,346 l800,0" />
        <path id="Capline-L" d="M18,476 l800,0" />
        <path id="Baseline-L" d="M18,546 l800,0" />
    </g>
    <g id="Symbols">
        <g id="Ultralight-M" transform="translate(0,200)">
            <path d="M309,137.889 L309,128.111 C309,121.628 306.425,115.41 301.84,110.826 C297.256,106.242 291.039,103.667 284.556,103.667 L225.889,103.667 C223.189,103.667 221,105.855 221,108.556 C221,111.256 223.189,113.444 225.889,113.444 L284.556,113.444 C288.445,113.444 292.176,114.99 294.926,117.74 C297.677,120.491 299.222,124.221 299.222,128.111 L299.222,137.889 C299.222,140.589 301.411,142.778 304.111,142.778 C306.811,142.778 309,140.589 309,137.889 Z" />
            <path d="M253.79,129.543 L229.346,105.099 L229.346,112.013 L253.79,87.568 C255.7,85.659 255.7,82.563 253.79,80.654 C251.881,78.745 248.786,78.745 246.876,80.654 L222.432,105.099 C220.523,107.008 220.523,110.103 222.432,112.013 L246.876,136.457 C248.786,138.366 251.881,138.366 253.79,136.457 C255.7,134.548 255.7,131.452 253.79,129.543 Z" />
        </g>
        <g id="Regular-M" transform="translate(0,200)">
            <path d="M509,137.889 L509,128.111 C509,121.628 506.425,115.41 501.84,110.826 C497.256,106.242 491.039,103.667 484.556,103.667 L425.889,103.667 C423.189,103.667 421,105.855 421,108.556 C421,111.256 423.189,113.444 425.889,113.444 L484.556,113.444 C488.445,113.444 492.176,114.99 494.926,117.74 C497.677,120.491 499.222,124.221 499.222,128.111 L499.222,137.889 C499.222,140.589 501.411,142.778 504.111,142.778 C506.811,142.778 509,140.589 509,137.889 Z" />
            <path d="M453.79,129.543 L429.346,105.099 L429.346,112.013 L453.79,87.568 C455.7,85.659 455.7,82.563 453.79,80.654 C451.881,78.745 448.786,78.745 446.876,80.654 L422.432,105.099 C420.523,107.008 420.523,110.103 422.432,112.013 L446.876,136.457 C448.786,138.366 451.881,138.366 453.79,136.457 C455.7,134.548 455.7,131.452 453.79,129.543 Z" />
        </g>
        <g id="Black-M" transform="translate(0,200)">
            <path d="M709,137.889 L709,128.111 C709,121.628 706.425,115.41 701.84,110.826 C697.256,106.242 691.039,103.667 684.556,103.667 L625.889,103.667 C623.189,103.667 621,105.855 621,108.556 C621,111.256 623.189,113.444 625.889,113.444 L684.556,113.444 C688.445,113.444 692.176,114.99 694.926,117.74 C697.677,120.491 699.222,124.221 699.222,128.111 L699.222,137.889 C699.222,140.589 701.411,142.778 704.111,142.778 C706.811,142.778 709,140.589 709,137.889 Z" />
            <path d="M653.79,129.543 L629.346,105.099 L629.346,112.013 L653.79,87.568 C655.7,85.659 655.7,82.563 653.79,80.654 C651.881,78.745 648.786,78.745 646.876,80.654 L622.432,105.099 C620.523,107.008 620.523,110.103 622.432,112.013 L646.876,136.457 C648.786,138.366 651.881,138.366 653.79,136.457 C655.7,134.548 655.7,131.452 653.79,129.543 Z" />
        </g>
    </g>
</svg>