<?xml version="1.0" encoding="UTF-8"?>
<svg height="600" width="800" xmlns="http://www.w3.org/2000/svg" xmlns:xlink="http://www.w3.org/1999/xlink">
    <g id="Notes" font-family="LucidaGrande, 'Lucida Grande', sans-serif" font-size="13">
        <rect fill="white" height="600.0" width="800.0" x="0.0" y="0.0" />
        <g font-size="13">
            <text x="18.0" y="176.0">Small</text>
            <text x="18.0" y="376.0">Medium</text>
            <text x="18.0" y="576.0">Large</text>
        </g>
        <g font-size="9">
            <text x="250.0" y="30.0">Ultralight</text>
            <text x="450.0" y="30.0">Regular</text>
            <text x="650.0" y="30.0">Black</text>
            <text id="template-version" fill="#505050" text-anchor="end" x="785.0" y="575.0">Template v.3.0</text>
            <a href="https://github.com/swhitty/SwiftDraw">
                <text fill="#505050" text-anchor="end" x="785.0" y="590.0">https://github.com/swhitty/SwiftDraw</text>
            </a>
        </g>
    </g>
    <g id="Guides" stroke="rgb(39, 170, 225)" stroke-width="0.5">
        <path id="Capline-S" d="M18,76 l800,0" />
        <path id="H-reference" d="M85,145.755 L87.685,145.755 L113.369,79.287 L114.052,79.287 L114.052,76 L112.148,76 L85,145.755 Z M95.693,121.536 L130.996,121.536 L130.263,119.313 L96.474,119.313 L95.693,121.536 Z M139.15,145.755 L141.787,145.755 L114.638,76 L113.466,76 L113.466,79.287 L139.15,145.755 Z" stroke="none" transform="translate(0,200)" />
        <path id="Baseline-S" d="M18,146 l800,0" />
        <path id="left-margin-Ultralight-M" d="M233.5,256 l0,110" />
        <path id="right-margin-Ultralight-M" d="M296.5,256 l0,110" />
        <path id="left-margin-Regular-M" d="M433.5,256 l0,110" />
        <path id="right-margin-Regular-M" d="M496.5,256 l0,110" />
        <path id="left-margin-Black-M" d="M633.5,256 l0,110" />
        <path id="right-margin-Black-M" d="M696.5,256 l0,110" />
        <path id="Capline-M" d="M18,276 l800,0" />
        <path id="Baseline-M" d="M18,346 l800,0" />
        <path id="Capline-L" d="M18,476 l800,0" />
        <path id="Baseline-L" d="M18,546 l800,0" />
    </g>
    <g id="Symbols">
        <g id="Ultralight-M" transform="translate(0,200)">
            <path d="M265,86.5 L244,86.5 C241.215,86.5 238.545,87.606 236.575,89.575 C234.606,91.545 233.5,94.215 233.5,97 L233.5,107.5 C233.5,109.433 235.067,111 237,111 C238.933,111 240.5,109.433 240.5,107.5 L240.5,97 C240.5,96.072 240.869,95.182 241.525,94.525 C242.182,93.869 243.072,93.5 244,93.5 L265,93.5 C266.933,93.5 268.5,91.933 268.5,90 C268.5,88.067 266.933,86.5 265,86.5 Z" />
            <path d="M256.975,102.975 L267.475,92.475 C268.842,91.108 268.842,88.892 267.475,87.525 L256.975,77.025 C255.608,75.658 253.392,75.658 252.025,77.025 C250.658,78.392 250.658,80.608 252.025,81.975 L262.525,92.475 L262.525,87.525 L252.025,98.025 C250.658,99.392 250.658,101.608 252.025,102.975 C253.392,104.342 255.608,104.342 256.975,102.975 Z" />
            <path d="M233.5,121.5 L233.5,135.5 C233.5,138.285 234.606,140.955 236.575,142.925 C238.545,144.894 241.215,146 244,146 L286,146 C288.785,146 291.455,144.894 293.425,142.925 C295.394,140.955 296.5,138.285 296.5,135.5 L296.5,97 C296.5,94.215 295.394,91.545 293.425,89.575 C291.456,87.606 288.785,86.5 286,86.5 L279,86.5 C277.067,86.5 275.5,88.067 275.5,90 C275.5,91.933 277.067,93.5 279,93.5 L286,93.5 C286.928,93.5 287.818,93.869 288.475,94.525 C289.131,95.182 289.5,96.072 289.5,97 L289.5,135.5 C289.5,136.428 289.131,137.318 288.475,137.975 C287.818,138.631 286.928,139 286,139 L244,139 C243.072,139 242.182,138.631 241.525,137.975 C240.869,137.318 240.5,136.428 240.5,135.5 L240.5,121.5 C240.5,119.567 238.933,118 237,118 C235.067,118 233.5,119.567 233.5,121.5 Z" />
        </g>
        <g id="Regular-M" transform="translate(0,200)">
            <path d="M465,86.5 L444,86.5 C441.215,86.5 438.545,87.606 436.575,89.575 C434.606,91.545 433.5,94.215 433.5,97 L433.5,107.5 C433.5,109.433 435.067,111 437,111 C438.933,111 440.5,109.433 440.5,107.5 L440.5,97 C440.5,96.072 440.869,95.182 441.525,94.525 C442.182,93.869 443.072,93.5 444,93.5 L465,93.5 C466.933,93.5 468.5,91.933 468.5,90 C468.5,88.067 466.933,86.5 465,86.5 Z" />
            <path d="M456.975,102.975 L467.475,92.475 C468.842,91.108 468.842,88.892 467.475,87.525 L456.975,77.025 C455.608,75.658 453.392,75.658 452.025,77.025 C450.658,78.392 450.658,80.608 452.025,81.975 L462.525,92.475 L462.525,87.525 L452.025,98.025 C450.658,99.392 450.658,101.608 452.025,102.975 C453.392,104.342 455.608,104.342 456.975,102.975 Z" />
            <path d="M433.5,121.5 L433.5,135.5 C433.5,138.285 434.606,140.955 436.575,142.925 C438.544,144.894 441.215,146 444,146 L486,146 C488.785,146 491.455,144.894 493.425,142.925 C495.394,140.955 496.5,138.285 496.5,135.5 L496.5,97 C496.5,94.215 495.394,91.545 493.425,89.575 C491.456,87.606 488.785,86.5 486,86.5 L479,86.5 C477.067,86.5 475.5,88.067 475.5,90 C475.5,91.933 477.067,93.5 479,93.5 L486,93.5 C486.928,93.5 487.818,93.869 488.475,94.525 C489.131,95.182 489.5,96.072 489.5,97 L489.5,135.5 C489.5,136.428 489.131,137.318 488.475,137.975 C487.818,138.631 486.928,139 486,139 L444,139 C443.072,139 442.182,138.631 441.525,137.975 C440.869,137.318 440.5,136.428 440.5,135.5 L440.5,121.5 C440.5,119.567 438.933,118 437,118 C435.067,118 433.5,119.567 433.5,121.5 Z" />
        </g>
        <g id="Black-M" transform="translate(0,200)">
            <path d="M665,86.5 L644,86.5 C641.215,86.5 638.544,87.606 636.575,89.575 C634.606,91.545 633.5,94.215 633.5,97 L633.5,107.5 C633.5,109.433 635.067,111 637,111 C638.933,111 640.5,109.433 640.5,107.5 L640.5,97 C640.5,96.072 640.869,95.182 641.525,94.525 C642.182,93.869 643.072,93.5 644,93.5 L665,93.5 C666.933,93.5 668.5,91.933 668.5,90 C668.5,88.067 666.933,86.5 665,86.5 Z" />
            <path d="M656.975,102.975 L667.475,92.475 C668.842,91.108 668.842,88.892 667.475,87.525 L656.975,77.025 C655.608,75.658 653.392,75.658 652.025,77.025 C650.658,78.392 650.658,80.608 652.025,81.975 L662.525,92.475 L662.525,87.525 L652.025,98.025 C650.658,99.392 650.658,101.608 652.025,102.975 C653.392,104.342 655.608,104.342 656.975,102.975 Z" />
            <path d="M633.5,121.5 L633.5,135.5 C633.5,138.285 634.606,140.955 636.575,142.925 C638.544,144.894 641.215,146 644,146 L686,146 C688.785,146 691.456,144.894 693.425,142.925 C695.394,140.955 696.5,138.285 696.5,135.5 L696.5,97 C696.5,94.215 695.394,91.545 693.425,89.575 C691.456,87.606 688.785,86.5 686,86.5 L679,86.5 C677.067,86.5 675.5,88.067 675.5,90 C675.5,91.933 677.067,93.5 679,93.5 L686,93.5 C686.928,93.5 687.818,93.869 688.475,94.525 C689.131,95.182 689.5,96.072 689.5,97 L689.5,135.5 C689.5,136.428 689.131,137.318 688.475,137.975 C687.818,138.631 686.928,139 686,139 L644,139 C643.072,139 642.182,138.631 641.525,137.975 C640.869,137.318 640.5,136.428 640.5,135.5 L640.5,121.5 C640.5,119.567 638.933,118 637,118 C635.067,118 633.5,119.567 633.5,121.5 Z" />
        </g>
    </g>
</svg>