<?xml version="1.0" encoding="UTF-8"?>
<svg height="600" width="800" xmlns="http://www.w3.org/2000/svg" xmlns:xlink="http://www.w3.org/1999/xlink">
    <g id="Notes" font-family="LucidaGrande, 'Lucida Grande', sans-serif" font-size="13">
        <rect fill="white" height="600.0" width="800.0" x="0.0" y="0.0" />
        <g font-size="13">
            <text x="18.0" y="176.0">Small</text>
            <text x="18.0" y="376.0">Medium</text>
            <text x="18.0" y="576.0">Large</text>
        </g>
        <g font-size="9">
            <text x="250.0" y="30.0">Ultralight</text>
            <text x="450.0" y="30.0">Regular</text>
            <text x="650.0" y="30.0">Black</text>
            <text id="template-version" fill="#505050" text-anchor="end" x="785.0" y="575.0">Template v.3.0</text>
            <a href="https://github.com/swhitty/SwiftDraw">
                <text fill="#505050" text-anchor="end" x="785.0" y="590.0">https://github.com/swhitty/SwiftDraw</text>
            </a>
        </g>
    </g>
    <g id="Guides" stroke="rgb(39, 170, 225)" stroke-width="0.5">
        <path id="Capline-S" d="M18,76 l800,0" />
        <path id="H-reference" d="M85,145.755 L87.685,145.755 L113.369,79.287 L114.052,79.287 L114.052,76 L112.148,76 L85,145.755 Z M95.693,121.536 L130.996,121.536 L130.263,119.313 L96.474,119.313 L95.693,121.536 Z M139.15,145.755 L141.787,145.755 L114.638,76 L113.466,76 L113.466,79.287 L139.15,145.755 Z" stroke="none" transform="translate(0,200)" />
        <path id="Baseline-S" d="M18,146 l800,0" />
        <path id="left-margin-Ultralight-M" d="M231.591,256 l0,110" />
        <path id="right-margin-Ultralight-M" d="M298.409,256 l0,110" />
        <path id="left-margin-Regular-M" d="M431.591,256 l0,110" />
        <path id="right-margin-Regular-M" d="M498.409,256 l0,110" />
        <path id="left-margin-Black-M" d="M631.591,256 l0,110" />
        <path id="right-margin-Black-M" d="M698.409,256 l0,110" />
        <path id="Capline-M" d="M18,276 l800,0" />
        <path id="Baseline-M" d="M18,346 l800,0" />
        <path id="Capline-L" d="M18,476 l800,0" />
        <path id="Baseline-L" d="M18,546 l800,0" />
    </g>
    <g id="Symbols">
        <g id="Ultralight-M" transform="translate(0,200)">
            <path d="M273.758,119.291 L285.449,125.208 L284.037,120.954 L278.336,133.088 C277.594,134.667 278.226,136.571 279.747,137.341 C281.269,138.112 283.104,137.456 283.846,135.876 L289.547,123.743 C290.289,122.164 289.657,120.259 288.136,119.489 L276.445,113.572 C274.923,112.802 273.088,113.457 272.346,115.037 C271.604,116.616 272.236,118.52 273.758,119.291 Z" />
            <path d="M281.993,96.002 C277.986,79.368 267.442,70.993 257.78,78.916 C249.376,85.808 245.18,103.705 247.588,120.528 C250.099,138.072 259.254,149.473 269.535,145.117 C271.102,144.452 271.854,142.595 271.214,140.969 C270.574,139.342 268.785,138.562 267.218,139.226 C261.928,141.467 255.666,133.67 253.652,119.593 C251.534,104.796 255.205,89.136 261.581,83.908 C266.698,79.712 272.945,84.674 276.045,97.545 C276.456,99.249 278.12,100.286 279.763,99.86 C281.405,99.433 282.403,97.706 281.993,96.002 Z" />
            <path d="M298.182,106.617 C294.804,98.03 281.936,92.306 266.85,91.932 C251.871,91.56 238.181,96.556 233.387,104.684 C227.953,113.897 234.882,123.341 248.497,127.637 C261.195,131.642 277.386,130.675 288.117,125.217 C289.637,124.444 290.265,122.538 289.52,120.96 C288.775,119.382 286.939,118.73 285.419,119.504 C276.129,124.229 261.538,125.1 250.28,121.549 C239.941,118.287 235.845,112.704 238.616,108.006 C242.027,102.223 253.68,97.969 266.703,98.292 C279.62,98.613 290.277,103.354 292.506,109.022 C293.146,110.648 294.935,111.429 296.502,110.765 C298.07,110.1 298.822,108.243 298.182,106.617 Z" />
        </g>
        <g id="Regular-M" transform="translate(0,200)">
            <path d="M473.758,119.291 L485.449,125.208 L484.037,120.954 L478.336,133.088 C477.594,134.667 478.226,136.571 479.747,137.341 C481.269,138.112 483.104,137.456 483.846,135.876 L489.547,123.743 C490.289,122.164 489.657,120.259 488.136,119.489 L476.445,113.572 C474.923,112.802 473.088,113.457 472.346,115.037 C471.604,116.616 472.236,118.52 473.758,119.291 Z" />
            <path d="M481.993,96.002 C477.986,79.368 467.442,70.993 457.78,78.916 C449.376,85.808 445.18,103.705 447.588,120.528 C450.099,138.072 459.254,149.473 469.535,145.117 C471.102,144.452 471.854,142.595 471.214,140.969 C470.574,139.342 468.785,138.562 467.218,139.226 C461.928,141.467 455.666,133.67 453.652,119.593 C451.534,104.796 455.205,89.136 461.581,83.908 C466.698,79.712 472.945,84.674 476.045,97.545 C476.456,99.249 478.12,100.286 479.763,99.86 C481.405,99.433 482.403,97.706 481.993,96.002 Z" />
            <path d="M498.182,106.617 C494.804,98.03 481.936,92.306 466.85,91.932 C451.871,91.56 438.181,96.556 433.387,104.684 C427.953,113.897 434.882,123.341 448.497,127.637 C461.195,131.642 477.386,130.675 488.117,125.217 C489.637,124.444 490.265,122.538 489.52,120.96 C488.775,119.382 486.939,118.73 485.419,119.504 C476.129,124.229 461.538,125.1 450.28,121.549 C439.941,118.287 435.845,112.704 438.616,108.006 C442.027,102.223 453.68,97.969 466.703,98.292 C479.62,98.613 490.277,103.354 492.506,109.022 C493.146,110.648 494.935,111.429 496.502,110.765 C498.07,110.1 498.822,108.243 498.182,106.617 Z" />
        </g>
        <g id="Black-M" transform="translate(0,200)">
            <path d="M673.758,119.291 L685.448,125.208 L684.037,120.954 L678.336,133.088 C677.594,134.667 678.226,136.571 679.747,137.341 C681.269,138.112 683.104,137.456 683.846,135.876 L689.547,123.743 C690.289,122.164 689.657,120.259 688.136,119.489 L676.445,113.572 C674.923,112.802 673.088,113.457 672.346,115.037 C671.604,116.616 672.236,118.52 673.758,119.291 Z" />
            <path d="M681.993,96.002 C677.986,79.368 667.442,70.993 657.78,78.916 C649.376,85.808 645.18,103.705 647.588,120.528 C650.099,138.072 659.254,149.473 669.535,145.117 C671.102,144.452 671.854,142.595 671.214,140.969 C670.574,139.342 668.785,138.562 667.218,139.226 C661.928,141.467 655.666,133.67 653.652,119.593 C651.534,104.796 655.205,89.136 661.58,83.908 C666.698,79.712 672.945,84.674 676.045,97.545 C676.456,99.249 678.12,100.286 679.763,99.86 C681.405,99.433 682.403,97.706 681.993,96.002 Z" />
            <path d="M698.182,106.617 C694.804,98.03 681.936,92.306 666.85,91.932 C651.871,91.56 638.181,96.556 633.387,104.684 C627.953,113.897 634.882,123.341 648.497,127.637 C661.195,131.642 677.385,130.675 688.116,125.217 C689.637,124.444 690.265,122.538 689.52,120.96 C688.775,119.382 686.939,118.73 685.419,119.504 C676.129,124.229 661.538,125.1 650.28,121.549 C639.941,118.287 635.845,112.704 638.615,108.006 C642.027,102.223 653.68,97.969 666.703,98.292 C679.62,98.613 690.277,103.354 692.506,109.022 C693.146,110.648 694.935,111.429 696.502,110.765 C698.07,110.1 698.822,108.243 698.182,106.617 Z" />
        </g>
    </g>
</svg>