<?xml version="1.0" encoding="UTF-8"?>
<svg height="600" width="800" xmlns="http://www.w3.org/2000/svg" xmlns:xlink="http://www.w3.org/1999/xlink">
    <g id="Notes" font-family="LucidaGrande, 'Lucida Grande', sans-serif" font-size="13">
        <rect fill="white" height="600.0" width="800.0" x="0.0" y="0.0" />
        <g font-size="13">
            <text x="18.0" y="176.0">Small</text>
            <text x="18.0" y="376.0">Medium</text>
            <text x="18.0" y="576.0">Large</text>
        </g>
        <g font-size="9">
            <text x="250.0" y="30.0">Ultralight</text>
            <text x="450.0" y="30.0">Regular</text>
            <text x="650.0" y="30.0">Black</text>
            <text id="template-version" fill="#505050" text-anchor="end" x="785.0" y="575.0">Template v.3.0</text>
            <a href="https://github.com/swhitty/SwiftDraw">
                <text fill="#505050" text-anchor="end" x="785.0" y="590.0">https://github.com/swhitty/SwiftDraw</text>
            </a>
        </g>
    </g>
    <g id="Guides" stroke="rgb(39, 170, 225)" stroke-width="0.5">
        <path id="Capline-S" d="M18,76 l800,0" />
        <path id="H-reference" d="M85,145.755 L87.685,145.755 L113.369,79.287 L114.052,79.287 L114.052,76 L112.148,76 L85,145.755 Z M95.693,121.536 L130.996,121.536 L130.263,119.313 L96.474,119.313 L95.693,121.536 Z M139.15,145.755 L141.787,145.755 L114.638,76 L113.466,76 L113.466,79.287 L139.15,145.755 Z" stroke="none" transform="translate(0,200)" />
        <path id="Baseline-S" d="M18,146 l800,0" />
        <path id="left-margin-Ultralight-M" d="M233.182,256 l0,110" />
        <path id="right-margin-Ultralight-M" d="M296.818,256 l0,110" />
        <path id="left-margin-Regular-M" d="M433.182,256 l0,110" />
        <path id="right-margin-Regular-M" d="M496.818,256 l0,110" />
        <path id="left-margin-Black-M" d="M633.182,256 l0,110" />
        <path id="right-margin-Black-M" d="M696.818,256 l0,110" />
        <path id="Capline-M" d="M18,276 l800,0" />
        <path id="Baseline-M" d="M18,346 l800,0" />
        <path id="Capline-L" d="M18,476 l800,0" />
        <path id="Baseline-L" d="M18,546 l800,0" />
    </g>
    <g id="Symbols">
        <g id="Ultralight-M" transform="translate(0,200)">
            <path d="M239.545,133.273 C239.545,129.758 242.395,126.909 245.909,126.909 C249.424,126.909 252.273,129.758 252.273,133.273 C252.273,136.787 249.424,139.636 245.909,139.636 C242.395,139.636 239.545,136.787 239.545,133.273 Z M233.182,133.273 C233.182,140.302 238.88,146 245.909,146 C252.938,146 258.636,140.302 258.636,133.273 C258.636,126.244 252.938,120.545 245.909,120.545 C238.88,120.545 233.182,126.244 233.182,133.273 Z" />
            <path d="M255.455,136.455 L282.5,136.455 C290.408,136.455 296.818,130.044 296.818,122.136 C296.818,114.229 290.408,107.818 282.5,107.818 L247.5,107.818 C243.107,107.818 239.545,104.257 239.545,99.864 C239.545,95.47 243.107,91.909 247.5,91.909 L274.545,91.909 C276.303,91.909 277.727,90.485 277.727,88.727 C277.727,86.97 276.303,85.545 274.545,85.545 L247.5,85.545 C239.592,85.545 233.182,91.956 233.182,99.864 C233.182,107.771 239.592,114.182 247.5,114.182 L282.5,114.182 C286.893,114.182 290.455,117.743 290.455,122.136 C290.455,126.53 286.893,130.091 282.5,130.091 L255.455,130.091 C253.697,130.091 252.273,131.515 252.273,133.273 C252.273,135.03 253.697,136.455 255.455,136.455 Z" />
            <path d="M277.727,88.727 C277.727,85.213 280.576,82.364 284.091,82.364 C287.605,82.364 290.455,85.213 290.455,88.727 C290.455,92.242 287.605,95.091 284.091,95.091 C280.576,95.091 277.727,92.242 277.727,88.727 Z M271.364,88.727 C271.364,95.756 277.062,101.455 284.091,101.455 C291.12,101.455 296.818,95.756 296.818,88.727 C296.818,81.698 291.12,76 284.091,76 C277.062,76 271.364,81.698 271.364,88.727 Z" />
        </g>
        <g id="Regular-M" transform="translate(0,200)">
            <path d="M439.545,133.273 C439.545,129.758 442.395,126.909 445.909,126.909 C449.424,126.909 452.273,129.758 452.273,133.273 C452.273,136.787 449.424,139.636 445.909,139.636 C442.395,139.636 439.545,136.787 439.545,133.273 Z M433.182,133.273 C433.182,140.302 438.88,146 445.909,146 C452.938,146 458.636,140.302 458.636,133.273 C458.636,126.244 452.938,120.545 445.909,120.545 C438.88,120.545 433.182,126.244 433.182,133.273 Z" />
            <path d="M455.455,136.455 L482.5,136.455 C490.408,136.455 496.818,130.044 496.818,122.136 C496.818,114.229 490.408,107.818 482.5,107.818 L447.5,107.818 C443.107,107.818 439.545,104.257 439.545,99.864 C439.545,95.47 443.107,91.909 447.5,91.909 L474.545,91.909 C476.303,91.909 477.727,90.485 477.727,88.727 C477.727,86.97 476.303,85.545 474.545,85.545 L447.5,85.545 C439.592,85.545 433.182,91.956 433.182,99.864 C433.182,107.771 439.592,114.182 447.5,114.182 L482.5,114.182 C486.893,114.182 490.455,117.743 490.455,122.136 C490.455,126.53 486.893,130.091 482.5,130.091 L455.455,130.091 C453.697,130.091 452.273,131.515 452.273,133.273 C452.273,135.03 453.697,136.455 455.455,136.455 Z" />
            <path d="M477.727,88.727 C477.727,85.213 480.576,82.364 484.091,82.364 C487.605,82.364 490.455,85.213 490.455,88.727 C490.455,92.242 487.605,95.091 484.091,95.091 C480.576,95.091 477.727,92.242 477.727,88.727 Z M471.364,88.727 C471.364,95.756 477.062,101.455 484.091,101.455 C491.12,101.455 496.818,95.756 496.818,88.727 C496.818,81.698 491.12,76 484.091,76 C477.062,76 471.364,81.698 471.364,88.727 Z" />
        </g>
        <g id="Black-M" transform="translate(0,200)">
            <path d="M639.545,133.273 C639.545,129.758 642.395,126.909 645.909,126.909 C649.424,126.909 652.273,129.758 652.273,133.273 C652.273,136.787 649.424,139.636 645.909,139.636 C642.395,139.636 639.545,136.787 639.545,133.273 Z M633.182,133.273 C633.182,140.302 638.88,146 645.909,146 C652.938,146 658.636,140.302 658.636,133.273 C658.636,126.244 652.938,120.545 645.909,120.545 C638.88,120.545 633.182,126.244 633.182,133.273 Z" />
            <path d="M655.455,136.455 L682.5,136.455 C690.408,136.455 696.818,130.044 696.818,122.136 C696.818,114.229 690.408,107.818 682.5,107.818 L647.5,107.818 C643.107,107.818 639.545,104.257 639.545,99.864 C639.545,95.47 643.107,91.909 647.5,91.909 L674.545,91.909 C676.303,91.909 677.727,90.485 677.727,88.727 C677.727,86.97 676.303,85.545 674.545,85.545 L647.5,85.545 C639.592,85.545 633.182,91.956 633.182,99.864 C633.182,107.771 639.592,114.182 647.5,114.182 L682.5,114.182 C686.893,114.182 690.455,117.743 690.455,122.136 C690.455,126.53 686.893,130.091 682.5,130.091 L655.455,130.091 C653.697,130.091 652.273,131.515 652.273,133.273 C652.273,135.03 653.697,136.455 655.455,136.455 Z" />
            <path d="M677.727,88.727 C677.727,85.213 680.576,82.364 684.091,82.364 C687.605,82.364 690.455,85.213 690.455,88.727 C690.455,92.242 687.605,95.091 684.091,95.091 C680.576,95.091 677.727,92.242 677.727,88.727 Z M671.364,88.727 C671.364,95.756 677.062,101.455 684.091,101.455 C691.12,101.455 696.818,95.756 696.818,88.727 C696.818,81.698 691.12,76 684.091,76 C677.062,76 671.364,81.698 671.364,88.727 Z" />
        </g>
    </g>
</svg>