<?xml version="1.0" encoding="UTF-8"?>
<svg height="600" width="800" xmlns="http://www.w3.org/2000/svg" xmlns:xlink="http://www.w3.org/1999/xlink">
    <g id="Notes" font-family="LucidaGrande, 'Lucida Grande', sans-serif" font-size="13">
        <rect fill="white" height="600.0" width="800.0" x="0.0" y="0.0" />
        <g font-size="13">
            <text x="18.0" y="176.0">Small</text>
            <text x="18.0" y="376.0">Medium</text>
            <text x="18.0" y="576.0">Large</text>
        </g>
        <g font-size="9">
            <text x="250.0" y="30.0">Ultralight</text>
            <text x="450.0" y="30.0">Regular</text>
            <text x="650.0" y="30.0">Black</text>
            <text id="template-version" fill="#505050" text-anchor="end" x="785.0" y="575.0">Template v.3.0</text>
            <a href="https://github.com/swhitty/SwiftDraw">
                <text fill="#505050" text-anchor="end" x="785.0" y="590.0">https://github.com/swhitty/SwiftDraw</text>
            </a>
        </g>
    </g>
    <g id="Guides" stroke="rgb(39, 170, 225)" stroke-width="0.5">
        <path id="Capline-S" d="M18,76 l800,0" />
        <path id="H-reference" d="M85,145.755 L87.685,145.755 L113.369,79.287 L114.052,79.287 L114.052,76 L112.148,76 L85,145.755 Z M95.693,121.536 L130.996,121.536 L130.263,119.313 L96.474,119.313 L95.693,121.536 Z M139.15,145.755 L141.787,145.755 L114.638,76 L113.466,76 L113.466,79.287 L139.15,145.755 Z" stroke="none" transform="translate(0,200)" />
        <path id="Baseline-S" d="M18,146 l800,0" />
        <path id="left-margin-Ultralight-M" d="M230,256 l0,110" />
        <path id="right-margin-Ultralight-M" d="M300,256 l0,110" />
        <path id="left-margin-Regular-M" d="M430,256 l0,110" />
        <path id="right-margin-Regular-M" d="M500,256 l0,110" />
        <path id="left-margin-Black-M" d="M630,256 l0,110" />
        <path id="right-margin-Black-M" d="M700,256 l0,110" />
        <path id="Capline-M" d="M18,276 l800,0" />
        <path id="Baseline-M" d="M18,346 l800,0" />
        <path id="Capline-L" d="M18,476 l800,0" />
        <path id="Baseline-L" d="M18,546 l800,0" />
    </g>
    <g id="Symbols">
        <g id="Ultralight-M" transform="translate(0,200)">
            <path d="M239.545,133.273 C239.545,129.758 242.395,126.909 245.909,126.909 C249.424,126.909 252.273,129.758 252.273,133.273 C252.273,136.787 249.424,139.636 245.909,139.636 C242.395,139.636 239.545,136.787 239.545,133.273 Z M233.182,133.273 C233.182,140.302 238.88,146 245.909,146 C252.938,146 258.636,140.302 258.636,133.273 C258.636,126.244 252.938,120.545 245.909,120.545 C238.88,120.545 233.182,126.244 233.182,133.273 Z" />
            <path d="M255.455,136.455 L282.5,136.455 C283.931,136.455 285.586,136.179 287.408,135.723 C289.113,135.297 290.149,133.569 289.723,131.865 C289.297,130.16 287.569,129.123 285.865,129.55 C284.505,129.889 283.296,130.091 282.5,130.091 L255.455,130.091 C253.697,130.091 252.273,131.515 252.273,133.273 C252.273,135.03 253.697,136.455 255.455,136.455 Z" />
            <path d="M242.156,86.42 C235.829,89.015 232.208,95.745 233.498,102.492 C234.789,109.246 240.643,114.146 247.483,114.182 L265,114.182 C266.757,114.182 268.182,112.757 268.182,111 C268.182,109.243 266.757,107.818 265,107.818 L247.5,107.818 C243.726,107.798 240.47,105.072 239.748,101.297 C239.025,97.516 241.05,93.751 244.571,92.308 C246.197,91.641 246.974,89.782 246.308,88.156 C245.641,86.531 243.782,85.753 242.156,86.42 Z" />
            <path d="M230.932,81.432 L294.568,145.068 C295.811,146.311 297.826,146.311 299.068,145.068 C300.311,143.825 300.311,141.811 299.068,140.568 L235.432,76.932 C234.189,75.689 232.175,75.689 230.932,76.932 C229.689,78.175 229.689,80.189 230.932,81.432 Z" />
            <path d="M296.813,121.323 C296.408,114.042 290.595,108.229 283.313,107.823 C281.559,107.725 280.057,109.069 279.959,110.823 C279.862,112.578 281.205,114.079 282.959,114.177 C287.005,114.402 290.234,117.632 290.459,121.677 C290.557,123.431 292.059,124.775 293.813,124.677 C295.568,124.579 296.911,123.078 296.813,121.323 Z" />
            <path d="M274.545,85.545 L260.864,85.545 C259.106,85.545 257.682,86.97 257.682,88.727 C257.682,90.485 259.106,91.909 260.864,91.909 L274.545,91.909 C276.303,91.909 277.727,90.485 277.727,88.727 C277.727,86.97 276.303,85.545 274.545,85.545 Z" />
            <path d="M277.727,88.727 C277.727,85.213 280.576,82.364 284.091,82.364 C287.605,82.364 290.455,85.213 290.455,88.727 C290.455,92.242 287.605,95.091 284.091,95.091 C280.576,95.091 277.727,92.242 277.727,88.727 Z M271.364,88.727 C271.364,95.756 277.062,101.455 284.091,101.455 C291.12,101.455 296.818,95.756 296.818,88.727 C296.818,81.698 291.12,76 284.091,76 C277.062,76 271.364,81.698 271.364,88.727 Z" />
        </g>
        <g id="Regular-M" transform="translate(0,200)">
            <path d="M439.545,133.273 C439.545,129.758 442.395,126.909 445.909,126.909 C449.424,126.909 452.273,129.758 452.273,133.273 C452.273,136.787 449.424,139.636 445.909,139.636 C442.395,139.636 439.545,136.787 439.545,133.273 Z M433.182,133.273 C433.182,140.302 438.88,146 445.909,146 C452.938,146 458.636,140.302 458.636,133.273 C458.636,126.244 452.938,120.545 445.909,120.545 C438.88,120.545 433.182,126.244 433.182,133.273 Z" />
            <path d="M455.455,136.455 L482.5,136.455 C483.931,136.455 485.586,136.179 487.408,135.723 C489.113,135.297 490.149,133.569 489.723,131.865 C489.297,130.16 487.569,129.123 485.865,129.55 C484.505,129.889 483.296,130.091 482.5,130.091 L455.455,130.091 C453.697,130.091 452.273,131.515 452.273,133.273 C452.273,135.03 453.697,136.455 455.455,136.455 Z" />
            <path d="M442.156,86.42 C435.829,89.015 432.208,95.745 433.498,102.492 C434.789,109.246 440.643,114.146 447.483,114.182 L465,114.182 C466.757,114.182 468.182,112.757 468.182,111 C468.182,109.243 466.757,107.818 465,107.818 L447.5,107.818 C443.726,107.798 440.47,105.072 439.748,101.297 C439.025,97.516 441.05,93.751 444.571,92.308 C446.197,91.641 446.974,89.782 446.308,88.156 C445.641,86.531 443.782,85.753 442.156,86.42 Z" />
            <path d="M430.932,81.432 L494.568,145.068 C495.811,146.311 497.826,146.311 499.068,145.068 C500.311,143.825 500.311,141.811 499.068,140.568 L435.432,76.932 C434.189,75.689 432.174,75.689 430.932,76.932 C429.689,78.175 429.689,80.189 430.932,81.432 Z" />
            <path d="M496.813,121.323 C496.408,114.042 490.595,108.229 483.313,107.823 C481.559,107.725 480.057,109.069 479.959,110.823 C479.862,112.578 481.205,114.079 482.959,114.177 C487.005,114.402 490.234,117.632 490.459,121.677 C490.557,123.431 492.059,124.775 493.813,124.677 C495.568,124.579 496.911,123.078 496.813,121.323 Z" />
            <path d="M474.545,85.545 L460.864,85.545 C459.106,85.545 457.682,86.97 457.682,88.727 C457.682,90.485 459.106,91.909 460.864,91.909 L474.545,91.909 C476.303,91.909 477.727,90.485 477.727,88.727 C477.727,86.97 476.303,85.545 474.545,85.545 Z" />
            <path d="M477.727,88.727 C477.727,85.213 480.576,82.364 484.091,82.364 C487.605,82.364 490.455,85.213 490.455,88.727 C490.455,92.242 487.605,95.091 484.091,95.091 C480.576,95.091 477.727,92.242 477.727,88.727 Z M471.364,88.727 C471.364,95.756 477.062,101.455 484.091,101.455 C491.12,101.455 496.818,95.756 496.818,88.727 C496.818,81.698 491.12,76 484.091,76 C477.062,76 471.364,81.698 471.364,88.727 Z" />
        </g>
        <g id="Black-M" transform="translate(0,200)">
            <path d="M639.545,133.273 C639.545,129.758 642.395,126.909 645.909,126.909 C649.424,126.909 652.273,129.758 652.273,133.273 C652.273,136.787 649.424,139.636 645.909,139.636 C642.395,139.636 639.545,136.787 639.545,133.273 Z M633.182,133.273 C633.182,140.302 638.88,146 645.909,146 C652.938,146 658.636,140.302 658.636,133.273 C658.636,126.244 652.938,120.545 645.909,120.545 C638.88,120.545 633.182,126.244 633.182,133.273 Z" />
            <path d="M655.455,136.455 L682.5,136.455 C683.931,136.455 685.586,136.179 687.408,135.723 C689.113,135.297 690.149,133.569 689.723,131.865 C689.297,130.16 687.569,129.123 685.865,129.55 C684.505,129.889 683.296,130.091 682.5,130.091 L655.455,130.091 C653.697,130.091 652.273,131.515 652.273,133.273 C652.273,135.03 653.697,136.455 655.455,136.455 Z" />
            <path d="M642.156,86.42 C635.829,89.015 632.208,95.745 633.498,102.492 C634.789,109.246 640.643,114.146 647.483,114.182 L665,114.182 C666.757,114.182 668.182,112.757 668.182,111 C668.182,109.243 666.757,107.818 665,107.818 L647.5,107.818 C643.726,107.798 640.47,105.072 639.748,101.297 C639.025,97.516 641.05,93.751 644.571,92.308 C646.197,91.641 646.974,89.782 646.308,88.156 C645.641,86.531 643.782,85.753 642.156,86.42 Z" />
            <path d="M630.932,81.432 L694.568,145.068 C695.811,146.311 697.826,146.311 699.068,145.068 C700.311,143.825 700.311,141.811 699.068,140.568 L635.432,76.932 C634.189,75.689 632.174,75.689 630.932,76.932 C629.689,78.175 629.689,80.189 630.932,81.432 Z" />
            <path d="M696.813,121.323 C696.408,114.042 690.595,108.229 683.313,107.823 C681.559,107.725 680.057,109.069 679.959,110.823 C679.862,112.578 681.205,114.079 682.959,114.177 C687.005,114.402 690.234,117.632 690.459,121.677 C690.557,123.431 692.059,124.775 693.813,124.677 C695.568,124.579 696.911,123.078 696.813,121.323 Z" />
            <path d="M674.545,85.545 L660.864,85.545 C659.106,85.545 657.682,86.97 657.682,88.727 C657.682,90.485 659.106,91.909 660.864,91.909 L674.545,91.909 C676.303,91.909 677.727,90.485 677.727,88.727 C677.727,86.97 676.303,85.545 674.545,85.545 Z" />
            <path d="M677.727,88.727 C677.727,85.213 680.576,82.364 684.091,82.364 C687.605,82.364 690.455,85.213 690.455,88.727 C690.455,92.242 687.605,95.091 684.091,95.091 C680.576,95.091 677.727,92.242 677.727,88.727 Z M671.364,88.727 C671.364,95.756 677.062,101.455 684.091,101.455 C691.12,101.455 696.818,95.756 696.818,88.727 C696.818,81.698 691.12,76 684.091,76 C677.062,76 671.364,81.698 671.364,88.727 Z" />
        </g>
    </g>
</svg>