<?xml version="1.0" encoding="UTF-8"?>
<svg height="600" width="800" xmlns="http://www.w3.org/2000/svg" xmlns:xlink="http://www.w3.org/1999/xlink">
    <g id="Notes" font-family="LucidaGrande, 'Lucida Grande', sans-serif" font-size="13">
        <rect fill="white" height="600.0" width="800.0" x="0.0" y="0.0" />
        <g font-size="13">
            <text x="18.0" y="176.0">Small</text>
            <text x="18.0" y="376.0">Medium</text>
            <text x="18.0" y="576.0">Large</text>
        </g>
        <g font-size="9">
            <text x="250.0" y="30.0">Ultralight</text>
            <text x="450.0" y="30.0">Regular</text>
            <text x="650.0" y="30.0">Black</text>
            <text id="template-version" fill="#505050" text-anchor="end" x="785.0" y="575.0">Template v.3.0</text>
            <a href="https://github.com/swhitty/SwiftDraw">
                <text fill="#505050" text-anchor="end" x="785.0" y="590.0">https://github.com/swhitty/SwiftDraw</text>
            </a>
        </g>
    </g>
    <g id="Guides" stroke="rgb(39, 170, 225)" stroke-width="0.5">
        <path id="Capline-S" d="M18,76 l800,0" />
        <path id="H-reference" d="M85,145.755 L87.685,145.755 L113.369,79.287 L114.052,79.287 L114.052,76 L112.148,76 L85,145.755 Z M95.693,121.536 L130.996,121.536 L130.263,119.313 L96.474,119.313 L95.693,121.536 Z M139.15,145.755 L141.787,145.755 L114.638,76 L113.466,76 L113.466,79.287 L139.15,145.755 Z" stroke="none" transform="translate(0,200)" />
        <path id="Baseline-S" d="M18,146 l800,0" />
        <path id="left-margin-Ultralight-M" d="M233.182,256 l0,110" />
        <path id="right-margin-Ultralight-M" d="M296.818,256 l0,110" />
        <path id="left-margin-Regular-M" d="M433.182,256 l0,110" />
        <path id="right-margin-Regular-M" d="M496.818,256 l0,110" />
        <path id="left-margin-Black-M" d="M633.182,256 l0,110" />
        <path id="right-margin-Black-M" d="M696.818,256 l0,110" />
        <path id="Capline-M" d="M18,276 l800,0" />
        <path id="Baseline-M" d="M18,346 l800,0" />
        <path id="Capline-L" d="M18,476 l800,0" />
        <path id="Baseline-L" d="M18,546 l800,0" />
    </g>
    <g id="Symbols">
        <g id="Ultralight-M" transform="translate(0,200)">
            <path d="M255.455,79.182 L255.455,126.909 C255.455,128.666 256.88,130.091 258.637,130.091 C260.394,130.091 261.819,128.666 261.819,126.909 L261.819,79.182 C261.819,77.425 260.394,76 258.637,76 C256.88,76 255.455,77.425 255.455,79.182 Z" />
            <path d="M249.092,139.636 C246.56,139.636 244.132,138.631 242.342,136.841 C240.552,135.05 239.546,132.623 239.546,130.091 C239.546,130.091 239.546,130.091 239.546,130.091 C239.546,130.091 239.546,130.091 239.546,130.091 L290.455,130.091 C290.455,130.091 290.455,130.091 290.455,130.091 C290.455,130.091 290.455,130.091 290.455,130.091 C290.455,132.623 289.449,135.05 287.659,136.841 C285.869,138.631 283.441,139.636 280.909,139.636 L249.092,139.636 Z M249.092,146 L280.909,146 C285.129,146 289.175,144.324 292.159,141.34 C295.142,138.357 296.818,134.31 296.818,130.091 C296.818,128.403 296.148,126.785 294.954,125.591 C293.761,124.398 292.142,123.727 290.455,123.727 L239.546,123.727 C237.859,123.727 236.24,124.398 235.047,125.591 C233.853,126.785 233.183,128.403 233.183,130.091 C233.183,134.31 234.859,138.357 237.842,141.34 C240.826,144.324 244.872,146 249.092,146 Z" />
            <path d="M258.638,82.365 C258.638,82.365 258.638,82.365 258.638,82.365 C258.638,82.365 258.638,82.365 258.638,82.365 L290.417,110.969 C290.451,111 290.451,111 290.451,111 C290.451,111 290.451,111 290.451,111 L239.546,111 C239.545,111 239.545,111 239.545,111 C239.545,111 239.545,111 239.545,111 L258.608,82.411 Z M253.314,78.88 L234.277,107.431 C232.963,109.339 232.813,111.869 233.913,113.962 C235.013,116.054 237.183,117.364 239.547,117.364 L290.455,117.364 C293.109,117.361 295.48,115.715 296.41,113.233 C297.34,110.751 296.635,107.952 294.639,106.208 L262.929,77.666 C261.582,76.418 259.705,75.815 257.837,76.052 C255.969,76.289 254.302,77.341 253.284,78.926 Z" />
        </g>
        <g id="Regular-M" transform="translate(0,200)">
            <path d="M455.455,79.182 L455.455,126.909 C455.455,128.666 456.88,130.091 458.637,130.091 C460.394,130.091 461.819,128.666 461.819,126.909 L461.819,79.182 C461.819,77.425 460.394,76 458.637,76 C456.88,76 455.455,77.425 455.455,79.182 Z" />
            <path d="M449.092,139.636 C446.56,139.636 444.132,138.631 442.342,136.841 C440.552,135.05 439.546,132.623 439.546,130.091 C439.546,130.091 439.546,130.091 439.546,130.091 C439.546,130.091 439.546,130.091 439.546,130.091 L490.455,130.091 C490.455,130.091 490.455,130.091 490.455,130.091 C490.455,130.091 490.455,130.091 490.455,130.091 C490.455,132.623 489.449,135.05 487.659,136.841 C485.869,138.631 483.441,139.636 480.909,139.636 L449.092,139.636 Z M449.092,146 L480.909,146 C485.129,146 489.175,144.324 492.159,141.34 C495.142,138.357 496.818,134.31 496.818,130.091 C496.818,128.403 496.148,126.785 494.954,125.591 C493.761,124.398 492.142,123.727 490.455,123.727 L439.546,123.727 C437.859,123.727 436.24,124.398 435.047,125.591 C433.853,126.785 433.183,128.403 433.183,130.091 C433.183,134.31 434.859,138.357 437.842,141.34 C440.826,144.324 444.872,146 449.092,146 Z" />
            <path d="M458.638,82.365 C458.638,82.365 458.638,82.365 458.638,82.365 C458.638,82.365 458.638,82.365 458.638,82.365 L490.417,110.969 C490.451,111 490.451,111 490.451,111 C490.451,111 490.451,111 490.451,111 L439.546,111 C439.545,111 439.545,111 439.545,111 C439.545,111 439.545,111 439.545,111 L458.608,82.411 Z M453.314,78.88 L434.277,107.431 C432.963,109.339 432.813,111.869 433.913,113.962 C435.013,116.054 437.183,117.364 439.547,117.364 L490.455,117.364 C493.109,117.361 495.48,115.715 496.41,113.233 C497.34,110.751 496.635,107.952 494.639,106.208 L462.929,77.666 C461.582,76.418 459.705,75.815 457.837,76.052 C455.969,76.289 454.302,77.341 453.284,78.926 Z" />
        </g>
        <g id="Black-M" transform="translate(0,200)">
            <path d="M655.455,79.182 L655.455,126.909 C655.455,128.666 656.88,130.091 658.637,130.091 C660.394,130.091 661.819,128.666 661.819,126.909 L661.819,79.182 C661.819,77.425 660.394,76 658.637,76 C656.88,76 655.455,77.425 655.455,79.182 Z" />
            <path d="M649.092,139.636 C646.56,139.636 644.132,138.631 642.342,136.841 C640.552,135.05 639.546,132.623 639.546,130.091 C639.546,130.091 639.546,130.091 639.546,130.091 C639.546,130.091 639.546,130.091 639.546,130.091 L690.455,130.091 C690.455,130.091 690.455,130.091 690.455,130.091 C690.455,130.091 690.455,130.091 690.455,130.091 C690.455,132.623 689.449,135.05 687.659,136.841 C685.869,138.631 683.441,139.636 680.909,139.636 L649.092,139.636 Z M649.092,146 L680.909,146 C685.129,146 689.175,144.324 692.159,141.34 C695.142,138.357 696.818,134.31 696.818,130.091 C696.818,128.403 696.148,126.785 694.954,125.591 C693.761,124.398 692.142,123.727 690.455,123.727 L639.546,123.727 C637.859,123.727 636.24,124.398 635.047,125.591 C633.853,126.785 633.183,128.403 633.183,130.091 C633.183,134.31 634.859,138.357 637.842,141.34 C640.826,144.324 644.872,146 649.092,146 Z" />
            <path d="M658.638,82.365 C658.638,82.365 658.638,82.365 658.638,82.365 C658.638,82.365 658.638,82.365 658.638,82.365 L690.417,110.969 C690.451,111 690.451,111 690.451,111 C690.451,111 690.451,111 690.451,111 L639.546,111 C639.545,111 639.545,111 639.545,111 C639.545,111 639.545,111 639.545,111 L658.608,82.411 Z M653.314,78.88 L634.277,107.431 C632.963,109.339 632.813,111.869 633.913,113.962 C635.013,116.054 637.183,117.364 639.547,117.364 L690.455,117.364 C693.109,117.361 695.48,115.715 696.41,113.233 C697.34,110.751 696.635,107.952 694.639,106.208 L662.929,77.666 C661.582,76.418 659.705,75.815 657.837,76.052 C655.969,76.289 654.302,77.341 653.284,78.926 Z" />
        </g>
    </g>
</svg>