<?xml version="1.0" encoding="UTF-8"?>
<svg height="600" width="800" xmlns="http://www.w3.org/2000/svg" xmlns:xlink="http://www.w3.org/1999/xlink">
    <g id="Notes" font-family="LucidaGrande, 'Lucida Grande', sans-serif" font-size="13">
        <rect fill="white" height="600.0" width="800.0" x="0.0" y="0.0" />
        <g font-size="13">
            <text x="18.0" y="176.0">Small</text>
            <text x="18.0" y="376.0">Medium</text>
            <text x="18.0" y="576.0">Large</text>
        </g>
        <g font-size="9">
            <text x="250.0" y="30.0">Ultralight</text>
            <text x="450.0" y="30.0">Regular</text>
            <text x="650.0" y="30.0">Black</text>
            <text id="template-version" fill="#505050" text-anchor="end" x="785.0" y="575.0">Template v.3.0</text>
            <a href="https://github.com/swhitty/SwiftDraw">
                <text fill="#505050" text-anchor="end" x="785.0" y="590.0">https://github.com/swhitty/SwiftDraw</text>
            </a>
        </g>
    </g>
    <g id="Guides" stroke="rgb(39, 170, 225)" stroke-width="0.5">
        <path id="Capline-S" d="M18,76 l800,0" />
        <path id="H-reference" d="M85,145.755 L87.685,145.755 L113.369,79.287 L114.052,79.287 L114.052,76 L112.148,76 L85,145.755 Z M95.693,121.536 L130.996,121.536 L130.263,119.313 L96.474,119.313 L95.693,121.536 Z M139.15,145.755 L141.787,145.755 L114.638,76 L113.466,76 L113.466,79.287 L139.15,145.755 Z" stroke="none" transform="translate(0,200)" />
        <path id="Baseline-S" d="M18,146 l800,0" />
        <path id="left-margin-Ultralight-M" d="M230,256 l0,110" />
        <path id="right-margin-Ultralight-M" d="M300,256 l0,110" />
        <path id="left-margin-Regular-M" d="M430,256 l0,110" />
        <path id="right-margin-Regular-M" d="M500,256 l0,110" />
        <path id="left-margin-Black-M" d="M630,256 l0,110" />
        <path id="right-margin-Black-M" d="M700,256 l0,110" />
        <path id="Capline-M" d="M18,276 l800,0" />
        <path id="Baseline-M" d="M18,346 l800,0" />
        <path id="Capline-L" d="M18,476 l800,0" />
        <path id="Baseline-L" d="M18,546 l800,0" />
    </g>
    <g id="Symbols">
        <g id="Ultralight-M" transform="translate(0,200)">
            <path d="M272.723,89.278 L261.705,78.26 C258.692,75.247 253.806,75.247 250.792,78.26 L242.757,86.296 C239.743,89.31 239.743,94.195 242.756,97.209 L253.774,108.227 C255.141,109.593 257.357,109.593 258.724,108.227 C260.09,106.86 260.09,104.644 258.724,103.277 L247.706,92.259 C247.426,91.979 247.426,91.525 247.706,91.245 L255.742,83.21 C256.022,82.93 256.476,82.93 256.756,83.21 L267.773,94.227 C269.14,95.594 271.356,95.594 272.723,94.227 C274.09,92.86 274.09,90.644 272.723,89.278 Z" />
            <path d="M283.223,97.727 L291.972,88.977 C293.339,87.611 293.339,85.395 291.972,84.028 C290.605,82.661 288.389,82.661 287.023,84.028 L278.273,92.777 C276.906,94.144 276.906,96.36 278.273,97.727 C279.64,99.094 281.856,99.094 283.223,97.727 Z" />
            <path d="M281.773,108.227 L292.79,119.244 C293.07,119.524 293.07,119.978 292.79,120.258 L284.755,128.294 C284.475,128.574 284.021,128.574 283.74,128.294 L272.723,117.276 C271.356,115.91 269.14,115.91 267.773,117.276 C266.407,118.643 266.407,120.859 267.773,122.226 L278.791,133.243 C281.805,136.257 286.69,136.257 289.704,133.244 L297.74,125.208 C300.753,122.194 300.753,117.308 297.74,114.295 L286.722,103.277 C285.356,101.91 283.14,101.91 281.773,103.277 C280.406,104.644 280.406,106.86 281.773,108.227 Z" />
            <path d="M257.999,142.5 C257.999,136.003 255.418,129.771 250.823,125.177 C246.229,120.582 239.997,118.001 233.5,118.001 C231.567,118.001 230,119.568 230,121.501 C230,123.434 231.567,125.001 233.5,125.001 C238.141,125.001 242.592,126.845 245.874,130.126 C249.155,133.408 250.999,137.859 250.999,142.5 C250.999,144.433 252.566,146 254.499,146 C256.432,146 257.999,144.433 257.999,142.5 Z" />
            <path d="M253.256,103.795 C250.243,106.809 250.243,111.694 253.256,114.708 L261.292,122.744 C264.306,125.757 269.191,125.757 272.205,122.744 L287.24,107.709 C290.254,104.695 290.254,99.809 287.241,96.795 L279.205,88.76 C276.191,85.746 271.305,85.746 268.292,88.759 L253.256,103.795 Z M258.206,108.744 L273.241,93.709 C273.521,93.429 273.975,93.429 274.255,93.709 L282.291,101.745 C282.571,102.025 282.571,102.479 282.291,102.759 L267.255,117.794 C266.975,118.074 266.521,118.074 266.241,117.794 L258.206,109.759 C257.926,109.479 257.926,109.024 258.206,108.744 Z" />
        </g>
        <g id="Regular-M" transform="translate(0,200)">
            <path d="M472.723,89.278 L461.705,78.26 C458.692,75.247 453.806,75.247 450.792,78.26 L442.757,86.296 C439.743,89.31 439.743,94.195 442.756,97.209 L453.774,108.227 C455.141,109.593 457.357,109.593 458.724,108.227 C460.09,106.86 460.09,104.644 458.724,103.277 L447.706,92.259 C447.426,91.979 447.426,91.525 447.706,91.245 L455.742,83.21 C456.022,82.93 456.476,82.93 456.756,83.21 L467.773,94.227 C469.14,95.594 471.356,95.594 472.723,94.227 C474.09,92.86 474.09,90.644 472.723,89.278 Z" />
            <path d="M483.223,97.727 L491.972,88.977 C493.339,87.611 493.339,85.395 491.972,84.028 C490.605,82.661 488.389,82.661 487.023,84.028 L478.273,92.777 C476.906,94.144 476.906,96.36 478.273,97.727 C479.64,99.094 481.856,99.094 483.223,97.727 Z" />
            <path d="M481.773,108.227 L492.79,119.244 C493.07,119.524 493.07,119.978 492.79,120.258 L484.755,128.294 C484.475,128.574 484.021,128.574 483.74,128.294 L472.723,117.276 C471.356,115.91 469.14,115.91 467.773,117.276 C466.407,118.643 466.407,120.859 467.773,122.226 L478.791,133.243 C481.805,136.257 486.69,136.257 489.704,133.244 L497.74,125.208 C500.753,122.194 500.753,117.308 497.74,114.295 L486.722,103.277 C485.356,101.91 483.14,101.91 481.773,103.277 C480.406,104.644 480.406,106.86 481.773,108.227 Z" />
            <path d="M457.999,142.5 C457.999,136.003 455.418,129.771 450.823,125.177 C446.229,120.582 439.997,118.001 433.5,118.001 C431.567,118.001 430,119.568 430,121.501 C430,123.434 431.567,125.001 433.5,125.001 C438.141,125.001 442.592,126.845 445.874,130.126 C449.155,133.408 450.999,137.859 450.999,142.5 C450.999,144.433 452.566,146 454.499,146 C456.432,146 457.999,144.433 457.999,142.5 Z" />
            <path d="M453.256,103.795 C450.243,106.809 450.243,111.694 453.256,114.708 L461.292,122.744 C464.306,125.757 469.191,125.757 472.205,122.744 L487.24,107.709 C490.254,104.695 490.254,99.809 487.241,96.795 L479.205,88.76 C476.191,85.746 471.305,85.746 468.292,88.759 L453.256,103.795 Z M458.206,108.744 L473.241,93.709 C473.521,93.429 473.975,93.429 474.255,93.709 L482.291,101.745 C482.571,102.025 482.571,102.479 482.291,102.759 L467.255,117.794 C466.975,118.074 466.521,118.074 466.241,117.794 L458.206,109.759 C457.926,109.479 457.926,109.024 458.206,108.744 Z" />
        </g>
        <g id="Black-M" transform="translate(0,200)">
            <path d="M672.723,89.278 L661.706,78.26 C658.692,75.247 653.806,75.247 650.792,78.26 L642.757,86.296 C639.743,89.31 639.743,94.195 642.756,97.209 L653.774,108.227 C655.141,109.593 657.357,109.593 658.724,108.227 C660.09,106.86 660.09,104.644 658.724,103.277 L647.706,92.259 C647.426,91.979 647.426,91.525 647.706,91.245 L655.742,83.21 C656.022,82.93 656.476,82.93 656.756,83.21 L667.773,94.227 C669.14,95.594 671.356,95.594 672.723,94.227 C674.09,92.86 674.09,90.644 672.723,89.278 Z" />
            <path d="M683.223,97.727 L691.972,88.977 C693.339,87.611 693.339,85.395 691.972,84.028 C690.605,82.661 688.389,82.661 687.023,84.028 L678.273,92.777 C676.906,94.144 676.906,96.36 678.273,97.727 C679.64,99.094 681.856,99.094 683.223,97.727 Z" />
            <path d="M681.773,108.227 L692.79,119.244 C693.07,119.524 693.07,119.978 692.79,120.258 L684.755,128.294 C684.475,128.574 684.021,128.574 683.74,128.294 L672.723,117.276 C671.356,115.91 669.14,115.91 667.773,117.276 C666.407,118.643 666.407,120.859 667.773,122.226 L678.791,133.243 C681.805,136.257 686.69,136.257 689.704,133.244 L697.74,125.208 C700.753,122.194 700.753,117.308 697.74,114.295 L686.722,103.277 C685.356,101.91 683.14,101.91 681.773,103.277 C680.406,104.644 680.406,106.86 681.773,108.227 Z" />
            <path d="M657.999,142.5 C657.999,136.003 655.418,129.771 650.823,125.177 C646.229,120.582 639.997,118.001 633.5,118.001 C631.567,118.001 630,119.568 630,121.501 C630,123.434 631.567,125.001 633.5,125.001 C638.141,125.001 642.592,126.845 645.874,130.126 C649.155,133.408 650.999,137.859 650.999,142.5 C650.999,144.433 652.566,146 654.499,146 C656.432,146 657.999,144.433 657.999,142.5 Z" />
            <path d="M653.256,103.795 C650.243,106.809 650.243,111.694 653.256,114.708 L661.292,122.744 C664.306,125.757 669.191,125.757 672.205,122.744 L687.24,107.709 C690.254,104.695 690.254,99.809 687.241,96.795 L679.205,88.76 C676.191,85.746 671.305,85.746 668.292,88.759 L653.256,103.795 Z M658.206,108.744 L673.241,93.709 C673.521,93.429 673.975,93.429 674.255,93.709 L682.291,101.745 C682.571,102.025 682.571,102.479 682.291,102.759 L667.255,117.794 C666.976,118.074 666.521,118.074 666.241,117.794 L658.206,109.759 C657.926,109.479 657.926,109.024 658.206,108.744 Z" />
        </g>
    </g>
</svg>