<?xml version="1.0" encoding="UTF-8"?>
<svg height="600" width="800" xmlns="http://www.w3.org/2000/svg" xmlns:xlink="http://www.w3.org/1999/xlink">
    <g id="Notes" font-family="LucidaGrande, 'Lucida Grande', sans-serif" font-size="13">
        <rect fill="white" height="600.0" width="800.0" x="0.0" y="0.0" />
        <g font-size="13">
            <text x="18.0" y="176.0">Small</text>
            <text x="18.0" y="376.0">Medium</text>
            <text x="18.0" y="576.0">Large</text>
        </g>
        <g font-size="9">
            <text x="250.0" y="30.0">Ultralight</text>
            <text x="450.0" y="30.0">Regular</text>
            <text x="650.0" y="30.0">Black</text>
            <text id="template-version" fill="#505050" text-anchor="end" x="785.0" y="575.0">Template v.3.0</text>
            <a href="https://github.com/swhitty/SwiftDraw">
                <text fill="#505050" text-anchor="end" x="785.0" y="590.0">https://github.com/swhitty/SwiftDraw</text>
            </a>
        </g>
    </g>
    <g id="Guides" stroke="rgb(39, 170, 225)" stroke-width="0.5">
        <path id="Capline-S" d="M18,76 l800,0" />
        <path id="H-reference" d="M85,145.755 L87.685,145.755 L113.369,79.287 L114.052,79.287 L114.052,76 L112.148,76 L85,145.755 Z M95.693,121.536 L130.996,121.536 L130.263,119.313 L96.474,119.313 L95.693,121.536 Z M139.15,145.755 L141.787,145.755 L114.638,76 L113.466,76 L113.466,79.287 L139.15,145.755 Z" stroke="none" transform="translate(0,200)" />
        <path id="Baseline-S" d="M18,146 l800,0" />
        <path id="left-margin-Ultralight-M" d="M226.5,256 l0,110" />
        <path id="right-margin-Ultralight-M" d="M303.5,256 l0,110" />
        <path id="left-margin-Regular-M" d="M426.5,256 l0,110" />
        <path id="right-margin-Regular-M" d="M503.5,256 l0,110" />
        <path id="left-margin-Black-M" d="M626.5,256 l0,110" />
        <path id="right-margin-Black-M" d="M703.5,256 l0,110" />
        <path id="Capline-M" d="M18,276 l800,0" />
        <path id="Baseline-M" d="M18,346 l800,0" />
        <path id="Capline-L" d="M18,476 l800,0" />
        <path id="Baseline-L" d="M18,546 l800,0" />
    </g>
    <g id="Symbols">
        <g id="Ultralight-M" transform="translate(0,200)">
            <path d="M261.5,79.5 L261.5,142.5 C261.5,144.433 263.067,146 265,146 C266.933,146 268.5,144.433 268.5,142.5 L268.5,79.5 C268.5,77.567 266.933,76 265,76 C263.067,76 261.5,77.567 261.5,79.5 Z" />
            <path d="M286.223,98.229 L296.723,126.229 L297.9,122.2 C292.922,125.933 286.078,125.933 281.1,122.2 L282.277,126.229 L292.777,98.229 L286.223,98.229 Z M292.777,95.771 C291.642,92.743 287.358,92.743 286.223,95.771 L275.723,123.771 C275.177,125.226 275.657,126.867 276.9,127.8 C284.367,133.4 294.633,133.4 302.1,127.8 C303.343,126.867 303.823,125.226 303.277,123.771 L292.777,95.771 Z M293,97 L293,93.5 C293,91.567 291.433,90 289.5,90 C287.567,90 286,91.567 286,93.5 L286,97 C286,98.933 287.567,100.5 289.5,100.5 C291.433,100.5 293,98.933 293,97 Z" />
            <path d="M233.5,97 L237,97 C247.341,97 257.523,94.455 266.647,89.588 L263.353,89.588 C272.477,94.455 282.659,97 293,97 L296.5,97 C298.433,97 300,95.433 300,93.5 C300,91.567 298.433,90 296.5,90 L293,90 C283.808,90 274.758,87.737 266.647,83.412 C265.618,82.863 264.382,82.863 263.353,83.412 C255.242,87.737 246.192,90 237,90 L233.5,90 C231.567,90 230,91.567 230,93.5 C230,95.433 231.567,97 233.5,97 Z" />
            <path d="M237.223,98.229 L247.723,126.229 L248.9,122.2 C243.922,125.933 237.078,125.933 232.1,122.2 L233.277,126.229 L243.777,98.229 L237.223,98.229 Z M243.777,95.771 C242.642,92.743 238.358,92.743 237.223,95.771 L226.723,123.771 C226.177,125.226 226.657,126.867 227.9,127.8 C235.367,133.4 245.633,133.4 253.1,127.8 C254.343,126.867 254.823,125.226 254.277,123.771 L243.777,95.771 Z M244,97 L244,93.5 C244,91.567 242.433,90 240.5,90 C238.567,90 237,91.567 237,93.5 L237,97 C237,98.933 238.567,100.5 240.5,100.5 C242.433,100.5 244,98.933 244,97 Z" />
            <path d="M247.5,146 L282.5,146 C284.433,146 286,144.433 286,142.5 C286,140.567 284.433,139 282.5,139 L247.5,139 C245.567,139 244,140.567 244,142.5 C244,144.433 245.567,146 247.5,146 Z" />
        </g>
        <g id="Regular-M" transform="translate(0,200)">
            <path d="M461.5,79.5 L461.5,142.5 C461.5,144.433 463.067,146 465,146 C466.933,146 468.5,144.433 468.5,142.5 L468.5,79.5 C468.5,77.567 466.933,76 465,76 C463.067,76 461.5,77.567 461.5,79.5 Z" />
            <path d="M486.223,98.229 L496.723,126.229 L497.9,122.2 C492.922,125.933 486.078,125.933 481.1,122.2 L482.277,126.229 L492.777,98.229 L486.223,98.229 Z M492.777,95.771 C491.642,92.743 487.358,92.743 486.223,95.771 L475.723,123.771 C475.177,125.226 475.657,126.867 476.9,127.8 C484.367,133.4 494.633,133.4 502.1,127.8 C503.343,126.867 503.823,125.226 503.277,123.771 L492.777,95.771 Z M493,97 L493,93.5 C493,91.567 491.433,90 489.5,90 C487.567,90 486,91.567 486,93.5 L486,97 C486,98.933 487.567,100.5 489.5,100.5 C491.433,100.5 493,98.933 493,97 Z" />
            <path d="M433.5,97 L437,97 C447.341,97 457.523,94.455 466.647,89.588 L463.353,89.588 C472.477,94.455 482.659,97 493,97 L496.5,97 C498.433,97 500,95.433 500,93.5 C500,91.567 498.433,90 496.5,90 L493,90 C483.808,90 474.758,87.737 466.647,83.412 C465.618,82.863 464.382,82.863 463.353,83.412 C455.242,87.737 446.192,90 437,90 L433.5,90 C431.567,90 430,91.567 430,93.5 C430,95.433 431.567,97 433.5,97 Z" />
            <path d="M437.223,98.229 L447.723,126.229 L448.9,122.2 C443.922,125.933 437.078,125.933 432.1,122.2 L433.277,126.229 L443.777,98.229 L437.223,98.229 Z M443.777,95.771 C442.642,92.743 438.358,92.743 437.223,95.771 L426.723,123.771 C426.177,125.226 426.657,126.867 427.9,127.8 C435.367,133.4 445.633,133.4 453.1,127.8 C454.343,126.867 454.823,125.226 454.277,123.771 L443.777,95.771 Z M444,97 L444,93.5 C444,91.567 442.433,90 440.5,90 C438.567,90 437,91.567 437,93.5 L437,97 C437,98.933 438.567,100.5 440.5,100.5 C442.433,100.5 444,98.933 444,97 Z" />
            <path d="M447.5,146 L482.5,146 C484.433,146 486,144.433 486,142.5 C486,140.567 484.433,139 482.5,139 L447.5,139 C445.567,139 444,140.567 444,142.5 C444,144.433 445.567,146 447.5,146 Z" />
        </g>
        <g id="Black-M" transform="translate(0,200)">
            <path d="M661.5,79.5 L661.5,142.5 C661.5,144.433 663.067,146 665,146 C666.933,146 668.5,144.433 668.5,142.5 L668.5,79.5 C668.5,77.567 666.933,76 665,76 C663.067,76 661.5,77.567 661.5,79.5 Z" />
            <path d="M686.223,98.229 L696.723,126.229 L697.9,122.2 C692.922,125.933 686.078,125.933 681.1,122.2 L682.277,126.229 L692.777,98.229 L686.223,98.229 Z M692.777,95.771 C691.642,92.743 687.358,92.743 686.223,95.771 L675.723,123.771 C675.177,125.226 675.656,126.867 676.9,127.8 C684.367,133.4 694.633,133.4 702.1,127.8 C703.344,126.867 703.823,125.226 703.277,123.771 L692.777,95.771 Z M693,97 L693,93.5 C693,91.567 691.433,90 689.5,90 C687.567,90 686,91.567 686,93.5 L686,97 C686,98.933 687.567,100.5 689.5,100.5 C691.433,100.5 693,98.933 693,97 Z" />
            <path d="M633.5,97 L637,97 C647.341,97 657.523,94.455 666.647,89.588 L663.353,89.588 C672.477,94.455 682.659,97 693,97 L696.5,97 C698.433,97 700,95.433 700,93.5 C700,91.567 698.433,90 696.5,90 L693,90 C683.808,90 674.758,87.737 666.647,83.412 C665.618,82.863 664.382,82.863 663.353,83.412 C655.242,87.737 646.192,90 637,90 L633.5,90 C631.567,90 630,91.567 630,93.5 C630,95.433 631.567,97 633.5,97 Z" />
            <path d="M637.223,98.229 L647.723,126.229 L648.9,122.2 C643.922,125.933 637.078,125.933 632.1,122.2 L633.277,126.229 L643.777,98.229 L637.223,98.229 Z M643.777,95.771 C642.642,92.743 638.358,92.743 637.223,95.771 L626.723,123.771 C626.177,125.226 626.657,126.867 627.9,127.8 C635.367,133.4 645.633,133.4 653.1,127.8 C654.344,126.867 654.823,125.226 654.277,123.771 L643.777,95.771 Z M644,97 L644,93.5 C644,91.567 642.433,90 640.5,90 C638.567,90 637,91.567 637,93.5 L637,97 C637,98.933 638.567,100.5 640.5,100.5 C642.433,100.5 644,98.933 644,97 Z" />
            <path d="M647.5,146 L682.5,146 C684.433,146 686,144.433 686,142.5 C686,140.567 684.433,139 682.5,139 L647.5,139 C645.567,139 644,140.567 644,142.5 C644,144.433 645.567,146 647.5,146 Z" />
        </g>
    </g>
</svg>