<?xml version="1.0" encoding="UTF-8"?>
<svg height="600" width="800" xmlns="http://www.w3.org/2000/svg" xmlns:xlink="http://www.w3.org/1999/xlink">
    <g id="Notes" font-family="LucidaGrande, 'Lucida Grande', sans-serif" font-size="13">
        <rect fill="white" height="600.0" width="800.0" x="0.0" y="0.0" />
        <g font-size="13">
            <text x="18.0" y="176.0">Small</text>
            <text x="18.0" y="376.0">Medium</text>
            <text x="18.0" y="576.0">Large</text>
        </g>
        <g font-size="9">
            <text x="250.0" y="30.0">Ultralight</text>
            <text x="450.0" y="30.0">Regular</text>
            <text x="650.0" y="30.0">Black</text>
            <text id="template-version" fill="#505050" text-anchor="end" x="785.0" y="575.0">Template v.3.0</text>
            <a href="https://github.com/swhitty/SwiftDraw">
                <text fill="#505050" text-anchor="end" x="785.0" y="590.0">https://github.com/swhitty/SwiftDraw</text>
            </a>
        </g>
    </g>
    <g id="Guides" stroke="rgb(39, 170, 225)" stroke-width="0.5">
        <path id="Capline-S" d="M18,76 l800,0" />
        <path id="H-reference" d="M85,145.755 L87.685,145.755 L113.369,79.287 L114.052,79.287 L114.052,76 L112.148,76 L85,145.755 Z M95.693,121.536 L130.996,121.536 L130.263,119.313 L96.474,119.313 L95.693,121.536 Z M139.15,145.755 L141.787,145.755 L114.638,76 L113.466,76 L113.466,79.287 L139.15,145.755 Z" stroke="none" transform="translate(0,200)" />
        <path id="Baseline-S" d="M18,146 l800,0" />
        <path id="left-margin-Ultralight-M" d="M222.222,256 l0,110" />
        <path id="right-margin-Ultralight-M" d="M307.778,256 l0,110" />
        <path id="left-margin-Regular-M" d="M422.222,256 l0,110" />
        <path id="right-margin-Regular-M" d="M507.778,256 l0,110" />
        <path id="left-margin-Black-M" d="M622.222,256 l0,110" />
        <path id="right-margin-Black-M" d="M707.778,256 l0,110" />
        <path id="Capline-M" d="M18,276 l800,0" />
        <path id="Baseline-M" d="M18,346 l800,0" />
        <path id="Capline-L" d="M18,476 l800,0" />
        <path id="Baseline-L" d="M18,546 l800,0" />
    </g>
    <g id="Symbols">
        <g id="Ultralight-M" transform="translate(0,200)">
            <path d="M300,76 L286.389,76 C283.964,76 282.13,78.195 282.562,80.582 L290.34,123.554 C290.722,125.667 292.746,127.07 294.859,126.688 C296.973,126.305 298.376,124.282 297.993,122.168 L290.216,79.196 L286.389,83.778 L300,83.778 C302.148,83.778 303.889,82.037 303.889,79.889 C303.889,77.741 302.148,76 300,76 Z" />
            <path d="M245.361,134.333 L265.358,134.333 C269.241,134.333 272.456,131.48 273.288,127.723 C275.201,119.139 282.181,112.598 290.876,111.245 C292.998,110.915 294.451,108.927 294.12,106.805 C293.79,104.683 291.802,103.23 289.68,103.56 C277.823,105.405 268.306,114.324 265.696,126.036 C265.619,126.382 265.424,126.556 265.358,126.556 L245.361,126.556 C243.213,126.556 241.472,128.297 241.472,130.444 C241.472,132.592 243.213,134.333 245.361,134.333 Z" />
            <path d="M288.333,132.389 C288.333,129.167 290.945,126.556 294.167,126.556 C297.388,126.556 300,129.167 300,132.389 C300,135.611 297.388,138.222 294.167,138.222 C290.945,138.222 288.333,135.611 288.333,132.389 Z M280.556,132.389 C280.556,139.906 286.649,146 294.167,146 C301.684,146 307.778,139.906 307.778,132.389 C307.778,124.872 301.684,118.778 294.167,118.778 C286.649,118.778 280.556,124.872 280.556,132.389 Z" />
            <path d="M230,132.389 C230,129.167 232.612,126.556 235.833,126.556 C239.055,126.556 241.667,129.167 241.667,132.389 C241.667,135.611 239.055,138.222 235.833,138.222 C232.612,138.222 230,135.611 230,132.389 Z M222.222,132.389 C222.222,139.906 228.316,146 235.833,146 C243.351,146 249.444,139.906 249.444,132.389 C249.444,124.872 243.351,118.778 235.833,118.778 C228.316,118.778 222.222,124.872 222.222,132.389 Z" />
        </g>
        <g id="Regular-M" transform="translate(0,200)">
            <path d="M500,76 L486.389,76 C483.964,76 482.13,78.195 482.562,80.582 L490.34,123.554 C490.722,125.667 492.746,127.07 494.859,126.688 C496.973,126.305 498.376,124.282 497.993,122.168 L490.216,79.196 L486.389,83.778 L500,83.778 C502.148,83.778 503.889,82.037 503.889,79.889 C503.889,77.741 502.148,76 500,76 Z" />
            <path d="M445.361,134.333 L465.358,134.333 C469.241,134.333 472.456,131.48 473.288,127.723 C475.201,119.139 482.181,112.598 490.876,111.245 C492.998,110.915 494.451,108.927 494.12,106.805 C493.79,104.683 491.802,103.23 489.68,103.56 C477.823,105.405 468.306,114.324 465.696,126.036 C465.619,126.382 465.424,126.556 465.358,126.556 L445.361,126.556 C443.213,126.556 441.472,128.297 441.472,130.444 C441.472,132.592 443.213,134.333 445.361,134.333 Z" />
            <path d="M488.333,132.389 C488.333,129.167 490.945,126.556 494.167,126.556 C497.388,126.556 500,129.167 500,132.389 C500,135.611 497.388,138.222 494.167,138.222 C490.945,138.222 488.333,135.611 488.333,132.389 Z M480.556,132.389 C480.556,139.906 486.649,146 494.167,146 C501.684,146 507.778,139.906 507.778,132.389 C507.778,124.872 501.684,118.778 494.167,118.778 C486.649,118.778 480.556,124.872 480.556,132.389 Z" />
            <path d="M430,132.389 C430,129.167 432.612,126.556 435.833,126.556 C439.055,126.556 441.667,129.167 441.667,132.389 C441.667,135.611 439.055,138.222 435.833,138.222 C432.612,138.222 430,135.611 430,132.389 Z M422.222,132.389 C422.222,139.906 428.316,146 435.833,146 C443.351,146 449.444,139.906 449.444,132.389 C449.444,124.872 443.351,118.778 435.833,118.778 C428.316,118.778 422.222,124.872 422.222,132.389 Z" />
        </g>
        <g id="Black-M" transform="translate(0,200)">
            <path d="M700,76 L686.389,76 C683.964,76 682.13,78.195 682.562,80.582 L690.34,123.554 C690.722,125.667 692.746,127.07 694.859,126.688 C696.973,126.305 698.376,124.282 697.993,122.168 L690.216,79.196 L686.389,83.778 L700,83.778 C702.148,83.778 703.889,82.037 703.889,79.889 C703.889,77.741 702.148,76 700,76 Z" />
            <path d="M645.361,134.333 L665.358,134.333 C669.241,134.333 672.456,131.48 673.288,127.723 C675.201,119.139 682.181,112.598 690.876,111.245 C692.998,110.915 694.451,108.927 694.12,106.805 C693.79,104.683 691.802,103.23 689.68,103.56 C677.823,105.405 668.306,114.324 665.696,126.036 C665.619,126.382 665.424,126.556 665.358,126.556 L645.361,126.556 C643.213,126.556 641.472,128.297 641.472,130.444 C641.472,132.592 643.213,134.333 645.361,134.333 Z" />
            <path d="M688.333,132.389 C688.333,129.167 690.945,126.556 694.167,126.556 C697.388,126.556 700,129.167 700,132.389 C700,135.611 697.388,138.222 694.167,138.222 C690.945,138.222 688.333,135.611 688.333,132.389 Z M680.556,132.389 C680.556,139.906 686.649,146 694.167,146 C701.684,146 707.778,139.906 707.778,132.389 C707.778,124.872 701.684,118.778 694.167,118.778 C686.649,118.778 680.556,124.872 680.556,132.389 Z" />
            <path d="M630,132.389 C630,129.167 632.612,126.556 635.833,126.556 C639.055,126.556 641.667,129.167 641.667,132.389 C641.667,135.611 639.055,138.222 635.833,138.222 C632.612,138.222 630,135.611 630,132.389 Z M622.222,132.389 C622.222,139.906 628.316,146 635.833,146 C643.351,146 649.444,139.906 649.444,132.389 C649.444,124.872 643.351,118.778 635.833,118.778 C628.316,118.778 622.222,124.872 622.222,132.389 Z" />
        </g>
    </g>
</svg>