<?xml version="1.0" encoding="UTF-8"?>
<svg height="600" width="800" xmlns="http://www.w3.org/2000/svg" xmlns:xlink="http://www.w3.org/1999/xlink">
    <g id="Notes" font-family="LucidaGrande, 'Lucida Grande', sans-serif" font-size="13">
        <rect fill="white" height="600.0" width="800.0" x="0.0" y="0.0" />
        <g font-size="13">
            <text x="18.0" y="176.0">Small</text>
            <text x="18.0" y="376.0">Medium</text>
            <text x="18.0" y="576.0">Large</text>
        </g>
        <g font-size="9">
            <text x="250.0" y="30.0">Ultralight</text>
            <text x="450.0" y="30.0">Regular</text>
            <text x="650.0" y="30.0">Black</text>
            <text id="template-version" fill="#505050" text-anchor="end" x="785.0" y="575.0">Template v.3.0</text>
            <a href="https://github.com/swhitty/SwiftDraw">
                <text fill="#505050" text-anchor="end" x="785.0" y="590.0">https://github.com/swhitty/SwiftDraw</text>
            </a>
        </g>
    </g>
    <g id="Guides" stroke="rgb(39, 170, 225)" stroke-width="0.5">
        <path id="Capline-S" d="M18,76 l800,0" />
        <path id="H-reference" d="M85,145.755 L87.685,145.755 L113.369,79.287 L114.052,79.287 L114.052,76 L112.148,76 L85,145.755 Z M95.693,121.536 L130.996,121.536 L130.263,119.313 L96.474,119.313 L95.693,121.536 Z M139.15,145.755 L141.787,145.755 L114.638,76 L113.466,76 L113.466,79.287 L139.15,145.755 Z" stroke="none" transform="translate(0,200)" />
        <path id="Baseline-S" d="M18,146 l800,0" />
        <path id="left-margin-Ultralight-M" d="M226.5,256 l0,110" />
        <path id="right-margin-Ultralight-M" d="M303.5,256 l0,110" />
        <path id="left-margin-Regular-M" d="M426.5,256 l0,110" />
        <path id="right-margin-Regular-M" d="M503.5,256 l0,110" />
        <path id="left-margin-Black-M" d="M626.5,256 l0,110" />
        <path id="right-margin-Black-M" d="M703.5,256 l0,110" />
        <path id="Capline-M" d="M18,276 l800,0" />
        <path id="Baseline-M" d="M18,346 l800,0" />
        <path id="Capline-L" d="M18,476 l800,0" />
        <path id="Baseline-L" d="M18,546 l800,0" />
    </g>
    <g id="Symbols">
        <g id="Ultralight-M" transform="translate(0,200)">
            <path d="M275.5,107.5 L258,107.5 C256.067,107.5 254.5,109.067 254.5,111 C254.5,112.933 256.067,114.5 258,114.5 L275.5,114.5 C277.433,114.5 279,112.933 279,111 C279,109.067 277.433,107.5 275.5,107.5 Z" />
            <path d="M275.5,93.5 L258,93.5 C256.067,93.5 254.5,95.067 254.5,97 C254.5,98.933 256.067,100.5 258,100.5 L275.5,100.5 C277.433,100.5 279,98.933 279,97 C279,95.067 277.433,93.5 275.5,93.5 Z" />
            <path d="M293,128.5 L293,86.5 C293,83.715 291.894,81.045 289.925,79.075 C287.956,77.106 285.285,76 282.5,76 L237,76 C235.067,76 233.5,77.567 233.5,79.5 C233.5,81.433 235.067,83 237,83 L282.5,83 C283.428,83 284.318,83.369 284.975,84.025 C285.631,84.682 286,85.572 286,86.5 L286,128.5 C286,130.433 287.567,132 289.5,132 C291.433,132 293,130.433 293,128.5 Z" />
            <path d="M251,146 L293,146 C295.785,146 298.455,144.894 300.425,142.925 C302.394,140.955 303.5,138.285 303.5,135.5 L303.5,132 C303.5,130.143 302.763,128.363 301.45,127.05 C300.137,125.737 298.357,125 296.5,125 L261.5,125 C259.643,125 257.863,125.737 256.55,127.05 C255.237,128.363 254.5,130.143 254.5,132 L254.5,135.5 C254.5,137.433 252.933,139 251,139 C249.067,139 247.5,137.433 247.5,135.5 L247.5,86.5 C247.5,80.701 242.799,76 237,76 C231.201,76 226.5,80.701 226.5,86.5 L226.5,93.5 C226.5,95.357 227.238,97.137 228.55,98.45 C229.863,99.763 231.643,100.5 233.5,100.5 L244,100.5 C245.933,100.5 247.5,98.933 247.5,97 C247.5,95.067 245.933,93.5 244,93.5 L233.5,93.5 C233.5,93.5 233.5,93.5 233.5,93.5 C233.5,93.5 233.5,93.5 233.5,93.5 L233.5,86.5 C233.5,84.567 235.067,83 237,83 C238.933,83 240.5,84.567 240.5,86.5 L240.5,135.5 C240.5,141.299 245.201,146 251,146 C256.799,146 261.5,141.299 261.5,135.5 L261.5,132 C261.5,132 261.5,132 261.5,132 C261.5,132 261.5,132 261.5,132 L296.5,132 C296.5,132 296.5,132 296.5,132 C296.5,132 296.5,132 296.5,132 L296.5,135.5 C296.5,136.428 296.131,137.318 295.475,137.975 C294.818,138.631 293.928,139 293,139 L251,139 C249.067,139 247.5,140.567 247.5,142.5 C247.5,144.433 249.067,146 251,146 Z" />
        </g>
        <g id="Regular-M" transform="translate(0,200)">
            <path d="M475.5,107.5 L458,107.5 C456.067,107.5 454.5,109.067 454.5,111 C454.5,112.933 456.067,114.5 458,114.5 L475.5,114.5 C477.433,114.5 479,112.933 479,111 C479,109.067 477.433,107.5 475.5,107.5 Z" />
            <path d="M475.5,93.5 L458,93.5 C456.067,93.5 454.5,95.067 454.5,97 C454.5,98.933 456.067,100.5 458,100.5 L475.5,100.5 C477.433,100.5 479,98.933 479,97 C479,95.067 477.433,93.5 475.5,93.5 Z" />
            <path d="M493,128.5 L493,86.5 C493,83.715 491.894,81.045 489.925,79.075 C487.956,77.106 485.285,76 482.5,76 L437,76 C435.067,76 433.5,77.567 433.5,79.5 C433.5,81.433 435.067,83 437,83 L482.5,83 C483.428,83 484.318,83.369 484.975,84.025 C485.631,84.682 486,85.572 486,86.5 L486,128.5 C486,130.433 487.567,132 489.5,132 C491.433,132 493,130.433 493,128.5 Z" />
            <path d="M451,146 L493,146 C495.785,146 498.455,144.894 500.425,142.925 C502.394,140.955 503.5,138.285 503.5,135.5 L503.5,132 C503.5,130.143 502.763,128.363 501.45,127.05 C500.137,125.737 498.357,125 496.5,125 L461.5,125 C459.643,125 457.863,125.737 456.55,127.05 C455.237,128.363 454.5,130.143 454.5,132 L454.5,135.5 C454.5,137.433 452.933,139 451,139 C449.067,139 447.5,137.433 447.5,135.5 L447.5,86.5 C447.5,80.701 442.799,76 437,76 C431.201,76 426.5,80.701 426.5,86.5 L426.5,93.5 C426.5,95.357 427.237,97.137 428.55,98.45 C429.863,99.763 431.643,100.5 433.5,100.5 L444,100.5 C445.933,100.5 447.5,98.933 447.5,97 C447.5,95.067 445.933,93.5 444,93.5 L433.5,93.5 C433.5,93.5 433.5,93.5 433.5,93.5 C433.5,93.5 433.5,93.5 433.5,93.5 L433.5,86.5 C433.5,84.567 435.067,83 437,83 C438.933,83 440.5,84.567 440.5,86.5 L440.5,135.5 C440.5,141.299 445.201,146 451,146 C456.799,146 461.5,141.299 461.5,135.5 L461.5,132 C461.5,132 461.5,132 461.5,132 C461.5,132 461.5,132 461.5,132 L496.5,132 C496.5,132 496.5,132 496.5,132 C496.5,132 496.5,132 496.5,132 L496.5,135.5 C496.5,136.428 496.131,137.318 495.475,137.975 C494.818,138.631 493.928,139 493,139 L451,139 C449.067,139 447.5,140.567 447.5,142.5 C447.5,144.433 449.067,146 451,146 Z" />
        </g>
        <g id="Black-M" transform="translate(0,200)">
            <path d="M675.5,107.5 L658,107.5 C656.067,107.5 654.5,109.067 654.5,111 C654.5,112.933 656.067,114.5 658,114.5 L675.5,114.5 C677.433,114.5 679,112.933 679,111 C679,109.067 677.433,107.5 675.5,107.5 Z" />
            <path d="M675.5,93.5 L658,93.5 C656.067,93.5 654.5,95.067 654.5,97 C654.5,98.933 656.067,100.5 658,100.5 L675.5,100.5 C677.433,100.5 679,98.933 679,97 C679,95.067 677.433,93.5 675.5,93.5 Z" />
            <path d="M693,128.5 L693,86.5 C693,83.715 691.894,81.045 689.925,79.075 C687.956,77.106 685.285,76 682.5,76 L637,76 C635.067,76 633.5,77.567 633.5,79.5 C633.5,81.433 635.067,83 637,83 L682.5,83 C683.428,83 684.318,83.369 684.975,84.025 C685.631,84.682 686,85.572 686,86.5 L686,128.5 C686,130.433 687.567,132 689.5,132 C691.433,132 693,130.433 693,128.5 Z" />
            <path d="M651,146 L693,146 C695.785,146 698.456,144.894 700.425,142.925 C702.394,140.955 703.5,138.285 703.5,135.5 L703.5,132 C703.5,130.143 702.763,128.363 701.45,127.05 C700.137,125.737 698.357,125 696.5,125 L661.5,125 C659.643,125 657.863,125.737 656.55,127.05 C655.237,128.363 654.5,130.143 654.5,132 L654.5,135.5 C654.5,137.433 652.933,139 651,139 C649.067,139 647.5,137.433 647.5,135.5 L647.5,86.5 C647.5,80.701 642.799,76 637,76 C631.201,76 626.5,80.701 626.5,86.5 L626.5,93.5 C626.5,95.357 627.237,97.137 628.55,98.45 C629.863,99.763 631.643,100.5 633.5,100.5 L644,100.5 C645.933,100.5 647.5,98.933 647.5,97 C647.5,95.067 645.933,93.5 644,93.5 L633.5,93.5 C633.5,93.5 633.5,93.5 633.5,93.5 C633.5,93.5 633.5,93.5 633.5,93.5 L633.5,86.5 C633.5,84.567 635.067,83 637,83 C638.933,83 640.5,84.567 640.5,86.5 L640.5,135.5 C640.5,141.299 645.201,146 651,146 C656.799,146 661.5,141.299 661.5,135.5 L661.5,132 C661.5,132 661.5,132 661.5,132 C661.5,132 661.5,132 661.5,132 L696.5,132 C696.5,132 696.5,132 696.5,132 C696.5,132 696.5,132 696.5,132 L696.5,135.5 C696.5,136.428 696.131,137.318 695.475,137.975 C694.818,138.631 693.928,139 693,139 L651,139 C649.067,139 647.5,140.567 647.5,142.5 C647.5,144.433 649.067,146 651,146 Z" />
        </g>
    </g>
</svg>