<?xml version="1.0" encoding="UTF-8"?>
<svg height="600" width="800" xmlns="http://www.w3.org/2000/svg" xmlns:xlink="http://www.w3.org/1999/xlink">
    <g id="Notes" font-family="LucidaGrande, 'Lucida Grande', sans-serif" font-size="13">
        <rect fill="white" height="600.0" width="800.0" x="0.0" y="0.0" />
        <g font-size="13">
            <text x="18.0" y="176.0">Small</text>
            <text x="18.0" y="376.0">Medium</text>
            <text x="18.0" y="576.0">Large</text>
        </g>
        <g font-size="9">
            <text x="250.0" y="30.0">Ultralight</text>
            <text x="450.0" y="30.0">Regular</text>
            <text x="650.0" y="30.0">Black</text>
            <text id="template-version" fill="#505050" text-anchor="end" x="785.0" y="575.0">Template v.3.0</text>
            <a href="https://github.com/swhitty/SwiftDraw">
                <text fill="#505050" text-anchor="end" x="785.0" y="590.0">https://github.com/swhitty/SwiftDraw</text>
            </a>
        </g>
    </g>
    <g id="Guides" stroke="rgb(39, 170, 225)" stroke-width="0.5">
        <path id="Capline-S" d="M18,76 l800,0" />
        <path id="H-reference" d="M85,145.755 L87.685,145.755 L113.369,79.287 L114.052,79.287 L114.052,76 L112.148,76 L85,145.755 Z M95.693,121.536 L130.996,121.536 L130.263,119.313 L96.474,119.313 L95.693,121.536 Z M139.15,145.755 L141.787,145.755 L114.638,76 L113.466,76 L113.466,79.287 L139.15,145.755 Z" stroke="none" transform="translate(0,200)" />
        <path id="Baseline-S" d="M18,146 l800,0" />
        <path id="left-margin-Ultralight-M" d="M230,256 l0,110" />
        <path id="right-margin-Ultralight-M" d="M300,256 l0,110" />
        <path id="left-margin-Regular-M" d="M430,256 l0,110" />
        <path id="right-margin-Regular-M" d="M500,256 l0,110" />
        <path id="left-margin-Black-M" d="M630,256 l0,110" />
        <path id="right-margin-Black-M" d="M700,256 l0,110" />
        <path id="Capline-M" d="M18,276 l800,0" />
        <path id="Baseline-M" d="M18,346 l800,0" />
        <path id="Capline-L" d="M18,476 l800,0" />
        <path id="Baseline-L" d="M18,546 l800,0" />
    </g>
    <g id="Symbols">
        <g id="Ultralight-M" transform="translate(0,200)">
            <path d="M270.111,143.005 C270.854,144.856 272.669,146.049 274.662,145.998 C276.656,145.947 278.408,144.662 279.054,142.776 L299.735,82.325 C300.344,80.641 299.911,78.699 298.606,77.394 C297.301,76.089 295.359,75.656 293.624,76.283 L233.226,96.945 C231.338,97.592 230.053,99.344 230.002,101.338 C229.951,103.331 231.144,105.146 232.995,105.889 L258.225,116.006 C259.032,116.329 259.671,116.967 259.995,117.772 L270.111,143.004 Z M276.017,140.636 L265.9,115.401 C264.926,112.981 263.009,111.068 260.592,110.1 L235.364,99.983 C235.982,100.231 236.379,100.836 236.362,101.5 C236.345,102.165 235.917,102.749 235.288,102.964 L295.734,82.286 C295.2,82.479 294.546,82.333 294.107,81.893 C293.667,81.454 293.521,80.8 293.732,80.215 L273.035,140.714 C273.251,140.083 273.835,139.655 274.5,139.638 C275.164,139.621 275.769,140.018 276.017,140.635 Z" />
            <path d="M294.096,77.407 L259.291,112.21 C258.049,113.452 258.048,115.466 259.291,116.709 C260.533,117.951 262.548,117.952 263.79,116.709 L298.596,81.907 C299.838,80.665 299.838,78.65 298.596,77.408 C297.353,76.165 295.339,76.165 294.096,77.407 Z" />
        </g>
        <g id="Regular-M" transform="translate(0,200)">
            <path d="M470.111,143.005 C470.854,144.856 472.669,146.049 474.662,145.998 C476.656,145.947 478.408,144.662 479.054,142.776 L499.735,82.325 C500.344,80.641 499.911,78.699 498.606,77.394 C497.301,76.089 495.359,75.656 493.624,76.283 L433.226,96.945 C431.338,97.592 430.053,99.344 430.002,101.338 C429.951,103.331 431.144,105.146 432.995,105.889 L458.225,116.006 C459.032,116.329 459.671,116.967 459.995,117.772 L470.111,143.004 Z M476.017,140.636 L465.9,115.401 C464.926,112.981 463.009,111.068 460.592,110.1 L435.364,99.983 C435.982,100.231 436.379,100.836 436.362,101.5 C436.345,102.165 435.917,102.749 435.288,102.964 L495.734,82.286 C495.2,82.479 494.546,82.333 494.107,81.893 C493.667,81.454 493.521,80.8 493.732,80.215 L473.035,140.714 C473.251,140.083 473.835,139.655 474.5,139.638 C475.164,139.621 475.769,140.018 476.017,140.635 Z" />
            <path d="M494.096,77.407 L459.291,112.21 C458.049,113.452 458.048,115.466 459.291,116.709 C460.533,117.951 462.548,117.952 463.79,116.709 L498.596,81.907 C499.838,80.665 499.838,78.65 498.596,77.408 C497.353,76.165 495.339,76.165 494.096,77.407 Z" />
        </g>
        <g id="Black-M" transform="translate(0,200)">
            <path d="M670.111,143.005 C670.854,144.856 672.669,146.049 674.662,145.998 C676.656,145.947 678.408,144.662 679.054,142.776 L699.735,82.325 C700.344,80.641 699.911,78.699 698.606,77.394 C697.301,76.089 695.359,75.656 693.624,76.283 L633.226,96.945 C631.338,97.592 630.053,99.344 630.002,101.338 C629.951,103.331 631.144,105.146 632.995,105.889 L658.225,116.006 C659.032,116.329 659.671,116.967 659.995,117.772 L670.111,143.004 Z M676.017,140.636 L665.9,115.401 C664.926,112.981 663.009,111.068 660.592,110.1 L635.364,99.983 C635.982,100.231 636.379,100.836 636.362,101.5 C636.345,102.165 635.917,102.749 635.288,102.964 L695.734,82.286 C695.2,82.479 694.546,82.333 694.107,81.893 C693.667,81.454 693.521,80.8 693.732,80.215 L673.035,140.714 C673.251,140.083 673.835,139.655 674.5,139.638 C675.164,139.621 675.769,140.018 676.017,140.635 Z" />
            <path d="M694.096,77.407 L659.291,112.21 C658.049,113.452 658.048,115.466 659.291,116.709 C660.533,117.951 662.548,117.952 663.79,116.709 L698.596,81.907 C699.838,80.665 699.838,78.65 698.596,77.408 C697.353,76.165 695.339,76.165 694.096,77.407 Z" />
        </g>
    </g>
</svg>