<?xml version="1.0" encoding="UTF-8"?>
<svg height="600" width="800" xmlns="http://www.w3.org/2000/svg" xmlns:xlink="http://www.w3.org/1999/xlink">
    <g id="Notes" font-family="LucidaGrande, 'Lucida Grande', sans-serif" font-size="13">
        <rect fill="white" height="600.0" width="800.0" x="0.0" y="0.0" />
        <g font-size="13">
            <text x="18.0" y="176.0">Small</text>
            <text x="18.0" y="376.0">Medium</text>
            <text x="18.0" y="576.0">Large</text>
        </g>
        <g font-size="9">
            <text x="250.0" y="30.0">Ultralight</text>
            <text x="450.0" y="30.0">Regular</text>
            <text x="650.0" y="30.0">Black</text>
            <text id="template-version" fill="#505050" text-anchor="end" x="785.0" y="575.0">Template v.3.0</text>
            <a href="https://github.com/swhitty/SwiftDraw">
                <text fill="#505050" text-anchor="end" x="785.0" y="590.0">https://github.com/swhitty/SwiftDraw</text>
            </a>
        </g>
    </g>
    <g id="Guides" stroke="rgb(39, 170, 225)" stroke-width="0.5">
        <path id="Capline-S" d="M18,76 l800,0" />
        <path id="H-reference" d="M85,145.755 L87.685,145.755 L113.369,79.287 L114.052,79.287 L114.052,76 L112.148,76 L85,145.755 Z M95.693,121.536 L130.996,121.536 L130.263,119.313 L96.474,119.313 L95.693,121.536 Z M139.15,145.755 L141.787,145.755 L114.638,76 L113.466,76 L113.466,79.287 L139.15,145.755 Z" stroke="none" transform="translate(0,200)" />
        <path id="Baseline-S" d="M18,146 l800,0" />
        <path id="left-margin-Ultralight-M" d="M230,256 l0,110" />
        <path id="right-margin-Ultralight-M" d="M300,256 l0,110" />
        <path id="left-margin-Regular-M" d="M430,256 l0,110" />
        <path id="right-margin-Regular-M" d="M500,256 l0,110" />
        <path id="left-margin-Black-M" d="M630,256 l0,110" />
        <path id="right-margin-Black-M" d="M700,256 l0,110" />
        <path id="Capline-M" d="M18,276 l800,0" />
        <path id="Baseline-M" d="M18,346 l800,0" />
        <path id="Capline-L" d="M18,476 l800,0" />
        <path id="Baseline-L" d="M18,546 l800,0" />
    </g>
    <g id="Symbols">
        <g id="Ultralight-M" transform="translate(0,200)">
            <path d="M242.727,114.182 L242.727,85.545 C242.727,84.702 243.062,83.892 243.659,83.296 C244.256,82.699 245.065,82.364 245.909,82.364 L271.364,82.364 C272.559,82.361 273.699,82.832 274.538,83.674 L285.958,95.094 C286.804,95.937 287.276,97.077 287.273,98.265 L287.273,114.182 C287.273,115.939 288.697,117.364 290.455,117.364 C292.212,117.364 293.636,115.939 293.636,114.182 L293.636,98.273 C293.643,95.395 292.498,92.627 290.454,90.591 L279.042,79.178 C277.009,77.139 274.241,75.993 271.356,76 L245.909,76 C243.377,76 240.95,77.006 239.159,78.796 C237.369,80.586 236.364,83.014 236.364,85.545 L236.364,114.182 C236.364,115.939 237.788,117.364 239.545,117.364 C241.303,117.364 242.727,115.939 242.727,114.182 Z" />
            <path d="M268.182,79.182 L268.182,95.091 C268.182,96.779 268.852,98.397 270.046,99.591 C271.239,100.784 272.858,101.455 274.545,101.455 L290.455,101.455 C292.212,101.455 293.636,100.03 293.636,98.273 C293.636,96.515 292.212,95.091 290.455,95.091 L274.545,95.091 C274.545,95.091 274.545,95.091 274.545,95.091 C274.545,95.091 274.545,95.091 274.545,95.091 L274.545,79.182 C274.545,77.425 273.121,76 271.364,76 C269.606,76 268.182,77.425 268.182,79.182 Z" />
            <path d="M261.818,142.818 L261.818,126.909 C261.818,125.152 260.394,123.727 258.636,123.727 C256.879,123.727 255.455,125.152 255.455,126.909 L255.455,142.818 C255.455,144.575 256.879,146 258.636,146 C260.394,146 261.818,144.575 261.818,142.818 Z" />
            <path d="M274.545,133.273 L274.545,126.909 C274.545,125.152 273.121,123.727 271.364,123.727 C269.606,123.727 268.182,125.152 268.182,126.909 L268.182,133.273 C268.182,135.03 269.606,136.455 271.364,136.455 C273.121,136.455 274.545,135.03 274.545,133.273 Z" />
            <path d="M287.273,136.455 L287.273,126.909 C287.273,125.152 285.848,123.727 284.091,123.727 C282.334,123.727 280.909,125.152 280.909,126.909 L280.909,136.455 C280.909,138.212 282.334,139.636 284.091,139.636 C285.848,139.636 287.273,138.212 287.273,136.455 Z" />
            <path d="M233.182,117.364 L296.818,117.364 C298.575,117.364 300,115.939 300,114.182 C300,112.425 298.575,111 296.818,111 L233.182,111 C231.425,111 230,112.425 230,114.182 C230,115.939 231.425,117.364 233.182,117.364 Z" />
            <path d="M249.091,136.455 L249.091,126.909 C249.091,125.152 247.666,123.727 245.909,123.727 C244.152,123.727 242.727,125.152 242.727,126.909 L242.727,136.455 C242.727,138.212 244.152,139.636 245.909,139.636 C247.666,139.636 249.091,138.212 249.091,136.455 Z" />
        </g>
        <g id="Regular-M" transform="translate(0,200)">
            <path d="M442.727,114.182 L442.727,85.545 C442.727,84.702 443.062,83.892 443.659,83.296 C444.256,82.699 445.065,82.364 445.909,82.364 L471.364,82.364 C472.559,82.361 473.699,82.832 474.538,83.674 L485.958,95.094 C486.804,95.937 487.276,97.077 487.273,98.265 L487.273,114.182 C487.273,115.939 488.697,117.364 490.455,117.364 C492.212,117.364 493.636,115.939 493.636,114.182 L493.636,98.273 C493.643,95.395 492.498,92.627 490.454,90.591 L479.042,79.178 C477.009,77.139 474.241,75.993 471.356,76 L445.909,76 C443.377,76 440.95,77.006 439.159,78.796 C437.369,80.586 436.364,83.014 436.364,85.545 L436.364,114.182 C436.364,115.939 437.788,117.364 439.545,117.364 C441.303,117.364 442.727,115.939 442.727,114.182 Z" />
            <path d="M468.182,79.182 L468.182,95.091 C468.182,96.779 468.852,98.397 470.046,99.591 C471.239,100.784 472.858,101.455 474.545,101.455 L490.455,101.455 C492.212,101.455 493.636,100.03 493.636,98.273 C493.636,96.515 492.212,95.091 490.455,95.091 L474.545,95.091 C474.545,95.091 474.545,95.091 474.545,95.091 C474.545,95.091 474.545,95.091 474.545,95.091 L474.545,79.182 C474.545,77.425 473.121,76 471.364,76 C469.606,76 468.182,77.425 468.182,79.182 Z" />
            <path d="M461.818,142.818 L461.818,126.909 C461.818,125.152 460.394,123.727 458.636,123.727 C456.879,123.727 455.455,125.152 455.455,126.909 L455.455,142.818 C455.455,144.575 456.879,146 458.636,146 C460.394,146 461.818,144.575 461.818,142.818 Z" />
            <path d="M474.545,133.273 L474.545,126.909 C474.545,125.152 473.121,123.727 471.364,123.727 C469.606,123.727 468.182,125.152 468.182,126.909 L468.182,133.273 C468.182,135.03 469.606,136.455 471.364,136.455 C473.121,136.455 474.545,135.03 474.545,133.273 Z" />
            <path d="M487.273,136.455 L487.273,126.909 C487.273,125.152 485.848,123.727 484.091,123.727 C482.334,123.727 480.909,125.152 480.909,126.909 L480.909,136.455 C480.909,138.212 482.334,139.636 484.091,139.636 C485.848,139.636 487.273,138.212 487.273,136.455 Z" />
            <path d="M433.182,117.364 L496.818,117.364 C498.575,117.364 500,115.939 500,114.182 C500,112.425 498.575,111 496.818,111 L433.182,111 C431.425,111 430,112.425 430,114.182 C430,115.939 431.425,117.364 433.182,117.364 Z" />
            <path d="M449.091,136.455 L449.091,126.909 C449.091,125.152 447.666,123.727 445.909,123.727 C444.152,123.727 442.727,125.152 442.727,126.909 L442.727,136.455 C442.727,138.212 444.152,139.636 445.909,139.636 C447.666,139.636 449.091,138.212 449.091,136.455 Z" />
        </g>
        <g id="Black-M" transform="translate(0,200)">
            <path d="M642.727,114.182 L642.727,85.545 C642.727,84.702 643.062,83.892 643.659,83.296 C644.256,82.699 645.065,82.364 645.909,82.364 L671.364,82.364 C672.559,82.361 673.699,82.832 674.538,83.674 L685.958,95.094 C686.804,95.937 687.276,97.077 687.273,98.265 L687.273,114.182 C687.273,115.939 688.697,117.364 690.455,117.364 C692.212,117.364 693.636,115.939 693.636,114.182 L693.636,98.273 C693.643,95.395 692.498,92.627 690.454,90.591 L679.042,79.178 C677.009,77.139 674.241,75.993 671.356,76 L645.909,76 C643.378,76 640.95,77.006 639.159,78.796 C637.369,80.586 636.364,83.014 636.364,85.545 L636.364,114.182 C636.364,115.939 637.788,117.364 639.545,117.364 C641.303,117.364 642.727,115.939 642.727,114.182 Z" />
            <path d="M668.182,79.182 L668.182,95.091 C668.182,96.779 668.852,98.397 670.046,99.591 C671.239,100.784 672.858,101.455 674.545,101.455 L690.455,101.455 C692.212,101.455 693.636,100.03 693.636,98.273 C693.636,96.515 692.212,95.091 690.455,95.091 L674.545,95.091 C674.545,95.091 674.545,95.091 674.545,95.091 C674.545,95.091 674.545,95.091 674.545,95.091 L674.545,79.182 C674.545,77.425 673.121,76 671.364,76 C669.606,76 668.182,77.425 668.182,79.182 Z" />
            <path d="M661.818,142.818 L661.818,126.909 C661.818,125.152 660.394,123.727 658.636,123.727 C656.879,123.727 655.455,125.152 655.455,126.909 L655.455,142.818 C655.455,144.575 656.879,146 658.636,146 C660.394,146 661.818,144.575 661.818,142.818 Z" />
            <path d="M674.545,133.273 L674.545,126.909 C674.545,125.152 673.121,123.727 671.364,123.727 C669.606,123.727 668.182,125.152 668.182,126.909 L668.182,133.273 C668.182,135.03 669.606,136.455 671.364,136.455 C673.121,136.455 674.545,135.03 674.545,133.273 Z" />
            <path d="M687.273,136.455 L687.273,126.909 C687.273,125.152 685.848,123.727 684.091,123.727 C682.334,123.727 680.909,125.152 680.909,126.909 L680.909,136.455 C680.909,138.212 682.334,139.636 684.091,139.636 C685.848,139.636 687.273,138.212 687.273,136.455 Z" />
            <path d="M633.182,117.364 L696.818,117.364 C698.575,117.364 700,115.939 700,114.182 C700,112.425 698.575,111 696.818,111 L633.182,111 C631.425,111 630,112.425 630,114.182 C630,115.939 631.425,117.364 633.182,117.364 Z" />
            <path d="M649.091,136.455 L649.091,126.909 C649.091,125.152 647.666,123.727 645.909,123.727 C644.152,123.727 642.727,125.152 642.727,126.909 L642.727,136.455 C642.727,138.212 644.152,139.636 645.909,139.636 C647.666,139.636 649.091,138.212 649.091,136.455 Z" />
        </g>
    </g>
</svg>