<?xml version="1.0" encoding="UTF-8"?>
<svg height="600" width="800" xmlns="http://www.w3.org/2000/svg" xmlns:xlink="http://www.w3.org/1999/xlink">
    <g id="Notes" font-family="LucidaGrande, 'Lucida Grande', sans-serif" font-size="13">
        <rect fill="white" height="600.0" width="800.0" x="0.0" y="0.0" />
        <g font-size="13">
            <text x="18.0" y="176.0">Small</text>
            <text x="18.0" y="376.0">Medium</text>
            <text x="18.0" y="576.0">Large</text>
        </g>
        <g font-size="9">
            <text x="250.0" y="30.0">Ultralight</text>
            <text x="450.0" y="30.0">Regular</text>
            <text x="650.0" y="30.0">Black</text>
            <text id="template-version" fill="#505050" text-anchor="end" x="785.0" y="575.0">Template v.3.0</text>
            <a href="https://github.com/swhitty/SwiftDraw">
                <text fill="#505050" text-anchor="end" x="785.0" y="590.0">https://github.com/swhitty/SwiftDraw</text>
            </a>
        </g>
    </g>
    <g id="Guides" stroke="rgb(39, 170, 225)" stroke-width="0.5">
        <path id="Capline-S" d="M18,76 l800,0" />
        <path id="H-reference" d="M85,145.755 L87.685,145.755 L113.369,79.287 L114.052,79.287 L114.052,76 L112.148,76 L85,145.755 Z M95.693,121.536 L130.996,121.536 L130.263,119.313 L96.474,119.313 L95.693,121.536 Z M139.15,145.755 L141.787,145.755 L114.638,76 L113.466,76 L113.466,79.287 L139.15,145.755 Z" stroke="none" transform="translate(0,200)" />
        <path id="Baseline-S" d="M18,146 l800,0" />
        <path id="left-margin-Ultralight-M" d="M235,256 l0,110" />
        <path id="right-margin-Ultralight-M" d="M295,256 l0,110" />
        <path id="left-margin-Regular-M" d="M435,256 l0,110" />
        <path id="right-margin-Regular-M" d="M495,256 l0,110" />
        <path id="left-margin-Black-M" d="M635,256 l0,110" />
        <path id="right-margin-Black-M" d="M695,256 l0,110" />
        <path id="Capline-M" d="M18,276 l800,0" />
        <path id="Baseline-M" d="M18,346 l800,0" />
        <path id="Capline-L" d="M18,476 l800,0" />
        <path id="Baseline-L" d="M18,546 l800,0" />
    </g>
    <g id="Symbols">
        <g id="Ultralight-M" transform="translate(0,200)">
            <path d="M268.397,142.667 L268.397,125.427 C268.397,122.776 267.347,120.233 265.48,118.357 L259.125,111.976 C257.829,110.675 255.727,110.675 254.43,111.976 C253.134,113.278 253.134,115.389 254.43,116.69 L260.785,123.071 C261.407,123.696 261.757,124.544 261.757,125.427 L261.757,142.667 C261.757,144.508 263.243,146 265.077,146 C266.91,146 268.397,144.508 268.397,142.667 Z" />
            <path d="M271.029,115.31 L262.729,123.643 C261.433,124.945 261.433,127.055 262.729,128.357 C264.026,129.659 266.128,129.659 267.424,128.357 L275.723,120.024 C277.02,118.722 277.02,116.611 275.723,115.31 C274.427,114.008 272.325,114.008 271.029,115.31 Z" />
            <path d="M280.023,101.558 C286.64,105.372 289.816,113.224 287.72,120.591 C285.624,127.958 278.796,132.941 271.17,132.669 L258.438,132.667 C250.761,132.136 244.107,126.544 242.186,118.83 C240.265,111.115 243.516,103.037 250.236,98.828 C251.207,98.219 251.798,97.15 251.798,96 C251.798,88.636 257.743,82.667 265.077,82.667 C272.41,82.667 278.356,88.636 278.356,96 L278.356,98.667 C278.356,99.861 278.992,100.963 280.023,101.558 Z M283.328,95.776 L281.675,98.667 L284.995,98.667 L284.995,96 C284.995,84.954 276.077,76 265.077,76 C254.076,76 245.159,84.954 245.159,96 L246.721,93.172 C237.559,98.911 233.126,109.927 235.745,120.446 C238.364,130.966 247.438,138.591 258.213,139.326 L271.052,139.333 C281.61,139.712 291.169,132.736 294.104,122.423 C297.039,112.109 292.593,101.115 283.328,95.776 Z" />
        </g>
        <g id="Regular-M" transform="translate(0,200)">
            <path d="M468.397,142.667 L468.397,125.427 C468.397,122.776 467.347,120.233 465.48,118.357 L459.125,111.976 C457.829,110.675 455.727,110.675 454.43,111.976 C453.134,113.278 453.134,115.389 454.43,116.69 L460.785,123.071 C461.407,123.696 461.757,124.544 461.757,125.427 L461.757,142.667 C461.757,144.508 463.243,146 465.077,146 C466.91,146 468.397,144.508 468.397,142.667 Z" />
            <path d="M471.029,115.31 L462.729,123.643 C461.433,124.945 461.433,127.055 462.729,128.357 C464.026,129.659 466.128,129.659 467.424,128.357 L475.723,120.024 C477.02,118.722 477.02,116.611 475.723,115.31 C474.427,114.008 472.325,114.008 471.029,115.31 Z" />
            <path d="M480.023,101.558 C486.64,105.372 489.816,113.224 487.72,120.591 C485.624,127.958 478.796,132.941 471.17,132.669 L458.438,132.667 C450.761,132.136 444.107,126.544 442.186,118.83 C440.265,111.115 443.516,103.037 450.236,98.828 C451.207,98.219 451.798,97.15 451.798,96 C451.798,88.636 457.743,82.667 465.077,82.667 C472.41,82.667 478.356,88.636 478.356,96 L478.356,98.667 C478.356,99.861 478.992,100.963 480.023,101.558 Z M483.328,95.776 L481.675,98.667 L484.995,98.667 L484.995,96 C484.995,84.954 476.077,76 465.077,76 C454.076,76 445.159,84.954 445.159,96 L446.721,93.172 C437.559,98.911 433.126,109.927 435.745,120.446 C438.364,130.966 447.438,138.591 458.213,139.326 L471.052,139.333 C481.61,139.712 491.169,132.736 494.104,122.423 C497.039,112.109 492.593,101.115 483.328,95.776 Z" />
        </g>
        <g id="Black-M" transform="translate(0,200)">
            <path d="M668.397,142.667 L668.397,125.427 C668.397,122.776 667.347,120.233 665.48,118.357 L659.125,111.976 C657.829,110.675 655.727,110.675 654.43,111.976 C653.134,113.278 653.134,115.389 654.43,116.69 L660.785,123.071 C661.407,123.696 661.757,124.544 661.757,125.427 L661.757,142.667 C661.757,144.508 663.243,146 665.077,146 C666.91,146 668.397,144.508 668.397,142.667 Z" />
            <path d="M671.029,115.31 L662.729,123.643 C661.433,124.945 661.433,127.055 662.729,128.357 C664.026,129.659 666.128,129.659 667.424,128.357 L675.723,120.024 C677.02,118.722 677.02,116.611 675.723,115.31 C674.427,114.008 672.325,114.008 671.029,115.31 Z" />
            <path d="M680.023,101.558 C686.641,105.372 689.816,113.224 687.72,120.591 C685.624,127.958 678.796,132.941 671.17,132.669 L658.438,132.667 C650.761,132.136 644.107,126.544 642.186,118.83 C640.265,111.115 643.516,103.037 650.235,98.828 C651.207,98.219 651.798,97.15 651.798,96 C651.798,88.636 657.743,82.667 665.077,82.667 C672.411,82.667 678.356,88.636 678.356,96 L678.356,98.667 C678.356,99.861 678.992,100.963 680.023,101.558 Z M683.328,95.776 L681.675,98.667 L684.995,98.667 L684.995,96 C684.995,84.954 676.077,76 665.077,76 C654.076,76 645.159,84.954 645.159,96 L646.721,93.172 C637.559,98.911 633.126,109.927 635.745,120.446 C638.364,130.966 647.438,138.591 658.213,139.326 L671.052,139.333 C681.61,139.712 691.169,132.736 694.104,122.423 C697.039,112.109 692.593,101.115 683.328,95.776 Z" />
        </g>
    </g>
</svg>