<?xml version="1.0" encoding="UTF-8"?>
<svg height="600" width="800" xmlns="http://www.w3.org/2000/svg" xmlns:xlink="http://www.w3.org/1999/xlink">
    <g id="Notes" font-family="LucidaGrande, 'Lucida Grande', sans-serif" font-size="13">
        <rect fill="white" height="600.0" width="800.0" x="0.0" y="0.0" />
        <g font-size="13">
            <text x="18.0" y="176.0">Small</text>
            <text x="18.0" y="376.0">Medium</text>
            <text x="18.0" y="576.0">Large</text>
        </g>
        <g font-size="9">
            <text x="250.0" y="30.0">Ultralight</text>
            <text x="450.0" y="30.0">Regular</text>
            <text x="650.0" y="30.0">Black</text>
            <text id="template-version" fill="#505050" text-anchor="end" x="785.0" y="575.0">Template v.3.0</text>
            <a href="https://github.com/swhitty/SwiftDraw">
                <text fill="#505050" text-anchor="end" x="785.0" y="590.0">https://github.com/swhitty/SwiftDraw</text>
            </a>
        </g>
    </g>
    <g id="Guides" stroke="rgb(39, 170, 225)" stroke-width="0.5">
        <path id="Capline-S" d="M18,76 l800,0" />
        <path id="H-reference" d="M85,145.755 L87.685,145.755 L113.369,79.287 L114.052,79.287 L114.052,76 L112.148,76 L85,145.755 Z M95.693,121.536 L130.996,121.536 L130.263,119.313 L96.474,119.313 L95.693,121.536 Z M139.15,145.755 L141.787,145.755 L114.638,76 L113.466,76 L113.466,79.287 L139.15,145.755 Z" stroke="none" transform="translate(0,200)" />
        <path id="Baseline-S" d="M18,146 l800,0" />
        <path id="left-margin-Ultralight-M" d="M230,256 l0,110" />
        <path id="right-margin-Ultralight-M" d="M300,256 l0,110" />
        <path id="left-margin-Regular-M" d="M430,256 l0,110" />
        <path id="right-margin-Regular-M" d="M500,256 l0,110" />
        <path id="left-margin-Black-M" d="M630,256 l0,110" />
        <path id="right-margin-Black-M" d="M700,256 l0,110" />
        <path id="Capline-M" d="M18,276 l800,0" />
        <path id="Baseline-M" d="M18,346 l800,0" />
        <path id="Capline-L" d="M18,476 l800,0" />
        <path id="Baseline-L" d="M18,546 l800,0" />
    </g>
    <g id="Symbols">
        <g id="Ultralight-M" transform="translate(0,200)">
            <path d="M281.841,119.614 L294.568,132.341 L294.568,127.841 L281.841,140.568 C280.598,141.811 280.598,143.825 281.841,145.068 C283.084,146.311 285.098,146.311 286.341,145.068 L299.068,132.341 C300.311,131.098 300.311,129.084 299.068,127.841 L286.341,115.114 C285.098,113.871 283.084,113.871 281.841,115.114 C280.598,116.356 280.598,118.371 281.841,119.614 Z" />
            <path d="M281.841,81.432 L294.568,94.159 L294.568,89.659 L281.841,102.386 C280.598,103.629 280.598,105.644 281.841,106.886 C283.084,108.129 285.098,108.129 286.341,106.886 L299.068,94.159 C300.311,92.916 300.311,90.902 299.068,89.659 L286.341,76.932 C285.098,75.689 283.084,75.689 281.841,76.932 C280.598,78.175 280.598,80.189 281.841,81.432 Z" />
            <path d="M233.182,133.273 L239.46,133.273 C244.657,133.308 249.562,130.782 252.563,126.511 L270,99.022 C271.717,96.585 274.66,95.069 277.791,95.091 L296.818,95.091 C298.575,95.091 300,93.666 300,91.909 C300,90.152 298.575,88.727 296.818,88.727 L277.813,88.727 C272.616,88.692 267.711,91.218 264.71,95.489 L247.273,122.978 C245.556,125.415 242.613,126.931 239.481,126.909 L233.182,126.909 C231.425,126.909 230,128.334 230,130.091 C230,131.848 231.425,133.273 233.182,133.273 Z" />
            <path d="M233.182,95.091 L239.456,95.091 C243.107,95.066 246.437,97.1 248.069,100.341 C248.86,101.91 250.773,102.541 252.343,101.751 C253.912,100.96 254.543,99.047 253.752,97.477 C251.031,92.076 245.482,88.685 239.434,88.727 L233.182,88.727 C231.425,88.727 230,90.152 230,91.909 C230,93.666 231.425,95.091 233.182,95.091 Z" />
            <path d="M296.818,126.909 L277.597,126.909 C274.453,126.877 271.501,125.267 269.754,122.614 L268.442,120.948 C267.346,119.574 265.344,119.349 263.97,120.445 C262.597,121.54 262.371,123.542 263.467,124.916 L264.61,126.348 C267.351,130.535 272.271,133.219 277.564,133.273 L296.818,133.273 C298.575,133.273 300,131.848 300,130.091 C300,128.334 298.575,126.909 296.818,126.909 Z" />
        </g>
        <g id="Regular-M" transform="translate(0,200)">
            <path d="M481.841,119.614 L494.568,132.341 L494.568,127.841 L481.841,140.568 C480.598,141.811 480.598,143.825 481.841,145.068 C483.084,146.311 485.098,146.311 486.341,145.068 L499.068,132.341 C500.311,131.098 500.311,129.084 499.068,127.841 L486.341,115.114 C485.098,113.871 483.084,113.871 481.841,115.114 C480.598,116.356 480.598,118.371 481.841,119.614 Z" />
            <path d="M481.841,81.432 L494.568,94.159 L494.568,89.659 L481.841,102.386 C480.598,103.629 480.598,105.644 481.841,106.886 C483.084,108.129 485.098,108.129 486.341,106.886 L499.068,94.159 C500.311,92.916 500.311,90.902 499.068,89.659 L486.341,76.932 C485.098,75.689 483.084,75.689 481.841,76.932 C480.598,78.175 480.598,80.189 481.841,81.432 Z" />
            <path d="M433.182,133.273 L439.46,133.273 C444.657,133.308 449.562,130.782 452.563,126.511 L470,99.022 C471.717,96.585 474.66,95.069 477.791,95.091 L496.818,95.091 C498.575,95.091 500,93.666 500,91.909 C500,90.152 498.575,88.727 496.818,88.727 L477.813,88.727 C472.616,88.692 467.711,91.218 464.71,95.489 L447.273,122.978 C445.556,125.415 442.613,126.931 439.481,126.909 L433.182,126.909 C431.425,126.909 430,128.334 430,130.091 C430,131.848 431.425,133.273 433.182,133.273 Z" />
            <path d="M433.182,95.091 L439.456,95.091 C443.107,95.066 446.437,97.1 448.069,100.341 C448.86,101.91 450.773,102.541 452.343,101.751 C453.912,100.96 454.543,99.047 453.752,97.477 C451.031,92.076 445.482,88.685 439.434,88.727 L433.182,88.727 C431.425,88.727 430,90.152 430,91.909 C430,93.666 431.425,95.091 433.182,95.091 Z" />
            <path d="M496.818,126.909 L477.597,126.909 C474.453,126.877 471.501,125.267 469.754,122.614 L468.442,120.948 C467.346,119.574 465.344,119.349 463.97,120.445 C462.597,121.54 462.371,123.542 463.467,124.916 L464.61,126.348 C467.351,130.535 472.271,133.219 477.564,133.273 L496.818,133.273 C498.575,133.273 500,131.848 500,130.091 C500,128.334 498.575,126.909 496.818,126.909 Z" />
        </g>
        <g id="Black-M" transform="translate(0,200)">
            <path d="M681.841,119.614 L694.568,132.341 L694.568,127.841 L681.841,140.568 C680.598,141.811 680.598,143.825 681.841,145.068 C683.084,146.311 685.098,146.311 686.341,145.068 L699.068,132.341 C700.311,131.098 700.311,129.084 699.068,127.841 L686.341,115.114 C685.098,113.871 683.084,113.871 681.841,115.114 C680.598,116.356 680.598,118.371 681.841,119.614 Z" />
            <path d="M681.841,81.432 L694.568,94.159 L694.568,89.659 L681.841,102.386 C680.598,103.629 680.598,105.644 681.841,106.886 C683.084,108.129 685.098,108.129 686.341,106.886 L699.068,94.159 C700.311,92.916 700.311,90.902 699.068,89.659 L686.341,76.932 C685.098,75.689 683.084,75.689 681.841,76.932 C680.598,78.175 680.598,80.189 681.841,81.432 Z" />
            <path d="M633.182,133.273 L639.46,133.273 C644.657,133.308 649.562,130.782 652.563,126.511 L670,99.022 C671.717,96.585 674.66,95.069 677.791,95.091 L696.818,95.091 C698.575,95.091 700,93.666 700,91.909 C700,90.152 698.575,88.727 696.818,88.727 L677.813,88.727 C672.616,88.692 667.711,91.218 664.71,95.489 L647.273,122.978 C645.556,125.415 642.613,126.931 639.481,126.909 L633.182,126.909 C631.425,126.909 630,128.334 630,130.091 C630,131.848 631.425,133.273 633.182,133.273 Z" />
            <path d="M633.182,95.091 L639.456,95.091 C643.107,95.066 646.437,97.1 648.069,100.341 C648.86,101.91 650.773,102.541 652.343,101.751 C653.912,100.96 654.543,99.047 653.752,97.477 C651.031,92.076 645.482,88.685 639.434,88.727 L633.182,88.727 C631.425,88.727 630,90.152 630,91.909 C630,93.666 631.425,95.091 633.182,95.091 Z" />
            <path d="M696.818,126.909 L677.597,126.909 C674.453,126.877 671.501,125.267 669.754,122.614 L668.442,120.948 C667.346,119.574 665.344,119.349 663.97,120.445 C662.597,121.54 662.371,123.542 663.467,124.916 L664.61,126.348 C667.351,130.535 672.271,133.219 677.564,133.273 L696.818,133.273 C698.575,133.273 700,131.848 700,130.091 C700,128.334 698.575,126.909 696.818,126.909 Z" />
        </g>
    </g>
</svg>