<?xml version="1.0" encoding="UTF-8"?>
<svg height="600" width="800" xmlns="http://www.w3.org/2000/svg" xmlns:xlink="http://www.w3.org/1999/xlink">
    <g id="Notes" font-family="LucidaGrande, 'Lucida Grande', sans-serif" font-size="13">
        <rect fill="white" height="600.0" width="800.0" x="0.0" y="0.0" />
        <g font-size="13">
            <text x="18.0" y="176.0">Small</text>
            <text x="18.0" y="376.0">Medium</text>
            <text x="18.0" y="576.0">Large</text>
        </g>
        <g font-size="9">
            <text x="250.0" y="30.0">Ultralight</text>
            <text x="450.0" y="30.0">Regular</text>
            <text x="650.0" y="30.0">Black</text>
            <text id="template-version" fill="#505050" text-anchor="end" x="785.0" y="575.0">Template v.3.0</text>
            <a href="https://github.com/swhitty/SwiftDraw">
                <text fill="#505050" text-anchor="end" x="785.0" y="590.0">https://github.com/swhitty/SwiftDraw</text>
            </a>
        </g>
    </g>
    <g id="Guides" stroke="rgb(39, 170, 225)" stroke-width="0.5">
        <path id="Capline-S" d="M18,76 l800,0" />
        <path id="H-reference" d="M85,145.755 L87.685,145.755 L113.369,79.287 L114.052,79.287 L114.052,76 L112.148,76 L85,145.755 Z M95.693,121.536 L130.996,121.536 L130.263,119.313 L96.474,119.313 L95.693,121.536 Z M139.15,145.755 L141.787,145.755 L114.638,76 L113.466,76 L113.466,79.287 L139.15,145.755 Z" stroke="none" transform="translate(0,200)" />
        <path id="Baseline-S" d="M18,146 l800,0" />
        <path id="left-margin-Ultralight-M" d="M224.167,256 l0,110" />
        <path id="right-margin-Ultralight-M" d="M305.833,256 l0,110" />
        <path id="left-margin-Regular-M" d="M424.167,256 l0,110" />
        <path id="right-margin-Regular-M" d="M505.833,256 l0,110" />
        <path id="left-margin-Black-M" d="M624.167,256 l0,110" />
        <path id="right-margin-Black-M" d="M705.833,256 l0,110" />
        <path id="Capline-M" d="M18,276 l800,0" />
        <path id="Baseline-M" d="M18,346 l800,0" />
        <path id="Capline-L" d="M18,476 l800,0" />
        <path id="Baseline-L" d="M18,546 l800,0" />
    </g>
    <g id="Symbols">
        <g id="Ultralight-M" transform="translate(0,200)">
            <path d="M235.833,146 L235.95,146 C242.393,146 247.617,140.777 247.617,134.333 C247.617,127.89 242.393,122.667 235.95,122.667 L235.833,122.667 C229.39,122.667 224.167,127.89 224.167,134.333 C224.167,140.777 229.39,146 235.833,146 Z" />
            <path d="M305.833,134.333 L305.833,87.667 C305.833,81.223 300.61,76 294.167,76 C287.723,76 282.5,81.223 282.5,87.667 L282.5,134.333 C282.5,140.777 287.723,146 294.167,146 C300.61,146 305.833,140.777 305.833,134.333 Z" />
        </g>
        <g id="Regular-M" transform="translate(0,200)">
            <path d="M435.833,146 L435.95,146 C442.393,146 447.617,140.777 447.617,134.333 C447.617,127.89 442.393,122.667 435.95,122.667 L435.833,122.667 C429.39,122.667 424.167,127.89 424.167,134.333 C424.167,140.777 429.39,146 435.833,146 Z" />
            <path d="M505.833,134.333 L505.833,87.667 C505.833,81.223 500.61,76 494.167,76 C487.723,76 482.5,81.223 482.5,87.667 L482.5,134.333 C482.5,140.777 487.723,146 494.167,146 C500.61,146 505.833,140.777 505.833,134.333 Z" />
        </g>
        <g id="Black-M" transform="translate(0,200)">
            <path d="M635.833,146 L635.95,146 C642.393,146 647.617,140.777 647.617,134.333 C647.617,127.89 642.393,122.667 635.95,122.667 L635.833,122.667 C629.39,122.667 624.167,127.89 624.167,134.333 C624.167,140.777 629.39,146 635.833,146 Z" />
            <path d="M705.833,134.333 L705.833,87.667 C705.833,81.223 700.61,76 694.167,76 C687.723,76 682.5,81.223 682.5,87.667 L682.5,134.333 C682.5,140.777 687.723,146 694.167,146 C700.61,146 705.833,140.777 705.833,134.333 Z" />
        </g>
    </g>
</svg>