<?xml version="1.0" encoding="UTF-8"?>
<svg height="600" width="800" xmlns="http://www.w3.org/2000/svg" xmlns:xlink="http://www.w3.org/1999/xlink">
    <g id="Notes" font-family="LucidaGrande, 'Lucida Grande', sans-serif" font-size="13">
        <rect fill="white" height="600.0" width="800.0" x="0.0" y="0.0" />
        <g font-size="13">
            <text x="18.0" y="176.0">Small</text>
            <text x="18.0" y="376.0">Medium</text>
            <text x="18.0" y="576.0">Large</text>
        </g>
        <g font-size="9">
            <text x="250.0" y="30.0">Ultralight</text>
            <text x="450.0" y="30.0">Regular</text>
            <text x="650.0" y="30.0">Black</text>
            <text id="template-version" fill="#505050" text-anchor="end" x="785.0" y="575.0">Template v.3.0</text>
            <a href="https://github.com/swhitty/SwiftDraw">
                <text fill="#505050" text-anchor="end" x="785.0" y="590.0">https://github.com/swhitty/SwiftDraw</text>
            </a>
        </g>
    </g>
    <g id="Guides" stroke="rgb(39, 170, 225)" stroke-width="0.5">
        <path id="Capline-S" d="M18,76 l800,0" />
        <path id="H-reference" d="M85,145.755 L87.685,145.755 L113.369,79.287 L114.052,79.287 L114.052,76 L112.148,76 L85,145.755 Z M95.693,121.536 L130.996,121.536 L130.263,119.313 L96.474,119.313 L95.693,121.536 Z M139.15,145.755 L141.787,145.755 L114.638,76 L113.466,76 L113.466,79.287 L139.15,145.755 Z" stroke="none" transform="translate(0,200)" />
        <path id="Baseline-S" d="M18,146 l800,0" />
        <path id="left-margin-Ultralight-M" d="M226.111,256 l0,110" />
        <path id="right-margin-Ultralight-M" d="M303.889,256 l0,110" />
        <path id="left-margin-Regular-M" d="M426.111,256 l0,110" />
        <path id="right-margin-Regular-M" d="M503.889,256 l0,110" />
        <path id="left-margin-Black-M" d="M626.111,256 l0,110" />
        <path id="right-margin-Black-M" d="M703.889,256 l0,110" />
        <path id="Capline-M" d="M18,276 l800,0" />
        <path id="Baseline-M" d="M18,346 l800,0" />
        <path id="Capline-L" d="M18,476 l800,0" />
        <path id="Baseline-L" d="M18,546 l800,0" />
    </g>
    <g id="Symbols">
        <g id="Ultralight-M" transform="translate(0,200)">
            <path d="M296.111,79.889 L296.111,142.111 C296.111,144.259 297.852,146 300,146 C302.148,146 303.889,144.259 303.889,142.111 L303.889,79.889 C303.889,77.741 302.148,76 300,76 C297.852,76 296.111,77.741 296.111,79.889 Z" />
            <path d="M243.78,77.663 C240.176,75.5 235.687,75.443 232.03,77.514 C228.372,79.585 226.111,83.464 226.111,87.667 L226.111,134.333 C226.111,138.537 228.372,142.415 232.03,144.486 C235.687,146.557 240.176,146.5 243.78,144.337 L282.658,121.012 C286.173,118.912 288.331,115.113 288.334,111.011 C288.338,106.908 286.187,103.106 282.669,100.996 L243.78,77.663 Z M239.779,84.332 L278.668,107.665 C279.841,108.369 280.558,109.636 280.556,111.004 C280.555,112.371 279.836,113.637 278.662,114.339 L239.779,137.668 C238.577,138.389 237.081,138.408 235.862,137.717 C234.643,137.027 233.889,135.734 233.889,134.333 L233.889,87.667 C233.889,86.266 234.643,84.973 235.862,84.283 C237.081,83.592 238.577,83.611 239.779,84.332 Z" />
        </g>
        <g id="Regular-M" transform="translate(0,200)">
            <path d="M496.111,79.889 L496.111,142.111 C496.111,144.259 497.852,146 500,146 C502.148,146 503.889,144.259 503.889,142.111 L503.889,79.889 C503.889,77.741 502.148,76 500,76 C497.852,76 496.111,77.741 496.111,79.889 Z" />
            <path d="M443.78,77.663 C440.176,75.5 435.687,75.443 432.03,77.514 C428.372,79.585 426.111,83.464 426.111,87.667 L426.111,134.333 C426.111,138.537 428.372,142.415 432.03,144.486 C435.687,146.557 440.176,146.5 443.78,144.337 L482.658,121.012 C486.173,118.912 488.331,115.113 488.334,111.011 C488.338,106.908 486.187,103.106 482.669,100.996 L443.78,77.663 Z M439.779,84.332 L478.668,107.665 C479.841,108.369 480.558,109.636 480.556,111.004 C480.555,112.371 479.836,113.637 478.662,114.339 L439.779,137.668 C438.577,138.389 437.081,138.408 435.862,137.717 C434.643,137.027 433.889,135.734 433.889,134.333 L433.889,87.667 C433.889,86.266 434.643,84.973 435.862,84.283 C437.081,83.592 438.577,83.611 439.779,84.332 Z" />
        </g>
        <g id="Black-M" transform="translate(0,200)">
            <path d="M696.111,79.889 L696.111,142.111 C696.111,144.259 697.852,146 700,146 C702.148,146 703.889,144.259 703.889,142.111 L703.889,79.889 C703.889,77.741 702.148,76 700,76 C697.852,76 696.111,77.741 696.111,79.889 Z" />
            <path d="M643.78,77.663 C640.176,75.5 635.687,75.443 632.03,77.514 C628.372,79.585 626.111,83.464 626.111,87.667 L626.111,134.333 C626.111,138.537 628.372,142.415 632.03,144.486 C635.687,146.557 640.176,146.5 643.78,144.337 L682.657,121.012 C686.173,118.912 688.331,115.113 688.334,111.011 C688.338,106.908 686.187,103.106 682.669,100.996 L643.78,77.663 Z M639.779,84.332 L678.668,107.665 C679.841,108.369 680.558,109.636 680.556,111.004 C680.555,112.371 679.836,113.637 678.662,114.339 L639.779,137.668 C638.577,138.389 637.081,138.408 635.862,137.717 C634.643,137.027 633.889,135.734 633.889,134.333 L633.889,87.667 C633.889,86.266 634.642,84.973 635.862,84.283 C637.081,83.592 638.577,83.611 639.779,84.332 Z" />
        </g>
    </g>
</svg>