<?xml version="1.0" encoding="UTF-8"?>
<svg height="600" width="800" xmlns="http://www.w3.org/2000/svg" xmlns:xlink="http://www.w3.org/1999/xlink">
    <g id="Notes" font-family="LucidaGrande, 'Lucida Grande', sans-serif" font-size="13">
        <rect fill="white" height="600.0" width="800.0" x="0.0" y="0.0" />
        <g font-size="13">
            <text x="18.0" y="176.0">Small</text>
            <text x="18.0" y="376.0">Medium</text>
            <text x="18.0" y="576.0">Large</text>
        </g>
        <g font-size="9">
            <text x="250.0" y="30.0">Ultralight</text>
            <text x="450.0" y="30.0">Regular</text>
            <text x="650.0" y="30.0">Black</text>
            <text id="template-version" fill="#505050" text-anchor="end" x="785.0" y="575.0">Template v.3.0</text>
            <a href="https://github.com/swhitty/SwiftDraw">
                <text fill="#505050" text-anchor="end" x="785.0" y="590.0">https://github.com/swhitty/SwiftDraw</text>
            </a>
        </g>
    </g>
    <g id="Guides" stroke="rgb(39, 170, 225)" stroke-width="0.5">
        <path id="Capline-S" d="M18,76 l800,0" />
        <path id="H-reference" d="M85,145.755 L87.685,145.755 L113.369,79.287 L114.052,79.287 L114.052,76 L112.148,76 L85,145.755 Z M95.693,121.536 L130.996,121.536 L130.263,119.313 L96.474,119.313 L95.693,121.536 Z M139.15,145.755 L141.787,145.755 L114.638,76 L113.466,76 L113.466,79.287 L139.15,145.755 Z" stroke="none" transform="translate(0,200)" />
        <path id="Baseline-S" d="M18,146 l800,0" />
        <path id="left-margin-Ultralight-M" d="M230,256 l0,110" />
        <path id="right-margin-Ultralight-M" d="M300,256 l0,110" />
        <path id="left-margin-Regular-M" d="M430,256 l0,110" />
        <path id="right-margin-Regular-M" d="M500,256 l0,110" />
        <path id="left-margin-Black-M" d="M630,256 l0,110" />
        <path id="right-margin-Black-M" d="M700,256 l0,110" />
        <path id="Capline-M" d="M18,276 l800,0" />
        <path id="Baseline-M" d="M18,346 l800,0" />
        <path id="Capline-L" d="M18,476 l800,0" />
        <path id="Baseline-L" d="M18,546 l800,0" />
    </g>
    <g id="Symbols">
        <g id="Ultralight-M" transform="translate(0,200)">
            <path d="M294.568,76.932 L230.932,140.568 C229.689,141.811 229.689,143.825 230.932,145.068 C232.175,146.311 234.189,146.311 235.432,145.068 L299.068,81.432 C300.311,80.189 300.311,78.175 299.068,76.932 C297.826,75.689 295.811,75.689 294.568,76.932 Z" />
        </g>
        <g id="Regular-M" transform="translate(0,200)">
            <path d="M494.568,76.932 L430.932,140.568 C429.689,141.811 429.689,143.825 430.932,145.068 C432.174,146.311 434.189,146.311 435.432,145.068 L499.068,81.432 C500.311,80.189 500.311,78.175 499.068,76.932 C497.826,75.689 495.811,75.689 494.568,76.932 Z" />
        </g>
        <g id="Black-M" transform="translate(0,200)">
            <path d="M694.568,76.932 L630.932,140.568 C629.689,141.811 629.689,143.825 630.932,145.068 C632.174,146.311 634.189,146.311 635.432,145.068 L699.068,81.432 C700.311,80.189 700.311,78.175 699.068,76.932 C697.826,75.689 695.811,75.689 694.568,76.932 Z" />
        </g>
    </g>
</svg>