<?xml version="1.0" encoding="UTF-8"?>
<svg height="600" width="800" xmlns="http://www.w3.org/2000/svg" xmlns:xlink="http://www.w3.org/1999/xlink">
    <g id="Notes" font-family="LucidaGrande, 'Lucida Grande', sans-serif" font-size="13">
        <rect fill="white" height="600.0" width="800.0" x="0.0" y="0.0" />
        <g font-size="13">
            <text x="18.0" y="176.0">Small</text>
            <text x="18.0" y="376.0">Medium</text>
            <text x="18.0" y="576.0">Large</text>
        </g>
        <g font-size="9">
            <text x="250.0" y="30.0">Ultralight</text>
            <text x="450.0" y="30.0">Regular</text>
            <text x="650.0" y="30.0">Black</text>
            <text id="template-version" fill="#505050" text-anchor="end" x="785.0" y="575.0">Template v.3.0</text>
            <a href="https://github.com/swhitty/SwiftDraw">
                <text fill="#505050" text-anchor="end" x="785.0" y="590.0">https://github.com/swhitty/SwiftDraw</text>
            </a>
        </g>
    </g>
    <g id="Guides" stroke="rgb(39, 170, 225)" stroke-width="0.5">
        <path id="Capline-S" d="M18,76 l800,0" />
        <path id="H-reference" d="M85,145.755 L87.685,145.755 L113.369,79.287 L114.052,79.287 L114.052,76 L112.148,76 L85,145.755 Z M95.693,121.536 L130.996,121.536 L130.263,119.313 L96.474,119.313 L95.693,121.536 Z M139.15,145.755 L141.787,145.755 L114.638,76 L113.466,76 L113.466,79.287 L139.15,145.755 Z" stroke="none" transform="translate(0,200)" />
        <path id="Baseline-S" d="M18,146 l800,0" />
        <path id="left-margin-Ultralight-M" d="M231.591,256 l0,110" />
        <path id="right-margin-Ultralight-M" d="M298.409,256 l0,110" />
        <path id="left-margin-Regular-M" d="M431.591,256 l0,110" />
        <path id="right-margin-Regular-M" d="M498.409,256 l0,110" />
        <path id="left-margin-Black-M" d="M631.591,256 l0,110" />
        <path id="right-margin-Black-M" d="M698.409,256 l0,110" />
        <path id="Capline-M" d="M18,276 l800,0" />
        <path id="Baseline-M" d="M18,346 l800,0" />
        <path id="Capline-L" d="M18,476 l800,0" />
        <path id="Baseline-L" d="M18,546 l800,0" />
    </g>
    <g id="Symbols">
        <g id="Ultralight-M" transform="translate(0,200)">
            <path d="M272.008,135.945 L274.149,143.702 C274.615,145.39 276.299,146.363 277.911,145.875 C279.522,145.387 280.451,143.622 279.985,141.934 L277.844,134.177 C277.378,132.489 275.693,131.516 274.082,132.004 C272.47,132.492 271.542,134.257 272.008,135.945 Z" />
            <path d="M278.624,126.505 L290.039,133.181 C291.504,134.038 293.354,133.488 294.172,131.954 C294.99,130.419 294.465,128.481 293.001,127.625 L281.585,120.949 C280.121,120.092 278.27,120.642 277.452,122.176 C276.635,123.711 277.159,125.649 278.624,126.505 Z" />
            <path d="M286.769,115.712 L295.96,113.81 C297.606,113.469 298.677,111.795 298.351,110.071 C298.026,108.347 296.428,107.226 294.783,107.567 L285.591,109.469 C283.945,109.81 282.875,111.484 283.2,113.208 C283.525,114.932 285.123,116.053 286.769,115.712 Z" />
            <path d="M252.873,89.983 C247.023,87.106 240.046,89.53 236.996,95.499 L232.76,104.467 C230.008,110.651 232.319,117.929 237.994,121.121 L258.955,132.584 C260.442,133.364 262.111,133.489 263.64,132.955 C265.169,132.422 266.433,131.274 267.154,129.764 L276.588,110.002 C278.087,106.858 276.872,103.039 273.874,101.467 L252.988,90.043 Z M250.176,95.684 L271.108,107.132 C271.154,107.157 271.154,107.157 271.154,107.157 L261.72,126.918 C261.72,126.918 261.72,126.918 261.72,126.918 C261.72,126.918 261.72,126.918 261.72,126.918 L240.837,115.498 C238.031,113.919 236.876,110.28 238.236,107.221 L242.397,98.411 C243.878,95.517 247.366,94.305 250.291,95.744 Z" />
            <path d="M255.804,101.455 L255.804,79.182 C255.804,77.425 254.444,76 252.767,76 C251.089,76 249.729,77.425 249.729,79.182 L249.729,101.455 C249.729,103.212 251.089,104.636 252.767,104.636 C254.444,104.636 255.804,103.212 255.804,101.455 Z" />
        </g>
        <g id="Regular-M" transform="translate(0,200)">
            <path d="M472.008,135.945 L474.149,143.702 C474.615,145.39 476.299,146.363 477.911,145.875 C479.522,145.387 480.451,143.622 479.985,141.934 L477.844,134.177 C477.378,132.489 475.693,131.516 474.082,132.004 C472.47,132.492 471.542,134.257 472.008,135.945 Z" />
            <path d="M478.624,126.505 L490.039,133.181 C491.504,134.038 493.354,133.488 494.172,131.954 C494.99,130.419 494.465,128.481 493.001,127.625 L481.585,120.949 C480.121,120.092 478.27,120.642 477.452,122.176 C476.635,123.711 477.159,125.649 478.624,126.505 Z" />
            <path d="M486.769,115.712 L495.96,113.81 C497.606,113.469 498.677,111.795 498.351,110.071 C498.026,108.347 496.428,107.226 494.783,107.567 L485.591,109.469 C483.945,109.81 482.875,111.484 483.2,113.208 C483.525,114.932 485.123,116.053 486.769,115.712 Z" />
            <path d="M452.873,89.983 C447.023,87.106 440.046,89.53 436.996,95.499 L432.76,104.467 C430.008,110.651 432.319,117.929 437.994,121.121 L458.955,132.584 C460.442,133.364 462.111,133.489 463.64,132.955 C465.169,132.422 466.433,131.274 467.154,129.764 L476.588,110.002 C478.087,106.858 476.872,103.039 473.874,101.467 L452.988,90.043 Z M450.176,95.684 L471.108,107.132 C471.154,107.157 471.154,107.157 471.154,107.157 L461.72,126.918 C461.72,126.918 461.72,126.918 461.72,126.918 C461.72,126.918 461.72,126.918 461.72,126.918 L440.837,115.498 C438.031,113.919 436.876,110.28 438.236,107.221 L442.397,98.411 C443.878,95.517 447.366,94.305 450.291,95.744 Z" />
            <path d="M455.804,101.455 L455.804,79.182 C455.804,77.425 454.444,76 452.767,76 C451.089,76 449.729,77.425 449.729,79.182 L449.729,101.455 C449.729,103.212 451.089,104.636 452.767,104.636 C454.444,104.636 455.804,103.212 455.804,101.455 Z" />
        </g>
        <g id="Black-M" transform="translate(0,200)">
            <path d="M672.008,135.945 L674.149,143.702 C674.615,145.39 676.299,146.363 677.911,145.875 C679.522,145.387 680.451,143.622 679.985,141.934 L677.844,134.177 C677.378,132.489 675.693,131.516 674.082,132.004 C672.47,132.492 671.542,134.257 672.008,135.945 Z" />
            <path d="M678.624,126.505 L690.039,133.181 C691.504,134.038 693.354,133.488 694.172,131.954 C694.99,130.419 694.465,128.481 693.001,127.625 L681.585,120.949 C680.121,120.092 678.27,120.642 677.452,122.176 C676.635,123.711 677.159,125.649 678.624,126.505 Z" />
            <path d="M686.769,115.712 L695.96,113.81 C697.606,113.469 698.677,111.795 698.351,110.071 C698.026,108.347 696.428,107.226 694.783,107.567 L685.591,109.469 C683.945,109.81 682.875,111.484 683.2,113.208 C683.525,114.932 685.123,116.053 686.769,115.712 Z" />
            <path d="M652.873,89.983 C647.023,87.106 640.046,89.53 636.996,95.499 L632.76,104.467 C630.008,110.651 632.319,117.929 637.994,121.121 L658.955,132.584 C660.442,133.364 662.111,133.489 663.64,132.955 C665.169,132.422 666.433,131.274 667.154,129.764 L676.588,110.002 C678.087,106.858 676.872,103.039 673.873,101.467 L652.988,90.043 Z M650.176,95.684 L671.108,107.132 C671.154,107.157 671.154,107.157 671.154,107.157 L661.72,126.918 C661.72,126.918 661.72,126.918 661.72,126.918 C661.72,126.918 661.72,126.918 661.72,126.918 L640.837,115.498 C638.031,113.919 636.876,110.28 638.236,107.221 L642.397,98.411 C643.878,95.517 647.366,94.305 650.291,95.744 Z" />
            <path d="M655.804,101.455 L655.804,79.182 C655.804,77.425 654.444,76 652.766,76 C651.089,76 649.729,77.425 649.729,79.182 L649.729,101.455 C649.729,103.212 651.089,104.636 652.766,104.636 C654.444,104.636 655.804,103.212 655.804,101.455 Z" />
        </g>
    </g>
</svg>