<?xml version="1.0" encoding="UTF-8"?>
<svg height="600" width="800" xmlns="http://www.w3.org/2000/svg" xmlns:xlink="http://www.w3.org/1999/xlink">
    <g id="Notes" font-family="LucidaGrande, 'Lucida Grande', sans-serif" font-size="13">
        <rect fill="white" height="600.0" width="800.0" x="0.0" y="0.0" />
        <g font-size="13">
            <text x="18.0" y="176.0">Small</text>
            <text x="18.0" y="376.0">Medium</text>
            <text x="18.0" y="576.0">Large</text>
        </g>
        <g font-size="9">
            <text x="250.0" y="30.0">Ultralight</text>
            <text x="450.0" y="30.0">Regular</text>
            <text x="650.0" y="30.0">Black</text>
            <text id="template-version" fill="#505050" text-anchor="end" x="785.0" y="575.0">Template v.3.0</text>
            <a href="https://github.com/swhitty/SwiftDraw">
                <text fill="#505050" text-anchor="end" x="785.0" y="590.0">https://github.com/swhitty/SwiftDraw</text>
            </a>
        </g>
    </g>
    <g id="Guides" stroke="rgb(39, 170, 225)" stroke-width="0.5">
        <path id="Capline-S" d="M18,76 l800,0" />
        <path id="H-reference" d="M85,145.755 L87.685,145.755 L113.369,79.287 L114.052,79.287 L114.052,76 L112.148,76 L85,145.755 Z M95.693,121.536 L130.996,121.536 L130.263,119.313 L96.474,119.313 L95.693,121.536 Z M139.15,145.755 L141.787,145.755 L114.638,76 L113.466,76 L113.466,79.287 L139.15,145.755 Z" stroke="none" transform="translate(0,200)" />
        <path id="Baseline-S" d="M18,146 l800,0" />
        <path id="left-margin-Ultralight-M" d="M233.5,256 l0,110" />
        <path id="right-margin-Ultralight-M" d="M296.5,256 l0,110" />
        <path id="left-margin-Regular-M" d="M433.5,256 l0,110" />
        <path id="right-margin-Regular-M" d="M496.5,256 l0,110" />
        <path id="left-margin-Black-M" d="M633.5,256 l0,110" />
        <path id="right-margin-Black-M" d="M696.5,256 l0,110" />
        <path id="Capline-M" d="M18,276 l800,0" />
        <path id="Baseline-M" d="M18,346 l800,0" />
        <path id="Capline-L" d="M18,476 l800,0" />
        <path id="Baseline-L" d="M18,546 l800,0" />
    </g>
    <g id="Symbols">
        <g id="Ultralight-M" transform="translate(0,200)">
            <path d="M275.5,102.376 L275.5,93.5 C275.5,90.715 276.606,88.045 278.575,86.075 C280.544,84.106 283.215,83 286,83 L291.25,83 C290.786,83 290.341,82.816 290.013,82.487 C289.684,82.159 289.5,81.714 289.5,81.25 L289.5,86.5 C289.5,89.285 288.394,91.955 286.425,93.925 C284.456,95.894 281.785,97 279,97 C274.359,97 269.908,98.844 266.626,102.126 C263.344,105.408 261.5,109.859 261.5,114.5 C261.5,117.893 262.006,120.086 263.43,124.357 C264.631,127.961 265,129.56 265,132 C265,135.029 264.018,137.977 262.2,140.4 C261.04,141.946 261.354,144.14 262.9,145.3 C264.446,146.46 266.64,146.146 267.8,144.6 C270.526,140.965 272,136.544 272,132 C272,128.607 271.494,126.414 270.07,122.143 C268.869,118.539 268.5,116.94 268.5,114.5 C268.5,111.715 269.606,109.045 271.575,107.075 C273.544,105.106 276.215,104 279,104 C283.641,104 288.092,102.156 291.374,98.874 C294.656,95.592 296.5,91.141 296.5,86.5 L296.5,81.25 C296.5,79.858 295.947,78.522 294.962,77.538 C293.978,76.553 292.642,76 291.25,76 L286,76 C281.359,76 276.908,77.844 273.626,81.126 C270.344,84.408 268.5,88.859 268.5,93.5 L268.5,102.376 C268.5,104.309 270.067,105.876 272,105.876 C273.933,105.876 275.5,104.309 275.5,102.376 Z" />
            <path d="M239.1,103.3 C243.342,100.118 249.018,99.607 253.761,101.978 C258.504,104.35 261.5,109.197 261.5,114.5 L262.9,111.7 C258.658,114.882 252.982,115.393 248.239,113.022 C243.496,110.65 240.5,105.803 240.5,100.5 C240.5,98.567 238.933,97 237,97 C235.067,97 233.5,98.567 233.5,100.5 C233.5,108.454 237.994,115.726 245.109,119.283 C252.223,122.84 260.737,122.073 267.1,117.3 C267.981,116.639 268.5,115.602 268.5,114.5 C268.5,106.546 264.006,99.274 256.891,95.717 C249.777,92.16 241.263,92.927 234.9,97.7 C233.354,98.86 233.04,101.054 234.2,102.6 C235.36,104.146 237.554,104.46 239.1,103.3 Z" />
            <path d="M240.5,146 L289.5,146 C291.433,146 293,144.433 293,142.5 C293,140.567 291.433,139 289.5,139 L240.5,139 C238.567,139 237,140.567 237,142.5 C237,144.433 238.567,146 240.5,146 Z" />
        </g>
        <g id="Regular-M" transform="translate(0,200)">
            <path d="M475.5,102.376 L475.5,93.5 C475.5,90.715 476.606,88.045 478.575,86.075 C480.544,84.106 483.215,83 486,83 L491.25,83 C490.786,83 490.341,82.816 490.013,82.487 C489.684,82.159 489.5,81.714 489.5,81.25 L489.5,86.5 C489.5,89.285 488.394,91.955 486.425,93.925 C484.456,95.894 481.785,97 479,97 C474.359,97 469.908,98.844 466.626,102.126 C463.344,105.408 461.5,109.859 461.5,114.5 C461.5,117.893 462.006,120.086 463.43,124.357 C464.631,127.961 465,129.56 465,132 C465,135.029 464.018,137.977 462.2,140.4 C461.04,141.946 461.354,144.14 462.9,145.3 C464.446,146.46 466.64,146.146 467.8,144.6 C470.526,140.965 472,136.544 472,132 C472,128.607 471.494,126.414 470.07,122.143 C468.869,118.539 468.5,116.94 468.5,114.5 C468.5,111.715 469.606,109.045 471.575,107.075 C473.544,105.106 476.215,104 479,104 C483.641,104 488.092,102.156 491.374,98.874 C494.656,95.592 496.5,91.141 496.5,86.5 L496.5,81.25 C496.5,79.858 495.947,78.522 494.962,77.538 C493.978,76.553 492.642,76 491.25,76 L486,76 C481.359,76 476.908,77.844 473.626,81.126 C470.344,84.408 468.5,88.859 468.5,93.5 L468.5,102.376 C468.5,104.309 470.067,105.876 472,105.876 C473.933,105.876 475.5,104.309 475.5,102.376 Z" />
            <path d="M439.1,103.3 C443.342,100.118 449.018,99.607 453.761,101.978 C458.504,104.35 461.5,109.197 461.5,114.5 L462.9,111.7 C458.658,114.882 452.982,115.393 448.239,113.022 C443.496,110.65 440.5,105.803 440.5,100.5 C440.5,98.567 438.933,97 437,97 C435.067,97 433.5,98.567 433.5,100.5 C433.5,108.454 437.994,115.726 445.109,119.283 C452.223,122.84 460.737,122.073 467.1,117.3 C467.981,116.639 468.5,115.602 468.5,114.5 C468.5,106.546 464.006,99.274 456.891,95.717 C449.777,92.16 441.263,92.927 434.9,97.7 C433.354,98.86 433.04,101.054 434.2,102.6 C435.36,104.146 437.554,104.46 439.1,103.3 Z" />
            <path d="M440.5,146 L489.5,146 C491.433,146 493,144.433 493,142.5 C493,140.567 491.433,139 489.5,139 L440.5,139 C438.567,139 437,140.567 437,142.5 C437,144.433 438.567,146 440.5,146 Z" />
        </g>
        <g id="Black-M" transform="translate(0,200)">
            <path d="M675.5,102.376 L675.5,93.5 C675.5,90.715 676.606,88.045 678.575,86.075 C680.544,84.106 683.215,83 686,83 L691.25,83 C690.786,83 690.341,82.816 690.013,82.487 C689.684,82.159 689.5,81.714 689.5,81.25 L689.5,86.5 C689.5,89.285 688.394,91.955 686.425,93.925 C684.456,95.894 681.785,97 679,97 C674.359,97 669.908,98.844 666.626,102.126 C663.344,105.408 661.5,109.859 661.5,114.5 C661.5,117.893 662.006,120.086 663.43,124.357 C664.631,127.961 665,129.56 665,132 C665,135.029 664.018,137.977 662.2,140.4 C661.04,141.946 661.354,144.14 662.9,145.3 C664.446,146.46 666.64,146.146 667.8,144.6 C670.526,140.965 672,136.544 672,132 C672,128.607 671.494,126.414 670.07,122.143 C668.869,118.539 668.5,116.94 668.5,114.5 C668.5,111.715 669.606,109.045 671.575,107.075 C673.544,105.106 676.215,104 679,104 C683.641,104 688.092,102.156 691.374,98.874 C694.656,95.592 696.5,91.141 696.5,86.5 L696.5,81.25 C696.5,79.858 695.947,78.522 694.962,77.538 C693.978,76.553 692.642,76 691.25,76 L686,76 C681.359,76 676.908,77.844 673.626,81.126 C670.344,84.408 668.5,88.859 668.5,93.5 L668.5,102.376 C668.5,104.309 670.067,105.876 672,105.876 C673.933,105.876 675.5,104.309 675.5,102.376 Z" />
            <path d="M639.1,103.3 C643.342,100.118 649.018,99.607 653.761,101.978 C658.504,104.35 661.5,109.197 661.5,114.5 L662.9,111.7 C658.658,114.882 652.982,115.393 648.239,113.022 C643.496,110.65 640.5,105.803 640.5,100.5 C640.5,98.567 638.933,97 637,97 C635.067,97 633.5,98.567 633.5,100.5 C633.5,108.454 637.994,115.726 645.109,119.283 C652.223,122.84 660.737,122.073 667.1,117.3 C667.981,116.639 668.5,115.602 668.5,114.5 C668.5,106.546 664.006,99.274 656.891,95.717 C649.777,92.16 641.263,92.927 634.9,97.7 C633.354,98.86 633.04,101.054 634.2,102.6 C635.36,104.146 637.554,104.46 639.1,103.3 Z" />
            <path d="M640.5,146 L689.5,146 C691.433,146 693,144.433 693,142.5 C693,140.567 691.433,139 689.5,139 L640.5,139 C638.567,139 637,140.567 637,142.5 C637,144.433 638.567,146 640.5,146 Z" />
        </g>
    </g>
</svg>