<?xml version="1.0" encoding="UTF-8"?>
<svg height="600" width="800" xmlns="http://www.w3.org/2000/svg" xmlns:xlink="http://www.w3.org/1999/xlink">
    <g id="Notes" font-family="LucidaGrande, 'Lucida Grande', sans-serif" font-size="13">
        <rect fill="white" height="600.0" width="800.0" x="0.0" y="0.0" />
        <g font-size="13">
            <text x="18.0" y="176.0">Small</text>
            <text x="18.0" y="376.0">Medium</text>
            <text x="18.0" y="576.0">Large</text>
        </g>
        <g font-size="9">
            <text x="250.0" y="30.0">Ultralight</text>
            <text x="450.0" y="30.0">Regular</text>
            <text x="650.0" y="30.0">Black</text>
            <text id="template-version" fill="#505050" text-anchor="end" x="785.0" y="575.0">Template v.3.0</text>
            <a href="https://github.com/swhitty/SwiftDraw">
                <text fill="#505050" text-anchor="end" x="785.0" y="590.0">https://github.com/swhitty/SwiftDraw</text>
            </a>
        </g>
    </g>
    <g id="Guides" stroke="rgb(39, 170, 225)" stroke-width="0.5">
        <path id="Capline-S" d="M18,76 l800,0" />
        <path id="H-reference" d="M85,145.755 L87.685,145.755 L113.369,79.287 L114.052,79.287 L114.052,76 L112.148,76 L85,145.755 Z M95.693,121.536 L130.996,121.536 L130.263,119.313 L96.474,119.313 L95.693,121.536 Z M139.15,145.755 L141.787,145.755 L114.638,76 L113.466,76 L113.466,79.287 L139.15,145.755 Z" stroke="none" transform="translate(0,200)" />
        <path id="Baseline-S" d="M18,146 l800,0" />
        <path id="left-margin-Ultralight-M" d="M230,256 l0,110" />
        <path id="right-margin-Ultralight-M" d="M300,256 l0,110" />
        <path id="left-margin-Regular-M" d="M430,256 l0,110" />
        <path id="right-margin-Regular-M" d="M500,256 l0,110" />
        <path id="left-margin-Black-M" d="M630,256 l0,110" />
        <path id="right-margin-Black-M" d="M700,256 l0,110" />
        <path id="Capline-M" d="M18,276 l800,0" />
        <path id="Baseline-M" d="M18,346 l800,0" />
        <path id="Capline-L" d="M18,476 l800,0" />
        <path id="Baseline-L" d="M18,546 l800,0" />
    </g>
    <g id="Symbols">
        <g id="Ultralight-M" transform="translate(0,200)">
            <path d="M293,111 L293,135.5 C293,136.428 292.631,137.318 291.975,137.975 C291.318,138.631 290.428,139 289.5,139 L240.5,139 C239.572,139 238.682,138.631 238.025,137.975 C237.369,137.318 237,136.428 237,135.5 L237,86.5 C237,85.572 237.369,84.682 238.025,84.025 C238.682,83.369 239.572,83 240.5,83 L289.5,83 C290.428,83 291.318,83.369 291.975,84.025 C292.631,84.682 293,85.572 293,86.5 L293,111 Z M300,111 L300,86.5 C300,83.715 298.894,81.045 296.925,79.075 C294.956,77.106 292.285,76 289.5,76 L240.5,76 C237.715,76 235.045,77.106 233.075,79.075 C231.106,81.045 230,83.715 230,86.5 L230,135.5 C230,138.285 231.106,140.955 233.075,142.925 C235.045,144.894 237.715,146 240.5,146 L289.5,146 C292.285,146 294.955,144.894 296.925,142.925 C298.894,140.955 300,138.285 300,135.5 L300,111 Z" />
            <path d="M247.5,97 L282.5,97 C284.433,97 286,95.433 286,93.5 C286,91.567 284.433,90 282.5,90 L247.5,90 C245.567,90 244,91.567 244,93.5 C244,95.433 245.567,97 247.5,97 Z" />
            <path d="M254.5,93.5 L254.5,128.5 C254.5,130.433 256.067,132 258,132 C259.933,132 261.5,130.433 261.5,128.5 L261.5,93.5 C261.5,91.567 259.933,90 258,90 C256.067,90 254.5,91.567 254.5,93.5 Z" />
            <path d="M279,125 C278.072,125 277.182,124.631 276.525,123.975 C275.869,123.318 275.5,122.428 275.5,121.5 L275.5,93.5 C275.5,91.567 273.933,90 272,90 C270.067,90 268.5,91.567 268.5,93.5 L268.5,121.5 C268.5,124.285 269.606,126.955 271.575,128.925 C273.544,130.894 276.215,132 279,132 C280.933,132 282.5,130.433 282.5,128.5 C282.5,126.567 280.933,125 279,125 Z" />
        </g>
        <g id="Regular-M" transform="translate(0,200)">
            <path d="M493,111 L493,135.5 C493,136.428 492.631,137.318 491.975,137.975 C491.318,138.631 490.428,139 489.5,139 L440.5,139 C439.572,139 438.682,138.631 438.025,137.975 C437.369,137.318 437,136.428 437,135.5 L437,86.5 C437,85.572 437.369,84.682 438.025,84.025 C438.682,83.369 439.572,83 440.5,83 L489.5,83 C490.428,83 491.318,83.369 491.975,84.025 C492.631,84.682 493,85.572 493,86.5 L493,111 Z M500,111 L500,86.5 C500,83.715 498.894,81.045 496.925,79.075 C494.956,77.106 492.285,76 489.5,76 L440.5,76 C437.715,76 435.045,77.106 433.075,79.075 C431.106,81.045 430,83.715 430,86.5 L430,135.5 C430,138.285 431.106,140.955 433.075,142.925 C435.045,144.894 437.715,146 440.5,146 L489.5,146 C492.285,146 494.955,144.894 496.925,142.925 C498.894,140.955 500,138.285 500,135.5 L500,111 Z" />
            <path d="M447.5,97 L482.5,97 C484.433,97 486,95.433 486,93.5 C486,91.567 484.433,90 482.5,90 L447.5,90 C445.567,90 444,91.567 444,93.5 C444,95.433 445.567,97 447.5,97 Z" />
            <path d="M454.5,93.5 L454.5,128.5 C454.5,130.433 456.067,132 458,132 C459.933,132 461.5,130.433 461.5,128.5 L461.5,93.5 C461.5,91.567 459.933,90 458,90 C456.067,90 454.5,91.567 454.5,93.5 Z" />
            <path d="M479,125 C478.072,125 477.182,124.631 476.525,123.975 C475.869,123.318 475.5,122.428 475.5,121.5 L475.5,93.5 C475.5,91.567 473.933,90 472,90 C470.067,90 468.5,91.567 468.5,93.5 L468.5,121.5 C468.5,124.285 469.606,126.955 471.575,128.925 C473.544,130.894 476.215,132 479,132 C480.933,132 482.5,130.433 482.5,128.5 C482.5,126.567 480.933,125 479,125 Z" />
        </g>
        <g id="Black-M" transform="translate(0,200)">
            <path d="M693,111 L693,135.5 C693,136.428 692.631,137.318 691.975,137.975 C691.318,138.631 690.428,139 689.5,139 L640.5,139 C639.572,139 638.682,138.631 638.025,137.975 C637.369,137.318 637,136.428 637,135.5 L637,86.5 C637,85.572 637.369,84.682 638.025,84.025 C638.682,83.369 639.572,83 640.5,83 L689.5,83 C690.428,83 691.318,83.369 691.975,84.025 C692.631,84.682 693,85.572 693,86.5 L693,111 Z M700,111 L700,86.5 C700,83.715 698.894,81.045 696.925,79.075 C694.956,77.106 692.285,76 689.5,76 L640.5,76 C637.715,76 635.044,77.106 633.075,79.075 C631.106,81.045 630,83.715 630,86.5 L630,135.5 C630,138.285 631.106,140.955 633.075,142.925 C635.044,144.894 637.715,146 640.5,146 L689.5,146 C692.285,146 694.956,144.894 696.925,142.925 C698.894,140.955 700,138.285 700,135.5 L700,111 Z" />
            <path d="M647.5,97 L682.5,97 C684.433,97 686,95.433 686,93.5 C686,91.567 684.433,90 682.5,90 L647.5,90 C645.567,90 644,91.567 644,93.5 C644,95.433 645.567,97 647.5,97 Z" />
            <path d="M654.5,93.5 L654.5,128.5 C654.5,130.433 656.067,132 658,132 C659.933,132 661.5,130.433 661.5,128.5 L661.5,93.5 C661.5,91.567 659.933,90 658,90 C656.067,90 654.5,91.567 654.5,93.5 Z" />
            <path d="M679,125 C678.072,125 677.182,124.631 676.525,123.975 C675.869,123.318 675.5,122.428 675.5,121.5 L675.5,93.5 C675.5,91.567 673.933,90 672,90 C670.067,90 668.5,91.567 668.5,93.5 L668.5,121.5 C668.5,124.285 669.606,126.955 671.575,128.925 C673.544,130.894 676.215,132 679,132 C680.933,132 682.5,130.433 682.5,128.5 C682.5,126.567 680.933,125 679,125 Z" />
        </g>
    </g>
</svg>