<?xml version="1.0" encoding="UTF-8"?>
<svg height="600" width="800" xmlns="http://www.w3.org/2000/svg" xmlns:xlink="http://www.w3.org/1999/xlink">
    <g id="Notes" font-family="LucidaGrande, 'Lucida Grande', sans-serif" font-size="13">
        <rect fill="white" height="600.0" width="800.0" x="0.0" y="0.0" />
        <g font-size="13">
            <text x="18.0" y="176.0">Small</text>
            <text x="18.0" y="376.0">Medium</text>
            <text x="18.0" y="576.0">Large</text>
        </g>
        <g font-size="9">
            <text x="250.0" y="30.0">Ultralight</text>
            <text x="450.0" y="30.0">Regular</text>
            <text x="650.0" y="30.0">Black</text>
            <text id="template-version" fill="#505050" text-anchor="end" x="785.0" y="575.0">Template v.3.0</text>
            <a href="https://github.com/swhitty/SwiftDraw">
                <text fill="#505050" text-anchor="end" x="785.0" y="590.0">https://github.com/swhitty/SwiftDraw</text>
            </a>
        </g>
    </g>
    <g id="Guides" stroke="rgb(39, 170, 225)" stroke-width="0.5">
        <path id="Capline-S" d="M18,76 l800,0" />
        <path id="H-reference" d="M85,145.755 L87.685,145.755 L113.369,79.287 L114.052,79.287 L114.052,76 L112.148,76 L85,145.755 Z M95.693,121.536 L130.996,121.536 L130.263,119.313 L96.474,119.313 L95.693,121.536 Z M139.15,145.755 L141.787,145.755 L114.638,76 L113.466,76 L113.466,79.287 L139.15,145.755 Z" stroke="none" transform="translate(0,200)" />
        <path id="Baseline-S" d="M18,146 l800,0" />
        <path id="left-margin-Ultralight-M" d="M230,256 l0,110" />
        <path id="right-margin-Ultralight-M" d="M300,256 l0,110" />
        <path id="left-margin-Regular-M" d="M430,256 l0,110" />
        <path id="right-margin-Regular-M" d="M500,256 l0,110" />
        <path id="left-margin-Black-M" d="M630,256 l0,110" />
        <path id="right-margin-Black-M" d="M700,256 l0,110" />
        <path id="Capline-M" d="M18,276 l800,0" />
        <path id="Baseline-M" d="M18,346 l800,0" />
        <path id="Capline-L" d="M18,476 l800,0" />
        <path id="Baseline-L" d="M18,546 l800,0" />
    </g>
    <g id="Symbols">
        <g id="Ultralight-M" transform="translate(0,200)">
            <path d="M300,107.5 L300,86.5 C300,83.715 298.894,81.045 296.925,79.075 C294.956,77.106 292.285,76 289.5,76 L240.5,76 C237.715,76 235.045,77.106 233.075,79.075 C231.106,81.045 230,83.715 230,86.5 L230,135.5 C230,138.285 231.106,140.955 233.075,142.925 C235.045,144.894 237.715,146 240.5,146 L261.5,146 C263.433,146 265,144.433 265,142.5 C265,140.567 263.433,139 261.5,139 L240.5,139 C239.572,139 238.682,138.631 238.025,137.975 C237.369,137.318 237,136.428 237,135.5 L237,86.5 C237,85.572 237.369,84.682 238.025,84.025 C238.682,83.369 239.572,83 240.5,83 L289.5,83 C290.428,83 291.318,83.369 291.975,84.025 C292.631,84.682 293,85.572 293,86.5 L293,107.5 C293,109.433 294.567,111 296.5,111 C298.433,111 300,109.433 300,107.5 Z" />
            <path d="M298.975,140.025 L267.475,108.525 C266.108,107.158 263.892,107.158 262.525,108.525 C261.158,109.892 261.158,112.108 262.525,113.475 L294.025,144.975 C295.392,146.342 297.608,146.342 298.975,144.975 C300.342,143.608 300.342,141.392 298.975,140.025 Z" />
            <path d="M293,121.5 L293,142.5 L296.5,139 L275.5,139 C273.567,139 272,140.567 272,142.5 C272,144.433 273.567,146 275.5,146 L296.5,146 C298.433,146 300,144.433 300,142.5 L300,121.5 C300,119.567 298.433,118 296.5,118 C294.567,118 293,119.567 293,121.5 Z" />
        </g>
        <g id="Regular-M" transform="translate(0,200)">
            <path d="M500,107.5 L500,86.5 C500,83.715 498.894,81.045 496.925,79.075 C494.956,77.106 492.285,76 489.5,76 L440.5,76 C437.715,76 435.045,77.106 433.075,79.075 C431.106,81.045 430,83.715 430,86.5 L430,135.5 C430,138.285 431.106,140.955 433.075,142.925 C435.044,144.894 437.715,146 440.5,146 L461.5,146 C463.433,146 465,144.433 465,142.5 C465,140.567 463.433,139 461.5,139 L440.5,139 C439.572,139 438.682,138.631 438.025,137.975 C437.369,137.318 437,136.428 437,135.5 L437,86.5 C437,85.572 437.369,84.682 438.025,84.025 C438.682,83.369 439.572,83 440.5,83 L489.5,83 C490.428,83 491.318,83.369 491.975,84.025 C492.631,84.682 493,85.572 493,86.5 L493,107.5 C493,109.433 494.567,111 496.5,111 C498.433,111 500,109.433 500,107.5 Z" />
            <path d="M498.975,140.025 L467.475,108.525 C466.108,107.158 463.892,107.158 462.525,108.525 C461.158,109.892 461.158,112.108 462.525,113.475 L494.025,144.975 C495.392,146.342 497.608,146.342 498.975,144.975 C500.342,143.608 500.342,141.392 498.975,140.025 Z" />
            <path d="M493,121.5 L493,142.5 L496.5,139 L475.5,139 C473.567,139 472,140.567 472,142.5 C472,144.433 473.567,146 475.5,146 L496.5,146 C498.433,146 500,144.433 500,142.5 L500,121.5 C500,119.567 498.433,118 496.5,118 C494.567,118 493,119.567 493,121.5 Z" />
        </g>
        <g id="Black-M" transform="translate(0,200)">
            <path d="M700,107.5 L700,86.5 C700,83.715 698.894,81.045 696.925,79.075 C694.956,77.106 692.285,76 689.5,76 L640.5,76 C637.715,76 635.044,77.106 633.075,79.075 C631.106,81.045 630,83.715 630,86.5 L630,135.5 C630,138.285 631.106,140.955 633.075,142.925 C635.044,144.894 637.715,146 640.5,146 L661.5,146 C663.433,146 665,144.433 665,142.5 C665,140.567 663.433,139 661.5,139 L640.5,139 C639.572,139 638.682,138.631 638.025,137.975 C637.369,137.318 637,136.428 637,135.5 L637,86.5 C637,85.572 637.369,84.682 638.025,84.025 C638.682,83.369 639.572,83 640.5,83 L689.5,83 C690.428,83 691.318,83.369 691.975,84.025 C692.631,84.682 693,85.572 693,86.5 L693,107.5 C693,109.433 694.567,111 696.5,111 C698.433,111 700,109.433 700,107.5 Z" />
            <path d="M698.975,140.025 L667.475,108.525 C666.108,107.158 663.892,107.158 662.525,108.525 C661.158,109.892 661.158,112.108 662.525,113.475 L694.025,144.975 C695.392,146.342 697.608,146.342 698.975,144.975 C700.342,143.608 700.342,141.392 698.975,140.025 Z" />
            <path d="M693,121.5 L693,142.5 L696.5,139 L675.5,139 C673.567,139 672,140.567 672,142.5 C672,144.433 673.567,146 675.5,146 L696.5,146 C698.433,146 700,144.433 700,142.5 L700,121.5 C700,119.567 698.433,118 696.5,118 C694.567,118 693,119.567 693,121.5 Z" />
        </g>
    </g>
</svg>