<?xml version="1.0" encoding="UTF-8"?>
<svg height="600" width="800" xmlns="http://www.w3.org/2000/svg" xmlns:xlink="http://www.w3.org/1999/xlink">
    <g id="Notes" font-family="LucidaGrande, 'Lucida Grande', sans-serif" font-size="13">
        <rect fill="white" height="600.0" width="800.0" x="0.0" y="0.0" />
        <g font-size="13">
            <text x="18.0" y="176.0">Small</text>
            <text x="18.0" y="376.0">Medium</text>
            <text x="18.0" y="576.0">Large</text>
        </g>
        <g font-size="9">
            <text x="250.0" y="30.0">Ultralight</text>
            <text x="450.0" y="30.0">Regular</text>
            <text x="650.0" y="30.0">Black</text>
            <text id="template-version" fill="#505050" text-anchor="end" x="785.0" y="575.0">Template v.3.0</text>
            <a href="https://github.com/swhitty/SwiftDraw">
                <text fill="#505050" text-anchor="end" x="785.0" y="590.0">https://github.com/swhitty/SwiftDraw</text>
            </a>
        </g>
    </g>
    <g id="Guides" stroke="rgb(39, 170, 225)" stroke-width="0.5">
        <path id="Capline-S" d="M18,76 l800,0" />
        <path id="H-reference" d="M85,145.755 L87.685,145.755 L113.369,79.287 L114.052,79.287 L114.052,76 L112.148,76 L85,145.755 Z M95.693,121.536 L130.996,121.536 L130.263,119.313 L96.474,119.313 L95.693,121.536 Z M139.15,145.755 L141.787,145.755 L114.638,76 L113.466,76 L113.466,79.287 L139.15,145.755 Z" stroke="none" transform="translate(0,200)" />
        <path id="Baseline-S" d="M18,146 l800,0" />
        <path id="left-margin-Ultralight-M" d="M230,256 l0,110" />
        <path id="right-margin-Ultralight-M" d="M300,256 l0,110" />
        <path id="left-margin-Regular-M" d="M430,256 l0,110" />
        <path id="right-margin-Regular-M" d="M500,256 l0,110" />
        <path id="left-margin-Black-M" d="M630,256 l0,110" />
        <path id="right-margin-Black-M" d="M700,256 l0,110" />
        <path id="Capline-M" d="M18,276 l800,0" />
        <path id="Baseline-M" d="M18,346 l800,0" />
        <path id="Capline-L" d="M18,476 l800,0" />
        <path id="Baseline-L" d="M18,546 l800,0" />
    </g>
    <g id="Symbols">
        <g id="Ultralight-M" transform="translate(0,200)">
            <path d="M262.587,89.143 L266.345,81.529 C266.091,82.042 265.571,82.364 265.003,82.364 C264.434,82.364 263.915,82.042 263.663,81.532 L271.011,96.417 C272.455,99.345 275.247,101.376 278.478,101.848 L294.913,104.253 C294.354,104.172 293.886,103.777 293.71,103.236 C293.534,102.695 293.681,102.1 294.088,101.703 L283.791,111.73 C282.532,112.956 282.505,114.971 283.731,116.23 C284.957,117.489 286.971,117.516 288.23,116.29 L298.529,106.261 C299.857,104.965 300.334,103.03 299.761,101.268 C299.188,99.505 297.664,98.221 295.83,97.956 L279.399,95.551 C278.238,95.381 277.235,94.652 276.717,93.601 L269.367,78.712 C268.544,77.05 266.854,76 265.003,76 C263.152,76 261.461,77.05 260.64,78.709 L256.881,86.326 C256.104,87.902 256.75,89.81 258.326,90.588 C259.902,91.366 261.81,90.719 262.587,89.143 Z" />
            <path d="M280.781,130.454 L282.15,138.425 C282.053,137.876 282.283,137.306 282.746,136.97 C283.209,136.634 283.823,136.591 284.327,136.86 L269.62,129.126 C266.729,127.606 263.274,127.606 260.382,129.126 L245.693,136.852 C246.19,136.589 246.802,136.632 247.264,136.968 C247.726,137.304 247.956,137.874 247.857,138.436 L250.662,122.073 C251.217,118.849 250.147,115.558 247.801,113.276 L235.916,101.704 C236.318,102.092 236.467,102.689 236.29,103.233 C236.114,103.776 235.643,104.172 235.077,104.252 L251.525,101.847 C252.229,101.701 252.707,101.582 253.181,101.452 C254.875,100.986 255.871,99.235 255.405,97.54 C254.939,95.846 253.188,94.85 251.493,95.316 C251.125,95.418 250.753,95.509 250.38,95.592 L234.172,97.953 C232.344,98.211 230.812,99.499 230.238,101.269 C229.664,103.038 230.148,104.98 231.486,106.273 L243.363,117.836 C244.206,118.656 244.59,119.838 244.391,120.996 L241.588,137.349 C241.269,139.167 242.018,141.021 243.521,142.115 C245.025,143.208 247.019,143.35 248.662,142.48 L263.344,134.759 C264.381,134.213 265.621,134.213 266.659,134.759 L281.352,142.484 C282.98,143.352 284.979,143.213 286.485,142.118 C287.992,141.024 288.742,139.167 288.418,137.333 L287.053,129.378 C286.756,127.646 285.111,126.483 283.379,126.78 C281.647,127.077 280.484,128.722 280.781,130.454 Z" />
            <path d="M230.938,81.432 L294.569,145.068 C295.811,146.311 297.826,146.311 299.068,145.068 C300.311,143.825 300.311,141.811 299.068,140.568 L235.437,76.932 C234.195,75.689 232.18,75.689 230.938,76.932 C229.695,78.175 229.695,80.189 230.938,81.432 Z" />
        </g>
        <g id="Regular-M" transform="translate(0,200)">
            <path d="M462.587,89.143 L466.345,81.529 C466.091,82.042 465.571,82.364 465.003,82.364 C464.434,82.364 463.915,82.042 463.663,81.532 L471.011,96.417 C472.455,99.345 475.247,101.376 478.478,101.848 L494.913,104.253 C494.354,104.172 493.886,103.777 493.71,103.236 C493.534,102.695 493.681,102.1 494.088,101.703 L483.791,111.73 C482.532,112.956 482.505,114.971 483.731,116.23 C484.957,117.489 486.971,117.516 488.23,116.29 L498.529,106.261 C499.857,104.965 500.334,103.03 499.761,101.268 C499.188,99.505 497.664,98.221 495.83,97.956 L479.399,95.551 C478.238,95.381 477.235,94.652 476.717,93.601 L469.367,78.712 C468.544,77.05 466.854,76 465.003,76 C463.152,76 461.461,77.05 460.64,78.709 L456.881,86.326 C456.104,87.902 456.75,89.81 458.326,90.588 C459.902,91.366 461.81,90.719 462.587,89.143 Z" />
            <path d="M480.781,130.454 L482.15,138.425 C482.053,137.876 482.283,137.306 482.746,136.97 C483.209,136.634 483.823,136.591 484.327,136.86 L469.62,129.126 C466.729,127.606 463.274,127.606 460.382,129.126 L445.693,136.852 C446.19,136.589 446.802,136.632 447.264,136.968 C447.726,137.304 447.956,137.874 447.857,138.436 L450.662,122.073 C451.217,118.849 450.147,115.558 447.801,113.276 L435.916,101.704 C436.318,102.092 436.467,102.689 436.29,103.233 C436.114,103.776 435.643,104.172 435.077,104.252 L451.525,101.847 C452.229,101.701 452.707,101.582 453.181,101.452 C454.875,100.986 455.871,99.235 455.405,97.54 C454.939,95.846 453.188,94.85 451.493,95.316 C451.125,95.418 450.753,95.509 450.38,95.592 L434.172,97.953 C432.344,98.211 430.812,99.499 430.238,101.269 C429.664,103.038 430.148,104.98 431.486,106.273 L443.363,117.836 C444.206,118.656 444.59,119.838 444.391,120.996 L441.588,137.349 C441.269,139.167 442.018,141.021 443.521,142.115 C445.025,143.208 447.019,143.35 448.662,142.48 L463.344,134.759 C464.381,134.213 465.621,134.213 466.659,134.759 L481.352,142.484 C482.98,143.352 484.979,143.213 486.485,142.118 C487.992,141.024 488.742,139.167 488.418,137.333 L487.053,129.378 C486.756,127.646 485.111,126.483 483.379,126.78 C481.647,127.077 480.484,128.722 480.781,130.454 Z" />
            <path d="M430.938,81.432 L494.569,145.068 C495.811,146.311 497.826,146.311 499.068,145.068 C500.311,143.825 500.311,141.811 499.068,140.568 L435.437,76.932 C434.195,75.689 432.18,75.689 430.938,76.932 C429.695,78.175 429.695,80.189 430.938,81.432 Z" />
        </g>
        <g id="Black-M" transform="translate(0,200)">
            <path d="M662.587,89.143 L666.345,81.529 C666.091,82.042 665.571,82.364 665.003,82.364 C664.434,82.364 663.915,82.042 663.663,81.532 L671.011,96.417 C672.455,99.345 675.247,101.376 678.478,101.848 L694.913,104.253 C694.354,104.172 693.886,103.777 693.71,103.236 C693.534,102.695 693.681,102.1 694.088,101.703 L683.791,111.73 C682.532,112.956 682.505,114.971 683.731,116.23 C684.957,117.489 686.971,117.516 688.23,116.29 L698.529,106.261 C699.857,104.965 700.334,103.03 699.761,101.268 C699.188,99.505 697.664,98.221 695.83,97.956 L679.399,95.551 C678.238,95.381 677.235,94.652 676.717,93.601 L669.367,78.712 C668.544,77.05 666.854,76 665.003,76 C663.152,76 661.461,77.05 660.64,78.709 L656.881,86.326 C656.104,87.902 656.75,89.81 658.326,90.588 C659.902,91.366 661.81,90.719 662.587,89.143 Z" />
            <path d="M680.781,130.454 L682.15,138.425 C682.053,137.876 682.283,137.306 682.746,136.97 C683.209,136.634 683.823,136.591 684.327,136.86 L669.62,129.126 C666.729,127.606 663.274,127.606 660.382,129.126 L645.693,136.852 C646.19,136.589 646.802,136.632 647.264,136.968 C647.726,137.304 647.956,137.874 647.857,138.436 L650.662,122.073 C651.217,118.849 650.147,115.558 647.801,113.276 L635.916,101.704 C636.318,102.092 636.467,102.689 636.29,103.233 C636.114,103.776 635.643,104.172 635.077,104.252 L651.525,101.847 C652.229,101.701 652.707,101.582 653.181,101.452 C654.875,100.986 655.871,99.235 655.405,97.54 C654.939,95.846 653.188,94.85 651.493,95.316 C651.125,95.418 650.753,95.509 650.38,95.592 L634.172,97.953 C632.344,98.211 630.812,99.499 630.238,101.269 C629.664,103.038 630.148,104.98 631.486,106.273 L643.363,117.836 C644.206,118.656 644.59,119.838 644.391,120.996 L641.588,137.349 C641.269,139.167 642.018,141.021 643.521,142.115 C645.025,143.208 647.019,143.35 648.662,142.48 L663.344,134.759 C664.381,134.213 665.621,134.213 666.659,134.759 L681.352,142.484 C682.98,143.352 684.979,143.213 686.485,142.118 C687.992,141.024 688.742,139.167 688.418,137.333 L687.053,129.378 C686.756,127.646 685.111,126.483 683.379,126.78 C681.647,127.077 680.484,128.722 680.781,130.454 Z" />
            <path d="M630.938,81.432 L694.569,145.068 C695.811,146.311 697.826,146.311 699.068,145.068 C700.311,143.825 700.311,141.811 699.068,140.568 L635.437,76.932 C634.195,75.689 632.18,75.689 630.938,76.932 C629.695,78.175 629.695,80.189 630.938,81.432 Z" />
        </g>
    </g>
</svg>