<?xml version="1.0" encoding="UTF-8"?>
<svg height="600" width="800" xmlns="http://www.w3.org/2000/svg" xmlns:xlink="http://www.w3.org/1999/xlink">
    <g id="Notes" font-family="LucidaGrande, 'Lucida Grande', sans-serif" font-size="13">
        <rect fill="white" height="600.0" width="800.0" x="0.0" y="0.0" />
        <g font-size="13">
            <text x="18.0" y="176.0">Small</text>
            <text x="18.0" y="376.0">Medium</text>
            <text x="18.0" y="576.0">Large</text>
        </g>
        <g font-size="9">
            <text x="250.0" y="30.0">Ultralight</text>
            <text x="450.0" y="30.0">Regular</text>
            <text x="650.0" y="30.0">Black</text>
            <text id="template-version" fill="#505050" text-anchor="end" x="785.0" y="575.0">Template v.3.0</text>
            <a href="https://github.com/swhitty/SwiftDraw">
                <text fill="#505050" text-anchor="end" x="785.0" y="590.0">https://github.com/swhitty/SwiftDraw</text>
            </a>
        </g>
    </g>
    <g id="Guides" stroke="rgb(39, 170, 225)" stroke-width="0.5">
        <path id="Capline-S" d="M18,76 l800,0" />
        <path id="H-reference" d="M85,145.755 L87.685,145.755 L113.369,79.287 L114.052,79.287 L114.052,76 L112.148,76 L85,145.755 Z M95.693,121.536 L130.996,121.536 L130.263,119.313 L96.474,119.313 L95.693,121.536 Z M139.15,145.755 L141.787,145.755 L114.638,76 L113.466,76 L113.466,79.287 L139.15,145.755 Z" stroke="none" transform="translate(0,200)" />
        <path id="Baseline-S" d="M18,146 l800,0" />
        <path id="left-margin-Ultralight-M" d="M228.333,256 l0,110" />
        <path id="right-margin-Ultralight-M" d="M301.667,256 l0,110" />
        <path id="left-margin-Regular-M" d="M428.333,256 l0,110" />
        <path id="right-margin-Regular-M" d="M501.667,256 l0,110" />
        <path id="left-margin-Black-M" d="M628.333,256 l0,110" />
        <path id="right-margin-Black-M" d="M701.667,256 l0,110" />
        <path id="Capline-M" d="M18,276 l800,0" />
        <path id="Baseline-M" d="M18,346 l800,0" />
        <path id="Capline-L" d="M18,476 l800,0" />
        <path id="Baseline-L" d="M18,546 l800,0" />
    </g>
    <g id="Symbols">
        <g id="Ultralight-M" transform="translate(0,200)">
            <path d="M290.857,116.588 L300.123,107.595 C301.514,106.249 302.018,104.225 301.417,102.381 C300.816,100.538 299.215,99.195 297.29,98.92 L280.082,96.414 C278.858,96.242 277.814,95.485 277.28,94.393 L269.573,78.83 C268.708,77.092 266.936,75.998 264.997,76 C263.058,76.002 261.288,77.1 260.43,78.833 L252.734,94.377 C252.192,95.486 251.147,96.242 249.938,96.411 L232.703,98.922 C230.789,99.191 229.184,100.536 228.582,102.383 C227.981,104.231 228.488,106.259 229.89,107.608 L242.332,119.681 C243.225,120.538 243.625,121.764 243.412,122.963 L240.476,140.054 C240.144,141.953 240.928,143.885 242.499,145.026 C244.071,146.167 246.156,146.317 247.876,145.415 L263.263,137.35 L263.336,137.312 C264.97,136.467 265.608,134.462 264.761,132.834 C263.913,131.205 261.902,130.569 260.268,131.414 L260.178,131.46 L244.773,139.535 C245.3,139.258 245.94,139.305 246.423,139.655 C246.906,140.006 247.147,140.599 247.044,141.185 L249.979,124.104 C250.576,120.744 249.449,117.289 246.969,114.908 L234.53,102.838 C234.952,103.244 235.108,103.867 234.923,104.434 C234.738,105.002 234.245,105.415 233.652,105.498 L250.882,102.988 C254.267,102.516 257.213,100.383 258.719,97.302 L266.407,81.773 C266.143,82.306 265.6,82.643 265.004,82.644 C264.408,82.645 263.864,82.309 263.599,81.777 L271.295,97.318 C272.791,100.38 275.733,102.512 279.135,102.99 L296.336,105.496 C295.754,105.413 295.262,105.001 295.077,104.434 C294.893,103.868 295.048,103.246 295.476,102.831 L286.207,111.828 C284.888,113.108 284.86,115.211 286.144,116.526 C287.428,117.84 289.538,117.868 290.857,116.588 Z" />
            <path d="M272.644,134.825 L279.309,141.469 C280.611,142.766 282.721,142.766 284.023,141.469 L297.355,128.181 C298.656,126.884 298.656,124.78 297.355,123.483 C296.053,122.186 293.943,122.186 292.641,123.483 L279.309,136.771 L284.023,136.771 L277.357,130.127 C276.055,128.83 273.945,128.83 272.644,130.127 C271.342,131.424 271.342,133.528 272.644,134.825 Z" />
        </g>
        <g id="Regular-M" transform="translate(0,200)">
            <path d="M490.857,116.588 L500.123,107.595 C501.514,106.249 502.018,104.225 501.417,102.381 C500.816,100.538 499.215,99.195 497.29,98.92 L480.082,96.414 C478.858,96.242 477.814,95.485 477.28,94.393 L469.573,78.83 C468.708,77.092 466.936,75.998 464.997,76 C463.058,76.002 461.288,77.1 460.43,78.833 L452.734,94.377 C452.192,95.486 451.147,96.242 449.938,96.411 L432.703,98.922 C430.789,99.191 429.184,100.536 428.582,102.383 C427.981,104.231 428.488,106.259 429.89,107.608 L442.332,119.681 C443.225,120.538 443.625,121.764 443.412,122.963 L440.476,140.054 C440.144,141.953 440.928,143.885 442.499,145.026 C444.071,146.167 446.156,146.317 447.876,145.415 L463.263,137.35 L463.336,137.312 C464.97,136.467 465.608,134.462 464.761,132.834 C463.913,131.205 461.902,130.569 460.268,131.414 L460.178,131.46 L444.773,139.535 C445.3,139.258 445.94,139.305 446.423,139.655 C446.906,140.006 447.147,140.599 447.044,141.185 L449.979,124.104 C450.576,120.744 449.449,117.289 446.969,114.908 L434.53,102.838 C434.952,103.244 435.108,103.867 434.923,104.434 C434.738,105.002 434.245,105.415 433.652,105.498 L450.882,102.988 C454.267,102.516 457.213,100.383 458.719,97.302 L466.407,81.773 C466.143,82.306 465.6,82.643 465.004,82.644 C464.408,82.645 463.864,82.309 463.599,81.777 L471.295,97.318 C472.791,100.38 475.733,102.512 479.135,102.99 L496.336,105.496 C495.754,105.413 495.262,105.001 495.077,104.434 C494.893,103.868 495.048,103.246 495.476,102.831 L486.207,111.828 C484.888,113.108 484.86,115.211 486.144,116.526 C487.428,117.84 489.538,117.868 490.857,116.588 Z" />
            <path d="M472.644,134.825 L479.309,141.469 C480.611,142.766 482.721,142.766 484.023,141.469 L497.355,128.181 C498.656,126.884 498.656,124.78 497.355,123.483 C496.053,122.186 493.943,122.186 492.641,123.483 L479.309,136.771 L484.023,136.771 L477.357,130.127 C476.055,128.83 473.945,128.83 472.644,130.127 C471.342,131.424 471.342,133.528 472.644,134.825 Z" />
        </g>
        <g id="Black-M" transform="translate(0,200)">
            <path d="M690.857,116.588 L700.123,107.595 C701.514,106.249 702.018,104.225 701.417,102.381 C700.816,100.538 699.215,99.195 697.29,98.92 L680.082,96.414 C678.858,96.242 677.814,95.485 677.28,94.393 L669.573,78.83 C668.708,77.092 666.936,75.998 664.997,76 C663.058,76.002 661.288,77.1 660.43,78.833 L652.734,94.377 C652.192,95.486 651.147,96.242 649.938,96.411 L632.703,98.922 C630.789,99.191 629.184,100.536 628.582,102.383 C627.981,104.231 628.488,106.259 629.89,107.608 L642.332,119.681 C643.225,120.538 643.625,121.764 643.412,122.963 L640.476,140.054 C640.144,141.953 640.928,143.885 642.499,145.026 C644.071,146.167 646.156,146.317 647.876,145.415 L663.263,137.35 L663.336,137.312 C664.97,136.467 665.608,134.462 664.761,132.834 C663.913,131.205 661.902,130.569 660.268,131.414 L660.178,131.46 L644.773,139.535 C645.3,139.258 645.94,139.305 646.423,139.655 C646.906,140.006 647.147,140.599 647.044,141.185 L649.979,124.104 C650.576,120.744 649.449,117.289 646.969,114.908 L634.53,102.838 C634.952,103.244 635.107,103.867 634.923,104.434 C634.738,105.002 634.245,105.415 633.652,105.498 L650.882,102.988 C654.267,102.516 657.213,100.383 658.719,97.302 L666.407,81.773 C666.143,82.306 665.6,82.643 665.004,82.644 C664.408,82.645 663.864,82.309 663.599,81.777 L671.295,97.318 C672.791,100.38 675.733,102.512 679.135,102.99 L696.336,105.496 C695.754,105.413 695.262,105.001 695.077,104.434 C694.893,103.868 695.048,103.246 695.476,102.831 L686.207,111.828 C684.888,113.108 684.86,115.211 686.144,116.526 C687.428,117.84 689.538,117.868 690.857,116.588 Z" />
            <path d="M672.643,134.825 L679.309,141.469 C680.611,142.766 682.721,142.766 684.023,141.469 L697.354,128.181 C698.656,126.884 698.656,124.78 697.354,123.483 C696.053,122.186 693.943,122.186 692.641,123.483 L679.309,136.771 L684.023,136.771 L677.357,130.127 C676.055,128.83 673.945,128.83 672.643,130.127 C671.342,131.424 671.342,133.528 672.643,134.825 Z" />
        </g>
    </g>
</svg>