<?xml version="1.0" encoding="UTF-8"?>
<svg height="600" width="800" xmlns="http://www.w3.org/2000/svg" xmlns:xlink="http://www.w3.org/1999/xlink">
    <g id="Notes" font-family="LucidaGrande, 'Lucida Grande', sans-serif" font-size="13">
        <rect fill="white" height="600.0" width="800.0" x="0.0" y="0.0" />
        <g font-size="13">
            <text x="18.0" y="176.0">Small</text>
            <text x="18.0" y="376.0">Medium</text>
            <text x="18.0" y="576.0">Large</text>
        </g>
        <g font-size="9">
            <text x="250.0" y="30.0">Ultralight</text>
            <text x="450.0" y="30.0">Regular</text>
            <text x="650.0" y="30.0">Black</text>
            <text id="template-version" fill="#505050" text-anchor="end" x="785.0" y="575.0">Template v.3.0</text>
            <a href="https://github.com/swhitty/SwiftDraw">
                <text fill="#505050" text-anchor="end" x="785.0" y="590.0">https://github.com/swhitty/SwiftDraw</text>
            </a>
        </g>
    </g>
    <g id="Guides" stroke="rgb(39, 170, 225)" stroke-width="0.5">
        <path id="Capline-S" d="M18,76 l800,0" />
        <path id="H-reference" d="M85,145.755 L87.685,145.755 L113.369,79.287 L114.052,79.287 L114.052,76 L112.148,76 L85,145.755 Z M95.693,121.536 L130.996,121.536 L130.263,119.313 L96.474,119.313 L95.693,121.536 Z M139.15,145.755 L141.787,145.755 L114.638,76 L113.466,76 L113.466,79.287 L139.15,145.755 Z" stroke="none" transform="translate(0,200)" />
        <path id="Baseline-S" d="M18,146 l800,0" />
        <path id="left-margin-Ultralight-M" d="M230,256 l0,110" />
        <path id="right-margin-Ultralight-M" d="M300,256 l0,110" />
        <path id="left-margin-Regular-M" d="M430,256 l0,110" />
        <path id="right-margin-Regular-M" d="M500,256 l0,110" />
        <path id="left-margin-Black-M" d="M630,256 l0,110" />
        <path id="right-margin-Black-M" d="M700,256 l0,110" />
        <path id="Capline-M" d="M18,276 l800,0" />
        <path id="Baseline-M" d="M18,346 l800,0" />
        <path id="Capline-L" d="M18,476 l800,0" />
        <path id="Baseline-L" d="M18,546 l800,0" />
    </g>
    <g id="Symbols">
        <g id="Ultralight-M" transform="translate(0,200)">
            <path d="M253.32,111 C253.32,104.557 258.541,99.333 264.981,99.333 C271.42,99.333 276.641,104.557 276.641,111 C276.641,117.443 271.42,122.667 264.981,122.667 C258.541,122.667 253.32,117.443 253.32,111 Z M245.547,111 C245.547,121.739 254.248,130.444 264.981,130.444 C275.713,130.444 284.414,121.739 284.414,111 C284.414,100.261 275.713,91.556 264.981,91.556 C254.248,91.556 245.547,100.261 245.547,111 Z" />
            <path d="M264.981,83.778 L265.019,83.778 C267.166,83.778 268.906,82.037 268.906,79.889 C268.906,77.741 267.166,76 265.019,76 L264.981,76 C262.834,76 261.094,77.741 261.094,79.889 C261.094,82.037 262.834,83.778 264.981,83.778 Z" />
            <path d="M296.074,114.889 L296.113,114.889 C298.26,114.889 300,113.148 300,111 C300,108.852 298.26,107.111 296.113,107.111 L296.074,107.111 C293.928,107.111 292.188,108.852 292.188,111 C292.188,113.148 293.928,114.889 296.074,114.889 Z" />
            <path d="M264.981,146 L265.019,146 C267.166,146 268.906,144.259 268.906,142.111 C268.906,139.963 267.166,138.222 265.019,138.222 L264.981,138.222 C262.834,138.222 261.094,139.963 261.094,142.111 C261.094,144.259 262.834,146 264.981,146 Z" />
            <path d="M233.887,114.889 L233.926,114.889 C236.072,114.889 237.812,113.148 237.812,111 C237.812,108.852 236.072,107.111 233.926,107.111 L233.887,107.111 C231.74,107.111 230,108.852 230,111 C230,113.148 231.74,114.889 233.887,114.889 Z" />
            <path d="M286.968,92.889 L287.007,92.889 C289.153,92.889 290.893,91.148 290.893,89.001 C290.893,86.853 289.153,85.112 287.007,85.112 L286.968,85.112 C284.821,85.112 283.081,86.853 283.081,89.001 C283.081,91.148 284.821,92.889 286.968,92.889 Z" />
            <path d="M286.968,136.888 L287.007,136.888 C289.153,136.888 290.893,135.147 290.893,132.999 C290.893,130.852 289.153,129.111 287.007,129.111 L286.968,129.111 C284.821,129.111 283.081,130.852 283.081,132.999 C283.081,135.147 284.821,136.888 286.968,136.888 Z" />
            <path d="M242.993,136.888 L243.032,136.888 C245.179,136.888 246.919,135.147 246.919,132.999 C246.919,130.852 245.179,129.111 243.032,129.111 L242.993,129.111 C240.847,129.111 239.107,130.852 239.107,132.999 C239.107,135.147 240.847,136.888 242.993,136.888 Z" />
            <path d="M242.993,92.889 L243.032,92.889 C245.179,92.889 246.919,91.148 246.919,89.001 C246.919,86.853 245.179,85.112 243.032,85.112 L242.993,85.112 C240.847,85.112 239.107,86.853 239.107,89.001 C239.107,91.148 240.847,92.889 242.993,92.889 Z" />
        </g>
        <g id="Regular-M" transform="translate(0,200)">
            <path d="M453.32,111 C453.32,104.557 458.541,99.333 464.981,99.333 C471.42,99.333 476.641,104.557 476.641,111 C476.641,117.443 471.42,122.667 464.981,122.667 C458.541,122.667 453.32,117.443 453.32,111 Z M445.547,111 C445.547,121.739 454.248,130.444 464.981,130.444 C475.713,130.444 484.414,121.739 484.414,111 C484.414,100.261 475.713,91.556 464.981,91.556 C454.248,91.556 445.547,100.261 445.547,111 Z" />
            <path d="M464.981,83.778 L465.019,83.778 C467.166,83.778 468.906,82.037 468.906,79.889 C468.906,77.741 467.166,76 465.019,76 L464.981,76 C462.834,76 461.094,77.741 461.094,79.889 C461.094,82.037 462.834,83.778 464.981,83.778 Z" />
            <path d="M496.074,114.889 L496.113,114.889 C498.26,114.889 500,113.148 500,111 C500,108.852 498.26,107.111 496.113,107.111 L496.074,107.111 C493.928,107.111 492.188,108.852 492.188,111 C492.188,113.148 493.928,114.889 496.074,114.889 Z" />
            <path d="M464.981,146 L465.019,146 C467.166,146 468.906,144.259 468.906,142.111 C468.906,139.963 467.166,138.222 465.019,138.222 L464.981,138.222 C462.834,138.222 461.094,139.963 461.094,142.111 C461.094,144.259 462.834,146 464.981,146 Z" />
            <path d="M433.887,114.889 L433.926,114.889 C436.072,114.889 437.812,113.148 437.812,111 C437.812,108.852 436.072,107.111 433.926,107.111 L433.887,107.111 C431.74,107.111 430,108.852 430,111 C430,113.148 431.74,114.889 433.887,114.889 Z" />
            <path d="M486.968,92.889 L487.007,92.889 C489.153,92.889 490.893,91.148 490.893,89.001 C490.893,86.853 489.153,85.112 487.007,85.112 L486.968,85.112 C484.821,85.112 483.081,86.853 483.081,89.001 C483.081,91.148 484.821,92.889 486.968,92.889 Z" />
            <path d="M486.968,136.888 L487.007,136.888 C489.153,136.888 490.893,135.147 490.893,132.999 C490.893,130.852 489.153,129.111 487.007,129.111 L486.968,129.111 C484.821,129.111 483.081,130.852 483.081,132.999 C483.081,135.147 484.821,136.888 486.968,136.888 Z" />
            <path d="M442.993,136.888 L443.032,136.888 C445.179,136.888 446.919,135.147 446.919,132.999 C446.919,130.852 445.179,129.111 443.032,129.111 L442.993,129.111 C440.847,129.111 439.107,130.852 439.107,132.999 C439.107,135.147 440.847,136.888 442.993,136.888 Z" />
            <path d="M442.993,92.889 L443.032,92.889 C445.179,92.889 446.919,91.148 446.919,89.001 C446.919,86.853 445.179,85.112 443.032,85.112 L442.993,85.112 C440.847,85.112 439.107,86.853 439.107,89.001 C439.107,91.148 440.847,92.889 442.993,92.889 Z" />
        </g>
        <g id="Black-M" transform="translate(0,200)">
            <path d="M653.32,111 C653.32,104.557 658.541,99.333 664.981,99.333 C671.42,99.333 676.641,104.557 676.641,111 C676.641,117.443 671.42,122.667 664.981,122.667 C658.541,122.667 653.32,117.443 653.32,111 Z M645.547,111 C645.547,121.739 654.248,130.444 664.981,130.444 C675.714,130.444 684.414,121.739 684.414,111 C684.414,100.261 675.714,91.556 664.981,91.556 C654.248,91.556 645.547,100.261 645.547,111 Z" />
            <path d="M664.981,83.778 L665.019,83.778 C667.166,83.778 668.906,82.037 668.906,79.889 C668.906,77.741 667.166,76 665.019,76 L664.981,76 C662.834,76 661.094,77.741 661.094,79.889 C661.094,82.037 662.834,83.778 664.981,83.778 Z" />
            <path d="M696.074,114.889 L696.113,114.889 C698.26,114.889 700,113.148 700,111 C700,108.852 698.26,107.111 696.113,107.111 L696.074,107.111 C693.928,107.111 692.188,108.852 692.188,111 C692.188,113.148 693.928,114.889 696.074,114.889 Z" />
            <path d="M664.981,146 L665.019,146 C667.166,146 668.906,144.259 668.906,142.111 C668.906,139.963 667.166,138.222 665.019,138.222 L664.981,138.222 C662.834,138.222 661.094,139.963 661.094,142.111 C661.094,144.259 662.834,146 664.981,146 Z" />
            <path d="M633.887,114.889 L633.926,114.889 C636.072,114.889 637.812,113.148 637.812,111 C637.812,108.852 636.072,107.111 633.926,107.111 L633.887,107.111 C631.74,107.111 630,108.852 630,111 C630,113.148 631.74,114.889 633.887,114.889 Z" />
            <path d="M686.968,92.889 L687.007,92.889 C689.153,92.889 690.893,91.148 690.893,89.001 C690.893,86.853 689.153,85.112 687.007,85.112 L686.968,85.112 C684.821,85.112 683.081,86.853 683.081,89.001 C683.081,91.148 684.821,92.889 686.968,92.889 Z" />
            <path d="M686.968,136.888 L687.007,136.888 C689.153,136.888 690.893,135.147 690.893,132.999 C690.893,130.852 689.153,129.111 687.007,129.111 L686.968,129.111 C684.821,129.111 683.081,130.852 683.081,132.999 C683.081,135.147 684.821,136.888 686.968,136.888 Z" />
            <path d="M642.993,136.888 L643.032,136.888 C645.179,136.888 646.919,135.147 646.919,132.999 C646.919,130.852 645.179,129.111 643.032,129.111 L642.993,129.111 C640.847,129.111 639.107,130.852 639.107,132.999 C639.107,135.147 640.847,136.888 642.993,136.888 Z" />
            <path d="M642.993,92.889 L643.032,92.889 C645.179,92.889 646.919,91.148 646.919,89.001 C646.919,86.853 645.179,85.112 643.032,85.112 L642.993,85.112 C640.847,85.112 639.107,86.853 639.107,89.001 C639.107,91.148 640.847,92.889 642.993,92.889 Z" />
        </g>
    </g>
</svg>