<?xml version="1.0" encoding="UTF-8"?>
<svg height="600" width="800" xmlns="http://www.w3.org/2000/svg" xmlns:xlink="http://www.w3.org/1999/xlink">
    <g id="Notes" font-family="LucidaGrande, 'Lucida Grande', sans-serif" font-size="13">
        <rect fill="white" height="600.0" width="800.0" x="0.0" y="0.0" />
        <g font-size="13">
            <text x="18.0" y="176.0">Small</text>
            <text x="18.0" y="376.0">Medium</text>
            <text x="18.0" y="576.0">Large</text>
        </g>
        <g font-size="9">
            <text x="250.0" y="30.0">Ultralight</text>
            <text x="450.0" y="30.0">Regular</text>
            <text x="650.0" y="30.0">Black</text>
            <text id="template-version" fill="#505050" text-anchor="end" x="785.0" y="575.0">Template v.3.0</text>
            <a href="https://github.com/swhitty/SwiftDraw">
                <text fill="#505050" text-anchor="end" x="785.0" y="590.0">https://github.com/swhitty/SwiftDraw</text>
            </a>
        </g>
    </g>
    <g id="Guides" stroke="rgb(39, 170, 225)" stroke-width="0.5">
        <path id="Capline-S" d="M18,76 l800,0" />
        <path id="H-reference" d="M85,145.755 L87.685,145.755 L113.369,79.287 L114.052,79.287 L114.052,76 L112.148,76 L85,145.755 Z M95.693,121.536 L130.996,121.536 L130.263,119.313 L96.474,119.313 L95.693,121.536 Z M139.15,145.755 L141.787,145.755 L114.638,76 L113.466,76 L113.466,79.287 L139.15,145.755 Z" stroke="none" transform="translate(0,200)" />
        <path id="Baseline-S" d="M18,146 l800,0" />
        <path id="left-margin-Ultralight-M" d="M223,256 l0,110" />
        <path id="right-margin-Ultralight-M" d="M307,256 l0,110" />
        <path id="left-margin-Regular-M" d="M423,256 l0,110" />
        <path id="right-margin-Regular-M" d="M507,256 l0,110" />
        <path id="left-margin-Black-M" d="M623,256 l0,110" />
        <path id="right-margin-Black-M" d="M707,256 l0,110" />
        <path id="Capline-M" d="M18,276 l800,0" />
        <path id="Baseline-M" d="M18,346 l800,0" />
        <path id="Capline-L" d="M18,476 l800,0" />
        <path id="Baseline-L" d="M18,546 l800,0" />
    </g>
    <g id="Symbols">
        <g id="Ultralight-M" transform="translate(0,200)">
            <path d="M230.966,144.719 L268.3,109.716 C270.122,108.007 270.122,105.237 268.3,103.528 C266.477,101.82 263.523,101.82 261.7,103.528 L224.367,138.531 C222.544,140.24 222.544,143.01 224.367,144.719 C226.189,146.427 229.144,146.427 230.966,144.719 Z" />
            <path d="M268.3,138.531 L230.966,103.528 C229.144,101.82 226.189,101.82 224.367,103.528 C222.544,105.237 222.544,108.007 224.367,109.716 L261.7,144.719 C263.523,146.427 266.477,146.427 268.3,144.719 C270.122,143.01 270.122,140.24 268.3,138.531 Z" />
            <path d="M302.333,106.622 L283.667,106.622 L288.333,110.998 C288.333,106.544 288.941,105.663 292.661,104.015 C294.465,103.216 295.108,102.924 296.092,102.445 C303.019,99.069 307,95.206 307,89.13 C307,86 305.793,82.976 303.592,80.61 C299.032,75.774 291.516,74.599 285.557,77.774 C282.633,79.334 280.408,81.794 279.277,84.73 C278.402,87.003 279.658,89.511 282.082,90.331 C284.506,91.152 287.181,89.974 288.056,87.701 C288.428,86.735 289.171,85.914 290.17,85.381 C292.288,84.252 294.963,84.67 296.578,86.384 C297.276,87.133 297.667,88.113 297.667,89.13 C297.667,90.971 295.919,92.667 291.788,94.68 C290.946,95.09 290.365,95.354 288.673,96.104 C281.722,99.183 279,103.125 279,110.998 C279,113.414 281.089,115.373 283.667,115.373 L302.333,115.373 C304.911,115.373 307,113.414 307,110.998 C307,108.581 304.911,106.622 302.333,106.622 Z" />
        </g>
        <g id="Regular-M" transform="translate(0,200)">
            <path d="M430.966,144.719 L468.3,109.716 C470.122,108.007 470.122,105.237 468.3,103.528 C466.477,101.82 463.523,101.82 461.7,103.528 L424.367,138.531 C422.544,140.24 422.544,143.01 424.367,144.719 C426.189,146.427 429.144,146.427 430.966,144.719 Z" />
            <path d="M468.3,138.531 L430.966,103.528 C429.144,101.82 426.189,101.82 424.367,103.528 C422.544,105.237 422.544,108.007 424.367,109.716 L461.7,144.719 C463.523,146.427 466.477,146.427 468.3,144.719 C470.122,143.01 470.122,140.24 468.3,138.531 Z" />
            <path d="M502.333,106.622 L483.667,106.622 L488.333,110.998 C488.333,106.544 488.941,105.663 492.661,104.015 C494.465,103.216 495.108,102.924 496.092,102.445 C503.019,99.069 507,95.206 507,89.13 C507,86 505.793,82.976 503.592,80.61 C499.032,75.774 491.516,74.599 485.557,77.774 C482.633,79.334 480.408,81.794 479.277,84.73 C478.402,87.003 479.658,89.511 482.082,90.331 C484.506,91.152 487.181,89.974 488.056,87.701 C488.428,86.735 489.171,85.914 490.17,85.381 C492.288,84.252 494.963,84.67 496.578,86.384 C497.276,87.133 497.667,88.113 497.667,89.13 C497.667,90.971 495.919,92.667 491.788,94.68 C490.946,95.09 490.365,95.354 488.673,96.104 C481.722,99.183 479,103.125 479,110.998 C479,113.414 481.089,115.373 483.667,115.373 L502.333,115.373 C504.911,115.373 507,113.414 507,110.998 C507,108.581 504.911,106.622 502.333,106.622 Z" />
        </g>
        <g id="Black-M" transform="translate(0,200)">
            <path d="M630.966,144.719 L668.3,109.716 C670.122,108.007 670.122,105.237 668.3,103.528 C666.477,101.82 663.523,101.82 661.7,103.528 L624.367,138.531 C622.544,140.24 622.544,143.01 624.367,144.719 C626.189,146.427 629.144,146.427 630.966,144.719 Z" />
            <path d="M668.3,138.531 L630.966,103.528 C629.144,101.82 626.189,101.82 624.367,103.528 C622.544,105.237 622.544,108.007 624.367,109.716 L661.7,144.719 C663.523,146.427 666.477,146.427 668.3,144.719 C670.122,143.01 670.122,140.24 668.3,138.531 Z" />
            <path d="M702.333,106.622 L683.667,106.622 L688.333,110.998 C688.333,106.544 688.941,105.663 692.661,104.015 C694.465,103.216 695.108,102.924 696.092,102.445 C703.019,99.069 707,95.206 707,89.13 C707,86 705.793,82.976 703.592,80.61 C699.032,75.774 691.516,74.599 685.557,77.774 C682.633,79.334 680.408,81.794 679.277,84.73 C678.402,87.003 679.658,89.511 682.082,90.331 C684.506,91.152 687.181,89.974 688.056,87.701 C688.428,86.735 689.171,85.914 690.17,85.381 C692.288,84.252 694.963,84.67 696.578,86.384 C697.276,87.133 697.667,88.113 697.667,89.13 C697.667,90.971 695.919,92.667 691.788,94.68 C690.946,95.09 690.365,95.354 688.673,96.104 C681.722,99.183 679,103.125 679,110.998 C679,113.414 681.089,115.373 683.667,115.373 L702.333,115.373 C704.911,115.373 707,113.414 707,110.998 C707,108.581 704.911,106.622 702.333,106.622 Z" />
        </g>
    </g>
</svg>