<?xml version="1.0" encoding="UTF-8"?>
<svg height="600" width="800" xmlns="http://www.w3.org/2000/svg" xmlns:xlink="http://www.w3.org/1999/xlink">
    <g id="Notes" font-family="LucidaGrande, 'Lucida Grande', sans-serif" font-size="13">
        <rect fill="white" height="600.0" width="800.0" x="0.0" y="0.0" />
        <g font-size="13">
            <text x="18.0" y="176.0">Small</text>
            <text x="18.0" y="376.0">Medium</text>
            <text x="18.0" y="576.0">Large</text>
        </g>
        <g font-size="9">
            <text x="250.0" y="30.0">Ultralight</text>
            <text x="450.0" y="30.0">Regular</text>
            <text x="650.0" y="30.0">Black</text>
            <text id="template-version" fill="#505050" text-anchor="end" x="785.0" y="575.0">Template v.3.0</text>
            <a href="https://github.com/swhitty/SwiftDraw">
                <text fill="#505050" text-anchor="end" x="785.0" y="590.0">https://github.com/swhitty/SwiftDraw</text>
            </a>
        </g>
    </g>
    <g id="Guides" stroke="rgb(39, 170, 225)" stroke-width="0.5">
        <path id="Capline-S" d="M18,76 l800,0" />
        <path id="H-reference" d="M85,145.755 L87.685,145.755 L113.369,79.287 L114.052,79.287 L114.052,76 L112.148,76 L85,145.755 Z M95.693,121.536 L130.996,121.536 L130.263,119.313 L96.474,119.313 L95.693,121.536 Z M139.15,145.755 L141.787,145.755 L114.638,76 L113.466,76 L113.466,79.287 L139.15,145.755 Z" stroke="none" transform="translate(0,200)" />
        <path id="Baseline-S" d="M18,146 l800,0" />
        <path id="left-margin-Ultralight-M" d="M240.5,256 l0,110" />
        <path id="right-margin-Ultralight-M" d="M289.5,256 l0,110" />
        <path id="left-margin-Regular-M" d="M440.5,256 l0,110" />
        <path id="right-margin-Regular-M" d="M489.5,256 l0,110" />
        <path id="left-margin-Black-M" d="M640.5,256 l0,110" />
        <path id="right-margin-Black-M" d="M689.5,256 l0,110" />
        <path id="Capline-M" d="M18,276 l800,0" />
        <path id="Baseline-M" d="M18,346 l800,0" />
        <path id="Capline-L" d="M18,476 l800,0" />
        <path id="Baseline-L" d="M18,546 l800,0" />
    </g>
    <g id="Symbols">
        <g id="Ultralight-M" transform="translate(0,200)">
            <path d="M261.5,142.5 L261.5,79.5 L258,83 L286,83 C287.933,83 289.5,81.433 289.5,79.5 C289.5,77.567 287.933,76 286,76 L258,76 C256.067,76 254.5,77.567 254.5,79.5 L254.5,142.5 C254.5,144.433 256.067,146 258,146 C259.933,146 261.5,144.433 261.5,142.5 Z" />
            <path d="M244,128.5 L275.5,128.5 C277.433,128.5 279,126.933 279,125 C279,123.067 277.433,121.5 275.5,121.5 L244,121.5 C242.067,121.5 240.5,123.067 240.5,125 C240.5,126.933 242.067,128.5 244,128.5 Z" />
            <path d="M258,105.75 L282.5,105.75 C284.433,105.75 286,104.183 286,102.25 C286,100.317 284.433,98.75 282.5,98.75 L258,98.75 C256.067,98.75 254.5,100.317 254.5,102.25 C254.5,104.183 256.067,105.75 258,105.75 Z" />
        </g>
        <g id="Regular-M" transform="translate(0,200)">
            <path d="M461.5,142.5 L461.5,79.5 L458,83 L486,83 C487.933,83 489.5,81.433 489.5,79.5 C489.5,77.567 487.933,76 486,76 L458,76 C456.067,76 454.5,77.567 454.5,79.5 L454.5,142.5 C454.5,144.433 456.067,146 458,146 C459.933,146 461.5,144.433 461.5,142.5 Z" />
            <path d="M444,128.5 L475.5,128.5 C477.433,128.5 479,126.933 479,125 C479,123.067 477.433,121.5 475.5,121.5 L444,121.5 C442.067,121.5 440.5,123.067 440.5,125 C440.5,126.933 442.067,128.5 444,128.5 Z" />
            <path d="M458,105.75 L482.5,105.75 C484.433,105.75 486,104.183 486,102.25 C486,100.317 484.433,98.75 482.5,98.75 L458,98.75 C456.067,98.75 454.5,100.317 454.5,102.25 C454.5,104.183 456.067,105.75 458,105.75 Z" />
        </g>
        <g id="Black-M" transform="translate(0,200)">
            <path d="M661.5,142.5 L661.5,79.5 L658,83 L686,83 C687.933,83 689.5,81.433 689.5,79.5 C689.5,77.567 687.933,76 686,76 L658,76 C656.067,76 654.5,77.567 654.5,79.5 L654.5,142.5 C654.5,144.433 656.067,146 658,146 C659.933,146 661.5,144.433 661.5,142.5 Z" />
            <path d="M644,128.5 L675.5,128.5 C677.433,128.5 679,126.933 679,125 C679,123.067 677.433,121.5 675.5,121.5 L644,121.5 C642.067,121.5 640.5,123.067 640.5,125 C640.5,126.933 642.067,128.5 644,128.5 Z" />
            <path d="M658,105.75 L682.5,105.75 C684.433,105.75 686,104.183 686,102.25 C686,100.317 684.433,98.75 682.5,98.75 L658,98.75 C656.067,98.75 654.5,100.317 654.5,102.25 C654.5,104.183 656.067,105.75 658,105.75 Z" />
        </g>
    </g>
</svg>