<?xml version="1.0" encoding="UTF-8"?>
<svg height="600" width="800" xmlns="http://www.w3.org/2000/svg" xmlns:xlink="http://www.w3.org/1999/xlink">
    <g id="Notes" font-family="LucidaGrande, 'Lucida Grande', sans-serif" font-size="13">
        <rect fill="white" height="600.0" width="800.0" x="0.0" y="0.0" />
        <g font-size="13">
            <text x="18.0" y="176.0">Small</text>
            <text x="18.0" y="376.0">Medium</text>
            <text x="18.0" y="576.0">Large</text>
        </g>
        <g font-size="9">
            <text x="250.0" y="30.0">Ultralight</text>
            <text x="450.0" y="30.0">Regular</text>
            <text x="650.0" y="30.0">Black</text>
            <text id="template-version" fill="#505050" text-anchor="end" x="785.0" y="575.0">Template v.3.0</text>
            <a href="https://github.com/swhitty/SwiftDraw">
                <text fill="#505050" text-anchor="end" x="785.0" y="590.0">https://github.com/swhitty/SwiftDraw</text>
            </a>
        </g>
    </g>
    <g id="Guides" stroke="rgb(39, 170, 225)" stroke-width="0.5">
        <path id="Capline-S" d="M18,76 l800,0" />
        <path id="H-reference" d="M85,145.755 L87.685,145.755 L113.369,79.287 L114.052,79.287 L114.052,76 L112.148,76 L85,145.755 Z M95.693,121.536 L130.996,121.536 L130.263,119.313 L96.474,119.313 L95.693,121.536 Z M139.15,145.755 L141.787,145.755 L114.638,76 L113.466,76 L113.466,79.287 L139.15,145.755 Z" stroke="none" transform="translate(0,200)" />
        <path id="Baseline-S" d="M18,146 l800,0" />
        <path id="left-margin-Ultralight-M" d="M230,256 l0,110" />
        <path id="right-margin-Ultralight-M" d="M300,256 l0,110" />
        <path id="left-margin-Regular-M" d="M430,256 l0,110" />
        <path id="right-margin-Regular-M" d="M500,256 l0,110" />
        <path id="left-margin-Black-M" d="M630,256 l0,110" />
        <path id="right-margin-Black-M" d="M700,256 l0,110" />
        <path id="Capline-M" d="M18,276 l800,0" />
        <path id="Baseline-M" d="M18,346 l800,0" />
        <path id="Capline-L" d="M18,476 l800,0" />
        <path id="Baseline-L" d="M18,546 l800,0" />
    </g>
    <g id="Symbols">
        <g id="Ultralight-M" transform="translate(0,200)">
            <path d="M236.364,95.091 C236.364,88.062 242.062,82.364 249.091,82.364 C256.12,82.364 261.818,88.062 261.818,95.091 C261.818,102.12 256.12,107.818 249.091,107.818 C242.062,107.818 236.364,102.12 236.364,95.091 Z M230,95.091 C230,105.635 238.547,114.182 249.091,114.182 C259.635,114.182 268.182,105.635 268.182,95.091 C268.182,84.547 259.635,76 249.091,76 C238.547,76 230,84.547 230,95.091 Z" />
            <path d="M268.182,126.909 C268.182,119.88 273.88,114.182 280.909,114.182 C287.938,114.182 293.636,119.88 293.636,126.909 C293.636,133.938 287.938,139.636 280.909,139.636 C273.88,139.636 268.182,133.938 268.182,126.909 Z M261.818,126.909 C261.818,137.453 270.365,146 280.909,146 C291.453,146 300,137.453 300,126.909 C300,116.365 291.453,107.818 280.909,107.818 C270.365,107.818 261.818,116.365 261.818,126.909 Z" />
            <path d="M265,130.091 L296.818,130.091 C298.575,130.091 300,128.666 300,126.909 C300,125.152 298.575,123.727 296.818,123.727 L265,123.727 C263.243,123.727 261.818,125.152 261.818,126.909 C261.818,128.666 263.243,130.091 265,130.091 Z" />
            <path d="M240.077,108.604 L262.604,86.077 C263.847,84.835 263.847,82.82 262.604,81.577 C261.362,80.335 259.347,80.335 258.105,81.577 L235.577,104.105 C234.335,105.347 234.335,107.362 235.577,108.604 C236.82,109.847 238.835,109.847 240.077,108.604 Z" />
        </g>
        <g id="Regular-M" transform="translate(0,200)">
            <path d="M436.364,95.091 C436.364,88.062 442.062,82.364 449.091,82.364 C456.12,82.364 461.818,88.062 461.818,95.091 C461.818,102.12 456.12,107.818 449.091,107.818 C442.062,107.818 436.364,102.12 436.364,95.091 Z M430,95.091 C430,105.635 438.547,114.182 449.091,114.182 C459.635,114.182 468.182,105.635 468.182,95.091 C468.182,84.547 459.635,76 449.091,76 C438.547,76 430,84.547 430,95.091 Z" />
            <path d="M468.182,126.909 C468.182,119.88 473.88,114.182 480.909,114.182 C487.938,114.182 493.636,119.88 493.636,126.909 C493.636,133.938 487.938,139.636 480.909,139.636 C473.88,139.636 468.182,133.938 468.182,126.909 Z M461.818,126.909 C461.818,137.453 470.365,146 480.909,146 C491.453,146 500,137.453 500,126.909 C500,116.365 491.453,107.818 480.909,107.818 C470.365,107.818 461.818,116.365 461.818,126.909 Z" />
            <path d="M465,130.091 L496.818,130.091 C498.575,130.091 500,128.666 500,126.909 C500,125.152 498.575,123.727 496.818,123.727 L465,123.727 C463.243,123.727 461.818,125.152 461.818,126.909 C461.818,128.666 463.243,130.091 465,130.091 Z" />
            <path d="M440.077,108.604 L462.604,86.077 C463.847,84.835 463.847,82.82 462.604,81.577 C461.362,80.335 459.347,80.335 458.105,81.577 L435.577,104.105 C434.335,105.347 434.335,107.362 435.577,108.604 C436.82,109.847 438.835,109.847 440.077,108.604 Z" />
        </g>
        <g id="Black-M" transform="translate(0,200)">
            <path d="M636.364,95.091 C636.364,88.062 642.062,82.364 649.091,82.364 C656.12,82.364 661.818,88.062 661.818,95.091 C661.818,102.12 656.12,107.818 649.091,107.818 C642.062,107.818 636.364,102.12 636.364,95.091 Z M630,95.091 C630,105.635 638.547,114.182 649.091,114.182 C659.635,114.182 668.182,105.635 668.182,95.091 C668.182,84.547 659.635,76 649.091,76 C638.547,76 630,84.547 630,95.091 Z" />
            <path d="M668.182,126.909 C668.182,119.88 673.88,114.182 680.909,114.182 C687.938,114.182 693.636,119.88 693.636,126.909 C693.636,133.938 687.938,139.636 680.909,139.636 C673.88,139.636 668.182,133.938 668.182,126.909 Z M661.818,126.909 C661.818,137.453 670.365,146 680.909,146 C691.453,146 700,137.453 700,126.909 C700,116.365 691.453,107.818 680.909,107.818 C670.365,107.818 661.818,116.365 661.818,126.909 Z" />
            <path d="M665,130.091 L696.818,130.091 C698.575,130.091 700,128.666 700,126.909 C700,125.152 698.575,123.727 696.818,123.727 L665,123.727 C663.243,123.727 661.818,125.152 661.818,126.909 C661.818,128.666 663.243,130.091 665,130.091 Z" />
            <path d="M640.077,108.604 L662.604,86.077 C663.847,84.835 663.847,82.82 662.604,81.577 C661.362,80.335 659.347,80.335 658.105,81.577 L635.577,104.105 C634.335,105.347 634.335,107.362 635.577,108.604 C636.82,109.847 638.835,109.847 640.077,108.604 Z" />
        </g>
    </g>
</svg>