<?xml version="1.0" encoding="UTF-8"?>
<svg height="600" width="800" xmlns="http://www.w3.org/2000/svg" xmlns:xlink="http://www.w3.org/1999/xlink">
    <g id="Notes" font-family="LucidaGrande, 'Lucida Grande', sans-serif" font-size="13">
        <rect fill="white" height="600.0" width="800.0" x="0.0" y="0.0" />
        <g font-size="13">
            <text x="18.0" y="176.0">Small</text>
            <text x="18.0" y="376.0">Medium</text>
            <text x="18.0" y="576.0">Large</text>
        </g>
        <g font-size="9">
            <text x="250.0" y="30.0">Ultralight</text>
            <text x="450.0" y="30.0">Regular</text>
            <text x="650.0" y="30.0">Black</text>
            <text id="template-version" fill="#505050" text-anchor="end" x="785.0" y="575.0">Template v.3.0</text>
            <a href="https://github.com/swhitty/SwiftDraw">
                <text fill="#505050" text-anchor="end" x="785.0" y="590.0">https://github.com/swhitty/SwiftDraw</text>
            </a>
        </g>
    </g>
    <g id="Guides" stroke="rgb(39, 170, 225)" stroke-width="0.5">
        <path id="Capline-S" d="M18,76 l800,0" />
        <path id="H-reference" d="M85,145.755 L87.685,145.755 L113.369,79.287 L114.052,79.287 L114.052,76 L112.148,76 L85,145.755 Z M95.693,121.536 L130.996,121.536 L130.263,119.313 L96.474,119.313 L95.693,121.536 Z M139.15,145.755 L141.787,145.755 L114.638,76 L113.466,76 L113.466,79.287 L139.15,145.755 Z" stroke="none" transform="translate(0,200)" />
        <path id="Baseline-S" d="M18,146 l800,0" />
        <path id="left-margin-Ultralight-M" d="M230,256 l0,110" />
        <path id="right-margin-Ultralight-M" d="M300,256 l0,110" />
        <path id="left-margin-Regular-M" d="M430,256 l0,110" />
        <path id="right-margin-Regular-M" d="M500,256 l0,110" />
        <path id="left-margin-Black-M" d="M630,256 l0,110" />
        <path id="right-margin-Black-M" d="M700,256 l0,110" />
        <path id="Capline-M" d="M18,276 l800,0" />
        <path id="Baseline-M" d="M18,346 l800,0" />
        <path id="Capline-L" d="M18,476 l800,0" />
        <path id="Baseline-L" d="M18,546 l800,0" />
    </g>
    <g id="Symbols">
        <g id="Ultralight-M" transform="translate(0,200)">
            <path d="M269.123,78.797 C267.333,77.007 264.905,76.001 262.373,76 L239.548,76 C237.015,76 234.587,77.006 232.796,78.796 C231.006,80.587 230,83.015 230,85.548 L230,108.373 C230,110.903 231.006,113.332 232.796,115.122 L260.497,142.823 C264.756,147.055 271.622,147.055 275.875,142.83 L296.823,121.882 C301.055,117.622 301.055,110.756 296.83,106.504 L269.123,78.797 Z M264.622,83.298 L292.322,110.998 C294.074,112.76 294.074,115.618 292.315,117.388 L271.381,138.322 C269.618,140.074 266.76,140.074 264.99,138.315 L237.297,110.621 C236.7,110.025 236.365,109.215 236.365,108.373 L236.365,85.548 C236.365,84.704 236.7,83.894 237.297,83.297 C237.894,82.7 238.704,82.365 239.548,82.365 L262.373,82.365 C263.216,82.365 264.025,82.701 264.622,83.298 Z" />
            <path d="M252.278,96.686 C252.278,97.565 251.565,98.278 250.686,98.278 C249.808,98.278 249.095,97.565 249.095,96.686 C249.095,95.808 249.808,95.095 250.686,95.095 C251.565,95.095 252.278,95.808 252.278,96.686 Z M245.913,96.686 C245.913,99.323 248.05,101.46 250.686,101.46 C253.323,101.46 255.46,99.323 255.46,96.686 C255.46,94.05 253.323,91.913 250.686,91.913 C248.05,91.913 245.913,94.05 245.913,96.686 Z" />
        </g>
        <g id="Regular-M" transform="translate(0,200)">
            <path d="M469.123,78.797 C467.333,77.007 464.905,76.001 462.373,76 L439.548,76 C437.015,76 434.587,77.006 432.796,78.796 C431.006,80.587 430,83.015 430,85.548 L430,108.373 C430,110.903 431.006,113.332 432.796,115.122 L460.497,142.823 C464.756,147.055 471.622,147.055 475.875,142.83 L496.823,121.882 C501.055,117.622 501.055,110.756 496.83,106.504 L469.123,78.797 Z M464.622,83.298 L492.322,110.998 C494.074,112.76 494.074,115.618 492.315,117.388 L471.381,138.322 C469.618,140.074 466.76,140.074 464.99,138.315 L437.297,110.621 C436.7,110.025 436.365,109.215 436.365,108.373 L436.365,85.548 C436.365,84.704 436.7,83.894 437.297,83.297 C437.894,82.7 438.704,82.365 439.548,82.365 L462.373,82.365 C463.216,82.365 464.025,82.701 464.622,83.298 Z" />
            <path d="M452.278,96.686 C452.278,97.565 451.565,98.278 450.686,98.278 C449.808,98.278 449.095,97.565 449.095,96.686 C449.095,95.808 449.808,95.095 450.686,95.095 C451.565,95.095 452.278,95.808 452.278,96.686 Z M445.913,96.686 C445.913,99.323 448.05,101.46 450.686,101.46 C453.323,101.46 455.46,99.323 455.46,96.686 C455.46,94.05 453.323,91.913 450.686,91.913 C448.05,91.913 445.913,94.05 445.913,96.686 Z" />
        </g>
        <g id="Black-M" transform="translate(0,200)">
            <path d="M669.123,78.797 C667.333,77.007 664.905,76.001 662.373,76 L639.548,76 C637.015,76 634.587,77.006 632.796,78.796 C631.006,80.587 630,83.015 630,85.548 L630,108.373 C630,110.903 631.006,113.332 632.796,115.122 L660.497,142.823 C664.756,147.055 671.622,147.055 675.875,142.83 L696.823,121.882 C701.055,117.622 701.055,110.756 696.83,106.504 L669.123,78.797 Z M664.622,83.298 L692.322,110.998 C694.074,112.76 694.074,115.618 692.315,117.388 L671.381,138.322 C669.618,140.074 666.76,140.074 664.99,138.315 L637.297,110.621 C636.7,110.025 636.365,109.215 636.365,108.373 L636.365,85.548 C636.365,84.704 636.7,83.894 637.297,83.297 C637.894,82.7 638.703,82.365 639.548,82.365 L662.373,82.365 C663.216,82.365 664.025,82.701 664.622,83.298 Z" />
            <path d="M652.278,96.686 C652.278,97.565 651.565,98.278 650.686,98.278 C649.808,98.278 649.095,97.565 649.095,96.686 C649.095,95.808 649.808,95.095 650.686,95.095 C651.565,95.095 652.278,95.808 652.278,96.686 Z M645.913,96.686 C645.913,99.323 648.05,101.46 650.686,101.46 C653.323,101.46 655.46,99.323 655.46,96.686 C655.46,94.05 653.323,91.913 650.686,91.913 C648.05,91.913 645.913,94.05 645.913,96.686 Z" />
        </g>
    </g>
</svg>