<?xml version="1.0" encoding="UTF-8"?>
<svg height="600" width="800" xmlns="http://www.w3.org/2000/svg" xmlns:xlink="http://www.w3.org/1999/xlink">
    <g id="Notes" font-family="LucidaGrande, 'Lucida Grande', sans-serif" font-size="13">
        <rect fill="white" height="600.0" width="800.0" x="0.0" y="0.0" />
        <g font-size="13">
            <text x="18.0" y="176.0">Small</text>
            <text x="18.0" y="376.0">Medium</text>
            <text x="18.0" y="576.0">Large</text>
        </g>
        <g font-size="9">
            <text x="250.0" y="30.0">Ultralight</text>
            <text x="450.0" y="30.0">Regular</text>
            <text x="650.0" y="30.0">Black</text>
            <text id="template-version" fill="#505050" text-anchor="end" x="785.0" y="575.0">Template v.3.0</text>
            <a href="https://github.com/swhitty/SwiftDraw">
                <text fill="#505050" text-anchor="end" x="785.0" y="590.0">https://github.com/swhitty/SwiftDraw</text>
            </a>
        </g>
    </g>
    <g id="Guides" stroke="rgb(39, 170, 225)" stroke-width="0.5">
        <path id="Capline-S" d="M18,76 l800,0" />
        <path id="H-reference" d="M85,145.755 L87.685,145.755 L113.369,79.287 L114.052,79.287 L114.052,76 L112.148,76 L85,145.755 Z M95.693,121.536 L130.996,121.536 L130.263,119.313 L96.474,119.313 L95.693,121.536 Z M139.15,145.755 L141.787,145.755 L114.638,76 L113.466,76 L113.466,79.287 L139.15,145.755 Z" stroke="none" transform="translate(0,200)" />
        <path id="Baseline-S" d="M18,146 l800,0" />
        <path id="left-margin-Ultralight-M" d="M222.222,256 l0,110" />
        <path id="right-margin-Ultralight-M" d="M307.778,256 l0,110" />
        <path id="left-margin-Regular-M" d="M422.222,256 l0,110" />
        <path id="right-margin-Regular-M" d="M507.778,256 l0,110" />
        <path id="left-margin-Black-M" d="M622.222,256 l0,110" />
        <path id="right-margin-Black-M" d="M707.778,256 l0,110" />
        <path id="Capline-M" d="M18,276 l800,0" />
        <path id="Baseline-M" d="M18,346 l800,0" />
        <path id="Capline-L" d="M18,476 l800,0" />
        <path id="Baseline-L" d="M18,546 l800,0" />
    </g>
    <g id="Symbols">
        <g id="Ultralight-M" transform="translate(0,200)">
            <path d="M230,79.889 L230,142.111 C230,144.259 231.741,146 233.889,146 C236.037,146 237.778,144.259 237.778,142.111 L237.778,79.889 C237.778,77.741 236.037,76 233.889,76 C231.741,76 230,77.741 230,79.889 Z" />
            <path d="M249.444,79.889 L249.444,142.111 C249.444,144.259 251.186,146 253.333,146 C255.481,146 257.222,144.259 257.222,142.111 L257.222,79.889 C257.222,77.741 255.481,76 253.333,76 C251.186,76 249.444,77.741 249.444,79.889 Z" />
            <path d="M268.889,79.889 L268.889,142.111 C268.889,144.259 270.63,146 272.778,146 C274.926,146 276.667,144.259 276.667,142.111 L276.667,79.889 C276.667,77.741 274.926,76 272.778,76 C270.63,76 268.889,77.741 268.889,79.889 Z" />
            <path d="M288.333,79.889 L288.333,142.111 C288.333,144.259 290.074,146 292.222,146 C294.37,146 296.111,144.259 296.111,142.111 L296.111,79.889 C296.111,77.741 294.37,76 292.222,76 C290.074,76 288.333,77.741 288.333,79.889 Z" />
            <path d="M301.888,84.332 L224.11,130.999 C222.269,132.104 221.671,134.492 222.776,136.334 C223.881,138.176 226.27,138.773 228.112,137.668 L305.89,91.001 C307.731,89.896 308.329,87.508 307.224,85.666 C306.119,83.824 303.73,83.227 301.888,84.332 Z" />
        </g>
        <g id="Regular-M" transform="translate(0,200)">
            <path d="M430,79.889 L430,142.111 C430,144.259 431.741,146 433.889,146 C436.037,146 437.778,144.259 437.778,142.111 L437.778,79.889 C437.778,77.741 436.037,76 433.889,76 C431.741,76 430,77.741 430,79.889 Z" />
            <path d="M449.444,79.889 L449.444,142.111 C449.444,144.259 451.186,146 453.333,146 C455.481,146 457.222,144.259 457.222,142.111 L457.222,79.889 C457.222,77.741 455.481,76 453.333,76 C451.186,76 449.444,77.741 449.444,79.889 Z" />
            <path d="M468.889,79.889 L468.889,142.111 C468.889,144.259 470.63,146 472.778,146 C474.926,146 476.667,144.259 476.667,142.111 L476.667,79.889 C476.667,77.741 474.926,76 472.778,76 C470.63,76 468.889,77.741 468.889,79.889 Z" />
            <path d="M488.333,79.889 L488.333,142.111 C488.333,144.259 490.074,146 492.222,146 C494.37,146 496.111,144.259 496.111,142.111 L496.111,79.889 C496.111,77.741 494.37,76 492.222,76 C490.074,76 488.333,77.741 488.333,79.889 Z" />
            <path d="M501.888,84.332 L424.11,130.999 C422.269,132.104 421.671,134.492 422.776,136.334 C423.881,138.176 426.27,138.773 428.112,137.668 L505.89,91.001 C507.731,89.896 508.329,87.508 507.224,85.666 C506.119,83.824 503.73,83.227 501.888,84.332 Z" />
        </g>
        <g id="Black-M" transform="translate(0,200)">
            <path d="M630,79.889 L630,142.111 C630,144.259 631.741,146 633.889,146 C636.037,146 637.778,144.259 637.778,142.111 L637.778,79.889 C637.778,77.741 636.037,76 633.889,76 C631.741,76 630,77.741 630,79.889 Z" />
            <path d="M649.444,79.889 L649.444,142.111 C649.444,144.259 651.186,146 653.333,146 C655.481,146 657.222,144.259 657.222,142.111 L657.222,79.889 C657.222,77.741 655.481,76 653.333,76 C651.186,76 649.444,77.741 649.444,79.889 Z" />
            <path d="M668.889,79.889 L668.889,142.111 C668.889,144.259 670.63,146 672.778,146 C674.926,146 676.667,144.259 676.667,142.111 L676.667,79.889 C676.667,77.741 674.926,76 672.778,76 C670.63,76 668.889,77.741 668.889,79.889 Z" />
            <path d="M688.333,79.889 L688.333,142.111 C688.333,144.259 690.074,146 692.222,146 C694.37,146 696.111,144.259 696.111,142.111 L696.111,79.889 C696.111,77.741 694.37,76 692.222,76 C690.074,76 688.333,77.741 688.333,79.889 Z" />
            <path d="M701.888,84.332 L624.11,130.999 C622.269,132.104 621.671,134.492 622.776,136.334 C623.881,138.176 626.27,138.773 628.112,137.668 L705.89,91.001 C707.731,89.896 708.329,87.508 707.224,85.666 C706.119,83.824 703.73,83.227 701.888,84.332 Z" />
        </g>
    </g>
</svg>