<?xml version="1.0" encoding="UTF-8"?>
<svg height="600" width="800" xmlns="http://www.w3.org/2000/svg" xmlns:xlink="http://www.w3.org/1999/xlink">
    <g id="Notes" font-family="LucidaGrande, 'Lucida Grande', sans-serif" font-size="13">
        <rect fill="white" height="600.0" width="800.0" x="0.0" y="0.0" />
        <g font-size="13">
            <text x="18.0" y="176.0">Small</text>
            <text x="18.0" y="376.0">Medium</text>
            <text x="18.0" y="576.0">Large</text>
        </g>
        <g font-size="9">
            <text x="250.0" y="30.0">Ultralight</text>
            <text x="450.0" y="30.0">Regular</text>
            <text x="650.0" y="30.0">Black</text>
            <text id="template-version" fill="#505050" text-anchor="end" x="785.0" y="575.0">Template v.3.0</text>
            <a href="https://github.com/swhitty/SwiftDraw">
                <text fill="#505050" text-anchor="end" x="785.0" y="590.0">https://github.com/swhitty/SwiftDraw</text>
            </a>
        </g>
    </g>
    <g id="Guides" stroke="rgb(39, 170, 225)" stroke-width="0.5">
        <path id="Capline-S" d="M18,76 l800,0" />
        <path id="H-reference" d="M85,145.755 L87.685,145.755 L113.369,79.287 L114.052,79.287 L114.052,76 L112.148,76 L85,145.755 Z M95.693,121.536 L130.996,121.536 L130.263,119.313 L96.474,119.313 L95.693,121.536 Z M139.15,145.755 L141.787,145.755 L114.638,76 L113.466,76 L113.466,79.287 L139.15,145.755 Z" stroke="none" transform="translate(0,200)" />
        <path id="Baseline-S" d="M18,146 l800,0" />
        <path id="left-margin-Ultralight-M" d="M221.25,256 l0,110" />
        <path id="right-margin-Ultralight-M" d="M308.75,256 l0,110" />
        <path id="left-margin-Regular-M" d="M421.25,256 l0,110" />
        <path id="right-margin-Regular-M" d="M508.75,256 l0,110" />
        <path id="left-margin-Black-M" d="M621.25,256 l0,110" />
        <path id="right-margin-Black-M" d="M708.75,256 l0,110" />
        <path id="Capline-M" d="M18,276 l800,0" />
        <path id="Baseline-M" d="M18,346 l800,0" />
        <path id="Capline-L" d="M18,476 l800,0" />
        <path id="Baseline-L" d="M18,546 l800,0" />
    </g>
    <g id="Symbols">
        <g id="Ultralight-M" transform="translate(0,200)">
            <path d="M304.375,76 L225.625,76 C223.209,76 221.25,77.959 221.25,80.375 C221.25,82.791 223.209,84.75 225.625,84.75 L304.375,84.75 C306.791,84.75 308.75,82.791 308.75,80.375 C308.75,77.959 306.791,76 304.375,76 Z" />
            <path d="M286.875,106.625 L243.125,106.625 C240.709,106.625 238.75,108.584 238.75,111 C238.75,113.416 240.709,115.375 243.125,115.375 L286.875,115.375 C289.291,115.375 291.25,113.416 291.25,111 C291.25,108.584 289.291,106.625 286.875,106.625 Z" />
            <path d="M295.625,137.25 L234.375,137.25 C231.959,137.25 230,139.209 230,141.625 C230,144.041 231.959,146 234.375,146 L295.625,146 C298.041,146 300,144.041 300,141.625 C300,139.209 298.041,137.25 295.625,137.25 Z" />
        </g>
        <g id="Regular-M" transform="translate(0,200)">
            <path d="M504.375,76 L425.625,76 C423.209,76 421.25,77.959 421.25,80.375 C421.25,82.791 423.209,84.75 425.625,84.75 L504.375,84.75 C506.791,84.75 508.75,82.791 508.75,80.375 C508.75,77.959 506.791,76 504.375,76 Z" />
            <path d="M486.875,106.625 L443.125,106.625 C440.709,106.625 438.75,108.584 438.75,111 C438.75,113.416 440.709,115.375 443.125,115.375 L486.875,115.375 C489.291,115.375 491.25,113.416 491.25,111 C491.25,108.584 489.291,106.625 486.875,106.625 Z" />
            <path d="M495.625,137.25 L434.375,137.25 C431.959,137.25 430,139.209 430,141.625 C430,144.041 431.959,146 434.375,146 L495.625,146 C498.041,146 500,144.041 500,141.625 C500,139.209 498.041,137.25 495.625,137.25 Z" />
        </g>
        <g id="Black-M" transform="translate(0,200)">
            <path d="M704.375,76 L625.625,76 C623.209,76 621.25,77.959 621.25,80.375 C621.25,82.791 623.209,84.75 625.625,84.75 L704.375,84.75 C706.791,84.75 708.75,82.791 708.75,80.375 C708.75,77.959 706.791,76 704.375,76 Z" />
            <path d="M686.875,106.625 L643.125,106.625 C640.709,106.625 638.75,108.584 638.75,111 C638.75,113.416 640.709,115.375 643.125,115.375 L686.875,115.375 C689.291,115.375 691.25,113.416 691.25,111 C691.25,108.584 689.291,106.625 686.875,106.625 Z" />
            <path d="M695.625,137.25 L634.375,137.25 C631.959,137.25 630,139.209 630,141.625 C630,144.041 631.959,146 634.375,146 L695.625,146 C698.041,146 700,144.041 700,141.625 C700,139.209 698.041,137.25 695.625,137.25 Z" />
        </g>
    </g>
</svg>