<?xml version="1.0" encoding="UTF-8"?>
<svg height="600" width="800" xmlns="http://www.w3.org/2000/svg" xmlns:xlink="http://www.w3.org/1999/xlink">
    <g id="Notes" font-family="LucidaGrande, 'Lucida Grande', sans-serif" font-size="13">
        <rect fill="white" height="600.0" width="800.0" x="0.0" y="0.0" />
        <g font-size="13">
            <text x="18.0" y="176.0">Small</text>
            <text x="18.0" y="376.0">Medium</text>
            <text x="18.0" y="576.0">Large</text>
        </g>
        <g font-size="9">
            <text x="250.0" y="30.0">Ultralight</text>
            <text x="450.0" y="30.0">Regular</text>
            <text x="650.0" y="30.0">Black</text>
            <text id="template-version" fill="#505050" text-anchor="end" x="785.0" y="575.0">Template v.3.0</text>
            <a href="https://github.com/swhitty/SwiftDraw">
                <text fill="#505050" text-anchor="end" x="785.0" y="590.0">https://github.com/swhitty/SwiftDraw</text>
            </a>
        </g>
    </g>
    <g id="Guides" stroke="rgb(39, 170, 225)" stroke-width="0.5">
        <path id="Capline-S" d="M18,76 l800,0" />
        <path id="H-reference" d="M85,145.755 L87.685,145.755 L113.369,79.287 L114.052,79.287 L114.052,76 L112.148,76 L85,145.755 Z M95.693,121.536 L130.996,121.536 L130.263,119.313 L96.474,119.313 L95.693,121.536 Z M139.15,145.755 L141.787,145.755 L114.638,76 L113.466,76 L113.466,79.287 L139.15,145.755 Z" stroke="none" transform="translate(0,200)" />
        <path id="Baseline-S" d="M18,146 l800,0" />
        <path id="left-margin-Ultralight-M" d="M221.25,256 l0,110" />
        <path id="right-margin-Ultralight-M" d="M308.75,256 l0,110" />
        <path id="left-margin-Regular-M" d="M421.25,256 l0,110" />
        <path id="right-margin-Regular-M" d="M508.75,256 l0,110" />
        <path id="left-margin-Black-M" d="M621.25,256 l0,110" />
        <path id="right-margin-Black-M" d="M708.75,256 l0,110" />
        <path id="Capline-M" d="M18,276 l800,0" />
        <path id="Baseline-M" d="M18,346 l800,0" />
        <path id="Capline-L" d="M18,476 l800,0" />
        <path id="Baseline-L" d="M18,546 l800,0" />
    </g>
    <g id="Symbols">
        <g id="Ultralight-M" transform="translate(0,200)">
            <path d="M304.375,76 L225.625,76 C223.209,76 221.25,77.959 221.25,80.375 C221.25,82.791 223.209,84.75 225.625,84.75 L304.375,84.75 C306.791,84.75 308.75,82.791 308.75,80.375 C308.75,77.959 306.791,76 304.375,76 Z" />
            <path d="M256.25,106.625 L225.625,106.625 C223.209,106.625 221.25,108.584 221.25,111 C221.25,113.416 223.209,115.375 225.625,115.375 L256.25,115.375 C258.666,115.375 260.625,113.416 260.625,111 C260.625,108.584 258.666,106.625 256.25,106.625 Z" />
            <path d="M256.25,137.25 L225.625,137.25 C223.209,137.25 221.25,139.209 221.25,141.625 C221.25,144.041 223.209,146 225.625,146 L256.25,146 C258.666,146 260.625,144.041 260.625,141.625 C260.625,139.209 258.666,137.25 256.25,137.25 Z" />
            <path d="M278.125,124.125 C278.125,119.293 282.043,115.375 286.875,115.375 C291.707,115.375 295.625,119.293 295.625,124.125 C295.625,128.957 291.707,132.875 286.875,132.875 C282.043,132.875 278.125,128.957 278.125,124.125 Z M269.375,124.125 C269.375,133.79 277.21,141.625 286.875,141.625 C296.54,141.625 304.375,133.79 304.375,124.125 C304.375,114.46 296.54,106.625 286.875,106.625 C277.21,106.625 269.375,114.46 269.375,124.125 Z" />
            <path d="M307.469,138.531 L299.156,130.219 C297.448,128.51 294.677,128.51 292.969,130.219 C291.26,131.927 291.26,134.698 292.969,136.406 L301.281,144.719 C302.99,146.427 305.76,146.427 307.469,144.719 C309.177,143.01 309.177,140.24 307.469,138.531 Z" />
        </g>
        <g id="Regular-M" transform="translate(0,200)">
            <path d="M504.375,76 L425.625,76 C423.209,76 421.25,77.959 421.25,80.375 C421.25,82.791 423.209,84.75 425.625,84.75 L504.375,84.75 C506.791,84.75 508.75,82.791 508.75,80.375 C508.75,77.959 506.791,76 504.375,76 Z" />
            <path d="M456.25,106.625 L425.625,106.625 C423.209,106.625 421.25,108.584 421.25,111 C421.25,113.416 423.209,115.375 425.625,115.375 L456.25,115.375 C458.666,115.375 460.625,113.416 460.625,111 C460.625,108.584 458.666,106.625 456.25,106.625 Z" />
            <path d="M456.25,137.25 L425.625,137.25 C423.209,137.25 421.25,139.209 421.25,141.625 C421.25,144.041 423.209,146 425.625,146 L456.25,146 C458.666,146 460.625,144.041 460.625,141.625 C460.625,139.209 458.666,137.25 456.25,137.25 Z" />
            <path d="M478.125,124.125 C478.125,119.293 482.043,115.375 486.875,115.375 C491.707,115.375 495.625,119.293 495.625,124.125 C495.625,128.957 491.707,132.875 486.875,132.875 C482.043,132.875 478.125,128.957 478.125,124.125 Z M469.375,124.125 C469.375,133.79 477.21,141.625 486.875,141.625 C496.54,141.625 504.375,133.79 504.375,124.125 C504.375,114.46 496.54,106.625 486.875,106.625 C477.21,106.625 469.375,114.46 469.375,124.125 Z" />
            <path d="M507.469,138.531 L499.156,130.219 C497.448,128.51 494.677,128.51 492.969,130.219 C491.26,131.927 491.26,134.698 492.969,136.406 L501.281,144.719 C502.99,146.427 505.76,146.427 507.469,144.719 C509.177,143.01 509.177,140.24 507.469,138.531 Z" />
        </g>
        <g id="Black-M" transform="translate(0,200)">
            <path d="M704.375,76 L625.625,76 C623.209,76 621.25,77.959 621.25,80.375 C621.25,82.791 623.209,84.75 625.625,84.75 L704.375,84.75 C706.791,84.75 708.75,82.791 708.75,80.375 C708.75,77.959 706.791,76 704.375,76 Z" />
            <path d="M656.25,106.625 L625.625,106.625 C623.209,106.625 621.25,108.584 621.25,111 C621.25,113.416 623.209,115.375 625.625,115.375 L656.25,115.375 C658.666,115.375 660.625,113.416 660.625,111 C660.625,108.584 658.666,106.625 656.25,106.625 Z" />
            <path d="M656.25,137.25 L625.625,137.25 C623.209,137.25 621.25,139.209 621.25,141.625 C621.25,144.041 623.209,146 625.625,146 L656.25,146 C658.666,146 660.625,144.041 660.625,141.625 C660.625,139.209 658.666,137.25 656.25,137.25 Z" />
            <path d="M678.125,124.125 C678.125,119.293 682.042,115.375 686.875,115.375 C691.708,115.375 695.625,119.293 695.625,124.125 C695.625,128.957 691.708,132.875 686.875,132.875 C682.042,132.875 678.125,128.957 678.125,124.125 Z M669.375,124.125 C669.375,133.79 677.21,141.625 686.875,141.625 C696.54,141.625 704.375,133.79 704.375,124.125 C704.375,114.46 696.54,106.625 686.875,106.625 C677.21,106.625 669.375,114.46 669.375,124.125 Z" />
            <path d="M707.469,138.531 L699.156,130.219 C697.448,128.51 694.677,128.51 692.969,130.219 C691.26,131.927 691.26,134.698 692.969,136.406 L701.281,144.719 C702.99,146.427 705.76,146.427 707.469,144.719 C709.177,143.01 709.177,140.24 707.469,138.531 Z" />
        </g>
    </g>
</svg>