<?xml version="1.0" encoding="UTF-8"?>
<svg height="600" width="800" xmlns="http://www.w3.org/2000/svg" xmlns:xlink="http://www.w3.org/1999/xlink">
    <g id="Notes" font-family="LucidaGrande, 'Lucida Grande', sans-serif" font-size="13">
        <rect fill="white" height="600.0" width="800.0" x="0.0" y="0.0" />
        <g font-size="13">
            <text x="18.0" y="176.0">Small</text>
            <text x="18.0" y="376.0">Medium</text>
            <text x="18.0" y="576.0">Large</text>
        </g>
        <g font-size="9">
            <text x="250.0" y="30.0">Ultralight</text>
            <text x="450.0" y="30.0">Regular</text>
            <text x="650.0" y="30.0">Black</text>
            <text id="template-version" fill="#505050" text-anchor="end" x="785.0" y="575.0">Template v.3.0</text>
            <a href="https://github.com/swhitty/SwiftDraw">
                <text fill="#505050" text-anchor="end" x="785.0" y="590.0">https://github.com/swhitty/SwiftDraw</text>
            </a>
        </g>
    </g>
    <g id="Guides" stroke="rgb(39, 170, 225)" stroke-width="0.5">
        <path id="Capline-S" d="M18,76 l800,0" />
        <path id="H-reference" d="M85,145.755 L87.685,145.755 L113.369,79.287 L114.052,79.287 L114.052,76 L112.148,76 L85,145.755 Z M95.693,121.536 L130.996,121.536 L130.263,119.313 L96.474,119.313 L95.693,121.536 Z M139.15,145.755 L141.787,145.755 L114.638,76 L113.466,76 L113.466,79.287 L139.15,145.755 Z" stroke="none" transform="translate(0,200)" />
        <path id="Baseline-S" d="M18,146 l800,0" />
        <path id="left-margin-Ultralight-M" d="M221,256 l0,110" />
        <path id="right-margin-Ultralight-M" d="M309,256 l0,110" />
        <path id="left-margin-Regular-M" d="M421,256 l0,110" />
        <path id="right-margin-Regular-M" d="M509,256 l0,110" />
        <path id="left-margin-Black-M" d="M621,256 l0,110" />
        <path id="right-margin-Black-M" d="M709,256 l0,110" />
        <path id="Capline-M" d="M18,276 l800,0" />
        <path id="Baseline-M" d="M18,346 l800,0" />
        <path id="Capline-L" d="M18,476 l800,0" />
        <path id="Baseline-L" d="M18,546 l800,0" />
    </g>
    <g id="Symbols">
        <g id="Ultralight-M" transform="translate(0,200)">
            <path d="M225,103 C229.418,103 233,106.582 233,111 C233,115.418 229.418,119 225,119 C222.791,119 221,120.791 221,123 L221,131 C221,134.183 222.264,137.235 224.515,139.485 C226.765,141.736 229.817,143 233,143 L297,143 C300.183,143 303.235,141.736 305.485,139.485 C307.736,137.235 309,134.183 309,131 L309,123 C309,120.791 307.209,119 305,119 C300.582,119 297,115.418 297,111 C297,106.582 300.582,103 305,103 C307.209,103 309,101.209 309,99 L309,91 C309,87.817 307.736,84.765 305.485,82.515 C303.235,80.264 300.183,79 297,79 L233,79 C229.817,79 226.765,80.264 224.515,82.515 C222.264,84.765 221,87.817 221,91 L221,99 C221,101.209 222.791,103 225,103 Z M225,95 L229,99 L229,91 C229,89.939 229.421,88.922 230.172,88.172 C230.922,87.421 231.939,87 233,87 L297,87 C298.061,87 299.078,87.421 299.828,88.172 C300.579,88.922 301,89.939 301,91 L301,99 L305,95 C296.163,95 289,102.163 289,111 C289,119.837 296.163,127 305,127 L301,123 L301,131 C301,132.061 300.579,133.078 299.828,133.828 C299.078,134.579 298.061,135 297,135 L233,135 C231.939,135 230.922,134.579 230.172,133.828 C229.421,133.078 229,132.061 229,131 L229,123 L225,127 C233.837,127 241,119.837 241,111 C241,102.163 233.837,95 225,95 Z" />
            <path d="M253,115 L277,115 C279.209,115 281,113.209 281,111 C281,108.791 279.209,107 277,107 L253,107 C250.791,107 249,108.791 249,111 C249,113.209 250.791,115 253,115 Z" />
            <path d="M261,99 L261,123 C261,125.209 262.791,127 265,127 C267.209,127 269,125.209 269,123 L269,99 C269,96.791 267.209,95 265,95 C262.791,95 261,96.791 261,99 Z" />
        </g>
        <g id="Regular-M" transform="translate(0,200)">
            <path d="M425,103 C429.418,103 433,106.582 433,111 C433,115.418 429.418,119 425,119 C422.791,119 421,120.791 421,123 L421,131 C421,134.183 422.264,137.235 424.515,139.485 C426.765,141.736 429.817,143 433,143 L497,143 C500.183,143 503.235,141.736 505.485,139.485 C507.736,137.235 509,134.183 509,131 L509,123 C509,120.791 507.209,119 505,119 C500.582,119 497,115.418 497,111 C497,106.582 500.582,103 505,103 C507.209,103 509,101.209 509,99 L509,91 C509,87.817 507.736,84.765 505.485,82.515 C503.235,80.264 500.183,79 497,79 L433,79 C429.817,79 426.765,80.264 424.515,82.515 C422.264,84.765 421,87.817 421,91 L421,99 C421,101.209 422.791,103 425,103 Z M425,95 L429,99 L429,91 C429,89.939 429.421,88.922 430.172,88.172 C430.922,87.421 431.939,87 433,87 L497,87 C498.061,87 499.078,87.421 499.828,88.172 C500.579,88.922 501,89.939 501,91 L501,99 L505,95 C496.163,95 489,102.163 489,111 C489,119.837 496.163,127 505,127 L501,123 L501,131 C501,132.061 500.579,133.078 499.828,133.828 C499.078,134.579 498.061,135 497,135 L433,135 C431.939,135 430.922,134.579 430.172,133.828 C429.421,133.078 429,132.061 429,131 L429,123 L425,127 C433.837,127 441,119.837 441,111 C441,102.163 433.837,95 425,95 Z" />
            <path d="M453,115 L477,115 C479.209,115 481,113.209 481,111 C481,108.791 479.209,107 477,107 L453,107 C450.791,107 449,108.791 449,111 C449,113.209 450.791,115 453,115 Z" />
            <path d="M461,99 L461,123 C461,125.209 462.791,127 465,127 C467.209,127 469,125.209 469,123 L469,99 C469,96.791 467.209,95 465,95 C462.791,95 461,96.791 461,99 Z" />
        </g>
        <g id="Black-M" transform="translate(0,200)">
            <path d="M625,103 C629.418,103 633,106.582 633,111 C633,115.418 629.418,119 625,119 C622.791,119 621,120.791 621,123 L621,131 C621,134.183 622.264,137.235 624.515,139.485 C626.765,141.736 629.817,143 633,143 L697,143 C700.183,143 703.235,141.736 705.485,139.485 C707.736,137.235 709,134.183 709,131 L709,123 C709,120.791 707.209,119 705,119 C700.582,119 697,115.418 697,111 C697,106.582 700.582,103 705,103 C707.209,103 709,101.209 709,99 L709,91 C709,87.817 707.736,84.765 705.485,82.515 C703.235,80.264 700.183,79 697,79 L633,79 C629.817,79 626.765,80.264 624.515,82.515 C622.264,84.765 621,87.817 621,91 L621,99 C621,101.209 622.791,103 625,103 Z M625,95 L629,99 L629,91 C629,89.939 629.421,88.922 630.172,88.172 C630.922,87.421 631.939,87 633,87 L697,87 C698.061,87 699.078,87.421 699.828,88.172 C700.579,88.922 701,89.939 701,91 L701,99 L705,95 C696.163,95 689,102.163 689,111 C689,119.837 696.163,127 705,127 L701,123 L701,131 C701,132.061 700.579,133.078 699.828,133.828 C699.078,134.579 698.061,135 697,135 L633,135 C631.939,135 630.922,134.579 630.172,133.828 C629.421,133.078 629,132.061 629,131 L629,123 L625,127 C633.837,127 641,119.837 641,111 C641,102.163 633.837,95 625,95 Z" />
            <path d="M653,115 L677,115 C679.209,115 681,113.209 681,111 C681,108.791 679.209,107 677,107 L653,107 C650.791,107 649,108.791 649,111 C649,113.209 650.791,115 653,115 Z" />
            <path d="M661,99 L661,123 C661,125.209 662.791,127 665,127 C667.209,127 669,125.209 669,123 L669,99 C669,96.791 667.209,95 665,95 C662.791,95 661,96.791 661,99 Z" />
        </g>
    </g>
</svg>