<?xml version="1.0" encoding="UTF-8"?>
<svg height="600" width="800" xmlns="http://www.w3.org/2000/svg" xmlns:xlink="http://www.w3.org/1999/xlink">
    <g id="Notes" font-family="LucidaGrande, 'Lucida Grande', sans-serif" font-size="13">
        <rect fill="white" height="600.0" width="800.0" x="0.0" y="0.0" />
        <g font-size="13">
            <text x="18.0" y="176.0">Small</text>
            <text x="18.0" y="376.0">Medium</text>
            <text x="18.0" y="576.0">Large</text>
        </g>
        <g font-size="9">
            <text x="250.0" y="30.0">Ultralight</text>
            <text x="450.0" y="30.0">Regular</text>
            <text x="650.0" y="30.0">Black</text>
            <text id="template-version" fill="#505050" text-anchor="end" x="785.0" y="575.0">Template v.3.0</text>
            <a href="https://github.com/swhitty/SwiftDraw">
                <text fill="#505050" text-anchor="end" x="785.0" y="590.0">https://github.com/swhitty/SwiftDraw</text>
            </a>
        </g>
    </g>
    <g id="Guides" stroke="rgb(39, 170, 225)" stroke-width="0.5">
        <path id="Capline-S" d="M18,76 l800,0" />
        <path id="H-reference" d="M85,145.755 L87.685,145.755 L113.369,79.287 L114.052,79.287 L114.052,76 L112.148,76 L85,145.755 Z M95.693,121.536 L130.996,121.536 L130.263,119.313 L96.474,119.313 L95.693,121.536 Z M139.15,145.755 L141.787,145.755 L114.638,76 L113.466,76 L113.466,79.287 L139.15,145.755 Z" stroke="none" transform="translate(0,200)" />
        <path id="Baseline-S" d="M18,146 l800,0" />
        <path id="left-margin-Ultralight-M" d="M230,256 l0,110" />
        <path id="right-margin-Ultralight-M" d="M300,256 l0,110" />
        <path id="left-margin-Regular-M" d="M430,256 l0,110" />
        <path id="right-margin-Regular-M" d="M500,256 l0,110" />
        <path id="left-margin-Black-M" d="M630,256 l0,110" />
        <path id="right-margin-Black-M" d="M700,256 l0,110" />
        <path id="Capline-M" d="M18,276 l800,0" />
        <path id="Baseline-M" d="M18,346 l800,0" />
        <path id="Capline-L" d="M18,476 l800,0" />
        <path id="Baseline-L" d="M18,546 l800,0" />
    </g>
    <g id="Symbols">
        <g id="Ultralight-M" transform="translate(0,200)">
            <path d="M258.636,82.36 L271.364,82.36 C273.121,82.36 274.545,80.936 274.545,79.18 C274.545,77.424 273.121,76 271.364,76 L258.636,76 C256.879,76 255.455,77.424 255.455,79.18 C255.455,80.936 256.879,82.36 258.636,82.36 Z" />
            <path d="M238.517,106.577 C234.083,117.228 236.482,129.499 244.602,137.699 C252.831,145.837 265.109,148.235 275.768,143.804 C277.39,143.13 278.158,141.268 277.483,139.647 C276.808,138.025 274.946,137.258 273.323,137.932 C265.034,141.379 255.484,139.514 249.102,133.202 C242.81,126.848 240.944,117.304 244.392,109.019 C245.067,107.398 244.299,105.537 242.677,104.862 C241.054,104.188 239.192,104.955 238.517,106.577 Z" />
            <path d="M252.177,98.963 C261.13,92.756 273.263,93.933 280.854,101.746 C288.457,109.389 289.511,121.327 283.386,130.152 C282.384,131.595 282.743,133.576 284.186,134.577 C285.63,135.578 287.613,135.22 288.614,133.777 C296.49,122.43 295.135,107.082 285.393,97.289 C275.66,87.27 260.061,85.757 248.55,93.738 C247.106,94.739 246.748,96.721 247.749,98.163 C248.751,99.606 250.734,99.964 252.177,98.963 Z" />
            <path d="M230.932,81.428 L294.568,145.025 C295.811,146.266 297.826,146.266 299.068,145.025 C300.311,143.783 300.311,141.769 299.068,140.528 L235.432,76.931 C234.189,75.69 232.175,75.69 230.932,76.931 C229.689,78.173 229.689,80.186 230.932,81.428 Z" />
            <path d="M268.182,110.978 L268.182,104.618 C268.182,102.862 266.757,101.438 265,101.438 C263.243,101.438 261.818,102.862 261.818,104.618 L261.818,110.978 C261.818,112.734 263.243,114.158 265,114.158 C266.757,114.158 268.182,112.734 268.182,110.978 Z" />
        </g>
        <g id="Regular-M" transform="translate(0,200)">
            <path d="M458.636,82.36 L471.364,82.36 C473.121,82.36 474.545,80.936 474.545,79.18 C474.545,77.424 473.121,76 471.364,76 L458.636,76 C456.879,76 455.455,77.424 455.455,79.18 C455.455,80.936 456.879,82.36 458.636,82.36 Z" />
            <path d="M438.517,106.577 C434.083,117.228 436.482,129.499 444.602,137.699 C452.831,145.837 465.109,148.235 475.768,143.804 C477.39,143.13 478.158,141.268 477.483,139.647 C476.808,138.025 474.946,137.258 473.323,137.932 C465.034,141.379 455.484,139.514 449.102,133.202 C442.81,126.848 440.944,117.304 444.392,109.019 C445.067,107.398 444.299,105.537 442.677,104.862 C441.054,104.188 439.192,104.955 438.517,106.577 Z" />
            <path d="M452.177,98.963 C461.13,92.756 473.263,93.933 480.854,101.746 C488.457,109.389 489.511,121.327 483.386,130.152 C482.384,131.595 482.743,133.576 484.186,134.577 C485.63,135.578 487.613,135.22 488.614,133.777 C496.49,122.43 495.135,107.082 485.393,97.289 C475.66,87.27 460.061,85.757 448.55,93.738 C447.106,94.739 446.748,96.721 447.749,98.163 C448.751,99.606 450.734,99.964 452.177,98.963 Z" />
            <path d="M430.932,81.428 L494.568,145.025 C495.811,146.266 497.826,146.266 499.068,145.025 C500.311,143.783 500.311,141.769 499.068,140.528 L435.432,76.931 C434.189,75.69 432.174,75.69 430.932,76.931 C429.689,78.173 429.689,80.186 430.932,81.428 Z" />
            <path d="M468.182,110.978 L468.182,104.618 C468.182,102.862 466.757,101.438 465,101.438 C463.243,101.438 461.818,102.862 461.818,104.618 L461.818,110.978 C461.818,112.734 463.243,114.158 465,114.158 C466.757,114.158 468.182,112.734 468.182,110.978 Z" />
        </g>
        <g id="Black-M" transform="translate(0,200)">
            <path d="M658.636,82.36 L671.364,82.36 C673.121,82.36 674.545,80.936 674.545,79.18 C674.545,77.424 673.121,76 671.364,76 L658.636,76 C656.879,76 655.455,77.424 655.455,79.18 C655.455,80.936 656.879,82.36 658.636,82.36 Z" />
            <path d="M638.517,106.577 C634.083,117.228 636.482,129.499 644.602,137.699 C652.831,145.837 665.109,148.235 675.768,143.804 C677.39,143.13 678.158,141.268 677.483,139.647 C676.808,138.025 674.946,137.258 673.323,137.932 C665.034,141.379 655.484,139.514 649.102,133.202 C642.81,126.848 640.944,117.304 644.392,109.019 C645.067,107.398 644.299,105.537 642.677,104.862 C641.054,104.188 639.192,104.955 638.517,106.577 Z" />
            <path d="M652.177,98.963 C661.13,92.756 673.263,93.933 680.854,101.746 C688.457,109.389 689.511,121.327 683.386,130.152 C682.384,131.595 682.743,133.576 684.186,134.577 C685.63,135.578 687.613,135.22 688.614,133.777 C696.49,122.43 695.135,107.082 685.393,97.289 C675.66,87.27 660.061,85.757 648.55,93.738 C647.106,94.739 646.748,96.721 647.749,98.163 C648.751,99.606 650.734,99.964 652.177,98.963 Z" />
            <path d="M630.932,81.428 L694.568,145.025 C695.811,146.266 697.826,146.266 699.068,145.025 C700.311,143.783 700.311,141.769 699.068,140.528 L635.432,76.931 C634.189,75.69 632.174,75.69 630.932,76.931 C629.689,78.173 629.689,80.186 630.932,81.428 Z" />
            <path d="M668.182,110.978 L668.182,104.618 C668.182,102.862 666.757,101.438 665,101.438 C663.243,101.438 661.818,102.862 661.818,104.618 L661.818,110.978 C661.818,112.734 663.243,114.158 665,114.158 C666.757,114.158 668.182,112.734 668.182,110.978 Z" />
        </g>
    </g>
</svg>