<?xml version="1.0" encoding="UTF-8"?>
<svg height="600" width="800" xmlns="http://www.w3.org/2000/svg" xmlns:xlink="http://www.w3.org/1999/xlink">
    <g id="Notes" font-family="LucidaGrande, 'Lucida Grande', sans-serif" font-size="13">
        <rect fill="white" height="600.0" width="800.0" x="0.0" y="0.0" />
        <g font-size="13">
            <text x="18.0" y="176.0">Small</text>
            <text x="18.0" y="376.0">Medium</text>
            <text x="18.0" y="576.0">Large</text>
        </g>
        <g font-size="9">
            <text x="250.0" y="30.0">Ultralight</text>
            <text x="450.0" y="30.0">Regular</text>
            <text x="650.0" y="30.0">Black</text>
            <text id="template-version" fill="#505050" text-anchor="end" x="785.0" y="575.0">Template v.3.0</text>
            <a href="https://github.com/swhitty/SwiftDraw">
                <text fill="#505050" text-anchor="end" x="785.0" y="590.0">https://github.com/swhitty/SwiftDraw</text>
            </a>
        </g>
    </g>
    <g id="Guides" stroke="rgb(39, 170, 225)" stroke-width="0.5">
        <path id="Capline-S" d="M18,76 l800,0" />
        <path id="H-reference" d="M85,145.755 L87.685,145.755 L113.369,79.287 L114.052,79.287 L114.052,76 L112.148,76 L85,145.755 Z M95.693,121.536 L130.996,121.536 L130.263,119.313 L96.474,119.313 L95.693,121.536 Z M139.15,145.755 L141.787,145.755 L114.638,76 L113.466,76 L113.466,79.287 L139.15,145.755 Z" stroke="none" transform="translate(0,200)" />
        <path id="Baseline-S" d="M18,146 l800,0" />
        <path id="left-margin-Ultralight-M" d="M228.333,256 l0,110" />
        <path id="right-margin-Ultralight-M" d="M301.667,256 l0,110" />
        <path id="left-margin-Regular-M" d="M428.333,256 l0,110" />
        <path id="right-margin-Regular-M" d="M501.667,256 l0,110" />
        <path id="left-margin-Black-M" d="M628.333,256 l0,110" />
        <path id="right-margin-Black-M" d="M701.667,256 l0,110" />
        <path id="Capline-M" d="M18,276 l800,0" />
        <path id="Baseline-M" d="M18,346 l800,0" />
        <path id="Capline-L" d="M18,476 l800,0" />
        <path id="Baseline-L" d="M18,546 l800,0" />
    </g>
    <g id="Symbols">
        <g id="Ultralight-M" transform="translate(0,200)">
            <path d="M275,112.667 L275,126 C275,127.841 276.492,129.333 278.333,129.333 C280.174,129.333 281.667,127.841 281.667,126 L281.667,112.667 C281.667,110.826 280.174,109.333 278.333,109.333 C276.492,109.333 275,110.826 275,112.667 Z" />
            <path d="M278.333,96 C279.217,96 280.064,96.352 280.689,96.977 L294.023,110.31 C294.648,110.936 295,111.783 295,112.667 L295,136 C295,136.884 294.649,137.732 294.024,138.357 C293.399,138.982 292.551,139.333 291.667,139.333 L238.333,139.333 C237.449,139.333 236.601,138.982 235.976,138.357 C235.351,137.732 235,136.884 235,136 L235,112.667 C235,111.784 235.351,110.936 235.976,110.311 L249.309,96.978 C249.935,96.352 250.783,96 251.667,96 L278.333,96 Z M278.333,89.333 L251.667,89.333 C249.013,89.334 246.469,90.388 244.594,92.265 L231.262,105.597 C229.387,107.473 228.333,110.016 228.333,112.667 L228.333,136 C228.333,138.652 229.387,141.196 231.262,143.071 C233.138,144.946 235.681,146 238.333,146 L291.667,146 C294.319,146 296.862,144.946 298.738,143.071 C300.613,141.196 301.667,138.652 301.667,136 L301.667,112.667 C301.666,110.014 300.612,107.471 298.737,105.596 L285.404,92.263 C283.529,90.388 280.986,89.334 278.334,89.333 Z" />
            <path d="M281.667,92.667 L281.667,86 C281.667,83.348 280.613,80.804 278.738,78.929 C276.862,77.054 274.319,76 271.667,76 L258.333,76 C255.681,76 253.138,77.054 251.262,78.929 C249.387,80.804 248.333,83.348 248.333,86 L248.333,92.667 C248.333,94.508 249.826,96 251.667,96 C253.508,96 255,94.508 255,92.667 L255,86 C255,85.116 255.351,84.268 255.976,83.643 C256.601,83.018 257.449,82.667 258.333,82.667 L271.667,82.667 C272.551,82.667 273.399,83.018 274.024,83.643 C274.649,84.268 275,85.116 275,86 L275,92.667 C275,94.508 276.492,96 278.333,96 C280.174,96 281.667,94.508 281.667,92.667 Z" />
            <path d="M231.667,122.667 L298.333,122.667 C300.174,122.667 301.667,121.174 301.667,119.333 C301.667,117.492 300.174,116 298.333,116 L231.667,116 C229.826,116 228.333,117.492 228.333,119.333 C228.333,121.174 229.826,122.667 231.667,122.667 Z" />
            <path d="M248.333,112.667 L248.333,126 C248.333,127.841 249.826,129.333 251.667,129.333 C253.508,129.333 255,127.841 255,126 L255,112.667 C255,110.826 253.508,109.333 251.667,109.333 C249.826,109.333 248.333,110.826 248.333,112.667 Z" />
        </g>
        <g id="Regular-M" transform="translate(0,200)">
            <path d="M475,112.667 L475,126 C475,127.841 476.492,129.333 478.333,129.333 C480.174,129.333 481.667,127.841 481.667,126 L481.667,112.667 C481.667,110.826 480.174,109.333 478.333,109.333 C476.492,109.333 475,110.826 475,112.667 Z" />
            <path d="M478.333,96 C479.217,96 480.064,96.352 480.689,96.977 L494.023,110.31 C494.648,110.936 495,111.783 495,112.667 L495,136 C495,136.884 494.649,137.732 494.024,138.357 C493.399,138.982 492.551,139.333 491.667,139.333 L438.333,139.333 C437.449,139.333 436.601,138.982 435.976,138.357 C435.351,137.732 435,136.884 435,136 L435,112.667 C435,111.784 435.351,110.936 435.976,110.311 L449.309,96.978 C449.935,96.352 450.783,96 451.667,96 L478.333,96 Z M478.333,89.333 L451.667,89.333 C449.013,89.334 446.47,90.388 444.594,92.265 L431.262,105.597 C429.387,107.473 428.333,110.016 428.333,112.667 L428.333,136 C428.333,138.652 429.387,141.196 431.262,143.071 C433.138,144.946 435.681,146 438.333,146 L491.667,146 C494.319,146 496.862,144.946 498.738,143.071 C500.613,141.196 501.667,138.652 501.667,136 L501.667,112.667 C501.666,110.014 500.612,107.471 498.737,105.596 L485.404,92.263 C483.529,90.388 480.986,89.334 478.334,89.333 Z" />
            <path d="M481.667,92.667 L481.667,86 C481.667,83.348 480.613,80.804 478.738,78.929 C476.862,77.054 474.319,76 471.667,76 L458.333,76 C455.681,76 453.138,77.054 451.262,78.929 C449.387,80.804 448.333,83.348 448.333,86 L448.333,92.667 C448.333,94.508 449.826,96 451.667,96 C453.508,96 455,94.508 455,92.667 L455,86 C455,85.116 455.351,84.268 455.976,83.643 C456.601,83.018 457.449,82.667 458.333,82.667 L471.667,82.667 C472.551,82.667 473.399,83.018 474.024,83.643 C474.649,84.268 475,85.116 475,86 L475,92.667 C475,94.508 476.492,96 478.333,96 C480.174,96 481.667,94.508 481.667,92.667 Z" />
            <path d="M431.667,122.667 L498.333,122.667 C500.174,122.667 501.667,121.174 501.667,119.333 C501.667,117.492 500.174,116 498.333,116 L431.667,116 C429.826,116 428.333,117.492 428.333,119.333 C428.333,121.174 429.826,122.667 431.667,122.667 Z" />
            <path d="M448.333,112.667 L448.333,126 C448.333,127.841 449.826,129.333 451.667,129.333 C453.508,129.333 455,127.841 455,126 L455,112.667 C455,110.826 453.508,109.333 451.667,109.333 C449.826,109.333 448.333,110.826 448.333,112.667 Z" />
        </g>
        <g id="Black-M" transform="translate(0,200)">
            <path d="M675,112.667 L675,126 C675,127.841 676.492,129.333 678.333,129.333 C680.174,129.333 681.667,127.841 681.667,126 L681.667,112.667 C681.667,110.826 680.174,109.333 678.333,109.333 C676.492,109.333 675,110.826 675,112.667 Z" />
            <path d="M678.333,96 C679.217,96 680.064,96.352 680.689,96.977 L694.023,110.31 C694.648,110.936 695,111.783 695,112.667 L695,136 C695,136.884 694.649,137.732 694.024,138.357 C693.399,138.982 692.551,139.333 691.667,139.333 L638.333,139.333 C637.449,139.333 636.601,138.982 635.976,138.357 C635.351,137.732 635,136.884 635,136 L635,112.667 C635,111.784 635.351,110.936 635.976,110.311 L649.309,96.978 C649.935,96.352 650.783,96 651.667,96 L678.333,96 Z M678.333,89.333 L651.667,89.333 C649.013,89.334 646.469,90.388 644.594,92.265 L631.262,105.597 C629.387,107.473 628.333,110.016 628.333,112.667 L628.333,136 C628.333,138.652 629.387,141.196 631.262,143.071 C633.138,144.946 635.681,146 638.333,146 L691.667,146 C694.319,146 696.862,144.946 698.738,143.071 C700.613,141.196 701.667,138.652 701.667,136 L701.667,112.667 C701.666,110.014 700.612,107.471 698.737,105.596 L685.404,92.263 C683.529,90.388 680.986,89.334 678.334,89.333 Z" />
            <path d="M681.667,92.667 L681.667,86 C681.667,83.348 680.613,80.804 678.738,78.929 C676.862,77.054 674.319,76 671.667,76 L658.333,76 C655.681,76 653.138,77.054 651.262,78.929 C649.387,80.804 648.333,83.348 648.333,86 L648.333,92.667 C648.333,94.508 649.826,96 651.667,96 C653.508,96 655,94.508 655,92.667 L655,86 C655,85.116 655.351,84.268 655.976,83.643 C656.601,83.018 657.449,82.667 658.333,82.667 L671.667,82.667 C672.551,82.667 673.399,83.018 674.024,83.643 C674.649,84.268 675,85.116 675,86 L675,92.667 C675,94.508 676.492,96 678.333,96 C680.174,96 681.667,94.508 681.667,92.667 Z" />
            <path d="M631.667,122.667 L698.333,122.667 C700.174,122.667 701.667,121.174 701.667,119.333 C701.667,117.492 700.174,116 698.333,116 L631.667,116 C629.826,116 628.333,117.492 628.333,119.333 C628.333,121.174 629.826,122.667 631.667,122.667 Z" />
            <path d="M648.333,112.667 L648.333,126 C648.333,127.841 649.826,129.333 651.667,129.333 C653.508,129.333 655,127.841 655,126 L655,112.667 C655,110.826 653.508,109.333 651.667,109.333 C649.826,109.333 648.333,110.826 648.333,112.667 Z" />
        </g>
    </g>
</svg>