<?xml version="1.0" encoding="UTF-8"?>
<svg height="600" width="800" xmlns="http://www.w3.org/2000/svg" xmlns:xlink="http://www.w3.org/1999/xlink">
    <g id="Notes" font-family="LucidaGrande, 'Lucida Grande', sans-serif" font-size="13">
        <rect fill="white" height="600.0" width="800.0" x="0.0" y="0.0" />
        <g font-size="13">
            <text x="18.0" y="176.0">Small</text>
            <text x="18.0" y="376.0">Medium</text>
            <text x="18.0" y="576.0">Large</text>
        </g>
        <g font-size="9">
            <text x="250.0" y="30.0">Ultralight</text>
            <text x="450.0" y="30.0">Regular</text>
            <text x="650.0" y="30.0">Black</text>
            <text id="template-version" fill="#505050" text-anchor="end" x="785.0" y="575.0">Template v.3.0</text>
            <a href="https://github.com/swhitty/SwiftDraw">
                <text fill="#505050" text-anchor="end" x="785.0" y="590.0">https://github.com/swhitty/SwiftDraw</text>
            </a>
        </g>
    </g>
    <g id="Guides" stroke="rgb(39, 170, 225)" stroke-width="0.5">
        <path id="Capline-S" d="M18,76 l800,0" />
        <path id="H-reference" d="M85,145.755 L87.685,145.755 L113.369,79.287 L114.052,79.287 L114.052,76 L112.148,76 L85,145.755 Z M95.693,121.536 L130.996,121.536 L130.263,119.313 L96.474,119.313 L95.693,121.536 Z M139.15,145.755 L141.787,145.755 L114.638,76 L113.466,76 L113.466,79.287 L139.15,145.755 Z" stroke="none" transform="translate(0,200)" />
        <path id="Baseline-S" d="M18,146 l800,0" />
        <path id="left-margin-Ultralight-M" d="M230,256 l0,110" />
        <path id="right-margin-Ultralight-M" d="M300,256 l0,110" />
        <path id="left-margin-Regular-M" d="M430,256 l0,110" />
        <path id="right-margin-Regular-M" d="M500,256 l0,110" />
        <path id="left-margin-Black-M" d="M630,256 l0,110" />
        <path id="right-margin-Black-M" d="M700,256 l0,110" />
        <path id="Capline-M" d="M18,276 l800,0" />
        <path id="Baseline-M" d="M18,346 l800,0" />
        <path id="Capline-L" d="M18,476 l800,0" />
        <path id="Baseline-L" d="M18,546 l800,0" />
    </g>
    <g id="Symbols">
        <g id="Ultralight-M" transform="translate(0,200)">
            <path d="M268.182,136.455 L268.182,117.364 C268.182,115.606 266.757,114.182 265,114.182 C263.243,114.182 261.818,115.606 261.818,117.364 L261.818,136.455 C261.818,138.212 263.243,139.636 265,139.636 C266.757,139.636 268.182,138.212 268.182,136.455 Z" />
            <path d="M289.36,120.545 L296.818,120.545 C298.575,120.545 300,119.121 300,117.364 C300,115.606 298.575,114.182 296.818,114.182 L289.36,114.182 C287.603,114.182 286.178,115.606 286.178,117.364 C286.178,119.121 287.603,120.545 289.36,120.545 Z" />
            <path d="M233.182,120.545 L271.364,120.545 C273.121,120.545 274.545,119.121 274.545,117.364 C274.545,115.606 273.121,114.182 271.364,114.182 L233.182,114.182 C231.425,114.182 230,115.606 230,117.364 C230,119.121 231.425,120.545 233.182,120.545 Z" />
            <path d="M230.932,81.432 L294.568,145.068 C295.811,146.311 297.826,146.311 299.068,145.068 C300.311,143.825 300.311,141.811 299.068,140.568 L235.432,76.932 C234.189,75.689 232.175,75.689 230.932,76.932 C229.689,78.175 229.689,80.189 230.932,81.432 Z" />
            <path d="M290.455,133.273 L239.545,133.273 C238.702,133.273 237.892,132.938 237.296,132.341 C236.699,131.744 236.364,130.935 236.364,130.091 L236.364,91.909 C236.364,91.065 236.699,90.256 237.296,89.659 C237.892,89.062 238.702,88.727 239.545,88.727 C241.303,88.727 242.727,87.303 242.727,85.545 C242.727,83.788 241.303,82.364 239.545,82.364 C237.014,82.364 234.586,83.369 232.796,85.159 C231.006,86.95 230,89.377 230,91.909 L230,130.091 C230,132.623 231.006,135.05 232.796,136.841 C234.586,138.631 237.014,139.636 239.545,139.636 L290.455,139.636 C292.212,139.636 293.636,138.212 293.636,136.455 C293.636,134.697 292.212,133.273 290.455,133.273 Z" />
            <path d="M257.542,88.727 L290.455,88.727 C291.298,88.727 292.108,89.062 292.704,89.659 C293.301,90.256 293.636,91.065 293.636,91.909 L293.636,124.822 C293.636,126.579 295.061,128.004 296.818,128.004 C298.575,128.004 300,126.579 300,124.822 L300,91.909 C300,89.377 298.994,86.95 297.204,85.159 C295.414,83.369 292.986,82.364 290.455,82.364 L257.542,82.364 C255.785,82.364 254.36,83.788 254.36,85.545 C254.36,87.303 255.785,88.727 257.542,88.727 Z" />
        </g>
        <g id="Regular-M" transform="translate(0,200)">
            <path d="M468.182,136.455 L468.182,117.364 C468.182,115.606 466.757,114.182 465,114.182 C463.243,114.182 461.818,115.606 461.818,117.364 L461.818,136.455 C461.818,138.212 463.243,139.636 465,139.636 C466.757,139.636 468.182,138.212 468.182,136.455 Z" />
            <path d="M489.36,120.545 L496.818,120.545 C498.575,120.545 500,119.121 500,117.364 C500,115.606 498.575,114.182 496.818,114.182 L489.36,114.182 C487.603,114.182 486.178,115.606 486.178,117.364 C486.178,119.121 487.603,120.545 489.36,120.545 Z" />
            <path d="M433.182,120.545 L471.364,120.545 C473.121,120.545 474.545,119.121 474.545,117.364 C474.545,115.606 473.121,114.182 471.364,114.182 L433.182,114.182 C431.425,114.182 430,115.606 430,117.364 C430,119.121 431.425,120.545 433.182,120.545 Z" />
            <path d="M430.932,81.432 L494.568,145.068 C495.811,146.311 497.826,146.311 499.068,145.068 C500.311,143.825 500.311,141.811 499.068,140.568 L435.432,76.932 C434.189,75.689 432.174,75.689 430.932,76.932 C429.689,78.175 429.689,80.189 430.932,81.432 Z" />
            <path d="M490.455,133.273 L439.545,133.273 C438.702,133.273 437.892,132.938 437.296,132.341 C436.699,131.744 436.364,130.935 436.364,130.091 L436.364,91.909 C436.364,91.065 436.699,90.256 437.296,89.659 C437.892,89.062 438.702,88.727 439.545,88.727 C441.303,88.727 442.727,87.303 442.727,85.545 C442.727,83.788 441.303,82.364 439.545,82.364 C437.014,82.364 434.586,83.369 432.796,85.159 C431.006,86.95 430,89.377 430,91.909 L430,130.091 C430,132.623 431.006,135.05 432.796,136.841 C434.586,138.631 437.014,139.636 439.545,139.636 L490.455,139.636 C492.212,139.636 493.636,138.212 493.636,136.455 C493.636,134.697 492.212,133.273 490.455,133.273 Z" />
            <path d="M457.542,88.727 L490.455,88.727 C491.298,88.727 492.108,89.062 492.704,89.659 C493.301,90.256 493.636,91.065 493.636,91.909 L493.636,124.822 C493.636,126.579 495.061,128.004 496.818,128.004 C498.575,128.004 500,126.579 500,124.822 L500,91.909 C500,89.377 498.994,86.95 497.204,85.159 C495.414,83.369 492.986,82.364 490.455,82.364 L457.542,82.364 C455.785,82.364 454.36,83.788 454.36,85.545 C454.36,87.303 455.785,88.727 457.542,88.727 Z" />
        </g>
        <g id="Black-M" transform="translate(0,200)">
            <path d="M668.182,136.455 L668.182,117.364 C668.182,115.606 666.757,114.182 665,114.182 C663.243,114.182 661.818,115.606 661.818,117.364 L661.818,136.455 C661.818,138.212 663.243,139.636 665,139.636 C666.757,139.636 668.182,138.212 668.182,136.455 Z" />
            <path d="M689.36,120.545 L696.818,120.545 C698.575,120.545 700,119.121 700,117.364 C700,115.606 698.575,114.182 696.818,114.182 L689.36,114.182 C687.603,114.182 686.178,115.606 686.178,117.364 C686.178,119.121 687.603,120.545 689.36,120.545 Z" />
            <path d="M633.182,120.545 L671.364,120.545 C673.121,120.545 674.545,119.121 674.545,117.364 C674.545,115.606 673.121,114.182 671.364,114.182 L633.182,114.182 C631.425,114.182 630,115.606 630,117.364 C630,119.121 631.425,120.545 633.182,120.545 Z" />
            <path d="M630.932,81.432 L694.568,145.068 C695.811,146.311 697.826,146.311 699.068,145.068 C700.311,143.825 700.311,141.811 699.068,140.568 L635.432,76.932 C634.189,75.689 632.174,75.689 630.932,76.932 C629.689,78.175 629.689,80.189 630.932,81.432 Z" />
            <path d="M690.455,133.273 L639.545,133.273 C638.702,133.273 637.892,132.938 637.296,132.341 C636.699,131.744 636.364,130.935 636.364,130.091 L636.364,91.909 C636.364,91.065 636.699,90.256 637.296,89.659 C637.892,89.062 638.702,88.727 639.545,88.727 C641.303,88.727 642.727,87.303 642.727,85.545 C642.727,83.788 641.303,82.364 639.545,82.364 C637.014,82.364 634.586,83.369 632.796,85.159 C631.006,86.95 630,89.377 630,91.909 L630,130.091 C630,132.623 631.006,135.05 632.796,136.841 C634.586,138.631 637.014,139.636 639.545,139.636 L690.455,139.636 C692.212,139.636 693.636,138.212 693.636,136.455 C693.636,134.697 692.212,133.273 690.455,133.273 Z" />
            <path d="M657.542,88.727 L690.455,88.727 C691.298,88.727 692.108,89.062 692.704,89.659 C693.301,90.256 693.636,91.065 693.636,91.909 L693.636,124.822 C693.636,126.579 695.061,128.004 696.818,128.004 C698.575,128.004 700,126.579 700,124.822 L700,91.909 C700,89.377 698.994,86.95 697.204,85.159 C695.414,83.369 692.986,82.364 690.455,82.364 L657.542,82.364 C655.785,82.364 654.36,83.788 654.36,85.545 C654.36,87.303 655.785,88.727 657.542,88.727 Z" />
        </g>
    </g>
</svg>