<?xml version="1.0" encoding="UTF-8"?>
<svg height="600" width="800" xmlns="http://www.w3.org/2000/svg" xmlns:xlink="http://www.w3.org/1999/xlink">
    <g id="Notes" font-family="LucidaGrande, 'Lucida Grande', sans-serif" font-size="13">
        <rect fill="white" height="600.0" width="800.0" x="0.0" y="0.0" />
        <g font-size="13">
            <text x="18.0" y="176.0">Small</text>
            <text x="18.0" y="376.0">Medium</text>
            <text x="18.0" y="576.0">Large</text>
        </g>
        <g font-size="9">
            <text x="250.0" y="30.0">Ultralight</text>
            <text x="450.0" y="30.0">Regular</text>
            <text x="650.0" y="30.0">Black</text>
            <text id="template-version" fill="#505050" text-anchor="end" x="785.0" y="575.0">Template v.3.0</text>
            <a href="https://github.com/swhitty/SwiftDraw">
                <text fill="#505050" text-anchor="end" x="785.0" y="590.0">https://github.com/swhitty/SwiftDraw</text>
            </a>
        </g>
    </g>
    <g id="Guides" stroke="rgb(39, 170, 225)" stroke-width="0.5">
        <path id="Capline-S" d="M18,76 l800,0" />
        <path id="H-reference" d="M85,145.755 L87.685,145.755 L113.369,79.287 L114.052,79.287 L114.052,76 L112.148,76 L85,145.755 Z M95.693,121.536 L130.996,121.536 L130.263,119.313 L96.474,119.313 L95.693,121.536 Z M139.15,145.755 L141.787,145.755 L114.638,76 L113.466,76 L113.466,79.287 L139.15,145.755 Z" stroke="none" transform="translate(0,200)" />
        <path id="Baseline-S" d="M18,146 l800,0" />
        <path id="left-margin-Ultralight-M" d="M236.364,256 l0,110" />
        <path id="right-margin-Ultralight-M" d="M293.636,256 l0,110" />
        <path id="left-margin-Regular-M" d="M436.364,256 l0,110" />
        <path id="right-margin-Regular-M" d="M493.636,256 l0,110" />
        <path id="left-margin-Black-M" d="M636.364,256 l0,110" />
        <path id="right-margin-Black-M" d="M693.636,256 l0,110" />
        <path id="Capline-M" d="M18,276 l800,0" />
        <path id="Baseline-M" d="M18,346 l800,0" />
        <path id="Capline-L" d="M18,476 l800,0" />
        <path id="Baseline-L" d="M18,546 l800,0" />
    </g>
    <g id="Symbols">
        <g id="Ultralight-M" transform="translate(0,200)">
            <path d="M287.786,112.737 L293.513,92.787 C294.097,90.754 292.57,88.727 290.455,88.727 L239.545,88.727 C237.43,88.727 235.903,90.754 236.487,92.787 L242.214,112.737 C242.971,115.436 245.432,117.327 248.254,117.363 L281.705,117.364 C284.56,117.355 287.054,115.459 287.823,112.718 C288.392,110.689 286.867,108.677 284.759,108.677 L284.727,108.677 L284.727,111.859 L287.786,112.737 Z M281.669,110.981 C281.085,113.015 282.612,115.041 284.727,115.041 L284.759,115.041 L284.759,111.859 L281.695,111 C281.695,111 281.695,111 281.695,111 L248.295,111 C248.336,111 248.336,111 248.336,111 L242.604,91.031 L239.545,95.091 L290.455,95.091 L287.396,91.031 L281.669,110.981 Z" />
            <path d="M249.091,114.182 L249.091,142.818 C249.091,144.575 250.515,146 252.273,146 C254.03,146 255.455,144.575 255.455,142.818 L255.455,114.182 C255.455,112.425 254.03,111 252.273,111 C250.515,111 249.091,112.425 249.091,114.182 Z" />
            <path d="M280.909,142.818 L280.909,114.182 C280.909,112.425 279.485,111 277.727,111 C275.97,111 274.545,112.425 274.545,114.182 L274.545,142.818 C274.545,144.575 275.97,146 277.727,146 C279.485,146 280.909,144.575 280.909,142.818 Z" />
            <path d="M252.305,92.359 L255.487,114.632 C255.735,116.371 257.347,117.58 259.086,117.332 C260.826,117.083 262.035,115.471 261.786,113.732 L258.604,91.459 C258.356,89.72 256.744,88.511 255.005,88.759 C253.265,89.008 252.056,90.619 252.305,92.359 Z" />
            <path d="M271.396,91.459 L268.214,113.732 C267.965,115.471 269.174,117.083 270.914,117.332 C272.653,117.58 274.265,116.371 274.513,114.632 L277.695,92.359 C277.944,90.619 276.735,89.008 274.995,88.759 C273.256,88.511 271.644,89.72 271.396,91.459 Z" />
            <path d="M268.182,91.909 L268.182,79.182 C268.182,77.425 266.757,76 265,76 C263.243,76 261.818,77.425 261.818,79.182 L261.818,91.909 C261.818,93.666 263.243,95.091 265,95.091 C266.757,95.091 268.182,93.666 268.182,91.909 Z" />
            <path d="M268.182,76 L261.818,76 C260.061,76 258.636,77.425 258.636,79.182 C258.636,80.939 260.061,82.364 261.818,82.364 L268.182,82.364 C269.939,82.364 271.364,80.939 271.364,79.182 C271.364,77.425 269.939,76 268.182,76 Z" />
        </g>
        <g id="Regular-M" transform="translate(0,200)">
            <path d="M487.786,112.737 L493.513,92.787 C494.097,90.754 492.57,88.727 490.455,88.727 L439.545,88.727 C437.43,88.727 435.903,90.754 436.487,92.787 L442.214,112.737 C442.971,115.436 445.432,117.327 448.254,117.363 L481.705,117.364 C484.56,117.355 487.054,115.459 487.823,112.718 C488.392,110.689 486.867,108.677 484.759,108.677 L484.727,108.677 L484.727,111.859 L487.786,112.737 Z M481.669,110.981 C481.085,113.015 482.612,115.041 484.727,115.041 L484.759,115.041 L484.759,111.859 L481.695,111 C481.695,111 481.695,111 481.695,111 L448.295,111 C448.336,111 448.336,111 448.336,111 L442.604,91.031 L439.545,95.091 L490.455,95.091 L487.396,91.031 L481.669,110.981 Z" />
            <path d="M449.091,114.182 L449.091,142.818 C449.091,144.575 450.515,146 452.273,146 C454.03,146 455.455,144.575 455.455,142.818 L455.455,114.182 C455.455,112.425 454.03,111 452.273,111 C450.515,111 449.091,112.425 449.091,114.182 Z" />
            <path d="M480.909,142.818 L480.909,114.182 C480.909,112.425 479.485,111 477.727,111 C475.97,111 474.545,112.425 474.545,114.182 L474.545,142.818 C474.545,144.575 475.97,146 477.727,146 C479.485,146 480.909,144.575 480.909,142.818 Z" />
            <path d="M452.305,92.359 L455.487,114.632 C455.735,116.371 457.347,117.58 459.086,117.332 C460.826,117.083 462.035,115.471 461.786,113.732 L458.604,91.459 C458.356,89.72 456.744,88.511 455.005,88.759 C453.265,89.008 452.056,90.619 452.305,92.359 Z" />
            <path d="M471.396,91.459 L468.214,113.732 C467.965,115.471 469.174,117.083 470.914,117.332 C472.653,117.58 474.265,116.371 474.513,114.632 L477.695,92.359 C477.944,90.619 476.735,89.008 474.995,88.759 C473.256,88.511 471.644,89.72 471.396,91.459 Z" />
            <path d="M468.182,91.909 L468.182,79.182 C468.182,77.425 466.757,76 465,76 C463.243,76 461.818,77.425 461.818,79.182 L461.818,91.909 C461.818,93.666 463.243,95.091 465,95.091 C466.757,95.091 468.182,93.666 468.182,91.909 Z" />
            <path d="M468.182,76 L461.818,76 C460.061,76 458.636,77.425 458.636,79.182 C458.636,80.939 460.061,82.364 461.818,82.364 L468.182,82.364 C469.939,82.364 471.364,80.939 471.364,79.182 C471.364,77.425 469.939,76 468.182,76 Z" />
        </g>
        <g id="Black-M" transform="translate(0,200)">
            <path d="M687.786,112.737 L693.513,92.787 C694.097,90.754 692.57,88.727 690.455,88.727 L639.545,88.727 C637.43,88.727 635.903,90.754 636.487,92.787 L642.214,112.737 C642.971,115.436 645.432,117.327 648.254,117.363 L681.705,117.364 C684.56,117.355 687.054,115.459 687.823,112.718 C688.392,110.689 686.867,108.677 684.759,108.677 L684.727,108.677 L684.727,111.859 L687.786,112.737 Z M681.669,110.981 C681.085,113.015 682.612,115.041 684.727,115.041 L684.759,115.041 L684.759,111.859 L681.695,111 C681.695,111 681.695,111 681.695,111 L648.295,111 C648.336,111 648.336,111 648.336,111 L642.604,91.031 L639.545,95.091 L690.455,95.091 L687.396,91.031 L681.669,110.981 Z" />
            <path d="M649.091,114.182 L649.091,142.818 C649.091,144.575 650.515,146 652.273,146 C654.03,146 655.455,144.575 655.455,142.818 L655.455,114.182 C655.455,112.425 654.03,111 652.273,111 C650.515,111 649.091,112.425 649.091,114.182 Z" />
            <path d="M680.909,142.818 L680.909,114.182 C680.909,112.425 679.485,111 677.727,111 C675.97,111 674.545,112.425 674.545,114.182 L674.545,142.818 C674.545,144.575 675.97,146 677.727,146 C679.485,146 680.909,144.575 680.909,142.818 Z" />
            <path d="M652.305,92.359 L655.487,114.632 C655.735,116.371 657.347,117.58 659.086,117.332 C660.826,117.083 662.035,115.471 661.786,113.732 L658.604,91.459 C658.356,89.72 656.744,88.511 655.005,88.759 C653.265,89.008 652.056,90.619 652.305,92.359 Z" />
            <path d="M671.396,91.459 L668.214,113.732 C667.965,115.471 669.174,117.083 670.914,117.332 C672.653,117.58 674.265,116.371 674.513,114.632 L677.695,92.359 C677.944,90.619 676.735,89.008 674.995,88.759 C673.256,88.511 671.644,89.72 671.396,91.459 Z" />
            <path d="M668.182,91.909 L668.182,79.182 C668.182,77.425 666.757,76 665,76 C663.243,76 661.818,77.425 661.818,79.182 L661.818,91.909 C661.818,93.666 663.243,95.091 665,95.091 C666.757,95.091 668.182,93.666 668.182,91.909 Z" />
            <path d="M668.182,76 L661.818,76 C660.061,76 658.636,77.425 658.636,79.182 C658.636,80.939 660.061,82.364 661.818,82.364 L668.182,82.364 C669.939,82.364 671.364,80.939 671.364,79.182 C671.364,77.425 669.939,76 668.182,76 Z" />
        </g>
    </g>
</svg>