<?xml version="1.0" encoding="UTF-8"?>
<svg height="600" width="800" xmlns="http://www.w3.org/2000/svg" xmlns:xlink="http://www.w3.org/1999/xlink">
    <g id="Notes" font-family="LucidaGrande, 'Lucida Grande', sans-serif" font-size="13">
        <rect fill="white" height="600.0" width="800.0" x="0.0" y="0.0" />
        <g font-size="13">
            <text x="18.0" y="176.0">Small</text>
            <text x="18.0" y="376.0">Medium</text>
            <text x="18.0" y="576.0">Large</text>
        </g>
        <g font-size="9">
            <text x="250.0" y="30.0">Ultralight</text>
            <text x="450.0" y="30.0">Regular</text>
            <text x="650.0" y="30.0">Black</text>
            <text id="template-version" fill="#505050" text-anchor="end" x="785.0" y="575.0">Template v.3.0</text>
            <a href="https://github.com/swhitty/SwiftDraw">
                <text fill="#505050" text-anchor="end" x="785.0" y="590.0">https://github.com/swhitty/SwiftDraw</text>
            </a>
        </g>
    </g>
    <g id="Guides" stroke="rgb(39, 170, 225)" stroke-width="0.5">
        <path id="Capline-S" d="M18,76 l800,0" />
        <path id="H-reference" d="M85,145.755 L87.685,145.755 L113.369,79.287 L114.052,79.287 L114.052,76 L112.148,76 L85,145.755 Z M95.693,121.536 L130.996,121.536 L130.263,119.313 L96.474,119.313 L95.693,121.536 Z M139.15,145.755 L141.787,145.755 L114.638,76 L113.466,76 L113.466,79.287 L139.15,145.755 Z" stroke="none" transform="translate(0,200)" />
        <path id="Baseline-S" d="M18,146 l800,0" />
        <path id="left-margin-Ultralight-M" d="M224.167,256 l0,110" />
        <path id="right-margin-Ultralight-M" d="M305.833,256 l0,110" />
        <path id="left-margin-Regular-M" d="M424.167,256 l0,110" />
        <path id="right-margin-Regular-M" d="M505.833,256 l0,110" />
        <path id="left-margin-Black-M" d="M624.167,256 l0,110" />
        <path id="right-margin-Black-M" d="M705.833,256 l0,110" />
        <path id="Capline-M" d="M18,276 l800,0" />
        <path id="Baseline-M" d="M18,346 l800,0" />
        <path id="Capline-L" d="M18,476 l800,0" />
        <path id="Baseline-L" d="M18,546 l800,0" />
    </g>
    <g id="Symbols">
        <g id="Ultralight-M" transform="translate(0,200)">
            <path d="M257.566,110.987 L298.76,114.487 L299.066,110.611 L298.343,114.427 C298.343,114.427 298.343,114.427 298.343,114.427 L295.873,130.445 C295.873,130.444 295.873,130.444 295.873,130.444 L295.321,130.444 C293.252,130.444 291.576,132.186 291.576,134.333 C291.576,136.481 293.252,138.222 295.321,138.222 L295.871,138.222 C299.55,138.224 302.687,135.448 303.269,131.673 L305.76,115.503 C306.245,111.31 303.633,107.58 299.788,106.795 L299.371,106.735 L258.177,103.235 C256.115,103.06 254.307,104.653 254.139,106.794 C253.97,108.935 255.504,110.812 257.566,110.987 Z" />
            <path d="M280.341,130.444 L261.616,130.444 C259.548,130.444 257.871,132.186 257.871,134.333 C257.871,136.481 259.548,138.222 261.616,138.222 L280.341,138.222 C282.409,138.222 284.086,136.481 284.086,134.333 C284.086,132.186 282.409,130.444 280.341,130.444 Z" />
            <path d="M287.831,79.889 C285.844,79.889 283.939,80.708 282.535,82.167 C281.13,83.626 280.341,85.604 280.341,87.667 L280.341,109.339 C280.341,111.487 282.018,113.228 284.086,113.228 C286.154,113.228 287.831,111.487 287.831,109.339 L287.831,87.667 C287.831,87.667 287.831,87.667 287.831,87.667 C287.831,87.667 287.831,87.667 287.831,87.667 C289.899,87.667 291.576,85.926 291.576,83.778 C291.576,81.63 289.899,79.889 287.831,79.889 Z" />
            <path d="M231.657,83.778 L262.099,83.778 C262.097,83.778 262.097,83.778 262.097,83.778 L265.396,108.599 C265.679,110.727 267.569,112.214 269.618,111.92 C271.667,111.626 273.099,109.664 272.816,107.536 L269.517,82.713 C269.004,78.867 265.84,76.002 262.101,76 L231.657,76 C229.588,76 227.912,77.741 227.912,79.889 C227.912,82.037 229.588,83.778 231.657,83.778 Z" />
            <path d="M239.146,107.111 L239.146,79.889 C239.146,77.741 237.47,76 235.402,76 C233.333,76 231.657,77.741 231.657,79.889 L231.657,107.111 C231.657,109.259 233.333,111 235.402,111 C237.47,111 239.146,109.259 239.146,107.111 Z" />
            <path d="M246.636,126.556 L246.674,126.556 C248.742,126.556 250.419,124.814 250.419,122.667 C250.419,120.519 248.742,118.778 246.674,118.778 L246.636,118.778 C244.568,118.778 242.891,120.519 242.891,122.667 C242.891,124.814 244.568,126.556 246.636,126.556 Z" />
            <path d="M254.126,103.611 L254.126,79.889 C254.126,77.741 252.45,76 250.381,76 C248.313,76 246.636,77.741 246.636,79.889 L246.636,103.611 C246.636,105.759 248.313,107.5 250.381,107.5 C252.45,107.5 254.126,105.759 254.126,103.611 Z" />
            <path d="M284.086,134.333 C284.086,132.186 285.763,130.444 287.831,130.444 C289.899,130.444 291.576,132.186 291.576,134.333 C291.576,136.481 289.899,138.222 287.831,138.222 C285.763,138.222 284.086,136.481 284.086,134.333 Z M276.596,134.333 C276.596,140.777 281.626,146 287.831,146 C294.036,146 299.066,140.777 299.066,134.333 C299.066,127.89 294.036,122.667 287.831,122.667 C281.626,122.667 276.596,127.89 276.596,134.333 Z" />
            <path d="M231.657,122.667 C231.657,114.076 238.363,107.111 246.636,107.111 C254.909,107.111 261.616,114.076 261.616,122.667 C261.616,131.258 254.909,138.222 246.636,138.222 C238.363,138.222 231.657,131.258 231.657,122.667 Z M224.167,122.667 C224.167,135.553 234.227,146 246.636,146 C259.046,146 269.106,135.553 269.106,122.667 C269.106,109.78 259.046,99.333 246.636,99.333 C234.227,99.333 224.167,109.78 224.167,122.667 Z" />
        </g>
        <g id="Regular-M" transform="translate(0,200)">
            <path d="M457.566,110.987 L498.76,114.487 L499.066,110.611 L498.343,114.427 C498.343,114.427 498.343,114.427 498.343,114.427 L495.873,130.445 C495.873,130.444 495.873,130.444 495.873,130.444 L495.321,130.444 C493.252,130.444 491.576,132.186 491.576,134.333 C491.576,136.481 493.252,138.222 495.321,138.222 L495.871,138.222 C499.55,138.224 502.687,135.448 503.269,131.673 L505.76,115.503 C506.245,111.31 503.633,107.58 499.788,106.795 L499.371,106.735 L458.177,103.235 C456.115,103.06 454.307,104.653 454.139,106.794 C453.97,108.935 455.504,110.812 457.566,110.987 Z" />
            <path d="M480.341,130.444 L461.616,130.444 C459.548,130.444 457.871,132.186 457.871,134.333 C457.871,136.481 459.548,138.222 461.616,138.222 L480.341,138.222 C482.409,138.222 484.086,136.481 484.086,134.333 C484.086,132.186 482.409,130.444 480.341,130.444 Z" />
            <path d="M487.831,79.889 C485.844,79.889 483.939,80.708 482.535,82.167 C481.13,83.626 480.341,85.604 480.341,87.667 L480.341,109.339 C480.341,111.487 482.018,113.228 484.086,113.228 C486.154,113.228 487.831,111.487 487.831,109.339 L487.831,87.667 C487.831,87.667 487.831,87.667 487.831,87.667 C487.831,87.667 487.831,87.667 487.831,87.667 C489.899,87.667 491.576,85.926 491.576,83.778 C491.576,81.63 489.899,79.889 487.831,79.889 Z" />
            <path d="M431.657,83.778 L462.099,83.778 C462.097,83.778 462.097,83.778 462.097,83.778 L465.396,108.599 C465.679,110.727 467.569,112.214 469.618,111.92 C471.667,111.626 473.099,109.664 472.816,107.536 L469.517,82.713 C469.004,78.867 465.84,76.002 462.101,76 L431.657,76 C429.588,76 427.912,77.741 427.912,79.889 C427.912,82.037 429.588,83.778 431.657,83.778 Z" />
            <path d="M439.146,107.111 L439.146,79.889 C439.146,77.741 437.47,76 435.401,76 C433.333,76 431.657,77.741 431.657,79.889 L431.657,107.111 C431.657,109.259 433.333,111 435.401,111 C437.47,111 439.146,109.259 439.146,107.111 Z" />
            <path d="M446.636,126.556 L446.674,126.556 C448.742,126.556 450.419,124.814 450.419,122.667 C450.419,120.519 448.742,118.778 446.674,118.778 L446.636,118.778 C444.568,118.778 442.891,120.519 442.891,122.667 C442.891,124.814 444.568,126.556 446.636,126.556 Z" />
            <path d="M454.126,103.611 L454.126,79.889 C454.126,77.741 452.45,76 450.381,76 C448.313,76 446.636,77.741 446.636,79.889 L446.636,103.611 C446.636,105.759 448.313,107.5 450.381,107.5 C452.45,107.5 454.126,105.759 454.126,103.611 Z" />
            <path d="M484.086,134.333 C484.086,132.186 485.762,130.444 487.831,130.444 C489.899,130.444 491.576,132.186 491.576,134.333 C491.576,136.481 489.899,138.222 487.831,138.222 C485.762,138.222 484.086,136.481 484.086,134.333 Z M476.596,134.333 C476.596,140.777 481.626,146 487.831,146 C494.036,146 499.066,140.777 499.066,134.333 C499.066,127.89 494.036,122.667 487.831,122.667 C481.626,122.667 476.596,127.89 476.596,134.333 Z" />
            <path d="M431.657,122.667 C431.657,114.076 438.363,107.111 446.636,107.111 C454.909,107.111 461.616,114.076 461.616,122.667 C461.616,131.258 454.909,138.222 446.636,138.222 C438.363,138.222 431.657,131.258 431.657,122.667 Z M424.167,122.667 C424.167,135.553 434.227,146 446.636,146 C459.046,146 469.106,135.553 469.106,122.667 C469.106,109.78 459.046,99.333 446.636,99.333 C434.227,99.333 424.167,109.78 424.167,122.667 Z" />
        </g>
        <g id="Black-M" transform="translate(0,200)">
            <path d="M657.566,110.987 L698.76,114.487 L699.066,110.611 L698.343,114.427 C698.343,114.427 698.343,114.427 698.343,114.427 L695.873,130.445 C695.873,130.444 695.873,130.444 695.873,130.444 L695.321,130.444 C693.252,130.444 691.576,132.186 691.576,134.333 C691.576,136.481 693.252,138.222 695.321,138.222 L695.871,138.222 C699.55,138.224 702.687,135.448 703.269,131.673 L705.76,115.503 C706.245,111.31 703.633,107.58 699.788,106.795 L699.371,106.735 L658.177,103.235 C656.115,103.06 654.307,104.653 654.139,106.794 C653.97,108.935 655.504,110.812 657.566,110.987 Z" />
            <path d="M680.341,130.444 L661.616,130.444 C659.548,130.444 657.871,132.186 657.871,134.333 C657.871,136.481 659.548,138.222 661.616,138.222 L680.341,138.222 C682.409,138.222 684.086,136.481 684.086,134.333 C684.086,132.186 682.409,130.444 680.341,130.444 Z" />
            <path d="M687.831,79.889 C685.844,79.889 683.939,80.708 682.535,82.167 C681.13,83.626 680.341,85.604 680.341,87.667 L680.341,109.339 C680.341,111.487 682.018,113.228 684.086,113.228 C686.154,113.228 687.831,111.487 687.831,109.339 L687.831,87.667 C687.831,87.667 687.831,87.667 687.831,87.667 C687.831,87.667 687.831,87.667 687.831,87.667 C689.899,87.667 691.576,85.926 691.576,83.778 C691.576,81.63 689.899,79.889 687.831,79.889 Z" />
            <path d="M631.657,83.778 L662.099,83.778 C662.097,83.778 662.097,83.778 662.097,83.778 L665.396,108.599 C665.679,110.727 667.569,112.214 669.618,111.92 C671.667,111.626 673.099,109.664 672.816,107.536 L669.517,82.713 C669.004,78.867 665.84,76.002 662.101,76 L631.657,76 C629.588,76 627.912,77.741 627.912,79.889 C627.912,82.037 629.588,83.778 631.657,83.778 Z" />
            <path d="M639.146,107.111 L639.146,79.889 C639.146,77.741 637.47,76 635.402,76 C633.333,76 631.657,77.741 631.657,79.889 L631.657,107.111 C631.657,109.259 633.333,111 635.402,111 C637.47,111 639.146,109.259 639.146,107.111 Z" />
            <path d="M646.636,126.556 L646.674,126.556 C648.742,126.556 650.419,124.814 650.419,122.667 C650.419,120.519 648.742,118.778 646.674,118.778 L646.636,118.778 C644.568,118.778 642.891,120.519 642.891,122.667 C642.891,124.814 644.568,126.556 646.636,126.556 Z" />
            <path d="M654.126,103.611 L654.126,79.889 C654.126,77.741 652.45,76 650.381,76 C648.313,76 646.636,77.741 646.636,79.889 L646.636,103.611 C646.636,105.759 648.313,107.5 650.381,107.5 C652.45,107.5 654.126,105.759 654.126,103.611 Z" />
            <path d="M684.086,134.333 C684.086,132.186 685.763,130.444 687.831,130.444 C689.899,130.444 691.576,132.186 691.576,134.333 C691.576,136.481 689.899,138.222 687.831,138.222 C685.763,138.222 684.086,136.481 684.086,134.333 Z M676.596,134.333 C676.596,140.777 681.626,146 687.831,146 C694.036,146 699.066,140.777 699.066,134.333 C699.066,127.89 694.036,122.667 687.831,122.667 C681.626,122.667 676.596,127.89 676.596,134.333 Z" />
            <path d="M631.657,122.667 C631.657,114.076 638.363,107.111 646.636,107.111 C654.909,107.111 661.616,114.076 661.616,122.667 C661.616,131.258 654.909,138.222 646.636,138.222 C638.363,138.222 631.657,131.258 631.657,122.667 Z M624.167,122.667 C624.167,135.553 634.227,146 646.636,146 C659.046,146 669.106,135.553 669.106,122.667 C669.106,109.78 659.046,99.333 646.636,99.333 C634.227,99.333 624.167,109.78 624.167,122.667 Z" />
        </g>
    </g>
</svg>