<?xml version="1.0" encoding="UTF-8"?>
<svg height="600" width="800" xmlns="http://www.w3.org/2000/svg" xmlns:xlink="http://www.w3.org/1999/xlink">
    <g id="Notes" font-family="LucidaGrande, 'Lucida Grande', sans-serif" font-size="13">
        <rect fill="white" height="600.0" width="800.0" x="0.0" y="0.0" />
        <g font-size="13">
            <text x="18.0" y="176.0">Small</text>
            <text x="18.0" y="376.0">Medium</text>
            <text x="18.0" y="576.0">Large</text>
        </g>
        <g font-size="9">
            <text x="250.0" y="30.0">Ultralight</text>
            <text x="450.0" y="30.0">Regular</text>
            <text x="650.0" y="30.0">Black</text>
            <text id="template-version" fill="#505050" text-anchor="end" x="785.0" y="575.0">Template v.3.0</text>
            <a href="https://github.com/swhitty/SwiftDraw">
                <text fill="#505050" text-anchor="end" x="785.0" y="590.0">https://github.com/swhitty/SwiftDraw</text>
            </a>
        </g>
    </g>
    <g id="Guides" stroke="rgb(39, 170, 225)" stroke-width="0.5">
        <path id="Capline-S" d="M18,76 l800,0" />
        <path id="H-reference" d="M85,145.755 L87.685,145.755 L113.369,79.287 L114.052,79.287 L114.052,76 L112.148,76 L85,145.755 Z M95.693,121.536 L130.996,121.536 L130.263,119.313 L96.474,119.313 L95.693,121.536 Z M139.15,145.755 L141.787,145.755 L114.638,76 L113.466,76 L113.466,79.287 L139.15,145.755 Z" stroke="none" transform="translate(0,200)" />
        <path id="Baseline-S" d="M18,146 l800,0" />
        <path id="left-margin-Ultralight-M" d="M230,256 l0,110" />
        <path id="right-margin-Ultralight-M" d="M300,256 l0,110" />
        <path id="left-margin-Regular-M" d="M430,256 l0,110" />
        <path id="right-margin-Regular-M" d="M500,256 l0,110" />
        <path id="left-margin-Black-M" d="M630,256 l0,110" />
        <path id="right-margin-Black-M" d="M700,256 l0,110" />
        <path id="Capline-M" d="M18,276 l800,0" />
        <path id="Baseline-M" d="M18,346 l800,0" />
        <path id="Capline-L" d="M18,476 l800,0" />
        <path id="Baseline-L" d="M18,546 l800,0" />
    </g>
    <g id="Symbols">
        <g id="Ultralight-M" transform="translate(0,200)">
            <path d="M261.818,123.727 L261.818,142.818 C261.818,144.575 263.243,146 265,146 C266.757,146 268.182,144.575 268.182,142.818 L268.182,123.727 C268.182,121.97 266.757,120.545 265,120.545 C263.243,120.545 261.818,121.97 261.818,123.727 Z" />
            <path d="M271.364,133.273 L258.636,133.273 C256.879,133.273 255.455,134.697 255.455,136.455 C255.455,138.212 256.879,139.636 258.636,139.636 L271.364,139.636 C273.121,139.636 274.545,138.212 274.545,136.455 C274.545,134.697 273.121,133.273 271.364,133.273 Z" />
            <path d="M284.091,82.364 L296.818,82.364 L293.636,79.182 L293.636,91.909 C293.636,93.666 295.061,95.091 296.818,95.091 C298.575,95.091 300,93.666 300,91.909 L300,79.182 C300,77.425 298.575,76 296.818,76 L284.091,76 C282.334,76 280.909,77.425 280.909,79.182 C280.909,80.939 282.334,82.364 284.091,82.364 Z" />
            <path d="M230.932,81.432 L253.746,104.245 C254.988,105.488 257.003,105.488 258.245,104.245 C259.488,103.003 259.488,100.988 258.245,99.746 L235.432,76.932 C234.189,75.689 232.175,75.689 230.932,76.932 C229.689,78.175 229.689,80.189 230.932,81.432 Z" />
            <path d="M236.364,89.857 L236.364,79.182 L233.182,82.364 L243.863,82.364 C245.62,82.364 247.045,80.939 247.045,79.182 C247.045,77.425 245.62,76 243.863,76 L233.182,76 C231.425,76 230,77.425 230,79.182 L230,89.857 C230,91.614 231.425,93.039 233.182,93.039 C234.939,93.039 236.364,91.614 236.364,89.857 Z" />
            <path d="M294.568,76.932 L271.755,99.746 C270.512,100.988 270.512,103.003 271.755,104.245 C272.997,105.488 275.012,105.488 276.254,104.245 L299.068,81.432 C300.311,80.189 300.311,78.175 299.068,76.932 C297.826,75.689 295.811,75.689 294.568,76.932 Z" />
            <path d="M250.023,86.477 L240.477,96.023 C239.235,97.265 239.235,99.28 240.477,100.523 C241.72,101.765 243.735,101.765 244.977,100.523 L254.523,90.977 C255.765,89.735 255.765,87.72 254.523,86.477 C253.28,85.235 251.265,85.235 250.023,86.477 Z" />
            <path d="M255.455,111 C255.455,105.728 259.728,101.455 265,101.455 C270.272,101.455 274.545,105.728 274.545,111 C274.545,116.272 270.272,120.545 265,120.545 C259.728,120.545 255.455,116.272 255.455,111 Z M249.091,111 C249.091,119.786 256.214,126.909 265,126.909 C273.786,126.909 280.909,119.786 280.909,111 C280.909,102.214 273.786,95.091 265,95.091 C256.214,95.091 249.091,102.214 249.091,111 Z" />
        </g>
        <g id="Regular-M" transform="translate(0,200)">
            <path d="M461.818,123.727 L461.818,142.818 C461.818,144.575 463.243,146 465,146 C466.757,146 468.182,144.575 468.182,142.818 L468.182,123.727 C468.182,121.97 466.757,120.545 465,120.545 C463.243,120.545 461.818,121.97 461.818,123.727 Z" />
            <path d="M471.364,133.273 L458.636,133.273 C456.879,133.273 455.455,134.697 455.455,136.455 C455.455,138.212 456.879,139.636 458.636,139.636 L471.364,139.636 C473.121,139.636 474.545,138.212 474.545,136.455 C474.545,134.697 473.121,133.273 471.364,133.273 Z" />
            <path d="M484.091,82.364 L496.818,82.364 L493.636,79.182 L493.636,91.909 C493.636,93.666 495.061,95.091 496.818,95.091 C498.575,95.091 500,93.666 500,91.909 L500,79.182 C500,77.425 498.575,76 496.818,76 L484.091,76 C482.334,76 480.909,77.425 480.909,79.182 C480.909,80.939 482.334,82.364 484.091,82.364 Z" />
            <path d="M430.932,81.432 L453.746,104.245 C454.988,105.488 457.003,105.488 458.245,104.245 C459.488,103.003 459.488,100.988 458.245,99.746 L435.432,76.932 C434.189,75.689 432.174,75.689 430.932,76.932 C429.689,78.175 429.689,80.189 430.932,81.432 Z" />
            <path d="M436.364,89.857 L436.364,79.182 L433.182,82.364 L443.863,82.364 C445.62,82.364 447.045,80.939 447.045,79.182 C447.045,77.425 445.62,76 443.863,76 L433.182,76 C431.425,76 430,77.425 430,79.182 L430,89.857 C430,91.614 431.425,93.039 433.182,93.039 C434.939,93.039 436.364,91.614 436.364,89.857 Z" />
            <path d="M494.568,76.932 L471.755,99.746 C470.512,100.988 470.512,103.003 471.755,104.245 C472.997,105.488 475.012,105.488 476.254,104.245 L499.068,81.432 C500.311,80.189 500.311,78.175 499.068,76.932 C497.826,75.689 495.811,75.689 494.568,76.932 Z" />
            <path d="M450.023,86.477 L440.477,96.023 C439.235,97.265 439.235,99.28 440.477,100.523 C441.72,101.765 443.735,101.765 444.977,100.523 L454.523,90.977 C455.765,89.735 455.765,87.72 454.523,86.477 C453.28,85.235 451.265,85.235 450.023,86.477 Z" />
            <path d="M455.455,111 C455.455,105.728 459.728,101.455 465,101.455 C470.272,101.455 474.545,105.728 474.545,111 C474.545,116.272 470.272,120.545 465,120.545 C459.728,120.545 455.455,116.272 455.455,111 Z M449.091,111 C449.091,119.786 456.214,126.909 465,126.909 C473.786,126.909 480.909,119.786 480.909,111 C480.909,102.214 473.786,95.091 465,95.091 C456.214,95.091 449.091,102.214 449.091,111 Z" />
        </g>
        <g id="Black-M" transform="translate(0,200)">
            <path d="M661.818,123.727 L661.818,142.818 C661.818,144.575 663.243,146 665,146 C666.757,146 668.182,144.575 668.182,142.818 L668.182,123.727 C668.182,121.97 666.757,120.545 665,120.545 C663.243,120.545 661.818,121.97 661.818,123.727 Z" />
            <path d="M671.364,133.273 L658.636,133.273 C656.879,133.273 655.455,134.697 655.455,136.455 C655.455,138.212 656.879,139.636 658.636,139.636 L671.364,139.636 C673.121,139.636 674.545,138.212 674.545,136.455 C674.545,134.697 673.121,133.273 671.364,133.273 Z" />
            <path d="M684.091,82.364 L696.818,82.364 L693.636,79.182 L693.636,91.909 C693.636,93.666 695.061,95.091 696.818,95.091 C698.575,95.091 700,93.666 700,91.909 L700,79.182 C700,77.425 698.575,76 696.818,76 L684.091,76 C682.334,76 680.909,77.425 680.909,79.182 C680.909,80.939 682.334,82.364 684.091,82.364 Z" />
            <path d="M630.932,81.432 L653.746,104.245 C654.988,105.488 657.003,105.488 658.245,104.245 C659.488,103.003 659.488,100.988 658.245,99.746 L635.432,76.932 C634.189,75.689 632.174,75.689 630.932,76.932 C629.689,78.175 629.689,80.189 630.932,81.432 Z" />
            <path d="M636.364,89.857 L636.364,79.182 L633.182,82.364 L643.863,82.364 C645.62,82.364 647.045,80.939 647.045,79.182 C647.045,77.425 645.62,76 643.863,76 L633.182,76 C631.425,76 630,77.425 630,79.182 L630,89.857 C630,91.614 631.425,93.039 633.182,93.039 C634.939,93.039 636.364,91.614 636.364,89.857 Z" />
            <path d="M694.568,76.932 L671.755,99.746 C670.512,100.988 670.512,103.003 671.755,104.245 C672.997,105.488 675.012,105.488 676.254,104.245 L699.068,81.432 C700.311,80.189 700.311,78.175 699.068,76.932 C697.826,75.689 695.811,75.689 694.568,76.932 Z" />
            <path d="M650.023,86.477 L640.477,96.023 C639.235,97.265 639.235,99.28 640.477,100.523 C641.72,101.765 643.735,101.765 644.977,100.523 L654.523,90.977 C655.765,89.735 655.765,87.72 654.523,86.477 C653.28,85.235 651.265,85.235 650.023,86.477 Z" />
            <path d="M655.455,111 C655.455,105.728 659.728,101.455 665,101.455 C670.272,101.455 674.545,105.728 674.545,111 C674.545,116.272 670.272,120.545 665,120.545 C659.728,120.545 655.455,116.272 655.455,111 Z M649.091,111 C649.091,119.786 656.214,126.909 665,126.909 C673.786,126.909 680.909,119.786 680.909,111 C680.909,102.214 673.786,95.091 665,95.091 C656.214,95.091 649.091,102.214 649.091,111 Z" />
        </g>
    </g>
</svg>