<?xml version="1.0" encoding="UTF-8"?>
<svg height="600" width="800" xmlns="http://www.w3.org/2000/svg" xmlns:xlink="http://www.w3.org/1999/xlink">
    <g id="Notes" font-family="LucidaGrande, 'Lucida Grande', sans-serif" font-size="13">
        <rect fill="white" height="600.0" width="800.0" x="0.0" y="0.0" />
        <g font-size="13">
            <text x="18.0" y="176.0">Small</text>
            <text x="18.0" y="376.0">Medium</text>
            <text x="18.0" y="576.0">Large</text>
        </g>
        <g font-size="9">
            <text x="250.0" y="30.0">Ultralight</text>
            <text x="450.0" y="30.0">Regular</text>
            <text x="650.0" y="30.0">Black</text>
            <text id="template-version" fill="#505050" text-anchor="end" x="785.0" y="575.0">Template v.3.0</text>
            <a href="https://github.com/swhitty/SwiftDraw">
                <text fill="#505050" text-anchor="end" x="785.0" y="590.0">https://github.com/swhitty/SwiftDraw</text>
            </a>
        </g>
    </g>
    <g id="Guides" stroke="rgb(39, 170, 225)" stroke-width="0.5">
        <path id="Capline-S" d="M18,76 l800,0" />
        <path id="H-reference" d="M85,145.755 L87.685,145.755 L113.369,79.287 L114.052,79.287 L114.052,76 L112.148,76 L85,145.755 Z M95.693,121.536 L130.996,121.536 L130.263,119.313 L96.474,119.313 L95.693,121.536 Z M139.15,145.755 L141.787,145.755 L114.638,76 L113.466,76 L113.466,79.287 L139.15,145.755 Z" stroke="none" transform="translate(0,200)" />
        <path id="Baseline-S" d="M18,146 l800,0" />
        <path id="left-margin-Ultralight-M" d="M233.182,256 l0,110" />
        <path id="right-margin-Ultralight-M" d="M296.818,256 l0,110" />
        <path id="left-margin-Regular-M" d="M433.182,256 l0,110" />
        <path id="right-margin-Regular-M" d="M496.818,256 l0,110" />
        <path id="left-margin-Black-M" d="M633.182,256 l0,110" />
        <path id="right-margin-Black-M" d="M696.818,256 l0,110" />
        <path id="Capline-M" d="M18,276 l800,0" />
        <path id="Baseline-M" d="M18,346 l800,0" />
        <path id="Capline-L" d="M18,476 l800,0" />
        <path id="Baseline-L" d="M18,546 l800,0" />
    </g>
    <g id="Symbols">
        <g id="Ultralight-M" transform="translate(0,200)">
            <path d="M284.091,91.909 L284.091,136.455 C284.091,137.298 283.756,138.108 283.159,138.704 C282.562,139.301 281.753,139.636 280.909,139.636 L249.091,139.636 C248.247,139.636 247.438,139.301 246.841,138.704 C246.244,138.108 245.909,137.298 245.909,136.455 L245.909,91.909 C245.909,90.152 244.485,88.727 242.727,88.727 C240.97,88.727 239.545,90.152 239.545,91.909 L239.545,136.455 C239.545,138.986 240.551,141.414 242.341,143.204 C244.131,144.994 246.559,146 249.091,146 L280.909,146 C283.441,146 285.869,144.994 287.659,143.204 C289.449,141.414 290.455,138.986 290.455,136.455 L290.455,91.909 C290.455,90.152 289.03,88.727 287.273,88.727 C285.515,88.727 284.091,90.152 284.091,91.909 Z" />
            <path d="M236.364,95.091 L293.636,95.091 C295.394,95.091 296.818,93.666 296.818,91.909 C296.818,90.152 295.394,88.727 293.636,88.727 L236.364,88.727 C234.606,88.727 233.182,90.152 233.182,91.909 C233.182,93.666 234.606,95.091 236.364,95.091 Z" />
            <path d="M255.455,91.909 L255.455,85.545 C255.455,84.702 255.79,83.892 256.386,83.296 C256.983,82.699 257.793,82.364 258.636,82.364 L271.364,82.364 C272.208,82.364 273.017,82.699 273.614,83.296 C274.21,83.892 274.545,84.702 274.545,85.545 L274.545,91.909 C274.545,93.666 275.97,95.091 277.727,95.091 C279.485,95.091 280.909,93.666 280.909,91.909 L280.909,85.545 C280.909,83.014 279.903,80.586 278.113,78.796 C276.323,77.006 273.895,76 271.364,76 L258.636,76 C256.105,76 253.677,77.006 251.887,78.796 C250.097,80.586 249.091,83.014 249.091,85.545 L249.091,91.909 C249.091,93.666 250.515,95.091 252.273,95.091 C254.03,95.091 255.455,93.666 255.455,91.909 Z" />
        </g>
        <g id="Regular-M" transform="translate(0,200)">
            <path d="M484.091,91.909 L484.091,136.455 C484.091,137.298 483.756,138.108 483.159,138.704 C482.562,139.301 481.753,139.636 480.909,139.636 L449.091,139.636 C448.247,139.636 447.438,139.301 446.841,138.704 C446.244,138.108 445.909,137.298 445.909,136.455 L445.909,91.909 C445.909,90.152 444.485,88.727 442.727,88.727 C440.97,88.727 439.545,90.152 439.545,91.909 L439.545,136.455 C439.545,138.986 440.551,141.414 442.341,143.204 C444.131,144.994 446.559,146 449.091,146 L480.909,146 C483.441,146 485.869,144.994 487.659,143.204 C489.449,141.414 490.455,138.986 490.455,136.455 L490.455,91.909 C490.455,90.152 489.03,88.727 487.273,88.727 C485.515,88.727 484.091,90.152 484.091,91.909 Z" />
            <path d="M436.364,95.091 L493.636,95.091 C495.394,95.091 496.818,93.666 496.818,91.909 C496.818,90.152 495.394,88.727 493.636,88.727 L436.364,88.727 C434.606,88.727 433.182,90.152 433.182,91.909 C433.182,93.666 434.606,95.091 436.364,95.091 Z" />
            <path d="M455.455,91.909 L455.455,85.545 C455.455,84.702 455.79,83.892 456.386,83.296 C456.983,82.699 457.793,82.364 458.636,82.364 L471.364,82.364 C472.208,82.364 473.017,82.699 473.614,83.296 C474.21,83.892 474.545,84.702 474.545,85.545 L474.545,91.909 C474.545,93.666 475.97,95.091 477.727,95.091 C479.485,95.091 480.909,93.666 480.909,91.909 L480.909,85.545 C480.909,83.014 479.903,80.586 478.113,78.796 C476.323,77.006 473.895,76 471.364,76 L458.636,76 C456.105,76 453.677,77.006 451.887,78.796 C450.097,80.586 449.091,83.014 449.091,85.545 L449.091,91.909 C449.091,93.666 450.515,95.091 452.273,95.091 C454.03,95.091 455.455,93.666 455.455,91.909 Z" />
        </g>
        <g id="Black-M" transform="translate(0,200)">
            <path d="M684.091,91.909 L684.091,136.455 C684.091,137.298 683.756,138.108 683.159,138.704 C682.562,139.301 681.753,139.636 680.909,139.636 L649.091,139.636 C648.247,139.636 647.438,139.301 646.841,138.704 C646.244,138.108 645.909,137.298 645.909,136.455 L645.909,91.909 C645.909,90.152 644.485,88.727 642.727,88.727 C640.97,88.727 639.545,90.152 639.545,91.909 L639.545,136.455 C639.545,138.986 640.551,141.414 642.341,143.204 C644.131,144.994 646.559,146 649.091,146 L680.909,146 C683.441,146 685.869,144.994 687.659,143.204 C689.449,141.414 690.455,138.986 690.455,136.455 L690.455,91.909 C690.455,90.152 689.03,88.727 687.273,88.727 C685.515,88.727 684.091,90.152 684.091,91.909 Z" />
            <path d="M636.364,95.091 L693.636,95.091 C695.394,95.091 696.818,93.666 696.818,91.909 C696.818,90.152 695.394,88.727 693.636,88.727 L636.364,88.727 C634.606,88.727 633.182,90.152 633.182,91.909 C633.182,93.666 634.606,95.091 636.364,95.091 Z" />
            <path d="M655.455,91.909 L655.455,85.545 C655.455,84.702 655.79,83.892 656.386,83.296 C656.983,82.699 657.792,82.364 658.636,82.364 L671.364,82.364 C672.208,82.364 673.017,82.699 673.614,83.296 C674.21,83.892 674.545,84.702 674.545,85.545 L674.545,91.909 C674.545,93.666 675.97,95.091 677.727,95.091 C679.485,95.091 680.909,93.666 680.909,91.909 L680.909,85.545 C680.909,83.014 679.903,80.586 678.113,78.796 C676.323,77.006 673.895,76 671.364,76 L658.636,76 C656.105,76 653.677,77.006 651.887,78.796 C650.097,80.586 649.091,83.014 649.091,85.545 L649.091,91.909 C649.091,93.666 650.515,95.091 652.273,95.091 C654.03,95.091 655.455,93.666 655.455,91.909 Z" />
        </g>
    </g>
</svg>