<?xml version="1.0" encoding="UTF-8"?>
<svg height="600" width="800" xmlns="http://www.w3.org/2000/svg" xmlns:xlink="http://www.w3.org/1999/xlink">
    <g id="Notes" font-family="LucidaGrande, 'Lucida Grande', sans-serif" font-size="13">
        <rect fill="white" height="600.0" width="800.0" x="0.0" y="0.0" />
        <g font-size="13">
            <text x="18.0" y="176.0">Small</text>
            <text x="18.0" y="376.0">Medium</text>
            <text x="18.0" y="576.0">Large</text>
        </g>
        <g font-size="9">
            <text x="250.0" y="30.0">Ultralight</text>
            <text x="450.0" y="30.0">Regular</text>
            <text x="650.0" y="30.0">Black</text>
            <text id="template-version" fill="#505050" text-anchor="end" x="785.0" y="575.0">Template v.3.0</text>
            <a href="https://github.com/swhitty/SwiftDraw">
                <text fill="#505050" text-anchor="end" x="785.0" y="590.0">https://github.com/swhitty/SwiftDraw</text>
            </a>
        </g>
    </g>
    <g id="Guides" stroke="rgb(39, 170, 225)" stroke-width="0.5">
        <path id="Capline-S" d="M18,76 l800,0" />
        <path id="H-reference" d="M85,145.755 L87.685,145.755 L113.369,79.287 L114.052,79.287 L114.052,76 L112.148,76 L85,145.755 Z M95.693,121.536 L130.996,121.536 L130.263,119.313 L96.474,119.313 L95.693,121.536 Z M139.15,145.755 L141.787,145.755 L114.638,76 L113.466,76 L113.466,79.287 L139.15,145.755 Z" stroke="none" transform="translate(0,200)" />
        <path id="Baseline-S" d="M18,146 l800,0" />
        <path id="left-margin-Ultralight-M" d="M228.333,256 l0,110" />
        <path id="right-margin-Ultralight-M" d="M301.667,256 l0,110" />
        <path id="left-margin-Regular-M" d="M428.333,256 l0,110" />
        <path id="right-margin-Regular-M" d="M501.667,256 l0,110" />
        <path id="left-margin-Black-M" d="M628.333,256 l0,110" />
        <path id="right-margin-Black-M" d="M701.667,256 l0,110" />
        <path id="Capline-M" d="M18,276 l800,0" />
        <path id="Baseline-M" d="M18,346 l800,0" />
        <path id="Capline-L" d="M18,476 l800,0" />
        <path id="Baseline-L" d="M18,546 l800,0" />
    </g>
    <g id="Symbols">
        <g id="Ultralight-M" transform="translate(0,200)">
            <path d="M271.667,96 C271.667,84.881 261.903,76 250,76 C238.097,76 228.333,84.881 228.333,96 C228.333,97.841 229.826,99.333 231.667,99.333 L238.333,99.333 C239.217,99.333 240.065,98.982 240.69,98.357 L244.024,95.024 L239.31,95.024 L242.643,98.357 C243.268,98.982 244.116,99.333 245,99.333 L258.333,99.333 C260.174,99.333 261.667,97.841 261.667,96 C261.667,94.159 260.174,92.667 258.333,92.667 L245,92.667 L247.357,93.643 L244.024,90.31 C242.722,89.008 240.611,89.008 239.31,90.31 L235.976,93.643 L238.333,92.667 L231.667,92.667 L235,96 C235,88.711 241.645,82.667 250,82.667 C258.355,82.667 265,88.711 265,96 C265,97.841 266.492,99.333 268.333,99.333 C270.174,99.333 271.667,97.841 271.667,96 Z" />
            <path d="M270.315,95.814 C273.11,93.747 276.501,92.643 279.977,92.667 C288.355,92.667 295,98.711 295,106 L298.333,102.667 L288.333,102.667 L290.69,103.643 L287.357,100.31 C286.055,99.008 283.945,99.008 282.643,100.31 L279.31,103.643 L281.667,102.667 L271.667,102.667 C269.826,102.667 268.333,104.159 268.333,106 C268.333,107.841 269.826,109.333 271.667,109.333 L281.667,109.333 C282.551,109.333 283.399,108.982 284.024,108.357 L287.357,105.024 L282.643,105.024 L285.976,108.357 C286.601,108.982 287.449,109.333 288.333,109.333 L298.333,109.333 C300.174,109.333 301.667,107.841 301.667,106 C301.667,94.881 291.903,86 280,86 C275.104,85.966 270.307,87.529 266.352,90.453 C264.871,91.547 264.559,93.635 265.653,95.115 C266.747,96.595 268.835,96.908 270.315,95.814 Z" />
            <path d="M242.276,99.343 C233.863,107.756 233.251,120.924 241.104,128.818 C242.405,130.126 244.523,130.128 245.826,128.821 L259.96,114.654 L262.29,112.324 L264.657,109.957 L271.724,102.89 C273.023,101.591 273.026,99.485 271.73,98.182 C263.879,90.291 250.703,90.917 242.276,99.343 C240.975,100.645 240.975,102.755 242.276,104.057 C243.578,105.359 245.689,105.359 246.99,104.057 C252.906,98.142 261.862,97.716 267.004,102.884 L267.01,98.176 L259.943,105.243 L257.576,107.61 L255.243,109.943 L241.107,124.112 L245.83,124.116 C240.669,118.928 241.086,109.962 246.99,104.057 C248.292,102.755 248.292,100.645 246.99,99.343 C245.689,98.041 243.578,98.041 242.276,99.343 Z" />
            <path d="M258.398,121.654 C259.675,128.038 258.668,133.164 255.255,141.389 C254.344,143.584 255.957,146 258.333,146 L271.667,146 C273.068,146 274.32,145.123 274.799,143.806 C276.061,140.337 276.868,136.656 277.262,132.784 C278.153,124.031 276.984,115.034 274.358,105.034 C273.667,102.401 271.733,95.855 271.567,95.192 C271.121,93.406 269.311,92.32 267.525,92.766 C265.739,93.213 264.653,95.022 265.1,96.808 C265.308,97.644 267.257,104.24 267.91,106.727 C270.351,116.023 271.425,124.292 270.629,132.109 C270.289,135.452 269.6,138.597 268.534,141.528 L271.667,139.333 L258.333,139.333 L261.412,143.944 C265.286,134.609 266.526,128.299 264.935,120.346 C264.574,118.541 262.818,117.37 261.013,117.731 C259.208,118.092 258.037,119.849 258.398,121.654 Z" />
        </g>
        <g id="Regular-M" transform="translate(0,200)">
            <path d="M471.667,96 C471.667,84.881 461.903,76 450,76 C438.097,76 428.333,84.881 428.333,96 C428.333,97.841 429.826,99.333 431.667,99.333 L438.333,99.333 C439.217,99.333 440.065,98.982 440.69,98.357 L444.024,95.024 L439.31,95.024 L442.643,98.357 C443.268,98.982 444.116,99.333 445,99.333 L458.333,99.333 C460.174,99.333 461.667,97.841 461.667,96 C461.667,94.159 460.174,92.667 458.333,92.667 L445,92.667 L447.357,93.643 L444.024,90.31 C442.722,89.008 440.611,89.008 439.31,90.31 L435.976,93.643 L438.333,92.667 L431.667,92.667 L435,96 C435,88.711 441.645,82.667 450,82.667 C458.355,82.667 465,88.711 465,96 C465,97.841 466.492,99.333 468.333,99.333 C470.174,99.333 471.667,97.841 471.667,96 Z" />
            <path d="M470.315,95.814 C473.11,93.747 476.501,92.643 479.977,92.667 C488.355,92.667 495,98.711 495,106 L498.333,102.667 L488.333,102.667 L490.69,103.643 L487.357,100.31 C486.055,99.008 483.945,99.008 482.643,100.31 L479.31,103.643 L481.667,102.667 L471.667,102.667 C469.826,102.667 468.333,104.159 468.333,106 C468.333,107.841 469.826,109.333 471.667,109.333 L481.667,109.333 C482.551,109.333 483.399,108.982 484.024,108.357 L487.357,105.024 L482.643,105.024 L485.976,108.357 C486.601,108.982 487.449,109.333 488.333,109.333 L498.333,109.333 C500.174,109.333 501.667,107.841 501.667,106 C501.667,94.881 491.903,86 480,86 C475.104,85.966 470.307,87.529 466.352,90.453 C464.871,91.547 464.559,93.635 465.653,95.115 C466.747,96.595 468.835,96.908 470.315,95.814 Z" />
            <path d="M442.276,99.343 C433.863,107.756 433.251,120.924 441.104,128.818 C442.405,130.126 444.523,130.128 445.826,128.821 L459.96,114.654 L462.29,112.324 L464.657,109.957 L471.724,102.89 C473.023,101.591 473.026,99.485 471.73,98.182 C463.879,90.291 450.703,90.917 442.276,99.343 C440.975,100.645 440.975,102.755 442.276,104.057 C443.578,105.359 445.689,105.359 446.99,104.057 C452.906,98.142 461.862,97.716 467.004,102.884 L467.01,98.176 L459.943,105.243 L457.576,107.61 L455.243,109.943 L441.107,124.112 L445.83,124.116 C440.669,118.928 441.086,109.962 446.99,104.057 C448.292,102.755 448.292,100.645 446.99,99.343 C445.689,98.041 443.578,98.041 442.276,99.343 Z" />
            <path d="M458.398,121.654 C459.675,128.038 458.668,133.164 455.255,141.389 C454.344,143.584 455.957,146 458.333,146 L471.667,146 C473.068,146 474.32,145.123 474.799,143.806 C476.061,140.337 476.868,136.656 477.262,132.784 C478.153,124.031 476.984,115.034 474.358,105.034 C473.667,102.401 471.733,95.855 471.567,95.192 C471.121,93.406 469.311,92.32 467.525,92.766 C465.739,93.213 464.653,95.022 465.1,96.808 C465.308,97.644 467.257,104.24 467.91,106.727 C470.351,116.023 471.425,124.292 470.629,132.109 C470.289,135.452 469.6,138.597 468.534,141.528 L471.667,139.333 L458.333,139.333 L461.412,143.944 C465.286,134.609 466.526,128.299 464.935,120.346 C464.574,118.541 462.818,117.37 461.013,117.731 C459.208,118.092 458.037,119.849 458.398,121.654 Z" />
        </g>
        <g id="Black-M" transform="translate(0,200)">
            <path d="M671.667,96 C671.667,84.881 661.903,76 650,76 C638.097,76 628.333,84.881 628.333,96 C628.333,97.841 629.826,99.333 631.667,99.333 L638.333,99.333 C639.217,99.333 640.065,98.982 640.69,98.357 L644.024,95.024 L639.31,95.024 L642.643,98.357 C643.268,98.982 644.116,99.333 645,99.333 L658.333,99.333 C660.174,99.333 661.667,97.841 661.667,96 C661.667,94.159 660.174,92.667 658.333,92.667 L645,92.667 L647.357,93.643 L644.024,90.31 C642.722,89.008 640.611,89.008 639.31,90.31 L635.976,93.643 L638.333,92.667 L631.667,92.667 L635,96 C635,88.711 641.645,82.667 650,82.667 C658.355,82.667 665,88.711 665,96 C665,97.841 666.492,99.333 668.333,99.333 C670.174,99.333 671.667,97.841 671.667,96 Z" />
            <path d="M670.315,95.814 C673.11,93.747 676.501,92.643 679.977,92.667 C688.355,92.667 695,98.711 695,106 L698.333,102.667 L688.333,102.667 L690.69,103.643 L687.357,100.31 C686.055,99.008 683.945,99.008 682.643,100.31 L679.31,103.643 L681.667,102.667 L671.667,102.667 C669.826,102.667 668.333,104.159 668.333,106 C668.333,107.841 669.826,109.333 671.667,109.333 L681.667,109.333 C682.551,109.333 683.399,108.982 684.024,108.357 L687.357,105.024 L682.643,105.024 L685.976,108.357 C686.601,108.982 687.449,109.333 688.333,109.333 L698.333,109.333 C700.174,109.333 701.667,107.841 701.667,106 C701.667,94.881 691.903,86 680,86 C675.104,85.966 670.307,87.529 666.352,90.453 C664.871,91.547 664.559,93.635 665.653,95.115 C666.747,96.595 668.835,96.908 670.315,95.814 Z" />
            <path d="M642.276,99.343 C633.863,107.756 633.251,120.924 641.104,128.818 C642.405,130.126 644.523,130.128 645.826,128.821 L659.96,114.654 L662.29,112.324 L664.657,109.957 L671.724,102.89 C673.023,101.591 673.026,99.485 671.73,98.182 C663.879,90.291 650.703,90.917 642.276,99.343 C640.975,100.645 640.975,102.755 642.276,104.057 C643.578,105.359 645.689,105.359 646.99,104.057 C652.906,98.142 661.862,97.716 667.004,102.884 L667.01,98.176 L659.943,105.243 L657.576,107.61 L655.243,109.943 L641.107,124.112 L645.83,124.116 C640.669,118.928 641.086,109.962 646.99,104.057 C648.292,102.755 648.292,100.645 646.99,99.343 C645.689,98.041 643.578,98.041 642.276,99.343 Z" />
            <path d="M658.398,121.654 C659.675,128.038 658.668,133.164 655.255,141.389 C654.344,143.584 655.957,146 658.333,146 L671.667,146 C673.068,146 674.32,145.123 674.799,143.806 C676.061,140.337 676.868,136.656 677.262,132.784 C678.153,124.031 676.984,115.034 674.358,105.034 C673.667,102.401 671.733,95.855 671.567,95.192 C671.121,93.406 669.311,92.32 667.525,92.766 C665.739,93.213 664.653,95.022 665.099,96.808 C665.308,97.644 667.257,104.24 667.91,106.727 C670.351,116.023 671.425,124.292 670.629,132.109 C670.289,135.452 669.6,138.597 668.534,141.528 L671.667,139.333 L658.333,139.333 L661.412,143.944 C665.286,134.609 666.526,128.299 664.935,120.346 C664.574,118.541 662.818,117.37 661.013,117.731 C659.208,118.092 658.037,119.849 658.398,121.654 Z" />
        </g>
    </g>
</svg>