<?xml version="1.0" encoding="UTF-8"?>
<svg height="600" width="800" xmlns="http://www.w3.org/2000/svg" xmlns:xlink="http://www.w3.org/1999/xlink">
    <g id="Notes" font-family="LucidaGrande, 'Lucida Grande', sans-serif" font-size="13">
        <rect fill="white" height="600.0" width="800.0" x="0.0" y="0.0" />
        <g font-size="13">
            <text x="18.0" y="176.0">Small</text>
            <text x="18.0" y="376.0">Medium</text>
            <text x="18.0" y="576.0">Large</text>
        </g>
        <g font-size="9">
            <text x="250.0" y="30.0">Ultralight</text>
            <text x="450.0" y="30.0">Regular</text>
            <text x="650.0" y="30.0">Black</text>
            <text id="template-version" fill="#505050" text-anchor="end" x="785.0" y="575.0">Template v.3.0</text>
            <a href="https://github.com/swhitty/SwiftDraw">
                <text fill="#505050" text-anchor="end" x="785.0" y="590.0">https://github.com/swhitty/SwiftDraw</text>
            </a>
        </g>
    </g>
    <g id="Guides" stroke="rgb(39, 170, 225)" stroke-width="0.5">
        <path id="Capline-S" d="M18,76 l800,0" />
        <path id="H-reference" d="M85,145.755 L87.685,145.755 L113.369,79.287 L114.052,79.287 L114.052,76 L112.148,76 L85,145.755 Z M95.693,121.536 L130.996,121.536 L130.263,119.313 L96.474,119.313 L95.693,121.536 Z M139.15,145.755 L141.787,145.755 L114.638,76 L113.466,76 L113.466,79.287 L139.15,145.755 Z" stroke="none" transform="translate(0,200)" />
        <path id="Baseline-S" d="M18,146 l800,0" />
        <path id="left-margin-Ultralight-M" d="M221,256 l0,110" />
        <path id="right-margin-Ultralight-M" d="M309,256 l0,110" />
        <path id="left-margin-Regular-M" d="M421,256 l0,110" />
        <path id="right-margin-Regular-M" d="M509,256 l0,110" />
        <path id="left-margin-Black-M" d="M621,256 l0,110" />
        <path id="right-margin-Black-M" d="M709,256 l0,110" />
        <path id="Capline-M" d="M18,276 l800,0" />
        <path id="Baseline-M" d="M18,346 l800,0" />
        <path id="Capline-L" d="M18,476 l800,0" />
        <path id="Baseline-L" d="M18,546 l800,0" />
    </g>
    <g id="Symbols">
        <g id="Ultralight-M" transform="translate(0,200)">
            <path d="M281,95 L305,95 L301,91 L301,115 C301,117.209 302.791,119 305,119 C307.209,119 309,117.209 309,115 L309,91 C309,88.791 307.209,87 305,87 L281,87 C278.791,87 277,88.791 277,91 C277,93.209 278.791,95 281,95 Z" />
            <path d="M302.172,88.172 L268.172,122.172 L273.828,122.172 L253.828,102.172 C252.266,100.609 249.734,100.609 248.172,102.172 L222.172,128.172 C220.609,129.734 220.609,132.266 222.172,133.828 C223.734,135.391 226.266,135.391 227.828,133.828 L253.828,107.828 L248.172,107.828 L268.172,127.828 C269.734,129.391 272.266,129.391 273.828,127.828 L307.828,93.828 C309.391,92.266 309.391,89.734 307.828,88.172 C306.266,86.609 303.734,86.609 302.172,88.172 Z" />
        </g>
        <g id="Regular-M" transform="translate(0,200)">
            <path d="M481,95 L505,95 L501,91 L501,115 C501,117.209 502.791,119 505,119 C507.209,119 509,117.209 509,115 L509,91 C509,88.791 507.209,87 505,87 L481,87 C478.791,87 477,88.791 477,91 C477,93.209 478.791,95 481,95 Z" />
            <path d="M502.172,88.172 L468.172,122.172 L473.828,122.172 L453.828,102.172 C452.266,100.609 449.734,100.609 448.172,102.172 L422.172,128.172 C420.609,129.734 420.609,132.266 422.172,133.828 C423.734,135.391 426.266,135.391 427.828,133.828 L453.828,107.828 L448.172,107.828 L468.172,127.828 C469.734,129.391 472.266,129.391 473.828,127.828 L507.828,93.828 C509.391,92.266 509.391,89.734 507.828,88.172 C506.266,86.609 503.734,86.609 502.172,88.172 Z" />
        </g>
        <g id="Black-M" transform="translate(0,200)">
            <path d="M681,95 L705,95 L701,91 L701,115 C701,117.209 702.791,119 705,119 C707.209,119 709,117.209 709,115 L709,91 C709,88.791 707.209,87 705,87 L681,87 C678.791,87 677,88.791 677,91 C677,93.209 678.791,95 681,95 Z" />
            <path d="M702.172,88.172 L668.172,122.172 L673.828,122.172 L653.828,102.172 C652.266,100.609 649.734,100.609 648.172,102.172 L622.172,128.172 C620.609,129.734 620.609,132.266 622.172,133.828 C623.734,135.391 626.266,135.391 627.828,133.828 L653.828,107.828 L648.172,107.828 L668.172,127.828 C669.734,129.391 672.266,129.391 673.828,127.828 L707.828,93.828 C709.391,92.266 709.391,89.734 707.828,88.172 C706.266,86.609 703.734,86.609 702.172,88.172 Z" />
        </g>
    </g>
</svg>