<?xml version="1.0" encoding="UTF-8"?>
<svg height="600" width="800" xmlns="http://www.w3.org/2000/svg" xmlns:xlink="http://www.w3.org/1999/xlink">
    <g id="Notes" font-family="LucidaGrande, 'Lucida Grande', sans-serif" font-size="13">
        <rect fill="white" height="600.0" width="800.0" x="0.0" y="0.0" />
        <g font-size="13">
            <text x="18.0" y="176.0">Small</text>
            <text x="18.0" y="376.0">Medium</text>
            <text x="18.0" y="576.0">Large</text>
        </g>
        <g font-size="9">
            <text x="250.0" y="30.0">Ultralight</text>
            <text x="450.0" y="30.0">Regular</text>
            <text x="650.0" y="30.0">Black</text>
            <text id="template-version" fill="#505050" text-anchor="end" x="785.0" y="575.0">Template v.3.0</text>
            <a href="https://github.com/swhitty/SwiftDraw">
                <text fill="#505050" text-anchor="end" x="785.0" y="590.0">https://github.com/swhitty/SwiftDraw</text>
            </a>
        </g>
    </g>
    <g id="Guides" stroke="rgb(39, 170, 225)" stroke-width="0.5">
        <path id="Capline-S" d="M18,76 l800,0" />
        <path id="H-reference" d="M85,145.755 L87.685,145.755 L113.369,79.287 L114.052,79.287 L114.052,76 L112.148,76 L85,145.755 Z M95.693,121.536 L130.996,121.536 L130.263,119.313 L96.474,119.313 L95.693,121.536 Z M139.15,145.755 L141.787,145.755 L114.638,76 L113.466,76 L113.466,79.287 L139.15,145.755 Z" stroke="none" transform="translate(0,200)" />
        <path id="Baseline-S" d="M18,146 l800,0" />
        <path id="left-margin-Ultralight-M" d="M228.25,256 l0,110" />
        <path id="right-margin-Ultralight-M" d="M301.75,256 l0,110" />
        <path id="left-margin-Regular-M" d="M428.25,256 l0,110" />
        <path id="right-margin-Regular-M" d="M501.75,256 l0,110" />
        <path id="left-margin-Black-M" d="M628.25,256 l0,110" />
        <path id="right-margin-Black-M" d="M701.75,256 l0,110" />
        <path id="Capline-M" d="M18,276 l800,0" />
        <path id="Baseline-M" d="M18,346 l800,0" />
        <path id="Capline-L" d="M18,476 l800,0" />
        <path id="Baseline-L" d="M18,546 l800,0" />
    </g>
    <g id="Symbols">
        <g id="Ultralight-M" transform="translate(0,200)">
            <path d="M274.173,123.373 L295.775,144.975 C297.142,146.342 299.358,146.342 300.725,144.975 C302.092,143.608 302.092,141.392 300.725,140.025 L279.123,118.423 C277.756,117.056 275.54,117.056 274.173,118.423 C272.806,119.79 272.806,122.006 274.173,123.373 Z" />
            <path d="M294.75,125 L294.75,142.5 L298.25,139 L280.75,139 C278.817,139 277.25,140.567 277.25,142.5 C277.25,144.433 278.817,146 280.75,146 L298.25,146 C300.183,146 301.75,144.433 301.75,142.5 L301.75,125 C301.75,123.067 300.183,121.5 298.25,121.5 C296.317,121.5 294.75,123.067 294.75,125 Z" />
            <path d="M295.775,77.025 L264.275,108.525 L269.225,108.525 L255.225,94.525 C253.858,93.158 251.642,93.158 250.275,94.525 L229.275,115.525 C227.908,116.892 227.908,119.108 229.275,120.475 C230.642,121.842 232.858,121.842 234.225,120.475 L255.225,99.475 L250.275,99.475 L264.275,113.475 C265.642,114.842 267.858,114.842 269.225,113.475 L300.725,81.975 C302.092,80.608 302.092,78.392 300.725,77.025 C299.358,75.658 297.142,75.658 295.775,77.025 Z" />
            <path d="M301.75,97 L301.75,79.5 C301.75,77.567 300.183,76 298.25,76 L280.75,76 C278.817,76 277.25,77.567 277.25,79.5 C277.25,81.433 278.817,83 280.75,83 L298.25,83 L294.75,79.5 L294.75,97 C294.75,98.933 296.317,100.5 298.25,100.5 C300.183,100.5 301.75,98.933 301.75,97 Z" />
        </g>
        <g id="Regular-M" transform="translate(0,200)">
            <path d="M474.173,123.373 L495.775,144.975 C497.142,146.342 499.358,146.342 500.725,144.975 C502.092,143.608 502.092,141.392 500.725,140.025 L479.123,118.423 C477.756,117.056 475.54,117.056 474.173,118.423 C472.806,119.79 472.806,122.006 474.173,123.373 Z" />
            <path d="M494.75,125 L494.75,142.5 L498.25,139 L480.75,139 C478.817,139 477.25,140.567 477.25,142.5 C477.25,144.433 478.817,146 480.75,146 L498.25,146 C500.183,146 501.75,144.433 501.75,142.5 L501.75,125 C501.75,123.067 500.183,121.5 498.25,121.5 C496.317,121.5 494.75,123.067 494.75,125 Z" />
            <path d="M495.775,77.025 L464.275,108.525 L469.225,108.525 L455.225,94.525 C453.858,93.158 451.642,93.158 450.275,94.525 L429.275,115.525 C427.908,116.892 427.908,119.108 429.275,120.475 C430.642,121.842 432.858,121.842 434.225,120.475 L455.225,99.475 L450.275,99.475 L464.275,113.475 C465.642,114.842 467.858,114.842 469.225,113.475 L500.725,81.975 C502.092,80.608 502.092,78.392 500.725,77.025 C499.358,75.658 497.142,75.658 495.775,77.025 Z" />
            <path d="M501.75,97 L501.75,79.5 C501.75,77.567 500.183,76 498.25,76 L480.75,76 C478.817,76 477.25,77.567 477.25,79.5 C477.25,81.433 478.817,83 480.75,83 L498.25,83 L494.75,79.5 L494.75,97 C494.75,98.933 496.317,100.5 498.25,100.5 C500.183,100.5 501.75,98.933 501.75,97 Z" />
        </g>
        <g id="Black-M" transform="translate(0,200)">
            <path d="M674.173,123.373 L695.775,144.975 C697.142,146.342 699.358,146.342 700.725,144.975 C702.092,143.608 702.092,141.392 700.725,140.025 L679.123,118.423 C677.756,117.056 675.54,117.056 674.173,118.423 C672.806,119.79 672.806,122.006 674.173,123.373 Z" />
            <path d="M694.75,125 L694.75,142.5 L698.25,139 L680.75,139 C678.817,139 677.25,140.567 677.25,142.5 C677.25,144.433 678.817,146 680.75,146 L698.25,146 C700.183,146 701.75,144.433 701.75,142.5 L701.75,125 C701.75,123.067 700.183,121.5 698.25,121.5 C696.317,121.5 694.75,123.067 694.75,125 Z" />
            <path d="M695.775,77.025 L664.275,108.525 L669.225,108.525 L655.225,94.525 C653.858,93.158 651.642,93.158 650.275,94.525 L629.275,115.525 C627.908,116.892 627.908,119.108 629.275,120.475 C630.642,121.842 632.858,121.842 634.225,120.475 L655.225,99.475 L650.275,99.475 L664.275,113.475 C665.642,114.842 667.858,114.842 669.225,113.475 L700.725,81.975 C702.092,80.608 702.092,78.392 700.725,77.025 C699.358,75.658 697.142,75.658 695.775,77.025 Z" />
            <path d="M701.75,97 L701.75,79.5 C701.75,77.567 700.183,76 698.25,76 L680.75,76 C678.817,76 677.25,77.567 677.25,79.5 C677.25,81.433 678.817,83 680.75,83 L698.25,83 L694.75,79.5 L694.75,97 C694.75,98.933 696.317,100.5 698.25,100.5 C700.183,100.5 701.75,98.933 701.75,97 Z" />
        </g>
    </g>
</svg>