<?xml version="1.0" encoding="UTF-8"?>
<svg height="600" width="800" xmlns="http://www.w3.org/2000/svg" xmlns:xlink="http://www.w3.org/1999/xlink">
    <g id="Notes" font-family="LucidaGrande, 'Lucida Grande', sans-serif" font-size="13">
        <rect fill="white" height="600.0" width="800.0" x="0.0" y="0.0" />
        <g font-size="13">
            <text x="18.0" y="176.0">Small</text>
            <text x="18.0" y="376.0">Medium</text>
            <text x="18.0" y="576.0">Large</text>
        </g>
        <g font-size="9">
            <text x="250.0" y="30.0">Ultralight</text>
            <text x="450.0" y="30.0">Regular</text>
            <text x="650.0" y="30.0">Black</text>
            <text id="template-version" fill="#505050" text-anchor="end" x="785.0" y="575.0">Template v.3.0</text>
            <a href="https://github.com/swhitty/SwiftDraw">
                <text fill="#505050" text-anchor="end" x="785.0" y="590.0">https://github.com/swhitty/SwiftDraw</text>
            </a>
        </g>
    </g>
    <g id="Guides" stroke="rgb(39, 170, 225)" stroke-width="0.5">
        <path id="Capline-S" d="M18,76 l800,0" />
        <path id="H-reference" d="M85,145.755 L87.685,145.755 L113.369,79.287 L114.052,79.287 L114.052,76 L112.148,76 L85,145.755 Z M95.693,121.536 L130.996,121.536 L130.263,119.313 L96.474,119.313 L95.693,121.536 Z M139.15,145.755 L141.787,145.755 L114.638,76 L113.466,76 L113.466,79.287 L139.15,145.755 Z" stroke="none" transform="translate(0,200)" />
        <path id="Baseline-S" d="M18,146 l800,0" />
        <path id="left-margin-Ultralight-M" d="M222.222,256 l0,110" />
        <path id="right-margin-Ultralight-M" d="M307.778,256 l0,110" />
        <path id="left-margin-Regular-M" d="M422.222,256 l0,110" />
        <path id="right-margin-Regular-M" d="M507.778,256 l0,110" />
        <path id="left-margin-Black-M" d="M622.222,256 l0,110" />
        <path id="right-margin-Black-M" d="M707.778,256 l0,110" />
        <path id="Capline-M" d="M18,276 l800,0" />
        <path id="Baseline-M" d="M18,346 l800,0" />
        <path id="Capline-L" d="M18,476 l800,0" />
        <path id="Baseline-L" d="M18,546 l800,0" />
    </g>
    <g id="Symbols">
        <g id="Ultralight-M" transform="translate(0,200)">
            <path d="M276.667,134.333 L276.667,87.667 C276.667,84.572 275.438,81.605 273.25,79.417 C271.062,77.229 268.094,76 265,76 L233.889,76 C230.795,76 227.827,77.229 225.639,79.417 C223.451,81.605 222.222,84.572 222.222,87.667 L222.222,130.444 C222.222,132.507 223.042,134.486 224.5,135.944 C225.959,137.403 227.937,138.222 230,138.222 L237.778,138.222 C239.926,138.222 241.667,136.481 241.667,134.333 C241.667,132.186 239.926,130.444 237.778,130.444 L230,130.444 C230,130.444 230,130.444 230,130.444 C230,130.444 230,130.444 230,130.444 L230,87.667 C230,86.635 230.41,85.646 231.139,84.917 C231.868,84.188 232.857,83.778 233.889,83.778 L265,83.778 C266.031,83.778 267.021,84.188 267.75,84.917 C268.479,85.646 268.889,86.635 268.889,87.667 L268.889,134.333 C268.889,136.481 270.63,138.222 272.778,138.222 C274.926,138.222 276.667,136.481 276.667,134.333 Z" />
            <path d="M276.667,130.444 L253.333,130.444 C251.186,130.444 249.444,132.186 249.444,134.333 C249.444,136.481 251.186,138.222 253.333,138.222 L276.667,138.222 C278.814,138.222 280.556,136.481 280.556,134.333 C280.556,132.186 278.814,130.444 276.667,130.444 Z" />
            <path d="M292.222,138.222 L300,138.222 C302.063,138.222 304.041,137.403 305.5,135.944 C306.958,134.486 307.778,132.507 307.778,130.444 L307.778,116.25 C307.775,114.478 307.171,112.766 306.067,111.39 L292.537,94.477 C291.065,92.635 288.833,91.559 286.472,91.556 L272.778,91.556 C270.63,91.556 268.889,93.297 268.889,95.444 C268.889,97.592 270.63,99.333 272.778,99.333 L286.467,99.333 C286.461,99.333 286.461,99.333 286.461,99.333 L299.997,116.253 C300,116.257 300,116.257 300,116.257 L300,130.444 C300,130.444 300,130.444 300,130.444 C300,130.444 300,130.444 300,130.444 L292.222,130.444 C290.074,130.444 288.333,132.186 288.333,134.333 C288.333,136.481 290.074,138.222 292.222,138.222 Z" />
            <path d="M280.556,134.333 C280.556,132.186 282.297,130.444 284.444,130.444 C286.592,130.444 288.333,132.186 288.333,134.333 C288.333,136.481 286.592,138.222 284.444,138.222 C282.297,138.222 280.556,136.481 280.556,134.333 Z M272.778,134.333 C272.778,140.777 278.001,146 284.444,146 C290.888,146 296.111,140.777 296.111,134.333 C296.111,127.89 290.888,122.667 284.444,122.667 C278.001,122.667 272.778,127.89 272.778,134.333 Z" />
            <path d="M241.667,134.333 C241.667,132.186 243.408,130.444 245.556,130.444 C247.703,130.444 249.444,132.186 249.444,134.333 C249.444,136.481 247.703,138.222 245.556,138.222 C243.408,138.222 241.667,136.481 241.667,134.333 Z M233.889,134.333 C233.889,140.777 239.112,146 245.556,146 C251.999,146 257.222,140.777 257.222,134.333 C257.222,127.89 251.999,122.667 245.556,122.667 C239.112,122.667 233.889,127.89 233.889,134.333 Z" />
        </g>
        <g id="Regular-M" transform="translate(0,200)">
            <path d="M476.667,134.333 L476.667,87.667 C476.667,84.572 475.438,81.605 473.25,79.417 C471.062,77.229 468.094,76 465,76 L433.889,76 C430.795,76 427.827,77.229 425.639,79.417 C423.451,81.605 422.222,84.572 422.222,87.667 L422.222,130.444 C422.222,132.507 423.042,134.486 424.5,135.944 C425.959,137.403 427.937,138.222 430,138.222 L437.778,138.222 C439.926,138.222 441.667,136.481 441.667,134.333 C441.667,132.186 439.926,130.444 437.778,130.444 L430,130.444 C430,130.444 430,130.444 430,130.444 C430,130.444 430,130.444 430,130.444 L430,87.667 C430,86.635 430.41,85.646 431.139,84.917 C431.868,84.188 432.857,83.778 433.889,83.778 L465,83.778 C466.031,83.778 467.021,84.188 467.75,84.917 C468.479,85.646 468.889,86.635 468.889,87.667 L468.889,134.333 C468.889,136.481 470.63,138.222 472.778,138.222 C474.926,138.222 476.667,136.481 476.667,134.333 Z" />
            <path d="M476.667,130.444 L453.333,130.444 C451.186,130.444 449.444,132.186 449.444,134.333 C449.444,136.481 451.186,138.222 453.333,138.222 L476.667,138.222 C478.814,138.222 480.556,136.481 480.556,134.333 C480.556,132.186 478.814,130.444 476.667,130.444 Z" />
            <path d="M492.222,138.222 L500,138.222 C502.063,138.222 504.041,137.403 505.5,135.944 C506.958,134.486 507.778,132.507 507.778,130.444 L507.778,116.25 C507.775,114.478 507.171,112.766 506.067,111.39 L492.537,94.477 C491.065,92.635 488.833,91.559 486.472,91.556 L472.778,91.556 C470.63,91.556 468.889,93.297 468.889,95.444 C468.889,97.592 470.63,99.333 472.778,99.333 L486.467,99.333 C486.461,99.333 486.461,99.333 486.461,99.333 L499.997,116.253 C500,116.257 500,116.257 500,116.257 L500,130.444 C500,130.444 500,130.444 500,130.444 C500,130.444 500,130.444 500,130.444 L492.222,130.444 C490.074,130.444 488.333,132.186 488.333,134.333 C488.333,136.481 490.074,138.222 492.222,138.222 Z" />
            <path d="M480.556,134.333 C480.556,132.186 482.297,130.444 484.444,130.444 C486.592,130.444 488.333,132.186 488.333,134.333 C488.333,136.481 486.592,138.222 484.444,138.222 C482.297,138.222 480.556,136.481 480.556,134.333 Z M472.778,134.333 C472.778,140.777 478.001,146 484.444,146 C490.888,146 496.111,140.777 496.111,134.333 C496.111,127.89 490.888,122.667 484.444,122.667 C478.001,122.667 472.778,127.89 472.778,134.333 Z" />
            <path d="M441.667,134.333 C441.667,132.186 443.408,130.444 445.556,130.444 C447.703,130.444 449.444,132.186 449.444,134.333 C449.444,136.481 447.703,138.222 445.556,138.222 C443.408,138.222 441.667,136.481 441.667,134.333 Z M433.889,134.333 C433.889,140.777 439.112,146 445.556,146 C451.999,146 457.222,140.777 457.222,134.333 C457.222,127.89 451.999,122.667 445.556,122.667 C439.112,122.667 433.889,127.89 433.889,134.333 Z" />
        </g>
        <g id="Black-M" transform="translate(0,200)">
            <path d="M676.667,134.333 L676.667,87.667 C676.667,84.572 675.438,81.605 673.25,79.417 C671.062,77.229 668.094,76 665,76 L633.889,76 C630.795,76 627.827,77.229 625.639,79.417 C623.451,81.605 622.222,84.572 622.222,87.667 L622.222,130.444 C622.222,132.507 623.042,134.486 624.5,135.944 C625.959,137.403 627.937,138.222 630,138.222 L637.778,138.222 C639.926,138.222 641.667,136.481 641.667,134.333 C641.667,132.186 639.926,130.444 637.778,130.444 L630,130.444 C630,130.444 630,130.444 630,130.444 C630,130.444 630,130.444 630,130.444 L630,87.667 C630,86.635 630.41,85.646 631.139,84.917 C631.868,84.188 632.857,83.778 633.889,83.778 L665,83.778 C666.031,83.778 667.021,84.188 667.75,84.917 C668.479,85.646 668.889,86.635 668.889,87.667 L668.889,134.333 C668.889,136.481 670.63,138.222 672.778,138.222 C674.926,138.222 676.667,136.481 676.667,134.333 Z" />
            <path d="M676.667,130.444 L653.333,130.444 C651.186,130.444 649.444,132.186 649.444,134.333 C649.444,136.481 651.186,138.222 653.333,138.222 L676.667,138.222 C678.814,138.222 680.556,136.481 680.556,134.333 C680.556,132.186 678.814,130.444 676.667,130.444 Z" />
            <path d="M692.222,138.222 L700,138.222 C702.063,138.222 704.041,137.403 705.5,135.944 C706.958,134.486 707.778,132.507 707.778,130.444 L707.778,116.25 C707.775,114.478 707.171,112.766 706.067,111.39 L692.537,94.477 C691.065,92.635 688.833,91.559 686.472,91.556 L672.778,91.556 C670.63,91.556 668.889,93.297 668.889,95.444 C668.889,97.592 670.63,99.333 672.778,99.333 L686.467,99.333 C686.461,99.333 686.461,99.333 686.461,99.333 L699.997,116.253 C700,116.257 700,116.257 700,116.257 L700,130.444 C700,130.444 700,130.444 700,130.444 C700,130.444 700,130.444 700,130.444 L692.222,130.444 C690.074,130.444 688.333,132.186 688.333,134.333 C688.333,136.481 690.074,138.222 692.222,138.222 Z" />
            <path d="M680.556,134.333 C680.556,132.186 682.297,130.444 684.444,130.444 C686.592,130.444 688.333,132.186 688.333,134.333 C688.333,136.481 686.592,138.222 684.444,138.222 C682.297,138.222 680.556,136.481 680.556,134.333 Z M672.778,134.333 C672.778,140.777 678.001,146 684.444,146 C690.888,146 696.111,140.777 696.111,134.333 C696.111,127.89 690.888,122.667 684.444,122.667 C678.001,122.667 672.778,127.89 672.778,134.333 Z" />
            <path d="M641.667,134.333 C641.667,132.186 643.408,130.444 645.556,130.444 C647.703,130.444 649.444,132.186 649.444,134.333 C649.444,136.481 647.703,138.222 645.556,138.222 C643.408,138.222 641.667,136.481 641.667,134.333 Z M633.889,134.333 C633.889,140.777 639.112,146 645.556,146 C651.999,146 657.222,140.777 657.222,134.333 C657.222,127.89 651.999,122.667 645.556,122.667 C639.112,122.667 633.889,127.89 633.889,134.333 Z" />
        </g>
    </g>
</svg>