<?xml version="1.0" encoding="UTF-8"?>
<svg height="600" width="800" xmlns="http://www.w3.org/2000/svg" xmlns:xlink="http://www.w3.org/1999/xlink">
    <g id="Notes" font-family="LucidaGrande, 'Lucida Grande', sans-serif" font-size="13">
        <rect fill="white" height="600.0" width="800.0" x="0.0" y="0.0" />
        <g font-size="13">
            <text x="18.0" y="176.0">Small</text>
            <text x="18.0" y="376.0">Medium</text>
            <text x="18.0" y="576.0">Large</text>
        </g>
        <g font-size="9">
            <text x="250.0" y="30.0">Ultralight</text>
            <text x="450.0" y="30.0">Regular</text>
            <text x="650.0" y="30.0">Black</text>
            <text id="template-version" fill="#505050" text-anchor="end" x="785.0" y="575.0">Template v.3.0</text>
            <a href="https://github.com/swhitty/SwiftDraw">
                <text fill="#505050" text-anchor="end" x="785.0" y="590.0">https://github.com/swhitty/SwiftDraw</text>
            </a>
        </g>
    </g>
    <g id="Guides" stroke="rgb(39, 170, 225)" stroke-width="0.5">
        <path id="Capline-S" d="M18,76 l800,0" />
        <path id="H-reference" d="M85,145.755 L87.685,145.755 L113.369,79.287 L114.052,79.287 L114.052,76 L112.148,76 L85,145.755 Z M95.693,121.536 L130.996,121.536 L130.263,119.313 L96.474,119.313 L95.693,121.536 Z M139.15,145.755 L141.787,145.755 L114.638,76 L113.466,76 L113.466,79.287 L139.15,145.755 Z" stroke="none" transform="translate(0,200)" />
        <path id="Baseline-S" d="M18,146 l800,0" />
        <path id="left-margin-Ultralight-M" d="M226.5,256 l0,110" />
        <path id="right-margin-Ultralight-M" d="M303.5,256 l0,110" />
        <path id="left-margin-Regular-M" d="M426.5,256 l0,110" />
        <path id="right-margin-Regular-M" d="M503.5,256 l0,110" />
        <path id="left-margin-Black-M" d="M626.5,256 l0,110" />
        <path id="right-margin-Black-M" d="M703.5,256 l0,110" />
        <path id="Capline-M" d="M18,276 l800,0" />
        <path id="Baseline-M" d="M18,346 l800,0" />
        <path id="Capline-L" d="M18,476 l800,0" />
        <path id="Baseline-L" d="M18,546 l800,0" />
    </g>
    <g id="Symbols">
        <g id="Ultralight-M" transform="translate(0,200)">
            <path d="M268.5,126.75 C268.5,128.142 269.053,129.478 270.038,130.462 C271.022,131.447 272.358,132 273.75,132 L275.5,132 C277.433,132 279,133.567 279,135.5 C279,137.433 277.433,139 275.5,139 L254.5,139 C252.567,139 251,137.433 251,135.5 C251,133.567 252.567,132 254.5,132 L256.25,132 C257.642,132 258.978,131.447 259.962,130.462 C260.947,129.478 261.5,128.142 261.5,126.75 L261.5,95.25 C261.5,93.858 260.947,92.522 259.962,91.538 C258.978,90.553 257.642,90 256.25,90 L245.75,90 C244.358,90 243.022,90.553 242.038,91.538 C241.053,92.522 240.5,93.858 240.5,95.25 L240.5,97 C240.5,98.933 238.933,100.5 237,100.5 C235.067,100.5 233.5,98.933 233.5,97 L233.5,86.5 C233.5,85.572 233.869,84.682 234.525,84.025 C235.182,83.369 236.072,83 237,83 L293,83 C293.928,83 294.818,83.369 295.475,84.025 C296.131,84.682 296.5,85.572 296.5,86.5 L296.5,97 C296.5,98.933 294.933,100.5 293,100.5 C291.067,100.5 289.5,98.933 289.5,97 L289.5,95.25 C289.5,93.858 288.947,92.522 287.962,91.538 C286.978,90.553 285.642,90 284.25,90 L273.75,90 C272.358,90 271.022,90.553 270.038,91.538 C269.053,92.522 268.5,93.858 268.5,95.25 L268.5,126.75 Z M275.5,126.75 L275.5,95.25 C275.5,95.714 275.316,96.159 274.987,96.487 C274.659,96.816 274.214,97 273.75,97 L284.25,97 C283.786,97 283.341,96.816 283.013,96.487 C282.684,96.159 282.5,95.714 282.5,95.25 L282.5,97 C282.5,102.799 287.201,107.5 293,107.5 C298.799,107.5 303.5,102.799 303.5,97 L303.5,86.5 C303.5,83.715 302.394,81.045 300.425,79.075 C298.456,77.106 295.785,76 293,76 L237,76 C234.215,76 231.545,77.106 229.575,79.075 C227.606,81.045 226.5,83.715 226.5,86.5 L226.5,97 C226.5,102.799 231.201,107.5 237,107.5 C242.799,107.5 247.5,102.799 247.5,97 L247.5,95.25 C247.5,95.714 247.316,96.159 246.987,96.487 C246.659,96.816 246.214,97 245.75,97 L256.25,97 C255.786,97 255.341,96.816 255.013,96.487 C254.684,96.159 254.5,95.714 254.5,95.25 L254.5,126.75 C254.5,126.286 254.684,125.841 255.013,125.513 C255.341,125.184 255.786,125 256.25,125 L254.5,125 C248.701,125 244,129.701 244,135.5 C244,141.299 248.701,146 254.5,146 L275.5,146 C281.299,146 286,141.299 286,135.5 C286,129.701 281.299,125 275.5,125 L273.75,125 C274.214,125 274.659,125.184 274.987,125.513 C275.316,125.841 275.5,126.286 275.5,126.75 Z" />
        </g>
        <g id="Regular-M" transform="translate(0,200)">
            <path d="M468.5,126.75 C468.5,128.142 469.053,129.478 470.038,130.462 C471.022,131.447 472.358,132 473.75,132 L475.5,132 C477.433,132 479,133.567 479,135.5 C479,137.433 477.433,139 475.5,139 L454.5,139 C452.567,139 451,137.433 451,135.5 C451,133.567 452.567,132 454.5,132 L456.25,132 C457.642,132 458.978,131.447 459.962,130.462 C460.947,129.478 461.5,128.142 461.5,126.75 L461.5,95.25 C461.5,93.858 460.947,92.522 459.962,91.538 C458.978,90.553 457.642,90 456.25,90 L445.75,90 C444.358,90 443.022,90.553 442.038,91.538 C441.053,92.522 440.5,93.858 440.5,95.25 L440.5,97 C440.5,98.933 438.933,100.5 437,100.5 C435.067,100.5 433.5,98.933 433.5,97 L433.5,86.5 C433.5,85.572 433.869,84.682 434.525,84.025 C435.182,83.369 436.072,83 437,83 L493,83 C493.928,83 494.818,83.369 495.475,84.025 C496.131,84.682 496.5,85.572 496.5,86.5 L496.5,97 C496.5,98.933 494.933,100.5 493,100.5 C491.067,100.5 489.5,98.933 489.5,97 L489.5,95.25 C489.5,93.858 488.947,92.522 487.962,91.538 C486.978,90.553 485.642,90 484.25,90 L473.75,90 C472.358,90 471.022,90.553 470.038,91.538 C469.053,92.522 468.5,93.858 468.5,95.25 L468.5,126.75 Z M475.5,126.75 L475.5,95.25 C475.5,95.714 475.316,96.159 474.987,96.487 C474.659,96.816 474.214,97 473.75,97 L484.25,97 C483.786,97 483.341,96.816 483.013,96.487 C482.684,96.159 482.5,95.714 482.5,95.25 L482.5,97 C482.5,102.799 487.201,107.5 493,107.5 C498.799,107.5 503.5,102.799 503.5,97 L503.5,86.5 C503.5,83.715 502.394,81.045 500.425,79.075 C498.456,77.106 495.785,76 493,76 L437,76 C434.215,76 431.545,77.106 429.575,79.075 C427.606,81.045 426.5,83.715 426.5,86.5 L426.5,97 C426.5,102.799 431.201,107.5 437,107.5 C442.799,107.5 447.5,102.799 447.5,97 L447.5,95.25 C447.5,95.714 447.316,96.159 446.987,96.487 C446.659,96.816 446.214,97 445.75,97 L456.25,97 C455.786,97 455.341,96.816 455.013,96.487 C454.684,96.159 454.5,95.714 454.5,95.25 L454.5,126.75 C454.5,126.286 454.684,125.841 455.013,125.513 C455.341,125.184 455.786,125 456.25,125 L454.5,125 C448.701,125 444,129.701 444,135.5 C444,141.299 448.701,146 454.5,146 L475.5,146 C481.299,146 486,141.299 486,135.5 C486,129.701 481.299,125 475.5,125 L473.75,125 C474.214,125 474.659,125.184 474.987,125.513 C475.316,125.841 475.5,126.286 475.5,126.75 Z" />
        </g>
        <g id="Black-M" transform="translate(0,200)">
            <path d="M668.5,126.75 C668.5,128.142 669.053,129.478 670.038,130.462 C671.022,131.447 672.358,132 673.75,132 L675.5,132 C677.433,132 679,133.567 679,135.5 C679,137.433 677.433,139 675.5,139 L654.5,139 C652.567,139 651,137.433 651,135.5 C651,133.567 652.567,132 654.5,132 L656.25,132 C657.642,132 658.978,131.447 659.962,130.462 C660.947,129.478 661.5,128.142 661.5,126.75 L661.5,95.25 C661.5,93.858 660.947,92.522 659.962,91.538 C658.978,90.553 657.642,90 656.25,90 L645.75,90 C644.358,90 643.022,90.553 642.038,91.538 C641.053,92.522 640.5,93.858 640.5,95.25 L640.5,97 C640.5,98.933 638.933,100.5 637,100.5 C635.067,100.5 633.5,98.933 633.5,97 L633.5,86.5 C633.5,85.572 633.869,84.682 634.525,84.025 C635.182,83.369 636.072,83 637,83 L693,83 C693.928,83 694.818,83.369 695.475,84.025 C696.131,84.682 696.5,85.572 696.5,86.5 L696.5,97 C696.5,98.933 694.933,100.5 693,100.5 C691.067,100.5 689.5,98.933 689.5,97 L689.5,95.25 C689.5,93.858 688.947,92.522 687.962,91.538 C686.978,90.553 685.642,90 684.25,90 L673.75,90 C672.358,90 671.022,90.553 670.038,91.538 C669.053,92.522 668.5,93.858 668.5,95.25 L668.5,126.75 Z M675.5,126.75 L675.5,95.25 C675.5,95.714 675.316,96.159 674.987,96.487 C674.659,96.816 674.214,97 673.75,97 L684.25,97 C683.786,97 683.341,96.816 683.013,96.487 C682.684,96.159 682.5,95.714 682.5,95.25 L682.5,97 C682.5,102.799 687.201,107.5 693,107.5 C698.799,107.5 703.5,102.799 703.5,97 L703.5,86.5 C703.5,83.715 702.394,81.045 700.425,79.075 C698.456,77.106 695.785,76 693,76 L637,76 C634.215,76 631.544,77.106 629.575,79.075 C627.606,81.045 626.5,83.715 626.5,86.5 L626.5,97 C626.5,102.799 631.201,107.5 637,107.5 C642.799,107.5 647.5,102.799 647.5,97 L647.5,95.25 C647.5,95.714 647.316,96.159 646.987,96.487 C646.659,96.816 646.214,97 645.75,97 L656.25,97 C655.786,97 655.341,96.816 655.013,96.487 C654.684,96.159 654.5,95.714 654.5,95.25 L654.5,126.75 C654.5,126.286 654.684,125.841 655.013,125.513 C655.341,125.184 655.786,125 656.25,125 L654.5,125 C648.701,125 644,129.701 644,135.5 C644,141.299 648.701,146 654.5,146 L675.5,146 C681.299,146 686,141.299 686,135.5 C686,129.701 681.299,125 675.5,125 L673.75,125 C674.214,125 674.659,125.184 674.987,125.513 C675.316,125.841 675.5,126.286 675.5,126.75 Z" />
        </g>
    </g>
</svg>