<?xml version="1.0" encoding="UTF-8"?>
<svg height="600" width="800" xmlns="http://www.w3.org/2000/svg" xmlns:xlink="http://www.w3.org/1999/xlink">
    <g id="Notes" font-family="LucidaGrande, 'Lucida Grande', sans-serif" font-size="13">
        <rect fill="white" height="600.0" width="800.0" x="0.0" y="0.0" />
        <g font-size="13">
            <text x="18.0" y="176.0">Small</text>
            <text x="18.0" y="376.0">Medium</text>
            <text x="18.0" y="576.0">Large</text>
        </g>
        <g font-size="9">
            <text x="250.0" y="30.0">Ultralight</text>
            <text x="450.0" y="30.0">Regular</text>
            <text x="650.0" y="30.0">Black</text>
            <text id="template-version" fill="#505050" text-anchor="end" x="785.0" y="575.0">Template v.3.0</text>
            <a href="https://github.com/swhitty/SwiftDraw">
                <text fill="#505050" text-anchor="end" x="785.0" y="590.0">https://github.com/swhitty/SwiftDraw</text>
            </a>
        </g>
    </g>
    <g id="Guides" stroke="rgb(39, 170, 225)" stroke-width="0.5">
        <path id="Capline-S" d="M18,76 l800,0" />
        <path id="H-reference" d="M85,145.755 L87.685,145.755 L113.369,79.287 L114.052,79.287 L114.052,76 L112.148,76 L85,145.755 Z M95.693,121.536 L130.996,121.536 L130.263,119.313 L96.474,119.313 L95.693,121.536 Z M139.15,145.755 L141.787,145.755 L114.638,76 L113.466,76 L113.466,79.287 L139.15,145.755 Z" stroke="none" transform="translate(0,200)" />
        <path id="Baseline-S" d="M18,146 l800,0" />
        <path id="left-margin-Ultralight-M" d="M221,256 l0,110" />
        <path id="right-margin-Ultralight-M" d="M309,256 l0,110" />
        <path id="left-margin-Regular-M" d="M421,256 l0,110" />
        <path id="right-margin-Regular-M" d="M509,256 l0,110" />
        <path id="left-margin-Black-M" d="M621,256 l0,110" />
        <path id="right-margin-Black-M" d="M709,256 l0,110" />
        <path id="Capline-M" d="M18,276 l800,0" />
        <path id="Baseline-M" d="M18,346 l800,0" />
        <path id="Capline-L" d="M18,476 l800,0" />
        <path id="Baseline-L" d="M18,546 l800,0" />
    </g>
    <g id="Symbols">
        <g id="Ultralight-M" transform="translate(0,200)">
            <path d="M309,130.796 C308.984,113.452 298.781,97.735 282.945,90.662 C267.108,83.588 248.594,86.478 235.667,98.04 L222.457,109.93 C220.65,111.555 220.504,114.337 222.13,116.143 C223.755,117.95 226.537,118.096 228.343,116.47 L241.543,104.591 C251.875,95.349 266.687,93.038 279.356,98.696 C292.025,104.355 300.187,116.929 300.2,130.804 C300.202,133.234 302.174,135.202 304.604,135.2 C307.034,135.198 309.002,133.226 309,130.796 Z" />
            <path d="M221,86.8 L221,113.2 C221,115.63 222.97,117.6 225.4,117.6 L251.8,117.6 C254.23,117.6 256.2,115.63 256.2,113.2 C256.2,110.77 254.23,108.8 251.8,108.8 L225.4,108.8 L229.8,113.2 L229.8,86.8 C229.8,84.37 227.83,82.4 225.4,82.4 C222.97,82.4 221,84.37 221,86.8 Z" />
            <path d="M265,130.8 C265,130.8 265,130.8 265,130.8 C265,130.8 265,130.8 265,130.8 C265,130.8 265,130.8 265,130.8 C265,130.8 265,130.8 265,130.8 Z M256.2,130.8 C256.2,135.66 260.14,139.6 265,139.6 C269.86,139.6 273.8,135.66 273.8,130.8 C273.8,125.94 269.86,122 265,122 C260.14,122 256.2,125.94 256.2,130.8 Z" />
        </g>
        <g id="Regular-M" transform="translate(0,200)">
            <path d="M509,130.796 C508.984,113.452 498.781,97.735 482.945,90.662 C467.108,83.588 448.594,86.478 435.667,98.04 L422.457,109.93 C420.65,111.555 420.504,114.337 422.13,116.143 C423.755,117.95 426.537,118.096 428.343,116.47 L441.543,104.591 C451.875,95.349 466.687,93.038 479.356,98.696 C492.025,104.355 500.187,116.929 500.2,130.804 C500.202,133.234 502.174,135.202 504.604,135.2 C507.034,135.198 509.002,133.226 509,130.796 Z" />
            <path d="M421,86.8 L421,113.2 C421,115.63 422.97,117.6 425.4,117.6 L451.8,117.6 C454.23,117.6 456.2,115.63 456.2,113.2 C456.2,110.77 454.23,108.8 451.8,108.8 L425.4,108.8 L429.8,113.2 L429.8,86.8 C429.8,84.37 427.83,82.4 425.4,82.4 C422.97,82.4 421,84.37 421,86.8 Z" />
            <path d="M465,130.8 C465,130.8 465,130.8 465,130.8 C465,130.8 465,130.8 465,130.8 C465,130.8 465,130.8 465,130.8 C465,130.8 465,130.8 465,130.8 Z M456.2,130.8 C456.2,135.66 460.14,139.6 465,139.6 C469.86,139.6 473.8,135.66 473.8,130.8 C473.8,125.94 469.86,122 465,122 C460.14,122 456.2,125.94 456.2,130.8 Z" />
        </g>
        <g id="Black-M" transform="translate(0,200)">
            <path d="M709,130.796 C708.984,113.452 698.781,97.735 682.945,90.662 C667.108,83.588 648.594,86.478 635.667,98.04 L622.457,109.93 C620.65,111.555 620.504,114.337 622.13,116.143 C623.755,117.95 626.537,118.096 628.343,116.47 L641.543,104.591 C651.875,95.349 666.687,93.038 679.356,98.696 C692.025,104.355 700.187,116.929 700.2,130.804 C700.202,133.234 702.174,135.202 704.604,135.2 C707.034,135.198 709.002,133.226 709,130.796 Z" />
            <path d="M621,86.8 L621,113.2 C621,115.63 622.97,117.6 625.4,117.6 L651.8,117.6 C654.23,117.6 656.2,115.63 656.2,113.2 C656.2,110.77 654.23,108.8 651.8,108.8 L625.4,108.8 L629.8,113.2 L629.8,86.8 C629.8,84.37 627.83,82.4 625.4,82.4 C622.97,82.4 621,84.37 621,86.8 Z" />
            <path d="M665,130.8 C665,130.8 665,130.8 665,130.8 C665,130.8 665,130.8 665,130.8 C665,130.8 665,130.8 665,130.8 C665,130.8 665,130.8 665,130.8 Z M656.2,130.8 C656.2,135.66 660.14,139.6 665,139.6 C669.86,139.6 673.8,135.66 673.8,130.8 C673.8,125.94 669.86,122 665,122 C660.14,122 656.2,125.94 656.2,130.8 Z" />
        </g>
    </g>
</svg>