<?xml version="1.0" encoding="UTF-8"?>
<svg height="600" width="800" xmlns="http://www.w3.org/2000/svg" xmlns:xlink="http://www.w3.org/1999/xlink">
    <g id="Notes" font-family="LucidaGrande, 'Lucida Grande', sans-serif" font-size="13">
        <rect fill="white" height="600.0" width="800.0" x="0.0" y="0.0" />
        <g font-size="13">
            <text x="18.0" y="176.0">Small</text>
            <text x="18.0" y="376.0">Medium</text>
            <text x="18.0" y="576.0">Large</text>
        </g>
        <g font-size="9">
            <text x="250.0" y="30.0">Ultralight</text>
            <text x="450.0" y="30.0">Regular</text>
            <text x="650.0" y="30.0">Black</text>
            <text id="template-version" fill="#505050" text-anchor="end" x="785.0" y="575.0">Template v.3.0</text>
            <a href="https://github.com/swhitty/SwiftDraw">
                <text fill="#505050" text-anchor="end" x="785.0" y="590.0">https://github.com/swhitty/SwiftDraw</text>
            </a>
        </g>
    </g>
    <g id="Guides" stroke="rgb(39, 170, 225)" stroke-width="0.5">
        <path id="Capline-S" d="M18,76 l800,0" />
        <path id="H-reference" d="M85,145.755 L87.685,145.755 L113.369,79.287 L114.052,79.287 L114.052,76 L112.148,76 L85,145.755 Z M95.693,121.536 L130.996,121.536 L130.263,119.313 L96.474,119.313 L95.693,121.536 Z M139.15,145.755 L141.787,145.755 L114.638,76 L113.466,76 L113.466,79.287 L139.15,145.755 Z" stroke="none" transform="translate(0,200)" />
        <path id="Baseline-S" d="M18,146 l800,0" />
        <path id="left-margin-Ultralight-M" d="M230,256 l0,110" />
        <path id="right-margin-Ultralight-M" d="M300,256 l0,110" />
        <path id="left-margin-Regular-M" d="M430,256 l0,110" />
        <path id="right-margin-Regular-M" d="M500,256 l0,110" />
        <path id="left-margin-Black-M" d="M630,256 l0,110" />
        <path id="right-margin-Black-M" d="M700,256 l0,110" />
        <path id="Capline-M" d="M18,276 l800,0" />
        <path id="Baseline-M" d="M18,346 l800,0" />
        <path id="Capline-L" d="M18,476 l800,0" />
        <path id="Baseline-L" d="M18,546 l800,0" />
    </g>
    <g id="Symbols">
        <g id="Ultralight-M" transform="translate(0,200)">
            <path d="M261.5,79.5 L261.5,121.5 C261.5,123.433 263.067,125 265,125 C266.933,125 268.5,123.433 268.5,121.5 L268.5,79.5 C268.5,77.567 266.933,76 265,76 C263.067,76 261.5,77.567 261.5,79.5 Z" />
            <path d="M284.975,94.525 L267.475,77.025 C266.108,75.658 263.892,75.658 262.525,77.025 L245.025,94.525 C243.658,95.892 243.658,98.108 245.025,99.475 C246.392,100.842 248.608,100.842 249.975,99.475 L267.475,81.975 L262.525,81.975 L280.025,99.475 C281.392,100.842 283.608,100.842 284.975,99.475 C286.342,98.108 286.342,95.892 284.975,94.525 Z" />
            <path d="M293,121.5 L293,135.5 C293,136.428 292.631,137.318 291.975,137.975 C291.318,138.631 290.428,139 289.5,139 L240.5,139 C239.572,139 238.682,138.631 238.025,137.975 C237.369,137.318 237,136.428 237,135.5 L237,121.5 C237,119.567 235.433,118 233.5,118 C231.567,118 230,119.567 230,121.5 L230,135.5 C230,138.285 231.106,140.955 233.075,142.925 C235.045,144.894 237.715,146 240.5,146 L289.5,146 C292.285,146 294.955,144.894 296.925,142.925 C298.894,140.955 300,138.285 300,135.5 L300,121.5 C300,119.567 298.433,118 296.5,118 C294.567,118 293,119.567 293,121.5 Z" />
        </g>
        <g id="Regular-M" transform="translate(0,200)">
            <path d="M461.5,79.5 L461.5,121.5 C461.5,123.433 463.067,125 465,125 C466.933,125 468.5,123.433 468.5,121.5 L468.5,79.5 C468.5,77.567 466.933,76 465,76 C463.067,76 461.5,77.567 461.5,79.5 Z" />
            <path d="M484.975,94.525 L467.475,77.025 C466.108,75.658 463.892,75.658 462.525,77.025 L445.025,94.525 C443.658,95.892 443.658,98.108 445.025,99.475 C446.392,100.842 448.608,100.842 449.975,99.475 L467.475,81.975 L462.525,81.975 L480.025,99.475 C481.392,100.842 483.608,100.842 484.975,99.475 C486.342,98.108 486.342,95.892 484.975,94.525 Z" />
            <path d="M493,121.5 L493,135.5 C493,136.428 492.631,137.318 491.975,137.975 C491.318,138.631 490.428,139 489.5,139 L440.5,139 C439.572,139 438.682,138.631 438.025,137.975 C437.369,137.318 437,136.428 437,135.5 L437,121.5 C437,119.567 435.433,118 433.5,118 C431.567,118 430,119.567 430,121.5 L430,135.5 C430,138.285 431.106,140.955 433.075,142.925 C435.045,144.894 437.715,146 440.5,146 L489.5,146 C492.285,146 494.955,144.894 496.925,142.925 C498.894,140.955 500,138.285 500,135.5 L500,121.5 C500,119.567 498.433,118 496.5,118 C494.567,118 493,119.567 493,121.5 Z" />
        </g>
        <g id="Black-M" transform="translate(0,200)">
            <path d="M661.5,79.5 L661.5,121.5 C661.5,123.433 663.067,125 665,125 C666.933,125 668.5,123.433 668.5,121.5 L668.5,79.5 C668.5,77.567 666.933,76 665,76 C663.067,76 661.5,77.567 661.5,79.5 Z" />
            <path d="M684.975,94.525 L667.475,77.025 C666.108,75.658 663.892,75.658 662.525,77.025 L645.025,94.525 C643.658,95.892 643.658,98.108 645.025,99.475 C646.392,100.842 648.608,100.842 649.975,99.475 L667.475,81.975 L662.525,81.975 L680.025,99.475 C681.392,100.842 683.608,100.842 684.975,99.475 C686.342,98.108 686.342,95.892 684.975,94.525 Z" />
            <path d="M693,121.5 L693,135.5 C693,136.428 692.631,137.318 691.975,137.975 C691.318,138.631 690.428,139 689.5,139 L640.5,139 C639.572,139 638.682,138.631 638.025,137.975 C637.369,137.318 637,136.428 637,135.5 L637,121.5 C637,119.567 635.433,118 633.5,118 C631.567,118 630,119.567 630,121.5 L630,135.5 C630,138.285 631.106,140.955 633.075,142.925 C635.044,144.894 637.715,146 640.5,146 L689.5,146 C692.285,146 694.956,144.894 696.925,142.925 C698.894,140.955 700,138.285 700,135.5 L700,121.5 C700,119.567 698.433,118 696.5,118 C694.567,118 693,119.567 693,121.5 Z" />
        </g>
    </g>
</svg>