<?xml version="1.0" encoding="UTF-8"?>
<svg height="600" width="800" xmlns="http://www.w3.org/2000/svg" xmlns:xlink="http://www.w3.org/1999/xlink">
    <g id="Notes" font-family="LucidaGrande, 'Lucida Grande', sans-serif" font-size="13">
        <rect fill="white" height="600.0" width="800.0" x="0.0" y="0.0" />
        <g font-size="13">
            <text x="18.0" y="176.0">Small</text>
            <text x="18.0" y="376.0">Medium</text>
            <text x="18.0" y="576.0">Large</text>
        </g>
        <g font-size="9">
            <text x="250.0" y="30.0">Ultralight</text>
            <text x="450.0" y="30.0">Regular</text>
            <text x="650.0" y="30.0">Black</text>
            <text id="template-version" fill="#505050" text-anchor="end" x="785.0" y="575.0">Template v.3.0</text>
            <a href="https://github.com/swhitty/SwiftDraw">
                <text fill="#505050" text-anchor="end" x="785.0" y="590.0">https://github.com/swhitty/SwiftDraw</text>
            </a>
        </g>
    </g>
    <g id="Guides" stroke="rgb(39, 170, 225)" stroke-width="0.5">
        <path id="Capline-S" d="M18,76 l800,0" />
        <path id="H-reference" d="M85,145.755 L87.685,145.755 L113.369,79.287 L114.052,79.287 L114.052,76 L112.148,76 L85,145.755 Z M95.693,121.536 L130.996,121.536 L130.263,119.313 L96.474,119.313 L95.693,121.536 Z M139.15,145.755 L141.787,145.755 L114.638,76 L113.466,76 L113.466,79.287 L139.15,145.755 Z" stroke="none" transform="translate(0,200)" />
        <path id="Baseline-S" d="M18,146 l800,0" />
        <path id="left-margin-Ultralight-M" d="M230,256 l0,110" />
        <path id="right-margin-Ultralight-M" d="M300,256 l0,110" />
        <path id="left-margin-Regular-M" d="M430,256 l0,110" />
        <path id="right-margin-Regular-M" d="M500,256 l0,110" />
        <path id="left-margin-Black-M" d="M630,256 l0,110" />
        <path id="right-margin-Black-M" d="M700,256 l0,110" />
        <path id="Capline-M" d="M18,276 l800,0" />
        <path id="Baseline-M" d="M18,346 l800,0" />
        <path id="Capline-L" d="M18,476 l800,0" />
        <path id="Baseline-L" d="M18,546 l800,0" />
    </g>
    <g id="Symbols">
        <g id="Ultralight-M" transform="translate(0,200)">
            <path d="M258,93.5 C258,93.5 258,93.5 258,93.5 C258,93.5 258,93.5 258,93.5 C258,93.5 258,93.5 258,93.5 C258,93.5 258,93.5 258,93.5 Z M251,93.5 C251,97.366 254.134,100.5 258,100.5 C261.866,100.5 265,97.366 265,93.5 C265,89.634 261.866,86.5 258,86.5 C254.134,86.5 251,89.634 251,93.5 Z" />
            <path d="M237,139 C237,139 237,139 237,139 C237,139 237,139 237,139 C237,139 237,139 237,139 C237,139 237,139 237,139 Z M230,139 C230,142.866 233.134,146 237,146 C240.866,146 244,142.866 244,139 C244,135.134 240.866,132 237,132 C233.134,132 230,135.134 230,139 Z" />
            <path d="M241.925,139.025 L291.975,88.975 C293.342,87.608 293.342,85.392 291.975,84.025 C290.608,82.658 288.392,82.658 287.025,84.025 L236.975,134.075 C235.608,135.442 235.608,137.658 236.975,139.025 C238.342,140.392 240.558,140.392 241.925,139.025 Z" />
            <path d="M295.393,76.18 L284.893,79.68 C282.425,80.502 281.685,83.635 283.525,85.475 L290.525,92.475 C292.365,94.315 295.498,93.575 296.32,91.107 L299.82,80.607 C300.732,77.871 298.129,75.268 295.393,76.18 Z M297.607,82.82 L293.18,78.393 L289.68,88.893 L295.475,87.525 L288.475,80.525 L287.107,86.32 L297.607,82.82 Z" />
            <path d="M252.918,93.422 L238.008,108.542 C237.031,109.533 236.734,111.008 237.25,112.3 L244.25,129.8 C244.968,131.595 247.005,132.468 248.8,131.75 C250.595,131.032 251.468,128.995 250.75,127.2 L243.75,109.7 L242.992,113.458 L257.902,98.338 C259.259,96.961 259.244,94.745 257.867,93.388 C256.491,92.031 254.275,92.046 252.918,93.422 Z" />
            <path d="M256.7,121.25 L274.2,128.25 C275.5,128.77 276.985,128.465 277.975,127.475 L290.225,115.225 C291.592,113.858 291.592,111.642 290.225,110.275 C288.858,108.908 286.642,108.908 285.275,110.275 L273.025,122.525 L276.8,121.75 L259.3,114.75 C257.505,114.032 255.468,114.905 254.75,116.7 C254.032,118.495 254.905,120.532 256.7,121.25 Z" />
            <path d="M288.475,113.475 L291.975,109.975 L287.025,109.975 L290.525,113.475 L290.525,108.525 L287.025,112.025 L291.975,112.025 L288.475,108.525 L288.475,113.475 Z M283.525,108.525 C282.158,109.892 282.158,112.108 283.525,113.475 L287.025,116.975 C288.392,118.342 290.608,118.342 291.975,116.975 L295.475,113.475 C296.842,112.108 296.842,109.892 295.475,108.525 L291.975,105.025 C290.608,103.658 288.392,103.658 287.025,105.025 L283.525,108.525 Z" />
        </g>
        <g id="Regular-M" transform="translate(0,200)">
            <path d="M458,93.5 C458,93.5 458,93.5 458,93.5 C458,93.5 458,93.5 458,93.5 C458,93.5 458,93.5 458,93.5 C458,93.5 458,93.5 458,93.5 Z M451,93.5 C451,97.366 454.134,100.5 458,100.5 C461.866,100.5 465,97.366 465,93.5 C465,89.634 461.866,86.5 458,86.5 C454.134,86.5 451,89.634 451,93.5 Z" />
            <path d="M437,139 C437,139 437,139 437,139 C437,139 437,139 437,139 C437,139 437,139 437,139 C437,139 437,139 437,139 Z M430,139 C430,142.866 433.134,146 437,146 C440.866,146 444,142.866 444,139 C444,135.134 440.866,132 437,132 C433.134,132 430,135.134 430,139 Z" />
            <path d="M441.925,139.025 L491.975,88.975 C493.342,87.608 493.342,85.392 491.975,84.025 C490.608,82.658 488.392,82.658 487.025,84.025 L436.975,134.075 C435.608,135.442 435.608,137.658 436.975,139.025 C438.342,140.392 440.558,140.392 441.925,139.025 Z" />
            <path d="M495.393,76.18 L484.893,79.68 C482.425,80.502 481.685,83.635 483.525,85.475 L490.525,92.475 C492.365,94.315 495.498,93.575 496.32,91.107 L499.82,80.607 C500.732,77.871 498.129,75.268 495.393,76.18 Z M497.607,82.82 L493.18,78.393 L489.68,88.893 L495.475,87.525 L488.475,80.525 L487.107,86.32 L497.607,82.82 Z" />
            <path d="M452.918,93.422 L438.008,108.542 C437.031,109.533 436.734,111.008 437.25,112.3 L444.25,129.8 C444.968,131.595 447.005,132.468 448.8,131.75 C450.595,131.032 451.468,128.995 450.75,127.2 L443.75,109.7 L442.992,113.458 L457.902,98.338 C459.259,96.961 459.244,94.745 457.867,93.388 C456.491,92.031 454.275,92.046 452.918,93.422 Z" />
            <path d="M456.7,121.25 L474.2,128.25 C475.5,128.77 476.985,128.465 477.975,127.475 L490.225,115.225 C491.592,113.858 491.592,111.642 490.225,110.275 C488.858,108.908 486.642,108.908 485.275,110.275 L473.025,122.525 L476.8,121.75 L459.3,114.75 C457.505,114.032 455.468,114.905 454.75,116.7 C454.032,118.495 454.905,120.532 456.7,121.25 Z" />
            <path d="M488.475,113.475 L491.975,109.975 L487.025,109.975 L490.525,113.475 L490.525,108.525 L487.025,112.025 L491.975,112.025 L488.475,108.525 L488.475,113.475 Z M483.525,108.525 C482.158,109.892 482.158,112.108 483.525,113.475 L487.025,116.975 C488.392,118.342 490.608,118.342 491.975,116.975 L495.475,113.475 C496.842,112.108 496.842,109.892 495.475,108.525 L491.975,105.025 C490.608,103.658 488.392,103.658 487.025,105.025 L483.525,108.525 Z" />
        </g>
        <g id="Black-M" transform="translate(0,200)">
            <path d="M658,93.5 C658,93.5 658,93.5 658,93.5 C658,93.5 658,93.5 658,93.5 C658,93.5 658,93.5 658,93.5 C658,93.5 658,93.5 658,93.5 Z M651,93.5 C651,97.366 654.134,100.5 658,100.5 C661.866,100.5 665,97.366 665,93.5 C665,89.634 661.866,86.5 658,86.5 C654.134,86.5 651,89.634 651,93.5 Z" />
            <path d="M637,139 C637,139 637,139 637,139 C637,139 637,139 637,139 C637,139 637,139 637,139 C637,139 637,139 637,139 Z M630,139 C630,142.866 633.134,146 637,146 C640.866,146 644,142.866 644,139 C644,135.134 640.866,132 637,132 C633.134,132 630,135.134 630,139 Z" />
            <path d="M641.925,139.025 L691.975,88.975 C693.342,87.608 693.342,85.392 691.975,84.025 C690.608,82.658 688.392,82.658 687.025,84.025 L636.975,134.075 C635.608,135.442 635.608,137.658 636.975,139.025 C638.342,140.392 640.558,140.392 641.925,139.025 Z" />
            <path d="M695.393,76.18 L684.893,79.68 C682.425,80.502 681.685,83.635 683.525,85.475 L690.525,92.475 C692.365,94.315 695.498,93.575 696.32,91.107 L699.82,80.607 C700.732,77.871 698.129,75.268 695.393,76.18 Z M697.607,82.82 L693.18,78.393 L689.68,88.893 L695.475,87.525 L688.475,80.525 L687.107,86.32 L697.607,82.82 Z" />
            <path d="M652.918,93.422 L638.008,108.542 C637.031,109.533 636.734,111.008 637.25,112.3 L644.25,129.8 C644.968,131.595 647.005,132.468 648.8,131.75 C650.595,131.032 651.468,128.995 650.75,127.2 L643.75,109.7 L642.992,113.458 L657.902,98.338 C659.259,96.961 659.244,94.745 657.867,93.388 C656.491,92.031 654.275,92.046 652.918,93.422 Z" />
            <path d="M656.7,121.25 L674.2,128.25 C675.5,128.77 676.985,128.465 677.975,127.475 L690.225,115.225 C691.592,113.858 691.592,111.642 690.225,110.275 C688.858,108.908 686.642,108.908 685.275,110.275 L673.025,122.525 L676.8,121.75 L659.3,114.75 C657.505,114.032 655.468,114.905 654.75,116.7 C654.032,118.495 654.905,120.532 656.7,121.25 Z" />
            <path d="M688.475,113.475 L691.975,109.975 L687.025,109.975 L690.525,113.475 L690.525,108.525 L687.025,112.025 L691.975,112.025 L688.475,108.525 L688.475,113.475 Z M683.525,108.525 C682.158,109.892 682.158,112.108 683.525,113.475 L687.025,116.975 C688.392,118.342 690.608,118.342 691.975,116.975 L695.475,113.475 C696.842,112.108 696.842,109.892 695.475,108.525 L691.975,105.025 C690.608,103.658 688.392,103.658 687.025,105.025 L683.525,108.525 Z" />
        </g>
    </g>
</svg>