<?xml version="1.0" encoding="UTF-8"?>
<svg height="600" width="800" xmlns="http://www.w3.org/2000/svg" xmlns:xlink="http://www.w3.org/1999/xlink">
    <g id="Notes" font-family="LucidaGrande, 'Lucida Grande', sans-serif" font-size="13">
        <rect fill="white" height="600.0" width="800.0" x="0.0" y="0.0" />
        <g font-size="13">
            <text x="18.0" y="176.0">Small</text>
            <text x="18.0" y="376.0">Medium</text>
            <text x="18.0" y="576.0">Large</text>
        </g>
        <g font-size="9">
            <text x="250.0" y="30.0">Ultralight</text>
            <text x="450.0" y="30.0">Regular</text>
            <text x="650.0" y="30.0">Black</text>
            <text id="template-version" fill="#505050" text-anchor="end" x="785.0" y="575.0">Template v.3.0</text>
            <a href="https://github.com/swhitty/SwiftDraw">
                <text fill="#505050" text-anchor="end" x="785.0" y="590.0">https://github.com/swhitty/SwiftDraw</text>
            </a>
        </g>
    </g>
    <g id="Guides" stroke="rgb(39, 170, 225)" stroke-width="0.5">
        <path id="Capline-S" d="M18,76 l800,0" />
        <path id="H-reference" d="M85,145.755 L87.685,145.755 L113.369,79.287 L114.052,79.287 L114.052,76 L112.148,76 L85,145.755 Z M95.693,121.536 L130.996,121.536 L130.263,119.313 L96.474,119.313 L95.693,121.536 Z M139.15,145.755 L141.787,145.755 L114.638,76 L113.466,76 L113.466,79.287 L139.15,145.755 Z" stroke="none" transform="translate(0,200)" />
        <path id="Baseline-S" d="M18,146 l800,0" />
        <path id="left-margin-Ultralight-M" d="M228.333,256 l0,110" />
        <path id="right-margin-Ultralight-M" d="M301.667,256 l0,110" />
        <path id="left-margin-Regular-M" d="M428.333,256 l0,110" />
        <path id="right-margin-Regular-M" d="M501.667,256 l0,110" />
        <path id="left-margin-Black-M" d="M628.333,256 l0,110" />
        <path id="right-margin-Black-M" d="M701.667,256 l0,110" />
        <path id="Capline-M" d="M18,276 l800,0" />
        <path id="Baseline-M" d="M18,346 l800,0" />
        <path id="Capline-L" d="M18,476 l800,0" />
        <path id="Baseline-L" d="M18,546 l800,0" />
    </g>
    <g id="Symbols">
        <g id="Ultralight-M" transform="translate(0,200)">
            <path d="M285.976,120.31 L275.976,130.31 C274.675,131.611 274.675,133.722 275.976,135.024 C277.278,136.325 279.389,136.325 280.69,135.024 L290.69,125.024 C291.992,123.722 291.992,121.611 290.69,120.31 C289.389,119.008 287.278,119.008 285.976,120.31 Z" />
            <path d="M235,139.333 C235,130.583 239.895,122.569 247.679,118.574 C255.463,114.579 264.829,115.274 271.937,120.375 C273.433,121.449 275.515,121.106 276.589,119.611 C277.662,118.115 277.32,116.032 275.824,114.959 C266.684,108.4 254.643,107.506 244.635,112.643 C234.627,117.779 228.333,128.083 228.333,139.333 C228.333,141.174 229.826,142.667 231.667,142.667 C233.508,142.667 235,141.174 235,139.333 Z" />
            <path d="M298.333,129.333 L278.333,129.333 C275.364,129.333 273.876,132.924 275.976,135.024 L285.976,145.024 C287.278,146.325 289.389,146.325 290.69,145.024 C291.992,143.722 291.992,141.611 290.69,140.31 L280.69,130.31 L278.333,136 L298.333,136 C300.174,136 301.667,134.508 301.667,132.667 C301.667,130.826 300.174,129.333 298.333,129.333 Z" />
            <path d="M245,96 C245,88.636 250.97,82.667 258.333,82.667 C265.697,82.667 271.667,88.636 271.667,96 C271.667,103.364 265.697,109.333 258.333,109.333 C250.97,109.333 245,103.364 245,96 Z M238.333,96 C238.333,107.046 247.288,116 258.333,116 C269.379,116 278.333,107.046 278.333,96 C278.333,84.954 269.379,76 258.333,76 C247.288,76 238.333,84.954 238.333,96 Z" />
        </g>
        <g id="Regular-M" transform="translate(0,200)">
            <path d="M485.976,120.31 L475.976,130.31 C474.675,131.611 474.675,133.722 475.976,135.024 C477.278,136.325 479.389,136.325 480.69,135.024 L490.69,125.024 C491.992,123.722 491.992,121.611 490.69,120.31 C489.389,119.008 487.278,119.008 485.976,120.31 Z" />
            <path d="M435,139.333 C435,130.583 439.895,122.569 447.679,118.574 C455.463,114.579 464.829,115.274 471.937,120.375 C473.433,121.449 475.515,121.106 476.589,119.611 C477.662,118.115 477.32,116.032 475.824,114.959 C466.684,108.4 454.643,107.506 444.635,112.643 C434.627,117.779 428.333,128.083 428.333,139.333 C428.333,141.174 429.826,142.667 431.667,142.667 C433.508,142.667 435,141.174 435,139.333 Z" />
            <path d="M498.333,129.333 L478.333,129.333 C475.364,129.333 473.876,132.924 475.976,135.024 L485.976,145.024 C487.278,146.325 489.389,146.325 490.69,145.024 C491.992,143.722 491.992,141.611 490.69,140.31 L480.69,130.31 L478.333,136 L498.333,136 C500.174,136 501.667,134.508 501.667,132.667 C501.667,130.826 500.174,129.333 498.333,129.333 Z" />
            <path d="M445,96 C445,88.636 450.97,82.667 458.333,82.667 C465.697,82.667 471.667,88.636 471.667,96 C471.667,103.364 465.697,109.333 458.333,109.333 C450.97,109.333 445,103.364 445,96 Z M438.333,96 C438.333,107.046 447.288,116 458.333,116 C469.379,116 478.333,107.046 478.333,96 C478.333,84.954 469.379,76 458.333,76 C447.288,76 438.333,84.954 438.333,96 Z" />
        </g>
        <g id="Black-M" transform="translate(0,200)">
            <path d="M685.976,120.31 L675.976,130.31 C674.675,131.611 674.675,133.722 675.976,135.024 C677.278,136.325 679.389,136.325 680.69,135.024 L690.69,125.024 C691.992,123.722 691.992,121.611 690.69,120.31 C689.389,119.008 687.278,119.008 685.976,120.31 Z" />
            <path d="M635,139.333 C635,130.583 639.895,122.569 647.679,118.574 C655.463,114.579 664.828,115.274 671.937,120.375 C673.433,121.449 675.515,121.106 676.589,119.611 C677.662,118.115 677.32,116.032 675.824,114.959 C666.684,108.4 654.643,107.506 644.635,112.643 C634.627,117.779 628.333,128.083 628.333,139.333 C628.333,141.174 629.826,142.667 631.667,142.667 C633.508,142.667 635,141.174 635,139.333 Z" />
            <path d="M698.333,129.333 L678.333,129.333 C675.364,129.333 673.876,132.924 675.976,135.024 L685.976,145.024 C687.278,146.325 689.389,146.325 690.69,145.024 C691.992,143.722 691.992,141.611 690.69,140.31 L680.69,130.31 L678.333,136 L698.333,136 C700.174,136 701.667,134.508 701.667,132.667 C701.667,130.826 700.174,129.333 698.333,129.333 Z" />
            <path d="M645,96 C645,88.636 650.97,82.667 658.333,82.667 C665.697,82.667 671.667,88.636 671.667,96 C671.667,103.364 665.697,109.333 658.333,109.333 C650.97,109.333 645,103.364 645,96 Z M638.333,96 C638.333,107.046 647.288,116 658.333,116 C669.379,116 678.333,107.046 678.333,96 C678.333,84.954 669.379,76 658.333,76 C647.288,76 638.333,84.954 638.333,96 Z" />
        </g>
    </g>
</svg>