<?xml version="1.0" encoding="UTF-8"?>
<svg height="600" width="800" xmlns="http://www.w3.org/2000/svg" xmlns:xlink="http://www.w3.org/1999/xlink">
    <g id="Notes" font-family="LucidaGrande, 'Lucida Grande', sans-serif" font-size="13">
        <rect fill="white" height="600.0" width="800.0" x="0.0" y="0.0" />
        <g font-size="13">
            <text x="18.0" y="176.0">Small</text>
            <text x="18.0" y="376.0">Medium</text>
            <text x="18.0" y="576.0">Large</text>
        </g>
        <g font-size="9">
            <text x="250.0" y="30.0">Ultralight</text>
            <text x="450.0" y="30.0">Regular</text>
            <text x="650.0" y="30.0">Black</text>
            <text id="template-version" fill="#505050" text-anchor="end" x="785.0" y="575.0">Template v.3.0</text>
            <a href="https://github.com/swhitty/SwiftDraw">
                <text fill="#505050" text-anchor="end" x="785.0" y="590.0">https://github.com/swhitty/SwiftDraw</text>
            </a>
        </g>
    </g>
    <g id="Guides" stroke="rgb(39, 170, 225)" stroke-width="0.5">
        <path id="Capline-S" d="M18,76 l800,0" />
        <path id="H-reference" d="M85,145.755 L87.685,145.755 L113.369,79.287 L114.052,79.287 L114.052,76 L112.148,76 L85,145.755 Z M95.693,121.536 L130.996,121.536 L130.263,119.313 L96.474,119.313 L95.693,121.536 Z M139.15,145.755 L141.787,145.755 L114.638,76 L113.466,76 L113.466,79.287 L139.15,145.755 Z" stroke="none" transform="translate(0,200)" />
        <path id="Baseline-S" d="M18,146 l800,0" />
        <path id="left-margin-Ultralight-M" d="M228.25,256 l0,110" />
        <path id="right-margin-Ultralight-M" d="M301.75,256 l0,110" />
        <path id="left-margin-Regular-M" d="M428.25,256 l0,110" />
        <path id="right-margin-Regular-M" d="M501.75,256 l0,110" />
        <path id="left-margin-Black-M" d="M628.25,256 l0,110" />
        <path id="right-margin-Black-M" d="M701.75,256 l0,110" />
        <path id="Capline-M" d="M18,276 l800,0" />
        <path id="Baseline-M" d="M18,346 l800,0" />
        <path id="Capline-L" d="M18,476 l800,0" />
        <path id="Baseline-L" d="M18,546 l800,0" />
    </g>
    <g id="Symbols">
        <g id="Ultralight-M" transform="translate(0,200)">
            <path d="M287.75,107.5 L287.75,128.5 C287.75,130.433 289.317,132 291.25,132 C293.183,132 294.75,130.433 294.75,128.5 L294.75,107.5 C294.75,105.567 293.183,104 291.25,104 C289.317,104 287.75,105.567 287.75,107.5 Z" />
            <path d="M291.25,118 L298.25,118 C300.183,118 301.75,116.433 301.75,114.5 C301.75,112.567 300.183,111 298.25,111 L291.25,111 C289.317,111 287.75,112.567 287.75,114.5 C287.75,116.433 289.317,118 291.25,118 Z" />
            <path d="M235.25,142.5 C235.25,133.171 240.546,124.653 248.911,120.526 C257.276,116.4 267.258,117.381 274.66,123.057 C276.193,124.233 278.391,123.944 279.567,122.41 C280.743,120.876 280.453,118.679 278.92,117.502 C269.404,110.204 256.569,108.943 245.814,114.248 C235.059,119.554 228.25,130.506 228.25,142.5 C228.25,144.433 229.817,146 231.75,146 C233.683,146 235.25,144.433 235.25,142.5 Z" />
            <path d="M245.75,97 C245.75,89.268 252.018,83 259.75,83 C267.482,83 273.75,89.268 273.75,97 C273.75,104.732 267.482,111 259.75,111 C252.018,111 245.75,104.732 245.75,97 Z M238.75,97 C238.75,108.598 248.152,118 259.75,118 C271.348,118 280.75,108.598 280.75,97 C280.75,85.402 271.348,76 259.75,76 C248.152,76 238.75,85.402 238.75,97 Z" />
            <path d="M287.75,135.5 C287.75,133.567 289.317,132 291.25,132 C293.183,132 294.75,133.567 294.75,135.5 C294.75,137.433 293.183,139 291.25,139 C289.317,139 287.75,137.433 287.75,135.5 Z M280.75,135.5 C280.75,141.299 285.451,146 291.25,146 C297.049,146 301.75,141.299 301.75,135.5 C301.75,129.701 297.049,125 291.25,125 C285.451,125 280.75,129.701 280.75,135.5 Z" />
        </g>
        <g id="Regular-M" transform="translate(0,200)">
            <path d="M487.75,107.5 L487.75,128.5 C487.75,130.433 489.317,132 491.25,132 C493.183,132 494.75,130.433 494.75,128.5 L494.75,107.5 C494.75,105.567 493.183,104 491.25,104 C489.317,104 487.75,105.567 487.75,107.5 Z" />
            <path d="M491.25,118 L498.25,118 C500.183,118 501.75,116.433 501.75,114.5 C501.75,112.567 500.183,111 498.25,111 L491.25,111 C489.317,111 487.75,112.567 487.75,114.5 C487.75,116.433 489.317,118 491.25,118 Z" />
            <path d="M435.25,142.5 C435.25,133.171 440.546,124.653 448.911,120.526 C457.276,116.4 467.258,117.381 474.66,123.057 C476.193,124.233 478.391,123.944 479.567,122.41 C480.743,120.876 480.453,118.679 478.92,117.502 C469.404,110.204 456.569,108.943 445.814,114.248 C435.059,119.554 428.25,130.506 428.25,142.5 C428.25,144.433 429.817,146 431.75,146 C433.683,146 435.25,144.433 435.25,142.5 Z" />
            <path d="M445.75,97 C445.75,89.268 452.018,83 459.75,83 C467.482,83 473.75,89.268 473.75,97 C473.75,104.732 467.482,111 459.75,111 C452.018,111 445.75,104.732 445.75,97 Z M438.75,97 C438.75,108.598 448.152,118 459.75,118 C471.348,118 480.75,108.598 480.75,97 C480.75,85.402 471.348,76 459.75,76 C448.152,76 438.75,85.402 438.75,97 Z" />
            <path d="M487.75,135.5 C487.75,133.567 489.317,132 491.25,132 C493.183,132 494.75,133.567 494.75,135.5 C494.75,137.433 493.183,139 491.25,139 C489.317,139 487.75,137.433 487.75,135.5 Z M480.75,135.5 C480.75,141.299 485.451,146 491.25,146 C497.049,146 501.75,141.299 501.75,135.5 C501.75,129.701 497.049,125 491.25,125 C485.451,125 480.75,129.701 480.75,135.5 Z" />
        </g>
        <g id="Black-M" transform="translate(0,200)">
            <path d="M687.75,107.5 L687.75,128.5 C687.75,130.433 689.317,132 691.25,132 C693.183,132 694.75,130.433 694.75,128.5 L694.75,107.5 C694.75,105.567 693.183,104 691.25,104 C689.317,104 687.75,105.567 687.75,107.5 Z" />
            <path d="M691.25,118 L698.25,118 C700.183,118 701.75,116.433 701.75,114.5 C701.75,112.567 700.183,111 698.25,111 L691.25,111 C689.317,111 687.75,112.567 687.75,114.5 C687.75,116.433 689.317,118 691.25,118 Z" />
            <path d="M635.25,142.5 C635.25,133.171 640.546,124.653 648.911,120.526 C657.276,116.4 667.258,117.381 674.66,123.057 C676.193,124.233 678.391,123.944 679.567,122.41 C680.743,120.876 680.453,118.679 678.92,117.502 C669.404,110.204 656.569,108.943 645.814,114.248 C635.059,119.554 628.25,130.506 628.25,142.5 C628.25,144.433 629.817,146 631.75,146 C633.683,146 635.25,144.433 635.25,142.5 Z" />
            <path d="M645.75,97 C645.75,89.268 652.018,83 659.75,83 C667.482,83 673.75,89.268 673.75,97 C673.75,104.732 667.482,111 659.75,111 C652.018,111 645.75,104.732 645.75,97 Z M638.75,97 C638.75,108.598 648.152,118 659.75,118 C671.348,118 680.75,108.598 680.75,97 C680.75,85.402 671.348,76 659.75,76 C648.152,76 638.75,85.402 638.75,97 Z" />
            <path d="M687.75,135.5 C687.75,133.567 689.317,132 691.25,132 C693.183,132 694.75,133.567 694.75,135.5 C694.75,137.433 693.183,139 691.25,139 C689.317,139 687.75,137.433 687.75,135.5 Z M680.75,135.5 C680.75,141.299 685.451,146 691.25,146 C697.049,146 701.75,141.299 701.75,135.5 C701.75,129.701 697.049,125 691.25,125 C685.451,125 680.75,129.701 680.75,135.5 Z" />
        </g>
    </g>
</svg>