<?xml version="1.0" encoding="UTF-8"?>
<svg height="600" width="800" xmlns="http://www.w3.org/2000/svg" xmlns:xlink="http://www.w3.org/1999/xlink">
    <g id="Notes" font-family="LucidaGrande, 'Lucida Grande', sans-serif" font-size="13">
        <rect fill="white" height="600.0" width="800.0" x="0.0" y="0.0" />
        <g font-size="13">
            <text x="18.0" y="176.0">Small</text>
            <text x="18.0" y="376.0">Medium</text>
            <text x="18.0" y="576.0">Large</text>
        </g>
        <g font-size="9">
            <text x="250.0" y="30.0">Ultralight</text>
            <text x="450.0" y="30.0">Regular</text>
            <text x="650.0" y="30.0">Black</text>
            <text id="template-version" fill="#505050" text-anchor="end" x="785.0" y="575.0">Template v.3.0</text>
            <a href="https://github.com/swhitty/SwiftDraw">
                <text fill="#505050" text-anchor="end" x="785.0" y="590.0">https://github.com/swhitty/SwiftDraw</text>
            </a>
        </g>
    </g>
    <g id="Guides" stroke="rgb(39, 170, 225)" stroke-width="0.5">
        <path id="Capline-S" d="M18,76 l800,0" />
        <path id="H-reference" d="M85,145.755 L87.685,145.755 L113.369,79.287 L114.052,79.287 L114.052,76 L112.148,76 L85,145.755 Z M95.693,121.536 L130.996,121.536 L130.263,119.313 L96.474,119.313 L95.693,121.536 Z M139.15,145.755 L141.787,145.755 L114.638,76 L113.466,76 L113.466,79.287 L139.15,145.755 Z" stroke="none" transform="translate(0,200)" />
        <path id="Baseline-S" d="M18,146 l800,0" />
        <path id="left-margin-Ultralight-M" d="M228.333,256 l0,110" />
        <path id="right-margin-Ultralight-M" d="M301.667,256 l0,110" />
        <path id="left-margin-Regular-M" d="M428.333,256 l0,110" />
        <path id="right-margin-Regular-M" d="M501.667,256 l0,110" />
        <path id="left-margin-Black-M" d="M628.333,256 l0,110" />
        <path id="right-margin-Black-M" d="M701.667,256 l0,110" />
        <path id="Capline-M" d="M18,276 l800,0" />
        <path id="Baseline-M" d="M18,346 l800,0" />
        <path id="Capline-L" d="M18,476 l800,0" />
        <path id="Baseline-L" d="M18,546 l800,0" />
    </g>
    <g id="Symbols">
        <g id="Ultralight-M" transform="translate(0,200)">
            <path d="M245,96 C245,88.636 250.97,82.667 258.333,82.667 C265.697,82.667 271.667,88.636 271.667,96 C271.667,103.364 265.697,109.333 258.333,109.333 C250.97,109.333 245,103.364 245,96 Z M238.333,96 C238.333,107.046 247.288,116 258.333,116 C269.379,116 278.333,107.046 278.333,96 C278.333,84.954 269.379,76 258.333,76 C247.288,76 238.333,84.954 238.333,96 Z" />
            <path d="M235,139.333 C235,131.887 238.556,124.887 244.57,120.494 C250.585,116.101 258.335,114.843 265.43,117.108 C267.184,117.668 269.06,116.7 269.62,114.946 C270.18,113.193 269.212,111.317 267.458,110.757 C258.336,107.844 248.371,109.462 240.638,115.11 C232.905,120.759 228.333,129.759 228.333,139.333 C228.333,141.174 229.826,142.667 231.667,142.667 C233.508,142.667 235,141.174 235,139.333 Z" />
            <path d="M278.333,129.333 C278.333,125.651 281.318,122.667 285,122.667 C288.682,122.667 291.667,125.651 291.667,129.333 C291.667,133.015 288.682,136 285,136 C281.318,136 278.333,133.015 278.333,129.333 Z M271.667,129.333 C271.667,136.697 277.636,142.667 285,142.667 C292.364,142.667 298.333,136.697 298.333,129.333 C298.333,121.97 292.364,116 285,116 C277.636,116 271.667,121.97 271.667,129.333 Z" />
            <path d="M300.69,140.31 L294.357,133.976 C293.055,132.675 290.945,132.675 289.643,133.976 C288.341,135.278 288.341,137.389 289.643,138.69 L295.976,145.024 C297.278,146.325 299.389,146.325 300.69,145.024 C301.992,143.722 301.992,141.611 300.69,140.31 Z" />
        </g>
        <g id="Regular-M" transform="translate(0,200)">
            <path d="M445,96 C445,88.636 450.97,82.667 458.333,82.667 C465.697,82.667 471.667,88.636 471.667,96 C471.667,103.364 465.697,109.333 458.333,109.333 C450.97,109.333 445,103.364 445,96 Z M438.333,96 C438.333,107.046 447.288,116 458.333,116 C469.379,116 478.333,107.046 478.333,96 C478.333,84.954 469.379,76 458.333,76 C447.288,76 438.333,84.954 438.333,96 Z" />
            <path d="M435,139.333 C435,131.887 438.556,124.887 444.57,120.494 C450.585,116.101 458.335,114.843 465.43,117.108 C467.184,117.668 469.06,116.7 469.62,114.946 C470.18,113.193 469.212,111.317 467.458,110.757 C458.336,107.844 448.371,109.462 440.638,115.11 C432.905,120.759 428.333,129.759 428.333,139.333 C428.333,141.174 429.826,142.667 431.667,142.667 C433.508,142.667 435,141.174 435,139.333 Z" />
            <path d="M478.333,129.333 C478.333,125.651 481.318,122.667 485,122.667 C488.682,122.667 491.667,125.651 491.667,129.333 C491.667,133.015 488.682,136 485,136 C481.318,136 478.333,133.015 478.333,129.333 Z M471.667,129.333 C471.667,136.697 477.636,142.667 485,142.667 C492.364,142.667 498.333,136.697 498.333,129.333 C498.333,121.97 492.364,116 485,116 C477.636,116 471.667,121.97 471.667,129.333 Z" />
            <path d="M500.69,140.31 L494.357,133.976 C493.055,132.675 490.945,132.675 489.643,133.976 C488.341,135.278 488.341,137.389 489.643,138.69 L495.976,145.024 C497.278,146.325 499.389,146.325 500.69,145.024 C501.992,143.722 501.992,141.611 500.69,140.31 Z" />
        </g>
        <g id="Black-M" transform="translate(0,200)">
            <path d="M645,96 C645,88.636 650.97,82.667 658.333,82.667 C665.697,82.667 671.667,88.636 671.667,96 C671.667,103.364 665.697,109.333 658.333,109.333 C650.97,109.333 645,103.364 645,96 Z M638.333,96 C638.333,107.046 647.288,116 658.333,116 C669.379,116 678.333,107.046 678.333,96 C678.333,84.954 669.379,76 658.333,76 C647.288,76 638.333,84.954 638.333,96 Z" />
            <path d="M635,139.333 C635,131.887 638.556,124.887 644.57,120.494 C650.585,116.101 658.335,114.843 665.43,117.108 C667.184,117.668 669.06,116.7 669.62,114.946 C670.18,113.193 669.212,111.317 667.458,110.757 C658.336,107.844 648.371,109.462 640.638,115.11 C632.905,120.759 628.333,129.759 628.333,139.333 C628.333,141.174 629.826,142.667 631.667,142.667 C633.508,142.667 635,141.174 635,139.333 Z" />
            <path d="M678.333,129.333 C678.333,125.651 681.318,122.667 685,122.667 C688.682,122.667 691.667,125.651 691.667,129.333 C691.667,133.015 688.682,136 685,136 C681.318,136 678.333,133.015 678.333,129.333 Z M671.667,129.333 C671.667,136.697 677.636,142.667 685,142.667 C692.364,142.667 698.333,136.697 698.333,129.333 C698.333,121.97 692.364,116 685,116 C677.636,116 671.667,121.97 671.667,129.333 Z" />
            <path d="M700.69,140.31 L694.357,133.976 C693.055,132.675 690.945,132.675 689.643,133.976 C688.341,135.278 688.341,137.389 689.643,138.69 L695.976,145.024 C697.278,146.325 699.389,146.325 700.69,145.024 C701.992,143.722 701.992,141.611 700.69,140.31 Z" />
        </g>
    </g>
</svg>