<?xml version="1.0" encoding="UTF-8"?>
<svg height="600" width="800" xmlns="http://www.w3.org/2000/svg" xmlns:xlink="http://www.w3.org/1999/xlink">
    <g id="Notes" font-family="LucidaGrande, 'Lucida Grande', sans-serif" font-size="13">
        <rect fill="white" height="600.0" width="800.0" x="0.0" y="0.0" />
        <g font-size="13">
            <text x="18.0" y="176.0">Small</text>
            <text x="18.0" y="376.0">Medium</text>
            <text x="18.0" y="576.0">Large</text>
        </g>
        <g font-size="9">
            <text x="250.0" y="30.0">Ultralight</text>
            <text x="450.0" y="30.0">Regular</text>
            <text x="650.0" y="30.0">Black</text>
            <text id="template-version" fill="#505050" text-anchor="end" x="785.0" y="575.0">Template v.3.0</text>
            <a href="https://github.com/swhitty/SwiftDraw">
                <text fill="#505050" text-anchor="end" x="785.0" y="590.0">https://github.com/swhitty/SwiftDraw</text>
            </a>
        </g>
    </g>
    <g id="Guides" stroke="rgb(39, 170, 225)" stroke-width="0.5">
        <path id="Capline-S" d="M18,76 l800,0" />
        <path id="H-reference" d="M85,145.755 L87.685,145.755 L113.369,79.287 L114.052,79.287 L114.052,76 L112.148,76 L85,145.755 Z M95.693,121.536 L130.996,121.536 L130.263,119.313 L96.474,119.313 L95.693,121.536 Z M139.15,145.755 L141.787,145.755 L114.638,76 L113.466,76 L113.466,79.287 L139.15,145.755 Z" stroke="none" transform="translate(0,200)" />
        <path id="Baseline-S" d="M18,146 l800,0" />
        <path id="left-margin-Ultralight-M" d="M221,256 l0,110" />
        <path id="right-margin-Ultralight-M" d="M309,256 l0,110" />
        <path id="left-margin-Regular-M" d="M421,256 l0,110" />
        <path id="right-margin-Regular-M" d="M509,256 l0,110" />
        <path id="left-margin-Black-M" d="M621,256 l0,110" />
        <path id="right-margin-Black-M" d="M709,256 l0,110" />
        <path id="Capline-M" d="M18,276 l800,0" />
        <path id="Baseline-M" d="M18,346 l800,0" />
        <path id="Capline-L" d="M18,476 l800,0" />
        <path id="Baseline-L" d="M18,546 l800,0" />
    </g>
    <g id="Symbols">
        <g id="Ultralight-M" transform="translate(0,200)">
            <path d="M278.781,118.328 L299.673,132.256 C301.517,133.483 303.883,133.596 305.832,132.553 C307.781,131.509 308.999,129.477 309,127.266 L309,94.48 C309.001,92.333 307.852,90.347 305.989,89.277 C304.126,88.206 301.832,88.214 299.976,89.297 L278.984,101.545 C277.076,102.658 276.432,105.108 277.545,107.016 C278.658,108.924 281.108,109.568 283.016,108.455 L304.008,96.207 C303.389,96.568 302.625,96.57 302.004,96.214 C301.383,95.857 301,95.195 301,94.479 L301,127.264 C301,126.525 301.406,125.848 302.056,125.5 C302.706,125.152 303.494,125.19 304.108,125.598 L283.219,111.672 C281.381,110.446 278.897,110.943 277.672,112.781 C276.446,114.619 276.943,117.103 278.781,118.328 Z" />
            <path d="M277,111 L277,127 C277,128.061 276.579,129.078 275.828,129.828 C275.078,130.579 274.061,131 273,131 L233,131 C231.939,131 230.922,130.579 230.172,129.828 C229.421,129.078 229,128.061 229,127 L229,95 C229,93.939 229.421,92.922 230.172,92.172 C230.922,91.421 231.939,91 233,91 L273,91 C274.061,91 275.078,91.421 275.828,92.172 C276.579,92.922 277,93.939 277,95 L277,111 Z M285,111 L285,95 C285,91.817 283.736,88.765 281.485,86.515 C279.235,84.264 276.183,83 273,83 L233,83 C229.817,83 226.765,84.264 224.515,86.515 C222.264,88.765 221,91.817 221,95 L221,127 C221,130.183 222.264,133.235 224.515,135.485 C226.765,137.736 229.817,139 233,139 L273,139 C276.183,139 279.235,137.736 281.485,135.485 C283.736,133.235 285,130.183 285,127 L285,111 Z" />
        </g>
        <g id="Regular-M" transform="translate(0,200)">
            <path d="M478.781,118.328 L499.673,132.256 C501.517,133.483 503.883,133.596 505.832,132.553 C507.781,131.509 508.999,129.477 509,127.266 L509,94.48 C509.001,92.333 507.852,90.347 505.989,89.277 C504.126,88.206 501.832,88.214 499.976,89.297 L478.984,101.545 C477.076,102.658 476.432,105.108 477.545,107.016 C478.658,108.924 481.108,109.568 483.016,108.455 L504.008,96.207 C503.389,96.568 502.625,96.57 502.004,96.214 C501.383,95.857 501,95.195 501,94.479 L501,127.264 C501,126.525 501.406,125.848 502.056,125.5 C502.706,125.152 503.494,125.19 504.108,125.598 L483.219,111.672 C481.381,110.446 478.897,110.943 477.672,112.781 C476.446,114.619 476.943,117.103 478.781,118.328 Z" />
            <path d="M477,111 L477,127 C477,128.061 476.579,129.078 475.828,129.828 C475.078,130.579 474.061,131 473,131 L433,131 C431.939,131 430.922,130.579 430.172,129.828 C429.421,129.078 429,128.061 429,127 L429,95 C429,93.939 429.421,92.922 430.172,92.172 C430.922,91.421 431.939,91 433,91 L473,91 C474.061,91 475.078,91.421 475.828,92.172 C476.579,92.922 477,93.939 477,95 L477,111 Z M485,111 L485,95 C485,91.817 483.736,88.765 481.485,86.515 C479.235,84.264 476.183,83 473,83 L433,83 C429.817,83 426.765,84.264 424.515,86.515 C422.264,88.765 421,91.817 421,95 L421,127 C421,130.183 422.264,133.235 424.515,135.485 C426.765,137.736 429.817,139 433,139 L473,139 C476.183,139 479.235,137.736 481.485,135.485 C483.736,133.235 485,130.183 485,127 L485,111 Z" />
        </g>
        <g id="Black-M" transform="translate(0,200)">
            <path d="M678.781,118.328 L699.673,132.256 C701.517,133.483 703.883,133.596 705.832,132.553 C707.781,131.509 708.999,129.477 709,127.266 L709,94.48 C709.001,92.333 707.852,90.347 705.989,89.277 C704.126,88.206 701.832,88.214 699.976,89.297 L678.984,101.545 C677.076,102.658 676.432,105.108 677.545,107.016 C678.658,108.924 681.108,109.568 683.016,108.455 L704.008,96.207 C703.389,96.568 702.625,96.57 702.004,96.214 C701.383,95.857 701,95.195 701,94.479 L701,127.264 C701,126.525 701.406,125.848 702.056,125.5 C702.706,125.152 703.494,125.19 704.108,125.598 L683.219,111.672 C681.381,110.446 678.897,110.943 677.672,112.781 C676.446,114.619 676.943,117.103 678.781,118.328 Z" />
            <path d="M677,111 L677,127 C677,128.061 676.579,129.078 675.828,129.828 C675.078,130.579 674.061,131 673,131 L633,131 C631.939,131 630.922,130.579 630.172,129.828 C629.421,129.078 629,128.061 629,127 L629,95 C629,93.939 629.421,92.922 630.172,92.172 C630.922,91.421 631.939,91 633,91 L673,91 C674.061,91 675.078,91.421 675.828,92.172 C676.579,92.922 677,93.939 677,95 L677,111 Z M685,111 L685,95 C685,91.817 683.736,88.765 681.485,86.515 C679.235,84.264 676.183,83 673,83 L633,83 C629.817,83 626.765,84.264 624.515,86.515 C622.264,88.765 621,91.817 621,95 L621,127 C621,130.183 622.264,133.235 624.515,135.485 C626.765,137.736 629.817,139 633,139 L673,139 C676.183,139 679.235,137.736 681.485,135.485 C683.736,133.235 685,130.183 685,127 L685,111 Z" />
        </g>
    </g>
</svg>