<?xml version="1.0" encoding="UTF-8"?>
<svg height="600" width="800" xmlns="http://www.w3.org/2000/svg" xmlns:xlink="http://www.w3.org/1999/xlink">
    <g id="Notes" font-family="LucidaGrande, 'Lucida Grande', sans-serif" font-size="13">
        <rect fill="white" height="600.0" width="800.0" x="0.0" y="0.0" />
        <g font-size="13">
            <text x="18.0" y="176.0">Small</text>
            <text x="18.0" y="376.0">Medium</text>
            <text x="18.0" y="576.0">Large</text>
        </g>
        <g font-size="9">
            <text x="250.0" y="30.0">Ultralight</text>
            <text x="450.0" y="30.0">Regular</text>
            <text x="650.0" y="30.0">Black</text>
            <text id="template-version" fill="#505050" text-anchor="end" x="785.0" y="575.0">Template v.3.0</text>
            <a href="https://github.com/swhitty/SwiftDraw">
                <text fill="#505050" text-anchor="end" x="785.0" y="590.0">https://github.com/swhitty/SwiftDraw</text>
            </a>
        </g>
    </g>
    <g id="Guides" stroke="rgb(39, 170, 225)" stroke-width="0.5">
        <path id="Capline-S" d="M18,76 l800,0" />
        <path id="H-reference" d="M85,145.755 L87.685,145.755 L113.369,79.287 L114.052,79.287 L114.052,76 L112.148,76 L85,145.755 Z M95.693,121.536 L130.996,121.536 L130.263,119.313 L96.474,119.313 L95.693,121.536 Z M139.15,145.755 L141.787,145.755 L114.638,76 L113.466,76 L113.466,79.287 L139.15,145.755 Z" stroke="none" transform="translate(0,200)" />
        <path id="Baseline-S" d="M18,146 l800,0" />
        <path id="left-margin-Ultralight-M" d="M230,256 l0,110" />
        <path id="right-margin-Ultralight-M" d="M300,256 l0,110" />
        <path id="left-margin-Regular-M" d="M430,256 l0,110" />
        <path id="right-margin-Regular-M" d="M500,256 l0,110" />
        <path id="left-margin-Black-M" d="M630,256 l0,110" />
        <path id="right-margin-Black-M" d="M700,256 l0,110" />
        <path id="Capline-M" d="M18,276 l800,0" />
        <path id="Baseline-M" d="M18,346 l800,0" />
        <path id="Capline-L" d="M18,476 l800,0" />
        <path id="Baseline-L" d="M18,546 l800,0" />
    </g>
    <g id="Symbols">
        <g id="Ultralight-M" transform="translate(0,200)">
            <path d="M262.158,98.591 C274.107,98.511 285.682,102.759 294.744,110.549 C296.076,111.695 298.085,111.543 299.231,110.211 C300.376,108.878 300.225,106.869 298.892,105.724 C288.665,96.931 275.602,92.137 262.115,92.227 C260.358,92.239 258.943,93.673 258.955,95.43 C258.966,97.188 260.4,98.603 262.158,98.591 Z" />
            <path d="M262.447,109.101 C256.347,117.301 247.119,122.604 236.962,123.747 C235.216,123.944 233.96,125.519 234.156,127.265 C234.353,129.011 235.928,130.267 237.674,130.071 C249.582,128.731 260.4,122.513 267.553,112.899 C268.602,111.489 268.309,109.496 266.899,108.447 C265.489,107.398 263.496,107.691 262.447,109.101 Z" />
            <path d="M277.502,114.526 C271.568,125.03 261.999,133.004 250.596,136.947 C248.936,137.522 248.055,139.334 248.629,140.994 C249.204,142.655 251.016,143.536 252.676,142.962 C265.545,138.511 276.345,129.512 283.043,117.656 C283.907,116.126 283.368,114.185 281.838,113.321 C280.308,112.456 278.367,112.996 277.502,114.526 Z" />
            <path d="M295.222,124.993 C288.023,115.452 277.245,109.258 265.377,107.841 L267.948,109.804 C264.121,100.369 264.121,89.813 267.948,80.378 C268.609,78.75 267.825,76.894 266.196,76.233 C264.568,75.573 262.712,76.357 262.052,77.986 C257.601,88.955 257.601,101.227 262.052,112.196 C262.487,113.27 263.472,114.022 264.623,114.159 C274.771,115.371 283.986,120.667 290.142,128.826 C291.2,130.228 293.196,130.507 294.598,129.449 C296.001,128.391 296.28,126.395 295.222,124.993 Z" />
            <path d="M243.743,84.289 C241.104,97.572 243.382,111.362 250.154,123.091 C251.032,124.613 252.978,125.134 254.5,124.256 C256.022,123.377 256.543,121.431 255.665,119.909 C249.665,109.517 247.646,97.299 249.984,85.529 C250.327,83.806 249.207,82.131 247.484,81.788 C245.76,81.446 244.085,82.565 243.743,84.289 Z" />
            <path d="M236.364,111 C236.364,95.185 249.185,82.364 265,82.364 C280.815,82.364 293.636,95.185 293.636,111 C293.636,126.815 280.815,139.636 265,139.636 C249.185,139.636 236.364,126.815 236.364,111 Z M230,111 C230,130.33 245.67,146 265,146 C284.33,146 300,130.33 300,111 C300,91.67 284.33,76 265,76 C245.67,76 230,91.67 230,111 Z" />
        </g>
        <g id="Regular-M" transform="translate(0,200)">
            <path d="M462.158,98.591 C474.107,98.511 485.682,102.759 494.744,110.549 C496.076,111.695 498.085,111.543 499.231,110.211 C500.376,108.878 500.225,106.869 498.892,105.724 C488.665,96.931 475.602,92.137 462.115,92.227 C460.358,92.239 458.943,93.673 458.955,95.43 C458.966,97.188 460.4,98.603 462.158,98.591 Z" />
            <path d="M462.447,109.101 C456.347,117.301 447.119,122.604 436.962,123.747 C435.216,123.944 433.96,125.519 434.156,127.265 C434.353,129.011 435.928,130.267 437.674,130.071 C449.582,128.731 460.4,122.513 467.553,112.899 C468.602,111.489 468.309,109.496 466.899,108.447 C465.489,107.398 463.496,107.691 462.447,109.101 Z" />
            <path d="M477.502,114.526 C471.568,125.03 461.999,133.004 450.596,136.947 C448.936,137.522 448.055,139.334 448.629,140.994 C449.204,142.655 451.016,143.536 452.676,142.962 C465.545,138.511 476.345,129.512 483.043,117.656 C483.907,116.126 483.368,114.185 481.838,113.321 C480.308,112.456 478.367,112.996 477.502,114.526 Z" />
            <path d="M495.222,124.993 C488.023,115.452 477.245,109.258 465.377,107.841 L467.948,109.804 C464.121,100.369 464.121,89.813 467.948,80.378 C468.609,78.75 467.825,76.894 466.196,76.233 C464.568,75.573 462.712,76.357 462.052,77.986 C457.601,88.955 457.601,101.227 462.052,112.196 C462.487,113.27 463.472,114.022 464.623,114.159 C474.771,115.371 483.986,120.667 490.142,128.826 C491.2,130.228 493.196,130.507 494.598,129.449 C496.001,128.391 496.28,126.395 495.222,124.993 Z" />
            <path d="M443.743,84.289 C441.104,97.572 443.382,111.362 450.154,123.091 C451.032,124.613 452.978,125.134 454.5,124.256 C456.022,123.377 456.543,121.431 455.665,119.909 C449.665,109.517 447.646,97.299 449.984,85.529 C450.327,83.806 449.207,82.131 447.484,81.788 C445.76,81.446 444.085,82.565 443.743,84.289 Z" />
            <path d="M436.364,111 C436.364,95.185 449.185,82.364 465,82.364 C480.815,82.364 493.636,95.185 493.636,111 C493.636,126.815 480.815,139.636 465,139.636 C449.185,139.636 436.364,126.815 436.364,111 Z M430,111 C430,130.33 445.67,146 465,146 C484.33,146 500,130.33 500,111 C500,91.67 484.33,76 465,76 C445.67,76 430,91.67 430,111 Z" />
        </g>
        <g id="Black-M" transform="translate(0,200)">
            <path d="M662.158,98.591 C674.107,98.511 685.682,102.759 694.744,110.549 C696.076,111.695 698.085,111.543 699.231,110.211 C700.377,108.878 700.225,106.869 698.892,105.724 C688.665,96.931 675.602,92.137 662.115,92.227 C660.358,92.239 658.943,93.673 658.955,95.43 C658.966,97.188 660.4,98.603 662.158,98.591 Z" />
            <path d="M662.447,109.101 C656.346,117.301 647.119,122.604 636.962,123.747 C635.216,123.944 633.96,125.519 634.156,127.265 C634.353,129.011 635.928,130.267 637.674,130.071 C649.582,128.731 660.4,122.513 667.553,112.899 C668.602,111.489 668.309,109.496 666.899,108.447 C665.489,107.398 663.496,107.691 662.447,109.101 Z" />
            <path d="M677.503,114.526 C671.568,125.03 661.999,133.004 650.596,136.947 C648.936,137.522 648.055,139.334 648.629,140.994 C649.204,142.655 651.016,143.536 652.676,142.962 C665.545,138.511 676.345,129.512 683.043,117.656 C683.907,116.126 683.368,114.185 681.838,113.321 C680.308,112.456 678.367,112.996 677.503,114.526 Z" />
            <path d="M695.222,124.993 C688.023,115.452 677.245,109.258 665.377,107.841 L667.948,109.804 C664.121,100.369 664.121,89.813 667.948,80.378 C668.609,78.75 667.825,76.894 666.196,76.233 C664.568,75.573 662.712,76.357 662.052,77.986 C657.601,88.955 657.601,101.227 662.052,112.196 C662.487,113.27 663.472,114.022 664.623,114.159 C674.771,115.371 683.986,120.667 690.142,128.826 C691.2,130.228 693.196,130.507 694.598,129.449 C696.001,128.391 696.28,126.395 695.222,124.993 Z" />
            <path d="M643.743,84.289 C641.104,97.572 643.382,111.362 650.154,123.091 C651.032,124.613 652.978,125.134 654.5,124.256 C656.022,123.377 656.543,121.431 655.665,119.909 C649.665,109.517 647.646,97.299 649.984,85.529 C650.327,83.806 649.207,82.131 647.484,81.788 C645.76,81.446 644.085,82.565 643.743,84.289 Z" />
            <path d="M636.364,111 C636.364,95.185 649.185,82.364 665,82.364 C680.815,82.364 693.636,95.185 693.636,111 C693.636,126.815 680.815,139.636 665,139.636 C649.185,139.636 636.364,126.815 636.364,111 Z M630,111 C630,130.33 645.67,146 665,146 C684.33,146 700,130.33 700,111 C700,91.67 684.33,76 665,76 C645.67,76 630,91.67 630,111 Z" />
        </g>
    </g>
</svg>