<?xml version="1.0" encoding="UTF-8"?>
<svg height="600" width="800" xmlns="http://www.w3.org/2000/svg" xmlns:xlink="http://www.w3.org/1999/xlink">
    <g id="Notes" font-family="LucidaGrande, 'Lucida Grande', sans-serif" font-size="13">
        <rect fill="white" height="600.0" width="800.0" x="0.0" y="0.0" />
        <g font-size="13">
            <text x="18.0" y="176.0">Small</text>
            <text x="18.0" y="376.0">Medium</text>
            <text x="18.0" y="576.0">Large</text>
        </g>
        <g font-size="9">
            <text x="250.0" y="30.0">Ultralight</text>
            <text x="450.0" y="30.0">Regular</text>
            <text x="650.0" y="30.0">Black</text>
            <text id="template-version" fill="#505050" text-anchor="end" x="785.0" y="575.0">Template v.3.0</text>
            <a href="https://github.com/swhitty/SwiftDraw">
                <text fill="#505050" text-anchor="end" x="785.0" y="590.0">https://github.com/swhitty/SwiftDraw</text>
            </a>
        </g>
    </g>
    <g id="Guides" stroke="rgb(39, 170, 225)" stroke-width="0.5">
        <path id="Capline-S" d="M18,76 l800,0" />
        <path id="H-reference" d="M85,145.755 L87.685,145.755 L113.369,79.287 L114.052,79.287 L114.052,76 L112.148,76 L85,145.755 Z M95.693,121.536 L130.996,121.536 L130.263,119.313 L96.474,119.313 L95.693,121.536 Z M139.15,145.755 L141.787,145.755 L114.638,76 L113.466,76 L113.466,79.287 L139.15,145.755 Z" stroke="none" transform="translate(0,200)" />
        <path id="Baseline-S" d="M18,146 l800,0" />
        <path id="left-margin-Ultralight-M" d="M231.944,256 l0,110" />
        <path id="right-margin-Ultralight-M" d="M298.056,256 l0,110" />
        <path id="left-margin-Regular-M" d="M431.944,256 l0,110" />
        <path id="right-margin-Regular-M" d="M498.056,256 l0,110" />
        <path id="left-margin-Black-M" d="M631.944,256 l0,110" />
        <path id="right-margin-Black-M" d="M698.056,256 l0,110" />
        <path id="Capline-M" d="M18,276 l800,0" />
        <path id="Baseline-M" d="M18,346 l800,0" />
        <path id="Capline-L" d="M18,476 l800,0" />
        <path id="Baseline-L" d="M18,546 l800,0" />
    </g>
    <g id="Symbols">
        <g id="Ultralight-M" transform="translate(0,200)">
            <path d="M274.722,82.619 C274.718,79.941 273.103,77.528 270.628,76.504 C268.153,75.48 265.304,76.045 263.408,77.937 L250.246,91.091 C249.944,91.394 249.545,91.559 249.129,91.558 L239.722,91.558 C237.659,91.558 235.681,92.377 234.223,93.835 C232.764,95.294 231.944,97.271 231.944,99.333 L231.944,122.659 C231.944,124.721 232.764,126.699 234.223,128.157 C235.681,129.615 237.659,130.434 239.722,130.434 L249.118,130.434 C249.545,130.433 249.944,130.598 250.237,130.893 L263.401,144.056 C265.295,145.953 268.15,146.522 270.63,145.495 C273.11,144.467 274.726,142.046 274.722,139.362 L274.722,82.624 Z M266.944,82.624 L266.944,139.368 C266.944,138.909 267.223,138.49 267.652,138.312 C268.082,138.134 268.576,138.233 268.904,138.561 L255.745,125.404 C253.994,123.643 251.601,122.652 249.106,122.659 L239.722,122.659 C239.722,122.659 239.722,122.659 239.722,122.659 C239.722,122.659 239.722,122.659 239.722,122.659 L239.722,99.333 C239.722,99.333 239.722,99.333 239.722,99.333 C239.722,99.333 239.722,99.333 239.722,99.333 L249.118,99.333 C251.601,99.341 253.994,98.349 255.753,96.581 L268.904,83.438 C268.574,83.767 268.081,83.865 267.653,83.688 C267.225,83.511 266.945,83.093 266.944,82.63 Z" />
            <path d="M287.167,101.666 C291.315,107.195 291.315,114.797 287.167,120.326 C285.878,122.044 286.226,124.481 287.944,125.769 C289.663,127.057 292.1,126.709 293.389,124.991 C299.611,116.698 299.611,105.294 293.389,97.001 C292.1,95.283 289.663,94.935 287.944,96.223 C286.226,97.511 285.878,99.948 287.167,101.666 Z" />
        </g>
        <g id="Regular-M" transform="translate(0,200)">
            <path d="M474.722,82.619 C474.718,79.941 473.103,77.528 470.628,76.504 C468.153,75.48 465.304,76.045 463.408,77.937 L450.246,91.091 C449.944,91.394 449.545,91.559 449.129,91.558 L439.722,91.558 C437.659,91.558 435.681,92.377 434.223,93.835 C432.764,95.294 431.944,97.271 431.944,99.333 L431.944,122.659 C431.944,124.721 432.764,126.699 434.223,128.157 C435.681,129.615 437.659,130.434 439.722,130.434 L449.118,130.434 C449.545,130.433 449.944,130.598 450.237,130.893 L463.401,144.056 C465.295,145.953 468.15,146.522 470.63,145.495 C473.11,144.467 474.726,142.046 474.722,139.362 L474.722,82.624 Z M466.944,82.624 L466.944,139.368 C466.944,138.909 467.223,138.49 467.652,138.312 C468.082,138.134 468.576,138.233 468.904,138.561 L455.745,125.404 C453.994,123.643 451.601,122.652 449.106,122.659 L439.722,122.659 C439.722,122.659 439.722,122.659 439.722,122.659 C439.722,122.659 439.722,122.659 439.722,122.659 L439.722,99.333 C439.722,99.333 439.722,99.333 439.722,99.333 C439.722,99.333 439.722,99.333 439.722,99.333 L449.118,99.333 C451.601,99.341 453.994,98.349 455.753,96.581 L468.905,83.438 C468.574,83.767 468.081,83.865 467.653,83.688 C467.225,83.511 466.945,83.093 466.944,82.63 Z" />
            <path d="M487.167,101.666 C491.315,107.195 491.315,114.797 487.167,120.326 C485.878,122.044 486.226,124.481 487.944,125.769 C489.663,127.057 492.1,126.709 493.389,124.991 C499.611,116.698 499.611,105.294 493.389,97.001 C492.1,95.283 489.663,94.935 487.944,96.223 C486.226,97.511 485.878,99.948 487.167,101.666 Z" />
        </g>
        <g id="Black-M" transform="translate(0,200)">
            <path d="M674.722,82.619 C674.718,79.941 673.103,77.528 670.628,76.504 C668.153,75.48 665.304,76.045 663.408,77.937 L650.246,91.091 C649.944,91.394 649.545,91.559 649.129,91.558 L639.722,91.558 C637.659,91.558 635.681,92.377 634.223,93.835 C632.764,95.294 631.944,97.271 631.944,99.333 L631.944,122.659 C631.944,124.721 632.764,126.699 634.223,128.157 C635.681,129.615 637.659,130.434 639.722,130.434 L649.118,130.434 C649.545,130.433 649.944,130.598 650.237,130.893 L663.401,144.056 C665.295,145.953 668.15,146.522 670.63,145.495 C673.11,144.467 674.726,142.046 674.722,139.362 L674.722,82.624 Z M666.944,82.624 L666.944,139.368 C666.944,138.909 667.223,138.49 667.652,138.312 C668.082,138.134 668.576,138.233 668.904,138.561 L655.745,125.404 C653.994,123.643 651.601,122.652 649.106,122.659 L639.722,122.659 C639.722,122.659 639.722,122.659 639.722,122.659 C639.722,122.659 639.722,122.659 639.722,122.659 L639.722,99.333 C639.722,99.333 639.722,99.333 639.722,99.333 C639.722,99.333 639.722,99.333 639.722,99.333 L649.118,99.333 C651.601,99.341 653.994,98.349 655.753,96.581 L668.905,83.438 C668.574,83.767 668.081,83.865 667.653,83.688 C667.225,83.511 666.945,83.093 666.944,82.63 Z" />
            <path d="M687.167,101.666 C691.315,107.195 691.315,114.797 687.167,120.326 C685.878,122.044 686.226,124.481 687.944,125.769 C689.663,127.057 692.1,126.709 693.389,124.991 C699.611,116.698 699.611,105.294 693.389,97.001 C692.1,95.283 689.663,94.935 687.944,96.223 C686.226,97.511 685.878,99.948 687.167,101.666 Z" />
        </g>
    </g>
</svg>