<?xml version="1.0" encoding="UTF-8"?>
<svg height="600" width="800" xmlns="http://www.w3.org/2000/svg" xmlns:xlink="http://www.w3.org/1999/xlink">
    <g id="Notes" font-family="LucidaGrande, 'Lucida Grande', sans-serif" font-size="13">
        <rect fill="white" height="600.0" width="800.0" x="0.0" y="0.0" />
        <g font-size="13">
            <text x="18.0" y="176.0">Small</text>
            <text x="18.0" y="376.0">Medium</text>
            <text x="18.0" y="576.0">Large</text>
        </g>
        <g font-size="9">
            <text x="250.0" y="30.0">Ultralight</text>
            <text x="450.0" y="30.0">Regular</text>
            <text x="650.0" y="30.0">Black</text>
            <text id="template-version" fill="#505050" text-anchor="end" x="785.0" y="575.0">Template v.3.0</text>
            <a href="https://github.com/swhitty/SwiftDraw">
                <text fill="#505050" text-anchor="end" x="785.0" y="590.0">https://github.com/swhitty/SwiftDraw</text>
            </a>
        </g>
    </g>
    <g id="Guides" stroke="rgb(39, 170, 225)" stroke-width="0.5">
        <path id="Capline-S" d="M18,76 l800,0" />
        <path id="H-reference" d="M85,145.755 L87.685,145.755 L113.369,79.287 L114.052,79.287 L114.052,76 L112.148,76 L85,145.755 Z M95.693,121.536 L130.996,121.536 L130.263,119.313 L96.474,119.313 L95.693,121.536 Z M139.15,145.755 L141.787,145.755 L114.638,76 L113.466,76 L113.466,79.287 L139.15,145.755 Z" stroke="none" transform="translate(0,200)" />
        <path id="Baseline-S" d="M18,146 l800,0" />
        <path id="left-margin-Ultralight-M" d="M222.222,256 l0,110" />
        <path id="right-margin-Ultralight-M" d="M307.778,256 l0,110" />
        <path id="left-margin-Regular-M" d="M422.222,256 l0,110" />
        <path id="right-margin-Regular-M" d="M507.778,256 l0,110" />
        <path id="left-margin-Black-M" d="M622.222,256 l0,110" />
        <path id="right-margin-Black-M" d="M707.778,256 l0,110" />
        <path id="Capline-M" d="M18,276 l800,0" />
        <path id="Baseline-M" d="M18,346 l800,0" />
        <path id="Capline-L" d="M18,476 l800,0" />
        <path id="Baseline-L" d="M18,546 l800,0" />
    </g>
    <g id="Symbols">
        <g id="Ultralight-M" transform="translate(0,200)">
            <path d="M265,82.619 C264.996,79.941 263.381,77.528 260.906,76.504 C258.43,75.48 255.582,76.045 253.686,77.937 L240.523,91.091 C240.222,91.394 239.823,91.559 239.407,91.558 L230,91.558 C227.937,91.558 225.959,92.377 224.5,93.835 C223.042,95.294 222.222,97.271 222.222,99.333 L222.222,122.659 C222.222,124.721 223.042,126.699 224.5,128.157 C225.959,129.615 227.937,130.434 230,130.434 L239.396,130.434 C239.823,130.433 240.222,130.598 240.515,130.893 L253.679,144.056 C255.573,145.953 258.428,146.522 260.908,145.495 C263.388,144.467 265.004,142.046 265,139.362 L265,82.624 Z M257.222,82.624 L257.222,139.368 C257.221,138.909 257.501,138.49 257.93,138.312 C258.359,138.134 258.853,138.233 259.181,138.561 L246.023,125.404 C244.272,123.643 241.879,122.652 239.384,122.659 L230,122.659 C230,122.659 230,122.659 230,122.659 C230,122.659 230,122.659 230,122.659 L230,99.333 C230,99.333 230,99.333 230,99.333 C230,99.333 230,99.333 230,99.333 L239.396,99.333 C241.879,99.341 244.272,98.349 246.031,96.581 L259.182,83.438 C258.852,83.767 258.359,83.865 257.931,83.688 C257.502,83.511 257.223,83.093 257.222,82.63 Z" />
            <path d="M277.444,101.666 C281.592,107.195 281.592,114.797 277.444,120.326 C276.156,122.044 276.504,124.481 278.222,125.769 C279.94,127.057 282.378,126.709 283.666,124.991 C289.889,116.698 289.889,105.294 283.666,97.001 C282.378,95.283 279.94,94.935 278.222,96.223 C276.504,97.511 276.156,99.948 277.444,101.666 Z" />
            <path d="M296.387,138.486 C303.681,131.195 307.778,121.307 307.778,110.996 C307.778,100.685 303.681,90.797 296.387,83.507 C294.869,81.988 292.406,81.988 290.888,83.507 C289.369,85.025 289.369,87.486 290.888,89.004 C296.722,94.837 300,102.748 300,110.996 C300,119.245 296.722,127.155 290.888,132.988 C289.369,134.506 289.369,136.967 290.888,138.486 C292.406,140.004 294.869,140.004 296.387,138.486 Z" />
        </g>
        <g id="Regular-M" transform="translate(0,200)">
            <path d="M465,82.619 C464.996,79.941 463.381,77.528 460.906,76.504 C458.43,75.48 455.582,76.045 453.686,77.937 L440.523,91.091 C440.222,91.394 439.823,91.559 439.407,91.558 L430,91.558 C427.937,91.558 425.959,92.377 424.5,93.835 C423.042,95.294 422.222,97.271 422.222,99.333 L422.222,122.659 C422.222,124.721 423.042,126.699 424.5,128.157 C425.959,129.615 427.937,130.434 430,130.434 L439.396,130.434 C439.823,130.433 440.222,130.598 440.515,130.893 L453.679,144.056 C455.573,145.953 458.428,146.522 460.908,145.495 C463.388,144.467 465.004,142.046 465,139.362 L465,82.624 Z M457.222,82.624 L457.222,139.368 C457.221,138.909 457.501,138.49 457.93,138.312 C458.359,138.134 458.853,138.233 459.181,138.561 L446.023,125.404 C444.272,123.643 441.879,122.652 439.384,122.659 L430,122.659 C430,122.659 430,122.659 430,122.659 C430,122.659 430,122.659 430,122.659 L430,99.333 C430,99.333 430,99.333 430,99.333 C430,99.333 430,99.333 430,99.333 L439.396,99.333 C441.879,99.341 444.272,98.349 446.031,96.581 L459.182,83.438 C458.852,83.767 458.359,83.865 457.931,83.688 C457.502,83.511 457.223,83.093 457.222,82.63 Z" />
            <path d="M477.444,101.666 C481.592,107.195 481.592,114.797 477.444,120.326 C476.156,122.044 476.504,124.481 478.222,125.769 C479.94,127.057 482.378,126.709 483.666,124.991 C489.889,116.698 489.889,105.294 483.666,97.001 C482.378,95.283 479.94,94.935 478.222,96.223 C476.504,97.511 476.156,99.948 477.444,101.666 Z" />
            <path d="M496.387,138.486 C503.681,131.195 507.778,121.307 507.778,110.996 C507.778,100.685 503.681,90.797 496.387,83.507 C494.869,81.988 492.406,81.988 490.888,83.507 C489.369,85.025 489.369,87.486 490.888,89.004 C496.722,94.837 500,102.748 500,110.996 C500,119.245 496.722,127.155 490.888,132.988 C489.369,134.506 489.369,136.967 490.888,138.486 C492.406,140.004 494.869,140.004 496.387,138.486 Z" />
        </g>
        <g id="Black-M" transform="translate(0,200)">
            <path d="M665,82.619 C664.996,79.941 663.381,77.528 660.906,76.504 C658.43,75.48 655.582,76.045 653.686,77.937 L640.523,91.091 C640.222,91.394 639.823,91.559 639.407,91.558 L630,91.558 C627.937,91.558 625.959,92.377 624.5,93.835 C623.042,95.294 622.222,97.271 622.222,99.333 L622.222,122.659 C622.222,124.721 623.042,126.699 624.5,128.157 C625.959,129.615 627.937,130.434 630,130.434 L639.396,130.434 C639.823,130.433 640.222,130.598 640.515,130.893 L653.679,144.056 C655.573,145.953 658.428,146.522 660.908,145.495 C663.388,144.467 665.004,142.046 665,139.362 L665,82.624 Z M657.222,82.624 L657.222,139.368 C657.221,138.909 657.501,138.49 657.93,138.312 C658.359,138.134 658.853,138.233 659.181,138.561 L646.023,125.404 C644.272,123.643 641.879,122.652 639.384,122.659 L630,122.659 C630,122.659 630,122.659 630,122.659 C630,122.659 630,122.659 630,122.659 L630,99.333 C630,99.333 630,99.333 630,99.333 C630,99.333 630,99.333 630,99.333 L639.396,99.333 C641.879,99.341 644.272,98.349 646.031,96.581 L659.182,83.438 C658.852,83.767 658.359,83.865 657.93,83.688 C657.502,83.511 657.223,83.093 657.222,82.63 Z" />
            <path d="M677.444,101.666 C681.592,107.195 681.592,114.797 677.444,120.326 C676.156,122.044 676.504,124.481 678.222,125.769 C679.94,127.057 682.378,126.709 683.666,124.991 C689.889,116.698 689.889,105.294 683.666,97.001 C682.378,95.283 679.94,94.935 678.222,96.223 C676.504,97.511 676.156,99.948 677.444,101.666 Z" />
            <path d="M696.387,138.486 C703.681,131.195 707.778,121.307 707.778,110.996 C707.778,100.685 703.681,90.797 696.387,83.507 C694.869,81.988 692.406,81.988 690.888,83.507 C689.369,85.025 689.369,87.486 690.888,89.004 C696.722,94.837 700,102.748 700,110.996 C700,119.245 696.722,127.155 690.888,132.988 C689.369,134.506 689.369,136.967 690.888,138.486 C692.406,140.004 694.869,140.004 696.387,138.486 Z" />
        </g>
    </g>
</svg>