<?xml version="1.0" encoding="UTF-8"?>
<svg height="600" width="800" xmlns="http://www.w3.org/2000/svg" xmlns:xlink="http://www.w3.org/1999/xlink">
    <g id="Notes" font-family="LucidaGrande, 'Lucida Grande', sans-serif" font-size="13">
        <rect fill="white" height="600.0" width="800.0" x="0.0" y="0.0" />
        <g font-size="13">
            <text x="18.0" y="176.0">Small</text>
            <text x="18.0" y="376.0">Medium</text>
            <text x="18.0" y="576.0">Large</text>
        </g>
        <g font-size="9">
            <text x="250.0" y="30.0">Ultralight</text>
            <text x="450.0" y="30.0">Regular</text>
            <text x="650.0" y="30.0">Black</text>
            <text id="template-version" fill="#505050" text-anchor="end" x="785.0" y="575.0">Template v.3.0</text>
            <a href="https://github.com/swhitty/SwiftDraw">
                <text fill="#505050" text-anchor="end" x="785.0" y="590.0">https://github.com/swhitty/SwiftDraw</text>
            </a>
        </g>
    </g>
    <g id="Guides" stroke="rgb(39, 170, 225)" stroke-width="0.5">
        <path id="Capline-S" d="M18,76 l800,0" />
        <path id="H-reference" d="M85,145.755 L87.685,145.755 L113.369,79.287 L114.052,79.287 L114.052,76 L112.148,76 L85,145.755 Z M95.693,121.536 L130.996,121.536 L130.263,119.313 L96.474,119.313 L95.693,121.536 Z M139.15,145.755 L141.787,145.755 L114.638,76 L113.466,76 L113.466,79.287 L139.15,145.755 Z" stroke="none" transform="translate(0,200)" />
        <path id="Baseline-S" d="M18,146 l800,0" />
        <path id="left-margin-Ultralight-M" d="M222.222,256 l0,110" />
        <path id="right-margin-Ultralight-M" d="M307.778,256 l0,110" />
        <path id="left-margin-Regular-M" d="M422.222,256 l0,110" />
        <path id="right-margin-Regular-M" d="M507.778,256 l0,110" />
        <path id="left-margin-Black-M" d="M622.222,256 l0,110" />
        <path id="right-margin-Black-M" d="M707.778,256 l0,110" />
        <path id="Capline-M" d="M18,276 l800,0" />
        <path id="Baseline-M" d="M18,346 l800,0" />
        <path id="Capline-L" d="M18,476 l800,0" />
        <path id="Baseline-L" d="M18,546 l800,0" />
    </g>
    <g id="Symbols">
        <g id="Ultralight-M" transform="translate(0,200)">
            <path d="M223.682,114.037 C231.584,120.358 240.083,120.358 247.985,114.037 C253.046,109.988 257.509,109.988 262.571,114.037 C270.472,120.358 278.972,120.358 286.874,114.037 C291.935,109.988 296.398,109.988 301.46,114.037 C303.137,115.378 305.584,115.106 306.926,113.429 C308.267,111.752 307.995,109.305 306.318,107.963 C298.417,101.642 289.917,101.642 282.015,107.963 C276.954,112.012 272.491,112.012 267.429,107.963 C259.528,101.642 251.028,101.642 243.126,107.963 C238.065,112.012 233.602,112.012 228.54,107.963 C226.863,106.622 224.416,106.894 223.074,108.571 C221.733,110.248 222.005,112.695 223.682,114.037 Z" />
            <path d="M223.682,141.259 C231.584,147.58 240.083,147.58 247.985,141.259 C253.046,137.21 257.509,137.21 262.571,141.259 C270.472,147.58 278.972,147.58 286.874,141.259 C291.935,137.21 296.398,137.21 301.46,141.259 C303.137,142.601 305.584,142.329 306.926,140.652 C308.267,138.974 307.995,136.527 306.318,135.186 C298.417,128.864 289.917,128.864 282.015,135.186 C276.954,139.234 272.491,139.234 267.429,135.186 C259.528,128.864 251.028,128.864 243.126,135.186 C238.065,139.234 233.602,139.234 228.54,135.186 C226.863,133.844 224.416,134.116 223.074,135.793 C221.733,137.47 222.005,139.917 223.682,141.259 Z" />
            <path d="M223.682,86.814 C231.584,93.136 240.083,93.136 247.985,86.814 C253.046,82.766 257.509,82.766 262.571,86.814 C270.472,93.136 278.972,93.136 286.874,86.814 C291.935,82.766 296.398,82.766 301.46,86.814 C303.137,88.156 305.584,87.884 306.926,86.207 C308.267,84.53 307.995,82.083 306.318,80.741 C298.417,74.42 289.917,74.42 282.015,80.741 C276.954,84.79 272.491,84.79 267.429,80.741 C259.528,74.42 251.028,74.42 243.126,80.741 C238.065,84.79 233.602,84.79 228.54,80.741 C226.863,79.399 224.416,79.671 223.074,81.348 C221.733,83.026 222.005,85.473 223.682,86.814 Z" />
        </g>
        <g id="Regular-M" transform="translate(0,200)">
            <path d="M423.682,114.037 C431.584,120.358 440.083,120.358 447.985,114.037 C453.046,109.988 457.509,109.988 462.571,114.037 C470.472,120.358 478.972,120.358 486.874,114.037 C491.935,109.988 496.398,109.988 501.46,114.037 C503.137,115.378 505.584,115.106 506.926,113.429 C508.267,111.752 507.995,109.305 506.318,107.963 C498.417,101.642 489.917,101.642 482.015,107.963 C476.954,112.012 472.491,112.012 467.429,107.963 C459.528,101.642 451.028,101.642 443.126,107.963 C438.065,112.012 433.602,112.012 428.54,107.963 C426.863,106.622 424.416,106.894 423.074,108.571 C421.733,110.248 422.005,112.695 423.682,114.037 Z" />
            <path d="M423.682,141.259 C431.584,147.58 440.083,147.58 447.985,141.259 C453.046,137.21 457.509,137.21 462.571,141.259 C470.472,147.58 478.972,147.58 486.874,141.259 C491.935,137.21 496.398,137.21 501.46,141.259 C503.137,142.601 505.584,142.329 506.926,140.652 C508.267,138.974 507.995,136.527 506.318,135.186 C498.417,128.864 489.917,128.864 482.015,135.186 C476.954,139.234 472.491,139.234 467.429,135.186 C459.528,128.864 451.028,128.864 443.126,135.186 C438.065,139.234 433.602,139.234 428.54,135.186 C426.863,133.844 424.416,134.116 423.074,135.793 C421.733,137.47 422.005,139.917 423.682,141.259 Z" />
            <path d="M423.682,86.814 C431.584,93.136 440.083,93.136 447.985,86.814 C453.046,82.766 457.509,82.766 462.571,86.814 C470.472,93.136 478.972,93.136 486.874,86.814 C491.935,82.766 496.398,82.766 501.46,86.814 C503.137,88.156 505.584,87.884 506.926,86.207 C508.267,84.53 507.995,82.083 506.318,80.741 C498.417,74.42 489.917,74.42 482.015,80.741 C476.954,84.79 472.491,84.79 467.429,80.741 C459.528,74.42 451.028,74.42 443.126,80.741 C438.065,84.79 433.602,84.79 428.54,80.741 C426.863,79.399 424.416,79.671 423.074,81.348 C421.733,83.026 422.005,85.473 423.682,86.814 Z" />
        </g>
        <g id="Black-M" transform="translate(0,200)">
            <path d="M623.682,114.037 C631.583,120.358 640.083,120.358 647.985,114.037 C653.046,109.988 657.509,109.988 662.571,114.037 C670.472,120.358 678.972,120.358 686.874,114.037 C691.935,109.988 696.398,109.988 701.46,114.037 C703.137,115.378 705.584,115.106 706.926,113.429 C708.267,111.752 707.995,109.305 706.318,107.963 C698.417,101.642 689.917,101.642 682.015,107.963 C676.954,112.012 672.491,112.012 667.429,107.963 C659.528,101.642 651.028,101.642 643.126,107.963 C638.065,112.012 633.602,112.012 628.54,107.963 C626.863,106.622 624.416,106.894 623.074,108.571 C621.733,110.248 622.005,112.695 623.682,114.037 Z" />
            <path d="M623.682,141.259 C631.583,147.58 640.083,147.58 647.985,141.259 C653.046,137.21 657.509,137.21 662.571,141.259 C670.472,147.58 678.972,147.58 686.874,141.259 C691.935,137.21 696.398,137.21 701.46,141.259 C703.137,142.601 705.584,142.329 706.926,140.652 C708.267,138.974 707.995,136.527 706.318,135.186 C698.417,128.864 689.917,128.864 682.015,135.186 C676.954,139.234 672.491,139.234 667.429,135.186 C659.528,128.864 651.028,128.864 643.126,135.186 C638.065,139.234 633.602,139.234 628.54,135.186 C626.863,133.844 624.416,134.116 623.074,135.793 C621.733,137.47 622.005,139.917 623.682,141.259 Z" />
            <path d="M623.682,86.814 C631.583,93.136 640.083,93.136 647.985,86.814 C653.046,82.766 657.509,82.766 662.571,86.814 C670.472,93.136 678.972,93.136 686.874,86.814 C691.935,82.766 696.398,82.766 701.46,86.814 C703.137,88.156 705.584,87.884 706.926,86.207 C708.267,84.53 707.995,82.083 706.318,80.741 C698.417,74.42 689.917,74.42 682.015,80.741 C676.954,84.79 672.491,84.79 667.429,80.741 C659.528,74.42 651.028,74.42 643.126,80.741 C638.065,84.79 633.602,84.79 628.54,80.741 C626.863,79.399 624.416,79.671 623.074,81.348 C621.733,83.026 622.005,85.473 623.682,86.814 Z" />
        </g>
    </g>
</svg>