<?xml version="1.0" encoding="UTF-8"?>
<svg height="600" width="800" xmlns="http://www.w3.org/2000/svg" xmlns:xlink="http://www.w3.org/1999/xlink">
    <g id="Notes" font-family="LucidaGrande, 'Lucida Grande', sans-serif" font-size="13">
        <rect fill="white" height="600.0" width="800.0" x="0.0" y="0.0" />
        <g font-size="13">
            <text x="18.0" y="176.0">Small</text>
            <text x="18.0" y="376.0">Medium</text>
            <text x="18.0" y="576.0">Large</text>
        </g>
        <g font-size="9">
            <text x="250.0" y="30.0">Ultralight</text>
            <text x="450.0" y="30.0">Regular</text>
            <text x="650.0" y="30.0">Black</text>
            <text id="template-version" fill="#505050" text-anchor="end" x="785.0" y="575.0">Template v.3.0</text>
            <a href="https://github.com/swhitty/SwiftDraw">
                <text fill="#505050" text-anchor="end" x="785.0" y="590.0">https://github.com/swhitty/SwiftDraw</text>
            </a>
        </g>
    </g>
    <g id="Guides" stroke="rgb(39, 170, 225)" stroke-width="0.5">
        <path id="Capline-S" d="M18,76 l800,0" />
        <path id="H-reference" d="M85,145.755 L87.685,145.755 L113.369,79.287 L114.052,79.287 L114.052,76 L112.148,76 L85,145.755 Z M95.693,121.536 L130.996,121.536 L130.263,119.313 L96.474,119.313 L95.693,121.536 Z M139.15,145.755 L141.787,145.755 L114.638,76 L113.466,76 L113.466,79.287 L139.15,145.755 Z" stroke="none" transform="translate(0,200)" />
        <path id="Baseline-S" d="M18,146 l800,0" />
        <path id="left-margin-Ultralight-M" d="M230,256 l0,110" />
        <path id="right-margin-Ultralight-M" d="M300,256 l0,110" />
        <path id="left-margin-Regular-M" d="M430,256 l0,110" />
        <path id="right-margin-Regular-M" d="M500,256 l0,110" />
        <path id="left-margin-Black-M" d="M630,256 l0,110" />
        <path id="right-margin-Black-M" d="M700,256 l0,110" />
        <path id="Capline-M" d="M18,276 l800,0" />
        <path id="Baseline-M" d="M18,346 l800,0" />
        <path id="Capline-L" d="M18,476 l800,0" />
        <path id="Baseline-L" d="M18,546 l800,0" />
    </g>
    <g id="Symbols">
        <g id="Ultralight-M" transform="translate(0,200)">
            <path d="M258.251,87.795 L241.795,104.251 C240.552,105.494 240.552,107.508 241.795,108.751 C243.037,109.993 245.052,109.993 246.294,108.751 L262.751,92.294 C263.993,91.052 263.993,89.037 262.751,87.795 C261.508,86.552 259.494,86.552 258.251,87.795 Z" />
            <path d="M283.706,113.249 L267.249,129.706 C266.007,130.948 266.007,132.963 267.249,134.205 C268.492,135.448 270.506,135.448 271.749,134.205 L288.205,117.749 C289.448,116.506 289.448,114.492 288.205,113.249 C286.963,112.007 284.948,112.007 283.706,113.249 Z" />
            <path d="M245.909,114.182 L284.091,114.182 C285.848,114.182 287.273,112.757 287.273,111 C287.273,109.243 285.848,107.818 284.091,107.818 L245.909,107.818 C244.152,107.818 242.727,109.243 242.727,111 C242.727,112.757 244.152,114.182 245.909,114.182 Z" />
            <path d="M261.818,136.455 C261.818,134.697 263.243,133.273 265,133.273 C266.757,133.273 268.182,134.697 268.182,136.455 C268.182,138.212 266.757,139.636 265,139.636 C263.243,139.636 261.818,138.212 261.818,136.455 Z M255.455,136.455 C255.455,141.726 259.728,146 265,146 C270.272,146 274.545,141.726 274.545,136.455 C274.545,131.183 270.272,126.909 265,126.909 C259.728,126.909 255.455,131.183 255.455,136.455 Z" />
            <path d="M261.818,85.545 C261.818,83.788 263.243,82.364 265,82.364 C266.757,82.364 268.182,83.788 268.182,85.545 C268.182,87.303 266.757,88.727 265,88.727 C263.243,88.727 261.818,87.303 261.818,85.545 Z M255.455,85.545 C255.455,90.817 259.728,95.091 265,95.091 C270.272,95.091 274.545,90.817 274.545,85.545 C274.545,80.274 270.272,76 265,76 C259.728,76 255.455,80.274 255.455,85.545 Z" />
            <path d="M287.273,111 C287.273,109.243 288.697,107.818 290.455,107.818 C292.212,107.818 293.636,109.243 293.636,111 C293.636,112.757 292.212,114.182 290.455,114.182 C288.697,114.182 287.273,112.757 287.273,111 Z M280.909,111 C280.909,116.272 285.183,120.545 290.455,120.545 C295.726,120.545 300,116.272 300,111 C300,105.728 295.726,101.455 290.455,101.455 C285.183,101.455 280.909,105.728 280.909,111 Z" />
            <path d="M236.364,111 C236.364,109.243 237.788,107.818 239.545,107.818 C241.303,107.818 242.727,109.243 242.727,111 C242.727,112.757 241.303,114.182 239.545,114.182 C237.788,114.182 236.364,112.757 236.364,111 Z M230,111 C230,116.272 234.274,120.545 239.545,120.545 C244.817,120.545 249.091,116.272 249.091,111 C249.091,105.728 244.817,101.455 239.545,101.455 C234.274,101.455 230,105.728 230,111 Z" />
        </g>
        <g id="Regular-M" transform="translate(0,200)">
            <path d="M458.251,87.795 L441.795,104.251 C440.552,105.494 440.552,107.508 441.795,108.751 C443.037,109.993 445.052,109.993 446.294,108.751 L462.751,92.294 C463.993,91.052 463.993,89.037 462.751,87.795 C461.508,86.552 459.494,86.552 458.251,87.795 Z" />
            <path d="M483.706,113.249 L467.249,129.706 C466.007,130.948 466.007,132.963 467.249,134.205 C468.492,135.448 470.506,135.448 471.749,134.205 L488.205,117.749 C489.448,116.506 489.448,114.492 488.205,113.249 C486.963,112.007 484.948,112.007 483.706,113.249 Z" />
            <path d="M445.909,114.182 L484.091,114.182 C485.848,114.182 487.273,112.757 487.273,111 C487.273,109.243 485.848,107.818 484.091,107.818 L445.909,107.818 C444.152,107.818 442.727,109.243 442.727,111 C442.727,112.757 444.152,114.182 445.909,114.182 Z" />
            <path d="M461.818,136.455 C461.818,134.697 463.243,133.273 465,133.273 C466.757,133.273 468.182,134.697 468.182,136.455 C468.182,138.212 466.757,139.636 465,139.636 C463.243,139.636 461.818,138.212 461.818,136.455 Z M455.455,136.455 C455.455,141.726 459.728,146 465,146 C470.272,146 474.545,141.726 474.545,136.455 C474.545,131.183 470.272,126.909 465,126.909 C459.728,126.909 455.455,131.183 455.455,136.455 Z" />
            <path d="M461.818,85.545 C461.818,83.788 463.243,82.364 465,82.364 C466.757,82.364 468.182,83.788 468.182,85.545 C468.182,87.303 466.757,88.727 465,88.727 C463.243,88.727 461.818,87.303 461.818,85.545 Z M455.455,85.545 C455.455,90.817 459.728,95.091 465,95.091 C470.272,95.091 474.545,90.817 474.545,85.545 C474.545,80.274 470.272,76 465,76 C459.728,76 455.455,80.274 455.455,85.545 Z" />
            <path d="M487.273,111 C487.273,109.243 488.697,107.818 490.455,107.818 C492.212,107.818 493.636,109.243 493.636,111 C493.636,112.757 492.212,114.182 490.455,114.182 C488.697,114.182 487.273,112.757 487.273,111 Z M480.909,111 C480.909,116.272 485.183,120.545 490.455,120.545 C495.726,120.545 500,116.272 500,111 C500,105.728 495.726,101.455 490.455,101.455 C485.183,101.455 480.909,105.728 480.909,111 Z" />
            <path d="M436.364,111 C436.364,109.243 437.788,107.818 439.545,107.818 C441.303,107.818 442.727,109.243 442.727,111 C442.727,112.757 441.303,114.182 439.545,114.182 C437.788,114.182 436.364,112.757 436.364,111 Z M430,111 C430,116.272 434.274,120.545 439.545,120.545 C444.817,120.545 449.091,116.272 449.091,111 C449.091,105.728 444.817,101.455 439.545,101.455 C434.274,101.455 430,105.728 430,111 Z" />
        </g>
        <g id="Black-M" transform="translate(0,200)">
            <path d="M658.251,87.795 L641.795,104.251 C640.552,105.494 640.552,107.508 641.795,108.751 C643.037,109.993 645.052,109.993 646.294,108.751 L662.751,92.294 C663.993,91.052 663.993,89.037 662.751,87.795 C661.508,86.552 659.494,86.552 658.251,87.795 Z" />
            <path d="M683.706,113.249 L667.249,129.706 C666.007,130.948 666.007,132.963 667.249,134.205 C668.492,135.448 670.506,135.448 671.749,134.205 L688.205,117.749 C689.448,116.506 689.448,114.492 688.205,113.249 C686.963,112.007 684.948,112.007 683.706,113.249 Z" />
            <path d="M645.909,114.182 L684.091,114.182 C685.848,114.182 687.273,112.757 687.273,111 C687.273,109.243 685.848,107.818 684.091,107.818 L645.909,107.818 C644.152,107.818 642.727,109.243 642.727,111 C642.727,112.757 644.152,114.182 645.909,114.182 Z" />
            <path d="M661.818,136.455 C661.818,134.697 663.243,133.273 665,133.273 C666.757,133.273 668.182,134.697 668.182,136.455 C668.182,138.212 666.757,139.636 665,139.636 C663.243,139.636 661.818,138.212 661.818,136.455 Z M655.455,136.455 C655.455,141.726 659.728,146 665,146 C670.272,146 674.545,141.726 674.545,136.455 C674.545,131.183 670.272,126.909 665,126.909 C659.728,126.909 655.455,131.183 655.455,136.455 Z" />
            <path d="M661.818,85.545 C661.818,83.788 663.243,82.364 665,82.364 C666.757,82.364 668.182,83.788 668.182,85.545 C668.182,87.303 666.757,88.727 665,88.727 C663.243,88.727 661.818,87.303 661.818,85.545 Z M655.455,85.545 C655.455,90.817 659.728,95.091 665,95.091 C670.272,95.091 674.545,90.817 674.545,85.545 C674.545,80.274 670.272,76 665,76 C659.728,76 655.455,80.274 655.455,85.545 Z" />
            <path d="M687.273,111 C687.273,109.243 688.697,107.818 690.455,107.818 C692.212,107.818 693.636,109.243 693.636,111 C693.636,112.757 692.212,114.182 690.455,114.182 C688.697,114.182 687.273,112.757 687.273,111 Z M680.909,111 C680.909,116.272 685.183,120.545 690.455,120.545 C695.726,120.545 700,116.272 700,111 C700,105.728 695.726,101.455 690.455,101.455 C685.183,101.455 680.909,105.728 680.909,111 Z" />
            <path d="M636.364,111 C636.364,109.243 637.788,107.818 639.545,107.818 C641.303,107.818 642.727,109.243 642.727,111 C642.727,112.757 641.303,114.182 639.545,114.182 C637.788,114.182 636.364,112.757 636.364,111 Z M630,111 C630,116.272 634.274,120.545 639.545,120.545 C644.817,120.545 649.091,116.272 649.091,111 C649.091,105.728 644.817,101.455 639.545,101.455 C634.274,101.455 630,105.728 630,111 Z" />
        </g>
    </g>
</svg>