<?xml version="1.0" encoding="UTF-8"?>
<svg height="600" width="800" xmlns="http://www.w3.org/2000/svg" xmlns:xlink="http://www.w3.org/1999/xlink">
    <g id="Notes" font-family="LucidaGrande, 'Lucida Grande', sans-serif" font-size="13">
        <rect fill="white" height="600.0" width="800.0" x="0.0" y="0.0" />
        <g font-size="13">
            <text x="18.0" y="176.0">Small</text>
            <text x="18.0" y="376.0">Medium</text>
            <text x="18.0" y="576.0">Large</text>
        </g>
        <g font-size="9">
            <text x="250.0" y="30.0">Ultralight</text>
            <text x="450.0" y="30.0">Regular</text>
            <text x="650.0" y="30.0">Black</text>
            <text id="template-version" fill="#505050" text-anchor="end" x="785.0" y="575.0">Template v.3.0</text>
            <a href="https://github.com/swhitty/SwiftDraw">
                <text fill="#505050" text-anchor="end" x="785.0" y="590.0">https://github.com/swhitty/SwiftDraw</text>
            </a>
        </g>
    </g>
    <g id="Guides" stroke="rgb(39, 170, 225)" stroke-width="0.5">
        <path id="Capline-S" d="M18,76 l800,0" />
        <path id="H-reference" d="M85,145.755 L87.685,145.755 L113.369,79.287 L114.052,79.287 L114.052,76 L112.148,76 L85,145.755 Z M95.693,121.536 L130.996,121.536 L130.263,119.313 L96.474,119.313 L95.693,121.536 Z M139.15,145.755 L141.787,145.755 L114.638,76 L113.466,76 L113.466,79.287 L139.15,145.755 Z" stroke="none" transform="translate(0,200)" />
        <path id="Baseline-S" d="M18,146 l800,0" />
        <path id="left-margin-Ultralight-M" d="M230,256 l0,110" />
        <path id="right-margin-Ultralight-M" d="M300,256 l0,110" />
        <path id="left-margin-Regular-M" d="M430,256 l0,110" />
        <path id="right-margin-Regular-M" d="M500,256 l0,110" />
        <path id="left-margin-Black-M" d="M630,256 l0,110" />
        <path id="right-margin-Black-M" d="M700,256 l0,110" />
        <path id="Capline-M" d="M18,276 l800,0" />
        <path id="Baseline-M" d="M18,346 l800,0" />
        <path id="Capline-L" d="M18,476 l800,0" />
        <path id="Baseline-L" d="M18,546 l800,0" />
    </g>
    <g id="Symbols">
        <g id="Ultralight-M" transform="translate(0,200)">
            <path d="M235.432,145.068 L267.25,113.25 C268.492,112.007 268.492,109.993 267.25,108.75 C266.007,107.508 263.993,107.508 262.75,108.75 L230.932,140.568 C229.689,141.811 229.689,143.825 230.932,145.068 C232.175,146.311 234.189,146.311 235.432,145.068 Z" />
            <path d="M275.477,96.023 L271.755,99.746 C270.512,100.988 270.512,103.003 271.755,104.245 C272.997,105.488 275.012,105.488 276.254,104.245 L279.977,100.523 C281.22,99.28 281.22,97.265 279.977,96.023 C278.735,94.78 276.72,94.78 275.477,96.023 Z" />
            <path d="M240.109,114.936 L244.977,110.068 L240.477,110.068 L245.346,114.936 C248.433,118.036 248.433,123.055 245.341,126.159 L240.477,131.023 L244.977,131.023 L240.109,126.155 C237.022,123.055 237.022,118.036 240.113,114.932 Z M235.605,110.441 C230.04,116.028 230.04,125.063 235.605,130.65 L240.477,135.523 C241.72,136.765 243.735,136.765 244.977,135.523 L249.845,130.654 C255.415,125.063 255.415,116.028 249.85,110.441 L244.977,105.568 C243.735,104.326 241.72,104.326 240.477,105.568 L235.609,110.436 Z" />
            <path d="M250.023,96.023 L248.336,97.709 C242.767,103.301 242.767,112.336 248.332,117.923 L253.205,122.795 C254.447,124.038 256.462,124.038 257.704,122.795 L262.573,117.927 C264.775,115.725 266.171,112.879 266.592,109.847 C266.834,108.106 265.619,106.499 263.879,106.258 C262.138,106.016 260.531,107.231 260.289,108.971 C260.057,110.643 259.287,112.214 258.073,113.427 L253.205,118.296 L257.704,118.296 L252.836,113.427 C249.749,110.328 249.749,105.308 252.841,102.205 L254.523,100.523 C255.765,99.28 255.765,97.265 254.523,96.023 C253.28,94.78 251.265,94.78 250.023,96.023 Z" />
            <path d="M264.288,91.145 C264.633,90.546 265.07,89.975 265.564,89.482 L270.432,84.614 L265.932,84.614 L270.8,89.482 C273.621,92.316 273.894,96.815 271.431,99.976 C270.351,101.362 270.599,103.362 271.985,104.442 C273.371,105.522 275.371,105.274 276.451,103.887 C280.884,98.198 280.393,90.1 275.305,84.987 L270.432,80.114 C269.189,78.871 267.174,78.871 265.932,80.114 L261.064,84.982 C260.175,85.871 259.398,86.886 258.776,87.965 C257.898,89.487 258.42,91.432 259.942,92.311 C261.464,93.189 263.41,92.667 264.288,91.145 Z" />
            <path d="M290.455,82.364 L296.818,82.364 L293.636,79.182 L293.636,85.545 C293.636,88.077 292.631,90.505 290.841,92.295 C289.05,94.085 286.623,95.091 284.091,95.091 L277.727,95.091 L280.909,98.273 L280.909,91.909 C280.909,89.377 281.915,86.95 283.705,85.159 C285.495,83.369 287.923,82.364 290.455,82.364 Z M290.455,76 C286.235,76 282.189,77.676 279.205,80.66 C276.222,83.643 274.545,87.69 274.545,91.909 L274.545,98.273 C274.545,100.03 275.97,101.455 277.727,101.455 L284.091,101.455 C288.31,101.455 292.357,99.778 295.34,96.795 C298.324,93.811 300,89.765 300,85.545 L300,79.182 C300,77.425 298.575,76 296.818,76 L290.455,76 Z" />
            <path d="M261.064,130.654 L265.932,135.523 L265.932,131.023 L261.064,135.891 C257.964,138.978 252.945,138.978 249.841,135.887 L244.977,131.023 L244.977,135.523 L249.845,130.654 C252.945,127.567 257.964,127.567 261.068,130.659 Z M265.559,126.15 C259.972,120.585 250.937,120.585 245.35,126.15 L240.477,131.023 C239.235,132.265 239.235,134.28 240.477,135.523 L245.346,140.391 C250.937,145.96 259.972,145.96 265.559,140.395 L270.432,135.523 C271.674,134.28 271.674,132.265 270.432,131.023 L265.564,126.155 Z" />
            <path d="M275.477,121.477 L273.791,123.164 C270.692,126.251 265.672,126.251 262.568,123.159 L257.704,118.296 L257.704,122.795 L262.573,117.927 C263.777,116.73 265.346,115.949 267.038,115.709 C268.778,115.463 269.988,113.852 269.741,112.112 C269.494,110.372 267.884,109.162 266.144,109.409 C263.094,109.842 260.265,111.249 258.08,113.42 L253.205,118.296 C251.962,119.538 251.962,121.553 253.205,122.795 L258.073,127.664 C263.664,133.233 272.699,133.233 278.286,127.668 L279.977,125.977 C281.22,124.735 281.22,122.72 279.977,121.477 C278.735,120.235 276.72,120.235 275.477,121.477 Z" />
            <path d="M288.035,117.224 C289.114,116.602 290.129,115.825 291.018,114.936 L295.886,110.068 C297.129,108.825 297.129,106.811 295.886,105.568 L291.018,100.7 C285.9,95.607 277.802,95.116 272.113,99.549 C270.726,100.629 270.478,102.629 271.558,104.015 C272.638,105.401 274.638,105.649 276.024,104.569 C279.185,102.106 283.684,102.379 286.524,105.205 L291.386,110.068 L291.386,105.568 L286.518,110.436 C286.025,110.93 285.454,111.367 284.855,111.712 C283.333,112.59 282.811,114.536 283.689,116.058 C284.568,117.58 286.513,118.102 288.035,117.224 Z" />
            <path d="M230.932,81.432 L294.568,145.068 C295.811,146.311 297.826,146.311 299.068,145.068 C300.311,143.825 300.311,141.811 299.068,140.568 L235.432,76.932 C234.189,75.689 232.175,75.689 230.932,76.932 C229.689,78.175 229.689,80.189 230.932,81.432 Z" />
        </g>
        <g id="Regular-M" transform="translate(0,200)">
            <path d="M435.432,145.068 L467.25,113.25 C468.492,112.007 468.492,109.993 467.25,108.75 C466.007,107.508 463.993,107.508 462.75,108.75 L430.932,140.568 C429.689,141.811 429.689,143.825 430.932,145.068 C432.174,146.311 434.189,146.311 435.432,145.068 Z" />
            <path d="M475.477,96.023 L471.755,99.746 C470.512,100.988 470.512,103.003 471.755,104.245 C472.997,105.488 475.012,105.488 476.254,104.245 L479.977,100.523 C481.22,99.28 481.22,97.265 479.977,96.023 C478.735,94.78 476.72,94.78 475.477,96.023 Z" />
            <path d="M440.109,114.936 L444.977,110.068 L440.477,110.068 L445.346,114.936 C448.433,118.036 448.433,123.055 445.341,126.159 L440.477,131.023 L444.977,131.023 L440.109,126.155 C437.022,123.055 437.022,118.036 440.113,114.932 Z M435.605,110.441 C430.04,116.028 430.04,125.063 435.605,130.65 L440.477,135.523 C441.72,136.765 443.735,136.765 444.977,135.523 L449.845,130.654 C455.415,125.063 455.415,116.028 449.85,110.441 L444.977,105.568 C443.735,104.326 441.72,104.326 440.477,105.568 L435.609,110.436 Z" />
            <path d="M450.023,96.023 L448.336,97.709 C442.767,103.301 442.767,112.336 448.332,117.923 L453.205,122.795 C454.447,124.038 456.462,124.038 457.704,122.795 L462.573,117.927 C464.775,115.725 466.171,112.879 466.592,109.847 C466.834,108.106 465.619,106.499 463.879,106.258 C462.138,106.016 460.531,107.231 460.289,108.971 C460.057,110.643 459.287,112.214 458.073,113.427 L453.205,118.296 L457.704,118.296 L452.836,113.427 C449.749,110.328 449.749,105.308 452.841,102.205 L454.523,100.523 C455.765,99.28 455.765,97.265 454.523,96.023 C453.28,94.78 451.265,94.78 450.023,96.023 Z" />
            <path d="M464.288,91.145 C464.633,90.546 465.07,89.975 465.564,89.482 L470.432,84.614 L465.932,84.614 L470.8,89.482 C473.621,92.316 473.894,96.815 471.431,99.976 C470.351,101.362 470.599,103.362 471.985,104.442 C473.371,105.522 475.371,105.274 476.451,103.887 C480.884,98.198 480.393,90.1 475.305,84.987 L470.432,80.114 C469.189,78.871 467.174,78.871 465.932,80.114 L461.064,84.982 C460.175,85.871 459.398,86.886 458.776,87.965 C457.898,89.487 458.42,91.432 459.942,92.311 C461.464,93.189 463.41,92.667 464.288,91.145 Z" />
            <path d="M490.455,82.364 L496.818,82.364 L493.636,79.182 L493.636,85.545 C493.636,88.077 492.631,90.505 490.841,92.295 C489.05,94.085 486.623,95.091 484.091,95.091 L477.727,95.091 L480.909,98.273 L480.909,91.909 C480.909,89.377 481.915,86.95 483.705,85.159 C485.495,83.369 487.923,82.364 490.455,82.364 Z M490.455,76 C486.235,76 482.189,77.676 479.205,80.66 C476.222,83.643 474.545,87.69 474.545,91.909 L474.545,98.273 C474.545,100.03 475.97,101.455 477.727,101.455 L484.091,101.455 C488.31,101.455 492.357,99.778 495.34,96.795 C498.324,93.811 500,89.765 500,85.545 L500,79.182 C500,77.425 498.575,76 496.818,76 L490.455,76 Z" />
            <path d="M461.064,130.654 L465.932,135.523 L465.932,131.023 L461.064,135.891 C457.964,138.978 452.945,138.978 449.841,135.887 L444.977,131.023 L444.977,135.523 L449.845,130.654 C452.945,127.567 457.964,127.567 461.068,130.659 Z M465.559,126.15 C459.972,120.585 450.937,120.585 445.35,126.15 L440.477,131.023 C439.235,132.265 439.235,134.28 440.477,135.523 L445.346,140.391 C450.937,145.96 459.972,145.96 465.559,140.395 L470.432,135.523 C471.674,134.28 471.674,132.265 470.432,131.023 L465.564,126.155 Z" />
            <path d="M475.477,121.477 L473.791,123.164 C470.692,126.251 465.672,126.251 462.568,123.159 L457.704,118.296 L457.704,122.795 L462.573,117.927 C463.777,116.73 465.346,115.949 467.038,115.709 C468.778,115.463 469.988,113.852 469.741,112.112 C469.494,110.372 467.884,109.162 466.144,109.409 C463.094,109.842 460.265,111.249 458.08,113.42 L453.205,118.296 C451.962,119.538 451.962,121.553 453.205,122.795 L458.073,127.664 C463.664,133.233 472.699,133.233 478.286,127.668 L479.977,125.977 C481.22,124.735 481.22,122.72 479.977,121.477 C478.735,120.235 476.72,120.235 475.477,121.477 Z" />
            <path d="M488.035,117.224 C489.114,116.602 490.129,115.825 491.018,114.936 L495.886,110.068 C497.129,108.825 497.129,106.811 495.886,105.568 L491.018,100.7 C485.9,95.607 477.802,95.116 472.113,99.549 C470.726,100.629 470.478,102.629 471.558,104.015 C472.638,105.401 474.638,105.649 476.024,104.569 C479.185,102.106 483.684,102.379 486.524,105.205 L491.386,110.068 L491.386,105.568 L486.518,110.436 C486.025,110.93 485.454,111.367 484.855,111.712 C483.333,112.59 482.811,114.536 483.689,116.058 C484.568,117.58 486.513,118.102 488.035,117.224 Z" />
            <path d="M430.932,81.432 L494.568,145.068 C495.811,146.311 497.826,146.311 499.068,145.068 C500.311,143.825 500.311,141.811 499.068,140.568 L435.432,76.932 C434.189,75.689 432.174,75.689 430.932,76.932 C429.689,78.175 429.689,80.189 430.932,81.432 Z" />
        </g>
        <g id="Black-M" transform="translate(0,200)">
            <path d="M635.432,145.068 L667.25,113.25 C668.492,112.007 668.492,109.993 667.25,108.75 C666.007,107.508 663.993,107.508 662.75,108.75 L630.932,140.568 C629.689,141.811 629.689,143.825 630.932,145.068 C632.174,146.311 634.189,146.311 635.432,145.068 Z" />
            <path d="M675.477,96.023 L671.755,99.746 C670.512,100.988 670.512,103.003 671.755,104.245 C672.997,105.488 675.012,105.488 676.254,104.245 L679.977,100.523 C681.22,99.28 681.22,97.265 679.977,96.023 C678.735,94.78 676.72,94.78 675.477,96.023 Z" />
            <path d="M640.109,114.936 L644.977,110.068 L640.477,110.068 L645.346,114.936 C648.433,118.036 648.433,123.055 645.341,126.159 L640.477,131.023 L644.977,131.023 L640.109,126.155 C637.022,123.055 637.022,118.036 640.113,114.932 Z M635.605,110.441 C630.04,116.028 630.04,125.063 635.605,130.65 L640.477,135.523 C641.72,136.765 643.735,136.765 644.977,135.523 L649.845,130.654 C655.415,125.063 655.415,116.028 649.85,110.441 L644.977,105.568 C643.735,104.326 641.72,104.326 640.477,105.568 L635.609,110.436 Z" />
            <path d="M650.023,96.023 L648.336,97.709 C642.767,103.301 642.767,112.336 648.332,117.923 L653.205,122.795 C654.447,124.038 656.462,124.038 657.704,122.795 L662.573,117.927 C664.775,115.725 666.171,112.879 666.592,109.847 C666.834,108.106 665.619,106.499 663.879,106.258 C662.138,106.016 660.531,107.231 660.289,108.971 C660.057,110.643 659.287,112.214 658.073,113.427 L653.205,118.296 L657.704,118.296 L652.836,113.427 C649.749,110.328 649.749,105.308 652.841,102.205 L654.523,100.523 C655.765,99.28 655.765,97.265 654.523,96.023 C653.28,94.78 651.265,94.78 650.023,96.023 Z" />
            <path d="M664.288,91.145 C664.633,90.546 665.07,89.975 665.564,89.482 L670.432,84.614 L665.932,84.614 L670.8,89.482 C673.621,92.316 673.894,96.815 671.431,99.976 C670.351,101.362 670.599,103.362 671.985,104.442 C673.371,105.522 675.371,105.274 676.451,103.887 C680.884,98.198 680.393,90.1 675.305,84.987 L670.432,80.114 C669.189,78.871 667.174,78.871 665.932,80.114 L661.064,84.982 C660.175,85.871 659.398,86.886 658.776,87.965 C657.898,89.487 658.42,91.432 659.942,92.311 C661.464,93.189 663.41,92.667 664.288,91.145 Z" />
            <path d="M690.455,82.364 L696.818,82.364 L693.636,79.182 L693.636,85.545 C693.636,88.077 692.631,90.505 690.841,92.295 C689.05,94.085 686.622,95.091 684.091,95.091 L677.727,95.091 L680.909,98.273 L680.909,91.909 C680.909,89.377 681.915,86.95 683.705,85.159 C685.495,83.369 687.923,82.364 690.455,82.364 Z M690.455,76 C686.235,76 682.189,77.676 679.205,80.66 C676.222,83.643 674.545,87.69 674.545,91.909 L674.545,98.273 C674.545,100.03 675.97,101.455 677.727,101.455 L684.091,101.455 C688.31,101.455 692.357,99.778 695.34,96.795 C698.324,93.811 700,89.765 700,85.545 L700,79.182 C700,77.425 698.575,76 696.818,76 L690.455,76 Z" />
            <path d="M661.064,130.654 L665.932,135.523 L665.932,131.023 L661.064,135.891 C657.964,138.978 652.945,138.978 649.841,135.887 L644.977,131.023 L644.977,135.523 L649.845,130.654 C652.945,127.567 657.964,127.567 661.068,130.659 Z M665.559,126.15 C659.972,120.585 650.937,120.585 645.35,126.15 L640.477,131.023 C639.235,132.265 639.235,134.28 640.477,135.523 L645.346,140.391 C650.937,145.96 659.972,145.96 665.559,140.395 L670.432,135.523 C671.674,134.28 671.674,132.265 670.432,131.023 L665.564,126.155 Z" />
            <path d="M675.477,121.477 L673.791,123.164 C670.692,126.251 665.672,126.251 662.568,123.159 L657.704,118.296 L657.704,122.795 L662.573,117.927 C663.777,116.73 665.346,115.949 667.038,115.709 C668.778,115.463 669.988,113.852 669.741,112.112 C669.494,110.372 667.884,109.162 666.144,109.409 C663.094,109.842 660.265,111.249 658.08,113.42 L653.205,118.296 C651.962,119.538 651.962,121.553 653.205,122.795 L658.073,127.664 C663.664,133.233 672.699,133.233 678.286,127.668 L679.977,125.977 C681.22,124.735 681.22,122.72 679.977,121.477 C678.735,120.235 676.72,120.235 675.477,121.477 Z" />
            <path d="M688.035,117.224 C689.114,116.602 690.129,115.825 691.018,114.936 L695.886,110.068 C697.129,108.825 697.129,106.811 695.886,105.568 L691.018,100.7 C685.9,95.607 677.802,95.116 672.113,99.549 C670.726,100.629 670.478,102.629 671.558,104.015 C672.638,105.401 674.638,105.649 676.024,104.569 C679.185,102.106 683.684,102.379 686.524,105.205 L691.386,110.068 L691.386,105.568 L686.518,110.436 C686.025,110.93 685.454,111.367 684.855,111.712 C683.333,112.59 682.811,114.536 683.689,116.058 C684.568,117.58 686.513,118.102 688.035,117.224 Z" />
            <path d="M630.932,81.432 L694.568,145.068 C695.811,146.311 697.826,146.311 699.068,145.068 C700.311,143.825 700.311,141.811 699.068,140.568 L635.432,76.932 C634.189,75.689 632.174,75.689 630.932,76.932 C629.689,78.175 629.689,80.189 630.932,81.432 Z" />
        </g>
    </g>
</svg>