<?xml version="1.0" encoding="UTF-8"?>
<svg height="600" width="800" xmlns="http://www.w3.org/2000/svg" xmlns:xlink="http://www.w3.org/1999/xlink">
    <g id="Notes" font-family="LucidaGrande, 'Lucida Grande', sans-serif" font-size="13">
        <rect fill="white" height="600.0" width="800.0" x="0.0" y="0.0" />
        <g font-size="13">
            <text x="18.0" y="176.0">Small</text>
            <text x="18.0" y="376.0">Medium</text>
            <text x="18.0" y="576.0">Large</text>
        </g>
        <g font-size="9">
            <text x="250.0" y="30.0">Ultralight</text>
            <text x="450.0" y="30.0">Regular</text>
            <text x="650.0" y="30.0">Black</text>
            <text id="template-version" fill="#505050" text-anchor="end" x="785.0" y="575.0">Template v.3.0</text>
            <a href="https://github.com/swhitty/SwiftDraw">
                <text fill="#505050" text-anchor="end" x="785.0" y="590.0">https://github.com/swhitty/SwiftDraw</text>
            </a>
        </g>
    </g>
    <g id="Guides" stroke="rgb(39, 170, 225)" stroke-width="0.5">
        <path id="Capline-S" d="M18,76 l800,0" />
        <path id="H-reference" d="M85,145.755 L87.685,145.755 L113.369,79.287 L114.052,79.287 L114.052,76 L112.148,76 L85,145.755 Z M95.693,121.536 L130.996,121.536 L130.263,119.313 L96.474,119.313 L95.693,121.536 Z M139.15,145.755 L141.787,145.755 L114.638,76 L113.466,76 L113.466,79.287 L139.15,145.755 Z" stroke="none" transform="translate(0,200)" />
        <path id="Baseline-S" d="M18,146 l800,0" />
        <path id="left-margin-Ultralight-M" d="M230,256 l0,110" />
        <path id="right-margin-Ultralight-M" d="M300,256 l0,110" />
        <path id="left-margin-Regular-M" d="M430,256 l0,110" />
        <path id="right-margin-Regular-M" d="M500,256 l0,110" />
        <path id="left-margin-Black-M" d="M630,256 l0,110" />
        <path id="right-margin-Black-M" d="M700,256 l0,110" />
        <path id="Capline-M" d="M18,276 l800,0" />
        <path id="Baseline-M" d="M18,346 l800,0" />
        <path id="Capline-L" d="M18,476 l800,0" />
        <path id="Baseline-L" d="M18,546 l800,0" />
    </g>
    <g id="Symbols">
        <g id="Ultralight-M" transform="translate(0,200)">
            <path d="M235.432,145.068 L279.977,100.523 C281.22,99.28 281.22,97.265 279.977,96.023 C278.735,94.78 276.72,94.78 275.477,96.023 L230.932,140.568 C229.689,141.811 229.689,143.825 230.932,145.068 C232.175,146.311 234.189,146.311 235.432,145.068 Z" />
            <path d="M240.109,114.936 L244.977,110.068 L240.477,110.068 L245.346,114.936 C248.433,118.036 248.433,123.055 245.341,126.159 L240.477,131.023 L244.977,131.023 L240.109,126.155 C237.022,123.055 237.022,118.036 240.113,114.932 Z M235.605,110.441 C230.04,116.028 230.04,125.063 235.605,130.65 L240.477,135.523 C241.72,136.765 243.735,136.765 244.977,135.523 L249.845,130.654 C255.415,125.063 255.415,116.028 249.85,110.441 L244.977,105.568 C243.735,104.326 241.72,104.326 240.477,105.568 L235.609,110.436 Z" />
            <path d="M252.836,102.209 L257.704,97.341 L253.205,97.341 L258.073,102.209 C261.16,105.308 261.16,110.328 258.068,113.432 L253.205,118.296 L257.704,118.296 L252.836,113.427 C249.749,110.328 249.749,105.308 252.841,102.205 Z M248.332,97.714 C242.767,103.301 242.767,112.336 248.332,117.923 L253.205,122.795 C254.447,124.038 256.462,124.038 257.704,122.795 L262.573,117.927 C268.142,112.336 268.142,103.301 262.577,97.714 L257.704,92.841 C256.462,91.598 254.447,91.598 253.205,92.841 L248.336,97.709 Z" />
            <path d="M265.564,89.482 L270.432,84.614 L265.932,84.614 L270.8,89.482 C273.887,92.581 273.887,97.601 270.796,100.705 L265.932,105.568 L270.432,105.568 L265.564,100.7 C262.476,97.601 262.476,92.581 265.568,89.477 Z M261.059,84.986 C255.494,90.573 255.494,99.608 261.059,105.195 L265.932,110.068 C267.174,111.311 269.189,111.311 270.432,110.068 L275.3,105.2 C280.869,99.608 280.869,90.573 275.304,84.986 L270.432,80.114 C269.189,78.871 267.174,78.871 265.932,80.114 L261.064,84.982 Z" />
            <path d="M290.455,82.364 L296.818,82.364 L293.636,79.182 L293.636,85.545 C293.636,88.077 292.631,90.505 290.841,92.295 C289.05,94.085 286.623,95.091 284.091,95.091 L277.727,95.091 L280.909,98.273 L280.909,91.909 C280.909,89.377 281.915,86.95 283.705,85.159 C285.495,83.369 287.923,82.364 290.455,82.364 Z M290.455,76 C286.235,76 282.189,77.676 279.205,80.66 C276.222,83.643 274.545,87.69 274.545,91.909 L274.545,98.273 C274.545,100.03 275.97,101.455 277.727,101.455 L284.091,101.455 C288.31,101.455 292.357,99.778 295.34,96.795 C298.324,93.811 300,89.765 300,85.545 L300,79.182 C300,77.425 298.575,76 296.818,76 L290.455,76 Z" />
            <path d="M261.064,130.654 L265.932,135.523 L265.932,131.023 L261.064,135.891 C257.964,138.978 252.945,138.978 249.841,135.887 L244.977,131.023 L244.977,135.523 L249.845,130.654 C252.945,127.567 257.964,127.567 261.068,130.659 Z M265.559,126.15 C259.972,120.585 250.937,120.585 245.35,126.15 L240.477,131.023 C239.235,132.265 239.235,134.28 240.477,135.523 L245.346,140.391 C250.937,145.96 259.972,145.96 265.559,140.395 L270.432,135.523 C271.674,134.28 271.674,132.265 270.432,131.023 L265.564,126.155 Z" />
            <path d="M273.791,117.927 L278.659,122.795 L278.659,118.296 L273.791,123.164 C270.692,126.251 265.672,126.251 262.568,123.159 L257.704,118.296 L257.704,122.795 L262.573,117.927 C265.672,114.84 270.692,114.84 273.795,117.932 Z M278.286,113.423 C272.699,107.858 263.664,107.858 258.077,113.423 L253.205,118.296 C251.962,119.538 251.962,121.553 253.205,122.795 L258.073,127.664 C263.664,133.233 272.699,133.233 278.286,127.668 L283.159,122.795 C284.402,121.553 284.402,119.538 283.159,118.296 L278.291,113.427 Z" />
            <path d="M286.518,105.2 L291.386,110.068 L291.386,105.568 L286.518,110.436 C283.419,113.524 278.399,113.524 275.295,110.432 L270.432,105.568 L270.432,110.068 L275.3,105.2 C278.399,102.113 283.419,102.113 286.523,105.204 Z M291.014,100.696 C285.427,95.131 276.392,95.131 270.805,100.696 L265.932,105.568 C264.689,106.811 264.689,108.825 265.932,110.068 L270.8,114.936 C276.392,120.506 285.427,120.506 291.014,114.941 L295.886,110.068 C297.129,108.825 297.129,106.811 295.886,105.568 L291.018,100.7 Z" />
        </g>
        <g id="Regular-M" transform="translate(0,200)">
            <path d="M435.432,145.068 L479.977,100.523 C481.22,99.28 481.22,97.265 479.977,96.023 C478.735,94.78 476.72,94.78 475.477,96.023 L430.932,140.568 C429.689,141.811 429.689,143.825 430.932,145.068 C432.174,146.311 434.189,146.311 435.432,145.068 Z" />
            <path d="M440.109,114.936 L444.977,110.068 L440.477,110.068 L445.346,114.936 C448.433,118.036 448.433,123.055 445.341,126.159 L440.477,131.023 L444.977,131.023 L440.109,126.155 C437.022,123.055 437.022,118.036 440.113,114.932 Z M435.605,110.441 C430.04,116.028 430.04,125.063 435.605,130.65 L440.477,135.523 C441.72,136.765 443.735,136.765 444.977,135.523 L449.845,130.654 C455.415,125.063 455.415,116.028 449.85,110.441 L444.977,105.568 C443.735,104.326 441.72,104.326 440.477,105.568 L435.609,110.436 Z" />
            <path d="M452.836,102.209 L457.704,97.341 L453.205,97.341 L458.073,102.209 C461.16,105.308 461.16,110.328 458.068,113.432 L453.205,118.296 L457.704,118.296 L452.836,113.427 C449.749,110.328 449.749,105.308 452.841,102.205 Z M448.332,97.714 C442.767,103.301 442.767,112.336 448.332,117.923 L453.205,122.795 C454.447,124.038 456.462,124.038 457.704,122.795 L462.573,117.927 C468.142,112.336 468.142,103.301 462.577,97.714 L457.704,92.841 C456.462,91.598 454.447,91.598 453.205,92.841 L448.336,97.709 Z" />
            <path d="M465.564,89.482 L470.432,84.614 L465.932,84.614 L470.8,89.482 C473.887,92.581 473.887,97.601 470.796,100.705 L465.932,105.568 L470.432,105.568 L465.564,100.7 C462.476,97.601 462.476,92.581 465.568,89.477 Z M461.059,84.986 C455.494,90.573 455.494,99.608 461.059,105.195 L465.932,110.068 C467.174,111.311 469.189,111.311 470.432,110.068 L475.3,105.2 C480.869,99.608 480.869,90.573 475.304,84.986 L470.432,80.114 C469.189,78.871 467.174,78.871 465.932,80.114 L461.064,84.982 Z" />
            <path d="M490.455,82.364 L496.818,82.364 L493.636,79.182 L493.636,85.545 C493.636,88.077 492.631,90.505 490.841,92.295 C489.05,94.085 486.623,95.091 484.091,95.091 L477.727,95.091 L480.909,98.273 L480.909,91.909 C480.909,89.377 481.915,86.95 483.705,85.159 C485.495,83.369 487.923,82.364 490.455,82.364 Z M490.455,76 C486.235,76 482.189,77.676 479.205,80.66 C476.222,83.643 474.545,87.69 474.545,91.909 L474.545,98.273 C474.545,100.03 475.97,101.455 477.727,101.455 L484.091,101.455 C488.31,101.455 492.357,99.778 495.34,96.795 C498.324,93.811 500,89.765 500,85.545 L500,79.182 C500,77.425 498.575,76 496.818,76 L490.455,76 Z" />
            <path d="M461.064,130.654 L465.932,135.523 L465.932,131.023 L461.064,135.891 C457.964,138.978 452.945,138.978 449.841,135.887 L444.977,131.023 L444.977,135.523 L449.845,130.654 C452.945,127.567 457.964,127.567 461.068,130.659 Z M465.559,126.15 C459.972,120.585 450.937,120.585 445.35,126.15 L440.477,131.023 C439.235,132.265 439.235,134.28 440.477,135.523 L445.346,140.391 C450.937,145.96 459.972,145.96 465.559,140.395 L470.432,135.523 C471.674,134.28 471.674,132.265 470.432,131.023 L465.564,126.155 Z" />
            <path d="M473.791,117.927 L478.659,122.795 L478.659,118.296 L473.791,123.164 C470.692,126.251 465.672,126.251 462.568,123.159 L457.704,118.296 L457.704,122.795 L462.573,117.927 C465.672,114.84 470.692,114.84 473.795,117.932 Z M478.286,113.423 C472.699,107.858 463.664,107.858 458.077,113.423 L453.205,118.296 C451.962,119.538 451.962,121.553 453.205,122.795 L458.073,127.664 C463.664,133.233 472.699,133.233 478.286,127.668 L483.159,122.795 C484.402,121.553 484.402,119.538 483.159,118.296 L478.291,113.427 Z" />
            <path d="M486.518,105.2 L491.386,110.068 L491.386,105.568 L486.518,110.436 C483.419,113.524 478.399,113.524 475.295,110.432 L470.432,105.568 L470.432,110.068 L475.3,105.2 C478.399,102.113 483.419,102.113 486.523,105.204 Z M491.014,100.696 C485.427,95.131 476.392,95.131 470.805,100.696 L465.932,105.568 C464.689,106.811 464.689,108.825 465.932,110.068 L470.8,114.936 C476.392,120.506 485.427,120.506 491.014,114.941 L495.886,110.068 C497.129,108.825 497.129,106.811 495.886,105.568 L491.018,100.7 Z" />
        </g>
        <g id="Black-M" transform="translate(0,200)">
            <path d="M635.432,145.068 L679.977,100.523 C681.22,99.28 681.22,97.265 679.977,96.023 C678.735,94.78 676.72,94.78 675.477,96.023 L630.932,140.568 C629.689,141.811 629.689,143.825 630.932,145.068 C632.174,146.311 634.189,146.311 635.432,145.068 Z" />
            <path d="M640.109,114.936 L644.977,110.068 L640.477,110.068 L645.346,114.936 C648.433,118.036 648.433,123.055 645.341,126.159 L640.477,131.023 L644.977,131.023 L640.109,126.155 C637.022,123.055 637.022,118.036 640.113,114.932 Z M635.605,110.441 C630.04,116.028 630.04,125.063 635.605,130.65 L640.477,135.523 C641.72,136.765 643.735,136.765 644.977,135.523 L649.845,130.654 C655.415,125.063 655.415,116.028 649.85,110.441 L644.977,105.568 C643.735,104.326 641.72,104.326 640.477,105.568 L635.609,110.436 Z" />
            <path d="M652.836,102.209 L657.704,97.341 L653.205,97.341 L658.073,102.209 C661.16,105.308 661.16,110.328 658.068,113.432 L653.205,118.296 L657.704,118.296 L652.836,113.427 C649.749,110.328 649.749,105.308 652.841,102.205 Z M648.332,97.714 C642.767,103.301 642.767,112.336 648.332,117.923 L653.205,122.795 C654.447,124.038 656.462,124.038 657.704,122.795 L662.573,117.927 C668.142,112.336 668.142,103.301 662.577,97.714 L657.704,92.841 C656.462,91.598 654.447,91.598 653.205,92.841 L648.336,97.709 Z" />
            <path d="M665.564,89.482 L670.432,84.614 L665.932,84.614 L670.8,89.482 C673.887,92.581 673.887,97.601 670.796,100.705 L665.932,105.568 L670.432,105.568 L665.564,100.7 C662.476,97.601 662.476,92.581 665.568,89.477 Z M661.059,84.986 C655.494,90.573 655.494,99.608 661.059,105.195 L665.932,110.068 C667.174,111.311 669.189,111.311 670.432,110.068 L675.3,105.2 C680.869,99.608 680.869,90.573 675.304,84.986 L670.432,80.114 C669.189,78.871 667.174,78.871 665.932,80.114 L661.064,84.982 Z" />
            <path d="M690.455,82.364 L696.818,82.364 L693.636,79.182 L693.636,85.545 C693.636,88.077 692.631,90.505 690.841,92.295 C689.05,94.085 686.622,95.091 684.091,95.091 L677.727,95.091 L680.909,98.273 L680.909,91.909 C680.909,89.377 681.915,86.95 683.705,85.159 C685.495,83.369 687.923,82.364 690.455,82.364 Z M690.455,76 C686.235,76 682.189,77.676 679.205,80.66 C676.222,83.643 674.545,87.69 674.545,91.909 L674.545,98.273 C674.545,100.03 675.97,101.455 677.727,101.455 L684.091,101.455 C688.31,101.455 692.357,99.778 695.34,96.795 C698.324,93.811 700,89.765 700,85.545 L700,79.182 C700,77.425 698.575,76 696.818,76 L690.455,76 Z" />
            <path d="M661.064,130.654 L665.932,135.523 L665.932,131.023 L661.064,135.891 C657.964,138.978 652.945,138.978 649.841,135.887 L644.977,131.023 L644.977,135.523 L649.845,130.654 C652.945,127.567 657.964,127.567 661.068,130.659 Z M665.559,126.15 C659.972,120.585 650.937,120.585 645.35,126.15 L640.477,131.023 C639.235,132.265 639.235,134.28 640.477,135.523 L645.346,140.391 C650.937,145.96 659.972,145.96 665.559,140.395 L670.432,135.523 C671.674,134.28 671.674,132.265 670.432,131.023 L665.564,126.155 Z" />
            <path d="M673.791,117.927 L678.659,122.795 L678.659,118.296 L673.791,123.164 C670.692,126.251 665.672,126.251 662.568,123.159 L657.704,118.296 L657.704,122.795 L662.573,117.927 C665.672,114.84 670.692,114.84 673.795,117.932 Z M678.286,113.423 C672.699,107.858 663.664,107.858 658.077,113.423 L653.205,118.296 C651.962,119.538 651.962,121.553 653.205,122.795 L658.073,127.664 C663.664,133.233 672.699,133.233 678.286,127.668 L683.159,122.795 C684.402,121.553 684.402,119.538 683.159,118.296 L678.291,113.427 Z" />
            <path d="M686.518,105.2 L691.386,110.068 L691.386,105.568 L686.518,110.436 C683.419,113.524 678.399,113.524 675.295,110.432 L670.432,105.568 L670.432,110.068 L675.3,105.2 C678.399,102.113 683.419,102.113 686.523,105.204 Z M691.014,100.696 C685.427,95.131 676.392,95.131 670.805,100.696 L665.932,105.568 C664.689,106.811 664.689,108.825 665.932,110.068 L670.8,114.936 C676.392,120.506 685.427,120.506 691.014,114.941 L695.886,110.068 C697.129,108.825 697.129,106.811 695.886,105.568 L691.018,100.7 Z" />
        </g>
    </g>
</svg>