<?xml version="1.0" encoding="UTF-8"?>
<svg height="600" width="800" xmlns="http://www.w3.org/2000/svg" xmlns:xlink="http://www.w3.org/1999/xlink">
    <g id="Notes" font-family="LucidaGrande, 'Lucida Grande', sans-serif" font-size="13">
        <rect fill="white" height="600.0" width="800.0" x="0.0" y="0.0" />
        <g font-size="13">
            <text x="18.0" y="176.0">Small</text>
            <text x="18.0" y="376.0">Medium</text>
            <text x="18.0" y="576.0">Large</text>
        </g>
        <g font-size="9">
            <text x="250.0" y="30.0">Ultralight</text>
            <text x="450.0" y="30.0">Regular</text>
            <text x="650.0" y="30.0">Black</text>
            <text id="template-version" fill="#505050" text-anchor="end" x="785.0" y="575.0">Template v.3.0</text>
            <a href="https://github.com/swhitty/SwiftDraw">
                <text fill="#505050" text-anchor="end" x="785.0" y="590.0">https://github.com/swhitty/SwiftDraw</text>
            </a>
        </g>
    </g>
    <g id="Guides" stroke="rgb(39, 170, 225)" stroke-width="0.5">
        <path id="Capline-S" d="M18,76 l800,0" />
        <path id="H-reference" d="M85,145.755 L87.685,145.755 L113.369,79.287 L114.052,79.287 L114.052,76 L112.148,76 L85,145.755 Z M95.693,121.536 L130.996,121.536 L130.263,119.313 L96.474,119.313 L95.693,121.536 Z M139.15,145.755 L141.787,145.755 L114.638,76 L113.466,76 L113.466,79.287 L139.15,145.755 Z" stroke="none" transform="translate(0,200)" />
        <path id="Baseline-S" d="M18,146 l800,0" />
        <path id="left-margin-Ultralight-M" d="M222.222,256 l0,110" />
        <path id="right-margin-Ultralight-M" d="M307.778,256 l0,110" />
        <path id="left-margin-Regular-M" d="M422.222,256 l0,110" />
        <path id="right-margin-Regular-M" d="M507.778,256 l0,110" />
        <path id="left-margin-Black-M" d="M622.222,256 l0,110" />
        <path id="right-margin-Black-M" d="M707.778,256 l0,110" />
        <path id="Capline-M" d="M18,276 l800,0" />
        <path id="Baseline-M" d="M18,346 l800,0" />
        <path id="Capline-L" d="M18,476 l800,0" />
        <path id="Baseline-L" d="M18,546 l800,0" />
    </g>
    <g id="Symbols">
        <g id="Ultralight-M" transform="translate(0,200)">
            <path d="M265.777,143.667 C269.838,146.712 275.402,146.783 279.539,143.841 C283.675,140.899 285.435,135.62 283.891,130.784 C282.347,125.949 277.853,122.667 272.777,122.667 L226.111,122.667 C223.963,122.667 222.222,124.408 222.222,126.556 C222.222,128.703 223.963,130.444 226.111,130.444 L272.777,130.444 C274.469,130.444 275.967,131.538 276.482,133.15 C276.996,134.762 276.41,136.522 275.031,137.502 C273.652,138.483 271.798,138.46 270.444,137.444 C268.726,136.156 266.288,136.504 265,138.222 C263.711,139.94 264.059,142.378 265.777,143.667 Z" />
            <path d="M289.499,97.778 C291.145,95.583 294.098,94.832 296.592,95.973 C299.087,97.114 300.449,99.839 299.865,102.519 C299.282,105.2 296.909,107.111 294.166,107.111 L226.111,107.111 C223.963,107.111 222.222,108.852 222.222,111 C222.222,113.148 223.963,114.889 226.111,114.889 L294.166,114.889 C300.567,114.889 306.102,110.429 307.465,104.175 C308.827,97.921 305.648,91.563 299.828,88.9 C294.007,86.238 287.118,87.991 283.277,93.111 C281.988,94.829 282.337,97.267 284.055,98.556 C285.773,99.844 288.211,99.496 289.499,97.778 Z" />
            <path d="M258.777,84.556 C260.131,83.54 261.986,83.517 263.365,84.498 C264.743,85.478 265.33,87.238 264.815,88.85 C264.301,90.462 262.803,91.556 261.111,91.556 L226.111,91.556 C223.963,91.556 222.222,93.297 222.222,95.444 C222.222,97.592 223.963,99.333 226.111,99.333 L261.111,99.333 C266.187,99.333 270.68,96.051 272.224,91.216 C273.768,86.38 272.009,81.101 267.872,78.159 C263.736,75.217 258.172,75.288 254.111,78.333 C252.393,79.622 252.044,82.06 253.333,83.778 C254.622,85.496 257.059,85.844 258.777,84.556 Z" />
        </g>
        <g id="Regular-M" transform="translate(0,200)">
            <path d="M465.777,143.667 C469.838,146.712 475.402,146.783 479.539,143.841 C483.675,140.899 485.435,135.62 483.891,130.784 C482.347,125.949 477.853,122.667 472.777,122.667 L426.111,122.667 C423.963,122.667 422.222,124.408 422.222,126.556 C422.222,128.703 423.963,130.444 426.111,130.444 L472.777,130.444 C474.469,130.444 475.967,131.538 476.482,133.15 C476.996,134.762 476.41,136.522 475.031,137.502 C473.652,138.483 471.798,138.46 470.444,137.444 C468.726,136.156 466.288,136.504 465,138.222 C463.711,139.94 464.059,142.378 465.777,143.667 Z" />
            <path d="M489.499,97.778 C491.145,95.583 494.098,94.832 496.592,95.973 C499.087,97.114 500.449,99.839 499.865,102.519 C499.282,105.2 496.909,107.111 494.166,107.111 L426.111,107.111 C423.963,107.111 422.222,108.852 422.222,111 C422.222,113.148 423.963,114.889 426.111,114.889 L494.166,114.889 C500.567,114.889 506.102,110.429 507.465,104.175 C508.827,97.921 505.648,91.563 499.828,88.9 C494.007,86.238 487.118,87.991 483.277,93.111 C481.988,94.829 482.337,97.267 484.055,98.556 C485.773,99.844 488.211,99.496 489.499,97.778 Z" />
            <path d="M458.777,84.556 C460.131,83.54 461.986,83.517 463.365,84.498 C464.743,85.478 465.33,87.238 464.815,88.85 C464.301,90.462 462.803,91.556 461.111,91.556 L426.111,91.556 C423.963,91.556 422.222,93.297 422.222,95.444 C422.222,97.592 423.963,99.333 426.111,99.333 L461.111,99.333 C466.187,99.333 470.68,96.051 472.224,91.216 C473.768,86.38 472.009,81.101 467.872,78.159 C463.736,75.217 458.172,75.288 454.111,78.333 C452.393,79.622 452.044,82.06 453.333,83.778 C454.622,85.496 457.059,85.844 458.777,84.556 Z" />
        </g>
        <g id="Black-M" transform="translate(0,200)">
            <path d="M665.777,143.667 C669.838,146.712 675.402,146.783 679.539,143.841 C683.675,140.899 685.435,135.62 683.891,130.784 C682.347,125.949 677.853,122.667 672.777,122.667 L626.111,122.667 C623.963,122.667 622.222,124.408 622.222,126.556 C622.222,128.703 623.963,130.444 626.111,130.444 L672.777,130.444 C674.469,130.444 675.967,131.538 676.482,133.15 C676.996,134.762 676.41,136.522 675.031,137.502 C673.652,138.483 671.797,138.46 670.444,137.444 C668.726,136.156 666.288,136.504 665,138.222 C663.711,139.94 664.059,142.378 665.777,143.667 Z" />
            <path d="M689.499,97.778 C691.145,95.583 694.098,94.832 696.592,95.973 C699.087,97.114 700.449,99.839 699.865,102.519 C699.282,105.2 696.909,107.111 694.166,107.111 L626.111,107.111 C623.963,107.111 622.222,108.852 622.222,111 C622.222,113.148 623.963,114.889 626.111,114.889 L694.166,114.889 C700.567,114.889 706.102,110.429 707.465,104.175 C708.827,97.921 705.648,91.563 699.828,88.9 C694.007,86.238 687.118,87.991 683.277,93.111 C681.988,94.829 682.337,97.267 684.055,98.556 C685.773,99.844 688.211,99.496 689.499,97.778 Z" />
            <path d="M658.777,84.556 C660.131,83.54 661.986,83.517 663.365,84.498 C664.743,85.478 665.33,87.238 664.815,88.85 C664.301,90.462 662.803,91.556 661.111,91.556 L626.111,91.556 C623.963,91.556 622.222,93.297 622.222,95.444 C622.222,97.592 623.963,99.333 626.111,99.333 L661.111,99.333 C666.187,99.333 670.68,96.051 672.224,91.216 C673.768,86.38 672.009,81.101 667.872,78.159 C663.736,75.217 658.172,75.288 654.111,78.333 C652.393,79.622 652.044,82.06 653.333,83.778 C654.622,85.496 657.059,85.844 658.777,84.556 Z" />
        </g>
    </g>
</svg>