<?xml version="1.0" encoding="UTF-8"?>
<svg height="600" width="800" xmlns="http://www.w3.org/2000/svg" xmlns:xlink="http://www.w3.org/1999/xlink">
    <g id="Notes" font-family="LucidaGrande, 'Lucida Grande', sans-serif" font-size="13">
        <rect fill="white" height="600.0" width="800.0" x="0.0" y="0.0" />
        <g font-size="13">
            <text x="18.0" y="176.0">Small</text>
            <text x="18.0" y="376.0">Medium</text>
            <text x="18.0" y="576.0">Large</text>
        </g>
        <g font-size="9">
            <text x="250.0" y="30.0">Ultralight</text>
            <text x="450.0" y="30.0">Regular</text>
            <text x="650.0" y="30.0">Black</text>
            <text id="template-version" fill="#505050" text-anchor="end" x="785.0" y="575.0">Template v.3.0</text>
            <a href="https://github.com/swhitty/SwiftDraw">
                <text fill="#505050" text-anchor="end" x="785.0" y="590.0">https://github.com/swhitty/SwiftDraw</text>
            </a>
        </g>
    </g>
    <g id="Guides" stroke="rgb(39, 170, 225)" stroke-width="0.5">
        <path id="Capline-S" d="M18,76 l800,0" />
        <path id="H-reference" d="M85,145.755 L87.685,145.755 L113.369,79.287 L114.052,79.287 L114.052,76 L112.148,76 L85,145.755 Z M95.693,121.536 L130.996,121.536 L130.263,119.313 L96.474,119.313 L95.693,121.536 Z M139.15,145.755 L141.787,145.755 L114.638,76 L113.466,76 L113.466,79.287 L139.15,145.755 Z" stroke="none" transform="translate(0,200)" />
        <path id="Baseline-S" d="M18,146 l800,0" />
        <path id="left-margin-Ultralight-M" d="M226.5,256 l0,110" />
        <path id="right-margin-Ultralight-M" d="M303.5,256 l0,110" />
        <path id="left-margin-Regular-M" d="M426.5,256 l0,110" />
        <path id="right-margin-Regular-M" d="M503.5,256 l0,110" />
        <path id="left-margin-Black-M" d="M626.5,256 l0,110" />
        <path id="right-margin-Black-M" d="M703.5,256 l0,110" />
        <path id="Capline-M" d="M18,276 l800,0" />
        <path id="Baseline-M" d="M18,346 l800,0" />
        <path id="Capline-L" d="M18,476 l800,0" />
        <path id="Baseline-L" d="M18,546 l800,0" />
    </g>
    <g id="Symbols">
        <g id="Ultralight-M" transform="translate(0,200)">
            <path d="M286.371,109.49 L281.122,119.957 C280.257,121.68 280.958,123.775 282.687,124.637 C284.416,125.499 286.518,124.8 287.382,123.077 L292.632,112.611 C293.496,110.887 292.795,108.792 291.067,107.93 C289.338,107.068 287.236,107.767 286.371,109.49 Z" />
            <path d="M290.136,137.927 L298.43,142.078 C300.157,142.943 302.261,142.248 303.128,140.526 C303.995,138.804 303.298,136.707 301.571,135.843 L293.277,131.691 C291.549,130.826 289.446,131.521 288.579,133.243 C287.711,134.965 288.409,137.062 290.136,137.927 Z" />
            <path d="M247.372,100.936 C248.214,100.461 249.26,100.542 250.019,101.141 C250.777,101.739 251.097,102.735 250.828,103.661 L248.605,110.862 C245.186,121.761 249.011,133.644 258.167,140.534 C267.323,147.425 279.834,147.837 289.426,141.563 L290.869,140.639 C294.562,138.254 296.692,134.097 296.466,129.728 C296.24,125.36 293.692,121.443 289.784,119.455 C285.875,117.467 281.199,117.709 277.518,120.09 L276.061,121.024 C275.139,121.607 273.931,121.558 273.045,120.89 C272.16,120.222 271.784,119.076 272.102,118.016 L274.334,110.785 C277.699,100.226 274.15,88.66 265.409,81.766 C256.668,74.872 244.559,74.089 234.998,79.799 L232.611,81.158 C228.783,83.399 226.467,87.468 226.5,91.852 C226.533,96.236 228.91,100.269 232.736,102.432 C236.562,104.595 241.254,104.558 245.046,102.336 L247.458,100.886 Z M243.844,94.91 L241.465,96.341 C239.863,97.279 237.839,97.295 236.189,96.362 C234.539,95.43 233.513,93.69 233.499,91.799 C233.484,89.908 234.483,88.153 236.119,87.196 L238.533,85.821 C245.66,81.565 254.607,82.144 261.066,87.238 C267.524,92.332 270.147,100.878 267.654,108.703 L265.404,115.99 C264.24,119.867 265.606,124.029 268.822,126.454 C272.037,128.88 276.426,129.059 279.83,126.903 L281.315,125.951 C282.911,124.919 284.922,124.815 286.602,125.67 C288.283,126.525 289.378,128.209 289.476,130.088 C289.573,131.966 288.657,133.754 287.074,134.777 L285.614,135.712 C278.467,140.386 269.18,140.08 262.384,134.966 C255.588,129.851 252.749,121.031 255.29,112.929 L257.535,105.657 C258.612,101.952 257.351,98.025 254.361,95.668 C251.372,93.311 247.248,92.992 243.93,94.861 Z" />
        </g>
        <g id="Regular-M" transform="translate(0,200)">
            <path d="M486.371,109.49 L481.122,119.957 C480.257,121.68 480.958,123.775 482.687,124.637 C484.416,125.499 486.518,124.8 487.382,123.077 L492.632,112.611 C493.496,110.887 492.795,108.792 491.067,107.93 C489.338,107.068 487.236,107.767 486.371,109.49 Z" />
            <path d="M490.136,137.927 L498.43,142.078 C500.157,142.943 502.261,142.248 503.128,140.526 C503.995,138.804 503.298,136.707 501.571,135.843 L493.277,131.691 C491.549,130.826 489.446,131.521 488.579,133.243 C487.711,134.965 488.409,137.062 490.136,137.927 Z" />
            <path d="M447.372,100.936 C448.214,100.461 449.26,100.542 450.019,101.141 C450.777,101.739 451.097,102.735 450.828,103.661 L448.605,110.862 C445.186,121.761 449.011,133.644 458.167,140.534 C467.323,147.425 479.834,147.837 489.426,141.563 L490.869,140.639 C494.562,138.254 496.692,134.097 496.466,129.728 C496.24,125.36 493.692,121.443 489.784,119.455 C485.875,117.467 481.199,117.709 477.518,120.09 L476.061,121.024 C475.139,121.607 473.931,121.558 473.045,120.89 C472.16,120.222 471.784,119.076 472.102,118.016 L474.334,110.785 C477.699,100.226 474.15,88.66 465.409,81.766 C456.668,74.872 444.559,74.089 434.998,79.799 L432.611,81.158 C428.783,83.399 426.466,87.468 426.5,91.852 C426.533,96.236 428.91,100.269 432.736,102.432 C436.562,104.595 441.254,104.558 445.046,102.336 L447.458,100.886 Z M443.844,94.91 L441.465,96.341 C439.863,97.279 437.839,97.295 436.189,96.362 C434.539,95.43 433.513,93.69 433.499,91.799 C433.484,89.908 434.483,88.153 436.119,87.196 L438.533,85.821 C445.66,81.565 454.607,82.144 461.066,87.238 C467.524,92.332 470.147,100.878 467.654,108.703 L465.404,115.99 C464.24,119.867 465.606,124.029 468.822,126.454 C472.037,128.88 476.426,129.059 479.83,126.903 L481.315,125.951 C482.911,124.919 484.922,124.815 486.602,125.67 C488.283,126.525 489.378,128.209 489.476,130.088 C489.573,131.966 488.657,133.754 487.074,134.777 L485.614,135.712 C478.467,140.386 469.18,140.08 462.384,134.966 C455.588,129.851 452.749,121.031 455.29,112.929 L457.535,105.657 C458.612,101.952 457.351,98.025 454.361,95.668 C451.372,93.311 447.248,92.992 443.93,94.861 Z" />
        </g>
        <g id="Black-M" transform="translate(0,200)">
            <path d="M686.371,109.49 L681.122,119.957 C680.257,121.68 680.958,123.775 682.687,124.637 C684.416,125.499 686.518,124.8 687.382,123.077 L692.632,112.611 C693.496,110.887 692.795,108.792 691.067,107.93 C689.338,107.068 687.236,107.767 686.371,109.49 Z" />
            <path d="M690.136,137.927 L698.43,142.078 C700.157,142.943 702.261,142.248 703.128,140.526 C703.995,138.804 703.298,136.707 701.571,135.843 L693.277,131.691 C691.549,130.826 689.446,131.521 688.579,133.243 C687.711,134.965 688.409,137.062 690.136,137.927 Z" />
            <path d="M647.372,100.936 C648.214,100.461 649.26,100.542 650.019,101.141 C650.777,101.739 651.097,102.735 650.828,103.661 L648.605,110.862 C645.186,121.761 649.011,133.644 658.167,140.534 C667.323,147.425 679.834,147.837 689.426,141.563 L690.869,140.639 C694.562,138.254 696.692,134.097 696.466,129.728 C696.24,125.36 693.692,121.443 689.784,119.455 C685.875,117.467 681.199,117.709 677.518,120.09 L676.061,121.024 C675.139,121.607 673.931,121.558 673.045,120.89 C672.16,120.222 671.784,119.076 672.102,118.016 L674.334,110.785 C677.699,100.226 674.15,88.66 665.409,81.766 C656.668,74.872 644.559,74.089 634.998,79.799 L632.611,81.158 C628.783,83.399 626.466,87.468 626.5,91.852 C626.533,96.236 628.91,100.269 632.736,102.432 C636.562,104.595 641.254,104.558 645.046,102.336 L647.458,100.886 Z M643.844,94.91 L641.465,96.341 C639.863,97.279 637.839,97.295 636.189,96.362 C634.539,95.43 633.513,93.69 633.499,91.799 C633.484,89.908 634.483,88.153 636.119,87.196 L638.533,85.821 C645.66,81.565 654.607,82.144 661.066,87.238 C667.524,92.332 670.147,100.878 667.654,108.703 L665.404,115.99 C664.24,119.867 665.606,124.029 668.822,126.454 C672.037,128.88 676.426,129.059 679.83,126.903 L681.315,125.951 C682.911,124.919 684.922,124.815 686.602,125.67 C688.283,126.525 689.378,128.209 689.476,130.088 C689.573,131.966 688.657,133.754 687.074,134.777 L685.614,135.712 C678.467,140.386 669.18,140.08 662.384,134.966 C655.588,129.851 652.749,121.031 655.29,112.929 L657.535,105.657 C658.612,101.952 657.351,98.025 654.361,95.668 C651.372,93.311 647.248,92.992 643.93,94.861 Z" />
        </g>
    </g>
</svg>