<?xml version="1.0" encoding="UTF-8"?>
<svg height="600" width="800" xmlns="http://www.w3.org/2000/svg" xmlns:xlink="http://www.w3.org/1999/xlink">
    <g id="Notes" font-family="LucidaGrande, 'Lucida Grande', sans-serif" font-size="13">
        <rect fill="white" height="600.0" width="800.0" x="0.0" y="0.0" />
        <g font-size="13">
            <text x="18.0" y="176.0">Small</text>
            <text x="18.0" y="376.0">Medium</text>
            <text x="18.0" y="576.0">Large</text>
        </g>
        <g font-size="9">
            <text x="250.0" y="30.0">Ultralight</text>
            <text x="450.0" y="30.0">Regular</text>
            <text x="650.0" y="30.0">Black</text>
            <text id="template-version" fill="#505050" text-anchor="end" x="785.0" y="575.0">Template v.3.0</text>
            <a href="https://github.com/swhitty/SwiftDraw">
                <text fill="#505050" text-anchor="end" x="785.0" y="590.0">https://github.com/swhitty/SwiftDraw</text>
            </a>
        </g>
    </g>
    <g id="Guides" stroke="rgb(39, 170, 225)" stroke-width="0.5">
        <path id="Capline-S" d="M18,76 l800,0" />
        <path id="H-reference" d="M85,145.755 L87.685,145.755 L113.369,79.287 L114.052,79.287 L114.052,76 L112.148,76 L85,145.755 Z M95.693,121.536 L130.996,121.536 L130.263,119.313 L96.474,119.313 L95.693,121.536 Z M139.15,145.755 L141.787,145.755 L114.638,76 L113.466,76 L113.466,79.287 L139.15,145.755 Z" stroke="none" transform="translate(0,200)" />
        <path id="Baseline-S" d="M18,146 l800,0" />
        <path id="left-margin-Ultralight-M" d="M230,256 l0,110" />
        <path id="right-margin-Ultralight-M" d="M300,256 l0,110" />
        <path id="left-margin-Regular-M" d="M430,256 l0,110" />
        <path id="right-margin-Regular-M" d="M500,256 l0,110" />
        <path id="left-margin-Black-M" d="M630,256 l0,110" />
        <path id="right-margin-Black-M" d="M700,256 l0,110" />
        <path id="Capline-M" d="M18,276 l800,0" />
        <path id="Baseline-M" d="M18,346 l800,0" />
        <path id="Capline-L" d="M18,476 l800,0" />
        <path id="Baseline-L" d="M18,546 l800,0" />
    </g>
    <g id="Symbols">
        <g id="Ultralight-M" transform="translate(0,200)">
            <path d="M263.792,90.573 C267.347,84.144 274.843,80.986 281.927,82.933 C280.857,82.64 280.591,81.374 281.214,80.75 L271.334,90.623 C268.886,93.12 268.886,97.079 271.311,99.553 L276.423,104.666 C278.92,107.113 282.879,107.113 285.353,104.688 L295.256,94.789 C294.633,95.415 293.36,95.148 293.066,94.073 C295.015,101.161 291.857,108.658 285.426,112.213 C283.889,113.064 283.332,114.999 284.182,116.537 C285.032,118.074 286.967,118.631 288.505,117.781 C297.507,112.804 301.929,102.307 299.201,92.389 C298.155,88.57 293.447,87.583 290.75,90.297 L280.877,100.167 C280.899,100.144 280.899,100.144 280.899,100.144 L275.832,95.077 C275.854,95.1 275.854,95.1 275.854,95.1 L285.715,85.246 C288.416,82.537 287.428,77.844 283.61,76.798 C273.695,74.072 263.201,78.493 258.224,87.494 C257.374,89.032 257.931,90.967 259.468,91.817 C261.006,92.667 262.941,92.11 263.792,90.573 Z" />
            <path d="M267.516,113.527 L242.449,138.594 C241.057,139.985 238.8,139.984 237.408,138.591 C236.016,137.199 236.016,134.941 237.408,133.549 L262.475,108.482 C263.717,107.24 263.717,105.226 262.475,103.984 C261.233,102.741 259.219,102.741 257.976,103.984 L232.909,129.05 C229.033,132.927 229.032,139.212 232.908,143.089 C236.783,146.966 243.068,146.969 246.947,143.094 L272.015,118.026 C273.257,116.784 273.257,114.77 272.015,113.527 C270.772,112.285 268.758,112.285 267.516,113.527 Z" />
            <path d="M230.933,81.444 L294.555,145.065 C295.798,146.307 297.812,146.307 299.054,145.065 C300.296,143.823 300.296,141.809 299.054,140.566 L235.432,76.945 C234.19,75.703 232.176,75.703 230.933,76.945 C229.691,78.187 229.691,80.201 230.933,81.444 Z" />
        </g>
        <g id="Regular-M" transform="translate(0,200)">
            <path d="M463.792,90.573 C467.347,84.144 474.843,80.986 481.927,82.933 C480.857,82.64 480.591,81.374 481.214,80.75 L471.334,90.623 C468.886,93.12 468.886,97.079 471.311,99.553 L476.423,104.666 C478.92,107.113 482.879,107.113 485.353,104.688 L495.256,94.789 C494.633,95.415 493.36,95.148 493.066,94.073 C495.015,101.161 491.857,108.658 485.426,112.213 C483.889,113.064 483.332,114.999 484.182,116.537 C485.032,118.074 486.967,118.631 488.505,117.781 C497.507,112.804 501.929,102.307 499.201,92.389 C498.155,88.57 493.447,87.583 490.75,90.297 L480.877,100.167 C480.899,100.144 480.899,100.144 480.899,100.144 L475.832,95.077 C475.854,95.1 475.854,95.1 475.854,95.1 L485.715,85.246 C488.416,82.537 487.428,77.844 483.61,76.798 C473.695,74.072 463.201,78.493 458.224,87.494 C457.374,89.032 457.931,90.967 459.468,91.817 C461.006,92.667 462.941,92.11 463.792,90.573 Z" />
            <path d="M467.516,113.527 L442.449,138.594 C441.057,139.985 438.8,139.984 437.408,138.591 C436.016,137.199 436.016,134.941 437.408,133.549 L462.475,108.482 C463.717,107.24 463.717,105.226 462.475,103.984 C461.233,102.741 459.219,102.741 457.976,103.984 L432.909,129.05 C429.033,132.927 429.032,139.212 432.908,143.089 C436.783,146.966 443.068,146.969 446.947,143.094 L472.015,118.026 C473.257,116.784 473.257,114.77 472.015,113.527 C470.772,112.285 468.758,112.285 467.516,113.527 Z" />
            <path d="M430.933,81.444 L494.555,145.065 C495.798,146.307 497.812,146.307 499.054,145.065 C500.296,143.823 500.296,141.809 499.054,140.566 L435.432,76.945 C434.19,75.703 432.176,75.703 430.933,76.945 C429.691,78.187 429.691,80.201 430.933,81.444 Z" />
        </g>
        <g id="Black-M" transform="translate(0,200)">
            <path d="M663.792,90.573 C667.347,84.144 674.843,80.986 681.927,82.933 C680.857,82.64 680.591,81.374 681.214,80.75 L671.334,90.623 C668.886,93.12 668.886,97.079 671.311,99.553 L676.423,104.666 C678.92,107.113 682.879,107.113 685.353,104.688 L695.256,94.789 C694.633,95.415 693.36,95.148 693.066,94.073 C695.015,101.161 691.857,108.658 685.426,112.213 C683.889,113.064 683.332,114.999 684.182,116.537 C685.032,118.074 686.967,118.631 688.505,117.781 C697.508,112.804 701.929,102.307 699.201,92.389 C698.155,88.57 693.447,87.583 690.75,90.297 L680.877,100.167 C680.899,100.144 680.899,100.144 680.899,100.144 L675.832,95.077 C675.854,95.1 675.854,95.1 675.854,95.1 L685.715,85.246 C688.416,82.537 687.428,77.844 683.61,76.798 C673.695,74.072 663.201,78.493 658.224,87.494 C657.374,89.032 657.931,90.967 659.468,91.817 C661.006,92.667 662.941,92.11 663.792,90.573 Z" />
            <path d="M667.516,113.527 L642.449,138.594 C641.057,139.985 638.8,139.984 637.408,138.591 C636.016,137.199 636.016,134.941 637.408,133.549 L662.475,108.482 C663.718,107.24 663.718,105.226 662.475,103.984 C661.233,102.741 659.219,102.741 657.976,103.984 L632.909,129.05 C629.033,132.927 629.032,139.212 632.908,143.089 C636.783,146.966 643.068,146.969 646.947,143.094 L672.015,118.026 C673.257,116.784 673.257,114.77 672.015,113.527 C670.772,112.285 668.758,112.285 667.516,113.527 Z" />
            <path d="M630.933,81.444 L694.555,145.065 C695.798,146.307 697.812,146.307 699.054,145.065 C700.297,143.823 700.297,141.809 699.054,140.566 L635.432,76.945 C634.19,75.703 632.176,75.703 630.933,76.945 C629.691,78.187 629.691,80.201 630.933,81.444 Z" />
        </g>
    </g>
</svg>