<?xml version="1.0" encoding="UTF-8"?>
<svg height="600" width="800" xmlns="http://www.w3.org/2000/svg" xmlns:xlink="http://www.w3.org/1999/xlink">
    <g id="Notes" font-family="LucidaGrande, 'Lucida Grande', sans-serif" font-size="13">
        <rect fill="white" height="600.0" width="800.0" x="0.0" y="0.0" />
        <g font-size="13">
            <text x="18.0" y="176.0">Small</text>
            <text x="18.0" y="376.0">Medium</text>
            <text x="18.0" y="576.0">Large</text>
        </g>
        <g font-size="9">
            <text x="250.0" y="30.0">Ultralight</text>
            <text x="450.0" y="30.0">Regular</text>
            <text x="650.0" y="30.0">Black</text>
            <text id="template-version" fill="#505050" text-anchor="end" x="785.0" y="575.0">Template v.3.0</text>
            <a href="https://github.com/swhitty/SwiftDraw">
                <text fill="#505050" text-anchor="end" x="785.0" y="590.0">https://github.com/swhitty/SwiftDraw</text>
            </a>
        </g>
    </g>
    <g id="Guides" stroke="rgb(39, 170, 225)" stroke-width="0.5">
        <path id="Capline-S" d="M18,76 l800,0" />
        <path id="H-reference" d="M85,145.755 L87.685,145.755 L113.369,79.287 L114.052,79.287 L114.052,76 L112.148,76 L85,145.755 Z M95.693,121.536 L130.996,121.536 L130.263,119.313 L96.474,119.313 L95.693,121.536 Z M139.15,145.755 L141.787,145.755 L114.638,76 L113.466,76 L113.466,79.287 L139.15,145.755 Z" stroke="none" transform="translate(0,200)" />
        <path id="Baseline-S" d="M18,146 l800,0" />
        <path id="left-margin-Ultralight-M" d="M228.158,256 l0,110" />
        <path id="right-margin-Ultralight-M" d="M301.842,256 l0,110" />
        <path id="left-margin-Regular-M" d="M428.158,256 l0,110" />
        <path id="right-margin-Regular-M" d="M501.842,256 l0,110" />
        <path id="left-margin-Black-M" d="M628.158,256 l0,110" />
        <path id="right-margin-Black-M" d="M701.842,256 l0,110" />
        <path id="Capline-M" d="M18,276 l800,0" />
        <path id="Baseline-M" d="M18,346 l800,0" />
        <path id="Capline-L" d="M18,476 l800,0" />
        <path id="Baseline-L" d="M18,546 l800,0" />
    </g>
    <g id="Symbols">
        <g id="Ultralight-M" transform="translate(0,200)">
            <path d="M268.684,95.201 C268.727,88.613 274.232,83.234 281.153,83.017 C288.074,82.799 293.94,87.822 294.44,94.392 C294.939,100.963 289.894,106.736 283.011,107.468 C280.989,107.683 279.533,109.417 279.76,111.341 C279.986,113.264 281.808,114.65 283.83,114.434 C294.645,113.284 302.573,104.212 301.789,93.887 C301.004,83.561 291.786,75.669 280.91,76.011 C270.034,76.352 261.383,84.805 261.316,95.158 C261.303,97.093 262.943,98.672 264.977,98.684 C267.012,98.696 268.672,97.137 268.684,95.201 Z" />
            <path d="M246.989,107.468 C240.106,106.736 235.061,100.963 235.56,94.392 C236.06,87.822 241.926,82.799 248.847,83.017 C255.768,83.234 261.273,88.613 261.316,95.201 L261.316,142.495 C261.316,144.431 262.965,146 265,146 C267.035,146 268.684,144.431 268.684,142.495 L268.684,95.179 C268.617,84.805 259.966,76.352 249.09,76.011 C238.214,75.669 228.996,83.561 228.211,93.887 C227.427,104.212 235.355,113.284 246.17,114.434 C248.192,114.65 250.014,113.264 250.24,111.341 C250.467,109.417 249.011,107.683 246.989,107.468 Z" />
        </g>
        <g id="Regular-M" transform="translate(0,200)">
            <path d="M468.684,95.201 C468.727,88.613 474.232,83.234 481.153,83.017 C488.074,82.799 493.94,87.822 494.44,94.392 C494.939,100.963 489.894,106.736 483.011,107.468 C480.989,107.683 479.533,109.417 479.76,111.341 C479.986,113.264 481.808,114.65 483.83,114.434 C494.645,113.284 502.573,104.212 501.789,93.887 C501.004,83.561 491.786,75.669 480.91,76.011 C470.034,76.352 461.383,84.805 461.316,95.158 C461.303,97.093 462.943,98.672 464.977,98.684 C467.012,98.696 468.672,97.137 468.684,95.201 Z" />
            <path d="M446.989,107.468 C440.106,106.736 435.061,100.963 435.56,94.392 C436.06,87.822 441.926,82.799 448.847,83.017 C455.768,83.234 461.273,88.613 461.316,95.201 L461.316,142.495 C461.316,144.431 462.965,146 465,146 C467.035,146 468.684,144.431 468.684,142.495 L468.684,95.179 C468.617,84.805 459.966,76.352 449.09,76.011 C438.214,75.669 428.996,83.561 428.211,93.887 C427.427,104.212 435.355,113.284 446.17,114.434 C448.192,114.65 450.014,113.264 450.24,111.341 C450.467,109.417 449.011,107.683 446.989,107.468 Z" />
        </g>
        <g id="Black-M" transform="translate(0,200)">
            <path d="M668.684,95.201 C668.727,88.613 674.232,83.234 681.153,83.017 C688.074,82.799 693.94,87.822 694.44,94.392 C694.939,100.963 689.894,106.736 683.011,107.468 C680.989,107.683 679.533,109.417 679.76,111.341 C679.986,113.264 681.808,114.65 683.83,114.434 C694.645,113.284 702.573,104.212 701.789,93.887 C701.004,83.561 691.786,75.669 680.91,76.011 C670.034,76.352 661.383,84.805 661.316,95.158 C661.303,97.093 662.943,98.672 664.977,98.684 C667.012,98.696 668.672,97.137 668.684,95.201 Z" />
            <path d="M646.989,107.468 C640.106,106.736 635.061,100.963 635.56,94.392 C636.06,87.822 641.926,82.799 648.847,83.017 C655.768,83.234 661.273,88.613 661.316,95.201 L661.316,142.495 C661.316,144.431 662.965,146 665,146 C667.035,146 668.684,144.431 668.684,142.495 L668.684,95.179 C668.617,84.805 659.966,76.352 649.09,76.011 C638.214,75.669 628.996,83.561 628.211,93.887 C627.427,104.212 635.355,113.284 646.17,114.434 C648.192,114.65 650.014,113.264 650.24,111.341 C650.467,109.417 649.011,107.683 646.989,107.468 Z" />
        </g>
    </g>
</svg>