<?xml version="1.0" encoding="UTF-8"?>
<svg height="600" width="800" xmlns="http://www.w3.org/2000/svg" xmlns:xlink="http://www.w3.org/1999/xlink">
    <g id="Notes" font-family="LucidaGrande, 'Lucida Grande', sans-serif" font-size="13">
        <rect fill="white" height="600.0" width="800.0" x="0.0" y="0.0" />
        <g font-size="13">
            <text x="18.0" y="176.0">Small</text>
            <text x="18.0" y="376.0">Medium</text>
            <text x="18.0" y="576.0">Large</text>
        </g>
        <g font-size="9">
            <text x="250.0" y="30.0">Ultralight</text>
            <text x="450.0" y="30.0">Regular</text>
            <text x="650.0" y="30.0">Black</text>
            <text id="template-version" fill="#505050" text-anchor="end" x="785.0" y="575.0">Template v.3.0</text>
            <a href="https://github.com/swhitty/SwiftDraw">
                <text fill="#505050" text-anchor="end" x="785.0" y="590.0">https://github.com/swhitty/SwiftDraw</text>
            </a>
        </g>
    </g>
    <g id="Guides" stroke="rgb(39, 170, 225)" stroke-width="0.5">
        <path id="Capline-S" d="M18,76 l800,0" />
        <path id="H-reference" d="M85,145.755 L87.685,145.755 L113.369,79.287 L114.052,79.287 L114.052,76 L112.148,76 L85,145.755 Z M95.693,121.536 L130.996,121.536 L130.263,119.313 L96.474,119.313 L95.693,121.536 Z M139.15,145.755 L141.787,145.755 L114.638,76 L113.466,76 L113.466,79.287 L139.15,145.755 Z" stroke="none" transform="translate(0,200)" />
        <path id="Baseline-S" d="M18,146 l800,0" />
        <path id="left-margin-Ultralight-M" d="M230,256 l0,110" />
        <path id="right-margin-Ultralight-M" d="M300,256 l0,110" />
        <path id="left-margin-Regular-M" d="M430,256 l0,110" />
        <path id="right-margin-Regular-M" d="M500,256 l0,110" />
        <path id="left-margin-Black-M" d="M630,256 l0,110" />
        <path id="right-margin-Black-M" d="M700,256 l0,110" />
        <path id="Capline-M" d="M18,276 l800,0" />
        <path id="Baseline-M" d="M18,346 l800,0" />
        <path id="Capline-L" d="M18,476 l800,0" />
        <path id="Baseline-L" d="M18,546 l800,0" />
    </g>
    <g id="Symbols">
        <g id="Ultralight-M" transform="translate(0,200)">
            <path d="M265,88.25 C265,85.351 267.351,83 270.25,83 C273.15,83 275.5,85.351 275.5,88.25 L275.5,125 C275.5,130.57 277.712,135.911 281.651,139.849 C285.589,143.788 290.93,146 296.5,146 C298.433,146 300,144.433 300,142.5 C300,140.567 298.433,139 296.5,139 C292.787,139 289.226,137.525 286.601,134.899 C283.975,132.274 282.5,128.713 282.5,125 L282.5,88.25 C282.5,81.485 277.016,76 270.25,76 C263.484,76 258,81.485 258,88.25 C258,90.183 259.567,91.75 261.5,91.75 C263.433,91.75 265,90.183 265,88.25 Z" />
            <path d="M282.5,109.25 C282.5,106.351 284.85,104 287.75,104 C290.65,104 293,106.351 293,109.25 L293,125 C293,128.713 291.525,132.274 288.899,134.899 C286.274,137.525 282.713,139 279,139 C277.067,139 275.5,140.567 275.5,142.5 C275.5,144.433 277.067,146 279,146 C284.57,146 289.911,143.788 293.849,139.849 C297.788,135.911 300,130.57 300,125 L300,109.25 C300,102.485 294.516,97 287.75,97 C280.984,97 275.5,102.485 275.5,109.25 C275.5,111.183 277.067,112.75 279,112.75 C280.933,112.75 282.5,111.183 282.5,109.25 Z" />
            <path d="M247.5,135.5 L247.5,90 C247.5,86.287 246.025,82.726 243.399,80.101 C240.774,77.475 237.213,76 233.5,76 C231.567,76 230,77.567 230,79.5 C230,81.433 231.567,83 233.5,83 C235.357,83 237.137,83.737 238.45,85.05 C239.762,86.363 240.5,88.143 240.5,90 L240.5,135.5 C240.5,137.433 242.067,139 244,139 C245.933,139 247.5,137.433 247.5,135.5 Z" />
            <path d="M247.5,88.25 C247.5,85.351 249.851,83 252.75,83 C255.649,83 258,85.351 258,88.25 L258,135.5 C258,137.433 259.567,139 261.5,139 C263.433,139 265,137.433 265,135.5 L265,88.25 C265,81.485 259.516,76 252.75,76 C245.985,76 240.5,81.485 240.5,88.25 C240.5,90.183 242.067,91.75 244,91.75 C245.933,91.75 247.5,90.183 247.5,88.25 Z" />
        </g>
        <g id="Regular-M" transform="translate(0,200)">
            <path d="M465,88.25 C465,85.351 467.351,83 470.25,83 C473.15,83 475.5,85.351 475.5,88.25 L475.5,125 C475.5,130.57 477.712,135.911 481.651,139.849 C485.589,143.788 490.93,146 496.5,146 C498.433,146 500,144.433 500,142.5 C500,140.567 498.433,139 496.5,139 C492.787,139 489.226,137.525 486.601,134.899 C483.975,132.274 482.5,128.713 482.5,125 L482.5,88.25 C482.5,81.485 477.016,76 470.25,76 C463.484,76 458,81.485 458,88.25 C458,90.183 459.567,91.75 461.5,91.75 C463.433,91.75 465,90.183 465,88.25 Z" />
            <path d="M482.5,109.25 C482.5,106.351 484.85,104 487.75,104 C490.65,104 493,106.351 493,109.25 L493,125 C493,128.713 491.525,132.274 488.899,134.899 C486.274,137.525 482.713,139 479,139 C477.067,139 475.5,140.567 475.5,142.5 C475.5,144.433 477.067,146 479,146 C484.57,146 489.911,143.788 493.849,139.849 C497.788,135.911 500,130.57 500,125 L500,109.25 C500,102.485 494.516,97 487.75,97 C480.984,97 475.5,102.485 475.5,109.25 C475.5,111.183 477.067,112.75 479,112.75 C480.933,112.75 482.5,111.183 482.5,109.25 Z" />
            <path d="M447.5,135.5 L447.5,90 C447.5,86.287 446.025,82.726 443.4,80.101 C440.774,77.475 437.213,76 433.5,76 C431.567,76 430,77.567 430,79.5 C430,81.433 431.567,83 433.5,83 C435.357,83 437.137,83.737 438.45,85.05 C439.763,86.363 440.5,88.143 440.5,90 L440.5,135.5 C440.5,137.433 442.067,139 444,139 C445.933,139 447.5,137.433 447.5,135.5 Z" />
            <path d="M447.5,88.25 C447.5,85.351 449.85,83 452.75,83 C455.65,83 458,85.351 458,88.25 L458,135.5 C458,137.433 459.567,139 461.5,139 C463.433,139 465,137.433 465,135.5 L465,88.25 C465,81.485 459.516,76 452.75,76 C445.985,76 440.5,81.485 440.5,88.25 C440.5,90.183 442.067,91.75 444,91.75 C445.933,91.75 447.5,90.183 447.5,88.25 Z" />
        </g>
        <g id="Black-M" transform="translate(0,200)">
            <path d="M665,88.25 C665,85.351 667.351,83 670.25,83 C673.149,83 675.5,85.351 675.5,88.25 L675.5,125 C675.5,130.57 677.713,135.911 681.651,139.849 C685.589,143.788 690.93,146 696.5,146 C698.433,146 700,144.433 700,142.5 C700,140.567 698.433,139 696.5,139 C692.787,139 689.226,137.525 686.601,134.899 C683.975,132.274 682.5,128.713 682.5,125 L682.5,88.25 C682.5,81.485 677.016,76 670.25,76 C663.484,76 658,81.485 658,88.25 C658,90.183 659.567,91.75 661.5,91.75 C663.433,91.75 665,90.183 665,88.25 Z" />
            <path d="M682.5,109.25 C682.5,106.351 684.851,104 687.75,104 C690.649,104 693,106.351 693,109.25 L693,125 C693,128.713 691.525,132.274 688.899,134.899 C686.274,137.525 682.713,139 679,139 C677.067,139 675.5,140.567 675.5,142.5 C675.5,144.433 677.067,146 679,146 C684.57,146 689.911,143.788 693.849,139.849 C697.787,135.911 700,130.57 700,125 L700,109.25 C700,102.485 694.516,97 687.75,97 C680.984,97 675.5,102.485 675.5,109.25 C675.5,111.183 677.067,112.75 679,112.75 C680.933,112.75 682.5,111.183 682.5,109.25 Z" />
            <path d="M647.5,135.5 L647.5,90 C647.5,86.287 646.025,82.726 643.399,80.101 C640.774,77.475 637.213,76 633.5,76 C631.567,76 630,77.567 630,79.5 C630,81.433 631.567,83 633.5,83 C635.357,83 637.137,83.737 638.45,85.05 C639.763,86.363 640.5,88.143 640.5,90 L640.5,135.5 C640.5,137.433 642.067,139 644,139 C645.933,139 647.5,137.433 647.5,135.5 Z" />
            <path d="M647.5,88.25 C647.5,85.351 649.851,83 652.75,83 C655.649,83 658,85.351 658,88.25 L658,135.5 C658,137.433 659.567,139 661.5,139 C663.433,139 665,137.433 665,135.5 L665,88.25 C665,81.485 659.516,76 652.75,76 C645.984,76 640.5,81.485 640.5,88.25 C640.5,90.183 642.067,91.75 644,91.75 C645.933,91.75 647.5,90.183 647.5,88.25 Z" />
        </g>
    </g>
</svg>