<?xml version="1.0" encoding="UTF-8"?>
<svg height="600" width="800" xmlns="http://www.w3.org/2000/svg" xmlns:xlink="http://www.w3.org/1999/xlink">
    <g id="Notes" font-family="LucidaGrande, 'Lucida Grande', sans-serif" font-size="13">
        <rect fill="white" height="600.0" width="800.0" x="0.0" y="0.0" />
        <g font-size="13">
            <text x="18.0" y="176.0">Small</text>
            <text x="18.0" y="376.0">Medium</text>
            <text x="18.0" y="576.0">Large</text>
        </g>
        <g font-size="9">
            <text x="250.0" y="30.0">Ultralight</text>
            <text x="450.0" y="30.0">Regular</text>
            <text x="650.0" y="30.0">Black</text>
            <text id="template-version" fill="#505050" text-anchor="end" x="785.0" y="575.0">Template v.3.0</text>
            <a href="https://github.com/swhitty/SwiftDraw">
                <text fill="#505050" text-anchor="end" x="785.0" y="590.0">https://github.com/swhitty/SwiftDraw</text>
            </a>
        </g>
    </g>
    <g id="Guides" stroke="rgb(39, 170, 225)" stroke-width="0.5">
        <path id="Capline-S" d="M18,76 l800,0" />
        <path id="H-reference" d="M85,145.755 L87.685,145.755 L113.369,79.287 L114.052,79.287 L114.052,76 L112.148,76 L85,145.755 Z M95.693,121.536 L130.996,121.536 L130.263,119.313 L96.474,119.313 L95.693,121.536 Z M139.15,145.755 L141.787,145.755 L114.638,76 L113.466,76 L113.466,79.287 L139.15,145.755 Z" stroke="none" transform="translate(0,200)" />
        <path id="Baseline-S" d="M18,146 l800,0" />
        <path id="left-margin-Ultralight-M" d="M233.5,256 l0,110" />
        <path id="right-margin-Ultralight-M" d="M296.5,256 l0,110" />
        <path id="left-margin-Regular-M" d="M433.5,256 l0,110" />
        <path id="right-margin-Regular-M" d="M496.5,256 l0,110" />
        <path id="left-margin-Black-M" d="M633.5,256 l0,110" />
        <path id="right-margin-Black-M" d="M696.5,256 l0,110" />
        <path id="Capline-M" d="M18,276 l800,0" />
        <path id="Baseline-M" d="M18,346 l800,0" />
        <path id="Capline-L" d="M18,476 l800,0" />
        <path id="Baseline-L" d="M18,546 l800,0" />
    </g>
    <g id="Symbols">
        <g id="Ultralight-M" transform="translate(0,200)">
            <path d="M292.3,140.4 C279.233,122.978 279.233,99.022 292.3,81.6 C293.46,80.054 293.146,77.86 291.6,76.7 C290.054,75.54 287.86,75.854 286.7,77.4 C271.767,97.311 271.767,124.689 286.7,144.6 C287.86,146.146 290.054,146.46 291.6,145.3 C293.146,144.14 293.46,141.946 292.3,140.4 Z" />
            <path d="M293,107.5 L237,107.5 C235.067,107.5 233.5,109.067 233.5,111 C233.5,112.933 235.067,114.5 237,114.5 L293,114.5 C294.933,114.5 296.5,112.933 296.5,111 C296.5,109.067 294.933,107.5 293,107.5 Z" />
            <path d="M237.7,81.6 C250.767,99.022 250.767,122.978 237.7,140.4 C236.54,141.946 236.854,144.14 238.4,145.3 C239.946,146.46 242.14,146.146 243.3,144.6 C258.233,124.689 258.233,97.311 243.3,77.4 C242.14,75.854 239.946,75.54 238.4,76.7 C236.854,77.86 236.54,80.054 237.7,81.6 Z" />
        </g>
        <g id="Regular-M" transform="translate(0,200)">
            <path d="M492.3,140.4 C479.233,122.978 479.233,99.022 492.3,81.6 C493.46,80.054 493.146,77.86 491.6,76.7 C490.054,75.54 487.86,75.854 486.7,77.4 C471.767,97.311 471.767,124.689 486.7,144.6 C487.86,146.146 490.054,146.46 491.6,145.3 C493.146,144.14 493.46,141.946 492.3,140.4 Z" />
            <path d="M493,107.5 L437,107.5 C435.067,107.5 433.5,109.067 433.5,111 C433.5,112.933 435.067,114.5 437,114.5 L493,114.5 C494.933,114.5 496.5,112.933 496.5,111 C496.5,109.067 494.933,107.5 493,107.5 Z" />
            <path d="M437.7,81.6 C450.767,99.022 450.767,122.978 437.7,140.4 C436.54,141.946 436.854,144.14 438.4,145.3 C439.946,146.46 442.14,146.146 443.3,144.6 C458.233,124.689 458.233,97.311 443.3,77.4 C442.14,75.854 439.946,75.54 438.4,76.7 C436.854,77.86 436.54,80.054 437.7,81.6 Z" />
        </g>
        <g id="Black-M" transform="translate(0,200)">
            <path d="M692.3,140.4 C679.233,122.978 679.233,99.022 692.3,81.6 C693.46,80.054 693.146,77.86 691.6,76.7 C690.054,75.54 687.86,75.854 686.7,77.4 C671.767,97.311 671.767,124.689 686.7,144.6 C687.86,146.146 690.054,146.46 691.6,145.3 C693.146,144.14 693.46,141.946 692.3,140.4 Z" />
            <path d="M693,107.5 L637,107.5 C635.067,107.5 633.5,109.067 633.5,111 C633.5,112.933 635.067,114.5 637,114.5 L693,114.5 C694.933,114.5 696.5,112.933 696.5,111 C696.5,109.067 694.933,107.5 693,107.5 Z" />
            <path d="M637.7,81.6 C650.767,99.022 650.767,122.978 637.7,140.4 C636.54,141.946 636.854,144.14 638.4,145.3 C639.946,146.46 642.14,146.146 643.3,144.6 C658.233,124.689 658.233,97.311 643.3,77.4 C642.14,75.854 639.946,75.54 638.4,76.7 C636.854,77.86 636.54,80.054 637.7,81.6 Z" />
        </g>
    </g>
</svg>