<?xml version="1.0" encoding="UTF-8"?>
<svg height="600" width="800" xmlns="http://www.w3.org/2000/svg" xmlns:xlink="http://www.w3.org/1999/xlink">
    <g id="Notes" font-family="LucidaGrande, 'Lucida Grande', sans-serif" font-size="13">
        <rect fill="white" height="600.0" width="800.0" x="0.0" y="0.0" />
        <g font-size="13">
            <text x="18.0" y="176.0">Small</text>
            <text x="18.0" y="376.0">Medium</text>
            <text x="18.0" y="576.0">Large</text>
        </g>
        <g font-size="9">
            <text x="250.0" y="30.0">Ultralight</text>
            <text x="450.0" y="30.0">Regular</text>
            <text x="650.0" y="30.0">Black</text>
            <text id="template-version" fill="#505050" text-anchor="end" x="785.0" y="575.0">Template v.3.0</text>
            <a href="https://github.com/swhitty/SwiftDraw">
                <text fill="#505050" text-anchor="end" x="785.0" y="590.0">https://github.com/swhitty/SwiftDraw</text>
            </a>
        </g>
    </g>
    <g id="Guides" stroke="rgb(39, 170, 225)" stroke-width="0.5">
        <path id="Capline-S" d="M18,76 l800,0" />
        <path id="H-reference" d="M85,145.755 L87.685,145.755 L113.369,79.287 L114.052,79.287 L114.052,76 L112.148,76 L85,145.755 Z M95.693,121.536 L130.996,121.536 L130.263,119.313 L96.474,119.313 L95.693,121.536 Z M139.15,145.755 L141.787,145.755 L114.638,76 L113.466,76 L113.466,79.287 L139.15,145.755 Z" stroke="none" transform="translate(0,200)" />
        <path id="Baseline-S" d="M18,146 l800,0" />
        <path id="left-margin-Ultralight-M" d="M233.5,256 l0,110" />
        <path id="right-margin-Ultralight-M" d="M296.5,256 l0,110" />
        <path id="left-margin-Regular-M" d="M433.5,256 l0,110" />
        <path id="right-margin-Regular-M" d="M496.5,256 l0,110" />
        <path id="left-margin-Black-M" d="M633.5,256 l0,110" />
        <path id="right-margin-Black-M" d="M696.5,256 l0,110" />
        <path id="Capline-M" d="M18,276 l800,0" />
        <path id="Baseline-M" d="M18,346 l800,0" />
        <path id="Capline-L" d="M18,476 l800,0" />
        <path id="Baseline-L" d="M18,546 l800,0" />
    </g>
    <g id="Symbols">
        <g id="Ultralight-M" transform="translate(0,200)">
            <path d="M261.5,125 C261.5,118.267 259.809,114.275 255.609,108.325 C255.304,107.893 255.304,107.893 255.006,107.472 C251.994,103.198 251,100.901 251,97 C251,89.268 257.268,83 265,83 C272.732,83 279,89.268 279,97 C279,100.673 277.948,104.18 275.52,109.491 C275.15,110.302 275.053,110.509 274.084,112.564 C270.019,121.188 268.5,125.753 268.5,132 C268.5,139.732 274.768,146 282.5,146 C290.232,146 296.5,139.732 296.5,132 C296.5,130.067 294.933,128.5 293,128.5 C291.067,128.5 289.5,130.067 289.5,132 C289.5,135.866 286.366,139 282.5,139 C278.634,139 275.5,135.866 275.5,132 C275.5,127.103 276.773,123.277 280.416,115.549 C281.4,113.461 281.5,113.248 281.887,112.402 C284.698,106.253 286,101.909 286,97 C286,85.402 276.598,76 265,76 C253.402,76 244,85.402 244,97 C244,102.654 245.516,106.159 249.285,111.505 C249.59,111.937 249.59,111.937 249.891,112.362 C253.334,117.24 254.5,119.993 254.5,125 C254.5,126.933 256.067,128.5 258,128.5 C259.933,128.5 261.5,126.933 261.5,125 Z" />
            <path d="M240.5,125 C240.5,121.134 243.634,118 247.5,118 C251.366,118 254.5,121.134 254.5,125 C254.5,128.866 251.366,132 247.5,132 C243.634,132 240.5,128.866 240.5,125 Z M233.5,125 C233.5,132.732 239.768,139 247.5,139 C255.232,139 261.5,132.732 261.5,125 C261.5,117.268 255.232,111 247.5,111 C239.768,111 233.5,117.268 233.5,125 Z" />
        </g>
        <g id="Regular-M" transform="translate(0,200)">
            <path d="M461.5,125 C461.5,118.267 459.809,114.275 455.609,108.325 C455.304,107.893 455.304,107.893 455.006,107.472 C451.994,103.198 451,100.901 451,97 C451,89.268 457.268,83 465,83 C472.732,83 479,89.268 479,97 C479,100.673 477.948,104.18 475.52,109.491 C475.15,110.302 475.053,110.509 474.084,112.564 C470.019,121.188 468.5,125.753 468.5,132 C468.5,139.732 474.768,146 482.5,146 C490.232,146 496.5,139.732 496.5,132 C496.5,130.067 494.933,128.5 493,128.5 C491.067,128.5 489.5,130.067 489.5,132 C489.5,135.866 486.366,139 482.5,139 C478.634,139 475.5,135.866 475.5,132 C475.5,127.103 476.773,123.277 480.416,115.549 C481.4,113.461 481.5,113.248 481.887,112.402 C484.698,106.253 486,101.909 486,97 C486,85.402 476.598,76 465,76 C453.402,76 444,85.402 444,97 C444,102.654 445.516,106.159 449.285,111.505 C449.59,111.937 449.59,111.937 449.891,112.362 C453.334,117.24 454.5,119.993 454.5,125 C454.5,126.933 456.067,128.5 458,128.5 C459.933,128.5 461.5,126.933 461.5,125 Z" />
            <path d="M440.5,125 C440.5,121.134 443.634,118 447.5,118 C451.366,118 454.5,121.134 454.5,125 C454.5,128.866 451.366,132 447.5,132 C443.634,132 440.5,128.866 440.5,125 Z M433.5,125 C433.5,132.732 439.768,139 447.5,139 C455.232,139 461.5,132.732 461.5,125 C461.5,117.268 455.232,111 447.5,111 C439.768,111 433.5,117.268 433.5,125 Z" />
        </g>
        <g id="Black-M" transform="translate(0,200)">
            <path d="M661.5,125 C661.5,118.267 659.809,114.275 655.609,108.325 C655.304,107.893 655.304,107.893 655.006,107.472 C651.994,103.198 651,100.901 651,97 C651,89.268 657.268,83 665,83 C672.732,83 679,89.268 679,97 C679,100.673 677.948,104.18 675.52,109.491 C675.15,110.302 675.053,110.509 674.084,112.564 C670.019,121.188 668.5,125.753 668.5,132 C668.5,139.732 674.768,146 682.5,146 C690.232,146 696.5,139.732 696.5,132 C696.5,130.067 694.933,128.5 693,128.5 C691.067,128.5 689.5,130.067 689.5,132 C689.5,135.866 686.366,139 682.5,139 C678.634,139 675.5,135.866 675.5,132 C675.5,127.103 676.773,123.277 680.416,115.549 C681.4,113.461 681.5,113.248 681.887,112.402 C684.698,106.253 686,101.909 686,97 C686,85.402 676.598,76 665,76 C653.402,76 644,85.402 644,97 C644,102.654 645.516,106.159 649.285,111.505 C649.59,111.937 649.59,111.937 649.891,112.362 C653.334,117.24 654.5,119.993 654.5,125 C654.5,126.933 656.067,128.5 658,128.5 C659.933,128.5 661.5,126.933 661.5,125 Z" />
            <path d="M640.5,125 C640.5,121.134 643.634,118 647.5,118 C651.366,118 654.5,121.134 654.5,125 C654.5,128.866 651.366,132 647.5,132 C643.634,132 640.5,128.866 640.5,125 Z M633.5,125 C633.5,132.732 639.768,139 647.5,139 C655.232,139 661.5,132.732 661.5,125 C661.5,117.268 655.232,111 647.5,111 C639.768,111 633.5,117.268 633.5,125 Z" />
        </g>
    </g>
</svg>