<?xml version="1.0" encoding="UTF-8"?>
<svg height="600" width="800" xmlns="http://www.w3.org/2000/svg" xmlns:xlink="http://www.w3.org/1999/xlink">
    <g id="Notes" font-family="LucidaGrande, 'Lucida Grande', sans-serif" font-size="13">
        <rect fill="white" height="600.0" width="800.0" x="0.0" y="0.0" />
        <g font-size="13">
            <text x="18.0" y="176.0">Small</text>
            <text x="18.0" y="376.0">Medium</text>
            <text x="18.0" y="576.0">Large</text>
        </g>
        <g font-size="9">
            <text x="250.0" y="30.0">Ultralight</text>
            <text x="450.0" y="30.0">Regular</text>
            <text x="650.0" y="30.0">Black</text>
            <text id="template-version" fill="#505050" text-anchor="end" x="785.0" y="575.0">Template v.3.0</text>
            <a href="https://github.com/swhitty/SwiftDraw">
                <text fill="#505050" text-anchor="end" x="785.0" y="590.0">https://github.com/swhitty/SwiftDraw</text>
            </a>
        </g>
    </g>
    <g id="Guides" stroke="rgb(39, 170, 225)" stroke-width="0.5">
        <path id="Capline-S" d="M18,76 l800,0" />
        <path id="H-reference" d="M85,145.755 L87.685,145.755 L113.369,79.287 L114.052,79.287 L114.052,76 L112.148,76 L85,145.755 Z M95.693,121.536 L130.996,121.536 L130.263,119.313 L96.474,119.313 L95.693,121.536 Z M139.15,145.755 L141.787,145.755 L114.638,76 L113.466,76 L113.466,79.287 L139.15,145.755 Z" stroke="none" transform="translate(0,200)" />
        <path id="Baseline-S" d="M18,146 l800,0" />
        <path id="left-margin-Ultralight-M" d="M230,256 l0,110" />
        <path id="right-margin-Ultralight-M" d="M300,256 l0,110" />
        <path id="left-margin-Regular-M" d="M430,256 l0,110" />
        <path id="right-margin-Regular-M" d="M500,256 l0,110" />
        <path id="left-margin-Black-M" d="M630,256 l0,110" />
        <path id="right-margin-Black-M" d="M700,256 l0,110" />
        <path id="Capline-M" d="M18,276 l800,0" />
        <path id="Baseline-M" d="M18,346 l800,0" />
        <path id="Capline-L" d="M18,476 l800,0" />
        <path id="Baseline-L" d="M18,546 l800,0" />
    </g>
    <g id="Symbols">
        <g id="Ultralight-M" transform="translate(0,200)">
            <path d="M274.179,126.775 L240.195,117.491 C238.5,117.028 236.751,118.029 236.288,119.728 C235.826,121.426 236.825,123.178 238.521,123.641 L272.505,132.924 C274.2,133.388 275.949,132.387 276.412,130.688 C276.874,128.99 275.875,127.238 274.179,126.775 Z" />
            <path d="M287.537,83.422 C288.932,82.025 291.194,82.025 292.589,83.422 C293.985,84.819 293.985,87.085 292.589,88.482 L279.804,101.291 C277.941,103.158 277.941,106.184 279.804,108.051 L282.808,111.06 C284.56,112.814 284.56,115.659 282.808,117.414 L279.804,120.422 C280.426,119.8 281.433,119.8 282.054,120.422 L255.647,93.977 C256.269,94.599 256.269,95.608 255.647,96.23 L258.651,93.222 C260.403,91.468 263.243,91.468 264.995,93.222 L267.999,96.231 C269.863,98.097 272.884,98.097 274.748,96.231 L287.537,83.422 Z M283.037,78.915 L270.249,91.724 C270.87,91.101 271.877,91.101 272.499,91.723 L269.495,88.715 C265.258,84.472 258.388,84.472 254.151,88.715 L251.147,91.724 C249.283,93.591 249.283,96.617 251.147,98.484 L277.555,124.93 C279.419,126.796 282.44,126.796 284.304,124.93 L287.308,121.921 C291.545,117.677 291.545,110.797 287.308,106.553 L284.304,103.544 C284.926,104.167 284.926,105.175 284.305,105.798 L297.09,92.989 C300.97,89.103 300.97,82.802 297.089,78.915 C293.209,75.029 286.918,75.029 283.037,78.915 Z" />
            <path d="M252.804,96.542 C248.289,103.335 243.343,105.995 233.921,107.758 C232.266,108.06 230.883,109.225 230.296,110.818 C229.71,112.412 230.007,114.197 231.078,115.514 L254.381,143.837 C256.464,146.063 259.539,146.593 262.061,145.296 L262.406,145.09 C270.959,139.221 280.909,127.156 280.909,120.617 C280.909,118.857 279.484,117.43 277.727,117.43 C275.969,117.43 274.545,118.857 274.545,120.617 C274.545,124.417 265.774,135.052 258.809,139.832 L260.608,142.461 L259.154,139.626 C259.154,139.626 259.154,139.626 259.154,139.626 L236,111.474 C236.362,111.918 236.459,112.502 236.267,113.024 C236.075,113.545 235.623,113.926 235.077,114.026 C246.05,111.973 252.498,108.506 258.101,100.074 C259.075,98.609 258.679,96.631 257.216,95.655 C255.753,94.68 253.778,95.077 252.804,96.542 Z" />
        </g>
        <g id="Regular-M" transform="translate(0,200)">
            <path d="M474.179,126.775 L440.195,117.491 C438.5,117.028 436.751,118.029 436.288,119.728 C435.826,121.426 436.825,123.178 438.521,123.641 L472.505,132.924 C474.2,133.388 475.949,132.387 476.412,130.688 C476.874,128.99 475.875,127.238 474.179,126.775 Z" />
            <path d="M487.537,83.422 C488.932,82.025 491.194,82.025 492.589,83.422 C493.985,84.819 493.985,87.085 492.589,88.482 L479.804,101.291 C477.941,103.158 477.941,106.184 479.804,108.051 L482.808,111.06 C484.56,112.814 484.56,115.659 482.808,117.414 L479.804,120.422 C480.426,119.8 481.433,119.8 482.054,120.422 L455.647,93.977 C456.269,94.599 456.269,95.608 455.647,96.23 L458.651,93.222 C460.403,91.468 463.243,91.468 464.995,93.222 L467.999,96.231 C469.863,98.097 472.884,98.097 474.748,96.231 L487.537,83.422 Z M483.037,78.915 L470.249,91.724 C470.87,91.101 471.877,91.101 472.499,91.723 L469.495,88.715 C465.258,84.472 458.388,84.472 454.151,88.715 L451.147,91.724 C449.283,93.591 449.283,96.617 451.147,98.484 L477.555,124.93 C479.419,126.796 482.44,126.796 484.304,124.93 L487.308,121.921 C491.545,117.677 491.545,110.797 487.308,106.553 L484.304,103.544 C484.926,104.167 484.926,105.175 484.305,105.798 L497.09,92.989 C500.97,89.103 500.97,82.802 497.089,78.915 C493.209,75.029 486.918,75.029 483.037,78.915 Z" />
            <path d="M452.804,96.542 C448.289,103.335 443.343,105.995 433.921,107.758 C432.266,108.06 430.883,109.225 430.296,110.818 C429.71,112.412 430.007,114.197 431.078,115.514 L454.381,143.837 C456.464,146.063 459.539,146.593 462.061,145.296 L462.406,145.09 C470.959,139.221 480.909,127.156 480.909,120.617 C480.909,118.857 479.484,117.43 477.727,117.43 C475.969,117.43 474.545,118.857 474.545,120.617 C474.545,124.417 465.774,135.052 458.809,139.832 L460.608,142.461 L459.154,139.626 C459.154,139.626 459.154,139.626 459.154,139.626 L436,111.474 C436.362,111.918 436.459,112.502 436.267,113.024 C436.075,113.545 435.623,113.926 435.077,114.026 C446.05,111.973 452.498,108.506 458.101,100.074 C459.075,98.609 458.679,96.631 457.216,95.655 C455.753,94.68 453.778,95.077 452.804,96.542 Z" />
        </g>
        <g id="Black-M" transform="translate(0,200)">
            <path d="M674.179,126.775 L640.195,117.491 C638.5,117.028 636.751,118.029 636.288,119.728 C635.826,121.426 636.825,123.178 638.521,123.641 L672.505,132.924 C674.2,133.388 675.949,132.387 676.412,130.688 C676.874,128.99 675.875,127.238 674.179,126.775 Z" />
            <path d="M687.537,83.422 C688.932,82.025 691.194,82.025 692.589,83.422 C693.985,84.819 693.985,87.085 692.589,88.482 L679.804,101.291 C677.941,103.158 677.941,106.184 679.804,108.051 L682.808,111.06 C684.56,112.814 684.56,115.659 682.808,117.414 L679.804,120.422 C680.426,119.8 681.433,119.8 682.054,120.422 L655.647,93.977 C656.269,94.599 656.269,95.608 655.647,96.23 L658.651,93.222 C660.403,91.468 663.243,91.468 664.995,93.222 L667.999,96.231 C669.863,98.097 672.884,98.097 674.748,96.231 L687.537,83.422 Z M683.037,78.915 L670.249,91.724 C670.87,91.101 671.877,91.101 672.499,91.723 L669.495,88.715 C665.258,84.472 658.388,84.472 654.151,88.715 L651.147,91.724 C649.283,93.591 649.283,96.617 651.147,98.484 L677.555,124.93 C679.419,126.796 682.44,126.796 684.304,124.93 L687.308,121.921 C691.545,117.677 691.545,110.797 687.308,106.553 L684.304,103.544 C684.926,104.167 684.926,105.175 684.305,105.798 L697.09,92.989 C700.97,89.103 700.97,82.802 697.089,78.915 C693.209,75.029 686.918,75.029 683.037,78.915 Z" />
            <path d="M652.804,96.542 C648.289,103.335 643.343,105.995 633.921,107.758 C632.266,108.06 630.883,109.225 630.296,110.818 C629.71,112.412 630.007,114.197 631.078,115.514 L654.381,143.837 C656.464,146.063 659.539,146.593 662.061,145.296 L662.406,145.09 C670.959,139.221 680.909,127.156 680.909,120.617 C680.909,118.857 679.484,117.43 677.727,117.43 C675.969,117.43 674.545,118.857 674.545,120.617 C674.545,124.417 665.774,135.052 658.809,139.832 L660.607,142.461 L659.154,139.626 C659.154,139.626 659.154,139.626 659.154,139.626 L636,111.474 C636.362,111.918 636.459,112.502 636.267,113.024 C636.075,113.545 635.623,113.926 635.077,114.026 C646.05,111.973 652.498,108.506 658.101,100.074 C659.075,98.609 658.679,96.631 657.216,95.655 C655.753,94.68 653.778,95.077 652.804,96.542 Z" />
        </g>
    </g>
</svg>