<?xml version="1.0" encoding="UTF-8"?>
<svg height="600" width="800" xmlns="http://www.w3.org/2000/svg" xmlns:xlink="http://www.w3.org/1999/xlink">
    <g id="Notes" font-family="LucidaGrande, 'Lucida Grande', sans-serif" font-size="13">
        <rect fill="white" height="600.0" width="800.0" x="0.0" y="0.0" />
        <g font-size="13">
            <text x="18.0" y="176.0">Small</text>
            <text x="18.0" y="376.0">Medium</text>
            <text x="18.0" y="576.0">Large</text>
        </g>
        <g font-size="9">
            <text x="250.0" y="30.0">Ultralight</text>
            <text x="450.0" y="30.0">Regular</text>
            <text x="650.0" y="30.0">Black</text>
            <text id="template-version" fill="#505050" text-anchor="end" x="785.0" y="575.0">Template v.3.0</text>
            <a href="https://github.com/swhitty/SwiftDraw">
                <text fill="#505050" text-anchor="end" x="785.0" y="590.0">https://github.com/swhitty/SwiftDraw</text>
            </a>
        </g>
    </g>
    <g id="Guides" stroke="rgb(39, 170, 225)" stroke-width="0.5">
        <path id="Capline-S" d="M18,76 l800,0" />
        <path id="H-reference" d="M85,145.755 L87.685,145.755 L113.369,79.287 L114.052,79.287 L114.052,76 L112.148,76 L85,145.755 Z M95.693,121.536 L130.996,121.536 L130.263,119.313 L96.474,119.313 L95.693,121.536 Z M139.15,145.755 L141.787,145.755 L114.638,76 L113.466,76 L113.466,79.287 L139.15,145.755 Z" stroke="none" transform="translate(0,200)" />
        <path id="Baseline-S" d="M18,146 l800,0" />
        <path id="left-margin-Ultralight-M" d="M237.955,256 l0,110" />
        <path id="right-margin-Ultralight-M" d="M292.045,256 l0,110" />
        <path id="left-margin-Regular-M" d="M437.955,256 l0,110" />
        <path id="right-margin-Regular-M" d="M492.045,256 l0,110" />
        <path id="left-margin-Black-M" d="M637.955,256 l0,110" />
        <path id="right-margin-Black-M" d="M692.045,256 l0,110" />
        <path id="Capline-M" d="M18,276 l800,0" />
        <path id="Baseline-M" d="M18,346 l800,0" />
        <path id="Capline-L" d="M18,476 l800,0" />
        <path id="Baseline-L" d="M18,546 l800,0" />
    </g>
    <g id="Symbols">
        <g id="Ultralight-M" transform="translate(0,200)">
            <path d="M238.886,97.341 L270.699,129.159 L270.699,124.659 L254.792,140.568 L260.223,142.818 L260.223,79.182 L254.792,81.432 L270.699,97.341 L270.699,92.841 L238.886,124.659 C237.644,125.902 237.644,127.916 238.886,129.159 C240.129,130.402 242.143,130.402 243.385,129.159 L275.198,97.341 C276.44,96.098 276.44,94.084 275.198,92.841 L259.291,76.932 C257.287,74.927 253.861,76.347 253.861,79.182 L253.861,142.818 C253.861,145.653 257.287,147.073 259.291,145.068 L275.198,129.159 C276.44,127.916 276.44,125.902 275.198,124.659 L243.385,92.841 C242.143,91.598 240.129,91.598 238.886,92.841 C237.644,94.084 237.644,96.098 238.886,97.341 Z" />
            <path d="M287.38,122.256 C290.367,119.272 292.045,115.222 292.045,111 C292.045,106.778 290.367,102.728 287.38,99.744 C286.137,98.502 284.123,98.504 282.881,99.747 C281.64,100.99 281.641,103.005 282.884,104.247 C284.676,106.037 285.683,108.467 285.683,111 C285.683,113.533 284.676,115.963 282.884,117.753 C281.641,118.995 281.64,121.01 282.881,122.253 C284.123,123.496 286.137,123.498 287.38,122.256 Z" />
            <path d="M276.129,114.182 L276.161,114.182 C277.918,114.182 279.342,112.757 279.342,111 C279.342,109.243 277.918,107.818 276.161,107.818 L276.129,107.818 C274.372,107.818 272.948,109.243 272.948,111 C272.948,112.757 274.372,114.182 276.129,114.182 Z" />
        </g>
        <g id="Regular-M" transform="translate(0,200)">
            <path d="M438.886,97.341 L470.699,129.159 L470.699,124.659 L454.792,140.568 L460.223,142.818 L460.223,79.182 L454.792,81.432 L470.699,97.341 L470.699,92.841 L438.886,124.659 C437.644,125.902 437.644,127.916 438.886,129.159 C440.129,130.402 442.143,130.402 443.385,129.159 L475.198,97.341 C476.44,96.098 476.44,94.084 475.198,92.841 L459.291,76.932 C457.287,74.927 453.861,76.347 453.861,79.182 L453.861,142.818 C453.861,145.653 457.287,147.073 459.291,145.068 L475.198,129.159 C476.44,127.916 476.44,125.902 475.198,124.659 L443.385,92.841 C442.143,91.598 440.129,91.598 438.886,92.841 C437.644,94.084 437.644,96.098 438.886,97.341 Z" />
            <path d="M487.38,122.256 C490.367,119.272 492.045,115.222 492.045,111 C492.045,106.778 490.367,102.728 487.38,99.744 C486.137,98.502 484.123,98.504 482.881,99.747 C481.64,100.99 481.641,103.005 482.884,104.247 C484.676,106.037 485.683,108.467 485.683,111 C485.683,113.533 484.676,115.963 482.884,117.753 C481.641,118.995 481.64,121.01 482.881,122.253 C484.123,123.496 486.137,123.498 487.38,122.256 Z" />
            <path d="M476.129,114.182 L476.161,114.182 C477.918,114.182 479.342,112.757 479.342,111 C479.342,109.243 477.918,107.818 476.161,107.818 L476.129,107.818 C474.372,107.818 472.948,109.243 472.948,111 C472.948,112.757 474.372,114.182 476.129,114.182 Z" />
        </g>
        <g id="Black-M" transform="translate(0,200)">
            <path d="M638.886,97.341 L670.699,129.159 L670.699,124.659 L654.792,140.568 L660.223,142.818 L660.223,79.182 L654.792,81.432 L670.699,97.341 L670.699,92.841 L638.886,124.659 C637.644,125.902 637.644,127.916 638.886,129.159 C640.129,130.402 642.143,130.402 643.385,129.159 L675.198,97.341 C676.44,96.098 676.44,94.084 675.198,92.841 L659.291,76.932 C657.287,74.927 653.861,76.347 653.861,79.182 L653.861,142.818 C653.861,145.653 657.287,147.073 659.291,145.068 L675.198,129.159 C676.44,127.916 676.44,125.902 675.198,124.659 L643.385,92.841 C642.143,91.598 640.129,91.598 638.886,92.841 C637.644,94.084 637.644,96.098 638.886,97.341 Z" />
            <path d="M687.38,122.256 C690.367,119.272 692.045,115.222 692.045,111 C692.045,106.778 690.367,102.728 687.38,99.744 C686.137,98.502 684.123,98.504 682.881,99.747 C681.64,100.99 681.641,103.005 682.884,104.247 C684.676,106.037 685.683,108.467 685.683,111 C685.683,113.533 684.676,115.963 682.884,117.753 C681.641,118.995 681.64,121.01 682.881,122.253 C684.123,123.496 686.137,123.498 687.38,122.256 Z" />
            <path d="M676.129,114.182 L676.161,114.182 C677.918,114.182 679.342,112.757 679.342,111 C679.342,109.243 677.918,107.818 676.161,107.818 L676.129,107.818 C674.372,107.818 672.948,109.243 672.948,111 C672.948,112.757 674.372,114.182 676.129,114.182 Z" />
        </g>
    </g>
</svg>