<?xml version="1.0" encoding="UTF-8"?>
<svg height="600" width="800" xmlns="http://www.w3.org/2000/svg" xmlns:xlink="http://www.w3.org/1999/xlink">
    <g id="Notes" font-family="LucidaGrande, 'Lucida Grande', sans-serif" font-size="13">
        <rect fill="white" height="600.0" width="800.0" x="0.0" y="0.0" />
        <g font-size="13">
            <text x="18.0" y="176.0">Small</text>
            <text x="18.0" y="376.0">Medium</text>
            <text x="18.0" y="576.0">Large</text>
        </g>
        <g font-size="9">
            <text x="250.0" y="30.0">Ultralight</text>
            <text x="450.0" y="30.0">Regular</text>
            <text x="650.0" y="30.0">Black</text>
            <text id="template-version" fill="#505050" text-anchor="end" x="785.0" y="575.0">Template v.3.0</text>
            <a href="https://github.com/swhitty/SwiftDraw">
                <text fill="#505050" text-anchor="end" x="785.0" y="590.0">https://github.com/swhitty/SwiftDraw</text>
            </a>
        </g>
    </g>
    <g id="Guides" stroke="rgb(39, 170, 225)" stroke-width="0.5">
        <path id="Capline-S" d="M18,76 l800,0" />
        <path id="H-reference" d="M85,145.755 L87.685,145.755 L113.369,79.287 L114.052,79.287 L114.052,76 L112.148,76 L85,145.755 Z M95.693,121.536 L130.996,121.536 L130.263,119.313 L96.474,119.313 L95.693,121.536 Z M139.15,145.755 L141.787,145.755 L114.638,76 L113.466,76 L113.466,79.287 L139.15,145.755 Z" stroke="none" transform="translate(0,200)" />
        <path id="Baseline-S" d="M18,146 l800,0" />
        <path id="left-margin-Ultralight-M" d="M226.5,256 l0,110" />
        <path id="right-margin-Ultralight-M" d="M303.5,256 l0,110" />
        <path id="left-margin-Regular-M" d="M426.5,256 l0,110" />
        <path id="right-margin-Regular-M" d="M503.5,256 l0,110" />
        <path id="left-margin-Black-M" d="M626.5,256 l0,110" />
        <path id="right-margin-Black-M" d="M703.5,256 l0,110" />
        <path id="Capline-M" d="M18,276 l800,0" />
        <path id="Baseline-M" d="M18,346 l800,0" />
        <path id="Capline-L" d="M18,476 l800,0" />
        <path id="Baseline-L" d="M18,546 l800,0" />
    </g>
    <g id="Symbols">
        <g id="Ultralight-M" transform="translate(0,200)">
            <path d="M293,90 C293.928,90 294.818,90.369 295.475,91.025 C296.131,91.682 296.5,92.572 296.5,93.5 L296.5,118 C296.5,118.928 296.131,119.818 295.475,120.475 C294.818,121.131 293.928,121.5 293,121.5 L254.5,121.5 C253.572,121.5 252.682,121.131 252.025,120.475 C251.369,119.818 251,118.928 251,118 L251,86.5 C251,85.572 251.369,84.682 252.025,84.025 C252.682,83.369 253.572,83 254.5,83 L263.25,83 C263.801,83 264.32,83.259 264.65,83.7 L266.75,86.5 C268.402,88.703 270.996,90 273.75,90 L293,90 Z M293,83 L273.75,83 C273.199,83 272.681,82.741 272.35,82.3 L270.25,79.5 C268.598,77.297 266.004,76 263.25,76 L254.5,76 C251.715,76 249.045,77.106 247.075,79.075 C245.106,81.045 244,83.715 244,86.5 L244,118 C244,120.785 245.106,123.455 247.075,125.425 C249.045,127.394 251.715,128.5 254.5,128.5 L293,128.5 C295.785,128.5 298.456,127.394 300.425,125.425 C302.394,123.455 303.5,120.785 303.5,118 L303.5,93.5 C303.5,90.715 302.394,88.045 300.425,86.075 C298.456,84.106 295.785,83 293,83 Z" />
            <path d="M231.75,94.907 C228.492,96.788 226.489,100.269 226.5,104.031 L226.5,135.5 C226.5,138.285 227.606,140.955 229.575,142.925 C231.545,144.894 234.215,146 237,146 L275.5,146 C279.251,146 282.717,143.999 284.593,140.75 C285.56,139.076 284.986,136.935 283.312,135.969 C281.638,135.002 279.497,135.576 278.531,137.25 C277.906,138.333 276.75,139 275.5,139 L237,139 C236.072,139 235.182,138.631 234.525,137.975 C233.869,137.318 233.5,136.428 233.5,135.5 L233.5,104.021 C233.496,102.756 234.164,101.596 235.25,100.969 C236.924,100.003 237.498,97.862 236.531,96.188 C235.565,94.514 233.424,93.94 231.75,94.907 Z" />
        </g>
        <g id="Regular-M" transform="translate(0,200)">
            <path d="M493,90 C493.928,90 494.818,90.369 495.475,91.025 C496.131,91.682 496.5,92.572 496.5,93.5 L496.5,118 C496.5,118.928 496.131,119.818 495.475,120.475 C494.818,121.131 493.928,121.5 493,121.5 L454.5,121.5 C453.572,121.5 452.682,121.131 452.025,120.475 C451.369,119.818 451,118.928 451,118 L451,86.5 C451,85.572 451.369,84.682 452.025,84.025 C452.682,83.369 453.572,83 454.5,83 L463.25,83 C463.801,83 464.32,83.259 464.65,83.7 L466.75,86.5 C468.402,88.703 470.996,90 473.75,90 L493,90 Z M493,83 L473.75,83 C473.199,83 472.681,82.741 472.35,82.3 L470.25,79.5 C468.598,77.297 466.004,76 463.25,76 L454.5,76 C451.715,76 449.045,77.106 447.075,79.075 C445.106,81.045 444,83.715 444,86.5 L444,118 C444,120.785 445.106,123.455 447.075,125.425 C449.045,127.394 451.715,128.5 454.5,128.5 L493,128.5 C495.785,128.5 498.456,127.394 500.425,125.425 C502.394,123.455 503.5,120.785 503.5,118 L503.5,93.5 C503.5,90.715 502.394,88.045 500.425,86.075 C498.456,84.106 495.785,83 493,83 Z" />
            <path d="M431.75,94.907 C428.492,96.788 426.489,100.269 426.5,104.031 L426.5,135.5 C426.5,138.285 427.606,140.955 429.575,142.925 C431.545,144.894 434.215,146 437,146 L475.5,146 C479.251,146 482.717,143.999 484.593,140.75 C485.56,139.076 484.986,136.935 483.312,135.969 C481.638,135.002 479.497,135.576 478.531,137.25 C477.906,138.333 476.75,139 475.5,139 L437,139 C436.072,139 435.182,138.631 434.525,137.975 C433.869,137.318 433.5,136.428 433.5,135.5 L433.5,104.021 C433.496,102.756 434.164,101.596 435.25,100.969 C436.924,100.003 437.498,97.862 436.531,96.188 C435.565,94.514 433.424,93.94 431.75,94.907 Z" />
        </g>
        <g id="Black-M" transform="translate(0,200)">
            <path d="M693,90 C693.928,90 694.818,90.369 695.475,91.025 C696.131,91.682 696.5,92.572 696.5,93.5 L696.5,118 C696.5,118.928 696.131,119.818 695.475,120.475 C694.818,121.131 693.928,121.5 693,121.5 L654.5,121.5 C653.572,121.5 652.682,121.131 652.025,120.475 C651.369,119.818 651,118.928 651,118 L651,86.5 C651,85.572 651.369,84.682 652.025,84.025 C652.682,83.369 653.572,83 654.5,83 L663.25,83 C663.801,83 664.32,83.259 664.65,83.7 L666.75,86.5 C668.402,88.703 670.996,90 673.75,90 L693,90 Z M693,83 L673.75,83 C673.199,83 672.681,82.741 672.35,82.3 L670.25,79.5 C668.598,77.297 666.004,76 663.25,76 L654.5,76 C651.715,76 649.045,77.106 647.075,79.075 C645.106,81.045 644,83.715 644,86.5 L644,118 C644,120.785 645.106,123.455 647.075,125.425 C649.045,127.394 651.715,128.5 654.5,128.5 L693,128.5 C695.785,128.5 698.456,127.394 700.425,125.425 C702.394,123.455 703.5,120.785 703.5,118 L703.5,93.5 C703.5,90.715 702.394,88.045 700.425,86.075 C698.456,84.106 695.785,83 693,83 Z" />
            <path d="M631.75,94.907 C628.492,96.788 626.489,100.269 626.5,104.031 L626.5,135.5 C626.5,138.285 627.606,140.955 629.575,142.925 C631.545,144.894 634.215,146 637,146 L675.5,146 C679.251,146 682.718,143.999 684.593,140.75 C685.56,139.076 684.986,136.935 683.312,135.969 C681.638,135.002 679.497,135.576 678.531,137.25 C677.906,138.333 676.75,139 675.5,139 L637,139 C636.072,139 635.182,138.631 634.525,137.975 C633.869,137.318 633.5,136.428 633.5,135.5 L633.5,104.021 C633.496,102.756 634.164,101.596 635.25,100.969 C636.924,100.003 637.498,97.862 636.531,96.188 C635.565,94.514 633.424,93.94 631.75,94.907 Z" />
        </g>
    </g>
</svg>