<?xml version="1.0" encoding="UTF-8"?>
<svg height="600" width="800" xmlns="http://www.w3.org/2000/svg" xmlns:xlink="http://www.w3.org/1999/xlink">
    <g id="Notes" font-family="LucidaGrande, 'Lucida Grande', sans-serif" font-size="13">
        <rect fill="white" height="600.0" width="800.0" x="0.0" y="0.0" />
        <g font-size="13">
            <text x="18.0" y="176.0">Small</text>
            <text x="18.0" y="376.0">Medium</text>
            <text x="18.0" y="576.0">Large</text>
        </g>
        <g font-size="9">
            <text x="250.0" y="30.0">Ultralight</text>
            <text x="450.0" y="30.0">Regular</text>
            <text x="650.0" y="30.0">Black</text>
            <text id="template-version" fill="#505050" text-anchor="end" x="785.0" y="575.0">Template v.3.0</text>
            <a href="https://github.com/swhitty/SwiftDraw">
                <text fill="#505050" text-anchor="end" x="785.0" y="590.0">https://github.com/swhitty/SwiftDraw</text>
            </a>
        </g>
    </g>
    <g id="Guides" stroke="rgb(39, 170, 225)" stroke-width="0.5">
        <path id="Capline-S" d="M18,76 l800,0" />
        <path id="H-reference" d="M85,145.755 L87.685,145.755 L113.369,79.287 L114.052,79.287 L114.052,76 L112.148,76 L85,145.755 Z M95.693,121.536 L130.996,121.536 L130.263,119.313 L96.474,119.313 L95.693,121.536 Z M139.15,145.755 L141.787,145.755 L114.638,76 L113.466,76 L113.466,79.287 L139.15,145.755 Z" stroke="none" transform="translate(0,200)" />
        <path id="Baseline-S" d="M18,146 l800,0" />
        <path id="left-margin-Ultralight-M" d="M230,256 l0,110" />
        <path id="right-margin-Ultralight-M" d="M300,256 l0,110" />
        <path id="left-margin-Regular-M" d="M430,256 l0,110" />
        <path id="right-margin-Regular-M" d="M500,256 l0,110" />
        <path id="left-margin-Black-M" d="M630,256 l0,110" />
        <path id="right-margin-Black-M" d="M700,256 l0,110" />
        <path id="Capline-M" d="M18,276 l800,0" />
        <path id="Baseline-M" d="M18,346 l800,0" />
        <path id="Capline-L" d="M18,476 l800,0" />
        <path id="Baseline-L" d="M18,546 l800,0" />
    </g>
    <g id="Symbols">
        <g id="Ultralight-M" transform="translate(0,200)">
            <path d="M237.778,91.556 L237.778,79.889 L233.889,83.778 L296.111,83.778 L292.222,79.889 L292.222,91.556 C292.222,93.703 293.963,95.444 296.111,95.444 C298.259,95.444 300,93.703 300,91.556 L300,79.889 C300,77.741 298.259,76 296.111,76 L233.889,76 C231.741,76 230,77.741 230,79.889 L230,91.556 C230,93.703 231.741,95.444 233.889,95.444 C236.037,95.444 237.778,93.703 237.778,91.556 Z" />
            <path d="M237.778,146 L261.111,146 C263.259,146 265,144.259 265,142.111 C265,139.963 263.259,138.222 261.111,138.222 L237.778,138.222 C235.63,138.222 233.889,139.963 233.889,142.111 C233.889,144.259 235.63,146 237.778,146 Z" />
            <path d="M265.177,78.729 L245.733,140.951 C245.092,143.001 246.234,145.182 248.284,145.823 C250.334,146.464 252.516,145.321 253.156,143.271 L272.601,81.049 C273.241,78.999 272.099,76.818 270.049,76.177 C267.999,75.536 265.818,76.679 265.177,78.729 Z" />
            <path d="M273.917,125.417 L293.361,144.861 C294.88,146.38 297.342,146.38 298.861,144.861 C300.38,143.342 300.38,140.88 298.861,139.361 L279.417,119.917 C277.898,118.398 275.436,118.398 273.917,119.917 C272.398,121.436 272.398,123.898 273.917,125.417 Z" />
            <path d="M293.361,119.917 L273.917,139.361 C272.398,140.88 272.398,143.342 273.917,144.861 C275.436,146.38 277.898,146.38 279.417,144.861 L298.861,125.417 C300.38,123.898 300.38,121.436 298.861,119.917 C297.342,118.398 294.88,118.398 293.361,119.917 Z" />
        </g>
        <g id="Regular-M" transform="translate(0,200)">
            <path d="M437.778,91.556 L437.778,79.889 L433.889,83.778 L496.111,83.778 L492.222,79.889 L492.222,91.556 C492.222,93.703 493.963,95.444 496.111,95.444 C498.259,95.444 500,93.703 500,91.556 L500,79.889 C500,77.741 498.259,76 496.111,76 L433.889,76 C431.741,76 430,77.741 430,79.889 L430,91.556 C430,93.703 431.741,95.444 433.889,95.444 C436.037,95.444 437.778,93.703 437.778,91.556 Z" />
            <path d="M437.778,146 L461.111,146 C463.259,146 465,144.259 465,142.111 C465,139.963 463.259,138.222 461.111,138.222 L437.778,138.222 C435.63,138.222 433.889,139.963 433.889,142.111 C433.889,144.259 435.63,146 437.778,146 Z" />
            <path d="M465.177,78.729 L445.733,140.951 C445.092,143.001 446.234,145.182 448.284,145.823 C450.335,146.464 452.516,145.321 453.156,143.271 L472.601,81.049 C473.241,78.999 472.099,76.818 470.049,76.177 C467.999,75.536 465.818,76.679 465.177,78.729 Z" />
            <path d="M473.917,125.417 L493.361,144.861 C494.88,146.38 497.342,146.38 498.861,144.861 C500.38,143.342 500.38,140.88 498.861,139.361 L479.417,119.917 C477.898,118.398 475.436,118.398 473.917,119.917 C472.398,121.436 472.398,123.898 473.917,125.417 Z" />
            <path d="M493.361,119.917 L473.917,139.361 C472.398,140.88 472.398,143.342 473.917,144.861 C475.436,146.38 477.898,146.38 479.417,144.861 L498.861,125.417 C500.38,123.898 500.38,121.436 498.861,119.917 C497.342,118.398 494.88,118.398 493.361,119.917 Z" />
        </g>
        <g id="Black-M" transform="translate(0,200)">
            <path d="M637.778,91.556 L637.778,79.889 L633.889,83.778 L696.111,83.778 L692.222,79.889 L692.222,91.556 C692.222,93.703 693.963,95.444 696.111,95.444 C698.259,95.444 700,93.703 700,91.556 L700,79.889 C700,77.741 698.259,76 696.111,76 L633.889,76 C631.741,76 630,77.741 630,79.889 L630,91.556 C630,93.703 631.741,95.444 633.889,95.444 C636.037,95.444 637.778,93.703 637.778,91.556 Z" />
            <path d="M637.778,146 L661.111,146 C663.259,146 665,144.259 665,142.111 C665,139.963 663.259,138.222 661.111,138.222 L637.778,138.222 C635.63,138.222 633.889,139.963 633.889,142.111 C633.889,144.259 635.63,146 637.778,146 Z" />
            <path d="M665.177,78.729 L645.733,140.951 C645.092,143.001 646.234,145.182 648.284,145.823 C650.334,146.464 652.516,145.321 653.156,143.271 L672.601,81.049 C673.241,78.999 672.099,76.818 670.049,76.177 C667.999,75.536 665.818,76.679 665.177,78.729 Z" />
            <path d="M673.917,125.417 L693.361,144.861 C694.88,146.38 697.342,146.38 698.861,144.861 C700.38,143.342 700.38,140.88 698.861,139.361 L679.417,119.917 C677.898,118.398 675.435,118.398 673.917,119.917 C672.398,121.436 672.398,123.898 673.917,125.417 Z" />
            <path d="M693.361,119.917 L673.917,139.361 C672.398,140.88 672.398,143.342 673.917,144.861 C675.435,146.38 677.898,146.38 679.417,144.861 L698.861,125.417 C700.38,123.898 700.38,121.436 698.861,119.917 C697.342,118.398 694.88,118.398 693.361,119.917 Z" />
        </g>
    </g>
</svg>