<?xml version="1.0" encoding="UTF-8"?>
<svg height="600" width="800" xmlns="http://www.w3.org/2000/svg" xmlns:xlink="http://www.w3.org/1999/xlink">
    <g id="Notes" font-family="LucidaGrande, 'Lucida Grande', sans-serif" font-size="13">
        <rect fill="white" height="600.0" width="800.0" x="0.0" y="0.0" />
        <g font-size="13">
            <text x="18.0" y="176.0">Small</text>
            <text x="18.0" y="376.0">Medium</text>
            <text x="18.0" y="576.0">Large</text>
        </g>
        <g font-size="9">
            <text x="250.0" y="30.0">Ultralight</text>
            <text x="450.0" y="30.0">Regular</text>
            <text x="650.0" y="30.0">Black</text>
            <text id="template-version" fill="#505050" text-anchor="end" x="785.0" y="575.0">Template v.3.0</text>
            <a href="https://github.com/swhitty/SwiftDraw">
                <text fill="#505050" text-anchor="end" x="785.0" y="590.0">https://github.com/swhitty/SwiftDraw</text>
            </a>
        </g>
    </g>
    <g id="Guides" stroke="rgb(39, 170, 225)" stroke-width="0.5">
        <path id="Capline-S" d="M18,76 l800,0" />
        <path id="H-reference" d="M85,145.755 L87.685,145.755 L113.369,79.287 L114.052,79.287 L114.052,76 L112.148,76 L85,145.755 Z M95.693,121.536 L130.996,121.536 L130.263,119.313 L96.474,119.313 L95.693,121.536 Z M139.15,145.755 L141.787,145.755 L114.638,76 L113.466,76 L113.466,79.287 L139.15,145.755 Z" stroke="none" transform="translate(0,200)" />
        <path id="Baseline-S" d="M18,146 l800,0" />
        <path id="left-margin-Ultralight-M" d="M230,256 l0,110" />
        <path id="right-margin-Ultralight-M" d="M300,256 l0,110" />
        <path id="left-margin-Regular-M" d="M430,256 l0,110" />
        <path id="right-margin-Regular-M" d="M500,256 l0,110" />
        <path id="left-margin-Black-M" d="M630,256 l0,110" />
        <path id="right-margin-Black-M" d="M700,256 l0,110" />
        <path id="Capline-M" d="M18,276 l800,0" />
        <path id="Baseline-M" d="M18,346 l800,0" />
        <path id="Capline-L" d="M18,476 l800,0" />
        <path id="Baseline-L" d="M18,546 l800,0" />
    </g>
    <g id="Symbols">
        <g id="Ultralight-M" transform="translate(0,200)">
            <path d="M236.364,111 C236.364,95.185 249.185,82.364 265,82.364 C280.815,82.364 293.636,95.185 293.636,111 C293.636,126.815 280.815,139.636 265,139.636 C249.185,139.636 236.364,126.815 236.364,111 Z M230,111 C230,130.33 245.67,146 265,146 C284.33,146 300,130.33 300,111 C300,91.67 284.33,76 265,76 C245.67,76 230,91.67 230,111 Z" />
            <path d="M261.818,120.545 L261.818,101.455 C261.818,99.697 260.394,98.273 258.636,98.273 C256.879,98.273 255.455,99.697 255.455,101.455 L255.455,120.545 C255.455,122.303 256.879,123.727 258.636,123.727 C260.394,123.727 261.818,122.303 261.818,120.545 Z" />
            <path d="M274.545,120.545 L274.545,101.455 C274.545,99.697 273.121,98.273 271.364,98.273 C269.606,98.273 268.182,99.697 268.182,101.455 L268.182,120.545 C268.182,122.303 269.606,123.727 271.364,123.727 C273.121,123.727 274.545,122.303 274.545,120.545 Z" />
        </g>
        <g id="Regular-M" transform="translate(0,200)">
            <path d="M436.364,111 C436.364,95.185 449.185,82.364 465,82.364 C480.815,82.364 493.636,95.185 493.636,111 C493.636,126.815 480.815,139.636 465,139.636 C449.185,139.636 436.364,126.815 436.364,111 Z M430,111 C430,130.33 445.67,146 465,146 C484.33,146 500,130.33 500,111 C500,91.67 484.33,76 465,76 C445.67,76 430,91.67 430,111 Z" />
            <path d="M461.818,120.545 L461.818,101.455 C461.818,99.697 460.394,98.273 458.636,98.273 C456.879,98.273 455.455,99.697 455.455,101.455 L455.455,120.545 C455.455,122.303 456.879,123.727 458.636,123.727 C460.394,123.727 461.818,122.303 461.818,120.545 Z" />
            <path d="M474.545,120.545 L474.545,101.455 C474.545,99.697 473.121,98.273 471.364,98.273 C469.606,98.273 468.182,99.697 468.182,101.455 L468.182,120.545 C468.182,122.303 469.606,123.727 471.364,123.727 C473.121,123.727 474.545,122.303 474.545,120.545 Z" />
        </g>
        <g id="Black-M" transform="translate(0,200)">
            <path d="M636.364,111 C636.364,95.185 649.185,82.364 665,82.364 C680.815,82.364 693.636,95.185 693.636,111 C693.636,126.815 680.815,139.636 665,139.636 C649.185,139.636 636.364,126.815 636.364,111 Z M630,111 C630,130.33 645.67,146 665,146 C684.33,146 700,130.33 700,111 C700,91.67 684.33,76 665,76 C645.67,76 630,91.67 630,111 Z" />
            <path d="M661.818,120.545 L661.818,101.455 C661.818,99.697 660.394,98.273 658.636,98.273 C656.879,98.273 655.455,99.697 655.455,101.455 L655.455,120.545 C655.455,122.303 656.879,123.727 658.636,123.727 C660.394,123.727 661.818,122.303 661.818,120.545 Z" />
            <path d="M674.545,120.545 L674.545,101.455 C674.545,99.697 673.121,98.273 671.364,98.273 C669.606,98.273 668.182,99.697 668.182,101.455 L668.182,120.545 C668.182,122.303 669.606,123.727 671.364,123.727 C673.121,123.727 674.545,122.303 674.545,120.545 Z" />
        </g>
    </g>
</svg>