<?xml version="1.0" encoding="UTF-8"?>
<svg height="600" width="800" xmlns="http://www.w3.org/2000/svg" xmlns:xlink="http://www.w3.org/1999/xlink">
    <g id="Notes" font-family="LucidaGrande, 'Lucida Grande', sans-serif" font-size="13">
        <rect fill="white" height="600.0" width="800.0" x="0.0" y="0.0" />
        <g font-size="13">
            <text x="18.0" y="176.0">Small</text>
            <text x="18.0" y="376.0">Medium</text>
            <text x="18.0" y="576.0">Large</text>
        </g>
        <g font-size="9">
            <text x="250.0" y="30.0">Ultralight</text>
            <text x="450.0" y="30.0">Regular</text>
            <text x="650.0" y="30.0">Black</text>
            <text id="template-version" fill="#505050" text-anchor="end" x="785.0" y="575.0">Template v.3.0</text>
            <a href="https://github.com/swhitty/SwiftDraw">
                <text fill="#505050" text-anchor="end" x="785.0" y="590.0">https://github.com/swhitty/SwiftDraw</text>
            </a>
        </g>
    </g>
    <g id="Guides" stroke="rgb(39, 170, 225)" stroke-width="0.5">
        <path id="Capline-S" d="M18,76 l800,0" />
        <path id="H-reference" d="M85,145.755 L87.685,145.755 L113.369,79.287 L114.052,79.287 L114.052,76 L112.148,76 L85,145.755 Z M95.693,121.536 L130.996,121.536 L130.263,119.313 L96.474,119.313 L95.693,121.536 Z M139.15,145.755 L141.787,145.755 L114.638,76 L113.466,76 L113.466,79.287 L139.15,145.755 Z" stroke="none" transform="translate(0,200)" />
        <path id="Baseline-S" d="M18,146 l800,0" />
        <path id="left-margin-Ultralight-M" d="M230,256 l0,110" />
        <path id="right-margin-Ultralight-M" d="M300,256 l0,110" />
        <path id="left-margin-Regular-M" d="M430,256 l0,110" />
        <path id="right-margin-Regular-M" d="M500,256 l0,110" />
        <path id="left-margin-Black-M" d="M630,256 l0,110" />
        <path id="right-margin-Black-M" d="M700,256 l0,110" />
        <path id="Capline-M" d="M18,276 l800,0" />
        <path id="Baseline-M" d="M18,346 l800,0" />
        <path id="Capline-L" d="M18,476 l800,0" />
        <path id="Baseline-L" d="M18,546 l800,0" />
    </g>
    <g id="Symbols">
        <g id="Ultralight-M" transform="translate(0,200)">
            <path d="M293,111.002 C293,123.13 285.189,133.879 273.653,137.628 C262.117,141.376 249.478,137.27 242.348,127.458 C235.218,117.645 235.217,104.357 242.347,94.544 C249.476,84.731 262.114,80.624 273.651,84.371 C275.489,84.969 277.464,83.962 278.061,82.124 C278.658,80.286 277.652,78.312 275.813,77.714 C261.392,73.03 245.595,78.164 236.683,90.43 C227.772,102.697 227.772,119.306 236.685,131.572 C245.598,143.838 261.396,148.97 275.816,144.285 C290.236,139.599 300,126.162 300,111.002 C300,109.069 298.433,107.502 296.5,107.502 C294.567,107.502 293,109.069 293,111.002 Z" />
        </g>
        <g id="Regular-M" transform="translate(0,200)">
            <path d="M493,111.002 C493,123.13 485.189,133.879 473.653,137.628 C462.117,141.376 449.478,137.27 442.348,127.458 C435.218,117.645 435.217,104.357 442.347,94.544 C449.476,84.731 462.114,80.624 473.651,84.371 C475.489,84.969 477.464,83.962 478.061,82.124 C478.658,80.286 477.652,78.312 475.813,77.714 C461.392,73.03 445.595,78.164 436.683,90.43 C427.772,102.697 427.772,119.306 436.685,131.572 C445.598,143.838 461.396,148.97 475.816,144.285 C490.236,139.599 500,126.162 500,111.002 C500,109.069 498.433,107.502 496.5,107.502 C494.567,107.502 493,109.069 493,111.002 Z" />
        </g>
        <g id="Black-M" transform="translate(0,200)">
            <path d="M693,111.002 C693,123.13 685.189,133.879 673.653,137.628 C662.117,141.376 649.478,137.27 642.348,127.458 C635.218,117.645 635.217,104.357 642.347,94.544 C649.476,84.731 662.114,80.624 673.651,84.371 C675.489,84.969 677.464,83.962 678.061,82.124 C678.658,80.286 677.652,78.312 675.813,77.714 C661.392,73.03 645.595,78.164 636.683,90.43 C627.772,102.697 627.772,119.306 636.685,131.572 C645.598,143.838 661.396,148.97 675.816,144.285 C690.236,139.599 700,126.162 700,111.002 C700,109.069 698.433,107.502 696.5,107.502 C694.567,107.502 693,109.069 693,111.002 Z" />
        </g>
    </g>
</svg>