<?xml version="1.0" encoding="UTF-8"?>
<svg height="600" width="800" xmlns="http://www.w3.org/2000/svg" xmlns:xlink="http://www.w3.org/1999/xlink">
    <g id="Notes" font-family="LucidaGrande, 'Lucida Grande', sans-serif" font-size="13">
        <rect fill="white" height="600.0" width="800.0" x="0.0" y="0.0" />
        <g font-size="13">
            <text x="18.0" y="176.0">Small</text>
            <text x="18.0" y="376.0">Medium</text>
            <text x="18.0" y="576.0">Large</text>
        </g>
        <g font-size="9">
            <text x="250.0" y="30.0">Ultralight</text>
            <text x="450.0" y="30.0">Regular</text>
            <text x="650.0" y="30.0">Black</text>
            <text id="template-version" fill="#505050" text-anchor="end" x="785.0" y="575.0">Template v.3.0</text>
            <a href="https://github.com/swhitty/SwiftDraw">
                <text fill="#505050" text-anchor="end" x="785.0" y="590.0">https://github.com/swhitty/SwiftDraw</text>
            </a>
        </g>
    </g>
    <g id="Guides" stroke="rgb(39, 170, 225)" stroke-width="0.5">
        <path id="Capline-S" d="M18,76 l800,0" />
        <path id="H-reference" d="M85,145.755 L87.685,145.755 L113.369,79.287 L114.052,79.287 L114.052,76 L112.148,76 L85,145.755 Z M95.693,121.536 L130.996,121.536 L130.263,119.313 L96.474,119.313 L95.693,121.536 Z M139.15,145.755 L141.787,145.755 L114.638,76 L113.466,76 L113.466,79.287 L139.15,145.755 Z" stroke="none" transform="translate(0,200)" />
        <path id="Baseline-S" d="M18,146 l800,0" />
        <path id="left-margin-Ultralight-M" d="M230,256 l0,110" />
        <path id="right-margin-Ultralight-M" d="M300,256 l0,110" />
        <path id="left-margin-Regular-M" d="M430,256 l0,110" />
        <path id="right-margin-Regular-M" d="M500,256 l0,110" />
        <path id="left-margin-Black-M" d="M630,256 l0,110" />
        <path id="right-margin-Black-M" d="M700,256 l0,110" />
        <path id="Capline-M" d="M18,276 l800,0" />
        <path id="Baseline-M" d="M18,346 l800,0" />
        <path id="Capline-L" d="M18,476 l800,0" />
        <path id="Baseline-L" d="M18,546 l800,0" />
    </g>
    <g id="Symbols">
        <g id="Ultralight-M" transform="translate(0,200)">
            <path d="M231.139,82.635 L240.861,92.352 C242.38,93.87 244.842,93.87 246.361,92.352 C247.88,90.834 247.88,88.373 246.361,86.855 L236.639,77.138 C235.12,75.621 232.658,75.621 231.139,77.138 C229.62,78.656 229.62,81.117 231.139,82.635 Z" />
            <path d="M273.555,86.828 C264.493,77.952 249.97,78.025 240.998,86.992 C232.026,95.959 231.953,110.474 240.834,119.531 C242.337,121.064 244.799,121.089 246.333,119.587 C247.867,118.084 247.892,115.623 246.389,114.09 C240.493,108.078 240.542,98.441 246.498,92.489 C252.454,86.536 262.095,86.487 268.111,92.38 C269.645,93.882 272.108,93.857 273.611,92.324 C275.114,90.791 275.089,88.33 273.555,86.828 Z" />
            <path d="M273.917,81.025 L235.028,119.892 C233.509,121.41 233.509,123.871 235.028,125.389 C236.547,126.907 239.009,126.907 240.528,125.389 L279.417,86.522 C280.935,85.004 280.935,82.543 279.417,81.025 C277.898,79.507 275.436,79.507 273.917,81.025 Z" />
            <path d="M268.889,130.414 L268.889,130.453 C268.889,132.6 270.63,134.34 272.778,134.34 C274.926,134.34 276.667,132.6 276.667,130.453 L276.667,130.414 C276.667,128.268 274.926,126.527 272.778,126.527 C270.63,126.527 268.889,128.268 268.889,130.414 Z" />
            <path d="M253.333,126.527 L253.333,126.566 C253.333,128.713 255.074,130.453 257.222,130.453 C259.37,130.453 261.111,128.713 261.111,126.566 L261.111,126.527 C261.111,124.381 259.37,122.641 257.222,122.641 C255.074,122.641 253.333,124.381 253.333,126.527 Z" />
            <path d="M265,114.867 L265,114.906 C265,117.053 266.741,118.793 268.889,118.793 C271.037,118.793 272.778,117.053 272.778,114.906 L272.778,114.867 C272.778,112.721 271.037,110.981 268.889,110.981 C266.741,110.981 265,112.721 265,114.867 Z" />
            <path d="M276.667,103.207 L276.667,103.246 C276.667,105.393 278.408,107.133 280.556,107.133 C282.703,107.133 284.444,105.393 284.444,103.246 L284.444,103.207 C284.444,101.061 282.703,99.32 280.556,99.32 C278.408,99.32 276.667,101.061 276.667,103.207 Z" />
            <path d="M257.222,142.074 L257.222,142.113 C257.222,144.26 258.963,146 261.111,146 C263.259,146 265,144.26 265,142.113 L265,142.074 C265,139.928 263.259,138.188 261.111,138.188 C258.963,138.188 257.222,139.928 257.222,142.074 Z" />
            <path d="M280.556,118.754 L280.556,118.793 C280.556,120.939 282.297,122.68 284.444,122.68 C286.592,122.68 288.333,120.939 288.333,118.793 L288.333,118.754 C288.333,116.607 286.592,114.867 284.444,114.867 C282.297,114.867 280.556,116.607 280.556,118.754 Z" />
            <path d="M292.222,107.094 L292.222,107.133 C292.222,109.279 293.963,111.019 296.111,111.019 C298.259,111.019 300,109.279 300,107.133 L300,107.094 C300,104.947 298.259,103.207 296.111,103.207 C293.963,103.207 292.222,104.947 292.222,107.094 Z" />
        </g>
        <g id="Regular-M" transform="translate(0,200)">
            <path d="M431.139,82.635 L440.861,92.352 C442.38,93.87 444.842,93.87 446.361,92.352 C447.88,90.834 447.88,88.373 446.361,86.855 L436.639,77.138 C435.12,75.621 432.658,75.621 431.139,77.138 C429.62,78.656 429.62,81.117 431.139,82.635 Z" />
            <path d="M473.555,86.828 C464.493,77.952 449.97,78.025 440.998,86.992 C432.026,95.959 431.953,110.474 440.834,119.531 C442.337,121.064 444.799,121.089 446.333,119.587 C447.867,118.084 447.892,115.623 446.389,114.09 C440.493,108.078 440.542,98.441 446.498,92.489 C452.454,86.536 462.095,86.487 468.111,92.38 C469.645,93.882 472.108,93.857 473.611,92.324 C475.114,90.791 475.089,88.33 473.555,86.828 Z" />
            <path d="M473.917,81.025 L435.028,119.892 C433.509,121.41 433.509,123.871 435.028,125.389 C436.547,126.907 439.009,126.907 440.528,125.389 L479.417,86.522 C480.935,85.004 480.935,82.543 479.417,81.025 C477.898,79.507 475.436,79.507 473.917,81.025 Z" />
            <path d="M468.889,130.414 L468.889,130.453 C468.889,132.6 470.63,134.34 472.778,134.34 C474.926,134.34 476.667,132.6 476.667,130.453 L476.667,130.414 C476.667,128.268 474.926,126.527 472.778,126.527 C470.63,126.527 468.889,128.268 468.889,130.414 Z" />
            <path d="M453.333,126.527 L453.333,126.566 C453.333,128.713 455.074,130.453 457.222,130.453 C459.37,130.453 461.111,128.713 461.111,126.566 L461.111,126.527 C461.111,124.381 459.37,122.641 457.222,122.641 C455.074,122.641 453.333,124.381 453.333,126.527 Z" />
            <path d="M465,114.867 L465,114.906 C465,117.053 466.741,118.793 468.889,118.793 C471.037,118.793 472.778,117.053 472.778,114.906 L472.778,114.867 C472.778,112.721 471.037,110.981 468.889,110.981 C466.741,110.981 465,112.721 465,114.867 Z" />
            <path d="M476.667,103.207 L476.667,103.246 C476.667,105.393 478.408,107.133 480.556,107.133 C482.703,107.133 484.444,105.393 484.444,103.246 L484.444,103.207 C484.444,101.061 482.703,99.32 480.556,99.32 C478.408,99.32 476.667,101.061 476.667,103.207 Z" />
            <path d="M457.222,142.074 L457.222,142.113 C457.222,144.26 458.963,146 461.111,146 C463.259,146 465,144.26 465,142.113 L465,142.074 C465,139.928 463.259,138.188 461.111,138.188 C458.963,138.188 457.222,139.928 457.222,142.074 Z" />
            <path d="M480.556,118.754 L480.556,118.793 C480.556,120.939 482.297,122.68 484.444,122.68 C486.592,122.68 488.333,120.939 488.333,118.793 L488.333,118.754 C488.333,116.607 486.592,114.867 484.444,114.867 C482.297,114.867 480.556,116.607 480.556,118.754 Z" />
            <path d="M492.222,107.094 L492.222,107.133 C492.222,109.279 493.963,111.019 496.111,111.019 C498.259,111.019 500,109.279 500,107.133 L500,107.094 C500,104.947 498.259,103.207 496.111,103.207 C493.963,103.207 492.222,104.947 492.222,107.094 Z" />
        </g>
        <g id="Black-M" transform="translate(0,200)">
            <path d="M631.139,82.635 L640.861,92.352 C642.38,93.87 644.842,93.87 646.361,92.352 C647.88,90.834 647.88,88.373 646.361,86.855 L636.639,77.138 C635.12,75.621 632.658,75.621 631.139,77.138 C629.62,78.656 629.62,81.117 631.139,82.635 Z" />
            <path d="M673.555,86.828 C664.493,77.952 649.97,78.025 640.998,86.992 C632.026,95.959 631.953,110.474 640.834,119.531 C642.337,121.064 644.799,121.089 646.333,119.587 C647.867,118.084 647.892,115.623 646.389,114.09 C640.493,108.078 640.542,98.441 646.498,92.489 C652.454,86.536 662.095,86.487 668.111,92.38 C669.645,93.882 672.108,93.857 673.611,92.324 C675.114,90.791 675.089,88.33 673.555,86.828 Z" />
            <path d="M673.917,81.025 L635.028,119.892 C633.509,121.41 633.509,123.871 635.028,125.389 C636.547,126.907 639.009,126.907 640.528,125.389 L679.417,86.522 C680.935,85.004 680.935,82.543 679.417,81.025 C677.898,79.507 675.435,79.507 673.917,81.025 Z" />
            <path d="M668.889,130.414 L668.889,130.453 C668.889,132.6 670.63,134.34 672.778,134.34 C674.926,134.34 676.667,132.6 676.667,130.453 L676.667,130.414 C676.667,128.268 674.926,126.527 672.778,126.527 C670.63,126.527 668.889,128.268 668.889,130.414 Z" />
            <path d="M653.333,126.527 L653.333,126.566 C653.333,128.713 655.074,130.453 657.222,130.453 C659.37,130.453 661.111,128.713 661.111,126.566 L661.111,126.527 C661.111,124.381 659.37,122.641 657.222,122.641 C655.074,122.641 653.333,124.381 653.333,126.527 Z" />
            <path d="M665,114.867 L665,114.906 C665,117.053 666.741,118.793 668.889,118.793 C671.037,118.793 672.778,117.053 672.778,114.906 L672.778,114.867 C672.778,112.721 671.037,110.981 668.889,110.981 C666.741,110.981 665,112.721 665,114.867 Z" />
            <path d="M676.667,103.207 L676.667,103.246 C676.667,105.393 678.408,107.133 680.556,107.133 C682.703,107.133 684.444,105.393 684.444,103.246 L684.444,103.207 C684.444,101.061 682.703,99.32 680.556,99.32 C678.408,99.32 676.667,101.061 676.667,103.207 Z" />
            <path d="M657.222,142.074 L657.222,142.113 C657.222,144.26 658.963,146 661.111,146 C663.259,146 665,144.26 665,142.113 L665,142.074 C665,139.928 663.259,138.188 661.111,138.188 C658.963,138.188 657.222,139.928 657.222,142.074 Z" />
            <path d="M680.556,118.754 L680.556,118.793 C680.556,120.939 682.297,122.68 684.444,122.68 C686.592,122.68 688.333,120.939 688.333,118.793 L688.333,118.754 C688.333,116.607 686.592,114.867 684.444,114.867 C682.297,114.867 680.556,116.607 680.556,118.754 Z" />
            <path d="M692.222,107.094 L692.222,107.133 C692.222,109.279 693.963,111.019 696.111,111.019 C698.259,111.019 700,109.279 700,107.133 L700,107.094 C700,104.947 698.259,103.207 696.111,103.207 C693.963,103.207 692.222,104.947 692.222,107.094 Z" />
        </g>
    </g>
</svg>