<?xml version="1.0" encoding="UTF-8"?>
<svg height="600" width="800" xmlns="http://www.w3.org/2000/svg" xmlns:xlink="http://www.w3.org/1999/xlink">
    <g id="Notes" font-family="LucidaGrande, 'Lucida Grande', sans-serif" font-size="13">
        <rect fill="white" height="600.0" width="800.0" x="0.0" y="0.0" />
        <g font-size="13">
            <text x="18.0" y="176.0">Small</text>
            <text x="18.0" y="376.0">Medium</text>
            <text x="18.0" y="576.0">Large</text>
        </g>
        <g font-size="9">
            <text x="250.0" y="30.0">Ultralight</text>
            <text x="450.0" y="30.0">Regular</text>
            <text x="650.0" y="30.0">Black</text>
            <text id="template-version" fill="#505050" text-anchor="end" x="785.0" y="575.0">Template v.3.0</text>
            <a href="https://github.com/swhitty/SwiftDraw">
                <text fill="#505050" text-anchor="end" x="785.0" y="590.0">https://github.com/swhitty/SwiftDraw</text>
            </a>
        </g>
    </g>
    <g id="Guides" stroke="rgb(39, 170, 225)" stroke-width="0.5">
        <path id="Capline-S" d="M18,76 l800,0" />
        <path id="H-reference" d="M85,145.755 L87.685,145.755 L113.369,79.287 L114.052,79.287 L114.052,76 L112.148,76 L85,145.755 Z M95.693,121.536 L130.996,121.536 L130.263,119.313 L96.474,119.313 L95.693,121.536 Z M139.15,145.755 L141.787,145.755 L114.638,76 L113.466,76 L113.466,79.287 L139.15,145.755 Z" stroke="none" transform="translate(0,200)" />
        <path id="Baseline-S" d="M18,146 l800,0" />
        <path id="left-margin-Ultralight-M" d="M228.25,256 l0,110" />
        <path id="right-margin-Ultralight-M" d="M301.75,256 l0,110" />
        <path id="left-margin-Regular-M" d="M428.25,256 l0,110" />
        <path id="right-margin-Regular-M" d="M501.75,256 l0,110" />
        <path id="left-margin-Black-M" d="M628.25,256 l0,110" />
        <path id="right-margin-Black-M" d="M701.75,256 l0,110" />
        <path id="Capline-M" d="M18,276 l800,0" />
        <path id="Baseline-M" d="M18,346 l800,0" />
        <path id="Capline-L" d="M18,476 l800,0" />
        <path id="Baseline-L" d="M18,546 l800,0" />
    </g>
    <g id="Symbols">
        <g id="Ultralight-M" transform="translate(0,200)">
            <path d="M265,139 L238.75,139 C237.822,139 236.932,138.631 236.275,137.975 C235.619,137.318 235.25,136.428 235.25,135.5 L235.25,86.5 C235.25,85.572 235.619,84.682 236.275,84.025 C236.932,83.369 237.822,83 238.75,83 L274.45,83 C275.323,83.013 276.204,83.39 276.85,84.05 L290.175,97.375 C290.86,98.046 291.237,98.927 291.25,99.85 L291.25,115.025 C291.25,116.958 292.817,118.525 294.75,118.525 C296.683,118.525 298.25,116.958 298.25,115.025 L298.25,99.8 C298.21,96.981 297.078,94.339 295.1,92.4 L281.825,79.125 C279.911,77.172 277.269,76.04 274.5,76 L238.75,76 C235.965,76 233.295,77.106 231.325,79.075 C229.356,81.045 228.25,83.715 228.25,86.5 L228.25,135.5 C228.25,138.285 229.356,140.955 231.325,142.925 C233.295,144.894 235.965,146 238.75,146 L265,146 C266.933,146 268.5,144.433 268.5,142.5 C268.5,140.567 266.933,139 265,139 Z" />
            <path d="M274.775,137.975 L281.775,144.975 C283.142,146.342 285.358,146.342 286.725,144.975 L300.725,130.975 C302.092,129.608 302.092,127.392 300.725,126.025 C299.358,124.658 297.142,124.658 295.775,126.025 L281.775,140.025 L286.725,140.025 L279.725,133.025 C278.358,131.658 276.142,131.658 274.775,133.025 C273.408,134.392 273.408,136.608 274.775,137.975 Z" />
            <path d="M284.25,121.955 L284.25,118 C284.25,116.143 283.513,114.363 282.2,113.05 C280.887,111.737 279.107,111 277.25,111 L249.25,111 C247.393,111 245.613,111.738 244.3,113.05 C242.988,114.363 242.25,116.143 242.25,118 L242.25,142.5 C242.25,144.433 243.817,146 245.75,146 C247.683,146 249.25,144.433 249.25,142.5 L249.25,118 C249.25,118 249.25,118 249.25,118 C249.25,118 249.25,118 249.25,118 L277.25,118 C277.25,118 277.25,118 277.25,118 C277.25,118 277.25,118 277.25,118 L277.25,121.955 C277.25,123.888 278.817,125.455 280.75,125.455 C282.683,125.455 284.25,123.888 284.25,121.955 Z" />
            <path d="M242.25,79.5 L242.25,93.5 C242.25,95.357 242.988,97.137 244.3,98.45 C245.613,99.763 247.393,100.5 249.25,100.5 L273.75,100.5 C275.683,100.5 277.25,98.933 277.25,97 C277.25,95.067 275.683,93.5 273.75,93.5 L249.25,93.5 C249.25,93.5 249.25,93.5 249.25,93.5 C249.25,93.5 249.25,93.5 249.25,93.5 L249.25,79.5 C249.25,77.567 247.683,76 245.75,76 C243.817,76 242.25,77.567 242.25,79.5 Z" />
        </g>
        <g id="Regular-M" transform="translate(0,200)">
            <path d="M465,139 L438.75,139 C437.822,139 436.932,138.631 436.275,137.975 C435.619,137.318 435.25,136.428 435.25,135.5 L435.25,86.5 C435.25,85.572 435.619,84.682 436.275,84.025 C436.932,83.369 437.822,83 438.75,83 L474.45,83 C475.323,83.013 476.204,83.39 476.85,84.05 L490.175,97.375 C490.86,98.046 491.237,98.927 491.25,99.85 L491.25,115.025 C491.25,116.958 492.817,118.525 494.75,118.525 C496.683,118.525 498.25,116.958 498.25,115.025 L498.25,99.8 C498.21,96.981 497.078,94.339 495.1,92.4 L481.825,79.125 C479.911,77.172 477.269,76.04 474.5,76 L438.75,76 C435.965,76 433.295,77.106 431.325,79.075 C429.356,81.045 428.25,83.715 428.25,86.5 L428.25,135.5 C428.25,138.285 429.356,140.955 431.325,142.925 C433.295,144.894 435.965,146 438.75,146 L465,146 C466.933,146 468.5,144.433 468.5,142.5 C468.5,140.567 466.933,139 465,139 Z" />
            <path d="M474.775,137.975 L481.775,144.975 C483.142,146.342 485.358,146.342 486.725,144.975 L500.725,130.975 C502.092,129.608 502.092,127.392 500.725,126.025 C499.358,124.658 497.142,124.658 495.775,126.025 L481.775,140.025 L486.725,140.025 L479.725,133.025 C478.358,131.658 476.142,131.658 474.775,133.025 C473.408,134.392 473.408,136.608 474.775,137.975 Z" />
            <path d="M484.25,121.955 L484.25,118 C484.25,116.143 483.513,114.363 482.2,113.05 C480.887,111.737 479.107,111 477.25,111 L449.25,111 C447.393,111 445.613,111.738 444.3,113.05 C442.987,114.363 442.25,116.143 442.25,118 L442.25,142.5 C442.25,144.433 443.817,146 445.75,146 C447.683,146 449.25,144.433 449.25,142.5 L449.25,118 C449.25,118 449.25,118 449.25,118 C449.25,118 449.25,118 449.25,118 L477.25,118 C477.25,118 477.25,118 477.25,118 C477.25,118 477.25,118 477.25,118 L477.25,121.955 C477.25,123.888 478.817,125.455 480.75,125.455 C482.683,125.455 484.25,123.888 484.25,121.955 Z" />
            <path d="M442.25,79.5 L442.25,93.5 C442.25,95.357 442.987,97.137 444.3,98.45 C445.613,99.763 447.393,100.5 449.25,100.5 L473.75,100.5 C475.683,100.5 477.25,98.933 477.25,97 C477.25,95.067 475.683,93.5 473.75,93.5 L449.25,93.5 C449.25,93.5 449.25,93.5 449.25,93.5 C449.25,93.5 449.25,93.5 449.25,93.5 L449.25,79.5 C449.25,77.567 447.683,76 445.75,76 C443.817,76 442.25,77.567 442.25,79.5 Z" />
        </g>
        <g id="Black-M" transform="translate(0,200)">
            <path d="M665,139 L638.75,139 C637.822,139 636.932,138.631 636.275,137.975 C635.619,137.318 635.25,136.428 635.25,135.5 L635.25,86.5 C635.25,85.572 635.619,84.682 636.275,84.025 C636.932,83.369 637.822,83 638.75,83 L674.45,83 C675.323,83.013 676.204,83.39 676.85,84.05 L690.175,97.375 C690.86,98.046 691.237,98.927 691.25,99.85 L691.25,115.025 C691.25,116.958 692.817,118.525 694.75,118.525 C696.683,118.525 698.25,116.958 698.25,115.025 L698.25,99.8 C698.21,96.981 697.078,94.339 695.1,92.4 L681.825,79.125 C679.911,77.172 677.269,76.04 674.5,76 L638.75,76 C635.965,76 633.294,77.106 631.325,79.075 C629.356,81.045 628.25,83.715 628.25,86.5 L628.25,135.5 C628.25,138.285 629.356,140.955 631.325,142.925 C633.294,144.894 635.965,146 638.75,146 L665,146 C666.933,146 668.5,144.433 668.5,142.5 C668.5,140.567 666.933,139 665,139 Z" />
            <path d="M674.775,137.975 L681.775,144.975 C683.142,146.342 685.358,146.342 686.725,144.975 L700.725,130.975 C702.092,129.608 702.092,127.392 700.725,126.025 C699.358,124.658 697.142,124.658 695.775,126.025 L681.775,140.025 L686.725,140.025 L679.725,133.025 C678.358,131.658 676.142,131.658 674.775,133.025 C673.408,134.392 673.408,136.608 674.775,137.975 Z" />
            <path d="M684.25,121.955 L684.25,118 C684.25,116.143 683.513,114.363 682.2,113.05 C680.887,111.737 679.107,111 677.25,111 L649.25,111 C647.393,111 645.613,111.738 644.3,113.05 C642.987,114.363 642.25,116.143 642.25,118 L642.25,142.5 C642.25,144.433 643.817,146 645.75,146 C647.683,146 649.25,144.433 649.25,142.5 L649.25,118 C649.25,118 649.25,118 649.25,118 C649.25,118 649.25,118 649.25,118 L677.25,118 C677.25,118 677.25,118 677.25,118 C677.25,118 677.25,118 677.25,118 L677.25,121.955 C677.25,123.888 678.817,125.455 680.75,125.455 C682.683,125.455 684.25,123.888 684.25,121.955 Z" />
            <path d="M642.25,79.5 L642.25,93.5 C642.25,95.357 642.987,97.137 644.3,98.45 C645.613,99.763 647.393,100.5 649.25,100.5 L673.75,100.5 C675.683,100.5 677.25,98.933 677.25,97 C677.25,95.067 675.683,93.5 673.75,93.5 L649.25,93.5 C649.25,93.5 649.25,93.5 649.25,93.5 C649.25,93.5 649.25,93.5 649.25,93.5 L649.25,79.5 C649.25,77.567 647.683,76 645.75,76 C643.817,76 642.25,77.567 642.25,79.5 Z" />
        </g>
    </g>
</svg>