<?xml version="1.0" encoding="UTF-8"?>
<svg height="600" width="800" xmlns="http://www.w3.org/2000/svg" xmlns:xlink="http://www.w3.org/1999/xlink">
    <g id="Notes" font-family="LucidaGrande, 'Lucida Grande', sans-serif" font-size="13">
        <rect fill="white" height="600.0" width="800.0" x="0.0" y="0.0" />
        <g font-size="13">
            <text x="18.0" y="176.0">Small</text>
            <text x="18.0" y="376.0">Medium</text>
            <text x="18.0" y="576.0">Large</text>
        </g>
        <g font-size="9">
            <text x="250.0" y="30.0">Ultralight</text>
            <text x="450.0" y="30.0">Regular</text>
            <text x="650.0" y="30.0">Black</text>
            <text id="template-version" fill="#505050" text-anchor="end" x="785.0" y="575.0">Template v.3.0</text>
            <a href="https://github.com/swhitty/SwiftDraw">
                <text fill="#505050" text-anchor="end" x="785.0" y="590.0">https://github.com/swhitty/SwiftDraw</text>
            </a>
        </g>
    </g>
    <g id="Guides" stroke="rgb(39, 170, 225)" stroke-width="0.5">
        <path id="Capline-S" d="M18,76 l800,0" />
        <path id="H-reference" d="M85,145.755 L87.685,145.755 L113.369,79.287 L114.052,79.287 L114.052,76 L112.148,76 L85,145.755 Z M95.693,121.536 L130.996,121.536 L130.263,119.313 L96.474,119.313 L95.693,121.536 Z M139.15,145.755 L141.787,145.755 L114.638,76 L113.466,76 L113.466,79.287 L139.15,145.755 Z" stroke="none" transform="translate(0,200)" />
        <path id="Baseline-S" d="M18,146 l800,0" />
        <path id="left-margin-Ultralight-M" d="M230,256 l0,110" />
        <path id="right-margin-Ultralight-M" d="M300,256 l0,110" />
        <path id="left-margin-Regular-M" d="M430,256 l0,110" />
        <path id="right-margin-Regular-M" d="M500,256 l0,110" />
        <path id="left-margin-Black-M" d="M630,256 l0,110" />
        <path id="right-margin-Black-M" d="M700,256 l0,110" />
        <path id="Capline-M" d="M18,276 l800,0" />
        <path id="Baseline-M" d="M18,346 l800,0" />
        <path id="Capline-L" d="M18,476 l800,0" />
        <path id="Baseline-L" d="M18,546 l800,0" />
    </g>
    <g id="Symbols">
        <g id="Ultralight-M" transform="translate(0,200)">
            <path d="M255.455,79.182 L255.455,88.727 C255.455,90.415 256.125,92.034 257.318,93.227 C258.512,94.42 260.13,95.091 261.818,95.091 L277.727,95.091 C279.485,95.091 280.909,93.666 280.909,91.909 C280.909,90.152 279.485,88.727 277.727,88.727 L261.818,88.727 C261.818,88.727 261.818,88.727 261.818,88.727 C261.818,88.727 261.818,88.727 261.818,88.727 L261.818,79.182 C261.818,77.425 260.394,76 258.636,76 C256.879,76 255.455,77.425 255.455,79.182 Z" />
            <path d="M287.273,130.091 L287.273,111 C287.273,109.312 286.602,107.694 285.409,106.5 C284.215,105.307 282.597,104.636 280.909,104.636 L261.818,104.636 C260.13,104.636 258.512,105.307 257.318,106.5 C256.125,107.694 255.455,109.312 255.455,111 L255.455,130.091 C255.455,131.848 256.879,133.273 258.636,133.273 C260.394,133.273 261.818,131.848 261.818,130.091 L261.818,111 C261.818,111 261.818,111 261.818,111 C261.818,111 261.818,111 261.818,111 L280.909,111 C280.909,111 280.909,111 280.909,111 C280.909,111 280.909,111 280.909,111 L280.909,130.091 C280.909,131.848 282.334,133.273 284.091,133.273 C285.848,133.273 287.273,131.848 287.273,130.091 Z" />
            <path d="M284.091,139.636 L239.545,139.636 C238.702,139.636 237.892,139.301 237.296,138.704 C236.699,138.108 236.364,137.298 236.364,136.455 L236.364,91.909 C236.364,90.152 234.939,88.727 233.182,88.727 C231.425,88.727 230,90.152 230,91.909 L230,136.455 C230,138.986 231.006,141.414 232.796,143.204 C234.586,144.994 237.014,146 239.545,146 L284.091,146 C285.848,146 287.273,144.575 287.273,142.818 C287.273,141.061 285.848,139.636 284.091,139.636 Z" />
            <path d="M252.273,126.909 C251.429,126.909 250.62,126.574 250.023,125.977 C249.426,125.38 249.091,124.571 249.091,123.727 L249.091,85.545 C249.091,84.702 249.426,83.892 250.023,83.296 C250.62,82.699 251.429,82.364 252.273,82.364 L281.456,82.364 C282.299,82.364 283.109,82.699 283.705,83.296 L292.704,92.294 C293.301,92.891 293.636,93.701 293.636,94.544 L293.636,123.727 C293.636,124.574 293.299,125.386 292.699,125.983 C292.099,126.58 291.285,126.913 290.439,126.909 L252.273,126.909 Z M252.273,133.273 L290.423,133.273 C292.947,133.285 295.387,132.285 297.187,130.494 C298.988,128.702 300,126.267 300,123.727 L300,94.544 C299.999,92.012 298.993,89.584 297.203,87.794 L288.205,78.796 C286.416,77.007 283.988,76.001 281.457,76 L252.273,76 C249.741,76 247.313,77.006 245.523,78.796 C243.733,80.586 242.727,83.014 242.727,85.545 L242.727,123.727 C242.727,126.259 243.733,128.687 245.523,130.477 C247.313,132.267 249.741,133.273 252.273,133.273 Z" />
        </g>
        <g id="Regular-M" transform="translate(0,200)">
            <path d="M455.455,79.182 L455.455,88.727 C455.455,90.415 456.125,92.034 457.318,93.227 C458.512,94.42 460.13,95.091 461.818,95.091 L477.727,95.091 C479.485,95.091 480.909,93.666 480.909,91.909 C480.909,90.152 479.485,88.727 477.727,88.727 L461.818,88.727 C461.818,88.727 461.818,88.727 461.818,88.727 C461.818,88.727 461.818,88.727 461.818,88.727 L461.818,79.182 C461.818,77.425 460.394,76 458.636,76 C456.879,76 455.455,77.425 455.455,79.182 Z" />
            <path d="M487.273,130.091 L487.273,111 C487.273,109.312 486.602,107.694 485.409,106.5 C484.215,105.307 482.597,104.636 480.909,104.636 L461.818,104.636 C460.13,104.636 458.512,105.307 457.318,106.5 C456.125,107.694 455.455,109.312 455.455,111 L455.455,130.091 C455.455,131.848 456.879,133.273 458.636,133.273 C460.394,133.273 461.818,131.848 461.818,130.091 L461.818,111 C461.818,111 461.818,111 461.818,111 C461.818,111 461.818,111 461.818,111 L480.909,111 C480.909,111 480.909,111 480.909,111 C480.909,111 480.909,111 480.909,111 L480.909,130.091 C480.909,131.848 482.334,133.273 484.091,133.273 C485.848,133.273 487.273,131.848 487.273,130.091 Z" />
            <path d="M484.091,139.636 L439.545,139.636 C438.702,139.636 437.892,139.301 437.296,138.704 C436.699,138.108 436.364,137.298 436.364,136.455 L436.364,91.909 C436.364,90.152 434.939,88.727 433.182,88.727 C431.425,88.727 430,90.152 430,91.909 L430,136.455 C430,138.986 431.006,141.414 432.796,143.204 C434.586,144.994 437.014,146 439.545,146 L484.091,146 C485.848,146 487.273,144.575 487.273,142.818 C487.273,141.061 485.848,139.636 484.091,139.636 Z" />
            <path d="M452.273,126.909 C451.429,126.909 450.62,126.574 450.023,125.977 C449.426,125.38 449.091,124.571 449.091,123.727 L449.091,85.545 C449.091,84.702 449.426,83.892 450.023,83.296 C450.62,82.699 451.429,82.364 452.273,82.364 L481.456,82.364 C482.299,82.364 483.109,82.699 483.705,83.296 L492.704,92.294 C493.301,92.891 493.636,93.701 493.636,94.544 L493.636,123.727 C493.636,124.574 493.299,125.386 492.699,125.983 C492.099,126.58 491.285,126.913 490.439,126.909 L452.273,126.909 Z M452.273,133.273 L490.423,133.273 C492.947,133.285 495.387,132.285 497.187,130.494 C498.988,128.702 500,126.267 500,123.727 L500,94.544 C499.999,92.012 498.993,89.584 497.203,87.794 L488.205,78.796 C486.416,77.007 483.988,76.001 481.457,76 L452.273,76 C449.741,76 447.313,77.006 445.523,78.796 C443.733,80.586 442.727,83.014 442.727,85.545 L442.727,123.727 C442.727,126.259 443.733,128.687 445.523,130.477 C447.313,132.267 449.741,133.273 452.273,133.273 Z" />
        </g>
        <g id="Black-M" transform="translate(0,200)">
            <path d="M655.455,79.182 L655.455,88.727 C655.455,90.415 656.125,92.034 657.318,93.227 C658.512,94.42 660.13,95.091 661.818,95.091 L677.727,95.091 C679.485,95.091 680.909,93.666 680.909,91.909 C680.909,90.152 679.485,88.727 677.727,88.727 L661.818,88.727 C661.818,88.727 661.818,88.727 661.818,88.727 C661.818,88.727 661.818,88.727 661.818,88.727 L661.818,79.182 C661.818,77.425 660.394,76 658.636,76 C656.879,76 655.455,77.425 655.455,79.182 Z" />
            <path d="M687.273,130.091 L687.273,111 C687.273,109.312 686.602,107.694 685.409,106.5 C684.215,105.307 682.597,104.636 680.909,104.636 L661.818,104.636 C660.13,104.636 658.512,105.307 657.318,106.5 C656.125,107.694 655.455,109.312 655.455,111 L655.455,130.091 C655.455,131.848 656.879,133.273 658.636,133.273 C660.394,133.273 661.818,131.848 661.818,130.091 L661.818,111 C661.818,111 661.818,111 661.818,111 C661.818,111 661.818,111 661.818,111 L680.909,111 C680.909,111 680.909,111 680.909,111 C680.909,111 680.909,111 680.909,111 L680.909,130.091 C680.909,131.848 682.334,133.273 684.091,133.273 C685.848,133.273 687.273,131.848 687.273,130.091 Z" />
            <path d="M684.091,139.636 L639.545,139.636 C638.702,139.636 637.892,139.301 637.296,138.704 C636.699,138.108 636.364,137.298 636.364,136.455 L636.364,91.909 C636.364,90.152 634.939,88.727 633.182,88.727 C631.425,88.727 630,90.152 630,91.909 L630,136.455 C630,138.986 631.006,141.414 632.796,143.204 C634.586,144.994 637.014,146 639.545,146 L684.091,146 C685.848,146 687.273,144.575 687.273,142.818 C687.273,141.061 685.848,139.636 684.091,139.636 Z" />
            <path d="M652.273,126.909 C651.429,126.909 650.62,126.574 650.023,125.977 C649.426,125.38 649.091,124.571 649.091,123.727 L649.091,85.545 C649.091,84.702 649.426,83.892 650.023,83.296 C650.62,82.699 651.429,82.364 652.273,82.364 L681.456,82.364 C682.299,82.364 683.109,82.699 683.705,83.296 L692.704,92.294 C693.301,92.891 693.636,93.701 693.636,94.544 L693.636,123.727 C693.636,124.574 693.299,125.386 692.699,125.983 C692.099,126.58 691.285,126.913 690.439,126.909 L652.273,126.909 Z M652.273,133.273 L690.423,133.273 C692.947,133.285 695.387,132.285 697.187,130.494 C698.988,128.702 700,126.267 700,123.727 L700,94.544 C699.999,92.012 698.993,89.584 697.203,87.794 L688.205,78.796 C686.416,77.007 683.988,76.001 681.457,76 L652.273,76 C649.741,76 647.313,77.006 645.523,78.796 C643.733,80.586 642.727,83.014 642.727,85.545 L642.727,123.727 C642.727,126.259 643.733,128.687 645.523,130.477 C647.313,132.267 649.741,133.273 652.273,133.273 Z" />
        </g>
    </g>
</svg>