<?xml version="1.0" encoding="UTF-8"?>
<svg height="600" width="800" xmlns="http://www.w3.org/2000/svg" xmlns:xlink="http://www.w3.org/1999/xlink">
    <g id="Notes" font-family="LucidaGrande, 'Lucida Grande', sans-serif" font-size="13">
        <rect fill="white" height="600.0" width="800.0" x="0.0" y="0.0" />
        <g font-size="13">
            <text x="18.0" y="176.0">Small</text>
            <text x="18.0" y="376.0">Medium</text>
            <text x="18.0" y="576.0">Large</text>
        </g>
        <g font-size="9">
            <text x="250.0" y="30.0">Ultralight</text>
            <text x="450.0" y="30.0">Regular</text>
            <text x="650.0" y="30.0">Black</text>
            <text id="template-version" fill="#505050" text-anchor="end" x="785.0" y="575.0">Template v.3.0</text>
            <a href="https://github.com/swhitty/SwiftDraw">
                <text fill="#505050" text-anchor="end" x="785.0" y="590.0">https://github.com/swhitty/SwiftDraw</text>
            </a>
        </g>
    </g>
    <g id="Guides" stroke="rgb(39, 170, 225)" stroke-width="0.5">
        <path id="Capline-S" d="M18,76 l800,0" />
        <path id="H-reference" d="M85,145.755 L87.685,145.755 L113.369,79.287 L114.052,79.287 L114.052,76 L112.148,76 L85,145.755 Z M95.693,121.536 L130.996,121.536 L130.263,119.313 L96.474,119.313 L95.693,121.536 Z M139.15,145.755 L141.787,145.755 L114.638,76 L113.466,76 L113.466,79.287 L139.15,145.755 Z" stroke="none" transform="translate(0,200)" />
        <path id="Baseline-S" d="M18,146 l800,0" />
        <path id="left-margin-Ultralight-M" d="M230,256 l0,110" />
        <path id="right-margin-Ultralight-M" d="M300,256 l0,110" />
        <path id="left-margin-Regular-M" d="M430,256 l0,110" />
        <path id="right-margin-Regular-M" d="M500,256 l0,110" />
        <path id="left-margin-Black-M" d="M630,256 l0,110" />
        <path id="right-margin-Black-M" d="M700,256 l0,110" />
        <path id="Capline-M" d="M18,276 l800,0" />
        <path id="Baseline-M" d="M18,346 l800,0" />
        <path id="Capline-L" d="M18,476 l800,0" />
        <path id="Baseline-L" d="M18,546 l800,0" />
    </g>
    <g id="Symbols">
        <g id="Ultralight-M" transform="translate(0,200)">
            <path d="M294.185,130.316 C304.104,115.329 301.06,95.266 287.143,83.896 C273.226,72.525 252.959,73.544 240.251,86.251 C227.544,98.959 226.526,119.226 237.896,133.143 C249.266,147.06 269.329,150.104 284.316,140.185 C285.781,139.215 286.183,137.241 285.213,135.776 C284.243,134.311 282.269,133.909 280.804,134.879 C268.542,142.994 252.127,140.504 242.824,129.117 C233.521,117.73 234.354,101.148 244.751,90.751 C255.148,80.354 271.73,79.521 283.117,88.824 C294.504,98.127 296.994,114.542 288.879,126.803 C287.909,128.269 288.311,130.243 289.776,131.213 C291.241,132.183 293.215,131.781 294.185,130.316 Z" />
            <path d="M284.087,133.268 C284.087,131.511 285.511,130.087 287.268,130.087 C289.026,130.087 290.45,131.511 290.45,133.268 C290.45,135.026 289.026,136.45 287.268,136.45 C285.511,136.45 284.087,135.026 284.087,133.268 Z M277.723,133.268 C277.723,138.54 281.997,142.814 287.268,142.814 C292.54,142.814 296.814,138.54 296.814,133.268 C296.814,127.997 292.54,123.723 287.268,123.723 C281.997,123.723 277.723,127.997 277.723,133.268 Z" />
            <path d="M267.233,117.732 L280.532,131.032 C281.775,132.275 283.79,132.275 285.032,131.032 C286.275,129.79 286.275,127.775 285.032,126.532 L271.732,113.233 C270.49,111.99 268.475,111.99 267.233,113.233 C265.99,114.475 265.99,116.49 267.233,117.732 Z" />
            <path d="M261.815,110.996 C261.815,109.239 263.239,107.815 264.996,107.815 C266.754,107.815 268.178,109.239 268.178,110.996 C268.178,112.754 266.754,114.178 264.996,114.178 C263.239,114.178 261.815,112.754 261.815,110.996 Z M255.451,110.996 C255.451,116.268 259.725,120.542 264.996,120.542 C270.268,120.542 274.542,116.268 274.542,110.996 C274.542,105.725 270.268,101.451 264.996,101.451 C259.725,101.451 255.451,105.725 255.451,110.996 Z" />
        </g>
        <g id="Regular-M" transform="translate(0,200)">
            <path d="M494.185,130.316 C504.104,115.329 501.06,95.266 487.143,83.896 C473.226,72.525 452.959,73.544 440.251,86.251 C427.543,98.959 426.526,119.226 437.896,133.143 C449.266,147.06 469.329,150.104 484.316,140.185 C485.781,139.215 486.183,137.241 485.213,135.776 C484.243,134.311 482.269,133.909 480.804,134.879 C468.542,142.994 452.127,140.504 442.824,129.117 C433.521,117.73 434.354,101.148 444.751,90.751 C455.148,80.354 471.73,79.521 483.117,88.824 C494.504,98.127 496.994,114.542 488.879,126.803 C487.909,128.269 488.311,130.243 489.776,131.213 C491.241,132.183 493.215,131.781 494.185,130.316 Z" />
            <path d="M484.087,133.268 C484.087,131.511 485.511,130.087 487.268,130.087 C489.026,130.087 490.45,131.511 490.45,133.268 C490.45,135.026 489.026,136.45 487.268,136.45 C485.511,136.45 484.087,135.026 484.087,133.268 Z M477.723,133.268 C477.723,138.54 481.997,142.814 487.268,142.814 C492.54,142.814 496.814,138.54 496.814,133.268 C496.814,127.997 492.54,123.723 487.268,123.723 C481.997,123.723 477.723,127.997 477.723,133.268 Z" />
            <path d="M467.233,117.732 L480.532,131.032 C481.775,132.275 483.79,132.275 485.032,131.032 C486.275,129.79 486.275,127.775 485.032,126.532 L471.732,113.233 C470.49,111.99 468.475,111.99 467.233,113.233 C465.99,114.475 465.99,116.49 467.233,117.732 Z" />
            <path d="M461.815,110.996 C461.815,109.239 463.239,107.815 464.996,107.815 C466.754,107.815 468.178,109.239 468.178,110.996 C468.178,112.754 466.754,114.178 464.996,114.178 C463.239,114.178 461.815,112.754 461.815,110.996 Z M455.451,110.996 C455.451,116.268 459.725,120.542 464.996,120.542 C470.268,120.542 474.542,116.268 474.542,110.996 C474.542,105.725 470.268,101.451 464.996,101.451 C459.725,101.451 455.451,105.725 455.451,110.996 Z" />
        </g>
        <g id="Black-M" transform="translate(0,200)">
            <path d="M694.185,130.316 C704.104,115.329 701.06,95.266 687.143,83.896 C673.226,72.525 652.959,73.544 640.251,86.251 C627.544,98.959 626.526,119.226 637.896,133.143 C649.266,147.06 669.329,150.104 684.316,140.185 C685.781,139.215 686.183,137.241 685.213,135.776 C684.243,134.311 682.269,133.909 680.804,134.879 C668.542,142.994 652.127,140.504 642.824,129.117 C633.521,117.73 634.354,101.148 644.751,90.751 C655.148,80.354 671.73,79.521 683.117,88.824 C694.504,98.127 696.994,114.542 688.879,126.803 C687.909,128.269 688.311,130.243 689.776,131.213 C691.241,132.183 693.215,131.781 694.185,130.316 Z" />
            <path d="M684.087,133.268 C684.087,131.511 685.511,130.087 687.268,130.087 C689.026,130.087 690.45,131.511 690.45,133.268 C690.45,135.026 689.026,136.45 687.268,136.45 C685.511,136.45 684.087,135.026 684.087,133.268 Z M677.723,133.268 C677.723,138.54 681.997,142.814 687.268,142.814 C692.54,142.814 696.814,138.54 696.814,133.268 C696.814,127.997 692.54,123.723 687.268,123.723 C681.997,123.723 677.723,127.997 677.723,133.268 Z" />
            <path d="M667.233,117.732 L680.532,131.032 C681.775,132.275 683.79,132.275 685.032,131.032 C686.275,129.79 686.275,127.775 685.032,126.532 L671.732,113.233 C670.49,111.99 668.475,111.99 667.233,113.233 C665.99,114.475 665.99,116.49 667.233,117.732 Z" />
            <path d="M661.815,110.996 C661.815,109.239 663.239,107.815 664.996,107.815 C666.754,107.815 668.178,109.239 668.178,110.996 C668.178,112.754 666.754,114.178 664.996,114.178 C663.239,114.178 661.815,112.754 661.815,110.996 Z M655.451,110.996 C655.451,116.268 659.725,120.542 664.996,120.542 C670.268,120.542 674.542,116.268 674.542,110.996 C674.542,105.725 670.268,101.451 664.996,101.451 C659.725,101.451 655.451,105.725 655.451,110.996 Z" />
        </g>
    </g>
</svg>