<?xml version="1.0" encoding="UTF-8"?>
<svg height="600" width="800" xmlns="http://www.w3.org/2000/svg" xmlns:xlink="http://www.w3.org/1999/xlink">
    <g id="Notes" font-family="LucidaGrande, 'Lucida Grande', sans-serif" font-size="13">
        <rect fill="white" height="600.0" width="800.0" x="0.0" y="0.0" />
        <g font-size="13">
            <text x="18.0" y="176.0">Small</text>
            <text x="18.0" y="376.0">Medium</text>
            <text x="18.0" y="576.0">Large</text>
        </g>
        <g font-size="9">
            <text x="250.0" y="30.0">Ultralight</text>
            <text x="450.0" y="30.0">Regular</text>
            <text x="650.0" y="30.0">Black</text>
            <text id="template-version" fill="#505050" text-anchor="end" x="785.0" y="575.0">Template v.3.0</text>
            <a href="https://github.com/swhitty/SwiftDraw">
                <text fill="#505050" text-anchor="end" x="785.0" y="590.0">https://github.com/swhitty/SwiftDraw</text>
            </a>
        </g>
    </g>
    <g id="Guides" stroke="rgb(39, 170, 225)" stroke-width="0.5">
        <path id="Capline-S" d="M18,76 l800,0" />
        <path id="H-reference" d="M85,145.755 L87.685,145.755 L113.369,79.287 L114.052,79.287 L114.052,76 L112.148,76 L85,145.755 Z M95.693,121.536 L130.996,121.536 L130.263,119.313 L96.474,119.313 L95.693,121.536 Z M139.15,145.755 L141.787,145.755 L114.638,76 L113.466,76 L113.466,79.287 L139.15,145.755 Z" stroke="none" transform="translate(0,200)" />
        <path id="Baseline-S" d="M18,146 l800,0" />
        <path id="left-margin-Ultralight-M" d="M228.333,256 l0,110" />
        <path id="right-margin-Ultralight-M" d="M301.667,256 l0,110" />
        <path id="left-margin-Regular-M" d="M428.333,256 l0,110" />
        <path id="right-margin-Regular-M" d="M501.667,256 l0,110" />
        <path id="left-margin-Black-M" d="M628.333,256 l0,110" />
        <path id="right-margin-Black-M" d="M701.667,256 l0,110" />
        <path id="Capline-M" d="M18,276 l800,0" />
        <path id="Baseline-M" d="M18,346 l800,0" />
        <path id="Capline-L" d="M18,476 l800,0" />
        <path id="Baseline-L" d="M18,546 l800,0" />
    </g>
    <g id="Symbols">
        <g id="Ultralight-M" transform="translate(0,200)">
            <path d="M261.667,91.945 L261.667,111.08 C261.667,112.288 262.381,113.392 263.51,113.932 L276.843,120.31 C278.49,121.098 280.492,120.459 281.315,118.884 C282.138,117.309 281.471,115.393 279.824,114.605 L266.491,108.227 L268.334,111.08 L268.334,91.945 C268.334,90.184 266.842,88.756 265.001,88.756 C263.16,88.756 261.667,90.184 261.667,91.945 Z" />
            <path d="M301.667,111.08 C301.667,92.162 285.987,76.651 266.225,76.02 C246.462,75.388 229.736,89.863 228.416,108.739 C227.097,127.615 241.659,144.092 261.333,145.984 C263.165,146.16 264.799,144.882 264.983,143.13 C265.168,141.377 263.832,139.814 262,139.638 C245.903,138.09 233.988,124.609 235.068,109.165 C236.148,93.721 249.833,81.878 266.002,82.394 C282.172,82.911 295,95.602 295,111.08 C295,112.841 296.492,114.269 298.333,114.269 C300.174,114.269 301.667,112.841 301.667,111.08 Z" />
            <path d="M295.976,121.581 L277.643,139.121 L282.357,139.121 L274.024,131.148 C272.722,129.903 270.612,129.903 269.31,131.148 C268.008,132.394 268.008,134.413 269.31,135.658 L277.643,143.631 C278.945,144.876 281.056,144.876 282.357,143.631 L300.69,126.091 C301.992,124.846 301.992,122.826 300.69,121.581 C299.389,120.336 297.278,120.336 295.976,121.581 Z" />
        </g>
        <g id="Regular-M" transform="translate(0,200)">
            <path d="M461.667,91.945 L461.667,111.08 C461.667,112.288 462.381,113.392 463.51,113.932 L476.843,120.31 C478.49,121.098 480.492,120.459 481.315,118.884 C482.138,117.309 481.471,115.393 479.824,114.605 L466.491,108.227 L468.334,111.08 L468.334,91.945 C468.334,90.184 466.842,88.756 465.001,88.756 C463.16,88.756 461.667,90.184 461.667,91.945 Z" />
            <path d="M501.667,111.08 C501.667,92.162 485.987,76.651 466.225,76.02 C446.462,75.388 429.736,89.863 428.416,108.739 C427.097,127.615 441.659,144.092 461.333,145.984 C463.165,146.16 464.799,144.882 464.983,143.13 C465.168,141.377 463.832,139.814 462,139.638 C445.903,138.09 433.988,124.609 435.068,109.165 C436.148,93.721 449.833,81.878 466.002,82.394 C482.172,82.911 495,95.602 495,111.08 C495,112.841 496.492,114.269 498.333,114.269 C500.174,114.269 501.667,112.841 501.667,111.08 Z" />
            <path d="M495.976,121.581 L477.643,139.121 L482.357,139.121 L474.024,131.148 C472.722,129.903 470.612,129.903 469.31,131.148 C468.008,132.394 468.008,134.413 469.31,135.658 L477.643,143.631 C478.945,144.876 481.056,144.876 482.357,143.631 L500.69,126.091 C501.992,124.846 501.992,122.826 500.69,121.581 C499.389,120.336 497.278,120.336 495.976,121.581 Z" />
        </g>
        <g id="Black-M" transform="translate(0,200)">
            <path d="M661.667,91.945 L661.667,111.08 C661.667,112.288 662.381,113.392 663.51,113.932 L676.843,120.31 C678.49,121.098 680.492,120.459 681.315,118.884 C682.138,117.309 681.471,115.393 679.824,114.605 L666.491,108.227 L668.334,111.08 L668.334,91.945 C668.334,90.184 666.841,88.756 665.001,88.756 C663.16,88.756 661.667,90.184 661.667,91.945 Z" />
            <path d="M701.667,111.08 C701.667,92.162 685.987,76.651 666.225,76.02 C646.462,75.388 629.736,89.863 628.416,108.739 C627.097,127.615 641.659,144.092 661.333,145.984 C663.165,146.16 664.799,144.882 664.983,143.13 C665.168,141.377 663.832,139.814 662,139.638 C645.903,138.09 633.988,124.609 635.068,109.165 C636.148,93.721 649.833,81.878 666.002,82.394 C682.172,82.911 695,95.602 695,111.08 C695,112.841 696.492,114.269 698.333,114.269 C700.174,114.269 701.667,112.841 701.667,111.08 Z" />
            <path d="M695.976,121.581 L677.643,139.121 L682.357,139.121 L674.024,131.148 C672.722,129.903 670.612,129.903 669.31,131.148 C668.008,132.394 668.008,134.413 669.31,135.658 L677.643,143.631 C678.945,144.876 681.056,144.876 682.357,143.631 L700.69,126.091 C701.992,124.846 701.992,122.826 700.69,121.581 C699.389,120.336 697.278,120.336 695.976,121.581 Z" />
        </g>
    </g>
</svg>