<?xml version="1.0" encoding="UTF-8"?>
<svg height="600" width="800" xmlns="http://www.w3.org/2000/svg" xmlns:xlink="http://www.w3.org/1999/xlink">
    <g id="Notes" font-family="LucidaGrande, 'Lucida Grande', sans-serif" font-size="13">
        <rect fill="white" height="600.0" width="800.0" x="0.0" y="0.0" />
        <g font-size="13">
            <text x="18.0" y="176.0">Small</text>
            <text x="18.0" y="376.0">Medium</text>
            <text x="18.0" y="576.0">Large</text>
        </g>
        <g font-size="9">
            <text x="250.0" y="30.0">Ultralight</text>
            <text x="450.0" y="30.0">Regular</text>
            <text x="650.0" y="30.0">Black</text>
            <text id="template-version" fill="#505050" text-anchor="end" x="785.0" y="575.0">Template v.3.0</text>
            <a href="https://github.com/swhitty/SwiftDraw">
                <text fill="#505050" text-anchor="end" x="785.0" y="590.0">https://github.com/swhitty/SwiftDraw</text>
            </a>
        </g>
    </g>
    <g id="Guides" stroke="rgb(39, 170, 225)" stroke-width="0.5">
        <path id="Capline-S" d="M18,76 l800,0" />
        <path id="H-reference" d="M85,145.755 L87.685,145.755 L113.369,79.287 L114.052,79.287 L114.052,76 L112.148,76 L85,145.755 Z M95.693,121.536 L130.996,121.536 L130.263,119.313 L96.474,119.313 L95.693,121.536 Z M139.15,145.755 L141.787,145.755 L114.638,76 L113.466,76 L113.466,79.287 L139.15,145.755 Z" stroke="none" transform="translate(0,200)" />
        <path id="Baseline-S" d="M18,146 l800,0" />
        <path id="left-margin-Ultralight-M" d="M230,256 l0,110" />
        <path id="right-margin-Ultralight-M" d="M300,256 l0,110" />
        <path id="left-margin-Regular-M" d="M430,256 l0,110" />
        <path id="right-margin-Regular-M" d="M500,256 l0,110" />
        <path id="left-margin-Black-M" d="M630,256 l0,110" />
        <path id="right-margin-Black-M" d="M700,256 l0,110" />
        <path id="Capline-M" d="M18,276 l800,0" />
        <path id="Baseline-M" d="M18,346 l800,0" />
        <path id="Capline-L" d="M18,476 l800,0" />
        <path id="Baseline-L" d="M18,546 l800,0" />
    </g>
    <g id="Symbols">
        <g id="Ultralight-M" transform="translate(0,200)">
            <path d="M278.659,76.932 L262.75,92.841 L267.25,92.841 L251.341,76.932 C250.098,75.689 248.084,75.689 246.841,76.932 C245.598,78.175 245.598,80.189 246.841,81.432 L262.75,97.341 C263.993,98.583 266.007,98.583 267.25,97.341 L283.159,81.432 C284.402,80.189 284.402,78.175 283.159,76.932 C281.916,75.689 279.902,75.689 278.659,76.932 Z" />
            <path d="M293.636,118.955 L293.636,136.455 C293.636,137.298 293.301,138.108 292.704,138.704 C292.108,139.301 291.298,139.636 290.455,139.636 L239.545,139.636 C238.702,139.636 237.892,139.301 237.296,138.704 C236.699,138.108 236.364,137.298 236.364,136.455 L236.364,101.455 C236.364,100.611 236.699,99.801 237.296,99.205 C237.892,98.608 238.702,98.273 239.545,98.273 L290.455,98.273 C291.298,98.273 292.108,98.608 292.704,99.205 C293.301,99.801 293.636,100.611 293.636,101.455 L293.636,118.955 Z M300,118.955 L300,101.455 C300,98.923 298.994,96.495 297.204,94.705 C295.414,92.915 292.986,91.909 290.455,91.909 L239.545,91.909 C237.014,91.909 234.586,92.915 232.796,94.705 C231.006,96.495 230,98.923 230,101.455 L230,136.455 C230,138.986 231.006,141.414 232.796,143.204 C234.586,144.994 237.014,146 239.545,146 L290.455,146 C292.986,146 295.414,144.994 297.204,143.204 C298.994,141.414 300,138.986 300,136.455 L300,118.955 Z" />
        </g>
        <g id="Regular-M" transform="translate(0,200)">
            <path d="M478.659,76.932 L462.75,92.841 L467.25,92.841 L451.341,76.932 C450.098,75.689 448.084,75.689 446.841,76.932 C445.598,78.175 445.598,80.189 446.841,81.432 L462.75,97.341 C463.993,98.583 466.007,98.583 467.25,97.341 L483.159,81.432 C484.402,80.189 484.402,78.175 483.159,76.932 C481.916,75.689 479.902,75.689 478.659,76.932 Z" />
            <path d="M493.636,118.955 L493.636,136.455 C493.636,137.298 493.301,138.108 492.704,138.704 C492.108,139.301 491.298,139.636 490.455,139.636 L439.545,139.636 C438.702,139.636 437.892,139.301 437.296,138.704 C436.699,138.108 436.364,137.298 436.364,136.455 L436.364,101.455 C436.364,100.611 436.699,99.801 437.296,99.205 C437.892,98.608 438.702,98.273 439.545,98.273 L490.455,98.273 C491.298,98.273 492.108,98.608 492.704,99.205 C493.301,99.801 493.636,100.611 493.636,101.455 L493.636,118.955 Z M500,118.955 L500,101.455 C500,98.923 498.994,96.495 497.204,94.705 C495.414,92.915 492.986,91.909 490.455,91.909 L439.545,91.909 C437.014,91.909 434.586,92.915 432.796,94.705 C431.006,96.495 430,98.923 430,101.455 L430,136.455 C430,138.986 431.006,141.414 432.796,143.204 C434.586,144.994 437.014,146 439.545,146 L490.455,146 C492.986,146 495.414,144.994 497.204,143.204 C498.994,141.414 500,138.986 500,136.455 L500,118.955 Z" />
        </g>
        <g id="Black-M" transform="translate(0,200)">
            <path d="M678.659,76.932 L662.75,92.841 L667.25,92.841 L651.341,76.932 C650.098,75.689 648.084,75.689 646.841,76.932 C645.598,78.175 645.598,80.189 646.841,81.432 L662.75,97.341 C663.993,98.583 666.007,98.583 667.25,97.341 L683.159,81.432 C684.402,80.189 684.402,78.175 683.159,76.932 C681.916,75.689 679.902,75.689 678.659,76.932 Z" />
            <path d="M693.636,118.955 L693.636,136.455 C693.636,137.298 693.301,138.108 692.704,138.704 C692.108,139.301 691.298,139.636 690.455,139.636 L639.545,139.636 C638.702,139.636 637.892,139.301 637.296,138.704 C636.699,138.108 636.364,137.298 636.364,136.455 L636.364,101.455 C636.364,100.611 636.699,99.801 637.296,99.205 C637.892,98.608 638.702,98.273 639.545,98.273 L690.455,98.273 C691.298,98.273 692.108,98.608 692.704,99.205 C693.301,99.801 693.636,100.611 693.636,101.455 L693.636,118.955 Z M700,118.955 L700,101.455 C700,98.923 698.994,96.495 697.204,94.705 C695.414,92.915 692.986,91.909 690.455,91.909 L639.545,91.909 C637.014,91.909 634.586,92.915 632.796,94.705 C631.006,96.495 630,98.923 630,101.455 L630,136.455 C630,138.986 631.006,141.414 632.796,143.204 C634.586,144.994 637.014,146 639.545,146 L690.455,146 C692.986,146 695.414,144.994 697.204,143.204 C698.994,141.414 700,138.986 700,136.455 L700,118.955 Z" />
        </g>
    </g>
</svg>