<?xml version="1.0" encoding="UTF-8"?>
<svg height="600" width="800" xmlns="http://www.w3.org/2000/svg" xmlns:xlink="http://www.w3.org/1999/xlink">
    <g id="Notes" font-family="LucidaGrande, 'Lucida Grande', sans-serif" font-size="13">
        <rect fill="white" height="600.0" width="800.0" x="0.0" y="0.0" />
        <g font-size="13">
            <text x="18.0" y="176.0">Small</text>
            <text x="18.0" y="376.0">Medium</text>
            <text x="18.0" y="576.0">Large</text>
        </g>
        <g font-size="9">
            <text x="250.0" y="30.0">Ultralight</text>
            <text x="450.0" y="30.0">Regular</text>
            <text x="650.0" y="30.0">Black</text>
            <text id="template-version" fill="#505050" text-anchor="end" x="785.0" y="575.0">Template v.3.0</text>
            <a href="https://github.com/swhitty/SwiftDraw">
                <text fill="#505050" text-anchor="end" x="785.0" y="590.0">https://github.com/swhitty/SwiftDraw</text>
            </a>
        </g>
    </g>
    <g id="Guides" stroke="rgb(39, 170, 225)" stroke-width="0.5">
        <path id="Capline-S" d="M18,76 l800,0" />
        <path id="H-reference" d="M85,145.755 L87.685,145.755 L113.369,79.287 L114.052,79.287 L114.052,76 L112.148,76 L85,145.755 Z M95.693,121.536 L130.996,121.536 L130.263,119.313 L96.474,119.313 L95.693,121.536 Z M139.15,145.755 L141.787,145.755 L114.638,76 L113.466,76 L113.466,79.287 L139.15,145.755 Z" stroke="none" transform="translate(0,200)" />
        <path id="Baseline-S" d="M18,146 l800,0" />
        <path id="left-margin-Ultralight-M" d="M230,256 l0,110" />
        <path id="right-margin-Ultralight-M" d="M300,256 l0,110" />
        <path id="left-margin-Regular-M" d="M430,256 l0,110" />
        <path id="right-margin-Regular-M" d="M500,256 l0,110" />
        <path id="left-margin-Black-M" d="M630,256 l0,110" />
        <path id="right-margin-Black-M" d="M700,256 l0,110" />
        <path id="Capline-M" d="M18,276 l800,0" />
        <path id="Baseline-M" d="M18,346 l800,0" />
        <path id="Capline-L" d="M18,476 l800,0" />
        <path id="Baseline-L" d="M18,546 l800,0" />
    </g>
    <g id="Symbols">
        <g id="Ultralight-M" transform="translate(0,200)">
            <path d="M296.44,96.744 C301.185,91.999 301.185,84.307 296.441,79.561 C291.697,74.816 284.004,74.814 279.258,79.558 L236.792,122.033 C235.688,123.135 234.868,124.495 234.41,125.991 L230.204,139.847 C229.697,141.542 230.158,143.365 231.401,144.605 C232.643,145.845 234.466,146.303 236.147,145.798 L250.005,141.596 C251.502,141.14 252.862,140.326 253.969,139.223 L296.44,96.744 Z M291.94,92.245 L249.472,134.72 C249.107,135.083 248.654,135.355 248.155,135.506 L234.307,139.706 C234.875,139.535 235.483,139.688 235.897,140.101 C236.311,140.515 236.465,141.122 236.297,141.683 L240.496,127.848 C240.647,127.358 240.92,126.905 241.289,126.536 L283.758,84.058 C286.017,81.8 289.681,81.8 291.941,84.06 C294.2,86.321 294.2,89.985 291.94,92.244 Z" />
        </g>
        <g id="Regular-M" transform="translate(0,200)">
            <path d="M496.44,96.744 C501.185,91.999 501.185,84.307 496.441,79.561 C491.697,74.816 484.004,74.814 479.258,79.558 L436.792,122.033 C435.688,123.135 434.868,124.495 434.41,125.991 L430.204,139.847 C429.697,141.542 430.158,143.365 431.401,144.605 C432.643,145.845 434.466,146.303 436.147,145.798 L450.005,141.596 C451.502,141.14 452.862,140.326 453.969,139.223 L496.44,96.744 Z M491.94,92.245 L449.472,134.72 C449.107,135.083 448.654,135.355 448.155,135.506 L434.307,139.706 C434.875,139.535 435.483,139.688 435.897,140.101 C436.311,140.515 436.465,141.122 436.297,141.683 L440.496,127.848 C440.647,127.358 440.92,126.905 441.289,126.536 L483.758,84.058 C486.017,81.8 489.681,81.8 491.941,84.06 C494.2,86.321 494.2,89.985 491.94,92.244 Z" />
        </g>
        <g id="Black-M" transform="translate(0,200)">
            <path d="M696.44,96.744 C701.185,91.999 701.185,84.307 696.441,79.561 C691.697,74.816 684.004,74.814 679.258,79.558 L636.792,122.033 C635.688,123.135 634.868,124.495 634.41,125.991 L630.204,139.847 C629.697,141.542 630.158,143.365 631.401,144.605 C632.643,145.845 634.466,146.303 636.147,145.798 L650.005,141.596 C651.502,141.14 652.862,140.326 653.969,139.223 L696.44,96.744 Z M691.94,92.245 L649.472,134.72 C649.107,135.083 648.654,135.355 648.156,135.506 L634.307,139.706 C634.875,139.535 635.483,139.688 635.897,140.101 C636.311,140.515 636.465,141.122 636.297,141.683 L640.496,127.848 C640.647,127.358 640.92,126.905 641.289,126.536 L683.758,84.058 C686.017,81.8 689.681,81.8 691.941,84.06 C694.2,86.321 694.2,89.985 691.94,92.244 Z" />
        </g>
    </g>
</svg>