<?xml version="1.0" encoding="UTF-8"?>
<svg height="600" width="800" xmlns="http://www.w3.org/2000/svg" xmlns:xlink="http://www.w3.org/1999/xlink">
    <g id="Notes" font-family="LucidaGrande, 'Lucida Grande', sans-serif" font-size="13">
        <rect fill="white" height="600.0" width="800.0" x="0.0" y="0.0" />
        <g font-size="13">
            <text x="18.0" y="176.0">Small</text>
            <text x="18.0" y="376.0">Medium</text>
            <text x="18.0" y="576.0">Large</text>
        </g>
        <g font-size="9">
            <text x="250.0" y="30.0">Ultralight</text>
            <text x="450.0" y="30.0">Regular</text>
            <text x="650.0" y="30.0">Black</text>
            <text id="template-version" fill="#505050" text-anchor="end" x="785.0" y="575.0">Template v.3.0</text>
            <a href="https://github.com/swhitty/SwiftDraw">
                <text fill="#505050" text-anchor="end" x="785.0" y="590.0">https://github.com/swhitty/SwiftDraw</text>
            </a>
        </g>
    </g>
    <g id="Guides" stroke="rgb(39, 170, 225)" stroke-width="0.5">
        <path id="Capline-S" d="M18,76 l800,0" />
        <path id="H-reference" d="M85,145.755 L87.685,145.755 L113.369,79.287 L114.052,79.287 L114.052,76 L112.148,76 L85,145.755 Z M95.693,121.536 L130.996,121.536 L130.263,119.313 L96.474,119.313 L95.693,121.536 Z M139.15,145.755 L141.787,145.755 L114.638,76 L113.466,76 L113.466,79.287 L139.15,145.755 Z" stroke="none" transform="translate(0,200)" />
        <path id="Baseline-S" d="M18,146 l800,0" />
        <path id="left-margin-Ultralight-M" d="M233.182,256 l0,110" />
        <path id="right-margin-Ultralight-M" d="M296.818,256 l0,110" />
        <path id="left-margin-Regular-M" d="M433.182,256 l0,110" />
        <path id="right-margin-Regular-M" d="M496.818,256 l0,110" />
        <path id="left-margin-Black-M" d="M633.182,256 l0,110" />
        <path id="right-margin-Black-M" d="M696.818,256 l0,110" />
        <path id="Capline-M" d="M18,276 l800,0" />
        <path id="Baseline-M" d="M18,346 l800,0" />
        <path id="Capline-L" d="M18,476 l800,0" />
        <path id="Baseline-L" d="M18,546 l800,0" />
    </g>
    <g id="Symbols">
        <g id="Ultralight-M" transform="translate(0,200)">
            <path d="M261.818,139.636 L244.318,139.636 C241.682,139.636 239.545,137.5 239.545,134.864 C239.545,132.228 241.682,130.091 244.318,130.091 L258.64,130.091 C260.397,130.091 261.821,128.666 261.821,126.909 C261.821,125.152 260.397,123.727 258.64,123.727 L244.318,123.727 C238.168,123.727 233.182,128.713 233.182,134.864 C233.182,141.014 238.168,146 244.318,146 L261.818,146 C263.575,146 265,144.575 265,142.818 C265,141.061 263.575,139.636 261.818,139.636 Z" />
            <path d="M295.886,140.568 L289.907,134.592 C288.664,133.35 286.65,133.351 285.407,134.593 C284.165,135.836 284.166,137.851 285.408,139.093 L291.387,145.069 C292.63,146.311 294.645,146.31 295.887,145.067 C297.129,143.825 297.129,141.81 295.886,140.568 Z" />
            <path d="M239.545,134.864 L239.545,87.136 C239.545,85.871 240.048,84.657 240.943,83.762 C241.838,82.866 243.052,82.364 244.318,82.364 L284.091,82.364 C284.091,82.364 284.091,82.364 284.091,82.364 C284.091,82.364 284.091,82.364 284.091,82.364 L284.091,107.818 C284.091,109.575 285.515,111 287.273,111 C289.03,111 290.455,109.575 290.455,107.818 L290.455,82.364 C290.455,80.676 289.784,79.057 288.591,77.864 C287.397,76.67 285.779,76 284.091,76 L244.318,76 C241.365,76 238.532,77.173 236.444,79.262 C234.355,81.35 233.182,84.183 233.182,87.136 L233.182,134.864 C233.182,136.621 234.606,138.045 236.364,138.045 C238.121,138.045 239.545,136.621 239.545,134.864 Z" />
            <path d="M274.545,130.091 C274.545,126.576 277.395,123.727 280.909,123.727 C284.424,123.727 287.273,126.576 287.273,130.091 C287.273,133.605 284.424,136.455 280.909,136.455 C277.395,136.455 274.545,133.605 274.545,130.091 Z M268.182,130.091 C268.182,137.12 273.88,142.818 280.909,142.818 C287.938,142.818 293.636,137.12 293.636,130.091 C293.636,123.062 287.938,117.364 280.909,117.364 C273.88,117.364 268.182,123.062 268.182,130.091 Z" />
        </g>
        <g id="Regular-M" transform="translate(0,200)">
            <path d="M461.818,139.636 L444.318,139.636 C441.682,139.636 439.545,137.5 439.545,134.864 C439.545,132.228 441.682,130.091 444.318,130.091 L458.64,130.091 C460.397,130.091 461.821,128.666 461.821,126.909 C461.821,125.152 460.397,123.727 458.64,123.727 L444.318,123.727 C438.168,123.727 433.182,128.713 433.182,134.864 C433.182,141.014 438.168,146 444.318,146 L461.818,146 C463.575,146 465,144.575 465,142.818 C465,141.061 463.575,139.636 461.818,139.636 Z" />
            <path d="M495.886,140.568 L489.907,134.592 C488.664,133.35 486.65,133.351 485.407,134.593 C484.165,135.836 484.166,137.851 485.408,139.093 L491.387,145.069 C492.63,146.311 494.645,146.31 495.887,145.067 C497.129,143.825 497.129,141.81 495.886,140.568 Z" />
            <path d="M439.545,134.864 L439.545,87.136 C439.545,85.871 440.048,84.657 440.943,83.762 C441.838,82.866 443.052,82.364 444.318,82.364 L484.091,82.364 C484.091,82.364 484.091,82.364 484.091,82.364 C484.091,82.364 484.091,82.364 484.091,82.364 L484.091,107.818 C484.091,109.575 485.515,111 487.273,111 C489.03,111 490.455,109.575 490.455,107.818 L490.455,82.364 C490.455,80.676 489.784,79.057 488.591,77.864 C487.397,76.67 485.779,76 484.091,76 L444.318,76 C441.365,76 438.532,77.173 436.444,79.262 C434.355,81.35 433.182,84.183 433.182,87.136 L433.182,134.864 C433.182,136.621 434.606,138.045 436.364,138.045 C438.121,138.045 439.545,136.621 439.545,134.864 Z" />
            <path d="M474.545,130.091 C474.545,126.576 477.395,123.727 480.909,123.727 C484.424,123.727 487.273,126.576 487.273,130.091 C487.273,133.605 484.424,136.455 480.909,136.455 C477.395,136.455 474.545,133.605 474.545,130.091 Z M468.182,130.091 C468.182,137.12 473.88,142.818 480.909,142.818 C487.938,142.818 493.636,137.12 493.636,130.091 C493.636,123.062 487.938,117.364 480.909,117.364 C473.88,117.364 468.182,123.062 468.182,130.091 Z" />
        </g>
        <g id="Black-M" transform="translate(0,200)">
            <path d="M661.818,139.636 L644.318,139.636 C641.682,139.636 639.545,137.5 639.545,134.864 C639.545,132.228 641.682,130.091 644.318,130.091 L658.64,130.091 C660.397,130.091 661.821,128.666 661.821,126.909 C661.821,125.152 660.397,123.727 658.64,123.727 L644.318,123.727 C638.168,123.727 633.182,128.713 633.182,134.864 C633.182,141.014 638.168,146 644.318,146 L661.818,146 C663.575,146 665,144.575 665,142.818 C665,141.061 663.575,139.636 661.818,139.636 Z" />
            <path d="M695.886,140.568 L689.907,134.592 C688.664,133.35 686.649,133.351 685.407,134.593 C684.165,135.836 684.166,137.851 685.408,139.093 L691.387,145.069 C692.63,146.311 694.645,146.31 695.887,145.067 C697.129,143.825 697.129,141.81 695.886,140.568 Z" />
            <path d="M639.545,134.864 L639.545,87.136 C639.545,85.871 640.048,84.657 640.943,83.762 C641.838,82.866 643.052,82.364 644.318,82.364 L684.091,82.364 C684.091,82.364 684.091,82.364 684.091,82.364 C684.091,82.364 684.091,82.364 684.091,82.364 L684.091,107.818 C684.091,109.575 685.515,111 687.273,111 C689.03,111 690.455,109.575 690.455,107.818 L690.455,82.364 C690.455,80.676 689.784,79.057 688.591,77.864 C687.397,76.67 685.779,76 684.091,76 L644.318,76 C641.365,76 638.532,77.173 636.444,79.262 C634.355,81.35 633.182,84.183 633.182,87.136 L633.182,134.864 C633.182,136.621 634.606,138.045 636.364,138.045 C638.121,138.045 639.545,136.621 639.545,134.864 Z" />
            <path d="M674.545,130.091 C674.545,126.576 677.395,123.727 680.909,123.727 C684.424,123.727 687.273,126.576 687.273,130.091 C687.273,133.605 684.424,136.455 680.909,136.455 C677.395,136.455 674.545,133.605 674.545,130.091 Z M668.182,130.091 C668.182,137.12 673.88,142.818 680.909,142.818 C687.938,142.818 693.636,137.12 693.636,130.091 C693.636,123.062 687.938,117.364 680.909,117.364 C673.88,117.364 668.182,123.062 668.182,130.091 Z" />
        </g>
    </g>
</svg>