<?xml version="1.0" encoding="UTF-8"?>
<svg height="600" width="800" xmlns="http://www.w3.org/2000/svg" xmlns:xlink="http://www.w3.org/1999/xlink">
    <g id="Notes" font-family="LucidaGrande, 'Lucida Grande', sans-serif" font-size="13">
        <rect fill="white" height="600.0" width="800.0" x="0.0" y="0.0" />
        <g font-size="13">
            <text x="18.0" y="176.0">Small</text>
            <text x="18.0" y="376.0">Medium</text>
            <text x="18.0" y="576.0">Large</text>
        </g>
        <g font-size="9">
            <text x="250.0" y="30.0">Ultralight</text>
            <text x="450.0" y="30.0">Regular</text>
            <text x="650.0" y="30.0">Black</text>
            <text id="template-version" fill="#505050" text-anchor="end" x="785.0" y="575.0">Template v.3.0</text>
            <a href="https://github.com/swhitty/SwiftDraw">
                <text fill="#505050" text-anchor="end" x="785.0" y="590.0">https://github.com/swhitty/SwiftDraw</text>
            </a>
        </g>
    </g>
    <g id="Guides" stroke="rgb(39, 170, 225)" stroke-width="0.5">
        <path id="Capline-S" d="M18,76 l800,0" />
        <path id="H-reference" d="M85,145.755 L87.685,145.755 L113.369,79.287 L114.052,79.287 L114.052,76 L112.148,76 L85,145.755 Z M95.693,121.536 L130.996,121.536 L130.263,119.313 L96.474,119.313 L95.693,121.536 Z M139.15,145.755 L141.787,145.755 L114.638,76 L113.466,76 L113.466,79.287 L139.15,145.755 Z" stroke="none" transform="translate(0,200)" />
        <path id="Baseline-S" d="M18,146 l800,0" />
        <path id="left-margin-Ultralight-M" d="M221.25,256 l0,110" />
        <path id="right-margin-Ultralight-M" d="M308.75,256 l0,110" />
        <path id="left-margin-Regular-M" d="M421.25,256 l0,110" />
        <path id="right-margin-Regular-M" d="M508.75,256 l0,110" />
        <path id="left-margin-Black-M" d="M621.25,256 l0,110" />
        <path id="right-margin-Black-M" d="M708.75,256 l0,110" />
        <path id="Capline-M" d="M18,276 l800,0" />
        <path id="Baseline-M" d="M18,346 l800,0" />
        <path id="Capline-L" d="M18,476 l800,0" />
        <path id="Baseline-L" d="M18,546 l800,0" />
    </g>
    <g id="Symbols">
        <g id="Ultralight-M" transform="translate(0,200)">
            <path d="M282.469,76 L225.623,76 C223.208,76 221.25,77.959 221.25,80.375 C221.25,82.791 223.208,84.75 225.623,84.75 L282.469,84.75 C284.884,84.75 286.842,82.791 286.842,80.375 C286.842,77.959 284.884,76 282.469,76 Z" />
            <path d="M282.469,106.625 L225.623,106.625 C223.208,106.625 221.25,108.584 221.25,111 C221.25,113.416 223.208,115.375 225.623,115.375 L282.469,115.375 C284.884,115.375 286.842,113.416 286.842,111 C286.842,108.584 284.884,106.625 282.469,106.625 Z" />
            <path d="M282.469,137.25 L225.623,137.25 C223.208,137.25 221.25,139.209 221.25,141.625 C221.25,144.041 223.208,146 225.623,146 L282.469,146 C284.884,146 286.842,144.041 286.842,141.625 C286.842,139.209 284.884,137.25 282.469,137.25 Z" />
            <path d="M304.333,84.75 L304.377,84.75 C306.792,84.75 308.75,82.791 308.75,80.375 C308.75,77.959 306.792,76 304.377,76 L304.333,76 C301.918,76 299.961,77.959 299.961,80.375 C299.961,82.791 301.918,84.75 304.333,84.75 Z" />
            <path d="M304.333,115.375 L304.377,115.375 C306.792,115.375 308.75,113.416 308.75,111 C308.75,108.584 306.792,106.625 304.377,106.625 L304.333,106.625 C301.918,106.625 299.961,108.584 299.961,111 C299.961,113.416 301.918,115.375 304.333,115.375 Z" />
            <path d="M304.333,146 L304.377,146 C306.792,146 308.75,144.041 308.75,141.625 C308.75,139.209 306.792,137.25 304.377,137.25 L304.333,137.25 C301.918,137.25 299.961,139.209 299.961,141.625 C299.961,144.041 301.918,146 304.333,146 Z" />
        </g>
        <g id="Regular-M" transform="translate(0,200)">
            <path d="M482.469,76 L425.623,76 C423.208,76 421.25,77.959 421.25,80.375 C421.25,82.791 423.208,84.75 425.623,84.75 L482.469,84.75 C484.884,84.75 486.842,82.791 486.842,80.375 C486.842,77.959 484.884,76 482.469,76 Z" />
            <path d="M482.469,106.625 L425.623,106.625 C423.208,106.625 421.25,108.584 421.25,111 C421.25,113.416 423.208,115.375 425.623,115.375 L482.469,115.375 C484.884,115.375 486.842,113.416 486.842,111 C486.842,108.584 484.884,106.625 482.469,106.625 Z" />
            <path d="M482.469,137.25 L425.623,137.25 C423.208,137.25 421.25,139.209 421.25,141.625 C421.25,144.041 423.208,146 425.623,146 L482.469,146 C484.884,146 486.842,144.041 486.842,141.625 C486.842,139.209 484.884,137.25 482.469,137.25 Z" />
            <path d="M504.333,84.75 L504.377,84.75 C506.792,84.75 508.75,82.791 508.75,80.375 C508.75,77.959 506.792,76 504.377,76 L504.333,76 C501.918,76 499.961,77.959 499.961,80.375 C499.961,82.791 501.918,84.75 504.333,84.75 Z" />
            <path d="M504.333,115.375 L504.377,115.375 C506.792,115.375 508.75,113.416 508.75,111 C508.75,108.584 506.792,106.625 504.377,106.625 L504.333,106.625 C501.918,106.625 499.961,108.584 499.961,111 C499.961,113.416 501.918,115.375 504.333,115.375 Z" />
            <path d="M504.333,146 L504.377,146 C506.792,146 508.75,144.041 508.75,141.625 C508.75,139.209 506.792,137.25 504.377,137.25 L504.333,137.25 C501.918,137.25 499.961,139.209 499.961,141.625 C499.961,144.041 501.918,146 504.333,146 Z" />
        </g>
        <g id="Black-M" transform="translate(0,200)">
            <path d="M682.469,76 L625.623,76 C623.208,76 621.25,77.959 621.25,80.375 C621.25,82.791 623.208,84.75 625.623,84.75 L682.469,84.75 C684.884,84.75 686.842,82.791 686.842,80.375 C686.842,77.959 684.884,76 682.469,76 Z" />
            <path d="M682.469,106.625 L625.623,106.625 C623.208,106.625 621.25,108.584 621.25,111 C621.25,113.416 623.208,115.375 625.623,115.375 L682.469,115.375 C684.884,115.375 686.842,113.416 686.842,111 C686.842,108.584 684.884,106.625 682.469,106.625 Z" />
            <path d="M682.469,137.25 L625.623,137.25 C623.208,137.25 621.25,139.209 621.25,141.625 C621.25,144.041 623.208,146 625.623,146 L682.469,146 C684.884,146 686.842,144.041 686.842,141.625 C686.842,139.209 684.884,137.25 682.469,137.25 Z" />
            <path d="M704.333,84.75 L704.377,84.75 C706.792,84.75 708.75,82.791 708.75,80.375 C708.75,77.959 706.792,76 704.377,76 L704.333,76 C701.918,76 699.961,77.959 699.961,80.375 C699.961,82.791 701.918,84.75 704.333,84.75 Z" />
            <path d="M704.333,115.375 L704.377,115.375 C706.792,115.375 708.75,113.416 708.75,111 C708.75,108.584 706.792,106.625 704.377,106.625 L704.333,106.625 C701.918,106.625 699.961,108.584 699.961,111 C699.961,113.416 701.918,115.375 704.333,115.375 Z" />
            <path d="M704.333,146 L704.377,146 C706.792,146 708.75,144.041 708.75,141.625 C708.75,139.209 706.792,137.25 704.377,137.25 L704.333,137.25 C701.918,137.25 699.961,139.209 699.961,141.625 C699.961,144.041 701.918,146 704.333,146 Z" />
        </g>
    </g>
</svg>