<?xml version="1.0" encoding="UTF-8"?>
<svg height="600" width="800" xmlns="http://www.w3.org/2000/svg" xmlns:xlink="http://www.w3.org/1999/xlink">
    <g id="Notes" font-family="LucidaGrande, 'Lucida Grande', sans-serif" font-size="13">
        <rect fill="white" height="600.0" width="800.0" x="0.0" y="0.0" />
        <g font-size="13">
            <text x="18.0" y="176.0">Small</text>
            <text x="18.0" y="376.0">Medium</text>
            <text x="18.0" y="576.0">Large</text>
        </g>
        <g font-size="9">
            <text x="250.0" y="30.0">Ultralight</text>
            <text x="450.0" y="30.0">Regular</text>
            <text x="650.0" y="30.0">Black</text>
            <text id="template-version" fill="#505050" text-anchor="end" x="785.0" y="575.0">Template v.3.0</text>
            <a href="https://github.com/swhitty/SwiftDraw">
                <text fill="#505050" text-anchor="end" x="785.0" y="590.0">https://github.com/swhitty/SwiftDraw</text>
            </a>
        </g>
    </g>
    <g id="Guides" stroke="rgb(39, 170, 225)" stroke-width="0.5">
        <path id="Capline-S" d="M18,76 l800,0" />
        <path id="H-reference" d="M85,145.755 L87.685,145.755 L113.369,79.287 L114.052,79.287 L114.052,76 L112.148,76 L85,145.755 Z M95.693,121.536 L130.996,121.536 L130.263,119.313 L96.474,119.313 L95.693,121.536 Z M139.15,145.755 L141.787,145.755 L114.638,76 L113.466,76 L113.466,79.287 L139.15,145.755 Z" stroke="none" transform="translate(0,200)" />
        <path id="Baseline-S" d="M18,146 l800,0" />
        <path id="left-margin-Ultralight-M" d="M228.333,256 l0,110" />
        <path id="right-margin-Ultralight-M" d="M301.667,256 l0,110" />
        <path id="left-margin-Regular-M" d="M428.333,256 l0,110" />
        <path id="right-margin-Regular-M" d="M501.667,256 l0,110" />
        <path id="left-margin-Black-M" d="M628.333,256 l0,110" />
        <path id="right-margin-Black-M" d="M701.667,256 l0,110" />
        <path id="Capline-M" d="M18,276 l800,0" />
        <path id="Baseline-M" d="M18,346 l800,0" />
        <path id="Capline-L" d="M18,476 l800,0" />
        <path id="Baseline-L" d="M18,546 l800,0" />
    </g>
    <g id="Symbols">
        <g id="Ultralight-M" transform="translate(0,200)">
            <path d="M268.333,139.333 L268.333,109.333 C268.333,107.492 266.841,106 265,106 C263.159,106 261.667,107.492 261.667,109.333 L261.667,139.333 C261.667,141.174 263.159,142.667 265,142.667 C266.841,142.667 268.333,141.174 268.333,139.333 Z" />
            <path d="M271.667,99.333 C274.319,99.333 276.862,100.387 278.738,102.262 C280.613,104.138 281.667,106.681 281.667,109.333 L281.667,119.333 C281.667,128.538 274.205,136 265,136 C255.795,136 248.333,128.538 248.333,119.333 L248.333,109.333 C248.333,106.681 249.387,104.138 251.262,102.262 C253.138,100.387 255.681,99.333 258.333,99.333 L271.667,99.333 Z M271.667,92.667 L258.333,92.667 C253.913,92.667 249.674,94.423 246.548,97.548 C243.423,100.674 241.667,104.913 241.667,109.333 L241.667,119.333 C241.667,132.22 252.113,142.667 265,142.667 C277.887,142.667 288.333,132.22 288.333,119.333 L288.333,109.333 C288.333,104.913 286.577,100.674 283.452,97.548 C280.326,94.423 276.087,92.667 271.667,92.667 Z" />
            <path d="M274.424,87.957 L280.69,81.69 C281.992,80.389 281.992,78.278 280.69,76.976 C279.389,75.675 277.278,75.675 275.976,76.976 L269.71,83.243 C268.408,84.545 268.408,86.655 269.71,87.957 C271.011,89.259 273.122,89.259 274.424,87.957 Z" />
            <path d="M298.333,142.67 C298.344,133.766 291.353,126.427 282.459,126.004 C280.62,125.916 279.058,127.336 278.971,129.175 C278.883,131.014 280.303,132.575 282.142,132.663 C287.478,132.917 291.673,137.32 291.667,142.663 C291.665,144.504 293.155,145.998 294.996,146 C296.837,146.002 298.331,144.511 298.333,142.67 Z" />
            <path d="M291.667,89.33 C291.661,94.413 287.843,98.683 282.792,99.254 C280.962,99.462 279.647,101.112 279.855,102.942 C280.062,104.771 281.713,106.086 283.542,105.879 C291.96,104.926 298.324,97.809 298.333,89.337 C298.335,87.496 296.845,86.002 295.004,86 C293.163,85.998 291.669,87.489 291.667,89.33 Z" />
            <path d="M298.333,112.667 L285,112.667 C283.159,112.667 281.667,114.159 281.667,116 C281.667,117.841 283.159,119.333 285,119.333 L298.333,119.333 C300.174,119.333 301.667,117.841 301.667,116 C301.667,114.159 300.174,112.667 298.333,112.667 Z" />
            <path d="M238.333,142.663 C238.328,137.32 242.522,132.916 247.859,132.663 C249.698,132.576 251.117,131.014 251.03,129.175 C250.943,127.336 249.381,125.916 247.542,126.004 C238.648,126.426 231.657,133.766 231.667,142.67 C231.669,144.511 233.163,146.002 235.004,146 C236.845,145.998 238.335,144.504 238.333,142.663 Z" />
            <path d="M231.667,89.337 C231.676,97.809 238.04,104.926 246.458,105.879 C248.287,106.086 249.938,104.771 250.145,102.942 C250.353,101.112 249.038,99.462 247.208,99.254 C242.157,98.683 238.339,94.413 238.333,89.33 C238.331,87.489 236.837,85.998 234.996,86 C233.155,86.002 231.665,87.496 231.667,89.337 Z" />
            <path d="M245,112.667 L231.667,112.667 C229.826,112.667 228.333,114.159 228.333,116 C228.333,117.841 229.826,119.333 231.667,119.333 L245,119.333 C246.841,119.333 248.333,117.841 248.333,116 C248.333,114.159 246.841,112.667 245,112.667 Z" />
            <path d="M249.31,81.69 L255.576,87.957 C256.878,89.259 258.989,89.259 260.29,87.957 C261.592,86.655 261.592,84.545 260.29,83.243 L254.024,76.976 C252.722,75.675 250.611,75.675 249.31,76.976 C248.008,78.278 248.008,80.389 249.31,81.69 Z" />
            <path d="M258.333,96.433 L258.333,92.667 C258.333,88.985 261.318,86 265,86 C268.682,86 271.667,88.985 271.667,92.667 L271.667,96.433 C271.667,98.274 273.159,99.767 275,99.767 C276.841,99.767 278.333,98.274 278.333,96.433 L278.333,92.667 C278.333,85.303 272.364,79.333 265,79.333 C257.636,79.333 251.667,85.303 251.667,92.667 L251.667,96.433 C251.667,98.274 253.159,99.767 255,99.767 C256.841,99.767 258.333,98.274 258.333,96.433 Z" />
        </g>
        <g id="Regular-M" transform="translate(0,200)">
            <path d="M468.333,139.333 L468.333,109.333 C468.333,107.492 466.841,106 465,106 C463.159,106 461.667,107.492 461.667,109.333 L461.667,139.333 C461.667,141.174 463.159,142.667 465,142.667 C466.841,142.667 468.333,141.174 468.333,139.333 Z" />
            <path d="M471.667,99.333 C474.319,99.333 476.862,100.387 478.738,102.262 C480.613,104.138 481.667,106.681 481.667,109.333 L481.667,119.333 C481.667,128.538 474.205,136 465,136 C455.795,136 448.333,128.538 448.333,119.333 L448.333,109.333 C448.333,106.681 449.387,104.138 451.262,102.262 C453.138,100.387 455.681,99.333 458.333,99.333 L471.667,99.333 Z M471.667,92.667 L458.333,92.667 C453.913,92.667 449.674,94.423 446.548,97.548 C443.423,100.674 441.667,104.913 441.667,109.333 L441.667,119.333 C441.667,132.22 452.113,142.667 465,142.667 C477.887,142.667 488.333,132.22 488.333,119.333 L488.333,109.333 C488.333,104.913 486.577,100.674 483.452,97.548 C480.326,94.423 476.087,92.667 471.667,92.667 Z" />
            <path d="M474.424,87.957 L480.69,81.69 C481.992,80.389 481.992,78.278 480.69,76.976 C479.389,75.675 477.278,75.675 475.976,76.976 L469.71,83.243 C468.408,84.545 468.408,86.655 469.71,87.957 C471.011,89.259 473.122,89.259 474.424,87.957 Z" />
            <path d="M498.333,142.67 C498.344,133.766 491.353,126.427 482.459,126.004 C480.62,125.916 479.058,127.336 478.971,129.175 C478.883,131.014 480.303,132.575 482.142,132.663 C487.478,132.917 491.673,137.32 491.667,142.663 C491.665,144.504 493.155,145.998 494.996,146 C496.837,146.002 498.331,144.511 498.333,142.67 Z" />
            <path d="M491.667,89.33 C491.661,94.413 487.843,98.683 482.792,99.254 C480.962,99.462 479.647,101.112 479.855,102.942 C480.062,104.771 481.713,106.086 483.542,105.879 C491.96,104.926 498.324,97.809 498.333,89.337 C498.335,87.496 496.845,86.002 495.004,86 C493.163,85.998 491.669,87.489 491.667,89.33 Z" />
            <path d="M498.333,112.667 L485,112.667 C483.159,112.667 481.667,114.159 481.667,116 C481.667,117.841 483.159,119.333 485,119.333 L498.333,119.333 C500.174,119.333 501.667,117.841 501.667,116 C501.667,114.159 500.174,112.667 498.333,112.667 Z" />
            <path d="M438.333,142.663 C438.328,137.32 442.522,132.916 447.859,132.663 C449.698,132.576 451.117,131.014 451.03,129.175 C450.943,127.336 449.381,125.916 447.542,126.004 C438.648,126.426 431.657,133.766 431.667,142.67 C431.669,144.511 433.163,146.002 435.004,146 C436.845,145.998 438.335,144.504 438.333,142.663 Z" />
            <path d="M431.667,89.337 C431.676,97.809 438.04,104.926 446.458,105.879 C448.288,106.086 449.938,104.771 450.145,102.942 C450.353,101.112 449.038,99.462 447.208,99.254 C442.157,98.683 438.339,94.413 438.333,89.33 C438.331,87.489 436.837,85.998 434.996,86 C433.155,86.002 431.665,87.496 431.667,89.337 Z" />
            <path d="M445,112.667 L431.667,112.667 C429.826,112.667 428.333,114.159 428.333,116 C428.333,117.841 429.826,119.333 431.667,119.333 L445,119.333 C446.841,119.333 448.333,117.841 448.333,116 C448.333,114.159 446.841,112.667 445,112.667 Z" />
            <path d="M449.31,81.69 L455.576,87.957 C456.878,89.259 458.989,89.259 460.29,87.957 C461.592,86.655 461.592,84.545 460.29,83.243 L454.024,76.976 C452.722,75.675 450.611,75.675 449.31,76.976 C448.008,78.278 448.008,80.389 449.31,81.69 Z" />
            <path d="M458.333,96.433 L458.333,92.667 C458.333,88.985 461.318,86 465,86 C468.682,86 471.667,88.985 471.667,92.667 L471.667,96.433 C471.667,98.274 473.159,99.767 475,99.767 C476.841,99.767 478.333,98.274 478.333,96.433 L478.333,92.667 C478.333,85.303 472.364,79.333 465,79.333 C457.636,79.333 451.667,85.303 451.667,92.667 L451.667,96.433 C451.667,98.274 453.159,99.767 455,99.767 C456.841,99.767 458.333,98.274 458.333,96.433 Z" />
        </g>
        <g id="Black-M" transform="translate(0,200)">
            <path d="M668.333,139.333 L668.333,109.333 C668.333,107.492 666.841,106 665,106 C663.159,106 661.667,107.492 661.667,109.333 L661.667,139.333 C661.667,141.174 663.159,142.667 665,142.667 C666.841,142.667 668.333,141.174 668.333,139.333 Z" />
            <path d="M671.667,99.333 C674.319,99.333 676.862,100.387 678.738,102.262 C680.613,104.138 681.667,106.681 681.667,109.333 L681.667,119.333 C681.667,128.538 674.205,136 665,136 C655.795,136 648.333,128.538 648.333,119.333 L648.333,109.333 C648.333,106.681 649.387,104.138 651.262,102.262 C653.138,100.387 655.681,99.333 658.333,99.333 L671.667,99.333 Z M671.667,92.667 L658.333,92.667 C653.913,92.667 649.674,94.423 646.548,97.548 C643.423,100.674 641.667,104.913 641.667,109.333 L641.667,119.333 C641.667,132.22 652.113,142.667 665,142.667 C677.887,142.667 688.333,132.22 688.333,119.333 L688.333,109.333 C688.333,104.913 686.577,100.674 683.452,97.548 C680.326,94.423 676.087,92.667 671.667,92.667 Z" />
            <path d="M674.424,87.957 L680.69,81.69 C681.992,80.389 681.992,78.278 680.69,76.976 C679.389,75.675 677.278,75.675 675.976,76.976 L669.71,83.243 C668.408,84.545 668.408,86.655 669.71,87.957 C671.011,89.259 673.122,89.259 674.424,87.957 Z" />
            <path d="M698.333,142.67 C698.344,133.766 691.353,126.427 682.459,126.004 C680.62,125.916 679.058,127.336 678.971,129.175 C678.883,131.014 680.303,132.575 682.142,132.663 C687.478,132.917 691.673,137.32 691.667,142.663 C691.665,144.504 693.155,145.998 694.996,146 C696.837,146.002 698.331,144.511 698.333,142.67 Z" />
            <path d="M691.667,89.33 C691.661,94.413 687.843,98.683 682.792,99.254 C680.962,99.462 679.647,101.112 679.855,102.942 C680.062,104.771 681.712,106.086 683.542,105.879 C691.96,104.926 698.324,97.809 698.333,89.337 C698.335,87.496 696.845,86.002 695.004,86 C693.163,85.998 691.669,87.489 691.667,89.33 Z" />
            <path d="M698.333,112.667 L685,112.667 C683.159,112.667 681.667,114.159 681.667,116 C681.667,117.841 683.159,119.333 685,119.333 L698.333,119.333 C700.174,119.333 701.667,117.841 701.667,116 C701.667,114.159 700.174,112.667 698.333,112.667 Z" />
            <path d="M638.333,142.663 C638.327,137.32 642.522,132.916 647.859,132.663 C649.698,132.576 651.117,131.014 651.03,129.175 C650.943,127.336 649.381,125.916 647.542,126.004 C638.648,126.426 631.657,133.766 631.667,142.67 C631.669,144.511 633.163,146.002 635.004,146 C636.845,145.998 638.335,144.504 638.333,142.663 Z" />
            <path d="M631.667,89.337 C631.676,97.809 638.04,104.926 646.458,105.879 C648.287,106.086 649.938,104.771 650.145,102.942 C650.353,101.112 649.037,99.462 647.208,99.254 C642.157,98.683 638.339,94.413 638.333,89.33 C638.331,87.489 636.837,85.998 634.996,86 C633.155,86.002 631.665,87.496 631.667,89.337 Z" />
            <path d="M645,112.667 L631.667,112.667 C629.826,112.667 628.333,114.159 628.333,116 C628.333,117.841 629.826,119.333 631.667,119.333 L645,119.333 C646.841,119.333 648.333,117.841 648.333,116 C648.333,114.159 646.841,112.667 645,112.667 Z" />
            <path d="M649.31,81.69 L655.576,87.957 C656.878,89.259 658.989,89.259 660.29,87.957 C661.592,86.655 661.592,84.545 660.29,83.243 L654.024,76.976 C652.722,75.675 650.611,75.675 649.31,76.976 C648.008,78.278 648.008,80.389 649.31,81.69 Z" />
            <path d="M658.333,96.433 L658.333,92.667 C658.333,88.985 661.318,86 665,86 C668.682,86 671.667,88.985 671.667,92.667 L671.667,96.433 C671.667,98.274 673.159,99.767 675,99.767 C676.841,99.767 678.333,98.274 678.333,96.433 L678.333,92.667 C678.333,85.303 672.364,79.333 665,79.333 C657.636,79.333 651.667,85.303 651.667,92.667 L651.667,96.433 C651.667,98.274 653.159,99.767 655,99.767 C656.841,99.767 658.333,98.274 658.333,96.433 Z" />
        </g>
    </g>
</svg>