<?xml version="1.0" encoding="UTF-8"?>
<svg height="600" width="800" xmlns="http://www.w3.org/2000/svg" xmlns:xlink="http://www.w3.org/1999/xlink">
    <g id="Notes" font-family="LucidaGrande, 'Lucida Grande', sans-serif" font-size="13">
        <rect fill="white" height="600.0" width="800.0" x="0.0" y="0.0" />
        <g font-size="13">
            <text x="18.0" y="176.0">Small</text>
            <text x="18.0" y="376.0">Medium</text>
            <text x="18.0" y="576.0">Large</text>
        </g>
        <g font-size="9">
            <text x="250.0" y="30.0">Ultralight</text>
            <text x="450.0" y="30.0">Regular</text>
            <text x="650.0" y="30.0">Black</text>
            <text id="template-version" fill="#505050" text-anchor="end" x="785.0" y="575.0">Template v.3.0</text>
            <a href="https://github.com/swhitty/SwiftDraw">
                <text fill="#505050" text-anchor="end" x="785.0" y="590.0">https://github.com/swhitty/SwiftDraw</text>
            </a>
        </g>
    </g>
    <g id="Guides" stroke="rgb(39, 170, 225)" stroke-width="0.5">
        <path id="Capline-S" d="M18,76 l800,0" />
        <path id="H-reference" d="M85,145.755 L87.685,145.755 L113.369,79.287 L114.052,79.287 L114.052,76 L112.148,76 L85,145.755 Z M95.693,121.536 L130.996,121.536 L130.263,119.313 L96.474,119.313 L95.693,121.536 Z M139.15,145.755 L141.787,145.755 L114.638,76 L113.466,76 L113.466,79.287 L139.15,145.755 Z" stroke="none" transform="translate(0,200)" />
        <path id="Baseline-S" d="M18,146 l800,0" />
        <path id="left-margin-Ultralight-M" d="M236.364,256 l0,110" />
        <path id="right-margin-Ultralight-M" d="M293.636,256 l0,110" />
        <path id="left-margin-Regular-M" d="M436.364,256 l0,110" />
        <path id="right-margin-Regular-M" d="M493.636,256 l0,110" />
        <path id="left-margin-Black-M" d="M636.364,256 l0,110" />
        <path id="right-margin-Black-M" d="M693.636,256 l0,110" />
        <path id="Capline-M" d="M18,276 l800,0" />
        <path id="Baseline-M" d="M18,346 l800,0" />
        <path id="Capline-L" d="M18,476 l800,0" />
        <path id="Baseline-L" d="M18,546 l800,0" />
    </g>
    <g id="Symbols">
        <g id="Ultralight-M" transform="translate(0,200)">
            <path d="M274.545,85.545 L274.545,88.727 C274.545,88.727 274.545,88.727 274.545,88.727 C274.545,88.727 274.545,88.727 274.545,88.727 L255.455,88.727 C255.455,88.727 255.455,88.727 255.455,88.727 C255.455,88.727 255.455,88.727 255.455,88.727 L255.455,82.364 C255.455,82.364 255.455,82.364 255.455,82.364 C255.455,82.364 255.455,82.364 255.455,82.364 L274.545,82.364 C274.545,82.364 274.545,82.364 274.545,82.364 C274.545,82.364 274.545,82.364 274.545,82.364 L274.545,85.545 Z M280.909,85.545 L280.909,82.364 C280.909,80.676 280.239,79.057 279.045,77.864 C277.852,76.67 276.233,76 274.545,76 L255.455,76 C253.767,76 252.148,76.67 250.955,77.864 C249.761,79.057 249.091,80.676 249.091,82.364 L249.091,88.727 C249.091,90.415 249.761,92.034 250.955,93.227 C252.148,94.42 253.767,95.091 255.455,95.091 L274.545,95.091 C276.233,95.091 277.852,94.42 279.045,93.227 C280.239,92.034 280.909,90.415 280.909,88.727 L280.909,85.545 Z" />
            <path d="M277.727,88.727 L284.091,88.727 C284.935,88.727 285.744,89.062 286.341,89.659 C286.938,90.256 287.273,91.065 287.273,91.909 L287.273,136.455 C287.273,137.298 286.938,138.108 286.341,138.704 C285.744,139.301 284.935,139.636 284.091,139.636 L245.909,139.636 C245.065,139.636 244.256,139.301 243.659,138.704 C243.062,138.108 242.727,137.298 242.727,136.455 L242.727,91.909 C242.727,91.065 243.062,90.256 243.659,89.659 C244.256,89.062 245.065,88.727 245.909,88.727 L252.273,88.727 C254.03,88.727 255.455,87.303 255.455,85.545 C255.455,83.788 254.03,82.364 252.273,82.364 L245.909,82.364 C243.377,82.364 240.95,83.369 239.159,85.159 C237.369,86.95 236.364,89.377 236.364,91.909 L236.364,136.455 C236.364,138.986 237.369,141.414 239.159,143.204 C240.95,144.994 243.377,146 245.909,146 L284.091,146 C286.623,146 289.05,144.994 290.841,143.204 C292.631,141.414 293.636,138.986 293.636,136.455 L293.636,91.909 C293.636,89.377 292.631,86.95 290.841,85.159 C289.05,83.369 286.623,82.364 284.091,82.364 L277.727,82.364 C275.97,82.364 274.545,83.788 274.545,85.545 C274.545,87.303 275.97,88.727 277.727,88.727 Z" />
        </g>
        <g id="Regular-M" transform="translate(0,200)">
            <path d="M474.545,85.545 L474.545,88.727 C474.545,88.727 474.545,88.727 474.545,88.727 C474.545,88.727 474.545,88.727 474.545,88.727 L455.455,88.727 C455.455,88.727 455.455,88.727 455.455,88.727 C455.455,88.727 455.455,88.727 455.455,88.727 L455.455,82.364 C455.455,82.364 455.455,82.364 455.455,82.364 C455.455,82.364 455.455,82.364 455.455,82.364 L474.545,82.364 C474.545,82.364 474.545,82.364 474.545,82.364 C474.545,82.364 474.545,82.364 474.545,82.364 L474.545,85.545 Z M480.909,85.545 L480.909,82.364 C480.909,80.676 480.239,79.057 479.045,77.864 C477.852,76.67 476.233,76 474.545,76 L455.455,76 C453.767,76 452.148,76.67 450.955,77.864 C449.761,79.057 449.091,80.676 449.091,82.364 L449.091,88.727 C449.091,90.415 449.761,92.034 450.955,93.227 C452.148,94.42 453.767,95.091 455.455,95.091 L474.545,95.091 C476.233,95.091 477.852,94.42 479.045,93.227 C480.239,92.034 480.909,90.415 480.909,88.727 L480.909,85.545 Z" />
            <path d="M477.727,88.727 L484.091,88.727 C484.935,88.727 485.744,89.062 486.341,89.659 C486.938,90.256 487.273,91.065 487.273,91.909 L487.273,136.455 C487.273,137.298 486.938,138.108 486.341,138.704 C485.744,139.301 484.935,139.636 484.091,139.636 L445.909,139.636 C445.065,139.636 444.256,139.301 443.659,138.704 C443.062,138.108 442.727,137.298 442.727,136.455 L442.727,91.909 C442.727,91.065 443.062,90.256 443.659,89.659 C444.256,89.062 445.065,88.727 445.909,88.727 L452.273,88.727 C454.03,88.727 455.455,87.303 455.455,85.545 C455.455,83.788 454.03,82.364 452.273,82.364 L445.909,82.364 C443.378,82.364 440.95,83.369 439.159,85.159 C437.369,86.95 436.364,89.377 436.364,91.909 L436.364,136.455 C436.364,138.986 437.369,141.414 439.159,143.204 C440.95,144.994 443.378,146 445.909,146 L484.091,146 C486.623,146 489.05,144.994 490.841,143.204 C492.631,141.414 493.636,138.986 493.636,136.455 L493.636,91.909 C493.636,89.377 492.631,86.95 490.841,85.159 C489.05,83.369 486.623,82.364 484.091,82.364 L477.727,82.364 C475.97,82.364 474.545,83.788 474.545,85.545 C474.545,87.303 475.97,88.727 477.727,88.727 Z" />
        </g>
        <g id="Black-M" transform="translate(0,200)">
            <path d="M674.545,85.545 L674.545,88.727 C674.545,88.727 674.545,88.727 674.545,88.727 C674.545,88.727 674.545,88.727 674.545,88.727 L655.455,88.727 C655.455,88.727 655.455,88.727 655.455,88.727 C655.455,88.727 655.455,88.727 655.455,88.727 L655.455,82.364 C655.455,82.364 655.455,82.364 655.455,82.364 C655.455,82.364 655.455,82.364 655.455,82.364 L674.545,82.364 C674.545,82.364 674.545,82.364 674.545,82.364 C674.545,82.364 674.545,82.364 674.545,82.364 L674.545,85.545 Z M680.909,85.545 L680.909,82.364 C680.909,80.676 680.239,79.057 679.045,77.864 C677.852,76.67 676.233,76 674.545,76 L655.455,76 C653.767,76 652.148,76.67 650.955,77.864 C649.761,79.057 649.091,80.676 649.091,82.364 L649.091,88.727 C649.091,90.415 649.761,92.034 650.955,93.227 C652.148,94.42 653.767,95.091 655.455,95.091 L674.545,95.091 C676.233,95.091 677.852,94.42 679.045,93.227 C680.239,92.034 680.909,90.415 680.909,88.727 L680.909,85.545 Z" />
            <path d="M677.727,88.727 L684.091,88.727 C684.935,88.727 685.744,89.062 686.341,89.659 C686.938,90.256 687.273,91.065 687.273,91.909 L687.273,136.455 C687.273,137.298 686.938,138.108 686.341,138.704 C685.744,139.301 684.935,139.636 684.091,139.636 L645.909,139.636 C645.065,139.636 644.256,139.301 643.659,138.704 C643.062,138.108 642.727,137.298 642.727,136.455 L642.727,91.909 C642.727,91.065 643.062,90.256 643.659,89.659 C644.256,89.062 645.065,88.727 645.909,88.727 L652.273,88.727 C654.03,88.727 655.455,87.303 655.455,85.545 C655.455,83.788 654.03,82.364 652.273,82.364 L645.909,82.364 C643.378,82.364 640.95,83.369 639.159,85.159 C637.369,86.95 636.364,89.377 636.364,91.909 L636.364,136.455 C636.364,138.986 637.369,141.414 639.159,143.204 C640.95,144.994 643.378,146 645.909,146 L684.091,146 C686.623,146 689.05,144.994 690.841,143.204 C692.631,141.414 693.636,138.986 693.636,136.455 L693.636,91.909 C693.636,89.377 692.631,86.95 690.841,85.159 C689.05,83.369 686.623,82.364 684.091,82.364 L677.727,82.364 C675.97,82.364 674.545,83.788 674.545,85.545 C674.545,87.303 675.97,88.727 677.727,88.727 Z" />
        </g>
    </g>
</svg>