<?xml version="1.0" encoding="UTF-8"?>
<svg height="600" width="800" xmlns="http://www.w3.org/2000/svg" xmlns:xlink="http://www.w3.org/1999/xlink">
    <g id="Notes" font-family="LucidaGrande, 'Lucida Grande', sans-serif" font-size="13">
        <rect fill="white" height="600.0" width="800.0" x="0.0" y="0.0" />
        <g font-size="13">
            <text x="18.0" y="176.0">Small</text>
            <text x="18.0" y="376.0">Medium</text>
            <text x="18.0" y="576.0">Large</text>
        </g>
        <g font-size="9">
            <text x="250.0" y="30.0">Ultralight</text>
            <text x="450.0" y="30.0">Regular</text>
            <text x="650.0" y="30.0">Black</text>
            <text id="template-version" fill="#505050" text-anchor="end" x="785.0" y="575.0">Template v.3.0</text>
            <a href="https://github.com/swhitty/SwiftDraw">
                <text fill="#505050" text-anchor="end" x="785.0" y="590.0">https://github.com/swhitty/SwiftDraw</text>
            </a>
        </g>
    </g>
    <g id="Guides" stroke="rgb(39, 170, 225)" stroke-width="0.5">
        <path id="Capline-S" d="M18,76 l800,0" />
        <path id="H-reference" d="M85,145.755 L87.685,145.755 L113.369,79.287 L114.052,79.287 L114.052,76 L112.148,76 L85,145.755 Z M95.693,121.536 L130.996,121.536 L130.263,119.313 L96.474,119.313 L95.693,121.536 Z M139.15,145.755 L141.787,145.755 L114.638,76 L113.466,76 L113.466,79.287 L139.15,145.755 Z" stroke="none" transform="translate(0,200)" />
        <path id="Baseline-S" d="M18,146 l800,0" />
        <path id="left-margin-Ultralight-M" d="M230,256 l0,110" />
        <path id="right-margin-Ultralight-M" d="M300,256 l0,110" />
        <path id="left-margin-Regular-M" d="M430,256 l0,110" />
        <path id="right-margin-Regular-M" d="M500,256 l0,110" />
        <path id="left-margin-Black-M" d="M630,256 l0,110" />
        <path id="right-margin-Black-M" d="M700,256 l0,110" />
        <path id="Capline-M" d="M18,276 l800,0" />
        <path id="Baseline-M" d="M18,346 l800,0" />
        <path id="Capline-L" d="M18,476 l800,0" />
        <path id="Baseline-L" d="M18,546 l800,0" />
    </g>
    <g id="Symbols">
        <g id="Ultralight-M" transform="translate(0,200)">
            <path d="M261.818,91.915 L261.818,111.004 C261.818,112.209 262.499,113.31 263.577,113.849 L269.941,117.031 C271.513,117.817 273.424,117.18 274.21,115.608 C274.996,114.036 274.358,112.125 272.787,111.34 L266.423,108.158 L268.182,111.004 L268.182,91.915 C268.182,90.158 266.757,88.733 265,88.733 C263.243,88.733 261.818,90.158 261.818,91.915 Z" />
            <path d="M269.296,139.307 C257.455,141.103 245.747,135.342 239.947,124.865 C234.146,114.388 235.479,101.409 243.287,92.329 C251.096,83.249 263.73,79.987 274.959,84.152 C286.188,88.316 293.639,99.028 293.636,111.003 C293.636,112.76 295.06,114.185 296.818,114.185 C298.575,114.186 300,112.761 300,111.004 C300.003,96.368 290.896,83.276 277.172,78.186 C263.448,73.096 248.006,77.083 238.462,88.181 C228.919,99.278 227.29,115.142 234.379,127.947 C241.468,140.752 255.778,147.794 270.25,145.598 C271.988,145.335 273.182,143.713 272.919,141.975 C272.655,140.238 271.033,139.044 269.296,139.307 Z" />
            <path d="M271.364,133.274 L296.818,133.274 C298.575,133.274 300,131.85 300,130.093 C300,128.336 298.575,126.911 296.818,126.911 L271.364,126.911 C269.607,126.911 268.182,128.336 268.182,130.093 C268.182,131.85 269.607,133.274 271.364,133.274 Z" />
            <path d="M286.341,145.068 L299.068,132.342 C300.311,131.1 300.311,129.085 299.068,127.843 L286.341,115.117 C285.098,113.875 283.084,113.875 281.841,115.117 C280.599,116.359 280.599,118.374 281.841,119.616 L294.568,132.342 L294.568,127.843 L281.841,140.569 C280.599,141.811 280.599,143.826 281.841,145.068 C283.084,146.311 285.098,146.311 286.341,145.068 Z" />
        </g>
        <g id="Regular-M" transform="translate(0,200)">
            <path d="M461.818,91.915 L461.818,111.004 C461.818,112.209 462.499,113.31 463.577,113.849 L469.941,117.031 C471.513,117.817 473.424,117.18 474.21,115.608 C474.996,114.036 474.358,112.125 472.787,111.34 L466.423,108.158 L468.182,111.004 L468.182,91.915 C468.182,90.158 466.757,88.733 465,88.733 C463.243,88.733 461.818,90.158 461.818,91.915 Z" />
            <path d="M469.296,139.307 C457.455,141.103 445.747,135.342 439.947,124.865 C434.146,114.388 435.479,101.409 443.287,92.329 C451.096,83.249 463.73,79.987 474.959,84.152 C486.188,88.316 493.639,99.028 493.636,111.003 C493.636,112.76 495.06,114.185 496.818,114.185 C498.575,114.186 500,112.761 500,111.004 C500.003,96.368 490.896,83.276 477.172,78.186 C463.448,73.096 448.006,77.083 438.462,88.181 C428.919,99.278 427.29,115.142 434.379,127.947 C441.468,140.752 455.778,147.794 470.25,145.598 C471.988,145.335 473.182,143.713 472.919,141.975 C472.655,140.238 471.033,139.044 469.296,139.307 Z" />
            <path d="M471.364,133.274 L496.818,133.274 C498.575,133.274 500,131.85 500,130.093 C500,128.336 498.575,126.911 496.818,126.911 L471.364,126.911 C469.607,126.911 468.182,128.336 468.182,130.093 C468.182,131.85 469.607,133.274 471.364,133.274 Z" />
            <path d="M486.341,145.068 L499.068,132.342 C500.311,131.1 500.311,129.085 499.068,127.843 L486.341,115.117 C485.098,113.875 483.084,113.875 481.841,115.117 C480.599,116.359 480.599,118.374 481.841,119.616 L494.568,132.342 L494.568,127.843 L481.841,140.569 C480.599,141.811 480.599,143.826 481.841,145.068 C483.084,146.311 485.098,146.311 486.341,145.068 Z" />
        </g>
        <g id="Black-M" transform="translate(0,200)">
            <path d="M661.818,91.915 L661.818,111.004 C661.818,112.209 662.499,113.31 663.577,113.849 L669.941,117.031 C671.513,117.817 673.424,117.18 674.21,115.608 C674.996,114.036 674.358,112.125 672.787,111.34 L666.423,108.158 L668.182,111.004 L668.182,91.915 C668.182,90.158 666.757,88.733 665,88.733 C663.243,88.733 661.818,90.158 661.818,91.915 Z" />
            <path d="M669.296,139.307 C657.455,141.103 645.747,135.342 639.947,124.865 C634.146,114.388 635.479,101.409 643.287,92.329 C651.096,83.249 663.73,79.987 674.959,84.152 C686.188,88.316 693.639,99.028 693.636,111.003 C693.636,112.76 695.06,114.185 696.818,114.185 C698.575,114.186 700,112.761 700,111.004 C700.003,96.368 690.896,83.276 677.172,78.186 C663.448,73.096 648.006,77.083 638.462,88.181 C628.919,99.278 627.29,115.142 634.379,127.947 C641.468,140.752 655.778,147.794 670.25,145.598 C671.988,145.335 673.182,143.713 672.919,141.975 C672.655,140.238 671.033,139.044 669.296,139.307 Z" />
            <path d="M671.364,133.274 L696.818,133.274 C698.575,133.274 700,131.85 700,130.093 C700,128.336 698.575,126.911 696.818,126.911 L671.364,126.911 C669.607,126.911 668.182,128.336 668.182,130.093 C668.182,131.85 669.607,133.274 671.364,133.274 Z" />
            <path d="M686.341,145.068 L699.068,132.342 C700.311,131.1 700.311,129.085 699.068,127.843 L686.341,115.117 C685.098,113.875 683.084,113.875 681.841,115.117 C680.599,116.359 680.599,118.374 681.841,119.616 L694.568,132.342 L694.568,127.843 L681.841,140.569 C680.599,141.811 680.599,143.826 681.841,145.068 C683.084,146.311 685.098,146.311 686.341,145.068 Z" />
        </g>
    </g>
</svg>