<?xml version="1.0" encoding="UTF-8"?>
<svg height="600" width="800" xmlns="http://www.w3.org/2000/svg" xmlns:xlink="http://www.w3.org/1999/xlink">
    <g id="Notes" font-family="LucidaGrande, 'Lucida Grande', sans-serif" font-size="13">
        <rect fill="white" height="600.0" width="800.0" x="0.0" y="0.0" />
        <g font-size="13">
            <text x="18.0" y="176.0">Small</text>
            <text x="18.0" y="376.0">Medium</text>
            <text x="18.0" y="576.0">Large</text>
        </g>
        <g font-size="9">
            <text x="250.0" y="30.0">Ultralight</text>
            <text x="450.0" y="30.0">Regular</text>
            <text x="650.0" y="30.0">Black</text>
            <text id="template-version" fill="#505050" text-anchor="end" x="785.0" y="575.0">Template v.3.0</text>
            <a href="https://github.com/swhitty/SwiftDraw">
                <text fill="#505050" text-anchor="end" x="785.0" y="590.0">https://github.com/swhitty/SwiftDraw</text>
            </a>
        </g>
    </g>
    <g id="Guides" stroke="rgb(39, 170, 225)" stroke-width="0.5">
        <path id="Capline-S" d="M18,76 l800,0" />
        <path id="H-reference" d="M85,145.755 L87.685,145.755 L113.369,79.287 L114.052,79.287 L114.052,76 L112.148,76 L85,145.755 Z M95.693,121.536 L130.996,121.536 L130.263,119.313 L96.474,119.313 L95.693,121.536 Z M139.15,145.755 L141.787,145.755 L114.638,76 L113.466,76 L113.466,79.287 L139.15,145.755 Z" stroke="none" transform="translate(0,200)" />
        <path id="Baseline-S" d="M18,146 l800,0" />
        <path id="left-margin-Ultralight-M" d="M221,256 l0,110" />
        <path id="right-margin-Ultralight-M" d="M309,256 l0,110" />
        <path id="left-margin-Regular-M" d="M421,256 l0,110" />
        <path id="right-margin-Regular-M" d="M509,256 l0,110" />
        <path id="left-margin-Black-M" d="M621,256 l0,110" />
        <path id="right-margin-Black-M" d="M709,256 l0,110" />
        <path id="Capline-M" d="M18,276 l800,0" />
        <path id="Baseline-M" d="M18,346 l800,0" />
        <path id="Capline-L" d="M18,476 l800,0" />
        <path id="Baseline-L" d="M18,546 l800,0" />
    </g>
    <g id="Symbols">
        <g id="Ultralight-M" transform="translate(0,200)">
            <path d="M286.172,86.128 L242.172,128.499 L247.828,128.499 L227.828,109.239 C226.266,107.735 223.734,107.735 222.172,109.239 C220.609,110.744 220.609,113.182 222.172,114.687 L242.172,133.946 C243.734,135.45 246.266,135.45 247.828,133.946 L291.828,91.576 C293.391,90.071 293.391,87.632 291.828,86.128 C290.266,84.624 287.734,84.624 286.172,86.128 Z" />
            <path d="M302.172,101.536 L272.172,130.424 L277.828,130.424 L271.828,124.647 C270.266,123.142 267.734,123.142 266.172,124.647 C264.609,126.151 264.609,128.59 266.172,130.094 L272.172,135.872 C273.734,137.376 276.266,137.376 277.828,135.872 L307.828,106.983 C309.391,105.479 309.391,103.04 307.828,101.536 C306.266,100.031 303.734,100.031 302.172,101.536 Z" />
        </g>
        <g id="Regular-M" transform="translate(0,200)">
            <path d="M486.172,86.128 L442.172,128.499 L447.828,128.499 L427.828,109.239 C426.266,107.735 423.734,107.735 422.172,109.239 C420.609,110.744 420.609,113.182 422.172,114.687 L442.172,133.946 C443.734,135.45 446.266,135.45 447.828,133.946 L491.828,91.576 C493.391,90.071 493.391,87.632 491.828,86.128 C490.266,84.624 487.734,84.624 486.172,86.128 Z" />
            <path d="M502.172,101.536 L472.172,130.424 L477.828,130.424 L471.828,124.647 C470.266,123.142 467.734,123.142 466.172,124.647 C464.609,126.151 464.609,128.59 466.172,130.094 L472.172,135.872 C473.734,137.376 476.266,137.376 477.828,135.872 L507.828,106.983 C509.391,105.479 509.391,103.04 507.828,101.536 C506.266,100.031 503.734,100.031 502.172,101.536 Z" />
        </g>
        <g id="Black-M" transform="translate(0,200)">
            <path d="M686.172,86.128 L642.172,128.499 L647.828,128.499 L627.828,109.239 C626.266,107.735 623.734,107.735 622.172,109.239 C620.609,110.744 620.609,113.182 622.172,114.687 L642.172,133.946 C643.734,135.45 646.266,135.45 647.828,133.946 L691.828,91.576 C693.391,90.071 693.391,87.632 691.828,86.128 C690.266,84.624 687.734,84.624 686.172,86.128 Z" />
            <path d="M702.172,101.536 L672.172,130.424 L677.828,130.424 L671.828,124.647 C670.266,123.142 667.734,123.142 666.172,124.647 C664.609,126.151 664.609,128.59 666.172,130.094 L672.172,135.872 C673.734,137.376 676.266,137.376 677.828,135.872 L707.828,106.983 C709.391,105.479 709.391,103.04 707.828,101.536 C706.266,100.031 703.734,100.031 702.172,101.536 Z" />
        </g>
    </g>
</svg>