<?xml version="1.0" encoding="UTF-8"?>
<svg height="600" width="800" xmlns="http://www.w3.org/2000/svg" xmlns:xlink="http://www.w3.org/1999/xlink">
    <g id="Notes" font-family="LucidaGrande, 'Lucida Grande', sans-serif" font-size="13">
        <rect fill="white" height="600.0" width="800.0" x="0.0" y="0.0" />
        <g font-size="13">
            <text x="18.0" y="176.0">Small</text>
            <text x="18.0" y="376.0">Medium</text>
            <text x="18.0" y="576.0">Large</text>
        </g>
        <g font-size="9">
            <text x="250.0" y="30.0">Ultralight</text>
            <text x="450.0" y="30.0">Regular</text>
            <text x="650.0" y="30.0">Black</text>
            <text id="template-version" fill="#505050" text-anchor="end" x="785.0" y="575.0">Template v.3.0</text>
            <a href="https://github.com/swhitty/SwiftDraw">
                <text fill="#505050" text-anchor="end" x="785.0" y="590.0">https://github.com/swhitty/SwiftDraw</text>
            </a>
        </g>
    </g>
    <g id="Guides" stroke="rgb(39, 170, 225)" stroke-width="0.5">
        <path id="Capline-S" d="M18,76 l800,0" />
        <path id="H-reference" d="M85,145.755 L87.685,145.755 L113.369,79.287 L114.052,79.287 L114.052,76 L112.148,76 L85,145.755 Z M95.693,121.536 L130.996,121.536 L130.263,119.313 L96.474,119.313 L95.693,121.536 Z M139.15,145.755 L141.787,145.755 L114.638,76 L113.466,76 L113.466,79.287 L139.15,145.755 Z" stroke="none" transform="translate(0,200)" />
        <path id="Baseline-S" d="M18,146 l800,0" />
        <path id="left-margin-Ultralight-M" d="M224.474,256 l0,110" />
        <path id="right-margin-Ultralight-M" d="M305.526,256 l0,110" />
        <path id="left-margin-Regular-M" d="M424.474,256 l0,110" />
        <path id="right-margin-Regular-M" d="M505.526,256 l0,110" />
        <path id="left-margin-Black-M" d="M624.474,256 l0,110" />
        <path id="right-margin-Black-M" d="M705.526,256 l0,110" />
        <path id="Capline-M" d="M18,276 l800,0" />
        <path id="Baseline-M" d="M18,346 l800,0" />
        <path id="Capline-L" d="M18,476 l800,0" />
        <path id="Baseline-L" d="M18,546 l800,0" />
    </g>
    <g id="Symbols">
        <g id="Ultralight-M" transform="translate(0,200)">
            <path d="M274.901,138.032 L278.302,136.674 C280.182,135.923 281.075,133.845 280.297,132.031 C279.519,130.217 277.364,129.356 275.484,130.106 L272.083,131.464 C270.203,132.214 269.31,134.293 270.088,136.107 C270.866,137.921 273.021,138.782 274.901,138.032 Z" />
            <path d="M278.305,121.947 L274.904,120.586 C273.025,119.834 270.869,120.694 270.089,122.507 C269.309,124.32 270.201,126.399 272.08,127.151 L275.481,128.513 C277.36,129.265 279.516,128.405 280.296,126.592 C281.075,124.779 280.184,122.7 278.305,121.947 Z" />
            <path d="M286.279,118.096 L284.868,114.816 C284.088,113.003 281.932,112.143 280.053,112.895 C278.173,113.647 277.282,115.727 278.062,117.54 L279.473,120.82 C280.253,122.633 282.408,123.493 284.288,122.741 C286.167,121.989 287.059,119.909 286.279,118.096 Z" />
            <path d="M279.472,137.801 L278.061,141.085 C277.282,142.898 278.174,144.978 280.054,145.729 C281.934,146.481 284.089,145.62 284.868,143.807 L286.279,140.523 C287.058,138.71 286.166,136.63 284.286,135.879 C282.407,135.127 280.251,135.988 279.472,137.801 Z" />
            <path d="M294.738,120.82 L296.149,117.54 C296.928,115.727 296.037,113.647 294.158,112.895 C292.278,112.143 290.123,113.003 289.343,114.816 L287.932,118.096 C287.152,119.909 288.043,121.989 289.923,122.741 C291.802,123.493 293.958,122.633 294.738,120.82 Z" />
            <path d="M296.147,141.088 L294.739,137.804 C293.962,135.99 291.808,135.128 289.927,135.877 C288.047,136.627 287.153,138.706 287.93,140.52 L289.337,143.804 C290.115,145.618 292.269,146.48 294.15,145.73 C296.03,144.98 296.924,142.902 296.147,141.088 Z" />
            <path d="M230.614,95.779 C250.193,78.885 279.807,78.885 299.386,95.779 C300.903,97.087 303.232,96.962 304.588,95.499 C305.945,94.036 305.815,91.789 304.298,90.48 C281.922,71.173 248.078,71.173 225.702,90.48 C224.185,91.789 224.055,94.036 225.412,95.499 C226.768,96.962 229.097,97.087 230.614,95.779 Z" />
            <path d="M298.729,128.513 L302.133,127.152 C304.012,126.4 304.905,124.321 304.126,122.508 C303.346,120.695 301.191,119.834 299.311,120.586 L295.907,121.947 C294.028,122.698 293.135,124.778 293.914,126.591 C294.694,128.404 296.849,129.265 298.729,128.513 Z" />
            <path d="M295.907,136.673 L299.311,138.035 C301.191,138.786 303.346,137.925 304.126,136.112 C304.905,134.299 304.012,132.22 302.133,131.468 L298.729,130.107 C296.849,129.355 294.694,130.216 293.914,132.029 C293.135,133.842 294.028,135.922 295.907,136.673 Z" />
            <path d="M241.789,110.02 C251.924,100.443 267.252,98.148 279.92,104.31 C281.737,105.194 283.952,104.49 284.869,102.737 C285.785,100.984 285.055,98.847 283.238,97.963 C267.755,90.432 249.02,93.237 236.633,104.942 C235.179,106.315 235.155,108.566 236.579,109.968 C238.002,111.37 240.335,111.393 241.789,110.02 Z" />
            <path d="M254.684,122.71 C256.648,120.853 259.112,119.563 261.797,118.986 C263.783,118.559 265.034,116.66 264.591,114.744 C264.149,112.828 262.18,111.621 260.194,112.048 C256.167,112.913 252.472,114.848 249.526,117.635 C248.073,119.009 248.05,121.259 249.474,122.661 C250.899,124.062 253.232,124.084 254.684,122.71 Z" />
            <path d="M279.737,129.31 C279.737,125.384 283.036,122.202 287.105,122.202 C291.175,122.202 294.474,125.384 294.474,129.31 C294.474,133.236 291.175,136.418 287.105,136.418 C283.036,136.418 279.737,133.236 279.737,129.31 Z M272.368,129.31 C272.368,137.161 278.966,143.526 287.105,143.526 C295.244,143.526 301.842,137.161 301.842,129.31 C301.842,121.459 295.244,115.094 287.105,115.094 C278.966,115.094 272.368,121.459 272.368,129.31 Z" />
        </g>
        <g id="Regular-M" transform="translate(0,200)">
            <path d="M474.901,138.032 L478.302,136.674 C480.182,135.923 481.075,133.845 480.297,132.031 C479.519,130.217 477.364,129.356 475.484,130.106 L472.083,131.464 C470.203,132.214 469.31,134.293 470.088,136.107 C470.866,137.921 473.021,138.782 474.901,138.032 Z" />
            <path d="M478.305,121.947 L474.904,120.586 C473.025,119.834 470.869,120.694 470.089,122.507 C469.309,124.32 470.201,126.399 472.08,127.151 L475.481,128.513 C477.36,129.265 479.516,128.405 480.296,126.592 C481.075,124.779 480.184,122.7 478.305,121.947 Z" />
            <path d="M486.279,118.096 L484.868,114.816 C484.088,113.003 481.932,112.143 480.053,112.895 C478.173,113.647 477.282,115.727 478.062,117.54 L479.473,120.82 C480.253,122.633 482.408,123.493 484.288,122.741 C486.167,121.989 487.059,119.909 486.279,118.096 Z" />
            <path d="M479.472,137.801 L478.061,141.085 C477.282,142.898 478.174,144.978 480.054,145.729 C481.934,146.481 484.089,145.62 484.868,143.807 L486.279,140.523 C487.058,138.71 486.166,136.63 484.287,135.879 C482.407,135.127 480.251,135.988 479.472,137.801 Z" />
            <path d="M494.738,120.82 L496.149,117.54 C496.929,115.727 496.037,113.647 494.158,112.895 C492.278,112.143 490.123,113.003 489.343,114.816 L487.932,118.096 C487.152,119.909 488.043,121.989 489.923,122.741 C491.802,123.493 493.958,122.633 494.738,120.82 Z" />
            <path d="M496.147,141.088 L494.739,137.804 C493.962,135.99 491.808,135.128 489.927,135.877 C488.047,136.627 487.153,138.706 487.93,140.52 L489.337,143.804 C490.115,145.618 492.269,146.48 494.15,145.73 C496.03,144.98 496.924,142.902 496.147,141.088 Z" />
            <path d="M430.614,95.779 C450.193,78.885 479.807,78.885 499.386,95.779 C500.903,97.087 503.232,96.962 504.588,95.499 C505.945,94.036 505.815,91.789 504.298,90.48 C481.922,71.173 448.078,71.173 425.702,90.48 C424.185,91.789 424.055,94.036 425.412,95.499 C426.768,96.962 429.097,97.087 430.614,95.779 Z" />
            <path d="M498.729,128.513 L502.133,127.152 C504.012,126.4 504.905,124.321 504.126,122.508 C503.346,120.695 501.191,119.834 499.311,120.586 L495.907,121.947 C494.028,122.698 493.135,124.778 493.914,126.591 C494.694,128.404 496.849,129.265 498.729,128.513 Z" />
            <path d="M495.907,136.673 L499.311,138.035 C501.191,138.786 503.346,137.925 504.126,136.112 C504.905,134.299 504.012,132.22 502.133,131.468 L498.729,130.107 C496.849,129.355 494.694,130.216 493.914,132.029 C493.135,133.842 494.028,135.922 495.907,136.673 Z" />
            <path d="M441.789,110.02 C451.924,100.443 467.252,98.148 479.92,104.31 C481.737,105.194 483.952,104.49 484.869,102.737 C485.785,100.984 485.055,98.847 483.238,97.963 C467.755,90.432 449.02,93.237 436.633,104.942 C435.179,106.315 435.155,108.566 436.579,109.968 C438.002,111.37 440.335,111.393 441.789,110.02 Z" />
            <path d="M454.685,122.71 C456.648,120.853 459.112,119.563 461.797,118.986 C463.783,118.559 465.034,116.66 464.591,114.744 C464.149,112.828 462.18,111.621 460.194,112.048 C456.167,112.913 452.472,114.848 449.526,117.635 C448.073,119.009 448.05,121.259 449.475,122.661 C450.899,124.062 453.232,124.084 454.685,122.71 Z" />
            <path d="M479.737,129.31 C479.737,125.384 483.036,122.202 487.105,122.202 C491.175,122.202 494.474,125.384 494.474,129.31 C494.474,133.236 491.175,136.418 487.105,136.418 C483.036,136.418 479.737,133.236 479.737,129.31 Z M472.368,129.31 C472.368,137.161 478.966,143.526 487.105,143.526 C495.244,143.526 501.842,137.161 501.842,129.31 C501.842,121.459 495.244,115.094 487.105,115.094 C478.966,115.094 472.368,121.459 472.368,129.31 Z" />
        </g>
        <g id="Black-M" transform="translate(0,200)">
            <path d="M674.901,138.032 L678.302,136.674 C680.182,135.923 681.075,133.845 680.297,132.031 C679.519,130.217 677.364,129.356 675.484,130.106 L672.083,131.464 C670.203,132.214 669.31,134.293 670.088,136.107 C670.866,137.921 673.021,138.782 674.901,138.032 Z" />
            <path d="M678.305,121.947 L674.904,120.586 C673.025,119.834 670.869,120.694 670.089,122.507 C669.309,124.32 670.201,126.399 672.08,127.151 L675.481,128.513 C677.36,129.265 679.516,128.405 680.296,126.592 C681.075,124.779 680.184,122.7 678.305,121.947 Z" />
            <path d="M686.279,118.096 L684.868,114.816 C684.088,113.003 681.932,112.143 680.053,112.895 C678.173,113.647 677.282,115.727 678.062,117.54 L679.473,120.82 C680.253,122.633 682.408,123.493 684.288,122.741 C686.167,121.989 687.059,119.909 686.279,118.096 Z" />
            <path d="M679.472,137.801 L678.061,141.085 C677.282,142.898 678.174,144.978 680.054,145.729 C681.934,146.481 684.089,145.62 684.868,143.807 L686.279,140.523 C687.058,138.71 686.166,136.63 684.286,135.879 C682.407,135.127 680.252,135.988 679.472,137.801 Z" />
            <path d="M694.738,120.82 L696.149,117.54 C696.929,115.727 696.037,113.647 694.158,112.895 C692.278,112.143 690.123,113.003 689.343,114.816 L687.932,118.096 C687.152,119.909 688.043,121.989 689.923,122.741 C691.802,123.493 693.958,122.633 694.738,120.82 Z" />
            <path d="M696.147,141.088 L694.74,137.804 C693.962,135.99 691.808,135.128 689.927,135.877 C688.047,136.627 687.153,138.706 687.93,140.52 L689.337,143.804 C690.115,145.618 692.269,146.48 694.15,145.73 C696.03,144.98 696.924,142.902 696.147,141.088 Z" />
            <path d="M630.614,95.779 C650.193,78.885 679.807,78.885 699.386,95.779 C700.903,97.087 703.232,96.962 704.588,95.499 C705.945,94.036 705.815,91.789 704.298,90.48 C681.922,71.173 648.078,71.173 625.702,90.48 C624.185,91.789 624.055,94.036 625.412,95.499 C626.768,96.962 629.097,97.087 630.614,95.779 Z" />
            <path d="M698.729,128.513 L702.133,127.152 C704.013,126.4 704.905,124.321 704.126,122.508 C703.346,120.695 701.191,119.834 699.311,120.586 L695.907,121.947 C694.028,122.698 693.135,124.778 693.914,126.591 C694.694,128.404 696.849,129.265 698.729,128.513 Z" />
            <path d="M695.907,136.673 L699.311,138.035 C701.191,138.786 703.346,137.925 704.126,136.112 C704.905,134.299 704.013,132.22 702.133,131.468 L698.729,130.107 C696.849,129.355 694.694,130.216 693.914,132.029 C693.135,133.842 694.028,135.922 695.907,136.673 Z" />
            <path d="M641.789,110.02 C651.924,100.443 667.252,98.148 679.92,104.31 C681.737,105.194 683.952,104.49 684.869,102.737 C685.785,100.984 685.055,98.847 683.238,97.963 C667.755,90.432 649.02,93.237 636.633,104.942 C635.179,106.315 635.155,108.566 636.579,109.968 C638.002,111.37 640.335,111.393 641.789,110.02 Z" />
            <path d="M654.685,122.71 C656.648,120.853 659.112,119.563 661.797,118.986 C663.783,118.559 665.034,116.66 664.591,114.744 C664.149,112.828 662.18,111.621 660.194,112.048 C656.167,112.913 652.472,114.848 649.526,117.635 C648.073,119.009 648.05,121.259 649.474,122.661 C650.899,124.062 653.232,124.084 654.685,122.71 Z" />
            <path d="M679.737,129.31 C679.737,125.384 683.036,122.202 687.105,122.202 C691.175,122.202 694.474,125.384 694.474,129.31 C694.474,133.236 691.175,136.418 687.105,136.418 C683.036,136.418 679.737,133.236 679.737,129.31 Z M672.368,129.31 C672.368,137.161 678.966,143.526 687.105,143.526 C695.244,143.526 701.842,137.161 701.842,129.31 C701.842,121.459 695.244,115.094 687.105,115.094 C678.966,115.094 672.368,121.459 672.368,129.31 Z" />
        </g>
    </g>
</svg>