<?xml version="1.0" encoding="UTF-8"?>
<svg height="600" width="800" xmlns="http://www.w3.org/2000/svg" xmlns:xlink="http://www.w3.org/1999/xlink">
    <g id="Notes" font-family="LucidaGrande, 'Lucida Grande', sans-serif" font-size="13">
        <rect fill="white" height="600.0" width="800.0" x="0.0" y="0.0" />
        <g font-size="13">
            <text x="18.0" y="176.0">Small</text>
            <text x="18.0" y="376.0">Medium</text>
            <text x="18.0" y="576.0">Large</text>
        </g>
        <g font-size="9">
            <text x="250.0" y="30.0">Ultralight</text>
            <text x="450.0" y="30.0">Regular</text>
            <text x="650.0" y="30.0">Black</text>
            <text id="template-version" fill="#505050" text-anchor="end" x="785.0" y="575.0">Template v.3.0</text>
            <a href="https://github.com/swhitty/SwiftDraw">
                <text fill="#505050" text-anchor="end" x="785.0" y="590.0">https://github.com/swhitty/SwiftDraw</text>
            </a>
        </g>
    </g>
    <g id="Guides" stroke="rgb(39, 170, 225)" stroke-width="0.5">
        <path id="Capline-S" d="M18,76 l800,0" />
        <path id="H-reference" d="M85,145.755 L87.685,145.755 L113.369,79.287 L114.052,79.287 L114.052,76 L112.148,76 L85,145.755 Z M95.693,121.536 L130.996,121.536 L130.263,119.313 L96.474,119.313 L95.693,121.536 Z M139.15,145.755 L141.787,145.755 L114.638,76 L113.466,76 L113.466,79.287 L139.15,145.755 Z" stroke="none" transform="translate(0,200)" />
        <path id="Baseline-S" d="M18,146 l800,0" />
        <path id="left-margin-Ultralight-M" d="M228.25,256 l0,110" />
        <path id="right-margin-Ultralight-M" d="M301.75,256 l0,110" />
        <path id="left-margin-Regular-M" d="M428.25,256 l0,110" />
        <path id="right-margin-Regular-M" d="M501.75,256 l0,110" />
        <path id="left-margin-Black-M" d="M628.25,256 l0,110" />
        <path id="right-margin-Black-M" d="M701.75,256 l0,110" />
        <path id="Capline-M" d="M18,276 l800,0" />
        <path id="Baseline-M" d="M18,346 l800,0" />
        <path id="Capline-L" d="M18,476 l800,0" />
        <path id="Baseline-L" d="M18,546 l800,0" />
    </g>
    <g id="Symbols">
        <g id="Ultralight-M" transform="translate(0,200)">
            <path d="M273.75,91.75 L273.75,100.5 C273.75,100.5 273.75,100.5 273.75,100.5 C273.75,100.5 273.75,100.5 273.75,100.5 L235.25,100.5 C235.25,100.5 235.25,100.5 235.25,100.5 C235.25,100.5 235.25,100.5 235.25,100.5 L235.25,83 C235.25,83 235.25,83 235.25,83 C235.25,83 235.25,83 235.25,83 L273.75,83 C273.75,83 273.75,83 273.75,83 C273.75,83 273.75,83 273.75,83 L273.75,91.75 Z M280.75,91.75 L280.75,83 C280.75,81.143 280.013,79.363 278.7,78.05 C277.387,76.737 275.607,76 273.75,76 L235.25,76 C233.393,76 231.613,76.737 230.3,78.05 C228.988,79.363 228.25,81.143 228.25,83 L228.25,100.5 C228.25,102.357 228.988,104.137 230.3,105.45 C231.613,106.763 233.393,107.5 235.25,107.5 L273.75,107.5 C275.607,107.5 277.387,106.762 278.7,105.45 C280.013,104.137 280.75,102.357 280.75,100.5 L280.75,91.75 Z" />
            <path d="M300.725,119.025 L290.225,108.525 L290.225,113.475 L300.725,102.975 C302.092,101.608 302.092,99.392 300.725,98.025 C299.358,96.658 297.142,96.658 295.775,98.025 L285.275,108.525 C283.908,109.892 283.908,112.108 285.275,113.475 L295.775,123.975 C297.142,125.342 299.358,125.342 300.725,123.975 C302.092,122.608 302.092,120.392 300.725,119.025 Z" />
            <path d="M273.75,130.25 L273.75,139 C273.75,139 273.75,139 273.75,139 C273.75,139 273.75,139 273.75,139 L235.25,139 C235.25,139 235.25,139 235.25,139 C235.25,139 235.25,139 235.25,139 L235.25,121.5 C235.25,121.5 235.25,121.5 235.25,121.5 C235.25,121.5 235.25,121.5 235.25,121.5 L273.75,121.5 C273.75,121.5 273.75,121.5 273.75,121.5 C273.75,121.5 273.75,121.5 273.75,121.5 L273.75,130.25 Z M280.75,130.25 L280.75,121.5 C280.75,119.643 280.013,117.863 278.7,116.55 C277.387,115.238 275.607,114.5 273.75,114.5 L235.25,114.5 C233.393,114.5 231.613,115.237 230.3,116.55 C228.988,117.863 228.25,119.643 228.25,121.5 L228.25,139 C228.25,140.857 228.987,142.637 230.3,143.95 C231.613,145.263 233.393,146 235.25,146 L273.75,146 C275.607,146 277.387,145.263 278.7,143.95 C280.013,142.637 280.75,140.857 280.75,139 L280.75,130.25 Z" />
        </g>
        <g id="Regular-M" transform="translate(0,200)">
            <path d="M473.75,91.75 L473.75,100.5 C473.75,100.5 473.75,100.5 473.75,100.5 C473.75,100.5 473.75,100.5 473.75,100.5 L435.25,100.5 C435.25,100.5 435.25,100.5 435.25,100.5 C435.25,100.5 435.25,100.5 435.25,100.5 L435.25,83 C435.25,83 435.25,83 435.25,83 C435.25,83 435.25,83 435.25,83 L473.75,83 C473.75,83 473.75,83 473.75,83 C473.75,83 473.75,83 473.75,83 L473.75,91.75 Z M480.75,91.75 L480.75,83 C480.75,81.143 480.013,79.363 478.7,78.05 C477.387,76.737 475.607,76 473.75,76 L435.25,76 C433.393,76 431.613,76.737 430.3,78.05 C428.987,79.363 428.25,81.143 428.25,83 L428.25,100.5 C428.25,102.357 428.987,104.137 430.3,105.45 C431.613,106.763 433.393,107.5 435.25,107.5 L473.75,107.5 C475.607,107.5 477.387,106.762 478.7,105.45 C480.013,104.137 480.75,102.357 480.75,100.5 L480.75,91.75 Z" />
            <path d="M500.725,119.025 L490.225,108.525 L490.225,113.475 L500.725,102.975 C502.092,101.608 502.092,99.392 500.725,98.025 C499.358,96.658 497.142,96.658 495.775,98.025 L485.275,108.525 C483.908,109.892 483.908,112.108 485.275,113.475 L495.775,123.975 C497.142,125.342 499.358,125.342 500.725,123.975 C502.092,122.608 502.092,120.392 500.725,119.025 Z" />
            <path d="M473.75,130.25 L473.75,139 C473.75,139 473.75,139 473.75,139 C473.75,139 473.75,139 473.75,139 L435.25,139 C435.25,139 435.25,139 435.25,139 C435.25,139 435.25,139 435.25,139 L435.25,121.5 C435.25,121.5 435.25,121.5 435.25,121.5 C435.25,121.5 435.25,121.5 435.25,121.5 L473.75,121.5 C473.75,121.5 473.75,121.5 473.75,121.5 C473.75,121.5 473.75,121.5 473.75,121.5 L473.75,130.25 Z M480.75,130.25 L480.75,121.5 C480.75,119.643 480.013,117.863 478.7,116.55 C477.387,115.238 475.607,114.5 473.75,114.5 L435.25,114.5 C433.393,114.5 431.613,115.237 430.3,116.55 C428.987,117.863 428.25,119.643 428.25,121.5 L428.25,139 C428.25,140.857 428.987,142.637 430.3,143.95 C431.613,145.263 433.393,146 435.25,146 L473.75,146 C475.607,146 477.387,145.263 478.7,143.95 C480.013,142.637 480.75,140.857 480.75,139 L480.75,130.25 Z" />
        </g>
        <g id="Black-M" transform="translate(0,200)">
            <path d="M673.75,91.75 L673.75,100.5 C673.75,100.5 673.75,100.5 673.75,100.5 C673.75,100.5 673.75,100.5 673.75,100.5 L635.25,100.5 C635.25,100.5 635.25,100.5 635.25,100.5 C635.25,100.5 635.25,100.5 635.25,100.5 L635.25,83 C635.25,83 635.25,83 635.25,83 C635.25,83 635.25,83 635.25,83 L673.75,83 C673.75,83 673.75,83 673.75,83 C673.75,83 673.75,83 673.75,83 L673.75,91.75 Z M680.75,91.75 L680.75,83 C680.75,81.143 680.013,79.363 678.7,78.05 C677.387,76.737 675.607,76 673.75,76 L635.25,76 C633.393,76 631.613,76.737 630.3,78.05 C628.987,79.363 628.25,81.143 628.25,83 L628.25,100.5 C628.25,102.357 628.987,104.137 630.3,105.45 C631.613,106.763 633.393,107.5 635.25,107.5 L673.75,107.5 C675.607,107.5 677.387,106.762 678.7,105.45 C680.013,104.137 680.75,102.357 680.75,100.5 L680.75,91.75 Z" />
            <path d="M700.725,119.025 L690.225,108.525 L690.225,113.475 L700.725,102.975 C702.092,101.608 702.092,99.392 700.725,98.025 C699.358,96.658 697.142,96.658 695.775,98.025 L685.275,108.525 C683.908,109.892 683.908,112.108 685.275,113.475 L695.775,123.975 C697.142,125.342 699.358,125.342 700.725,123.975 C702.092,122.608 702.092,120.392 700.725,119.025 Z" />
            <path d="M673.75,130.25 L673.75,139 C673.75,139 673.75,139 673.75,139 C673.75,139 673.75,139 673.75,139 L635.25,139 C635.25,139 635.25,139 635.25,139 C635.25,139 635.25,139 635.25,139 L635.25,121.5 C635.25,121.5 635.25,121.5 635.25,121.5 C635.25,121.5 635.25,121.5 635.25,121.5 L673.75,121.5 C673.75,121.5 673.75,121.5 673.75,121.5 C673.75,121.5 673.75,121.5 673.75,121.5 L673.75,130.25 Z M680.75,130.25 L680.75,121.5 C680.75,119.643 680.013,117.863 678.7,116.55 C677.387,115.238 675.607,114.5 673.75,114.5 L635.25,114.5 C633.393,114.5 631.613,115.237 630.3,116.55 C628.987,117.863 628.25,119.643 628.25,121.5 L628.25,139 C628.25,140.857 628.987,142.637 630.3,143.95 C631.613,145.263 633.393,146 635.25,146 L673.75,146 C675.607,146 677.387,145.263 678.7,143.95 C680.013,142.637 680.75,140.857 680.75,139 L680.75,130.25 Z" />
        </g>
    </g>
</svg>