<?xml version="1.0" encoding="UTF-8"?>
<svg height="600" width="800" xmlns="http://www.w3.org/2000/svg" xmlns:xlink="http://www.w3.org/1999/xlink">
    <g id="Notes" font-family="LucidaGrande, 'Lucida Grande', sans-serif" font-size="13">
        <rect fill="white" height="600.0" width="800.0" x="0.0" y="0.0" />
        <g font-size="13">
            <text x="18.0" y="176.0">Small</text>
            <text x="18.0" y="376.0">Medium</text>
            <text x="18.0" y="576.0">Large</text>
        </g>
        <g font-size="9">
            <text x="250.0" y="30.0">Ultralight</text>
            <text x="450.0" y="30.0">Regular</text>
            <text x="650.0" y="30.0">Black</text>
            <text id="template-version" fill="#505050" text-anchor="end" x="785.0" y="575.0">Template v.3.0</text>
            <a href="https://github.com/swhitty/SwiftDraw">
                <text fill="#505050" text-anchor="end" x="785.0" y="590.0">https://github.com/swhitty/SwiftDraw</text>
            </a>
        </g>
    </g>
    <g id="Guides" stroke="rgb(39, 170, 225)" stroke-width="0.5">
        <path id="Capline-S" d="M18,76 l800,0" />
        <path id="H-reference" d="M85,145.755 L87.685,145.755 L113.369,79.287 L114.052,79.287 L114.052,76 L112.148,76 L85,145.755 Z M95.693,121.536 L130.996,121.536 L130.263,119.313 L96.474,119.313 L95.693,121.536 Z M139.15,145.755 L141.787,145.755 L114.638,76 L113.466,76 L113.466,79.287 L139.15,145.755 Z" stroke="none" transform="translate(0,200)" />
        <path id="Baseline-S" d="M18,146 l800,0" />
        <path id="left-margin-Ultralight-M" d="M230,256 l0,110" />
        <path id="right-margin-Ultralight-M" d="M300,256 l0,110" />
        <path id="left-margin-Regular-M" d="M430,256 l0,110" />
        <path id="right-margin-Regular-M" d="M500,256 l0,110" />
        <path id="left-margin-Black-M" d="M630,256 l0,110" />
        <path id="right-margin-Black-M" d="M700,256 l0,110" />
        <path id="Capline-M" d="M18,276 l800,0" />
        <path id="Baseline-M" d="M18,346 l800,0" />
        <path id="Capline-L" d="M18,476 l800,0" />
        <path id="Baseline-L" d="M18,546 l800,0" />
    </g>
    <g id="Symbols">
        <g id="Ultralight-M" transform="translate(0,200)">
            <path d="M293,91.75 L293,100.5 C293,100.5 293,100.5 293,100.5 C293,100.5 293,100.5 293,100.5 L237,100.5 C237,100.5 237,100.5 237,100.5 C237,100.5 237,100.5 237,100.5 L237,83 C237,83 237,83 237,83 C237,83 237,83 237,83 L293,83 C293,83 293,83 293,83 C293,83 293,83 293,83 L293,91.75 Z M300,91.75 L300,83 C300,81.143 299.263,79.363 297.95,78.05 C296.637,76.737 294.857,76 293,76 L237,76 C235.143,76 233.363,76.737 232.05,78.05 C230.738,79.363 230,81.143 230,83 L230,100.5 C230,102.357 230.738,104.137 232.05,105.45 C233.363,106.763 235.143,107.5 237,107.5 L293,107.5 C294.857,107.5 296.637,106.763 297.95,105.45 C299.263,104.137 300,102.357 300,100.5 L300,91.75 Z" />
            <path d="M261.5,130.25 L261.5,139 C261.5,139 261.5,139 261.5,139 C261.5,139 261.5,139 261.5,139 L237,139 C237,139 237,139 237,139 C237,139 237,139 237,139 L237,121.5 C237,121.5 237,121.5 237,121.5 C237,121.5 237,121.5 237,121.5 L261.5,121.5 C261.5,121.5 261.5,121.5 261.5,121.5 C261.5,121.5 261.5,121.5 261.5,121.5 L261.5,130.25 Z M268.5,130.25 L268.5,121.5 C268.5,119.643 267.763,117.863 266.45,116.55 C265.137,115.238 263.357,114.5 261.5,114.5 L237,114.5 C235.143,114.5 233.363,115.237 232.05,116.55 C230.738,117.863 230,119.643 230,121.5 L230,139 C230,140.857 230.737,142.637 232.05,143.95 C233.363,145.263 235.143,146 237,146 L261.5,146 C263.357,146 265.137,145.263 266.45,143.95 C267.763,142.637 268.5,140.857 268.5,139 L268.5,130.25 Z" />
            <path d="M293,130.25 L293,139 C293,139 293,139 293,139 C293,139 293,139 293,139 L282.5,139 C282.5,139 282.5,139 282.5,139 C282.5,139 282.5,139 282.5,139 L282.5,121.5 C282.5,121.5 282.5,121.5 282.5,121.5 C282.5,121.5 282.5,121.5 282.5,121.5 L293,121.5 C293,121.5 293,121.5 293,121.5 C293,121.5 293,121.5 293,121.5 L293,130.25 Z M300,130.25 L300,121.5 C300,119.643 299.263,117.863 297.95,116.55 C296.637,115.237 294.857,114.5 293,114.5 L282.5,114.5 C280.643,114.5 278.863,115.238 277.55,116.55 C276.237,117.863 275.5,119.643 275.5,121.5 L275.5,139 C275.5,140.857 276.237,142.637 277.55,143.95 C278.863,145.263 280.643,146 282.5,146 L293,146 C294.857,146 296.637,145.263 297.95,143.95 C299.263,142.637 300,140.857 300,139 L300,130.25 Z" />
        </g>
        <g id="Regular-M" transform="translate(0,200)">
            <path d="M493,91.75 L493,100.5 C493,100.5 493,100.5 493,100.5 C493,100.5 493,100.5 493,100.5 L437,100.5 C437,100.5 437,100.5 437,100.5 C437,100.5 437,100.5 437,100.5 L437,83 C437,83 437,83 437,83 C437,83 437,83 437,83 L493,83 C493,83 493,83 493,83 C493,83 493,83 493,83 L493,91.75 Z M500,91.75 L500,83 C500,81.143 499.263,79.363 497.95,78.05 C496.637,76.737 494.857,76 493,76 L437,76 C435.143,76 433.363,76.737 432.05,78.05 C430.737,79.363 430,81.143 430,83 L430,100.5 C430,102.357 430.737,104.137 432.05,105.45 C433.363,106.763 435.143,107.5 437,107.5 L493,107.5 C494.857,107.5 496.637,106.763 497.95,105.45 C499.263,104.137 500,102.357 500,100.5 L500,91.75 Z" />
            <path d="M461.5,130.25 L461.5,139 C461.5,139 461.5,139 461.5,139 C461.5,139 461.5,139 461.5,139 L437,139 C437,139 437,139 437,139 C437,139 437,139 437,139 L437,121.5 C437,121.5 437,121.5 437,121.5 C437,121.5 437,121.5 437,121.5 L461.5,121.5 C461.5,121.5 461.5,121.5 461.5,121.5 C461.5,121.5 461.5,121.5 461.5,121.5 L461.5,130.25 Z M468.5,130.25 L468.5,121.5 C468.5,119.643 467.763,117.863 466.45,116.55 C465.137,115.238 463.357,114.5 461.5,114.5 L437,114.5 C435.143,114.5 433.363,115.237 432.05,116.55 C430.737,117.863 430,119.643 430,121.5 L430,139 C430,140.857 430.737,142.637 432.05,143.95 C433.363,145.263 435.143,146 437,146 L461.5,146 C463.357,146 465.137,145.263 466.45,143.95 C467.763,142.637 468.5,140.857 468.5,139 L468.5,130.25 Z" />
            <path d="M493,130.25 L493,139 C493,139 493,139 493,139 C493,139 493,139 493,139 L482.5,139 C482.5,139 482.5,139 482.5,139 C482.5,139 482.5,139 482.5,139 L482.5,121.5 C482.5,121.5 482.5,121.5 482.5,121.5 C482.5,121.5 482.5,121.5 482.5,121.5 L493,121.5 C493,121.5 493,121.5 493,121.5 C493,121.5 493,121.5 493,121.5 L493,130.25 Z M500,130.25 L500,121.5 C500,119.643 499.263,117.863 497.95,116.55 C496.637,115.237 494.857,114.5 493,114.5 L482.5,114.5 C480.643,114.5 478.863,115.238 477.55,116.55 C476.237,117.863 475.5,119.643 475.5,121.5 L475.5,139 C475.5,140.857 476.237,142.637 477.55,143.95 C478.863,145.263 480.643,146 482.5,146 L493,146 C494.857,146 496.637,145.263 497.95,143.95 C499.263,142.637 500,140.857 500,139 L500,130.25 Z" />
        </g>
        <g id="Black-M" transform="translate(0,200)">
            <path d="M693,91.75 L693,100.5 C693,100.5 693,100.5 693,100.5 C693,100.5 693,100.5 693,100.5 L637,100.5 C637,100.5 637,100.5 637,100.5 C637,100.5 637,100.5 637,100.5 L637,83 C637,83 637,83 637,83 C637,83 637,83 637,83 L693,83 C693,83 693,83 693,83 C693,83 693,83 693,83 L693,91.75 Z M700,91.75 L700,83 C700,81.143 699.263,79.363 697.95,78.05 C696.637,76.737 694.857,76 693,76 L637,76 C635.143,76 633.363,76.737 632.05,78.05 C630.737,79.363 630,81.143 630,83 L630,100.5 C630,102.357 630.737,104.137 632.05,105.45 C633.363,106.763 635.143,107.5 637,107.5 L693,107.5 C694.857,107.5 696.637,106.763 697.95,105.45 C699.263,104.137 700,102.357 700,100.5 L700,91.75 Z" />
            <path d="M661.5,130.25 L661.5,139 C661.5,139 661.5,139 661.5,139 C661.5,139 661.5,139 661.5,139 L637,139 C637,139 637,139 637,139 C637,139 637,139 637,139 L637,121.5 C637,121.5 637,121.5 637,121.5 C637,121.5 637,121.5 637,121.5 L661.5,121.5 C661.5,121.5 661.5,121.5 661.5,121.5 C661.5,121.5 661.5,121.5 661.5,121.5 L661.5,130.25 Z M668.5,130.25 L668.5,121.5 C668.5,119.643 667.763,117.863 666.45,116.55 C665.137,115.238 663.357,114.5 661.5,114.5 L637,114.5 C635.143,114.5 633.363,115.237 632.05,116.55 C630.737,117.863 630,119.643 630,121.5 L630,139 C630,140.857 630.737,142.637 632.05,143.95 C633.363,145.263 635.143,146 637,146 L661.5,146 C663.357,146 665.137,145.263 666.45,143.95 C667.763,142.637 668.5,140.857 668.5,139 L668.5,130.25 Z" />
            <path d="M693,130.25 L693,139 C693,139 693,139 693,139 C693,139 693,139 693,139 L682.5,139 C682.5,139 682.5,139 682.5,139 C682.5,139 682.5,139 682.5,139 L682.5,121.5 C682.5,121.5 682.5,121.5 682.5,121.5 C682.5,121.5 682.5,121.5 682.5,121.5 L693,121.5 C693,121.5 693,121.5 693,121.5 C693,121.5 693,121.5 693,121.5 L693,130.25 Z M700,130.25 L700,121.5 C700,119.643 699.263,117.863 697.95,116.55 C696.637,115.237 694.857,114.5 693,114.5 L682.5,114.5 C680.643,114.5 678.863,115.238 677.55,116.55 C676.237,117.863 675.5,119.643 675.5,121.5 L675.5,139 C675.5,140.857 676.237,142.637 677.55,143.95 C678.863,145.263 680.643,146 682.5,146 L693,146 C694.857,146 696.637,145.263 697.95,143.95 C699.263,142.637 700,140.857 700,139 L700,130.25 Z" />
        </g>
    </g>
</svg>