<?xml version="1.0" encoding="UTF-8"?>
<svg height="600" width="800" xmlns="http://www.w3.org/2000/svg" xmlns:xlink="http://www.w3.org/1999/xlink">
    <g id="Notes" font-family="LucidaGrande, 'Lucida Grande', sans-serif" font-size="13">
        <rect fill="white" height="600.0" width="800.0" x="0.0" y="0.0" />
        <g font-size="13">
            <text x="18.0" y="176.0">Small</text>
            <text x="18.0" y="376.0">Medium</text>
            <text x="18.0" y="576.0">Large</text>
        </g>
        <g font-size="9">
            <text x="250.0" y="30.0">Ultralight</text>
            <text x="450.0" y="30.0">Regular</text>
            <text x="650.0" y="30.0">Black</text>
            <text id="template-version" fill="#505050" text-anchor="end" x="785.0" y="575.0">Template v.3.0</text>
            <a href="https://github.com/swhitty/SwiftDraw">
                <text fill="#505050" text-anchor="end" x="785.0" y="590.0">https://github.com/swhitty/SwiftDraw</text>
            </a>
        </g>
    </g>
    <g id="Guides" stroke="rgb(39, 170, 225)" stroke-width="0.5">
        <path id="Capline-S" d="M18,76 l800,0" />
        <path id="H-reference" d="M85,145.755 L87.685,145.755 L113.369,79.287 L114.052,79.287 L114.052,76 L112.148,76 L85,145.755 Z M95.693,121.536 L130.996,121.536 L130.263,119.313 L96.474,119.313 L95.693,121.536 Z M139.15,145.755 L141.787,145.755 L114.638,76 L113.466,76 L113.466,79.287 L139.15,145.755 Z" stroke="none" transform="translate(0,200)" />
        <path id="Baseline-S" d="M18,146 l800,0" />
        <path id="left-margin-Ultralight-M" d="M230,256 l0,110" />
        <path id="right-margin-Ultralight-M" d="M300,256 l0,110" />
        <path id="left-margin-Regular-M" d="M430,256 l0,110" />
        <path id="right-margin-Regular-M" d="M500,256 l0,110" />
        <path id="left-margin-Black-M" d="M630,256 l0,110" />
        <path id="right-margin-Black-M" d="M700,256 l0,110" />
        <path id="Capline-M" d="M18,276 l800,0" />
        <path id="Baseline-M" d="M18,346 l800,0" />
        <path id="Capline-L" d="M18,476 l800,0" />
        <path id="Baseline-L" d="M18,546 l800,0" />
    </g>
    <g id="Symbols">
        <g id="Ultralight-M" transform="translate(0,200)">
            <path d="M260.227,91.909 L287.273,91.909 C288.117,91.909 288.926,92.244 289.523,92.841 C290.119,93.438 290.455,94.247 290.455,95.091 L290.455,122.136 C290.455,123.894 291.879,125.318 293.636,125.318 C295.394,125.318 296.818,123.894 296.818,122.136 L296.818,95.091 C296.818,92.559 295.812,90.131 294.022,88.341 C292.232,86.551 289.804,85.545 287.273,85.545 L260.227,85.545 C258.47,85.545 257.045,86.97 257.045,88.727 C257.045,90.485 258.47,91.909 260.227,91.909 Z" />
            <path d="M280.909,104.636 L279.318,104.636 C277.561,104.636 276.136,106.061 276.136,107.818 C276.136,109.575 277.561,111 279.318,111 L280.909,111 C282.666,111 284.091,109.575 284.091,107.818 C284.091,106.061 282.666,104.636 280.909,104.636 Z" />
            <path d="M287.273,130.091 L242.727,130.091 C241.883,130.091 241.074,129.756 240.477,129.159 C239.881,128.562 239.545,127.753 239.545,126.909 L239.545,95.091 C239.545,94.247 239.881,93.438 240.477,92.841 C241.074,92.244 241.883,91.909 242.727,91.909 C244.485,91.909 245.909,90.485 245.909,88.727 C245.909,86.97 244.485,85.545 242.727,85.545 C240.196,85.545 237.768,86.551 235.978,88.341 C234.188,90.131 233.182,92.559 233.182,95.091 L233.182,126.909 C233.182,129.441 234.188,131.869 235.978,133.659 C237.768,135.449 240.196,136.455 242.727,136.455 L287.273,136.455 C289.03,136.455 290.455,135.03 290.455,133.273 C290.455,131.515 289.03,130.091 287.273,130.091 Z" />
            <path d="M230.932,81.432 L294.568,145.068 C295.811,146.311 297.826,146.311 299.068,145.068 C300.311,143.825 300.311,141.811 299.068,140.568 L235.432,76.932 C234.189,75.689 232.175,75.689 230.932,76.932 C229.689,78.175 229.689,80.189 230.932,81.432 Z" />
            <path d="M249.091,111 L261.818,111 C263.575,111 265,109.575 265,107.818 C265,106.061 263.575,104.636 261.818,104.636 L249.091,104.636 C247.334,104.636 245.909,106.061 245.909,107.818 C245.909,109.575 247.334,111 249.091,111 Z" />
            <path d="M249.091,123.727 L257.045,123.727 C258.803,123.727 260.227,122.303 260.227,120.545 C260.227,118.788 258.803,117.364 257.045,117.364 L249.091,117.364 C247.334,117.364 245.909,118.788 245.909,120.545 C245.909,122.303 247.334,123.727 249.091,123.727 Z" />
        </g>
        <g id="Regular-M" transform="translate(0,200)">
            <path d="M460.227,91.909 L487.273,91.909 C488.117,91.909 488.926,92.244 489.523,92.841 C490.119,93.438 490.455,94.247 490.455,95.091 L490.455,122.136 C490.455,123.894 491.879,125.318 493.636,125.318 C495.394,125.318 496.818,123.894 496.818,122.136 L496.818,95.091 C496.818,92.559 495.812,90.131 494.022,88.341 C492.232,86.551 489.804,85.545 487.273,85.545 L460.227,85.545 C458.47,85.545 457.045,86.97 457.045,88.727 C457.045,90.485 458.47,91.909 460.227,91.909 Z" />
            <path d="M480.909,104.636 L479.318,104.636 C477.561,104.636 476.136,106.061 476.136,107.818 C476.136,109.575 477.561,111 479.318,111 L480.909,111 C482.666,111 484.091,109.575 484.091,107.818 C484.091,106.061 482.666,104.636 480.909,104.636 Z" />
            <path d="M487.273,130.091 L442.727,130.091 C441.883,130.091 441.074,129.756 440.477,129.159 C439.881,128.562 439.545,127.753 439.545,126.909 L439.545,95.091 C439.545,94.247 439.881,93.438 440.477,92.841 C441.074,92.244 441.883,91.909 442.727,91.909 C444.485,91.909 445.909,90.485 445.909,88.727 C445.909,86.97 444.485,85.545 442.727,85.545 C440.196,85.545 437.768,86.551 435.978,88.341 C434.188,90.131 433.182,92.559 433.182,95.091 L433.182,126.909 C433.182,129.441 434.188,131.869 435.978,133.659 C437.768,135.449 440.196,136.455 442.727,136.455 L487.273,136.455 C489.03,136.455 490.455,135.03 490.455,133.273 C490.455,131.515 489.03,130.091 487.273,130.091 Z" />
            <path d="M430.932,81.432 L494.568,145.068 C495.811,146.311 497.826,146.311 499.068,145.068 C500.311,143.825 500.311,141.811 499.068,140.568 L435.432,76.932 C434.189,75.689 432.174,75.689 430.932,76.932 C429.689,78.175 429.689,80.189 430.932,81.432 Z" />
            <path d="M449.091,111 L461.818,111 C463.575,111 465,109.575 465,107.818 C465,106.061 463.575,104.636 461.818,104.636 L449.091,104.636 C447.334,104.636 445.909,106.061 445.909,107.818 C445.909,109.575 447.334,111 449.091,111 Z" />
            <path d="M449.091,123.727 L457.045,123.727 C458.803,123.727 460.227,122.303 460.227,120.545 C460.227,118.788 458.803,117.364 457.045,117.364 L449.091,117.364 C447.334,117.364 445.909,118.788 445.909,120.545 C445.909,122.303 447.334,123.727 449.091,123.727 Z" />
        </g>
        <g id="Black-M" transform="translate(0,200)">
            <path d="M660.227,91.909 L687.273,91.909 C688.117,91.909 688.926,92.244 689.523,92.841 C690.119,93.438 690.455,94.247 690.455,95.091 L690.455,122.136 C690.455,123.894 691.879,125.318 693.636,125.318 C695.394,125.318 696.818,123.894 696.818,122.136 L696.818,95.091 C696.818,92.559 695.812,90.131 694.022,88.341 C692.232,86.551 689.804,85.545 687.273,85.545 L660.227,85.545 C658.47,85.545 657.045,86.97 657.045,88.727 C657.045,90.485 658.47,91.909 660.227,91.909 Z" />
            <path d="M680.909,104.636 L679.318,104.636 C677.561,104.636 676.136,106.061 676.136,107.818 C676.136,109.575 677.561,111 679.318,111 L680.909,111 C682.666,111 684.091,109.575 684.091,107.818 C684.091,106.061 682.666,104.636 680.909,104.636 Z" />
            <path d="M687.273,130.091 L642.727,130.091 C641.883,130.091 641.074,129.756 640.477,129.159 C639.881,128.562 639.545,127.753 639.545,126.909 L639.545,95.091 C639.545,94.247 639.881,93.438 640.477,92.841 C641.074,92.244 641.883,91.909 642.727,91.909 C644.485,91.909 645.909,90.485 645.909,88.727 C645.909,86.97 644.485,85.545 642.727,85.545 C640.196,85.545 637.768,86.551 635.978,88.341 C634.188,90.131 633.182,92.559 633.182,95.091 L633.182,126.909 C633.182,129.441 634.188,131.869 635.978,133.659 C637.768,135.449 640.196,136.455 642.727,136.455 L687.273,136.455 C689.03,136.455 690.455,135.03 690.455,133.273 C690.455,131.515 689.03,130.091 687.273,130.091 Z" />
            <path d="M630.932,81.432 L694.568,145.068 C695.811,146.311 697.826,146.311 699.068,145.068 C700.311,143.825 700.311,141.811 699.068,140.568 L635.432,76.932 C634.189,75.689 632.174,75.689 630.932,76.932 C629.689,78.175 629.689,80.189 630.932,81.432 Z" />
            <path d="M649.091,111 L661.818,111 C663.575,111 665,109.575 665,107.818 C665,106.061 663.575,104.636 661.818,104.636 L649.091,104.636 C647.334,104.636 645.909,106.061 645.909,107.818 C645.909,109.575 647.334,111 649.091,111 Z" />
            <path d="M649.091,123.727 L657.045,123.727 C658.803,123.727 660.227,122.303 660.227,120.545 C660.227,118.788 658.803,117.364 657.045,117.364 L649.091,117.364 C647.334,117.364 645.909,118.788 645.909,120.545 C645.909,122.303 647.334,123.727 649.091,123.727 Z" />
        </g>
    </g>
</svg>