<?xml version="1.0" encoding="UTF-8"?>
<svg height="600" width="800" xmlns="http://www.w3.org/2000/svg" xmlns:xlink="http://www.w3.org/1999/xlink">
    <g id="Notes" font-family="LucidaGrande, 'Lucida Grande', sans-serif" font-size="13">
        <rect fill="white" height="600.0" width="800.0" x="0.0" y="0.0" />
        <g font-size="13">
            <text x="18.0" y="176.0">Small</text>
            <text x="18.0" y="376.0">Medium</text>
            <text x="18.0" y="576.0">Large</text>
        </g>
        <g font-size="9">
            <text x="250.0" y="30.0">Ultralight</text>
            <text x="450.0" y="30.0">Regular</text>
            <text x="650.0" y="30.0">Black</text>
            <text id="template-version" fill="#505050" text-anchor="end" x="785.0" y="575.0">Template v.3.0</text>
            <a href="https://github.com/swhitty/SwiftDraw">
                <text fill="#505050" text-anchor="end" x="785.0" y="590.0">https://github.com/swhitty/SwiftDraw</text>
            </a>
        </g>
    </g>
    <g id="Guides" stroke="rgb(39, 170, 225)" stroke-width="0.5">
        <path id="Capline-S" d="M18,76 l800,0" />
        <path id="H-reference" d="M85,145.755 L87.685,145.755 L113.369,79.287 L114.052,79.287 L114.052,76 L112.148,76 L85,145.755 Z M95.693,121.536 L130.996,121.536 L130.263,119.313 L96.474,119.313 L95.693,121.536 Z M139.15,145.755 L141.787,145.755 L114.638,76 L113.466,76 L113.466,79.287 L139.15,145.755 Z" stroke="none" transform="translate(0,200)" />
        <path id="Baseline-S" d="M18,146 l800,0" />
        <path id="left-margin-Ultralight-M" d="M237.955,256 l0,110" />
        <path id="right-margin-Ultralight-M" d="M292.045,256 l0,110" />
        <path id="left-margin-Regular-M" d="M437.955,256 l0,110" />
        <path id="right-margin-Regular-M" d="M492.045,256 l0,110" />
        <path id="left-margin-Black-M" d="M637.955,256 l0,110" />
        <path id="right-margin-Black-M" d="M692.045,256 l0,110" />
        <path id="Capline-M" d="M18,276 l800,0" />
        <path id="Baseline-M" d="M18,346 l800,0" />
        <path id="Capline-L" d="M18,476 l800,0" />
        <path id="Baseline-L" d="M18,546 l800,0" />
    </g>
    <g id="Symbols">
        <g id="Ultralight-M" transform="translate(0,200)">
            <path d="M258.999,82.364 L271.025,82.364 C272.685,82.364 274.031,80.939 274.031,79.182 C274.031,77.425 272.685,76 271.025,76 L258.999,76 C257.339,76 255.993,77.425 255.993,79.182 C255.993,80.939 257.339,82.364 258.999,82.364 Z" />
            <path d="M268.018,117.364 L268.018,104.636 C268.018,102.879 266.672,101.454 265.012,101.454 C263.351,101.454 262.005,102.879 262.005,104.636 L262.005,117.364 C262.005,119.121 263.351,120.545 265.012,120.545 C266.672,120.545 268.018,119.121 268.018,117.364 Z" />
            <path d="M243.944,114.579 C245.277,103.377 254.32,95.002 264.988,95.091 C274.368,95.101 282.595,101.652 285.2,111.166 C287.804,120.68 284.159,130.871 276.254,136.174 C268.35,141.478 258.086,140.62 251.067,134.068 L242.958,126.44 C241.717,125.272 239.817,125.391 238.714,126.704 C237.611,128.018 237.723,130.029 238.964,131.196 L247.081,138.832 C256.114,147.264 269.311,148.368 279.474,141.549 C289.636,134.73 294.323,121.628 290.975,109.395 C287.627,97.163 277.048,88.741 265.015,88.727 C251.319,88.614 239.692,99.381 237.978,113.784 C237.771,115.528 238.938,117.119 240.585,117.339 C242.233,117.558 243.736,116.323 243.944,114.579 Z" />
            <path d="M255.993,123.727 L240.961,123.727 C239.301,123.727 237.955,125.152 237.955,126.909 L237.955,142.818 C237.955,144.575 239.301,146 240.961,146 C242.621,146 243.967,144.575 243.967,142.818 L243.967,126.909 L240.961,130.091 L255.993,130.091 C257.653,130.091 258.999,128.666 258.999,126.909 C258.999,125.152 257.653,123.727 255.993,123.727 Z" />
        </g>
        <g id="Regular-M" transform="translate(0,200)">
            <path d="M458.999,82.364 L471.025,82.364 C472.685,82.364 474.031,80.939 474.031,79.182 C474.031,77.425 472.685,76 471.025,76 L458.999,76 C457.339,76 455.993,77.425 455.993,79.182 C455.993,80.939 457.339,82.364 458.999,82.364 Z" />
            <path d="M468.018,117.364 L468.018,104.636 C468.018,102.879 466.672,101.454 465.012,101.454 C463.351,101.454 462.005,102.879 462.005,104.636 L462.005,117.364 C462.005,119.121 463.351,120.545 465.012,120.545 C466.672,120.545 468.018,119.121 468.018,117.364 Z" />
            <path d="M443.944,114.579 C445.277,103.377 454.32,95.002 464.988,95.091 C474.368,95.101 482.595,101.652 485.2,111.166 C487.804,120.68 484.159,130.871 476.254,136.174 C468.35,141.478 458.086,140.62 451.067,134.068 L442.958,126.44 C441.717,125.272 439.817,125.391 438.714,126.704 C437.611,128.018 437.723,130.029 438.964,131.196 L447.081,138.832 C456.114,147.264 469.311,148.368 479.474,141.549 C489.636,134.73 494.323,121.628 490.975,109.395 C487.627,97.163 477.048,88.741 465.015,88.727 C451.319,88.614 439.692,99.381 437.978,113.784 C437.771,115.528 438.938,117.119 440.585,117.339 C442.233,117.558 443.736,116.323 443.944,114.579 Z" />
            <path d="M455.993,123.727 L440.961,123.727 C439.301,123.727 437.955,125.152 437.955,126.909 L437.955,142.818 C437.955,144.575 439.301,146 440.961,146 C442.621,146 443.967,144.575 443.967,142.818 L443.967,126.909 L440.961,130.091 L455.993,130.091 C457.653,130.091 458.999,128.666 458.999,126.909 C458.999,125.152 457.653,123.727 455.993,123.727 Z" />
        </g>
        <g id="Black-M" transform="translate(0,200)">
            <path d="M658.999,82.364 L671.024,82.364 C672.685,82.364 674.031,80.939 674.031,79.182 C674.031,77.425 672.685,76 671.024,76 L658.999,76 C657.339,76 655.993,77.425 655.993,79.182 C655.993,80.939 657.339,82.364 658.999,82.364 Z" />
            <path d="M668.018,117.364 L668.018,104.636 C668.018,102.879 666.672,101.454 665.012,101.454 C663.351,101.454 662.005,102.879 662.005,104.636 L662.005,117.364 C662.005,119.121 663.351,120.545 665.012,120.545 C666.672,120.545 668.018,119.121 668.018,117.364 Z" />
            <path d="M643.944,114.579 C645.277,103.377 654.32,95.002 664.988,95.091 C674.368,95.101 682.595,101.652 685.2,111.166 C687.804,120.68 684.159,130.871 676.254,136.174 C668.35,141.478 658.086,140.62 651.067,134.068 L642.958,126.44 C641.717,125.272 639.817,125.391 638.714,126.704 C637.611,128.018 637.723,130.029 638.964,131.196 L647.081,138.832 C656.114,147.264 669.311,148.368 679.474,141.549 C689.636,134.73 694.323,121.628 690.975,109.395 C687.627,97.163 677.048,88.741 665.015,88.727 C651.319,88.614 639.692,99.381 637.978,113.784 C637.771,115.528 638.938,117.119 640.585,117.339 C642.233,117.558 643.736,116.323 643.944,114.579 Z" />
            <path d="M655.993,123.727 L640.961,123.727 C639.301,123.727 637.955,125.152 637.955,126.909 L637.955,142.818 C637.955,144.575 639.301,146 640.961,146 C642.621,146 643.967,144.575 643.967,142.818 L643.967,126.909 L640.961,130.091 L655.993,130.091 C657.653,130.091 658.999,128.666 658.999,126.909 C658.999,125.152 657.653,123.727 655.993,123.727 Z" />
        </g>
    </g>
</svg>