<?xml version="1.0" encoding="UTF-8"?>
<svg height="600" width="800" xmlns="http://www.w3.org/2000/svg" xmlns:xlink="http://www.w3.org/1999/xlink">
    <g id="Notes" font-family="LucidaGrande, 'Lucida Grande', sans-serif" font-size="13">
        <rect fill="white" height="600.0" width="800.0" x="0.0" y="0.0" />
        <g font-size="13">
            <text x="18.0" y="176.0">Small</text>
            <text x="18.0" y="376.0">Medium</text>
            <text x="18.0" y="576.0">Large</text>
        </g>
        <g font-size="9">
            <text x="250.0" y="30.0">Ultralight</text>
            <text x="450.0" y="30.0">Regular</text>
            <text x="650.0" y="30.0">Black</text>
            <text id="template-version" fill="#505050" text-anchor="end" x="785.0" y="575.0">Template v.3.0</text>
            <a href="https://github.com/swhitty/SwiftDraw">
                <text fill="#505050" text-anchor="end" x="785.0" y="590.0">https://github.com/swhitty/SwiftDraw</text>
            </a>
        </g>
    </g>
    <g id="Guides" stroke="rgb(39, 170, 225)" stroke-width="0.5">
        <path id="Capline-S" d="M18,76 l800,0" />
        <path id="H-reference" d="M85,145.755 L87.685,145.755 L113.369,79.287 L114.052,79.287 L114.052,76 L112.148,76 L85,145.755 Z M95.693,121.536 L130.996,121.536 L130.263,119.313 L96.474,119.313 L95.693,121.536 Z M139.15,145.755 L141.787,145.755 L114.638,76 L113.466,76 L113.466,79.287 L139.15,145.755 Z" stroke="none" transform="translate(0,200)" />
        <path id="Baseline-S" d="M18,146 l800,0" />
        <path id="left-margin-Ultralight-M" d="M230,256 l0,110" />
        <path id="right-margin-Ultralight-M" d="M300,256 l0,110" />
        <path id="left-margin-Regular-M" d="M430,256 l0,110" />
        <path id="right-margin-Regular-M" d="M500,256 l0,110" />
        <path id="left-margin-Black-M" d="M630,256 l0,110" />
        <path id="right-margin-Black-M" d="M700,256 l0,110" />
        <path id="Capline-M" d="M18,276 l800,0" />
        <path id="Baseline-M" d="M18,346 l800,0" />
        <path id="Capline-L" d="M18,476 l800,0" />
        <path id="Baseline-L" d="M18,546 l800,0" />
    </g>
    <g id="Symbols">
        <g id="Ultralight-M" transform="translate(0,200)">
            <path d="M280.909,111 L280.909,136.455 C280.909,137.298 280.574,138.108 279.977,138.704 C279.38,139.301 278.571,139.636 277.727,139.636 L252.273,139.636 C251.429,139.636 250.62,139.301 250.023,138.704 C249.426,138.108 249.091,137.298 249.091,136.455 L249.091,85.545 C249.091,84.702 249.426,83.892 250.023,83.296 C250.62,82.699 251.429,82.364 252.273,82.364 L277.727,82.364 C278.571,82.364 279.38,82.699 279.977,83.296 C280.574,83.892 280.909,84.702 280.909,85.545 L280.909,111 Z M287.273,111 L287.273,85.545 C287.273,83.014 286.267,80.586 284.477,78.796 C282.687,77.006 280.259,76 277.727,76 L252.273,76 C249.741,76 247.313,77.006 245.523,78.796 C243.733,80.586 242.727,83.014 242.727,85.545 L242.727,136.455 C242.727,138.986 243.733,141.414 245.523,143.204 C247.313,144.994 249.741,146 252.273,146 L277.727,146 C280.259,146 282.687,144.994 284.477,143.204 C286.267,141.414 287.273,138.986 287.273,136.455 L287.273,111 Z" />
            <path d="M293.636,111 L293.636,123.727 C293.636,124.571 293.301,125.38 292.704,125.977 C292.108,126.574 291.298,126.909 290.455,126.909 L239.545,126.909 C238.702,126.909 237.892,126.574 237.296,125.977 C236.699,125.38 236.364,124.571 236.364,123.727 L236.364,98.273 C236.364,97.429 236.699,96.62 237.296,96.023 C237.892,95.426 238.702,95.091 239.545,95.091 L290.455,95.091 C291.298,95.091 292.108,95.426 292.704,96.023 C293.301,96.62 293.636,97.429 293.636,98.273 L293.636,111 Z M300,111 L300,98.273 C300,95.741 298.994,93.313 297.204,91.523 C295.414,89.733 292.986,88.727 290.455,88.727 L239.545,88.727 C237.014,88.727 234.586,89.733 232.796,91.523 C231.006,93.313 230,95.741 230,98.273 L230,123.727 C230,126.259 231.006,128.687 232.796,130.477 C234.586,132.267 237.014,133.273 239.545,133.273 L290.455,133.273 C292.986,133.273 295.414,132.267 297.204,130.477 C298.994,128.687 300,126.259 300,123.727 L300,111 Z" />
        </g>
        <g id="Regular-M" transform="translate(0,200)">
            <path d="M480.909,111 L480.909,136.455 C480.909,137.298 480.574,138.108 479.977,138.704 C479.38,139.301 478.571,139.636 477.727,139.636 L452.273,139.636 C451.429,139.636 450.62,139.301 450.023,138.704 C449.426,138.108 449.091,137.298 449.091,136.455 L449.091,85.545 C449.091,84.702 449.426,83.892 450.023,83.296 C450.62,82.699 451.429,82.364 452.273,82.364 L477.727,82.364 C478.571,82.364 479.38,82.699 479.977,83.296 C480.574,83.892 480.909,84.702 480.909,85.545 L480.909,111 Z M487.273,111 L487.273,85.545 C487.273,83.014 486.267,80.586 484.477,78.796 C482.687,77.006 480.259,76 477.727,76 L452.273,76 C449.741,76 447.313,77.006 445.523,78.796 C443.733,80.586 442.727,83.014 442.727,85.545 L442.727,136.455 C442.727,138.986 443.733,141.414 445.523,143.204 C447.313,144.994 449.741,146 452.273,146 L477.727,146 C480.259,146 482.687,144.994 484.477,143.204 C486.267,141.414 487.273,138.986 487.273,136.455 L487.273,111 Z" />
            <path d="M493.636,111 L493.636,123.727 C493.636,124.571 493.301,125.38 492.704,125.977 C492.108,126.574 491.298,126.909 490.455,126.909 L439.545,126.909 C438.702,126.909 437.892,126.574 437.296,125.977 C436.699,125.38 436.364,124.571 436.364,123.727 L436.364,98.273 C436.364,97.429 436.699,96.62 437.296,96.023 C437.892,95.426 438.702,95.091 439.545,95.091 L490.455,95.091 C491.298,95.091 492.108,95.426 492.704,96.023 C493.301,96.62 493.636,97.429 493.636,98.273 L493.636,111 Z M500,111 L500,98.273 C500,95.741 498.994,93.313 497.204,91.523 C495.414,89.733 492.986,88.727 490.455,88.727 L439.545,88.727 C437.014,88.727 434.586,89.733 432.796,91.523 C431.006,93.313 430,95.741 430,98.273 L430,123.727 C430,126.259 431.006,128.687 432.796,130.477 C434.586,132.267 437.014,133.273 439.545,133.273 L490.455,133.273 C492.986,133.273 495.414,132.267 497.204,130.477 C498.994,128.687 500,126.259 500,123.727 L500,111 Z" />
        </g>
        <g id="Black-M" transform="translate(0,200)">
            <path d="M680.909,111 L680.909,136.455 C680.909,137.298 680.574,138.108 679.977,138.704 C679.38,139.301 678.571,139.636 677.727,139.636 L652.273,139.636 C651.429,139.636 650.62,139.301 650.023,138.704 C649.426,138.108 649.091,137.298 649.091,136.455 L649.091,85.545 C649.091,84.702 649.426,83.892 650.023,83.296 C650.62,82.699 651.429,82.364 652.273,82.364 L677.727,82.364 C678.571,82.364 679.38,82.699 679.977,83.296 C680.574,83.892 680.909,84.702 680.909,85.545 L680.909,111 Z M687.273,111 L687.273,85.545 C687.273,83.014 686.267,80.586 684.477,78.796 C682.687,77.006 680.259,76 677.727,76 L652.273,76 C649.741,76 647.313,77.006 645.523,78.796 C643.733,80.586 642.727,83.014 642.727,85.545 L642.727,136.455 C642.727,138.986 643.733,141.414 645.523,143.204 C647.313,144.994 649.741,146 652.273,146 L677.727,146 C680.259,146 682.687,144.994 684.477,143.204 C686.267,141.414 687.273,138.986 687.273,136.455 L687.273,111 Z" />
            <path d="M693.636,111 L693.636,123.727 C693.636,124.571 693.301,125.38 692.704,125.977 C692.108,126.574 691.298,126.909 690.455,126.909 L639.545,126.909 C638.702,126.909 637.892,126.574 637.296,125.977 C636.699,125.38 636.364,124.571 636.364,123.727 L636.364,98.273 C636.364,97.429 636.699,96.62 637.296,96.023 C637.892,95.426 638.702,95.091 639.545,95.091 L690.455,95.091 C691.298,95.091 692.108,95.426 692.704,96.023 C693.301,96.62 693.636,97.429 693.636,98.273 L693.636,111 Z M700,111 L700,98.273 C700,95.741 698.994,93.313 697.204,91.523 C695.414,89.733 692.986,88.727 690.455,88.727 L639.545,88.727 C637.014,88.727 634.586,89.733 632.796,91.523 C631.006,93.313 630,95.741 630,98.273 L630,123.727 C630,126.259 631.006,128.687 632.796,130.477 C634.586,132.267 637.014,133.273 639.545,133.273 L690.455,133.273 C692.986,133.273 695.414,132.267 697.204,130.477 C698.994,128.687 700,126.259 700,123.727 L700,111 Z" />
        </g>
    </g>
</svg>