<?xml version="1.0" encoding="UTF-8"?>
<svg height="600" width="800" xmlns="http://www.w3.org/2000/svg" xmlns:xlink="http://www.w3.org/1999/xlink">
    <g id="Notes" font-family="LucidaGrande, 'Lucida Grande', sans-serif" font-size="13">
        <rect fill="white" height="600.0" width="800.0" x="0.0" y="0.0" />
        <g font-size="13">
            <text x="18.0" y="176.0">Small</text>
            <text x="18.0" y="376.0">Medium</text>
            <text x="18.0" y="576.0">Large</text>
        </g>
        <g font-size="9">
            <text x="250.0" y="30.0">Ultralight</text>
            <text x="450.0" y="30.0">Regular</text>
            <text x="650.0" y="30.0">Black</text>
            <text id="template-version" fill="#505050" text-anchor="end" x="785.0" y="575.0">Template v.3.0</text>
            <a href="https://github.com/swhitty/SwiftDraw">
                <text fill="#505050" text-anchor="end" x="785.0" y="590.0">https://github.com/swhitty/SwiftDraw</text>
            </a>
        </g>
    </g>
    <g id="Guides" stroke="rgb(39, 170, 225)" stroke-width="0.5">
        <path id="Capline-S" d="M18,76 l800,0" />
        <path id="H-reference" d="M85,145.755 L87.685,145.755 L113.369,79.287 L114.052,79.287 L114.052,76 L112.148,76 L85,145.755 Z M95.693,121.536 L130.996,121.536 L130.263,119.313 L96.474,119.313 L95.693,121.536 Z M139.15,145.755 L141.787,145.755 L114.638,76 L113.466,76 L113.466,79.287 L139.15,145.755 Z" stroke="none" transform="translate(0,200)" />
        <path id="Baseline-S" d="M18,146 l800,0" />
        <path id="left-margin-Ultralight-M" d="M236.364,256 l0,110" />
        <path id="right-margin-Ultralight-M" d="M293.636,256 l0,110" />
        <path id="left-margin-Regular-M" d="M436.364,256 l0,110" />
        <path id="right-margin-Regular-M" d="M493.636,256 l0,110" />
        <path id="left-margin-Black-M" d="M636.364,256 l0,110" />
        <path id="right-margin-Black-M" d="M693.636,256 l0,110" />
        <path id="Capline-M" d="M18,276 l800,0" />
        <path id="Baseline-M" d="M18,346 l800,0" />
        <path id="Capline-L" d="M18,476 l800,0" />
        <path id="Baseline-L" d="M18,546 l800,0" />
    </g>
    <g id="Symbols">
        <g id="Ultralight-M" transform="translate(0,200)">
            <path d="M239.545,111 L242.727,111 C244.485,111 245.909,109.575 245.909,107.818 C245.909,106.061 244.485,104.636 242.727,104.636 L239.545,104.636 C237.788,104.636 236.364,106.061 236.364,107.818 C236.364,109.575 237.788,111 239.545,111 Z" />
            <path d="M249.091,120.545 C249.091,122.303 247.666,123.727 245.909,123.727 C244.152,123.727 242.727,122.303 242.727,120.545 L242.727,82.364 C242.727,82.364 242.727,82.364 242.727,82.364 C242.727,82.364 242.727,82.364 242.727,82.364 L244.318,82.364 C269.139,82.364 287.273,102.709 287.273,130.091 L287.273,142.818 C287.273,144.575 288.697,146 290.455,146 C292.212,146 293.636,144.575 293.636,142.818 L293.636,130.091 C293.636,99.347 272.827,76 244.318,76 L242.727,76 C241.04,76 239.421,76.67 238.227,77.864 C237.034,79.057 236.364,80.676 236.364,82.364 L236.364,120.545 C236.364,125.817 240.637,130.091 245.909,130.091 C251.181,130.091 255.455,125.817 255.455,120.545 C255.455,118.788 254.03,117.364 252.273,117.364 C250.515,117.364 249.091,118.788 249.091,120.545 Z" />
            <path d="M280.909,130.091 C280.909,128.334 282.334,126.909 284.091,126.909 C285.848,126.909 287.273,128.334 287.273,130.091 C287.273,131.848 285.848,133.273 284.091,133.273 C282.334,133.273 280.909,131.848 280.909,130.091 Z M274.545,130.091 C274.545,135.363 278.819,139.636 284.091,139.636 C289.363,139.636 293.636,135.363 293.636,130.091 C293.636,124.819 289.363,120.545 284.091,120.545 C278.819,120.545 274.545,124.819 274.545,130.091 Z" />
        </g>
        <g id="Regular-M" transform="translate(0,200)">
            <path d="M439.545,111 L442.727,111 C444.485,111 445.909,109.575 445.909,107.818 C445.909,106.061 444.485,104.636 442.727,104.636 L439.545,104.636 C437.788,104.636 436.364,106.061 436.364,107.818 C436.364,109.575 437.788,111 439.545,111 Z" />
            <path d="M449.091,120.545 C449.091,122.303 447.666,123.727 445.909,123.727 C444.152,123.727 442.727,122.303 442.727,120.545 L442.727,82.364 C442.727,82.364 442.727,82.364 442.727,82.364 C442.727,82.364 442.727,82.364 442.727,82.364 L444.318,82.364 C469.139,82.364 487.273,102.709 487.273,130.091 L487.273,142.818 C487.273,144.575 488.697,146 490.455,146 C492.212,146 493.636,144.575 493.636,142.818 L493.636,130.091 C493.636,99.347 472.827,76 444.318,76 L442.727,76 C441.04,76 439.421,76.67 438.228,77.864 C437.034,79.057 436.364,80.676 436.364,82.364 L436.364,120.545 C436.364,125.817 440.637,130.091 445.909,130.091 C451.181,130.091 455.455,125.817 455.455,120.545 C455.455,118.788 454.03,117.364 452.273,117.364 C450.515,117.364 449.091,118.788 449.091,120.545 Z" />
            <path d="M480.909,130.091 C480.909,128.334 482.334,126.909 484.091,126.909 C485.848,126.909 487.273,128.334 487.273,130.091 C487.273,131.848 485.848,133.273 484.091,133.273 C482.334,133.273 480.909,131.848 480.909,130.091 Z M474.545,130.091 C474.545,135.363 478.819,139.636 484.091,139.636 C489.363,139.636 493.636,135.363 493.636,130.091 C493.636,124.819 489.363,120.545 484.091,120.545 C478.819,120.545 474.545,124.819 474.545,130.091 Z" />
        </g>
        <g id="Black-M" transform="translate(0,200)">
            <path d="M639.545,111 L642.727,111 C644.485,111 645.909,109.575 645.909,107.818 C645.909,106.061 644.485,104.636 642.727,104.636 L639.545,104.636 C637.788,104.636 636.364,106.061 636.364,107.818 C636.364,109.575 637.788,111 639.545,111 Z" />
            <path d="M649.091,120.545 C649.091,122.303 647.666,123.727 645.909,123.727 C644.152,123.727 642.727,122.303 642.727,120.545 L642.727,82.364 C642.727,82.364 642.727,82.364 642.727,82.364 C642.727,82.364 642.727,82.364 642.727,82.364 L644.318,82.364 C669.139,82.364 687.273,102.709 687.273,130.091 L687.273,142.818 C687.273,144.575 688.697,146 690.455,146 C692.212,146 693.636,144.575 693.636,142.818 L693.636,130.091 C693.636,99.347 672.827,76 644.318,76 L642.727,76 C641.04,76 639.421,76.67 638.228,77.864 C637.034,79.057 636.364,80.676 636.364,82.364 L636.364,120.545 C636.364,125.817 640.637,130.091 645.909,130.091 C651.181,130.091 655.455,125.817 655.455,120.545 C655.455,118.788 654.03,117.364 652.273,117.364 C650.515,117.364 649.091,118.788 649.091,120.545 Z" />
            <path d="M680.909,130.091 C680.909,128.334 682.334,126.909 684.091,126.909 C685.848,126.909 687.273,128.334 687.273,130.091 C687.273,131.848 685.848,133.273 684.091,133.273 C682.334,133.273 680.909,131.848 680.909,130.091 Z M674.545,130.091 C674.545,135.363 678.819,139.636 684.091,139.636 C689.363,139.636 693.636,135.363 693.636,130.091 C693.636,124.819 689.363,120.545 684.091,120.545 C678.819,120.545 674.545,124.819 674.545,130.091 Z" />
        </g>
    </g>
</svg>