<?xml version="1.0" encoding="UTF-8"?>
<svg height="600" width="800" xmlns="http://www.w3.org/2000/svg" xmlns:xlink="http://www.w3.org/1999/xlink">
    <g id="Notes" font-family="LucidaGrande, 'Lucida Grande', sans-serif" font-size="13">
        <rect fill="white" height="600.0" width="800.0" x="0.0" y="0.0" />
        <g font-size="13">
            <text x="18.0" y="176.0">Small</text>
            <text x="18.0" y="376.0">Medium</text>
            <text x="18.0" y="576.0">Large</text>
        </g>
        <g font-size="9">
            <text x="250.0" y="30.0">Ultralight</text>
            <text x="450.0" y="30.0">Regular</text>
            <text x="650.0" y="30.0">Black</text>
            <text id="template-version" fill="#505050" text-anchor="end" x="785.0" y="575.0">Template v.3.0</text>
            <a href="https://github.com/swhitty/SwiftDraw">
                <text fill="#505050" text-anchor="end" x="785.0" y="590.0">https://github.com/swhitty/SwiftDraw</text>
            </a>
        </g>
    </g>
    <g id="Guides" stroke="rgb(39, 170, 225)" stroke-width="0.5">
        <path id="Capline-S" d="M18,76 l800,0" />
        <path id="H-reference" d="M85,145.755 L87.685,145.755 L113.369,79.287 L114.052,79.287 L114.052,76 L112.148,76 L85,145.755 Z M95.693,121.536 L130.996,121.536 L130.263,119.313 L96.474,119.313 L95.693,121.536 Z M139.15,145.755 L141.787,145.755 L114.638,76 L113.466,76 L113.466,79.287 L139.15,145.755 Z" stroke="none" transform="translate(0,200)" />
        <path id="Baseline-S" d="M18,146 l800,0" />
        <path id="left-margin-Ultralight-M" d="M239.545,256 l0,110" />
        <path id="right-margin-Ultralight-M" d="M290.455,256 l0,110" />
        <path id="left-margin-Regular-M" d="M439.545,256 l0,110" />
        <path id="right-margin-Regular-M" d="M490.455,256 l0,110" />
        <path id="left-margin-Black-M" d="M639.545,256 l0,110" />
        <path id="right-margin-Black-M" d="M690.455,256 l0,110" />
        <path id="Capline-M" d="M18,276 l800,0" />
        <path id="Baseline-M" d="M18,346 l800,0" />
        <path id="Capline-L" d="M18,476 l800,0" />
        <path id="Baseline-L" d="M18,546 l800,0" />
    </g>
    <g id="Symbols">
        <g id="Ultralight-M" transform="translate(0,200)">
            <path d="M252.273,79.182 L252.273,98.273 C252.273,100.03 253.697,101.455 255.455,101.455 C257.212,101.455 258.636,100.03 258.636,98.273 L258.636,79.182 C258.636,77.425 257.212,76 255.455,76 C253.697,76 252.273,77.425 252.273,79.182 Z" />
            <path d="M271.364,79.182 L271.364,98.273 C271.364,100.03 272.788,101.455 274.545,101.455 C276.303,101.455 277.727,100.03 277.727,98.273 L277.727,79.182 C277.727,77.425 276.303,76 274.545,76 C272.788,76 271.364,77.425 271.364,79.182 Z" />
            <path d="M261.818,126.909 L261.818,142.818 C261.818,144.575 263.243,146 265,146 C266.757,146 268.182,144.575 268.182,142.818 L268.182,126.909 C268.182,125.152 266.757,123.727 265,123.727 C263.243,123.727 261.818,125.152 261.818,126.909 Z" />
            <path d="M242.727,101.455 L287.273,101.455 C289.03,101.455 290.455,100.03 290.455,98.273 C290.455,96.515 289.03,95.091 287.273,95.091 L242.727,95.091 C240.97,95.091 239.545,96.515 239.545,98.273 C239.545,100.03 240.97,101.455 242.727,101.455 Z" />
            <path d="M249.091,107.818 L249.091,98.273 L245.909,101.455 L284.091,101.455 L280.909,98.273 L280.909,107.818 C280.909,116.605 273.786,123.727 265,123.727 C256.214,123.727 249.091,116.605 249.091,107.818 Z M242.727,107.818 C242.727,120.119 252.699,130.091 265,130.091 C277.301,130.091 287.273,120.119 287.273,107.818 L287.273,98.273 C287.273,96.515 285.848,95.091 284.091,95.091 L245.909,95.091 C244.152,95.091 242.727,96.515 242.727,98.273 L242.727,107.818 Z" />
        </g>
        <g id="Regular-M" transform="translate(0,200)">
            <path d="M452.273,79.182 L452.273,98.273 C452.273,100.03 453.697,101.455 455.455,101.455 C457.212,101.455 458.636,100.03 458.636,98.273 L458.636,79.182 C458.636,77.425 457.212,76 455.455,76 C453.697,76 452.273,77.425 452.273,79.182 Z" />
            <path d="M471.364,79.182 L471.364,98.273 C471.364,100.03 472.788,101.455 474.545,101.455 C476.303,101.455 477.727,100.03 477.727,98.273 L477.727,79.182 C477.727,77.425 476.303,76 474.545,76 C472.788,76 471.364,77.425 471.364,79.182 Z" />
            <path d="M461.818,126.909 L461.818,142.818 C461.818,144.575 463.243,146 465,146 C466.757,146 468.182,144.575 468.182,142.818 L468.182,126.909 C468.182,125.152 466.757,123.727 465,123.727 C463.243,123.727 461.818,125.152 461.818,126.909 Z" />
            <path d="M442.727,101.455 L487.273,101.455 C489.03,101.455 490.455,100.03 490.455,98.273 C490.455,96.515 489.03,95.091 487.273,95.091 L442.727,95.091 C440.97,95.091 439.545,96.515 439.545,98.273 C439.545,100.03 440.97,101.455 442.727,101.455 Z" />
            <path d="M449.091,107.818 L449.091,98.273 L445.909,101.455 L484.091,101.455 L480.909,98.273 L480.909,107.818 C480.909,116.605 473.786,123.727 465,123.727 C456.214,123.727 449.091,116.605 449.091,107.818 Z M442.727,107.818 C442.727,120.119 452.699,130.091 465,130.091 C477.301,130.091 487.273,120.119 487.273,107.818 L487.273,98.273 C487.273,96.515 485.848,95.091 484.091,95.091 L445.909,95.091 C444.152,95.091 442.727,96.515 442.727,98.273 L442.727,107.818 Z" />
        </g>
        <g id="Black-M" transform="translate(0,200)">
            <path d="M652.273,79.182 L652.273,98.273 C652.273,100.03 653.697,101.455 655.455,101.455 C657.212,101.455 658.636,100.03 658.636,98.273 L658.636,79.182 C658.636,77.425 657.212,76 655.455,76 C653.697,76 652.273,77.425 652.273,79.182 Z" />
            <path d="M671.364,79.182 L671.364,98.273 C671.364,100.03 672.788,101.455 674.545,101.455 C676.303,101.455 677.727,100.03 677.727,98.273 L677.727,79.182 C677.727,77.425 676.303,76 674.545,76 C672.788,76 671.364,77.425 671.364,79.182 Z" />
            <path d="M661.818,126.909 L661.818,142.818 C661.818,144.575 663.243,146 665,146 C666.757,146 668.182,144.575 668.182,142.818 L668.182,126.909 C668.182,125.152 666.757,123.727 665,123.727 C663.243,123.727 661.818,125.152 661.818,126.909 Z" />
            <path d="M642.727,101.455 L687.273,101.455 C689.03,101.455 690.455,100.03 690.455,98.273 C690.455,96.515 689.03,95.091 687.273,95.091 L642.727,95.091 C640.97,95.091 639.545,96.515 639.545,98.273 C639.545,100.03 640.97,101.455 642.727,101.455 Z" />
            <path d="M649.091,107.818 L649.091,98.273 L645.909,101.455 L684.091,101.455 L680.909,98.273 L680.909,107.818 C680.909,116.605 673.786,123.727 665,123.727 C656.214,123.727 649.091,116.605 649.091,107.818 Z M642.727,107.818 C642.727,120.119 652.699,130.091 665,130.091 C677.301,130.091 687.273,120.119 687.273,107.818 L687.273,98.273 C687.273,96.515 685.848,95.091 684.091,95.091 L645.909,95.091 C644.152,95.091 642.727,96.515 642.727,98.273 L642.727,107.818 Z" />
        </g>
    </g>
</svg>