<?xml version="1.0" encoding="UTF-8"?>
<svg height="600" width="800" xmlns="http://www.w3.org/2000/svg" xmlns:xlink="http://www.w3.org/1999/xlink">
    <g id="Notes" font-family="LucidaGrande, 'Lucida Grande', sans-serif" font-size="13">
        <rect fill="white" height="600.0" width="800.0" x="0.0" y="0.0" />
        <g font-size="13">
            <text x="18.0" y="176.0">Small</text>
            <text x="18.0" y="376.0">Medium</text>
            <text x="18.0" y="576.0">Large</text>
        </g>
        <g font-size="9">
            <text x="250.0" y="30.0">Ultralight</text>
            <text x="450.0" y="30.0">Regular</text>
            <text x="650.0" y="30.0">Black</text>
            <text id="template-version" fill="#505050" text-anchor="end" x="785.0" y="575.0">Template v.3.0</text>
            <a href="https://github.com/swhitty/SwiftDraw">
                <text fill="#505050" text-anchor="end" x="785.0" y="590.0">https://github.com/swhitty/SwiftDraw</text>
            </a>
        </g>
    </g>
    <g id="Guides" stroke="rgb(39, 170, 225)" stroke-width="0.5">
        <path id="Capline-S" d="M18,76 l800,0" />
        <path id="H-reference" d="M85,145.755 L87.685,145.755 L113.369,79.287 L114.052,79.287 L114.052,76 L112.148,76 L85,145.755 Z M95.693,121.536 L130.996,121.536 L130.263,119.313 L96.474,119.313 L95.693,121.536 Z M139.15,145.755 L141.787,145.755 L114.638,76 L113.466,76 L113.466,79.287 L139.15,145.755 Z" stroke="none" transform="translate(0,200)" />
        <path id="Baseline-S" d="M18,146 l800,0" />
        <path id="left-margin-Ultralight-M" d="M233.182,256 l0,110" />
        <path id="right-margin-Ultralight-M" d="M296.818,256 l0,110" />
        <path id="left-margin-Regular-M" d="M433.182,256 l0,110" />
        <path id="right-margin-Regular-M" d="M496.818,256 l0,110" />
        <path id="left-margin-Black-M" d="M633.182,256 l0,110" />
        <path id="right-margin-Black-M" d="M696.818,256 l0,110" />
        <path id="Capline-M" d="M18,276 l800,0" />
        <path id="Baseline-M" d="M18,346 l800,0" />
        <path id="Capline-L" d="M18,476 l800,0" />
        <path id="Baseline-L" d="M18,546 l800,0" />
    </g>
    <g id="Symbols">
        <g id="Ultralight-M" transform="translate(0,200)">
            <path d="M252.273,79.182 L242.727,79.182 C240.196,79.182 237.768,80.188 235.978,81.978 C234.188,83.768 233.182,86.196 233.182,88.727 L233.182,133.273 C233.182,138.53 237.47,142.818 242.727,142.818 L252.273,142.818 C254.03,142.818 255.455,141.394 255.455,139.636 C255.455,137.879 254.03,136.455 252.273,136.455 L242.727,136.455 C240.985,136.455 239.545,135.015 239.545,133.273 L239.545,88.727 C239.545,87.883 239.881,87.074 240.477,86.477 C241.074,85.881 241.883,85.545 242.727,85.545 L252.273,85.545 C254.03,85.545 255.455,84.121 255.455,82.364 C255.455,80.606 254.03,79.182 252.273,79.182 Z" />
            <path d="M277.727,85.545 L287.273,85.545 C288.117,85.545 288.926,85.881 289.523,86.477 C290.119,87.074 290.455,87.883 290.455,88.727 L290.455,133.273 C290.455,134.117 290.119,134.926 289.523,135.523 C288.926,136.119 288.117,136.455 287.273,136.455 L277.727,136.455 C275.97,136.455 274.545,137.879 274.545,139.636 C274.545,141.394 275.97,142.818 277.727,142.818 L287.273,142.818 C289.804,142.818 292.232,141.812 294.022,140.022 C295.812,138.232 296.818,135.804 296.818,133.273 L296.818,88.727 C296.818,86.196 295.812,83.768 294.022,81.978 C292.232,80.188 289.804,79.182 287.273,79.182 L277.727,79.182 C275.97,79.182 274.545,80.606 274.545,82.364 C274.545,84.121 275.97,85.545 277.727,85.545 Z" />
            <path d="M261.818,136.455 L261.818,142.818 C261.818,144.575 263.243,146 265,146 C266.757,146 268.182,144.575 268.182,142.818 L268.182,136.455 C268.182,134.697 266.757,133.273 265,133.273 C263.243,133.273 261.818,134.697 261.818,136.455 Z" />
            <path d="M261.818,117.364 L261.818,123.727 C261.818,125.485 263.243,126.909 265,126.909 C266.757,126.909 268.182,125.485 268.182,123.727 L268.182,117.364 C268.182,115.606 266.757,114.182 265,114.182 C263.243,114.182 261.818,115.606 261.818,117.364 Z" />
            <path d="M261.818,98.273 L261.818,104.636 C261.818,106.394 263.243,107.818 265,107.818 C266.757,107.818 268.182,106.394 268.182,104.636 L268.182,98.273 C268.182,96.515 266.757,95.091 265,95.091 C263.243,95.091 261.818,96.515 261.818,98.273 Z" />
            <path d="M261.818,79.182 L261.818,85.545 C261.818,87.303 263.243,88.727 265,88.727 C266.757,88.727 268.182,87.303 268.182,85.545 L268.182,79.182 C268.182,77.425 266.757,76 265,76 C263.243,76 261.818,77.425 261.818,79.182 Z" />
        </g>
        <g id="Regular-M" transform="translate(0,200)">
            <path d="M452.273,79.182 L442.727,79.182 C440.196,79.182 437.768,80.188 435.978,81.978 C434.188,83.768 433.182,86.196 433.182,88.727 L433.182,133.273 C433.182,138.53 437.47,142.818 442.727,142.818 L452.273,142.818 C454.03,142.818 455.455,141.394 455.455,139.636 C455.455,137.879 454.03,136.455 452.273,136.455 L442.727,136.455 C440.985,136.455 439.545,135.015 439.545,133.273 L439.545,88.727 C439.545,87.883 439.881,87.074 440.477,86.477 C441.074,85.881 441.883,85.545 442.727,85.545 L452.273,85.545 C454.03,85.545 455.455,84.121 455.455,82.364 C455.455,80.606 454.03,79.182 452.273,79.182 Z" />
            <path d="M477.727,85.545 L487.273,85.545 C488.117,85.545 488.926,85.881 489.523,86.477 C490.119,87.074 490.455,87.883 490.455,88.727 L490.455,133.273 C490.455,134.117 490.119,134.926 489.523,135.523 C488.926,136.119 488.117,136.455 487.273,136.455 L477.727,136.455 C475.97,136.455 474.545,137.879 474.545,139.636 C474.545,141.394 475.97,142.818 477.727,142.818 L487.273,142.818 C489.804,142.818 492.232,141.812 494.022,140.022 C495.812,138.232 496.818,135.804 496.818,133.273 L496.818,88.727 C496.818,86.196 495.812,83.768 494.022,81.978 C492.232,80.188 489.804,79.182 487.273,79.182 L477.727,79.182 C475.97,79.182 474.545,80.606 474.545,82.364 C474.545,84.121 475.97,85.545 477.727,85.545 Z" />
            <path d="M461.818,136.455 L461.818,142.818 C461.818,144.575 463.243,146 465,146 C466.757,146 468.182,144.575 468.182,142.818 L468.182,136.455 C468.182,134.697 466.757,133.273 465,133.273 C463.243,133.273 461.818,134.697 461.818,136.455 Z" />
            <path d="M461.818,117.364 L461.818,123.727 C461.818,125.485 463.243,126.909 465,126.909 C466.757,126.909 468.182,125.485 468.182,123.727 L468.182,117.364 C468.182,115.606 466.757,114.182 465,114.182 C463.243,114.182 461.818,115.606 461.818,117.364 Z" />
            <path d="M461.818,98.273 L461.818,104.636 C461.818,106.394 463.243,107.818 465,107.818 C466.757,107.818 468.182,106.394 468.182,104.636 L468.182,98.273 C468.182,96.515 466.757,95.091 465,95.091 C463.243,95.091 461.818,96.515 461.818,98.273 Z" />
            <path d="M461.818,79.182 L461.818,85.545 C461.818,87.303 463.243,88.727 465,88.727 C466.757,88.727 468.182,87.303 468.182,85.545 L468.182,79.182 C468.182,77.425 466.757,76 465,76 C463.243,76 461.818,77.425 461.818,79.182 Z" />
        </g>
        <g id="Black-M" transform="translate(0,200)">
            <path d="M652.273,79.182 L642.727,79.182 C640.196,79.182 637.768,80.188 635.978,81.978 C634.188,83.768 633.182,86.196 633.182,88.727 L633.182,133.273 C633.182,138.53 637.47,142.818 642.727,142.818 L652.273,142.818 C654.03,142.818 655.455,141.394 655.455,139.636 C655.455,137.879 654.03,136.455 652.273,136.455 L642.727,136.455 C640.985,136.455 639.545,135.015 639.545,133.273 L639.545,88.727 C639.545,87.883 639.881,87.074 640.477,86.477 C641.074,85.881 641.883,85.545 642.727,85.545 L652.273,85.545 C654.03,85.545 655.455,84.121 655.455,82.364 C655.455,80.606 654.03,79.182 652.273,79.182 Z" />
            <path d="M677.727,85.545 L687.273,85.545 C688.117,85.545 688.926,85.881 689.523,86.477 C690.119,87.074 690.455,87.883 690.455,88.727 L690.455,133.273 C690.455,134.117 690.119,134.926 689.523,135.523 C688.926,136.119 688.117,136.455 687.273,136.455 L677.727,136.455 C675.97,136.455 674.545,137.879 674.545,139.636 C674.545,141.394 675.97,142.818 677.727,142.818 L687.273,142.818 C689.804,142.818 692.232,141.812 694.022,140.022 C695.812,138.232 696.818,135.804 696.818,133.273 L696.818,88.727 C696.818,86.196 695.812,83.768 694.022,81.978 C692.232,80.188 689.804,79.182 687.273,79.182 L677.727,79.182 C675.97,79.182 674.545,80.606 674.545,82.364 C674.545,84.121 675.97,85.545 677.727,85.545 Z" />
            <path d="M661.818,136.455 L661.818,142.818 C661.818,144.575 663.243,146 665,146 C666.757,146 668.182,144.575 668.182,142.818 L668.182,136.455 C668.182,134.697 666.757,133.273 665,133.273 C663.243,133.273 661.818,134.697 661.818,136.455 Z" />
            <path d="M661.818,117.364 L661.818,123.727 C661.818,125.485 663.243,126.909 665,126.909 C666.757,126.909 668.182,125.485 668.182,123.727 L668.182,117.364 C668.182,115.606 666.757,114.182 665,114.182 C663.243,114.182 661.818,115.606 661.818,117.364 Z" />
            <path d="M661.818,98.273 L661.818,104.636 C661.818,106.394 663.243,107.818 665,107.818 C666.757,107.818 668.182,106.394 668.182,104.636 L668.182,98.273 C668.182,96.515 666.757,95.091 665,95.091 C663.243,95.091 661.818,96.515 661.818,98.273 Z" />
            <path d="M661.818,79.182 L661.818,85.545 C661.818,87.303 663.243,88.727 665,88.727 C666.757,88.727 668.182,87.303 668.182,85.545 L668.182,79.182 C668.182,77.425 666.757,76 665,76 C663.243,76 661.818,77.425 661.818,79.182 Z" />
        </g>
    </g>
</svg>