<?xml version="1.0" encoding="UTF-8"?>
<svg height="600" width="800" xmlns="http://www.w3.org/2000/svg" xmlns:xlink="http://www.w3.org/1999/xlink">
    <g id="Notes" font-family="LucidaGrande, 'Lucida Grande', sans-serif" font-size="13">
        <rect fill="white" height="600.0" width="800.0" x="0.0" y="0.0" />
        <g font-size="13">
            <text x="18.0" y="176.0">Small</text>
            <text x="18.0" y="376.0">Medium</text>
            <text x="18.0" y="576.0">Large</text>
        </g>
        <g font-size="9">
            <text x="250.0" y="30.0">Ultralight</text>
            <text x="450.0" y="30.0">Regular</text>
            <text x="650.0" y="30.0">Black</text>
            <text id="template-version" fill="#505050" text-anchor="end" x="785.0" y="575.0">Template v.3.0</text>
            <a href="https://github.com/swhitty/SwiftDraw">
                <text fill="#505050" text-anchor="end" x="785.0" y="590.0">https://github.com/swhitty/SwiftDraw</text>
            </a>
        </g>
    </g>
    <g id="Guides" stroke="rgb(39, 170, 225)" stroke-width="0.5">
        <path id="Capline-S" d="M18,76 l800,0" />
        <path id="H-reference" d="M85,145.755 L87.685,145.755 L113.369,79.287 L114.052,79.287 L114.052,76 L112.148,76 L85,145.755 Z M95.693,121.536 L130.996,121.536 L130.263,119.313 L96.474,119.313 L95.693,121.536 Z M139.15,145.755 L141.787,145.755 L114.638,76 L113.466,76 L113.466,79.287 L139.15,145.755 Z" stroke="none" transform="translate(0,200)" />
        <path id="Baseline-S" d="M18,146 l800,0" />
        <path id="left-margin-Ultralight-M" d="M228.333,256 l0,110" />
        <path id="right-margin-Ultralight-M" d="M301.667,256 l0,110" />
        <path id="left-margin-Regular-M" d="M428.333,256 l0,110" />
        <path id="right-margin-Regular-M" d="M501.667,256 l0,110" />
        <path id="left-margin-Black-M" d="M628.333,256 l0,110" />
        <path id="right-margin-Black-M" d="M701.667,256 l0,110" />
        <path id="Capline-M" d="M18,276 l800,0" />
        <path id="Baseline-M" d="M18,346 l800,0" />
        <path id="Capline-L" d="M18,476 l800,0" />
        <path id="Baseline-L" d="M18,546 l800,0" />
    </g>
    <g id="Symbols">
        <g id="Ultralight-M" transform="translate(0,200)">
            <path d="M269.119,76.861 C266.485,75.713 263.46,75.713 260.826,76.861 L232.283,89.27 C229.904,90.272 228.345,92.556 228.345,95.077 C228.345,97.599 229.904,99.883 232.319,100.901 L260.86,113.326 C263.493,114.474 266.519,114.474 269.153,113.326 L297.727,100.918 C300.108,99.915 301.667,97.631 301.667,95.109 C301.667,92.588 300.108,90.304 297.693,89.286 L269.117,76.86 Z M266.357,82.652 L294.969,95.094 C295.005,95.109 295.005,95.109 295.005,95.109 C295.005,95.109 295.005,95.109 295.005,95.109 L266.392,107.534 C265.51,107.918 264.501,107.918 263.623,107.536 L235.044,95.094 C235.007,95.077 235.007,95.077 235.007,95.077 C235.007,95.077 235.007,95.077 235.007,95.077 L263.588,82.652 C264.468,82.268 265.477,82.268 266.355,82.651 Z" />
            <path d="M228.333,110.996 C228.327,113.481 229.836,115.743 232.197,116.787 L260.863,129.238 C263.487,130.373 266.491,130.373 269.111,129.24 L297.694,116.828 C300.09,115.799 301.632,113.502 301.611,110.979 C301.597,109.221 300.094,107.808 298.254,107.822 C296.415,107.836 294.935,109.271 294.95,111.029 C294.95,111.029 294.95,111.029 294.95,111.029 L266.359,123.444 C265.49,123.82 264.488,123.82 263.615,123.442 L234.975,111.003 C234.995,111.011 234.995,111.011 234.995,111.012 C235,109.254 233.512,107.826 231.672,107.822 C229.833,107.817 228.338,109.238 228.333,110.996 Z" />
            <path d="M228.333,126.906 C228.327,129.392 229.836,131.653 232.197,132.697 L260.863,145.148 C263.487,146.283 266.491,146.283 269.111,145.15 L297.694,132.738 C300.09,131.709 301.632,129.412 301.611,126.889 C301.597,125.131 300.094,123.718 298.254,123.732 C296.415,123.746 294.936,125.182 294.95,126.939 C294.95,126.939 294.95,126.939 294.95,126.939 L266.359,139.354 C265.49,139.73 264.488,139.73 263.615,139.353 L234.975,126.913 C234.995,126.922 234.995,126.922 234.995,126.922 C235,125.164 233.512,123.736 231.672,123.732 C229.833,123.727 228.338,125.149 228.333,126.906 Z" />
        </g>
        <g id="Regular-M" transform="translate(0,200)">
            <path d="M469.119,76.861 C466.485,75.713 463.46,75.713 460.826,76.861 L432.283,89.27 C429.904,90.272 428.345,92.556 428.345,95.077 C428.345,97.599 429.904,99.883 432.319,100.901 L460.86,113.326 C463.493,114.474 466.519,114.474 469.153,113.326 L497.727,100.918 C500.108,99.915 501.667,97.631 501.667,95.109 C501.667,92.588 500.108,90.304 497.693,89.286 L469.117,76.86 Z M466.357,82.652 L494.969,95.094 C495.005,95.109 495.005,95.109 495.005,95.109 C495.005,95.109 495.005,95.109 495.005,95.109 L466.392,107.534 C465.51,107.918 464.501,107.918 463.623,107.536 L435.044,95.094 C435.007,95.077 435.007,95.077 435.007,95.077 C435.007,95.077 435.007,95.077 435.007,95.077 L463.588,82.652 C464.468,82.268 465.477,82.268 466.355,82.651 Z" />
            <path d="M428.333,110.996 C428.327,113.481 429.836,115.743 432.197,116.787 L460.863,129.238 C463.487,130.373 466.491,130.373 469.111,129.24 L497.694,116.828 C500.09,115.799 501.632,113.502 501.611,110.979 C501.597,109.221 500.094,107.808 498.254,107.822 C496.415,107.836 494.935,109.271 494.95,111.029 C494.95,111.029 494.95,111.029 494.95,111.029 L466.359,123.444 C465.49,123.82 464.488,123.82 463.615,123.442 L434.975,111.003 C434.995,111.011 434.995,111.011 434.995,111.012 C435,109.254 433.512,107.826 431.672,107.822 C429.833,107.817 428.338,109.238 428.333,110.996 Z" />
            <path d="M428.333,126.906 C428.327,129.392 429.836,131.653 432.197,132.697 L460.863,145.148 C463.487,146.283 466.491,146.283 469.111,145.15 L497.694,132.738 C500.09,131.709 501.632,129.412 501.611,126.889 C501.597,125.131 500.094,123.718 498.254,123.732 C496.415,123.746 494.936,125.182 494.95,126.939 C494.95,126.939 494.95,126.939 494.95,126.939 L466.359,139.354 C465.49,139.73 464.488,139.73 463.615,139.353 L434.975,126.913 C434.995,126.922 434.995,126.922 434.995,126.922 C435,125.164 433.512,123.736 431.672,123.732 C429.833,123.727 428.338,125.149 428.333,126.906 Z" />
        </g>
        <g id="Black-M" transform="translate(0,200)">
            <path d="M669.119,76.861 C666.485,75.713 663.46,75.713 660.826,76.861 L632.283,89.27 C629.904,90.272 628.345,92.556 628.345,95.077 C628.345,97.599 629.904,99.883 632.319,100.901 L660.86,113.326 C663.493,114.474 666.519,114.474 669.153,113.326 L697.727,100.918 C700.108,99.915 701.667,97.631 701.667,95.109 C701.667,92.588 700.108,90.304 697.693,89.286 L669.117,76.86 Z M666.357,82.652 L694.969,95.094 C695.005,95.109 695.005,95.109 695.005,95.109 C695.005,95.109 695.005,95.109 695.005,95.109 L666.392,107.534 C665.51,107.918 664.501,107.918 663.623,107.536 L635.044,95.094 C635.006,95.077 635.006,95.077 635.006,95.077 C635.006,95.077 635.006,95.077 635.006,95.077 L663.587,82.652 C664.468,82.268 665.477,82.268 666.355,82.651 Z" />
            <path d="M628.333,110.996 C628.327,113.481 629.836,115.743 632.197,116.787 L660.863,129.238 C663.487,130.373 666.491,130.373 669.111,129.24 L697.694,116.828 C700.09,115.799 701.632,113.502 701.611,110.979 C701.597,109.221 700.094,107.808 698.254,107.822 C696.415,107.836 694.935,109.271 694.95,111.029 C694.95,111.029 694.95,111.029 694.95,111.029 L666.359,123.444 C665.49,123.82 664.488,123.82 663.615,123.442 L634.975,111.003 C634.995,111.011 634.995,111.011 634.995,111.012 C635,109.254 633.512,107.826 631.672,107.822 C629.833,107.817 628.338,109.238 628.333,110.996 Z" />
            <path d="M628.333,126.906 C628.327,129.392 629.836,131.653 632.197,132.697 L660.863,145.148 C663.487,146.283 666.491,146.283 669.111,145.15 L697.694,132.738 C700.09,131.709 701.632,129.412 701.611,126.889 C701.597,125.131 700.094,123.718 698.254,123.732 C696.415,123.746 694.935,125.182 694.95,126.939 C694.95,126.939 694.95,126.939 694.95,126.939 L666.359,139.354 C665.49,139.73 664.488,139.73 663.615,139.353 L634.975,126.913 C634.995,126.922 634.995,126.922 634.995,126.922 C635,125.164 633.512,123.736 631.672,123.732 C629.833,123.727 628.338,125.149 628.333,126.906 Z" />
        </g>
    </g>
</svg>