<?xml version="1.0" encoding="UTF-8"?>
<svg height="600" width="800" xmlns="http://www.w3.org/2000/svg" xmlns:xlink="http://www.w3.org/1999/xlink">
    <g id="Notes" font-family="LucidaGrande, 'Lucida Grande', sans-serif" font-size="13">
        <rect fill="white" height="600.0" width="800.0" x="0.0" y="0.0" />
        <g font-size="13">
            <text x="18.0" y="176.0">Small</text>
            <text x="18.0" y="376.0">Medium</text>
            <text x="18.0" y="576.0">Large</text>
        </g>
        <g font-size="9">
            <text x="250.0" y="30.0">Ultralight</text>
            <text x="450.0" y="30.0">Regular</text>
            <text x="650.0" y="30.0">Black</text>
            <text id="template-version" fill="#505050" text-anchor="end" x="785.0" y="575.0">Template v.3.0</text>
            <a href="https://github.com/swhitty/SwiftDraw">
                <text fill="#505050" text-anchor="end" x="785.0" y="590.0">https://github.com/swhitty/SwiftDraw</text>
            </a>
        </g>
    </g>
    <g id="Guides" stroke="rgb(39, 170, 225)" stroke-width="0.5">
        <path id="Capline-S" d="M18,76 l800,0" />
        <path id="H-reference" d="M85,145.755 L87.685,145.755 L113.369,79.287 L114.052,79.287 L114.052,76 L112.148,76 L85,145.755 Z M95.693,121.536 L130.996,121.536 L130.263,119.313 L96.474,119.313 L95.693,121.536 Z M139.15,145.755 L141.787,145.755 L114.638,76 L113.466,76 L113.466,79.287 L139.15,145.755 Z" stroke="none" transform="translate(0,200)" />
        <path id="Baseline-S" d="M18,146 l800,0" />
        <path id="left-margin-Ultralight-M" d="M230,256 l0,110" />
        <path id="right-margin-Ultralight-M" d="M300,256 l0,110" />
        <path id="left-margin-Regular-M" d="M430,256 l0,110" />
        <path id="right-margin-Regular-M" d="M500,256 l0,110" />
        <path id="left-margin-Black-M" d="M630,256 l0,110" />
        <path id="right-margin-Black-M" d="M700,256 l0,110" />
        <path id="Capline-M" d="M18,276 l800,0" />
        <path id="Baseline-M" d="M18,346 l800,0" />
        <path id="Capline-L" d="M18,476 l800,0" />
        <path id="Baseline-L" d="M18,546 l800,0" />
    </g>
    <g id="Symbols">
        <g id="Ultralight-M" transform="translate(0,200)">
            <path d="M293.667,117.364 C293.667,123.271 291.331,128.936 287.174,133.113 C283.017,137.29 277.379,139.636 271.5,139.636 C269.752,139.636 268.334,141.061 268.334,142.818 C268.334,144.575 269.752,146 271.5,146 C279.059,146 286.308,142.983 291.653,137.613 C296.997,132.242 300,124.958 300,117.364 C300,115.606 298.582,114.182 296.833,114.182 C295.085,114.182 293.667,115.606 293.667,117.364 Z" />
            <path d="M287.334,107.818 L287.334,104.636 C287.334,102.105 286.333,99.677 284.551,97.887 C282.77,96.097 280.353,95.091 277.834,95.091 C275.314,95.091 272.898,96.097 271.116,97.887 C269.335,99.677 268.334,102.105 268.334,104.636 C268.334,106.394 269.752,107.818 271.5,107.818 C273.249,107.818 274.667,106.394 274.667,104.636 C274.667,103.792 275.001,102.983 275.595,102.386 C276.188,101.79 276.994,101.455 277.834,101.455 C278.673,101.455 279.479,101.79 280.073,102.386 C280.667,102.983 281,103.792 281,104.636 L281,107.818 C281,109.575 282.418,111 284.167,111 C285.916,111 287.334,109.575 287.334,107.818 Z" />
            <path d="M274.667,104.636 L274.667,101.455 C274.667,98.923 273.666,96.495 271.885,94.705 C270.103,92.915 267.687,91.909 265.167,91.909 C262.648,91.909 260.231,92.915 258.45,94.705 C256.668,96.495 255.667,98.923 255.667,101.455 L255.667,104.636 C255.667,106.394 257.085,107.818 258.834,107.818 C260.583,107.818 262.001,106.394 262.001,104.636 L262.001,101.455 C262.001,100.611 262.334,99.801 262.928,99.205 C263.522,98.608 264.327,98.273 265.167,98.273 C266.007,98.273 266.812,98.608 267.406,99.205 C268,99.801 268.334,100.611 268.334,101.455 L268.334,104.636 C268.334,106.394 269.752,107.818 271.5,107.818 C273.249,107.818 274.667,106.394 274.667,104.636 Z" />
            <path d="M262.001,103.045 L262.001,85.545 C262.001,83.014 261,80.586 259.218,78.796 C257.437,77.006 255.02,76 252.501,76 C249.981,76 247.565,77.006 245.783,78.796 C244.002,80.586 243.001,83.014 243.001,85.545 L243.001,117.364 C243.001,119.121 244.419,120.545 246.167,120.545 C247.916,120.545 249.334,119.121 249.334,117.364 L249.334,85.545 C249.334,84.702 249.668,83.892 250.262,83.296 C250.855,82.699 251.661,82.364 252.501,82.364 C253.341,82.364 254.146,82.699 254.74,83.296 C255.334,83.892 255.667,84.702 255.667,85.545 L255.667,103.045 C255.667,104.803 257.085,106.227 258.834,106.227 C260.583,106.227 262.001,104.803 262.001,103.045 Z" />
            <path d="M287.334,107.818 C287.334,106.061 288.751,104.636 290.5,104.636 C292.249,104.636 293.667,106.061 293.667,107.818 L293.667,117.364 C293.667,123.271 291.331,128.936 287.174,133.113 C283.017,137.29 277.379,139.636 271.5,139.636 L265.167,139.636 C257.721,139.636 252.977,137.653 248.431,133.115 L237.038,121.668 C236.018,120.527 236.069,118.597 237.265,117.4 C238.461,116.202 240.381,116.158 241.63,117.299 L247.095,122.795 C248.332,124.038 250.337,124.038 251.573,122.795 C252.81,121.553 252.81,119.538 251.573,118.296 L246,112.696 C242.144,109.167 236.382,109.3 232.794,112.892 C229.207,116.484 229.055,122.273 232.449,126.051 L243.96,137.623 C249.695,143.346 256.041,146 265.167,146 L271.5,146 C279.059,146 286.308,142.983 291.653,137.613 C296.997,132.242 300,124.958 300,117.364 L300,107.818 C300,102.546 295.747,98.273 290.5,98.273 C285.254,98.273 281,102.546 281,107.818 C281,109.575 282.418,111 284.167,111 C285.916,111 287.334,109.575 287.334,107.818 Z" />
        </g>
        <g id="Regular-M" transform="translate(0,200)">
            <path d="M493.667,117.364 C493.667,123.271 491.331,128.936 487.174,133.113 C483.017,137.29 477.379,139.636 471.5,139.636 C469.752,139.636 468.334,141.061 468.334,142.818 C468.334,144.575 469.752,146 471.5,146 C479.059,146 486.308,142.983 491.653,137.613 C496.997,132.242 500,124.958 500,117.364 C500,115.606 498.582,114.182 496.833,114.182 C495.085,114.182 493.667,115.606 493.667,117.364 Z" />
            <path d="M487.334,107.818 L487.334,104.636 C487.334,102.105 486.333,99.677 484.551,97.887 C482.77,96.097 480.353,95.091 477.834,95.091 C475.314,95.091 472.898,96.097 471.116,97.887 C469.335,99.677 468.334,102.105 468.334,104.636 C468.334,106.394 469.752,107.818 471.5,107.818 C473.249,107.818 474.667,106.394 474.667,104.636 C474.667,103.792 475.001,102.983 475.595,102.386 C476.188,101.79 476.994,101.455 477.834,101.455 C478.673,101.455 479.479,101.79 480.073,102.386 C480.667,102.983 481,103.792 481,104.636 L481,107.818 C481,109.575 482.418,111 484.167,111 C485.916,111 487.334,109.575 487.334,107.818 Z" />
            <path d="M474.667,104.636 L474.667,101.455 C474.667,98.923 473.666,96.495 471.885,94.705 C470.103,92.915 467.687,91.909 465.167,91.909 C462.648,91.909 460.231,92.915 458.45,94.705 C456.668,96.495 455.667,98.923 455.667,101.455 L455.667,104.636 C455.667,106.394 457.085,107.818 458.834,107.818 C460.583,107.818 462.001,106.394 462.001,104.636 L462.001,101.455 C462.001,100.611 462.334,99.801 462.928,99.205 C463.522,98.608 464.327,98.273 465.167,98.273 C466.007,98.273 466.812,98.608 467.406,99.205 C468,99.801 468.334,100.611 468.334,101.455 L468.334,104.636 C468.334,106.394 469.752,107.818 471.5,107.818 C473.249,107.818 474.667,106.394 474.667,104.636 Z" />
            <path d="M462.001,103.045 L462.001,85.545 C462.001,83.014 461,80.586 459.218,78.796 C457.437,77.006 455.02,76 452.501,76 C449.981,76 447.565,77.006 445.783,78.796 C444.002,80.586 443.001,83.014 443.001,85.545 L443.001,117.364 C443.001,119.121 444.419,120.545 446.167,120.545 C447.916,120.545 449.334,119.121 449.334,117.364 L449.334,85.545 C449.334,84.702 449.668,83.892 450.262,83.296 C450.855,82.699 451.661,82.364 452.501,82.364 C453.341,82.364 454.146,82.699 454.74,83.296 C455.334,83.892 455.667,84.702 455.667,85.545 L455.667,103.045 C455.667,104.803 457.085,106.227 458.834,106.227 C460.583,106.227 462.001,104.803 462.001,103.045 Z" />
            <path d="M487.334,107.818 C487.334,106.061 488.751,104.636 490.5,104.636 C492.249,104.636 493.667,106.061 493.667,107.818 L493.667,117.364 C493.667,123.271 491.331,128.936 487.174,133.113 C483.017,137.29 477.379,139.636 471.5,139.636 L465.167,139.636 C457.721,139.636 452.977,137.653 448.431,133.115 L437.038,121.668 C436.018,120.527 436.069,118.597 437.265,117.4 C438.461,116.202 440.381,116.158 441.63,117.299 L447.095,122.795 C448.332,124.038 450.337,124.038 451.573,122.795 C452.81,121.553 452.81,119.538 451.573,118.296 L446,112.696 C442.144,109.167 436.382,109.3 432.794,112.892 C429.207,116.484 429.055,122.273 432.449,126.051 L443.96,137.623 C449.695,143.346 456.041,146 465.167,146 L471.5,146 C479.059,146 486.308,142.983 491.653,137.613 C496.997,132.242 500,124.958 500,117.364 L500,107.818 C500,102.546 495.747,98.273 490.5,98.273 C485.254,98.273 481,102.546 481,107.818 C481,109.575 482.418,111 484.167,111 C485.916,111 487.334,109.575 487.334,107.818 Z" />
        </g>
        <g id="Black-M" transform="translate(0,200)">
            <path d="M693.667,117.364 C693.667,123.271 691.331,128.936 687.174,133.113 C683.017,137.29 677.379,139.636 671.5,139.636 C669.752,139.636 668.334,141.061 668.334,142.818 C668.334,144.575 669.752,146 671.5,146 C679.059,146 686.308,142.983 691.653,137.613 C696.997,132.242 700,124.958 700,117.364 C700,115.606 698.582,114.182 696.833,114.182 C695.084,114.182 693.667,115.606 693.667,117.364 Z" />
            <path d="M687.333,107.818 L687.333,104.636 C687.333,102.105 686.333,99.677 684.551,97.887 C682.77,96.097 680.353,95.091 677.834,95.091 C675.314,95.091 672.898,96.097 671.116,97.887 C669.335,99.677 668.334,102.105 668.334,104.636 C668.334,106.394 669.752,107.818 671.5,107.818 C673.249,107.818 674.667,106.394 674.667,104.636 C674.667,103.792 675.001,102.983 675.594,102.386 C676.188,101.79 676.994,101.455 677.834,101.455 C678.673,101.455 679.479,101.79 680.073,102.386 C680.667,102.983 681,103.792 681,104.636 L681,107.818 C681,109.575 682.418,111 684.167,111 C685.916,111 687.333,109.575 687.333,107.818 Z" />
            <path d="M674.667,104.636 L674.667,101.455 C674.667,98.923 673.666,96.495 671.885,94.705 C670.103,92.915 667.687,91.909 665.167,91.909 C662.648,91.909 660.231,92.915 658.45,94.705 C656.668,96.495 655.667,98.923 655.667,101.455 L655.667,104.636 C655.667,106.394 657.085,107.818 658.834,107.818 C660.583,107.818 662.001,106.394 662.001,104.636 L662.001,101.455 C662.001,100.611 662.334,99.801 662.928,99.205 C663.522,98.608 664.327,98.273 665.167,98.273 C666.007,98.273 666.812,98.608 667.406,99.205 C668,99.801 668.334,100.611 668.334,101.455 L668.334,104.636 C668.334,106.394 669.752,107.818 671.5,107.818 C673.249,107.818 674.667,106.394 674.667,104.636 Z" />
            <path d="M662.001,103.045 L662.001,85.545 C662.001,83.014 661,80.586 659.218,78.796 C657.437,77.006 655.02,76 652.501,76 C649.981,76 647.565,77.006 645.783,78.796 C644.002,80.586 643.001,83.014 643.001,85.545 L643.001,117.364 C643.001,119.121 644.419,120.545 646.167,120.545 C647.916,120.545 649.334,119.121 649.334,117.364 L649.334,85.545 C649.334,84.702 649.668,83.892 650.262,83.296 C650.855,82.699 651.661,82.364 652.501,82.364 C653.341,82.364 654.146,82.699 654.74,83.296 C655.334,83.892 655.667,84.702 655.667,85.545 L655.667,103.045 C655.667,104.803 657.085,106.227 658.834,106.227 C660.583,106.227 662.001,104.803 662.001,103.045 Z" />
            <path d="M687.333,107.818 C687.333,106.061 688.751,104.636 690.5,104.636 C692.249,104.636 693.667,106.061 693.667,107.818 L693.667,117.364 C693.667,123.271 691.331,128.936 687.174,133.113 C683.017,137.29 677.379,139.636 671.5,139.636 L665.167,139.636 C657.721,139.636 652.977,137.653 648.431,133.115 L637.038,121.668 C636.018,120.527 636.069,118.597 637.265,117.4 C638.461,116.202 640.381,116.158 641.63,117.299 L647.095,122.795 C648.332,124.038 650.337,124.038 651.573,122.795 C652.81,121.553 652.81,119.538 651.573,118.296 L646,112.696 C642.144,109.167 636.382,109.3 632.794,112.892 C629.207,116.484 629.055,122.273 632.449,126.051 L643.96,137.623 C649.695,143.346 656.041,146 665.167,146 L671.5,146 C679.059,146 686.308,142.983 691.653,137.613 C696.997,132.242 700,124.958 700,117.364 L700,107.818 C700,102.546 695.747,98.273 690.5,98.273 C685.253,98.273 681,102.546 681,107.818 C681,109.575 682.418,111 684.167,111 C685.916,111 687.333,109.575 687.333,107.818 Z" />
        </g>
    </g>
</svg>