<?xml version="1.0" encoding="UTF-8"?>
<svg height="600" width="800" xmlns="http://www.w3.org/2000/svg" xmlns:xlink="http://www.w3.org/1999/xlink">
    <g id="Notes" font-family="LucidaGrande, 'Lucida Grande', sans-serif" font-size="13">
        <rect fill="white" height="600.0" width="800.0" x="0.0" y="0.0" />
        <g font-size="13">
            <text x="18.0" y="176.0">Small</text>
            <text x="18.0" y="376.0">Medium</text>
            <text x="18.0" y="576.0">Large</text>
        </g>
        <g font-size="9">
            <text x="250.0" y="30.0">Ultralight</text>
            <text x="450.0" y="30.0">Regular</text>
            <text x="650.0" y="30.0">Black</text>
            <text id="template-version" fill="#505050" text-anchor="end" x="785.0" y="575.0">Template v.3.0</text>
            <a href="https://github.com/swhitty/SwiftDraw">
                <text fill="#505050" text-anchor="end" x="785.0" y="590.0">https://github.com/swhitty/SwiftDraw</text>
            </a>
        </g>
    </g>
    <g id="Guides" stroke="rgb(39, 170, 225)" stroke-width="0.5">
        <path id="Capline-S" d="M18,76 l800,0" />
        <path id="H-reference" d="M85,145.755 L87.685,145.755 L113.369,79.287 L114.052,79.287 L114.052,76 L112.148,76 L85,145.755 Z M95.693,121.536 L130.996,121.536 L130.263,119.313 L96.474,119.313 L95.693,121.536 Z M139.15,145.755 L141.787,145.755 L114.638,76 L113.466,76 L113.466,79.287 L139.15,145.755 Z" stroke="none" transform="translate(0,200)" />
        <path id="Baseline-S" d="M18,146 l800,0" />
        <path id="left-margin-Ultralight-M" d="M231.667,256 l0,110" />
        <path id="right-margin-Ultralight-M" d="M298.333,256 l0,110" />
        <path id="left-margin-Regular-M" d="M431.667,256 l0,110" />
        <path id="right-margin-Regular-M" d="M498.333,256 l0,110" />
        <path id="left-margin-Black-M" d="M631.667,256 l0,110" />
        <path id="right-margin-Black-M" d="M698.333,256 l0,110" />
        <path id="Capline-M" d="M18,276 l800,0" />
        <path id="Baseline-M" d="M18,346 l800,0" />
        <path id="Capline-L" d="M18,476 l800,0" />
        <path id="Baseline-L" d="M18,546 l800,0" />
    </g>
    <g id="Symbols">
        <g id="Ultralight-M" transform="translate(0,200)">
            <path d="M291.341,108.64 C291.555,107.317 291.664,105.98 291.667,104.642 C291.667,88.821 278.235,76 261.667,76 C245.098,76 231.667,88.821 231.667,104.637 C231.667,118.489 242.874,132.546 257.485,144.588 C260.033,146.426 263.3,146.426 265.673,144.722 C266.809,143.794 267.754,142.987 268.683,142.165 C270.033,140.97 270.112,138.956 268.861,137.668 C267.609,136.379 265.5,136.303 264.15,137.498 C263.277,138.271 262.39,139.029 261.489,139.773 C261.667,139.636 261.667,139.636 261.667,139.636 C248.678,128.921 238.333,115.948 238.333,104.637 C238.333,92.336 248.78,82.364 261.667,82.364 C274.553,82.364 285,92.336 285,104.637 C284.998,105.647 284.916,106.662 284.753,107.666 C284.471,109.402 285.717,111.028 287.536,111.297 C289.356,111.566 291.059,110.376 291.341,108.64 Z" />
            <path d="M255,104.637 C255,101.122 257.985,98.273 261.667,98.273 C265.349,98.273 268.333,101.122 268.333,104.637 C268.333,108.151 265.349,111 261.667,111 C257.985,111 255,108.151 255,104.637 Z M248.333,104.637 C248.333,111.666 254.303,117.364 261.667,117.364 C269.03,117.364 275,111.666 275,104.637 C275,97.608 269.03,91.909 261.667,91.909 C254.303,91.909 248.333,97.608 248.333,104.637 Z" />
            <path d="M275,133.273 L295,133.273 C296.841,133.273 298.333,131.849 298.333,130.092 C298.333,128.334 296.841,126.91 295,126.91 L275,126.91 C273.159,126.91 271.667,128.334 271.667,130.092 C271.667,131.849 273.159,133.273 275,133.273 Z" />
            <path d="M281.667,120.546 L281.667,139.637 C281.667,141.394 283.159,142.819 285,142.819 C286.841,142.819 288.333,141.394 288.333,139.637 L288.333,120.546 C288.333,118.789 286.841,117.364 285,117.364 C283.159,117.364 281.667,118.789 281.667,120.546 Z" />
        </g>
        <g id="Regular-M" transform="translate(0,200)">
            <path d="M491.341,108.64 C491.555,107.317 491.664,105.98 491.667,104.642 C491.667,88.821 478.235,76 461.667,76 C445.098,76 431.667,88.821 431.667,104.637 C431.667,118.489 442.874,132.546 457.485,144.588 C460.033,146.426 463.3,146.426 465.673,144.722 C466.809,143.794 467.754,142.987 468.683,142.165 C470.033,140.97 470.112,138.956 468.861,137.668 C467.609,136.379 465.5,136.303 464.15,137.498 C463.277,138.271 462.39,139.029 461.489,139.773 C461.667,139.636 461.667,139.636 461.667,139.636 C448.678,128.921 438.333,115.948 438.333,104.637 C438.333,92.336 448.78,82.364 461.667,82.364 C474.553,82.364 485,92.336 485,104.637 C484.998,105.647 484.916,106.662 484.753,107.666 C484.471,109.402 485.717,111.028 487.536,111.297 C489.356,111.566 491.059,110.376 491.341,108.64 Z" />
            <path d="M455,104.637 C455,101.122 457.985,98.273 461.667,98.273 C465.349,98.273 468.333,101.122 468.333,104.637 C468.333,108.151 465.349,111 461.667,111 C457.985,111 455,108.151 455,104.637 Z M448.333,104.637 C448.333,111.666 454.303,117.364 461.667,117.364 C469.03,117.364 475,111.666 475,104.637 C475,97.608 469.03,91.909 461.667,91.909 C454.303,91.909 448.333,97.608 448.333,104.637 Z" />
            <path d="M475,133.273 L495,133.273 C496.841,133.273 498.333,131.849 498.333,130.092 C498.333,128.334 496.841,126.91 495,126.91 L475,126.91 C473.159,126.91 471.667,128.334 471.667,130.092 C471.667,131.849 473.159,133.273 475,133.273 Z" />
            <path d="M481.667,120.546 L481.667,139.637 C481.667,141.394 483.159,142.819 485,142.819 C486.841,142.819 488.333,141.394 488.333,139.637 L488.333,120.546 C488.333,118.789 486.841,117.364 485,117.364 C483.159,117.364 481.667,118.789 481.667,120.546 Z" />
        </g>
        <g id="Black-M" transform="translate(0,200)">
            <path d="M691.341,108.64 C691.555,107.317 691.664,105.98 691.667,104.642 C691.667,88.821 678.235,76 661.667,76 C645.098,76 631.667,88.821 631.667,104.637 C631.667,118.489 642.875,132.546 657.485,144.588 C660.033,146.426 663.3,146.426 665.673,144.722 C666.809,143.794 667.754,142.987 668.683,142.165 C670.033,140.97 670.112,138.956 668.861,137.668 C667.609,136.379 665.5,136.303 664.15,137.498 C663.277,138.271 662.39,139.029 661.489,139.773 C661.667,139.636 661.667,139.636 661.667,139.636 C648.678,128.921 638.333,115.948 638.333,104.637 C638.333,92.336 648.78,82.364 661.667,82.364 C674.553,82.364 685,92.336 685,104.637 C684.998,105.647 684.916,106.662 684.753,107.666 C684.471,109.402 685.717,111.028 687.536,111.297 C689.356,111.566 691.059,110.376 691.341,108.64 Z" />
            <path d="M655,104.637 C655,101.122 657.985,98.273 661.667,98.273 C665.349,98.273 668.333,101.122 668.333,104.637 C668.333,108.151 665.349,111 661.667,111 C657.985,111 655,108.151 655,104.637 Z M648.333,104.637 C648.333,111.666 654.303,117.364 661.667,117.364 C669.031,117.364 675,111.666 675,104.637 C675,97.608 669.03,91.909 661.667,91.909 C654.303,91.909 648.333,97.608 648.333,104.637 Z" />
            <path d="M675,133.273 L695,133.273 C696.841,133.273 698.333,131.849 698.333,130.092 C698.333,128.334 696.841,126.91 695,126.91 L675,126.91 C673.159,126.91 671.667,128.334 671.667,130.092 C671.667,131.849 673.159,133.273 675,133.273 Z" />
            <path d="M681.667,120.546 L681.667,139.637 C681.667,141.394 683.159,142.819 685,142.819 C686.841,142.819 688.333,141.394 688.333,139.637 L688.333,120.546 C688.333,118.789 686.841,117.364 685,117.364 C683.159,117.364 681.667,118.789 681.667,120.546 Z" />
        </g>
    </g>
</svg>