<?xml version="1.0" encoding="UTF-8"?>
<svg height="600" width="800" xmlns="http://www.w3.org/2000/svg" xmlns:xlink="http://www.w3.org/1999/xlink">
    <g id="Notes" font-family="LucidaGrande, 'Lucida Grande', sans-serif" font-size="13">
        <rect fill="white" height="600.0" width="800.0" x="0.0" y="0.0" />
        <g font-size="13">
            <text x="18.0" y="176.0">Small</text>
            <text x="18.0" y="376.0">Medium</text>
            <text x="18.0" y="576.0">Large</text>
        </g>
        <g font-size="9">
            <text x="250.0" y="30.0">Ultralight</text>
            <text x="450.0" y="30.0">Regular</text>
            <text x="650.0" y="30.0">Black</text>
            <text id="template-version" fill="#505050" text-anchor="end" x="785.0" y="575.0">Template v.3.0</text>
            <a href="https://github.com/swhitty/SwiftDraw">
                <text fill="#505050" text-anchor="end" x="785.0" y="590.0">https://github.com/swhitty/SwiftDraw</text>
            </a>
        </g>
    </g>
    <g id="Guides" stroke="rgb(39, 170, 225)" stroke-width="0.5">
        <path id="Capline-S" d="M18,76 l800,0" />
        <path id="H-reference" d="M85,145.755 L87.685,145.755 L113.369,79.287 L114.052,79.287 L114.052,76 L112.148,76 L85,145.755 Z M95.693,121.536 L130.996,121.536 L130.263,119.313 L96.474,119.313 L95.693,121.536 Z M139.15,145.755 L141.787,145.755 L114.638,76 L113.466,76 L113.466,79.287 L139.15,145.755 Z" stroke="none" transform="translate(0,200)" />
        <path id="Baseline-S" d="M18,146 l800,0" />
        <path id="left-margin-Ultralight-M" d="M230,256 l0,110" />
        <path id="right-margin-Ultralight-M" d="M300,256 l0,110" />
        <path id="left-margin-Regular-M" d="M430,256 l0,110" />
        <path id="right-margin-Regular-M" d="M500,256 l0,110" />
        <path id="left-margin-Black-M" d="M630,256 l0,110" />
        <path id="right-margin-Black-M" d="M700,256 l0,110" />
        <path id="Capline-M" d="M18,276 l800,0" />
        <path id="Baseline-M" d="M18,346 l800,0" />
        <path id="Capline-L" d="M18,476 l800,0" />
        <path id="Baseline-L" d="M18,546 l800,0" />
    </g>
    <g id="Symbols">
        <g id="Ultralight-M" transform="translate(0,200)">
            <path d="M293.636,111 C293.636,126.815 280.815,139.636 265,139.636 C249.185,139.636 236.364,126.815 236.364,111 C236.364,95.185 249.185,82.364 265,82.364 C266.757,82.364 268.182,80.939 268.182,79.182 C268.182,77.425 266.757,76 265,76 C245.67,76 230,91.67 230,111 C230,130.33 245.67,146 265,146 C284.33,146 300,130.33 300,111 C300,109.243 298.575,107.818 296.818,107.818 C295.061,107.818 293.636,109.243 293.636,111 Z" />
            <path d="M294.568,76.932 L262.75,108.75 C261.508,109.993 261.508,112.007 262.75,113.25 C263.993,114.492 266.007,114.492 267.25,113.25 L299.068,81.432 C300.311,80.189 300.311,78.175 299.068,76.932 C297.826,75.689 295.811,75.689 294.568,76.932 Z" />
            <path d="M277.727,82.364 L296.818,82.364 L293.636,79.182 L293.636,98.273 C293.636,100.03 295.061,101.455 296.818,101.455 C298.575,101.455 300,100.03 300,98.273 L300,79.182 C300,77.425 298.575,76 296.818,76 L277.727,76 C275.97,76 274.545,77.425 274.545,79.182 C274.545,80.939 275.97,82.364 277.727,82.364 Z" />
        </g>
        <g id="Regular-M" transform="translate(0,200)">
            <path d="M493.636,111 C493.636,126.815 480.815,139.636 465,139.636 C449.185,139.636 436.364,126.815 436.364,111 C436.364,95.185 449.185,82.364 465,82.364 C466.757,82.364 468.182,80.939 468.182,79.182 C468.182,77.425 466.757,76 465,76 C445.67,76 430,91.67 430,111 C430,130.33 445.67,146 465,146 C484.33,146 500,130.33 500,111 C500,109.243 498.575,107.818 496.818,107.818 C495.061,107.818 493.636,109.243 493.636,111 Z" />
            <path d="M494.568,76.932 L462.75,108.75 C461.508,109.993 461.508,112.007 462.75,113.25 C463.993,114.492 466.007,114.492 467.25,113.25 L499.068,81.432 C500.311,80.189 500.311,78.175 499.068,76.932 C497.826,75.689 495.811,75.689 494.568,76.932 Z" />
            <path d="M477.727,82.364 L496.818,82.364 L493.636,79.182 L493.636,98.273 C493.636,100.03 495.061,101.455 496.818,101.455 C498.575,101.455 500,100.03 500,98.273 L500,79.182 C500,77.425 498.575,76 496.818,76 L477.727,76 C475.97,76 474.545,77.425 474.545,79.182 C474.545,80.939 475.97,82.364 477.727,82.364 Z" />
        </g>
        <g id="Black-M" transform="translate(0,200)">
            <path d="M693.636,111 C693.636,126.815 680.815,139.636 665,139.636 C649.185,139.636 636.364,126.815 636.364,111 C636.364,95.185 649.185,82.364 665,82.364 C666.757,82.364 668.182,80.939 668.182,79.182 C668.182,77.425 666.757,76 665,76 C645.67,76 630,91.67 630,111 C630,130.33 645.67,146 665,146 C684.33,146 700,130.33 700,111 C700,109.243 698.575,107.818 696.818,107.818 C695.061,107.818 693.636,109.243 693.636,111 Z" />
            <path d="M694.568,76.932 L662.75,108.75 C661.508,109.993 661.508,112.007 662.75,113.25 C663.993,114.492 666.007,114.492 667.25,113.25 L699.068,81.432 C700.311,80.189 700.311,78.175 699.068,76.932 C697.826,75.689 695.811,75.689 694.568,76.932 Z" />
            <path d="M677.727,82.364 L696.818,82.364 L693.636,79.182 L693.636,98.273 C693.636,100.03 695.061,101.455 696.818,101.455 C698.575,101.455 700,100.03 700,98.273 L700,79.182 C700,77.425 698.575,76 696.818,76 L677.727,76 C675.97,76 674.545,77.425 674.545,79.182 C674.545,80.939 675.97,82.364 677.727,82.364 Z" />
        </g>
    </g>
</svg>