<?xml version="1.0" encoding="UTF-8"?>
<svg height="600" width="800" xmlns="http://www.w3.org/2000/svg" xmlns:xlink="http://www.w3.org/1999/xlink">
    <g id="Notes" font-family="LucidaGrande, 'Lucida Grande', sans-serif" font-size="13">
        <rect fill="white" height="600.0" width="800.0" x="0.0" y="0.0" />
        <g font-size="13">
            <text x="18.0" y="176.0">Small</text>
            <text x="18.0" y="376.0">Medium</text>
            <text x="18.0" y="576.0">Large</text>
        </g>
        <g font-size="9">
            <text x="250.0" y="30.0">Ultralight</text>
            <text x="450.0" y="30.0">Regular</text>
            <text x="650.0" y="30.0">Black</text>
            <text id="template-version" fill="#505050" text-anchor="end" x="785.0" y="575.0">Template v.3.0</text>
            <a href="https://github.com/swhitty/SwiftDraw">
                <text fill="#505050" text-anchor="end" x="785.0" y="590.0">https://github.com/swhitty/SwiftDraw</text>
            </a>
        </g>
    </g>
    <g id="Guides" stroke="rgb(39, 170, 225)" stroke-width="0.5">
        <path id="Capline-S" d="M18,76 l800,0" />
        <path id="H-reference" d="M85,145.755 L87.685,145.755 L113.369,79.287 L114.052,79.287 L114.052,76 L112.148,76 L85,145.755 Z M95.693,121.536 L130.996,121.536 L130.263,119.313 L96.474,119.313 L95.693,121.536 Z M139.15,145.755 L141.787,145.755 L114.638,76 L113.466,76 L113.466,79.287 L139.15,145.755 Z" stroke="none" transform="translate(0,200)" />
        <path id="Baseline-S" d="M18,146 l800,0" />
        <path id="left-margin-Ultralight-M" d="M222.222,256 l0,110" />
        <path id="right-margin-Ultralight-M" d="M307.778,256 l0,110" />
        <path id="left-margin-Regular-M" d="M422.222,256 l0,110" />
        <path id="right-margin-Regular-M" d="M507.778,256 l0,110" />
        <path id="left-margin-Black-M" d="M622.222,256 l0,110" />
        <path id="right-margin-Black-M" d="M707.778,256 l0,110" />
        <path id="Capline-M" d="M18,276 l800,0" />
        <path id="Baseline-M" d="M18,346 l800,0" />
        <path id="Capline-L" d="M18,476 l800,0" />
        <path id="Baseline-L" d="M18,546 l800,0" />
    </g>
    <g id="Symbols">
        <g id="Ultralight-M" transform="translate(0,200)">
            <path d="M257.222,114.928 L257.261,114.928 C259.409,114.928 261.15,113.187 261.15,111.039 C261.15,108.891 259.409,107.15 257.261,107.15 L257.222,107.15 C255.074,107.15 253.333,108.891 253.333,111.039 C253.333,113.187 255.074,114.928 257.222,114.928 Z" />
            <path d="M284.444,95.444 L284.444,111 C284.446,115.781 283.19,120.475 280.803,124.614 C279.73,126.474 280.368,128.852 282.228,129.925 C284.089,130.999 286.467,130.36 287.54,128.5 C290.61,123.178 292.224,117.143 292.222,110.999 L292.222,95.444 C292.222,93.297 290.481,91.556 288.333,91.556 C286.186,91.556 284.444,93.297 284.444,95.444 Z" />
            <path d="M245.556,111 C245.556,104.557 250.779,99.333 257.222,99.333 C263.666,99.333 268.889,104.557 268.889,111 C268.889,117.443 263.666,122.667 257.222,122.667 C250.779,122.667 245.556,117.443 245.556,111 Z M237.778,111 C237.778,121.739 246.483,130.444 257.222,130.444 C267.961,130.444 276.667,121.739 276.667,111 C276.667,100.261 267.961,91.556 257.222,91.556 C246.483,91.556 237.778,100.261 237.778,111 Z" />
            <path d="M300,111 L300,134.333 C300,135.365 299.59,136.354 298.861,137.083 C298.132,137.812 297.143,138.222 296.111,138.222 L233.889,138.222 C232.857,138.222 231.868,137.812 231.139,137.083 C230.41,136.354 230,135.365 230,134.333 L230,87.667 C230,86.635 230.41,85.646 231.139,84.917 C231.868,84.188 232.857,83.778 233.889,83.778 L296.111,83.778 C297.143,83.778 298.132,84.188 298.861,84.917 C299.59,85.646 300,86.635 300,87.667 L300,111 Z M307.778,111 L307.778,87.667 C307.778,84.572 306.549,81.605 304.361,79.417 C302.173,77.229 299.205,76 296.111,76 L233.889,76 C230.795,76 227.827,77.229 225.639,79.417 C223.451,81.605 222.222,84.572 222.222,87.667 L222.222,134.333 C222.222,137.428 223.451,140.395 225.639,142.583 C227.827,144.771 230.795,146 233.889,146 L296.111,146 C299.205,146 302.173,144.771 304.361,142.583 C306.549,140.395 307.778,137.428 307.778,134.333 L307.778,111 Z" />
        </g>
        <g id="Regular-M" transform="translate(0,200)">
            <path d="M457.222,114.928 L457.261,114.928 C459.409,114.928 461.15,113.187 461.15,111.039 C461.15,108.891 459.409,107.15 457.261,107.15 L457.222,107.15 C455.074,107.15 453.333,108.891 453.333,111.039 C453.333,113.187 455.074,114.928 457.222,114.928 Z" />
            <path d="M484.444,95.444 L484.444,111 C484.446,115.781 483.19,120.475 480.803,124.614 C479.73,126.474 480.368,128.852 482.228,129.925 C484.089,130.999 486.467,130.36 487.54,128.5 C490.61,123.178 492.224,117.143 492.222,110.999 L492.222,95.444 C492.222,93.297 490.481,91.556 488.333,91.556 C486.186,91.556 484.444,93.297 484.444,95.444 Z" />
            <path d="M445.556,111 C445.556,104.557 450.779,99.333 457.222,99.333 C463.666,99.333 468.889,104.557 468.889,111 C468.889,117.443 463.666,122.667 457.222,122.667 C450.779,122.667 445.556,117.443 445.556,111 Z M437.778,111 C437.778,121.739 446.483,130.444 457.222,130.444 C467.961,130.444 476.667,121.739 476.667,111 C476.667,100.261 467.961,91.556 457.222,91.556 C446.483,91.556 437.778,100.261 437.778,111 Z" />
            <path d="M500,111 L500,134.333 C500,135.365 499.59,136.354 498.861,137.083 C498.132,137.812 497.143,138.222 496.111,138.222 L433.889,138.222 C432.858,138.222 431.868,137.812 431.139,137.083 C430.41,136.354 430,135.365 430,134.333 L430,87.667 C430,86.635 430.41,85.646 431.139,84.917 C431.868,84.188 432.857,83.778 433.889,83.778 L496.111,83.778 C497.143,83.778 498.132,84.188 498.861,84.917 C499.59,85.646 500,86.635 500,87.667 L500,111 Z M507.778,111 L507.778,87.667 C507.778,84.572 506.549,81.605 504.361,79.417 C502.173,77.229 499.205,76 496.111,76 L433.889,76 C430.795,76 427.827,77.229 425.639,79.417 C423.451,81.605 422.222,84.572 422.222,87.667 L422.222,134.333 C422.222,137.428 423.451,140.395 425.639,142.583 C427.827,144.771 430.795,146 433.889,146 L496.111,146 C499.205,146 502.173,144.771 504.361,142.583 C506.549,140.395 507.778,137.428 507.778,134.333 L507.778,111 Z" />
        </g>
        <g id="Black-M" transform="translate(0,200)">
            <path d="M657.222,114.928 L657.261,114.928 C659.409,114.928 661.15,113.187 661.15,111.039 C661.15,108.891 659.409,107.15 657.261,107.15 L657.222,107.15 C655.074,107.15 653.333,108.891 653.333,111.039 C653.333,113.187 655.074,114.928 657.222,114.928 Z" />
            <path d="M684.444,95.444 L684.444,111 C684.446,115.781 683.19,120.475 680.803,124.614 C679.73,126.474 680.368,128.852 682.228,129.925 C684.089,130.999 686.467,130.36 687.54,128.5 C690.61,123.178 692.224,117.143 692.222,110.999 L692.222,95.444 C692.222,93.297 690.481,91.556 688.333,91.556 C686.186,91.556 684.444,93.297 684.444,95.444 Z" />
            <path d="M645.556,111 C645.556,104.557 650.779,99.333 657.222,99.333 C663.666,99.333 668.889,104.557 668.889,111 C668.889,117.443 663.666,122.667 657.222,122.667 C650.779,122.667 645.556,117.443 645.556,111 Z M637.778,111 C637.778,121.739 646.483,130.444 657.222,130.444 C667.961,130.444 676.667,121.739 676.667,111 C676.667,100.261 667.961,91.556 657.222,91.556 C646.483,91.556 637.778,100.261 637.778,111 Z" />
            <path d="M700,111 L700,134.333 C700,135.365 699.59,136.354 698.861,137.083 C698.132,137.812 697.143,138.222 696.111,138.222 L633.889,138.222 C632.857,138.222 631.868,137.812 631.139,137.083 C630.41,136.354 630,135.365 630,134.333 L630,87.667 C630,86.635 630.41,85.646 631.139,84.917 C631.868,84.188 632.857,83.778 633.889,83.778 L696.111,83.778 C697.143,83.778 698.132,84.188 698.861,84.917 C699.59,85.646 700,86.635 700,87.667 L700,111 Z M707.778,111 L707.778,87.667 C707.778,84.572 706.549,81.605 704.361,79.417 C702.173,77.229 699.205,76 696.111,76 L633.889,76 C630.795,76 627.827,77.229 625.639,79.417 C623.451,81.605 622.222,84.572 622.222,87.667 L622.222,134.333 C622.222,137.428 623.451,140.395 625.639,142.583 C627.827,144.771 630.795,146 633.889,146 L696.111,146 C699.205,146 702.173,144.771 704.361,142.583 C706.549,140.395 707.778,137.428 707.778,134.333 L707.778,111 Z" />
        </g>
    </g>
</svg>