<?xml version="1.0" encoding="UTF-8"?>
<svg height="600" width="800" xmlns="http://www.w3.org/2000/svg" xmlns:xlink="http://www.w3.org/1999/xlink">
    <g id="Notes" font-family="LucidaGrande, 'Lucida Grande', sans-serif" font-size="13">
        <rect fill="white" height="600.0" width="800.0" x="0.0" y="0.0" />
        <g font-size="13">
            <text x="18.0" y="176.0">Small</text>
            <text x="18.0" y="376.0">Medium</text>
            <text x="18.0" y="576.0">Large</text>
        </g>
        <g font-size="9">
            <text x="250.0" y="30.0">Ultralight</text>
            <text x="450.0" y="30.0">Regular</text>
            <text x="650.0" y="30.0">Black</text>
            <text id="template-version" fill="#505050" text-anchor="end" x="785.0" y="575.0">Template v.3.0</text>
            <a href="https://github.com/swhitty/SwiftDraw">
                <text fill="#505050" text-anchor="end" x="785.0" y="590.0">https://github.com/swhitty/SwiftDraw</text>
            </a>
        </g>
    </g>
    <g id="Guides" stroke="rgb(39, 170, 225)" stroke-width="0.5">
        <path id="Capline-S" d="M18,76 l800,0" />
        <path id="H-reference" d="M85,145.755 L87.685,145.755 L113.369,79.287 L114.052,79.287 L114.052,76 L112.148,76 L85,145.755 Z M95.693,121.536 L130.996,121.536 L130.263,119.313 L96.474,119.313 L95.693,121.536 Z M139.15,145.755 L141.787,145.755 L114.638,76 L113.466,76 L113.466,79.287 L139.15,145.755 Z" stroke="none" transform="translate(0,200)" />
        <path id="Baseline-S" d="M18,146 l800,0" />
        <path id="left-margin-Ultralight-M" d="M230,256 l0,110" />
        <path id="right-margin-Ultralight-M" d="M300,256 l0,110" />
        <path id="left-margin-Regular-M" d="M430,256 l0,110" />
        <path id="right-margin-Regular-M" d="M500,256 l0,110" />
        <path id="left-margin-Black-M" d="M630,256 l0,110" />
        <path id="right-margin-Black-M" d="M700,256 l0,110" />
        <path id="Capline-M" d="M18,276 l800,0" />
        <path id="Baseline-M" d="M18,346 l800,0" />
        <path id="Capline-L" d="M18,476 l800,0" />
        <path id="Baseline-L" d="M18,546 l800,0" />
    </g>
    <g id="Symbols">
        <g id="Ultralight-M" transform="translate(0,200)">
            <path d="M262.718,99.25 L235.973,125.996 C234.184,127.783 233.179,130.209 233.179,132.738 L233.179,137.011 C233.179,137.852 232.844,138.661 232.248,139.257 L234.496,141.504 L236.743,143.752 C237.339,143.156 238.147,142.821 238.99,142.821 L243.262,142.821 C245.791,142.821 248.217,141.816 250.004,140.027 L276.75,113.282 C277.991,112.04 277.991,110.028 276.75,108.786 C275.509,107.545 273.496,107.545 272.255,108.786 L245.509,135.532 C244.912,136.129 244.104,136.464 243.261,136.464 L238.989,136.464 C236.461,136.464 234.036,137.469 232.248,139.256 C229.251,142.253 233.747,146.749 236.744,143.752 C238.531,141.964 239.536,139.538 239.536,137.011 L239.536,132.738 C239.536,131.896 239.871,131.088 240.468,130.492 L267.214,103.745 C268.455,102.504 268.455,100.491 267.214,99.25 C265.972,98.009 263.96,98.009 262.718,99.25 Z" />
            <path d="M281.791,103.745 L283.062,105.017 C284.454,106.409 284.454,108.666 283.062,110.058 C281.67,111.45 279.414,111.45 278.022,110.058 L265.942,97.978 C264.55,96.586 264.55,94.33 265.942,92.938 C267.334,91.546 269.591,91.546 270.983,92.938 L272.255,94.209 C273.496,95.451 275.509,95.451 276.75,94.209 L287.558,83.401 C288.95,82.009 291.207,82.009 292.599,83.401 C293.991,84.793 293.991,87.05 292.599,88.442 L281.791,99.25 C280.549,100.491 280.549,102.504 281.791,103.745 Z M286.286,99.25 L284.039,101.498 L286.286,103.745 L297.094,92.938 C300.969,89.063 300.969,82.781 297.094,78.906 C293.219,75.031 286.937,75.031 283.062,78.906 L272.255,89.714 L274.502,91.961 L276.75,89.714 L275.479,88.442 C271.604,84.568 265.322,84.568 261.447,88.442 C257.572,92.317 257.572,98.599 261.447,102.474 L273.526,114.553 C277.401,118.428 283.683,118.428 287.558,114.553 C291.432,110.678 291.432,104.396 287.558,100.521 L286.286,99.25 Z" />
            <path d="M235.426,145.069 L236.742,143.753 C237.984,142.512 237.984,140.499 236.742,139.258 C235.501,138.016 233.488,138.016 232.247,139.258 L230.931,140.574 C229.69,141.815 229.69,143.828 230.931,145.069 C232.172,146.31 234.185,146.31 235.426,145.069 Z" />
        </g>
        <g id="Regular-M" transform="translate(0,200)">
            <path d="M462.718,99.25 L435.973,125.996 C434.184,127.783 433.179,130.209 433.179,132.738 L433.179,137.011 C433.179,137.852 432.844,138.661 432.248,139.257 L434.496,141.504 L436.743,143.752 C437.339,143.156 438.147,142.821 438.99,142.821 L443.262,142.821 C445.791,142.821 448.216,141.816 450.004,140.027 L476.75,113.282 C477.991,112.04 477.991,110.028 476.75,108.786 C475.509,107.545 473.496,107.545 472.255,108.786 L445.509,135.532 C444.912,136.129 444.104,136.464 443.261,136.464 L438.989,136.464 C436.461,136.464 434.036,137.469 432.248,139.256 C429.251,142.253 433.747,146.749 436.744,143.752 C438.531,141.964 439.536,139.538 439.536,137.011 L439.536,132.738 C439.536,131.896 439.871,131.088 440.468,130.492 L467.214,103.745 C468.455,102.504 468.455,100.491 467.214,99.25 C465.972,98.009 463.96,98.009 462.718,99.25 Z" />
            <path d="M481.791,103.745 L483.062,105.017 C484.454,106.409 484.454,108.666 483.062,110.058 C481.67,111.45 479.414,111.45 478.022,110.058 L465.942,97.978 C464.55,96.586 464.55,94.33 465.942,92.938 C467.334,91.546 469.591,91.546 470.983,92.938 L472.255,94.209 C473.496,95.451 475.509,95.451 476.75,94.209 L487.558,83.401 C488.95,82.009 491.207,82.009 492.599,83.401 C493.991,84.793 493.991,87.05 492.599,88.442 L481.791,99.25 C480.549,100.491 480.549,102.504 481.791,103.745 Z M486.286,99.25 L484.039,101.498 L486.286,103.745 L497.094,92.938 C500.969,89.063 500.969,82.781 497.094,78.906 C493.219,75.031 486.937,75.031 483.062,78.906 L472.255,89.714 L474.502,91.961 L476.75,89.714 L475.479,88.442 C471.604,84.568 465.322,84.568 461.447,88.442 C457.572,92.317 457.572,98.599 461.447,102.474 L473.526,114.553 C477.401,118.428 483.683,118.428 487.558,114.553 C491.432,110.678 491.432,104.396 487.558,100.521 L486.286,99.25 Z" />
            <path d="M435.426,145.069 L436.742,143.753 C437.984,142.512 437.984,140.499 436.742,139.258 C435.501,138.016 433.488,138.016 432.247,139.258 L430.931,140.574 C429.69,141.815 429.69,143.828 430.931,145.069 C432.172,146.31 434.185,146.31 435.426,145.069 Z" />
        </g>
        <g id="Black-M" transform="translate(0,200)">
            <path d="M662.718,99.25 L635.973,125.996 C634.184,127.783 633.179,130.209 633.179,132.738 L633.179,137.011 C633.179,137.852 632.844,138.661 632.248,139.257 L634.496,141.504 L636.743,143.752 C637.339,143.156 638.147,142.821 638.99,142.821 L643.262,142.821 C645.791,142.821 648.216,141.816 650.004,140.027 L676.75,113.282 C677.991,112.04 677.991,110.028 676.75,108.786 C675.509,107.545 673.496,107.545 672.255,108.786 L645.509,135.532 C644.912,136.129 644.104,136.464 643.261,136.464 L638.989,136.464 C636.461,136.464 634.036,137.469 632.248,139.256 C629.251,142.253 633.747,146.749 636.744,143.752 C638.531,141.964 639.536,139.538 639.536,137.011 L639.536,132.738 C639.536,131.896 639.871,131.088 640.468,130.492 L667.214,103.745 C668.455,102.504 668.455,100.491 667.214,99.25 C665.972,98.009 663.96,98.009 662.718,99.25 Z" />
            <path d="M681.791,103.745 L683.062,105.017 C684.454,106.409 684.454,108.666 683.062,110.058 C681.67,111.45 679.414,111.45 678.022,110.058 L665.942,97.978 C664.55,96.586 664.55,94.33 665.942,92.938 C667.334,91.546 669.591,91.546 670.983,92.938 L672.255,94.209 C673.496,95.451 675.509,95.451 676.75,94.209 L687.558,83.401 C688.95,82.009 691.207,82.009 692.599,83.401 C693.991,84.793 693.991,87.05 692.599,88.442 L681.791,99.25 C680.549,100.491 680.549,102.504 681.791,103.745 Z M686.286,99.25 L684.039,101.498 L686.286,103.745 L697.094,92.938 C700.969,89.063 700.969,82.781 697.094,78.906 C693.219,75.031 686.937,75.031 683.062,78.906 L672.255,89.714 L674.502,91.961 L676.75,89.714 L675.479,88.442 C671.604,84.568 665.322,84.568 661.447,88.442 C657.572,92.317 657.572,98.599 661.447,102.474 L673.526,114.553 C677.401,118.428 683.683,118.428 687.558,114.553 C691.432,110.678 691.432,104.396 687.558,100.521 L686.286,99.25 Z" />
            <path d="M635.426,145.069 L636.742,143.753 C637.984,142.512 637.984,140.499 636.742,139.258 C635.501,138.016 633.488,138.016 632.247,139.258 L630.931,140.574 C629.69,141.815 629.69,143.828 630.931,145.069 C632.172,146.31 634.185,146.31 635.426,145.069 Z" />
        </g>
    </g>
</svg>