<?xml version="1.0" encoding="UTF-8"?>
<svg height="600" width="800" xmlns="http://www.w3.org/2000/svg" xmlns:xlink="http://www.w3.org/1999/xlink">
    <g id="Notes" font-family="LucidaGrande, 'Lucida Grande', sans-serif" font-size="13">
        <rect fill="white" height="600.0" width="800.0" x="0.0" y="0.0" />
        <g font-size="13">
            <text x="18.0" y="176.0">Small</text>
            <text x="18.0" y="376.0">Medium</text>
            <text x="18.0" y="576.0">Large</text>
        </g>
        <g font-size="9">
            <text x="250.0" y="30.0">Ultralight</text>
            <text x="450.0" y="30.0">Regular</text>
            <text x="650.0" y="30.0">Black</text>
            <text id="template-version" fill="#505050" text-anchor="end" x="785.0" y="575.0">Template v.3.0</text>
            <a href="https://github.com/swhitty/SwiftDraw">
                <text fill="#505050" text-anchor="end" x="785.0" y="590.0">https://github.com/swhitty/SwiftDraw</text>
            </a>
        </g>
    </g>
    <g id="Guides" stroke="rgb(39, 170, 225)" stroke-width="0.5">
        <path id="Capline-S" d="M18,76 l800,0" />
        <path id="H-reference" d="M85,145.755 L87.685,145.755 L113.369,79.287 L114.052,79.287 L114.052,76 L112.148,76 L85,145.755 Z M95.693,121.536 L130.996,121.536 L130.263,119.313 L96.474,119.313 L95.693,121.536 Z M139.15,145.755 L141.787,145.755 L114.638,76 L113.466,76 L113.466,79.287 L139.15,145.755 Z" stroke="none" transform="translate(0,200)" />
        <path id="Baseline-S" d="M18,146 l800,0" />
        <path id="left-margin-Ultralight-M" d="M230,256 l0,110" />
        <path id="right-margin-Ultralight-M" d="M300,256 l0,110" />
        <path id="left-margin-Regular-M" d="M430,256 l0,110" />
        <path id="right-margin-Regular-M" d="M500,256 l0,110" />
        <path id="left-margin-Black-M" d="M630,256 l0,110" />
        <path id="right-margin-Black-M" d="M700,256 l0,110" />
        <path id="Capline-M" d="M18,276 l800,0" />
        <path id="Baseline-M" d="M18,346 l800,0" />
        <path id="Capline-L" d="M18,476 l800,0" />
        <path id="Baseline-L" d="M18,546 l800,0" />
    </g>
    <g id="Symbols">
        <g id="Ultralight-M" transform="translate(0,200)">
            <path d="M273.615,119.884 C271.968,127.675 268.187,134.854 262.696,140.62 L267.304,140.62 C251.505,124.031 251.505,97.964 267.304,81.376 C269.234,79.35 267.797,75.999 264.999,76 C247.044,76.005 232.005,89.594 230.188,107.455 C228.371,125.317 240.365,141.656 257.951,145.277 C275.536,148.897 293.01,138.624 298.396,121.497 C298.923,119.821 297.992,118.035 296.315,117.508 C294.639,116.98 292.853,117.912 292.326,119.588 C287.919,133.601 273.622,142.006 259.234,139.044 C244.845,136.082 235.032,122.713 236.519,108.099 C238.006,93.486 250.311,82.367 265.001,82.363 L262.696,76.987 C244.556,96.033 244.556,125.962 262.696,145.008 C263.95,146.325 266.05,146.325 267.304,145.008 C273.609,138.388 277.95,130.145 279.841,121.201 C280.205,119.482 279.106,117.793 277.386,117.43 C275.667,117.066 273.979,118.165 273.615,119.884 Z" />
            <path d="M233.182,114.179 L260.227,114.179 C261.985,114.179 263.409,112.755 263.409,110.998 C263.409,109.241 261.985,107.816 260.227,107.816 L233.182,107.816 C231.425,107.816 230,109.241 230,110.998 C230,112.755 231.425,114.179 233.182,114.179 Z" />
            <path d="M293.636,91.908 L293.636,85.545 C293.636,80.273 289.363,76 284.091,76 C278.819,76 274.545,80.273 274.545,85.545 L274.545,91.908 C274.545,93.665 275.97,95.09 277.727,95.09 C279.485,95.09 280.909,93.665 280.909,91.908 L280.909,85.545 C280.909,83.788 282.334,82.363 284.091,82.363 C285.848,82.363 287.273,83.788 287.273,85.545 L287.273,91.908 C287.273,93.665 288.697,95.09 290.455,95.09 C292.212,95.09 293.636,93.665 293.636,91.908 Z" />
            <path d="M293.636,99.862 L293.636,104.635 C293.636,104.635 293.636,104.635 293.636,104.635 C293.636,104.635 293.636,104.635 293.636,104.635 L274.545,104.635 C274.545,104.635 274.545,104.635 274.545,104.635 C274.545,104.635 274.545,104.635 274.545,104.635 L274.545,95.09 C274.545,95.09 274.545,95.09 274.545,95.09 C274.545,95.09 274.545,95.09 274.545,95.09 L293.636,95.09 C293.636,95.09 293.636,95.09 293.636,95.09 C293.636,95.09 293.636,95.09 293.636,95.09 L293.636,99.862 Z M300,99.862 L300,95.09 C300,93.402 299.33,91.784 298.136,90.59 C296.943,89.397 295.324,88.726 293.636,88.726 L274.545,88.726 C272.858,88.726 271.239,89.397 270.046,90.59 C268.852,91.784 268.182,93.402 268.182,95.09 L268.182,104.635 C268.182,106.322 268.852,107.941 270.046,109.134 C271.239,110.327 272.858,110.998 274.545,110.998 L293.636,110.998 C295.324,110.998 296.943,110.327 298.136,109.134 C299.33,107.941 300,106.322 300,104.635 L300,99.862 Z" />
        </g>
        <g id="Regular-M" transform="translate(0,200)">
            <path d="M473.615,119.884 C471.968,127.675 468.187,134.854 462.696,140.62 L467.304,140.62 C451.505,124.031 451.505,97.964 467.304,81.376 C469.234,79.35 467.797,75.999 464.999,76 C447.044,76.005 432.005,89.594 430.188,107.455 C428.371,125.317 440.365,141.656 457.951,145.277 C475.536,148.897 493.01,138.624 498.396,121.497 C498.923,119.821 497.992,118.035 496.315,117.508 C494.639,116.98 492.853,117.912 492.326,119.588 C487.919,133.601 473.622,142.006 459.234,139.044 C444.845,136.082 435.032,122.713 436.519,108.099 C438.006,93.486 450.311,82.367 465.001,82.363 L462.696,76.987 C444.556,96.033 444.556,125.962 462.696,145.008 C463.95,146.325 466.05,146.325 467.304,145.008 C473.609,138.388 477.95,130.145 479.841,121.201 C480.205,119.482 479.106,117.793 477.386,117.43 C475.667,117.066 473.979,118.165 473.615,119.884 Z" />
            <path d="M433.182,114.179 L460.227,114.179 C461.985,114.179 463.409,112.755 463.409,110.998 C463.409,109.241 461.985,107.816 460.227,107.816 L433.182,107.816 C431.425,107.816 430,109.241 430,110.998 C430,112.755 431.425,114.179 433.182,114.179 Z" />
            <path d="M493.636,91.908 L493.636,85.545 C493.636,80.273 489.363,76 484.091,76 C478.819,76 474.545,80.273 474.545,85.545 L474.545,91.908 C474.545,93.665 475.97,95.09 477.727,95.09 C479.485,95.09 480.909,93.665 480.909,91.908 L480.909,85.545 C480.909,83.788 482.334,82.363 484.091,82.363 C485.848,82.363 487.273,83.788 487.273,85.545 L487.273,91.908 C487.273,93.665 488.697,95.09 490.455,95.09 C492.212,95.09 493.636,93.665 493.636,91.908 Z" />
            <path d="M493.636,99.862 L493.636,104.635 C493.636,104.635 493.636,104.635 493.636,104.635 C493.636,104.635 493.636,104.635 493.636,104.635 L474.545,104.635 C474.545,104.635 474.545,104.635 474.545,104.635 C474.545,104.635 474.545,104.635 474.545,104.635 L474.545,95.09 C474.545,95.09 474.545,95.09 474.545,95.09 C474.545,95.09 474.545,95.09 474.545,95.09 L493.636,95.09 C493.636,95.09 493.636,95.09 493.636,95.09 C493.636,95.09 493.636,95.09 493.636,95.09 L493.636,99.862 Z M500,99.862 L500,95.09 C500,93.402 499.33,91.784 498.136,90.59 C496.943,89.397 495.324,88.726 493.636,88.726 L474.545,88.726 C472.858,88.726 471.239,89.397 470.046,90.59 C468.852,91.784 468.182,93.402 468.182,95.09 L468.182,104.635 C468.182,106.322 468.852,107.941 470.046,109.134 C471.239,110.327 472.858,110.998 474.545,110.998 L493.636,110.998 C495.324,110.998 496.943,110.327 498.136,109.134 C499.33,107.941 500,106.322 500,104.635 L500,99.862 Z" />
        </g>
        <g id="Black-M" transform="translate(0,200)">
            <path d="M673.615,119.884 C671.968,127.675 668.187,134.854 662.696,140.62 L667.304,140.62 C651.505,124.031 651.505,97.964 667.304,81.376 C669.234,79.35 667.797,75.999 664.999,76 C647.044,76.005 632.005,89.594 630.188,107.455 C628.371,125.317 640.365,141.656 657.951,145.277 C675.536,148.897 693.01,138.624 698.396,121.497 C698.923,119.821 697.992,118.035 696.315,117.508 C694.639,116.98 692.853,117.912 692.326,119.588 C687.919,133.601 673.622,142.006 659.234,139.044 C644.845,136.082 635.032,122.713 636.519,108.099 C638.006,93.486 650.311,82.367 665.001,82.363 L662.696,76.987 C644.556,96.033 644.556,125.962 662.696,145.008 C663.95,146.325 666.05,146.325 667.304,145.008 C673.609,138.388 677.95,130.145 679.841,121.201 C680.205,119.482 679.106,117.793 677.386,117.43 C675.667,117.066 673.979,118.165 673.615,119.884 Z" />
            <path d="M633.182,114.179 L660.227,114.179 C661.985,114.179 663.409,112.755 663.409,110.998 C663.409,109.241 661.985,107.816 660.227,107.816 L633.182,107.816 C631.425,107.816 630,109.241 630,110.998 C630,112.755 631.425,114.179 633.182,114.179 Z" />
            <path d="M693.636,91.908 L693.636,85.545 C693.636,80.273 689.363,76 684.091,76 C678.819,76 674.545,80.273 674.545,85.545 L674.545,91.908 C674.545,93.665 675.97,95.09 677.727,95.09 C679.485,95.09 680.909,93.665 680.909,91.908 L680.909,85.545 C680.909,83.788 682.334,82.363 684.091,82.363 C685.848,82.363 687.273,83.788 687.273,85.545 L687.273,91.908 C687.273,93.665 688.697,95.09 690.455,95.09 C692.212,95.09 693.636,93.665 693.636,91.908 Z" />
            <path d="M693.636,99.862 L693.636,104.635 C693.636,104.635 693.636,104.635 693.636,104.635 C693.636,104.635 693.636,104.635 693.636,104.635 L674.545,104.635 C674.545,104.635 674.545,104.635 674.545,104.635 C674.545,104.635 674.545,104.635 674.545,104.635 L674.545,95.09 C674.545,95.09 674.545,95.09 674.545,95.09 C674.545,95.09 674.545,95.09 674.545,95.09 L693.636,95.09 C693.636,95.09 693.636,95.09 693.636,95.09 C693.636,95.09 693.636,95.09 693.636,95.09 L693.636,99.862 Z M700,99.862 L700,95.09 C700,93.402 699.33,91.784 698.136,90.59 C696.943,89.397 695.324,88.726 693.636,88.726 L674.545,88.726 C672.858,88.726 671.239,89.397 670.046,90.59 C668.852,91.784 668.182,93.402 668.182,95.09 L668.182,104.635 C668.182,106.322 668.852,107.941 670.046,109.134 C671.239,110.327 672.858,110.998 674.545,110.998 L693.636,110.998 C695.324,110.998 696.943,110.327 698.136,109.134 C699.33,107.941 700,106.322 700,104.635 L700,99.862 Z" />
        </g>
    </g>
</svg>