<?xml version="1.0" encoding="UTF-8"?>
<svg height="600" width="800" xmlns="http://www.w3.org/2000/svg" xmlns:xlink="http://www.w3.org/1999/xlink">
    <g id="Notes" font-family="LucidaGrande, 'Lucida Grande', sans-serif" font-size="13">
        <rect fill="white" height="600.0" width="800.0" x="0.0" y="0.0" />
        <g font-size="13">
            <text x="18.0" y="176.0">Small</text>
            <text x="18.0" y="376.0">Medium</text>
            <text x="18.0" y="576.0">Large</text>
        </g>
        <g font-size="9">
            <text x="250.0" y="30.0">Ultralight</text>
            <text x="450.0" y="30.0">Regular</text>
            <text x="650.0" y="30.0">Black</text>
            <text id="template-version" fill="#505050" text-anchor="end" x="785.0" y="575.0">Template v.3.0</text>
            <a href="https://github.com/swhitty/SwiftDraw">
                <text fill="#505050" text-anchor="end" x="785.0" y="590.0">https://github.com/swhitty/SwiftDraw</text>
            </a>
        </g>
    </g>
    <g id="Guides" stroke="rgb(39, 170, 225)" stroke-width="0.5">
        <path id="Capline-S" d="M18,76 l800,0" />
        <path id="H-reference" d="M85,145.755 L87.685,145.755 L113.369,79.287 L114.052,79.287 L114.052,76 L112.148,76 L85,145.755 Z M95.693,121.536 L130.996,121.536 L130.263,119.313 L96.474,119.313 L95.693,121.536 Z M139.15,145.755 L141.787,145.755 L114.638,76 L113.466,76 L113.466,79.287 L139.15,145.755 Z" stroke="none" transform="translate(0,200)" />
        <path id="Baseline-S" d="M18,146 l800,0" />
        <path id="left-margin-Ultralight-M" d="M230,256 l0,110" />
        <path id="right-margin-Ultralight-M" d="M300,256 l0,110" />
        <path id="left-margin-Regular-M" d="M430,256 l0,110" />
        <path id="right-margin-Regular-M" d="M500,256 l0,110" />
        <path id="left-margin-Black-M" d="M630,256 l0,110" />
        <path id="right-margin-Black-M" d="M700,256 l0,110" />
        <path id="Capline-M" d="M18,276 l800,0" />
        <path id="Baseline-M" d="M18,346 l800,0" />
        <path id="Capline-L" d="M18,476 l800,0" />
        <path id="Baseline-L" d="M18,546 l800,0" />
    </g>
    <g id="Symbols">
        <g id="Ultralight-M" transform="translate(0,200)">
            <path d="M274.728,100.024 L282.187,107.69 C284.732,110.255 288.768,110.255 291.29,107.714 L298.123,100.69 C300.618,98.074 300.618,93.926 298.146,91.333 L290.665,83.643 C289.398,82.341 287.345,82.341 286.078,83.643 C284.812,84.945 284.812,87.055 286.078,88.357 L293.537,96.024 C293.514,96 293.514,96 293.514,96 L286.727,102.976 C286.75,102.953 286.75,102.953 286.75,102.953 L279.315,95.31 C278.048,94.008 275.995,94.008 274.728,95.31 C273.462,96.611 273.462,98.722 274.728,100.024 Z" />
            <path d="M292.564,76.976 L261.433,108.976 C260.166,110.278 260.166,112.389 261.433,113.69 C262.699,114.992 264.752,114.992 266.019,113.69 L297.15,81.69 C298.417,80.389 298.417,78.278 297.15,76.976 C295.884,75.675 293.831,75.675 292.564,76.976 Z" />
            <path d="M236.486,124.333 C236.486,116.049 243.019,109.333 251.079,109.333 C259.138,109.333 265.672,116.049 265.672,124.333 C265.672,132.618 259.138,139.333 251.079,139.333 C243.019,139.333 236.486,132.618 236.486,124.333 Z M230,124.333 C230,136.299 239.437,146 251.079,146 C262.72,146 272.157,136.299 272.157,124.333 C272.157,112.367 262.72,102.667 251.079,102.667 C239.437,102.667 230,112.367 230,124.333 Z" />
        </g>
        <g id="Regular-M" transform="translate(0,200)">
            <path d="M474.728,100.024 L482.187,107.69 C484.732,110.255 488.768,110.255 491.29,107.714 L498.123,100.69 C500.618,98.074 500.618,93.926 498.146,91.333 L490.665,83.643 C489.398,82.341 487.345,82.341 486.078,83.643 C484.812,84.945 484.812,87.055 486.078,88.357 L493.537,96.024 C493.514,96 493.514,96 493.514,96 L486.727,102.976 C486.75,102.953 486.75,102.953 486.75,102.953 L479.315,95.31 C478.048,94.008 475.995,94.008 474.728,95.31 C473.462,96.611 473.462,98.722 474.728,100.024 Z" />
            <path d="M492.564,76.976 L461.433,108.976 C460.166,110.278 460.166,112.389 461.433,113.69 C462.699,114.992 464.752,114.992 466.019,113.69 L497.15,81.69 C498.417,80.389 498.417,78.278 497.15,76.976 C495.884,75.675 493.831,75.675 492.564,76.976 Z" />
            <path d="M436.486,124.333 C436.486,116.049 443.019,109.333 451.079,109.333 C459.138,109.333 465.672,116.049 465.672,124.333 C465.672,132.618 459.138,139.333 451.079,139.333 C443.019,139.333 436.486,132.618 436.486,124.333 Z M430,124.333 C430,136.299 439.437,146 451.079,146 C462.72,146 472.157,136.299 472.157,124.333 C472.157,112.367 462.72,102.667 451.079,102.667 C439.437,102.667 430,112.367 430,124.333 Z" />
        </g>
        <g id="Black-M" transform="translate(0,200)">
            <path d="M674.728,100.024 L682.187,107.69 C684.732,110.255 688.768,110.255 691.29,107.714 L698.123,100.69 C700.618,98.074 700.618,93.926 698.146,91.333 L690.665,83.643 C689.398,82.341 687.345,82.341 686.078,83.643 C684.812,84.945 684.812,87.055 686.078,88.357 L693.537,96.024 C693.514,96 693.514,96 693.514,96 L686.727,102.976 C686.75,102.953 686.75,102.953 686.75,102.953 L679.315,95.31 C678.048,94.008 675.995,94.008 674.728,95.31 C673.462,96.611 673.462,98.722 674.728,100.024 Z" />
            <path d="M692.564,76.976 L661.433,108.976 C660.166,110.278 660.166,112.389 661.433,113.69 C662.699,114.992 664.752,114.992 666.019,113.69 L697.15,81.69 C698.417,80.389 698.417,78.278 697.15,76.976 C695.884,75.675 693.831,75.675 692.564,76.976 Z" />
            <path d="M636.486,124.333 C636.486,116.049 643.019,109.333 651.079,109.333 C659.138,109.333 665.672,116.049 665.672,124.333 C665.672,132.618 659.138,139.333 651.079,139.333 C643.019,139.333 636.486,132.618 636.486,124.333 Z M630,124.333 C630,136.299 639.437,146 651.079,146 C662.72,146 672.157,136.299 672.157,124.333 C672.157,112.367 662.72,102.667 651.079,102.667 C639.437,102.667 630,112.367 630,124.333 Z" />
        </g>
    </g>
</svg>