<?xml version="1.0" encoding="UTF-8"?>
<svg height="600" width="800" xmlns="http://www.w3.org/2000/svg" xmlns:xlink="http://www.w3.org/1999/xlink">
    <g id="Notes" font-family="LucidaGrande, 'Lucida Grande', sans-serif" font-size="13">
        <rect fill="white" height="600.0" width="800.0" x="0.0" y="0.0" />
        <g font-size="13">
            <text x="18.0" y="176.0">Small</text>
            <text x="18.0" y="376.0">Medium</text>
            <text x="18.0" y="576.0">Large</text>
        </g>
        <g font-size="9">
            <text x="250.0" y="30.0">Ultralight</text>
            <text x="450.0" y="30.0">Regular</text>
            <text x="650.0" y="30.0">Black</text>
            <text id="template-version" fill="#505050" text-anchor="end" x="785.0" y="575.0">Template v.3.0</text>
            <a href="https://github.com/swhitty/SwiftDraw">
                <text fill="#505050" text-anchor="end" x="785.0" y="590.0">https://github.com/swhitty/SwiftDraw</text>
            </a>
        </g>
    </g>
    <g id="Guides" stroke="rgb(39, 170, 225)" stroke-width="0.5">
        <path id="Capline-S" d="M18,76 l800,0" />
        <path id="H-reference" d="M85,145.755 L87.685,145.755 L113.369,79.287 L114.052,79.287 L114.052,76 L112.148,76 L85,145.755 Z M95.693,121.536 L130.996,121.536 L130.263,119.313 L96.474,119.313 L95.693,121.536 Z M139.15,145.755 L141.787,145.755 L114.638,76 L113.466,76 L113.466,79.287 L139.15,145.755 Z" stroke="none" transform="translate(0,200)" />
        <path id="Baseline-S" d="M18,146 l800,0" />
        <path id="left-margin-Ultralight-M" d="M224.167,256 l0,110" />
        <path id="right-margin-Ultralight-M" d="M305.833,256 l0,110" />
        <path id="left-margin-Regular-M" d="M424.167,256 l0,110" />
        <path id="right-margin-Regular-M" d="M505.833,256 l0,110" />
        <path id="left-margin-Black-M" d="M624.167,256 l0,110" />
        <path id="right-margin-Black-M" d="M705.833,256 l0,110" />
        <path id="Capline-M" d="M18,276 l800,0" />
        <path id="Baseline-M" d="M18,346 l800,0" />
        <path id="Capline-L" d="M18,476 l800,0" />
        <path id="Baseline-L" d="M18,546 l800,0" />
    </g>
    <g id="Symbols">
        <g id="Ultralight-M" transform="translate(0,200)">
            <path d="M248.639,104.361 L225.306,127.695 C224.576,128.424 224.167,129.413 224.167,130.444 L224.167,142.111 C224.167,144.259 225.908,146 228.056,146 L263.056,146 C264.087,146 265.076,145.59 265.805,144.861 L277.472,133.194 C278.991,131.676 278.991,129.213 277.472,127.695 C275.953,126.176 273.491,126.176 271.972,127.695 L260.306,139.361 L263.056,138.222 L228.056,138.222 L231.944,142.111 L231.944,130.444 L230.805,133.194 L254.139,109.861 C255.657,108.342 255.657,105.88 254.139,104.361 C252.62,102.843 250.158,102.843 248.639,104.361 Z" />
            <path d="M299.195,108.25 L281.306,126.139 C279.821,127.594 277.401,127.594 275.889,126.112 L255.694,105.917 C254.239,104.432 254.239,102.012 255.722,100.5 L273.583,82.639 C275.102,81.12 275.102,78.658 273.583,77.139 C272.064,75.62 269.602,75.62 268.083,77.139 L250.195,95.028 C245.721,99.592 245.721,106.852 250.167,111.389 L270.417,131.639 C274.981,136.113 282.241,136.113 286.778,131.666 L304.694,113.75 C306.213,112.231 306.213,109.769 304.694,108.25 C303.176,106.731 300.713,106.731 299.195,108.25 Z" />
        </g>
        <g id="Regular-M" transform="translate(0,200)">
            <path d="M448.639,104.361 L425.306,127.695 C424.576,128.424 424.167,129.413 424.167,130.444 L424.167,142.111 C424.167,144.259 425.908,146 428.056,146 L463.056,146 C464.087,146 465.076,145.59 465.805,144.861 L477.472,133.194 C478.991,131.676 478.991,129.213 477.472,127.695 C475.953,126.176 473.491,126.176 471.972,127.695 L460.306,139.361 L463.056,138.222 L428.056,138.222 L431.944,142.111 L431.944,130.444 L430.805,133.194 L454.139,109.861 C455.657,108.342 455.657,105.88 454.139,104.361 C452.62,102.843 450.158,102.843 448.639,104.361 Z" />
            <path d="M499.195,108.25 L481.306,126.139 C479.821,127.594 477.401,127.594 475.889,126.112 L455.694,105.917 C454.239,104.432 454.239,102.012 455.722,100.5 L473.583,82.639 C475.102,81.12 475.102,78.658 473.583,77.139 C472.064,75.62 469.602,75.62 468.083,77.139 L450.195,95.028 C445.721,99.592 445.721,106.852 450.167,111.389 L470.417,131.639 C474.981,136.113 482.241,136.113 486.778,131.666 L504.694,113.75 C506.213,112.231 506.213,109.769 504.694,108.25 C503.176,106.731 500.713,106.731 499.195,108.25 Z" />
        </g>
        <g id="Black-M" transform="translate(0,200)">
            <path d="M648.639,104.361 L625.306,127.695 C624.576,128.424 624.167,129.413 624.167,130.444 L624.167,142.111 C624.167,144.259 625.908,146 628.056,146 L663.056,146 C664.087,146 665.076,145.59 665.805,144.861 L677.472,133.194 C678.991,131.676 678.991,129.213 677.472,127.695 C675.953,126.176 673.491,126.176 671.972,127.695 L660.306,139.361 L663.056,138.222 L628.056,138.222 L631.944,142.111 L631.944,130.444 L630.805,133.194 L654.139,109.861 C655.657,108.342 655.657,105.88 654.139,104.361 C652.62,102.843 650.158,102.843 648.639,104.361 Z" />
            <path d="M699.195,108.25 L681.306,126.139 C679.821,127.594 677.401,127.594 675.889,126.112 L655.694,105.917 C654.239,104.432 654.239,102.012 655.722,100.5 L673.583,82.639 C675.102,81.12 675.102,78.658 673.583,77.139 C672.065,75.62 669.602,75.62 668.083,77.139 L650.195,95.028 C645.721,99.592 645.721,106.852 650.167,111.389 L670.417,131.639 C674.981,136.113 682.241,136.113 686.778,131.666 L704.694,113.75 C706.213,112.231 706.213,109.769 704.694,108.25 C703.176,106.731 700.713,106.731 699.195,108.25 Z" />
        </g>
    </g>
</svg>