<?xml version="1.0" encoding="UTF-8"?>
<svg height="600" width="800" xmlns="http://www.w3.org/2000/svg" xmlns:xlink="http://www.w3.org/1999/xlink">
    <g id="Notes" font-family="LucidaGrande, 'Lucida Grande', sans-serif" font-size="13">
        <rect fill="white" height="600.0" width="800.0" x="0.0" y="0.0" />
        <g font-size="13">
            <text x="18.0" y="176.0">Small</text>
            <text x="18.0" y="376.0">Medium</text>
            <text x="18.0" y="576.0">Large</text>
        </g>
        <g font-size="9">
            <text x="250.0" y="30.0">Ultralight</text>
            <text x="450.0" y="30.0">Regular</text>
            <text x="650.0" y="30.0">Black</text>
            <text id="template-version" fill="#505050" text-anchor="end" x="785.0" y="575.0">Template v.3.0</text>
            <a href="https://github.com/swhitty/SwiftDraw">
                <text fill="#505050" text-anchor="end" x="785.0" y="590.0">https://github.com/swhitty/SwiftDraw</text>
            </a>
        </g>
    </g>
    <g id="Guides" stroke="rgb(39, 170, 225)" stroke-width="0.5">
        <path id="Capline-S" d="M18,76 l800,0" />
        <path id="H-reference" d="M85,145.755 L87.685,145.755 L113.369,79.287 L114.052,79.287 L114.052,76 L112.148,76 L85,145.755 Z M95.693,121.536 L130.996,121.536 L130.263,119.313 L96.474,119.313 L95.693,121.536 Z M139.15,145.755 L141.787,145.755 L114.638,76 L113.466,76 L113.466,79.287 L139.15,145.755 Z" stroke="none" transform="translate(0,200)" />
        <path id="Baseline-S" d="M18,146 l800,0" />
        <path id="left-margin-Ultralight-M" d="M230,256 l0,110" />
        <path id="right-margin-Ultralight-M" d="M300,256 l0,110" />
        <path id="left-margin-Regular-M" d="M430,256 l0,110" />
        <path id="right-margin-Regular-M" d="M500,256 l0,110" />
        <path id="left-margin-Black-M" d="M630,256 l0,110" />
        <path id="right-margin-Black-M" d="M700,256 l0,110" />
        <path id="Capline-M" d="M18,276 l800,0" />
        <path id="Baseline-M" d="M18,346 l800,0" />
        <path id="Capline-L" d="M18,476 l800,0" />
        <path id="Baseline-L" d="M18,546 l800,0" />
    </g>
    <g id="Symbols">
        <g id="Ultralight-M" transform="translate(0,200)">
            <path d="M264.466,100.038 C267.938,94.829 267.495,91.507 264.466,86.962 C262.723,84.348 262.635,83.692 264.466,80.947 C265.44,79.485 265.045,77.509 263.583,76.534 C262.121,75.56 260.146,75.955 259.171,77.417 C255.698,82.626 256.141,85.948 259.171,90.492 C260.914,93.107 261.001,93.762 259.171,96.508 C258.196,97.97 258.591,99.945 260.053,100.92 C261.515,101.895 263.491,101.5 264.466,100.038 Z" />
            <path d="M278.784,100.038 C282.256,94.829 281.814,91.507 278.784,86.962 C277.041,84.348 276.953,83.692 278.784,80.947 C279.759,79.485 279.363,77.509 277.901,76.534 C276.439,75.56 274.464,75.955 273.489,77.417 C270.016,82.626 270.459,85.948 273.489,90.492 C275.232,93.107 275.319,93.762 273.489,96.508 C272.514,97.97 272.909,99.945 274.371,100.92 C275.834,101.895 277.809,101.5 278.784,100.038 Z" />
            <path d="M245.909,107.818 L245.941,107.818 C247.698,107.818 249.123,106.394 249.123,104.636 C249.123,102.879 247.698,101.455 245.941,101.455 L245.909,101.455 C244.152,101.455 242.727,102.879 242.727,104.636 C242.727,106.394 244.152,107.818 245.909,107.818 Z" />
            <path d="M245.909,120.545 L245.941,120.545 C247.698,120.545 249.123,119.121 249.123,117.364 C249.123,115.606 247.698,114.182 245.941,114.182 L245.909,114.182 C244.152,114.182 242.727,115.606 242.727,117.364 C242.727,119.121 244.152,120.545 245.909,120.545 Z" />
            <path d="M261.818,123.727 L261.818,111 C261.818,109.243 260.394,107.818 258.636,107.818 C256.879,107.818 255.455,109.243 255.455,111 L255.455,123.727 C255.455,125.485 256.879,126.909 258.636,126.909 C260.394,126.909 261.818,125.485 261.818,123.727 Z" />
            <path d="M274.545,123.727 L274.545,111 C274.545,109.243 273.121,107.818 271.364,107.818 C269.606,107.818 268.182,109.243 268.182,111 L268.182,123.727 C268.182,125.485 269.606,126.909 271.364,126.909 C273.121,126.909 274.545,125.485 274.545,123.727 Z" />
            <path d="M287.273,123.727 L287.273,111 C287.273,109.243 285.848,107.818 284.091,107.818 C282.334,107.818 280.909,109.243 280.909,111 L280.909,123.727 C280.909,125.485 282.334,126.909 284.091,126.909 C285.848,126.909 287.273,125.485 287.273,123.727 Z" />
            <path d="M290.455,95.091 C291.298,95.091 292.108,95.426 292.704,96.023 C293.301,96.62 293.636,97.429 293.636,98.273 L293.636,130.091 C293.636,130.935 293.301,131.744 292.704,132.341 C292.108,132.938 291.298,133.273 290.455,133.273 L239.545,133.273 C238.702,133.273 237.892,132.938 237.296,132.341 C236.699,131.744 236.364,130.935 236.364,130.091 L236.364,98.273 C236.364,97.429 236.699,96.62 237.296,96.023 C237.892,95.426 238.702,95.091 239.545,95.091 L249.091,95.091 C250.848,95.091 252.273,93.666 252.273,91.909 C252.273,90.152 250.848,88.727 249.091,88.727 L239.545,88.727 C237.014,88.727 234.586,89.733 232.796,91.523 C231.006,93.313 230,95.741 230,98.273 L230,130.091 C230,132.623 231.006,135.05 232.796,136.841 C234.586,138.631 237.014,139.636 239.545,139.636 L290.455,139.636 C292.986,139.636 295.414,138.631 297.204,136.841 C298.994,135.05 300,132.623 300,130.091 L300,98.273 C300,95.741 298.994,93.313 297.204,91.523 C295.414,89.733 292.986,88.727 290.455,88.727 C288.697,88.727 287.273,90.152 287.273,91.909 C287.273,93.666 288.697,95.091 290.455,95.091 Z" />
            <path d="M239.545,136.455 L239.545,142.818 C239.545,144.575 240.97,146 242.727,146 C244.485,146 245.909,144.575 245.909,142.818 L245.909,136.455 C245.909,134.697 244.485,133.273 242.727,133.273 C240.97,133.273 239.545,134.697 239.545,136.455 Z" />
            <path d="M284.091,136.455 L284.091,142.818 C284.091,144.575 285.515,146 287.273,146 C289.03,146 290.455,144.575 290.455,142.818 L290.455,136.455 C290.455,134.697 289.03,133.273 287.273,133.273 C285.515,133.273 284.091,134.697 284.091,136.455 Z" />
        </g>
        <g id="Regular-M" transform="translate(0,200)">
            <path d="M464.466,100.038 C467.938,94.829 467.495,91.507 464.466,86.962 C462.723,84.348 462.635,83.692 464.466,80.947 C465.44,79.485 465.045,77.509 463.583,76.534 C462.121,75.56 460.146,75.955 459.171,77.417 C455.698,82.626 456.141,85.948 459.171,90.492 C460.914,93.107 461.001,93.762 459.171,96.508 C458.196,97.97 458.591,99.945 460.053,100.92 C461.515,101.895 463.491,101.5 464.466,100.038 Z" />
            <path d="M478.784,100.038 C482.256,94.829 481.814,91.507 478.784,86.962 C477.041,84.348 476.953,83.692 478.784,80.947 C479.759,79.485 479.363,77.509 477.901,76.534 C476.439,75.56 474.464,75.955 473.489,77.417 C470.016,82.626 470.459,85.948 473.489,90.492 C475.232,93.107 475.319,93.762 473.489,96.508 C472.514,97.97 472.909,99.945 474.371,100.92 C475.834,101.895 477.809,101.5 478.784,100.038 Z" />
            <path d="M445.909,107.818 L445.941,107.818 C447.698,107.818 449.123,106.394 449.123,104.636 C449.123,102.879 447.698,101.455 445.941,101.455 L445.909,101.455 C444.152,101.455 442.727,102.879 442.727,104.636 C442.727,106.394 444.152,107.818 445.909,107.818 Z" />
            <path d="M445.909,120.545 L445.941,120.545 C447.698,120.545 449.123,119.121 449.123,117.364 C449.123,115.606 447.698,114.182 445.941,114.182 L445.909,114.182 C444.152,114.182 442.727,115.606 442.727,117.364 C442.727,119.121 444.152,120.545 445.909,120.545 Z" />
            <path d="M461.818,123.727 L461.818,111 C461.818,109.243 460.394,107.818 458.636,107.818 C456.879,107.818 455.455,109.243 455.455,111 L455.455,123.727 C455.455,125.485 456.879,126.909 458.636,126.909 C460.394,126.909 461.818,125.485 461.818,123.727 Z" />
            <path d="M474.545,123.727 L474.545,111 C474.545,109.243 473.121,107.818 471.364,107.818 C469.606,107.818 468.182,109.243 468.182,111 L468.182,123.727 C468.182,125.485 469.606,126.909 471.364,126.909 C473.121,126.909 474.545,125.485 474.545,123.727 Z" />
            <path d="M487.273,123.727 L487.273,111 C487.273,109.243 485.848,107.818 484.091,107.818 C482.334,107.818 480.909,109.243 480.909,111 L480.909,123.727 C480.909,125.485 482.334,126.909 484.091,126.909 C485.848,126.909 487.273,125.485 487.273,123.727 Z" />
            <path d="M490.455,95.091 C491.298,95.091 492.108,95.426 492.704,96.023 C493.301,96.62 493.636,97.429 493.636,98.273 L493.636,130.091 C493.636,130.935 493.301,131.744 492.704,132.341 C492.108,132.938 491.298,133.273 490.455,133.273 L439.545,133.273 C438.702,133.273 437.892,132.938 437.296,132.341 C436.699,131.744 436.364,130.935 436.364,130.091 L436.364,98.273 C436.364,97.429 436.699,96.62 437.296,96.023 C437.892,95.426 438.702,95.091 439.545,95.091 L449.091,95.091 C450.848,95.091 452.273,93.666 452.273,91.909 C452.273,90.152 450.848,88.727 449.091,88.727 L439.545,88.727 C437.014,88.727 434.586,89.733 432.796,91.523 C431.006,93.313 430,95.741 430,98.273 L430,130.091 C430,132.623 431.006,135.05 432.796,136.841 C434.586,138.631 437.014,139.636 439.545,139.636 L490.455,139.636 C492.986,139.636 495.414,138.631 497.204,136.841 C498.994,135.05 500,132.623 500,130.091 L500,98.273 C500,95.741 498.994,93.313 497.204,91.523 C495.414,89.733 492.986,88.727 490.455,88.727 C488.697,88.727 487.273,90.152 487.273,91.909 C487.273,93.666 488.697,95.091 490.455,95.091 Z" />
            <path d="M439.545,136.455 L439.545,142.818 C439.545,144.575 440.97,146 442.727,146 C444.485,146 445.909,144.575 445.909,142.818 L445.909,136.455 C445.909,134.697 444.485,133.273 442.727,133.273 C440.97,133.273 439.545,134.697 439.545,136.455 Z" />
            <path d="M484.091,136.455 L484.091,142.818 C484.091,144.575 485.515,146 487.273,146 C489.03,146 490.455,144.575 490.455,142.818 L490.455,136.455 C490.455,134.697 489.03,133.273 487.273,133.273 C485.515,133.273 484.091,134.697 484.091,136.455 Z" />
        </g>
        <g id="Black-M" transform="translate(0,200)">
            <path d="M664.466,100.038 C667.938,94.829 667.495,91.507 664.466,86.962 C662.723,84.348 662.635,83.692 664.466,80.947 C665.44,79.485 665.045,77.509 663.583,76.534 C662.121,75.56 660.146,75.955 659.171,77.417 C655.698,82.626 656.141,85.948 659.171,90.492 C660.914,93.107 661.001,93.762 659.171,96.508 C658.196,97.97 658.591,99.945 660.053,100.92 C661.515,101.895 663.491,101.5 664.466,100.038 Z" />
            <path d="M678.784,100.038 C682.256,94.829 681.814,91.507 678.784,86.962 C677.041,84.348 676.953,83.692 678.784,80.947 C679.759,79.485 679.363,77.509 677.901,76.534 C676.439,75.56 674.464,75.955 673.489,77.417 C670.016,82.626 670.459,85.948 673.489,90.492 C675.232,93.107 675.319,93.762 673.489,96.508 C672.514,97.97 672.909,99.945 674.371,100.92 C675.834,101.895 677.809,101.5 678.784,100.038 Z" />
            <path d="M645.909,107.818 L645.941,107.818 C647.698,107.818 649.123,106.394 649.123,104.636 C649.123,102.879 647.698,101.455 645.941,101.455 L645.909,101.455 C644.152,101.455 642.727,102.879 642.727,104.636 C642.727,106.394 644.152,107.818 645.909,107.818 Z" />
            <path d="M645.909,120.545 L645.941,120.545 C647.698,120.545 649.123,119.121 649.123,117.364 C649.123,115.606 647.698,114.182 645.941,114.182 L645.909,114.182 C644.152,114.182 642.727,115.606 642.727,117.364 C642.727,119.121 644.152,120.545 645.909,120.545 Z" />
            <path d="M661.818,123.727 L661.818,111 C661.818,109.243 660.394,107.818 658.636,107.818 C656.879,107.818 655.455,109.243 655.455,111 L655.455,123.727 C655.455,125.485 656.879,126.909 658.636,126.909 C660.394,126.909 661.818,125.485 661.818,123.727 Z" />
            <path d="M674.545,123.727 L674.545,111 C674.545,109.243 673.121,107.818 671.364,107.818 C669.606,107.818 668.182,109.243 668.182,111 L668.182,123.727 C668.182,125.485 669.606,126.909 671.364,126.909 C673.121,126.909 674.545,125.485 674.545,123.727 Z" />
            <path d="M687.273,123.727 L687.273,111 C687.273,109.243 685.848,107.818 684.091,107.818 C682.334,107.818 680.909,109.243 680.909,111 L680.909,123.727 C680.909,125.485 682.334,126.909 684.091,126.909 C685.848,126.909 687.273,125.485 687.273,123.727 Z" />
            <path d="M690.455,95.091 C691.298,95.091 692.108,95.426 692.704,96.023 C693.301,96.62 693.636,97.429 693.636,98.273 L693.636,130.091 C693.636,130.935 693.301,131.744 692.704,132.341 C692.108,132.938 691.298,133.273 690.455,133.273 L639.545,133.273 C638.702,133.273 637.892,132.938 637.296,132.341 C636.699,131.744 636.364,130.935 636.364,130.091 L636.364,98.273 C636.364,97.429 636.699,96.62 637.296,96.023 C637.892,95.426 638.702,95.091 639.545,95.091 L649.091,95.091 C650.848,95.091 652.273,93.666 652.273,91.909 C652.273,90.152 650.848,88.727 649.091,88.727 L639.545,88.727 C637.014,88.727 634.586,89.733 632.796,91.523 C631.006,93.313 630,95.741 630,98.273 L630,130.091 C630,132.623 631.006,135.05 632.796,136.841 C634.586,138.631 637.014,139.636 639.545,139.636 L690.455,139.636 C692.986,139.636 695.414,138.631 697.204,136.841 C698.994,135.05 700,132.623 700,130.091 L700,98.273 C700,95.741 698.994,93.313 697.204,91.523 C695.414,89.733 692.986,88.727 690.455,88.727 C688.697,88.727 687.273,90.152 687.273,91.909 C687.273,93.666 688.697,95.091 690.455,95.091 Z" />
            <path d="M639.545,136.455 L639.545,142.818 C639.545,144.575 640.97,146 642.727,146 C644.485,146 645.909,144.575 645.909,142.818 L645.909,136.455 C645.909,134.697 644.485,133.273 642.727,133.273 C640.97,133.273 639.545,134.697 639.545,136.455 Z" />
            <path d="M684.091,136.455 L684.091,142.818 C684.091,144.575 685.515,146 687.273,146 C689.03,146 690.455,144.575 690.455,142.818 L690.455,136.455 C690.455,134.697 689.03,133.273 687.273,133.273 C685.515,133.273 684.091,134.697 684.091,136.455 Z" />
        </g>
    </g>
</svg>