<?xml version="1.0" encoding="UTF-8"?>
<svg height="600" width="800" xmlns="http://www.w3.org/2000/svg" xmlns:xlink="http://www.w3.org/1999/xlink">
    <g id="Notes" font-family="LucidaGrande, 'Lucida Grande', sans-serif" font-size="13">
        <rect fill="white" height="600.0" width="800.0" x="0.0" y="0.0" />
        <g font-size="13">
            <text x="18.0" y="176.0">Small</text>
            <text x="18.0" y="376.0">Medium</text>
            <text x="18.0" y="576.0">Large</text>
        </g>
        <g font-size="9">
            <text x="250.0" y="30.0">Ultralight</text>
            <text x="450.0" y="30.0">Regular</text>
            <text x="650.0" y="30.0">Black</text>
            <text id="template-version" fill="#505050" text-anchor="end" x="785.0" y="575.0">Template v.3.0</text>
            <a href="https://github.com/swhitty/SwiftDraw">
                <text fill="#505050" text-anchor="end" x="785.0" y="590.0">https://github.com/swhitty/SwiftDraw</text>
            </a>
        </g>
    </g>
    <g id="Guides" stroke="rgb(39, 170, 225)" stroke-width="0.5">
        <path id="Capline-S" d="M18,76 l800,0" />
        <path id="H-reference" d="M85,145.755 L87.685,145.755 L113.369,79.287 L114.052,79.287 L114.052,76 L112.148,76 L85,145.755 Z M95.693,121.536 L130.996,121.536 L130.263,119.313 L96.474,119.313 L95.693,121.536 Z M139.15,145.755 L141.787,145.755 L114.638,76 L113.466,76 L113.466,79.287 L139.15,145.755 Z" stroke="none" transform="translate(0,200)" />
        <path id="Baseline-S" d="M18,146 l800,0" />
        <path id="left-margin-Ultralight-M" d="M228.25,256 l0,110" />
        <path id="right-margin-Ultralight-M" d="M301.75,256 l0,110" />
        <path id="left-margin-Regular-M" d="M428.25,256 l0,110" />
        <path id="right-margin-Regular-M" d="M501.75,256 l0,110" />
        <path id="left-margin-Black-M" d="M628.25,256 l0,110" />
        <path id="right-margin-Black-M" d="M701.75,256 l0,110" />
        <path id="Capline-M" d="M18,276 l800,0" />
        <path id="Baseline-M" d="M18,346 l800,0" />
        <path id="Capline-L" d="M18,476 l800,0" />
        <path id="Baseline-L" d="M18,546 l800,0" />
    </g>
    <g id="Symbols">
        <g id="Ultralight-M" transform="translate(0,200)">
            <path d="M235.25,83 L298.25,83 C300.183,83 301.75,81.433 301.75,79.5 C301.75,77.567 300.183,76 298.25,76 L235.25,76 C233.317,76 231.75,77.567 231.75,79.5 C231.75,81.433 233.317,83 235.25,83 Z" />
            <path d="M294.75,90 L252.75,90 C250.817,90 249.25,91.567 249.25,93.5 C249.25,95.433 250.817,97 252.75,97 L294.75,97 C296.683,97 298.25,95.433 298.25,93.5 C298.25,91.567 296.683,90 294.75,90 Z" />
            <path d="M294.75,104 L252.75,104 C250.817,104 249.25,105.567 249.25,107.5 C249.25,109.433 250.817,111 252.75,111 L294.75,111 C296.683,111 298.25,109.433 298.25,107.5 C298.25,105.567 296.683,104 294.75,104 Z" />
            <path d="M259.75,139 L294.75,139 C296.683,139 298.25,137.433 298.25,135.5 C298.25,133.567 296.683,132 294.75,132 L259.75,132 C257.817,132 256.25,133.567 256.25,135.5 C256.25,137.433 257.817,139 259.75,139 Z" />
            <path d="M252.75,125 L294.75,125 C296.683,125 298.25,123.433 298.25,121.5 C298.25,119.567 296.683,118 294.75,118 L252.75,118 C250.817,118 249.25,119.567 249.25,121.5 C249.25,123.433 250.817,125 252.75,125 Z" />
            <path d="M235.25,79.5 L235.25,128.5 C235.25,130.433 236.817,132 238.75,132 C240.683,132 242.25,130.433 242.25,128.5 L242.25,79.5 C242.25,77.567 240.683,76 238.75,76 C236.817,76 235.25,77.567 235.25,79.5 Z" />
            <path d="M235.25,135.5 C235.25,133.567 236.817,132 238.75,132 C240.683,132 242.25,133.567 242.25,135.5 C242.25,137.433 240.683,139 238.75,139 C236.817,139 235.25,137.433 235.25,135.5 Z M228.25,135.5 C228.25,141.299 232.951,146 238.75,146 C244.549,146 249.25,141.299 249.25,135.5 C249.25,129.701 244.549,125 238.75,125 C232.951,125 228.25,129.701 228.25,135.5 Z" />
        </g>
        <g id="Regular-M" transform="translate(0,200)">
            <path d="M435.25,83 L498.25,83 C500.183,83 501.75,81.433 501.75,79.5 C501.75,77.567 500.183,76 498.25,76 L435.25,76 C433.317,76 431.75,77.567 431.75,79.5 C431.75,81.433 433.317,83 435.25,83 Z" />
            <path d="M494.75,90 L452.75,90 C450.817,90 449.25,91.567 449.25,93.5 C449.25,95.433 450.817,97 452.75,97 L494.75,97 C496.683,97 498.25,95.433 498.25,93.5 C498.25,91.567 496.683,90 494.75,90 Z" />
            <path d="M494.75,104 L452.75,104 C450.817,104 449.25,105.567 449.25,107.5 C449.25,109.433 450.817,111 452.75,111 L494.75,111 C496.683,111 498.25,109.433 498.25,107.5 C498.25,105.567 496.683,104 494.75,104 Z" />
            <path d="M459.75,139 L494.75,139 C496.683,139 498.25,137.433 498.25,135.5 C498.25,133.567 496.683,132 494.75,132 L459.75,132 C457.817,132 456.25,133.567 456.25,135.5 C456.25,137.433 457.817,139 459.75,139 Z" />
            <path d="M452.75,125 L494.75,125 C496.683,125 498.25,123.433 498.25,121.5 C498.25,119.567 496.683,118 494.75,118 L452.75,118 C450.817,118 449.25,119.567 449.25,121.5 C449.25,123.433 450.817,125 452.75,125 Z" />
            <path d="M435.25,79.5 L435.25,128.5 C435.25,130.433 436.817,132 438.75,132 C440.683,132 442.25,130.433 442.25,128.5 L442.25,79.5 C442.25,77.567 440.683,76 438.75,76 C436.817,76 435.25,77.567 435.25,79.5 Z" />
            <path d="M435.25,135.5 C435.25,133.567 436.817,132 438.75,132 C440.683,132 442.25,133.567 442.25,135.5 C442.25,137.433 440.683,139 438.75,139 C436.817,139 435.25,137.433 435.25,135.5 Z M428.25,135.5 C428.25,141.299 432.951,146 438.75,146 C444.549,146 449.25,141.299 449.25,135.5 C449.25,129.701 444.549,125 438.75,125 C432.951,125 428.25,129.701 428.25,135.5 Z" />
        </g>
        <g id="Black-M" transform="translate(0,200)">
            <path d="M635.25,83 L698.25,83 C700.183,83 701.75,81.433 701.75,79.5 C701.75,77.567 700.183,76 698.25,76 L635.25,76 C633.317,76 631.75,77.567 631.75,79.5 C631.75,81.433 633.317,83 635.25,83 Z" />
            <path d="M694.75,90 L652.75,90 C650.817,90 649.25,91.567 649.25,93.5 C649.25,95.433 650.817,97 652.75,97 L694.75,97 C696.683,97 698.25,95.433 698.25,93.5 C698.25,91.567 696.683,90 694.75,90 Z" />
            <path d="M694.75,104 L652.75,104 C650.817,104 649.25,105.567 649.25,107.5 C649.25,109.433 650.817,111 652.75,111 L694.75,111 C696.683,111 698.25,109.433 698.25,107.5 C698.25,105.567 696.683,104 694.75,104 Z" />
            <path d="M659.75,139 L694.75,139 C696.683,139 698.25,137.433 698.25,135.5 C698.25,133.567 696.683,132 694.75,132 L659.75,132 C657.817,132 656.25,133.567 656.25,135.5 C656.25,137.433 657.817,139 659.75,139 Z" />
            <path d="M652.75,125 L694.75,125 C696.683,125 698.25,123.433 698.25,121.5 C698.25,119.567 696.683,118 694.75,118 L652.75,118 C650.817,118 649.25,119.567 649.25,121.5 C649.25,123.433 650.817,125 652.75,125 Z" />
            <path d="M635.25,79.5 L635.25,128.5 C635.25,130.433 636.817,132 638.75,132 C640.683,132 642.25,130.433 642.25,128.5 L642.25,79.5 C642.25,77.567 640.683,76 638.75,76 C636.817,76 635.25,77.567 635.25,79.5 Z" />
            <path d="M635.25,135.5 C635.25,133.567 636.817,132 638.75,132 C640.683,132 642.25,133.567 642.25,135.5 C642.25,137.433 640.683,139 638.75,139 C636.817,139 635.25,137.433 635.25,135.5 Z M628.25,135.5 C628.25,141.299 632.951,146 638.75,146 C644.549,146 649.25,141.299 649.25,135.5 C649.25,129.701 644.549,125 638.75,125 C632.951,125 628.25,129.701 628.25,135.5 Z" />
        </g>
    </g>
</svg>