<?xml version="1.0" encoding="UTF-8"?>
<svg height="600" width="800" xmlns="http://www.w3.org/2000/svg" xmlns:xlink="http://www.w3.org/1999/xlink">
    <g id="Notes" font-family="LucidaGrande, 'Lucida Grande', sans-serif" font-size="13">
        <rect fill="white" height="600.0" width="800.0" x="0.0" y="0.0" />
        <g font-size="13">
            <text x="18.0" y="176.0">Small</text>
            <text x="18.0" y="376.0">Medium</text>
            <text x="18.0" y="576.0">Large</text>
        </g>
        <g font-size="9">
            <text x="250.0" y="30.0">Ultralight</text>
            <text x="450.0" y="30.0">Regular</text>
            <text x="650.0" y="30.0">Black</text>
            <text id="template-version" fill="#505050" text-anchor="end" x="785.0" y="575.0">Template v.3.0</text>
            <a href="https://github.com/swhitty/SwiftDraw">
                <text fill="#505050" text-anchor="end" x="785.0" y="590.0">https://github.com/swhitty/SwiftDraw</text>
            </a>
        </g>
    </g>
    <g id="Guides" stroke="rgb(39, 170, 225)" stroke-width="0.5">
        <path id="Capline-S" d="M18,76 l800,0" />
        <path id="H-reference" d="M85,145.755 L87.685,145.755 L113.369,79.287 L114.052,79.287 L114.052,76 L112.148,76 L85,145.755 Z M95.693,121.536 L130.996,121.536 L130.263,119.313 L96.474,119.313 L95.693,121.536 Z M139.15,145.755 L141.787,145.755 L114.638,76 L113.466,76 L113.466,79.287 L139.15,145.755 Z" stroke="none" transform="translate(0,200)" />
        <path id="Baseline-S" d="M18,146 l800,0" />
        <path id="left-margin-Ultralight-M" d="M235,256 l0,110" />
        <path id="right-margin-Ultralight-M" d="M295,256 l0,110" />
        <path id="left-margin-Regular-M" d="M435,256 l0,110" />
        <path id="right-margin-Regular-M" d="M495,256 l0,110" />
        <path id="left-margin-Black-M" d="M635,256 l0,110" />
        <path id="right-margin-Black-M" d="M695,256 l0,110" />
        <path id="Capline-M" d="M18,276 l800,0" />
        <path id="Baseline-M" d="M18,346 l800,0" />
        <path id="Capline-L" d="M18,476 l800,0" />
        <path id="Baseline-L" d="M18,546 l800,0" />
    </g>
    <g id="Symbols">
        <g id="Ultralight-M" transform="translate(0,200)">
            <path d="M288.333,104.637 C288.333,115.948 277.989,128.921 264.825,139.771 C265,139.636 265,139.636 265,139.636 C252.011,128.921 241.667,115.948 241.667,104.637 C241.667,92.336 252.113,82.364 265,82.364 C277.887,82.364 288.333,92.336 288.333,104.637 C288.333,106.394 289.826,107.819 291.667,107.819 C293.508,107.819 295,106.394 295,104.637 C295,88.821 281.569,76 265,76 C248.431,76 235,88.821 235,104.637 C235,118.489 246.208,132.546 260.818,144.588 C263.366,146.426 266.634,146.426 269.007,144.722 C283.792,132.546 295,118.489 295,104.637 C295,102.879 293.508,101.455 291.667,101.455 C289.826,101.455 288.333,102.879 288.333,104.637 Z" />
            <path d="M270.976,94.432 L254.31,110.341 C253.008,111.584 253.008,113.599 254.31,114.841 C255.611,116.084 257.722,116.084 259.024,114.841 L275.69,98.932 C276.992,97.689 276.992,95.675 275.69,94.432 C274.389,93.19 272.278,93.19 270.976,94.432 Z" />
            <path d="M254.31,98.932 L270.976,114.841 C272.278,116.084 274.389,116.084 275.69,114.841 C276.992,113.599 276.992,111.584 275.69,110.341 L259.024,94.432 C257.722,93.19 255.611,93.19 254.31,94.432 C253.008,95.675 253.008,97.689 254.31,98.932 Z" />
        </g>
        <g id="Regular-M" transform="translate(0,200)">
            <path d="M488.333,104.637 C488.333,115.948 477.989,128.921 464.825,139.771 C465,139.636 465,139.636 465,139.636 C452.011,128.921 441.667,115.948 441.667,104.637 C441.667,92.336 452.113,82.364 465,82.364 C477.887,82.364 488.333,92.336 488.333,104.637 C488.333,106.394 489.826,107.819 491.667,107.819 C493.508,107.819 495,106.394 495,104.637 C495,88.821 481.569,76 465,76 C448.431,76 435,88.821 435,104.637 C435,118.489 446.208,132.546 460.818,144.588 C463.366,146.426 466.634,146.426 469.007,144.722 C483.792,132.546 495,118.489 495,104.637 C495,102.879 493.508,101.455 491.667,101.455 C489.826,101.455 488.333,102.879 488.333,104.637 Z" />
            <path d="M470.976,94.432 L454.31,110.341 C453.008,111.584 453.008,113.599 454.31,114.841 C455.611,116.084 457.722,116.084 459.024,114.841 L475.69,98.932 C476.992,97.689 476.992,95.675 475.69,94.432 C474.389,93.19 472.278,93.19 470.976,94.432 Z" />
            <path d="M454.31,98.932 L470.976,114.841 C472.278,116.084 474.389,116.084 475.69,114.841 C476.992,113.599 476.992,111.584 475.69,110.341 L459.024,94.432 C457.722,93.19 455.611,93.19 454.31,94.432 C453.008,95.675 453.008,97.689 454.31,98.932 Z" />
        </g>
        <g id="Black-M" transform="translate(0,200)">
            <path d="M688.333,104.637 C688.333,115.948 677.989,128.921 664.825,139.771 C665,139.636 665,139.636 665,139.636 C652.011,128.921 641.667,115.948 641.667,104.637 C641.667,92.336 652.113,82.364 665,82.364 C677.887,82.364 688.333,92.336 688.333,104.637 C688.333,106.394 689.826,107.819 691.667,107.819 C693.508,107.819 695,106.394 695,104.637 C695,88.821 681.569,76 665,76 C648.431,76 635,88.821 635,104.637 C635,118.489 646.208,132.546 660.818,144.588 C663.366,146.426 666.634,146.426 669.007,144.722 C683.792,132.546 695,118.489 695,104.637 C695,102.879 693.508,101.455 691.667,101.455 C689.826,101.455 688.333,102.879 688.333,104.637 Z" />
            <path d="M670.976,94.432 L654.31,110.341 C653.008,111.584 653.008,113.599 654.31,114.841 C655.611,116.084 657.722,116.084 659.024,114.841 L675.69,98.932 C676.992,97.689 676.992,95.675 675.69,94.432 C674.389,93.19 672.278,93.19 670.976,94.432 Z" />
            <path d="M654.31,98.932 L670.976,114.841 C672.278,116.084 674.389,116.084 675.69,114.841 C676.992,113.599 676.992,111.584 675.69,110.341 L659.024,94.432 C657.722,93.19 655.611,93.19 654.31,94.432 C653.008,95.675 653.008,97.689 654.31,98.932 Z" />
        </g>
    </g>
</svg>