<?xml version="1.0" encoding="UTF-8"?>
<svg height="600" width="800" xmlns="http://www.w3.org/2000/svg" xmlns:xlink="http://www.w3.org/1999/xlink">
    <g id="Notes" font-family="LucidaGrande, 'Lucida Grande', sans-serif" font-size="13">
        <rect fill="white" height="600.0" width="800.0" x="0.0" y="0.0" />
        <g font-size="13">
            <text x="18.0" y="176.0">Small</text>
            <text x="18.0" y="376.0">Medium</text>
            <text x="18.0" y="576.0">Large</text>
        </g>
        <g font-size="9">
            <text x="250.0" y="30.0">Ultralight</text>
            <text x="450.0" y="30.0">Regular</text>
            <text x="650.0" y="30.0">Black</text>
            <text id="template-version" fill="#505050" text-anchor="end" x="785.0" y="575.0">Template v.3.0</text>
            <a href="https://github.com/swhitty/SwiftDraw">
                <text fill="#505050" text-anchor="end" x="785.0" y="590.0">https://github.com/swhitty/SwiftDraw</text>
            </a>
        </g>
    </g>
    <g id="Guides" stroke="rgb(39, 170, 225)" stroke-width="0.5">
        <path id="Capline-S" d="M18,76 l800,0" />
        <path id="H-reference" d="M85,145.755 L87.685,145.755 L113.369,79.287 L114.052,79.287 L114.052,76 L112.148,76 L85,145.755 Z M95.693,121.536 L130.996,121.536 L130.263,119.313 L96.474,119.313 L95.693,121.536 Z M139.15,145.755 L141.787,145.755 L114.638,76 L113.466,76 L113.466,79.287 L139.15,145.755 Z" stroke="none" transform="translate(0,200)" />
        <path id="Baseline-S" d="M18,146 l800,0" />
        <path id="left-margin-Ultralight-M" d="M236.364,256 l0,110" />
        <path id="right-margin-Ultralight-M" d="M293.636,256 l0,110" />
        <path id="left-margin-Regular-M" d="M436.364,256 l0,110" />
        <path id="right-margin-Regular-M" d="M493.636,256 l0,110" />
        <path id="left-margin-Black-M" d="M636.364,256 l0,110" />
        <path id="right-margin-Black-M" d="M693.636,256 l0,110" />
        <path id="Capline-M" d="M18,276 l800,0" />
        <path id="Baseline-M" d="M18,346 l800,0" />
        <path id="Capline-L" d="M18,476 l800,0" />
        <path id="Baseline-L" d="M18,546 l800,0" />
    </g>
    <g id="Symbols">
        <g id="Ultralight-M" transform="translate(0,200)">
            <path d="M255.455,111 L255.455,126.909 C255.455,127.753 255.119,128.562 254.523,129.159 C253.926,129.756 253.117,130.091 252.273,130.091 L245.909,130.091 C245.065,130.091 244.256,129.756 243.659,129.159 C243.062,128.562 242.727,127.753 242.727,126.909 L242.727,95.091 C242.727,94.247 243.062,93.438 243.659,92.841 C244.256,92.244 245.065,91.909 245.909,91.909 L252.273,91.909 C253.117,91.909 253.926,92.244 254.523,92.841 C255.119,93.438 255.455,94.247 255.455,95.091 L255.455,111 Z M261.818,111 L261.818,95.091 C261.818,92.559 260.812,90.131 259.022,88.341 C257.232,86.551 254.804,85.545 252.273,85.545 L245.909,85.545 C243.377,85.545 240.95,86.551 239.159,88.341 C237.369,90.131 236.364,92.559 236.364,95.091 L236.364,126.909 C236.364,129.441 237.369,131.869 239.159,133.659 C240.95,135.449 243.377,136.455 245.909,136.455 L252.273,136.455 C254.804,136.455 257.232,135.449 259.022,133.659 C260.812,131.869 261.818,129.441 261.818,126.909 L261.818,111 Z" />
            <path d="M287.273,111 L287.273,120.545 C287.273,121.389 286.938,122.199 286.341,122.795 C285.744,123.392 284.935,123.727 284.091,123.727 L277.727,123.727 C276.883,123.727 276.074,123.392 275.477,122.795 C274.881,122.199 274.545,121.389 274.545,120.545 L274.545,101.455 C274.545,100.611 274.881,99.801 275.477,99.205 C276.074,98.608 276.883,98.273 277.727,98.273 L284.091,98.273 C284.935,98.273 285.744,98.608 286.341,99.205 C286.938,99.801 287.273,100.611 287.273,101.455 L287.273,111 Z M293.636,111 L293.636,101.455 C293.636,98.923 292.631,96.495 290.841,94.705 C289.05,92.915 286.623,91.909 284.091,91.909 L277.727,91.909 C275.196,91.909 272.768,92.915 270.978,94.705 C269.188,96.495 268.182,98.923 268.182,101.455 L268.182,120.545 C268.182,123.077 269.188,125.505 270.978,127.295 C272.768,129.085 275.196,130.091 277.727,130.091 L284.091,130.091 C286.623,130.091 289.05,129.085 290.841,127.295 C292.631,125.505 293.636,123.077 293.636,120.545 L293.636,111 Z" />
            <path d="M284.091,142.818 L284.091,126.909 C284.091,125.152 282.666,123.727 280.909,123.727 C279.152,123.727 277.727,125.152 277.727,126.909 L277.727,142.818 C277.727,144.575 279.152,146 280.909,146 C282.666,146 284.091,144.575 284.091,142.818 Z" />
            <path d="M284.091,95.091 L284.091,79.182 C284.091,77.425 282.666,76 280.909,76 C279.152,76 277.727,77.425 277.727,79.182 L277.727,95.091 C277.727,96.848 279.152,98.273 280.909,98.273 C282.666,98.273 284.091,96.848 284.091,95.091 Z" />
            <path d="M252.273,142.818 L252.273,133.273 C252.273,131.515 250.848,130.091 249.091,130.091 C247.334,130.091 245.909,131.515 245.909,133.273 L245.909,142.818 C245.909,144.575 247.334,146 249.091,146 C250.848,146 252.273,144.575 252.273,142.818 Z" />
            <path d="M252.273,88.727 L252.273,79.182 C252.273,77.425 250.848,76 249.091,76 C247.334,76 245.909,77.425 245.909,79.182 L245.909,88.727 C245.909,90.485 247.334,91.909 249.091,91.909 C250.848,91.909 252.273,90.485 252.273,88.727 Z" />
        </g>
        <g id="Regular-M" transform="translate(0,200)">
            <path d="M455.455,111 L455.455,126.909 C455.455,127.753 455.119,128.562 454.523,129.159 C453.926,129.756 453.117,130.091 452.273,130.091 L445.909,130.091 C445.065,130.091 444.256,129.756 443.659,129.159 C443.062,128.562 442.727,127.753 442.727,126.909 L442.727,95.091 C442.727,94.247 443.062,93.438 443.659,92.841 C444.256,92.244 445.065,91.909 445.909,91.909 L452.273,91.909 C453.117,91.909 453.926,92.244 454.523,92.841 C455.119,93.438 455.455,94.247 455.455,95.091 L455.455,111 Z M461.818,111 L461.818,95.091 C461.818,92.559 460.812,90.131 459.022,88.341 C457.232,86.551 454.804,85.545 452.273,85.545 L445.909,85.545 C443.378,85.545 440.95,86.551 439.159,88.341 C437.369,90.131 436.364,92.559 436.364,95.091 L436.364,126.909 C436.364,129.441 437.369,131.869 439.159,133.659 C440.95,135.449 443.378,136.455 445.909,136.455 L452.273,136.455 C454.804,136.455 457.232,135.449 459.022,133.659 C460.812,131.869 461.818,129.441 461.818,126.909 L461.818,111 Z" />
            <path d="M487.273,111 L487.273,120.545 C487.273,121.389 486.938,122.199 486.341,122.795 C485.744,123.392 484.935,123.727 484.091,123.727 L477.727,123.727 C476.883,123.727 476.074,123.392 475.477,122.795 C474.881,122.199 474.545,121.389 474.545,120.545 L474.545,101.455 C474.545,100.611 474.881,99.801 475.477,99.205 C476.074,98.608 476.883,98.273 477.727,98.273 L484.091,98.273 C484.935,98.273 485.744,98.608 486.341,99.205 C486.938,99.801 487.273,100.611 487.273,101.455 L487.273,111 Z M493.636,111 L493.636,101.455 C493.636,98.923 492.631,96.495 490.841,94.705 C489.05,92.915 486.623,91.909 484.091,91.909 L477.727,91.909 C475.196,91.909 472.768,92.915 470.978,94.705 C469.188,96.495 468.182,98.923 468.182,101.455 L468.182,120.545 C468.182,123.077 469.188,125.505 470.978,127.295 C472.768,129.085 475.196,130.091 477.727,130.091 L484.091,130.091 C486.623,130.091 489.05,129.085 490.841,127.295 C492.631,125.505 493.636,123.077 493.636,120.545 L493.636,111 Z" />
            <path d="M484.091,142.818 L484.091,126.909 C484.091,125.152 482.666,123.727 480.909,123.727 C479.152,123.727 477.727,125.152 477.727,126.909 L477.727,142.818 C477.727,144.575 479.152,146 480.909,146 C482.666,146 484.091,144.575 484.091,142.818 Z" />
            <path d="M484.091,95.091 L484.091,79.182 C484.091,77.425 482.666,76 480.909,76 C479.152,76 477.727,77.425 477.727,79.182 L477.727,95.091 C477.727,96.848 479.152,98.273 480.909,98.273 C482.666,98.273 484.091,96.848 484.091,95.091 Z" />
            <path d="M452.273,142.818 L452.273,133.273 C452.273,131.515 450.848,130.091 449.091,130.091 C447.334,130.091 445.909,131.515 445.909,133.273 L445.909,142.818 C445.909,144.575 447.334,146 449.091,146 C450.848,146 452.273,144.575 452.273,142.818 Z" />
            <path d="M452.273,88.727 L452.273,79.182 C452.273,77.425 450.848,76 449.091,76 C447.334,76 445.909,77.425 445.909,79.182 L445.909,88.727 C445.909,90.485 447.334,91.909 449.091,91.909 C450.848,91.909 452.273,90.485 452.273,88.727 Z" />
        </g>
        <g id="Black-M" transform="translate(0,200)">
            <path d="M655.455,111 L655.455,126.909 C655.455,127.753 655.119,128.562 654.523,129.159 C653.926,129.756 653.117,130.091 652.273,130.091 L645.909,130.091 C645.065,130.091 644.256,129.756 643.659,129.159 C643.062,128.562 642.727,127.753 642.727,126.909 L642.727,95.091 C642.727,94.247 643.062,93.438 643.659,92.841 C644.256,92.244 645.065,91.909 645.909,91.909 L652.273,91.909 C653.117,91.909 653.926,92.244 654.523,92.841 C655.119,93.438 655.455,94.247 655.455,95.091 L655.455,111 Z M661.818,111 L661.818,95.091 C661.818,92.559 660.812,90.131 659.022,88.341 C657.232,86.551 654.804,85.545 652.273,85.545 L645.909,85.545 C643.378,85.545 640.95,86.551 639.159,88.341 C637.369,90.131 636.364,92.559 636.364,95.091 L636.364,126.909 C636.364,129.441 637.369,131.869 639.159,133.659 C640.95,135.449 643.378,136.455 645.909,136.455 L652.273,136.455 C654.804,136.455 657.232,135.449 659.022,133.659 C660.812,131.869 661.818,129.441 661.818,126.909 L661.818,111 Z" />
            <path d="M687.273,111 L687.273,120.545 C687.273,121.389 686.938,122.199 686.341,122.795 C685.744,123.392 684.935,123.727 684.091,123.727 L677.727,123.727 C676.883,123.727 676.074,123.392 675.477,122.795 C674.881,122.199 674.545,121.389 674.545,120.545 L674.545,101.455 C674.545,100.611 674.881,99.801 675.477,99.205 C676.074,98.608 676.883,98.273 677.727,98.273 L684.091,98.273 C684.935,98.273 685.744,98.608 686.341,99.205 C686.938,99.801 687.273,100.611 687.273,101.455 L687.273,111 Z M693.636,111 L693.636,101.455 C693.636,98.923 692.631,96.495 690.841,94.705 C689.05,92.915 686.623,91.909 684.091,91.909 L677.727,91.909 C675.196,91.909 672.768,92.915 670.978,94.705 C669.188,96.495 668.182,98.923 668.182,101.455 L668.182,120.545 C668.182,123.077 669.188,125.505 670.978,127.295 C672.768,129.085 675.196,130.091 677.727,130.091 L684.091,130.091 C686.623,130.091 689.05,129.085 690.841,127.295 C692.631,125.505 693.636,123.077 693.636,120.545 L693.636,111 Z" />
            <path d="M684.091,142.818 L684.091,126.909 C684.091,125.152 682.666,123.727 680.909,123.727 C679.152,123.727 677.727,125.152 677.727,126.909 L677.727,142.818 C677.727,144.575 679.152,146 680.909,146 C682.666,146 684.091,144.575 684.091,142.818 Z" />
            <path d="M684.091,95.091 L684.091,79.182 C684.091,77.425 682.666,76 680.909,76 C679.152,76 677.727,77.425 677.727,79.182 L677.727,95.091 C677.727,96.848 679.152,98.273 680.909,98.273 C682.666,98.273 684.091,96.848 684.091,95.091 Z" />
            <path d="M652.273,142.818 L652.273,133.273 C652.273,131.515 650.848,130.091 649.091,130.091 C647.334,130.091 645.909,131.515 645.909,133.273 L645.909,142.818 C645.909,144.575 647.334,146 649.091,146 C650.848,146 652.273,144.575 652.273,142.818 Z" />
            <path d="M652.273,88.727 L652.273,79.182 C652.273,77.425 650.848,76 649.091,76 C647.334,76 645.909,77.425 645.909,79.182 L645.909,88.727 C645.909,90.485 647.334,91.909 649.091,91.909 C650.848,91.909 652.273,90.485 652.273,88.727 Z" />
        </g>
    </g>
</svg>