<?xml version="1.0" encoding="UTF-8"?>
<svg height="600" width="800" xmlns="http://www.w3.org/2000/svg" xmlns:xlink="http://www.w3.org/1999/xlink">
    <g id="Notes" font-family="LucidaGrande, 'Lucida Grande', sans-serif" font-size="13">
        <rect fill="white" height="600.0" width="800.0" x="0.0" y="0.0" />
        <g font-size="13">
            <text x="18.0" y="176.0">Small</text>
            <text x="18.0" y="376.0">Medium</text>
            <text x="18.0" y="576.0">Large</text>
        </g>
        <g font-size="9">
            <text x="250.0" y="30.0">Ultralight</text>
            <text x="450.0" y="30.0">Regular</text>
            <text x="650.0" y="30.0">Black</text>
            <text id="template-version" fill="#505050" text-anchor="end" x="785.0" y="575.0">Template v.3.0</text>
            <a href="https://github.com/swhitty/SwiftDraw">
                <text fill="#505050" text-anchor="end" x="785.0" y="590.0">https://github.com/swhitty/SwiftDraw</text>
            </a>
        </g>
    </g>
    <g id="Guides" stroke="rgb(39, 170, 225)" stroke-width="0.5">
        <path id="Capline-S" d="M18,76 l800,0" />
        <path id="H-reference" d="M85,145.755 L87.685,145.755 L113.369,79.287 L114.052,79.287 L114.052,76 L112.148,76 L85,145.755 Z M95.693,121.536 L130.996,121.536 L130.263,119.313 L96.474,119.313 L95.693,121.536 Z M139.15,145.755 L141.787,145.755 L114.638,76 L113.466,76 L113.466,79.287 L139.15,145.755 Z" stroke="none" transform="translate(0,200)" />
        <path id="Baseline-S" d="M18,146 l800,0" />
        <path id="left-margin-Ultralight-M" d="M231.591,256 l0,110" />
        <path id="right-margin-Ultralight-M" d="M298.409,256 l0,110" />
        <path id="left-margin-Regular-M" d="M431.591,256 l0,110" />
        <path id="right-margin-Regular-M" d="M498.409,256 l0,110" />
        <path id="left-margin-Black-M" d="M631.591,256 l0,110" />
        <path id="right-margin-Black-M" d="M698.409,256 l0,110" />
        <path id="Capline-M" d="M18,276 l800,0" />
        <path id="Baseline-M" d="M18,346 l800,0" />
        <path id="Capline-L" d="M18,476 l800,0" />
        <path id="Baseline-L" d="M18,546 l800,0" />
    </g>
    <g id="Symbols">
        <g id="Ultralight-M" transform="translate(0,200)">
            <path d="M261.961,79.182 L261.961,85.545 C261.961,87.303 263.321,88.727 264.999,88.727 C266.676,88.727 268.036,87.303 268.036,85.545 L268.036,79.182 C268.036,77.425 266.676,76 264.999,76 C263.321,76 261.961,77.425 261.961,79.182 Z" />
            <path d="M241.377,90.754 L245.66,95.241 C246.846,96.483 248.769,96.483 249.955,95.241 C251.141,93.998 251.141,91.984 249.955,90.741 L245.673,86.255 C244.486,85.012 242.563,85.012 241.377,86.255 C240.191,87.497 240.191,89.512 241.377,90.754 Z" />
            <path d="M289.297,114.182 L295.372,114.182 C297.049,114.182 298.409,112.757 298.409,111 C298.409,109.243 297.049,107.818 295.372,107.818 L289.297,107.818 C287.62,107.818 286.26,109.243 286.26,111 C286.26,112.757 287.62,114.182 289.297,114.182 Z" />
            <path d="M284.325,86.255 L280.042,90.741 C278.856,91.984 278.856,93.998 280.042,95.241 C281.228,96.483 283.151,96.483 284.338,95.241 L288.62,90.754 C289.806,89.512 289.806,87.497 288.62,86.255 C287.434,85.012 285.511,85.012 284.325,86.255 Z" />
            <path d="M279.984,113.586 C280.937,107.535 278.485,101.448 273.681,97.942 C268.877,94.436 262.577,94.135 257.489,97.168 C256.031,98.037 255.521,99.98 256.351,101.507 C257.181,103.035 259.035,103.568 260.493,102.699 C263.546,100.879 267.326,101.059 270.209,103.163 C273.091,105.267 274.562,108.919 273.99,112.55 C273.717,114.284 274.837,115.921 276.492,116.208 C278.147,116.494 279.71,115.32 279.984,113.586 Z" />
            <path d="M268.036,139.636 L249.812,139.636 C243.42,139.635 238.121,134.443 237.693,127.761 C237.265,121.079 241.854,115.192 248.19,114.296 C254.526,113.4 260.44,117.802 261.719,124.364 C262.008,125.845 263.252,126.909 264.695,126.909 L268.036,126.909 C271.391,126.909 274.111,129.758 274.111,133.273 C274.111,136.787 271.391,139.636 268.036,139.636 Z M268.036,146 C274.746,146 280.185,140.302 280.185,133.273 C280.185,126.244 274.746,120.545 268.036,120.545 L264.695,120.545 L267.671,123.091 C265.753,113.248 256.881,106.646 247.377,107.99 C237.874,109.334 230.99,118.163 231.632,128.187 C232.274,138.21 240.222,145.998 249.812,146 L268.036,146 Z" />
        </g>
        <g id="Regular-M" transform="translate(0,200)">
            <path d="M461.961,79.182 L461.961,85.545 C461.961,87.303 463.321,88.727 464.999,88.727 C466.676,88.727 468.036,87.303 468.036,85.545 L468.036,79.182 C468.036,77.425 466.676,76 464.999,76 C463.321,76 461.961,77.425 461.961,79.182 Z" />
            <path d="M441.377,90.754 L445.66,95.241 C446.846,96.483 448.769,96.483 449.955,95.241 C451.141,93.998 451.141,91.984 449.955,90.741 L445.673,86.255 C444.486,85.012 442.563,85.012 441.377,86.255 C440.191,87.497 440.191,89.512 441.377,90.754 Z" />
            <path d="M489.297,114.182 L495.372,114.182 C497.049,114.182 498.409,112.757 498.409,111 C498.409,109.243 497.049,107.818 495.372,107.818 L489.297,107.818 C487.62,107.818 486.26,109.243 486.26,111 C486.26,112.757 487.62,114.182 489.297,114.182 Z" />
            <path d="M484.325,86.255 L480.042,90.741 C478.856,91.984 478.856,93.998 480.042,95.241 C481.228,96.483 483.151,96.483 484.338,95.241 L488.62,90.754 C489.806,89.512 489.806,87.497 488.62,86.255 C487.434,85.012 485.511,85.012 484.325,86.255 Z" />
            <path d="M479.984,113.586 C480.937,107.535 478.485,101.448 473.681,97.942 C468.877,94.436 462.577,94.135 457.489,97.168 C456.031,98.037 455.521,99.98 456.351,101.507 C457.181,103.035 459.035,103.568 460.493,102.699 C463.546,100.879 467.326,101.059 470.209,103.163 C473.091,105.267 474.562,108.919 473.99,112.55 C473.717,114.284 474.837,115.921 476.492,116.208 C478.147,116.494 479.71,115.32 479.984,113.586 Z" />
            <path d="M468.036,139.636 L449.812,139.636 C443.42,139.635 438.121,134.443 437.693,127.761 C437.265,121.079 441.854,115.192 448.19,114.296 C454.526,113.4 460.44,117.802 461.719,124.364 C462.008,125.845 463.252,126.909 464.695,126.909 L468.036,126.909 C471.391,126.909 474.111,129.758 474.111,133.273 C474.111,136.787 471.391,139.636 468.036,139.636 Z M468.036,146 C474.746,146 480.185,140.302 480.185,133.273 C480.185,126.244 474.746,120.545 468.036,120.545 L464.695,120.545 L467.671,123.091 C465.753,113.248 456.881,106.646 447.377,107.99 C437.874,109.334 430.99,118.163 431.632,128.187 C432.274,138.21 440.222,145.998 449.812,146 L468.036,146 Z" />
        </g>
        <g id="Black-M" transform="translate(0,200)">
            <path d="M661.961,79.182 L661.961,85.545 C661.961,87.303 663.321,88.727 664.999,88.727 C666.676,88.727 668.036,87.303 668.036,85.545 L668.036,79.182 C668.036,77.425 666.676,76 664.999,76 C663.321,76 661.961,77.425 661.961,79.182 Z" />
            <path d="M641.377,90.754 L645.66,95.241 C646.846,96.483 648.769,96.483 649.955,95.241 C651.141,93.998 651.141,91.984 649.955,90.741 L645.673,86.255 C644.486,85.012 642.563,85.012 641.377,86.255 C640.191,87.497 640.191,89.512 641.377,90.754 Z" />
            <path d="M689.297,114.182 L695.372,114.182 C697.049,114.182 698.409,112.757 698.409,111 C698.409,109.243 697.049,107.818 695.372,107.818 L689.297,107.818 C687.62,107.818 686.26,109.243 686.26,111 C686.26,112.757 687.62,114.182 689.297,114.182 Z" />
            <path d="M684.325,86.255 L680.042,90.741 C678.856,91.984 678.856,93.998 680.042,95.241 C681.228,96.483 683.151,96.483 684.338,95.241 L688.62,90.754 C689.806,89.512 689.806,87.497 688.62,86.255 C687.434,85.012 685.511,85.012 684.325,86.255 Z" />
            <path d="M679.984,113.586 C680.937,107.535 678.485,101.448 673.681,97.942 C668.877,94.436 662.577,94.135 657.489,97.168 C656.031,98.037 655.521,99.98 656.351,101.507 C657.181,103.035 659.035,103.568 660.493,102.699 C663.546,100.879 667.326,101.059 670.209,103.163 C673.091,105.267 674.562,108.919 673.99,112.55 C673.717,114.284 674.837,115.921 676.492,116.208 C678.147,116.494 679.71,115.32 679.984,113.586 Z" />
            <path d="M668.036,139.636 L649.812,139.636 C643.419,139.635 638.121,134.443 637.693,127.761 C637.265,121.079 641.854,115.192 648.19,114.296 C654.526,113.4 660.44,117.802 661.719,124.364 C662.008,125.845 663.252,126.909 664.695,126.909 L668.036,126.909 C671.391,126.909 674.111,129.758 674.111,133.273 C674.111,136.787 671.391,139.636 668.036,139.636 Z M668.036,146 C674.746,146 680.185,140.302 680.185,133.273 C680.185,126.244 674.746,120.545 668.036,120.545 L664.695,120.545 L667.671,123.091 C665.753,113.248 656.881,106.646 647.377,107.99 C637.874,109.334 630.99,118.163 631.632,128.187 C632.274,138.21 640.222,145.998 649.812,146 L668.036,146 Z" />
        </g>
    </g>
</svg>