<?xml version="1.0" encoding="UTF-8"?>
<svg height="600" width="800" xmlns="http://www.w3.org/2000/svg" xmlns:xlink="http://www.w3.org/1999/xlink">
    <g id="Notes" font-family="LucidaGrande, 'Lucida Grande', sans-serif" font-size="13">
        <rect fill="white" height="600.0" width="800.0" x="0.0" y="0.0" />
        <g font-size="13">
            <text x="18.0" y="176.0">Small</text>
            <text x="18.0" y="376.0">Medium</text>
            <text x="18.0" y="576.0">Large</text>
        </g>
        <g font-size="9">
            <text x="250.0" y="30.0">Ultralight</text>
            <text x="450.0" y="30.0">Regular</text>
            <text x="650.0" y="30.0">Black</text>
            <text id="template-version" fill="#505050" text-anchor="end" x="785.0" y="575.0">Template v.3.0</text>
            <a href="https://github.com/swhitty/SwiftDraw">
                <text fill="#505050" text-anchor="end" x="785.0" y="590.0">https://github.com/swhitty/SwiftDraw</text>
            </a>
        </g>
    </g>
    <g id="Guides" stroke="rgb(39, 170, 225)" stroke-width="0.5">
        <path id="Capline-S" d="M18,76 l800,0" />
        <path id="H-reference" d="M85,145.755 L87.685,145.755 L113.369,79.287 L114.052,79.287 L114.052,76 L112.148,76 L85,145.755 Z M95.693,121.536 L130.996,121.536 L130.263,119.313 L96.474,119.313 L95.693,121.536 Z M139.15,145.755 L141.787,145.755 L114.638,76 L113.466,76 L113.466,79.287 L139.15,145.755 Z" stroke="none" transform="translate(0,200)" />
        <path id="Baseline-S" d="M18,146 l800,0" />
        <path id="left-margin-Ultralight-M" d="M222.222,256 l0,110" />
        <path id="right-margin-Ultralight-M" d="M307.778,256 l0,110" />
        <path id="left-margin-Regular-M" d="M422.222,256 l0,110" />
        <path id="right-margin-Regular-M" d="M507.778,256 l0,110" />
        <path id="left-margin-Black-M" d="M622.222,256 l0,110" />
        <path id="right-margin-Black-M" d="M707.778,256 l0,110" />
        <path id="Capline-M" d="M18,276 l800,0" />
        <path id="Baseline-M" d="M18,346 l800,0" />
        <path id="Capline-L" d="M18,476 l800,0" />
        <path id="Baseline-L" d="M18,546 l800,0" />
    </g>
    <g id="Symbols">
        <g id="Ultralight-M" transform="translate(0,200)">
            <path d="M261.111,122.667 L261.111,111 C261.111,108.852 259.37,107.111 257.222,107.111 C255.074,107.111 253.333,108.852 253.333,111 L253.333,122.667 C253.333,124.814 255.074,126.556 257.222,126.556 C259.37,126.556 261.111,124.814 261.111,122.667 Z" />
            <path d="M276.667,122.667 L276.667,111 C276.667,108.852 274.926,107.111 272.778,107.111 C270.63,107.111 268.889,108.852 268.889,111 L268.889,122.667 C268.889,124.814 270.63,126.556 272.778,126.556 C274.926,126.556 276.667,124.814 276.667,122.667 Z" />
            <path d="M292.222,122.667 L292.222,111 C292.222,108.852 290.481,107.111 288.333,107.111 C286.186,107.111 284.444,108.852 284.444,111 L284.444,122.667 C284.444,124.814 286.186,126.556 288.333,126.556 C290.481,126.556 292.222,124.814 292.222,122.667 Z" />
            <path d="M230,95.444 L230,79.889 C230,77.741 228.259,76 226.111,76 C223.963,76 222.222,77.741 222.222,79.889 L222.222,95.444 C222.222,97.592 223.963,99.333 226.111,99.333 C228.259,99.333 230,97.592 230,95.444 Z" />
            <path d="M303.889,83.778 L226.111,83.778 C223.963,83.778 222.222,85.519 222.222,87.667 C222.222,89.814 223.963,91.556 226.111,91.556 L303.889,91.556 C306.037,91.556 307.778,89.814 307.778,87.667 C307.778,85.519 306.037,83.778 303.889,83.778 Z" />
            <path d="M307.778,95.444 L307.778,79.889 C307.778,77.741 306.037,76 303.889,76 C301.741,76 300,77.741 300,79.889 L300,95.444 C300,97.592 301.741,99.333 303.889,99.333 C306.037,99.333 307.778,97.592 307.778,95.444 Z" />
            <path d="M245.556,122.667 L245.556,111 C245.556,108.852 243.814,107.111 241.667,107.111 C239.519,107.111 237.778,108.852 237.778,111 L237.778,122.667 C237.778,124.814 239.519,126.556 241.667,126.556 C243.814,126.556 245.556,124.814 245.556,122.667 Z" />
            <path d="M300,126.556 L300,134.333 C300,135.365 299.59,136.354 298.861,137.083 C298.132,137.812 297.143,138.222 296.111,138.222 L233.889,138.222 C232.857,138.222 231.868,137.812 231.139,137.083 C230.41,136.354 230,135.365 230,134.333 L230,118.778 C230,117.746 230.41,116.757 231.139,116.028 C231.868,115.299 232.857,114.889 233.889,114.889 L296.111,114.889 C297.143,114.889 298.132,115.299 298.861,116.028 C299.59,116.757 300,117.746 300,118.778 L300,126.556 Z M307.778,126.556 L307.778,118.778 C307.778,115.684 306.549,112.716 304.361,110.528 C302.173,108.34 299.205,107.111 296.111,107.111 L233.889,107.111 C230.795,107.111 227.827,108.34 225.639,110.528 C223.451,112.716 222.222,115.684 222.222,118.778 L222.222,134.333 C222.222,137.428 223.451,140.395 225.639,142.583 C227.827,144.771 230.795,146 233.889,146 L296.111,146 C299.205,146 302.173,144.771 304.361,142.583 C306.549,140.395 307.778,137.428 307.778,134.333 L307.778,126.556 Z" />
        </g>
        <g id="Regular-M" transform="translate(0,200)">
            <path d="M461.111,122.667 L461.111,111 C461.111,108.852 459.37,107.111 457.222,107.111 C455.074,107.111 453.333,108.852 453.333,111 L453.333,122.667 C453.333,124.814 455.074,126.556 457.222,126.556 C459.37,126.556 461.111,124.814 461.111,122.667 Z" />
            <path d="M476.667,122.667 L476.667,111 C476.667,108.852 474.926,107.111 472.778,107.111 C470.63,107.111 468.889,108.852 468.889,111 L468.889,122.667 C468.889,124.814 470.63,126.556 472.778,126.556 C474.926,126.556 476.667,124.814 476.667,122.667 Z" />
            <path d="M492.222,122.667 L492.222,111 C492.222,108.852 490.481,107.111 488.333,107.111 C486.186,107.111 484.444,108.852 484.444,111 L484.444,122.667 C484.444,124.814 486.186,126.556 488.333,126.556 C490.481,126.556 492.222,124.814 492.222,122.667 Z" />
            <path d="M430,95.444 L430,79.889 C430,77.741 428.259,76 426.111,76 C423.963,76 422.222,77.741 422.222,79.889 L422.222,95.444 C422.222,97.592 423.963,99.333 426.111,99.333 C428.259,99.333 430,97.592 430,95.444 Z" />
            <path d="M503.889,83.778 L426.111,83.778 C423.963,83.778 422.222,85.519 422.222,87.667 C422.222,89.814 423.963,91.556 426.111,91.556 L503.889,91.556 C506.037,91.556 507.778,89.814 507.778,87.667 C507.778,85.519 506.037,83.778 503.889,83.778 Z" />
            <path d="M507.778,95.444 L507.778,79.889 C507.778,77.741 506.037,76 503.889,76 C501.741,76 500,77.741 500,79.889 L500,95.444 C500,97.592 501.741,99.333 503.889,99.333 C506.037,99.333 507.778,97.592 507.778,95.444 Z" />
            <path d="M445.556,122.667 L445.556,111 C445.556,108.852 443.814,107.111 441.667,107.111 C439.519,107.111 437.778,108.852 437.778,111 L437.778,122.667 C437.778,124.814 439.519,126.556 441.667,126.556 C443.814,126.556 445.556,124.814 445.556,122.667 Z" />
            <path d="M500,126.556 L500,134.333 C500,135.365 499.59,136.354 498.861,137.083 C498.132,137.812 497.143,138.222 496.111,138.222 L433.889,138.222 C432.858,138.222 431.868,137.812 431.139,137.083 C430.41,136.354 430,135.365 430,134.333 L430,118.778 C430,117.746 430.41,116.757 431.139,116.028 C431.868,115.299 432.857,114.889 433.889,114.889 L496.111,114.889 C497.143,114.889 498.132,115.299 498.861,116.028 C499.59,116.757 500,117.746 500,118.778 L500,126.556 Z M507.778,126.556 L507.778,118.778 C507.778,115.684 506.549,112.716 504.361,110.528 C502.173,108.34 499.205,107.111 496.111,107.111 L433.889,107.111 C430.795,107.111 427.827,108.34 425.639,110.528 C423.451,112.716 422.222,115.684 422.222,118.778 L422.222,134.333 C422.222,137.428 423.451,140.395 425.639,142.583 C427.827,144.771 430.795,146 433.889,146 L496.111,146 C499.205,146 502.173,144.771 504.361,142.583 C506.549,140.395 507.778,137.428 507.778,134.333 L507.778,126.556 Z" />
        </g>
        <g id="Black-M" transform="translate(0,200)">
            <path d="M661.111,122.667 L661.111,111 C661.111,108.852 659.37,107.111 657.222,107.111 C655.074,107.111 653.333,108.852 653.333,111 L653.333,122.667 C653.333,124.814 655.074,126.556 657.222,126.556 C659.37,126.556 661.111,124.814 661.111,122.667 Z" />
            <path d="M676.667,122.667 L676.667,111 C676.667,108.852 674.926,107.111 672.778,107.111 C670.63,107.111 668.889,108.852 668.889,111 L668.889,122.667 C668.889,124.814 670.63,126.556 672.778,126.556 C674.926,126.556 676.667,124.814 676.667,122.667 Z" />
            <path d="M692.222,122.667 L692.222,111 C692.222,108.852 690.481,107.111 688.333,107.111 C686.186,107.111 684.444,108.852 684.444,111 L684.444,122.667 C684.444,124.814 686.186,126.556 688.333,126.556 C690.481,126.556 692.222,124.814 692.222,122.667 Z" />
            <path d="M630,95.444 L630,79.889 C630,77.741 628.259,76 626.111,76 C623.963,76 622.222,77.741 622.222,79.889 L622.222,95.444 C622.222,97.592 623.963,99.333 626.111,99.333 C628.259,99.333 630,97.592 630,95.444 Z" />
            <path d="M703.889,83.778 L626.111,83.778 C623.963,83.778 622.222,85.519 622.222,87.667 C622.222,89.814 623.963,91.556 626.111,91.556 L703.889,91.556 C706.037,91.556 707.778,89.814 707.778,87.667 C707.778,85.519 706.037,83.778 703.889,83.778 Z" />
            <path d="M707.778,95.444 L707.778,79.889 C707.778,77.741 706.037,76 703.889,76 C701.741,76 700,77.741 700,79.889 L700,95.444 C700,97.592 701.741,99.333 703.889,99.333 C706.037,99.333 707.778,97.592 707.778,95.444 Z" />
            <path d="M645.556,122.667 L645.556,111 C645.556,108.852 643.814,107.111 641.667,107.111 C639.519,107.111 637.778,108.852 637.778,111 L637.778,122.667 C637.778,124.814 639.519,126.556 641.667,126.556 C643.814,126.556 645.556,124.814 645.556,122.667 Z" />
            <path d="M700,126.556 L700,134.333 C700,135.365 699.59,136.354 698.861,137.083 C698.132,137.812 697.143,138.222 696.111,138.222 L633.889,138.222 C632.857,138.222 631.868,137.812 631.139,137.083 C630.41,136.354 630,135.365 630,134.333 L630,118.778 C630,117.746 630.41,116.757 631.139,116.028 C631.868,115.299 632.857,114.889 633.889,114.889 L696.111,114.889 C697.143,114.889 698.132,115.299 698.861,116.028 C699.59,116.757 700,117.746 700,118.778 L700,126.556 Z M707.778,126.556 L707.778,118.778 C707.778,115.684 706.549,112.716 704.361,110.528 C702.173,108.34 699.205,107.111 696.111,107.111 L633.889,107.111 C630.795,107.111 627.827,108.34 625.639,110.528 C623.451,112.716 622.222,115.684 622.222,118.778 L622.222,134.333 C622.222,137.428 623.451,140.395 625.639,142.583 C627.827,144.771 630.795,146 633.889,146 L696.111,146 C699.205,146 702.173,144.771 704.361,142.583 C706.549,140.395 707.778,137.428 707.778,134.333 L707.778,126.556 Z" />
        </g>
    </g>
</svg>