<?xml version="1.0" encoding="UTF-8"?>
<svg height="600" width="800" xmlns="http://www.w3.org/2000/svg" xmlns:xlink="http://www.w3.org/1999/xlink">
    <g id="Notes" font-family="LucidaGrande, 'Lucida Grande', sans-serif" font-size="13">
        <rect fill="white" height="600.0" width="800.0" x="0.0" y="0.0" />
        <g font-size="13">
            <text x="18.0" y="176.0">Small</text>
            <text x="18.0" y="376.0">Medium</text>
            <text x="18.0" y="576.0">Large</text>
        </g>
        <g font-size="9">
            <text x="250.0" y="30.0">Ultralight</text>
            <text x="450.0" y="30.0">Regular</text>
            <text x="650.0" y="30.0">Black</text>
            <text id="template-version" fill="#505050" text-anchor="end" x="785.0" y="575.0">Template v.3.0</text>
            <a href="https://github.com/swhitty/SwiftDraw">
                <text fill="#505050" text-anchor="end" x="785.0" y="590.0">https://github.com/swhitty/SwiftDraw</text>
            </a>
        </g>
    </g>
    <g id="Guides" stroke="rgb(39, 170, 225)" stroke-width="0.5">
        <path id="Capline-S" d="M18,76 l800,0" />
        <path id="H-reference" d="M85,145.755 L87.685,145.755 L113.369,79.287 L114.052,79.287 L114.052,76 L112.148,76 L85,145.755 Z M95.693,121.536 L130.996,121.536 L130.263,119.313 L96.474,119.313 L95.693,121.536 Z M139.15,145.755 L141.787,145.755 L114.638,76 L113.466,76 L113.466,79.287 L139.15,145.755 Z" stroke="none" transform="translate(0,200)" />
        <path id="Baseline-S" d="M18,146 l800,0" />
        <path id="left-margin-Ultralight-M" d="M221,256 l0,110" />
        <path id="right-margin-Ultralight-M" d="M309,256 l0,110" />
        <path id="left-margin-Regular-M" d="M421,256 l0,110" />
        <path id="right-margin-Regular-M" d="M509,256 l0,110" />
        <path id="left-margin-Black-M" d="M621,256 l0,110" />
        <path id="right-margin-Black-M" d="M709,256 l0,110" />
        <path id="Capline-M" d="M18,276 l800,0" />
        <path id="Baseline-M" d="M18,346 l800,0" />
        <path id="Capline-L" d="M18,476 l800,0" />
        <path id="Baseline-L" d="M18,546 l800,0" />
    </g>
    <g id="Symbols">
        <g id="Ultralight-M" transform="translate(0,200)">
            <path d="M256.2,111 C256.2,106.14 260.14,102.2 265,102.2 C269.86,102.2 273.8,106.14 273.8,111 C273.8,115.86 269.86,119.8 265,119.8 C260.14,119.8 256.2,115.86 256.2,111 Z M247.4,111 C247.4,120.72 255.28,128.6 265,128.6 C274.72,128.6 282.6,120.72 282.6,111 C282.6,101.28 274.72,93.4 265,93.4 C255.28,93.4 247.4,101.28 247.4,111 Z" />
            <path d="M225.4,115.4 L251.8,115.4 C254.23,115.4 256.2,113.43 256.2,111 C256.2,108.57 254.23,106.6 251.8,106.6 L225.4,106.6 C222.97,106.6 221,108.57 221,111 C221,113.43 222.97,115.4 225.4,115.4 Z" />
            <path d="M278.2,115.4 L304.6,115.4 C307.03,115.4 309,113.43 309,111 C309,108.57 307.03,106.6 304.6,106.6 L278.2,106.6 C275.77,106.6 273.8,108.57 273.8,111 C273.8,113.43 275.77,115.4 278.2,115.4 Z" />
        </g>
        <g id="Regular-M" transform="translate(0,200)">
            <path d="M456.2,111 C456.2,106.14 460.14,102.2 465,102.2 C469.86,102.2 473.8,106.14 473.8,111 C473.8,115.86 469.86,119.8 465,119.8 C460.14,119.8 456.2,115.86 456.2,111 Z M447.4,111 C447.4,120.72 455.28,128.6 465,128.6 C474.72,128.6 482.6,120.72 482.6,111 C482.6,101.28 474.72,93.4 465,93.4 C455.28,93.4 447.4,101.28 447.4,111 Z" />
            <path d="M425.4,115.4 L451.8,115.4 C454.23,115.4 456.2,113.43 456.2,111 C456.2,108.57 454.23,106.6 451.8,106.6 L425.4,106.6 C422.97,106.6 421,108.57 421,111 C421,113.43 422.97,115.4 425.4,115.4 Z" />
            <path d="M478.2,115.4 L504.6,115.4 C507.03,115.4 509,113.43 509,111 C509,108.57 507.03,106.6 504.6,106.6 L478.2,106.6 C475.77,106.6 473.8,108.57 473.8,111 C473.8,113.43 475.77,115.4 478.2,115.4 Z" />
        </g>
        <g id="Black-M" transform="translate(0,200)">
            <path d="M656.2,111 C656.2,106.14 660.14,102.2 665,102.2 C669.86,102.2 673.8,106.14 673.8,111 C673.8,115.86 669.86,119.8 665,119.8 C660.14,119.8 656.2,115.86 656.2,111 Z M647.4,111 C647.4,120.72 655.28,128.6 665,128.6 C674.72,128.6 682.6,120.72 682.6,111 C682.6,101.28 674.72,93.4 665,93.4 C655.28,93.4 647.4,101.28 647.4,111 Z" />
            <path d="M625.4,115.4 L651.8,115.4 C654.23,115.4 656.2,113.43 656.2,111 C656.2,108.57 654.23,106.6 651.8,106.6 L625.4,106.6 C622.97,106.6 621,108.57 621,111 C621,113.43 622.97,115.4 625.4,115.4 Z" />
            <path d="M678.2,115.4 L704.6,115.4 C707.03,115.4 709,113.43 709,111 C709,108.57 707.03,106.6 704.6,106.6 L678.2,106.6 C675.77,106.6 673.8,108.57 673.8,111 C673.8,113.43 675.77,115.4 678.2,115.4 Z" />
        </g>
    </g>
</svg>