<?xml version="1.0" encoding="UTF-8"?>
<svg height="600" width="800" xmlns="http://www.w3.org/2000/svg" xmlns:xlink="http://www.w3.org/1999/xlink">
    <g id="Notes" font-family="LucidaGrande, 'Lucida Grande', sans-serif" font-size="13">
        <rect fill="white" height="600.0" width="800.0" x="0.0" y="0.0" />
        <g font-size="13">
            <text x="18.0" y="176.0">Small</text>
            <text x="18.0" y="376.0">Medium</text>
            <text x="18.0" y="576.0">Large</text>
        </g>
        <g font-size="9">
            <text x="250.0" y="30.0">Ultralight</text>
            <text x="450.0" y="30.0">Regular</text>
            <text x="650.0" y="30.0">Black</text>
            <text id="template-version" fill="#505050" text-anchor="end" x="785.0" y="575.0">Template v.3.0</text>
            <a href="https://github.com/swhitty/SwiftDraw">
                <text fill="#505050" text-anchor="end" x="785.0" y="590.0">https://github.com/swhitty/SwiftDraw</text>
            </a>
        </g>
    </g>
    <g id="Guides" stroke="rgb(39, 170, 225)" stroke-width="0.5">
        <path id="Capline-S" d="M18,76 l800,0" />
        <path id="H-reference" d="M85,145.755 L87.685,145.755 L113.369,79.287 L114.052,79.287 L114.052,76 L112.148,76 L85,145.755 Z M95.693,121.536 L130.996,121.536 L130.263,119.313 L96.474,119.313 L95.693,121.536 Z M139.15,145.755 L141.787,145.755 L114.638,76 L113.466,76 L113.466,79.287 L139.15,145.755 Z" stroke="none" transform="translate(0,200)" />
        <path id="Baseline-S" d="M18,146 l800,0" />
        <path id="left-margin-Ultralight-M" d="M233.5,256 l0,110" />
        <path id="right-margin-Ultralight-M" d="M296.5,256 l0,110" />
        <path id="left-margin-Regular-M" d="M433.5,256 l0,110" />
        <path id="right-margin-Regular-M" d="M496.5,256 l0,110" />
        <path id="left-margin-Black-M" d="M633.5,256 l0,110" />
        <path id="right-margin-Black-M" d="M696.5,256 l0,110" />
        <path id="Capline-M" d="M18,276 l800,0" />
        <path id="Baseline-M" d="M18,346 l800,0" />
        <path id="Capline-L" d="M18,476 l800,0" />
        <path id="Baseline-L" d="M18,546 l800,0" />
    </g>
    <g id="Symbols">
        <g id="Ultralight-M" transform="translate(0,200)">
            <path d="M296.5,104 L296.5,97 C296.5,94.215 295.394,91.545 293.425,89.575 C291.456,87.606 288.785,86.5 286,86.5 L265,86.5 C263.067,86.5 261.5,88.067 261.5,90 C261.5,91.933 263.067,93.5 265,93.5 L286,93.5 C286.928,93.5 287.818,93.869 288.475,94.525 C289.131,95.182 289.5,96.072 289.5,97 L289.5,104 C289.5,105.933 291.067,107.5 293,107.5 C294.933,107.5 296.5,105.933 296.5,104 Z" />
            <path d="M273.025,77.025 L262.525,87.525 C261.158,88.892 261.158,91.108 262.525,92.475 L273.025,102.975 C274.392,104.342 276.608,104.342 277.975,102.975 C279.342,101.608 279.342,99.392 277.975,98.025 L267.475,87.525 L267.475,92.475 L277.975,81.975 C279.342,80.608 279.342,78.392 277.975,77.025 C276.608,75.658 274.392,75.658 273.025,77.025 Z" />
            <path d="M289.5,118 L289.5,135.5 C289.5,136.428 289.131,137.318 288.475,137.975 C287.818,138.631 286.928,139 286,139 L244,139 C243.072,139 242.182,138.631 241.525,137.975 C240.869,137.318 240.5,136.428 240.5,135.5 L240.5,97 C240.5,96.072 240.869,95.182 241.525,94.525 C242.182,93.869 243.072,93.5 244,93.5 L251,93.5 C252.933,93.5 254.5,91.933 254.5,90 C254.5,88.067 252.933,86.5 251,86.5 L244,86.5 C241.215,86.5 238.545,87.606 236.575,89.575 C234.606,91.545 233.5,94.215 233.5,97 L233.5,135.5 C233.5,138.285 234.606,140.955 236.575,142.925 C238.545,144.894 241.215,146 244,146 L286,146 C288.785,146 291.455,144.894 293.425,142.925 C295.394,140.955 296.5,138.285 296.5,135.5 L296.5,118 C296.5,116.067 294.933,114.5 293,114.5 C291.067,114.5 289.5,116.067 289.5,118 Z" />
        </g>
        <g id="Regular-M" transform="translate(0,200)">
            <path d="M496.5,104 L496.5,97 C496.5,94.215 495.394,91.545 493.425,89.575 C491.456,87.606 488.785,86.5 486,86.5 L465,86.5 C463.067,86.5 461.5,88.067 461.5,90 C461.5,91.933 463.067,93.5 465,93.5 L486,93.5 C486.928,93.5 487.818,93.869 488.475,94.525 C489.131,95.182 489.5,96.072 489.5,97 L489.5,104 C489.5,105.933 491.067,107.5 493,107.5 C494.933,107.5 496.5,105.933 496.5,104 Z" />
            <path d="M473.025,77.025 L462.525,87.525 C461.158,88.892 461.158,91.108 462.525,92.475 L473.025,102.975 C474.392,104.342 476.608,104.342 477.975,102.975 C479.342,101.608 479.342,99.392 477.975,98.025 L467.475,87.525 L467.475,92.475 L477.975,81.975 C479.342,80.608 479.342,78.392 477.975,77.025 C476.608,75.658 474.392,75.658 473.025,77.025 Z" />
            <path d="M489.5,118 L489.5,135.5 C489.5,136.428 489.131,137.318 488.475,137.975 C487.818,138.631 486.928,139 486,139 L444,139 C443.072,139 442.182,138.631 441.525,137.975 C440.869,137.318 440.5,136.428 440.5,135.5 L440.5,97 C440.5,96.072 440.869,95.182 441.525,94.525 C442.182,93.869 443.072,93.5 444,93.5 L451,93.5 C452.933,93.5 454.5,91.933 454.5,90 C454.5,88.067 452.933,86.5 451,86.5 L444,86.5 C441.215,86.5 438.545,87.606 436.575,89.575 C434.606,91.545 433.5,94.215 433.5,97 L433.5,135.5 C433.5,138.285 434.606,140.955 436.575,142.925 C438.545,144.894 441.215,146 444,146 L486,146 C488.785,146 491.455,144.894 493.425,142.925 C495.394,140.955 496.5,138.285 496.5,135.5 L496.5,118 C496.5,116.067 494.933,114.5 493,114.5 C491.067,114.5 489.5,116.067 489.5,118 Z" />
        </g>
        <g id="Black-M" transform="translate(0,200)">
            <path d="M696.5,104 L696.5,97 C696.5,94.215 695.394,91.545 693.425,89.575 C691.456,87.606 688.785,86.5 686,86.5 L665,86.5 C663.067,86.5 661.5,88.067 661.5,90 C661.5,91.933 663.067,93.5 665,93.5 L686,93.5 C686.928,93.5 687.818,93.869 688.475,94.525 C689.131,95.182 689.5,96.072 689.5,97 L689.5,104 C689.5,105.933 691.067,107.5 693,107.5 C694.933,107.5 696.5,105.933 696.5,104 Z" />
            <path d="M673.025,77.025 L662.525,87.525 C661.158,88.892 661.158,91.108 662.525,92.475 L673.025,102.975 C674.392,104.342 676.608,104.342 677.975,102.975 C679.342,101.608 679.342,99.392 677.975,98.025 L667.475,87.525 L667.475,92.475 L677.975,81.975 C679.342,80.608 679.342,78.392 677.975,77.025 C676.608,75.658 674.392,75.658 673.025,77.025 Z" />
            <path d="M689.5,118 L689.5,135.5 C689.5,136.428 689.131,137.318 688.475,137.975 C687.818,138.631 686.928,139 686,139 L644,139 C643.072,139 642.182,138.631 641.525,137.975 C640.869,137.318 640.5,136.428 640.5,135.5 L640.5,97 C640.5,96.072 640.869,95.182 641.525,94.525 C642.182,93.869 643.072,93.5 644,93.5 L651,93.5 C652.933,93.5 654.5,91.933 654.5,90 C654.5,88.067 652.933,86.5 651,86.5 L644,86.5 C641.215,86.5 638.544,87.606 636.575,89.575 C634.606,91.545 633.5,94.215 633.5,97 L633.5,135.5 C633.5,138.285 634.606,140.955 636.575,142.925 C638.544,144.894 641.215,146 644,146 L686,146 C688.785,146 691.456,144.894 693.425,142.925 C695.394,140.955 696.5,138.285 696.5,135.5 L696.5,118 C696.5,116.067 694.933,114.5 693,114.5 C691.067,114.5 689.5,116.067 689.5,118 Z" />
        </g>
    </g>
</svg>