<?xml version="1.0" encoding="UTF-8"?>
<svg height="600" width="800" xmlns="http://www.w3.org/2000/svg" xmlns:xlink="http://www.w3.org/1999/xlink">
    <g id="Notes" font-family="LucidaGrande, 'Lucida Grande', sans-serif" font-size="13">
        <rect fill="white" height="600.0" width="800.0" x="0.0" y="0.0" />
        <g font-size="13">
            <text x="18.0" y="176.0">Small</text>
            <text x="18.0" y="376.0">Medium</text>
            <text x="18.0" y="576.0">Large</text>
        </g>
        <g font-size="9">
            <text x="250.0" y="30.0">Ultralight</text>
            <text x="450.0" y="30.0">Regular</text>
            <text x="650.0" y="30.0">Black</text>
            <text id="template-version" fill="#505050" text-anchor="end" x="785.0" y="575.0">Template v.3.0</text>
            <a href="https://github.com/swhitty/SwiftDraw">
                <text fill="#505050" text-anchor="end" x="785.0" y="590.0">https://github.com/swhitty/SwiftDraw</text>
            </a>
        </g>
    </g>
    <g id="Guides" stroke="rgb(39, 170, 225)" stroke-width="0.5">
        <path id="Capline-S" d="M18,76 l800,0" />
        <path id="H-reference" d="M85,145.755 L87.685,145.755 L113.369,79.287 L114.052,79.287 L114.052,76 L112.148,76 L85,145.755 Z M95.693,121.536 L130.996,121.536 L130.263,119.313 L96.474,119.313 L95.693,121.536 Z M139.15,145.755 L141.787,145.755 L114.638,76 L113.466,76 L113.466,79.287 L139.15,145.755 Z" stroke="none" transform="translate(0,200)" />
        <path id="Baseline-S" d="M18,146 l800,0" />
        <path id="left-margin-Ultralight-M" d="M236.364,256 l0,110" />
        <path id="right-margin-Ultralight-M" d="M293.636,256 l0,110" />
        <path id="left-margin-Regular-M" d="M436.364,256 l0,110" />
        <path id="right-margin-Regular-M" d="M493.636,256 l0,110" />
        <path id="left-margin-Black-M" d="M636.364,256 l0,110" />
        <path id="right-margin-Black-M" d="M693.636,256 l0,110" />
        <path id="Capline-M" d="M18,276 l800,0" />
        <path id="Baseline-M" d="M18,346 l800,0" />
        <path id="Capline-L" d="M18,476 l800,0" />
        <path id="Baseline-L" d="M18,546 l800,0" />
    </g>
    <g id="Symbols">
        <g id="Ultralight-M" transform="translate(0,200)">
            <path d="M245.909,139.636 C245.065,139.636 244.256,139.301 243.659,138.704 C243.062,138.108 242.727,137.298 242.727,136.455 L242.727,85.545 C242.727,84.702 243.062,83.892 243.659,83.296 C244.256,82.699 245.065,82.364 245.909,82.364 L271.364,82.364 C272.555,82.362 273.694,82.833 274.531,83.674 L285.952,95.094 C286.802,95.939 287.275,97.079 287.273,98.268 L287.273,136.455 C287.273,137.298 286.938,138.108 286.341,138.704 C285.744,139.301 284.935,139.636 284.091,139.636 L245.909,139.636 Z M245.909,146 L284.091,146 C286.622,146 289.05,144.994 290.841,143.204 C292.631,141.414 293.636,138.986 293.636,136.455 L293.636,98.273 C293.641,95.391 292.492,92.623 290.445,90.588 L279.035,79.178 C277.005,77.141 274.24,75.995 271.358,76 L245.909,76 C243.377,76 240.95,77.006 239.159,78.796 C237.369,80.586 236.364,83.014 236.364,85.545 L236.364,136.455 C236.364,138.986 237.369,141.414 239.159,143.204 C240.95,144.994 243.377,146 245.909,146 Z" />
            <path d="M268.182,79.182 L268.182,95.091 C268.182,96.779 268.852,98.397 270.046,99.591 C271.239,100.784 272.858,101.455 274.545,101.455 L290.455,101.455 C292.212,101.455 293.636,100.03 293.636,98.273 C293.636,96.515 292.212,95.091 290.455,95.091 L274.545,95.091 C274.545,95.091 274.545,95.091 274.545,95.091 C274.545,95.091 274.545,95.091 274.545,95.091 L274.545,79.182 C274.545,77.425 273.121,76 271.364,76 C269.606,76 268.182,77.425 268.182,79.182 Z" />
            <path d="M273.057,118.336 C272.71,118.135 272.496,117.765 272.496,117.364 C272.496,116.963 272.71,116.592 273.057,116.391 L260.123,123.875 C260.473,123.673 260.904,123.673 261.254,123.875 C261.604,124.077 261.819,124.451 261.818,124.856 L261.818,109.88 C261.819,110.278 261.604,110.652 261.255,110.854 C260.905,111.056 260.475,111.057 260.125,110.855 L273.057,118.336 Z M276.244,112.828 L263.306,105.344 C261.681,104.407 259.685,104.409 258.066,105.347 C256.447,106.284 255.451,108.015 255.455,109.886 L255.455,124.847 C255.45,126.712 256.446,128.445 258.068,129.383 C259.689,130.321 261.688,130.321 263.31,129.383 L276.244,121.9 C277.863,120.963 278.86,119.234 278.86,117.364 C278.86,115.493 277.863,113.765 276.244,112.828 Z" />
        </g>
        <g id="Regular-M" transform="translate(0,200)">
            <path d="M445.909,139.636 C445.065,139.636 444.256,139.301 443.659,138.704 C443.062,138.108 442.727,137.298 442.727,136.455 L442.727,85.545 C442.727,84.702 443.062,83.892 443.659,83.296 C444.256,82.699 445.065,82.364 445.909,82.364 L471.364,82.364 C472.555,82.362 473.694,82.833 474.532,83.674 L485.952,95.094 C486.802,95.939 487.275,97.079 487.273,98.268 L487.273,136.455 C487.273,137.298 486.938,138.108 486.341,138.704 C485.744,139.301 484.935,139.636 484.091,139.636 L445.909,139.636 Z M445.909,146 L484.091,146 C486.623,146 489.05,144.994 490.841,143.204 C492.631,141.414 493.636,138.986 493.636,136.455 L493.636,98.273 C493.641,95.391 492.492,92.623 490.445,90.588 L479.035,79.178 C477.005,77.141 474.24,75.995 471.358,76 L445.909,76 C443.378,76 440.95,77.006 439.159,78.796 C437.369,80.586 436.364,83.014 436.364,85.545 L436.364,136.455 C436.364,138.986 437.369,141.414 439.159,143.204 C440.95,144.994 443.378,146 445.909,146 Z" />
            <path d="M468.182,79.182 L468.182,95.091 C468.182,96.779 468.852,98.397 470.046,99.591 C471.239,100.784 472.858,101.455 474.545,101.455 L490.455,101.455 C492.212,101.455 493.636,100.03 493.636,98.273 C493.636,96.515 492.212,95.091 490.455,95.091 L474.545,95.091 C474.545,95.091 474.545,95.091 474.545,95.091 C474.545,95.091 474.545,95.091 474.545,95.091 L474.545,79.182 C474.545,77.425 473.121,76 471.364,76 C469.606,76 468.182,77.425 468.182,79.182 Z" />
            <path d="M473.057,118.336 C472.71,118.135 472.496,117.765 472.496,117.364 C472.496,116.963 472.71,116.592 473.057,116.391 L460.123,123.875 C460.473,123.673 460.904,123.673 461.254,123.875 C461.604,124.077 461.819,124.451 461.818,124.856 L461.818,109.88 C461.819,110.278 461.604,110.652 461.255,110.854 C460.905,111.056 460.475,111.057 460.125,110.855 L473.057,118.336 Z M476.244,112.828 L463.306,105.344 C461.681,104.407 459.685,104.409 458.066,105.347 C456.447,106.284 455.451,108.015 455.455,109.886 L455.455,124.847 C455.45,126.712 456.446,128.445 458.068,129.383 C459.689,130.321 461.688,130.321 463.31,129.383 L476.244,121.9 C477.863,120.963 478.86,119.234 478.86,117.364 C478.86,115.493 477.863,113.765 476.244,112.828 Z" />
        </g>
        <g id="Black-M" transform="translate(0,200)">
            <path d="M645.909,139.636 C645.065,139.636 644.256,139.301 643.659,138.704 C643.062,138.108 642.727,137.298 642.727,136.455 L642.727,85.545 C642.727,84.702 643.062,83.892 643.659,83.296 C644.256,82.699 645.065,82.364 645.909,82.364 L671.364,82.364 C672.555,82.362 673.694,82.833 674.531,83.674 L685.952,95.094 C686.802,95.939 687.275,97.079 687.273,98.268 L687.273,136.455 C687.273,137.298 686.938,138.108 686.341,138.704 C685.744,139.301 684.935,139.636 684.091,139.636 L645.909,139.636 Z M645.909,146 L684.091,146 C686.623,146 689.05,144.994 690.841,143.204 C692.631,141.414 693.636,138.986 693.636,136.455 L693.636,98.273 C693.641,95.391 692.492,92.623 690.445,90.588 L679.035,79.178 C677.005,77.141 674.24,75.995 671.358,76 L645.909,76 C643.378,76 640.95,77.006 639.159,78.796 C637.369,80.586 636.364,83.014 636.364,85.545 L636.364,136.455 C636.364,138.986 637.369,141.414 639.159,143.204 C640.95,144.994 643.378,146 645.909,146 Z" />
            <path d="M668.182,79.182 L668.182,95.091 C668.182,96.779 668.852,98.397 670.046,99.591 C671.239,100.784 672.858,101.455 674.545,101.455 L690.455,101.455 C692.212,101.455 693.636,100.03 693.636,98.273 C693.636,96.515 692.212,95.091 690.455,95.091 L674.545,95.091 C674.545,95.091 674.545,95.091 674.545,95.091 C674.545,95.091 674.545,95.091 674.545,95.091 L674.545,79.182 C674.545,77.425 673.121,76 671.364,76 C669.606,76 668.182,77.425 668.182,79.182 Z" />
            <path d="M673.057,118.336 C672.71,118.135 672.496,117.765 672.496,117.364 C672.496,116.963 672.71,116.592 673.057,116.391 L660.123,123.875 C660.473,123.673 660.904,123.673 661.254,123.875 C661.604,124.077 661.819,124.451 661.818,124.856 L661.818,109.88 C661.819,110.278 661.604,110.652 661.255,110.854 C660.905,111.056 660.475,111.057 660.125,110.855 L673.057,118.336 Z M676.244,112.828 L663.306,105.344 C661.681,104.407 659.685,104.409 658.066,105.347 C656.447,106.284 655.451,108.015 655.455,109.886 L655.455,124.847 C655.45,126.712 656.446,128.445 658.068,129.383 C659.689,130.321 661.688,130.321 663.31,129.383 L676.244,121.9 C677.863,120.963 678.86,119.234 678.86,117.364 C678.86,115.493 677.863,113.765 676.244,112.828 Z" />
        </g>
    </g>
</svg>