<?xml version="1.0" encoding="UTF-8"?>
<svg height="600" width="800" xmlns="http://www.w3.org/2000/svg" xmlns:xlink="http://www.w3.org/1999/xlink">
    <g id="Notes" font-family="LucidaGrande, 'Lucida Grande', sans-serif" font-size="13">
        <rect fill="white" height="600.0" width="800.0" x="0.0" y="0.0" />
        <g font-size="13">
            <text x="18.0" y="176.0">Small</text>
            <text x="18.0" y="376.0">Medium</text>
            <text x="18.0" y="576.0">Large</text>
        </g>
        <g font-size="9">
            <text x="250.0" y="30.0">Ultralight</text>
            <text x="450.0" y="30.0">Regular</text>
            <text x="650.0" y="30.0">Black</text>
            <text id="template-version" fill="#505050" text-anchor="end" x="785.0" y="575.0">Template v.3.0</text>
            <a href="https://github.com/swhitty/SwiftDraw">
                <text fill="#505050" text-anchor="end" x="785.0" y="590.0">https://github.com/swhitty/SwiftDraw</text>
            </a>
        </g>
    </g>
    <g id="Guides" stroke="rgb(39, 170, 225)" stroke-width="0.5">
        <path id="Capline-S" d="M18,76 l800,0" />
        <path id="H-reference" d="M85,145.755 L87.685,145.755 L113.369,79.287 L114.052,79.287 L114.052,76 L112.148,76 L85,145.755 Z M95.693,121.536 L130.996,121.536 L130.263,119.313 L96.474,119.313 L95.693,121.536 Z M139.15,145.755 L141.787,145.755 L114.638,76 L113.466,76 L113.466,79.287 L139.15,145.755 Z" stroke="none" transform="translate(0,200)" />
        <path id="Baseline-S" d="M18,146 l800,0" />
        <path id="left-margin-Ultralight-M" d="M230,256 l0,110" />
        <path id="right-margin-Ultralight-M" d="M300,256 l0,110" />
        <path id="left-margin-Regular-M" d="M430,256 l0,110" />
        <path id="right-margin-Regular-M" d="M500,256 l0,110" />
        <path id="left-margin-Black-M" d="M630,256 l0,110" />
        <path id="right-margin-Black-M" d="M700,256 l0,110" />
        <path id="Capline-M" d="M18,276 l800,0" />
        <path id="Baseline-M" d="M18,346 l800,0" />
        <path id="Capline-L" d="M18,476 l800,0" />
        <path id="Baseline-L" d="M18,546 l800,0" />
    </g>
    <g id="Symbols">
        <g id="Ultralight-M" transform="translate(0,200)">
            <path d="M293,111 L293,135.5 C293,136.428 292.631,137.318 291.975,137.975 C291.318,138.631 290.428,139 289.5,139 L240.5,139 C239.572,139 238.682,138.631 238.025,137.975 C237.369,137.318 237,136.428 237,135.5 L237,86.5 C237,85.572 237.369,84.682 238.025,84.025 C238.682,83.369 239.572,83 240.5,83 L289.5,83 C290.428,83 291.318,83.369 291.975,84.025 C292.631,84.682 293,85.572 293,86.5 L293,111 Z M300,111 L300,86.5 C300,83.715 298.894,81.045 296.925,79.075 C294.956,77.106 292.285,76 289.5,76 L240.5,76 C237.715,76 235.045,77.106 233.075,79.075 C231.106,81.045 230,83.715 230,86.5 L230,135.5 C230,138.285 231.106,140.955 233.075,142.925 C235.045,144.894 237.715,146 240.5,146 L289.5,146 C292.285,146 294.955,144.894 296.925,142.925 C298.894,140.955 300,138.285 300,135.5 L300,111 Z" />
            <path d="M237,100.5 C237,99.572 237.369,98.682 238.025,98.025 C238.682,97.369 239.572,97 240.5,97 L289.5,97 C290.428,97 291.318,97.369 291.975,98.025 C292.631,98.682 293,99.572 293,100.5 C293,102.433 294.567,104 296.5,104 C298.433,104 300,102.433 300,100.5 C300,97.715 298.894,95.045 296.925,93.075 C294.956,91.106 292.285,90 289.5,90 L240.5,90 C237.715,90 235.045,91.106 233.075,93.075 C231.106,95.045 230,97.715 230,100.5 C230,102.433 231.567,104 233.5,104 C235.433,104 237,102.433 237,100.5 Z" />
            <path d="M233.5,111 L244,111 C245.945,111 247.686,111.721 248.661,112.891 L249.134,113.359 L252.984,116.509 C259.692,123.242 270.658,123.242 277.625,116.275 L281.216,113.359 C282.723,111.876 284.678,111 286.35,111 L296.5,111 C298.433,111 300,109.433 300,107.5 C300,105.567 298.433,104 296.5,104 L286.35,104 C282.745,104 279.039,105.661 276.525,108.175 L272.934,111.091 C268.442,115.558 261.908,115.558 257.675,111.325 L253.566,107.941 L251.35,110.65 L254.039,108.409 C251.652,105.545 247.918,104 244,104 L233.5,104 C231.567,104 230,105.567 230,107.5 C230,109.433 231.567,111 233.5,111 Z" />
        </g>
        <g id="Regular-M" transform="translate(0,200)">
            <path d="M493,111 L493,135.5 C493,136.428 492.631,137.318 491.975,137.975 C491.318,138.631 490.428,139 489.5,139 L440.5,139 C439.572,139 438.682,138.631 438.025,137.975 C437.369,137.318 437,136.428 437,135.5 L437,86.5 C437,85.572 437.369,84.682 438.025,84.025 C438.682,83.369 439.572,83 440.5,83 L489.5,83 C490.428,83 491.318,83.369 491.975,84.025 C492.631,84.682 493,85.572 493,86.5 L493,111 Z M500,111 L500,86.5 C500,83.715 498.894,81.045 496.925,79.075 C494.956,77.106 492.285,76 489.5,76 L440.5,76 C437.715,76 435.045,77.106 433.075,79.075 C431.106,81.045 430,83.715 430,86.5 L430,135.5 C430,138.285 431.106,140.955 433.075,142.925 C435.045,144.894 437.715,146 440.5,146 L489.5,146 C492.285,146 494.955,144.894 496.925,142.925 C498.894,140.955 500,138.285 500,135.5 L500,111 Z" />
            <path d="M437,100.5 C437,99.572 437.369,98.682 438.025,98.025 C438.682,97.369 439.572,97 440.5,97 L489.5,97 C490.428,97 491.318,97.369 491.975,98.025 C492.631,98.682 493,99.572 493,100.5 C493,102.433 494.567,104 496.5,104 C498.433,104 500,102.433 500,100.5 C500,97.715 498.894,95.045 496.925,93.075 C494.956,91.106 492.285,90 489.5,90 L440.5,90 C437.715,90 435.044,91.106 433.075,93.075 C431.106,95.045 430,97.715 430,100.5 C430,102.433 431.567,104 433.5,104 C435.433,104 437,102.433 437,100.5 Z" />
            <path d="M433.5,111 L444,111 C445.945,111 447.686,111.721 448.661,112.891 L449.134,113.359 L452.984,116.509 C459.692,123.242 470.658,123.242 477.625,116.275 L481.216,113.359 C482.723,111.876 484.678,111 486.35,111 L496.5,111 C498.433,111 500,109.433 500,107.5 C500,105.567 498.433,104 496.5,104 L486.35,104 C482.745,104 479.039,105.661 476.525,108.175 L472.934,111.091 C468.442,115.558 461.908,115.558 457.675,111.325 L453.566,107.941 L451.35,110.65 L454.039,108.409 C451.652,105.545 447.918,104 444,104 L433.5,104 C431.567,104 430,105.567 430,107.5 C430,109.433 431.567,111 433.5,111 Z" />
        </g>
        <g id="Black-M" transform="translate(0,200)">
            <path d="M693,111 L693,135.5 C693,136.428 692.631,137.318 691.975,137.975 C691.318,138.631 690.428,139 689.5,139 L640.5,139 C639.572,139 638.682,138.631 638.025,137.975 C637.369,137.318 637,136.428 637,135.5 L637,86.5 C637,85.572 637.369,84.682 638.025,84.025 C638.682,83.369 639.572,83 640.5,83 L689.5,83 C690.428,83 691.318,83.369 691.975,84.025 C692.631,84.682 693,85.572 693,86.5 L693,111 Z M700,111 L700,86.5 C700,83.715 698.894,81.045 696.925,79.075 C694.956,77.106 692.285,76 689.5,76 L640.5,76 C637.715,76 635.044,77.106 633.075,79.075 C631.106,81.045 630,83.715 630,86.5 L630,135.5 C630,138.285 631.106,140.955 633.075,142.925 C635.044,144.894 637.715,146 640.5,146 L689.5,146 C692.285,146 694.956,144.894 696.925,142.925 C698.894,140.955 700,138.285 700,135.5 L700,111 Z" />
            <path d="M637,100.5 C637,99.572 637.369,98.682 638.025,98.025 C638.682,97.369 639.572,97 640.5,97 L689.5,97 C690.428,97 691.318,97.369 691.975,98.025 C692.631,98.682 693,99.572 693,100.5 C693,102.433 694.567,104 696.5,104 C698.433,104 700,102.433 700,100.5 C700,97.715 698.894,95.045 696.925,93.075 C694.956,91.106 692.285,90 689.5,90 L640.5,90 C637.715,90 635.044,91.106 633.075,93.075 C631.106,95.045 630,97.715 630,100.5 C630,102.433 631.567,104 633.5,104 C635.433,104 637,102.433 637,100.5 Z" />
            <path d="M633.5,111 L644,111 C645.945,111 647.686,111.721 648.661,112.891 L649.134,113.359 L652.984,116.509 C659.692,123.242 670.658,123.242 677.625,116.275 L681.216,113.359 C682.723,111.876 684.678,111 686.35,111 L696.5,111 C698.433,111 700,109.433 700,107.5 C700,105.567 698.433,104 696.5,104 L686.35,104 C682.745,104 679.039,105.661 676.525,108.175 L672.934,111.091 C668.442,115.558 661.908,115.558 657.675,111.325 L653.566,107.941 L651.35,110.65 L654.039,108.409 C651.652,105.545 647.918,104 644,104 L633.5,104 C631.567,104 630,105.567 630,107.5 C630,109.433 631.567,111 633.5,111 Z" />
        </g>
    </g>
</svg>