<?xml version="1.0" encoding="UTF-8"?>
<svg height="600" width="800" xmlns="http://www.w3.org/2000/svg" xmlns:xlink="http://www.w3.org/1999/xlink">
    <g id="Notes" font-family="LucidaGrande, 'Lucida Grande', sans-serif" font-size="13">
        <rect fill="white" height="600.0" width="800.0" x="0.0" y="0.0" />
        <g font-size="13">
            <text x="18.0" y="176.0">Small</text>
            <text x="18.0" y="376.0">Medium</text>
            <text x="18.0" y="576.0">Large</text>
        </g>
        <g font-size="9">
            <text x="250.0" y="30.0">Ultralight</text>
            <text x="450.0" y="30.0">Regular</text>
            <text x="650.0" y="30.0">Black</text>
            <text id="template-version" fill="#505050" text-anchor="end" x="785.0" y="575.0">Template v.3.0</text>
            <a href="https://github.com/swhitty/SwiftDraw">
                <text fill="#505050" text-anchor="end" x="785.0" y="590.0">https://github.com/swhitty/SwiftDraw</text>
            </a>
        </g>
    </g>
    <g id="Guides" stroke="rgb(39, 170, 225)" stroke-width="0.5">
        <path id="Capline-S" d="M18,76 l800,0" />
        <path id="H-reference" d="M85,145.755 L87.685,145.755 L113.369,79.287 L114.052,79.287 L114.052,76 L112.148,76 L85,145.755 Z M95.693,121.536 L130.996,121.536 L130.263,119.313 L96.474,119.313 L95.693,121.536 Z M139.15,145.755 L141.787,145.755 L114.638,76 L113.466,76 L113.466,79.287 L139.15,145.755 Z" stroke="none" transform="translate(0,200)" />
        <path id="Baseline-S" d="M18,146 l800,0" />
        <path id="left-margin-Ultralight-M" d="M226.111,256 l0,110" />
        <path id="right-margin-Ultralight-M" d="M303.889,256 l0,110" />
        <path id="left-margin-Regular-M" d="M426.111,256 l0,110" />
        <path id="right-margin-Regular-M" d="M503.889,256 l0,110" />
        <path id="left-margin-Black-M" d="M626.111,256 l0,110" />
        <path id="right-margin-Black-M" d="M703.889,256 l0,110" />
        <path id="Capline-M" d="M18,276 l800,0" />
        <path id="Baseline-M" d="M18,346 l800,0" />
        <path id="Capline-L" d="M18,476 l800,0" />
        <path id="Baseline-L" d="M18,546 l800,0" />
    </g>
    <g id="Symbols">
        <g id="Ultralight-M" transform="translate(0,200)">
            <path d="M296.111,99.333 L296.111,87.667 C296.111,84.572 294.882,81.605 292.694,79.417 C290.506,77.229 287.539,76 284.444,76 L245.556,76 C242.461,76 239.494,77.229 237.306,79.417 C235.118,81.605 233.889,84.572 233.889,87.667 L233.889,99.333 C233.889,101.481 235.63,103.222 237.778,103.222 C239.926,103.222 241.667,101.481 241.667,99.333 L241.667,87.667 C241.667,86.635 242.076,85.646 242.806,84.917 C243.535,84.188 244.524,83.778 245.556,83.778 L284.444,83.778 C285.476,83.778 286.465,84.188 287.194,84.917 C287.924,85.646 288.333,86.635 288.333,87.667 L288.333,99.333 C288.333,101.481 290.074,103.222 292.222,103.222 C294.37,103.222 296.111,101.481 296.111,99.333 Z" />
            <path d="M226.111,126.556 C226.111,129.65 227.34,132.617 229.528,134.805 C231.716,136.993 234.684,138.222 237.778,138.222 L292.222,138.222 C295.316,138.222 298.284,136.993 300.472,134.805 C302.66,132.617 303.889,129.65 303.889,126.556 L303.889,107.111 C303.889,100.668 298.666,95.444 292.222,95.444 C285.779,95.444 280.556,100.668 280.556,107.111 L280.556,112.944 C280.556,112.429 280.76,111.934 281.125,111.57 C281.49,111.205 281.984,111 282.5,111 L247.5,111 C248.016,111 248.51,111.205 248.875,111.57 C249.24,111.934 249.444,112.429 249.444,112.944 L249.444,107.111 C249.444,100.668 244.221,95.444 237.778,95.444 C231.334,95.444 226.111,100.668 226.111,107.111 L226.111,126.556 Z M233.889,126.556 L233.889,107.111 C233.889,104.963 235.63,103.222 237.778,103.222 C239.926,103.222 241.667,104.963 241.667,107.111 L241.667,112.944 C241.667,114.492 242.281,115.975 243.375,117.069 C244.469,118.163 245.953,118.778 247.5,118.778 L282.5,118.778 C284.047,118.778 285.531,118.163 286.625,117.069 C287.719,115.975 288.333,114.492 288.333,112.944 L288.333,107.111 C288.333,104.963 290.074,103.222 292.222,103.222 C294.37,103.222 296.111,104.963 296.111,107.111 L296.111,126.556 C296.111,127.587 295.701,128.576 294.972,129.305 C294.243,130.035 293.254,130.444 292.222,130.444 L237.778,130.444 C236.746,130.444 235.757,130.035 235.028,129.305 C234.299,128.576 233.889,127.587 233.889,126.556 Z" />
            <path d="M233.889,134.333 L233.889,142.111 C233.889,144.259 235.63,146 237.778,146 C239.926,146 241.667,144.259 241.667,142.111 L241.667,134.333 C241.667,132.186 239.926,130.444 237.778,130.444 C235.63,130.444 233.889,132.186 233.889,134.333 Z" />
            <path d="M288.333,134.333 L288.333,142.111 C288.333,144.259 290.074,146 292.222,146 C294.37,146 296.111,144.259 296.111,142.111 L296.111,134.333 C296.111,132.186 294.37,130.444 292.222,130.444 C290.074,130.444 288.333,132.186 288.333,134.333 Z" />
        </g>
        <g id="Regular-M" transform="translate(0,200)">
            <path d="M496.111,99.333 L496.111,87.667 C496.111,84.572 494.882,81.605 492.694,79.417 C490.506,77.229 487.539,76 484.444,76 L445.556,76 C442.461,76 439.494,77.229 437.306,79.417 C435.118,81.605 433.889,84.572 433.889,87.667 L433.889,99.333 C433.889,101.481 435.63,103.222 437.778,103.222 C439.926,103.222 441.667,101.481 441.667,99.333 L441.667,87.667 C441.667,86.635 442.076,85.646 442.806,84.917 C443.535,84.188 444.524,83.778 445.556,83.778 L484.444,83.778 C485.476,83.778 486.465,84.188 487.194,84.917 C487.924,85.646 488.333,86.635 488.333,87.667 L488.333,99.333 C488.333,101.481 490.074,103.222 492.222,103.222 C494.37,103.222 496.111,101.481 496.111,99.333 Z" />
            <path d="M426.111,126.556 C426.111,129.65 427.34,132.617 429.528,134.805 C431.716,136.993 434.684,138.222 437.778,138.222 L492.222,138.222 C495.316,138.222 498.284,136.993 500.472,134.805 C502.66,132.617 503.889,129.65 503.889,126.556 L503.889,107.111 C503.889,100.668 498.666,95.444 492.222,95.444 C485.779,95.444 480.556,100.668 480.556,107.111 L480.556,112.944 C480.556,112.429 480.76,111.934 481.125,111.57 C481.49,111.205 481.984,111 482.5,111 L447.5,111 C448.016,111 448.51,111.205 448.875,111.57 C449.24,111.934 449.444,112.429 449.444,112.944 L449.444,107.111 C449.444,100.668 444.221,95.444 437.778,95.444 C431.334,95.444 426.111,100.668 426.111,107.111 L426.111,126.556 Z M433.889,126.556 L433.889,107.111 C433.889,104.963 435.63,103.222 437.778,103.222 C439.926,103.222 441.667,104.963 441.667,107.111 L441.667,112.944 C441.667,114.492 442.281,115.975 443.375,117.069 C444.469,118.163 445.953,118.778 447.5,118.778 L482.5,118.778 C484.047,118.778 485.531,118.163 486.625,117.069 C487.719,115.975 488.333,114.492 488.333,112.944 L488.333,107.111 C488.333,104.963 490.074,103.222 492.222,103.222 C494.37,103.222 496.111,104.963 496.111,107.111 L496.111,126.556 C496.111,127.587 495.701,128.576 494.972,129.305 C494.243,130.035 493.254,130.444 492.222,130.444 L437.778,130.444 C436.746,130.444 435.757,130.035 435.028,129.305 C434.299,128.576 433.889,127.587 433.889,126.556 Z" />
            <path d="M433.889,134.333 L433.889,142.111 C433.889,144.259 435.63,146 437.778,146 C439.926,146 441.667,144.259 441.667,142.111 L441.667,134.333 C441.667,132.186 439.926,130.444 437.778,130.444 C435.63,130.444 433.889,132.186 433.889,134.333 Z" />
            <path d="M488.333,134.333 L488.333,142.111 C488.333,144.259 490.074,146 492.222,146 C494.37,146 496.111,144.259 496.111,142.111 L496.111,134.333 C496.111,132.186 494.37,130.444 492.222,130.444 C490.074,130.444 488.333,132.186 488.333,134.333 Z" />
        </g>
        <g id="Black-M" transform="translate(0,200)">
            <path d="M696.111,99.333 L696.111,87.667 C696.111,84.572 694.882,81.605 692.694,79.417 C690.506,77.229 687.539,76 684.444,76 L645.556,76 C642.461,76 639.494,77.229 637.306,79.417 C635.118,81.605 633.889,84.572 633.889,87.667 L633.889,99.333 C633.889,101.481 635.63,103.222 637.778,103.222 C639.926,103.222 641.667,101.481 641.667,99.333 L641.667,87.667 C641.667,86.635 642.076,85.646 642.806,84.917 C643.535,84.188 644.524,83.778 645.556,83.778 L684.444,83.778 C685.476,83.778 686.465,84.188 687.194,84.917 C687.924,85.646 688.333,86.635 688.333,87.667 L688.333,99.333 C688.333,101.481 690.074,103.222 692.222,103.222 C694.37,103.222 696.111,101.481 696.111,99.333 Z" />
            <path d="M626.111,126.556 C626.111,129.65 627.34,132.617 629.528,134.805 C631.716,136.993 634.684,138.222 637.778,138.222 L692.222,138.222 C695.316,138.222 698.284,136.993 700.472,134.805 C702.66,132.617 703.889,129.65 703.889,126.556 L703.889,107.111 C703.889,100.668 698.666,95.444 692.222,95.444 C685.779,95.444 680.556,100.668 680.556,107.111 L680.556,112.944 C680.556,112.429 680.76,111.934 681.125,111.57 C681.49,111.205 681.984,111 682.5,111 L647.5,111 C648.016,111 648.51,111.205 648.875,111.57 C649.24,111.934 649.444,112.429 649.444,112.944 L649.444,107.111 C649.444,100.668 644.221,95.444 637.778,95.444 C631.334,95.444 626.111,100.668 626.111,107.111 L626.111,126.556 Z M633.889,126.556 L633.889,107.111 C633.889,104.963 635.63,103.222 637.778,103.222 C639.926,103.222 641.667,104.963 641.667,107.111 L641.667,112.944 C641.667,114.492 642.281,115.975 643.375,117.069 C644.469,118.163 645.953,118.778 647.5,118.778 L682.5,118.778 C684.047,118.778 685.531,118.163 686.625,117.069 C687.719,115.975 688.333,114.492 688.333,112.944 L688.333,107.111 C688.333,104.963 690.074,103.222 692.222,103.222 C694.37,103.222 696.111,104.963 696.111,107.111 L696.111,126.556 C696.111,127.587 695.701,128.576 694.972,129.305 C694.243,130.035 693.254,130.444 692.222,130.444 L637.778,130.444 C636.746,130.444 635.757,130.035 635.028,129.305 C634.299,128.576 633.889,127.587 633.889,126.556 Z" />
            <path d="M633.889,134.333 L633.889,142.111 C633.889,144.259 635.63,146 637.778,146 C639.926,146 641.667,144.259 641.667,142.111 L641.667,134.333 C641.667,132.186 639.926,130.444 637.778,130.444 C635.63,130.444 633.889,132.186 633.889,134.333 Z" />
            <path d="M688.333,134.333 L688.333,142.111 C688.333,144.259 690.074,146 692.222,146 C694.37,146 696.111,144.259 696.111,142.111 L696.111,134.333 C696.111,132.186 694.37,130.444 692.222,130.444 C690.074,130.444 688.333,132.186 688.333,134.333 Z" />
        </g>
    </g>
</svg>