<?xml version="1.0" encoding="UTF-8"?>
<svg height="600" width="800" xmlns="http://www.w3.org/2000/svg" xmlns:xlink="http://www.w3.org/1999/xlink">
    <g id="Notes" font-family="LucidaGrande, 'Lucida Grande', sans-serif" font-size="13">
        <rect fill="white" height="600.0" width="800.0" x="0.0" y="0.0" />
        <g font-size="13">
            <text x="18.0" y="176.0">Small</text>
            <text x="18.0" y="376.0">Medium</text>
            <text x="18.0" y="576.0">Large</text>
        </g>
        <g font-size="9">
            <text x="250.0" y="30.0">Ultralight</text>
            <text x="450.0" y="30.0">Regular</text>
            <text x="650.0" y="30.0">Black</text>
            <text id="template-version" fill="#505050" text-anchor="end" x="785.0" y="575.0">Template v.3.0</text>
            <a href="https://github.com/swhitty/SwiftDraw">
                <text fill="#505050" text-anchor="end" x="785.0" y="590.0">https://github.com/swhitty/SwiftDraw</text>
            </a>
        </g>
    </g>
    <g id="Guides" stroke="rgb(39, 170, 225)" stroke-width="0.5">
        <path id="Capline-S" d="M18,76 l800,0" />
        <path id="H-reference" d="M85,145.755 L87.685,145.755 L113.369,79.287 L114.052,79.287 L114.052,76 L112.148,76 L85,145.755 Z M95.693,121.536 L130.996,121.536 L130.263,119.313 L96.474,119.313 L95.693,121.536 Z M139.15,145.755 L141.787,145.755 L114.638,76 L113.466,76 L113.466,79.287 L139.15,145.755 Z" stroke="none" transform="translate(0,200)" />
        <path id="Baseline-S" d="M18,146 l800,0" />
        <path id="left-margin-Ultralight-M" d="M231.591,256 l0,110" />
        <path id="right-margin-Ultralight-M" d="M298.409,256 l0,110" />
        <path id="left-margin-Regular-M" d="M431.591,256 l0,110" />
        <path id="right-margin-Regular-M" d="M498.409,256 l0,110" />
        <path id="left-margin-Black-M" d="M631.591,256 l0,110" />
        <path id="right-margin-Black-M" d="M698.409,256 l0,110" />
        <path id="Capline-M" d="M18,276 l800,0" />
        <path id="Baseline-M" d="M18,346 l800,0" />
        <path id="Capline-L" d="M18,476 l800,0" />
        <path id="Baseline-L" d="M18,546 l800,0" />
    </g>
    <g id="Symbols">
        <g id="Ultralight-M" transform="translate(0,200)">
            <path d="M281.967,95.904 C279.078,84.013 272.935,76 265.307,76 C254.573,76 246.916,91.896 246.916,111 C246.916,130.104 254.573,146 265.307,146 C266.745,146 268.162,145.704 269.524,145.13 C271.092,144.47 271.848,142.614 271.212,140.986 C270.576,139.358 268.788,138.573 267.22,139.233 C266.578,139.503 265.942,139.636 265.307,139.636 C259.114,139.636 253.046,127.04 253.046,111 C253.046,94.96 259.114,82.364 265.307,82.364 C269.37,82.364 273.74,88.064 276.023,97.46 C276.437,99.164 278.103,100.197 279.745,99.767 C281.386,99.337 282.381,97.608 281.967,95.904 Z" />
            <path d="M273.753,119.291 L285.443,125.209 L284.031,120.955 L278.331,133.09 C277.589,134.67 278.22,136.575 279.742,137.345 C281.263,138.115 283.098,137.459 283.84,135.88 L289.541,123.744 C290.283,122.165 289.651,120.26 288.13,119.49 L276.44,113.572 C274.918,112.801 273.083,113.457 272.341,115.037 C271.599,116.616 272.231,118.521 273.753,119.291 Z" />
            <path d="M285.412,119.503 C280.163,122.175 272.995,123.727 265.307,123.727 C249.855,123.727 237.721,117.429 237.721,111 C237.721,104.571 249.855,98.273 265.307,98.273 C278.84,98.273 290.209,103.151 292.504,109.016 C293.141,110.644 294.929,111.427 296.498,110.766 C298.066,110.105 298.821,108.249 298.184,106.621 C294.721,97.771 281.057,91.909 265.307,91.909 C246.904,91.909 231.591,99.858 231.591,111 C231.591,122.142 246.904,130.091 265.307,130.091 C273.889,130.091 281.977,128.34 288.112,125.216 C289.632,124.442 290.259,122.535 289.514,120.958 C288.768,119.38 286.932,118.729 285.412,119.503 Z" />
        </g>
        <g id="Regular-M" transform="translate(0,200)">
            <path d="M481.967,95.904 C479.078,84.013 472.935,76 465.307,76 C454.573,76 446.916,91.896 446.916,111 C446.916,130.104 454.573,146 465.307,146 C466.745,146 468.162,145.704 469.524,145.13 C471.092,144.47 471.848,142.614 471.212,140.986 C470.576,139.358 468.788,138.573 467.22,139.233 C466.578,139.503 465.942,139.636 465.307,139.636 C459.114,139.636 453.046,127.04 453.046,111 C453.046,94.96 459.114,82.364 465.307,82.364 C469.37,82.364 473.74,88.064 476.023,97.46 C476.437,99.164 478.103,100.197 479.745,99.767 C481.386,99.337 482.381,97.608 481.967,95.904 Z" />
            <path d="M473.753,119.291 L485.443,125.209 L484.031,120.955 L478.331,133.09 C477.589,134.67 478.22,136.575 479.742,137.345 C481.263,138.115 483.098,137.459 483.84,135.88 L489.541,123.744 C490.283,122.165 489.651,120.26 488.13,119.49 L476.44,113.572 C474.918,112.801 473.083,113.457 472.341,115.037 C471.599,116.616 472.231,118.521 473.753,119.291 Z" />
            <path d="M485.412,119.503 C480.163,122.175 472.995,123.727 465.307,123.727 C449.855,123.727 437.721,117.429 437.721,111 C437.721,104.571 449.855,98.273 465.307,98.273 C478.84,98.273 490.209,103.151 492.504,109.016 C493.141,110.644 494.929,111.427 496.498,110.766 C498.066,110.105 498.821,108.249 498.184,106.621 C494.721,97.771 481.057,91.909 465.307,91.909 C446.904,91.909 431.591,99.858 431.591,111 C431.591,122.142 446.904,130.091 465.307,130.091 C473.889,130.091 481.977,128.34 488.112,125.216 C489.632,124.442 490.259,122.535 489.514,120.958 C488.768,119.38 486.932,118.729 485.412,119.503 Z" />
        </g>
        <g id="Black-M" transform="translate(0,200)">
            <path d="M681.967,95.904 C679.078,84.013 672.935,76 665.306,76 C654.573,76 646.916,91.896 646.916,111 C646.916,130.104 654.573,146 665.306,146 C666.745,146 668.162,145.704 669.523,145.13 C671.092,144.47 671.848,142.614 671.212,140.986 C670.576,139.358 668.788,138.573 667.22,139.233 C666.578,139.503 665.942,139.636 665.306,139.636 C659.114,139.636 653.046,127.04 653.046,111 C653.046,94.96 659.114,82.364 665.306,82.364 C669.37,82.364 673.74,88.064 676.023,97.46 C676.437,99.164 678.103,100.197 679.745,99.767 C681.386,99.337 682.381,97.608 681.967,95.904 Z" />
            <path d="M673.753,119.291 L685.443,125.209 L684.031,120.955 L678.33,133.09 C677.588,134.67 678.22,136.575 679.742,137.345 C681.263,138.115 683.098,137.459 683.84,135.88 L689.541,123.744 C690.283,122.165 689.651,120.26 688.13,119.49 L676.44,113.572 C674.918,112.801 673.083,113.457 672.341,115.037 C671.599,116.616 672.231,118.521 673.753,119.291 Z" />
            <path d="M685.412,119.503 C680.163,122.175 672.995,123.727 665.306,123.727 C649.855,123.727 637.721,117.429 637.721,111 C637.721,104.571 649.855,98.273 665.306,98.273 C678.84,98.273 690.209,103.151 692.504,109.016 C693.141,110.644 694.929,111.427 696.498,110.766 C698.066,110.105 698.821,108.249 698.184,106.621 C694.721,97.771 681.057,91.909 665.306,91.909 C646.904,91.909 631.591,99.858 631.591,111 C631.591,122.142 646.904,130.091 665.306,130.091 C673.889,130.091 681.977,128.34 688.112,125.216 C689.632,124.442 690.259,122.535 689.514,120.958 C688.768,119.38 686.932,118.729 685.412,119.503 Z" />
        </g>
    </g>
</svg>