<?xml version="1.0" encoding="UTF-8"?>
<svg height="600" width="800" xmlns="http://www.w3.org/2000/svg" xmlns:xlink="http://www.w3.org/1999/xlink">
    <g id="Notes" font-family="LucidaGrande, 'Lucida Grande', sans-serif" font-size="13">
        <rect fill="white" height="600.0" width="800.0" x="0.0" y="0.0" />
        <g font-size="13">
            <text x="18.0" y="176.0">Small</text>
            <text x="18.0" y="376.0">Medium</text>
            <text x="18.0" y="576.0">Large</text>
        </g>
        <g font-size="9">
            <text x="250.0" y="30.0">Ultralight</text>
            <text x="450.0" y="30.0">Regular</text>
            <text x="650.0" y="30.0">Black</text>
            <text id="template-version" fill="#505050" text-anchor="end" x="785.0" y="575.0">Template v.3.0</text>
            <a href="https://github.com/swhitty/SwiftDraw">
                <text fill="#505050" text-anchor="end" x="785.0" y="590.0">https://github.com/swhitty/SwiftDraw</text>
            </a>
        </g>
    </g>
    <g id="Guides" stroke="rgb(39, 170, 225)" stroke-width="0.5">
        <path id="Capline-S" d="M18,76 l800,0" />
        <path id="H-reference" d="M85,145.755 L87.685,145.755 L113.369,79.287 L114.052,79.287 L114.052,76 L112.148,76 L85,145.755 Z M95.693,121.536 L130.996,121.536 L130.263,119.313 L96.474,119.313 L95.693,121.536 Z M139.15,145.755 L141.787,145.755 L114.638,76 L113.466,76 L113.466,79.287 L139.15,145.755 Z" stroke="none" transform="translate(0,200)" />
        <path id="Baseline-S" d="M18,146 l800,0" />
        <path id="left-margin-Ultralight-M" d="M236.364,256 l0,110" />
        <path id="right-margin-Ultralight-M" d="M293.636,256 l0,110" />
        <path id="left-margin-Regular-M" d="M436.364,256 l0,110" />
        <path id="right-margin-Regular-M" d="M493.636,256 l0,110" />
        <path id="left-margin-Black-M" d="M636.364,256 l0,110" />
        <path id="right-margin-Black-M" d="M693.636,256 l0,110" />
        <path id="Capline-M" d="M18,276 l800,0" />
        <path id="Baseline-M" d="M18,346 l800,0" />
        <path id="Capline-L" d="M18,476 l800,0" />
        <path id="Baseline-L" d="M18,546 l800,0" />
    </g>
    <g id="Symbols">
        <g id="Ultralight-M" transform="translate(0,200)">
            <path d="M274.93,117.748 C271.203,121.473 265.161,121.473 261.433,117.748 C259.643,115.959 258.637,113.532 258.637,111.002 C258.637,108.471 259.643,106.044 261.433,104.255 C265.161,100.53 271.203,100.53 274.93,104.255 C276.173,105.497 278.188,105.496 279.43,104.254 C280.673,103.012 280.672,100.998 279.43,99.756 C273.217,93.548 263.147,93.548 256.934,99.756 C253.95,102.739 252.274,106.784 252.274,111.002 C252.274,115.219 253.95,119.264 256.934,122.247 C263.147,128.455 273.217,128.455 279.43,122.247 C280.672,121.005 280.673,118.991 279.43,117.749 C278.188,116.507 276.173,116.506 274.93,117.748 Z" />
            <path d="M242.727,82.375 C242.727,82.375 242.727,82.375 242.727,82.375 C242.727,82.375 242.727,82.375 242.727,82.375 C242.927,82.374 243.105,82.425 243.259,82.522 L246.202,84.414 C248.613,85.954 251.688,85.954 254.091,84.419 L257.069,82.507 C257.376,82.311 257.777,82.311 258.091,82.511 L261.052,84.414 C263.462,85.954 266.538,85.954 268.941,84.419 L271.917,82.506 C272.223,82.311 272.624,82.311 272.937,82.511 L275.903,84.415 C278.312,85.954 281.387,85.954 283.79,84.419 L286.766,82.506 C286.895,82.425 287.073,82.374 287.255,82.375 C287.273,82.375 287.273,82.375 287.273,82.375 C287.273,82.375 287.273,82.375 287.273,82.375 L287.273,139.625 C287.273,139.625 287.273,139.625 287.273,139.625 C287.273,139.625 287.273,139.625 287.273,139.625 C287.073,139.626 286.895,139.575 286.741,139.478 L283.798,137.586 C281.387,136.046 278.312,136.046 275.909,137.581 L272.931,139.493 C272.624,139.689 272.223,139.689 271.909,139.489 L268.948,137.586 C266.538,136.046 263.462,136.046 261.059,137.581 L258.083,139.494 C257.777,139.689 257.376,139.689 257.063,139.489 L254.097,137.585 C251.688,136.046 248.613,136.046 246.21,137.581 L243.234,139.494 C243.105,139.575 242.927,139.626 242.745,139.625 C242.727,139.625 242.727,139.625 242.727,139.625 C242.727,139.625 242.727,139.625 242.727,139.625 L242.727,82.375 Z M236.364,82.375 L236.364,139.625 C236.364,141.312 237.034,142.929 238.227,144.122 C239.421,145.315 241.04,145.986 242.727,145.986 C244.104,145.993 245.471,145.603 246.65,144.86 L249.644,142.936 C249.95,142.74 250.351,142.74 250.664,142.941 L253.63,144.845 C256.039,146.384 259.115,146.384 261.517,144.849 L264.494,142.936 C264.799,142.74 265.201,142.74 265.514,142.941 L268.475,144.844 C270.885,146.384 273.961,146.384 276.364,144.849 L279.342,142.937 C279.649,142.74 280.05,142.74 280.364,142.941 L283.324,144.844 C284.529,145.603 285.896,145.993 287.29,145.985 C288.96,145.986 290.579,145.315 291.772,144.122 C292.966,142.929 293.636,141.312 293.636,139.625 L293.636,82.375 C293.636,80.688 292.966,79.071 291.772,77.878 C290.579,76.685 288.96,76.014 287.273,76.014 C285.896,76.007 284.529,76.397 283.35,77.14 L280.356,79.064 C280.05,79.26 279.649,79.26 279.336,79.059 L276.37,77.155 C273.961,75.616 270.885,75.616 268.483,77.151 L265.506,79.064 C265.201,79.26 264.799,79.26 264.486,79.059 L261.525,77.156 C259.115,75.616 256.039,75.616 253.636,77.151 L250.658,79.063 C250.351,79.26 249.95,79.26 249.636,79.059 L246.676,77.156 C245.471,76.397 244.104,76.007 242.71,76.015 C241.04,76.014 239.421,76.685 238.227,77.878 C237.034,79.07 236.364,80.688 236.364,82.375 Z" />
            <path d="M252.273,114.181 L268.182,114.181 C269.939,114.181 271.364,112.757 271.364,111 C271.364,109.243 269.939,107.82 268.182,107.82 L252.273,107.82 C250.515,107.82 249.091,109.243 249.091,111 C249.091,112.757 250.515,114.181 252.273,114.181 Z" />
        </g>
        <g id="Regular-M" transform="translate(0,200)">
            <path d="M474.93,117.748 C471.203,121.473 465.161,121.473 461.433,117.748 C459.643,115.959 458.638,113.532 458.638,111.002 C458.638,108.471 459.643,106.044 461.433,104.255 C465.161,100.53 471.203,100.53 474.93,104.255 C476.173,105.497 478.188,105.496 479.43,104.254 C480.673,103.012 480.672,100.998 479.43,99.756 C473.217,93.548 463.147,93.548 456.934,99.756 C453.95,102.739 452.274,106.784 452.274,111.002 C452.274,115.219 453.95,119.264 456.934,122.247 C463.147,128.455 473.217,128.455 479.43,122.247 C480.672,121.005 480.673,118.991 479.43,117.749 C478.188,116.507 476.173,116.506 474.93,117.748 Z" />
            <path d="M442.727,82.375 C442.727,82.375 442.727,82.375 442.727,82.375 C442.727,82.375 442.727,82.375 442.727,82.375 C442.927,82.374 443.105,82.425 443.259,82.522 L446.202,84.414 C448.613,85.954 451.688,85.954 454.091,84.419 L457.069,82.507 C457.376,82.311 457.777,82.311 458.091,82.511 L461.052,84.414 C463.462,85.954 466.538,85.954 468.941,84.419 L471.917,82.506 C472.223,82.311 472.624,82.311 472.937,82.511 L475.903,84.415 C478.312,85.954 481.387,85.954 483.79,84.419 L486.766,82.506 C486.895,82.425 487.073,82.374 487.255,82.375 C487.273,82.375 487.273,82.375 487.273,82.375 C487.273,82.375 487.273,82.375 487.273,82.375 L487.273,139.625 C487.273,139.625 487.273,139.625 487.273,139.625 C487.273,139.625 487.273,139.625 487.273,139.625 C487.073,139.626 486.895,139.575 486.741,139.478 L483.798,137.586 C481.387,136.046 478.312,136.046 475.909,137.581 L472.931,139.493 C472.624,139.689 472.223,139.689 471.909,139.489 L468.948,137.586 C466.538,136.046 463.462,136.046 461.059,137.581 L458.083,139.494 C457.777,139.689 457.376,139.689 457.063,139.489 L454.097,137.585 C451.688,136.046 448.613,136.046 446.21,137.581 L443.234,139.494 C443.105,139.575 442.927,139.626 442.745,139.625 C442.727,139.625 442.727,139.625 442.727,139.625 C442.727,139.625 442.727,139.625 442.727,139.625 L442.727,82.375 Z M436.364,82.375 L436.364,139.625 C436.364,141.312 437.034,142.929 438.228,144.122 C439.421,145.315 441.04,145.986 442.727,145.986 C444.104,145.993 445.471,145.603 446.65,144.86 L449.644,142.936 C449.95,142.74 450.351,142.74 450.664,142.941 L453.63,144.845 C456.039,146.384 459.115,146.384 461.517,144.849 L464.494,142.936 C464.799,142.74 465.201,142.74 465.514,142.941 L468.475,144.844 C470.885,146.384 473.961,146.384 476.364,144.849 L479.342,142.937 C479.649,142.74 480.05,142.74 480.364,142.941 L483.324,144.844 C484.529,145.603 485.896,145.993 487.29,145.985 C488.96,145.986 490.579,145.315 491.772,144.122 C492.966,142.929 493.636,141.312 493.636,139.625 L493.636,82.375 C493.636,80.688 492.966,79.071 491.773,77.878 C490.579,76.685 488.96,76.014 487.273,76.014 C485.896,76.007 484.529,76.397 483.35,77.14 L480.356,79.064 C480.05,79.26 479.649,79.26 479.336,79.059 L476.37,77.155 C473.961,75.616 470.885,75.616 468.483,77.151 L465.506,79.064 C465.201,79.26 464.799,79.26 464.486,79.059 L461.525,77.156 C459.115,75.616 456.039,75.616 453.636,77.151 L450.658,79.063 C450.351,79.26 449.95,79.26 449.636,79.059 L446.676,77.156 C445.471,76.397 444.104,76.007 442.71,76.015 C441.04,76.014 439.421,76.685 438.228,77.878 C437.034,79.07 436.364,80.688 436.364,82.375 Z" />
            <path d="M452.273,114.181 L468.182,114.181 C469.939,114.181 471.364,112.757 471.364,111 C471.364,109.243 469.939,107.82 468.182,107.82 L452.273,107.82 C450.515,107.82 449.091,109.243 449.091,111 C449.091,112.757 450.515,114.181 452.273,114.181 Z" />
        </g>
        <g id="Black-M" transform="translate(0,200)">
            <path d="M674.93,117.748 C671.203,121.473 665.161,121.473 661.433,117.748 C659.643,115.959 658.638,113.532 658.638,111.002 C658.638,108.471 659.643,106.044 661.433,104.255 C665.161,100.53 671.203,100.53 674.93,104.255 C676.173,105.497 678.188,105.496 679.43,104.254 C680.673,103.012 680.672,100.998 679.43,99.756 C673.217,93.548 663.147,93.548 656.934,99.756 C653.95,102.739 652.274,106.784 652.274,111.002 C652.274,115.219 653.95,119.264 656.934,122.247 C663.147,128.455 673.217,128.455 679.43,122.247 C680.672,121.005 680.673,118.991 679.43,117.749 C678.188,116.507 676.173,116.506 674.93,117.748 Z" />
            <path d="M642.727,82.375 C642.727,82.375 642.727,82.375 642.727,82.375 C642.727,82.375 642.727,82.375 642.727,82.375 C642.927,82.374 643.105,82.425 643.259,82.522 L646.202,84.414 C648.613,85.954 651.688,85.954 654.091,84.419 L657.069,82.507 C657.376,82.311 657.777,82.311 658.091,82.511 L661.052,84.414 C663.462,85.954 666.538,85.954 668.941,84.419 L671.917,82.506 C672.223,82.311 672.624,82.311 672.937,82.511 L675.903,84.415 C678.312,85.954 681.387,85.954 683.79,84.419 L686.766,82.506 C686.895,82.425 687.073,82.374 687.255,82.375 C687.273,82.375 687.273,82.375 687.273,82.375 C687.273,82.375 687.273,82.375 687.273,82.375 L687.273,139.625 C687.273,139.625 687.273,139.625 687.273,139.625 C687.273,139.625 687.273,139.625 687.273,139.625 C687.073,139.626 686.895,139.575 686.741,139.478 L683.798,137.586 C681.387,136.046 678.312,136.046 675.909,137.581 L672.931,139.493 C672.624,139.689 672.223,139.689 671.909,139.489 L668.948,137.586 C666.538,136.046 663.462,136.046 661.059,137.581 L658.083,139.494 C657.777,139.689 657.376,139.689 657.063,139.489 L654.097,137.585 C651.688,136.046 648.613,136.046 646.21,137.581 L643.234,139.494 C643.105,139.575 642.927,139.626 642.745,139.625 C642.727,139.625 642.727,139.625 642.727,139.625 C642.727,139.625 642.727,139.625 642.727,139.625 L642.727,82.375 Z M636.364,82.375 L636.364,139.625 C636.364,141.312 637.034,142.929 638.228,144.122 C639.421,145.315 641.04,145.986 642.727,145.986 C644.104,145.993 645.471,145.603 646.65,144.86 L649.644,142.936 C649.95,142.74 650.351,142.74 650.664,142.941 L653.63,144.845 C656.039,146.384 659.115,146.384 661.517,144.849 L664.494,142.936 C664.799,142.74 665.201,142.74 665.514,142.941 L668.475,144.844 C670.885,146.384 673.961,146.384 676.364,144.849 L679.342,142.937 C679.649,142.74 680.05,142.74 680.364,142.941 L683.324,144.844 C684.529,145.603 685.896,145.993 687.29,145.985 C688.96,145.986 690.579,145.315 691.773,144.122 C692.966,142.929 693.636,141.312 693.636,139.625 L693.636,82.375 C693.636,80.688 692.966,79.071 691.773,77.878 C690.579,76.685 688.961,76.014 687.273,76.014 C685.896,76.007 684.529,76.397 683.35,77.14 L680.356,79.064 C680.05,79.26 679.649,79.26 679.336,79.059 L676.37,77.155 C673.961,75.616 670.885,75.616 668.483,77.151 L665.506,79.064 C665.201,79.26 664.799,79.26 664.486,79.059 L661.525,77.156 C659.115,75.616 656.039,75.616 653.636,77.151 L650.658,79.063 C650.351,79.26 649.95,79.26 649.636,79.059 L646.676,77.156 C645.471,76.397 644.104,76.007 642.71,76.015 C641.04,76.014 639.421,76.685 638.228,77.878 C637.034,79.07 636.364,80.688 636.364,82.375 Z" />
            <path d="M652.273,114.181 L668.182,114.181 C669.939,114.181 671.364,112.757 671.364,111 C671.364,109.243 669.939,107.82 668.182,107.82 L652.273,107.82 C650.515,107.82 649.091,109.243 649.091,111 C649.091,112.757 650.515,114.181 652.273,114.181 Z" />
        </g>
    </g>
</svg>