<?xml version="1.0" encoding="UTF-8"?>
<svg height="600" width="800" xmlns="http://www.w3.org/2000/svg" xmlns:xlink="http://www.w3.org/1999/xlink">
    <g id="Notes" font-family="LucidaGrande, 'Lucida Grande', sans-serif" font-size="13">
        <rect fill="white" height="600.0" width="800.0" x="0.0" y="0.0" />
        <g font-size="13">
            <text x="18.0" y="176.0">Small</text>
            <text x="18.0" y="376.0">Medium</text>
            <text x="18.0" y="576.0">Large</text>
        </g>
        <g font-size="9">
            <text x="250.0" y="30.0">Ultralight</text>
            <text x="450.0" y="30.0">Regular</text>
            <text x="650.0" y="30.0">Black</text>
            <text id="template-version" fill="#505050" text-anchor="end" x="785.0" y="575.0">Template v.3.0</text>
            <a href="https://github.com/swhitty/SwiftDraw">
                <text fill="#505050" text-anchor="end" x="785.0" y="590.0">https://github.com/swhitty/SwiftDraw</text>
            </a>
        </g>
    </g>
    <g id="Guides" stroke="rgb(39, 170, 225)" stroke-width="0.5">
        <path id="Capline-S" d="M18,76 l800,0" />
        <path id="H-reference" d="M85,145.755 L87.685,145.755 L113.369,79.287 L114.052,79.287 L114.052,76 L112.148,76 L85,145.755 Z M95.693,121.536 L130.996,121.536 L130.263,119.313 L96.474,119.313 L95.693,121.536 Z M139.15,145.755 L141.787,145.755 L114.638,76 L113.466,76 L113.466,79.287 L139.15,145.755 Z" stroke="none" transform="translate(0,200)" />
        <path id="Baseline-S" d="M18,146 l800,0" />
        <path id="left-margin-Ultralight-M" d="M230,256 l0,110" />
        <path id="right-margin-Ultralight-M" d="M300,256 l0,110" />
        <path id="left-margin-Regular-M" d="M430,256 l0,110" />
        <path id="right-margin-Regular-M" d="M500,256 l0,110" />
        <path id="left-margin-Black-M" d="M630,256 l0,110" />
        <path id="right-margin-Black-M" d="M700,256 l0,110" />
        <path id="Capline-M" d="M18,276 l800,0" />
        <path id="Baseline-M" d="M18,346 l800,0" />
        <path id="Capline-L" d="M18,476 l800,0" />
        <path id="Baseline-L" d="M18,546 l800,0" />
    </g>
    <g id="Symbols">
        <g id="Ultralight-M" transform="translate(0,200)">
            <path d="M293.636,130.091 L293.636,136.455 C293.636,137.298 293.301,138.108 292.704,138.704 C292.108,139.301 291.298,139.636 290.455,139.636 L277.727,139.636 C276.883,139.636 276.074,139.301 275.477,138.704 C274.881,138.108 274.545,137.298 274.545,136.455 L274.545,123.727 C274.545,122.883 274.881,122.074 275.477,121.477 C276.074,120.881 276.883,120.545 277.727,120.545 L290.455,120.545 C291.298,120.545 292.108,120.881 292.704,121.477 C293.301,122.074 293.636,122.883 293.636,123.727 L293.636,130.091 Z M300,130.091 L300,123.727 C300,121.196 298.994,118.768 297.204,116.978 C295.414,115.188 292.986,114.182 290.455,114.182 L277.727,114.182 C275.196,114.182 272.768,115.188 270.978,116.978 C269.188,118.768 268.182,121.196 268.182,123.727 L268.182,136.455 C268.182,138.986 269.188,141.414 270.978,143.204 C272.768,144.994 275.196,146 277.727,146 L290.455,146 C292.986,146 295.414,144.994 297.204,143.204 C298.994,141.414 300,138.986 300,136.455 L300,130.091 Z" />
            <path d="M255.455,91.909 L255.455,98.273 C255.455,99.117 255.119,99.926 254.523,100.523 C253.926,101.119 253.117,101.455 252.273,101.455 L239.545,101.455 C238.702,101.455 237.892,101.119 237.296,100.523 C236.699,99.926 236.364,99.117 236.364,98.273 L236.364,85.545 C236.364,84.702 236.699,83.892 237.296,83.296 C237.892,82.699 238.702,82.364 239.545,82.364 L252.273,82.364 C253.117,82.364 253.926,82.699 254.523,83.296 C255.119,83.892 255.455,84.702 255.455,85.545 L255.455,91.909 Z M261.818,91.909 L261.818,85.545 C261.818,83.014 260.812,80.586 259.022,78.796 C257.232,77.006 254.804,76 252.273,76 L239.545,76 C237.014,76 234.586,77.006 232.796,78.796 C231.006,80.586 230,83.014 230,85.545 L230,98.273 C230,100.804 231.006,103.232 232.796,105.022 C234.586,106.812 237.014,107.818 239.545,107.818 L252.273,107.818 C254.804,107.818 257.232,106.812 259.022,105.022 C260.812,103.232 261.818,100.804 261.818,98.273 L261.818,91.909 Z" />
            <path d="M245.909,117.364 L245.909,120.545 C245.909,123.077 246.915,125.505 248.705,127.295 C250.495,129.085 252.923,130.091 255.455,130.091 L258.636,130.091 C260.394,130.091 261.818,128.666 261.818,126.909 C261.818,125.152 260.394,123.727 258.636,123.727 L255.455,123.727 C254.611,123.727 253.801,123.392 253.205,122.795 C252.608,122.199 252.273,121.389 252.273,120.545 L252.273,117.364 C252.273,115.606 250.848,114.182 249.091,114.182 C247.334,114.182 245.909,115.606 245.909,117.364 Z" />
            <path d="M271.364,98.273 L274.545,98.273 C275.389,98.273 276.199,98.608 276.795,99.205 C277.392,99.801 277.727,100.611 277.727,101.455 L277.727,104.636 C277.727,106.394 279.152,107.818 280.909,107.818 C282.666,107.818 284.091,106.394 284.091,104.636 L284.091,101.455 C284.091,98.923 283.085,96.495 281.295,94.705 C279.505,92.915 277.077,91.909 274.545,91.909 L271.364,91.909 C269.606,91.909 268.182,93.334 268.182,95.091 C268.182,96.848 269.606,98.273 271.364,98.273 Z" />
        </g>
        <g id="Regular-M" transform="translate(0,200)">
            <path d="M493.636,130.091 L493.636,136.455 C493.636,137.298 493.301,138.108 492.704,138.704 C492.108,139.301 491.298,139.636 490.455,139.636 L477.727,139.636 C476.883,139.636 476.074,139.301 475.477,138.704 C474.881,138.108 474.545,137.298 474.545,136.455 L474.545,123.727 C474.545,122.883 474.881,122.074 475.477,121.477 C476.074,120.881 476.883,120.545 477.727,120.545 L490.455,120.545 C491.298,120.545 492.108,120.881 492.704,121.477 C493.301,122.074 493.636,122.883 493.636,123.727 L493.636,130.091 Z M500,130.091 L500,123.727 C500,121.196 498.994,118.768 497.204,116.978 C495.414,115.188 492.986,114.182 490.455,114.182 L477.727,114.182 C475.196,114.182 472.768,115.188 470.978,116.978 C469.188,118.768 468.182,121.196 468.182,123.727 L468.182,136.455 C468.182,138.986 469.188,141.414 470.978,143.204 C472.768,144.994 475.196,146 477.727,146 L490.455,146 C492.986,146 495.414,144.994 497.204,143.204 C498.994,141.414 500,138.986 500,136.455 L500,130.091 Z" />
            <path d="M455.455,91.909 L455.455,98.273 C455.455,99.117 455.119,99.926 454.523,100.523 C453.926,101.119 453.117,101.455 452.273,101.455 L439.545,101.455 C438.702,101.455 437.892,101.119 437.296,100.523 C436.699,99.926 436.364,99.117 436.364,98.273 L436.364,85.545 C436.364,84.702 436.699,83.892 437.296,83.296 C437.892,82.699 438.702,82.364 439.545,82.364 L452.273,82.364 C453.117,82.364 453.926,82.699 454.523,83.296 C455.119,83.892 455.455,84.702 455.455,85.545 L455.455,91.909 Z M461.818,91.909 L461.818,85.545 C461.818,83.014 460.812,80.586 459.022,78.796 C457.232,77.006 454.804,76 452.273,76 L439.545,76 C437.014,76 434.586,77.006 432.796,78.796 C431.006,80.586 430,83.014 430,85.545 L430,98.273 C430,100.804 431.006,103.232 432.796,105.022 C434.586,106.812 437.014,107.818 439.545,107.818 L452.273,107.818 C454.804,107.818 457.232,106.812 459.022,105.022 C460.812,103.232 461.818,100.804 461.818,98.273 L461.818,91.909 Z" />
            <path d="M445.909,117.364 L445.909,120.545 C445.909,123.077 446.915,125.505 448.705,127.295 C450.495,129.085 452.923,130.091 455.455,130.091 L458.636,130.091 C460.394,130.091 461.818,128.666 461.818,126.909 C461.818,125.152 460.394,123.727 458.636,123.727 L455.455,123.727 C454.611,123.727 453.801,123.392 453.205,122.795 C452.608,122.199 452.273,121.389 452.273,120.545 L452.273,117.364 C452.273,115.606 450.848,114.182 449.091,114.182 C447.334,114.182 445.909,115.606 445.909,117.364 Z" />
            <path d="M471.364,98.273 L474.545,98.273 C475.389,98.273 476.199,98.608 476.795,99.205 C477.392,99.801 477.727,100.611 477.727,101.455 L477.727,104.636 C477.727,106.394 479.152,107.818 480.909,107.818 C482.666,107.818 484.091,106.394 484.091,104.636 L484.091,101.455 C484.091,98.923 483.085,96.495 481.295,94.705 C479.505,92.915 477.077,91.909 474.545,91.909 L471.364,91.909 C469.606,91.909 468.182,93.334 468.182,95.091 C468.182,96.848 469.606,98.273 471.364,98.273 Z" />
        </g>
        <g id="Black-M" transform="translate(0,200)">
            <path d="M693.636,130.091 L693.636,136.455 C693.636,137.298 693.301,138.108 692.704,138.704 C692.108,139.301 691.298,139.636 690.455,139.636 L677.727,139.636 C676.883,139.636 676.074,139.301 675.477,138.704 C674.881,138.108 674.545,137.298 674.545,136.455 L674.545,123.727 C674.545,122.883 674.881,122.074 675.477,121.477 C676.074,120.881 676.883,120.545 677.727,120.545 L690.455,120.545 C691.298,120.545 692.108,120.881 692.704,121.477 C693.301,122.074 693.636,122.883 693.636,123.727 L693.636,130.091 Z M700,130.091 L700,123.727 C700,121.196 698.994,118.768 697.204,116.978 C695.414,115.188 692.986,114.182 690.455,114.182 L677.727,114.182 C675.196,114.182 672.768,115.188 670.978,116.978 C669.188,118.768 668.182,121.196 668.182,123.727 L668.182,136.455 C668.182,138.986 669.188,141.414 670.978,143.204 C672.768,144.994 675.196,146 677.727,146 L690.455,146 C692.986,146 695.414,144.994 697.204,143.204 C698.994,141.414 700,138.986 700,136.455 L700,130.091 Z" />
            <path d="M655.455,91.909 L655.455,98.273 C655.455,99.117 655.119,99.926 654.523,100.523 C653.926,101.119 653.117,101.455 652.273,101.455 L639.545,101.455 C638.702,101.455 637.892,101.119 637.296,100.523 C636.699,99.926 636.364,99.117 636.364,98.273 L636.364,85.545 C636.364,84.702 636.699,83.892 637.296,83.296 C637.892,82.699 638.702,82.364 639.545,82.364 L652.273,82.364 C653.117,82.364 653.926,82.699 654.523,83.296 C655.119,83.892 655.455,84.702 655.455,85.545 L655.455,91.909 Z M661.818,91.909 L661.818,85.545 C661.818,83.014 660.812,80.586 659.022,78.796 C657.232,77.006 654.804,76 652.273,76 L639.545,76 C637.014,76 634.586,77.006 632.796,78.796 C631.006,80.586 630,83.014 630,85.545 L630,98.273 C630,100.804 631.006,103.232 632.796,105.022 C634.586,106.812 637.014,107.818 639.545,107.818 L652.273,107.818 C654.804,107.818 657.232,106.812 659.022,105.022 C660.812,103.232 661.818,100.804 661.818,98.273 L661.818,91.909 Z" />
            <path d="M645.909,117.364 L645.909,120.545 C645.909,123.077 646.915,125.505 648.705,127.295 C650.495,129.085 652.923,130.091 655.455,130.091 L658.636,130.091 C660.394,130.091 661.818,128.666 661.818,126.909 C661.818,125.152 660.394,123.727 658.636,123.727 L655.455,123.727 C654.611,123.727 653.801,123.392 653.205,122.795 C652.608,122.199 652.273,121.389 652.273,120.545 L652.273,117.364 C652.273,115.606 650.848,114.182 649.091,114.182 C647.334,114.182 645.909,115.606 645.909,117.364 Z" />
            <path d="M671.364,98.273 L674.545,98.273 C675.389,98.273 676.199,98.608 676.795,99.205 C677.392,99.801 677.727,100.611 677.727,101.455 L677.727,104.636 C677.727,106.394 679.152,107.818 680.909,107.818 C682.666,107.818 684.091,106.394 684.091,104.636 L684.091,101.455 C684.091,98.923 683.085,96.495 681.295,94.705 C679.505,92.915 677.077,91.909 674.545,91.909 L671.364,91.909 C669.606,91.909 668.182,93.334 668.182,95.091 C668.182,96.848 669.606,98.273 671.364,98.273 Z" />
        </g>
    </g>
</svg>