<?xml version="1.0" encoding="UTF-8"?>
<svg height="600" width="800" xmlns="http://www.w3.org/2000/svg" xmlns:xlink="http://www.w3.org/1999/xlink">
    <g id="Notes" font-family="LucidaGrande, 'Lucida Grande', sans-serif" font-size="13">
        <rect fill="white" height="600.0" width="800.0" x="0.0" y="0.0" />
        <g font-size="13">
            <text x="18.0" y="176.0">Small</text>
            <text x="18.0" y="376.0">Medium</text>
            <text x="18.0" y="576.0">Large</text>
        </g>
        <g font-size="9">
            <text x="250.0" y="30.0">Ultralight</text>
            <text x="450.0" y="30.0">Regular</text>
            <text x="650.0" y="30.0">Black</text>
            <text id="template-version" fill="#505050" text-anchor="end" x="785.0" y="575.0">Template v.3.0</text>
            <a href="https://github.com/swhitty/SwiftDraw">
                <text fill="#505050" text-anchor="end" x="785.0" y="590.0">https://github.com/swhitty/SwiftDraw</text>
            </a>
        </g>
    </g>
    <g id="Guides" stroke="rgb(39, 170, 225)" stroke-width="0.5">
        <path id="Capline-S" d="M18,76 l800,0" />
        <path id="H-reference" d="M85,145.755 L87.685,145.755 L113.369,79.287 L114.052,79.287 L114.052,76 L112.148,76 L85,145.755 Z M95.693,121.536 L130.996,121.536 L130.263,119.313 L96.474,119.313 L95.693,121.536 Z M139.15,145.755 L141.787,145.755 L114.638,76 L113.466,76 L113.466,79.287 L139.15,145.755 Z" stroke="none" transform="translate(0,200)" />
        <path id="Baseline-S" d="M18,146 l800,0" />
        <path id="left-margin-Ultralight-M" d="M228.25,256 l0,110" />
        <path id="right-margin-Ultralight-M" d="M301.75,256 l0,110" />
        <path id="left-margin-Regular-M" d="M428.25,256 l0,110" />
        <path id="right-margin-Regular-M" d="M501.75,256 l0,110" />
        <path id="left-margin-Black-M" d="M628.25,256 l0,110" />
        <path id="right-margin-Black-M" d="M701.75,256 l0,110" />
        <path id="Capline-M" d="M18,276 l800,0" />
        <path id="Baseline-M" d="M18,346 l800,0" />
        <path id="Capline-L" d="M18,476 l800,0" />
        <path id="Baseline-L" d="M18,546 l800,0" />
    </g>
    <g id="Symbols">
        <g id="Ultralight-M" transform="translate(0,200)">
            <path d="M235.792,76.531 C233.855,75.586 231.536,75.922 229.947,77.38 C228.359,78.838 227.825,81.12 228.602,83.131 L238.537,109.781 C238.83,110.568 238.83,111.435 238.536,112.222 L228.591,138.91 C227.831,140.884 228.364,143.16 229.949,144.617 C231.533,146.073 233.847,146.414 235.783,145.475 L298.743,115.747 C300.58,114.878 301.75,113.031 301.75,111.001 C301.75,108.971 300.58,107.124 298.745,106.256 L235.751,76.512 Z M232.763,82.84 L295.754,112.584 C295.141,112.293 294.751,111.678 294.751,111.001 C294.751,110.325 295.141,109.709 295.753,109.419 L232.763,139.162 C233.379,138.863 234.155,138.977 234.686,139.465 C235.217,139.953 235.395,140.716 235.136,141.389 L245.095,114.665 C245.976,112.302 245.976,109.701 245.095,107.337 L235.146,80.648 C235.392,81.283 235.213,82.047 234.68,82.536 C234.148,83.024 233.371,83.137 232.722,82.82 Z" />
            <path d="M242.257,114.5 L298.25,114.5 C300.182,114.5 301.749,112.934 301.749,111.001 C301.749,109.068 300.182,107.502 298.25,107.502 L242.257,107.502 C240.324,107.502 238.757,109.068 238.757,111.001 C238.757,112.934 240.324,114.5 242.257,114.5 Z" />
        </g>
        <g id="Regular-M" transform="translate(0,200)">
            <path d="M435.792,76.531 C433.855,75.586 431.536,75.922 429.947,77.38 C428.359,78.838 427.825,81.12 428.602,83.131 L438.537,109.781 C438.83,110.568 438.83,111.435 438.536,112.222 L428.591,138.91 C427.831,140.884 428.364,143.16 429.949,144.617 C431.533,146.073 433.847,146.414 435.783,145.475 L498.743,115.747 C500.58,114.878 501.75,113.031 501.75,111.001 C501.75,108.971 500.58,107.124 498.745,106.256 L435.751,76.512 Z M432.763,82.84 L495.754,112.584 C495.141,112.293 494.751,111.678 494.751,111.001 C494.751,110.325 495.141,109.709 495.753,109.419 L432.763,139.162 C433.379,138.863 434.155,138.977 434.686,139.465 C435.217,139.953 435.395,140.716 435.136,141.389 L445.095,114.665 C445.976,112.302 445.976,109.701 445.095,107.337 L435.146,80.648 C435.392,81.283 435.213,82.047 434.68,82.536 C434.148,83.024 433.371,83.137 432.722,82.82 Z" />
            <path d="M442.257,114.5 L498.25,114.5 C500.182,114.5 501.749,112.934 501.749,111.001 C501.749,109.068 500.182,107.502 498.25,107.502 L442.257,107.502 C440.324,107.502 438.757,109.068 438.757,111.001 C438.757,112.934 440.324,114.5 442.257,114.5 Z" />
        </g>
        <g id="Black-M" transform="translate(0,200)">
            <path d="M635.792,76.531 C633.855,75.586 631.536,75.922 629.947,77.38 C628.359,78.838 627.825,81.12 628.602,83.131 L638.537,109.781 C638.83,110.568 638.83,111.435 638.536,112.222 L628.591,138.91 C627.831,140.884 628.364,143.16 629.949,144.617 C631.533,146.073 633.847,146.414 635.783,145.475 L698.743,115.747 C700.58,114.878 701.75,113.031 701.75,111.001 C701.75,108.971 700.58,107.124 698.745,106.256 L635.751,76.512 Z M632.763,82.84 L695.754,112.584 C695.141,112.293 694.751,111.678 694.751,111.001 C694.751,110.325 695.141,109.709 695.753,109.419 L632.763,139.162 C633.379,138.863 634.155,138.977 634.686,139.465 C635.217,139.953 635.395,140.716 635.136,141.389 L645.095,114.665 C645.976,112.302 645.976,109.701 645.095,107.337 L635.146,80.648 C635.391,81.283 635.213,82.047 634.68,82.536 C634.148,83.024 633.371,83.137 632.722,82.82 Z" />
            <path d="M642.257,114.5 L698.25,114.5 C700.182,114.5 701.749,112.934 701.749,111.001 C701.749,109.068 700.182,107.502 698.25,107.502 L642.257,107.502 C640.324,107.502 638.757,109.068 638.757,111.001 C638.757,112.934 640.324,114.5 642.257,114.5 Z" />
        </g>
    </g>
</svg>