<?xml version="1.0" encoding="UTF-8"?>
<svg height="600" width="800" xmlns="http://www.w3.org/2000/svg" xmlns:xlink="http://www.w3.org/1999/xlink">
    <g id="Notes" font-family="LucidaGrande, 'Lucida Grande', sans-serif" font-size="13">
        <rect fill="white" height="600.0" width="800.0" x="0.0" y="0.0" />
        <g font-size="13">
            <text x="18.0" y="176.0">Small</text>
            <text x="18.0" y="376.0">Medium</text>
            <text x="18.0" y="576.0">Large</text>
        </g>
        <g font-size="9">
            <text x="250.0" y="30.0">Ultralight</text>
            <text x="450.0" y="30.0">Regular</text>
            <text x="650.0" y="30.0">Black</text>
            <text id="template-version" fill="#505050" text-anchor="end" x="785.0" y="575.0">Template v.3.0</text>
            <a href="https://github.com/swhitty/SwiftDraw">
                <text fill="#505050" text-anchor="end" x="785.0" y="590.0">https://github.com/swhitty/SwiftDraw</text>
            </a>
        </g>
    </g>
    <g id="Guides" stroke="rgb(39, 170, 225)" stroke-width="0.5">
        <path id="Capline-S" d="M18,76 l800,0" />
        <path id="H-reference" d="M85,145.755 L87.685,145.755 L113.369,79.287 L114.052,79.287 L114.052,76 L112.148,76 L85,145.755 Z M95.693,121.536 L130.996,121.536 L130.263,119.313 L96.474,119.313 L95.693,121.536 Z M139.15,145.755 L141.787,145.755 L114.638,76 L113.466,76 L113.466,79.287 L139.15,145.755 Z" stroke="none" transform="translate(0,200)" />
        <path id="Baseline-S" d="M18,146 l800,0" />
        <path id="left-margin-Ultralight-M" d="M223.824,256 l0,110" />
        <path id="right-margin-Ultralight-M" d="M306.176,256 l0,110" />
        <path id="left-margin-Regular-M" d="M423.824,256 l0,110" />
        <path id="right-margin-Regular-M" d="M506.176,256 l0,110" />
        <path id="left-margin-Black-M" d="M623.824,256 l0,110" />
        <path id="right-margin-Black-M" d="M706.176,256 l0,110" />
        <path id="Capline-M" d="M18,276 l800,0" />
        <path id="Baseline-M" d="M18,346 l800,0" />
        <path id="Capline-L" d="M18,476 l800,0" />
        <path id="Baseline-L" d="M18,546 l800,0" />
    </g>
    <g id="Symbols">
        <g id="Ultralight-M" transform="translate(0,200)">
            <path d="M227.941,146 L246.471,146 C248.109,146 249.68,145.385 250.838,144.291 C251.996,143.197 252.647,141.714 252.647,140.166 L252.647,139.07 C252.624,137 251.502,135.125 249.674,134.06 C238.805,127.631 233.745,115.154 237.293,103.486 C240.842,91.819 252.14,83.78 264.993,83.778 C277.846,83.777 289.147,91.813 292.698,103.48 C296.249,115.147 291.193,127.625 280.301,134.071 C278.495,135.123 277.372,137.003 277.353,139.035 L277.353,140.166 C277.353,141.714 278.004,143.197 279.162,144.291 C280.32,145.385 281.891,146 283.529,146 L302.059,146 C304.333,146 306.176,144.259 306.176,142.111 C306.176,139.963 304.333,138.222 302.059,138.222 L283.529,138.222 C284.075,138.222 284.599,138.427 284.985,138.791 C285.371,139.156 285.588,139.651 285.588,140.166 L285.588,139.07 C285.582,139.746 285.228,140.339 284.649,140.676 C298.677,132.374 305.179,116.331 300.613,101.331 C296.047,86.331 281.518,75.998 264.992,76 C248.467,76.002 233.94,86.338 229.378,101.339 C224.816,116.34 231.322,132.382 245.327,140.666 C244.774,140.344 244.419,139.752 244.412,139.111 L244.412,140.166 C244.412,139.651 244.629,139.156 245.015,138.791 C245.401,138.427 245.925,138.222 246.471,138.222 L227.941,138.222 C225.667,138.222 223.824,139.963 223.824,142.111 C223.824,144.259 225.667,146 227.941,146 Z" />
        </g>
        <g id="Regular-M" transform="translate(0,200)">
            <path d="M427.941,146 L446.471,146 C448.109,146 449.68,145.385 450.838,144.291 C451.996,143.197 452.647,141.714 452.647,140.166 L452.647,139.07 C452.624,137 451.502,135.125 449.674,134.06 C438.805,127.631 433.745,115.154 437.293,103.486 C440.842,91.819 452.14,83.78 464.993,83.778 C477.846,83.777 489.147,91.813 492.698,103.48 C496.249,115.147 491.193,127.625 480.301,134.071 C478.495,135.123 477.372,137.003 477.353,139.035 L477.353,140.166 C477.353,141.714 478.004,143.197 479.162,144.291 C480.32,145.385 481.891,146 483.529,146 L502.059,146 C504.333,146 506.176,144.259 506.176,142.111 C506.176,139.963 504.333,138.222 502.059,138.222 L483.529,138.222 C484.075,138.222 484.599,138.427 484.985,138.791 C485.371,139.156 485.588,139.651 485.588,140.166 L485.588,139.07 C485.582,139.746 485.228,140.339 484.649,140.676 C498.677,132.374 505.179,116.331 500.613,101.331 C496.047,86.331 481.518,75.998 464.992,76 C448.467,76.002 433.94,86.338 429.378,101.339 C424.816,116.34 431.322,132.382 445.327,140.666 C444.774,140.344 444.419,139.752 444.412,139.111 L444.412,140.166 C444.412,139.651 444.629,139.156 445.015,138.791 C445.401,138.427 445.925,138.222 446.471,138.222 L427.941,138.222 C425.667,138.222 423.824,139.963 423.824,142.111 C423.824,144.259 425.667,146 427.941,146 Z" />
        </g>
        <g id="Black-M" transform="translate(0,200)">
            <path d="M627.941,146 L646.471,146 C648.109,146 649.68,145.385 650.838,144.291 C651.996,143.197 652.647,141.714 652.647,140.166 L652.647,139.07 C652.624,137 651.502,135.125 649.674,134.06 C638.805,127.631 633.745,115.154 637.293,103.486 C640.842,91.819 652.14,83.78 664.993,83.778 C677.846,83.777 689.147,91.813 692.698,103.48 C696.249,115.147 691.193,127.625 680.301,134.071 C678.495,135.123 677.372,137.003 677.353,139.035 L677.353,140.166 C677.353,141.714 678.004,143.197 679.162,144.291 C680.32,145.385 681.891,146 683.529,146 L702.059,146 C704.333,146 706.177,144.259 706.177,142.111 C706.177,139.963 704.333,138.222 702.059,138.222 L683.529,138.222 C684.076,138.222 684.599,138.427 684.985,138.791 C685.371,139.156 685.588,139.651 685.588,140.166 L685.588,139.07 C685.582,139.746 685.228,140.339 684.649,140.676 C698.677,132.374 705.179,116.331 700.613,101.331 C696.047,86.331 681.518,75.998 664.992,76 C648.467,76.002 633.94,86.338 629.378,101.339 C624.816,116.34 631.322,132.382 645.327,140.666 C644.774,140.344 644.419,139.752 644.412,139.111 L644.412,140.166 C644.412,139.651 644.629,139.156 645.015,138.791 C645.401,138.427 645.925,138.222 646.471,138.222 L627.941,138.222 C625.667,138.222 623.824,139.963 623.824,142.111 C623.824,144.259 625.667,146 627.941,146 Z" />
        </g>
    </g>
</svg>