<?xml version="1.0" encoding="UTF-8"?>
<svg height="600" width="800" xmlns="http://www.w3.org/2000/svg" xmlns:xlink="http://www.w3.org/1999/xlink">
    <g id="Notes" font-family="LucidaGrande, 'Lucida Grande', sans-serif" font-size="13">
        <rect fill="white" height="600.0" width="800.0" x="0.0" y="0.0" />
        <g font-size="13">
            <text x="18.0" y="176.0">Small</text>
            <text x="18.0" y="376.0">Medium</text>
            <text x="18.0" y="576.0">Large</text>
        </g>
        <g font-size="9">
            <text x="250.0" y="30.0">Ultralight</text>
            <text x="450.0" y="30.0">Regular</text>
            <text x="650.0" y="30.0">Black</text>
            <text id="template-version" fill="#505050" text-anchor="end" x="785.0" y="575.0">Template v.3.0</text>
            <a href="https://github.com/swhitty/SwiftDraw">
                <text fill="#505050" text-anchor="end" x="785.0" y="590.0">https://github.com/swhitty/SwiftDraw</text>
            </a>
        </g>
    </g>
    <g id="Guides" stroke="rgb(39, 170, 225)" stroke-width="0.5">
        <path id="Capline-S" d="M18,76 l800,0" />
        <path id="H-reference" d="M85,145.755 L87.685,145.755 L113.369,79.287 L114.052,79.287 L114.052,76 L112.148,76 L85,145.755 Z M95.693,121.536 L130.996,121.536 L130.263,119.313 L96.474,119.313 L95.693,121.536 Z M139.15,145.755 L141.787,145.755 L114.638,76 L113.466,76 L113.466,79.287 L139.15,145.755 Z" stroke="none" transform="translate(0,200)" />
        <path id="Baseline-S" d="M18,146 l800,0" />
        <path id="left-margin-Ultralight-M" d="M222.222,256 l0,110" />
        <path id="right-margin-Ultralight-M" d="M307.778,256 l0,110" />
        <path id="left-margin-Regular-M" d="M422.222,256 l0,110" />
        <path id="right-margin-Regular-M" d="M507.778,256 l0,110" />
        <path id="left-margin-Black-M" d="M622.222,256 l0,110" />
        <path id="right-margin-Black-M" d="M707.778,256 l0,110" />
        <path id="Capline-M" d="M18,276 l800,0" />
        <path id="Baseline-M" d="M18,346 l800,0" />
        <path id="Capline-L" d="M18,476 l800,0" />
        <path id="Baseline-L" d="M18,546 l800,0" />
    </g>
    <g id="Symbols">
        <g id="Ultralight-M" transform="translate(0,200)">
            <path d="M300,111 L300,134.333 C300,135.365 299.59,136.354 298.861,137.083 C298.132,137.812 297.143,138.222 296.111,138.222 L233.889,138.222 C232.857,138.222 231.868,137.812 231.139,137.083 C230.41,136.354 230,135.365 230,134.333 L230,87.667 C230,86.635 230.41,85.646 231.139,84.917 C231.868,84.188 232.857,83.778 233.889,83.778 L296.111,83.778 C297.143,83.778 298.132,84.188 298.861,84.917 C299.59,85.646 300,86.635 300,87.667 L300,111 Z M307.778,111 L307.778,87.667 C307.778,84.572 306.549,81.605 304.361,79.417 C302.173,77.229 299.205,76 296.111,76 L233.889,76 C230.795,76 227.827,77.229 225.639,79.417 C223.451,81.605 222.222,84.572 222.222,87.667 L222.222,134.333 C222.222,137.428 223.451,140.395 225.639,142.583 C227.827,144.771 230.795,146 233.889,146 L296.111,146 C299.205,146 302.173,144.771 304.361,142.583 C306.549,140.395 307.778,137.428 307.778,134.333 L307.778,111 Z" />
            <path d="M241.667,99.333 L257.222,99.333 C259.37,99.333 261.111,97.592 261.111,95.444 C261.111,93.297 259.37,91.556 257.222,91.556 L241.667,91.556 C239.519,91.556 237.778,93.297 237.778,95.444 C237.778,97.592 239.519,99.333 241.667,99.333 Z" />
            <path d="M272.778,99.333 L272.817,99.333 C274.964,99.333 276.706,97.592 276.706,95.444 C276.706,93.297 274.964,91.556 272.817,91.556 L272.778,91.556 C270.63,91.556 268.889,93.297 268.889,95.444 C268.889,97.592 270.63,99.333 272.778,99.333 Z" />
            <path d="M288.333,99.333 L288.372,99.333 C290.52,99.333 292.261,97.592 292.261,95.444 C292.261,93.297 290.52,91.556 288.372,91.556 L288.333,91.556 C286.186,91.556 284.444,93.297 284.444,95.444 C284.444,97.592 286.186,99.333 288.333,99.333 Z" />
            <path d="M226.111,114.889 L303.889,114.889 C306.037,114.889 307.778,113.148 307.778,111 C307.778,108.852 306.037,107.111 303.889,107.111 L226.111,107.111 C223.963,107.111 222.222,108.852 222.222,111 C222.222,113.148 223.963,114.889 226.111,114.889 Z" />
            <path d="M237.778,111 L237.778,126.556 C237.778,128.703 239.519,130.444 241.667,130.444 C243.814,130.444 245.556,128.703 245.556,126.556 L245.556,111 C245.556,108.852 243.814,107.111 241.667,107.111 C239.519,107.111 237.778,108.852 237.778,111 Z" />
            <path d="M253.333,111 L253.333,126.556 C253.333,128.703 255.074,130.444 257.222,130.444 C259.37,130.444 261.111,128.703 261.111,126.556 L261.111,111 C261.111,108.852 259.37,107.111 257.222,107.111 C255.074,107.111 253.333,108.852 253.333,111 Z" />
            <path d="M268.889,111 L268.889,126.556 C268.889,128.703 270.63,130.444 272.778,130.444 C274.926,130.444 276.667,128.703 276.667,126.556 L276.667,111 C276.667,108.852 274.926,107.111 272.778,107.111 C270.63,107.111 268.889,108.852 268.889,111 Z" />
            <path d="M284.444,111 L284.444,126.556 C284.444,128.703 286.186,130.444 288.333,130.444 C290.481,130.444 292.222,128.703 292.222,126.556 L292.222,111 C292.222,108.852 290.481,107.111 288.333,107.111 C286.186,107.111 284.444,108.852 284.444,111 Z" />
        </g>
        <g id="Regular-M" transform="translate(0,200)">
            <path d="M500,111 L500,134.333 C500,135.365 499.59,136.354 498.861,137.083 C498.132,137.812 497.143,138.222 496.111,138.222 L433.889,138.222 C432.858,138.222 431.868,137.812 431.139,137.083 C430.41,136.354 430,135.365 430,134.333 L430,87.667 C430,86.635 430.41,85.646 431.139,84.917 C431.868,84.188 432.857,83.778 433.889,83.778 L496.111,83.778 C497.143,83.778 498.132,84.188 498.861,84.917 C499.59,85.646 500,86.635 500,87.667 L500,111 Z M507.778,111 L507.778,87.667 C507.778,84.572 506.549,81.605 504.361,79.417 C502.173,77.229 499.205,76 496.111,76 L433.889,76 C430.795,76 427.827,77.229 425.639,79.417 C423.451,81.605 422.222,84.572 422.222,87.667 L422.222,134.333 C422.222,137.428 423.451,140.395 425.639,142.583 C427.827,144.771 430.795,146 433.889,146 L496.111,146 C499.205,146 502.173,144.771 504.361,142.583 C506.549,140.395 507.778,137.428 507.778,134.333 L507.778,111 Z" />
            <path d="M441.667,99.333 L457.222,99.333 C459.37,99.333 461.111,97.592 461.111,95.444 C461.111,93.297 459.37,91.556 457.222,91.556 L441.667,91.556 C439.519,91.556 437.778,93.297 437.778,95.444 C437.778,97.592 439.519,99.333 441.667,99.333 Z" />
            <path d="M472.778,99.333 L472.817,99.333 C474.964,99.333 476.706,97.592 476.706,95.444 C476.706,93.297 474.964,91.556 472.817,91.556 L472.778,91.556 C470.63,91.556 468.889,93.297 468.889,95.444 C468.889,97.592 470.63,99.333 472.778,99.333 Z" />
            <path d="M488.333,99.333 L488.372,99.333 C490.52,99.333 492.261,97.592 492.261,95.444 C492.261,93.297 490.52,91.556 488.372,91.556 L488.333,91.556 C486.186,91.556 484.444,93.297 484.444,95.444 C484.444,97.592 486.186,99.333 488.333,99.333 Z" />
            <path d="M426.111,114.889 L503.889,114.889 C506.037,114.889 507.778,113.148 507.778,111 C507.778,108.852 506.037,107.111 503.889,107.111 L426.111,107.111 C423.963,107.111 422.222,108.852 422.222,111 C422.222,113.148 423.963,114.889 426.111,114.889 Z" />
            <path d="M437.778,111 L437.778,126.556 C437.778,128.703 439.519,130.444 441.667,130.444 C443.814,130.444 445.556,128.703 445.556,126.556 L445.556,111 C445.556,108.852 443.814,107.111 441.667,107.111 C439.519,107.111 437.778,108.852 437.778,111 Z" />
            <path d="M453.333,111 L453.333,126.556 C453.333,128.703 455.074,130.444 457.222,130.444 C459.37,130.444 461.111,128.703 461.111,126.556 L461.111,111 C461.111,108.852 459.37,107.111 457.222,107.111 C455.074,107.111 453.333,108.852 453.333,111 Z" />
            <path d="M468.889,111 L468.889,126.556 C468.889,128.703 470.63,130.444 472.778,130.444 C474.926,130.444 476.667,128.703 476.667,126.556 L476.667,111 C476.667,108.852 474.926,107.111 472.778,107.111 C470.63,107.111 468.889,108.852 468.889,111 Z" />
            <path d="M484.444,111 L484.444,126.556 C484.444,128.703 486.186,130.444 488.333,130.444 C490.481,130.444 492.222,128.703 492.222,126.556 L492.222,111 C492.222,108.852 490.481,107.111 488.333,107.111 C486.186,107.111 484.444,108.852 484.444,111 Z" />
        </g>
        <g id="Black-M" transform="translate(0,200)">
            <path d="M700,111 L700,134.333 C700,135.365 699.59,136.354 698.861,137.083 C698.132,137.812 697.143,138.222 696.111,138.222 L633.889,138.222 C632.857,138.222 631.868,137.812 631.139,137.083 C630.41,136.354 630,135.365 630,134.333 L630,87.667 C630,86.635 630.41,85.646 631.139,84.917 C631.868,84.188 632.857,83.778 633.889,83.778 L696.111,83.778 C697.143,83.778 698.132,84.188 698.861,84.917 C699.59,85.646 700,86.635 700,87.667 L700,111 Z M707.778,111 L707.778,87.667 C707.778,84.572 706.549,81.605 704.361,79.417 C702.173,77.229 699.205,76 696.111,76 L633.889,76 C630.795,76 627.827,77.229 625.639,79.417 C623.451,81.605 622.222,84.572 622.222,87.667 L622.222,134.333 C622.222,137.428 623.451,140.395 625.639,142.583 C627.827,144.771 630.795,146 633.889,146 L696.111,146 C699.205,146 702.173,144.771 704.361,142.583 C706.549,140.395 707.778,137.428 707.778,134.333 L707.778,111 Z" />
            <path d="M641.667,99.333 L657.222,99.333 C659.37,99.333 661.111,97.592 661.111,95.444 C661.111,93.297 659.37,91.556 657.222,91.556 L641.667,91.556 C639.519,91.556 637.778,93.297 637.778,95.444 C637.778,97.592 639.519,99.333 641.667,99.333 Z" />
            <path d="M672.778,99.333 L672.817,99.333 C674.964,99.333 676.706,97.592 676.706,95.444 C676.706,93.297 674.964,91.556 672.817,91.556 L672.778,91.556 C670.63,91.556 668.889,93.297 668.889,95.444 C668.889,97.592 670.63,99.333 672.778,99.333 Z" />
            <path d="M688.333,99.333 L688.372,99.333 C690.52,99.333 692.261,97.592 692.261,95.444 C692.261,93.297 690.52,91.556 688.372,91.556 L688.333,91.556 C686.186,91.556 684.444,93.297 684.444,95.444 C684.444,97.592 686.186,99.333 688.333,99.333 Z" />
            <path d="M626.111,114.889 L703.889,114.889 C706.037,114.889 707.778,113.148 707.778,111 C707.778,108.852 706.037,107.111 703.889,107.111 L626.111,107.111 C623.963,107.111 622.222,108.852 622.222,111 C622.222,113.148 623.963,114.889 626.111,114.889 Z" />
            <path d="M637.778,111 L637.778,126.556 C637.778,128.703 639.519,130.444 641.667,130.444 C643.814,130.444 645.556,128.703 645.556,126.556 L645.556,111 C645.556,108.852 643.814,107.111 641.667,107.111 C639.519,107.111 637.778,108.852 637.778,111 Z" />
            <path d="M653.333,111 L653.333,126.556 C653.333,128.703 655.074,130.444 657.222,130.444 C659.37,130.444 661.111,128.703 661.111,126.556 L661.111,111 C661.111,108.852 659.37,107.111 657.222,107.111 C655.074,107.111 653.333,108.852 653.333,111 Z" />
            <path d="M668.889,111 L668.889,126.556 C668.889,128.703 670.63,130.444 672.778,130.444 C674.926,130.444 676.667,128.703 676.667,126.556 L676.667,111 C676.667,108.852 674.926,107.111 672.778,107.111 C670.63,107.111 668.889,108.852 668.889,111 Z" />
            <path d="M684.444,111 L684.444,126.556 C684.444,128.703 686.186,130.444 688.333,130.444 C690.481,130.444 692.222,128.703 692.222,126.556 L692.222,111 C692.222,108.852 690.481,107.111 688.333,107.111 C686.186,107.111 684.444,108.852 684.444,111 Z" />
        </g>
    </g>
</svg>