<?xml version="1.0" encoding="UTF-8"?>
<svg height="600" width="800" xmlns="http://www.w3.org/2000/svg" xmlns:xlink="http://www.w3.org/1999/xlink">
    <g id="Notes" font-family="LucidaGrande, 'Lucida Grande', sans-serif" font-size="13">
        <rect fill="white" height="600.0" width="800.0" x="0.0" y="0.0" />
        <g font-size="13">
            <text x="18.0" y="176.0">Small</text>
            <text x="18.0" y="376.0">Medium</text>
            <text x="18.0" y="576.0">Large</text>
        </g>
        <g font-size="9">
            <text x="250.0" y="30.0">Ultralight</text>
            <text x="450.0" y="30.0">Regular</text>
            <text x="650.0" y="30.0">Black</text>
            <text id="template-version" fill="#505050" text-anchor="end" x="785.0" y="575.0">Template v.3.0</text>
            <a href="https://github.com/swhitty/SwiftDraw">
                <text fill="#505050" text-anchor="end" x="785.0" y="590.0">https://github.com/swhitty/SwiftDraw</text>
            </a>
        </g>
    </g>
    <g id="Guides" stroke="rgb(39, 170, 225)" stroke-width="0.5">
        <path id="Capline-S" d="M18,76 l800,0" />
        <path id="H-reference" d="M85,145.755 L87.685,145.755 L113.369,79.287 L114.052,79.287 L114.052,76 L112.148,76 L85,145.755 Z M95.693,121.536 L130.996,121.536 L130.263,119.313 L96.474,119.313 L95.693,121.536 Z M139.15,145.755 L141.787,145.755 L114.638,76 L113.466,76 L113.466,79.287 L139.15,145.755 Z" stroke="none" transform="translate(0,200)" />
        <path id="Baseline-S" d="M18,146 l800,0" />
        <path id="left-margin-Ultralight-M" d="M236.364,256 l0,110" />
        <path id="right-margin-Ultralight-M" d="M293.636,256 l0,110" />
        <path id="left-margin-Regular-M" d="M436.364,256 l0,110" />
        <path id="right-margin-Regular-M" d="M493.636,256 l0,110" />
        <path id="left-margin-Black-M" d="M636.364,256 l0,110" />
        <path id="right-margin-Black-M" d="M693.636,256 l0,110" />
        <path id="Capline-M" d="M18,276 l800,0" />
        <path id="Baseline-M" d="M18,346 l800,0" />
        <path id="Capline-L" d="M18,476 l800,0" />
        <path id="Baseline-L" d="M18,546 l800,0" />
    </g>
    <g id="Symbols">
        <g id="Ultralight-M" transform="translate(0,200)">
            <path d="M249.091,79.182 L249.091,91.909 C249.091,93.666 250.515,95.091 252.273,95.091 C254.03,95.091 255.455,93.666 255.455,91.909 L255.455,79.182 C255.455,77.425 254.03,76 252.273,76 C250.515,76 249.091,77.425 249.091,79.182 Z" />
            <path d="M261.818,79.182 L261.818,91.909 C261.818,93.666 263.243,95.091 265,95.091 C266.757,95.091 268.182,93.666 268.182,91.909 L268.182,79.182 C268.182,77.425 266.757,76 265,76 C263.243,76 261.818,77.425 261.818,79.182 Z" />
            <path d="M274.545,79.182 L274.545,91.909 C274.545,93.666 275.97,95.091 277.727,95.091 C279.485,95.091 280.909,93.666 280.909,91.909 L280.909,79.182 C280.909,77.425 279.485,76 277.727,76 C275.97,76 274.545,77.425 274.545,79.182 Z" />
            <path d="M277.727,88.727 L284.091,88.727 C284.935,88.727 285.744,89.062 286.341,89.659 C286.938,90.256 287.273,91.065 287.273,91.909 L287.273,98.273 C287.273,100.03 288.697,101.455 290.455,101.455 C292.212,101.455 293.636,100.03 293.636,98.273 L293.636,91.909 C293.636,89.377 292.631,86.95 290.841,85.159 C289.05,83.369 286.623,82.364 284.091,82.364 L277.727,82.364 C275.97,82.364 274.545,83.788 274.545,85.545 C274.545,87.303 275.97,88.727 277.727,88.727 Z" />
            <path d="M287.273,111 L287.273,117.364 C287.273,119.121 288.697,120.545 290.455,120.545 C292.212,120.545 293.636,119.121 293.636,117.364 L293.636,111 C293.636,109.243 292.212,107.818 290.455,107.818 C288.697,107.818 287.273,109.243 287.273,111 Z" />
            <path d="M287.273,130.091 L287.273,136.455 C287.273,137.298 286.938,138.108 286.341,138.704 C285.744,139.301 284.935,139.636 284.091,139.636 L280.909,139.636 C279.152,139.636 277.727,141.061 277.727,142.818 C277.727,144.575 279.152,146 280.909,146 L284.091,146 C286.623,146 289.05,144.994 290.841,143.204 C292.631,141.414 293.636,138.986 293.636,136.455 L293.636,130.091 C293.636,128.334 292.212,126.909 290.455,126.909 C288.697,126.909 287.273,128.334 287.273,130.091 Z" />
            <path d="M268.182,139.636 L261.818,139.636 C260.061,139.636 258.636,141.061 258.636,142.818 C258.636,144.575 260.061,146 261.818,146 L268.182,146 C269.939,146 271.364,144.575 271.364,142.818 C271.364,141.061 269.939,139.636 268.182,139.636 Z" />
            <path d="M249.091,139.636 L245.909,139.636 C245.065,139.636 244.256,139.301 243.659,138.704 C243.062,138.108 242.727,137.298 242.727,136.455 L242.727,130.091 C242.727,128.334 241.303,126.909 239.545,126.909 C237.788,126.909 236.364,128.334 236.364,130.091 L236.364,136.455 C236.364,138.986 237.369,141.414 239.159,143.204 C240.95,144.994 243.377,146 245.909,146 L249.091,146 C250.848,146 252.273,144.575 252.273,142.818 C252.273,141.061 250.848,139.636 249.091,139.636 Z" />
            <path d="M242.727,117.364 L242.727,111 C242.727,109.243 241.303,107.818 239.545,107.818 C237.788,107.818 236.364,109.243 236.364,111 L236.364,117.364 C236.364,119.121 237.788,120.545 239.545,120.545 C241.303,120.545 242.727,119.121 242.727,117.364 Z" />
            <path d="M242.727,98.273 L242.727,91.909 C242.727,91.065 243.062,90.256 243.659,89.659 C244.256,89.062 245.065,88.727 245.909,88.727 L252.273,88.727 C254.03,88.727 255.455,87.303 255.455,85.545 C255.455,83.788 254.03,82.364 252.273,82.364 L245.909,82.364 C243.377,82.364 240.95,83.369 239.159,85.159 C237.369,86.95 236.364,89.377 236.364,91.909 L236.364,98.273 C236.364,100.03 237.788,101.455 239.545,101.455 C241.303,101.455 242.727,100.03 242.727,98.273 Z" />
            <path d="M252.273,107.818 L271.364,107.818 C273.121,107.818 274.545,106.394 274.545,104.636 C274.545,102.879 273.121,101.455 271.364,101.455 L252.273,101.455 C250.515,101.455 249.091,102.879 249.091,104.636 C249.091,106.394 250.515,107.818 252.273,107.818 Z" />
            <path d="M252.273,120.545 L277.727,120.545 C279.485,120.545 280.909,119.121 280.909,117.364 C280.909,115.606 279.485,114.182 277.727,114.182 L252.273,114.182 C250.515,114.182 249.091,115.606 249.091,117.364 C249.091,119.121 250.515,120.545 252.273,120.545 Z" />
            <path d="M252.273,133.273 L268.182,133.273 C269.939,133.273 271.364,131.848 271.364,130.091 C271.364,128.334 269.939,126.909 268.182,126.909 L252.273,126.909 C250.515,126.909 249.091,128.334 249.091,130.091 C249.091,131.848 250.515,133.273 252.273,133.273 Z" />
        </g>
        <g id="Regular-M" transform="translate(0,200)">
            <path d="M449.091,79.182 L449.091,91.909 C449.091,93.666 450.515,95.091 452.273,95.091 C454.03,95.091 455.455,93.666 455.455,91.909 L455.455,79.182 C455.455,77.425 454.03,76 452.273,76 C450.515,76 449.091,77.425 449.091,79.182 Z" />
            <path d="M461.818,79.182 L461.818,91.909 C461.818,93.666 463.243,95.091 465,95.091 C466.757,95.091 468.182,93.666 468.182,91.909 L468.182,79.182 C468.182,77.425 466.757,76 465,76 C463.243,76 461.818,77.425 461.818,79.182 Z" />
            <path d="M474.545,79.182 L474.545,91.909 C474.545,93.666 475.97,95.091 477.727,95.091 C479.485,95.091 480.909,93.666 480.909,91.909 L480.909,79.182 C480.909,77.425 479.485,76 477.727,76 C475.97,76 474.545,77.425 474.545,79.182 Z" />
            <path d="M477.727,88.727 L484.091,88.727 C484.935,88.727 485.744,89.062 486.341,89.659 C486.938,90.256 487.273,91.065 487.273,91.909 L487.273,98.273 C487.273,100.03 488.697,101.455 490.455,101.455 C492.212,101.455 493.636,100.03 493.636,98.273 L493.636,91.909 C493.636,89.377 492.631,86.95 490.841,85.159 C489.05,83.369 486.623,82.364 484.091,82.364 L477.727,82.364 C475.97,82.364 474.545,83.788 474.545,85.545 C474.545,87.303 475.97,88.727 477.727,88.727 Z" />
            <path d="M487.273,111 L487.273,117.364 C487.273,119.121 488.697,120.545 490.455,120.545 C492.212,120.545 493.636,119.121 493.636,117.364 L493.636,111 C493.636,109.243 492.212,107.818 490.455,107.818 C488.697,107.818 487.273,109.243 487.273,111 Z" />
            <path d="M487.273,130.091 L487.273,136.455 C487.273,137.298 486.938,138.108 486.341,138.704 C485.744,139.301 484.935,139.636 484.091,139.636 L480.909,139.636 C479.152,139.636 477.727,141.061 477.727,142.818 C477.727,144.575 479.152,146 480.909,146 L484.091,146 C486.623,146 489.05,144.994 490.841,143.204 C492.631,141.414 493.636,138.986 493.636,136.455 L493.636,130.091 C493.636,128.334 492.212,126.909 490.455,126.909 C488.697,126.909 487.273,128.334 487.273,130.091 Z" />
            <path d="M468.182,139.636 L461.818,139.636 C460.061,139.636 458.636,141.061 458.636,142.818 C458.636,144.575 460.061,146 461.818,146 L468.182,146 C469.939,146 471.364,144.575 471.364,142.818 C471.364,141.061 469.939,139.636 468.182,139.636 Z" />
            <path d="M449.091,139.636 L445.909,139.636 C445.065,139.636 444.256,139.301 443.659,138.704 C443.062,138.108 442.727,137.298 442.727,136.455 L442.727,130.091 C442.727,128.334 441.303,126.909 439.545,126.909 C437.788,126.909 436.364,128.334 436.364,130.091 L436.364,136.455 C436.364,138.986 437.369,141.414 439.159,143.204 C440.95,144.994 443.378,146 445.909,146 L449.091,146 C450.848,146 452.273,144.575 452.273,142.818 C452.273,141.061 450.848,139.636 449.091,139.636 Z" />
            <path d="M442.727,117.364 L442.727,111 C442.727,109.243 441.303,107.818 439.545,107.818 C437.788,107.818 436.364,109.243 436.364,111 L436.364,117.364 C436.364,119.121 437.788,120.545 439.545,120.545 C441.303,120.545 442.727,119.121 442.727,117.364 Z" />
            <path d="M442.727,98.273 L442.727,91.909 C442.727,91.065 443.062,90.256 443.659,89.659 C444.256,89.062 445.065,88.727 445.909,88.727 L452.273,88.727 C454.03,88.727 455.455,87.303 455.455,85.545 C455.455,83.788 454.03,82.364 452.273,82.364 L445.909,82.364 C443.378,82.364 440.95,83.369 439.159,85.159 C437.369,86.95 436.364,89.377 436.364,91.909 L436.364,98.273 C436.364,100.03 437.788,101.455 439.545,101.455 C441.303,101.455 442.727,100.03 442.727,98.273 Z" />
            <path d="M452.273,107.818 L471.364,107.818 C473.121,107.818 474.545,106.394 474.545,104.636 C474.545,102.879 473.121,101.455 471.364,101.455 L452.273,101.455 C450.515,101.455 449.091,102.879 449.091,104.636 C449.091,106.394 450.515,107.818 452.273,107.818 Z" />
            <path d="M452.273,120.545 L477.727,120.545 C479.485,120.545 480.909,119.121 480.909,117.364 C480.909,115.606 479.485,114.182 477.727,114.182 L452.273,114.182 C450.515,114.182 449.091,115.606 449.091,117.364 C449.091,119.121 450.515,120.545 452.273,120.545 Z" />
            <path d="M452.273,133.273 L468.182,133.273 C469.939,133.273 471.364,131.848 471.364,130.091 C471.364,128.334 469.939,126.909 468.182,126.909 L452.273,126.909 C450.515,126.909 449.091,128.334 449.091,130.091 C449.091,131.848 450.515,133.273 452.273,133.273 Z" />
        </g>
        <g id="Black-M" transform="translate(0,200)">
            <path d="M649.091,79.182 L649.091,91.909 C649.091,93.666 650.515,95.091 652.273,95.091 C654.03,95.091 655.455,93.666 655.455,91.909 L655.455,79.182 C655.455,77.425 654.03,76 652.273,76 C650.515,76 649.091,77.425 649.091,79.182 Z" />
            <path d="M661.818,79.182 L661.818,91.909 C661.818,93.666 663.243,95.091 665,95.091 C666.757,95.091 668.182,93.666 668.182,91.909 L668.182,79.182 C668.182,77.425 666.757,76 665,76 C663.243,76 661.818,77.425 661.818,79.182 Z" />
            <path d="M674.545,79.182 L674.545,91.909 C674.545,93.666 675.97,95.091 677.727,95.091 C679.485,95.091 680.909,93.666 680.909,91.909 L680.909,79.182 C680.909,77.425 679.485,76 677.727,76 C675.97,76 674.545,77.425 674.545,79.182 Z" />
            <path d="M677.727,88.727 L684.091,88.727 C684.935,88.727 685.744,89.062 686.341,89.659 C686.938,90.256 687.273,91.065 687.273,91.909 L687.273,98.273 C687.273,100.03 688.697,101.455 690.455,101.455 C692.212,101.455 693.636,100.03 693.636,98.273 L693.636,91.909 C693.636,89.377 692.631,86.95 690.841,85.159 C689.05,83.369 686.623,82.364 684.091,82.364 L677.727,82.364 C675.97,82.364 674.545,83.788 674.545,85.545 C674.545,87.303 675.97,88.727 677.727,88.727 Z" />
            <path d="M687.273,111 L687.273,117.364 C687.273,119.121 688.697,120.545 690.455,120.545 C692.212,120.545 693.636,119.121 693.636,117.364 L693.636,111 C693.636,109.243 692.212,107.818 690.455,107.818 C688.697,107.818 687.273,109.243 687.273,111 Z" />
            <path d="M687.273,130.091 L687.273,136.455 C687.273,137.298 686.938,138.108 686.341,138.704 C685.744,139.301 684.935,139.636 684.091,139.636 L680.909,139.636 C679.152,139.636 677.727,141.061 677.727,142.818 C677.727,144.575 679.152,146 680.909,146 L684.091,146 C686.623,146 689.05,144.994 690.841,143.204 C692.631,141.414 693.636,138.986 693.636,136.455 L693.636,130.091 C693.636,128.334 692.212,126.909 690.455,126.909 C688.697,126.909 687.273,128.334 687.273,130.091 Z" />
            <path d="M668.182,139.636 L661.818,139.636 C660.061,139.636 658.636,141.061 658.636,142.818 C658.636,144.575 660.061,146 661.818,146 L668.182,146 C669.939,146 671.364,144.575 671.364,142.818 C671.364,141.061 669.939,139.636 668.182,139.636 Z" />
            <path d="M649.091,139.636 L645.909,139.636 C645.065,139.636 644.256,139.301 643.659,138.704 C643.062,138.108 642.727,137.298 642.727,136.455 L642.727,130.091 C642.727,128.334 641.303,126.909 639.545,126.909 C637.788,126.909 636.364,128.334 636.364,130.091 L636.364,136.455 C636.364,138.986 637.369,141.414 639.159,143.204 C640.95,144.994 643.378,146 645.909,146 L649.091,146 C650.848,146 652.273,144.575 652.273,142.818 C652.273,141.061 650.848,139.636 649.091,139.636 Z" />
            <path d="M642.727,117.364 L642.727,111 C642.727,109.243 641.303,107.818 639.545,107.818 C637.788,107.818 636.364,109.243 636.364,111 L636.364,117.364 C636.364,119.121 637.788,120.545 639.545,120.545 C641.303,120.545 642.727,119.121 642.727,117.364 Z" />
            <path d="M642.727,98.273 L642.727,91.909 C642.727,91.065 643.062,90.256 643.659,89.659 C644.256,89.062 645.065,88.727 645.909,88.727 L652.273,88.727 C654.03,88.727 655.455,87.303 655.455,85.545 C655.455,83.788 654.03,82.364 652.273,82.364 L645.909,82.364 C643.378,82.364 640.95,83.369 639.159,85.159 C637.369,86.95 636.364,89.377 636.364,91.909 L636.364,98.273 C636.364,100.03 637.788,101.455 639.545,101.455 C641.303,101.455 642.727,100.03 642.727,98.273 Z" />
            <path d="M652.273,107.818 L671.364,107.818 C673.121,107.818 674.545,106.394 674.545,104.636 C674.545,102.879 673.121,101.455 671.364,101.455 L652.273,101.455 C650.515,101.455 649.091,102.879 649.091,104.636 C649.091,106.394 650.515,107.818 652.273,107.818 Z" />
            <path d="M652.273,120.545 L677.727,120.545 C679.485,120.545 680.909,119.121 680.909,117.364 C680.909,115.606 679.485,114.182 677.727,114.182 L652.273,114.182 C650.515,114.182 649.091,115.606 649.091,117.364 C649.091,119.121 650.515,120.545 652.273,120.545 Z" />
            <path d="M652.273,133.273 L668.182,133.273 C669.939,133.273 671.364,131.848 671.364,130.091 C671.364,128.334 669.939,126.909 668.182,126.909 L652.273,126.909 C650.515,126.909 649.091,128.334 649.091,130.091 C649.091,131.848 650.515,133.273 652.273,133.273 Z" />
        </g>
    </g>
</svg>