<?xml version="1.0" encoding="UTF-8"?>
<svg height="600" width="800" xmlns="http://www.w3.org/2000/svg" xmlns:xlink="http://www.w3.org/1999/xlink">
    <g id="Notes" font-family="LucidaGrande, 'Lucida Grande', sans-serif" font-size="13">
        <rect fill="white" height="600.0" width="800.0" x="0.0" y="0.0" />
        <g font-size="13">
            <text x="18.0" y="176.0">Small</text>
            <text x="18.0" y="376.0">Medium</text>
            <text x="18.0" y="576.0">Large</text>
        </g>
        <g font-size="9">
            <text x="250.0" y="30.0">Ultralight</text>
            <text x="450.0" y="30.0">Regular</text>
            <text x="650.0" y="30.0">Black</text>
            <text id="template-version" fill="#505050" text-anchor="end" x="785.0" y="575.0">Template v.3.0</text>
            <a href="https://github.com/swhitty/SwiftDraw">
                <text fill="#505050" text-anchor="end" x="785.0" y="590.0">https://github.com/swhitty/SwiftDraw</text>
            </a>
        </g>
    </g>
    <g id="Guides" stroke="rgb(39, 170, 225)" stroke-width="0.5">
        <path id="Capline-S" d="M18,76 l800,0" />
        <path id="H-reference" d="M85,145.755 L87.685,145.755 L113.369,79.287 L114.052,79.287 L114.052,76 L112.148,76 L85,145.755 Z M95.693,121.536 L130.996,121.536 L130.263,119.313 L96.474,119.313 L95.693,121.536 Z M139.15,145.755 L141.787,145.755 L114.638,76 L113.466,76 L113.466,79.287 L139.15,145.755 Z" stroke="none" transform="translate(0,200)" />
        <path id="Baseline-S" d="M18,146 l800,0" />
        <path id="left-margin-Ultralight-M" d="M230,256 l0,110" />
        <path id="right-margin-Ultralight-M" d="M300,256 l0,110" />
        <path id="left-margin-Regular-M" d="M430,256 l0,110" />
        <path id="right-margin-Regular-M" d="M500,256 l0,110" />
        <path id="left-margin-Black-M" d="M630,256 l0,110" />
        <path id="right-margin-Black-M" d="M700,256 l0,110" />
        <path id="Capline-M" d="M18,276 l800,0" />
        <path id="Baseline-M" d="M18,346 l800,0" />
        <path id="Capline-L" d="M18,476 l800,0" />
        <path id="Baseline-L" d="M18,546 l800,0" />
    </g>
    <g id="Symbols">
        <g id="Ultralight-M" transform="translate(0,200)">
            <path d="M276.076,105.095 C273.671,106.756 269.501,107.821 264.999,107.821 C260.497,107.821 256.327,106.756 253.922,105.095 C252.476,104.097 250.494,104.459 249.496,105.905 C248.497,107.351 248.86,109.332 250.306,110.331 C253.883,112.802 259.298,114.184 264.999,114.184 C270.7,114.184 276.115,112.802 279.692,110.331 C281.138,109.332 281.501,107.351 280.502,105.905 C279.504,104.459 277.522,104.097 276.076,105.095 Z" />
            <path d="M279.343,120.417 L293.597,126.907 C293.637,126.925 293.637,126.925 293.637,126.925 C293.637,126.925 293.637,126.925 293.637,126.925 L266.322,139.349 C265.481,139.733 264.517,139.733 263.679,139.35 L236.4,126.91 C236.363,126.894 236.363,126.894 236.363,126.894 C236.363,126.894 236.363,126.894 236.363,126.894 L250.663,120.389 C252.263,119.661 252.969,117.775 252.242,116.175 C251.514,114.576 249.628,113.869 248.028,114.597 L233.762,121.087 C231.489,122.089 230,124.373 230,126.894 C230,129.415 231.489,131.699 233.796,132.716 L261.038,145.139 C263.554,146.287 266.444,146.287 268.96,145.139 L296.236,132.733 C298.51,131.732 300.001,129.446 300,126.922 C299.999,124.397 298.505,122.113 296.194,121.098 L281.98,114.626 C280.381,113.898 278.495,114.604 277.766,116.203 C277.038,117.802 277.744,119.689 279.343,120.417 Z" />
            <path d="M277.685,118.683 C277.972,119.69 276.432,121.372 272.618,122.597 C268.014,124.075 261.978,124.075 257.374,122.597 C253.559,121.372 252.02,119.69 252.307,118.683 L261.897,84.827 C262.279,83.346 263.547,82.363 264.999,82.363 C266.451,82.363 267.719,83.346 268.08,84.752 L277.683,118.678 Z M283.806,116.944 L274.223,83.093 C273.158,78.949 269.355,76 264.999,76 C260.643,76 256.84,78.949 255.755,83.168 L246.186,116.944 C244.719,122.092 248.77,126.517 255.428,128.655 C261.298,130.539 268.694,130.539 274.563,128.655 C281.222,126.517 285.273,122.092 283.804,116.939 Z" />
            <path d="M255.05,96.74 C261.102,98.791 268.89,98.791 274.941,96.74 C276.605,96.176 277.497,94.37 276.933,92.706 C276.37,91.042 274.563,90.15 272.899,90.714 C268.172,92.316 261.819,92.316 257.093,90.714 C255.428,90.15 253.622,91.042 253.058,92.706 C252.494,94.37 253.386,96.176 255.05,96.74 Z" />
        </g>
        <g id="Regular-M" transform="translate(0,200)">
            <path d="M476.076,105.095 C473.671,106.756 469.501,107.821 464.999,107.821 C460.497,107.821 456.327,106.756 453.922,105.095 C452.476,104.097 450.494,104.459 449.496,105.905 C448.497,107.351 448.86,109.332 450.306,110.331 C453.883,112.802 459.298,114.184 464.999,114.184 C470.7,114.184 476.115,112.802 479.692,110.331 C481.138,109.332 481.501,107.351 480.502,105.905 C479.504,104.459 477.522,104.097 476.076,105.095 Z" />
            <path d="M479.343,120.417 L493.597,126.907 C493.637,126.925 493.637,126.925 493.637,126.925 C493.637,126.925 493.637,126.925 493.637,126.925 L466.322,139.349 C465.481,139.733 464.517,139.733 463.679,139.35 L436.4,126.91 C436.363,126.894 436.363,126.894 436.363,126.894 C436.363,126.894 436.363,126.894 436.363,126.894 L450.663,120.389 C452.263,119.661 452.969,117.775 452.242,116.175 C451.514,114.576 449.628,113.869 448.028,114.597 L433.762,121.087 C431.489,122.089 430,124.373 430,126.894 C430,129.415 431.489,131.699 433.796,132.716 L461.038,145.139 C463.554,146.287 466.444,146.287 468.96,145.139 L496.236,132.733 C498.51,131.732 500.001,129.446 500,126.922 C499.999,124.397 498.505,122.113 496.194,121.098 L481.98,114.626 C480.381,113.898 478.495,114.604 477.766,116.203 C477.038,117.802 477.744,119.689 479.343,120.417 Z" />
            <path d="M477.685,118.683 C477.972,119.69 476.432,121.372 472.618,122.597 C468.014,124.075 461.978,124.075 457.374,122.597 C453.559,121.372 452.02,119.69 452.307,118.683 L461.897,84.827 C462.279,83.346 463.547,82.363 464.999,82.363 C466.451,82.363 467.719,83.346 468.08,84.752 L477.683,118.678 Z M483.806,116.944 L474.223,83.093 C473.158,78.949 469.355,76 464.999,76 C460.643,76 456.84,78.949 455.755,83.168 L446.186,116.944 C444.719,122.092 448.77,126.517 455.428,128.655 C461.298,130.539 468.694,130.539 474.563,128.655 C481.222,126.517 485.273,122.092 483.804,116.939 Z" />
            <path d="M455.05,96.74 C461.102,98.791 468.89,98.791 474.941,96.74 C476.605,96.176 477.497,94.37 476.933,92.706 C476.37,91.042 474.563,90.15 472.899,90.714 C468.172,92.316 461.819,92.316 457.093,90.714 C455.428,90.15 453.622,91.042 453.058,92.706 C452.494,94.37 453.386,96.176 455.05,96.74 Z" />
        </g>
        <g id="Black-M" transform="translate(0,200)">
            <path d="M676.076,105.095 C673.671,106.756 669.501,107.821 664.999,107.821 C660.497,107.821 656.327,106.756 653.922,105.095 C652.476,104.097 650.494,104.459 649.496,105.905 C648.497,107.351 648.86,109.332 650.306,110.331 C653.883,112.802 659.298,114.184 664.999,114.184 C670.7,114.184 676.115,112.802 679.692,110.331 C681.138,109.332 681.501,107.351 680.502,105.905 C679.504,104.459 677.522,104.097 676.076,105.095 Z" />
            <path d="M679.343,120.417 L693.597,126.907 C693.637,126.925 693.637,126.925 693.637,126.925 C693.637,126.925 693.637,126.925 693.637,126.925 L666.322,139.349 C665.481,139.733 664.517,139.733 663.679,139.35 L636.4,126.91 C636.363,126.894 636.363,126.894 636.363,126.894 C636.363,126.894 636.363,126.894 636.363,126.894 L650.663,120.389 C652.263,119.661 652.969,117.775 652.242,116.175 C651.514,114.576 649.628,113.869 648.028,114.597 L633.762,121.087 C631.489,122.089 630,124.373 630,126.894 C630,129.415 631.489,131.699 633.796,132.716 L661.038,145.139 C663.554,146.287 666.444,146.287 668.96,145.139 L696.236,132.733 C698.51,131.732 700.001,129.446 700,126.922 C699.999,124.397 698.505,122.113 696.194,121.098 L681.98,114.626 C680.381,113.898 678.495,114.604 677.766,116.203 C677.038,117.802 677.744,119.689 679.343,120.417 Z" />
            <path d="M677.685,118.683 C677.972,119.69 676.432,121.372 672.618,122.597 C668.014,124.075 661.978,124.075 657.374,122.597 C653.559,121.372 652.02,119.69 652.307,118.683 L661.897,84.827 C662.279,83.346 663.547,82.363 664.999,82.363 C666.451,82.363 667.719,83.346 668.08,84.752 L677.683,118.678 Z M683.806,116.944 L674.223,83.093 C673.158,78.949 669.355,76 664.999,76 C660.643,76 656.84,78.949 655.755,83.168 L646.186,116.944 C644.719,122.092 648.77,126.517 655.429,128.655 C661.298,130.539 668.694,130.539 674.563,128.655 C681.222,126.517 685.273,122.092 683.804,116.939 Z" />
            <path d="M655.05,96.74 C661.102,98.791 668.89,98.791 674.941,96.74 C676.605,96.176 677.497,94.37 676.933,92.706 C676.37,91.042 674.563,90.15 672.899,90.714 C668.172,92.316 661.819,92.316 657.093,90.714 C655.428,90.15 653.622,91.042 653.058,92.706 C652.494,94.37 653.386,96.176 655.05,96.74 Z" />
        </g>
    </g>
</svg>