<?xml version="1.0" encoding="UTF-8"?>
<svg height="600" width="800" xmlns="http://www.w3.org/2000/svg" xmlns:xlink="http://www.w3.org/1999/xlink">
    <g id="Notes" font-family="LucidaGrande, 'Lucida Grande', sans-serif" font-size="13">
        <rect fill="white" height="600.0" width="800.0" x="0.0" y="0.0" />
        <g font-size="13">
            <text x="18.0" y="176.0">Small</text>
            <text x="18.0" y="376.0">Medium</text>
            <text x="18.0" y="576.0">Large</text>
        </g>
        <g font-size="9">
            <text x="250.0" y="30.0">Ultralight</text>
            <text x="450.0" y="30.0">Regular</text>
            <text x="650.0" y="30.0">Black</text>
            <text id="template-version" fill="#505050" text-anchor="end" x="785.0" y="575.0">Template v.3.0</text>
            <a href="https://github.com/swhitty/SwiftDraw">
                <text fill="#505050" text-anchor="end" x="785.0" y="590.0">https://github.com/swhitty/SwiftDraw</text>
            </a>
        </g>
    </g>
    <g id="Guides" stroke="rgb(39, 170, 225)" stroke-width="0.5">
        <path id="Capline-S" d="M18,76 l800,0" />
        <path id="H-reference" d="M85,145.755 L87.685,145.755 L113.369,79.287 L114.052,79.287 L114.052,76 L112.148,76 L85,145.755 Z M95.693,121.536 L130.996,121.536 L130.263,119.313 L96.474,119.313 L95.693,121.536 Z M139.15,145.755 L141.787,145.755 L114.638,76 L113.466,76 L113.466,79.287 L139.15,145.755 Z" stroke="none" transform="translate(0,200)" />
        <path id="Baseline-S" d="M18,146 l800,0" />
        <path id="left-margin-Ultralight-M" d="M228.333,256 l0,110" />
        <path id="right-margin-Ultralight-M" d="M301.667,256 l0,110" />
        <path id="left-margin-Regular-M" d="M428.333,256 l0,110" />
        <path id="right-margin-Regular-M" d="M501.667,256 l0,110" />
        <path id="left-margin-Black-M" d="M628.333,256 l0,110" />
        <path id="right-margin-Black-M" d="M701.667,256 l0,110" />
        <path id="Capline-M" d="M18,276 l800,0" />
        <path id="Baseline-M" d="M18,346 l800,0" />
        <path id="Capline-L" d="M18,476 l800,0" />
        <path id="Baseline-L" d="M18,546 l800,0" />
    </g>
    <g id="Symbols">
        <g id="Ultralight-M" transform="translate(0,200)">
            <path d="M268.332,139.636 L238.333,139.636 C236.492,139.636 235,138.212 235,136.454 C235,134.697 236.492,133.273 238.333,133.273 L278.331,133.273 C280.172,133.273 281.665,131.848 281.665,130.091 C281.665,128.334 280.172,126.909 278.331,126.909 L238.333,126.909 C232.81,126.909 228.333,131.183 228.333,136.454 C228.333,141.726 232.81,146 238.333,146 L268.332,146 C270.173,146 271.665,144.575 271.665,142.818 C271.665,141.061 270.173,139.636 268.332,139.636 Z" />
            <path d="M271.603,132.212 C275.089,128.492 275.975,123.17 273.869,118.601 C271.763,114.032 267.054,111.06 261.825,111 C259.984,110.979 258.474,112.386 258.452,114.144 C258.43,115.901 259.905,117.342 261.745,117.363 C264.36,117.393 266.715,118.879 267.768,121.164 C268.821,123.448 268.377,126.109 266.634,127.969 C265.407,129.279 265.524,131.291 266.896,132.462 C268.268,133.634 270.375,133.522 271.603,132.212 Z" />
            <path d="M278.331,104.636 L278.365,104.636 C280.206,104.636 281.698,103.211 281.698,101.454 C281.698,99.697 280.206,98.272 278.365,98.272 L278.331,98.272 C276.49,98.272 274.998,99.697 274.998,101.454 C274.998,103.211 276.49,104.636 278.331,104.636 Z" />
            <path d="M283.488,87.539 C285.373,85.633 288.29,85.027 290.836,86.01 C293.381,86.994 295.034,89.367 295,91.988 C294.966,94.609 293.251,96.942 290.681,97.865 C288.642,98.597 287.875,100.969 289.126,102.671 L295.175,110.902 L297.904,109.075 L294.854,110.359 C295.092,110.873 295.028,111.469 294.686,111.926 C294.344,112.383 293.774,112.634 293.188,112.586 L283.85,111.172 C279.985,110.548 275.991,111.605 272.987,114.064 C269.982,116.522 268.277,120.128 268.332,123.905 C268.358,125.662 269.871,127.067 271.712,127.042 C273.552,127.018 275.024,125.573 274.998,123.816 C274.97,121.927 275.823,120.125 277.325,118.895 C278.828,117.666 280.824,117.138 282.775,117.453 L292.385,118.9 C295.553,119.166 298.4,117.911 300.11,115.625 C301.821,113.339 302.141,110.361 300.954,107.79 L300.633,107.247 L294.583,99.016 L293.028,103.821 C298.168,101.976 301.597,97.31 301.666,92.068 C301.734,86.825 298.428,82.079 293.337,80.112 C288.247,78.144 282.413,79.358 278.641,83.169 C277.377,84.447 277.438,86.46 278.776,87.667 C280.114,88.874 282.224,88.816 283.488,87.539 Z" />
            <path d="M284.998,88.675 C284.973,82.981 280.989,77.995 275.242,76.468 C269.496,74.94 263.386,77.241 260.281,82.104 C257.176,86.966 257.832,93.205 261.888,97.381 L264.713,92.057 C257.146,91.226 249.568,93.523 243.89,98.37 C238.213,103.217 234.977,110.15 235,117.421 C235.034,126.186 242.486,133.273 251.666,133.273 C253.507,133.273 254.999,131.848 254.999,130.091 C254.999,128.333 253.507,126.909 251.666,126.909 C246.158,126.909 241.687,122.657 241.666,117.399 C241.649,111.949 244.076,106.749 248.334,103.114 C252.592,99.479 258.276,97.756 263.951,98.379 C267.025,98.716 268.88,95.221 266.776,93.055 C264.749,90.967 264.42,87.847 265.973,85.416 C267.525,82.985 270.581,81.834 273.454,82.598 C276.327,83.362 278.319,85.855 278.331,88.702 C278.339,90.459 279.838,91.878 281.678,91.87 C283.519,91.863 285.005,90.433 284.998,88.675 Z" />
        </g>
        <g id="Regular-M" transform="translate(0,200)">
            <path d="M468.332,139.636 L438.333,139.636 C436.492,139.636 435,138.212 435,136.454 C435,134.697 436.492,133.273 438.333,133.273 L478.331,133.273 C480.172,133.273 481.665,131.848 481.665,130.091 C481.665,128.334 480.172,126.909 478.331,126.909 L438.333,126.909 C432.81,126.909 428.333,131.183 428.333,136.454 C428.333,141.726 432.81,146 438.333,146 L468.332,146 C470.173,146 471.665,144.575 471.665,142.818 C471.665,141.061 470.173,139.636 468.332,139.636 Z" />
            <path d="M471.603,132.212 C475.089,128.492 475.975,123.17 473.869,118.601 C471.763,114.032 467.054,111.06 461.825,111 C459.984,110.979 458.474,112.386 458.452,114.144 C458.43,115.901 459.905,117.342 461.745,117.363 C464.36,117.393 466.715,118.879 467.768,121.164 C468.821,123.448 468.377,126.109 466.634,127.969 C465.407,129.279 465.524,131.291 466.896,132.462 C468.268,133.634 470.375,133.522 471.603,132.212 Z" />
            <path d="M478.331,104.636 L478.365,104.636 C480.206,104.636 481.698,103.211 481.698,101.454 C481.698,99.697 480.206,98.272 478.365,98.272 L478.331,98.272 C476.49,98.272 474.998,99.697 474.998,101.454 C474.998,103.211 476.49,104.636 478.331,104.636 Z" />
            <path d="M483.488,87.539 C485.373,85.633 488.29,85.027 490.836,86.01 C493.381,86.994 495.034,89.367 495,91.988 C494.966,94.609 493.251,96.942 490.681,97.865 C488.642,98.597 487.875,100.969 489.126,102.671 L495.175,110.902 L497.904,109.075 L494.854,110.359 C495.092,110.873 495.028,111.469 494.686,111.926 C494.344,112.383 493.774,112.634 493.188,112.586 L483.85,111.172 C479.985,110.548 475.991,111.605 472.987,114.064 C469.982,116.522 468.277,120.128 468.332,123.905 C468.358,125.662 469.871,127.067 471.712,127.042 C473.552,127.018 475.024,125.573 474.998,123.816 C474.97,121.927 475.823,120.125 477.325,118.895 C478.828,117.666 480.824,117.138 482.775,117.453 L492.385,118.9 C495.553,119.166 498.4,117.911 500.11,115.625 C501.821,113.339 502.141,110.361 500.954,107.79 L500.633,107.247 L494.583,99.016 L493.028,103.821 C498.168,101.976 501.597,97.31 501.666,92.068 C501.734,86.825 498.428,82.079 493.337,80.112 C488.247,78.144 482.413,79.358 478.641,83.169 C477.377,84.447 477.438,86.46 478.776,87.667 C480.114,88.874 482.224,88.816 483.488,87.539 Z" />
            <path d="M484.998,88.675 C484.973,82.981 480.989,77.995 475.242,76.468 C469.496,74.94 463.386,77.241 460.281,82.104 C457.176,86.966 457.832,93.205 461.888,97.381 L464.713,92.057 C457.146,91.226 449.568,93.523 443.89,98.37 C438.213,103.217 434.977,110.15 435,117.421 C435.034,126.186 442.486,133.273 451.666,133.273 C453.507,133.273 454.999,131.848 454.999,130.091 C454.999,128.333 453.507,126.909 451.666,126.909 C446.158,126.909 441.687,122.657 441.666,117.399 C441.649,111.949 444.076,106.749 448.334,103.114 C452.592,99.479 458.276,97.756 463.951,98.379 C467.025,98.716 468.88,95.221 466.776,93.055 C464.749,90.967 464.42,87.847 465.973,85.416 C467.525,82.985 470.581,81.834 473.454,82.598 C476.327,83.362 478.319,85.855 478.331,88.702 C478.339,90.459 479.838,91.878 481.678,91.87 C483.519,91.863 485.005,90.433 484.998,88.675 Z" />
        </g>
        <g id="Black-M" transform="translate(0,200)">
            <path d="M668.332,139.636 L638.333,139.636 C636.492,139.636 635,138.212 635,136.454 C635,134.697 636.492,133.273 638.333,133.273 L678.331,133.273 C680.172,133.273 681.665,131.848 681.665,130.091 C681.665,128.334 680.172,126.909 678.331,126.909 L638.333,126.909 C632.81,126.909 628.333,131.183 628.333,136.454 C628.333,141.726 632.81,146 638.333,146 L668.332,146 C670.173,146 671.665,144.575 671.665,142.818 C671.665,141.061 670.173,139.636 668.332,139.636 Z" />
            <path d="M671.603,132.212 C675.089,128.492 675.975,123.17 673.869,118.601 C671.763,114.032 667.054,111.06 661.825,111 C659.984,110.979 658.474,112.386 658.452,114.144 C658.43,115.901 659.905,117.342 661.745,117.363 C664.36,117.393 666.715,118.879 667.768,121.164 C668.821,123.448 668.377,126.109 666.634,127.969 C665.407,129.279 665.524,131.291 666.896,132.462 C668.268,133.634 670.375,133.522 671.603,132.212 Z" />
            <path d="M678.331,104.636 L678.365,104.636 C680.206,104.636 681.698,103.211 681.698,101.454 C681.698,99.697 680.206,98.272 678.365,98.272 L678.331,98.272 C676.49,98.272 674.998,99.697 674.998,101.454 C674.998,103.211 676.49,104.636 678.331,104.636 Z" />
            <path d="M683.488,87.539 C685.373,85.633 688.29,85.027 690.836,86.01 C693.381,86.994 695.034,89.367 695,91.988 C694.965,94.609 693.251,96.942 690.681,97.865 C688.642,98.597 687.875,100.969 689.125,102.671 L695.175,110.902 L697.904,109.075 L694.854,110.359 C695.092,110.873 695.028,111.469 694.686,111.926 C694.344,112.383 693.774,112.634 693.188,112.586 L683.85,111.172 C679.985,110.548 675.991,111.605 672.987,114.064 C669.982,116.522 668.277,120.128 668.332,123.905 C668.358,125.662 669.871,127.067 671.712,127.042 C673.552,127.018 675.024,125.573 674.998,123.816 C674.97,121.927 675.823,120.125 677.325,118.895 C678.827,117.666 680.824,117.138 682.775,117.453 L692.385,118.9 C695.553,119.166 698.4,117.911 700.11,115.625 C701.821,113.339 702.141,110.361 700.953,107.79 L700.633,107.247 L694.583,99.016 L693.028,103.821 C698.168,101.976 701.597,97.31 701.666,92.068 C701.734,86.825 698.428,82.079 693.337,80.112 C688.247,78.144 682.413,79.358 678.641,83.169 C677.377,84.447 677.437,86.46 678.776,87.667 C680.114,88.874 682.224,88.816 683.488,87.539 Z" />
            <path d="M684.998,88.675 C684.973,82.981 680.989,77.995 675.242,76.468 C669.496,74.94 663.385,77.241 660.281,82.104 C657.176,86.966 657.832,93.205 661.888,97.381 L664.713,92.057 C657.146,91.226 649.568,93.523 643.89,98.37 C638.213,103.217 634.977,110.15 635,117.421 C635.034,126.186 642.486,133.273 651.666,133.273 C653.507,133.273 654.999,131.848 654.999,130.091 C654.999,128.333 653.507,126.909 651.666,126.909 C646.158,126.909 641.687,122.657 641.666,117.399 C641.649,111.949 644.076,106.749 648.334,103.114 C652.592,99.479 658.276,97.756 663.951,98.379 C667.025,98.716 668.88,95.221 666.776,93.055 C664.748,90.967 664.42,87.847 665.973,85.416 C667.525,82.985 670.58,81.834 673.454,82.598 C676.327,83.362 678.319,85.855 678.331,88.702 C678.339,90.459 679.837,91.878 681.678,91.87 C683.519,91.863 685.005,90.433 684.998,88.675 Z" />
        </g>
    </g>
</svg>