<?xml version="1.0" encoding="UTF-8"?>
<svg height="600" width="800" xmlns="http://www.w3.org/2000/svg" xmlns:xlink="http://www.w3.org/1999/xlink">
    <g id="Notes" font-family="LucidaGrande, 'Lucida Grande', sans-serif" font-size="13">
        <rect fill="white" height="600.0" width="800.0" x="0.0" y="0.0" />
        <g font-size="13">
            <text x="18.0" y="176.0">Small</text>
            <text x="18.0" y="376.0">Medium</text>
            <text x="18.0" y="576.0">Large</text>
        </g>
        <g font-size="9">
            <text x="250.0" y="30.0">Ultralight</text>
            <text x="450.0" y="30.0">Regular</text>
            <text x="650.0" y="30.0">Black</text>
            <text id="template-version" fill="#505050" text-anchor="end" x="785.0" y="575.0">Template v.3.0</text>
            <a href="https://github.com/swhitty/SwiftDraw">
                <text fill="#505050" text-anchor="end" x="785.0" y="590.0">https://github.com/swhitty/SwiftDraw</text>
            </a>
        </g>
    </g>
    <g id="Guides" stroke="rgb(39, 170, 225)" stroke-width="0.5">
        <path id="Capline-S" d="M18,76 l800,0" />
        <path id="H-reference" d="M85,145.755 L87.685,145.755 L113.369,79.287 L114.052,79.287 L114.052,76 L112.148,76 L85,145.755 Z M95.693,121.536 L130.996,121.536 L130.263,119.313 L96.474,119.313 L95.693,121.536 Z M139.15,145.755 L141.787,145.755 L114.638,76 L113.466,76 L113.466,79.287 L139.15,145.755 Z" stroke="none" transform="translate(0,200)" />
        <path id="Baseline-S" d="M18,146 l800,0" />
        <path id="left-margin-Ultralight-M" d="M224.474,256 l0,110" />
        <path id="right-margin-Ultralight-M" d="M305.526,256 l0,110" />
        <path id="left-margin-Regular-M" d="M424.474,256 l0,110" />
        <path id="right-margin-Regular-M" d="M505.526,256 l0,110" />
        <path id="left-margin-Black-M" d="M624.474,256 l0,110" />
        <path id="right-margin-Black-M" d="M705.526,256 l0,110" />
        <path id="Capline-M" d="M18,276 l800,0" />
        <path id="Baseline-M" d="M18,346 l800,0" />
        <path id="Capline-L" d="M18,476 l800,0" />
        <path id="Baseline-L" d="M18,546 l800,0" />
    </g>
    <g id="Symbols">
        <g id="Ultralight-M" transform="translate(0,200)">
            <path d="M231.842,103.079 L231.842,87.053 C231.842,86.076 232.23,85.139 232.921,84.448 C233.612,83.757 234.549,83.369 235.526,83.369 L249.895,83.369 C251.183,83.356 252.355,83.981 253.044,85.026 L256.052,89.483 C258.073,92.552 261.54,94.421 265.257,94.421 L294.474,94.421 C295.451,94.421 296.388,94.809 297.079,95.5 C297.77,96.191 298.158,97.128 298.158,98.106 L298.158,134.947 C298.158,135.925 297.77,136.862 297.079,137.553 C296.388,138.243 295.451,138.632 294.474,138.632 L235.526,138.632 C234.549,138.632 233.612,138.243 232.921,137.553 C232.23,136.862 231.842,135.925 231.842,134.947 L231.842,123.895 C231.842,122.918 232.23,121.981 232.921,121.29 C233.612,120.599 234.549,120.211 235.526,120.211 L261.316,120.211 C263.351,120.211 265,118.561 265,116.526 C265,114.492 263.351,112.842 261.316,112.842 L235.526,112.842 C232.595,112.842 229.784,114.007 227.711,116.079 C225.638,118.152 224.474,120.964 224.474,123.895 L224.474,134.947 C224.474,137.879 225.638,140.69 227.711,142.763 C229.784,144.836 232.595,146 235.526,146 L294.474,146 C297.405,146 300.216,144.836 302.289,142.763 C304.362,140.69 305.526,137.879 305.526,134.947 L305.526,98.106 C305.526,95.174 304.362,92.363 302.289,90.29 C300.216,88.217 297.405,87.053 294.474,87.053 L265.258,87.053 C264.02,87.053 262.864,86.43 262.182,85.395 L259.175,80.939 C257.132,77.837 253.615,75.964 249.859,76.001 L235.526,76 C232.595,76 229.784,77.165 227.711,79.238 C225.638,81.31 224.474,84.122 224.474,87.053 L224.474,103.079 C224.474,105.114 226.123,106.763 228.158,106.763 C230.193,106.763 231.842,105.114 231.842,103.079 Z" />
            <path d="M252.868,130.184 L263.921,119.132 C265.36,117.693 265.36,115.36 263.921,113.921 L252.868,102.869 C251.43,101.43 249.097,101.43 247.658,102.869 C246.219,104.308 246.219,106.64 247.658,108.079 L258.711,119.132 L258.711,113.921 L247.658,124.974 C246.219,126.413 246.219,128.745 247.658,130.184 C249.097,131.623 251.43,131.623 252.868,130.184 Z" />
        </g>
        <g id="Regular-M" transform="translate(0,200)">
            <path d="M431.842,103.079 L431.842,87.053 C431.842,86.076 432.23,85.139 432.921,84.448 C433.612,83.757 434.549,83.369 435.526,83.369 L449.895,83.369 C451.183,83.356 452.355,83.981 453.044,85.026 L456.052,89.483 C458.073,92.552 461.54,94.421 465.257,94.421 L494.474,94.421 C495.451,94.421 496.388,94.809 497.079,95.5 C497.77,96.191 498.158,97.128 498.158,98.106 L498.158,134.947 C498.158,135.925 497.77,136.862 497.079,137.553 C496.388,138.243 495.451,138.632 494.474,138.632 L435.526,138.632 C434.549,138.632 433.612,138.243 432.921,137.553 C432.23,136.862 431.842,135.925 431.842,134.947 L431.842,123.895 C431.842,122.918 432.23,121.981 432.921,121.29 C433.612,120.599 434.549,120.211 435.526,120.211 L461.316,120.211 C463.351,120.211 465,118.561 465,116.526 C465,114.492 463.351,112.842 461.316,112.842 L435.526,112.842 C432.595,112.842 429.784,114.007 427.711,116.079 C425.638,118.152 424.474,120.964 424.474,123.895 L424.474,134.947 C424.474,137.879 425.638,140.69 427.711,142.763 C429.784,144.836 432.595,146 435.526,146 L494.474,146 C497.405,146 500.216,144.836 502.289,142.763 C504.362,140.69 505.526,137.879 505.526,134.947 L505.526,98.106 C505.526,95.174 504.362,92.363 502.289,90.29 C500.216,88.217 497.405,87.053 494.474,87.053 L465.258,87.053 C464.02,87.053 462.864,86.43 462.182,85.395 L459.175,80.939 C457.132,77.837 453.615,75.964 449.859,76.001 L435.526,76 C432.595,76 429.784,77.165 427.711,79.238 C425.638,81.31 424.474,84.122 424.474,87.053 L424.474,103.079 C424.474,105.114 426.123,106.763 428.158,106.763 C430.193,106.763 431.842,105.114 431.842,103.079 Z" />
            <path d="M452.868,130.184 L463.921,119.132 C465.36,117.693 465.36,115.36 463.921,113.921 L452.868,102.869 C451.43,101.43 449.097,101.43 447.658,102.869 C446.219,104.308 446.219,106.64 447.658,108.079 L458.711,119.132 L458.711,113.921 L447.658,124.974 C446.219,126.413 446.219,128.745 447.658,130.184 C449.097,131.623 451.43,131.623 452.868,130.184 Z" />
        </g>
        <g id="Black-M" transform="translate(0,200)">
            <path d="M631.842,103.079 L631.842,87.053 C631.842,86.076 632.23,85.139 632.921,84.448 C633.612,83.757 634.549,83.369 635.526,83.369 L649.895,83.369 C651.183,83.356 652.355,83.981 653.044,85.026 L656.052,89.483 C658.073,92.552 661.54,94.421 665.257,94.421 L694.474,94.421 C695.451,94.421 696.388,94.809 697.079,95.5 C697.77,96.191 698.158,97.128 698.158,98.106 L698.158,134.947 C698.158,135.925 697.77,136.862 697.079,137.553 C696.388,138.243 695.451,138.632 694.474,138.632 L635.526,138.632 C634.549,138.632 633.612,138.243 632.921,137.553 C632.23,136.862 631.842,135.925 631.842,134.947 L631.842,123.895 C631.842,122.918 632.23,121.981 632.921,121.29 C633.612,120.599 634.549,120.211 635.526,120.211 L661.316,120.211 C663.351,120.211 665,118.561 665,116.526 C665,114.492 663.351,112.842 661.316,112.842 L635.526,112.842 C632.595,112.842 629.784,114.007 627.711,116.079 C625.638,118.152 624.474,120.964 624.474,123.895 L624.474,134.947 C624.474,137.879 625.638,140.69 627.711,142.763 C629.784,144.836 632.595,146 635.526,146 L694.474,146 C697.405,146 700.216,144.836 702.289,142.763 C704.362,140.69 705.526,137.879 705.526,134.947 L705.526,98.106 C705.526,95.174 704.362,92.363 702.289,90.29 C700.216,88.217 697.405,87.053 694.474,87.053 L665.258,87.053 C664.02,87.053 662.864,86.43 662.182,85.395 L659.175,80.939 C657.132,77.837 653.615,75.964 649.859,76.001 L635.526,76 C632.595,76 629.784,77.165 627.711,79.238 C625.638,81.31 624.474,84.122 624.474,87.053 L624.474,103.079 C624.474,105.114 626.123,106.763 628.158,106.763 C630.193,106.763 631.842,105.114 631.842,103.079 Z" />
            <path d="M652.868,130.184 L663.921,119.132 C665.36,117.693 665.36,115.36 663.921,113.921 L652.868,102.869 C651.43,101.43 649.097,101.43 647.658,102.869 C646.219,104.308 646.219,106.64 647.658,108.079 L658.711,119.132 L658.711,113.921 L647.658,124.974 C646.219,126.413 646.219,128.745 647.658,130.184 C649.097,131.623 651.43,131.623 652.868,130.184 Z" />
        </g>
    </g>
</svg>