<?xml version="1.0" encoding="UTF-8"?>
<svg height="600" width="800" xmlns="http://www.w3.org/2000/svg" xmlns:xlink="http://www.w3.org/1999/xlink">
    <g id="Notes" font-family="LucidaGrande, 'Lucida Grande', sans-serif" font-size="13">
        <rect fill="white" height="600.0" width="800.0" x="0.0" y="0.0" />
        <g font-size="13">
            <text x="18.0" y="176.0">Small</text>
            <text x="18.0" y="376.0">Medium</text>
            <text x="18.0" y="576.0">Large</text>
        </g>
        <g font-size="9">
            <text x="250.0" y="30.0">Ultralight</text>
            <text x="450.0" y="30.0">Regular</text>
            <text x="650.0" y="30.0">Black</text>
            <text id="template-version" fill="#505050" text-anchor="end" x="785.0" y="575.0">Template v.3.0</text>
            <a href="https://github.com/swhitty/SwiftDraw">
                <text fill="#505050" text-anchor="end" x="785.0" y="590.0">https://github.com/swhitty/SwiftDraw</text>
            </a>
        </g>
    </g>
    <g id="Guides" stroke="rgb(39, 170, 225)" stroke-width="0.5">
        <path id="Capline-S" d="M18,76 l800,0" />
        <path id="H-reference" d="M85,145.755 L87.685,145.755 L113.369,79.287 L114.052,79.287 L114.052,76 L112.148,76 L85,145.755 Z M95.693,121.536 L130.996,121.536 L130.263,119.313 L96.474,119.313 L95.693,121.536 Z M139.15,145.755 L141.787,145.755 L114.638,76 L113.466,76 L113.466,79.287 L139.15,145.755 Z" stroke="none" transform="translate(0,200)" />
        <path id="Baseline-S" d="M18,146 l800,0" />
        <path id="left-margin-Ultralight-M" d="M238.333,256 l0,110" />
        <path id="right-margin-Ultralight-M" d="M291.667,256 l0,110" />
        <path id="left-margin-Regular-M" d="M438.333,256 l0,110" />
        <path id="right-margin-Regular-M" d="M491.667,256 l0,110" />
        <path id="left-margin-Black-M" d="M638.333,256 l0,110" />
        <path id="right-margin-Black-M" d="M691.667,256 l0,110" />
        <path id="Capline-M" d="M18,276 l800,0" />
        <path id="Baseline-M" d="M18,346 l800,0" />
        <path id="Capline-L" d="M18,476 l800,0" />
        <path id="Baseline-L" d="M18,546 l800,0" />
    </g>
    <g id="Symbols">
        <g id="Ultralight-M" transform="translate(0,200)">
            <path d="M261.766,80.142 C264.157,89.707 268.981,97.546 276.199,103.561 C282.155,108.524 285,113.74 285,119.333 C285,130.379 276.046,139.333 265,139.333 C253.954,139.333 245,130.379 245,119.333 C245,116.448 245.936,113.641 247.667,111.333 L241.667,109.333 C241.667,115.777 246.89,121 253.333,121 C259.777,121 265,115.777 265,109.333 C265,105.887 264.242,103.697 262.148,99.509 C260.492,96.197 260,94.776 260,92.667 C260,89.397 262.243,85.808 267.082,81.936 C268.52,80.786 268.753,78.689 267.603,77.251 C266.453,75.813 264.355,75.58 262.918,76.73 C256.646,81.748 253.333,87.048 253.333,92.667 C253.333,96.113 254.092,98.303 256.185,102.491 C257.842,105.803 258.333,107.224 258.333,109.333 C258.333,112.095 256.095,114.333 253.333,114.333 C250.572,114.333 248.333,112.095 248.333,109.333 C248.333,106.13 244.255,104.771 242.333,107.333 C239.737,110.795 238.333,115.006 238.333,119.333 C238.333,134.061 250.272,146 265,146 C279.728,146 291.667,134.061 291.667,119.333 C291.667,111.594 287.845,104.587 280.467,98.439 C274.352,93.343 270.287,86.738 268.234,78.525 C267.787,76.739 265.978,75.653 264.192,76.1 C262.406,76.546 261.32,78.356 261.766,80.142 Z" />
        </g>
        <g id="Regular-M" transform="translate(0,200)">
            <path d="M461.766,80.142 C464.157,89.707 468.981,97.546 476.199,103.561 C482.155,108.524 485,113.74 485,119.333 C485,130.379 476.046,139.333 465,139.333 C453.954,139.333 445,130.379 445,119.333 C445,116.448 445.936,113.641 447.667,111.333 L441.667,109.333 C441.667,115.777 446.89,121 453.333,121 C459.777,121 465,115.777 465,109.333 C465,105.887 464.242,103.697 462.148,99.509 C460.492,96.197 460,94.776 460,92.667 C460,89.397 462.243,85.808 467.082,81.936 C468.52,80.786 468.753,78.689 467.603,77.251 C466.453,75.813 464.355,75.58 462.918,76.73 C456.646,81.748 453.333,87.048 453.333,92.667 C453.333,96.113 454.092,98.303 456.185,102.491 C457.842,105.803 458.333,107.224 458.333,109.333 C458.333,112.095 456.095,114.333 453.333,114.333 C450.572,114.333 448.333,112.095 448.333,109.333 C448.333,106.13 444.255,104.771 442.333,107.333 C439.737,110.795 438.333,115.006 438.333,119.333 C438.333,134.061 450.272,146 465,146 C479.728,146 491.667,134.061 491.667,119.333 C491.667,111.594 487.845,104.587 480.467,98.439 C474.352,93.343 470.287,86.738 468.234,78.525 C467.787,76.739 465.978,75.653 464.192,76.1 C462.406,76.546 461.32,78.356 461.766,80.142 Z" />
        </g>
        <g id="Black-M" transform="translate(0,200)">
            <path d="M661.766,80.142 C664.157,89.707 668.981,97.546 676.199,103.561 C682.155,108.524 685,113.74 685,119.333 C685,130.379 676.046,139.333 665,139.333 C653.954,139.333 645,130.379 645,119.333 C645,116.448 645.936,113.641 647.667,111.333 L641.667,109.333 C641.667,115.777 646.89,121 653.333,121 C659.777,121 665,115.777 665,109.333 C665,105.887 664.242,103.697 662.148,99.509 C660.492,96.197 660,94.776 660,92.667 C660,89.397 662.243,85.808 667.082,81.936 C668.52,80.786 668.753,78.689 667.603,77.251 C666.453,75.813 664.355,75.58 662.918,76.73 C656.646,81.748 653.333,87.048 653.333,92.667 C653.333,96.113 654.092,98.303 656.185,102.491 C657.842,105.803 658.333,107.224 658.333,109.333 C658.333,112.095 656.095,114.333 653.333,114.333 C650.572,114.333 648.333,112.095 648.333,109.333 C648.333,106.13 644.255,104.771 642.333,107.333 C639.737,110.795 638.333,115.006 638.333,119.333 C638.333,134.061 650.272,146 665,146 C679.728,146 691.667,134.061 691.667,119.333 C691.667,111.594 687.845,104.587 680.467,98.439 C674.352,93.343 670.287,86.738 668.234,78.525 C667.787,76.739 665.978,75.653 664.192,76.1 C662.406,76.546 661.32,78.356 661.766,80.142 Z" />
        </g>
    </g>
</svg>