<?xml version="1.0" encoding="UTF-8"?>
<svg height="600" width="800" xmlns="http://www.w3.org/2000/svg" xmlns:xlink="http://www.w3.org/1999/xlink">
    <g id="Notes" font-family="LucidaGrande, 'Lucida Grande', sans-serif" font-size="13">
        <rect fill="white" height="600.0" width="800.0" x="0.0" y="0.0" />
        <g font-size="13">
            <text x="18.0" y="176.0">Small</text>
            <text x="18.0" y="376.0">Medium</text>
            <text x="18.0" y="576.0">Large</text>
        </g>
        <g font-size="9">
            <text x="250.0" y="30.0">Ultralight</text>
            <text x="450.0" y="30.0">Regular</text>
            <text x="650.0" y="30.0">Black</text>
            <text id="template-version" fill="#505050" text-anchor="end" x="785.0" y="575.0">Template v.3.0</text>
            <a href="https://github.com/swhitty/SwiftDraw">
                <text fill="#505050" text-anchor="end" x="785.0" y="590.0">https://github.com/swhitty/SwiftDraw</text>
            </a>
        </g>
    </g>
    <g id="Guides" stroke="rgb(39, 170, 225)" stroke-width="0.5">
        <path id="Capline-S" d="M18,76 l800,0" />
        <path id="H-reference" d="M85,145.755 L87.685,145.755 L113.369,79.287 L114.052,79.287 L114.052,76 L112.148,76 L85,145.755 Z M95.693,121.536 L130.996,121.536 L130.263,119.313 L96.474,119.313 L95.693,121.536 Z M139.15,145.755 L141.787,145.755 L114.638,76 L113.466,76 L113.466,79.287 L139.15,145.755 Z" stroke="none" transform="translate(0,200)" />
        <path id="Baseline-S" d="M18,146 l800,0" />
        <path id="left-margin-Ultralight-M" d="M233.5,256 l0,110" />
        <path id="right-margin-Ultralight-M" d="M296.5,256 l0,110" />
        <path id="left-margin-Regular-M" d="M433.5,256 l0,110" />
        <path id="right-margin-Regular-M" d="M496.5,256 l0,110" />
        <path id="left-margin-Black-M" d="M633.5,256 l0,110" />
        <path id="right-margin-Black-M" d="M696.5,256 l0,110" />
        <path id="Capline-M" d="M18,276 l800,0" />
        <path id="Baseline-M" d="M18,346 l800,0" />
        <path id="Capline-L" d="M18,476 l800,0" />
        <path id="Baseline-L" d="M18,546 l800,0" />
    </g>
    <g id="Symbols">
        <g id="Ultralight-M" transform="translate(0,200)">
            <path d="M240.13,123.065 L261.13,81.065 L254.87,81.065 L275.87,123.065 C276.734,124.794 278.836,125.495 280.565,124.63 C282.294,123.766 282.995,121.664 282.13,119.935 L261.13,77.935 C259.841,75.355 256.159,75.355 254.87,77.935 L233.87,119.935 C233.005,121.664 233.706,123.766 235.435,124.63 C237.164,125.495 239.266,124.794 240.13,123.065 Z" />
            <path d="M244,111 L272,111 C273.933,111 275.5,109.433 275.5,107.5 C275.5,105.567 273.933,104 272,104 L244,104 C242.067,104 240.5,105.567 240.5,107.5 C240.5,109.433 242.067,111 244,111 Z" />
            <path d="M269.525,137.975 L276.525,144.975 C277.892,146.342 280.108,146.342 281.475,144.975 L295.475,130.975 C296.842,129.608 296.842,127.392 295.475,126.025 C294.108,124.658 291.892,124.658 290.525,126.025 L276.525,140.025 L281.475,140.025 L274.475,133.025 C273.108,131.658 270.892,131.658 269.525,133.025 C268.158,134.392 268.158,136.608 269.525,137.975 Z" />
        </g>
        <g id="Regular-M" transform="translate(0,200)">
            <path d="M440.13,123.065 L461.13,81.065 L454.87,81.065 L475.87,123.065 C476.734,124.794 478.836,125.495 480.565,124.63 C482.294,123.766 482.995,121.664 482.13,119.935 L461.13,77.935 C459.841,75.355 456.159,75.355 454.87,77.935 L433.87,119.935 C433.005,121.664 433.706,123.766 435.435,124.63 C437.164,125.495 439.266,124.794 440.13,123.065 Z" />
            <path d="M444,111 L472,111 C473.933,111 475.5,109.433 475.5,107.5 C475.5,105.567 473.933,104 472,104 L444,104 C442.067,104 440.5,105.567 440.5,107.5 C440.5,109.433 442.067,111 444,111 Z" />
            <path d="M469.525,137.975 L476.525,144.975 C477.892,146.342 480.108,146.342 481.475,144.975 L495.475,130.975 C496.842,129.608 496.842,127.392 495.475,126.025 C494.108,124.658 491.892,124.658 490.525,126.025 L476.525,140.025 L481.475,140.025 L474.475,133.025 C473.108,131.658 470.892,131.658 469.525,133.025 C468.158,134.392 468.158,136.608 469.525,137.975 Z" />
        </g>
        <g id="Black-M" transform="translate(0,200)">
            <path d="M640.13,123.065 L661.13,81.065 L654.87,81.065 L675.87,123.065 C676.734,124.794 678.836,125.495 680.565,124.63 C682.294,123.766 682.995,121.664 682.13,119.935 L661.13,77.935 C659.841,75.355 656.159,75.355 654.87,77.935 L633.87,119.935 C633.005,121.664 633.706,123.766 635.435,124.63 C637.164,125.495 639.266,124.794 640.13,123.065 Z" />
            <path d="M644,111 L672,111 C673.933,111 675.5,109.433 675.5,107.5 C675.5,105.567 673.933,104 672,104 L644,104 C642.067,104 640.5,105.567 640.5,107.5 C640.5,109.433 642.067,111 644,111 Z" />
            <path d="M669.525,137.975 L676.525,144.975 C677.892,146.342 680.108,146.342 681.475,144.975 L695.475,130.975 C696.842,129.608 696.842,127.392 695.475,126.025 C694.108,124.658 691.892,124.658 690.525,126.025 L676.525,140.025 L681.475,140.025 L674.475,133.025 C673.108,131.658 670.892,131.658 669.525,133.025 C668.158,134.392 668.158,136.608 669.525,137.975 Z" />
        </g>
    </g>
</svg>