<?xml version="1.0" encoding="UTF-8"?>
<svg height="600" width="800" xmlns="http://www.w3.org/2000/svg" xmlns:xlink="http://www.w3.org/1999/xlink">
    <g id="Notes" font-family="LucidaGrande, 'Lucida Grande', sans-serif" font-size="13">
        <rect fill="white" height="600.0" width="800.0" x="0.0" y="0.0" />
        <g font-size="13">
            <text x="18.0" y="176.0">Small</text>
            <text x="18.0" y="376.0">Medium</text>
            <text x="18.0" y="576.0">Large</text>
        </g>
        <g font-size="9">
            <text x="250.0" y="30.0">Ultralight</text>
            <text x="450.0" y="30.0">Regular</text>
            <text x="650.0" y="30.0">Black</text>
            <text id="template-version" fill="#505050" text-anchor="end" x="785.0" y="575.0">Template v.3.0</text>
            <a href="https://github.com/swhitty/SwiftDraw">
                <text fill="#505050" text-anchor="end" x="785.0" y="590.0">https://github.com/swhitty/SwiftDraw</text>
            </a>
        </g>
    </g>
    <g id="Guides" stroke="rgb(39, 170, 225)" stroke-width="0.5">
        <path id="Capline-S" d="M18,76 l800,0" />
        <path id="H-reference" d="M85,145.755 L87.685,145.755 L113.369,79.287 L114.052,79.287 L114.052,76 L112.148,76 L85,145.755 Z M95.693,121.536 L130.996,121.536 L130.263,119.313 L96.474,119.313 L95.693,121.536 Z M139.15,145.755 L141.787,145.755 L114.638,76 L113.466,76 L113.466,79.287 L139.15,145.755 Z" stroke="none" transform="translate(0,200)" />
        <path id="Baseline-S" d="M18,146 l800,0" />
        <path id="left-margin-Ultralight-M" d="M244.318,256 l0,110" />
        <path id="right-margin-Ultralight-M" d="M285.682,256 l0,110" />
        <path id="left-margin-Regular-M" d="M444.318,256 l0,110" />
        <path id="right-margin-Regular-M" d="M485.682,256 l0,110" />
        <path id="left-margin-Black-M" d="M644.318,256 l0,110" />
        <path id="right-margin-Black-M" d="M685.682,256 l0,110" />
        <path id="Capline-M" d="M18,276 l800,0" />
        <path id="Baseline-M" d="M18,346 l800,0" />
        <path id="Capline-L" d="M18,476 l800,0" />
        <path id="Baseline-L" d="M18,546 l800,0" />
    </g>
    <g id="Symbols">
        <g id="Ultralight-M" transform="translate(0,200)">
            <path d="M262.044,104.636 L262.044,142.818 C262.044,144.575 263.367,146 264.999,146 C266.63,146 267.953,144.575 267.953,142.818 L267.953,104.636 C267.953,102.879 266.63,101.455 264.999,101.455 C263.367,101.455 262.044,102.879 262.044,104.636 Z" />
            <path d="M279.773,98.273 C279.773,98.273 279.773,98.273 279.773,98.273 C279.773,98.273 279.773,98.273 279.773,98.273 L250.226,98.273 C250.227,98.273 250.227,98.273 250.227,98.273 C250.227,98.273 250.227,98.273 250.227,98.273 L256.136,82.365 C256.137,82.364 256.137,82.364 256.137,82.364 L273.862,82.364 C273.86,82.364 273.86,82.364 273.86,82.364 L279.773,98.274 Z M285.259,95.91 L279.347,80.001 C278.452,77.587 276.28,76.002 273.864,76 L256.135,76 C253.717,76.002 251.545,77.587 250.649,80.003 L244.74,95.911 C244.013,97.872 244.235,100.092 245.334,101.84 C246.432,103.588 248.264,104.635 250.224,104.636 L279.772,104.636 C281.731,104.637 283.565,103.59 284.664,101.842 C285.764,100.094 285.988,97.873 285.26,95.912 Z" />
            <path d="M256.135,146 L273.862,146 C275.494,146 276.817,144.575 276.817,142.818 C276.817,141.061 275.494,139.636 273.862,139.636 L256.135,139.636 C254.503,139.636 253.18,141.061 253.18,142.818 C253.18,144.575 254.503,146 256.135,146 Z" />
        </g>
        <g id="Regular-M" transform="translate(0,200)">
            <path d="M462.044,104.636 L462.044,142.818 C462.044,144.575 463.367,146 464.999,146 C466.63,146 467.953,144.575 467.953,142.818 L467.953,104.636 C467.953,102.879 466.63,101.455 464.999,101.455 C463.367,101.455 462.044,102.879 462.044,104.636 Z" />
            <path d="M479.773,98.273 C479.773,98.273 479.773,98.273 479.773,98.273 C479.773,98.273 479.773,98.273 479.773,98.273 L450.226,98.273 C450.227,98.273 450.227,98.273 450.227,98.273 C450.227,98.273 450.227,98.273 450.227,98.273 L456.136,82.365 C456.137,82.364 456.137,82.364 456.137,82.364 L473.862,82.364 C473.86,82.364 473.86,82.364 473.86,82.364 L479.773,98.274 Z M485.259,95.91 L479.347,80.001 C478.452,77.587 476.28,76.002 473.864,76 L456.135,76 C453.717,76.002 451.545,77.587 450.649,80.003 L444.74,95.911 C444.013,97.872 444.235,100.092 445.334,101.84 C446.432,103.588 448.264,104.635 450.224,104.636 L479.772,104.636 C481.731,104.637 483.565,103.59 484.664,101.842 C485.764,100.094 485.988,97.873 485.26,95.912 Z" />
            <path d="M456.135,146 L473.862,146 C475.494,146 476.817,144.575 476.817,142.818 C476.817,141.061 475.494,139.636 473.862,139.636 L456.135,139.636 C454.503,139.636 453.18,141.061 453.18,142.818 C453.18,144.575 454.503,146 456.135,146 Z" />
        </g>
        <g id="Black-M" transform="translate(0,200)">
            <path d="M662.044,104.636 L662.044,142.818 C662.044,144.575 663.367,146 664.999,146 C666.63,146 667.953,144.575 667.953,142.818 L667.953,104.636 C667.953,102.879 666.63,101.455 664.999,101.455 C663.367,101.455 662.044,102.879 662.044,104.636 Z" />
            <path d="M679.773,98.273 C679.773,98.273 679.773,98.273 679.773,98.273 C679.773,98.273 679.773,98.273 679.773,98.273 L650.226,98.273 C650.227,98.273 650.227,98.273 650.227,98.273 C650.227,98.273 650.227,98.273 650.227,98.273 L656.136,82.365 C656.137,82.364 656.137,82.364 656.137,82.364 L673.862,82.364 C673.86,82.364 673.86,82.364 673.86,82.364 L679.773,98.274 Z M685.259,95.91 L679.347,80.001 C678.452,77.587 676.28,76.002 673.864,76 L656.135,76 C653.717,76.002 651.545,77.587 650.649,80.003 L644.74,95.911 C644.013,97.872 644.235,100.092 645.334,101.84 C646.432,103.588 648.264,104.635 650.224,104.636 L679.772,104.636 C681.731,104.637 683.565,103.59 684.664,101.842 C685.764,100.094 685.988,97.873 685.26,95.912 Z" />
            <path d="M656.135,146 L673.862,146 C675.494,146 676.817,144.575 676.817,142.818 C676.817,141.061 675.494,139.636 673.862,139.636 L656.135,139.636 C654.503,139.636 653.18,141.061 653.18,142.818 C653.18,144.575 654.503,146 656.135,146 Z" />
        </g>
    </g>
</svg>