<?xml version="1.0" encoding="UTF-8"?>
<svg height="600" width="800" xmlns="http://www.w3.org/2000/svg" xmlns:xlink="http://www.w3.org/1999/xlink">
    <g id="Notes" font-family="LucidaGrande, 'Lucida Grande', sans-serif" font-size="13">
        <rect fill="white" height="600.0" width="800.0" x="0.0" y="0.0" />
        <g font-size="13">
            <text x="18.0" y="176.0">Small</text>
            <text x="18.0" y="376.0">Medium</text>
            <text x="18.0" y="576.0">Large</text>
        </g>
        <g font-size="9">
            <text x="250.0" y="30.0">Ultralight</text>
            <text x="450.0" y="30.0">Regular</text>
            <text x="650.0" y="30.0">Black</text>
            <text id="template-version" fill="#505050" text-anchor="end" x="785.0" y="575.0">Template v.3.0</text>
            <a href="https://github.com/swhitty/SwiftDraw">
                <text fill="#505050" text-anchor="end" x="785.0" y="590.0">https://github.com/swhitty/SwiftDraw</text>
            </a>
        </g>
    </g>
    <g id="Guides" stroke="rgb(39, 170, 225)" stroke-width="0.5">
        <path id="Capline-S" d="M18,76 l800,0" />
        <path id="H-reference" d="M85,145.755 L87.685,145.755 L113.369,79.287 L114.052,79.287 L114.052,76 L112.148,76 L85,145.755 Z M95.693,121.536 L130.996,121.536 L130.263,119.313 L96.474,119.313 L95.693,121.536 Z M139.15,145.755 L141.787,145.755 L114.638,76 L113.466,76 L113.466,79.287 L139.15,145.755 Z" stroke="none" transform="translate(0,200)" />
        <path id="Baseline-S" d="M18,146 l800,0" />
        <path id="left-margin-Ultralight-M" d="M230,256 l0,110" />
        <path id="right-margin-Ultralight-M" d="M300,256 l0,110" />
        <path id="left-margin-Regular-M" d="M430,256 l0,110" />
        <path id="right-margin-Regular-M" d="M500,256 l0,110" />
        <path id="left-margin-Black-M" d="M630,256 l0,110" />
        <path id="right-margin-Black-M" d="M700,256 l0,110" />
        <path id="Capline-M" d="M18,276 l800,0" />
        <path id="Baseline-M" d="M18,346 l800,0" />
        <path id="Capline-L" d="M18,476 l800,0" />
        <path id="Baseline-L" d="M18,546 l800,0" />
    </g>
    <g id="Symbols">
        <g id="Ultralight-M" transform="translate(0,200)">
            <path d="M269.308,76 L236.363,76 C233.847,76.001 231.569,77.553 230.548,79.96 C229.527,82.367 229.955,85.178 231.64,87.133 L254.631,113.765 C255.16,114.378 255.453,115.175 255.454,116.001 L255.454,135.999 C255.453,138.524 256.815,140.834 258.973,141.964 L265.336,145.297 C267.31,146.33 269.653,146.219 271.529,145.003 C273.405,143.788 274.546,141.641 274.545,139.33 L274.545,115.999 C274.545,115.174 274.839,114.378 275.368,113.766 L279.245,109.27 C280.423,107.905 280.321,105.797 279.017,104.563 C277.713,103.328 275.701,103.435 274.523,104.801 L270.647,109.294 C269.062,111.13 268.182,113.519 268.181,115.997 L268.181,139.332 C268.181,139.333 268.181,139.333 268.181,139.333 C268.181,139.333 268.181,139.333 268.181,139.333 L261.818,136.001 C261.818,136 261.818,136 261.818,136 L261.818,115.999 C261.816,113.52 260.937,111.13 259.35,109.293 L236.362,82.664 C236.364,82.667 236.364,82.667 236.364,82.667 C236.364,82.667 236.364,82.667 236.364,82.667 L269.308,82.667 C271.065,82.667 272.49,81.174 272.49,79.333 C272.49,77.492 271.065,76 269.308,76 Z" />
            <path d="M277.727,92.666 L296.818,92.666 C298.575,92.666 300,91.174 300,89.333 C300,87.492 298.575,86 296.818,86 L277.727,86 C275.97,86 274.545,87.492 274.545,89.333 C274.545,91.174 275.97,92.666 277.727,92.666 Z" />
            <path d="M284.091,79.333 L284.091,99.333 C284.091,101.174 285.515,102.666 287.273,102.666 C289.03,102.666 290.454,101.174 290.454,99.333 L290.454,79.333 C290.454,77.492 289.03,76 287.273,76 C285.515,76 284.091,77.492 284.091,79.333 Z" />
        </g>
        <g id="Regular-M" transform="translate(0,200)">
            <path d="M469.308,76 L436.363,76 C433.847,76.001 431.569,77.553 430.548,79.96 C429.527,82.367 429.955,85.178 431.64,87.133 L454.631,113.765 C455.16,114.378 455.453,115.175 455.454,116.001 L455.454,135.999 C455.453,138.524 456.815,140.834 458.973,141.964 L465.336,145.297 C467.31,146.33 469.653,146.219 471.529,145.003 C473.405,143.788 474.546,141.641 474.545,139.33 L474.545,115.999 C474.545,115.174 474.839,114.378 475.368,113.766 L479.245,109.27 C480.423,107.905 480.321,105.797 479.017,104.563 C477.713,103.328 475.701,103.435 474.523,104.801 L470.647,109.294 C469.062,111.13 468.182,113.519 468.181,115.997 L468.181,139.332 C468.181,139.333 468.181,139.333 468.181,139.333 C468.181,139.333 468.181,139.333 468.181,139.333 L461.818,136.001 C461.818,136 461.818,136 461.818,136 L461.818,115.999 C461.816,113.52 460.937,111.13 459.35,109.293 L436.362,82.664 C436.364,82.667 436.364,82.667 436.364,82.667 C436.364,82.667 436.364,82.667 436.364,82.667 L469.308,82.667 C471.065,82.667 472.49,81.174 472.49,79.333 C472.49,77.492 471.065,76 469.308,76 Z" />
            <path d="M477.727,92.666 L496.818,92.666 C498.575,92.666 500,91.174 500,89.333 C500,87.492 498.575,86 496.818,86 L477.727,86 C475.97,86 474.545,87.492 474.545,89.333 C474.545,91.174 475.97,92.666 477.727,92.666 Z" />
            <path d="M484.091,79.333 L484.091,99.333 C484.091,101.174 485.515,102.666 487.273,102.666 C489.03,102.666 490.454,101.174 490.454,99.333 L490.454,79.333 C490.454,77.492 489.03,76 487.273,76 C485.515,76 484.091,77.492 484.091,79.333 Z" />
        </g>
        <g id="Black-M" transform="translate(0,200)">
            <path d="M669.308,76 L636.363,76 C633.847,76.001 631.569,77.553 630.548,79.96 C629.527,82.367 629.955,85.178 631.64,87.133 L654.631,113.765 C655.16,114.378 655.453,115.175 655.454,116.001 L655.454,135.999 C655.453,138.524 656.815,140.834 658.973,141.964 L665.336,145.297 C667.31,146.33 669.653,146.219 671.529,145.003 C673.405,143.788 674.546,141.641 674.545,139.33 L674.545,115.999 C674.545,115.174 674.839,114.378 675.368,113.766 L679.245,109.27 C680.423,107.905 680.321,105.797 679.017,104.563 C677.713,103.328 675.701,103.435 674.523,104.801 L670.647,109.294 C669.062,111.13 668.182,113.519 668.181,115.997 L668.181,139.332 C668.181,139.333 668.181,139.333 668.181,139.333 C668.181,139.333 668.181,139.333 668.181,139.333 L661.818,136.001 C661.818,136 661.818,136 661.818,136 L661.818,115.999 C661.817,113.52 660.937,111.13 659.35,109.293 L636.362,82.664 C636.364,82.667 636.364,82.667 636.364,82.667 C636.364,82.667 636.364,82.667 636.364,82.667 L669.308,82.667 C671.065,82.667 672.49,81.174 672.49,79.333 C672.49,77.492 671.065,76 669.308,76 Z" />
            <path d="M677.727,92.666 L696.818,92.666 C698.575,92.666 700,91.174 700,89.333 C700,87.492 698.575,86 696.818,86 L677.727,86 C675.97,86 674.545,87.492 674.545,89.333 C674.545,91.174 675.97,92.666 677.727,92.666 Z" />
            <path d="M684.091,79.333 L684.091,99.333 C684.091,101.174 685.515,102.666 687.273,102.666 C689.03,102.666 690.454,101.174 690.454,99.333 L690.454,79.333 C690.454,77.492 689.03,76 687.273,76 C685.515,76 684.091,77.492 684.091,79.333 Z" />
        </g>
    </g>
</svg>