<?xml version="1.0" encoding="UTF-8"?>
<svg height="600" width="800" xmlns="http://www.w3.org/2000/svg" xmlns:xlink="http://www.w3.org/1999/xlink">
    <g id="Notes" font-family="LucidaGrande, 'Lucida Grande', sans-serif" font-size="13">
        <rect fill="white" height="600.0" width="800.0" x="0.0" y="0.0" />
        <g font-size="13">
            <text x="18.0" y="176.0">Small</text>
            <text x="18.0" y="376.0">Medium</text>
            <text x="18.0" y="576.0">Large</text>
        </g>
        <g font-size="9">
            <text x="250.0" y="30.0">Ultralight</text>
            <text x="450.0" y="30.0">Regular</text>
            <text x="650.0" y="30.0">Black</text>
            <text id="template-version" fill="#505050" text-anchor="end" x="785.0" y="575.0">Template v.3.0</text>
            <a href="https://github.com/swhitty/SwiftDraw">
                <text fill="#505050" text-anchor="end" x="785.0" y="590.0">https://github.com/swhitty/SwiftDraw</text>
            </a>
        </g>
    </g>
    <g id="Guides" stroke="rgb(39, 170, 225)" stroke-width="0.5">
        <path id="Capline-S" d="M18,76 l800,0" />
        <path id="H-reference" d="M85,145.755 L87.685,145.755 L113.369,79.287 L114.052,79.287 L114.052,76 L112.148,76 L85,145.755 Z M95.693,121.536 L130.996,121.536 L130.263,119.313 L96.474,119.313 L95.693,121.536 Z M139.15,145.755 L141.787,145.755 L114.638,76 L113.466,76 L113.466,79.287 L139.15,145.755 Z" stroke="none" transform="translate(0,200)" />
        <path id="Baseline-S" d="M18,146 l800,0" />
        <path id="left-margin-Ultralight-M" d="M230,256 l0,110" />
        <path id="right-margin-Ultralight-M" d="M300,256 l0,110" />
        <path id="left-margin-Regular-M" d="M430,256 l0,110" />
        <path id="right-margin-Regular-M" d="M500,256 l0,110" />
        <path id="left-margin-Black-M" d="M630,256 l0,110" />
        <path id="right-margin-Black-M" d="M700,256 l0,110" />
        <path id="Capline-M" d="M18,276 l800,0" />
        <path id="Baseline-M" d="M18,346 l800,0" />
        <path id="Capline-L" d="M18,476 l800,0" />
        <path id="Baseline-L" d="M18,546 l800,0" />
    </g>
    <g id="Symbols">
        <g id="Ultralight-M" transform="translate(0,200)">
            <path d="M261.818,114.182 L261.818,136.455 C261.818,141.726 266.091,146 271.363,146 C276.635,146 280.908,141.726 280.908,136.455 C280.908,134.697 279.484,133.273 277.727,133.273 C275.969,133.273 274.545,134.697 274.545,136.455 C274.545,138.212 273.12,139.636 271.363,139.636 C269.606,139.636 268.181,138.212 268.181,136.455 L268.181,114.182 C268.181,112.425 266.757,111 265,111 C263.242,111 261.818,112.425 261.818,114.182 Z" />
            <path d="M261.818,79.182 L261.818,85.545 C261.818,87.303 263.242,88.727 265,88.727 C266.757,88.727 268.181,87.303 268.181,85.545 L268.181,79.182 C268.181,77.425 266.757,76 265,76 C263.242,76 261.818,77.425 261.818,79.182 Z" />
            <path d="M286.177,117.364 L293.61,117.364 C295.589,117.38 297.485,116.451 298.699,114.855 C299.914,113.26 300.306,111.185 299.756,109.256 C295.006,90.734 276.438,79.181 257.64,83.118 C255.92,83.479 254.818,85.165 255.178,86.885 C255.538,88.605 257.225,89.707 258.945,89.347 C274.411,86.107 289.688,95.612 293.614,110.919 C293.636,111 293.636,111 293.636,111 C293.636,111 293.636,111 293.636,111 L286.177,111 C284.42,111 282.996,112.425 282.996,114.182 C282.996,115.939 284.42,117.364 286.177,117.364 Z" />
            <path d="M230.932,81.432 L294.567,145.068 C295.81,146.311 297.825,146.311 299.067,145.068 C300.31,143.825 300.31,141.811 299.067,140.568 L235.432,76.932 C234.189,75.689 232.174,75.689 230.932,76.932 C229.689,78.175 229.689,80.189 230.932,81.432 Z" />
            <path d="M243.917,89.197 C237.144,94.109 232.301,101.234 230.224,109.338 C229.699,111.175 230.084,113.239 231.286,114.832 C232.487,116.425 234.366,117.362 236.361,117.364 L268.181,117.364 C269.939,117.364 271.363,115.939 271.363,114.182 C271.363,112.425 269.939,111 268.181,111 L236.364,111 C236.366,111 236.366,111 236.366,111 C236.366,111 236.366,111 236.366,111 C238.097,104.251 242.081,98.389 247.653,94.348 C249.075,93.316 249.392,91.326 248.36,89.904 C247.329,88.482 245.339,88.165 243.917,89.197 Z" />
        </g>
        <g id="Regular-M" transform="translate(0,200)">
            <path d="M461.818,114.182 L461.818,136.455 C461.818,141.726 466.091,146 471.363,146 C476.635,146 480.908,141.726 480.908,136.455 C480.908,134.697 479.484,133.273 477.727,133.273 C475.969,133.273 474.545,134.697 474.545,136.455 C474.545,138.212 473.12,139.636 471.363,139.636 C469.606,139.636 468.181,138.212 468.181,136.455 L468.181,114.182 C468.181,112.425 466.757,111 465,111 C463.242,111 461.818,112.425 461.818,114.182 Z" />
            <path d="M461.818,79.182 L461.818,85.545 C461.818,87.303 463.242,88.727 465,88.727 C466.757,88.727 468.181,87.303 468.181,85.545 L468.181,79.182 C468.181,77.425 466.757,76 465,76 C463.242,76 461.818,77.425 461.818,79.182 Z" />
            <path d="M486.177,117.364 L493.61,117.364 C495.589,117.38 497.485,116.451 498.699,114.855 C499.914,113.26 500.306,111.185 499.756,109.256 C495.006,90.734 476.438,79.181 457.64,83.118 C455.92,83.479 454.818,85.165 455.178,86.885 C455.538,88.605 457.225,89.707 458.945,89.347 C474.411,86.107 489.688,95.612 493.614,110.919 C493.636,111 493.636,111 493.636,111 C493.636,111 493.636,111 493.636,111 L486.177,111 C484.42,111 482.996,112.425 482.996,114.182 C482.996,115.939 484.42,117.364 486.177,117.364 Z" />
            <path d="M430.932,81.432 L494.567,145.068 C495.81,146.311 497.825,146.311 499.067,145.068 C500.31,143.825 500.31,141.811 499.067,140.568 L435.432,76.932 C434.189,75.689 432.174,75.689 430.932,76.932 C429.689,78.175 429.689,80.189 430.932,81.432 Z" />
            <path d="M443.917,89.197 C437.144,94.109 432.301,101.234 430.224,109.338 C429.699,111.175 430.084,113.239 431.286,114.832 C432.487,116.425 434.366,117.362 436.361,117.364 L468.181,117.364 C469.939,117.364 471.363,115.939 471.363,114.182 C471.363,112.425 469.939,111 468.181,111 L436.364,111 C436.366,111 436.366,111 436.366,111 C436.366,111 436.366,111 436.366,111 C438.097,104.251 442.081,98.389 447.653,94.348 C449.075,93.316 449.392,91.326 448.36,89.904 C447.329,88.482 445.339,88.165 443.917,89.197 Z" />
        </g>
        <g id="Black-M" transform="translate(0,200)">
            <path d="M661.818,114.182 L661.818,136.455 C661.818,141.726 666.091,146 671.363,146 C676.635,146 680.908,141.726 680.908,136.455 C680.908,134.697 679.484,133.273 677.727,133.273 C675.969,133.273 674.545,134.697 674.545,136.455 C674.545,138.212 673.12,139.636 671.363,139.636 C669.606,139.636 668.181,138.212 668.181,136.455 L668.181,114.182 C668.181,112.425 666.757,111 665,111 C663.242,111 661.818,112.425 661.818,114.182 Z" />
            <path d="M661.818,79.182 L661.818,85.545 C661.818,87.303 663.242,88.727 665,88.727 C666.757,88.727 668.181,87.303 668.181,85.545 L668.181,79.182 C668.181,77.425 666.757,76 665,76 C663.242,76 661.818,77.425 661.818,79.182 Z" />
            <path d="M686.177,117.364 L693.61,117.364 C695.589,117.38 697.485,116.451 698.699,114.855 C699.914,113.26 700.306,111.185 699.756,109.256 C695.006,90.734 676.438,79.181 657.64,83.118 C655.92,83.479 654.818,85.165 655.178,86.885 C655.538,88.605 657.225,89.707 658.945,89.347 C674.411,86.107 689.688,95.612 693.614,110.919 C693.636,111 693.636,111 693.636,111 C693.636,111 693.636,111 693.636,111 L686.177,111 C684.42,111 682.996,112.425 682.996,114.182 C682.996,115.939 684.42,117.364 686.177,117.364 Z" />
            <path d="M630.932,81.432 L694.567,145.068 C695.81,146.311 697.825,146.311 699.067,145.068 C700.31,143.825 700.31,141.811 699.067,140.568 L635.432,76.932 C634.189,75.689 632.174,75.689 630.932,76.932 C629.689,78.175 629.689,80.189 630.932,81.432 Z" />
            <path d="M643.917,89.197 C637.144,94.109 632.301,101.234 630.224,109.338 C629.699,111.175 630.084,113.239 631.286,114.832 C632.487,116.425 634.366,117.362 636.361,117.364 L668.181,117.364 C669.939,117.364 671.363,115.939 671.363,114.182 C671.363,112.425 669.939,111 668.181,111 L636.364,111 C636.366,111 636.366,111 636.366,111 C636.366,111 636.366,111 636.366,111 C638.097,104.251 642.081,98.389 647.653,94.348 C649.075,93.316 649.392,91.326 648.36,89.904 C647.328,88.482 645.339,88.165 643.917,89.197 Z" />
        </g>
    </g>
</svg>