<?xml version="1.0" encoding="UTF-8"?>
<svg height="600" width="800" xmlns="http://www.w3.org/2000/svg" xmlns:xlink="http://www.w3.org/1999/xlink">
    <g id="Notes" font-family="LucidaGrande, 'Lucida Grande', sans-serif" font-size="13">
        <rect fill="white" height="600.0" width="800.0" x="0.0" y="0.0" />
        <g font-size="13">
            <text x="18.0" y="176.0">Small</text>
            <text x="18.0" y="376.0">Medium</text>
            <text x="18.0" y="576.0">Large</text>
        </g>
        <g font-size="9">
            <text x="250.0" y="30.0">Ultralight</text>
            <text x="450.0" y="30.0">Regular</text>
            <text x="650.0" y="30.0">Black</text>
            <text id="template-version" fill="#505050" text-anchor="end" x="785.0" y="575.0">Template v.3.0</text>
            <a href="https://github.com/swhitty/SwiftDraw">
                <text fill="#505050" text-anchor="end" x="785.0" y="590.0">https://github.com/swhitty/SwiftDraw</text>
            </a>
        </g>
    </g>
    <g id="Guides" stroke="rgb(39, 170, 225)" stroke-width="0.5">
        <path id="Capline-S" d="M18,76 l800,0" />
        <path id="H-reference" d="M85,145.755 L87.685,145.755 L113.369,79.287 L114.052,79.287 L114.052,76 L112.148,76 L85,145.755 Z M95.693,121.536 L130.996,121.536 L130.263,119.313 L96.474,119.313 L95.693,121.536 Z M139.15,145.755 L141.787,145.755 L114.638,76 L113.466,76 L113.466,79.287 L139.15,145.755 Z" stroke="none" transform="translate(0,200)" />
        <path id="Baseline-S" d="M18,146 l800,0" />
        <path id="left-margin-Ultralight-M" d="M228.333,256 l0,110" />
        <path id="right-margin-Ultralight-M" d="M301.667,256 l0,110" />
        <path id="left-margin-Regular-M" d="M428.333,256 l0,110" />
        <path id="right-margin-Regular-M" d="M501.667,256 l0,110" />
        <path id="left-margin-Black-M" d="M628.333,256 l0,110" />
        <path id="right-margin-Black-M" d="M701.667,256 l0,110" />
        <path id="Capline-M" d="M18,276 l800,0" />
        <path id="Baseline-M" d="M18,346 l800,0" />
        <path id="Capline-L" d="M18,476 l800,0" />
        <path id="Baseline-L" d="M18,546 l800,0" />
    </g>
    <g id="Symbols">
        <g id="Ultralight-M" transform="translate(0,200)">
            <path d="M283,130.333 C284.875,131.739 285.521,134.259 284.555,136.394 C283.588,138.53 281.268,139.707 278.974,139.226 C276.68,138.746 275.028,136.736 275,134.393 L275,109.333 C275,107.492 273.508,106 271.667,106 C269.826,106 268.333,107.492 268.333,109.333 L268.333,134.433 C268.4,139.941 272.255,144.63 277.607,145.751 C282.96,146.873 288.373,144.125 290.628,139.143 C292.883,134.161 291.375,128.282 287,125 C285.528,123.895 283.438,124.194 282.334,125.666 C281.229,127.139 281.527,129.228 283,130.333 Z" />
            <path d="M245,106 L238.333,106 C237.449,106 236.601,105.649 235.976,105.024 C235.351,104.398 235,103.551 235,102.667 L235,86 C235,85.116 235.351,84.268 235.976,83.643 C236.601,83.018 237.449,82.667 238.333,82.667 L291.667,82.667 C292.551,82.667 293.399,83.018 294.024,83.643 C294.649,84.268 295,85.116 295,86 L295,102.667 C295,103.551 294.649,104.398 294.024,105.024 C293.399,105.649 292.551,106 291.667,106 L285,106 C283.159,106 281.667,107.492 281.667,109.333 C281.667,111.174 283.159,112.666 285,112.666 L291.667,112.666 C294.319,112.666 296.862,111.613 298.738,109.738 C300.613,107.862 301.667,105.319 301.667,102.667 L301.667,86 C301.667,83.348 300.613,80.804 298.738,78.929 C296.862,77.054 294.319,76 291.667,76 L238.333,76 C235.681,76 233.138,77.054 231.262,78.929 C229.387,80.804 228.333,83.348 228.333,86 L228.333,102.667 C228.333,105.319 229.387,107.862 231.262,109.738 C233.138,111.613 235.681,112.666 238.333,112.666 L245,112.666 C246.841,112.666 248.333,111.174 248.333,109.333 C248.333,107.492 246.841,106 245,106 Z" />
            <path d="M245,99.333 L285,99.333 C286.841,99.333 288.333,97.841 288.333,96 C288.333,94.159 286.841,92.667 285,92.667 L245,92.667 C243.159,92.667 241.667,94.159 241.667,96 C241.667,97.841 243.159,99.333 245,99.333 Z" />
            <path d="M244.667,118.859 C241.425,122.036 240.73,126.998 242.974,130.943 C245.217,134.889 249.836,136.829 254.224,135.668 C258.611,134.508 261.667,130.538 261.667,125.999 L261.667,109.333 C261.667,107.492 260.174,106 258.333,106 C256.492,106 255,107.492 255,109.333 L255,126 C255,127.513 253.982,128.836 252.519,129.223 C251.056,129.61 249.517,128.963 248.769,127.648 C248.021,126.333 248.253,124.679 249.333,123.62 C250.648,122.332 250.669,120.221 249.38,118.906 C248.092,117.592 245.981,117.571 244.667,118.859 Z" />
        </g>
        <g id="Regular-M" transform="translate(0,200)">
            <path d="M483,130.333 C484.875,131.739 485.521,134.259 484.555,136.394 C483.588,138.53 481.268,139.707 478.974,139.226 C476.68,138.746 475.028,136.736 475,134.393 L475,109.333 C475,107.492 473.508,106 471.667,106 C469.826,106 468.333,107.492 468.333,109.333 L468.333,134.433 C468.4,139.941 472.255,144.63 477.607,145.751 C482.96,146.873 488.373,144.125 490.628,139.143 C492.883,134.161 491.375,128.282 487,125 C485.528,123.895 483.438,124.194 482.334,125.666 C481.229,127.139 481.527,129.228 483,130.333 Z" />
            <path d="M445,106 L438.333,106 C437.449,106 436.601,105.649 435.976,105.024 C435.351,104.398 435,103.551 435,102.667 L435,86 C435,85.116 435.351,84.268 435.976,83.643 C436.601,83.018 437.449,82.667 438.333,82.667 L491.667,82.667 C492.551,82.667 493.399,83.018 494.024,83.643 C494.649,84.268 495,85.116 495,86 L495,102.667 C495,103.551 494.649,104.398 494.024,105.024 C493.399,105.649 492.551,106 491.667,106 L485,106 C483.159,106 481.667,107.492 481.667,109.333 C481.667,111.174 483.159,112.666 485,112.666 L491.667,112.666 C494.319,112.666 496.862,111.613 498.738,109.738 C500.613,107.862 501.667,105.319 501.667,102.667 L501.667,86 C501.667,83.348 500.613,80.804 498.738,78.929 C496.862,77.054 494.319,76 491.667,76 L438.333,76 C435.681,76 433.138,77.054 431.262,78.929 C429.387,80.804 428.333,83.348 428.333,86 L428.333,102.667 C428.333,105.319 429.387,107.862 431.262,109.738 C433.138,111.613 435.681,112.666 438.333,112.666 L445,112.666 C446.841,112.666 448.333,111.174 448.333,109.333 C448.333,107.492 446.841,106 445,106 Z" />
            <path d="M445,99.333 L485,99.333 C486.841,99.333 488.333,97.841 488.333,96 C488.333,94.159 486.841,92.667 485,92.667 L445,92.667 C443.159,92.667 441.667,94.159 441.667,96 C441.667,97.841 443.159,99.333 445,99.333 Z" />
            <path d="M444.667,118.859 C441.425,122.036 440.73,126.998 442.974,130.943 C445.217,134.889 449.836,136.829 454.224,135.668 C458.611,134.508 461.667,130.538 461.667,125.999 L461.667,109.333 C461.667,107.492 460.174,106 458.333,106 C456.492,106 455,107.492 455,109.333 L455,126 C455,127.513 453.982,128.836 452.519,129.223 C451.056,129.61 449.517,128.963 448.769,127.648 C448.021,126.333 448.253,124.679 449.333,123.62 C450.648,122.332 450.669,120.221 449.38,118.906 C448.092,117.592 445.981,117.571 444.667,118.859 Z" />
        </g>
        <g id="Black-M" transform="translate(0,200)">
            <path d="M683,130.333 C684.875,131.739 685.521,134.259 684.555,136.394 C683.588,138.53 681.268,139.707 678.974,139.226 C676.68,138.746 675.028,136.736 675,134.393 L675,109.333 C675,107.492 673.508,106 671.667,106 C669.826,106 668.333,107.492 668.333,109.333 L668.333,134.433 C668.399,139.941 672.255,144.63 677.607,145.751 C682.96,146.873 688.373,144.125 690.628,139.143 C692.883,134.161 691.375,128.282 687,125 C685.528,123.895 683.438,124.194 682.333,125.666 C681.229,127.139 681.527,129.228 683,130.333 Z" />
            <path d="M645,106 L638.333,106 C637.449,106 636.601,105.649 635.976,105.024 C635.351,104.398 635,103.551 635,102.667 L635,86 C635,85.116 635.351,84.268 635.976,83.643 C636.601,83.018 637.449,82.667 638.333,82.667 L691.667,82.667 C692.551,82.667 693.399,83.018 694.024,83.643 C694.649,84.268 695,85.116 695,86 L695,102.667 C695,103.551 694.649,104.398 694.024,105.024 C693.399,105.649 692.551,106 691.667,106 L685,106 C683.159,106 681.667,107.492 681.667,109.333 C681.667,111.174 683.159,112.666 685,112.666 L691.667,112.666 C694.319,112.666 696.862,111.613 698.738,109.738 C700.613,107.862 701.667,105.319 701.667,102.667 L701.667,86 C701.667,83.348 700.613,80.804 698.738,78.929 C696.862,77.054 694.319,76 691.667,76 L638.333,76 C635.681,76 633.138,77.054 631.262,78.929 C629.387,80.804 628.333,83.348 628.333,86 L628.333,102.667 C628.333,105.319 629.387,107.862 631.262,109.738 C633.138,111.613 635.681,112.666 638.333,112.666 L645,112.666 C646.841,112.666 648.333,111.174 648.333,109.333 C648.333,107.492 646.841,106 645,106 Z" />
            <path d="M645,99.333 L685,99.333 C686.841,99.333 688.333,97.841 688.333,96 C688.333,94.159 686.841,92.667 685,92.667 L645,92.667 C643.159,92.667 641.667,94.159 641.667,96 C641.667,97.841 643.159,99.333 645,99.333 Z" />
            <path d="M644.667,118.859 C641.425,122.036 640.73,126.998 642.974,130.943 C645.217,134.889 649.836,136.829 654.224,135.668 C658.611,134.508 661.667,130.538 661.667,125.999 L661.667,109.333 C661.667,107.492 660.174,106 658.333,106 C656.492,106 655,107.492 655,109.333 L655,126 C655,127.513 653.982,128.836 652.519,129.223 C651.056,129.61 649.517,128.963 648.769,127.648 C648.021,126.333 648.253,124.679 649.333,123.62 C650.648,122.332 650.669,120.221 649.38,118.906 C648.092,117.592 645.981,117.571 644.667,118.859 Z" />
        </g>
    </g>
</svg>