<?xml version="1.0" encoding="UTF-8"?>
<svg height="600" width="800" xmlns="http://www.w3.org/2000/svg" xmlns:xlink="http://www.w3.org/1999/xlink">
    <g id="Notes" font-family="LucidaGrande, 'Lucida Grande', sans-serif" font-size="13">
        <rect fill="white" height="600.0" width="800.0" x="0.0" y="0.0" />
        <g font-size="13">
            <text x="18.0" y="176.0">Small</text>
            <text x="18.0" y="376.0">Medium</text>
            <text x="18.0" y="576.0">Large</text>
        </g>
        <g font-size="9">
            <text x="250.0" y="30.0">Ultralight</text>
            <text x="450.0" y="30.0">Regular</text>
            <text x="650.0" y="30.0">Black</text>
            <text id="template-version" fill="#505050" text-anchor="end" x="785.0" y="575.0">Template v.3.0</text>
            <a href="https://github.com/swhitty/SwiftDraw">
                <text fill="#505050" text-anchor="end" x="785.0" y="590.0">https://github.com/swhitty/SwiftDraw</text>
            </a>
        </g>
    </g>
    <g id="Guides" stroke="rgb(39, 170, 225)" stroke-width="0.5">
        <path id="Capline-S" d="M18,76 l800,0" />
        <path id="H-reference" d="M85,145.755 L87.685,145.755 L113.369,79.287 L114.052,79.287 L114.052,76 L112.148,76 L85,145.755 Z M95.693,121.536 L130.996,121.536 L130.263,119.313 L96.474,119.313 L95.693,121.536 Z M139.15,145.755 L141.787,145.755 L114.638,76 L113.466,76 L113.466,79.287 L139.15,145.755 Z" stroke="none" transform="translate(0,200)" />
        <path id="Baseline-S" d="M18,146 l800,0" />
        <path id="left-margin-Ultralight-M" d="M221,256 l0,110" />
        <path id="right-margin-Ultralight-M" d="M309,256 l0,110" />
        <path id="left-margin-Regular-M" d="M421,256 l0,110" />
        <path id="right-margin-Regular-M" d="M509,256 l0,110" />
        <path id="left-margin-Black-M" d="M621,256 l0,110" />
        <path id="right-margin-Black-M" d="M709,256 l0,110" />
        <path id="Capline-M" d="M18,276 l800,0" />
        <path id="Baseline-M" d="M18,346 l800,0" />
        <path id="Capline-L" d="M18,476 l800,0" />
        <path id="Baseline-L" d="M18,546 l800,0" />
    </g>
    <g id="Symbols">
        <g id="Ultralight-M" transform="translate(0,200)">
            <path d="M309,99 C309,96.878 308.157,94.843 306.657,93.343 C305.157,91.843 303.122,91 301,91 L229,91 C226.878,91 224.843,91.843 223.343,93.343 C221.843,94.843 221,96.878 221,99 L221,115 C221,117.122 221.843,119.157 223.343,120.657 C224.843,122.157 226.878,123 229,123 L233,123 L233,119 L230.172,121.828 L238.172,129.828 C238.922,130.579 239.939,131 241,131 L289,131 C290.061,131 291.078,130.579 291.828,129.828 L299.828,121.828 L297,123 L301,123 C303.122,123 305.157,122.157 306.657,120.657 C308.157,119.157 309,117.122 309,115 L309,99 Z M301,99 L301,115 C301,115 301,115 301,115 C301,115 301,115 301,115 L297,115 C295.939,115 294.922,115.421 294.172,116.172 L286.172,124.172 L289,123 L241,123 L243.828,124.172 L235.828,116.172 C235.078,115.421 234.061,115 233,115 L229,115 C229,115 229,115 229,115 C229,115 229,115 229,115 L229,99 C229,99 229,99 229,99 C229,99 229,99 229,99 L301,99 C301,99 301,99 301,99 C301,99 301,99 301,99 Z" />
            <path d="M247,115 L283,115 C285.209,115 287,113.209 287,111 C287,108.791 285.209,107 283,107 L247,107 C244.791,107 243,108.791 243,111 C243,113.209 244.791,115 247,115 Z" />
        </g>
        <g id="Regular-M" transform="translate(0,200)">
            <path d="M509,99 C509,96.878 508.157,94.843 506.657,93.343 C505.157,91.843 503.122,91 501,91 L429,91 C426.878,91 424.843,91.843 423.343,93.343 C421.843,94.843 421,96.878 421,99 L421,115 C421,117.122 421.843,119.157 423.343,120.657 C424.843,122.157 426.878,123 429,123 L433,123 L433,119 L430.172,121.828 L438.172,129.828 C438.922,130.579 439.939,131 441,131 L489,131 C490.061,131 491.078,130.579 491.828,129.828 L499.828,121.828 L497,123 L501,123 C503.122,123 505.157,122.157 506.657,120.657 C508.157,119.157 509,117.122 509,115 L509,99 Z M501,99 L501,115 C501,115 501,115 501,115 C501,115 501,115 501,115 L497,115 C495.939,115 494.922,115.421 494.172,116.172 L486.172,124.172 L489,123 L441,123 L443.828,124.172 L435.828,116.172 C435.078,115.421 434.061,115 433,115 L429,115 C429,115 429,115 429,115 C429,115 429,115 429,115 L429,99 C429,99 429,99 429,99 C429,99 429,99 429,99 L501,99 C501,99 501,99 501,99 C501,99 501,99 501,99 Z" />
            <path d="M447,115 L483,115 C485.209,115 487,113.209 487,111 C487,108.791 485.209,107 483,107 L447,107 C444.791,107 443,108.791 443,111 C443,113.209 444.791,115 447,115 Z" />
        </g>
        <g id="Black-M" transform="translate(0,200)">
            <path d="M709,99 C709,96.878 708.157,94.843 706.657,93.343 C705.157,91.843 703.122,91 701,91 L629,91 C626.878,91 624.843,91.843 623.343,93.343 C621.843,94.843 621,96.878 621,99 L621,115 C621,117.122 621.843,119.157 623.343,120.657 C624.843,122.157 626.878,123 629,123 L633,123 L633,119 L630.172,121.828 L638.172,129.828 C638.922,130.579 639.939,131 641,131 L689,131 C690.061,131 691.078,130.579 691.828,129.828 L699.828,121.828 L697,123 L701,123 C703.122,123 705.157,122.157 706.657,120.657 C708.157,119.157 709,117.122 709,115 L709,99 Z M701,99 L701,115 C701,115 701,115 701,115 C701,115 701,115 701,115 L697,115 C695.939,115 694.922,115.421 694.172,116.172 L686.172,124.172 L689,123 L641,123 L643.828,124.172 L635.828,116.172 C635.078,115.421 634.061,115 633,115 L629,115 C629,115 629,115 629,115 C629,115 629,115 629,115 L629,99 C629,99 629,99 629,99 C629,99 629,99 629,99 L701,99 C701,99 701,99 701,99 C701,99 701,99 701,99 Z" />
            <path d="M647,115 L683,115 C685.209,115 687,113.209 687,111 C687,108.791 685.209,107 683,107 L647,107 C644.791,107 643,108.791 643,111 C643,113.209 644.791,115 647,115 Z" />
        </g>
    </g>
</svg>