<?xml version="1.0" encoding="UTF-8"?>
<svg height="600" width="800" xmlns="http://www.w3.org/2000/svg" xmlns:xlink="http://www.w3.org/1999/xlink">
    <g id="Notes" font-family="LucidaGrande, 'Lucida Grande', sans-serif" font-size="13">
        <rect fill="white" height="600.0" width="800.0" x="0.0" y="0.0" />
        <g font-size="13">
            <text x="18.0" y="176.0">Small</text>
            <text x="18.0" y="376.0">Medium</text>
            <text x="18.0" y="576.0">Large</text>
        </g>
        <g font-size="9">
            <text x="250.0" y="30.0">Ultralight</text>
            <text x="450.0" y="30.0">Regular</text>
            <text x="650.0" y="30.0">Black</text>
            <text id="template-version" fill="#505050" text-anchor="end" x="785.0" y="575.0">Template v.3.0</text>
            <a href="https://github.com/swhitty/SwiftDraw">
                <text fill="#505050" text-anchor="end" x="785.0" y="590.0">https://github.com/swhitty/SwiftDraw</text>
            </a>
        </g>
    </g>
    <g id="Guides" stroke="rgb(39, 170, 225)" stroke-width="0.5">
        <path id="Capline-S" d="M18,76 l800,0" />
        <path id="H-reference" d="M85,145.755 L87.685,145.755 L113.369,79.287 L114.052,79.287 L114.052,76 L112.148,76 L85,145.755 Z M95.693,121.536 L130.996,121.536 L130.263,119.313 L96.474,119.313 L95.693,121.536 Z M139.15,145.755 L141.787,145.755 L114.638,76 L113.466,76 L113.466,79.287 L139.15,145.755 Z" stroke="none" transform="translate(0,200)" />
        <path id="Baseline-S" d="M18,146 l800,0" />
        <path id="left-margin-Ultralight-M" d="M230,256 l0,110" />
        <path id="right-margin-Ultralight-M" d="M300,256 l0,110" />
        <path id="left-margin-Regular-M" d="M430,256 l0,110" />
        <path id="right-margin-Regular-M" d="M500,256 l0,110" />
        <path id="left-margin-Black-M" d="M630,256 l0,110" />
        <path id="right-margin-Black-M" d="M700,256 l0,110" />
        <path id="Capline-M" d="M18,276 l800,0" />
        <path id="Baseline-M" d="M18,346 l800,0" />
        <path id="Capline-L" d="M18,476 l800,0" />
        <path id="Baseline-L" d="M18,546 l800,0" />
    </g>
    <g id="Symbols">
        <g id="Ultralight-M" transform="translate(0,200)">
            <path d="M263.905,95.091 L293.636,95.091 C296.471,95.091 297.891,91.664 295.886,89.659 L283.159,76.932 C281.916,75.689 279.902,75.689 278.659,76.932 C277.417,78.175 277.417,80.189 278.659,81.432 L291.386,94.159 L293.636,88.727 L263.905,88.727 C262.148,88.727 260.724,90.152 260.724,91.909 C260.724,93.666 262.148,95.091 263.905,95.091 Z" />
            <path d="M283.052,126.666 C282.35,126.828 281.631,126.909 280.909,126.909 L236.364,126.909 L238.614,132.341 L251.341,119.614 C252.583,118.371 252.583,116.356 251.341,115.114 C250.098,113.871 248.084,113.871 246.841,115.114 L234.114,127.841 C232.109,129.845 233.529,133.273 236.364,133.273 L280.909,133.273 C282.111,133.273 283.309,133.137 284.48,132.867 C286.193,132.473 287.261,130.765 286.867,129.052 C286.473,127.34 284.765,126.271 283.052,126.666 Z" />
            <path d="M230.932,81.432 L294.568,145.068 C295.811,146.311 297.826,146.311 299.068,145.068 C300.311,143.825 300.311,141.811 299.068,140.568 L235.432,76.932 C234.189,75.689 232.175,75.689 230.932,76.932 C229.689,78.175 229.689,80.189 230.932,81.432 Z" />
            <path d="M290.455,114.182 L290.455,117.364 C290.455,118.302 290.318,119.234 290.046,120.131 C289.538,121.813 290.49,123.589 292.172,124.097 C293.854,124.605 295.63,123.654 296.138,121.972 C296.59,120.477 296.819,118.924 296.818,117.362 L296.818,114.182 C296.818,112.425 295.394,111 293.636,111 C291.879,111 290.455,112.425 290.455,114.182 Z" />
            <path d="M291.386,89.659 L278.659,102.386 C277.417,103.629 277.417,105.644 278.659,106.886 C279.902,108.129 281.916,108.129 283.159,106.886 L295.886,94.159 C297.129,92.916 297.129,90.902 295.886,89.659 C294.644,88.417 292.629,88.417 291.386,89.659 Z" />
            <path d="M239.545,107.818 L239.545,104.636 C239.545,100.19 242.615,96.332 246.948,95.334 C248.661,94.94 249.729,93.232 249.335,91.519 C248.94,89.807 247.232,88.738 245.52,89.133 C238.298,90.796 233.182,97.226 233.182,104.636 L233.182,107.818 C233.182,109.575 234.606,111 236.364,111 C238.121,111 239.545,109.575 239.545,107.818 Z" />
            <path d="M251.341,140.568 L238.614,127.841 C237.371,126.598 235.356,126.598 234.114,127.841 C232.871,129.084 232.871,131.098 234.114,132.341 L246.841,145.068 C248.084,146.311 250.098,146.311 251.341,145.068 C252.583,143.825 252.583,141.811 251.341,140.568 Z" />
        </g>
        <g id="Regular-M" transform="translate(0,200)">
            <path d="M463.905,95.091 L493.636,95.091 C496.471,95.091 497.891,91.664 495.886,89.659 L483.159,76.932 C481.916,75.689 479.902,75.689 478.659,76.932 C477.417,78.175 477.417,80.189 478.659,81.432 L491.386,94.159 L493.636,88.727 L463.905,88.727 C462.148,88.727 460.724,90.152 460.724,91.909 C460.724,93.666 462.148,95.091 463.905,95.091 Z" />
            <path d="M483.052,126.666 C482.35,126.828 481.631,126.909 480.909,126.909 L436.364,126.909 L438.614,132.341 L451.341,119.614 C452.583,118.371 452.583,116.356 451.341,115.114 C450.098,113.871 448.084,113.871 446.841,115.114 L434.114,127.841 C432.109,129.845 433.529,133.273 436.364,133.273 L480.909,133.273 C482.111,133.273 483.309,133.137 484.48,132.867 C486.193,132.473 487.261,130.765 486.867,129.052 C486.473,127.34 484.765,126.271 483.052,126.666 Z" />
            <path d="M430.932,81.432 L494.568,145.068 C495.811,146.311 497.826,146.311 499.068,145.068 C500.311,143.825 500.311,141.811 499.068,140.568 L435.432,76.932 C434.189,75.689 432.174,75.689 430.932,76.932 C429.689,78.175 429.689,80.189 430.932,81.432 Z" />
            <path d="M490.455,114.182 L490.455,117.364 C490.455,118.302 490.318,119.234 490.046,120.131 C489.538,121.813 490.49,123.589 492.172,124.097 C493.854,124.605 495.63,123.654 496.138,121.972 C496.59,120.477 496.819,118.924 496.818,117.362 L496.818,114.182 C496.818,112.425 495.394,111 493.636,111 C491.879,111 490.455,112.425 490.455,114.182 Z" />
            <path d="M491.386,89.659 L478.659,102.386 C477.417,103.629 477.417,105.644 478.659,106.886 C479.902,108.129 481.916,108.129 483.159,106.886 L495.886,94.159 C497.129,92.916 497.129,90.902 495.886,89.659 C494.644,88.417 492.629,88.417 491.386,89.659 Z" />
            <path d="M439.545,107.818 L439.545,104.636 C439.545,100.19 442.615,96.332 446.948,95.334 C448.661,94.94 449.729,93.232 449.335,91.519 C448.94,89.807 447.232,88.738 445.52,89.133 C438.298,90.796 433.182,97.226 433.182,104.636 L433.182,107.818 C433.182,109.575 434.606,111 436.364,111 C438.121,111 439.545,109.575 439.545,107.818 Z" />
            <path d="M451.341,140.568 L438.614,127.841 C437.371,126.598 435.356,126.598 434.114,127.841 C432.871,129.084 432.871,131.098 434.114,132.341 L446.841,145.068 C448.084,146.311 450.098,146.311 451.341,145.068 C452.583,143.825 452.583,141.811 451.341,140.568 Z" />
        </g>
        <g id="Black-M" transform="translate(0,200)">
            <path d="M663.905,95.091 L693.636,95.091 C696.471,95.091 697.891,91.664 695.886,89.659 L683.159,76.932 C681.916,75.689 679.902,75.689 678.659,76.932 C677.417,78.175 677.417,80.189 678.659,81.432 L691.386,94.159 L693.636,88.727 L663.905,88.727 C662.148,88.727 660.724,90.152 660.724,91.909 C660.724,93.666 662.148,95.091 663.905,95.091 Z" />
            <path d="M683.052,126.666 C682.35,126.828 681.631,126.909 680.909,126.909 L636.364,126.909 L638.614,132.341 L651.341,119.614 C652.583,118.371 652.583,116.356 651.341,115.114 C650.098,113.871 648.084,113.871 646.841,115.114 L634.114,127.841 C632.109,129.845 633.529,133.273 636.364,133.273 L680.909,133.273 C682.111,133.273 683.309,133.137 684.48,132.867 C686.193,132.473 687.261,130.765 686.867,129.052 C686.473,127.34 684.765,126.271 683.052,126.666 Z" />
            <path d="M630.932,81.432 L694.568,145.068 C695.811,146.311 697.826,146.311 699.068,145.068 C700.311,143.825 700.311,141.811 699.068,140.568 L635.432,76.932 C634.189,75.689 632.174,75.689 630.932,76.932 C629.689,78.175 629.689,80.189 630.932,81.432 Z" />
            <path d="M690.455,114.182 L690.455,117.364 C690.455,118.302 690.318,119.234 690.047,120.131 C689.538,121.813 690.49,123.589 692.172,124.097 C693.854,124.605 695.63,123.654 696.138,121.972 C696.59,120.477 696.819,118.924 696.818,117.362 L696.818,114.182 C696.818,112.425 695.394,111 693.636,111 C691.879,111 690.455,112.425 690.455,114.182 Z" />
            <path d="M691.386,89.659 L678.659,102.386 C677.417,103.629 677.417,105.644 678.659,106.886 C679.902,108.129 681.916,108.129 683.159,106.886 L695.886,94.159 C697.129,92.916 697.129,90.902 695.886,89.659 C694.644,88.417 692.629,88.417 691.386,89.659 Z" />
            <path d="M639.545,107.818 L639.545,104.636 C639.545,100.19 642.615,96.332 646.948,95.334 C648.661,94.94 649.729,93.232 649.335,91.519 C648.94,89.807 647.232,88.738 645.52,89.133 C638.298,90.796 633.182,97.226 633.182,104.636 L633.182,107.818 C633.182,109.575 634.606,111 636.364,111 C638.121,111 639.545,109.575 639.545,107.818 Z" />
            <path d="M651.341,140.568 L638.614,127.841 C637.371,126.598 635.356,126.598 634.114,127.841 C632.871,129.084 632.871,131.098 634.114,132.341 L646.841,145.068 C648.084,146.311 650.098,146.311 651.341,145.068 C652.583,143.825 652.583,141.811 651.341,140.568 Z" />
        </g>
    </g>
</svg>