<?xml version="1.0" encoding="UTF-8"?>
<svg height="600" width="800" xmlns="http://www.w3.org/2000/svg" xmlns:xlink="http://www.w3.org/1999/xlink">
    <g id="Notes" font-family="LucidaGrande, 'Lucida Grande', sans-serif" font-size="13">
        <rect fill="white" height="600.0" width="800.0" x="0.0" y="0.0" />
        <g font-size="13">
            <text x="18.0" y="176.0">Small</text>
            <text x="18.0" y="376.0">Medium</text>
            <text x="18.0" y="576.0">Large</text>
        </g>
        <g font-size="9">
            <text x="250.0" y="30.0">Ultralight</text>
            <text x="450.0" y="30.0">Regular</text>
            <text x="650.0" y="30.0">Black</text>
            <text id="template-version" fill="#505050" text-anchor="end" x="785.0" y="575.0">Template v.3.0</text>
            <a href="https://github.com/swhitty/SwiftDraw">
                <text fill="#505050" text-anchor="end" x="785.0" y="590.0">https://github.com/swhitty/SwiftDraw</text>
            </a>
        </g>
    </g>
    <g id="Guides" stroke="rgb(39, 170, 225)" stroke-width="0.5">
        <path id="Capline-S" d="M18,76 l800,0" />
        <path id="H-reference" d="M85,145.755 L87.685,145.755 L113.369,79.287 L114.052,79.287 L114.052,76 L112.148,76 L85,145.755 Z M95.693,121.536 L130.996,121.536 L130.263,119.313 L96.474,119.313 L95.693,121.536 Z M139.15,145.755 L141.787,145.755 L114.638,76 L113.466,76 L113.466,79.287 L139.15,145.755 Z" stroke="none" transform="translate(0,200)" />
        <path id="Baseline-S" d="M18,146 l800,0" />
        <path id="left-margin-Ultralight-M" d="M236.364,256 l0,110" />
        <path id="right-margin-Ultralight-M" d="M293.636,256 l0,110" />
        <path id="left-margin-Regular-M" d="M436.364,256 l0,110" />
        <path id="right-margin-Regular-M" d="M493.636,256 l0,110" />
        <path id="left-margin-Black-M" d="M636.364,256 l0,110" />
        <path id="right-margin-Black-M" d="M693.636,256 l0,110" />
        <path id="Capline-M" d="M18,276 l800,0" />
        <path id="Baseline-M" d="M18,346 l800,0" />
        <path id="Capline-L" d="M18,476 l800,0" />
        <path id="Baseline-L" d="M18,546 l800,0" />
    </g>
    <g id="Symbols">
        <g id="Ultralight-M" transform="translate(0,200)">
            <path d="M261.818,142.818 L261.818,121.914 C261.818,120.156 260.394,118.732 258.636,118.732 C256.879,118.732 255.455,120.156 255.455,121.914 L255.455,142.818 C255.455,144.575 256.879,146 258.636,146 C260.394,146 261.818,144.575 261.818,142.818 Z" />
            <path d="M265,111 L265.032,111 C266.789,111 268.214,109.575 268.214,107.818 C268.214,106.061 266.789,104.636 265.032,104.636 L265,104.636 C263.243,104.636 261.818,106.061 261.818,107.818 C261.818,109.575 263.243,111 265,111 Z" />
            <path d="M265,98.273 L265.032,98.273 C266.789,98.273 268.214,96.848 268.214,95.091 C268.214,93.334 266.789,91.909 265.032,91.909 L265,91.909 C263.243,91.909 261.818,93.334 261.818,95.091 C261.818,96.848 263.243,98.273 265,98.273 Z" />
            <path d="M268.182,121.914 L268.182,142.818 C268.182,144.575 269.606,146 271.364,146 C273.121,146 274.545,144.575 274.545,142.818 L274.545,121.914 C274.545,120.156 273.121,118.732 271.364,118.732 C269.606,118.732 268.182,120.156 268.182,121.914 Z" />
            <path d="M276.455,121.182 C269.667,116.091 260.333,116.091 253.545,121.182 C252.14,122.236 251.855,124.231 252.909,125.636 C253.963,127.042 255.958,127.327 257.364,126.273 C261.889,122.879 268.111,122.879 272.636,126.273 C274.042,127.327 276.037,127.042 277.091,125.636 C278.145,124.231 277.86,122.236 276.455,121.182 Z" />
            <path d="M277.727,111 L277.759,111 C279.516,111 280.941,109.575 280.941,107.818 C280.941,106.061 279.516,104.636 277.759,104.636 L277.727,104.636 C275.97,104.636 274.545,106.061 274.545,107.818 C274.545,109.575 275.97,111 277.727,111 Z" />
            <path d="M277.727,98.273 L277.759,98.273 C279.516,98.273 280.941,96.848 280.941,95.091 C280.941,93.334 279.516,91.909 277.759,91.909 L277.727,91.909 C275.97,91.909 274.545,93.334 274.545,95.091 C274.545,96.848 275.97,98.273 277.727,98.273 Z" />
            <path d="M252.273,111 L252.305,111 C254.062,111 255.486,109.575 255.486,107.818 C255.486,106.061 254.062,104.636 252.305,104.636 L252.273,104.636 C250.515,104.636 249.091,106.061 249.091,107.818 C249.091,109.575 250.515,111 252.273,111 Z" />
            <path d="M252.273,98.273 L252.305,98.273 C254.062,98.273 255.486,96.848 255.486,95.091 C255.486,93.334 254.062,91.909 252.305,91.909 L252.273,91.909 C250.515,91.909 249.091,93.334 249.091,95.091 C249.091,96.848 250.515,98.273 252.273,98.273 Z" />
            <path d="M287.273,111 L287.273,136.455 C287.273,137.298 286.938,138.108 286.341,138.704 C285.744,139.301 284.935,139.636 284.091,139.636 L245.909,139.636 C245.065,139.636 244.256,139.301 243.659,138.704 C243.062,138.108 242.727,137.298 242.727,136.455 L242.727,85.545 C242.727,84.702 243.062,83.892 243.659,83.296 C244.256,82.699 245.065,82.364 245.909,82.364 L284.091,82.364 C284.935,82.364 285.744,82.699 286.341,83.296 C286.938,83.892 287.273,84.702 287.273,85.545 L287.273,111 Z M293.636,111 L293.636,85.545 C293.636,83.014 292.631,80.586 290.841,78.796 C289.05,77.006 286.623,76 284.091,76 L245.909,76 C243.377,76 240.95,77.006 239.159,78.796 C237.369,80.586 236.364,83.014 236.364,85.545 L236.364,136.455 C236.364,138.986 237.369,141.414 239.159,143.204 C240.95,144.994 243.377,146 245.909,146 L284.091,146 C286.623,146 289.05,144.994 290.841,143.204 C292.631,141.414 293.636,138.986 293.636,136.455 L293.636,111 Z" />
        </g>
        <g id="Regular-M" transform="translate(0,200)">
            <path d="M461.818,142.818 L461.818,121.914 C461.818,120.156 460.394,118.732 458.636,118.732 C456.879,118.732 455.455,120.156 455.455,121.914 L455.455,142.818 C455.455,144.575 456.879,146 458.636,146 C460.394,146 461.818,144.575 461.818,142.818 Z" />
            <path d="M465,111 L465.032,111 C466.789,111 468.214,109.575 468.214,107.818 C468.214,106.061 466.789,104.636 465.032,104.636 L465,104.636 C463.243,104.636 461.818,106.061 461.818,107.818 C461.818,109.575 463.243,111 465,111 Z" />
            <path d="M465,98.273 L465.032,98.273 C466.789,98.273 468.214,96.848 468.214,95.091 C468.214,93.334 466.789,91.909 465.032,91.909 L465,91.909 C463.243,91.909 461.818,93.334 461.818,95.091 C461.818,96.848 463.243,98.273 465,98.273 Z" />
            <path d="M468.182,121.914 L468.182,142.818 C468.182,144.575 469.606,146 471.364,146 C473.121,146 474.545,144.575 474.545,142.818 L474.545,121.914 C474.545,120.156 473.121,118.732 471.364,118.732 C469.606,118.732 468.182,120.156 468.182,121.914 Z" />
            <path d="M476.455,121.182 C469.667,116.091 460.333,116.091 453.545,121.182 C452.14,122.236 451.855,124.231 452.909,125.636 C453.963,127.042 455.958,127.327 457.364,126.273 C461.889,122.879 468.111,122.879 472.636,126.273 C474.042,127.327 476.037,127.042 477.091,125.636 C478.145,124.231 477.86,122.236 476.455,121.182 Z" />
            <path d="M477.727,111 L477.759,111 C479.516,111 480.941,109.575 480.941,107.818 C480.941,106.061 479.516,104.636 477.759,104.636 L477.727,104.636 C475.97,104.636 474.545,106.061 474.545,107.818 C474.545,109.575 475.97,111 477.727,111 Z" />
            <path d="M477.727,98.273 L477.759,98.273 C479.516,98.273 480.941,96.848 480.941,95.091 C480.941,93.334 479.516,91.909 477.759,91.909 L477.727,91.909 C475.97,91.909 474.545,93.334 474.545,95.091 C474.545,96.848 475.97,98.273 477.727,98.273 Z" />
            <path d="M452.273,111 L452.305,111 C454.062,111 455.486,109.575 455.486,107.818 C455.486,106.061 454.062,104.636 452.305,104.636 L452.273,104.636 C450.515,104.636 449.091,106.061 449.091,107.818 C449.091,109.575 450.515,111 452.273,111 Z" />
            <path d="M452.273,98.273 L452.305,98.273 C454.062,98.273 455.486,96.848 455.486,95.091 C455.486,93.334 454.062,91.909 452.305,91.909 L452.273,91.909 C450.515,91.909 449.091,93.334 449.091,95.091 C449.091,96.848 450.515,98.273 452.273,98.273 Z" />
            <path d="M487.273,111 L487.273,136.455 C487.273,137.298 486.938,138.108 486.341,138.704 C485.744,139.301 484.935,139.636 484.091,139.636 L445.909,139.636 C445.065,139.636 444.256,139.301 443.659,138.704 C443.062,138.108 442.727,137.298 442.727,136.455 L442.727,85.545 C442.727,84.702 443.062,83.892 443.659,83.296 C444.256,82.699 445.065,82.364 445.909,82.364 L484.091,82.364 C484.935,82.364 485.744,82.699 486.341,83.296 C486.938,83.892 487.273,84.702 487.273,85.545 L487.273,111 Z M493.636,111 L493.636,85.545 C493.636,83.014 492.631,80.586 490.841,78.796 C489.05,77.006 486.623,76 484.091,76 L445.909,76 C443.378,76 440.95,77.006 439.159,78.796 C437.369,80.586 436.364,83.014 436.364,85.545 L436.364,136.455 C436.364,138.986 437.369,141.414 439.159,143.204 C440.95,144.994 443.378,146 445.909,146 L484.091,146 C486.623,146 489.05,144.994 490.841,143.204 C492.631,141.414 493.636,138.986 493.636,136.455 L493.636,111 Z" />
        </g>
        <g id="Black-M" transform="translate(0,200)">
            <path d="M661.818,142.818 L661.818,121.914 C661.818,120.156 660.394,118.732 658.636,118.732 C656.879,118.732 655.455,120.156 655.455,121.914 L655.455,142.818 C655.455,144.575 656.879,146 658.636,146 C660.394,146 661.818,144.575 661.818,142.818 Z" />
            <path d="M665,111 L665.032,111 C666.789,111 668.214,109.575 668.214,107.818 C668.214,106.061 666.789,104.636 665.032,104.636 L665,104.636 C663.243,104.636 661.818,106.061 661.818,107.818 C661.818,109.575 663.243,111 665,111 Z" />
            <path d="M665,98.273 L665.032,98.273 C666.789,98.273 668.214,96.848 668.214,95.091 C668.214,93.334 666.789,91.909 665.032,91.909 L665,91.909 C663.243,91.909 661.818,93.334 661.818,95.091 C661.818,96.848 663.243,98.273 665,98.273 Z" />
            <path d="M668.182,121.914 L668.182,142.818 C668.182,144.575 669.606,146 671.364,146 C673.121,146 674.545,144.575 674.545,142.818 L674.545,121.914 C674.545,120.156 673.121,118.732 671.364,118.732 C669.606,118.732 668.182,120.156 668.182,121.914 Z" />
            <path d="M676.455,121.182 C669.667,116.091 660.333,116.091 653.545,121.182 C652.14,122.236 651.855,124.231 652.909,125.636 C653.963,127.042 655.958,127.327 657.364,126.273 C661.889,122.879 668.111,122.879 672.636,126.273 C674.042,127.327 676.037,127.042 677.091,125.636 C678.145,124.231 677.86,122.236 676.455,121.182 Z" />
            <path d="M677.727,111 L677.759,111 C679.516,111 680.941,109.575 680.941,107.818 C680.941,106.061 679.516,104.636 677.759,104.636 L677.727,104.636 C675.97,104.636 674.545,106.061 674.545,107.818 C674.545,109.575 675.97,111 677.727,111 Z" />
            <path d="M677.727,98.273 L677.759,98.273 C679.516,98.273 680.941,96.848 680.941,95.091 C680.941,93.334 679.516,91.909 677.759,91.909 L677.727,91.909 C675.97,91.909 674.545,93.334 674.545,95.091 C674.545,96.848 675.97,98.273 677.727,98.273 Z" />
            <path d="M652.273,111 L652.305,111 C654.062,111 655.486,109.575 655.486,107.818 C655.486,106.061 654.062,104.636 652.305,104.636 L652.273,104.636 C650.515,104.636 649.091,106.061 649.091,107.818 C649.091,109.575 650.515,111 652.273,111 Z" />
            <path d="M652.273,98.273 L652.305,98.273 C654.062,98.273 655.486,96.848 655.486,95.091 C655.486,93.334 654.062,91.909 652.305,91.909 L652.273,91.909 C650.515,91.909 649.091,93.334 649.091,95.091 C649.091,96.848 650.515,98.273 652.273,98.273 Z" />
            <path d="M687.273,111 L687.273,136.455 C687.273,137.298 686.938,138.108 686.341,138.704 C685.744,139.301 684.935,139.636 684.091,139.636 L645.909,139.636 C645.065,139.636 644.256,139.301 643.659,138.704 C643.062,138.108 642.727,137.298 642.727,136.455 L642.727,85.545 C642.727,84.702 643.062,83.892 643.659,83.296 C644.256,82.699 645.065,82.364 645.909,82.364 L684.091,82.364 C684.935,82.364 685.744,82.699 686.341,83.296 C686.938,83.892 687.273,84.702 687.273,85.545 L687.273,111 Z M693.636,111 L693.636,85.545 C693.636,83.014 692.631,80.586 690.841,78.796 C689.05,77.006 686.623,76 684.091,76 L645.909,76 C643.378,76 640.95,77.006 639.159,78.796 C637.369,80.586 636.364,83.014 636.364,85.545 L636.364,136.455 C636.364,138.986 637.369,141.414 639.159,143.204 C640.95,144.994 643.378,146 645.909,146 L684.091,146 C686.623,146 689.05,144.994 690.841,143.204 C692.631,141.414 693.636,138.986 693.636,136.455 L693.636,111 Z" />
        </g>
    </g>
</svg>