<?xml version="1.0" encoding="UTF-8"?>
<svg height="600" width="800" xmlns="http://www.w3.org/2000/svg" xmlns:xlink="http://www.w3.org/1999/xlink">
    <g id="Notes" font-family="LucidaGrande, 'Lucida Grande', sans-serif" font-size="13">
        <rect fill="white" height="600.0" width="800.0" x="0.0" y="0.0" />
        <g font-size="13">
            <text x="18.0" y="176.0">Small</text>
            <text x="18.0" y="376.0">Medium</text>
            <text x="18.0" y="576.0">Large</text>
        </g>
        <g font-size="9">
            <text x="250.0" y="30.0">Ultralight</text>
            <text x="450.0" y="30.0">Regular</text>
            <text x="650.0" y="30.0">Black</text>
            <text id="template-version" fill="#505050" text-anchor="end" x="785.0" y="575.0">Template v.3.0</text>
            <a href="https://github.com/swhitty/SwiftDraw">
                <text fill="#505050" text-anchor="end" x="785.0" y="590.0">https://github.com/swhitty/SwiftDraw</text>
            </a>
        </g>
    </g>
    <g id="Guides" stroke="rgb(39, 170, 225)" stroke-width="0.5">
        <path id="Capline-S" d="M18,76 l800,0" />
        <path id="H-reference" d="M85,145.755 L87.685,145.755 L113.369,79.287 L114.052,79.287 L114.052,76 L112.148,76 L85,145.755 Z M95.693,121.536 L130.996,121.536 L130.263,119.313 L96.474,119.313 L95.693,121.536 Z M139.15,145.755 L141.787,145.755 L114.638,76 L113.466,76 L113.466,79.287 L139.15,145.755 Z" stroke="none" transform="translate(0,200)" />
        <path id="Baseline-S" d="M18,146 l800,0" />
        <path id="left-margin-Ultralight-M" d="M221,256 l0,110" />
        <path id="right-margin-Ultralight-M" d="M309,256 l0,110" />
        <path id="left-margin-Regular-M" d="M421,256 l0,110" />
        <path id="right-margin-Regular-M" d="M509,256 l0,110" />
        <path id="left-margin-Black-M" d="M621,256 l0,110" />
        <path id="right-margin-Black-M" d="M709,256 l0,110" />
        <path id="Capline-M" d="M18,276 l800,0" />
        <path id="Baseline-M" d="M18,346 l800,0" />
        <path id="Capline-L" d="M18,476 l800,0" />
        <path id="Baseline-L" d="M18,546 l800,0" />
    </g>
    <g id="Symbols">
        <g id="Ultralight-M" transform="translate(0,200)">
            <path d="M259.058,129.57 C242.799,119.815 233,105.66 233,97 C233,94.791 234.791,93 237,93 C239.209,93 241,94.791 241,97 C241,98.662 239.672,100.046 235.419,102.598 C235.034,102.829 233.379,103.808 232.942,104.07 C224.818,108.944 221,113.272 221,121 C221,130.009 227.991,137 237,137 C250.409,137 261,126.409 261,113 C261,110.791 259.209,109 257,109 C254.791,109 253,110.791 253,113 C253,121.991 245.991,129 237,129 C232.409,129 229,125.591 229,121 C229,116.895 231.119,114.493 237.058,110.93 C237.466,110.685 239.121,109.706 239.535,109.458 C246.07,105.537 249,102.483 249,97 C249,90.373 243.627,85 237,85 C230.373,85 225,90.373 225,97 C225,108.784 236.464,125.343 254.942,136.43 C256.836,137.567 259.293,136.952 260.43,135.058 C261.567,133.164 260.952,130.707 259.058,129.57 Z" />
            <path d="M307.058,129.57 C290.799,119.815 281,105.66 281,97 C281,94.791 282.791,93 285,93 C287.209,93 289,94.791 289,97 C289,98.662 287.672,100.046 283.419,102.598 C283.034,102.829 281.379,103.808 280.942,104.07 C272.818,108.944 269,113.272 269,121 C269,130.009 275.991,137 285,137 C298.409,137 309,126.409 309,113 C309,110.791 307.209,109 305,109 C302.791,109 301,110.791 301,113 C301,121.991 293.991,129 285,129 C280.409,129 277,125.591 277,121 C277,116.895 279.119,114.493 285.058,110.93 C285.466,110.685 287.121,109.706 287.535,109.458 C294.07,105.537 297,102.483 297,97 C297,90.373 291.627,85 285,85 C278.373,85 273,90.373 273,97 C273,108.784 284.464,125.343 302.942,136.43 C304.836,137.567 307.293,136.952 308.43,135.058 C309.567,133.164 308.952,130.707 307.058,129.57 Z" />
        </g>
        <g id="Regular-M" transform="translate(0,200)">
            <path d="M459.058,129.57 C442.799,119.815 433,105.66 433,97 C433,94.791 434.791,93 437,93 C439.209,93 441,94.791 441,97 C441,98.662 439.672,100.046 435.419,102.598 C435.034,102.829 433.379,103.808 432.942,104.07 C424.818,108.944 421,113.272 421,121 C421,130.009 427.991,137 437,137 C450.409,137 461,126.409 461,113 C461,110.791 459.209,109 457,109 C454.791,109 453,110.791 453,113 C453,121.991 445.991,129 437,129 C432.409,129 429,125.591 429,121 C429,116.895 431.119,114.493 437.058,110.93 C437.466,110.685 439.121,109.706 439.535,109.458 C446.07,105.537 449,102.483 449,97 C449,90.373 443.627,85 437,85 C430.373,85 425,90.373 425,97 C425,108.784 436.464,125.343 454.942,136.43 C456.836,137.567 459.293,136.952 460.43,135.058 C461.567,133.164 460.952,130.707 459.058,129.57 Z" />
            <path d="M507.058,129.57 C490.799,119.815 481,105.66 481,97 C481,94.791 482.791,93 485,93 C487.209,93 489,94.791 489,97 C489,98.662 487.672,100.046 483.419,102.598 C483.034,102.829 481.379,103.808 480.942,104.07 C472.818,108.944 469,113.272 469,121 C469,130.009 475.991,137 485,137 C498.409,137 509,126.409 509,113 C509,110.791 507.209,109 505,109 C502.791,109 501,110.791 501,113 C501,121.991 493.991,129 485,129 C480.409,129 477,125.591 477,121 C477,116.895 479.119,114.493 485.058,110.93 C485.466,110.685 487.121,109.706 487.535,109.458 C494.07,105.537 497,102.483 497,97 C497,90.373 491.627,85 485,85 C478.373,85 473,90.373 473,97 C473,108.784 484.464,125.343 502.942,136.43 C504.836,137.567 507.293,136.952 508.43,135.058 C509.567,133.164 508.952,130.707 507.058,129.57 Z" />
        </g>
        <g id="Black-M" transform="translate(0,200)">
            <path d="M659.058,129.57 C642.799,119.815 633,105.66 633,97 C633,94.791 634.791,93 637,93 C639.209,93 641,94.791 641,97 C641,98.662 639.672,100.046 635.419,102.598 C635.034,102.829 633.379,103.808 632.942,104.07 C624.818,108.944 621,113.272 621,121 C621,130.009 627.991,137 637,137 C650.409,137 661,126.409 661,113 C661,110.791 659.209,109 657,109 C654.791,109 653,110.791 653,113 C653,121.991 645.991,129 637,129 C632.409,129 629,125.591 629,121 C629,116.895 631.119,114.493 637.058,110.93 C637.466,110.685 639.121,109.706 639.535,109.458 C646.07,105.537 649,102.483 649,97 C649,90.373 643.627,85 637,85 C630.373,85 625,90.373 625,97 C625,108.784 636.464,125.343 654.942,136.43 C656.836,137.567 659.293,136.952 660.43,135.058 C661.567,133.164 660.952,130.707 659.058,129.57 Z" />
            <path d="M707.058,129.57 C690.799,119.815 681,105.66 681,97 C681,94.791 682.791,93 685,93 C687.209,93 689,94.791 689,97 C689,98.662 687.672,100.046 683.419,102.598 C683.034,102.829 681.379,103.808 680.942,104.07 C672.818,108.944 669,113.272 669,121 C669,130.009 675.991,137 685,137 C698.409,137 709,126.409 709,113 C709,110.791 707.209,109 705,109 C702.791,109 701,110.791 701,113 C701,121.991 693.991,129 685,129 C680.409,129 677,125.591 677,121 C677,116.895 679.119,114.493 685.058,110.93 C685.466,110.685 687.121,109.706 687.535,109.458 C694.07,105.537 697,102.483 697,97 C697,90.373 691.627,85 685,85 C678.373,85 673,90.373 673,97 C673,108.784 684.464,125.343 702.942,136.43 C704.836,137.567 707.293,136.952 708.43,135.058 C709.567,133.164 708.952,130.707 707.058,129.57 Z" />
        </g>
    </g>
</svg>