<?xml version="1.0" encoding="UTF-8"?>
<svg height="600" width="800" xmlns="http://www.w3.org/2000/svg" xmlns:xlink="http://www.w3.org/1999/xlink">
    <g id="Notes" font-family="LucidaGrande, 'Lucida Grande', sans-serif" font-size="13">
        <rect fill="white" height="600.0" width="800.0" x="0.0" y="0.0" />
        <g font-size="13">
            <text x="18.0" y="176.0">Small</text>
            <text x="18.0" y="376.0">Medium</text>
            <text x="18.0" y="576.0">Large</text>
        </g>
        <g font-size="9">
            <text x="250.0" y="30.0">Ultralight</text>
            <text x="450.0" y="30.0">Regular</text>
            <text x="650.0" y="30.0">Black</text>
            <text id="template-version" fill="#505050" text-anchor="end" x="785.0" y="575.0">Template v.3.0</text>
            <a href="https://github.com/swhitty/SwiftDraw">
                <text fill="#505050" text-anchor="end" x="785.0" y="590.0">https://github.com/swhitty/SwiftDraw</text>
            </a>
        </g>
    </g>
    <g id="Guides" stroke="rgb(39, 170, 225)" stroke-width="0.5">
        <path id="Capline-S" d="M18,76 l800,0" />
        <path id="H-reference" d="M85,145.755 L87.685,145.755 L113.369,79.287 L114.052,79.287 L114.052,76 L112.148,76 L85,145.755 Z M95.693,121.536 L130.996,121.536 L130.263,119.313 L96.474,119.313 L95.693,121.536 Z M139.15,145.755 L141.787,145.755 L114.638,76 L113.466,76 L113.466,79.287 L139.15,145.755 Z" stroke="none" transform="translate(0,200)" />
        <path id="Baseline-S" d="M18,146 l800,0" />
        <path id="left-margin-Ultralight-M" d="M221.25,256 l0,110" />
        <path id="right-margin-Ultralight-M" d="M308.75,256 l0,110" />
        <path id="left-margin-Regular-M" d="M421.25,256 l0,110" />
        <path id="right-margin-Regular-M" d="M508.75,256 l0,110" />
        <path id="left-margin-Black-M" d="M621.25,256 l0,110" />
        <path id="right-margin-Black-M" d="M708.75,256 l0,110" />
        <path id="Capline-M" d="M18,276 l800,0" />
        <path id="Baseline-M" d="M18,346 l800,0" />
        <path id="Capline-L" d="M18,476 l800,0" />
        <path id="Baseline-L" d="M18,546 l800,0" />
    </g>
    <g id="Symbols">
        <g id="Ultralight-M" transform="translate(0,200)">
            <path d="M304.375,76 L260.625,76 C258.209,76 256.25,77.959 256.25,80.375 C256.25,82.791 258.209,84.75 260.625,84.75 L304.375,84.75 C306.791,84.75 308.75,82.791 308.75,80.375 C308.75,77.959 306.791,76 304.375,76 Z" />
            <path d="M304.375,106.625 L260.625,106.625 C258.209,106.625 256.25,108.584 256.25,111 C256.25,113.416 258.209,115.375 260.625,115.375 L304.375,115.375 C306.791,115.375 308.75,113.416 308.75,111 C308.75,108.584 306.791,106.625 304.375,106.625 Z" />
            <path d="M304.375,137.25 L260.625,137.25 C258.209,137.25 256.25,139.209 256.25,141.625 C256.25,144.041 258.209,146 260.625,146 L304.375,146 C306.791,146 308.75,144.041 308.75,141.625 C308.75,139.209 306.791,137.25 304.375,137.25 Z" />
            <path d="M240.031,90.406 L222.531,107.906 C220.823,109.615 220.823,112.385 222.531,114.094 L240.031,131.594 C241.74,133.302 244.51,133.302 246.219,131.594 C247.927,129.885 247.927,127.115 246.219,125.406 L228.719,107.906 L228.719,114.094 L246.219,96.594 C247.927,94.885 247.927,92.115 246.219,90.406 C244.51,88.698 241.74,88.698 240.031,90.406 Z" />
        </g>
        <g id="Regular-M" transform="translate(0,200)">
            <path d="M504.375,76 L460.625,76 C458.209,76 456.25,77.959 456.25,80.375 C456.25,82.791 458.209,84.75 460.625,84.75 L504.375,84.75 C506.791,84.75 508.75,82.791 508.75,80.375 C508.75,77.959 506.791,76 504.375,76 Z" />
            <path d="M504.375,106.625 L460.625,106.625 C458.209,106.625 456.25,108.584 456.25,111 C456.25,113.416 458.209,115.375 460.625,115.375 L504.375,115.375 C506.791,115.375 508.75,113.416 508.75,111 C508.75,108.584 506.791,106.625 504.375,106.625 Z" />
            <path d="M504.375,137.25 L460.625,137.25 C458.209,137.25 456.25,139.209 456.25,141.625 C456.25,144.041 458.209,146 460.625,146 L504.375,146 C506.791,146 508.75,144.041 508.75,141.625 C508.75,139.209 506.791,137.25 504.375,137.25 Z" />
            <path d="M440.031,90.406 L422.531,107.906 C420.823,109.615 420.823,112.385 422.531,114.094 L440.031,131.594 C441.74,133.302 444.51,133.302 446.219,131.594 C447.927,129.885 447.927,127.115 446.219,125.406 L428.719,107.906 L428.719,114.094 L446.219,96.594 C447.927,94.885 447.927,92.115 446.219,90.406 C444.51,88.698 441.74,88.698 440.031,90.406 Z" />
        </g>
        <g id="Black-M" transform="translate(0,200)">
            <path d="M704.375,76 L660.625,76 C658.209,76 656.25,77.959 656.25,80.375 C656.25,82.791 658.209,84.75 660.625,84.75 L704.375,84.75 C706.791,84.75 708.75,82.791 708.75,80.375 C708.75,77.959 706.791,76 704.375,76 Z" />
            <path d="M704.375,106.625 L660.625,106.625 C658.209,106.625 656.25,108.584 656.25,111 C656.25,113.416 658.209,115.375 660.625,115.375 L704.375,115.375 C706.791,115.375 708.75,113.416 708.75,111 C708.75,108.584 706.791,106.625 704.375,106.625 Z" />
            <path d="M704.375,137.25 L660.625,137.25 C658.209,137.25 656.25,139.209 656.25,141.625 C656.25,144.041 658.209,146 660.625,146 L704.375,146 C706.791,146 708.75,144.041 708.75,141.625 C708.75,139.209 706.791,137.25 704.375,137.25 Z" />
            <path d="M640.031,90.406 L622.531,107.906 C620.823,109.615 620.823,112.385 622.531,114.094 L640.031,131.594 C641.74,133.302 644.51,133.302 646.219,131.594 C647.927,129.885 647.927,127.115 646.219,125.406 L628.719,107.906 L628.719,114.094 L646.219,96.594 C647.927,94.885 647.927,92.115 646.219,90.406 C644.51,88.698 641.74,88.698 640.031,90.406 Z" />
        </g>
    </g>
</svg>