<?xml version="1.0" encoding="UTF-8"?>
<svg height="600" width="800" xmlns="http://www.w3.org/2000/svg" xmlns:xlink="http://www.w3.org/1999/xlink">
    <g id="Notes" font-family="LucidaGrande, 'Lucida Grande', sans-serif" font-size="13">
        <rect fill="white" height="600.0" width="800.0" x="0.0" y="0.0" />
        <g font-size="13">
            <text x="18.0" y="176.0">Small</text>
            <text x="18.0" y="376.0">Medium</text>
            <text x="18.0" y="576.0">Large</text>
        </g>
        <g font-size="9">
            <text x="250.0" y="30.0">Ultralight</text>
            <text x="450.0" y="30.0">Regular</text>
            <text x="650.0" y="30.0">Black</text>
            <text id="template-version" fill="#505050" text-anchor="end" x="785.0" y="575.0">Template v.3.0</text>
            <a href="https://github.com/swhitty/SwiftDraw">
                <text fill="#505050" text-anchor="end" x="785.0" y="590.0">https://github.com/swhitty/SwiftDraw</text>
            </a>
        </g>
    </g>
    <g id="Guides" stroke="rgb(39, 170, 225)" stroke-width="0.5">
        <path id="Capline-S" d="M18,76 l800,0" />
        <path id="H-reference" d="M85,145.755 L87.685,145.755 L113.369,79.287 L114.052,79.287 L114.052,76 L112.148,76 L85,145.755 Z M95.693,121.536 L130.996,121.536 L130.263,119.313 L96.474,119.313 L95.693,121.536 Z M139.15,145.755 L141.787,145.755 L114.638,76 L113.466,76 L113.466,79.287 L139.15,145.755 Z" stroke="none" transform="translate(0,200)" />
        <path id="Baseline-S" d="M18,146 l800,0" />
        <path id="left-margin-Ultralight-M" d="M226.5,256 l0,110" />
        <path id="right-margin-Ultralight-M" d="M303.5,256 l0,110" />
        <path id="left-margin-Regular-M" d="M426.5,256 l0,110" />
        <path id="right-margin-Regular-M" d="M503.5,256 l0,110" />
        <path id="left-margin-Black-M" d="M626.5,256 l0,110" />
        <path id="right-margin-Black-M" d="M703.5,256 l0,110" />
        <path id="Capline-M" d="M18,276 l800,0" />
        <path id="Baseline-M" d="M18,346 l800,0" />
        <path id="Capline-L" d="M18,476 l800,0" />
        <path id="Baseline-L" d="M18,546 l800,0" />
    </g>
    <g id="Symbols">
        <g id="Ultralight-M" transform="translate(0,200)">
            <path d="M260.45,135.5 L237,135.5 C236.072,135.5 235.182,135.131 234.525,134.475 C233.869,133.819 233.5,132.928 233.5,132 L233.5,86.5 C233.5,85.572 233.869,84.682 234.525,84.025 C235.182,83.369 236.072,83 237,83 L250.65,83 C251.874,82.988 252.988,83.582 253.642,84.575 L256.499,88.808 C258.419,91.724 261.713,93.5 265.244,93.5 L293,93.5 C293.928,93.5 294.818,93.869 295.475,94.525 C296.131,95.182 296.5,96.072 296.5,97 L296.5,111.35 C296.5,113.283 298.067,114.85 300,114.85 C301.933,114.85 303.5,113.283 303.5,111.35 L303.5,97 C303.5,94.215 302.394,91.545 300.425,89.576 C298.456,87.607 295.785,86.5 293,86.5 L265.245,86.5 C264.069,86.5 262.97,85.908 262.323,84.925 L259.466,80.692 C257.526,77.745 254.184,75.966 250.616,76.001 L237,76 C234.215,76 231.545,77.107 229.575,79.076 C227.606,81.045 226.5,83.716 226.5,86.5 L226.5,132 C226.5,134.785 227.606,137.456 229.575,139.425 C231.545,141.394 234.215,142.5 237,142.5 L260.45,142.5 C262.383,142.5 263.95,140.933 263.95,139 C263.95,137.067 262.383,135.5 260.45,135.5 Z" />
            <path d="M298.975,140.025 L292.325,133.375 C290.958,132.008 288.742,132.008 287.375,133.375 C286.008,134.742 286.008,136.958 287.375,138.325 L294.025,144.975 C295.392,146.342 297.608,146.342 298.975,144.975 C300.342,143.608 300.342,141.392 298.975,140.025 Z" />
            <path d="M275.5,128.5 C275.5,124.634 278.634,121.5 282.5,121.5 C286.366,121.5 289.5,124.634 289.5,128.5 C289.5,132.366 286.366,135.5 282.5,135.5 C278.634,135.5 275.5,132.366 275.5,128.5 Z M268.5,128.5 C268.5,136.232 274.768,142.5 282.5,142.5 C290.232,142.5 296.5,136.232 296.5,128.5 C296.5,120.768 290.232,114.5 282.5,114.5 C274.768,114.5 268.5,120.768 268.5,128.5 Z" />
        </g>
        <g id="Regular-M" transform="translate(0,200)">
            <path d="M460.45,135.5 L437,135.5 C436.072,135.5 435.182,135.131 434.525,134.475 C433.869,133.819 433.5,132.928 433.5,132 L433.5,86.5 C433.5,85.572 433.869,84.682 434.525,84.025 C435.182,83.369 436.072,83 437,83 L450.65,83 C451.874,82.988 452.988,83.582 453.642,84.575 L456.499,88.808 C458.419,91.724 461.713,93.5 465.244,93.5 L493,93.5 C493.928,93.5 494.818,93.869 495.475,94.525 C496.131,95.182 496.5,96.072 496.5,97 L496.5,111.35 C496.5,113.283 498.067,114.85 500,114.85 C501.933,114.85 503.5,113.283 503.5,111.35 L503.5,97 C503.5,94.215 502.394,91.545 500.425,89.576 C498.456,87.607 495.785,86.5 493,86.5 L465.245,86.5 C464.069,86.5 462.97,85.908 462.323,84.925 L459.466,80.692 C457.526,77.745 454.184,75.966 450.616,76.001 L437,76 C434.215,76 431.545,77.107 429.575,79.076 C427.606,81.045 426.5,83.716 426.5,86.5 L426.5,132 C426.5,134.785 427.606,137.456 429.575,139.425 C431.545,141.394 434.215,142.5 437,142.5 L460.45,142.5 C462.383,142.5 463.95,140.933 463.95,139 C463.95,137.067 462.383,135.5 460.45,135.5 Z" />
            <path d="M498.975,140.025 L492.325,133.375 C490.958,132.008 488.742,132.008 487.375,133.375 C486.008,134.742 486.008,136.958 487.375,138.325 L494.025,144.975 C495.392,146.342 497.608,146.342 498.975,144.975 C500.342,143.608 500.342,141.392 498.975,140.025 Z" />
            <path d="M475.5,128.5 C475.5,124.634 478.634,121.5 482.5,121.5 C486.366,121.5 489.5,124.634 489.5,128.5 C489.5,132.366 486.366,135.5 482.5,135.5 C478.634,135.5 475.5,132.366 475.5,128.5 Z M468.5,128.5 C468.5,136.232 474.768,142.5 482.5,142.5 C490.232,142.5 496.5,136.232 496.5,128.5 C496.5,120.768 490.232,114.5 482.5,114.5 C474.768,114.5 468.5,120.768 468.5,128.5 Z" />
        </g>
        <g id="Black-M" transform="translate(0,200)">
            <path d="M660.45,135.5 L637,135.5 C636.072,135.5 635.182,135.131 634.525,134.475 C633.869,133.819 633.5,132.928 633.5,132 L633.5,86.5 C633.5,85.572 633.869,84.682 634.525,84.025 C635.182,83.369 636.072,83 637,83 L650.65,83 C651.874,82.988 652.988,83.582 653.642,84.575 L656.499,88.808 C658.419,91.724 661.713,93.5 665.244,93.5 L693,93.5 C693.928,93.5 694.818,93.869 695.475,94.525 C696.131,95.182 696.5,96.072 696.5,97 L696.5,111.35 C696.5,113.283 698.067,114.85 700,114.85 C701.933,114.85 703.5,113.283 703.5,111.35 L703.5,97 C703.5,94.215 702.394,91.545 700.425,89.576 C698.456,87.607 695.785,86.5 693,86.5 L665.245,86.5 C664.069,86.5 662.97,85.908 662.323,84.925 L659.466,80.692 C657.526,77.745 654.184,75.966 650.616,76.001 L637,76 C634.215,76 631.544,77.107 629.575,79.076 C627.606,81.045 626.5,83.716 626.5,86.5 L626.5,132 C626.5,134.785 627.606,137.456 629.575,139.425 C631.544,141.394 634.215,142.5 637,142.5 L660.45,142.5 C662.383,142.5 663.95,140.933 663.95,139 C663.95,137.067 662.383,135.5 660.45,135.5 Z" />
            <path d="M698.975,140.025 L692.325,133.375 C690.958,132.008 688.742,132.008 687.375,133.375 C686.008,134.742 686.008,136.958 687.375,138.325 L694.025,144.975 C695.392,146.342 697.608,146.342 698.975,144.975 C700.342,143.608 700.342,141.392 698.975,140.025 Z" />
            <path d="M675.5,128.5 C675.5,124.634 678.634,121.5 682.5,121.5 C686.366,121.5 689.5,124.634 689.5,128.5 C689.5,132.366 686.366,135.5 682.5,135.5 C678.634,135.5 675.5,132.366 675.5,128.5 Z M668.5,128.5 C668.5,136.232 674.768,142.5 682.5,142.5 C690.232,142.5 696.5,136.232 696.5,128.5 C696.5,120.768 690.232,114.5 682.5,114.5 C674.768,114.5 668.5,120.768 668.5,128.5 Z" />
        </g>
    </g>
</svg>