<?xml version="1.0" encoding="UTF-8"?>
<svg height="600" width="800" xmlns="http://www.w3.org/2000/svg" xmlns:xlink="http://www.w3.org/1999/xlink">
    <g id="Notes" font-family="LucidaGrande, 'Lucida Grande', sans-serif" font-size="13">
        <rect fill="white" height="600.0" width="800.0" x="0.0" y="0.0" />
        <g font-size="13">
            <text x="18.0" y="176.0">Small</text>
            <text x="18.0" y="376.0">Medium</text>
            <text x="18.0" y="576.0">Large</text>
        </g>
        <g font-size="9">
            <text x="250.0" y="30.0">Ultralight</text>
            <text x="450.0" y="30.0">Regular</text>
            <text x="650.0" y="30.0">Black</text>
            <text id="template-version" fill="#505050" text-anchor="end" x="785.0" y="575.0">Template v.3.0</text>
            <a href="https://github.com/swhitty/SwiftDraw">
                <text fill="#505050" text-anchor="end" x="785.0" y="590.0">https://github.com/swhitty/SwiftDraw</text>
            </a>
        </g>
    </g>
    <g id="Guides" stroke="rgb(39, 170, 225)" stroke-width="0.5">
        <path id="Capline-S" d="M18,76 l800,0" />
        <path id="H-reference" d="M85,145.755 L87.685,145.755 L113.369,79.287 L114.052,79.287 L114.052,76 L112.148,76 L85,145.755 Z M95.693,121.536 L130.996,121.536 L130.263,119.313 L96.474,119.313 L95.693,121.536 Z M139.15,145.755 L141.787,145.755 L114.638,76 L113.466,76 L113.466,79.287 L139.15,145.755 Z" stroke="none" transform="translate(0,200)" />
        <path id="Baseline-S" d="M18,146 l800,0" />
        <path id="left-margin-Ultralight-M" d="M226.5,256 l0,110" />
        <path id="right-margin-Ultralight-M" d="M303.5,256 l0,110" />
        <path id="left-margin-Regular-M" d="M426.5,256 l0,110" />
        <path id="right-margin-Regular-M" d="M503.5,256 l0,110" />
        <path id="left-margin-Black-M" d="M626.5,256 l0,110" />
        <path id="right-margin-Black-M" d="M703.5,256 l0,110" />
        <path id="Capline-M" d="M18,276 l800,0" />
        <path id="Baseline-M" d="M18,346 l800,0" />
        <path id="Capline-L" d="M18,476 l800,0" />
        <path id="Baseline-L" d="M18,546 l800,0" />
    </g>
    <g id="Symbols">
        <g id="Ultralight-M" transform="translate(0,200)">
            <path d="M296.5,126.01 C296.5,126.894 296.131,127.742 295.475,128.367 C294.818,128.992 293.928,129.344 293,129.344 L246.898,129.344 C244.113,129.344 241.442,130.398 239.474,132.274 L231.767,139.615 C232.058,139.339 232.494,139.256 232.873,139.406 C233.253,139.555 233.5,139.908 233.5,140.299 L233.5,86.002 C233.5,85.118 233.869,84.27 234.525,83.644 C235.182,83.019 236.072,82.668 237,82.668 L293,82.668 C293.928,82.668 294.818,83.019 295.475,83.644 C296.131,84.27 296.5,85.118 296.5,86.002 L296.5,126.01 Z M303.5,126.01 L303.5,86.002 C303.5,83.349 302.394,80.805 300.425,78.93 C298.456,77.054 295.785,76 293,76 L237,76 C234.215,76 231.545,77.054 229.575,78.929 C227.606,80.805 226.5,83.349 226.5,86.002 L226.5,140.299 C226.5,142.605 227.958,144.684 230.195,145.566 C232.431,146.448 235.005,145.961 236.717,144.33 L244.424,136.989 C245.08,136.363 245.971,136.012 246.899,136.012 L293,136.012 C295.785,136.012 298.455,134.958 300.425,133.082 C302.394,131.206 303.5,128.662 303.5,126.01 Z" />
            <path d="M255.525,93.646 L245.025,103.648 C243.658,104.95 243.658,107.061 245.025,108.363 L255.525,118.365 C256.892,119.667 259.108,119.667 260.475,118.365 C261.842,117.063 261.842,114.952 260.475,113.65 L249.975,103.648 L249.975,108.363 L260.475,98.361 C261.842,97.059 261.842,94.948 260.475,93.646 C259.108,92.344 256.892,92.344 255.525,93.646 Z" />
            <path d="M286,116.008 L286,112.674 C286,110.021 284.894,107.477 282.925,105.601 C280.956,103.726 278.285,102.672 275.5,102.672 L247.5,102.672 C245.567,102.672 244,104.165 244,106.006 C244,107.847 245.567,109.34 247.5,109.34 L275.5,109.34 C276.428,109.34 277.318,109.691 277.975,110.316 C278.631,110.942 279,111.79 279,112.674 L279,116.008 C279,117.849 280.567,119.342 282.5,119.342 C284.433,119.342 286,117.849 286,116.008 Z" />
        </g>
        <g id="Regular-M" transform="translate(0,200)">
            <path d="M496.5,126.01 C496.5,126.894 496.131,127.742 495.475,128.367 C494.818,128.992 493.928,129.344 493,129.344 L446.898,129.344 C444.113,129.344 441.442,130.398 439.474,132.274 L431.767,139.615 C432.058,139.339 432.494,139.256 432.873,139.406 C433.253,139.555 433.5,139.908 433.5,140.299 L433.5,86.002 C433.5,85.118 433.869,84.27 434.525,83.644 C435.182,83.019 436.072,82.668 437,82.668 L493,82.668 C493.928,82.668 494.818,83.019 495.475,83.644 C496.131,84.27 496.5,85.118 496.5,86.002 L496.5,126.01 Z M503.5,126.01 L503.5,86.002 C503.5,83.349 502.394,80.805 500.425,78.93 C498.456,77.054 495.785,76 493,76 L437,76 C434.215,76 431.544,77.054 429.575,78.929 C427.606,80.805 426.5,83.349 426.5,86.002 L426.5,140.299 C426.5,142.605 427.958,144.684 430.195,145.566 C432.431,146.448 435.005,145.961 436.717,144.33 L444.424,136.989 C445.08,136.363 445.971,136.012 446.899,136.012 L493,136.012 C495.785,136.012 498.455,134.958 500.425,133.082 C502.394,131.206 503.5,128.662 503.5,126.01 Z" />
            <path d="M455.525,93.646 L445.025,103.648 C443.658,104.95 443.658,107.061 445.025,108.363 L455.525,118.365 C456.892,119.667 459.108,119.667 460.475,118.365 C461.842,117.063 461.842,114.952 460.475,113.65 L449.975,103.648 L449.975,108.363 L460.475,98.361 C461.842,97.059 461.842,94.948 460.475,93.646 C459.108,92.344 456.892,92.344 455.525,93.646 Z" />
            <path d="M486,116.008 L486,112.674 C486,110.021 484.894,107.477 482.925,105.601 C480.956,103.726 478.285,102.672 475.5,102.672 L447.5,102.672 C445.567,102.672 444,104.165 444,106.006 C444,107.847 445.567,109.34 447.5,109.34 L475.5,109.34 C476.428,109.34 477.318,109.691 477.975,110.316 C478.631,110.942 479,111.79 479,112.674 L479,116.008 C479,117.849 480.567,119.342 482.5,119.342 C484.433,119.342 486,117.849 486,116.008 Z" />
        </g>
        <g id="Black-M" transform="translate(0,200)">
            <path d="M696.5,126.01 C696.5,126.894 696.131,127.742 695.475,128.367 C694.818,128.992 693.928,129.344 693,129.344 L646.898,129.344 C644.113,129.344 641.442,130.398 639.474,132.274 L631.767,139.615 C632.058,139.339 632.494,139.256 632.873,139.406 C633.253,139.555 633.5,139.908 633.5,140.299 L633.5,86.002 C633.5,85.118 633.869,84.27 634.525,83.644 C635.182,83.019 636.072,82.668 637,82.668 L693,82.668 C693.928,82.668 694.818,83.019 695.475,83.644 C696.131,84.27 696.5,85.118 696.5,86.002 L696.5,126.01 Z M703.5,126.01 L703.5,86.002 C703.5,83.349 702.394,80.805 700.425,78.93 C698.456,77.054 695.785,76 693,76 L637,76 C634.215,76 631.544,77.054 629.575,78.929 C627.606,80.805 626.5,83.349 626.5,86.002 L626.5,140.299 C626.5,142.605 627.958,144.684 630.195,145.566 C632.431,146.448 635.005,145.961 636.717,144.33 L644.424,136.989 C645.08,136.363 645.971,136.012 646.899,136.012 L693,136.012 C695.785,136.012 698.456,134.958 700.425,133.082 C702.394,131.206 703.5,128.662 703.5,126.01 Z" />
            <path d="M655.525,93.646 L645.025,103.648 C643.658,104.95 643.658,107.061 645.025,108.363 L655.525,118.365 C656.892,119.667 659.108,119.667 660.475,118.365 C661.842,117.063 661.842,114.952 660.475,113.65 L649.975,103.648 L649.975,108.363 L660.475,98.361 C661.842,97.059 661.842,94.948 660.475,93.646 C659.108,92.344 656.892,92.344 655.525,93.646 Z" />
            <path d="M686,116.008 L686,112.674 C686,110.021 684.894,107.477 682.925,105.601 C680.956,103.726 678.285,102.672 675.5,102.672 L647.5,102.672 C645.567,102.672 644,104.165 644,106.006 C644,107.847 645.567,109.34 647.5,109.34 L675.5,109.34 C676.428,109.34 677.318,109.691 677.975,110.316 C678.631,110.942 679,111.79 679,112.674 L679,116.008 C679,117.849 680.567,119.342 682.5,119.342 C684.433,119.342 686,117.849 686,116.008 Z" />
        </g>
    </g>
</svg>