<?xml version="1.0" encoding="UTF-8"?>
<svg height="600" width="800" xmlns="http://www.w3.org/2000/svg" xmlns:xlink="http://www.w3.org/1999/xlink">
    <g id="Notes" font-family="LucidaGrande, 'Lucida Grande', sans-serif" font-size="13">
        <rect fill="white" height="600.0" width="800.0" x="0.0" y="0.0" />
        <g font-size="13">
            <text x="18.0" y="176.0">Small</text>
            <text x="18.0" y="376.0">Medium</text>
            <text x="18.0" y="576.0">Large</text>
        </g>
        <g font-size="9">
            <text x="250.0" y="30.0">Ultralight</text>
            <text x="450.0" y="30.0">Regular</text>
            <text x="650.0" y="30.0">Black</text>
            <text id="template-version" fill="#505050" text-anchor="end" x="785.0" y="575.0">Template v.3.0</text>
            <a href="https://github.com/swhitty/SwiftDraw">
                <text fill="#505050" text-anchor="end" x="785.0" y="590.0">https://github.com/swhitty/SwiftDraw</text>
            </a>
        </g>
    </g>
    <g id="Guides" stroke="rgb(39, 170, 225)" stroke-width="0.5">
        <path id="Capline-S" d="M18,76 l800,0" />
        <path id="H-reference" d="M85,145.755 L87.685,145.755 L113.369,79.287 L114.052,79.287 L114.052,76 L112.148,76 L85,145.755 Z M95.693,121.536 L130.996,121.536 L130.263,119.313 L96.474,119.313 L95.693,121.536 Z M139.15,145.755 L141.787,145.755 L114.638,76 L113.466,76 L113.466,79.287 L139.15,145.755 Z" stroke="none" transform="translate(0,200)" />
        <path id="Baseline-S" d="M18,146 l800,0" />
        <path id="left-margin-Ultralight-M" d="M221,256 l0,110" />
        <path id="right-margin-Ultralight-M" d="M309,256 l0,110" />
        <path id="left-margin-Regular-M" d="M421,256 l0,110" />
        <path id="right-margin-Regular-M" d="M509,256 l0,110" />
        <path id="left-margin-Black-M" d="M621,256 l0,110" />
        <path id="right-margin-Black-M" d="M709,256 l0,110" />
        <path id="Capline-M" d="M18,276 l800,0" />
        <path id="Baseline-M" d="M18,346 l800,0" />
        <path id="Capline-L" d="M18,476 l800,0" />
        <path id="Baseline-L" d="M18,546 l800,0" />
    </g>
    <g id="Symbols">
        <g id="Ultralight-M" transform="translate(0,200)">
            <path d="M250.172,113.828 L258.172,121.828 C259.734,123.391 262.266,123.391 263.828,121.828 L279.828,105.828 C281.391,104.266 281.391,101.734 279.828,100.172 C278.266,98.609 275.734,98.609 274.172,100.172 L258.172,116.172 L263.828,116.172 L255.828,108.172 C254.266,106.609 251.734,106.609 250.172,108.172 C248.609,109.734 248.609,112.266 250.172,113.828 Z" />
            <path d="M241,91 C241,88.809 242.809,87 245,87 L285,87 C286.061,87 287.078,87.421 287.828,88.172 C288.579,88.922 289,89.939 289,91 L289,139 L293,135 L237,135 L241,139 L241,91 Z M233,91 L233,139 C233,141.209 234.791,143 237,143 L293,143 C295.209,143 297,141.209 297,139 L297,91 C297,87.817 295.736,84.765 293.485,82.515 C291.235,80.264 288.183,79 285,79 L245,79 C238.391,79 233,84.391 233,91 Z" />
            <path d="M305,135 L225,135 C222.791,135 221,136.791 221,139 C221,141.209 222.791,143 225,143 L305,143 C307.209,143 309,141.209 309,139 C309,136.791 307.209,135 305,135 Z" />
        </g>
        <g id="Regular-M" transform="translate(0,200)">
            <path d="M450.172,113.828 L458.172,121.828 C459.734,123.391 462.266,123.391 463.828,121.828 L479.828,105.828 C481.391,104.266 481.391,101.734 479.828,100.172 C478.266,98.609 475.734,98.609 474.172,100.172 L458.172,116.172 L463.828,116.172 L455.828,108.172 C454.266,106.609 451.734,106.609 450.172,108.172 C448.609,109.734 448.609,112.266 450.172,113.828 Z" />
            <path d="M441,91 C441,88.809 442.809,87 445,87 L485,87 C486.061,87 487.078,87.421 487.828,88.172 C488.579,88.922 489,89.939 489,91 L489,139 L493,135 L437,135 L441,139 L441,91 Z M433,91 L433,139 C433,141.209 434.791,143 437,143 L493,143 C495.209,143 497,141.209 497,139 L497,91 C497,87.817 495.736,84.765 493.485,82.515 C491.235,80.264 488.183,79 485,79 L445,79 C438.391,79 433,84.391 433,91 Z" />
            <path d="M505,135 L425,135 C422.791,135 421,136.791 421,139 C421,141.209 422.791,143 425,143 L505,143 C507.209,143 509,141.209 509,139 C509,136.791 507.209,135 505,135 Z" />
        </g>
        <g id="Black-M" transform="translate(0,200)">
            <path d="M650.172,113.828 L658.172,121.828 C659.734,123.391 662.266,123.391 663.828,121.828 L679.828,105.828 C681.391,104.266 681.391,101.734 679.828,100.172 C678.266,98.609 675.734,98.609 674.172,100.172 L658.172,116.172 L663.828,116.172 L655.828,108.172 C654.266,106.609 651.734,106.609 650.172,108.172 C648.609,109.734 648.609,112.266 650.172,113.828 Z" />
            <path d="M641,91 C641,88.809 642.809,87 645,87 L685,87 C686.061,87 687.078,87.421 687.828,88.172 C688.579,88.922 689,89.939 689,91 L689,139 L693,135 L637,135 L641,139 L641,91 Z M633,91 L633,139 C633,141.209 634.791,143 637,143 L693,143 C695.209,143 697,141.209 697,139 L697,91 C697,87.817 695.736,84.765 693.485,82.515 C691.235,80.264 688.183,79 685,79 L645,79 C638.391,79 633,84.391 633,91 Z" />
            <path d="M705,135 L625,135 C622.791,135 621,136.791 621,139 C621,141.209 622.791,143 625,143 L705,143 C707.209,143 709,141.209 709,139 C709,136.791 707.209,135 705,135 Z" />
        </g>
    </g>
</svg>