<?xml version="1.0" encoding="UTF-8"?>
<svg height="600" width="800" xmlns="http://www.w3.org/2000/svg" xmlns:xlink="http://www.w3.org/1999/xlink">
    <g id="Notes" font-family="LucidaGrande, 'Lucida Grande', sans-serif" font-size="13">
        <rect fill="white" height="600.0" width="800.0" x="0.0" y="0.0" />
        <g font-size="13">
            <text x="18.0" y="176.0">Small</text>
            <text x="18.0" y="376.0">Medium</text>
            <text x="18.0" y="576.0">Large</text>
        </g>
        <g font-size="9">
            <text x="250.0" y="30.0">Ultralight</text>
            <text x="450.0" y="30.0">Regular</text>
            <text x="650.0" y="30.0">Black</text>
            <text id="template-version" fill="#505050" text-anchor="end" x="785.0" y="575.0">Template v.3.0</text>
            <a href="https://github.com/swhitty/SwiftDraw">
                <text fill="#505050" text-anchor="end" x="785.0" y="590.0">https://github.com/swhitty/SwiftDraw</text>
            </a>
        </g>
    </g>
    <g id="Guides" stroke="rgb(39, 170, 225)" stroke-width="0.5">
        <path id="Capline-S" d="M18,76 l800,0" />
        <path id="H-reference" d="M85,145.755 L87.685,145.755 L113.369,79.287 L114.052,79.287 L114.052,76 L112.148,76 L85,145.755 Z M95.693,121.536 L130.996,121.536 L130.263,119.313 L96.474,119.313 L95.693,121.536 Z M139.15,145.755 L141.787,145.755 L114.638,76 L113.466,76 L113.466,79.287 L139.15,145.755 Z" stroke="none" transform="translate(0,200)" />
        <path id="Baseline-S" d="M18,146 l800,0" />
        <path id="left-margin-Ultralight-M" d="M230,256 l0,110" />
        <path id="right-margin-Ultralight-M" d="M300,256 l0,110" />
        <path id="left-margin-Regular-M" d="M430,256 l0,110" />
        <path id="right-margin-Regular-M" d="M500,256 l0,110" />
        <path id="left-margin-Black-M" d="M630,256 l0,110" />
        <path id="right-margin-Black-M" d="M700,256 l0,110" />
        <path id="Capline-M" d="M18,276 l800,0" />
        <path id="Baseline-M" d="M18,346 l800,0" />
        <path id="Capline-L" d="M18,476 l800,0" />
        <path id="Baseline-L" d="M18,546 l800,0" />
    </g>
    <g id="Symbols">
        <g id="Ultralight-M" transform="translate(0,200)">
            <path d="M242.269,107.708 L230.183,141.753 C229.287,144.277 231.719,146.712 234.242,145.817 L268.272,133.758 C269.928,133.172 270.795,131.353 270.208,129.697 C269.622,128.04 267.804,127.173 266.148,127.76 L232.119,139.819 L236.177,143.883 L248.263,109.838 C248.851,108.182 247.985,106.362 246.33,105.774 C244.675,105.186 242.857,106.052 242.269,107.708 Z" />
            <path d="M239.541,85.545 L239.573,85.545 C241.329,85.545 242.753,84.121 242.753,82.364 C242.753,80.606 241.329,79.182 239.573,79.182 L239.541,79.182 C237.785,79.182 236.361,80.606 236.361,82.364 C236.361,84.121 237.785,85.545 239.541,85.545 Z" />
            <path d="M296.788,101.455 L296.82,101.455 C298.576,101.455 300,100.03 300,98.273 C300,96.515 298.576,95.091 296.82,95.091 L296.788,95.091 C295.031,95.091 293.607,96.515 293.607,98.273 C293.607,100.03 295.031,101.455 296.788,101.455 Z" />
            <path d="M274.525,82.364 L274.557,82.364 C276.313,82.364 277.737,80.939 277.737,79.182 C277.737,77.425 276.313,76 274.557,76 L274.525,76 C272.769,76 271.345,77.425 271.345,79.182 C271.345,80.939 272.769,82.364 274.525,82.364 Z" />
            <path d="M296.788,139.636 L296.82,139.636 C298.576,139.636 300,138.212 300,136.455 C300,134.697 298.576,133.273 296.82,133.273 L296.788,133.273 C295.031,133.273 293.607,134.697 293.607,136.455 C293.607,138.212 295.031,139.636 296.788,139.636 Z" />
            <path d="M295.778,76.165 L288.654,78.551 C283.035,80.424 279.522,86.017 280.276,91.9 C280.372,92.731 279.693,93.5 278.819,93.5 L277.61,93.5 C273.35,93.5 269.683,96.493 268.889,100.668 L268.225,104.018 C267.884,105.742 269.004,107.416 270.727,107.758 C272.45,108.099 274.123,106.978 274.465,105.255 L275.132,101.882 C275.357,100.703 276.385,99.864 277.61,99.864 L278.819,99.864 C283.509,99.864 287.128,95.765 286.589,91.128 C286.218,88.225 287.929,85.5 290.669,84.587 L297.798,82.199 C299.463,81.641 300.361,79.838 299.804,78.172 C299.246,76.505 297.444,75.607 295.778,76.165 Z" />
            <path d="M297.975,111.23 L295.367,110.18 C290.742,108.35 285.608,111.233 284.75,116.113 C284.635,116.847 284.029,117.364 283.335,117.364 L280.886,117.364 C279.129,117.364 277.706,118.788 277.706,120.545 C277.706,122.303 279.129,123.727 280.886,123.727 L283.335,123.727 C287.158,123.727 290.431,120.934 291.025,117.158 C291.176,116.299 292.152,115.751 293.011,116.091 L295.6,117.134 C297.23,117.79 299.082,117 299.738,115.37 C300.394,113.74 299.605,111.886 297.975,111.23 Z" />
            <path d="M258.853,80.37 L259.903,82.979 C260.235,83.82 259.687,84.796 258.772,84.957 C255.077,85.484 252.263,88.801 252.263,92.641 L252.263,95.091 C252.263,96.848 253.687,98.273 255.443,98.273 C257.199,98.273 258.623,96.848 258.623,95.091 L258.623,92.641 C258.623,91.939 259.139,91.331 259.773,91.241 C264.751,90.367 267.632,85.231 265.811,80.621 L264.754,77.994 C264.098,76.364 262.246,75.574 260.616,76.23 C258.987,76.886 258.198,78.74 258.853,80.37 Z" />
            <path d="M259.555,116.432 C262.255,119.133 264.307,122.094 265.323,124.632 C266.09,126.547 266.083,127.673 265.916,127.841 C265.748,128.009 264.622,128.016 262.708,127.249 C260.171,126.232 257.212,124.179 254.511,121.477 C251.811,118.776 249.759,115.815 248.743,113.277 C247.976,111.362 247.983,110.236 248.151,110.068 C248.318,109.9 249.445,109.894 251.358,110.66 C253.895,111.677 256.854,113.73 259.555,116.432 Z M264.053,111.932 C256.792,104.668 248.053,101.166 243.653,105.568 C239.253,109.971 242.753,118.713 250.014,125.977 C257.275,133.242 266.013,136.743 270.413,132.341 C274.814,127.938 271.314,119.196 264.053,111.932 Z" />
        </g>
        <g id="Regular-M" transform="translate(0,200)">
            <path d="M442.269,107.708 L430.183,141.753 C429.287,144.277 431.719,146.712 434.242,145.817 L468.272,133.758 C469.928,133.172 470.795,131.353 470.208,129.697 C469.622,128.04 467.804,127.173 466.148,127.76 L432.118,139.819 L436.177,143.883 L448.263,109.838 C448.851,108.182 447.985,106.362 446.33,105.774 C444.675,105.186 442.857,106.052 442.269,107.708 Z" />
            <path d="M439.541,85.545 L439.573,85.545 C441.329,85.545 442.753,84.121 442.753,82.364 C442.753,80.606 441.329,79.182 439.573,79.182 L439.541,79.182 C437.785,79.182 436.361,80.606 436.361,82.364 C436.361,84.121 437.785,85.545 439.541,85.545 Z" />
            <path d="M496.788,101.455 L496.82,101.455 C498.576,101.455 500,100.03 500,98.273 C500,96.515 498.576,95.091 496.82,95.091 L496.788,95.091 C495.031,95.091 493.607,96.515 493.607,98.273 C493.607,100.03 495.031,101.455 496.788,101.455 Z" />
            <path d="M474.525,82.364 L474.557,82.364 C476.313,82.364 477.737,80.939 477.737,79.182 C477.737,77.425 476.313,76 474.557,76 L474.525,76 C472.769,76 471.345,77.425 471.345,79.182 C471.345,80.939 472.769,82.364 474.525,82.364 Z" />
            <path d="M496.788,139.636 L496.82,139.636 C498.576,139.636 500,138.212 500,136.455 C500,134.697 498.576,133.273 496.82,133.273 L496.788,133.273 C495.031,133.273 493.607,134.697 493.607,136.455 C493.607,138.212 495.031,139.636 496.788,139.636 Z" />
            <path d="M495.778,76.165 L488.654,78.551 C483.035,80.424 479.522,86.017 480.276,91.9 C480.372,92.731 479.693,93.5 478.819,93.5 L477.61,93.5 C473.35,93.5 469.683,96.493 468.889,100.668 L468.225,104.018 C467.884,105.742 469.004,107.416 470.727,107.758 C472.45,108.099 474.123,106.978 474.465,105.255 L475.132,101.882 C475.357,100.703 476.385,99.864 477.61,99.864 L478.819,99.864 C483.509,99.864 487.128,95.765 486.589,91.128 C486.218,88.225 487.929,85.5 490.669,84.587 L497.798,82.199 C499.463,81.641 500.361,79.838 499.804,78.172 C499.246,76.505 497.444,75.607 495.778,76.165 Z" />
            <path d="M497.975,111.23 L495.367,110.18 C490.742,108.35 485.608,111.233 484.75,116.113 C484.635,116.847 484.029,117.364 483.335,117.364 L480.886,117.364 C479.129,117.364 477.706,118.788 477.706,120.545 C477.706,122.303 479.129,123.727 480.886,123.727 L483.335,123.727 C487.158,123.727 490.431,120.934 491.025,117.158 C491.176,116.299 492.152,115.751 493.011,116.091 L495.6,117.134 C497.23,117.79 499.082,117 499.738,115.37 C500.394,113.74 499.605,111.886 497.975,111.23 Z" />
            <path d="M458.853,80.37 L459.903,82.979 C460.235,83.82 459.687,84.796 458.772,84.957 C455.077,85.484 452.263,88.801 452.263,92.641 L452.263,95.091 C452.263,96.848 453.687,98.273 455.443,98.273 C457.199,98.273 458.623,96.848 458.623,95.091 L458.623,92.641 C458.623,91.939 459.139,91.331 459.773,91.241 C464.751,90.367 467.632,85.231 465.811,80.621 L464.754,77.994 C464.098,76.364 462.246,75.574 460.616,76.23 C458.987,76.886 458.198,78.74 458.853,80.37 Z" />
            <path d="M459.555,116.432 C462.255,119.133 464.307,122.094 465.323,124.632 C466.09,126.547 466.083,127.673 465.916,127.841 C465.748,128.009 464.622,128.016 462.708,127.249 C460.171,126.232 457.212,124.179 454.511,121.477 C451.811,118.776 449.759,115.815 448.743,113.277 C447.976,111.362 447.983,110.236 448.151,110.068 C448.318,109.9 449.445,109.894 451.358,110.66 C453.895,111.677 456.854,113.73 459.555,116.432 Z M464.053,111.932 C456.792,104.668 448.053,101.166 443.653,105.568 C439.253,109.971 442.753,118.713 450.014,125.977 C457.275,133.242 466.013,136.743 470.413,132.341 C474.814,127.938 471.314,119.196 464.053,111.932 Z" />
        </g>
        <g id="Black-M" transform="translate(0,200)">
            <path d="M642.269,107.708 L630.183,141.753 C629.287,144.277 631.719,146.712 634.242,145.817 L668.272,133.758 C669.928,133.172 670.795,131.353 670.208,129.697 C669.622,128.04 667.804,127.173 666.148,127.76 L632.119,139.819 L636.177,143.883 L648.263,109.838 C648.851,108.182 647.985,106.362 646.33,105.774 C644.675,105.186 642.857,106.052 642.269,107.708 Z" />
            <path d="M639.541,85.545 L639.573,85.545 C641.329,85.545 642.753,84.121 642.753,82.364 C642.753,80.606 641.329,79.182 639.573,79.182 L639.541,79.182 C637.785,79.182 636.361,80.606 636.361,82.364 C636.361,84.121 637.785,85.545 639.541,85.545 Z" />
            <path d="M696.788,101.455 L696.82,101.455 C698.576,101.455 700,100.03 700,98.273 C700,96.515 698.576,95.091 696.82,95.091 L696.788,95.091 C695.031,95.091 693.607,96.515 693.607,98.273 C693.607,100.03 695.031,101.455 696.788,101.455 Z" />
            <path d="M674.525,82.364 L674.557,82.364 C676.313,82.364 677.737,80.939 677.737,79.182 C677.737,77.425 676.313,76 674.557,76 L674.525,76 C672.769,76 671.345,77.425 671.345,79.182 C671.345,80.939 672.769,82.364 674.525,82.364 Z" />
            <path d="M696.788,139.636 L696.82,139.636 C698.576,139.636 700,138.212 700,136.455 C700,134.697 698.576,133.273 696.82,133.273 L696.788,133.273 C695.031,133.273 693.607,134.697 693.607,136.455 C693.607,138.212 695.031,139.636 696.788,139.636 Z" />
            <path d="M695.778,76.165 L688.654,78.551 C683.035,80.424 679.522,86.017 680.276,91.9 C680.372,92.731 679.693,93.5 678.819,93.5 L677.61,93.5 C673.35,93.5 669.683,96.493 668.888,100.668 L668.225,104.018 C667.884,105.742 669.004,107.416 670.727,107.758 C672.45,108.099 674.123,106.978 674.465,105.255 L675.132,101.882 C675.357,100.703 676.385,99.864 677.61,99.864 L678.819,99.864 C683.509,99.864 687.128,95.765 686.589,91.128 C686.218,88.225 687.929,85.5 690.669,84.587 L697.798,82.199 C699.463,81.641 700.361,79.838 699.804,78.172 C699.246,76.505 697.444,75.607 695.778,76.165 Z" />
            <path d="M697.975,111.23 L695.367,110.18 C690.742,108.35 685.608,111.233 684.75,116.113 C684.635,116.847 684.029,117.364 683.335,117.364 L680.886,117.364 C679.13,117.364 677.706,118.788 677.706,120.545 C677.706,122.303 679.13,123.727 680.886,123.727 L683.335,123.727 C687.158,123.727 690.432,120.934 691.025,117.158 C691.176,116.299 692.152,115.751 693.011,116.091 L695.6,117.134 C697.23,117.79 699.082,117 699.738,115.37 C700.394,113.74 699.605,111.886 697.975,111.23 Z" />
            <path d="M658.853,80.37 L659.903,82.979 C660.235,83.82 659.687,84.796 658.772,84.957 C655.077,85.484 652.263,88.801 652.263,92.641 L652.263,95.091 C652.263,96.848 653.687,98.273 655.443,98.273 C657.199,98.273 658.623,96.848 658.623,95.091 L658.623,92.641 C658.623,91.939 659.139,91.331 659.773,91.241 C664.751,90.367 667.632,85.231 665.811,80.621 L664.754,77.994 C664.098,76.364 662.246,75.574 660.616,76.23 C658.987,76.886 658.198,78.74 658.853,80.37 Z" />
            <path d="M659.555,116.432 C662.255,119.133 664.307,122.094 665.323,124.632 C666.09,126.547 666.083,127.673 665.916,127.841 C665.748,128.009 664.622,128.016 662.708,127.249 C660.171,126.232 657.212,124.179 654.511,121.477 C651.811,118.776 649.759,115.815 648.743,113.277 C647.976,111.362 647.983,110.236 648.151,110.068 C648.318,109.9 649.445,109.894 651.358,110.66 C653.895,111.677 656.854,113.73 659.555,116.432 Z M664.053,111.932 C656.792,104.668 648.053,101.166 643.653,105.568 C639.253,109.971 642.753,118.713 650.014,125.977 C657.275,133.242 666.013,136.743 670.413,132.341 C674.814,127.938 671.314,119.196 664.053,111.932 Z" />
        </g>
    </g>
</svg>