<?xml version="1.0" encoding="UTF-8"?>
<svg height="600" width="800" xmlns="http://www.w3.org/2000/svg" xmlns:xlink="http://www.w3.org/1999/xlink">
    <g id="Notes" font-family="LucidaGrande, 'Lucida Grande', sans-serif" font-size="13">
        <rect fill="white" height="600.0" width="800.0" x="0.0" y="0.0" />
        <g font-size="13">
            <text x="18.0" y="176.0">Small</text>
            <text x="18.0" y="376.0">Medium</text>
            <text x="18.0" y="576.0">Large</text>
        </g>
        <g font-size="9">
            <text x="250.0" y="30.0">Ultralight</text>
            <text x="450.0" y="30.0">Regular</text>
            <text x="650.0" y="30.0">Black</text>
            <text id="template-version" fill="#505050" text-anchor="end" x="785.0" y="575.0">Template v.3.0</text>
            <a href="https://github.com/swhitty/SwiftDraw">
                <text fill="#505050" text-anchor="end" x="785.0" y="590.0">https://github.com/swhitty/SwiftDraw</text>
            </a>
        </g>
    </g>
    <g id="Guides" stroke="rgb(39, 170, 225)" stroke-width="0.5">
        <path id="Capline-S" d="M18,76 l800,0" />
        <path id="H-reference" d="M85,145.755 L87.685,145.755 L113.369,79.287 L114.052,79.287 L114.052,76 L112.148,76 L85,145.755 Z M95.693,121.536 L130.996,121.536 L130.263,119.313 L96.474,119.313 L95.693,121.536 Z M139.15,145.755 L141.787,145.755 L114.638,76 L113.466,76 L113.466,79.287 L139.15,145.755 Z" stroke="none" transform="translate(0,200)" />
        <path id="Baseline-S" d="M18,146 l800,0" />
        <path id="left-margin-Ultralight-M" d="M230,256 l0,110" />
        <path id="right-margin-Ultralight-M" d="M300,256 l0,110" />
        <path id="left-margin-Regular-M" d="M430,256 l0,110" />
        <path id="right-margin-Regular-M" d="M500,256 l0,110" />
        <path id="left-margin-Black-M" d="M630,256 l0,110" />
        <path id="right-margin-Black-M" d="M700,256 l0,110" />
        <path id="Capline-M" d="M18,276 l800,0" />
        <path id="Baseline-M" d="M18,346 l800,0" />
        <path id="Capline-L" d="M18,476 l800,0" />
        <path id="Baseline-L" d="M18,546 l800,0" />
    </g>
    <g id="Symbols">
        <g id="Ultralight-M" transform="translate(0,200)">
            <path d="M268.182,117.364 L268.182,123.727 C268.182,125.485 269.606,126.909 271.364,126.909 C273.121,126.909 274.545,125.485 274.545,123.727 L274.545,117.364 C274.545,115.606 273.121,114.182 271.364,114.182 C269.606,114.182 268.182,115.606 268.182,117.364 Z" />
            <path d="M268.182,136.455 L268.182,142.818 C268.182,144.575 269.606,146 271.364,146 C273.121,146 274.545,144.575 274.545,142.818 L274.545,136.455 C274.545,134.697 273.121,133.273 271.364,133.273 C269.606,133.273 268.182,134.697 268.182,136.455 Z" />
            <path d="M268.182,79.182 L268.182,85.545 C268.182,87.303 269.606,88.727 271.364,88.727 C273.121,88.727 274.545,87.303 274.545,85.545 L274.545,79.182 C274.545,77.425 273.121,76 271.364,76 C269.606,76 268.182,77.425 268.182,79.182 Z" />
            <path d="M268.182,98.273 L268.182,104.636 C268.182,106.394 269.606,107.818 271.364,107.818 C273.121,107.818 274.545,106.394 274.545,104.636 L274.545,98.273 C274.545,96.515 273.121,95.091 271.364,95.091 C269.606,95.091 268.182,96.515 268.182,98.273 Z" />
            <path d="M233.182,123.727 L258.636,123.727 C260.394,123.727 261.818,122.303 261.818,120.545 C261.818,118.788 260.394,117.364 258.636,117.364 L233.182,117.364 C231.425,117.364 230,118.788 230,120.545 C230,122.303 231.425,123.727 233.182,123.727 Z" />
            <path d="M233.182,85.545 L252.273,85.545 C253.117,85.545 253.926,85.881 254.523,86.477 C255.119,87.074 255.455,87.883 255.455,88.727 L255.455,133.273 C255.455,134.117 255.119,134.926 254.523,135.523 C253.926,136.119 253.117,136.455 252.273,136.455 L233.182,136.455 C231.425,136.455 230,137.879 230,139.636 C230,141.394 231.425,142.818 233.182,142.818 L252.273,142.818 C254.804,142.818 257.232,141.812 259.022,140.022 C260.812,138.232 261.818,135.804 261.818,133.273 L261.818,88.727 C261.818,86.196 260.812,83.768 259.022,81.978 C257.232,80.188 254.804,79.182 252.273,79.182 L233.182,79.182 C231.425,79.182 230,80.606 230,82.364 C230,84.121 231.425,85.545 233.182,85.545 Z" />
            <path d="M233.182,104.636 L258.636,104.636 C260.394,104.636 261.818,103.212 261.818,101.455 C261.818,99.697 260.394,98.273 258.636,98.273 L233.182,98.273 C231.425,98.273 230,99.697 230,101.455 C230,103.212 231.425,104.636 233.182,104.636 Z" />
            <path d="M296.818,117.364 L284.091,117.364 C282.334,117.364 280.909,118.788 280.909,120.545 C280.909,122.303 282.334,123.727 284.091,123.727 L296.818,123.727 C298.575,123.727 300,122.303 300,120.545 C300,118.788 298.575,117.364 296.818,117.364 Z" />
            <path d="M296.818,79.182 L290.455,79.182 C287.923,79.182 285.495,80.188 283.705,81.978 C281.915,83.768 280.909,86.196 280.909,88.727 L280.909,133.273 C280.909,135.804 281.915,138.232 283.705,140.022 C285.495,141.812 287.923,142.818 290.455,142.818 L296.818,142.818 C298.575,142.818 300,141.394 300,139.636 C300,137.879 298.575,136.455 296.818,136.455 L290.455,136.455 C289.611,136.455 288.801,136.119 288.205,135.523 C287.608,134.926 287.273,134.117 287.273,133.273 L287.273,88.727 C287.273,87.883 287.608,87.074 288.205,86.477 C288.801,85.881 289.611,85.545 290.455,85.545 L296.818,85.545 C298.575,85.545 300,84.121 300,82.364 C300,80.606 298.575,79.182 296.818,79.182 Z" />
            <path d="M296.818,98.273 L284.091,98.273 C282.334,98.273 280.909,99.697 280.909,101.455 C280.909,103.212 282.334,104.636 284.091,104.636 L296.818,104.636 C298.575,104.636 300,103.212 300,101.455 C300,99.697 298.575,98.273 296.818,98.273 Z" />
            <path d="M239.545,82.364 L239.545,139.636 C239.545,141.394 240.97,142.818 242.727,142.818 C244.485,142.818 245.909,141.394 245.909,139.636 L245.909,82.364 C245.909,80.606 244.485,79.182 242.727,79.182 C240.97,79.182 239.545,80.606 239.545,82.364 Z" />
        </g>
        <g id="Regular-M" transform="translate(0,200)">
            <path d="M468.182,117.364 L468.182,123.727 C468.182,125.485 469.606,126.909 471.364,126.909 C473.121,126.909 474.545,125.485 474.545,123.727 L474.545,117.364 C474.545,115.606 473.121,114.182 471.364,114.182 C469.606,114.182 468.182,115.606 468.182,117.364 Z" />
            <path d="M468.182,136.455 L468.182,142.818 C468.182,144.575 469.606,146 471.364,146 C473.121,146 474.545,144.575 474.545,142.818 L474.545,136.455 C474.545,134.697 473.121,133.273 471.364,133.273 C469.606,133.273 468.182,134.697 468.182,136.455 Z" />
            <path d="M468.182,79.182 L468.182,85.545 C468.182,87.303 469.606,88.727 471.364,88.727 C473.121,88.727 474.545,87.303 474.545,85.545 L474.545,79.182 C474.545,77.425 473.121,76 471.364,76 C469.606,76 468.182,77.425 468.182,79.182 Z" />
            <path d="M468.182,98.273 L468.182,104.636 C468.182,106.394 469.606,107.818 471.364,107.818 C473.121,107.818 474.545,106.394 474.545,104.636 L474.545,98.273 C474.545,96.515 473.121,95.091 471.364,95.091 C469.606,95.091 468.182,96.515 468.182,98.273 Z" />
            <path d="M433.182,123.727 L458.636,123.727 C460.394,123.727 461.818,122.303 461.818,120.545 C461.818,118.788 460.394,117.364 458.636,117.364 L433.182,117.364 C431.425,117.364 430,118.788 430,120.545 C430,122.303 431.425,123.727 433.182,123.727 Z" />
            <path d="M433.182,85.545 L452.273,85.545 C453.117,85.545 453.926,85.881 454.523,86.477 C455.119,87.074 455.455,87.883 455.455,88.727 L455.455,133.273 C455.455,134.117 455.119,134.926 454.523,135.523 C453.926,136.119 453.117,136.455 452.273,136.455 L433.182,136.455 C431.425,136.455 430,137.879 430,139.636 C430,141.394 431.425,142.818 433.182,142.818 L452.273,142.818 C454.804,142.818 457.232,141.812 459.022,140.022 C460.812,138.232 461.818,135.804 461.818,133.273 L461.818,88.727 C461.818,86.196 460.812,83.768 459.022,81.978 C457.232,80.188 454.804,79.182 452.273,79.182 L433.182,79.182 C431.425,79.182 430,80.606 430,82.364 C430,84.121 431.425,85.545 433.182,85.545 Z" />
            <path d="M433.182,104.636 L458.636,104.636 C460.394,104.636 461.818,103.212 461.818,101.455 C461.818,99.697 460.394,98.273 458.636,98.273 L433.182,98.273 C431.425,98.273 430,99.697 430,101.455 C430,103.212 431.425,104.636 433.182,104.636 Z" />
            <path d="M496.818,117.364 L484.091,117.364 C482.334,117.364 480.909,118.788 480.909,120.545 C480.909,122.303 482.334,123.727 484.091,123.727 L496.818,123.727 C498.575,123.727 500,122.303 500,120.545 C500,118.788 498.575,117.364 496.818,117.364 Z" />
            <path d="M496.818,79.182 L490.455,79.182 C487.923,79.182 485.495,80.188 483.705,81.978 C481.915,83.768 480.909,86.196 480.909,88.727 L480.909,133.273 C480.909,135.804 481.915,138.232 483.705,140.022 C485.495,141.812 487.923,142.818 490.455,142.818 L496.818,142.818 C498.575,142.818 500,141.394 500,139.636 C500,137.879 498.575,136.455 496.818,136.455 L490.455,136.455 C489.611,136.455 488.801,136.119 488.205,135.523 C487.608,134.926 487.273,134.117 487.273,133.273 L487.273,88.727 C487.273,87.883 487.608,87.074 488.205,86.477 C488.801,85.881 489.611,85.545 490.455,85.545 L496.818,85.545 C498.575,85.545 500,84.121 500,82.364 C500,80.606 498.575,79.182 496.818,79.182 Z" />
            <path d="M496.818,98.273 L484.091,98.273 C482.334,98.273 480.909,99.697 480.909,101.455 C480.909,103.212 482.334,104.636 484.091,104.636 L496.818,104.636 C498.575,104.636 500,103.212 500,101.455 C500,99.697 498.575,98.273 496.818,98.273 Z" />
            <path d="M439.545,82.364 L439.545,139.636 C439.545,141.394 440.97,142.818 442.727,142.818 C444.485,142.818 445.909,141.394 445.909,139.636 L445.909,82.364 C445.909,80.606 444.485,79.182 442.727,79.182 C440.97,79.182 439.545,80.606 439.545,82.364 Z" />
        </g>
        <g id="Black-M" transform="translate(0,200)">
            <path d="M668.182,117.364 L668.182,123.727 C668.182,125.485 669.606,126.909 671.364,126.909 C673.121,126.909 674.545,125.485 674.545,123.727 L674.545,117.364 C674.545,115.606 673.121,114.182 671.364,114.182 C669.606,114.182 668.182,115.606 668.182,117.364 Z" />
            <path d="M668.182,136.455 L668.182,142.818 C668.182,144.575 669.606,146 671.364,146 C673.121,146 674.545,144.575 674.545,142.818 L674.545,136.455 C674.545,134.697 673.121,133.273 671.364,133.273 C669.606,133.273 668.182,134.697 668.182,136.455 Z" />
            <path d="M668.182,79.182 L668.182,85.545 C668.182,87.303 669.606,88.727 671.364,88.727 C673.121,88.727 674.545,87.303 674.545,85.545 L674.545,79.182 C674.545,77.425 673.121,76 671.364,76 C669.606,76 668.182,77.425 668.182,79.182 Z" />
            <path d="M668.182,98.273 L668.182,104.636 C668.182,106.394 669.606,107.818 671.364,107.818 C673.121,107.818 674.545,106.394 674.545,104.636 L674.545,98.273 C674.545,96.515 673.121,95.091 671.364,95.091 C669.606,95.091 668.182,96.515 668.182,98.273 Z" />
            <path d="M633.182,123.727 L658.636,123.727 C660.394,123.727 661.818,122.303 661.818,120.545 C661.818,118.788 660.394,117.364 658.636,117.364 L633.182,117.364 C631.425,117.364 630,118.788 630,120.545 C630,122.303 631.425,123.727 633.182,123.727 Z" />
            <path d="M633.182,85.545 L652.273,85.545 C653.117,85.545 653.926,85.881 654.523,86.477 C655.119,87.074 655.455,87.883 655.455,88.727 L655.455,133.273 C655.455,134.117 655.119,134.926 654.523,135.523 C653.926,136.119 653.117,136.455 652.273,136.455 L633.182,136.455 C631.425,136.455 630,137.879 630,139.636 C630,141.394 631.425,142.818 633.182,142.818 L652.273,142.818 C654.804,142.818 657.232,141.812 659.022,140.022 C660.812,138.232 661.818,135.804 661.818,133.273 L661.818,88.727 C661.818,86.196 660.812,83.768 659.022,81.978 C657.232,80.188 654.804,79.182 652.273,79.182 L633.182,79.182 C631.425,79.182 630,80.606 630,82.364 C630,84.121 631.425,85.545 633.182,85.545 Z" />
            <path d="M633.182,104.636 L658.636,104.636 C660.394,104.636 661.818,103.212 661.818,101.455 C661.818,99.697 660.394,98.273 658.636,98.273 L633.182,98.273 C631.425,98.273 630,99.697 630,101.455 C630,103.212 631.425,104.636 633.182,104.636 Z" />
            <path d="M696.818,117.364 L684.091,117.364 C682.334,117.364 680.909,118.788 680.909,120.545 C680.909,122.303 682.334,123.727 684.091,123.727 L696.818,123.727 C698.575,123.727 700,122.303 700,120.545 C700,118.788 698.575,117.364 696.818,117.364 Z" />
            <path d="M696.818,79.182 L690.455,79.182 C687.923,79.182 685.495,80.188 683.705,81.978 C681.915,83.768 680.909,86.196 680.909,88.727 L680.909,133.273 C680.909,135.804 681.915,138.232 683.705,140.022 C685.495,141.812 687.923,142.818 690.455,142.818 L696.818,142.818 C698.575,142.818 700,141.394 700,139.636 C700,137.879 698.575,136.455 696.818,136.455 L690.455,136.455 C689.611,136.455 688.801,136.119 688.205,135.523 C687.608,134.926 687.273,134.117 687.273,133.273 L687.273,88.727 C687.273,87.883 687.608,87.074 688.205,86.477 C688.801,85.881 689.611,85.545 690.455,85.545 L696.818,85.545 C698.575,85.545 700,84.121 700,82.364 C700,80.606 698.575,79.182 696.818,79.182 Z" />
            <path d="M696.818,98.273 L684.091,98.273 C682.334,98.273 680.909,99.697 680.909,101.455 C680.909,103.212 682.334,104.636 684.091,104.636 L696.818,104.636 C698.575,104.636 700,103.212 700,101.455 C700,99.697 698.575,98.273 696.818,98.273 Z" />
            <path d="M639.545,82.364 L639.545,139.636 C639.545,141.394 640.97,142.818 642.727,142.818 C644.485,142.818 645.909,141.394 645.909,139.636 L645.909,82.364 C645.909,80.606 644.485,79.182 642.727,79.182 C640.97,79.182 639.545,80.606 639.545,82.364 Z" />
        </g>
    </g>
</svg>