<?xml version="1.0" encoding="UTF-8"?>
<svg height="600" width="800" xmlns="http://www.w3.org/2000/svg" xmlns:xlink="http://www.w3.org/1999/xlink">
    <g id="Notes" font-family="LucidaGrande, 'Lucida Grande', sans-serif" font-size="13">
        <rect fill="white" height="600.0" width="800.0" x="0.0" y="0.0" />
        <g font-size="13">
            <text x="18.0" y="176.0">Small</text>
            <text x="18.0" y="376.0">Medium</text>
            <text x="18.0" y="576.0">Large</text>
        </g>
        <g font-size="9">
            <text x="250.0" y="30.0">Ultralight</text>
            <text x="450.0" y="30.0">Regular</text>
            <text x="650.0" y="30.0">Black</text>
            <text id="template-version" fill="#505050" text-anchor="end" x="785.0" y="575.0">Template v.3.0</text>
            <a href="https://github.com/swhitty/SwiftDraw">
                <text fill="#505050" text-anchor="end" x="785.0" y="590.0">https://github.com/swhitty/SwiftDraw</text>
            </a>
        </g>
    </g>
    <g id="Guides" stroke="rgb(39, 170, 225)" stroke-width="0.5">
        <path id="Capline-S" d="M18,76 l800,0" />
        <path id="H-reference" d="M85,145.755 L87.685,145.755 L113.369,79.287 L114.052,79.287 L114.052,76 L112.148,76 L85,145.755 Z M95.693,121.536 L130.996,121.536 L130.263,119.313 L96.474,119.313 L95.693,121.536 Z M139.15,145.755 L141.787,145.755 L114.638,76 L113.466,76 L113.466,79.287 L139.15,145.755 Z" stroke="none" transform="translate(0,200)" />
        <path id="Baseline-S" d="M18,146 l800,0" />
        <path id="left-margin-Ultralight-M" d="M238.333,256 l0,110" />
        <path id="right-margin-Ultralight-M" d="M291.667,256 l0,110" />
        <path id="left-margin-Regular-M" d="M438.333,256 l0,110" />
        <path id="right-margin-Regular-M" d="M491.667,256 l0,110" />
        <path id="left-margin-Black-M" d="M638.333,256 l0,110" />
        <path id="right-margin-Black-M" d="M691.667,256 l0,110" />
        <path id="Capline-M" d="M18,276 l800,0" />
        <path id="Baseline-M" d="M18,346 l800,0" />
        <path id="Capline-L" d="M18,476 l800,0" />
        <path id="Baseline-L" d="M18,546 l800,0" />
    </g>
    <g id="Symbols">
        <g id="Ultralight-M" transform="translate(0,200)">
            <path d="M251.667,146 L278.333,146 C280.174,146 281.667,144.508 281.667,142.667 C281.667,140.826 280.174,139.333 278.333,139.333 L251.667,139.333 C249.826,139.333 248.333,140.826 248.333,142.667 C248.333,144.508 249.826,146 251.667,146 Z" />
            <path d="M261.667,106 L261.667,142.667 C261.667,144.508 263.159,146 265,146 C266.841,146 268.333,144.508 268.333,142.667 L268.333,106 C268.333,104.159 266.841,102.667 265,102.667 C263.159,102.667 261.667,104.159 261.667,106 Z" />
            <path d="M285.825,77.138 L262.491,103.805 L267.509,103.805 L244.175,77.138 L241.667,82.667 L288.333,82.667 L285.825,77.138 Z M290.842,81.528 C292.728,79.373 291.197,76 288.333,76 L241.667,76 C238.803,76 237.272,79.373 239.158,81.528 L262.491,108.195 C263.819,109.713 266.181,109.713 267.509,108.195 L290.842,81.528 Z" />
        </g>
        <g id="Regular-M" transform="translate(0,200)">
            <path d="M451.667,146 L478.333,146 C480.174,146 481.667,144.508 481.667,142.667 C481.667,140.826 480.174,139.333 478.333,139.333 L451.667,139.333 C449.826,139.333 448.333,140.826 448.333,142.667 C448.333,144.508 449.826,146 451.667,146 Z" />
            <path d="M461.667,106 L461.667,142.667 C461.667,144.508 463.159,146 465,146 C466.841,146 468.333,144.508 468.333,142.667 L468.333,106 C468.333,104.159 466.841,102.667 465,102.667 C463.159,102.667 461.667,104.159 461.667,106 Z" />
            <path d="M485.825,77.138 L462.491,103.805 L467.509,103.805 L444.175,77.138 L441.667,82.667 L488.333,82.667 L485.825,77.138 Z M490.842,81.528 C492.728,79.373 491.197,76 488.333,76 L441.667,76 C438.803,76 437.272,79.373 439.158,81.528 L462.491,108.195 C463.819,109.713 466.181,109.713 467.509,108.195 L490.842,81.528 Z" />
        </g>
        <g id="Black-M" transform="translate(0,200)">
            <path d="M651.667,146 L678.333,146 C680.174,146 681.667,144.508 681.667,142.667 C681.667,140.826 680.174,139.333 678.333,139.333 L651.667,139.333 C649.826,139.333 648.333,140.826 648.333,142.667 C648.333,144.508 649.826,146 651.667,146 Z" />
            <path d="M661.667,106 L661.667,142.667 C661.667,144.508 663.159,146 665,146 C666.841,146 668.333,144.508 668.333,142.667 L668.333,106 C668.333,104.159 666.841,102.667 665,102.667 C663.159,102.667 661.667,104.159 661.667,106 Z" />
            <path d="M685.825,77.138 L662.491,103.805 L667.509,103.805 L644.175,77.138 L641.667,82.667 L688.333,82.667 L685.825,77.138 Z M690.842,81.528 C692.728,79.373 691.197,76 688.333,76 L641.667,76 C638.803,76 637.272,79.373 639.158,81.528 L662.491,108.195 C663.819,109.713 666.181,109.713 667.509,108.195 L690.842,81.528 Z" />
        </g>
    </g>
</svg>