<?xml version="1.0" encoding="UTF-8"?>
<svg height="600" width="800" xmlns="http://www.w3.org/2000/svg" xmlns:xlink="http://www.w3.org/1999/xlink">
    <g id="Notes" font-family="LucidaGrande, 'Lucida Grande', sans-serif" font-size="13">
        <rect fill="white" height="600.0" width="800.0" x="0.0" y="0.0" />
        <g font-size="13">
            <text x="18.0" y="176.0">Small</text>
            <text x="18.0" y="376.0">Medium</text>
            <text x="18.0" y="576.0">Large</text>
        </g>
        <g font-size="9">
            <text x="250.0" y="30.0">Ultralight</text>
            <text x="450.0" y="30.0">Regular</text>
            <text x="650.0" y="30.0">Black</text>
            <text id="template-version" fill="#505050" text-anchor="end" x="785.0" y="575.0">Template v.3.0</text>
            <a href="https://github.com/swhitty/SwiftDraw">
                <text fill="#505050" text-anchor="end" x="785.0" y="590.0">https://github.com/swhitty/SwiftDraw</text>
            </a>
        </g>
    </g>
    <g id="Guides" stroke="rgb(39, 170, 225)" stroke-width="0.5">
        <path id="Capline-S" d="M18,76 l800,0" />
        <path id="H-reference" d="M85,145.755 L87.685,145.755 L113.369,79.287 L114.052,79.287 L114.052,76 L112.148,76 L85,145.755 Z M95.693,121.536 L130.996,121.536 L130.263,119.313 L96.474,119.313 L95.693,121.536 Z M139.15,145.755 L141.787,145.755 L114.638,76 L113.466,76 L113.466,79.287 L139.15,145.755 Z" stroke="none" transform="translate(0,200)" />
        <path id="Baseline-S" d="M18,146 l800,0" />
        <path id="left-margin-Ultralight-M" d="M233.182,256 l0,110" />
        <path id="right-margin-Ultralight-M" d="M296.818,256 l0,110" />
        <path id="left-margin-Regular-M" d="M433.182,256 l0,110" />
        <path id="right-margin-Regular-M" d="M496.818,256 l0,110" />
        <path id="left-margin-Black-M" d="M633.182,256 l0,110" />
        <path id="right-margin-Black-M" d="M696.818,256 l0,110" />
        <path id="Capline-M" d="M18,276 l800,0" />
        <path id="Baseline-M" d="M18,346 l800,0" />
        <path id="Capline-L" d="M18,476 l800,0" />
        <path id="Baseline-L" d="M18,546 l800,0" />
    </g>
    <g id="Symbols">
        <g id="Ultralight-M" transform="translate(0,200)">
            <path d="M268.293,126.947 C268.293,123.572 266.952,120.335 264.565,117.948 C262.179,115.561 258.941,114.22 255.566,114.22 L254.597,114.214 C254.954,114.216 255.277,114.434 255.414,114.766 C255.55,115.098 255.474,115.48 255.22,115.734 L259.022,111.933 C259.619,111.336 260.428,111 261.272,111 L265,111 C270.272,111 274.545,106.726 274.545,101.455 C274.545,96.183 270.272,91.909 265,91.909 L256.228,91.909 C252.851,91.909 249.613,93.25 247.226,95.638 L238.613,104.251 C235.136,107.729 233.182,112.446 233.182,117.363 C233.182,124.958 236.199,132.242 241.569,137.613 C246.94,142.983 254.223,146 261.818,146 L268.182,146 C275.777,146 283.06,142.983 288.431,137.613 C293.801,132.242 296.818,124.958 296.818,117.364 L296.818,95.091 C296.818,89.819 292.545,85.545 287.273,85.545 C282.001,85.545 277.727,89.819 277.727,95.091 L277.727,101.455 C277.727,106.726 282.001,111 287.273,111 C292.545,111 296.818,106.726 296.818,101.455 C296.818,99.697 295.394,98.273 293.636,98.273 C291.879,98.273 290.455,99.697 290.455,101.455 C290.455,103.212 289.03,104.636 287.273,104.636 C285.515,104.636 284.091,103.212 284.091,101.455 L284.091,95.091 C284.091,93.334 285.515,91.909 287.273,91.909 C289.03,91.909 290.455,93.334 290.455,95.091 L290.455,117.364 C290.455,123.271 288.108,128.936 283.931,133.113 C279.754,137.29 274.089,139.636 268.182,139.636 L261.818,139.636 C255.911,139.636 250.246,137.29 246.069,133.113 C241.892,128.936 239.545,123.271 239.545,117.364 C239.546,114.133 240.829,111.035 243.113,108.75 L251.726,100.138 C252.92,98.943 254.539,98.273 256.227,98.273 L265,98.273 C266.757,98.273 268.182,99.697 268.182,101.455 C268.182,103.212 266.757,104.636 265,104.636 L261.271,104.636 C258.739,104.637 256.311,105.643 254.522,107.433 L250.72,111.235 C249.159,112.797 248.689,115.143 249.528,117.185 C250.367,119.226 252.35,120.564 254.558,120.577 L255.545,120.584 C257.254,120.584 258.872,121.254 260.066,122.448 C261.259,123.641 261.93,125.26 261.93,126.947 C261.93,128.705 263.354,130.129 265.111,130.129 C266.869,130.129 268.293,128.705 268.293,126.947 Z" />
            <path d="M269.238,106.206 C272.166,108.164 275.935,108.351 279.042,106.691 C282.15,105.032 284.09,101.796 284.091,98.273 L284.091,88.727 C284.091,83.455 279.817,79.182 274.545,79.182 C269.274,79.182 265,83.455 265,88.727 C265,90.485 266.425,91.909 268.182,91.909 C269.939,91.909 271.364,90.485 271.364,88.727 C271.364,86.97 272.788,85.545 274.545,85.545 C276.303,85.545 277.727,86.97 277.727,88.727 L277.727,98.273 C277.727,99.446 277.08,100.525 276.044,101.078 C275.009,101.631 273.752,101.569 272.776,100.916 C271.316,99.939 269.34,100.331 268.363,101.792 C267.386,103.252 267.778,105.229 269.238,106.206 Z" />
            <path d="M258.636,88.727 C258.636,83.455 254.363,79.182 249.091,79.182 C243.819,79.182 239.545,83.455 239.545,88.727 L239.545,104.636 C239.545,106.394 240.97,107.818 242.727,107.818 C244.485,107.818 245.909,106.394 245.909,104.636 L245.909,88.727 C245.909,86.97 247.334,85.545 249.091,85.545 C250.848,85.545 252.273,86.97 252.273,88.727 C252.273,90.485 253.697,91.909 255.455,91.909 C257.212,91.909 258.636,90.485 258.636,88.727 Z" />
            <path d="M258.636,95.091 L258.636,85.545 C258.636,83.788 260.061,82.364 261.818,82.364 C263.575,82.364 265,83.788 265,85.545 L265,95.944 C265,97.701 266.425,99.125 268.182,99.125 C269.939,99.125 271.364,97.701 271.364,95.944 L271.364,85.545 C271.364,80.274 267.09,76 261.818,76 C256.546,76 252.273,80.274 252.273,85.545 L252.273,95.091 C252.273,96.848 253.697,98.273 255.455,98.273 C257.212,98.273 258.636,96.848 258.636,95.091 Z" />
        </g>
        <g id="Regular-M" transform="translate(0,200)">
            <path d="M468.293,126.947 C468.293,123.572 466.952,120.335 464.565,117.948 C462.179,115.561 458.941,114.22 455.566,114.22 L454.597,114.214 C454.954,114.216 455.277,114.434 455.414,114.766 C455.55,115.098 455.474,115.48 455.22,115.734 L459.022,111.933 C459.619,111.336 460.428,111 461.272,111 L465,111 C470.272,111 474.545,106.726 474.545,101.455 C474.545,96.183 470.272,91.909 465,91.909 L456.228,91.909 C452.851,91.909 449.613,93.25 447.226,95.638 L438.613,104.251 C435.136,107.729 433.182,112.446 433.182,117.363 C433.182,124.958 436.199,132.242 441.569,137.613 C446.94,142.983 454.223,146 461.818,146 L468.182,146 C475.777,146 483.06,142.983 488.431,137.613 C493.801,132.242 496.818,124.958 496.818,117.364 L496.818,95.091 C496.818,89.819 492.545,85.545 487.273,85.545 C482.001,85.545 477.727,89.819 477.727,95.091 L477.727,101.455 C477.727,106.726 482.001,111 487.273,111 C492.545,111 496.818,106.726 496.818,101.455 C496.818,99.697 495.394,98.273 493.636,98.273 C491.879,98.273 490.455,99.697 490.455,101.455 C490.455,103.212 489.03,104.636 487.273,104.636 C485.515,104.636 484.091,103.212 484.091,101.455 L484.091,95.091 C484.091,93.334 485.515,91.909 487.273,91.909 C489.03,91.909 490.455,93.334 490.455,95.091 L490.455,117.364 C490.455,123.271 488.108,128.936 483.931,133.113 C479.754,137.29 474.089,139.636 468.182,139.636 L461.818,139.636 C455.911,139.636 450.246,137.29 446.069,133.113 C441.892,128.936 439.545,123.271 439.545,117.364 C439.546,114.133 440.829,111.035 443.113,108.75 L451.726,100.138 C452.92,98.943 454.539,98.273 456.227,98.273 L465,98.273 C466.757,98.273 468.182,99.697 468.182,101.455 C468.182,103.212 466.757,104.636 465,104.636 L461.271,104.636 C458.739,104.637 456.311,105.643 454.522,107.433 L450.72,111.235 C449.159,112.797 448.689,115.143 449.528,117.185 C450.367,119.226 452.35,120.564 454.558,120.577 L455.545,120.584 C457.254,120.584 458.872,121.254 460.066,122.448 C461.259,123.641 461.93,125.26 461.93,126.947 C461.93,128.705 463.354,130.129 465.111,130.129 C466.869,130.129 468.293,128.705 468.293,126.947 Z" />
            <path d="M469.238,106.206 C472.166,108.164 475.935,108.351 479.042,106.691 C482.15,105.032 484.09,101.796 484.091,98.273 L484.091,88.727 C484.091,83.455 479.817,79.182 474.545,79.182 C469.274,79.182 465,83.455 465,88.727 C465,90.485 466.425,91.909 468.182,91.909 C469.939,91.909 471.364,90.485 471.364,88.727 C471.364,86.97 472.788,85.545 474.545,85.545 C476.303,85.545 477.727,86.97 477.727,88.727 L477.727,98.273 C477.727,99.446 477.08,100.525 476.044,101.078 C475.009,101.631 473.752,101.569 472.776,100.916 C471.316,99.939 469.34,100.331 468.363,101.792 C467.386,103.252 467.778,105.229 469.238,106.206 Z" />
            <path d="M458.636,88.727 C458.636,83.455 454.363,79.182 449.091,79.182 C443.819,79.182 439.545,83.455 439.545,88.727 L439.545,104.636 C439.545,106.394 440.97,107.818 442.727,107.818 C444.485,107.818 445.909,106.394 445.909,104.636 L445.909,88.727 C445.909,86.97 447.334,85.545 449.091,85.545 C450.848,85.545 452.273,86.97 452.273,88.727 C452.273,90.485 453.697,91.909 455.455,91.909 C457.212,91.909 458.636,90.485 458.636,88.727 Z" />
            <path d="M458.636,95.091 L458.636,85.545 C458.636,83.788 460.061,82.364 461.818,82.364 C463.575,82.364 465,83.788 465,85.545 L465,95.944 C465,97.701 466.425,99.125 468.182,99.125 C469.939,99.125 471.364,97.701 471.364,95.944 L471.364,85.545 C471.364,80.274 467.09,76 461.818,76 C456.546,76 452.273,80.274 452.273,85.545 L452.273,95.091 C452.273,96.848 453.697,98.273 455.455,98.273 C457.212,98.273 458.636,96.848 458.636,95.091 Z" />
        </g>
        <g id="Black-M" transform="translate(0,200)">
            <path d="M668.293,126.947 C668.293,123.572 666.952,120.335 664.565,117.948 C662.179,115.561 658.941,114.22 655.566,114.22 L654.597,114.214 C654.954,114.216 655.277,114.434 655.414,114.766 C655.55,115.098 655.474,115.48 655.22,115.734 L659.022,111.933 C659.619,111.336 660.428,111 661.272,111 L665,111 C670.272,111 674.545,106.726 674.545,101.455 C674.545,96.183 670.272,91.909 665,91.909 L656.228,91.909 C652.851,91.909 649.613,93.25 647.226,95.638 L638.613,104.251 C635.136,107.729 633.182,112.446 633.182,117.363 C633.182,124.958 636.199,132.242 641.569,137.613 C646.94,142.983 654.223,146 661.818,146 L668.182,146 C675.777,146 683.06,142.983 688.431,137.613 C693.801,132.242 696.818,124.958 696.818,117.364 L696.818,95.091 C696.818,89.819 692.545,85.545 687.273,85.545 C682.001,85.545 677.727,89.819 677.727,95.091 L677.727,101.455 C677.727,106.726 682.001,111 687.273,111 C692.545,111 696.818,106.726 696.818,101.455 C696.818,99.697 695.394,98.273 693.636,98.273 C691.879,98.273 690.455,99.697 690.455,101.455 C690.455,103.212 689.03,104.636 687.273,104.636 C685.516,104.636 684.091,103.212 684.091,101.455 L684.091,95.091 C684.091,93.334 685.516,91.909 687.273,91.909 C689.03,91.909 690.455,93.334 690.455,95.091 L690.455,117.364 C690.455,123.271 688.108,128.936 683.931,133.113 C679.754,137.29 674.089,139.636 668.182,139.636 L661.818,139.636 C655.911,139.636 650.246,137.29 646.069,133.113 C641.892,128.936 639.545,123.271 639.545,117.364 C639.546,114.133 640.829,111.035 643.113,108.75 L651.726,100.138 C652.92,98.943 654.539,98.273 656.227,98.273 L665,98.273 C666.757,98.273 668.182,99.697 668.182,101.455 C668.182,103.212 666.757,104.636 665,104.636 L661.271,104.636 C658.739,104.637 656.311,105.643 654.522,107.433 L650.72,111.235 C649.159,112.797 648.689,115.143 649.528,117.185 C650.367,119.226 652.35,120.564 654.558,120.577 L655.545,120.584 C657.254,120.584 658.872,121.254 660.066,122.448 C661.259,123.641 661.93,125.26 661.93,126.947 C661.93,128.705 663.354,130.129 665.111,130.129 C666.869,130.129 668.293,128.705 668.293,126.947 Z" />
            <path d="M669.238,106.206 C672.166,108.164 675.935,108.351 679.042,106.691 C682.15,105.032 684.09,101.796 684.091,98.273 L684.091,88.727 C684.091,83.455 679.817,79.182 674.545,79.182 C669.274,79.182 665,83.455 665,88.727 C665,90.485 666.425,91.909 668.182,91.909 C669.939,91.909 671.364,90.485 671.364,88.727 C671.364,86.97 672.788,85.545 674.545,85.545 C676.303,85.545 677.727,86.97 677.727,88.727 L677.727,98.273 C677.727,99.446 677.08,100.525 676.044,101.078 C675.009,101.631 673.752,101.569 672.776,100.916 C671.316,99.939 669.34,100.331 668.363,101.792 C667.386,103.252 667.778,105.229 669.238,106.206 Z" />
            <path d="M658.636,88.727 C658.636,83.455 654.363,79.182 649.091,79.182 C643.819,79.182 639.545,83.455 639.545,88.727 L639.545,104.636 C639.545,106.394 640.97,107.818 642.727,107.818 C644.485,107.818 645.909,106.394 645.909,104.636 L645.909,88.727 C645.909,86.97 647.334,85.545 649.091,85.545 C650.848,85.545 652.273,86.97 652.273,88.727 C652.273,90.485 653.697,91.909 655.455,91.909 C657.212,91.909 658.636,90.485 658.636,88.727 Z" />
            <path d="M658.636,95.091 L658.636,85.545 C658.636,83.788 660.061,82.364 661.818,82.364 C663.575,82.364 665,83.788 665,85.545 L665,95.944 C665,97.701 666.425,99.125 668.182,99.125 C669.939,99.125 671.364,97.701 671.364,95.944 L671.364,85.545 C671.364,80.274 667.09,76 661.818,76 C656.546,76 652.273,80.274 652.273,85.545 L652.273,95.091 C652.273,96.848 653.697,98.273 655.455,98.273 C657.212,98.273 658.636,96.848 658.636,95.091 Z" />
        </g>
    </g>
</svg>