<?xml version="1.0" encoding="UTF-8"?>
<svg height="600" width="800" xmlns="http://www.w3.org/2000/svg" xmlns:xlink="http://www.w3.org/1999/xlink">
    <g id="Notes" font-family="LucidaGrande, 'Lucida Grande', sans-serif" font-size="13">
        <rect fill="white" height="600.0" width="800.0" x="0.0" y="0.0" />
        <g font-size="13">
            <text x="18.0" y="176.0">Small</text>
            <text x="18.0" y="376.0">Medium</text>
            <text x="18.0" y="576.0">Large</text>
        </g>
        <g font-size="9">
            <text x="250.0" y="30.0">Ultralight</text>
            <text x="450.0" y="30.0">Regular</text>
            <text x="650.0" y="30.0">Black</text>
            <text id="template-version" fill="#505050" text-anchor="end" x="785.0" y="575.0">Template v.3.0</text>
            <a href="https://github.com/swhitty/SwiftDraw">
                <text fill="#505050" text-anchor="end" x="785.0" y="590.0">https://github.com/swhitty/SwiftDraw</text>
            </a>
        </g>
    </g>
    <g id="Guides" stroke="rgb(39, 170, 225)" stroke-width="0.5">
        <path id="Capline-S" d="M18,76 l800,0" />
        <path id="H-reference" d="M85,145.755 L87.685,145.755 L113.369,79.287 L114.052,79.287 L114.052,76 L112.148,76 L85,145.755 Z M95.693,121.536 L130.996,121.536 L130.263,119.313 L96.474,119.313 L95.693,121.536 Z M139.15,145.755 L141.787,145.755 L114.638,76 L113.466,76 L113.466,79.287 L139.15,145.755 Z" stroke="none" transform="translate(0,200)" />
        <path id="Baseline-S" d="M18,146 l800,0" />
        <path id="left-margin-Ultralight-M" d="M233.182,256 l0,110" />
        <path id="right-margin-Ultralight-M" d="M296.818,256 l0,110" />
        <path id="left-margin-Regular-M" d="M433.182,256 l0,110" />
        <path id="right-margin-Regular-M" d="M496.818,256 l0,110" />
        <path id="left-margin-Black-M" d="M633.182,256 l0,110" />
        <path id="right-margin-Black-M" d="M696.818,256 l0,110" />
        <path id="Capline-M" d="M18,276 l800,0" />
        <path id="Baseline-M" d="M18,346 l800,0" />
        <path id="Capline-L" d="M18,476 l800,0" />
        <path id="Baseline-L" d="M18,546 l800,0" />
    </g>
    <g id="Symbols">
        <g id="Ultralight-M" transform="translate(0,200)">
            <path d="M280.909,111 L284.091,111 C287.605,111 290.455,113.849 290.455,117.364 C290.455,120.878 287.605,123.727 284.091,123.727 L280.909,123.727 C279.152,123.727 277.727,125.152 277.727,126.909 C277.727,128.666 279.152,130.091 280.909,130.091 L284.091,130.091 C291.12,130.091 296.818,124.393 296.818,117.364 C296.818,110.335 291.12,104.636 284.091,104.636 L280.909,104.636 C279.152,104.636 277.727,106.061 277.727,107.818 C277.727,109.575 279.152,111 280.909,111 Z" />
            <path d="M252.273,111 L252.273,130.091 C252.273,131.848 253.697,133.273 255.455,133.273 C257.212,133.273 258.636,131.848 258.636,130.091 L258.636,111 C258.636,109.243 257.212,107.818 255.455,107.818 C253.697,107.818 252.273,109.243 252.273,111 Z" />
            <path d="M265,111 L265,130.091 C265,131.848 266.425,133.273 268.182,133.273 C269.939,133.273 271.364,131.848 271.364,130.091 L271.364,111 C271.364,109.243 269.939,107.818 268.182,107.818 C266.425,107.818 265,109.243 265,111 Z" />
            <path d="M271.364,93.5 C270.102,93.5 269.022,93.674 267.739,94.025 C267.401,94.117 266.09,94.504 266.371,94.422 C264.742,94.895 263.59,95.091 261.818,95.091 C260.046,95.091 258.894,94.895 257.265,94.422 C257.547,94.504 256.235,94.117 255.897,94.025 C254.614,93.674 253.534,93.5 252.273,93.5 C250.531,93.5 249.199,93.784 247.089,94.439 C245.759,94.852 245.5,94.926 245.03,95.015 C244.756,95.067 244.524,95.091 244.318,95.091 C241.682,95.091 239.545,92.954 239.545,90.318 C239.545,87.682 241.682,85.545 244.318,85.545 C244.905,85.545 245.452,85.675 247.191,86.203 C249.366,86.864 250.625,87.136 252.273,87.136 C253.853,87.136 255.165,86.563 256.51,85.547 C256.823,85.31 257.125,85.061 257.507,84.729 C257.566,84.678 258.185,84.137 258.361,83.987 C259.757,82.793 260.618,82.364 261.818,82.364 C262.998,82.364 263.796,82.77 265.168,83.966 C264.87,83.706 266.204,84.886 266.561,85.178 C268.106,86.445 269.534,87.136 271.364,87.136 C273.105,87.136 274.438,86.853 276.547,86.198 C277.877,85.785 278.136,85.71 278.607,85.621 C278.88,85.57 279.112,85.545 279.318,85.545 C281.954,85.545 284.091,87.682 284.091,90.318 C284.091,92.954 281.954,95.091 279.318,95.091 C279.112,95.091 278.88,95.067 278.607,95.015 C278.136,94.926 277.877,94.852 276.547,94.439 C274.438,93.784 273.105,93.5 271.364,93.5 Z M271.364,99.864 C272.303,99.864 273.118,100.037 274.66,100.516 C276.274,101.017 276.612,101.114 277.426,101.268 C278.069,101.39 278.691,101.455 279.318,101.455 C285.469,101.455 290.455,96.469 290.455,90.318 C290.455,84.168 285.469,79.182 279.318,79.182 C278.691,79.182 278.069,79.247 277.426,79.368 C276.612,79.522 276.274,79.619 274.66,80.12 C273.118,80.599 272.303,80.773 271.364,80.773 C271.304,80.773 271.11,80.678 270.595,80.256 C270.346,80.052 269.154,78.999 269.35,79.17 C266.93,77.059 264.849,76 261.818,76 C258.798,76 256.666,77.064 254.226,79.149 C254.018,79.328 253.378,79.887 253.343,79.917 C253.057,80.165 252.853,80.334 252.672,80.47 C252.332,80.728 252.228,80.773 252.273,80.773 C251.435,80.773 250.646,80.602 249.042,80.115 C246.646,79.387 245.78,79.182 244.318,79.182 C238.168,79.182 233.182,84.168 233.182,90.318 C233.182,96.469 238.168,101.455 244.318,101.455 C244.945,101.455 245.567,101.39 246.211,101.268 C247.025,101.114 247.362,101.017 248.977,100.516 C250.519,100.037 251.334,99.864 252.273,99.864 C252.901,99.864 253.442,99.951 254.22,100.164 C254.487,100.237 255.702,100.595 255.489,100.533 C257.653,101.162 259.379,101.455 261.818,101.455 C264.257,101.455 265.984,101.162 268.147,100.533 C267.934,100.595 269.149,100.237 269.416,100.164 C270.194,99.951 270.736,99.864 271.364,99.864 Z" />
            <path d="M239.545,98.273 L239.545,136.455 C239.545,138.986 240.551,141.414 242.341,143.204 C244.131,144.994 246.559,146 249.091,146 L274.545,146 C277.077,146 279.505,144.994 281.295,143.204 C283.085,141.414 284.091,138.986 284.091,136.455 L284.091,98.273 C284.091,96.515 282.666,95.091 280.909,95.091 C279.152,95.091 277.727,96.515 277.727,98.273 L277.727,136.455 C277.727,137.298 277.392,138.108 276.795,138.704 C276.199,139.301 275.389,139.636 274.545,139.636 L249.091,139.636 C248.247,139.636 247.438,139.301 246.841,138.704 C246.244,138.108 245.909,137.298 245.909,136.455 L245.909,98.273 C245.909,96.515 244.485,95.091 242.727,95.091 C240.97,95.091 239.545,96.515 239.545,98.273 Z" />
        </g>
        <g id="Regular-M" transform="translate(0,200)">
            <path d="M480.909,111 L484.091,111 C487.605,111 490.455,113.849 490.455,117.364 C490.455,120.878 487.605,123.727 484.091,123.727 L480.909,123.727 C479.152,123.727 477.727,125.152 477.727,126.909 C477.727,128.666 479.152,130.091 480.909,130.091 L484.091,130.091 C491.12,130.091 496.818,124.393 496.818,117.364 C496.818,110.335 491.12,104.636 484.091,104.636 L480.909,104.636 C479.152,104.636 477.727,106.061 477.727,107.818 C477.727,109.575 479.152,111 480.909,111 Z" />
            <path d="M452.273,111 L452.273,130.091 C452.273,131.848 453.697,133.273 455.455,133.273 C457.212,133.273 458.636,131.848 458.636,130.091 L458.636,111 C458.636,109.243 457.212,107.818 455.455,107.818 C453.697,107.818 452.273,109.243 452.273,111 Z" />
            <path d="M465,111 L465,130.091 C465,131.848 466.425,133.273 468.182,133.273 C469.939,133.273 471.364,131.848 471.364,130.091 L471.364,111 C471.364,109.243 469.939,107.818 468.182,107.818 C466.425,107.818 465,109.243 465,111 Z" />
            <path d="M471.364,93.5 C470.102,93.5 469.022,93.674 467.739,94.025 C467.401,94.117 466.09,94.504 466.371,94.422 C464.742,94.895 463.59,95.091 461.818,95.091 C460.046,95.091 458.894,94.895 457.265,94.422 C457.547,94.504 456.235,94.117 455.897,94.025 C454.614,93.674 453.534,93.5 452.273,93.5 C450.531,93.5 449.199,93.784 447.089,94.439 C445.759,94.852 445.5,94.926 445.03,95.015 C444.756,95.067 444.524,95.091 444.318,95.091 C441.682,95.091 439.545,92.954 439.545,90.318 C439.545,87.682 441.682,85.545 444.318,85.545 C444.905,85.545 445.452,85.675 447.191,86.203 C449.366,86.864 450.625,87.136 452.273,87.136 C453.853,87.136 455.165,86.563 456.51,85.547 C456.823,85.31 457.125,85.061 457.507,84.729 C457.566,84.678 458.185,84.137 458.361,83.987 C459.757,82.793 460.618,82.364 461.818,82.364 C462.998,82.364 463.796,82.77 465.168,83.966 C464.87,83.706 466.204,84.886 466.561,85.178 C468.106,86.445 469.534,87.136 471.364,87.136 C473.105,87.136 474.438,86.853 476.547,86.198 C477.877,85.785 478.136,85.71 478.607,85.621 C478.88,85.57 479.112,85.545 479.318,85.545 C481.954,85.545 484.091,87.682 484.091,90.318 C484.091,92.954 481.954,95.091 479.318,95.091 C479.112,95.091 478.88,95.067 478.607,95.015 C478.136,94.926 477.877,94.852 476.547,94.439 C474.438,93.784 473.105,93.5 471.364,93.5 Z M471.364,99.864 C472.303,99.864 473.118,100.037 474.66,100.516 C476.274,101.017 476.612,101.114 477.426,101.268 C478.069,101.39 478.691,101.455 479.318,101.455 C485.469,101.455 490.455,96.469 490.455,90.318 C490.455,84.168 485.469,79.182 479.318,79.182 C478.691,79.182 478.069,79.247 477.426,79.368 C476.612,79.522 476.274,79.619 474.66,80.12 C473.118,80.599 472.303,80.773 471.364,80.773 C471.304,80.773 471.11,80.678 470.595,80.256 C470.346,80.052 469.154,78.999 469.35,79.17 C466.93,77.059 464.849,76 461.818,76 C458.798,76 456.666,77.064 454.226,79.149 C454.018,79.328 453.378,79.887 453.343,79.917 C453.057,80.165 452.853,80.334 452.672,80.47 C452.332,80.728 452.228,80.773 452.273,80.773 C451.435,80.773 450.646,80.602 449.042,80.115 C446.646,79.387 445.78,79.182 444.318,79.182 C438.168,79.182 433.182,84.168 433.182,90.318 C433.182,96.469 438.168,101.455 444.318,101.455 C444.945,101.455 445.567,101.39 446.211,101.268 C447.025,101.114 447.362,101.017 448.977,100.516 C450.519,100.037 451.334,99.864 452.273,99.864 C452.901,99.864 453.442,99.951 454.22,100.164 C454.487,100.237 455.702,100.595 455.489,100.533 C457.653,101.162 459.379,101.455 461.818,101.455 C464.257,101.455 465.984,101.162 468.147,100.533 C467.934,100.595 469.149,100.237 469.416,100.164 C470.194,99.951 470.736,99.864 471.364,99.864 Z" />
            <path d="M439.545,98.273 L439.545,136.455 C439.545,138.986 440.551,141.414 442.341,143.204 C444.131,144.994 446.559,146 449.091,146 L474.545,146 C477.077,146 479.505,144.994 481.295,143.204 C483.085,141.414 484.091,138.986 484.091,136.455 L484.091,98.273 C484.091,96.515 482.666,95.091 480.909,95.091 C479.152,95.091 477.727,96.515 477.727,98.273 L477.727,136.455 C477.727,137.298 477.392,138.108 476.795,138.704 C476.199,139.301 475.389,139.636 474.545,139.636 L449.091,139.636 C448.247,139.636 447.438,139.301 446.841,138.704 C446.244,138.108 445.909,137.298 445.909,136.455 L445.909,98.273 C445.909,96.515 444.485,95.091 442.727,95.091 C440.97,95.091 439.545,96.515 439.545,98.273 Z" />
        </g>
        <g id="Black-M" transform="translate(0,200)">
            <path d="M680.909,111 L684.091,111 C687.605,111 690.455,113.849 690.455,117.364 C690.455,120.878 687.605,123.727 684.091,123.727 L680.909,123.727 C679.152,123.727 677.727,125.152 677.727,126.909 C677.727,128.666 679.152,130.091 680.909,130.091 L684.091,130.091 C691.12,130.091 696.818,124.393 696.818,117.364 C696.818,110.335 691.12,104.636 684.091,104.636 L680.909,104.636 C679.152,104.636 677.727,106.061 677.727,107.818 C677.727,109.575 679.152,111 680.909,111 Z" />
            <path d="M652.273,111 L652.273,130.091 C652.273,131.848 653.697,133.273 655.455,133.273 C657.212,133.273 658.636,131.848 658.636,130.091 L658.636,111 C658.636,109.243 657.212,107.818 655.455,107.818 C653.697,107.818 652.273,109.243 652.273,111 Z" />
            <path d="M665,111 L665,130.091 C665,131.848 666.425,133.273 668.182,133.273 C669.939,133.273 671.364,131.848 671.364,130.091 L671.364,111 C671.364,109.243 669.939,107.818 668.182,107.818 C666.425,107.818 665,109.243 665,111 Z" />
            <path d="M671.364,93.5 C670.102,93.5 669.022,93.674 667.739,94.025 C667.401,94.117 666.09,94.504 666.371,94.422 C664.742,94.895 663.59,95.091 661.818,95.091 C660.046,95.091 658.894,94.895 657.265,94.422 C657.547,94.504 656.235,94.117 655.897,94.025 C654.614,93.674 653.534,93.5 652.273,93.5 C650.531,93.5 649.199,93.784 647.089,94.439 C645.759,94.852 645.5,94.926 645.03,95.015 C644.756,95.067 644.524,95.091 644.318,95.091 C641.682,95.091 639.545,92.954 639.545,90.318 C639.545,87.682 641.682,85.545 644.318,85.545 C644.905,85.545 645.452,85.675 647.191,86.203 C649.366,86.864 650.625,87.136 652.273,87.136 C653.854,87.136 655.165,86.563 656.51,85.547 C656.823,85.31 657.125,85.061 657.507,84.729 C657.567,84.678 658.185,84.137 658.361,83.987 C659.757,82.793 660.618,82.364 661.818,82.364 C662.998,82.364 663.796,82.77 665.168,83.966 C664.87,83.706 666.204,84.886 666.561,85.178 C668.106,86.445 669.534,87.136 671.364,87.136 C673.105,87.136 674.438,86.853 676.547,86.198 C677.878,85.785 678.136,85.71 678.607,85.621 C678.88,85.57 679.112,85.545 679.318,85.545 C681.954,85.545 684.091,87.682 684.091,90.318 C684.091,92.954 681.954,95.091 679.318,95.091 C679.112,95.091 678.88,95.067 678.607,95.015 C678.136,94.926 677.878,94.852 676.547,94.439 C674.438,93.784 673.105,93.5 671.364,93.5 Z M671.364,99.864 C672.303,99.864 673.118,100.037 674.66,100.516 C676.274,101.017 676.612,101.114 677.426,101.268 C678.069,101.39 678.692,101.455 679.318,101.455 C685.469,101.455 690.455,96.469 690.455,90.318 C690.455,84.168 685.469,79.182 679.318,79.182 C678.692,79.182 678.069,79.247 677.426,79.368 C676.612,79.522 676.274,79.619 674.66,80.12 C673.118,80.599 672.303,80.773 671.364,80.773 C671.304,80.773 671.11,80.678 670.595,80.256 C670.346,80.052 669.154,78.999 669.35,79.17 C666.93,77.059 664.849,76 661.818,76 C658.798,76 656.666,77.064 654.226,79.149 C654.018,79.328 653.378,79.887 653.343,79.917 C653.057,80.165 652.853,80.334 652.672,80.47 C652.332,80.728 652.228,80.773 652.273,80.773 C651.435,80.773 650.646,80.602 649.042,80.115 C646.646,79.387 645.78,79.182 644.318,79.182 C638.168,79.182 633.182,84.168 633.182,90.318 C633.182,96.469 638.168,101.455 644.318,101.455 C644.945,101.455 645.567,101.39 646.211,101.268 C647.025,101.114 647.362,101.017 648.977,100.516 C650.519,100.037 651.334,99.864 652.273,99.864 C652.901,99.864 653.442,99.951 654.22,100.164 C654.487,100.237 655.702,100.595 655.489,100.533 C657.653,101.162 659.379,101.455 661.818,101.455 C664.257,101.455 665.984,101.162 668.147,100.533 C667.934,100.595 669.149,100.237 669.416,100.164 C670.194,99.951 670.736,99.864 671.364,99.864 Z" />
            <path d="M639.545,98.273 L639.545,136.455 C639.545,138.986 640.551,141.414 642.341,143.204 C644.131,144.994 646.559,146 649.091,146 L674.545,146 C677.077,146 679.505,144.994 681.295,143.204 C683.085,141.414 684.091,138.986 684.091,136.455 L684.091,98.273 C684.091,96.515 682.666,95.091 680.909,95.091 C679.152,95.091 677.727,96.515 677.727,98.273 L677.727,136.455 C677.727,137.298 677.392,138.108 676.795,138.704 C676.199,139.301 675.389,139.636 674.545,139.636 L649.091,139.636 C648.247,139.636 647.438,139.301 646.841,138.704 C646.244,138.108 645.909,137.298 645.909,136.455 L645.909,98.273 C645.909,96.515 644.485,95.091 642.727,95.091 C640.97,95.091 639.545,96.515 639.545,98.273 Z" />
        </g>
    </g>
</svg>