<?xml version="1.0" encoding="UTF-8"?>
<svg height="600" width="800" xmlns="http://www.w3.org/2000/svg" xmlns:xlink="http://www.w3.org/1999/xlink">
    <g id="Notes" font-family="LucidaGrande, 'Lucida Grande', sans-serif" font-size="13">
        <rect fill="white" height="600.0" width="800.0" x="0.0" y="0.0" />
        <g font-size="13">
            <text x="18.0" y="176.0">Small</text>
            <text x="18.0" y="376.0">Medium</text>
            <text x="18.0" y="576.0">Large</text>
        </g>
        <g font-size="9">
            <text x="250.0" y="30.0">Ultralight</text>
            <text x="450.0" y="30.0">Regular</text>
            <text x="650.0" y="30.0">Black</text>
            <text id="template-version" fill="#505050" text-anchor="end" x="785.0" y="575.0">Template v.3.0</text>
            <a href="https://github.com/swhitty/SwiftDraw">
                <text fill="#505050" text-anchor="end" x="785.0" y="590.0">https://github.com/swhitty/SwiftDraw</text>
            </a>
        </g>
    </g>
    <g id="Guides" stroke="rgb(39, 170, 225)" stroke-width="0.5">
        <path id="Capline-S" d="M18,76 l800,0" />
        <path id="H-reference" d="M85,145.755 L87.685,145.755 L113.369,79.287 L114.052,79.287 L114.052,76 L112.148,76 L85,145.755 Z M95.693,121.536 L130.996,121.536 L130.263,119.313 L96.474,119.313 L95.693,121.536 Z M139.15,145.755 L141.787,145.755 L114.638,76 L113.466,76 L113.466,79.287 L139.15,145.755 Z" stroke="none" transform="translate(0,200)" />
        <path id="Baseline-S" d="M18,146 l800,0" />
        <path id="left-margin-Ultralight-M" d="M245.909,256 l0,110" />
        <path id="right-margin-Ultralight-M" d="M284.091,256 l0,110" />
        <path id="left-margin-Regular-M" d="M445.909,256 l0,110" />
        <path id="right-margin-Regular-M" d="M484.091,256 l0,110" />
        <path id="left-margin-Black-M" d="M645.909,256 l0,110" />
        <path id="right-margin-Black-M" d="M684.091,256 l0,110" />
        <path id="Capline-M" d="M18,276 l800,0" />
        <path id="Baseline-M" d="M18,346 l800,0" />
        <path id="Capline-L" d="M18,476 l800,0" />
        <path id="Baseline-L" d="M18,546 l800,0" />
    </g>
    <g id="Symbols">
        <g id="Ultralight-M" transform="translate(0,200)">
            <path d="M261.818,82.364 C261.818,82.364 261.818,82.364 261.818,82.364 C261.818,82.364 261.818,82.364 261.818,82.364 L268.182,82.364 C268.182,82.364 268.182,82.364 268.182,82.364 C268.182,82.364 268.182,82.364 268.182,82.364 L268.182,88.727 C268.182,93.546 269.745,98.236 272.636,102.091 L274.545,104.636 C276.611,107.39 277.727,110.74 277.727,114.182 L277.727,139.636 C277.727,139.636 277.727,139.636 277.727,139.636 C277.727,139.636 277.727,139.636 277.727,139.636 L252.273,139.636 C252.273,139.636 252.273,139.636 252.273,139.636 C252.273,139.636 252.273,139.636 252.273,139.636 L252.273,114.182 C252.273,110.74 253.389,107.39 255.455,104.636 L257.364,102.091 C260.255,98.236 261.818,93.546 261.818,88.727 L261.818,82.364 Z M255.455,82.364 L255.455,88.727 C255.455,92.17 254.338,95.519 252.273,98.273 L250.364,100.818 C247.472,104.674 245.909,109.363 245.909,114.182 L245.909,139.636 C245.909,141.324 246.58,142.943 247.773,144.136 C248.966,145.33 250.585,146 252.273,146 L277.727,146 C279.415,146 281.034,145.33 282.227,144.136 C283.42,142.943 284.091,141.324 284.091,139.636 L284.091,114.182 C284.091,109.363 282.528,104.674 279.636,100.818 L277.727,98.273 C275.662,95.519 274.545,92.17 274.545,88.727 L274.545,82.364 C274.545,80.676 273.875,79.057 272.682,77.864 C271.488,76.67 269.87,76 268.182,76 L261.818,76 C260.13,76 258.512,76.67 257.318,77.864 C256.125,79.057 255.455,80.676 255.455,82.364 Z" />
            <path d="M280.909,111 L268.182,111 C266.494,111 264.875,111.67 263.682,112.864 C262.489,114.057 261.818,115.676 261.818,117.364 L261.818,126.909 C261.818,128.597 262.489,130.215 263.682,131.409 C264.875,132.602 266.494,133.273 268.182,133.273 L280.909,133.273 C282.666,133.273 284.091,131.848 284.091,130.091 C284.091,128.334 282.666,126.909 280.909,126.909 L268.182,126.909 C268.182,126.909 268.182,126.909 268.182,126.909 C268.182,126.909 268.182,126.909 268.182,126.909 L268.182,117.364 C268.182,117.364 268.182,117.364 268.182,117.364 C268.182,117.364 268.182,117.364 268.182,117.364 L280.909,117.364 C282.666,117.364 284.091,115.939 284.091,114.182 C284.091,112.425 282.666,111 280.909,111 Z" />
        </g>
        <g id="Regular-M" transform="translate(0,200)">
            <path d="M461.818,82.364 C461.818,82.364 461.818,82.364 461.818,82.364 C461.818,82.364 461.818,82.364 461.818,82.364 L468.182,82.364 C468.182,82.364 468.182,82.364 468.182,82.364 C468.182,82.364 468.182,82.364 468.182,82.364 L468.182,88.727 C468.182,93.546 469.745,98.236 472.636,102.091 L474.545,104.636 C476.611,107.39 477.727,110.74 477.727,114.182 L477.727,139.636 C477.727,139.636 477.727,139.636 477.727,139.636 C477.727,139.636 477.727,139.636 477.727,139.636 L452.273,139.636 C452.273,139.636 452.273,139.636 452.273,139.636 C452.273,139.636 452.273,139.636 452.273,139.636 L452.273,114.182 C452.273,110.74 453.389,107.39 455.455,104.636 L457.364,102.091 C460.255,98.236 461.818,93.546 461.818,88.727 L461.818,82.364 Z M455.455,82.364 L455.455,88.727 C455.455,92.17 454.338,95.519 452.273,98.273 L450.364,100.818 C447.472,104.674 445.909,109.363 445.909,114.182 L445.909,139.636 C445.909,141.324 446.58,142.943 447.773,144.136 C448.966,145.33 450.585,146 452.273,146 L477.727,146 C479.415,146 481.034,145.33 482.227,144.136 C483.42,142.943 484.091,141.324 484.091,139.636 L484.091,114.182 C484.091,109.363 482.528,104.674 479.636,100.818 L477.727,98.273 C475.662,95.519 474.545,92.17 474.545,88.727 L474.545,82.364 C474.545,80.676 473.875,79.057 472.682,77.864 C471.488,76.67 469.87,76 468.182,76 L461.818,76 C460.13,76 458.512,76.67 457.318,77.864 C456.125,79.057 455.455,80.676 455.455,82.364 Z" />
            <path d="M480.909,111 L468.182,111 C466.494,111 464.875,111.67 463.682,112.864 C462.489,114.057 461.818,115.676 461.818,117.364 L461.818,126.909 C461.818,128.597 462.489,130.215 463.682,131.409 C464.875,132.602 466.494,133.273 468.182,133.273 L480.909,133.273 C482.666,133.273 484.091,131.848 484.091,130.091 C484.091,128.334 482.666,126.909 480.909,126.909 L468.182,126.909 C468.182,126.909 468.182,126.909 468.182,126.909 C468.182,126.909 468.182,126.909 468.182,126.909 L468.182,117.364 C468.182,117.364 468.182,117.364 468.182,117.364 C468.182,117.364 468.182,117.364 468.182,117.364 L480.909,117.364 C482.666,117.364 484.091,115.939 484.091,114.182 C484.091,112.425 482.666,111 480.909,111 Z" />
        </g>
        <g id="Black-M" transform="translate(0,200)">
            <path d="M661.818,82.364 C661.818,82.364 661.818,82.364 661.818,82.364 C661.818,82.364 661.818,82.364 661.818,82.364 L668.182,82.364 C668.182,82.364 668.182,82.364 668.182,82.364 C668.182,82.364 668.182,82.364 668.182,82.364 L668.182,88.727 C668.182,93.546 669.745,98.236 672.636,102.091 L674.545,104.636 C676.611,107.39 677.727,110.74 677.727,114.182 L677.727,139.636 C677.727,139.636 677.727,139.636 677.727,139.636 C677.727,139.636 677.727,139.636 677.727,139.636 L652.273,139.636 C652.273,139.636 652.273,139.636 652.273,139.636 C652.273,139.636 652.273,139.636 652.273,139.636 L652.273,114.182 C652.273,110.74 653.389,107.39 655.455,104.636 L657.364,102.091 C660.255,98.236 661.818,93.546 661.818,88.727 L661.818,82.364 Z M655.455,82.364 L655.455,88.727 C655.455,92.17 654.338,95.519 652.273,98.273 L650.364,100.818 C647.472,104.674 645.909,109.363 645.909,114.182 L645.909,139.636 C645.909,141.324 646.58,142.943 647.773,144.136 C648.966,145.33 650.585,146 652.273,146 L677.727,146 C679.415,146 681.034,145.33 682.227,144.136 C683.42,142.943 684.091,141.324 684.091,139.636 L684.091,114.182 C684.091,109.363 682.528,104.674 679.636,100.818 L677.727,98.273 C675.662,95.519 674.545,92.17 674.545,88.727 L674.545,82.364 C674.545,80.676 673.875,79.057 672.682,77.864 C671.488,76.67 669.87,76 668.182,76 L661.818,76 C660.13,76 658.512,76.67 657.318,77.864 C656.125,79.057 655.455,80.676 655.455,82.364 Z" />
            <path d="M680.909,111 L668.182,111 C666.494,111 664.875,111.67 663.682,112.864 C662.489,114.057 661.818,115.676 661.818,117.364 L661.818,126.909 C661.818,128.597 662.489,130.215 663.682,131.409 C664.875,132.602 666.494,133.273 668.182,133.273 L680.909,133.273 C682.666,133.273 684.091,131.848 684.091,130.091 C684.091,128.334 682.666,126.909 680.909,126.909 L668.182,126.909 C668.182,126.909 668.182,126.909 668.182,126.909 C668.182,126.909 668.182,126.909 668.182,126.909 L668.182,117.364 C668.182,117.364 668.182,117.364 668.182,117.364 C668.182,117.364 668.182,117.364 668.182,117.364 L680.909,117.364 C682.666,117.364 684.091,115.939 684.091,114.182 C684.091,112.425 682.666,111 680.909,111 Z" />
        </g>
    </g>
</svg>