<?xml version="1.0" encoding="UTF-8"?>
<svg height="600" width="800" xmlns="http://www.w3.org/2000/svg" xmlns:xlink="http://www.w3.org/1999/xlink">
    <g id="Notes" font-family="LucidaGrande, 'Lucida Grande', sans-serif" font-size="13">
        <rect fill="white" height="600.0" width="800.0" x="0.0" y="0.0" />
        <g font-size="13">
            <text x="18.0" y="176.0">Small</text>
            <text x="18.0" y="376.0">Medium</text>
            <text x="18.0" y="576.0">Large</text>
        </g>
        <g font-size="9">
            <text x="250.0" y="30.0">Ultralight</text>
            <text x="450.0" y="30.0">Regular</text>
            <text x="650.0" y="30.0">Black</text>
            <text id="template-version" fill="#505050" text-anchor="end" x="785.0" y="575.0">Template v.3.0</text>
            <a href="https://github.com/swhitty/SwiftDraw">
                <text fill="#505050" text-anchor="end" x="785.0" y="590.0">https://github.com/swhitty/SwiftDraw</text>
            </a>
        </g>
    </g>
    <g id="Guides" stroke="rgb(39, 170, 225)" stroke-width="0.5">
        <path id="Capline-S" d="M18,76 l800,0" />
        <path id="H-reference" d="M85,145.755 L87.685,145.755 L113.369,79.287 L114.052,79.287 L114.052,76 L112.148,76 L85,145.755 Z M95.693,121.536 L130.996,121.536 L130.263,119.313 L96.474,119.313 L95.693,121.536 Z M139.15,145.755 L141.787,145.755 L114.638,76 L113.466,76 L113.466,79.287 L139.15,145.755 Z" stroke="none" transform="translate(0,200)" />
        <path id="Baseline-S" d="M18,146 l800,0" />
        <path id="left-margin-Ultralight-M" d="M230,256 l0,110" />
        <path id="right-margin-Ultralight-M" d="M300,256 l0,110" />
        <path id="left-margin-Regular-M" d="M430,256 l0,110" />
        <path id="right-margin-Regular-M" d="M500,256 l0,110" />
        <path id="left-margin-Black-M" d="M630,256 l0,110" />
        <path id="right-margin-Black-M" d="M700,256 l0,110" />
        <path id="Capline-M" d="M18,276 l800,0" />
        <path id="Baseline-M" d="M18,346 l800,0" />
        <path id="Capline-L" d="M18,476 l800,0" />
        <path id="Baseline-L" d="M18,546 l800,0" />
    </g>
    <g id="Symbols">
        <g id="Ultralight-M" transform="translate(0,200)">
            <path d="M240.545,86.5 C241.133,85.9 241.933,85.557 242.773,85.545 L287.273,85.545 C288.117,85.545 288.926,85.881 289.523,86.477 C290.119,87.074 290.455,87.883 290.455,88.727 L290.455,133.273 C290.451,134.102 290.113,134.909 289.516,135.503 C288.27,136.741 288.264,138.756 289.503,140.002 C290.741,141.249 292.756,141.255 294.002,140.016 C295.795,138.234 296.807,135.814 296.818,133.286 L296.818,88.727 C296.818,86.196 295.812,83.768 294.022,81.978 C292.232,80.188 289.804,79.182 287.273,79.182 L242.727,79.182 C240.164,79.218 237.763,80.247 236,82.046 C234.77,83.301 234.791,85.315 236.046,86.545 C237.301,87.775 239.315,87.755 240.545,86.5 Z" />
            <path d="M233.182,100.5 L233.182,133.273 C233.182,135.804 234.188,138.232 235.978,140.022 C237.768,141.812 240.196,142.818 242.727,142.818 L275.5,142.818 C277.257,142.818 278.682,141.394 278.682,139.636 C278.682,137.879 277.257,136.455 275.5,136.455 L242.727,136.455 C241.883,136.455 241.074,136.119 240.477,135.523 C239.881,134.926 239.545,134.117 239.545,133.273 L239.545,100.5 C239.545,98.743 238.121,97.318 236.364,97.318 C234.606,97.318 233.182,98.743 233.182,100.5 Z" />
            <path d="M230.932,81.432 L294.568,145.068 C295.811,146.311 297.826,146.311 299.068,145.068 C300.311,143.825 300.311,141.811 299.068,140.568 L235.432,76.932 C234.189,75.689 232.175,75.689 230.932,76.932 C229.689,78.175 229.689,80.189 230.932,81.432 Z" />
            <path d="M268.182,117.364 C275.211,117.364 280.909,111.665 280.909,104.636 C280.909,97.607 275.211,91.909 268.182,91.909 L255.455,91.909 C253.697,91.909 252.273,93.334 252.273,95.091 L252.273,101.455 C252.273,103.212 253.697,104.636 255.455,104.636 C257.212,104.636 258.636,103.212 258.636,101.455 L258.636,95.091 L255.455,98.273 L268.182,98.273 C271.696,98.273 274.545,101.122 274.545,104.636 C274.545,108.151 271.696,111 268.182,111 C266.425,111 265,112.425 265,114.182 C265,115.939 266.425,117.364 268.182,117.364 Z" />
            <path d="M258.636,126.909 L258.636,119.591 C258.636,117.834 257.212,116.409 255.455,116.409 C253.697,116.409 252.273,117.834 252.273,119.591 L252.273,126.909 C252.273,128.666 253.697,130.091 255.455,130.091 C257.212,130.091 258.636,128.666 258.636,126.909 Z" />
        </g>
        <g id="Regular-M" transform="translate(0,200)">
            <path d="M440.545,86.5 C441.133,85.9 441.933,85.557 442.773,85.545 L487.273,85.545 C488.117,85.545 488.926,85.881 489.523,86.477 C490.119,87.074 490.455,87.883 490.455,88.727 L490.455,133.273 C490.451,134.102 490.113,134.909 489.516,135.503 C488.27,136.741 488.264,138.756 489.503,140.002 C490.741,141.249 492.756,141.255 494.002,140.016 C495.795,138.234 496.807,135.814 496.818,133.286 L496.818,88.727 C496.818,86.196 495.812,83.768 494.022,81.978 C492.232,80.188 489.804,79.182 487.273,79.182 L442.727,79.182 C440.164,79.218 437.763,80.247 436,82.046 C434.77,83.301 434.791,85.315 436.046,86.545 C437.301,87.775 439.315,87.755 440.545,86.5 Z" />
            <path d="M433.182,100.5 L433.182,133.273 C433.182,135.804 434.188,138.232 435.978,140.022 C437.768,141.812 440.196,142.818 442.727,142.818 L475.5,142.818 C477.257,142.818 478.682,141.394 478.682,139.636 C478.682,137.879 477.257,136.455 475.5,136.455 L442.727,136.455 C441.883,136.455 441.074,136.119 440.477,135.523 C439.881,134.926 439.545,134.117 439.545,133.273 L439.545,100.5 C439.545,98.743 438.121,97.318 436.364,97.318 C434.606,97.318 433.182,98.743 433.182,100.5 Z" />
            <path d="M430.932,81.432 L494.568,145.068 C495.811,146.311 497.826,146.311 499.068,145.068 C500.311,143.825 500.311,141.811 499.068,140.568 L435.432,76.932 C434.189,75.689 432.174,75.689 430.932,76.932 C429.689,78.175 429.689,80.189 430.932,81.432 Z" />
            <path d="M468.182,117.364 C475.211,117.364 480.909,111.665 480.909,104.636 C480.909,97.607 475.211,91.909 468.182,91.909 L455.455,91.909 C453.697,91.909 452.273,93.334 452.273,95.091 L452.273,101.455 C452.273,103.212 453.697,104.636 455.455,104.636 C457.212,104.636 458.636,103.212 458.636,101.455 L458.636,95.091 L455.455,98.273 L468.182,98.273 C471.696,98.273 474.545,101.122 474.545,104.636 C474.545,108.151 471.696,111 468.182,111 C466.425,111 465,112.425 465,114.182 C465,115.939 466.425,117.364 468.182,117.364 Z" />
            <path d="M458.636,126.909 L458.636,119.591 C458.636,117.834 457.212,116.409 455.455,116.409 C453.697,116.409 452.273,117.834 452.273,119.591 L452.273,126.909 C452.273,128.666 453.697,130.091 455.455,130.091 C457.212,130.091 458.636,128.666 458.636,126.909 Z" />
        </g>
        <g id="Black-M" transform="translate(0,200)">
            <path d="M640.545,86.5 C641.133,85.9 641.933,85.557 642.773,85.545 L687.273,85.545 C688.117,85.545 688.926,85.881 689.523,86.477 C690.119,87.074 690.455,87.883 690.455,88.727 L690.455,133.273 C690.451,134.102 690.113,134.909 689.516,135.503 C688.27,136.741 688.264,138.756 689.503,140.002 C690.741,141.249 692.756,141.255 694.002,140.016 C695.795,138.234 696.807,135.814 696.818,133.286 L696.818,88.727 C696.818,86.196 695.812,83.768 694.022,81.978 C692.232,80.188 689.804,79.182 687.273,79.182 L642.727,79.182 C640.164,79.218 637.763,80.247 636,82.046 C634.77,83.301 634.791,85.315 636.046,86.545 C637.301,87.775 639.315,87.755 640.545,86.5 Z" />
            <path d="M633.182,100.5 L633.182,133.273 C633.182,135.804 634.188,138.232 635.978,140.022 C637.768,141.812 640.196,142.818 642.727,142.818 L675.5,142.818 C677.257,142.818 678.682,141.394 678.682,139.636 C678.682,137.879 677.257,136.455 675.5,136.455 L642.727,136.455 C641.883,136.455 641.074,136.119 640.477,135.523 C639.881,134.926 639.545,134.117 639.545,133.273 L639.545,100.5 C639.545,98.743 638.121,97.318 636.364,97.318 C634.606,97.318 633.182,98.743 633.182,100.5 Z" />
            <path d="M630.932,81.432 L694.568,145.068 C695.811,146.311 697.826,146.311 699.068,145.068 C700.311,143.825 700.311,141.811 699.068,140.568 L635.432,76.932 C634.189,75.689 632.174,75.689 630.932,76.932 C629.689,78.175 629.689,80.189 630.932,81.432 Z" />
            <path d="M668.182,117.364 C675.211,117.364 680.909,111.665 680.909,104.636 C680.909,97.607 675.211,91.909 668.182,91.909 L655.455,91.909 C653.697,91.909 652.273,93.334 652.273,95.091 L652.273,101.455 C652.273,103.212 653.697,104.636 655.455,104.636 C657.212,104.636 658.636,103.212 658.636,101.455 L658.636,95.091 L655.455,98.273 L668.182,98.273 C671.696,98.273 674.545,101.122 674.545,104.636 C674.545,108.151 671.696,111 668.182,111 C666.425,111 665,112.425 665,114.182 C665,115.939 666.425,117.364 668.182,117.364 Z" />
            <path d="M658.636,126.909 L658.636,119.591 C658.636,117.834 657.212,116.409 655.455,116.409 C653.697,116.409 652.273,117.834 652.273,119.591 L652.273,126.909 C652.273,128.666 653.697,130.091 655.455,130.091 C657.212,130.091 658.636,128.666 658.636,126.909 Z" />
        </g>
    </g>
</svg>