<?xml version="1.0" encoding="UTF-8"?>
<svg height="600" width="800" xmlns="http://www.w3.org/2000/svg" xmlns:xlink="http://www.w3.org/1999/xlink">
    <g id="Notes" font-family="LucidaGrande, 'Lucida Grande', sans-serif" font-size="13">
        <rect fill="white" height="600.0" width="800.0" x="0.0" y="0.0" />
        <g font-size="13">
            <text x="18.0" y="176.0">Small</text>
            <text x="18.0" y="376.0">Medium</text>
            <text x="18.0" y="576.0">Large</text>
        </g>
        <g font-size="9">
            <text x="250.0" y="30.0">Ultralight</text>
            <text x="450.0" y="30.0">Regular</text>
            <text x="650.0" y="30.0">Black</text>
            <text id="template-version" fill="#505050" text-anchor="end" x="785.0" y="575.0">Template v.3.0</text>
            <a href="https://github.com/swhitty/SwiftDraw">
                <text fill="#505050" text-anchor="end" x="785.0" y="590.0">https://github.com/swhitty/SwiftDraw</text>
            </a>
        </g>
    </g>
    <g id="Guides" stroke="rgb(39, 170, 225)" stroke-width="0.5">
        <path id="Capline-S" d="M18,76 l800,0" />
        <path id="H-reference" d="M85,145.755 L87.685,145.755 L113.369,79.287 L114.052,79.287 L114.052,76 L112.148,76 L85,145.755 Z M95.693,121.536 L130.996,121.536 L130.263,119.313 L96.474,119.313 L95.693,121.536 Z M139.15,145.755 L141.787,145.755 L114.638,76 L113.466,76 L113.466,79.287 L139.15,145.755 Z" stroke="none" transform="translate(0,200)" />
        <path id="Baseline-S" d="M18,146 l800,0" />
        <path id="left-margin-Ultralight-M" d="M230,256 l0,110" />
        <path id="right-margin-Ultralight-M" d="M300,256 l0,110" />
        <path id="left-margin-Regular-M" d="M430,256 l0,110" />
        <path id="right-margin-Regular-M" d="M500,256 l0,110" />
        <path id="left-margin-Black-M" d="M630,256 l0,110" />
        <path id="right-margin-Black-M" d="M700,256 l0,110" />
        <path id="Capline-M" d="M18,276 l800,0" />
        <path id="Baseline-M" d="M18,346 l800,0" />
        <path id="Capline-L" d="M18,476 l800,0" />
        <path id="Baseline-L" d="M18,546 l800,0" />
    </g>
    <g id="Symbols">
        <g id="Ultralight-M" transform="translate(0,200)">
            <path d="M242.727,111 C242.727,98.699 252.699,88.727 265,88.727 C277.301,88.727 287.273,98.699 287.273,111 C287.273,123.301 277.301,133.273 265,133.273 C252.699,133.273 242.727,123.301 242.727,111 Z M236.364,111 C236.364,126.815 249.185,139.636 265,139.636 C280.815,139.636 293.636,126.815 293.636,111 C293.636,95.185 280.815,82.364 265,82.364 C249.185,82.364 236.364,95.185 236.364,111 Z" />
            <path d="M261.818,79.182 L261.818,103.045 C261.818,104.803 263.243,106.227 265,106.227 C266.757,106.227 268.182,104.803 268.182,103.045 L268.182,79.182 C268.182,77.425 266.757,76 265,76 C263.243,76 261.818,77.425 261.818,79.182 Z" />
            <path d="M285.023,86.477 L268.382,103.118 C267.139,104.361 267.139,106.375 268.382,107.618 C269.625,108.861 271.639,108.861 272.882,107.618 L289.523,90.977 C290.765,89.735 290.765,87.72 289.523,86.477 C288.28,85.235 286.265,85.235 285.023,86.477 Z" />
            <path d="M296.818,107.818 L272.955,107.818 C271.197,107.818 269.773,109.243 269.773,111 C269.773,112.757 271.197,114.182 272.955,114.182 L296.818,114.182 C298.575,114.182 300,112.757 300,111 C300,109.243 298.575,107.818 296.818,107.818 Z" />
            <path d="M289.523,131.023 L272.882,114.382 C271.639,113.139 269.625,113.139 268.382,114.382 C267.139,115.625 267.139,117.639 268.382,118.882 L285.023,135.523 C286.265,136.765 288.28,136.765 289.523,135.523 C290.765,134.28 290.765,132.265 289.523,131.023 Z" />
            <path d="M261.818,118.955 L261.818,142.818 C261.818,144.575 263.243,146 265,146 C266.757,146 268.182,144.575 268.182,142.818 L268.182,118.955 C268.182,117.197 266.757,115.773 265,115.773 C263.243,115.773 261.818,117.197 261.818,118.955 Z" />
            <path d="M257.118,114.382 L240.477,131.023 C239.235,132.265 239.235,134.28 240.477,135.523 C241.72,136.765 243.735,136.765 244.977,135.523 L261.618,118.882 C262.861,117.639 262.861,115.625 261.618,114.382 C260.375,113.139 258.361,113.139 257.118,114.382 Z" />
            <path d="M257.045,107.818 L233.182,107.818 C231.425,107.818 230,109.243 230,111 C230,112.757 231.425,114.182 233.182,114.182 L257.045,114.182 C258.803,114.182 260.227,112.757 260.227,111 C260.227,109.243 258.803,107.818 257.045,107.818 Z" />
            <path d="M261.618,103.118 L244.977,86.477 C243.735,85.235 241.72,85.235 240.477,86.477 C239.235,87.72 239.235,89.735 240.477,90.977 L257.118,107.618 C258.361,108.861 260.375,108.861 261.618,107.618 C262.861,106.375 262.861,104.361 261.618,103.118 Z" />
            <path d="M260.227,111 C260.227,108.364 262.364,106.227 265,106.227 C267.636,106.227 269.773,108.364 269.773,111 C269.773,113.636 267.636,115.773 265,115.773 C262.364,115.773 260.227,113.636 260.227,111 Z M253.864,111 C253.864,117.15 258.85,122.136 265,122.136 C271.15,122.136 276.136,117.15 276.136,111 C276.136,104.85 271.15,99.864 265,99.864 C258.85,99.864 253.864,104.85 253.864,111 Z" />
        </g>
        <g id="Regular-M" transform="translate(0,200)">
            <path d="M442.727,111 C442.727,98.699 452.699,88.727 465,88.727 C477.301,88.727 487.273,98.699 487.273,111 C487.273,123.301 477.301,133.273 465,133.273 C452.699,133.273 442.727,123.301 442.727,111 Z M436.364,111 C436.364,126.815 449.185,139.636 465,139.636 C480.815,139.636 493.636,126.815 493.636,111 C493.636,95.185 480.815,82.364 465,82.364 C449.185,82.364 436.364,95.185 436.364,111 Z" />
            <path d="M461.818,79.182 L461.818,103.045 C461.818,104.803 463.243,106.227 465,106.227 C466.757,106.227 468.182,104.803 468.182,103.045 L468.182,79.182 C468.182,77.425 466.757,76 465,76 C463.243,76 461.818,77.425 461.818,79.182 Z" />
            <path d="M485.023,86.477 L468.382,103.118 C467.139,104.361 467.139,106.375 468.382,107.618 C469.625,108.861 471.639,108.861 472.882,107.618 L489.523,90.977 C490.765,89.735 490.765,87.72 489.523,86.477 C488.28,85.235 486.265,85.235 485.023,86.477 Z" />
            <path d="M496.818,107.818 L472.955,107.818 C471.197,107.818 469.773,109.243 469.773,111 C469.773,112.757 471.197,114.182 472.955,114.182 L496.818,114.182 C498.575,114.182 500,112.757 500,111 C500,109.243 498.575,107.818 496.818,107.818 Z" />
            <path d="M489.523,131.023 L472.882,114.382 C471.639,113.139 469.625,113.139 468.382,114.382 C467.139,115.625 467.139,117.639 468.382,118.882 L485.023,135.523 C486.265,136.765 488.28,136.765 489.523,135.523 C490.765,134.28 490.765,132.265 489.523,131.023 Z" />
            <path d="M461.818,118.955 L461.818,142.818 C461.818,144.575 463.243,146 465,146 C466.757,146 468.182,144.575 468.182,142.818 L468.182,118.955 C468.182,117.197 466.757,115.773 465,115.773 C463.243,115.773 461.818,117.197 461.818,118.955 Z" />
            <path d="M457.118,114.382 L440.477,131.023 C439.235,132.265 439.235,134.28 440.477,135.523 C441.72,136.765 443.735,136.765 444.977,135.523 L461.618,118.882 C462.861,117.639 462.861,115.625 461.618,114.382 C460.375,113.139 458.361,113.139 457.118,114.382 Z" />
            <path d="M457.045,107.818 L433.182,107.818 C431.425,107.818 430,109.243 430,111 C430,112.757 431.425,114.182 433.182,114.182 L457.045,114.182 C458.803,114.182 460.227,112.757 460.227,111 C460.227,109.243 458.803,107.818 457.045,107.818 Z" />
            <path d="M461.618,103.118 L444.977,86.477 C443.735,85.235 441.72,85.235 440.477,86.477 C439.235,87.72 439.235,89.735 440.477,90.977 L457.118,107.618 C458.361,108.861 460.375,108.861 461.618,107.618 C462.861,106.375 462.861,104.361 461.618,103.118 Z" />
            <path d="M460.227,111 C460.227,108.364 462.364,106.227 465,106.227 C467.636,106.227 469.773,108.364 469.773,111 C469.773,113.636 467.636,115.773 465,115.773 C462.364,115.773 460.227,113.636 460.227,111 Z M453.864,111 C453.864,117.15 458.85,122.136 465,122.136 C471.15,122.136 476.136,117.15 476.136,111 C476.136,104.85 471.15,99.864 465,99.864 C458.85,99.864 453.864,104.85 453.864,111 Z" />
        </g>
        <g id="Black-M" transform="translate(0,200)">
            <path d="M642.727,111 C642.727,98.699 652.699,88.727 665,88.727 C677.301,88.727 687.273,98.699 687.273,111 C687.273,123.301 677.301,133.273 665,133.273 C652.699,133.273 642.727,123.301 642.727,111 Z M636.364,111 C636.364,126.815 649.185,139.636 665,139.636 C680.815,139.636 693.636,126.815 693.636,111 C693.636,95.185 680.815,82.364 665,82.364 C649.185,82.364 636.364,95.185 636.364,111 Z" />
            <path d="M661.818,79.182 L661.818,103.045 C661.818,104.803 663.243,106.227 665,106.227 C666.757,106.227 668.182,104.803 668.182,103.045 L668.182,79.182 C668.182,77.425 666.757,76 665,76 C663.243,76 661.818,77.425 661.818,79.182 Z" />
            <path d="M685.023,86.477 L668.382,103.118 C667.139,104.361 667.139,106.375 668.382,107.618 C669.625,108.861 671.639,108.861 672.882,107.618 L689.523,90.977 C690.765,89.735 690.765,87.72 689.523,86.477 C688.28,85.235 686.265,85.235 685.023,86.477 Z" />
            <path d="M696.818,107.818 L672.955,107.818 C671.197,107.818 669.773,109.243 669.773,111 C669.773,112.757 671.197,114.182 672.955,114.182 L696.818,114.182 C698.575,114.182 700,112.757 700,111 C700,109.243 698.575,107.818 696.818,107.818 Z" />
            <path d="M689.523,131.023 L672.882,114.382 C671.639,113.139 669.625,113.139 668.382,114.382 C667.139,115.625 667.139,117.639 668.382,118.882 L685.023,135.523 C686.265,136.765 688.28,136.765 689.523,135.523 C690.765,134.28 690.765,132.265 689.523,131.023 Z" />
            <path d="M661.818,118.955 L661.818,142.818 C661.818,144.575 663.243,146 665,146 C666.757,146 668.182,144.575 668.182,142.818 L668.182,118.955 C668.182,117.197 666.757,115.773 665,115.773 C663.243,115.773 661.818,117.197 661.818,118.955 Z" />
            <path d="M657.118,114.382 L640.477,131.023 C639.235,132.265 639.235,134.28 640.477,135.523 C641.72,136.765 643.735,136.765 644.977,135.523 L661.618,118.882 C662.861,117.639 662.861,115.625 661.618,114.382 C660.375,113.139 658.361,113.139 657.118,114.382 Z" />
            <path d="M657.045,107.818 L633.182,107.818 C631.425,107.818 630,109.243 630,111 C630,112.757 631.425,114.182 633.182,114.182 L657.045,114.182 C658.803,114.182 660.227,112.757 660.227,111 C660.227,109.243 658.803,107.818 657.045,107.818 Z" />
            <path d="M661.618,103.118 L644.977,86.477 C643.735,85.235 641.72,85.235 640.477,86.477 C639.235,87.72 639.235,89.735 640.477,90.977 L657.118,107.618 C658.361,108.861 660.375,108.861 661.618,107.618 C662.861,106.375 662.861,104.361 661.618,103.118 Z" />
            <path d="M660.227,111 C660.227,108.364 662.364,106.227 665,106.227 C667.636,106.227 669.773,108.364 669.773,111 C669.773,113.636 667.636,115.773 665,115.773 C662.364,115.773 660.227,113.636 660.227,111 Z M653.864,111 C653.864,117.15 658.85,122.136 665,122.136 C671.15,122.136 676.136,117.15 676.136,111 C676.136,104.85 671.15,99.864 665,99.864 C658.85,99.864 653.864,104.85 653.864,111 Z" />
        </g>
    </g>
</svg>