<?xml version="1.0" encoding="UTF-8"?>
<svg height="600" width="800" xmlns="http://www.w3.org/2000/svg" xmlns:xlink="http://www.w3.org/1999/xlink">
    <g id="Notes" font-family="LucidaGrande, 'Lucida Grande', sans-serif" font-size="13">
        <rect fill="white" height="600.0" width="800.0" x="0.0" y="0.0" />
        <g font-size="13">
            <text x="18.0" y="176.0">Small</text>
            <text x="18.0" y="376.0">Medium</text>
            <text x="18.0" y="576.0">Large</text>
        </g>
        <g font-size="9">
            <text x="250.0" y="30.0">Ultralight</text>
            <text x="450.0" y="30.0">Regular</text>
            <text x="650.0" y="30.0">Black</text>
            <text id="template-version" fill="#505050" text-anchor="end" x="785.0" y="575.0">Template v.3.0</text>
            <a href="https://github.com/swhitty/SwiftDraw">
                <text fill="#505050" text-anchor="end" x="785.0" y="590.0">https://github.com/swhitty/SwiftDraw</text>
            </a>
        </g>
    </g>
    <g id="Guides" stroke="rgb(39, 170, 225)" stroke-width="0.5">
        <path id="Capline-S" d="M18,76 l800,0" />
        <path id="H-reference" d="M85,145.755 L87.685,145.755 L113.369,79.287 L114.052,79.287 L114.052,76 L112.148,76 L85,145.755 Z M95.693,121.536 L130.996,121.536 L130.263,119.313 L96.474,119.313 L95.693,121.536 Z M139.15,145.755 L141.787,145.755 L114.638,76 L113.466,76 L113.466,79.287 L139.15,145.755 Z" stroke="none" transform="translate(0,200)" />
        <path id="Baseline-S" d="M18,146 l800,0" />
        <path id="left-margin-Ultralight-M" d="M230,256 l0,110" />
        <path id="right-margin-Ultralight-M" d="M300,256 l0,110" />
        <path id="left-margin-Regular-M" d="M430,256 l0,110" />
        <path id="right-margin-Regular-M" d="M500,256 l0,110" />
        <path id="left-margin-Black-M" d="M630,256 l0,110" />
        <path id="right-margin-Black-M" d="M700,256 l0,110" />
        <path id="Capline-M" d="M18,276 l800,0" />
        <path id="Baseline-M" d="M18,346 l800,0" />
        <path id="Capline-L" d="M18,476 l800,0" />
        <path id="Baseline-L" d="M18,546 l800,0" />
    </g>
    <g id="Symbols">
        <g id="Ultralight-M" transform="translate(0,200)">
            <path d="M238.91,83.265 C235.483,84.76 233.244,88.118 233.182,91.856 L233.182,136.455 C233.182,138.986 234.188,141.414 235.978,143.204 C237.768,144.994 240.196,146 242.727,146 L287.273,146 C291.03,145.992 294.428,143.789 295.966,140.368 C296.686,138.765 295.971,136.882 294.368,136.162 C292.765,135.441 290.882,136.156 290.162,137.759 C289.649,138.899 288.516,139.634 287.266,139.636 L242.727,139.636 C241.883,139.636 241.074,139.301 240.477,138.704 C239.881,138.108 239.545,137.298 239.545,136.455 L239.545,91.909 C239.566,90.716 240.312,89.597 241.454,89.098 C243.065,88.396 243.801,86.52 243.098,84.91 C242.396,83.299 240.52,82.563 238.91,83.265 Z" />
            <path d="M296.818,122.136 L296.818,91.909 C296.818,89.377 295.812,86.95 294.022,85.159 C292.232,83.369 289.804,82.364 287.273,82.364 L257.045,82.364 C255.288,82.364 253.864,83.788 253.864,85.545 C253.864,87.303 255.288,88.727 257.045,88.727 L287.273,88.727 C288.117,88.727 288.926,89.062 289.523,89.659 C290.119,90.256 290.455,91.065 290.455,91.909 L290.455,122.136 C290.455,123.894 291.879,125.318 293.636,125.318 C295.394,125.318 296.818,123.894 296.818,122.136 Z" />
            <path d="M274.545,79.182 L274.545,91.909 C274.545,93.666 275.97,95.091 277.727,95.091 C279.485,95.091 280.909,93.666 280.909,91.909 L280.909,79.182 C280.909,77.425 279.485,76 277.727,76 C275.97,76 274.545,77.425 274.545,79.182 Z" />
            <path d="M236.364,107.818 L258.636,107.818 C260.394,107.818 261.818,106.394 261.818,104.636 C261.818,102.879 260.394,101.455 258.636,101.455 L236.364,101.455 C234.606,101.455 233.182,102.879 233.182,104.636 C233.182,106.394 234.606,107.818 236.364,107.818 Z" />
            <path d="M293.636,101.455 L276.136,101.455 C274.379,101.455 272.955,102.879 272.955,104.636 C272.955,106.394 274.379,107.818 276.136,107.818 L293.636,107.818 C295.394,107.818 296.818,106.394 296.818,104.636 C296.818,102.879 295.394,101.455 293.636,101.455 Z" />
            <path d="M230.932,81.432 L294.568,145.068 C295.811,146.311 297.826,146.311 299.068,145.068 C300.311,143.825 300.311,141.811 299.068,140.568 L235.432,76.932 C234.189,75.689 232.175,75.689 230.932,76.932 C229.689,78.175 229.689,80.189 230.932,81.432 Z" />
        </g>
        <g id="Regular-M" transform="translate(0,200)">
            <path d="M438.91,83.265 C435.483,84.76 433.244,88.118 433.182,91.856 L433.182,136.455 C433.182,138.986 434.188,141.414 435.978,143.204 C437.768,144.994 440.196,146 442.727,146 L487.273,146 C491.03,145.992 494.428,143.789 495.966,140.368 C496.686,138.765 495.971,136.882 494.368,136.162 C492.765,135.441 490.882,136.156 490.162,137.759 C489.649,138.899 488.516,139.634 487.266,139.636 L442.727,139.636 C441.883,139.636 441.074,139.301 440.477,138.704 C439.881,138.108 439.545,137.298 439.545,136.455 L439.545,91.909 C439.566,90.716 440.312,89.597 441.454,89.098 C443.065,88.396 443.801,86.52 443.098,84.91 C442.396,83.299 440.52,82.563 438.91,83.265 Z" />
            <path d="M496.818,122.136 L496.818,91.909 C496.818,89.377 495.812,86.95 494.022,85.159 C492.232,83.369 489.804,82.364 487.273,82.364 L457.045,82.364 C455.288,82.364 453.864,83.788 453.864,85.545 C453.864,87.303 455.288,88.727 457.045,88.727 L487.273,88.727 C488.117,88.727 488.926,89.062 489.523,89.659 C490.119,90.256 490.455,91.065 490.455,91.909 L490.455,122.136 C490.455,123.894 491.879,125.318 493.636,125.318 C495.394,125.318 496.818,123.894 496.818,122.136 Z" />
            <path d="M474.545,79.182 L474.545,91.909 C474.545,93.666 475.97,95.091 477.727,95.091 C479.485,95.091 480.909,93.666 480.909,91.909 L480.909,79.182 C480.909,77.425 479.485,76 477.727,76 C475.97,76 474.545,77.425 474.545,79.182 Z" />
            <path d="M436.364,107.818 L458.636,107.818 C460.394,107.818 461.818,106.394 461.818,104.636 C461.818,102.879 460.394,101.455 458.636,101.455 L436.364,101.455 C434.606,101.455 433.182,102.879 433.182,104.636 C433.182,106.394 434.606,107.818 436.364,107.818 Z" />
            <path d="M493.636,101.455 L476.136,101.455 C474.379,101.455 472.955,102.879 472.955,104.636 C472.955,106.394 474.379,107.818 476.136,107.818 L493.636,107.818 C495.394,107.818 496.818,106.394 496.818,104.636 C496.818,102.879 495.394,101.455 493.636,101.455 Z" />
            <path d="M430.932,81.432 L494.568,145.068 C495.811,146.311 497.826,146.311 499.068,145.068 C500.311,143.825 500.311,141.811 499.068,140.568 L435.432,76.932 C434.189,75.689 432.174,75.689 430.932,76.932 C429.689,78.175 429.689,80.189 430.932,81.432 Z" />
        </g>
        <g id="Black-M" transform="translate(0,200)">
            <path d="M638.91,83.265 C635.483,84.76 633.244,88.118 633.182,91.856 L633.182,136.455 C633.182,138.986 634.188,141.414 635.978,143.204 C637.768,144.994 640.196,146 642.727,146 L687.273,146 C691.03,145.992 694.428,143.789 695.966,140.368 C696.686,138.765 695.971,136.882 694.368,136.162 C692.765,135.441 690.882,136.156 690.162,137.759 C689.649,138.899 688.516,139.634 687.266,139.636 L642.727,139.636 C641.883,139.636 641.074,139.301 640.477,138.704 C639.881,138.108 639.545,137.298 639.545,136.455 L639.545,91.909 C639.566,90.716 640.312,89.597 641.454,89.098 C643.065,88.396 643.801,86.52 643.098,84.91 C642.396,83.299 640.52,82.563 638.91,83.265 Z" />
            <path d="M696.818,122.136 L696.818,91.909 C696.818,89.377 695.812,86.95 694.022,85.159 C692.232,83.369 689.804,82.364 687.273,82.364 L657.045,82.364 C655.288,82.364 653.864,83.788 653.864,85.545 C653.864,87.303 655.288,88.727 657.045,88.727 L687.273,88.727 C688.117,88.727 688.926,89.062 689.523,89.659 C690.119,90.256 690.455,91.065 690.455,91.909 L690.455,122.136 C690.455,123.894 691.879,125.318 693.636,125.318 C695.394,125.318 696.818,123.894 696.818,122.136 Z" />
            <path d="M674.545,79.182 L674.545,91.909 C674.545,93.666 675.97,95.091 677.727,95.091 C679.485,95.091 680.909,93.666 680.909,91.909 L680.909,79.182 C680.909,77.425 679.485,76 677.727,76 C675.97,76 674.545,77.425 674.545,79.182 Z" />
            <path d="M636.364,107.818 L658.636,107.818 C660.394,107.818 661.818,106.394 661.818,104.636 C661.818,102.879 660.394,101.455 658.636,101.455 L636.364,101.455 C634.606,101.455 633.182,102.879 633.182,104.636 C633.182,106.394 634.606,107.818 636.364,107.818 Z" />
            <path d="M693.636,101.455 L676.136,101.455 C674.379,101.455 672.955,102.879 672.955,104.636 C672.955,106.394 674.379,107.818 676.136,107.818 L693.636,107.818 C695.394,107.818 696.818,106.394 696.818,104.636 C696.818,102.879 695.394,101.455 693.636,101.455 Z" />
            <path d="M630.932,81.432 L694.568,145.068 C695.811,146.311 697.826,146.311 699.068,145.068 C700.311,143.825 700.311,141.811 699.068,140.568 L635.432,76.932 C634.189,75.689 632.174,75.689 630.932,76.932 C629.689,78.175 629.689,80.189 630.932,81.432 Z" />
        </g>
    </g>
</svg>