<?xml version="1.0" encoding="UTF-8"?>
<svg height="600" width="800" xmlns="http://www.w3.org/2000/svg" xmlns:xlink="http://www.w3.org/1999/xlink">
    <g id="Notes" font-family="LucidaGrande, 'Lucida Grande', sans-serif" font-size="13">
        <rect fill="white" height="600.0" width="800.0" x="0.0" y="0.0" />
        <g font-size="13">
            <text x="18.0" y="176.0">Small</text>
            <text x="18.0" y="376.0">Medium</text>
            <text x="18.0" y="576.0">Large</text>
        </g>
        <g font-size="9">
            <text x="250.0" y="30.0">Ultralight</text>
            <text x="450.0" y="30.0">Regular</text>
            <text x="650.0" y="30.0">Black</text>
            <text id="template-version" fill="#505050" text-anchor="end" x="785.0" y="575.0">Template v.3.0</text>
            <a href="https://github.com/swhitty/SwiftDraw">
                <text fill="#505050" text-anchor="end" x="785.0" y="590.0">https://github.com/swhitty/SwiftDraw</text>
            </a>
        </g>
    </g>
    <g id="Guides" stroke="rgb(39, 170, 225)" stroke-width="0.5">
        <path id="Capline-S" d="M18,76 l800,0" />
        <path id="H-reference" d="M85,145.755 L87.685,145.755 L113.369,79.287 L114.052,79.287 L114.052,76 L112.148,76 L85,145.755 Z M95.693,121.536 L130.996,121.536 L130.263,119.313 L96.474,119.313 L95.693,121.536 Z M139.15,145.755 L141.787,145.755 L114.638,76 L113.466,76 L113.466,79.287 L139.15,145.755 Z" stroke="none" transform="translate(0,200)" />
        <path id="Baseline-S" d="M18,146 l800,0" />
        <path id="left-margin-Ultralight-M" d="M221,256 l0,110" />
        <path id="right-margin-Ultralight-M" d="M309,256 l0,110" />
        <path id="left-margin-Regular-M" d="M421,256 l0,110" />
        <path id="right-margin-Regular-M" d="M509,256 l0,110" />
        <path id="left-margin-Black-M" d="M621,256 l0,110" />
        <path id="right-margin-Black-M" d="M709,256 l0,110" />
        <path id="Capline-M" d="M18,276 l800,0" />
        <path id="Baseline-M" d="M18,346 l800,0" />
        <path id="Capline-L" d="M18,476 l800,0" />
        <path id="Baseline-L" d="M18,546 l800,0" />
    </g>
    <g id="Symbols">
        <g id="Ultralight-M" transform="translate(0,200)">
            <path d="M229.462,132.039 C239.393,125.721 252.107,125.721 262.038,132.039 C275.582,140.654 292.918,140.654 306.462,132.039 C309.021,130.411 309.77,127.025 308.135,124.477 C306.499,121.929 303.098,121.183 300.538,122.812 C290.607,129.129 277.893,129.129 267.962,122.812 C254.418,114.197 237.082,114.197 223.538,122.812 C220.979,124.44 220.23,127.825 221.865,130.373 C223.501,132.921 226.902,133.667 229.462,132.039 Z" />
            <path d="M229.462,99.188 C239.393,92.871 252.107,92.871 262.038,99.188 C275.582,107.803 292.918,107.803 306.462,99.188 C309.021,97.56 309.77,94.175 308.135,91.627 C306.499,89.079 303.098,88.333 300.538,89.961 C290.607,96.279 277.893,96.279 267.962,89.961 C254.418,81.346 237.082,81.346 223.538,89.961 C220.979,91.589 220.23,94.975 221.865,97.523 C223.501,100.071 226.902,100.817 229.462,99.188 Z" />
        </g>
        <g id="Regular-M" transform="translate(0,200)">
            <path d="M429.462,132.039 C439.393,125.721 452.107,125.721 462.038,132.039 C475.582,140.654 492.918,140.654 506.462,132.039 C509.021,130.411 509.77,127.025 508.135,124.477 C506.499,121.929 503.098,121.183 500.538,122.812 C490.607,129.129 477.893,129.129 467.962,122.812 C454.418,114.197 437.082,114.197 423.538,122.812 C420.979,124.44 420.23,127.825 421.865,130.373 C423.501,132.921 426.902,133.667 429.462,132.039 Z" />
            <path d="M429.462,99.188 C439.393,92.871 452.107,92.871 462.038,99.188 C475.582,107.803 492.918,107.803 506.462,99.188 C509.021,97.56 509.77,94.175 508.135,91.627 C506.499,89.079 503.098,88.333 500.538,89.961 C490.607,96.279 477.893,96.279 467.962,89.961 C454.418,81.346 437.082,81.346 423.538,89.961 C420.979,91.589 420.23,94.975 421.865,97.523 C423.501,100.071 426.902,100.817 429.462,99.188 Z" />
        </g>
        <g id="Black-M" transform="translate(0,200)">
            <path d="M629.462,132.039 C639.393,125.721 652.107,125.721 662.038,132.039 C675.582,140.654 692.918,140.654 706.462,132.039 C709.021,130.411 709.77,127.025 708.135,124.477 C706.499,121.929 703.098,121.183 700.538,122.812 C690.607,129.129 677.893,129.129 667.962,122.812 C654.418,114.197 637.082,114.197 623.538,122.812 C620.979,124.44 620.23,127.825 621.865,130.373 C623.501,132.921 626.902,133.667 629.462,132.039 Z" />
            <path d="M629.462,99.188 C639.393,92.871 652.107,92.871 662.038,99.188 C675.582,107.803 692.918,107.803 706.462,99.188 C709.021,97.56 709.77,94.175 708.135,91.627 C706.499,89.079 703.098,88.333 700.538,89.961 C690.607,96.279 677.893,96.279 667.962,89.961 C654.418,81.346 637.082,81.346 623.538,89.961 C620.979,91.589 620.23,94.975 621.865,97.523 C623.501,100.071 626.902,100.817 629.462,99.188 Z" />
        </g>
    </g>
</svg>