<?xml version="1.0" encoding="UTF-8"?>
<svg height="600" width="800" xmlns="http://www.w3.org/2000/svg" xmlns:xlink="http://www.w3.org/1999/xlink">
    <g id="Notes" font-family="LucidaGrande, 'Lucida Grande', sans-serif" font-size="13">
        <rect fill="white" height="600.0" width="800.0" x="0.0" y="0.0" />
        <g font-size="13">
            <text x="18.0" y="176.0">Small</text>
            <text x="18.0" y="376.0">Medium</text>
            <text x="18.0" y="576.0">Large</text>
        </g>
        <g font-size="9">
            <text x="250.0" y="30.0">Ultralight</text>
            <text x="450.0" y="30.0">Regular</text>
            <text x="650.0" y="30.0">Black</text>
            <text id="template-version" fill="#505050" text-anchor="end" x="785.0" y="575.0">Template v.3.0</text>
            <a href="https://github.com/swhitty/SwiftDraw">
                <text fill="#505050" text-anchor="end" x="785.0" y="590.0">https://github.com/swhitty/SwiftDraw</text>
            </a>
        </g>
    </g>
    <g id="Guides" stroke="rgb(39, 170, 225)" stroke-width="0.5">
        <path id="Capline-S" d="M18,76 l800,0" />
        <path id="H-reference" d="M85,145.755 L87.685,145.755 L113.369,79.287 L114.052,79.287 L114.052,76 L112.148,76 L85,145.755 Z M95.693,121.536 L130.996,121.536 L130.263,119.313 L96.474,119.313 L95.693,121.536 Z M139.15,145.755 L141.787,145.755 L114.638,76 L113.466,76 L113.466,79.287 L139.15,145.755 Z" stroke="none" transform="translate(0,200)" />
        <path id="Baseline-S" d="M18,146 l800,0" />
        <path id="left-margin-Ultralight-M" d="M226.5,256 l0,110" />
        <path id="right-margin-Ultralight-M" d="M303.5,256 l0,110" />
        <path id="left-margin-Regular-M" d="M426.5,256 l0,110" />
        <path id="right-margin-Regular-M" d="M503.5,256 l0,110" />
        <path id="left-margin-Black-M" d="M626.5,256 l0,110" />
        <path id="right-margin-Black-M" d="M703.5,256 l0,110" />
        <path id="Capline-M" d="M18,276 l800,0" />
        <path id="Baseline-M" d="M18,346 l800,0" />
        <path id="Capline-L" d="M18,476 l800,0" />
        <path id="Baseline-L" d="M18,546 l800,0" />
    </g>
    <g id="Symbols">
        <g id="Ultralight-M" transform="translate(0,200)">
            <path d="M258,105.999 L272,105.999 C273.933,105.999 275.5,104.507 275.5,102.666 C275.5,100.825 273.933,99.332 272,99.332 L258,99.332 C256.067,99.332 254.5,100.825 254.5,102.666 C254.5,104.507 256.067,105.999 258,105.999 Z" />
            <path d="M261.5,95.999 L261.5,112.666 C261.5,114.507 263.067,115.999 265,115.999 C266.933,115.999 268.5,114.507 268.5,112.666 L268.5,95.999 C268.5,94.158 266.933,92.665 265,92.665 C263.067,92.665 261.5,94.158 261.5,95.999 Z" />
            <path d="M275.5,142.667 L275.5,132.666 C275.5,127.143 270.799,122.666 265,122.666 C259.201,122.666 254.5,127.143 254.5,132.666 L254.5,142.667 C254.5,144.508 256.067,146 258,146 C259.933,146 261.5,144.508 261.5,142.667 L261.5,132.666 C261.5,130.825 263.067,129.333 265,129.333 C266.933,129.333 268.5,130.825 268.5,132.666 L268.5,142.667 C268.5,144.508 270.067,146 272,146 C273.933,146 275.5,144.508 275.5,142.667 Z" />
            <path d="M284.177,105.511 L296.497,112.668 C296.5,112.67 296.5,112.67 296.5,112.67 L296.5,136 C296.5,136.884 296.131,137.732 295.475,138.357 C294.818,138.982 293.928,139.333 293,139.333 L237,139.333 C236.072,139.333 235.182,138.982 234.525,138.357 C233.869,137.732 233.5,136.884 233.5,136 L233.5,112.669 C233.5,112.67 233.5,112.67 233.5,112.67 L245.823,105.511 C247.473,104.553 247.995,102.501 246.988,100.93 C245.981,99.358 243.828,98.861 242.177,99.82 L229.858,106.976 C227.774,108.184 226.501,110.341 226.5,112.668 L226.5,136 C226.5,138.652 227.606,141.196 229.575,143.071 C231.545,144.946 234.215,146 237,146 L293,146 C295.785,146 298.455,144.946 300.425,143.071 C302.394,141.196 303.5,138.652 303.5,136 L303.5,112.669 C303.5,110.342 302.226,108.185 300.14,106.975 L287.823,99.82 C286.172,98.861 284.019,99.358 283.012,100.93 C282.005,102.501 282.527,104.553 284.177,105.511 Z" />
            <path d="M247.5,142.667 L247.5,95.999 C247.5,95.997 247.5,95.997 247.5,95.997 L265.002,82.665 C264.999,82.667 264.999,82.667 264.999,82.667 L282.501,96.002 C282.5,96.001 282.5,96.001 282.5,96.001 L282.5,142.667 C282.5,144.508 284.067,146 286,146 C287.933,146 289.5,144.508 289.5,142.667 L289.5,95.999 C289.498,93.973 288.533,92.061 286.874,90.797 L269.374,77.462 C266.821,75.515 263.19,75.512 260.632,77.457 L243.13,90.789 C241.467,92.054 240.499,93.973 240.5,96.001 L240.5,142.667 C240.5,144.508 242.067,146 244,146 C245.933,146 247.5,144.508 247.5,142.667 Z" />
        </g>
        <g id="Regular-M" transform="translate(0,200)">
            <path d="M458,105.999 L472,105.999 C473.933,105.999 475.5,104.507 475.5,102.666 C475.5,100.825 473.933,99.332 472,99.332 L458,99.332 C456.067,99.332 454.5,100.825 454.5,102.666 C454.5,104.507 456.067,105.999 458,105.999 Z" />
            <path d="M461.5,95.999 L461.5,112.666 C461.5,114.507 463.067,115.999 465,115.999 C466.933,115.999 468.5,114.507 468.5,112.666 L468.5,95.999 C468.5,94.158 466.933,92.665 465,92.665 C463.067,92.665 461.5,94.158 461.5,95.999 Z" />
            <path d="M475.5,142.667 L475.5,132.666 C475.5,127.143 470.799,122.666 465,122.666 C459.201,122.666 454.5,127.143 454.5,132.666 L454.5,142.667 C454.5,144.508 456.067,146 458,146 C459.933,146 461.5,144.508 461.5,142.667 L461.5,132.666 C461.5,130.825 463.067,129.333 465,129.333 C466.933,129.333 468.5,130.825 468.5,132.666 L468.5,142.667 C468.5,144.508 470.067,146 472,146 C473.933,146 475.5,144.508 475.5,142.667 Z" />
            <path d="M484.177,105.511 L496.497,112.668 C496.5,112.67 496.5,112.67 496.5,112.67 L496.5,136 C496.5,136.884 496.131,137.732 495.475,138.357 C494.818,138.982 493.928,139.333 493,139.333 L437,139.333 C436.072,139.333 435.182,138.982 434.525,138.357 C433.869,137.732 433.5,136.884 433.5,136 L433.5,112.669 C433.5,112.67 433.5,112.67 433.5,112.67 L445.823,105.511 C447.473,104.553 447.995,102.501 446.988,100.93 C445.981,99.358 443.828,98.861 442.177,99.82 L429.858,106.976 C427.775,108.184 426.501,110.341 426.5,112.668 L426.5,136 C426.5,138.652 427.606,141.196 429.575,143.071 C431.545,144.946 434.215,146 437,146 L493,146 C495.785,146 498.455,144.946 500.425,143.071 C502.394,141.196 503.5,138.652 503.5,136 L503.5,112.669 C503.5,110.342 502.226,108.185 500.14,106.975 L487.823,99.82 C486.172,98.861 484.019,99.358 483.012,100.93 C482.005,102.501 482.527,104.553 484.177,105.511 Z" />
            <path d="M447.5,142.667 L447.5,95.999 C447.5,95.997 447.5,95.997 447.5,95.997 L465.002,82.665 C464.999,82.667 464.999,82.667 464.999,82.667 L482.501,96.002 C482.5,96.001 482.5,96.001 482.5,96.001 L482.5,142.667 C482.5,144.508 484.067,146 486,146 C487.933,146 489.5,144.508 489.5,142.667 L489.5,95.999 C489.498,93.973 488.533,92.061 486.874,90.797 L469.374,77.462 C466.821,75.515 463.19,75.512 460.632,77.457 L443.13,90.789 C441.467,92.054 440.499,93.973 440.5,96.001 L440.5,142.667 C440.5,144.508 442.067,146 444,146 C445.933,146 447.5,144.508 447.5,142.667 Z" />
        </g>
        <g id="Black-M" transform="translate(0,200)">
            <path d="M658,105.999 L672,105.999 C673.933,105.999 675.5,104.507 675.5,102.666 C675.5,100.825 673.933,99.332 672,99.332 L658,99.332 C656.067,99.332 654.5,100.825 654.5,102.666 C654.5,104.507 656.067,105.999 658,105.999 Z" />
            <path d="M661.5,95.999 L661.5,112.666 C661.5,114.507 663.067,115.999 665,115.999 C666.933,115.999 668.5,114.507 668.5,112.666 L668.5,95.999 C668.5,94.158 666.933,92.665 665,92.665 C663.067,92.665 661.5,94.158 661.5,95.999 Z" />
            <path d="M675.5,142.667 L675.5,132.666 C675.5,127.143 670.799,122.666 665,122.666 C659.201,122.666 654.5,127.143 654.5,132.666 L654.5,142.667 C654.5,144.508 656.067,146 658,146 C659.933,146 661.5,144.508 661.5,142.667 L661.5,132.666 C661.5,130.825 663.067,129.333 665,129.333 C666.933,129.333 668.5,130.825 668.5,132.666 L668.5,142.667 C668.5,144.508 670.067,146 672,146 C673.933,146 675.5,144.508 675.5,142.667 Z" />
            <path d="M684.177,105.511 L696.497,112.668 C696.5,112.67 696.5,112.67 696.5,112.67 L696.5,136 C696.5,136.884 696.131,137.732 695.475,138.357 C694.818,138.982 693.928,139.333 693,139.333 L637,139.333 C636.072,139.333 635.182,138.982 634.525,138.357 C633.869,137.732 633.5,136.884 633.5,136 L633.5,112.669 C633.5,112.67 633.5,112.67 633.5,112.67 L645.823,105.511 C647.473,104.553 647.995,102.501 646.988,100.93 C645.982,99.358 643.828,98.861 642.177,99.82 L629.858,106.976 C627.774,108.184 626.501,110.341 626.5,112.668 L626.5,136 C626.5,138.652 627.606,141.196 629.575,143.071 C631.544,144.946 634.215,146 637,146 L693,146 C695.785,146 698.456,144.946 700.425,143.071 C702.394,141.196 703.5,138.652 703.5,136 L703.5,112.669 C703.5,110.342 702.226,108.185 700.14,106.975 L687.823,99.82 C686.172,98.861 684.018,99.358 683.012,100.93 C682.005,102.501 682.527,104.553 684.177,105.511 Z" />
            <path d="M647.5,142.667 L647.5,95.999 C647.5,95.997 647.5,95.997 647.5,95.997 L665.002,82.665 C664.999,82.667 664.999,82.667 664.999,82.667 L682.501,96.002 C682.5,96.001 682.5,96.001 682.5,96.001 L682.5,142.667 C682.5,144.508 684.067,146 686,146 C687.933,146 689.5,144.508 689.5,142.667 L689.5,95.999 C689.498,93.973 688.532,92.061 686.874,90.797 L669.374,77.462 C666.821,75.515 663.19,75.512 660.632,77.457 L643.13,90.789 C641.467,92.054 640.499,93.973 640.5,96.001 L640.5,142.667 C640.5,144.508 642.067,146 644,146 C645.933,146 647.5,144.508 647.5,142.667 Z" />
        </g>
    </g>
</svg>