<?xml version="1.0" encoding="UTF-8"?>
<svg height="600" width="800" xmlns="http://www.w3.org/2000/svg" xmlns:xlink="http://www.w3.org/1999/xlink">
    <g id="Notes" font-family="LucidaGrande, 'Lucida Grande', sans-serif" font-size="13">
        <rect fill="white" height="600.0" width="800.0" x="0.0" y="0.0" />
        <g font-size="13">
            <text x="18.0" y="176.0">Small</text>
            <text x="18.0" y="376.0">Medium</text>
            <text x="18.0" y="576.0">Large</text>
        </g>
        <g font-size="9">
            <text x="250.0" y="30.0">Ultralight</text>
            <text x="450.0" y="30.0">Regular</text>
            <text x="650.0" y="30.0">Black</text>
            <text id="template-version" fill="#505050" text-anchor="end" x="785.0" y="575.0">Template v.3.0</text>
            <a href="https://github.com/swhitty/SwiftDraw">
                <text fill="#505050" text-anchor="end" x="785.0" y="590.0">https://github.com/swhitty/SwiftDraw</text>
            </a>
        </g>
    </g>
    <g id="Guides" stroke="rgb(39, 170, 225)" stroke-width="0.5">
        <path id="Capline-S" d="M18,76 l800,0" />
        <path id="H-reference" d="M85,145.755 L87.685,145.755 L113.369,79.287 L114.052,79.287 L114.052,76 L112.148,76 L85,145.755 Z M95.693,121.536 L130.996,121.536 L130.263,119.313 L96.474,119.313 L95.693,121.536 Z M139.15,145.755 L141.787,145.755 L114.638,76 L113.466,76 L113.466,79.287 L139.15,145.755 Z" stroke="none" transform="translate(0,200)" />
        <path id="Baseline-S" d="M18,146 l800,0" />
        <path id="left-margin-Ultralight-M" d="M230,256 l0,110" />
        <path id="right-margin-Ultralight-M" d="M300,256 l0,110" />
        <path id="left-margin-Regular-M" d="M430,256 l0,110" />
        <path id="right-margin-Regular-M" d="M500,256 l0,110" />
        <path id="left-margin-Black-M" d="M630,256 l0,110" />
        <path id="right-margin-Black-M" d="M700,256 l0,110" />
        <path id="Capline-M" d="M18,276 l800,0" />
        <path id="Baseline-M" d="M18,346 l800,0" />
        <path id="Capline-L" d="M18,476 l800,0" />
        <path id="Baseline-L" d="M18,546 l800,0" />
    </g>
    <g id="Symbols">
        <g id="Ultralight-M" transform="translate(0,200)">
            <path d="M237,93.5 L237,86.5 C237,85.572 237.369,84.682 238.025,84.025 C238.682,83.369 239.572,83 240.5,83 L247.5,83 C249.433,83 251,81.433 251,79.5 C251,77.567 249.433,76 247.5,76 L240.5,76 C237.715,76 235.045,77.106 233.075,79.075 C231.106,81.045 230,83.715 230,86.5 L230,93.5 C230,95.433 231.567,97 233.5,97 C235.433,97 237,95.433 237,93.5 Z" />
            <path d="M282.5,83 L289.5,83 C290.428,83 291.318,83.369 291.975,84.025 C292.631,84.682 293,85.572 293,86.5 L293,93.5 C293,95.433 294.567,97 296.5,97 C298.433,97 300,95.433 300,93.5 L300,86.5 C300,83.715 298.894,81.045 296.925,79.075 C294.956,77.106 292.285,76 289.5,76 L282.5,76 C280.567,76 279,77.567 279,79.5 C279,81.433 280.567,83 282.5,83 Z" />
            <path d="M293,128.5 L293,135.5 C293,136.428 292.631,137.318 291.975,137.975 C291.318,138.631 290.428,139 289.5,139 L282.5,139 C280.567,139 279,140.567 279,142.5 C279,144.433 280.567,146 282.5,146 L289.5,146 C292.285,146 294.955,144.894 296.925,142.925 C298.894,140.955 300,138.285 300,135.5 L300,128.5 C300,126.567 298.433,125 296.5,125 C294.567,125 293,126.567 293,128.5 Z" />
            <path d="M247.5,139 L240.5,139 C239.572,139 238.682,138.631 238.025,137.975 C237.369,137.318 237,136.428 237,135.5 L237,128.5 C237,126.567 235.433,125 233.5,125 C231.567,125 230,126.567 230,128.5 L230,135.5 C230,138.285 231.106,140.955 233.075,142.925 C235.045,144.894 237.715,146 240.5,146 L247.5,146 C249.433,146 251,144.433 251,142.5 C251,140.567 249.433,139 247.5,139 Z" />
            <path d="M248.2,120.1 C249.05,121.233 250.542,122.79 252.66,124.331 C256.226,126.924 260.363,128.5 265,128.5 C269.637,128.5 273.774,126.924 277.34,124.331 C279.458,122.79 280.95,121.233 281.8,120.1 C282.96,118.554 282.646,116.36 281.1,115.2 C279.554,114.04 277.36,114.354 276.2,115.9 C275.738,116.517 274.713,117.585 273.223,118.669 C270.773,120.451 268.02,121.5 265,121.5 C261.98,121.5 259.227,120.451 256.777,118.669 C255.287,117.585 254.262,116.517 253.8,115.9 C252.64,114.354 250.446,114.04 248.9,115.2 C247.354,116.36 247.04,118.554 248.2,120.1 Z" />
            <path d="M254.5,104 L254.535,104 C256.468,104 258.035,102.433 258.035,100.5 C258.035,98.567 256.468,97 254.535,97 L254.5,97 C252.567,97 251,98.567 251,100.5 C251,102.433 252.567,104 254.5,104 Z" />
            <path d="M275.5,104 L275.535,104 C277.468,104 279.035,102.433 279.035,100.5 C279.035,98.567 277.468,97 275.535,97 L275.5,97 C273.567,97 272,98.567 272,100.5 C272,102.433 273.567,104 275.5,104 Z" />
        </g>
        <g id="Regular-M" transform="translate(0,200)">
            <path d="M437,93.5 L437,86.5 C437,85.572 437.369,84.682 438.025,84.025 C438.682,83.369 439.572,83 440.5,83 L447.5,83 C449.433,83 451,81.433 451,79.5 C451,77.567 449.433,76 447.5,76 L440.5,76 C437.715,76 435.045,77.106 433.075,79.075 C431.106,81.045 430,83.715 430,86.5 L430,93.5 C430,95.433 431.567,97 433.5,97 C435.433,97 437,95.433 437,93.5 Z" />
            <path d="M482.5,83 L489.5,83 C490.428,83 491.318,83.369 491.975,84.025 C492.631,84.682 493,85.572 493,86.5 L493,93.5 C493,95.433 494.567,97 496.5,97 C498.433,97 500,95.433 500,93.5 L500,86.5 C500,83.715 498.894,81.045 496.925,79.075 C494.956,77.106 492.285,76 489.5,76 L482.5,76 C480.567,76 479,77.567 479,79.5 C479,81.433 480.567,83 482.5,83 Z" />
            <path d="M493,128.5 L493,135.5 C493,136.428 492.631,137.318 491.975,137.975 C491.318,138.631 490.428,139 489.5,139 L482.5,139 C480.567,139 479,140.567 479,142.5 C479,144.433 480.567,146 482.5,146 L489.5,146 C492.285,146 494.955,144.894 496.925,142.925 C498.894,140.955 500,138.285 500,135.5 L500,128.5 C500,126.567 498.433,125 496.5,125 C494.567,125 493,126.567 493,128.5 Z" />
            <path d="M447.5,139 L440.5,139 C439.572,139 438.682,138.631 438.025,137.975 C437.369,137.318 437,136.428 437,135.5 L437,128.5 C437,126.567 435.433,125 433.5,125 C431.567,125 430,126.567 430,128.5 L430,135.5 C430,138.285 431.106,140.955 433.075,142.925 C435.045,144.894 437.715,146 440.5,146 L447.5,146 C449.433,146 451,144.433 451,142.5 C451,140.567 449.433,139 447.5,139 Z" />
            <path d="M448.2,120.1 C449.05,121.233 450.542,122.79 452.66,124.331 C456.226,126.924 460.363,128.5 465,128.5 C469.637,128.5 473.774,126.924 477.34,124.331 C479.458,122.79 480.95,121.233 481.8,120.1 C482.96,118.554 482.646,116.36 481.1,115.2 C479.554,114.04 477.36,114.354 476.2,115.9 C475.738,116.517 474.713,117.585 473.223,118.669 C470.773,120.451 468.02,121.5 465,121.5 C461.98,121.5 459.227,120.451 456.777,118.669 C455.287,117.585 454.262,116.517 453.8,115.9 C452.64,114.354 450.446,114.04 448.9,115.2 C447.354,116.36 447.04,118.554 448.2,120.1 Z" />
            <path d="M454.5,104 L454.535,104 C456.468,104 458.035,102.433 458.035,100.5 C458.035,98.567 456.468,97 454.535,97 L454.5,97 C452.567,97 451,98.567 451,100.5 C451,102.433 452.567,104 454.5,104 Z" />
            <path d="M475.5,104 L475.535,104 C477.468,104 479.035,102.433 479.035,100.5 C479.035,98.567 477.468,97 475.535,97 L475.5,97 C473.567,97 472,98.567 472,100.5 C472,102.433 473.567,104 475.5,104 Z" />
        </g>
        <g id="Black-M" transform="translate(0,200)">
            <path d="M637,93.5 L637,86.5 C637,85.572 637.369,84.682 638.025,84.025 C638.682,83.369 639.572,83 640.5,83 L647.5,83 C649.433,83 651,81.433 651,79.5 C651,77.567 649.433,76 647.5,76 L640.5,76 C637.715,76 635.044,77.106 633.075,79.075 C631.106,81.045 630,83.715 630,86.5 L630,93.5 C630,95.433 631.567,97 633.5,97 C635.433,97 637,95.433 637,93.5 Z" />
            <path d="M682.5,83 L689.5,83 C690.428,83 691.318,83.369 691.975,84.025 C692.631,84.682 693,85.572 693,86.5 L693,93.5 C693,95.433 694.567,97 696.5,97 C698.433,97 700,95.433 700,93.5 L700,86.5 C700,83.715 698.894,81.045 696.925,79.075 C694.956,77.106 692.285,76 689.5,76 L682.5,76 C680.567,76 679,77.567 679,79.5 C679,81.433 680.567,83 682.5,83 Z" />
            <path d="M693,128.5 L693,135.5 C693,136.428 692.631,137.318 691.975,137.975 C691.318,138.631 690.428,139 689.5,139 L682.5,139 C680.567,139 679,140.567 679,142.5 C679,144.433 680.567,146 682.5,146 L689.5,146 C692.285,146 694.956,144.894 696.925,142.925 C698.894,140.955 700,138.285 700,135.5 L700,128.5 C700,126.567 698.433,125 696.5,125 C694.567,125 693,126.567 693,128.5 Z" />
            <path d="M647.5,139 L640.5,139 C639.572,139 638.682,138.631 638.025,137.975 C637.369,137.318 637,136.428 637,135.5 L637,128.5 C637,126.567 635.433,125 633.5,125 C631.567,125 630,126.567 630,128.5 L630,135.5 C630,138.285 631.106,140.955 633.075,142.925 C635.044,144.894 637.715,146 640.5,146 L647.5,146 C649.433,146 651,144.433 651,142.5 C651,140.567 649.433,139 647.5,139 Z" />
            <path d="M648.2,120.1 C649.05,121.233 650.542,122.79 652.66,124.331 C656.226,126.924 660.363,128.5 665,128.5 C669.637,128.5 673.774,126.924 677.34,124.331 C679.458,122.79 680.95,121.233 681.8,120.1 C682.96,118.554 682.646,116.36 681.1,115.2 C679.554,114.04 677.36,114.354 676.2,115.9 C675.738,116.517 674.714,117.585 673.223,118.669 C670.773,120.451 668.02,121.5 665,121.5 C661.98,121.5 659.227,120.451 656.777,118.669 C655.286,117.585 654.262,116.517 653.8,115.9 C652.64,114.354 650.446,114.04 648.9,115.2 C647.354,116.36 647.04,118.554 648.2,120.1 Z" />
            <path d="M654.5,104 L654.535,104 C656.468,104 658.035,102.433 658.035,100.5 C658.035,98.567 656.468,97 654.535,97 L654.5,97 C652.567,97 651,98.567 651,100.5 C651,102.433 652.567,104 654.5,104 Z" />
            <path d="M675.5,104 L675.535,104 C677.468,104 679.035,102.433 679.035,100.5 C679.035,98.567 677.468,97 675.535,97 L675.5,97 C673.567,97 672,98.567 672,100.5 C672,102.433 673.567,104 675.5,104 Z" />
        </g>
    </g>
</svg>