<?xml version="1.0" encoding="UTF-8"?>
<svg height="600" width="800" xmlns="http://www.w3.org/2000/svg" xmlns:xlink="http://www.w3.org/1999/xlink">
    <g id="Notes" font-family="LucidaGrande, 'Lucida Grande', sans-serif" font-size="13">
        <rect fill="white" height="600.0" width="800.0" x="0.0" y="0.0" />
        <g font-size="13">
            <text x="18.0" y="176.0">Small</text>
            <text x="18.0" y="376.0">Medium</text>
            <text x="18.0" y="576.0">Large</text>
        </g>
        <g font-size="9">
            <text x="250.0" y="30.0">Ultralight</text>
            <text x="450.0" y="30.0">Regular</text>
            <text x="650.0" y="30.0">Black</text>
            <text id="template-version" fill="#505050" text-anchor="end" x="785.0" y="575.0">Template v.3.0</text>
            <a href="https://github.com/swhitty/SwiftDraw">
                <text fill="#505050" text-anchor="end" x="785.0" y="590.0">https://github.com/swhitty/SwiftDraw</text>
            </a>
        </g>
    </g>
    <g id="Guides" stroke="rgb(39, 170, 225)" stroke-width="0.5">
        <path id="Capline-S" d="M18,76 l800,0" />
        <path id="H-reference" d="M85,145.755 L87.685,145.755 L113.369,79.287 L114.052,79.287 L114.052,76 L112.148,76 L85,145.755 Z M95.693,121.536 L130.996,121.536 L130.263,119.313 L96.474,119.313 L95.693,121.536 Z M139.15,145.755 L141.787,145.755 L114.638,76 L113.466,76 L113.466,79.287 L139.15,145.755 Z" stroke="none" transform="translate(0,200)" />
        <path id="Baseline-S" d="M18,146 l800,0" />
        <path id="left-margin-Ultralight-M" d="M230,256 l0,110" />
        <path id="right-margin-Ultralight-M" d="M300,256 l0,110" />
        <path id="left-margin-Regular-M" d="M430,256 l0,110" />
        <path id="right-margin-Regular-M" d="M500,256 l0,110" />
        <path id="left-margin-Black-M" d="M630,256 l0,110" />
        <path id="right-margin-Black-M" d="M700,256 l0,110" />
        <path id="Capline-M" d="M18,276 l800,0" />
        <path id="Baseline-M" d="M18,346 l800,0" />
        <path id="Capline-L" d="M18,476 l800,0" />
        <path id="Baseline-L" d="M18,546 l800,0" />
    </g>
    <g id="Symbols">
        <g id="Ultralight-M" transform="translate(0,200)">
            <path d="M263.339,79.322 L240.002,79.322 C237.349,79.322 234.805,80.375 232.929,82.251 C231.054,84.127 230,86.671 230,89.323 L230,135.998 C230,138.651 231.054,141.195 232.929,143.071 C234.805,144.946 237.349,146 240.002,146 L286.677,146 C289.329,146 291.873,144.946 293.749,143.071 C295.625,141.195 296.678,138.651 296.678,135.998 L296.678,112.661 C296.678,110.82 295.186,109.327 293.344,109.327 C291.503,109.327 290.01,110.82 290.01,112.661 L290.01,135.998 C290.01,136.882 289.659,137.73 289.034,138.356 C288.409,138.981 287.561,139.332 286.677,139.332 L240.002,139.332 C239.118,139.332 238.27,138.981 237.644,138.356 C237.019,137.73 236.668,136.882 236.668,135.998 L236.668,89.323 C236.668,88.439 237.019,87.591 237.644,86.966 C238.27,86.341 239.118,85.989 240.002,85.989 L263.339,85.989 C265.18,85.989 266.673,84.497 266.673,82.656 C266.673,80.814 265.18,79.322 263.339,79.322 Z" />
            <path d="M286.95,83.763 C288.41,82.303 290.777,82.303 292.237,83.763 C293.697,85.223 293.697,87.59 292.237,89.05 L262.188,119.102 C261.794,119.496 261.305,119.786 260.768,119.942 L251.188,122.743 C251.775,122.572 252.405,122.734 252.836,123.164 C253.266,123.595 253.428,124.225 253.257,124.81 L256.057,115.233 C256.214,114.7 256.504,114.212 256.9,113.817 L286.95,83.763 Z M282.235,79.048 L252.187,109.1 C251.001,110.283 250.131,111.749 249.658,113.359 L246.857,122.941 C246.345,124.696 246.83,126.588 248.121,127.879 C249.412,129.17 251.304,129.655 253.057,129.144 L262.638,126.343 C264.248,125.872 265.715,125.004 266.902,123.817 L296.952,93.764 C301.016,89.701 301.016,83.112 296.952,79.048 C292.888,74.984 286.299,74.984 282.235,79.048 Z" />
        </g>
        <g id="Regular-M" transform="translate(0,200)">
            <path d="M463.339,79.322 L440.002,79.322 C437.349,79.322 434.805,80.375 432.929,82.251 C431.054,84.127 430,86.671 430,89.323 L430,135.998 C430,138.651 431.054,141.195 432.929,143.071 C434.805,144.946 437.349,146 440.002,146 L486.677,146 C489.329,146 491.873,144.946 493.749,143.071 C495.625,141.195 496.678,138.651 496.678,135.998 L496.678,112.661 C496.678,110.82 495.186,109.327 493.344,109.327 C491.503,109.327 490.01,110.82 490.01,112.661 L490.01,135.998 C490.01,136.882 489.659,137.73 489.034,138.356 C488.409,138.981 487.561,139.332 486.677,139.332 L440.002,139.332 C439.118,139.332 438.27,138.981 437.644,138.356 C437.019,137.73 436.668,136.882 436.668,135.998 L436.668,89.323 C436.668,88.439 437.019,87.591 437.644,86.966 C438.27,86.341 439.118,85.989 440.002,85.989 L463.339,85.989 C465.18,85.989 466.673,84.497 466.673,82.656 C466.673,80.814 465.18,79.322 463.339,79.322 Z" />
            <path d="M486.95,83.763 C488.41,82.303 490.777,82.303 492.237,83.763 C493.697,85.223 493.697,87.59 492.237,89.05 L462.188,119.102 C461.794,119.496 461.305,119.786 460.768,119.942 L451.188,122.743 C451.775,122.572 452.405,122.734 452.836,123.164 C453.266,123.595 453.428,124.225 453.257,124.81 L456.057,115.233 C456.214,114.7 456.504,114.212 456.9,113.817 L486.95,83.763 Z M482.235,79.048 L452.187,109.1 C451.001,110.283 450.131,111.749 449.658,113.359 L446.857,122.941 C446.345,124.696 446.83,126.588 448.121,127.879 C449.412,129.17 451.304,129.655 453.057,129.144 L462.638,126.343 C464.248,125.872 465.715,125.004 466.902,123.817 L496.952,93.764 C501.016,89.701 501.016,83.112 496.952,79.048 C492.888,74.984 486.299,74.984 482.235,79.048 Z" />
        </g>
        <g id="Black-M" transform="translate(0,200)">
            <path d="M663.339,79.322 L640.002,79.322 C637.349,79.322 634.805,80.375 632.929,82.251 C631.054,84.127 630,86.671 630,89.323 L630,135.998 C630,138.651 631.054,141.195 632.929,143.071 C634.805,144.946 637.349,146 640.002,146 L686.677,146 C689.329,146 691.873,144.946 693.749,143.071 C695.625,141.195 696.678,138.651 696.678,135.998 L696.678,112.661 C696.678,110.82 695.186,109.327 693.344,109.327 C691.503,109.327 690.01,110.82 690.01,112.661 L690.01,135.998 C690.01,136.882 689.659,137.73 689.034,138.356 C688.409,138.981 687.561,139.332 686.677,139.332 L640.002,139.332 C639.118,139.332 638.27,138.981 637.644,138.356 C637.019,137.73 636.668,136.882 636.668,135.998 L636.668,89.323 C636.668,88.439 637.019,87.591 637.644,86.966 C638.27,86.341 639.118,85.989 640.002,85.989 L663.339,85.989 C665.18,85.989 666.673,84.497 666.673,82.656 C666.673,80.814 665.18,79.322 663.339,79.322 Z" />
            <path d="M686.95,83.763 C688.41,82.303 690.777,82.303 692.237,83.763 C693.697,85.223 693.697,87.59 692.237,89.05 L662.188,119.102 C661.794,119.496 661.305,119.786 660.768,119.942 L651.188,122.743 C651.775,122.572 652.405,122.734 652.836,123.164 C653.266,123.595 653.428,124.225 653.257,124.81 L656.057,115.233 C656.214,114.7 656.504,114.212 656.9,113.817 L686.95,83.763 Z M682.235,79.048 L652.187,109.1 C651.001,110.283 650.131,111.749 649.658,113.359 L646.857,122.941 C646.345,124.696 646.83,126.588 648.121,127.879 C649.412,129.17 651.304,129.655 653.057,129.144 L662.638,126.343 C664.248,125.872 665.715,125.004 666.902,123.817 L696.952,93.764 C701.016,89.701 701.016,83.112 696.952,79.048 C692.888,74.984 686.299,74.984 682.235,79.048 Z" />
        </g>
    </g>
</svg>