<?xml version="1.0" encoding="UTF-8"?>
<svg height="600" width="800" xmlns="http://www.w3.org/2000/svg" xmlns:xlink="http://www.w3.org/1999/xlink">
    <g id="Notes" font-family="LucidaGrande, 'Lucida Grande', sans-serif" font-size="13">
        <rect fill="white" height="600.0" width="800.0" x="0.0" y="0.0" />
        <g font-size="13">
            <text x="18.0" y="176.0">Small</text>
            <text x="18.0" y="376.0">Medium</text>
            <text x="18.0" y="576.0">Large</text>
        </g>
        <g font-size="9">
            <text x="250.0" y="30.0">Ultralight</text>
            <text x="450.0" y="30.0">Regular</text>
            <text x="650.0" y="30.0">Black</text>
            <text id="template-version" fill="#505050" text-anchor="end" x="785.0" y="575.0">Template v.3.0</text>
            <a href="https://github.com/swhitty/SwiftDraw">
                <text fill="#505050" text-anchor="end" x="785.0" y="590.0">https://github.com/swhitty/SwiftDraw</text>
            </a>
        </g>
    </g>
    <g id="Guides" stroke="rgb(39, 170, 225)" stroke-width="0.5">
        <path id="Capline-S" d="M18,76 l800,0" />
        <path id="H-reference" d="M85,145.755 L87.685,145.755 L113.369,79.287 L114.052,79.287 L114.052,76 L112.148,76 L85,145.755 Z M95.693,121.536 L130.996,121.536 L130.263,119.313 L96.474,119.313 L95.693,121.536 Z M139.15,145.755 L141.787,145.755 L114.638,76 L113.466,76 L113.466,79.287 L139.15,145.755 Z" stroke="none" transform="translate(0,200)" />
        <path id="Baseline-S" d="M18,146 l800,0" />
        <path id="left-margin-Ultralight-M" d="M221,256 l0,110" />
        <path id="right-margin-Ultralight-M" d="M309,256 l0,110" />
        <path id="left-margin-Regular-M" d="M421,256 l0,110" />
        <path id="right-margin-Regular-M" d="M509,256 l0,110" />
        <path id="left-margin-Black-M" d="M621,256 l0,110" />
        <path id="right-margin-Black-M" d="M709,256 l0,110" />
        <path id="Capline-M" d="M18,276 l800,0" />
        <path id="Baseline-M" d="M18,346 l800,0" />
        <path id="Capline-L" d="M18,476 l800,0" />
        <path id="Baseline-L" d="M18,546 l800,0" />
    </g>
    <g id="Symbols">
        <g id="Ultralight-M" transform="translate(0,200)">
            <path d="M301,111 L301,127 C301,128.061 300.579,129.078 299.828,129.828 C299.078,130.579 298.061,131 297,131 L233,131 C231.939,131 230.922,130.579 230.172,129.828 C229.421,129.078 229,128.061 229,127 L229,95 C229,93.939 229.421,92.922 230.172,92.172 C230.922,91.421 231.939,91 233,91 L297,91 C298.061,91 299.078,91.421 299.828,92.172 C300.579,92.922 301,93.939 301,95 L301,111 Z M309,111 L309,95 C309,91.817 307.736,88.765 305.485,86.515 C303.235,84.264 300.183,83 297,83 L233,83 C229.817,83 226.765,84.264 224.515,86.515 C222.264,88.765 221,91.817 221,95 L221,127 C221,130.183 222.264,133.235 224.515,135.485 C226.765,137.736 229.817,139 233,139 L297,139 C300.183,139 303.235,137.736 305.485,135.485 C307.736,133.235 309,130.183 309,127 L309,111 Z" />
        </g>
        <g id="Regular-M" transform="translate(0,200)">
            <path d="M501,111 L501,127 C501,128.061 500.579,129.078 499.828,129.828 C499.078,130.579 498.061,131 497,131 L433,131 C431.939,131 430.922,130.579 430.172,129.828 C429.421,129.078 429,128.061 429,127 L429,95 C429,93.939 429.421,92.922 430.172,92.172 C430.922,91.421 431.939,91 433,91 L497,91 C498.061,91 499.078,91.421 499.828,92.172 C500.579,92.922 501,93.939 501,95 L501,111 Z M509,111 L509,95 C509,91.817 507.736,88.765 505.485,86.515 C503.235,84.264 500.183,83 497,83 L433,83 C429.817,83 426.765,84.264 424.515,86.515 C422.264,88.765 421,91.817 421,95 L421,127 C421,130.183 422.264,133.235 424.515,135.485 C426.765,137.736 429.817,139 433,139 L497,139 C500.183,139 503.235,137.736 505.485,135.485 C507.736,133.235 509,130.183 509,127 L509,111 Z" />
        </g>
        <g id="Black-M" transform="translate(0,200)">
            <path d="M701,111 L701,127 C701,128.061 700.579,129.078 699.828,129.828 C699.078,130.579 698.061,131 697,131 L633,131 C631.939,131 630.922,130.579 630.172,129.828 C629.421,129.078 629,128.061 629,127 L629,95 C629,93.939 629.421,92.922 630.172,92.172 C630.922,91.421 631.939,91 633,91 L697,91 C698.061,91 699.078,91.421 699.828,92.172 C700.579,92.922 701,93.939 701,95 L701,111 Z M709,111 L709,95 C709,91.817 707.736,88.765 705.485,86.515 C703.235,84.264 700.183,83 697,83 L633,83 C629.817,83 626.765,84.264 624.515,86.515 C622.264,88.765 621,91.817 621,95 L621,127 C621,130.183 622.264,133.235 624.515,135.485 C626.765,137.736 629.817,139 633,139 L697,139 C700.183,139 703.235,137.736 705.485,135.485 C707.736,133.235 709,130.183 709,127 L709,111 Z" />
        </g>
    </g>
</svg>