<?xml version="1.0" encoding="UTF-8"?>
<svg height="600" width="800" xmlns="http://www.w3.org/2000/svg" xmlns:xlink="http://www.w3.org/1999/xlink">
    <g id="Notes" font-family="LucidaGrande, 'Lucida Grande', sans-serif" font-size="13">
        <rect fill="white" height="600.0" width="800.0" x="0.0" y="0.0" />
        <g font-size="13">
            <text x="18.0" y="176.0">Small</text>
            <text x="18.0" y="376.0">Medium</text>
            <text x="18.0" y="576.0">Large</text>
        </g>
        <g font-size="9">
            <text x="250.0" y="30.0">Ultralight</text>
            <text x="450.0" y="30.0">Regular</text>
            <text x="650.0" y="30.0">Black</text>
            <text id="template-version" fill="#505050" text-anchor="end" x="785.0" y="575.0">Template v.3.0</text>
            <a href="https://github.com/swhitty/SwiftDraw">
                <text fill="#505050" text-anchor="end" x="785.0" y="590.0">https://github.com/swhitty/SwiftDraw</text>
            </a>
        </g>
    </g>
    <g id="Guides" stroke="rgb(39, 170, 225)" stroke-width="0.5">
        <path id="Capline-S" d="M18,76 l800,0" />
        <path id="H-reference" d="M85,145.755 L87.685,145.755 L113.369,79.287 L114.052,79.287 L114.052,76 L112.148,76 L85,145.755 Z M95.693,121.536 L130.996,121.536 L130.263,119.313 L96.474,119.313 L95.693,121.536 Z M139.15,145.755 L141.787,145.755 L114.638,76 L113.466,76 L113.466,79.287 L139.15,145.755 Z" stroke="none" transform="translate(0,200)" />
        <path id="Baseline-S" d="M18,146 l800,0" />
        <path id="left-margin-Ultralight-M" d="M231.591,256 l0,110" />
        <path id="right-margin-Ultralight-M" d="M298.409,256 l0,110" />
        <path id="left-margin-Regular-M" d="M431.591,256 l0,110" />
        <path id="right-margin-Regular-M" d="M498.409,256 l0,110" />
        <path id="left-margin-Black-M" d="M631.591,256 l0,110" />
        <path id="right-margin-Black-M" d="M698.409,256 l0,110" />
        <path id="Capline-M" d="M18,276 l800,0" />
        <path id="Baseline-M" d="M18,346 l800,0" />
        <path id="Capline-L" d="M18,476 l800,0" />
        <path id="Baseline-L" d="M18,546 l800,0" />
    </g>
    <g id="Symbols">
        <g id="Ultralight-M" transform="translate(0,200)">
            <path d="M261.961,114.182 L261.961,136.455 C261.961,141.726 266.041,146 271.073,146 C276.105,146 280.185,141.726 280.185,136.455 C280.185,134.697 278.825,133.273 277.147,133.273 C275.47,133.273 274.11,134.697 274.11,136.455 C274.11,138.212 272.75,139.636 271.073,139.636 C269.396,139.636 268.036,138.212 268.036,136.455 L268.036,114.182 C268.036,112.425 266.676,111 264.998,111 C263.321,111 261.961,112.425 261.961,114.182 Z" />
            <path d="M261.961,79.182 L261.961,85.545 C261.961,87.303 263.321,88.727 264.998,88.727 C266.676,88.727 268.036,87.303 268.036,85.545 L268.036,79.182 C268.036,77.425 266.676,76 264.998,76 C263.321,76 261.961,77.425 261.961,79.182 Z" />
            <path d="M292.284,117.364 C294.198,117.38 296.008,116.451 297.168,114.855 C298.327,113.26 298.701,111.185 298.177,109.256 C294.309,93.459 280.648,82.355 265,82.355 C249.352,82.355 235.691,93.459 231.802,109.338 C231.302,111.175 231.669,113.239 232.816,114.832 C233.963,116.425 235.756,117.362 237.661,117.364 L292.309,117.364 Z M292.309,111 L237.663,111 C237.665,111 237.665,111 237.665,111 C237.665,111 237.665,111 237.665,111 C240.885,97.854 252.125,88.718 265,88.718 C277.875,88.718 289.115,97.854 292.314,110.919 C292.335,111 292.335,111 292.335,111 C292.335,111 292.335,111 292.335,111 Z" />
        </g>
        <g id="Regular-M" transform="translate(0,200)">
            <path d="M461.961,114.182 L461.961,136.455 C461.961,141.726 466.041,146 471.073,146 C476.105,146 480.185,141.726 480.185,136.455 C480.185,134.697 478.825,133.273 477.147,133.273 C475.47,133.273 474.11,134.697 474.11,136.455 C474.11,138.212 472.75,139.636 471.073,139.636 C469.396,139.636 468.036,138.212 468.036,136.455 L468.036,114.182 C468.036,112.425 466.676,111 464.998,111 C463.321,111 461.961,112.425 461.961,114.182 Z" />
            <path d="M461.961,79.182 L461.961,85.545 C461.961,87.303 463.321,88.727 464.998,88.727 C466.676,88.727 468.036,87.303 468.036,85.545 L468.036,79.182 C468.036,77.425 466.676,76 464.998,76 C463.321,76 461.961,77.425 461.961,79.182 Z" />
            <path d="M492.284,117.364 C494.198,117.38 496.008,116.451 497.168,114.855 C498.327,113.26 498.701,111.185 498.177,109.256 C494.309,93.459 480.648,82.355 465,82.355 C449.352,82.355 435.69,93.459 431.802,109.338 C431.302,111.175 431.669,113.239 432.816,114.832 C433.963,116.425 435.756,117.362 437.661,117.364 L492.309,117.364 Z M492.309,111 L437.663,111 C437.665,111 437.665,111 437.665,111 C437.665,111 437.665,111 437.665,111 C440.885,97.854 452.125,88.718 465,88.718 C477.875,88.718 489.115,97.854 492.314,110.919 C492.335,111 492.335,111 492.335,111 C492.335,111 492.335,111 492.335,111 Z" />
        </g>
        <g id="Black-M" transform="translate(0,200)">
            <path d="M661.961,114.182 L661.961,136.455 C661.961,141.726 666.041,146 671.073,146 C676.105,146 680.185,141.726 680.185,136.455 C680.185,134.697 678.825,133.273 677.147,133.273 C675.47,133.273 674.11,134.697 674.11,136.455 C674.11,138.212 672.75,139.636 671.073,139.636 C669.396,139.636 668.036,138.212 668.036,136.455 L668.036,114.182 C668.036,112.425 666.676,111 664.998,111 C663.321,111 661.961,112.425 661.961,114.182 Z" />
            <path d="M661.961,79.182 L661.961,85.545 C661.961,87.303 663.321,88.727 664.998,88.727 C666.676,88.727 668.036,87.303 668.036,85.545 L668.036,79.182 C668.036,77.425 666.676,76 664.998,76 C663.321,76 661.961,77.425 661.961,79.182 Z" />
            <path d="M692.284,117.364 C694.198,117.38 696.008,116.451 697.168,114.855 C698.327,113.26 698.701,111.185 698.177,109.256 C694.309,93.459 680.648,82.355 665,82.355 C649.352,82.355 635.69,93.459 631.802,109.338 C631.302,111.175 631.669,113.239 632.816,114.832 C633.963,116.425 635.756,117.362 637.661,117.364 L692.309,117.364 Z M692.309,111 L637.663,111 C637.665,111 637.665,111 637.665,111 C637.665,111 637.665,111 637.665,111 C640.885,97.854 652.125,88.718 665,88.718 C677.875,88.718 689.115,97.854 692.314,110.919 C692.335,111 692.335,111 692.335,111 C692.335,111 692.335,111 692.335,111 Z" />
        </g>
    </g>
</svg>