<?xml version="1.0" encoding="UTF-8"?>
<svg height="600" width="800" xmlns="http://www.w3.org/2000/svg" xmlns:xlink="http://www.w3.org/1999/xlink">
    <g id="Notes" font-family="LucidaGrande, 'Lucida Grande', sans-serif" font-size="13">
        <rect fill="white" height="600.0" width="800.0" x="0.0" y="0.0" />
        <g font-size="13">
            <text x="18.0" y="176.0">Small</text>
            <text x="18.0" y="376.0">Medium</text>
            <text x="18.0" y="576.0">Large</text>
        </g>
        <g font-size="9">
            <text x="250.0" y="30.0">Ultralight</text>
            <text x="450.0" y="30.0">Regular</text>
            <text x="650.0" y="30.0">Black</text>
            <text id="template-version" fill="#505050" text-anchor="end" x="785.0" y="575.0">Template v.3.0</text>
            <a href="https://github.com/swhitty/SwiftDraw">
                <text fill="#505050" text-anchor="end" x="785.0" y="590.0">https://github.com/swhitty/SwiftDraw</text>
            </a>
        </g>
    </g>
    <g id="Guides" stroke="rgb(39, 170, 225)" stroke-width="0.5">
        <path id="Capline-S" d="M18,76 l800,0" />
        <path id="H-reference" d="M85,145.755 L87.685,145.755 L113.369,79.287 L114.052,79.287 L114.052,76 L112.148,76 L85,145.755 Z M95.693,121.536 L130.996,121.536 L130.263,119.313 L96.474,119.313 L95.693,121.536 Z M139.15,145.755 L141.787,145.755 L114.638,76 L113.466,76 L113.466,79.287 L139.15,145.755 Z" stroke="none" transform="translate(0,200)" />
        <path id="Baseline-S" d="M18,146 l800,0" />
        <path id="left-margin-Ultralight-M" d="M230,256 l0,110" />
        <path id="right-margin-Ultralight-M" d="M300,256 l0,110" />
        <path id="left-margin-Regular-M" d="M430,256 l0,110" />
        <path id="right-margin-Regular-M" d="M500,256 l0,110" />
        <path id="left-margin-Black-M" d="M630,256 l0,110" />
        <path id="right-margin-Black-M" d="M700,256 l0,110" />
        <path id="Capline-M" d="M18,276 l800,0" />
        <path id="Baseline-M" d="M18,346 l800,0" />
        <path id="Capline-L" d="M18,476 l800,0" />
        <path id="Baseline-L" d="M18,546 l800,0" />
    </g>
    <g id="Symbols">
        <g id="Ultralight-M" transform="translate(0,200)">
            <path d="M230.932,81.432 L294.568,145.068 C295.811,146.311 297.826,146.311 299.068,145.068 C300.311,143.825 300.311,141.811 299.068,140.568 L235.432,76.932 C234.189,75.689 232.175,75.689 230.932,76.932 C229.689,78.175 229.689,80.189 230.932,81.432 Z" />
            <path d="M257.69,103.692 C256.886,104.497 255.713,104.812 254.613,104.517 C253.513,104.223 252.655,103.364 252.36,102.264 C252.066,101.165 252.38,99.992 253.185,99.187 C254.428,97.945 254.429,95.93 253.187,94.687 C251.945,93.444 249.93,93.444 248.687,94.686 C246.274,97.098 245.33,100.614 246.213,103.911 C247.096,107.207 249.671,109.781 252.967,110.664 C256.263,111.547 259.78,110.604 262.192,108.19 C263.434,106.947 263.433,104.932 262.19,103.69 C260.947,102.448 258.932,102.449 257.69,103.692 Z" />
            <path d="M267.523,113.523 L243.659,137.386 C242.417,138.629 242.417,140.644 243.659,141.886 C244.902,143.129 246.916,143.129 248.159,141.886 L272.023,118.023 C273.265,116.78 273.265,114.765 272.023,113.523 C270.78,112.28 268.765,112.28 267.523,113.523 Z" />
            <path d="M281.841,113.25 L291.386,122.795 C292.629,124.038 294.644,124.038 295.886,122.795 C297.129,121.553 297.129,119.538 295.886,118.296 L286.341,108.75 C285.098,107.508 283.084,107.508 281.841,108.75 C280.598,109.993 280.598,112.007 281.841,113.25 Z" />
            <path d="M236.002,81.98 C234.202,83.762 233.187,86.188 233.182,88.72 L233.182,133.273 C233.182,135.804 234.188,138.232 235.978,140.022 C237.768,141.812 240.196,142.818 242.727,142.818 L287.273,142.818 C289.857,142.818 292.288,141.788 294.046,139.972 C295.268,138.709 295.234,136.694 293.972,135.472 C292.709,134.251 290.694,134.284 289.472,135.547 C288.914,136.124 288.133,136.455 287.273,136.455 L242.727,136.455 C241.883,136.455 241.074,136.119 240.477,135.523 C239.881,134.926 239.545,134.117 239.545,133.273 L239.545,88.727 C239.547,87.895 239.883,87.092 240.479,86.502 C241.728,85.266 241.738,83.251 240.502,82.002 C239.266,80.754 237.251,80.743 236.002,81.98 Z" />
            <path d="M296.818,120.545 L296.818,88.727 C296.818,86.196 295.812,83.768 294.022,81.978 C292.232,80.188 289.804,79.182 287.273,79.182 L255.455,79.182 C253.697,79.182 252.273,80.606 252.273,82.364 C252.273,84.121 253.697,85.545 255.455,85.545 L287.273,85.545 C288.117,85.545 288.926,85.881 289.523,86.477 C290.119,87.074 290.455,87.883 290.455,88.727 L290.455,120.545 C290.455,122.303 291.879,123.727 293.636,123.727 C295.394,123.727 296.818,122.303 296.818,120.545 Z" />
        </g>
        <g id="Regular-M" transform="translate(0,200)">
            <path d="M430.932,81.432 L494.568,145.068 C495.811,146.311 497.826,146.311 499.068,145.068 C500.311,143.825 500.311,141.811 499.068,140.568 L435.432,76.932 C434.189,75.689 432.174,75.689 430.932,76.932 C429.689,78.175 429.689,80.189 430.932,81.432 Z" />
            <path d="M457.69,103.692 C456.886,104.497 455.713,104.812 454.613,104.517 C453.513,104.223 452.655,103.364 452.36,102.264 C452.066,101.165 452.38,99.992 453.185,99.187 C454.428,97.945 454.429,95.93 453.187,94.687 C451.945,93.444 449.93,93.444 448.687,94.686 C446.274,97.098 445.33,100.614 446.213,103.911 C447.096,107.207 449.671,109.781 452.967,110.664 C456.263,111.547 459.78,110.604 462.192,108.19 C463.434,106.947 463.433,104.932 462.19,103.69 C460.947,102.448 458.932,102.449 457.69,103.692 Z" />
            <path d="M467.523,113.523 L443.659,137.386 C442.417,138.629 442.417,140.644 443.659,141.886 C444.902,143.129 446.916,143.129 448.159,141.886 L472.023,118.023 C473.265,116.78 473.265,114.765 472.023,113.523 C470.78,112.28 468.765,112.28 467.523,113.523 Z" />
            <path d="M481.841,113.25 L491.386,122.795 C492.629,124.038 494.644,124.038 495.886,122.795 C497.129,121.553 497.129,119.538 495.886,118.296 L486.341,108.75 C485.098,107.508 483.084,107.508 481.841,108.75 C480.598,109.993 480.598,112.007 481.841,113.25 Z" />
            <path d="M436.002,81.98 C434.202,83.762 433.187,86.188 433.182,88.72 L433.182,133.273 C433.182,135.804 434.188,138.232 435.978,140.022 C437.768,141.812 440.196,142.818 442.727,142.818 L487.273,142.818 C489.857,142.818 492.288,141.788 494.046,139.972 C495.268,138.709 495.234,136.694 493.972,135.472 C492.709,134.251 490.694,134.284 489.472,135.547 C488.914,136.124 488.133,136.455 487.273,136.455 L442.727,136.455 C441.883,136.455 441.074,136.119 440.477,135.523 C439.881,134.926 439.545,134.117 439.545,133.273 L439.545,88.727 C439.547,87.895 439.883,87.092 440.479,86.502 C441.728,85.266 441.738,83.251 440.502,82.002 C439.266,80.754 437.251,80.743 436.002,81.98 Z" />
            <path d="M496.818,120.545 L496.818,88.727 C496.818,86.196 495.812,83.768 494.022,81.978 C492.232,80.188 489.804,79.182 487.273,79.182 L455.455,79.182 C453.697,79.182 452.273,80.606 452.273,82.364 C452.273,84.121 453.697,85.545 455.455,85.545 L487.273,85.545 C488.117,85.545 488.926,85.881 489.523,86.477 C490.119,87.074 490.455,87.883 490.455,88.727 L490.455,120.545 C490.455,122.303 491.879,123.727 493.636,123.727 C495.394,123.727 496.818,122.303 496.818,120.545 Z" />
        </g>
        <g id="Black-M" transform="translate(0,200)">
            <path d="M630.932,81.432 L694.568,145.068 C695.811,146.311 697.826,146.311 699.068,145.068 C700.311,143.825 700.311,141.811 699.068,140.568 L635.432,76.932 C634.189,75.689 632.174,75.689 630.932,76.932 C629.689,78.175 629.689,80.189 630.932,81.432 Z" />
            <path d="M657.69,103.692 C656.886,104.497 655.713,104.812 654.613,104.517 C653.513,104.223 652.655,103.364 652.36,102.264 C652.066,101.165 652.38,99.992 653.185,99.187 C654.428,97.945 654.429,95.93 653.187,94.687 C651.945,93.444 649.93,93.444 648.687,94.686 C646.274,97.098 645.33,100.614 646.213,103.911 C647.096,107.207 649.671,109.781 652.967,110.664 C656.263,111.547 659.78,110.604 662.192,108.19 C663.434,106.947 663.433,104.932 662.19,103.69 C660.947,102.448 658.932,102.449 657.69,103.692 Z" />
            <path d="M667.523,113.523 L643.659,137.386 C642.417,138.629 642.417,140.644 643.659,141.886 C644.902,143.129 646.916,143.129 648.159,141.886 L672.023,118.023 C673.265,116.78 673.265,114.765 672.023,113.523 C670.78,112.28 668.765,112.28 667.523,113.523 Z" />
            <path d="M681.841,113.25 L691.386,122.795 C692.629,124.038 694.644,124.038 695.886,122.795 C697.129,121.553 697.129,119.538 695.886,118.296 L686.341,108.75 C685.098,107.508 683.084,107.508 681.841,108.75 C680.598,109.993 680.598,112.007 681.841,113.25 Z" />
            <path d="M636.002,81.98 C634.202,83.762 633.187,86.188 633.182,88.72 L633.182,133.273 C633.182,135.804 634.188,138.232 635.978,140.022 C637.768,141.812 640.196,142.818 642.727,142.818 L687.273,142.818 C689.857,142.818 692.288,141.788 694.046,139.972 C695.268,138.709 695.234,136.694 693.972,135.472 C692.709,134.251 690.694,134.284 689.472,135.547 C688.914,136.124 688.133,136.455 687.273,136.455 L642.727,136.455 C641.883,136.455 641.074,136.119 640.477,135.523 C639.881,134.926 639.545,134.117 639.545,133.273 L639.545,88.727 C639.547,87.895 639.883,87.092 640.479,86.502 C641.728,85.266 641.738,83.251 640.502,82.002 C639.266,80.754 637.251,80.743 636.002,81.98 Z" />
            <path d="M696.818,120.545 L696.818,88.727 C696.818,86.196 695.812,83.768 694.022,81.978 C692.232,80.188 689.804,79.182 687.273,79.182 L655.455,79.182 C653.697,79.182 652.273,80.606 652.273,82.364 C652.273,84.121 653.697,85.545 655.455,85.545 L687.273,85.545 C688.117,85.545 688.926,85.881 689.523,86.477 C690.119,87.074 690.455,87.883 690.455,88.727 L690.455,120.545 C690.455,122.303 691.879,123.727 693.636,123.727 C695.394,123.727 696.818,122.303 696.818,120.545 Z" />
        </g>
    </g>
</svg>