<?xml version="1.0" encoding="UTF-8"?>
<svg height="600" width="800" xmlns="http://www.w3.org/2000/svg" xmlns:xlink="http://www.w3.org/1999/xlink">
    <g id="Notes" font-family="LucidaGrande, 'Lucida Grande', sans-serif" font-size="13">
        <rect fill="white" height="600.0" width="800.0" x="0.0" y="0.0" />
        <g font-size="13">
            <text x="18.0" y="176.0">Small</text>
            <text x="18.0" y="376.0">Medium</text>
            <text x="18.0" y="576.0">Large</text>
        </g>
        <g font-size="9">
            <text x="250.0" y="30.0">Ultralight</text>
            <text x="450.0" y="30.0">Regular</text>
            <text x="650.0" y="30.0">Black</text>
            <text id="template-version" fill="#505050" text-anchor="end" x="785.0" y="575.0">Template v.3.0</text>
            <a href="https://github.com/swhitty/SwiftDraw">
                <text fill="#505050" text-anchor="end" x="785.0" y="590.0">https://github.com/swhitty/SwiftDraw</text>
            </a>
        </g>
    </g>
    <g id="Guides" stroke="rgb(39, 170, 225)" stroke-width="0.5">
        <path id="Capline-S" d="M18,76 l800,0" />
        <path id="H-reference" d="M85,145.755 L87.685,145.755 L113.369,79.287 L114.052,79.287 L114.052,76 L112.148,76 L85,145.755 Z M95.693,121.536 L130.996,121.536 L130.263,119.313 L96.474,119.313 L95.693,121.536 Z M139.15,145.755 L141.787,145.755 L114.638,76 L113.466,76 L113.466,79.287 L139.15,145.755 Z" stroke="none" transform="translate(0,200)" />
        <path id="Baseline-S" d="M18,146 l800,0" />
        <path id="left-margin-Ultralight-M" d="M226.5,256 l0,110" />
        <path id="right-margin-Ultralight-M" d="M303.5,256 l0,110" />
        <path id="left-margin-Regular-M" d="M426.5,256 l0,110" />
        <path id="right-margin-Regular-M" d="M503.5,256 l0,110" />
        <path id="left-margin-Black-M" d="M626.5,256 l0,110" />
        <path id="right-margin-Black-M" d="M703.5,256 l0,110" />
        <path id="Capline-M" d="M18,276 l800,0" />
        <path id="Baseline-M" d="M18,346 l800,0" />
        <path id="Capline-L" d="M18,476 l800,0" />
        <path id="Baseline-L" d="M18,546 l800,0" />
    </g>
    <g id="Symbols">
        <g id="Ultralight-M" transform="translate(0,200)">
            <path d="M230,132 L293,132 C295.785,132 298.455,130.894 300.425,128.925 C302.394,126.955 303.5,124.285 303.5,121.5 L303.5,93.5 C303.5,90.715 302.394,88.045 300.425,86.075 C298.456,84.106 295.785,83 293,83 L230,83 C228.067,83 226.5,84.567 226.5,86.5 C226.5,88.433 228.067,90 230,90 L293,90 C293.928,90 294.818,90.369 295.475,91.025 C296.131,91.682 296.5,92.572 296.5,93.5 L296.5,121.5 C296.5,122.428 296.131,123.318 295.475,123.975 C294.818,124.631 293.928,125 293,125 L230,125 C228.067,125 226.5,126.567 226.5,128.5 C226.5,130.433 228.067,132 230,132 Z" />
            <path d="M233.5,142.5 L233.5,79.5 C233.5,77.567 231.933,76 230,76 C228.067,76 226.5,77.567 226.5,79.5 L226.5,142.5 C226.5,144.433 228.067,146 230,146 C231.933,146 233.5,144.433 233.5,142.5 Z" />
            <path d="M244,128.5 L244,139 C244,140.857 244.738,142.637 246.05,143.95 C247.363,145.263 249.143,146 251,146 L268.5,146 C270.357,146 272.137,145.263 273.45,143.95 C274.763,142.637 275.5,140.857 275.5,139 L275.5,128.5 C275.5,126.567 273.933,125 272,125 C270.067,125 268.5,126.567 268.5,128.5 L268.5,139 C268.5,139 268.5,139 268.5,139 C268.5,139 268.5,139 268.5,139 L251,139 C251,139 251,139 251,139 C251,139 251,139 251,139 L251,128.5 C251,126.567 249.433,125 247.5,125 C245.567,125 244,126.567 244,128.5 Z" />
            <path d="M275.5,107.5 C275.5,105.567 277.067,104 279,104 C280.933,104 282.5,105.567 282.5,107.5 C282.5,109.433 280.933,111 279,111 C277.067,111 275.5,109.433 275.5,107.5 Z M268.5,107.5 C268.5,113.299 273.201,118 279,118 C284.799,118 289.5,113.299 289.5,107.5 C289.5,101.701 284.799,97 279,97 C273.201,97 268.5,101.701 268.5,107.5 Z" />
            <path d="M247.5,107.5 C247.5,105.567 249.067,104 251,104 C252.933,104 254.5,105.567 254.5,107.5 C254.5,109.433 252.933,111 251,111 C249.067,111 247.5,109.433 247.5,107.5 Z M240.5,107.5 C240.5,113.299 245.201,118 251,118 C256.799,118 261.5,113.299 261.5,107.5 C261.5,101.701 256.799,97 251,97 C245.201,97 240.5,101.701 240.5,107.5 Z" />
        </g>
        <g id="Regular-M" transform="translate(0,200)">
            <path d="M430,132 L493,132 C495.785,132 498.455,130.894 500.425,128.925 C502.394,126.955 503.5,124.285 503.5,121.5 L503.5,93.5 C503.5,90.715 502.394,88.045 500.425,86.075 C498.456,84.106 495.785,83 493,83 L430,83 C428.067,83 426.5,84.567 426.5,86.5 C426.5,88.433 428.067,90 430,90 L493,90 C493.928,90 494.818,90.369 495.475,91.025 C496.131,91.682 496.5,92.572 496.5,93.5 L496.5,121.5 C496.5,122.428 496.131,123.318 495.475,123.975 C494.818,124.631 493.928,125 493,125 L430,125 C428.067,125 426.5,126.567 426.5,128.5 C426.5,130.433 428.067,132 430,132 Z" />
            <path d="M433.5,142.5 L433.5,79.5 C433.5,77.567 431.933,76 430,76 C428.067,76 426.5,77.567 426.5,79.5 L426.5,142.5 C426.5,144.433 428.067,146 430,146 C431.933,146 433.5,144.433 433.5,142.5 Z" />
            <path d="M444,128.5 L444,139 C444,140.857 444.737,142.637 446.05,143.95 C447.363,145.263 449.143,146 451,146 L468.5,146 C470.357,146 472.137,145.263 473.45,143.95 C474.763,142.637 475.5,140.857 475.5,139 L475.5,128.5 C475.5,126.567 473.933,125 472,125 C470.067,125 468.5,126.567 468.5,128.5 L468.5,139 C468.5,139 468.5,139 468.5,139 C468.5,139 468.5,139 468.5,139 L451,139 C451,139 451,139 451,139 C451,139 451,139 451,139 L451,128.5 C451,126.567 449.433,125 447.5,125 C445.567,125 444,126.567 444,128.5 Z" />
            <path d="M475.5,107.5 C475.5,105.567 477.067,104 479,104 C480.933,104 482.5,105.567 482.5,107.5 C482.5,109.433 480.933,111 479,111 C477.067,111 475.5,109.433 475.5,107.5 Z M468.5,107.5 C468.5,113.299 473.201,118 479,118 C484.799,118 489.5,113.299 489.5,107.5 C489.5,101.701 484.799,97 479,97 C473.201,97 468.5,101.701 468.5,107.5 Z" />
            <path d="M447.5,107.5 C447.5,105.567 449.067,104 451,104 C452.933,104 454.5,105.567 454.5,107.5 C454.5,109.433 452.933,111 451,111 C449.067,111 447.5,109.433 447.5,107.5 Z M440.5,107.5 C440.5,113.299 445.201,118 451,118 C456.799,118 461.5,113.299 461.5,107.5 C461.5,101.701 456.799,97 451,97 C445.201,97 440.5,101.701 440.5,107.5 Z" />
        </g>
        <g id="Black-M" transform="translate(0,200)">
            <path d="M630,132 L693,132 C695.785,132 698.456,130.894 700.425,128.925 C702.394,126.955 703.5,124.285 703.5,121.5 L703.5,93.5 C703.5,90.715 702.394,88.045 700.425,86.075 C698.456,84.106 695.785,83 693,83 L630,83 C628.067,83 626.5,84.567 626.5,86.5 C626.5,88.433 628.067,90 630,90 L693,90 C693.928,90 694.818,90.369 695.475,91.025 C696.131,91.682 696.5,92.572 696.5,93.5 L696.5,121.5 C696.5,122.428 696.131,123.318 695.475,123.975 C694.818,124.631 693.928,125 693,125 L630,125 C628.067,125 626.5,126.567 626.5,128.5 C626.5,130.433 628.067,132 630,132 Z" />
            <path d="M633.5,142.5 L633.5,79.5 C633.5,77.567 631.933,76 630,76 C628.067,76 626.5,77.567 626.5,79.5 L626.5,142.5 C626.5,144.433 628.067,146 630,146 C631.933,146 633.5,144.433 633.5,142.5 Z" />
            <path d="M644,128.5 L644,139 C644,140.857 644.737,142.637 646.05,143.95 C647.363,145.263 649.143,146 651,146 L668.5,146 C670.357,146 672.137,145.263 673.45,143.95 C674.763,142.637 675.5,140.857 675.5,139 L675.5,128.5 C675.5,126.567 673.933,125 672,125 C670.067,125 668.5,126.567 668.5,128.5 L668.5,139 C668.5,139 668.5,139 668.5,139 C668.5,139 668.5,139 668.5,139 L651,139 C651,139 651,139 651,139 C651,139 651,139 651,139 L651,128.5 C651,126.567 649.433,125 647.5,125 C645.567,125 644,126.567 644,128.5 Z" />
            <path d="M675.5,107.5 C675.5,105.567 677.067,104 679,104 C680.933,104 682.5,105.567 682.5,107.5 C682.5,109.433 680.933,111 679,111 C677.067,111 675.5,109.433 675.5,107.5 Z M668.5,107.5 C668.5,113.299 673.201,118 679,118 C684.799,118 689.5,113.299 689.5,107.5 C689.5,101.701 684.799,97 679,97 C673.201,97 668.5,101.701 668.5,107.5 Z" />
            <path d="M647.5,107.5 C647.5,105.567 649.067,104 651,104 C652.933,104 654.5,105.567 654.5,107.5 C654.5,109.433 652.933,111 651,111 C649.067,111 647.5,109.433 647.5,107.5 Z M640.5,107.5 C640.5,113.299 645.201,118 651,118 C656.799,118 661.5,113.299 661.5,107.5 C661.5,101.701 656.799,97 651,97 C645.201,97 640.5,101.701 640.5,107.5 Z" />
        </g>
    </g>
</svg>