<?xml version="1.0" encoding="UTF-8"?>
<svg height="600" width="800" xmlns="http://www.w3.org/2000/svg" xmlns:xlink="http://www.w3.org/1999/xlink">
    <g id="Notes" font-family="LucidaGrande, 'Lucida Grande', sans-serif" font-size="13">
        <rect fill="white" height="600.0" width="800.0" x="0.0" y="0.0" />
        <g font-size="13">
            <text x="18.0" y="176.0">Small</text>
            <text x="18.0" y="376.0">Medium</text>
            <text x="18.0" y="576.0">Large</text>
        </g>
        <g font-size="9">
            <text x="250.0" y="30.0">Ultralight</text>
            <text x="450.0" y="30.0">Regular</text>
            <text x="650.0" y="30.0">Black</text>
            <text id="template-version" fill="#505050" text-anchor="end" x="785.0" y="575.0">Template v.3.0</text>
            <a href="https://github.com/swhitty/SwiftDraw">
                <text fill="#505050" text-anchor="end" x="785.0" y="590.0">https://github.com/swhitty/SwiftDraw</text>
            </a>
        </g>
    </g>
    <g id="Guides" stroke="rgb(39, 170, 225)" stroke-width="0.5">
        <path id="Capline-S" d="M18,76 l800,0" />
        <path id="H-reference" d="M85,145.755 L87.685,145.755 L113.369,79.287 L114.052,79.287 L114.052,76 L112.148,76 L85,145.755 Z M95.693,121.536 L130.996,121.536 L130.263,119.313 L96.474,119.313 L95.693,121.536 Z M139.15,145.755 L141.787,145.755 L114.638,76 L113.466,76 L113.466,79.287 L139.15,145.755 Z" stroke="none" transform="translate(0,200)" />
        <path id="Baseline-S" d="M18,146 l800,0" />
        <path id="left-margin-Ultralight-M" d="M226.5,256 l0,110" />
        <path id="right-margin-Ultralight-M" d="M303.5,256 l0,110" />
        <path id="left-margin-Regular-M" d="M426.5,256 l0,110" />
        <path id="right-margin-Regular-M" d="M503.5,256 l0,110" />
        <path id="left-margin-Black-M" d="M626.5,256 l0,110" />
        <path id="right-margin-Black-M" d="M703.5,256 l0,110" />
        <path id="Capline-M" d="M18,276 l800,0" />
        <path id="Baseline-M" d="M18,346 l800,0" />
        <path id="Capline-L" d="M18,476 l800,0" />
        <path id="Baseline-L" d="M18,546 l800,0" />
    </g>
    <g id="Symbols">
        <g id="Ultralight-M" transform="translate(0,200)">
            <path d="M303.5,109.25 L303.5,86.5 C303.5,83.715 302.394,81.045 300.425,79.075 C298.456,77.106 295.785,76 293,76 L237,76 C234.215,76 231.545,77.106 229.575,79.075 C227.606,81.045 226.5,83.715 226.5,86.5 L226.5,128.5 C226.5,134.283 231.217,139 237,139 L263.25,139 C265.183,139 266.75,137.433 266.75,135.5 C266.75,133.567 265.183,132 263.25,132 L237,132 C235.083,132 233.5,130.417 233.5,128.5 L233.5,86.5 C233.5,85.572 233.869,84.682 234.525,84.025 C235.182,83.369 236.072,83 237,83 L293,83 C293.928,83 294.818,83.369 295.475,84.025 C296.131,84.682 296.5,85.572 296.5,86.5 L296.5,109.25 C296.5,111.183 298.067,112.75 300,112.75 C301.933,112.75 303.5,111.183 303.5,109.25 Z" />
            <path d="M298.123,87.046 L266.728,106.996 C265.678,107.653 264.322,107.653 263.253,106.984 L231.877,87.046 C230.246,86.009 228.083,86.491 227.046,88.123 C226.009,89.754 226.491,91.917 228.123,92.954 L259.518,112.904 C262.878,115.009 267.122,115.009 270.463,112.916 L301.877,92.954 C303.509,91.917 303.991,89.754 302.954,88.123 C301.917,86.491 299.754,86.009 298.123,87.046 Z" />
            <path d="M286,142.5 C293.732,142.5 300,136.232 300,128.5 C300,120.768 293.732,114.5 286,114.5 C278.268,114.5 272,120.768 272,128.5 C272,136.232 278.268,142.5 286,142.5 Z M286,135.5 C282.134,135.5 279,132.366 279,128.5 C279,124.634 282.134,121.5 286,121.5 C289.866,121.5 293,124.634 293,128.5 C293,132.366 289.866,135.5 286,135.5 Z" />
            <path d="M279,128.5 C279,124.634 282.134,121.5 286,121.5 C289.866,121.5 293,124.634 293,128.5 C293,132.366 289.866,135.5 286,135.5 C282.134,135.5 279,132.366 279,128.5 Z M272,128.5 C272,136.232 278.268,142.5 286,142.5 C293.732,142.5 300,136.232 300,128.5 C300,120.768 293.732,114.5 286,114.5 C278.268,114.5 272,120.768 272,128.5 Z" />
            <path d="M302.475,140.025 L297.225,134.775 C295.858,133.408 293.642,133.408 292.275,134.775 C290.908,136.142 290.908,138.358 292.275,139.725 L297.525,144.975 C298.892,146.342 301.108,146.342 302.475,144.975 C303.842,143.608 303.842,141.392 302.475,140.025 Z" />
        </g>
        <g id="Regular-M" transform="translate(0,200)">
            <path d="M503.5,109.25 L503.5,86.5 C503.5,83.715 502.394,81.045 500.425,79.075 C498.456,77.106 495.785,76 493,76 L437,76 C434.215,76 431.545,77.106 429.575,79.075 C427.606,81.045 426.5,83.715 426.5,86.5 L426.5,128.5 C426.5,134.283 431.217,139 437,139 L463.25,139 C465.183,139 466.75,137.433 466.75,135.5 C466.75,133.567 465.183,132 463.25,132 L437,132 C435.083,132 433.5,130.417 433.5,128.5 L433.5,86.5 C433.5,85.572 433.869,84.682 434.525,84.025 C435.182,83.369 436.072,83 437,83 L493,83 C493.928,83 494.818,83.369 495.475,84.025 C496.131,84.682 496.5,85.572 496.5,86.5 L496.5,109.25 C496.5,111.183 498.067,112.75 500,112.75 C501.933,112.75 503.5,111.183 503.5,109.25 Z" />
            <path d="M498.123,87.046 L466.728,106.996 C465.678,107.653 464.322,107.653 463.253,106.984 L431.877,87.046 C430.246,86.009 428.083,86.491 427.046,88.123 C426.009,89.754 426.491,91.917 428.123,92.954 L459.518,112.904 C462.878,115.009 467.122,115.009 470.463,112.916 L501.877,92.954 C503.509,91.917 503.991,89.754 502.954,88.123 C501.917,86.491 499.754,86.009 498.123,87.046 Z" />
            <path d="M486,142.5 C493.732,142.5 500,136.232 500,128.5 C500,120.768 493.732,114.5 486,114.5 C478.268,114.5 472,120.768 472,128.5 C472,136.232 478.268,142.5 486,142.5 Z M486,135.5 C482.134,135.5 479,132.366 479,128.5 C479,124.634 482.134,121.5 486,121.5 C489.866,121.5 493,124.634 493,128.5 C493,132.366 489.866,135.5 486,135.5 Z" />
            <path d="M479,128.5 C479,124.634 482.134,121.5 486,121.5 C489.866,121.5 493,124.634 493,128.5 C493,132.366 489.866,135.5 486,135.5 C482.134,135.5 479,132.366 479,128.5 Z M472,128.5 C472,136.232 478.268,142.5 486,142.5 C493.732,142.5 500,136.232 500,128.5 C500,120.768 493.732,114.5 486,114.5 C478.268,114.5 472,120.768 472,128.5 Z" />
            <path d="M502.475,140.025 L497.225,134.775 C495.858,133.408 493.642,133.408 492.275,134.775 C490.908,136.142 490.908,138.358 492.275,139.725 L497.525,144.975 C498.892,146.342 501.108,146.342 502.475,144.975 C503.842,143.608 503.842,141.392 502.475,140.025 Z" />
        </g>
        <g id="Black-M" transform="translate(0,200)">
            <path d="M703.5,109.25 L703.5,86.5 C703.5,83.715 702.394,81.045 700.425,79.075 C698.456,77.106 695.785,76 693,76 L637,76 C634.215,76 631.544,77.106 629.575,79.075 C627.606,81.045 626.5,83.715 626.5,86.5 L626.5,128.5 C626.5,134.283 631.217,139 637,139 L663.25,139 C665.183,139 666.75,137.433 666.75,135.5 C666.75,133.567 665.183,132 663.25,132 L637,132 C635.083,132 633.5,130.417 633.5,128.5 L633.5,86.5 C633.5,85.572 633.869,84.682 634.525,84.025 C635.182,83.369 636.072,83 637,83 L693,83 C693.928,83 694.818,83.369 695.475,84.025 C696.131,84.682 696.5,85.572 696.5,86.5 L696.5,109.25 C696.5,111.183 698.067,112.75 700,112.75 C701.933,112.75 703.5,111.183 703.5,109.25 Z" />
            <path d="M698.123,87.046 L666.728,106.996 C665.678,107.653 664.322,107.653 663.253,106.984 L631.877,87.046 C630.246,86.009 628.083,86.491 627.046,88.123 C626.009,89.754 626.491,91.917 628.123,92.954 L659.518,112.904 C662.878,115.009 667.122,115.009 670.463,112.916 L701.877,92.954 C703.509,91.917 703.991,89.754 702.954,88.123 C701.917,86.491 699.754,86.009 698.123,87.046 Z" />
            <path d="M686,142.5 C693.732,142.5 700,136.232 700,128.5 C700,120.768 693.732,114.5 686,114.5 C678.268,114.5 672,120.768 672,128.5 C672,136.232 678.268,142.5 686,142.5 Z M686,135.5 C682.134,135.5 679,132.366 679,128.5 C679,124.634 682.134,121.5 686,121.5 C689.866,121.5 693,124.634 693,128.5 C693,132.366 689.866,135.5 686,135.5 Z" />
            <path d="M679,128.5 C679,124.634 682.134,121.5 686,121.5 C689.866,121.5 693,124.634 693,128.5 C693,132.366 689.866,135.5 686,135.5 C682.134,135.5 679,132.366 679,128.5 Z M672,128.5 C672,136.232 678.268,142.5 686,142.5 C693.732,142.5 700,136.232 700,128.5 C700,120.768 693.732,114.5 686,114.5 C678.268,114.5 672,120.768 672,128.5 Z" />
            <path d="M702.475,140.025 L697.225,134.775 C695.858,133.408 693.642,133.408 692.275,134.775 C690.908,136.142 690.908,138.358 692.275,139.725 L697.525,144.975 C698.892,146.342 701.108,146.342 702.475,144.975 C703.842,143.608 703.842,141.392 702.475,140.025 Z" />
        </g>
    </g>
</svg>