<?xml version="1.0" encoding="UTF-8"?>
<svg height="600" width="800" xmlns="http://www.w3.org/2000/svg" xmlns:xlink="http://www.w3.org/1999/xlink">
    <g id="Notes" font-family="LucidaGrande, 'Lucida Grande', sans-serif" font-size="13">
        <rect fill="white" height="600.0" width="800.0" x="0.0" y="0.0" />
        <g font-size="13">
            <text x="18.0" y="176.0">Small</text>
            <text x="18.0" y="376.0">Medium</text>
            <text x="18.0" y="576.0">Large</text>
        </g>
        <g font-size="9">
            <text x="250.0" y="30.0">Ultralight</text>
            <text x="450.0" y="30.0">Regular</text>
            <text x="650.0" y="30.0">Black</text>
            <text id="template-version" fill="#505050" text-anchor="end" x="785.0" y="575.0">Template v.3.0</text>
            <a href="https://github.com/swhitty/SwiftDraw">
                <text fill="#505050" text-anchor="end" x="785.0" y="590.0">https://github.com/swhitty/SwiftDraw</text>
            </a>
        </g>
    </g>
    <g id="Guides" stroke="rgb(39, 170, 225)" stroke-width="0.5">
        <path id="Capline-S" d="M18,76 l800,0" />
        <path id="H-reference" d="M85,145.755 L87.685,145.755 L113.369,79.287 L114.052,79.287 L114.052,76 L112.148,76 L85,145.755 Z M95.693,121.536 L130.996,121.536 L130.263,119.313 L96.474,119.313 L95.693,121.536 Z M139.15,145.755 L141.787,145.755 L114.638,76 L113.466,76 L113.466,79.287 L139.15,145.755 Z" stroke="none" transform="translate(0,200)" />
        <path id="Baseline-S" d="M18,146 l800,0" />
        <path id="left-margin-Ultralight-M" d="M230,256 l0,110" />
        <path id="right-margin-Ultralight-M" d="M300,256 l0,110" />
        <path id="left-margin-Regular-M" d="M430,256 l0,110" />
        <path id="right-margin-Regular-M" d="M500,256 l0,110" />
        <path id="left-margin-Black-M" d="M630,256 l0,110" />
        <path id="right-margin-Black-M" d="M700,256 l0,110" />
        <path id="Capline-M" d="M18,276 l800,0" />
        <path id="Baseline-M" d="M18,346 l800,0" />
        <path id="Capline-L" d="M18,476 l800,0" />
        <path id="Baseline-L" d="M18,546 l800,0" />
    </g>
    <g id="Symbols">
        <g id="Ultralight-M" transform="translate(0,200)">
            <path d="M236.364,111 C236.364,95.185 249.185,82.364 265,82.364 C280.815,82.364 293.636,95.185 293.636,111 C293.636,126.815 280.815,139.636 265,139.636 C249.185,139.636 236.364,126.815 236.364,111 Z M230,111 C230,130.33 245.67,146 265,146 C284.33,146 300,130.33 300,111 C300,91.67 284.33,76 265,76 C245.67,76 230,91.67 230,111 Z" />
            <path d="M262.75,76.932 C256.262,83.42 253.728,92.877 256.104,101.74 C258.48,110.603 265.404,117.525 274.268,119.898 C283.132,122.271 292.588,119.734 299.074,113.244 C300.316,112.001 300.316,109.986 299.073,108.744 C297.83,107.502 295.815,107.502 294.573,108.745 C289.694,113.628 282.581,115.536 275.914,113.751 C269.246,111.966 264.038,106.759 262.251,100.093 C260.464,93.426 262.369,86.312 267.25,81.432 C268.492,80.189 268.492,78.175 267.25,76.932 C266.007,75.689 263.993,75.689 262.75,76.932 Z" />
        </g>
        <g id="Regular-M" transform="translate(0,200)">
            <path d="M436.364,111 C436.364,95.185 449.185,82.364 465,82.364 C480.815,82.364 493.636,95.185 493.636,111 C493.636,126.815 480.815,139.636 465,139.636 C449.185,139.636 436.364,126.815 436.364,111 Z M430,111 C430,130.33 445.67,146 465,146 C484.33,146 500,130.33 500,111 C500,91.67 484.33,76 465,76 C445.67,76 430,91.67 430,111 Z" />
            <path d="M462.75,76.932 C456.262,83.42 453.728,92.877 456.104,101.74 C458.48,110.603 465.404,117.525 474.268,119.898 C483.132,122.271 492.588,119.734 499.074,113.244 C500.316,112.001 500.316,109.986 499.073,108.744 C497.83,107.502 495.815,107.502 494.573,108.745 C489.694,113.628 482.581,115.536 475.914,113.751 C469.246,111.966 464.038,106.759 462.251,100.093 C460.464,93.426 462.369,86.312 467.25,81.432 C468.492,80.189 468.492,78.175 467.25,76.932 C466.007,75.689 463.993,75.689 462.75,76.932 Z" />
        </g>
        <g id="Black-M" transform="translate(0,200)">
            <path d="M636.364,111 C636.364,95.185 649.185,82.364 665,82.364 C680.815,82.364 693.636,95.185 693.636,111 C693.636,126.815 680.815,139.636 665,139.636 C649.185,139.636 636.364,126.815 636.364,111 Z M630,111 C630,130.33 645.67,146 665,146 C684.33,146 700,130.33 700,111 C700,91.67 684.33,76 665,76 C645.67,76 630,91.67 630,111 Z" />
            <path d="M662.75,76.932 C656.262,83.42 653.728,92.877 656.104,101.74 C658.48,110.603 665.404,117.525 674.268,119.898 C683.132,122.271 692.588,119.734 699.074,113.244 C700.316,112.001 700.316,109.986 699.073,108.744 C697.83,107.502 695.815,107.502 694.573,108.745 C689.694,113.628 682.581,115.536 675.914,113.751 C669.246,111.966 664.038,106.759 662.251,100.093 C660.464,93.426 662.369,86.312 667.25,81.432 C668.492,80.189 668.492,78.175 667.25,76.932 C666.007,75.689 663.993,75.689 662.75,76.932 Z" />
        </g>
    </g>
</svg>