<?xml version="1.0" encoding="UTF-8"?>
<svg height="600" width="800" xmlns="http://www.w3.org/2000/svg" xmlns:xlink="http://www.w3.org/1999/xlink">
    <g id="Notes" font-family="LucidaGrande, 'Lucida Grande', sans-serif" font-size="13">
        <rect fill="white" height="600.0" width="800.0" x="0.0" y="0.0" />
        <g font-size="13">
            <text x="18.0" y="176.0">Small</text>
            <text x="18.0" y="376.0">Medium</text>
            <text x="18.0" y="576.0">Large</text>
        </g>
        <g font-size="9">
            <text x="250.0" y="30.0">Ultralight</text>
            <text x="450.0" y="30.0">Regular</text>
            <text x="650.0" y="30.0">Black</text>
            <text id="template-version" fill="#505050" text-anchor="end" x="785.0" y="575.0">Template v.3.0</text>
            <a href="https://github.com/swhitty/SwiftDraw">
                <text fill="#505050" text-anchor="end" x="785.0" y="590.0">https://github.com/swhitty/SwiftDraw</text>
            </a>
        </g>
    </g>
    <g id="Guides" stroke="rgb(39, 170, 225)" stroke-width="0.5">
        <path id="Capline-S" d="M18,76 l800,0" />
        <path id="H-reference" d="M85,145.755 L87.685,145.755 L113.369,79.287 L114.052,79.287 L114.052,76 L112.148,76 L85,145.755 Z M95.693,121.536 L130.996,121.536 L130.263,119.313 L96.474,119.313 L95.693,121.536 Z M139.15,145.755 L141.787,145.755 L114.638,76 L113.466,76 L113.466,79.287 L139.15,145.755 Z" stroke="none" transform="translate(0,200)" />
        <path id="Baseline-S" d="M18,146 l800,0" />
        <path id="left-margin-Ultralight-M" d="M230,256 l0,110" />
        <path id="right-margin-Ultralight-M" d="M300,256 l0,110" />
        <path id="left-margin-Regular-M" d="M430,256 l0,110" />
        <path id="right-margin-Regular-M" d="M500,256 l0,110" />
        <path id="left-margin-Black-M" d="M630,256 l0,110" />
        <path id="right-margin-Black-M" d="M700,256 l0,110" />
        <path id="Capline-M" d="M18,276 l800,0" />
        <path id="Baseline-M" d="M18,346 l800,0" />
        <path id="Capline-L" d="M18,476 l800,0" />
        <path id="Baseline-L" d="M18,546 l800,0" />
    </g>
    <g id="Symbols">
        <g id="Ultralight-M" transform="translate(0,200)">
            <path d="M233.182,114.182 L242.727,114.182 C244.485,114.182 245.909,112.757 245.909,111 C245.909,109.243 244.485,107.818 242.727,107.818 L233.182,107.818 C231.425,107.818 230,109.243 230,111 C230,112.757 231.425,114.182 233.182,114.182 Z" />
            <path d="M287.273,114.182 L296.818,114.182 C298.575,114.182 300,112.757 300,111 C300,109.243 298.575,107.818 296.818,107.818 L287.273,107.818 C285.515,107.818 284.091,109.243 284.091,111 C284.091,112.757 285.515,114.182 287.273,114.182 Z" />
            <path d="M261.818,79.182 L261.818,88.727 C261.818,90.485 263.243,91.909 265,91.909 C266.757,91.909 268.182,90.485 268.182,88.727 L268.182,79.182 C268.182,77.425 266.757,76 265,76 C263.243,76 261.818,77.425 261.818,79.182 Z" />
            <path d="M261.818,133.273 L261.818,142.818 C261.818,144.575 263.243,146 265,146 C266.757,146 268.182,144.575 268.182,142.818 L268.182,133.273 C268.182,131.515 266.757,130.091 265,130.091 C263.243,130.091 261.818,131.515 261.818,133.273 Z" />
            <path d="M245.909,111 C245.909,100.456 254.456,91.909 265,91.909 C275.544,91.909 284.091,100.456 284.091,111 C284.091,121.544 275.544,130.091 265,130.091 C254.456,130.091 245.909,121.544 245.909,111 Z M239.545,111 C239.545,125.058 250.942,136.455 265,136.455 C279.058,136.455 290.455,125.058 290.455,111 C290.455,96.942 279.058,85.545 265,85.545 C250.942,85.545 239.545,96.942 239.545,111 Z" />
            <path d="M258.636,111 C258.636,107.485 261.485,104.636 265,104.636 C268.515,104.636 271.364,107.485 271.364,111 C271.364,114.515 268.515,117.364 265,117.364 C261.485,117.364 258.636,114.515 258.636,111 Z M252.273,111 C252.273,118.029 257.971,123.727 265,123.727 C272.029,123.727 277.727,118.029 277.727,111 C277.727,103.971 272.029,98.273 265,98.273 C257.971,98.273 252.273,103.971 252.273,111 Z" />
        </g>
        <g id="Regular-M" transform="translate(0,200)">
            <path d="M433.182,114.182 L442.727,114.182 C444.485,114.182 445.909,112.757 445.909,111 C445.909,109.243 444.485,107.818 442.727,107.818 L433.182,107.818 C431.425,107.818 430,109.243 430,111 C430,112.757 431.425,114.182 433.182,114.182 Z" />
            <path d="M487.273,114.182 L496.818,114.182 C498.575,114.182 500,112.757 500,111 C500,109.243 498.575,107.818 496.818,107.818 L487.273,107.818 C485.515,107.818 484.091,109.243 484.091,111 C484.091,112.757 485.515,114.182 487.273,114.182 Z" />
            <path d="M461.818,79.182 L461.818,88.727 C461.818,90.485 463.243,91.909 465,91.909 C466.757,91.909 468.182,90.485 468.182,88.727 L468.182,79.182 C468.182,77.425 466.757,76 465,76 C463.243,76 461.818,77.425 461.818,79.182 Z" />
            <path d="M461.818,133.273 L461.818,142.818 C461.818,144.575 463.243,146 465,146 C466.757,146 468.182,144.575 468.182,142.818 L468.182,133.273 C468.182,131.515 466.757,130.091 465,130.091 C463.243,130.091 461.818,131.515 461.818,133.273 Z" />
            <path d="M445.909,111 C445.909,100.456 454.456,91.909 465,91.909 C475.544,91.909 484.091,100.456 484.091,111 C484.091,121.544 475.544,130.091 465,130.091 C454.456,130.091 445.909,121.544 445.909,111 Z M439.545,111 C439.545,125.058 450.942,136.455 465,136.455 C479.058,136.455 490.455,125.058 490.455,111 C490.455,96.942 479.058,85.545 465,85.545 C450.942,85.545 439.545,96.942 439.545,111 Z" />
            <path d="M458.636,111 C458.636,107.485 461.485,104.636 465,104.636 C468.515,104.636 471.364,107.485 471.364,111 C471.364,114.515 468.515,117.364 465,117.364 C461.485,117.364 458.636,114.515 458.636,111 Z M452.273,111 C452.273,118.029 457.971,123.727 465,123.727 C472.029,123.727 477.727,118.029 477.727,111 C477.727,103.971 472.029,98.273 465,98.273 C457.971,98.273 452.273,103.971 452.273,111 Z" />
        </g>
        <g id="Black-M" transform="translate(0,200)">
            <path d="M633.182,114.182 L642.727,114.182 C644.485,114.182 645.909,112.757 645.909,111 C645.909,109.243 644.485,107.818 642.727,107.818 L633.182,107.818 C631.425,107.818 630,109.243 630,111 C630,112.757 631.425,114.182 633.182,114.182 Z" />
            <path d="M687.273,114.182 L696.818,114.182 C698.575,114.182 700,112.757 700,111 C700,109.243 698.575,107.818 696.818,107.818 L687.273,107.818 C685.515,107.818 684.091,109.243 684.091,111 C684.091,112.757 685.515,114.182 687.273,114.182 Z" />
            <path d="M661.818,79.182 L661.818,88.727 C661.818,90.485 663.243,91.909 665,91.909 C666.757,91.909 668.182,90.485 668.182,88.727 L668.182,79.182 C668.182,77.425 666.757,76 665,76 C663.243,76 661.818,77.425 661.818,79.182 Z" />
            <path d="M661.818,133.273 L661.818,142.818 C661.818,144.575 663.243,146 665,146 C666.757,146 668.182,144.575 668.182,142.818 L668.182,133.273 C668.182,131.515 666.757,130.091 665,130.091 C663.243,130.091 661.818,131.515 661.818,133.273 Z" />
            <path d="M645.909,111 C645.909,100.456 654.456,91.909 665,91.909 C675.544,91.909 684.091,100.456 684.091,111 C684.091,121.544 675.544,130.091 665,130.091 C654.456,130.091 645.909,121.544 645.909,111 Z M639.545,111 C639.545,125.058 650.942,136.455 665,136.455 C679.058,136.455 690.455,125.058 690.455,111 C690.455,96.942 679.058,85.545 665,85.545 C650.942,85.545 639.545,96.942 639.545,111 Z" />
            <path d="M658.636,111 C658.636,107.485 661.485,104.636 665,104.636 C668.515,104.636 671.364,107.485 671.364,111 C671.364,114.515 668.515,117.364 665,117.364 C661.485,117.364 658.636,114.515 658.636,111 Z M652.273,111 C652.273,118.029 657.971,123.727 665,123.727 C672.029,123.727 677.727,118.029 677.727,111 C677.727,103.971 672.029,98.273 665,98.273 C657.971,98.273 652.273,103.971 652.273,111 Z" />
        </g>
    </g>
</svg>