<?xml version="1.0" encoding="UTF-8"?>
<svg height="600" width="800" xmlns="http://www.w3.org/2000/svg" xmlns:xlink="http://www.w3.org/1999/xlink">
    <g id="Notes" font-family="LucidaGrande, 'Lucida Grande', sans-serif" font-size="13">
        <rect fill="white" height="600.0" width="800.0" x="0.0" y="0.0" />
        <g font-size="13">
            <text x="18.0" y="176.0">Small</text>
            <text x="18.0" y="376.0">Medium</text>
            <text x="18.0" y="576.0">Large</text>
        </g>
        <g font-size="9">
            <text x="250.0" y="30.0">Ultralight</text>
            <text x="450.0" y="30.0">Regular</text>
            <text x="650.0" y="30.0">Black</text>
            <text id="template-version" fill="#505050" text-anchor="end" x="785.0" y="575.0">Template v.3.0</text>
            <a href="https://github.com/swhitty/SwiftDraw">
                <text fill="#505050" text-anchor="end" x="785.0" y="590.0">https://github.com/swhitty/SwiftDraw</text>
            </a>
        </g>
    </g>
    <g id="Guides" stroke="rgb(39, 170, 225)" stroke-width="0.5">
        <path id="Capline-S" d="M18,76 l800,0" />
        <path id="H-reference" d="M85,145.755 L87.685,145.755 L113.369,79.287 L114.052,79.287 L114.052,76 L112.148,76 L85,145.755 Z M95.693,121.536 L130.996,121.536 L130.263,119.313 L96.474,119.313 L95.693,121.536 Z M139.15,145.755 L141.787,145.755 L114.638,76 L113.466,76 L113.466,79.287 L139.15,145.755 Z" stroke="none" transform="translate(0,200)" />
        <path id="Baseline-S" d="M18,146 l800,0" />
        <path id="left-margin-Ultralight-M" d="M236.364,256 l0,110" />
        <path id="right-margin-Ultralight-M" d="M293.636,256 l0,110" />
        <path id="left-margin-Regular-M" d="M436.364,256 l0,110" />
        <path id="right-margin-Regular-M" d="M493.636,256 l0,110" />
        <path id="left-margin-Black-M" d="M636.364,256 l0,110" />
        <path id="right-margin-Black-M" d="M693.636,256 l0,110" />
        <path id="Capline-M" d="M18,276 l800,0" />
        <path id="Baseline-M" d="M18,346 l800,0" />
        <path id="Capline-L" d="M18,476 l800,0" />
        <path id="Baseline-L" d="M18,546 l800,0" />
    </g>
    <g id="Symbols">
        <g id="Ultralight-M" transform="translate(0,200)">
            <path d="M258.653,117.626 L257.434,120.566 C256.761,122.189 257.532,124.05 259.155,124.723 C260.779,125.396 262.64,124.625 263.313,123.002 L264.532,120.063 C265.204,118.44 264.434,116.578 262.811,115.906 C261.187,115.233 259.326,116.003 258.653,117.626 Z" />
            <path d="M264.531,99.988 L263.312,97.051 C262.639,95.429 260.777,94.659 259.154,95.332 C257.531,96.006 256.761,97.867 257.435,99.49 L258.653,102.426 C259.327,104.049 261.189,104.819 262.812,104.146 C264.435,103.472 265.205,101.611 264.531,99.988 Z" />
            <path d="M271.837,102.426 L273.055,99.49 C273.729,97.867 272.959,96.006 271.336,95.332 C269.713,94.659 267.851,95.429 267.178,97.051 L265.959,99.988 C265.285,101.611 266.055,103.472 267.678,104.146 C269.301,104.819 271.163,104.049 271.837,102.426 Z" />
            <path d="M273.054,120.569 L271.838,117.629 C271.167,116.005 269.306,115.233 267.682,115.904 C266.058,116.576 265.286,118.436 265.957,120.06 L267.173,122.999 C267.844,124.623 269.705,125.395 271.329,124.724 C272.953,124.053 273.725,122.192 273.054,120.569 Z" />
            <path d="M275.284,109.312 L278.221,108.094 C279.844,107.42 280.614,105.559 279.941,103.936 C279.267,102.313 277.405,101.543 275.782,102.217 L272.846,103.435 C271.222,104.109 270.453,105.97 271.126,107.593 C271.8,109.216 273.661,109.985 275.284,109.312 Z" />
            <path d="M272.846,116.616 L275.782,117.835 C277.405,118.508 279.267,117.739 279.941,116.116 C280.614,114.493 279.844,112.631 278.221,111.958 L275.284,110.74 C273.661,110.066 271.8,110.836 271.126,112.459 C270.453,114.082 271.222,115.943 272.846,116.616 Z" />
            <path d="M287.273,114.177 C287.273,126.759 279.689,134.539 265.035,139.646 C265.061,139.637 265.061,139.637 265.061,139.637 C250.327,134.549 242.727,126.767 242.727,114.177 L242.727,91.908 C242.727,91.908 242.727,91.908 242.727,91.908 C242.727,91.908 242.727,91.908 242.727,91.908 C249.663,91.908 258.307,88.032 264.675,82.469 C264.851,82.319 265.149,82.319 265.351,82.492 C271.709,88.05 280.324,91.908 287.273,91.908 C287.273,91.908 287.273,91.908 287.273,91.908 C287.273,91.908 287.273,91.908 287.273,91.908 L287.273,114.177 Z M293.636,114.177 L293.636,91.908 C293.636,90.221 292.966,88.602 291.772,87.409 C290.579,86.216 288.96,85.545 287.273,85.545 C282.025,85.545 274.822,82.32 269.512,77.678 C266.902,75.448 263.098,75.448 260.515,77.655 C255.195,82.301 247.961,85.545 242.727,85.545 C241.04,85.545 239.421,86.216 238.227,87.409 C237.034,88.602 236.364,90.221 236.364,91.908 L236.364,114.177 C236.364,129.951 245.953,139.77 262.911,145.626 C264.211,146.111 265.717,146.133 267.103,145.663 C284.072,139.75 293.636,129.938 293.636,114.177 Z" />
            <path d="M257.644,103.435 L254.708,102.217 C253.085,101.543 251.223,102.313 250.549,103.936 C249.876,105.559 250.646,107.42 252.269,108.094 L255.206,109.312 C256.829,109.985 258.69,109.216 259.364,107.593 C260.037,105.97 259.268,104.109 257.644,103.435 Z" />
            <path d="M255.206,110.74 L252.269,111.958 C250.646,112.631 249.876,114.493 250.549,116.116 C251.223,117.739 253.085,118.508 254.708,117.835 L257.644,116.616 C259.268,115.943 260.037,114.082 259.364,112.459 C258.69,110.836 256.829,110.066 255.206,110.74 Z" />
            <path d="M258.881,110.026 C258.881,106.512 261.73,103.663 265.245,103.663 C268.76,103.663 271.609,106.512 271.609,110.026 C271.609,113.54 268.76,116.388 265.245,116.388 C261.73,116.388 258.881,113.54 258.881,110.026 Z M252.518,110.026 C252.518,117.054 258.216,122.751 265.245,122.751 C272.274,122.751 277.972,117.054 277.972,110.026 C277.972,102.998 272.274,97.3 265.245,97.3 C258.216,97.3 252.518,102.998 252.518,110.026 Z" />
        </g>
        <g id="Regular-M" transform="translate(0,200)">
            <path d="M458.653,117.626 L457.434,120.566 C456.761,122.189 457.532,124.05 459.155,124.723 C460.779,125.396 462.64,124.625 463.313,123.002 L464.532,120.063 C465.204,118.44 464.434,116.578 462.811,115.906 C461.187,115.233 459.326,116.003 458.653,117.626 Z" />
            <path d="M464.531,99.988 L463.312,97.051 C462.639,95.429 460.777,94.659 459.154,95.332 C457.531,96.006 456.761,97.867 457.435,99.49 L458.653,102.426 C459.327,104.049 461.189,104.819 462.812,104.146 C464.435,103.472 465.205,101.611 464.531,99.988 Z" />
            <path d="M471.837,102.426 L473.055,99.49 C473.729,97.867 472.959,96.006 471.336,95.332 C469.713,94.659 467.851,95.429 467.178,97.051 L465.959,99.988 C465.285,101.611 466.055,103.472 467.678,104.146 C469.301,104.819 471.163,104.049 471.837,102.426 Z" />
            <path d="M473.054,120.569 L471.838,117.629 C471.167,116.005 469.306,115.233 467.682,115.904 C466.058,116.576 465.286,118.436 465.957,120.06 L467.173,122.999 C467.844,124.623 469.705,125.395 471.329,124.724 C472.953,124.053 473.725,122.192 473.054,120.569 Z" />
            <path d="M475.284,109.312 L478.221,108.094 C479.844,107.42 480.614,105.559 479.941,103.936 C479.267,102.313 477.405,101.543 475.782,102.217 L472.846,103.435 C471.222,104.109 470.453,105.97 471.126,107.593 C471.8,109.216 473.661,109.985 475.284,109.312 Z" />
            <path d="M472.846,116.616 L475.782,117.835 C477.405,118.508 479.267,117.739 479.941,116.116 C480.614,114.493 479.844,112.631 478.221,111.958 L475.284,110.74 C473.661,110.066 471.8,110.836 471.126,112.459 C470.453,114.082 471.222,115.943 472.846,116.616 Z" />
            <path d="M487.273,114.177 C487.273,126.759 479.689,134.539 465.035,139.646 C465.061,139.637 465.061,139.637 465.061,139.637 C450.327,134.549 442.727,126.767 442.727,114.177 L442.727,91.908 C442.727,91.908 442.727,91.908 442.727,91.908 C442.727,91.908 442.727,91.908 442.727,91.908 C449.663,91.908 458.307,88.032 464.675,82.469 C464.851,82.319 465.149,82.319 465.351,82.492 C471.709,88.05 480.324,91.908 487.273,91.908 C487.273,91.908 487.273,91.908 487.273,91.908 C487.273,91.908 487.273,91.908 487.273,91.908 L487.273,114.177 Z M493.636,114.177 L493.636,91.908 C493.636,90.221 492.966,88.602 491.773,87.409 C490.579,86.216 488.96,85.545 487.273,85.545 C482.025,85.545 474.822,82.32 469.512,77.678 C466.902,75.448 463.098,75.448 460.515,77.655 C455.195,82.301 447.961,85.545 442.727,85.545 C441.04,85.545 439.421,86.216 438.228,87.409 C437.034,88.602 436.364,90.221 436.364,91.908 L436.364,114.177 C436.364,129.951 445.953,139.77 462.911,145.626 C464.211,146.111 465.717,146.133 467.103,145.663 C484.072,139.75 493.636,129.938 493.636,114.177 Z" />
            <path d="M457.645,103.435 L454.708,102.217 C453.085,101.543 451.223,102.313 450.549,103.936 C449.876,105.559 450.646,107.42 452.269,108.094 L455.206,109.312 C456.829,109.985 458.69,109.216 459.364,107.593 C460.037,105.97 459.268,104.109 457.645,103.435 Z" />
            <path d="M455.206,110.74 L452.269,111.958 C450.646,112.631 449.876,114.493 450.549,116.116 C451.223,117.739 453.085,118.508 454.708,117.835 L457.645,116.616 C459.268,115.943 460.037,114.082 459.364,112.459 C458.69,110.836 456.829,110.066 455.206,110.74 Z" />
            <path d="M458.881,110.026 C458.881,106.512 461.73,103.663 465.245,103.663 C468.76,103.663 471.609,106.512 471.609,110.026 C471.609,113.54 468.76,116.388 465.245,116.388 C461.73,116.388 458.881,113.54 458.881,110.026 Z M452.518,110.026 C452.518,117.054 458.216,122.751 465.245,122.751 C472.274,122.751 477.972,117.054 477.972,110.026 C477.972,102.998 472.274,97.3 465.245,97.3 C458.216,97.3 452.518,102.998 452.518,110.026 Z" />
        </g>
        <g id="Black-M" transform="translate(0,200)">
            <path d="M658.653,117.626 L657.434,120.566 C656.761,122.189 657.532,124.05 659.155,124.723 C660.779,125.396 662.64,124.625 663.313,123.002 L664.532,120.063 C665.204,118.44 664.434,116.578 662.811,115.906 C661.187,115.233 659.326,116.003 658.653,117.626 Z" />
            <path d="M664.531,99.988 L663.312,97.051 C662.639,95.429 660.777,94.659 659.154,95.332 C657.531,96.006 656.761,97.867 657.435,99.49 L658.653,102.426 C659.327,104.049 661.189,104.819 662.812,104.146 C664.435,103.472 665.205,101.611 664.531,99.988 Z" />
            <path d="M671.837,102.426 L673.055,99.49 C673.729,97.867 672.959,96.006 671.336,95.332 C669.713,94.659 667.851,95.429 667.178,97.051 L665.959,99.988 C665.285,101.611 666.055,103.472 667.678,104.146 C669.301,104.819 671.163,104.049 671.837,102.426 Z" />
            <path d="M673.054,120.569 L671.838,117.629 C671.167,116.005 669.306,115.233 667.682,115.904 C666.058,116.576 665.286,118.436 665.957,120.06 L667.173,122.999 C667.844,124.623 669.705,125.395 671.329,124.724 C672.953,124.053 673.725,122.192 673.054,120.569 Z" />
            <path d="M675.284,109.312 L678.221,108.094 C679.844,107.42 680.614,105.559 679.941,103.936 C679.267,102.313 677.405,101.543 675.782,102.217 L672.846,103.435 C671.222,104.109 670.453,105.97 671.126,107.593 C671.8,109.216 673.661,109.985 675.284,109.312 Z" />
            <path d="M672.846,116.616 L675.782,117.835 C677.405,118.508 679.267,117.739 679.941,116.116 C680.614,114.493 679.844,112.631 678.221,111.958 L675.284,110.74 C673.661,110.066 671.8,110.836 671.126,112.459 C670.453,114.082 671.222,115.943 672.846,116.616 Z" />
            <path d="M687.273,114.177 C687.273,126.759 679.689,134.539 665.035,139.646 C665.061,139.637 665.061,139.637 665.061,139.637 C650.327,134.549 642.727,126.767 642.727,114.177 L642.727,91.908 C642.727,91.908 642.727,91.908 642.727,91.908 C642.727,91.908 642.727,91.908 642.727,91.908 C649.663,91.908 658.307,88.032 664.675,82.469 C664.851,82.319 665.149,82.319 665.351,82.492 C671.709,88.05 680.324,91.908 687.273,91.908 C687.273,91.908 687.273,91.908 687.273,91.908 C687.273,91.908 687.273,91.908 687.273,91.908 L687.273,114.177 Z M693.636,114.177 L693.636,91.908 C693.636,90.221 692.966,88.602 691.773,87.409 C690.579,86.216 688.96,85.545 687.273,85.545 C682.025,85.545 674.822,82.32 669.512,77.678 C666.902,75.448 663.098,75.448 660.515,77.655 C655.195,82.301 647.961,85.545 642.727,85.545 C641.04,85.545 639.421,86.216 638.228,87.409 C637.034,88.602 636.364,90.221 636.364,91.908 L636.364,114.177 C636.364,129.951 645.953,139.77 662.911,145.626 C664.211,146.111 665.717,146.133 667.103,145.663 C684.072,139.75 693.636,129.938 693.636,114.177 Z" />
            <path d="M657.644,103.435 L654.708,102.217 C653.085,101.543 651.223,102.313 650.549,103.936 C649.876,105.559 650.646,107.42 652.269,108.094 L655.206,109.312 C656.829,109.985 658.69,109.216 659.364,107.593 C660.037,105.97 659.268,104.109 657.644,103.435 Z" />
            <path d="M655.206,110.74 L652.269,111.958 C650.646,112.631 649.876,114.493 650.549,116.116 C651.223,117.739 653.085,118.508 654.708,117.835 L657.644,116.616 C659.268,115.943 660.037,114.082 659.364,112.459 C658.69,110.836 656.829,110.066 655.206,110.74 Z" />
            <path d="M658.881,110.026 C658.881,106.512 661.73,103.663 665.245,103.663 C668.76,103.663 671.609,106.512 671.609,110.026 C671.609,113.54 668.76,116.388 665.245,116.388 C661.73,116.388 658.881,113.54 658.881,110.026 Z M652.518,110.026 C652.518,117.054 658.216,122.751 665.245,122.751 C672.274,122.751 677.972,117.054 677.972,110.026 C677.972,102.998 672.274,97.3 665.245,97.3 C658.216,97.3 652.518,102.998 652.518,110.026 Z" />
        </g>
    </g>
</svg>