<?xml version="1.0" encoding="UTF-8"?>
<svg height="600" width="800" xmlns="http://www.w3.org/2000/svg" xmlns:xlink="http://www.w3.org/1999/xlink">
    <g id="Notes" font-family="LucidaGrande, 'Lucida Grande', sans-serif" font-size="13">
        <rect fill="white" height="600.0" width="800.0" x="0.0" y="0.0" />
        <g font-size="13">
            <text x="18.0" y="176.0">Small</text>
            <text x="18.0" y="376.0">Medium</text>
            <text x="18.0" y="576.0">Large</text>
        </g>
        <g font-size="9">
            <text x="250.0" y="30.0">Ultralight</text>
            <text x="450.0" y="30.0">Regular</text>
            <text x="650.0" y="30.0">Black</text>
            <text id="template-version" fill="#505050" text-anchor="end" x="785.0" y="575.0">Template v.3.0</text>
            <a href="https://github.com/swhitty/SwiftDraw">
                <text fill="#505050" text-anchor="end" x="785.0" y="590.0">https://github.com/swhitty/SwiftDraw</text>
            </a>
        </g>
    </g>
    <g id="Guides" stroke="rgb(39, 170, 225)" stroke-width="0.5">
        <path id="Capline-S" d="M18,76 l800,0" />
        <path id="H-reference" d="M85,145.755 L87.685,145.755 L113.369,79.287 L114.052,79.287 L114.052,76 L112.148,76 L85,145.755 Z M95.693,121.536 L130.996,121.536 L130.263,119.313 L96.474,119.313 L95.693,121.536 Z M139.15,145.755 L141.787,145.755 L114.638,76 L113.466,76 L113.466,79.287 L139.15,145.755 Z" stroke="none" transform="translate(0,200)" />
        <path id="Baseline-S" d="M18,146 l800,0" />
        <path id="left-margin-Ultralight-M" d="M231.591,256 l0,110" />
        <path id="right-margin-Ultralight-M" d="M298.409,256 l0,110" />
        <path id="left-margin-Regular-M" d="M431.591,256 l0,110" />
        <path id="right-margin-Regular-M" d="M498.409,256 l0,110" />
        <path id="left-margin-Black-M" d="M631.591,256 l0,110" />
        <path id="right-margin-Black-M" d="M698.409,256 l0,110" />
        <path id="Capline-M" d="M18,276 l800,0" />
        <path id="Baseline-M" d="M18,346 l800,0" />
        <path id="Capline-L" d="M18,476 l800,0" />
        <path id="Baseline-L" d="M18,546 l800,0" />
    </g>
    <g id="Symbols">
        <g id="Ultralight-M" transform="translate(0,200)">
            <path d="M237.955,88.727 C237.955,86.16 249.343,82.364 263.409,82.364 C277.475,82.364 288.864,86.16 288.864,88.727 C288.864,91.295 277.475,95.091 263.409,95.091 C249.343,95.091 237.955,91.295 237.955,88.727 Z M231.591,88.727 C231.591,96.703 245.845,101.454 263.409,101.454 C280.974,101.454 295.227,96.703 295.227,88.727 C295.227,80.751 280.974,76 263.409,76 C245.845,76 231.591,80.751 231.591,88.727 Z" />
            <path d="M231.591,110.992 C231.577,116.878 238.948,120.843 250.165,122.698 C251.899,122.985 253.537,121.812 253.823,120.078 C254.11,118.344 252.937,116.706 251.203,116.42 C242.912,115.049 237.951,112.38 237.955,111.007 C237.959,109.25 236.537,107.822 234.78,107.818 C233.023,107.814 231.595,109.235 231.591,110.992 Z" />
            <path d="M295.227,102.409 L295.227,88.727 C295.227,86.97 293.803,85.545 292.045,85.545 C290.288,85.545 288.864,86.97 288.864,88.727 L288.864,102.409 C288.864,104.166 290.288,105.59 292.045,105.59 C293.803,105.59 295.227,104.166 295.227,102.409 Z" />
            <path d="M231.591,88.727 L231.591,133.272 C231.591,139.955 241.261,144.257 255.059,145.603 C256.808,145.774 258.364,144.494 258.535,142.745 C258.705,140.996 257.426,139.44 255.677,139.27 C245.059,138.234 237.955,135.073 237.955,133.272 L237.955,88.727 C237.955,86.97 236.53,85.545 234.773,85.545 C233.015,85.545 231.591,86.97 231.591,88.727 Z" />
            <path d="M260.227,110.999 L260.227,123.727 C260.227,125.484 261.652,126.908 263.409,126.908 L276.136,126.908 C277.894,126.908 279.318,125.484 279.318,123.727 C279.318,121.969 277.894,120.545 276.136,120.545 L263.409,120.545 L266.591,123.727 L266.591,110.999 C266.591,109.242 265.166,107.818 263.409,107.818 C261.652,107.818 260.227,109.242 260.227,110.999 Z" />
            <path d="M264.045,138.363 C268.976,144.936 277.56,147.618 285.355,145.019 C293.151,142.421 298.409,135.126 298.409,126.908 C298.409,122.267 296.565,117.816 293.283,114.534 C290.002,111.252 285.55,109.409 280.909,109.409 C275.936,109.409 271.249,111.387 267.809,114.827 L261.159,121.477 C259.917,122.719 259.917,124.734 261.159,125.976 C262.402,127.219 264.416,127.219 265.659,125.976 L272.309,119.327 C274.566,117.069 277.639,115.772 280.909,115.772 C283.863,115.772 286.695,116.945 288.784,119.034 C290.872,121.122 292.045,123.955 292.045,126.908 C292.045,132.386 288.54,137.25 283.343,138.982 C278.146,140.715 272.423,138.927 269.136,134.545 C268.082,133.139 266.088,132.854 264.682,133.908 C263.276,134.963 262.991,136.957 264.045,138.363 Z" />
        </g>
        <g id="Regular-M" transform="translate(0,200)">
            <path d="M437.955,88.727 C437.955,86.16 449.343,82.364 463.409,82.364 C477.475,82.364 488.864,86.16 488.864,88.727 C488.864,91.295 477.475,95.091 463.409,95.091 C449.343,95.091 437.955,91.295 437.955,88.727 Z M431.591,88.727 C431.591,96.703 445.845,101.454 463.409,101.454 C480.974,101.454 495.227,96.703 495.227,88.727 C495.227,80.751 480.974,76 463.409,76 C445.845,76 431.591,80.751 431.591,88.727 Z" />
            <path d="M431.591,110.992 C431.577,116.878 438.948,120.843 450.165,122.698 C451.899,122.985 453.537,121.812 453.823,120.078 C454.11,118.344 452.937,116.706 451.203,116.42 C442.912,115.049 437.951,112.38 437.955,111.007 C437.959,109.25 436.537,107.822 434.78,107.818 C433.023,107.814 431.595,109.235 431.591,110.992 Z" />
            <path d="M495.227,102.409 L495.227,88.727 C495.227,86.97 493.803,85.545 492.045,85.545 C490.288,85.545 488.864,86.97 488.864,88.727 L488.864,102.409 C488.864,104.166 490.288,105.59 492.045,105.59 C493.803,105.59 495.227,104.166 495.227,102.409 Z" />
            <path d="M431.591,88.727 L431.591,133.272 C431.591,139.955 441.261,144.257 455.059,145.603 C456.808,145.774 458.364,144.494 458.535,142.745 C458.705,140.996 457.426,139.44 455.677,139.27 C445.059,138.234 437.955,135.073 437.955,133.272 L437.955,88.727 C437.955,86.97 436.53,85.545 434.773,85.545 C433.015,85.545 431.591,86.97 431.591,88.727 Z" />
            <path d="M460.227,110.999 L460.227,123.727 C460.227,125.484 461.652,126.908 463.409,126.908 L476.136,126.908 C477.894,126.908 479.318,125.484 479.318,123.727 C479.318,121.969 477.894,120.545 476.136,120.545 L463.409,120.545 L466.591,123.727 L466.591,110.999 C466.591,109.242 465.166,107.818 463.409,107.818 C461.652,107.818 460.227,109.242 460.227,110.999 Z" />
            <path d="M464.045,138.363 C468.976,144.936 477.56,147.618 485.355,145.019 C493.151,142.421 498.409,135.126 498.409,126.908 C498.409,122.267 496.565,117.816 493.283,114.534 C490.002,111.252 485.55,109.409 480.909,109.409 C475.936,109.409 471.249,111.387 467.809,114.827 L461.159,121.477 C459.917,122.719 459.917,124.734 461.159,125.976 C462.402,127.219 464.416,127.219 465.659,125.976 L472.309,119.327 C474.566,117.069 477.639,115.772 480.909,115.772 C483.863,115.772 486.695,116.945 488.784,119.034 C490.872,121.122 492.045,123.955 492.045,126.908 C492.045,132.386 488.54,137.25 483.343,138.982 C478.146,140.715 472.423,138.927 469.136,134.545 C468.082,133.139 466.088,132.854 464.682,133.908 C463.276,134.963 462.991,136.957 464.045,138.363 Z" />
        </g>
        <g id="Black-M" transform="translate(0,200)">
            <path d="M637.955,88.727 C637.955,86.16 649.343,82.364 663.409,82.364 C677.475,82.364 688.864,86.16 688.864,88.727 C688.864,91.295 677.475,95.091 663.409,95.091 C649.343,95.091 637.955,91.295 637.955,88.727 Z M631.591,88.727 C631.591,96.703 645.845,101.454 663.409,101.454 C680.974,101.454 695.227,96.703 695.227,88.727 C695.227,80.751 680.974,76 663.409,76 C645.845,76 631.591,80.751 631.591,88.727 Z" />
            <path d="M631.591,110.992 C631.577,116.878 638.948,120.843 650.165,122.698 C651.899,122.985 653.537,121.812 653.823,120.078 C654.11,118.344 652.937,116.706 651.203,116.42 C642.912,115.049 637.951,112.38 637.955,111.007 C637.959,109.25 636.537,107.822 634.78,107.818 C633.023,107.814 631.595,109.235 631.591,110.992 Z" />
            <path d="M695.227,102.409 L695.227,88.727 C695.227,86.97 693.803,85.545 692.045,85.545 C690.288,85.545 688.864,86.97 688.864,88.727 L688.864,102.409 C688.864,104.166 690.288,105.59 692.045,105.59 C693.803,105.59 695.227,104.166 695.227,102.409 Z" />
            <path d="M631.591,88.727 L631.591,133.272 C631.591,139.955 641.261,144.257 655.059,145.603 C656.808,145.774 658.364,144.494 658.535,142.745 C658.705,140.996 657.426,139.44 655.677,139.27 C645.059,138.234 637.955,135.073 637.955,133.272 L637.955,88.727 C637.955,86.97 636.53,85.545 634.773,85.545 C633.015,85.545 631.591,86.97 631.591,88.727 Z" />
            <path d="M660.227,110.999 L660.227,123.727 C660.227,125.484 661.652,126.908 663.409,126.908 L676.136,126.908 C677.894,126.908 679.318,125.484 679.318,123.727 C679.318,121.969 677.894,120.545 676.136,120.545 L663.409,120.545 L666.591,123.727 L666.591,110.999 C666.591,109.242 665.166,107.818 663.409,107.818 C661.652,107.818 660.227,109.242 660.227,110.999 Z" />
            <path d="M664.045,138.363 C668.976,144.936 677.56,147.618 685.355,145.019 C693.151,142.421 698.409,135.126 698.409,126.908 C698.409,122.267 696.565,117.816 693.283,114.534 C690.002,111.252 685.55,109.409 680.909,109.409 C675.936,109.409 671.249,111.387 667.809,114.827 L661.159,121.477 C659.917,122.719 659.917,124.734 661.159,125.976 C662.402,127.219 664.416,127.219 665.659,125.976 L672.309,119.327 C674.566,117.069 677.639,115.772 680.909,115.772 C683.863,115.772 686.695,116.945 688.784,119.034 C690.872,121.122 692.045,123.955 692.045,126.908 C692.045,132.386 688.54,137.25 683.343,138.982 C678.146,140.715 672.423,138.927 669.136,134.545 C668.082,133.139 666.088,132.854 664.682,133.908 C663.276,134.963 662.991,136.957 664.045,138.363 Z" />
        </g>
    </g>
</svg>