<?xml version="1.0" encoding="UTF-8"?>
<svg height="600" width="800" xmlns="http://www.w3.org/2000/svg" xmlns:xlink="http://www.w3.org/1999/xlink">
    <g id="Notes" font-family="LucidaGrande, 'Lucida Grande', sans-serif" font-size="13">
        <rect fill="white" height="600.0" width="800.0" x="0.0" y="0.0" />
        <g font-size="13">
            <text x="18.0" y="176.0">Small</text>
            <text x="18.0" y="376.0">Medium</text>
            <text x="18.0" y="576.0">Large</text>
        </g>
        <g font-size="9">
            <text x="250.0" y="30.0">Ultralight</text>
            <text x="450.0" y="30.0">Regular</text>
            <text x="650.0" y="30.0">Black</text>
            <text id="template-version" fill="#505050" text-anchor="end" x="785.0" y="575.0">Template v.3.0</text>
            <a href="https://github.com/swhitty/SwiftDraw">
                <text fill="#505050" text-anchor="end" x="785.0" y="590.0">https://github.com/swhitty/SwiftDraw</text>
            </a>
        </g>
    </g>
    <g id="Guides" stroke="rgb(39, 170, 225)" stroke-width="0.5">
        <path id="Capline-S" d="M18,76 l800,0" />
        <path id="H-reference" d="M85,145.755 L87.685,145.755 L113.369,79.287 L114.052,79.287 L114.052,76 L112.148,76 L85,145.755 Z M95.693,121.536 L130.996,121.536 L130.263,119.313 L96.474,119.313 L95.693,121.536 Z M139.15,145.755 L141.787,145.755 L114.638,76 L113.466,76 L113.466,79.287 L139.15,145.755 Z" stroke="none" transform="translate(0,200)" />
        <path id="Baseline-S" d="M18,146 l800,0" />
        <path id="left-margin-Ultralight-M" d="M230,256 l0,110" />
        <path id="right-margin-Ultralight-M" d="M300,256 l0,110" />
        <path id="left-margin-Regular-M" d="M430,256 l0,110" />
        <path id="right-margin-Regular-M" d="M500,256 l0,110" />
        <path id="left-margin-Black-M" d="M630,256 l0,110" />
        <path id="right-margin-Black-M" d="M700,256 l0,110" />
        <path id="Capline-M" d="M18,276 l800,0" />
        <path id="Baseline-M" d="M18,346 l800,0" />
        <path id="Capline-L" d="M18,476 l800,0" />
        <path id="Baseline-L" d="M18,546 l800,0" />
    </g>
    <g id="Symbols">
        <g id="Ultralight-M" transform="translate(0,200)">
            <path d="M274.545,111 L274.545,117.364 C274.545,118.208 274.21,119.017 273.614,119.614 C273.017,120.21 272.208,120.545 271.364,120.545 L255.455,120.545 C253.767,120.545 252.148,121.216 250.955,122.409 C249.761,123.603 249.091,125.221 249.091,126.909 L249.091,136.455 C249.091,138.986 250.097,141.414 251.887,143.204 C253.677,144.994 256.105,146 258.636,146 L290.455,146 C292.986,146 295.414,144.994 297.204,143.204 C298.994,141.414 300,138.986 300,136.455 L300,104.636 C300,102.105 298.994,99.677 297.204,97.887 C295.414,96.097 292.986,95.091 290.455,95.091 C288.697,95.091 287.273,96.515 287.273,98.273 C287.273,100.03 288.697,101.455 290.455,101.455 C291.298,101.455 292.108,101.79 292.704,102.386 C293.301,102.983 293.636,103.792 293.636,104.636 L293.636,136.455 C293.636,137.298 293.301,138.108 292.704,138.704 C292.108,139.301 291.298,139.636 290.455,139.636 L258.636,139.636 C257.792,139.636 256.983,139.301 256.386,138.704 C255.79,138.108 255.455,137.298 255.455,136.455 L255.455,126.909 C255.455,126.909 255.455,126.909 255.455,126.909 C255.455,126.909 255.455,126.909 255.455,126.909 L271.364,126.909 C273.895,126.909 276.323,125.903 278.113,124.113 C279.903,122.323 280.909,119.895 280.909,117.364 L280.909,111 C280.909,109.243 279.485,107.818 277.727,107.818 C275.97,107.818 274.545,109.243 274.545,111 Z" />
            <path d="M239.545,120.545 C238.702,120.545 237.892,120.21 237.296,119.614 C236.699,119.017 236.364,118.208 236.364,117.364 L236.364,85.545 C236.364,84.702 236.699,83.892 237.296,83.296 C237.892,82.699 238.702,82.364 239.545,82.364 L271.364,82.364 C272.208,82.364 273.017,82.699 273.614,83.296 C274.21,83.892 274.545,84.702 274.545,85.545 L274.545,95.091 C274.545,95.091 274.545,95.091 274.545,95.091 C274.545,95.091 274.545,95.091 274.545,95.091 L258.636,95.091 C256.105,95.091 253.677,96.097 251.887,97.887 C250.097,99.677 249.091,102.105 249.091,104.636 L249.091,111 C249.091,112.757 250.515,114.182 252.273,114.182 C254.03,114.182 255.455,112.757 255.455,111 L255.455,104.636 C255.455,103.792 255.79,102.983 256.386,102.386 C256.983,101.79 257.792,101.455 258.636,101.455 L274.545,101.455 C276.233,101.455 277.852,100.784 279.045,99.591 C280.239,98.397 280.909,96.779 280.909,95.091 L280.909,85.545 C280.909,83.014 279.903,80.586 278.113,78.796 C276.323,77.006 273.895,76 271.364,76 L239.545,76 C237.014,76 234.586,77.006 232.796,78.796 C231.006,80.586 230,83.014 230,85.545 L230,117.364 C230,119.895 231.006,122.323 232.796,124.113 C234.586,125.903 237.014,126.909 239.545,126.909 C241.303,126.909 242.727,125.485 242.727,123.727 C242.727,121.97 241.303,120.545 239.545,120.545 Z" />
        </g>
        <g id="Regular-M" transform="translate(0,200)">
            <path d="M474.545,111 L474.545,117.364 C474.545,118.208 474.21,119.017 473.614,119.614 C473.017,120.21 472.208,120.545 471.364,120.545 L455.455,120.545 C453.767,120.545 452.148,121.216 450.955,122.409 C449.761,123.603 449.091,125.221 449.091,126.909 L449.091,136.455 C449.091,138.986 450.097,141.414 451.887,143.204 C453.677,144.994 456.105,146 458.636,146 L490.455,146 C492.986,146 495.414,144.994 497.204,143.204 C498.994,141.414 500,138.986 500,136.455 L500,104.636 C500,102.105 498.994,99.677 497.204,97.887 C495.414,96.097 492.986,95.091 490.455,95.091 C488.697,95.091 487.273,96.515 487.273,98.273 C487.273,100.03 488.697,101.455 490.455,101.455 C491.298,101.455 492.108,101.79 492.704,102.386 C493.301,102.983 493.636,103.792 493.636,104.636 L493.636,136.455 C493.636,137.298 493.301,138.108 492.704,138.704 C492.108,139.301 491.298,139.636 490.455,139.636 L458.636,139.636 C457.792,139.636 456.983,139.301 456.386,138.704 C455.79,138.108 455.455,137.298 455.455,136.455 L455.455,126.909 C455.455,126.909 455.455,126.909 455.455,126.909 C455.455,126.909 455.455,126.909 455.455,126.909 L471.364,126.909 C473.895,126.909 476.323,125.903 478.113,124.113 C479.903,122.323 480.909,119.895 480.909,117.364 L480.909,111 C480.909,109.243 479.485,107.818 477.727,107.818 C475.97,107.818 474.545,109.243 474.545,111 Z" />
            <path d="M439.545,120.545 C438.702,120.545 437.892,120.21 437.296,119.614 C436.699,119.017 436.364,118.208 436.364,117.364 L436.364,85.545 C436.364,84.702 436.699,83.892 437.296,83.296 C437.892,82.699 438.702,82.364 439.545,82.364 L471.364,82.364 C472.208,82.364 473.017,82.699 473.614,83.296 C474.21,83.892 474.545,84.702 474.545,85.545 L474.545,95.091 C474.545,95.091 474.545,95.091 474.545,95.091 C474.545,95.091 474.545,95.091 474.545,95.091 L458.636,95.091 C456.105,95.091 453.677,96.097 451.887,97.887 C450.097,99.677 449.091,102.105 449.091,104.636 L449.091,111 C449.091,112.757 450.515,114.182 452.273,114.182 C454.03,114.182 455.455,112.757 455.455,111 L455.455,104.636 C455.455,103.792 455.79,102.983 456.386,102.386 C456.983,101.79 457.792,101.455 458.636,101.455 L474.545,101.455 C476.233,101.455 477.852,100.784 479.045,99.591 C480.239,98.397 480.909,96.779 480.909,95.091 L480.909,85.545 C480.909,83.014 479.903,80.586 478.113,78.796 C476.323,77.006 473.895,76 471.364,76 L439.545,76 C437.014,76 434.586,77.006 432.796,78.796 C431.006,80.586 430,83.014 430,85.545 L430,117.364 C430,119.895 431.006,122.323 432.796,124.113 C434.586,125.903 437.014,126.909 439.545,126.909 C441.303,126.909 442.727,125.485 442.727,123.727 C442.727,121.97 441.303,120.545 439.545,120.545 Z" />
        </g>
        <g id="Black-M" transform="translate(0,200)">
            <path d="M674.545,111 L674.545,117.364 C674.545,118.208 674.21,119.017 673.614,119.614 C673.017,120.21 672.208,120.545 671.364,120.545 L655.455,120.545 C653.767,120.545 652.148,121.216 650.955,122.409 C649.761,123.603 649.091,125.221 649.091,126.909 L649.091,136.455 C649.091,138.986 650.097,141.414 651.887,143.204 C653.677,144.994 656.105,146 658.636,146 L690.455,146 C692.986,146 695.414,144.994 697.204,143.204 C698.994,141.414 700,138.986 700,136.455 L700,104.636 C700,102.105 698.994,99.677 697.204,97.887 C695.414,96.097 692.986,95.091 690.455,95.091 C688.697,95.091 687.273,96.515 687.273,98.273 C687.273,100.03 688.697,101.455 690.455,101.455 C691.298,101.455 692.108,101.79 692.704,102.386 C693.301,102.983 693.636,103.792 693.636,104.636 L693.636,136.455 C693.636,137.298 693.301,138.108 692.704,138.704 C692.108,139.301 691.298,139.636 690.455,139.636 L658.636,139.636 C657.792,139.636 656.983,139.301 656.386,138.704 C655.79,138.108 655.455,137.298 655.455,136.455 L655.455,126.909 C655.455,126.909 655.455,126.909 655.455,126.909 C655.455,126.909 655.455,126.909 655.455,126.909 L671.364,126.909 C673.895,126.909 676.323,125.903 678.113,124.113 C679.903,122.323 680.909,119.895 680.909,117.364 L680.909,111 C680.909,109.243 679.485,107.818 677.727,107.818 C675.97,107.818 674.545,109.243 674.545,111 Z" />
            <path d="M639.545,120.545 C638.702,120.545 637.892,120.21 637.296,119.614 C636.699,119.017 636.364,118.208 636.364,117.364 L636.364,85.545 C636.364,84.702 636.699,83.892 637.296,83.296 C637.892,82.699 638.702,82.364 639.545,82.364 L671.364,82.364 C672.208,82.364 673.017,82.699 673.614,83.296 C674.21,83.892 674.545,84.702 674.545,85.545 L674.545,95.091 C674.545,95.091 674.545,95.091 674.545,95.091 C674.545,95.091 674.545,95.091 674.545,95.091 L658.636,95.091 C656.105,95.091 653.677,96.097 651.887,97.887 C650.097,99.677 649.091,102.105 649.091,104.636 L649.091,111 C649.091,112.757 650.515,114.182 652.273,114.182 C654.03,114.182 655.455,112.757 655.455,111 L655.455,104.636 C655.455,103.792 655.79,102.983 656.386,102.386 C656.983,101.79 657.792,101.455 658.636,101.455 L674.545,101.455 C676.233,101.455 677.852,100.784 679.045,99.591 C680.239,98.397 680.909,96.779 680.909,95.091 L680.909,85.545 C680.909,83.014 679.903,80.586 678.113,78.796 C676.323,77.006 673.895,76 671.364,76 L639.545,76 C637.014,76 634.586,77.006 632.796,78.796 C631.006,80.586 630,83.014 630,85.545 L630,117.364 C630,119.895 631.006,122.323 632.796,124.113 C634.586,125.903 637.014,126.909 639.545,126.909 C641.303,126.909 642.727,125.485 642.727,123.727 C642.727,121.97 641.303,120.545 639.545,120.545 Z" />
        </g>
    </g>
</svg>