<?xml version="1.0" encoding="UTF-8"?>
<svg height="600" width="800" xmlns="http://www.w3.org/2000/svg" xmlns:xlink="http://www.w3.org/1999/xlink">
    <g id="Notes" font-family="LucidaGrande, 'Lucida Grande', sans-serif" font-size="13">
        <rect fill="white" height="600.0" width="800.0" x="0.0" y="0.0" />
        <g font-size="13">
            <text x="18.0" y="176.0">Small</text>
            <text x="18.0" y="376.0">Medium</text>
            <text x="18.0" y="576.0">Large</text>
        </g>
        <g font-size="9">
            <text x="250.0" y="30.0">Ultralight</text>
            <text x="450.0" y="30.0">Regular</text>
            <text x="650.0" y="30.0">Black</text>
            <text id="template-version" fill="#505050" text-anchor="end" x="785.0" y="575.0">Template v.3.0</text>
            <a href="https://github.com/swhitty/SwiftDraw">
                <text fill="#505050" text-anchor="end" x="785.0" y="590.0">https://github.com/swhitty/SwiftDraw</text>
            </a>
        </g>
    </g>
    <g id="Guides" stroke="rgb(39, 170, 225)" stroke-width="0.5">
        <path id="Capline-S" d="M18,76 l800,0" />
        <path id="H-reference" d="M85,145.755 L87.685,145.755 L113.369,79.287 L114.052,79.287 L114.052,76 L112.148,76 L85,145.755 Z M95.693,121.536 L130.996,121.536 L130.263,119.313 L96.474,119.313 L95.693,121.536 Z M139.15,145.755 L141.787,145.755 L114.638,76 L113.466,76 L113.466,79.287 L139.15,145.755 Z" stroke="none" transform="translate(0,200)" />
        <path id="Baseline-S" d="M18,146 l800,0" />
        <path id="left-margin-Ultralight-M" d="M230,256 l0,110" />
        <path id="right-margin-Ultralight-M" d="M300,256 l0,110" />
        <path id="left-margin-Regular-M" d="M430,256 l0,110" />
        <path id="right-margin-Regular-M" d="M500,256 l0,110" />
        <path id="left-margin-Black-M" d="M630,256 l0,110" />
        <path id="right-margin-Black-M" d="M700,256 l0,110" />
        <path id="Capline-M" d="M18,276 l800,0" />
        <path id="Baseline-M" d="M18,346 l800,0" />
        <path id="Capline-L" d="M18,476 l800,0" />
        <path id="Baseline-L" d="M18,546 l800,0" />
    </g>
    <g id="Symbols">
        <g id="Ultralight-M" transform="translate(0,200)">
            <path d="M236.364,111 C236.364,95.185 249.185,82.364 265,82.364 C280.815,82.364 293.636,95.185 293.636,111 C293.636,126.815 280.815,139.636 265,139.636 C249.185,139.636 236.364,126.815 236.364,111 Z M230,111 C230,130.33 245.67,146 265,146 C284.33,146 300,130.33 300,111 C300,91.67 284.33,76 265,76 C245.67,76 230,91.67 230,111 Z" />
            <path d="M261.818,123.727 L261.818,103.045 C261.818,100.41 263.955,98.273 266.591,98.273 C269.227,98.273 271.364,100.41 271.364,103.045 C271.364,104.803 272.788,106.227 274.545,106.227 C276.303,106.227 277.727,104.803 277.727,103.045 C277.727,96.895 272.741,91.909 266.591,91.909 C260.44,91.909 255.455,96.895 255.455,103.045 L255.455,123.727 C255.455,125.485 256.879,126.909 258.636,126.909 C260.394,126.909 261.818,125.485 261.818,123.727 Z" />
            <path d="M252.273,114.182 L265,114.182 C266.757,114.182 268.182,112.757 268.182,111 C268.182,109.243 266.757,107.818 265,107.818 L252.273,107.818 C250.515,107.818 249.091,109.243 249.091,111 C249.091,112.757 250.515,114.182 252.273,114.182 Z" />
            <path d="M252.273,126.909 L274.545,126.909 C276.303,126.909 277.727,125.485 277.727,123.727 C277.727,121.97 276.303,120.545 274.545,120.545 L252.273,120.545 C250.515,120.545 249.091,121.97 249.091,123.727 C249.091,125.485 250.515,126.909 252.273,126.909 Z" />
        </g>
        <g id="Regular-M" transform="translate(0,200)">
            <path d="M436.364,111 C436.364,95.185 449.185,82.364 465,82.364 C480.815,82.364 493.636,95.185 493.636,111 C493.636,126.815 480.815,139.636 465,139.636 C449.185,139.636 436.364,126.815 436.364,111 Z M430,111 C430,130.33 445.67,146 465,146 C484.33,146 500,130.33 500,111 C500,91.67 484.33,76 465,76 C445.67,76 430,91.67 430,111 Z" />
            <path d="M461.818,123.727 L461.818,103.045 C461.818,100.41 463.955,98.273 466.591,98.273 C469.227,98.273 471.364,100.41 471.364,103.045 C471.364,104.803 472.788,106.227 474.545,106.227 C476.303,106.227 477.727,104.803 477.727,103.045 C477.727,96.895 472.741,91.909 466.591,91.909 C460.44,91.909 455.455,96.895 455.455,103.045 L455.455,123.727 C455.455,125.485 456.879,126.909 458.636,126.909 C460.394,126.909 461.818,125.485 461.818,123.727 Z" />
            <path d="M452.273,114.182 L465,114.182 C466.757,114.182 468.182,112.757 468.182,111 C468.182,109.243 466.757,107.818 465,107.818 L452.273,107.818 C450.515,107.818 449.091,109.243 449.091,111 C449.091,112.757 450.515,114.182 452.273,114.182 Z" />
            <path d="M452.273,126.909 L474.545,126.909 C476.303,126.909 477.727,125.485 477.727,123.727 C477.727,121.97 476.303,120.545 474.545,120.545 L452.273,120.545 C450.515,120.545 449.091,121.97 449.091,123.727 C449.091,125.485 450.515,126.909 452.273,126.909 Z" />
        </g>
        <g id="Black-M" transform="translate(0,200)">
            <path d="M636.364,111 C636.364,95.185 649.185,82.364 665,82.364 C680.815,82.364 693.636,95.185 693.636,111 C693.636,126.815 680.815,139.636 665,139.636 C649.185,139.636 636.364,126.815 636.364,111 Z M630,111 C630,130.33 645.67,146 665,146 C684.33,146 700,130.33 700,111 C700,91.67 684.33,76 665,76 C645.67,76 630,91.67 630,111 Z" />
            <path d="M661.818,123.727 L661.818,103.045 C661.818,100.41 663.955,98.273 666.591,98.273 C669.227,98.273 671.364,100.41 671.364,103.045 C671.364,104.803 672.788,106.227 674.545,106.227 C676.303,106.227 677.727,104.803 677.727,103.045 C677.727,96.895 672.741,91.909 666.591,91.909 C660.44,91.909 655.455,96.895 655.455,103.045 L655.455,123.727 C655.455,125.485 656.879,126.909 658.636,126.909 C660.394,126.909 661.818,125.485 661.818,123.727 Z" />
            <path d="M652.273,114.182 L665,114.182 C666.757,114.182 668.182,112.757 668.182,111 C668.182,109.243 666.757,107.818 665,107.818 L652.273,107.818 C650.515,107.818 649.091,109.243 649.091,111 C649.091,112.757 650.515,114.182 652.273,114.182 Z" />
            <path d="M652.273,126.909 L674.545,126.909 C676.303,126.909 677.727,125.485 677.727,123.727 C677.727,121.97 676.303,120.545 674.545,120.545 L652.273,120.545 C650.515,120.545 649.091,121.97 649.091,123.727 C649.091,125.485 650.515,126.909 652.273,126.909 Z" />
        </g>
    </g>
</svg>