<?xml version="1.0" encoding="UTF-8"?>
<svg height="600" width="800" xmlns="http://www.w3.org/2000/svg" xmlns:xlink="http://www.w3.org/1999/xlink">
    <g id="Notes" font-family="LucidaGrande, 'Lucida Grande', sans-serif" font-size="13">
        <rect fill="white" height="600.0" width="800.0" x="0.0" y="0.0" />
        <g font-size="13">
            <text x="18.0" y="176.0">Small</text>
            <text x="18.0" y="376.0">Medium</text>
            <text x="18.0" y="576.0">Large</text>
        </g>
        <g font-size="9">
            <text x="250.0" y="30.0">Ultralight</text>
            <text x="450.0" y="30.0">Regular</text>
            <text x="650.0" y="30.0">Black</text>
            <text id="template-version" fill="#505050" text-anchor="end" x="785.0" y="575.0">Template v.3.0</text>
            <a href="https://github.com/swhitty/SwiftDraw">
                <text fill="#505050" text-anchor="end" x="785.0" y="590.0">https://github.com/swhitty/SwiftDraw</text>
            </a>
        </g>
    </g>
    <g id="Guides" stroke="rgb(39, 170, 225)" stroke-width="0.5">
        <path id="Capline-S" d="M18,76 l800,0" />
        <path id="H-reference" d="M85,145.755 L87.685,145.755 L113.369,79.287 L114.052,79.287 L114.052,76 L112.148,76 L85,145.755 Z M95.693,121.536 L130.996,121.536 L130.263,119.313 L96.474,119.313 L95.693,121.536 Z M139.15,145.755 L141.787,145.755 L114.638,76 L113.466,76 L113.466,79.287 L139.15,145.755 Z" stroke="none" transform="translate(0,200)" />
        <path id="Baseline-S" d="M18,146 l800,0" />
        <path id="left-margin-Ultralight-M" d="M241.136,256 l0,110" />
        <path id="right-margin-Ultralight-M" d="M288.864,256 l0,110" />
        <path id="left-margin-Regular-M" d="M441.136,256 l0,110" />
        <path id="right-margin-Regular-M" d="M488.864,256 l0,110" />
        <path id="left-margin-Black-M" d="M641.136,256 l0,110" />
        <path id="right-margin-Black-M" d="M688.864,256 l0,110" />
        <path id="Capline-M" d="M18,276 l800,0" />
        <path id="Baseline-M" d="M18,346 l800,0" />
        <path id="Capline-L" d="M18,476 l800,0" />
        <path id="Baseline-L" d="M18,546 l800,0" />
    </g>
    <g id="Symbols">
        <g id="Ultralight-M" transform="translate(0,200)">
            <path d="M288.864,142.818 L288.864,81.729 C288.865,79.729 287.82,77.87 286.108,76.831 C284.395,75.792 282.264,75.723 280.488,76.649 L244.331,94.728 C242.391,95.668 241.136,97.67 241.136,99.865 C241.136,102.06 242.391,104.063 244.367,105.019 L284.258,124.982 C285.83,125.769 287.741,125.132 288.527,123.561 C289.314,121.989 288.677,120.078 287.106,119.292 L247.177,99.311 C247.36,99.399 247.499,99.621 247.499,99.865 C247.499,100.109 247.36,100.331 247.141,100.438 L283.382,82.316 C283.234,82.394 282.997,82.387 282.807,82.271 C282.616,82.156 282.5,81.949 282.501,81.727 L282.501,142.818 C282.501,144.576 283.925,146 285.682,146 C287.439,146 288.864,144.576 288.864,142.818 Z" />
        </g>
        <g id="Regular-M" transform="translate(0,200)">
            <path d="M488.864,142.818 L488.864,81.729 C488.865,79.729 487.82,77.87 486.108,76.831 C484.395,75.792 482.264,75.723 480.488,76.649 L444.331,94.728 C442.391,95.668 441.136,97.67 441.136,99.865 C441.136,102.06 442.391,104.063 444.367,105.019 L484.258,124.982 C485.83,125.769 487.741,125.132 488.527,123.561 C489.314,121.989 488.677,120.078 487.106,119.292 L447.177,99.311 C447.36,99.399 447.499,99.621 447.499,99.865 C447.499,100.109 447.36,100.331 447.141,100.438 L483.382,82.316 C483.234,82.394 482.997,82.387 482.807,82.271 C482.616,82.156 482.5,81.949 482.501,81.727 L482.501,142.818 C482.501,144.576 483.925,146 485.682,146 C487.439,146 488.864,144.576 488.864,142.818 Z" />
        </g>
        <g id="Black-M" transform="translate(0,200)">
            <path d="M688.864,142.818 L688.864,81.729 C688.865,79.729 687.82,77.87 686.108,76.831 C684.395,75.792 682.264,75.723 680.488,76.649 L644.331,94.728 C642.391,95.668 641.136,97.67 641.136,99.865 C641.136,102.06 642.391,104.063 644.367,105.019 L684.258,124.982 C685.83,125.769 687.741,125.132 688.527,123.561 C689.314,121.989 688.677,120.078 687.106,119.292 L647.177,99.311 C647.36,99.399 647.499,99.621 647.499,99.865 C647.499,100.109 647.36,100.331 647.141,100.438 L683.382,82.316 C683.234,82.394 682.997,82.387 682.807,82.271 C682.616,82.156 682.5,81.949 682.501,81.727 L682.501,142.818 C682.501,144.576 683.925,146 685.682,146 C687.439,146 688.864,144.576 688.864,142.818 Z" />
        </g>
    </g>
</svg>