<?xml version="1.0" encoding="UTF-8"?>
<svg height="600" width="800" xmlns="http://www.w3.org/2000/svg" xmlns:xlink="http://www.w3.org/1999/xlink">
    <g id="Notes" font-family="LucidaGrande, 'Lucida Grande', sans-serif" font-size="13">
        <rect fill="white" height="600.0" width="800.0" x="0.0" y="0.0" />
        <g font-size="13">
            <text x="18.0" y="176.0">Small</text>
            <text x="18.0" y="376.0">Medium</text>
            <text x="18.0" y="576.0">Large</text>
        </g>
        <g font-size="9">
            <text x="250.0" y="30.0">Ultralight</text>
            <text x="450.0" y="30.0">Regular</text>
            <text x="650.0" y="30.0">Black</text>
            <text id="template-version" fill="#505050" text-anchor="end" x="785.0" y="575.0">Template v.3.0</text>
            <a href="https://github.com/swhitty/SwiftDraw">
                <text fill="#505050" text-anchor="end" x="785.0" y="590.0">https://github.com/swhitty/SwiftDraw</text>
            </a>
        </g>
    </g>
    <g id="Guides" stroke="rgb(39, 170, 225)" stroke-width="0.5">
        <path id="Capline-S" d="M18,76 l800,0" />
        <path id="H-reference" d="M85,145.755 L87.685,145.755 L113.369,79.287 L114.052,79.287 L114.052,76 L112.148,76 L85,145.755 Z M95.693,121.536 L130.996,121.536 L130.263,119.313 L96.474,119.313 L95.693,121.536 Z M139.15,145.755 L141.787,145.755 L114.638,76 L113.466,76 L113.466,79.287 L139.15,145.755 Z" stroke="none" transform="translate(0,200)" />
        <path id="Baseline-S" d="M18,146 l800,0" />
        <path id="left-margin-Ultralight-M" d="M230,256 l0,110" />
        <path id="right-margin-Ultralight-M" d="M300,256 l0,110" />
        <path id="left-margin-Regular-M" d="M430,256 l0,110" />
        <path id="right-margin-Regular-M" d="M500,256 l0,110" />
        <path id="left-margin-Black-M" d="M630,256 l0,110" />
        <path id="right-margin-Black-M" d="M700,256 l0,110" />
        <path id="Capline-M" d="M18,276 l800,0" />
        <path id="Baseline-M" d="M18,346 l800,0" />
        <path id="Capline-L" d="M18,476 l800,0" />
        <path id="Baseline-L" d="M18,546 l800,0" />
    </g>
    <g id="Symbols">
        <g id="Ultralight-M" transform="translate(0,200)">
            <path d="M265.413,94.303 L272.168,106.343 C273.113,108.028 275.247,108.628 276.933,107.682 C278.618,106.737 279.218,104.603 278.272,102.917 L271.517,90.877 C270.572,89.192 268.438,88.592 266.752,89.538 C265.067,90.483 264.467,92.617 265.413,94.303 Z" />
            <path d="M287.479,108.548 C281.555,114.58 273.456,117.979 265.002,117.979 C256.547,117.979 248.448,114.58 242.525,108.548 C241.171,107.169 238.955,107.148 237.575,108.503 C236.196,109.857 236.176,112.073 237.53,113.452 C244.769,120.825 254.669,124.979 265.002,124.979 C275.335,124.979 285.234,120.825 292.473,113.452 C293.828,112.073 293.807,109.857 292.428,108.503 C291.049,107.148 288.833,107.169 287.479,108.548 Z" />
            <path d="M299.551,140.784 L291.991,127.344 C291.043,125.659 288.909,125.062 287.224,126.009 C285.539,126.957 284.942,129.091 285.889,130.776 L293.449,144.216 C294.397,145.901 296.531,146.498 298.216,145.551 C299.901,144.603 300.498,142.469 299.551,140.784 Z" />
            <path d="M236.551,144.216 L264.621,94.306 C265.568,92.621 264.971,90.487 263.286,89.539 C261.601,88.592 259.467,89.189 258.519,90.874 L230.449,140.784 C229.502,142.469 230.099,144.603 231.784,145.551 C233.469,146.498 235.603,145.901 236.551,144.216 Z" />
            <path d="M261.5,86.5 C261.5,84.567 263.067,83 265,83 C266.933,83 268.5,84.567 268.5,86.5 C268.5,88.433 266.933,90 265,90 C263.067,90 261.5,88.433 261.5,86.5 Z M254.5,86.5 C254.5,92.299 259.201,97 265,97 C270.799,97 275.5,92.299 275.5,86.5 C275.5,80.701 270.799,76 265,76 C259.201,76 254.5,80.701 254.5,86.5 Z" />
        </g>
        <g id="Regular-M" transform="translate(0,200)">
            <path d="M465.413,94.303 L472.168,106.343 C473.113,108.028 475.247,108.628 476.933,107.682 C478.618,106.737 479.218,104.603 478.272,102.917 L471.517,90.877 C470.572,89.192 468.438,88.592 466.752,89.538 C465.067,90.483 464.467,92.617 465.413,94.303 Z" />
            <path d="M487.479,108.548 C481.555,114.58 473.456,117.979 465.002,117.979 C456.547,117.979 448.448,114.58 442.525,108.548 C441.171,107.169 438.955,107.148 437.575,108.503 C436.196,109.857 436.176,112.073 437.53,113.452 C444.769,120.825 454.669,124.979 465.002,124.979 C475.335,124.979 485.234,120.825 492.473,113.452 C493.828,112.073 493.807,109.857 492.428,108.503 C491.049,107.148 488.833,107.169 487.479,108.548 Z" />
            <path d="M499.551,140.784 L491.991,127.344 C491.043,125.659 488.909,125.062 487.224,126.009 C485.539,126.957 484.942,129.091 485.889,130.776 L493.449,144.216 C494.397,145.901 496.531,146.498 498.216,145.551 C499.901,144.603 500.498,142.469 499.551,140.784 Z" />
            <path d="M436.551,144.216 L464.621,94.306 C465.568,92.621 464.971,90.487 463.286,89.539 C461.601,88.592 459.467,89.189 458.519,90.874 L430.449,140.784 C429.502,142.469 430.099,144.603 431.784,145.551 C433.469,146.498 435.603,145.901 436.551,144.216 Z" />
            <path d="M461.5,86.5 C461.5,84.567 463.067,83 465,83 C466.933,83 468.5,84.567 468.5,86.5 C468.5,88.433 466.933,90 465,90 C463.067,90 461.5,88.433 461.5,86.5 Z M454.5,86.5 C454.5,92.299 459.201,97 465,97 C470.799,97 475.5,92.299 475.5,86.5 C475.5,80.701 470.799,76 465,76 C459.201,76 454.5,80.701 454.5,86.5 Z" />
        </g>
        <g id="Black-M" transform="translate(0,200)">
            <path d="M665.413,94.303 L672.168,106.343 C673.113,108.028 675.247,108.628 676.933,107.682 C678.618,106.737 679.218,104.603 678.272,102.917 L671.517,90.877 C670.572,89.192 668.438,88.592 666.752,89.538 C665.067,90.483 664.467,92.617 665.413,94.303 Z" />
            <path d="M687.479,108.548 C681.555,114.58 673.456,117.979 665.002,117.979 C656.547,117.979 648.448,114.58 642.525,108.548 C641.171,107.169 638.955,107.148 637.575,108.503 C636.196,109.857 636.176,112.073 637.53,113.452 C644.769,120.825 654.669,124.979 665.002,124.979 C675.335,124.979 685.234,120.825 692.473,113.452 C693.828,112.073 693.807,109.857 692.428,108.503 C691.049,107.148 688.833,107.169 687.479,108.548 Z" />
            <path d="M699.551,140.784 L691.991,127.344 C691.043,125.659 688.909,125.062 687.224,126.009 C685.539,126.957 684.942,129.091 685.889,130.776 L693.449,144.216 C694.397,145.901 696.531,146.498 698.216,145.551 C699.901,144.603 700.498,142.469 699.551,140.784 Z" />
            <path d="M636.551,144.216 L664.621,94.306 C665.568,92.621 664.971,90.487 663.286,89.539 C661.601,88.592 659.467,89.189 658.519,90.874 L630.449,140.784 C629.502,142.469 630.099,144.603 631.784,145.551 C633.469,146.498 635.603,145.901 636.551,144.216 Z" />
            <path d="M661.5,86.5 C661.5,84.567 663.067,83 665,83 C666.933,83 668.5,84.567 668.5,86.5 C668.5,88.433 666.933,90 665,90 C663.067,90 661.5,88.433 661.5,86.5 Z M654.5,86.5 C654.5,92.299 659.201,97 665,97 C670.799,97 675.5,92.299 675.5,86.5 C675.5,80.701 670.799,76 665,76 C659.201,76 654.5,80.701 654.5,86.5 Z" />
        </g>
    </g>
</svg>