<?xml version="1.0" encoding="UTF-8"?>
<svg height="600" width="800" xmlns="http://www.w3.org/2000/svg" xmlns:xlink="http://www.w3.org/1999/xlink">
    <g id="Notes" font-family="LucidaGrande, 'Lucida Grande', sans-serif" font-size="13">
        <rect fill="white" height="600.0" width="800.0" x="0.0" y="0.0" />
        <g font-size="13">
            <text x="18.0" y="176.0">Small</text>
            <text x="18.0" y="376.0">Medium</text>
            <text x="18.0" y="576.0">Large</text>
        </g>
        <g font-size="9">
            <text x="250.0" y="30.0">Ultralight</text>
            <text x="450.0" y="30.0">Regular</text>
            <text x="650.0" y="30.0">Black</text>
            <text id="template-version" fill="#505050" text-anchor="end" x="785.0" y="575.0">Template v.3.0</text>
            <a href="https://github.com/swhitty/SwiftDraw">
                <text fill="#505050" text-anchor="end" x="785.0" y="590.0">https://github.com/swhitty/SwiftDraw</text>
            </a>
        </g>
    </g>
    <g id="Guides" stroke="rgb(39, 170, 225)" stroke-width="0.5">
        <path id="Capline-S" d="M18,76 l800,0" />
        <path id="H-reference" d="M85,145.755 L87.685,145.755 L113.369,79.287 L114.052,79.287 L114.052,76 L112.148,76 L85,145.755 Z M95.693,121.536 L130.996,121.536 L130.263,119.313 L96.474,119.313 L95.693,121.536 Z M139.15,145.755 L141.787,145.755 L114.638,76 L113.466,76 L113.466,79.287 L139.15,145.755 Z" stroke="none" transform="translate(0,200)" />
        <path id="Baseline-S" d="M18,146 l800,0" />
        <path id="left-margin-Ultralight-M" d="M226.5,256 l0,110" />
        <path id="right-margin-Ultralight-M" d="M303.5,256 l0,110" />
        <path id="left-margin-Regular-M" d="M426.5,256 l0,110" />
        <path id="right-margin-Regular-M" d="M503.5,256 l0,110" />
        <path id="left-margin-Black-M" d="M626.5,256 l0,110" />
        <path id="right-margin-Black-M" d="M703.5,256 l0,110" />
        <path id="Capline-M" d="M18,276 l800,0" />
        <path id="Baseline-M" d="M18,346 l800,0" />
        <path id="Capline-L" d="M18,476 l800,0" />
        <path id="Baseline-L" d="M18,546 l800,0" />
    </g>
    <g id="Symbols">
        <g id="Ultralight-M" transform="translate(0,200)">
            <path d="M272,82.668 L279,82.668 C280.933,82.668 282.5,81.175 282.5,79.334 C282.5,77.493 280.933,76 279,76 L272,76 C270.067,76 268.5,77.493 268.5,79.334 C268.5,81.175 270.067,82.668 272,82.668 Z" />
            <path d="M279,129.344 L272,129.344 C270.067,129.344 268.5,130.836 268.5,132.678 C268.5,134.519 270.067,136.012 272,136.012 L279,136.012 C280.933,136.012 282.5,134.519 282.5,132.678 C282.5,130.836 280.933,129.344 279,129.344 Z" />
            <path d="M233.5,109.34 L233.5,102.672 C233.5,100.831 231.933,99.338 230,99.338 C228.067,99.338 226.5,100.831 226.5,102.672 L226.5,109.34 C226.5,111.181 228.067,112.674 230,112.674 C231.933,112.674 233.5,111.181 233.5,109.34 Z" />
            <path d="M226.5,122.676 L226.5,140.299 C226.5,142.605 227.958,144.683 230.194,145.566 C232.43,146.448 235.004,145.961 236.716,144.331 L240.738,140.5 C242.105,139.198 242.105,137.087 240.738,135.785 C239.371,134.483 237.155,134.483 235.788,135.785 L231.767,139.616 C232.058,139.339 232.494,139.256 232.874,139.406 C233.253,139.555 233.5,139.908 233.5,140.299 L233.5,122.676 C233.5,120.834 231.933,119.342 230,119.342 C228.067,119.342 226.5,120.834 226.5,122.676 Z" />
            <path d="M293,136.012 C295.785,136.012 298.455,134.958 300.425,133.082 C302.394,131.206 303.5,128.662 303.5,126.01 L303.5,122.676 C303.5,120.834 301.933,119.342 300,119.342 C298.067,119.342 296.5,120.834 296.5,122.676 L296.5,126.01 C296.5,126.894 296.131,127.742 295.475,128.367 C294.818,128.992 293.928,129.344 293,129.344 C291.067,129.344 289.5,130.836 289.5,132.678 C289.5,134.519 291.067,136.012 293,136.012 Z" />
            <path d="M296.5,102.672 L296.5,109.34 C296.5,111.181 298.067,112.674 300,112.674 C301.933,112.674 303.5,111.181 303.5,109.34 L303.5,102.672 C303.5,100.831 301.933,99.338 300,99.338 C298.067,99.338 296.5,100.831 296.5,102.672 Z" />
            <path d="M303.5,89.336 L303.5,86.002 C303.5,83.349 302.394,80.805 300.425,78.93 C298.456,77.054 295.785,76 293,76 C291.067,76 289.5,77.493 289.5,79.334 C289.5,81.175 291.067,82.668 293,82.668 C293.928,82.668 294.818,83.019 295.475,83.644 C296.131,84.27 296.5,85.118 296.5,86.002 L296.5,89.336 C296.5,91.177 298.067,92.67 300,92.67 C301.933,92.67 303.5,91.177 303.5,89.336 Z" />
            <path d="M237,76 C234.215,76 231.545,77.054 229.575,78.929 C227.606,80.805 226.5,83.349 226.5,86.002 L226.5,89.336 C226.5,91.177 228.067,92.67 230,92.67 C231.933,92.67 233.5,91.177 233.5,89.336 L233.5,86.002 C233.5,85.118 233.869,84.27 234.525,83.644 C235.182,83.019 236.072,82.668 237,82.668 C238.933,82.668 240.5,81.175 240.5,79.334 C240.5,77.493 238.933,76 237,76 Z" />
            <path d="M251,136.012 L258,136.012 C259.933,136.012 261.5,134.519 261.5,132.678 C261.5,130.836 259.933,129.344 258,129.344 L251,129.344 C249.067,129.344 247.5,130.836 247.5,132.678 C247.5,134.519 249.067,136.012 251,136.012 Z" />
            <path d="M251,82.668 L258,82.668 C259.933,82.668 261.5,81.175 261.5,79.334 C261.5,77.493 259.933,76 258,76 L251,76 C249.067,76 247.5,77.493 247.5,79.334 C247.5,81.175 249.067,82.668 251,82.668 Z" />
        </g>
        <g id="Regular-M" transform="translate(0,200)">
            <path d="M472,82.668 L479,82.668 C480.933,82.668 482.5,81.175 482.5,79.334 C482.5,77.493 480.933,76 479,76 L472,76 C470.067,76 468.5,77.493 468.5,79.334 C468.5,81.175 470.067,82.668 472,82.668 Z" />
            <path d="M479,129.344 L472,129.344 C470.067,129.344 468.5,130.836 468.5,132.678 C468.5,134.519 470.067,136.012 472,136.012 L479,136.012 C480.933,136.012 482.5,134.519 482.5,132.678 C482.5,130.836 480.933,129.344 479,129.344 Z" />
            <path d="M433.5,109.34 L433.5,102.672 C433.5,100.831 431.933,99.338 430,99.338 C428.067,99.338 426.5,100.831 426.5,102.672 L426.5,109.34 C426.5,111.181 428.067,112.674 430,112.674 C431.933,112.674 433.5,111.181 433.5,109.34 Z" />
            <path d="M426.5,122.676 L426.5,140.299 C426.5,142.605 427.958,144.683 430.194,145.566 C432.43,146.448 435.004,145.961 436.716,144.331 L440.738,140.5 C442.105,139.198 442.105,137.087 440.738,135.785 C439.371,134.483 437.155,134.483 435.788,135.785 L431.767,139.616 C432.058,139.339 432.494,139.256 432.874,139.406 C433.253,139.555 433.5,139.908 433.5,140.299 L433.5,122.676 C433.5,120.834 431.933,119.342 430,119.342 C428.067,119.342 426.5,120.834 426.5,122.676 Z" />
            <path d="M493,136.012 C495.785,136.012 498.455,134.958 500.425,133.082 C502.394,131.206 503.5,128.662 503.5,126.01 L503.5,122.676 C503.5,120.834 501.933,119.342 500,119.342 C498.067,119.342 496.5,120.834 496.5,122.676 L496.5,126.01 C496.5,126.894 496.131,127.742 495.475,128.367 C494.818,128.992 493.928,129.344 493,129.344 C491.067,129.344 489.5,130.836 489.5,132.678 C489.5,134.519 491.067,136.012 493,136.012 Z" />
            <path d="M496.5,102.672 L496.5,109.34 C496.5,111.181 498.067,112.674 500,112.674 C501.933,112.674 503.5,111.181 503.5,109.34 L503.5,102.672 C503.5,100.831 501.933,99.338 500,99.338 C498.067,99.338 496.5,100.831 496.5,102.672 Z" />
            <path d="M503.5,89.336 L503.5,86.002 C503.5,83.349 502.394,80.805 500.425,78.93 C498.456,77.054 495.785,76 493,76 C491.067,76 489.5,77.493 489.5,79.334 C489.5,81.175 491.067,82.668 493,82.668 C493.928,82.668 494.818,83.019 495.475,83.644 C496.131,84.27 496.5,85.118 496.5,86.002 L496.5,89.336 C496.5,91.177 498.067,92.67 500,92.67 C501.933,92.67 503.5,91.177 503.5,89.336 Z" />
            <path d="M437,76 C434.215,76 431.545,77.054 429.575,78.929 C427.606,80.805 426.5,83.349 426.5,86.002 L426.5,89.336 C426.5,91.177 428.067,92.67 430,92.67 C431.933,92.67 433.5,91.177 433.5,89.336 L433.5,86.002 C433.5,85.118 433.869,84.27 434.525,83.644 C435.182,83.019 436.072,82.668 437,82.668 C438.933,82.668 440.5,81.175 440.5,79.334 C440.5,77.493 438.933,76 437,76 Z" />
            <path d="M451,136.012 L458,136.012 C459.933,136.012 461.5,134.519 461.5,132.678 C461.5,130.836 459.933,129.344 458,129.344 L451,129.344 C449.067,129.344 447.5,130.836 447.5,132.678 C447.5,134.519 449.067,136.012 451,136.012 Z" />
            <path d="M451,82.668 L458,82.668 C459.933,82.668 461.5,81.175 461.5,79.334 C461.5,77.493 459.933,76 458,76 L451,76 C449.067,76 447.5,77.493 447.5,79.334 C447.5,81.175 449.067,82.668 451,82.668 Z" />
        </g>
        <g id="Black-M" transform="translate(0,200)">
            <path d="M672,82.668 L679,82.668 C680.933,82.668 682.5,81.175 682.5,79.334 C682.5,77.493 680.933,76 679,76 L672,76 C670.067,76 668.5,77.493 668.5,79.334 C668.5,81.175 670.067,82.668 672,82.668 Z" />
            <path d="M679,129.344 L672,129.344 C670.067,129.344 668.5,130.836 668.5,132.678 C668.5,134.519 670.067,136.012 672,136.012 L679,136.012 C680.933,136.012 682.5,134.519 682.5,132.678 C682.5,130.836 680.933,129.344 679,129.344 Z" />
            <path d="M633.5,109.34 L633.5,102.672 C633.5,100.831 631.933,99.338 630,99.338 C628.067,99.338 626.5,100.831 626.5,102.672 L626.5,109.34 C626.5,111.181 628.067,112.674 630,112.674 C631.933,112.674 633.5,111.181 633.5,109.34 Z" />
            <path d="M626.5,122.676 L626.5,140.299 C626.5,142.605 627.958,144.683 630.194,145.566 C632.43,146.448 635.004,145.961 636.716,144.331 L640.738,140.5 C642.105,139.198 642.105,137.087 640.738,135.785 C639.371,134.483 637.155,134.483 635.788,135.785 L631.767,139.616 C632.058,139.339 632.494,139.256 632.874,139.406 C633.253,139.555 633.5,139.908 633.5,140.299 L633.5,122.676 C633.5,120.834 631.933,119.342 630,119.342 C628.067,119.342 626.5,120.834 626.5,122.676 Z" />
            <path d="M693,136.012 C695.785,136.012 698.456,134.958 700.425,133.082 C702.394,131.206 703.5,128.662 703.5,126.01 L703.5,122.676 C703.5,120.834 701.933,119.342 700,119.342 C698.067,119.342 696.5,120.834 696.5,122.676 L696.5,126.01 C696.5,126.894 696.131,127.742 695.475,128.367 C694.818,128.992 693.928,129.344 693,129.344 C691.067,129.344 689.5,130.836 689.5,132.678 C689.5,134.519 691.067,136.012 693,136.012 Z" />
            <path d="M696.5,102.672 L696.5,109.34 C696.5,111.181 698.067,112.674 700,112.674 C701.933,112.674 703.5,111.181 703.5,109.34 L703.5,102.672 C703.5,100.831 701.933,99.338 700,99.338 C698.067,99.338 696.5,100.831 696.5,102.672 Z" />
            <path d="M703.5,89.336 L703.5,86.002 C703.5,83.349 702.394,80.805 700.425,78.93 C698.456,77.054 695.785,76 693,76 C691.067,76 689.5,77.493 689.5,79.334 C689.5,81.175 691.067,82.668 693,82.668 C693.928,82.668 694.818,83.019 695.475,83.644 C696.131,84.27 696.5,85.118 696.5,86.002 L696.5,89.336 C696.5,91.177 698.067,92.67 700,92.67 C701.933,92.67 703.5,91.177 703.5,89.336 Z" />
            <path d="M637,76 C634.215,76 631.544,77.054 629.575,78.929 C627.606,80.805 626.5,83.349 626.5,86.002 L626.5,89.336 C626.5,91.177 628.067,92.67 630,92.67 C631.933,92.67 633.5,91.177 633.5,89.336 L633.5,86.002 C633.5,85.118 633.869,84.27 634.525,83.644 C635.182,83.019 636.072,82.668 637,82.668 C638.933,82.668 640.5,81.175 640.5,79.334 C640.5,77.493 638.933,76 637,76 Z" />
            <path d="M651,136.012 L658,136.012 C659.933,136.012 661.5,134.519 661.5,132.678 C661.5,130.836 659.933,129.344 658,129.344 L651,129.344 C649.067,129.344 647.5,130.836 647.5,132.678 C647.5,134.519 649.067,136.012 651,136.012 Z" />
            <path d="M651,82.668 L658,82.668 C659.933,82.668 661.5,81.175 661.5,79.334 C661.5,77.493 659.933,76 658,76 L651,76 C649.067,76 647.5,77.493 647.5,79.334 C647.5,81.175 649.067,82.668 651,82.668 Z" />
        </g>
    </g>
</svg>