<?xml version="1.0" encoding="UTF-8"?>
<svg height="600" width="800" xmlns="http://www.w3.org/2000/svg" xmlns:xlink="http://www.w3.org/1999/xlink">
    <g id="Notes" font-family="LucidaGrande, 'Lucida Grande', sans-serif" font-size="13">
        <rect fill="white" height="600.0" width="800.0" x="0.0" y="0.0" />
        <g font-size="13">
            <text x="18.0" y="176.0">Small</text>
            <text x="18.0" y="376.0">Medium</text>
            <text x="18.0" y="576.0">Large</text>
        </g>
        <g font-size="9">
            <text x="250.0" y="30.0">Ultralight</text>
            <text x="450.0" y="30.0">Regular</text>
            <text x="650.0" y="30.0">Black</text>
            <text id="template-version" fill="#505050" text-anchor="end" x="785.0" y="575.0">Template v.3.0</text>
            <a href="https://github.com/swhitty/SwiftDraw">
                <text fill="#505050" text-anchor="end" x="785.0" y="590.0">https://github.com/swhitty/SwiftDraw</text>
            </a>
        </g>
    </g>
    <g id="Guides" stroke="rgb(39, 170, 225)" stroke-width="0.5">
        <path id="Capline-S" d="M18,76 l800,0" />
        <path id="H-reference" d="M85,145.755 L87.685,145.755 L113.369,79.287 L114.052,79.287 L114.052,76 L112.148,76 L85,145.755 Z M95.693,121.536 L130.996,121.536 L130.263,119.313 L96.474,119.313 L95.693,121.536 Z M139.15,145.755 L141.787,145.755 L114.638,76 L113.466,76 L113.466,79.287 L139.15,145.755 Z" stroke="none" transform="translate(0,200)" />
        <path id="Baseline-S" d="M18,146 l800,0" />
        <path id="left-margin-Ultralight-M" d="M230,256 l0,110" />
        <path id="right-margin-Ultralight-M" d="M300,256 l0,110" />
        <path id="left-margin-Regular-M" d="M430,256 l0,110" />
        <path id="right-margin-Regular-M" d="M500,256 l0,110" />
        <path id="left-margin-Black-M" d="M630,256 l0,110" />
        <path id="right-margin-Black-M" d="M700,256 l0,110" />
        <path id="Capline-M" d="M18,276 l800,0" />
        <path id="Baseline-M" d="M18,346 l800,0" />
        <path id="Capline-L" d="M18,476 l800,0" />
        <path id="Baseline-L" d="M18,546 l800,0" />
    </g>
    <g id="Symbols">
        <g id="Ultralight-M" transform="translate(0,200)">
            <path d="M261.818,79.182 L261.818,85.545 C261.818,87.303 263.243,88.727 265,88.727 C266.757,88.727 268.182,87.303 268.182,85.545 L268.182,79.182 C268.182,77.425 266.757,76 265,76 C263.243,76 261.818,77.425 261.818,79.182 Z" />
            <path d="M274.109,138.061 C273.538,139.037 272.493,139.636 271.363,139.636 L239.545,139.636 C238.702,139.636 237.892,139.301 237.296,138.704 C236.699,138.108 236.364,137.298 236.364,136.455 L236.364,104.636 C236.364,103.792 236.699,102.983 237.296,102.386 C237.892,101.79 238.702,101.455 239.545,101.455 C241.303,101.455 242.727,100.03 242.727,98.273 C242.727,96.515 241.303,95.091 239.545,95.091 C237.014,95.091 234.586,96.097 232.796,97.887 C231.006,99.677 230,102.105 230,104.636 L230,136.455 C230,138.986 231.006,141.414 232.796,143.204 C234.586,144.994 237.014,146 239.545,146 L271.364,146 C274.754,146 277.89,144.201 279.602,141.275 C280.489,139.758 279.979,137.809 278.462,136.922 C276.946,136.034 274.997,136.545 274.109,138.061 Z" />
            <path d="M280.909,79.182 L280.909,85.545 C280.909,87.303 282.334,88.727 284.091,88.727 C285.848,88.727 287.273,87.303 287.273,85.545 L287.273,79.182 C287.273,77.425 285.848,76 284.091,76 C282.334,76 280.909,77.425 280.909,79.182 Z" />
            <path d="M233.182,117.364 L239.545,117.364 C241.303,117.364 242.727,115.939 242.727,114.182 C242.727,112.425 241.303,111 239.545,111 L233.182,111 C231.425,111 230,112.425 230,114.182 C230,115.939 231.425,117.364 233.182,117.364 Z" />
            <path d="M252.273,101.455 L296.818,101.455 C298.575,101.455 300,100.03 300,98.273 C300,96.515 298.575,95.091 296.818,95.091 L252.273,95.091 C250.515,95.091 249.091,96.515 249.091,98.273 C249.091,100.03 250.515,101.455 252.273,101.455 Z" />
            <path d="M293.636,104.636 L293.636,120.545 C293.636,121.389 293.301,122.199 292.704,122.795 C292.108,123.392 291.298,123.727 290.455,123.727 L258.636,123.727 C257.792,123.727 256.983,123.392 256.386,122.795 C255.79,122.199 255.455,121.389 255.455,120.545 L255.455,88.727 C255.455,87.883 255.79,87.074 256.386,86.477 C256.983,85.881 257.792,85.545 258.636,85.545 L290.455,85.545 C291.298,85.545 292.108,85.881 292.704,86.477 C293.301,87.074 293.636,87.883 293.636,88.727 L293.636,104.636 Z M300,104.636 L300,88.727 C300,86.196 298.994,83.768 297.204,81.978 C295.414,80.188 292.986,79.182 290.455,79.182 L258.636,79.182 C256.105,79.182 253.677,80.188 251.887,81.978 C250.097,83.768 249.091,86.196 249.091,88.727 L249.091,120.545 C249.091,123.077 250.097,125.505 251.887,127.295 C253.677,129.085 256.105,130.091 258.636,130.091 L290.455,130.091 C292.986,130.091 295.414,129.085 297.204,127.295 C298.994,125.505 300,123.077 300,120.545 L300,104.636 Z" />
        </g>
        <g id="Regular-M" transform="translate(0,200)">
            <path d="M461.818,79.182 L461.818,85.545 C461.818,87.303 463.243,88.727 465,88.727 C466.757,88.727 468.182,87.303 468.182,85.545 L468.182,79.182 C468.182,77.425 466.757,76 465,76 C463.243,76 461.818,77.425 461.818,79.182 Z" />
            <path d="M474.109,138.061 C473.538,139.037 472.493,139.636 471.363,139.636 L439.545,139.636 C438.702,139.636 437.892,139.301 437.296,138.704 C436.699,138.108 436.364,137.298 436.364,136.455 L436.364,104.636 C436.364,103.792 436.699,102.983 437.296,102.386 C437.892,101.79 438.702,101.455 439.545,101.455 C441.303,101.455 442.727,100.03 442.727,98.273 C442.727,96.515 441.303,95.091 439.545,95.091 C437.014,95.091 434.586,96.097 432.796,97.887 C431.006,99.677 430,102.105 430,104.636 L430,136.455 C430,138.986 431.006,141.414 432.796,143.204 C434.586,144.994 437.014,146 439.545,146 L471.364,146 C474.754,146 477.89,144.201 479.602,141.275 C480.489,139.758 479.979,137.809 478.462,136.922 C476.946,136.034 474.997,136.545 474.109,138.061 Z" />
            <path d="M480.909,79.182 L480.909,85.545 C480.909,87.303 482.334,88.727 484.091,88.727 C485.848,88.727 487.273,87.303 487.273,85.545 L487.273,79.182 C487.273,77.425 485.848,76 484.091,76 C482.334,76 480.909,77.425 480.909,79.182 Z" />
            <path d="M433.182,117.364 L439.545,117.364 C441.303,117.364 442.727,115.939 442.727,114.182 C442.727,112.425 441.303,111 439.545,111 L433.182,111 C431.425,111 430,112.425 430,114.182 C430,115.939 431.425,117.364 433.182,117.364 Z" />
            <path d="M452.273,101.455 L496.818,101.455 C498.575,101.455 500,100.03 500,98.273 C500,96.515 498.575,95.091 496.818,95.091 L452.273,95.091 C450.515,95.091 449.091,96.515 449.091,98.273 C449.091,100.03 450.515,101.455 452.273,101.455 Z" />
            <path d="M493.636,104.636 L493.636,120.545 C493.636,121.389 493.301,122.199 492.704,122.795 C492.108,123.392 491.298,123.727 490.455,123.727 L458.636,123.727 C457.792,123.727 456.983,123.392 456.386,122.795 C455.79,122.199 455.455,121.389 455.455,120.545 L455.455,88.727 C455.455,87.883 455.79,87.074 456.386,86.477 C456.983,85.881 457.792,85.545 458.636,85.545 L490.455,85.545 C491.298,85.545 492.108,85.881 492.704,86.477 C493.301,87.074 493.636,87.883 493.636,88.727 L493.636,104.636 Z M500,104.636 L500,88.727 C500,86.196 498.994,83.768 497.204,81.978 C495.414,80.188 492.986,79.182 490.455,79.182 L458.636,79.182 C456.105,79.182 453.677,80.188 451.887,81.978 C450.097,83.768 449.091,86.196 449.091,88.727 L449.091,120.545 C449.091,123.077 450.097,125.505 451.887,127.295 C453.677,129.085 456.105,130.091 458.636,130.091 L490.455,130.091 C492.986,130.091 495.414,129.085 497.204,127.295 C498.994,125.505 500,123.077 500,120.545 L500,104.636 Z" />
        </g>
        <g id="Black-M" transform="translate(0,200)">
            <path d="M661.818,79.182 L661.818,85.545 C661.818,87.303 663.243,88.727 665,88.727 C666.757,88.727 668.182,87.303 668.182,85.545 L668.182,79.182 C668.182,77.425 666.757,76 665,76 C663.243,76 661.818,77.425 661.818,79.182 Z" />
            <path d="M674.109,138.061 C673.539,139.037 672.493,139.636 671.363,139.636 L639.545,139.636 C638.702,139.636 637.892,139.301 637.296,138.704 C636.699,138.108 636.364,137.298 636.364,136.455 L636.364,104.636 C636.364,103.792 636.699,102.983 637.296,102.386 C637.892,101.79 638.702,101.455 639.545,101.455 C641.303,101.455 642.727,100.03 642.727,98.273 C642.727,96.515 641.303,95.091 639.545,95.091 C637.014,95.091 634.586,96.097 632.796,97.887 C631.006,99.677 630,102.105 630,104.636 L630,136.455 C630,138.986 631.006,141.414 632.796,143.204 C634.586,144.994 637.014,146 639.545,146 L671.364,146 C674.754,146 677.89,144.201 679.602,141.275 C680.489,139.758 679.979,137.809 678.462,136.922 C676.946,136.034 674.997,136.545 674.109,138.061 Z" />
            <path d="M680.909,79.182 L680.909,85.545 C680.909,87.303 682.334,88.727 684.091,88.727 C685.848,88.727 687.273,87.303 687.273,85.545 L687.273,79.182 C687.273,77.425 685.848,76 684.091,76 C682.334,76 680.909,77.425 680.909,79.182 Z" />
            <path d="M633.182,117.364 L639.545,117.364 C641.303,117.364 642.727,115.939 642.727,114.182 C642.727,112.425 641.303,111 639.545,111 L633.182,111 C631.425,111 630,112.425 630,114.182 C630,115.939 631.425,117.364 633.182,117.364 Z" />
            <path d="M652.273,101.455 L696.818,101.455 C698.575,101.455 700,100.03 700,98.273 C700,96.515 698.575,95.091 696.818,95.091 L652.273,95.091 C650.515,95.091 649.091,96.515 649.091,98.273 C649.091,100.03 650.515,101.455 652.273,101.455 Z" />
            <path d="M693.636,104.636 L693.636,120.545 C693.636,121.389 693.301,122.199 692.704,122.795 C692.108,123.392 691.298,123.727 690.455,123.727 L658.636,123.727 C657.792,123.727 656.983,123.392 656.386,122.795 C655.79,122.199 655.455,121.389 655.455,120.545 L655.455,88.727 C655.455,87.883 655.79,87.074 656.386,86.477 C656.983,85.881 657.792,85.545 658.636,85.545 L690.455,85.545 C691.298,85.545 692.108,85.881 692.704,86.477 C693.301,87.074 693.636,87.883 693.636,88.727 L693.636,104.636 Z M700,104.636 L700,88.727 C700,86.196 698.994,83.768 697.204,81.978 C695.414,80.188 692.986,79.182 690.455,79.182 L658.636,79.182 C656.105,79.182 653.677,80.188 651.887,81.978 C650.097,83.768 649.091,86.196 649.091,88.727 L649.091,120.545 C649.091,123.077 650.097,125.505 651.887,127.295 C653.677,129.085 656.105,130.091 658.636,130.091 L690.455,130.091 C692.986,130.091 695.414,129.085 697.204,127.295 C698.994,125.505 700,123.077 700,120.545 L700,104.636 Z" />
        </g>
    </g>
</svg>