<?xml version="1.0" encoding="UTF-8"?>
<svg height="600" width="800" xmlns="http://www.w3.org/2000/svg" xmlns:xlink="http://www.w3.org/1999/xlink">
    <g id="Notes" font-family="LucidaGrande, 'Lucida Grande', sans-serif" font-size="13">
        <rect fill="white" height="600.0" width="800.0" x="0.0" y="0.0" />
        <g font-size="13">
            <text x="18.0" y="176.0">Small</text>
            <text x="18.0" y="376.0">Medium</text>
            <text x="18.0" y="576.0">Large</text>
        </g>
        <g font-size="9">
            <text x="250.0" y="30.0">Ultralight</text>
            <text x="450.0" y="30.0">Regular</text>
            <text x="650.0" y="30.0">Black</text>
            <text id="template-version" fill="#505050" text-anchor="end" x="785.0" y="575.0">Template v.3.0</text>
            <a href="https://github.com/swhitty/SwiftDraw">
                <text fill="#505050" text-anchor="end" x="785.0" y="590.0">https://github.com/swhitty/SwiftDraw</text>
            </a>
        </g>
    </g>
    <g id="Guides" stroke="rgb(39, 170, 225)" stroke-width="0.5">
        <path id="Capline-S" d="M18,76 l800,0" />
        <path id="H-reference" d="M85,145.755 L87.685,145.755 L113.369,79.287 L114.052,79.287 L114.052,76 L112.148,76 L85,145.755 Z M95.693,121.536 L130.996,121.536 L130.263,119.313 L96.474,119.313 L95.693,121.536 Z M139.15,145.755 L141.787,145.755 L114.638,76 L113.466,76 L113.466,79.287 L139.15,145.755 Z" stroke="none" transform="translate(0,200)" />
        <path id="Baseline-S" d="M18,146 l800,0" />
        <path id="left-margin-Ultralight-M" d="M230,256 l0,110" />
        <path id="right-margin-Ultralight-M" d="M300,256 l0,110" />
        <path id="left-margin-Regular-M" d="M430,256 l0,110" />
        <path id="right-margin-Regular-M" d="M500,256 l0,110" />
        <path id="left-margin-Black-M" d="M630,256 l0,110" />
        <path id="right-margin-Black-M" d="M700,256 l0,110" />
        <path id="Capline-M" d="M18,276 l800,0" />
        <path id="Baseline-M" d="M18,346 l800,0" />
        <path id="Capline-L" d="M18,476 l800,0" />
        <path id="Baseline-L" d="M18,546 l800,0" />
    </g>
    <g id="Symbols">
        <g id="Ultralight-M" transform="translate(0,200)">
            <path d="M275.178,103.364 C276.461,105.075 277.293,107.083 277.596,109.201 C277.844,110.94 279.456,112.149 281.195,111.9 C282.935,111.652 284.143,110.04 283.895,108.3 C283.441,105.123 282.193,102.112 280.268,99.545 C279.213,98.139 277.219,97.855 275.814,98.909 C274.408,99.964 274.123,101.958 275.178,103.364 Z" />
            <path d="M286.176,93.001 C293.578,100.4 295.698,111.576 291.518,121.171 C290.817,122.782 291.554,124.657 293.165,125.359 C294.776,126.061 296.65,125.324 297.352,123.713 C302.576,111.718 299.927,97.749 290.674,88.5 C289.432,87.258 287.417,87.259 286.175,88.502 C284.933,89.745 284.933,91.759 286.176,93.001 Z" />
            <path d="M230.932,81.432 L294.562,145.068 C295.805,146.311 297.819,146.311 299.061,145.068 C300.304,143.825 300.304,141.811 299.061,140.568 L235.431,76.932 C234.189,75.689 232.174,75.689 230.932,76.932 C229.689,78.175 229.689,80.189 230.932,81.432 Z" />
            <path d="M246.839,92.841 L244.972,94.709 C244.725,94.957 244.399,95.092 244.059,95.091 L236.363,95.091 C234.675,95.091 233.057,95.761 231.864,96.955 C230.67,98.148 230,99.767 230,101.455 L230,120.545 C230,122.233 230.67,123.852 231.864,125.045 C233.057,126.239 234.675,126.909 236.363,126.909 L244.05,126.909 C244.399,126.908 244.725,127.043 244.965,127.285 L255.735,138.058 C257.284,139.611 259.62,140.077 261.649,139.236 C263.678,138.395 265,136.413 264.997,134.216 L264.997,107.818 C264.997,106.061 263.572,104.636 261.815,104.636 C260.058,104.636 258.634,106.061 258.634,107.818 L258.634,134.221 C258.633,133.845 258.862,133.502 259.213,133.357 C259.564,133.211 259.968,133.292 260.236,133.561 L249.472,122.792 C248.039,121.351 246.081,120.539 244.04,120.545 L236.363,120.545 C236.363,120.545 236.363,120.545 236.363,120.545 C236.363,120.545 236.363,120.545 236.363,120.545 L236.363,101.455 C236.363,101.455 236.363,101.455 236.363,101.455 C236.363,101.455 236.363,101.455 236.363,101.455 L244.05,101.455 C246.081,101.461 248.039,100.649 249.478,99.202 L251.339,97.341 C252.581,96.098 252.581,94.084 251.339,92.841 C250.096,91.598 248.082,91.598 246.839,92.841 Z" />
            <path d="M260.34,88.338 C260.055,88.625 259.625,88.711 259.251,88.556 C258.877,88.402 258.633,88.037 258.634,87.632 L258.634,89.819 C258.634,91.576 260.058,93 261.815,93 C263.572,93 264.997,91.576 264.997,89.819 L264.997,87.636 C264.999,85.467 263.691,83.507 261.684,82.676 C259.676,81.845 257.366,82.308 255.832,83.847 C254.592,85.092 254.596,87.107 255.841,88.347 C257.086,89.587 259.1,89.583 260.34,88.338 Z" />
        </g>
        <g id="Regular-M" transform="translate(0,200)">
            <path d="M475.178,103.364 C476.461,105.075 477.293,107.083 477.596,109.201 C477.844,110.94 479.456,112.149 481.195,111.9 C482.935,111.652 484.143,110.04 483.895,108.3 C483.441,105.123 482.193,102.112 480.268,99.545 C479.213,98.139 477.219,97.855 475.814,98.909 C474.408,99.964 474.123,101.958 475.178,103.364 Z" />
            <path d="M486.176,93.001 C493.578,100.4 495.698,111.576 491.518,121.171 C490.817,122.782 491.554,124.657 493.165,125.359 C494.776,126.061 496.65,125.324 497.352,123.713 C502.576,111.718 499.927,97.749 490.674,88.5 C489.432,87.258 487.417,87.259 486.175,88.502 C484.933,89.745 484.933,91.759 486.176,93.001 Z" />
            <path d="M430.932,81.432 L494.562,145.068 C495.805,146.311 497.819,146.311 499.061,145.068 C500.304,143.825 500.304,141.811 499.061,140.568 L435.431,76.932 C434.189,75.689 432.174,75.689 430.932,76.932 C429.689,78.175 429.689,80.189 430.932,81.432 Z" />
            <path d="M446.839,92.841 L444.972,94.709 C444.725,94.957 444.399,95.092 444.059,95.091 L436.363,95.091 C434.675,95.091 433.057,95.761 431.864,96.955 C430.67,98.148 430,99.767 430,101.455 L430,120.545 C430,122.233 430.67,123.852 431.864,125.045 C433.057,126.239 434.675,126.909 436.363,126.909 L444.05,126.909 C444.399,126.908 444.725,127.043 444.965,127.285 L455.735,138.058 C457.284,139.611 459.62,140.077 461.649,139.236 C463.678,138.395 465,136.413 464.997,134.216 L464.997,107.818 C464.997,106.061 463.572,104.636 461.815,104.636 C460.058,104.636 458.634,106.061 458.634,107.818 L458.634,134.221 C458.633,133.845 458.862,133.502 459.213,133.357 C459.564,133.211 459.968,133.292 460.236,133.561 L449.472,122.792 C448.039,121.351 446.081,120.539 444.04,120.545 L436.363,120.545 C436.363,120.545 436.363,120.545 436.363,120.545 C436.363,120.545 436.363,120.545 436.363,120.545 L436.363,101.455 C436.363,101.455 436.363,101.455 436.363,101.455 C436.363,101.455 436.363,101.455 436.363,101.455 L444.05,101.455 C446.081,101.461 448.039,100.649 449.478,99.202 L451.339,97.341 C452.581,96.098 452.581,94.084 451.339,92.841 C450.096,91.598 448.082,91.598 446.839,92.841 Z" />
            <path d="M460.34,88.338 C460.055,88.625 459.625,88.711 459.251,88.556 C458.877,88.402 458.633,88.037 458.634,87.632 L458.634,89.819 C458.634,91.576 460.058,93 461.815,93 C463.572,93 464.997,91.576 464.997,89.819 L464.997,87.636 C464.999,85.467 463.691,83.507 461.684,82.676 C459.676,81.845 457.366,82.308 455.832,83.847 C454.592,85.092 454.596,87.107 455.841,88.347 C457.086,89.587 459.1,89.583 460.34,88.338 Z" />
        </g>
        <g id="Black-M" transform="translate(0,200)">
            <path d="M675.178,103.364 C676.461,105.075 677.293,107.083 677.596,109.201 C677.844,110.94 679.456,112.149 681.195,111.9 C682.935,111.652 684.143,110.04 683.895,108.3 C683.441,105.123 682.193,102.112 680.268,99.545 C679.213,98.139 677.219,97.855 675.814,98.909 C674.408,99.964 674.123,101.958 675.178,103.364 Z" />
            <path d="M686.176,93.001 C693.578,100.4 695.698,111.576 691.518,121.171 C690.817,122.782 691.554,124.657 693.165,125.359 C694.776,126.061 696.65,125.324 697.352,123.713 C702.576,111.718 699.927,97.749 690.674,88.5 C689.432,87.258 687.417,87.259 686.175,88.502 C684.933,89.745 684.933,91.759 686.176,93.001 Z" />
            <path d="M630.932,81.432 L694.562,145.068 C695.805,146.311 697.819,146.311 699.061,145.068 C700.304,143.825 700.304,141.811 699.061,140.568 L635.431,76.932 C634.189,75.689 632.174,75.689 630.932,76.932 C629.689,78.175 629.689,80.189 630.932,81.432 Z" />
            <path d="M646.839,92.841 L644.972,94.709 C644.725,94.957 644.399,95.092 644.059,95.091 L636.363,95.091 C634.675,95.091 633.057,95.761 631.864,96.955 C630.67,98.148 630,99.767 630,101.455 L630,120.545 C630,122.233 630.67,123.852 631.864,125.045 C633.057,126.239 634.675,126.909 636.363,126.909 L644.05,126.909 C644.399,126.908 644.725,127.043 644.965,127.285 L655.735,138.058 C657.284,139.611 659.62,140.077 661.649,139.236 C663.678,138.395 665,136.413 664.997,134.216 L664.997,107.818 C664.997,106.061 663.572,104.636 661.815,104.636 C660.058,104.636 658.634,106.061 658.634,107.818 L658.634,134.221 C658.633,133.845 658.862,133.502 659.213,133.357 C659.564,133.211 659.968,133.292 660.236,133.561 L649.472,122.792 C648.039,121.351 646.081,120.539 644.04,120.545 L636.363,120.545 C636.363,120.545 636.363,120.545 636.363,120.545 C636.363,120.545 636.363,120.545 636.363,120.545 L636.363,101.455 C636.363,101.455 636.363,101.455 636.363,101.455 C636.363,101.455 636.363,101.455 636.363,101.455 L644.05,101.455 C646.081,101.461 648.039,100.649 649.478,99.202 L651.339,97.341 C652.581,96.098 652.581,94.084 651.339,92.841 C650.096,91.598 648.082,91.598 646.839,92.841 Z" />
            <path d="M660.34,88.338 C660.055,88.625 659.625,88.711 659.251,88.556 C658.877,88.402 658.633,88.037 658.634,87.632 L658.634,89.819 C658.634,91.576 660.058,93 661.815,93 C663.572,93 664.997,91.576 664.997,89.819 L664.997,87.636 C664.999,85.467 663.691,83.507 661.684,82.676 C659.676,81.845 657.366,82.308 655.832,83.847 C654.592,85.092 654.596,87.107 655.841,88.347 C657.086,89.587 659.1,89.583 660.34,88.338 Z" />
        </g>
    </g>
</svg>