<?xml version="1.0" encoding="UTF-8"?>
<svg height="600" width="800" xmlns="http://www.w3.org/2000/svg" xmlns:xlink="http://www.w3.org/1999/xlink">
    <g id="Notes" font-family="LucidaGrande, 'Lucida Grande', sans-serif" font-size="13">
        <rect fill="white" height="600.0" width="800.0" x="0.0" y="0.0" />
        <g font-size="13">
            <text x="18.0" y="176.0">Small</text>
            <text x="18.0" y="376.0">Medium</text>
            <text x="18.0" y="576.0">Large</text>
        </g>
        <g font-size="9">
            <text x="250.0" y="30.0">Ultralight</text>
            <text x="450.0" y="30.0">Regular</text>
            <text x="650.0" y="30.0">Black</text>
            <text id="template-version" fill="#505050" text-anchor="end" x="785.0" y="575.0">Template v.3.0</text>
            <a href="https://github.com/swhitty/SwiftDraw">
                <text fill="#505050" text-anchor="end" x="785.0" y="590.0">https://github.com/swhitty/SwiftDraw</text>
            </a>
        </g>
    </g>
    <g id="Guides" stroke="rgb(39, 170, 225)" stroke-width="0.5">
        <path id="Capline-S" d="M18,76 l800,0" />
        <path id="H-reference" d="M85,145.755 L87.685,145.755 L113.369,79.287 L114.052,79.287 L114.052,76 L112.148,76 L85,145.755 Z M95.693,121.536 L130.996,121.536 L130.263,119.313 L96.474,119.313 L95.693,121.536 Z M139.15,145.755 L141.787,145.755 L114.638,76 L113.466,76 L113.466,79.287 L139.15,145.755 Z" stroke="none" transform="translate(0,200)" />
        <path id="Baseline-S" d="M18,146 l800,0" />
        <path id="left-margin-Ultralight-M" d="M221,256 l0,110" />
        <path id="right-margin-Ultralight-M" d="M309,256 l0,110" />
        <path id="left-margin-Regular-M" d="M421,256 l0,110" />
        <path id="right-margin-Regular-M" d="M509,256 l0,110" />
        <path id="left-margin-Black-M" d="M621,256 l0,110" />
        <path id="right-margin-Black-M" d="M709,256 l0,110" />
        <path id="Capline-M" d="M18,276 l800,0" />
        <path id="Baseline-M" d="M18,346 l800,0" />
        <path id="Capline-L" d="M18,476 l800,0" />
        <path id="Baseline-L" d="M18,546 l800,0" />
    </g>
    <g id="Symbols">
        <g id="Ultralight-M" transform="translate(0,200)">
            <path d="M281,107 L289,107 C291.209,107 293,105.209 293,103 C293,100.791 291.209,99 289,99 L281,99 C278.791,99 277,100.791 277,103 C277,105.209 278.791,107 281,107 Z" />
            <path d="M281,123 L289,123 C291.209,123 293,121.209 293,119 C293,116.791 291.209,115 289,115 L281,115 C278.791,115 277,116.791 277,119 C277,121.209 278.791,123 281,123 Z" />
            <path d="M245.453,124.327 C246.58,121.125 249.605,118.982 253,118.982 C256.395,118.982 259.42,121.125 260.547,124.327 C261.28,126.411 263.563,127.506 265.647,126.773 C267.731,126.04 268.826,123.757 268.093,121.673 C265.84,115.268 259.79,110.982 253,110.982 C246.21,110.982 240.16,115.268 237.907,121.673 C237.174,123.757 238.269,126.04 240.353,126.773 C242.437,127.506 244.72,126.411 245.453,124.327 Z" />
            <path d="M249,107 C249,104.791 250.791,103 253,103 C255.209,103 257,104.791 257,107 C257,109.209 255.209,111 253,111 C250.791,111 249,109.209 249,107 Z M241,107 C241,113.627 246.373,119 253,119 C259.627,119 265,113.627 265,107 C265,100.373 259.627,95 253,95 C246.373,95 241,100.373 241,107 Z" />
            <path d="M301,111 L301,131 C301,132.061 300.579,133.078 299.828,133.828 C299.078,134.579 298.061,135 297,135 L233,135 C231.939,135 230.922,134.579 230.172,133.828 C229.421,133.078 229,132.061 229,131 L229,91 C229,89.939 229.421,88.922 230.172,88.172 C230.922,87.421 231.939,87 233,87 L297,87 C298.061,87 299.078,87.421 299.828,88.172 C300.579,88.922 301,89.939 301,91 L301,111 Z M309,111 L309,91 C309,87.817 307.736,84.765 305.485,82.515 C303.235,80.264 300.183,79 297,79 L233,79 C229.817,79 226.765,80.264 224.515,82.515 C222.264,84.765 221,87.817 221,91 L221,131 C221,134.183 222.264,137.235 224.515,139.485 C226.765,141.736 229.817,143 233,143 L297,143 C300.183,143 303.235,141.736 305.485,139.485 C307.736,137.235 309,134.183 309,131 L309,111 Z" />
        </g>
        <g id="Regular-M" transform="translate(0,200)">
            <path d="M481,107 L489,107 C491.209,107 493,105.209 493,103 C493,100.791 491.209,99 489,99 L481,99 C478.791,99 477,100.791 477,103 C477,105.209 478.791,107 481,107 Z" />
            <path d="M481,123 L489,123 C491.209,123 493,121.209 493,119 C493,116.791 491.209,115 489,115 L481,115 C478.791,115 477,116.791 477,119 C477,121.209 478.791,123 481,123 Z" />
            <path d="M445.453,124.327 C446.58,121.125 449.605,118.982 453,118.982 C456.395,118.982 459.42,121.125 460.547,124.327 C461.28,126.411 463.563,127.506 465.647,126.773 C467.731,126.04 468.826,123.757 468.093,121.673 C465.84,115.268 459.79,110.982 453,110.982 C446.21,110.982 440.16,115.268 437.907,121.673 C437.174,123.757 438.269,126.04 440.353,126.773 C442.437,127.506 444.72,126.411 445.453,124.327 Z" />
            <path d="M449,107 C449,104.791 450.791,103 453,103 C455.209,103 457,104.791 457,107 C457,109.209 455.209,111 453,111 C450.791,111 449,109.209 449,107 Z M441,107 C441,113.627 446.373,119 453,119 C459.627,119 465,113.627 465,107 C465,100.373 459.627,95 453,95 C446.373,95 441,100.373 441,107 Z" />
            <path d="M501,111 L501,131 C501,132.061 500.579,133.078 499.828,133.828 C499.078,134.579 498.061,135 497,135 L433,135 C431.939,135 430.922,134.579 430.172,133.828 C429.421,133.078 429,132.061 429,131 L429,91 C429,89.939 429.421,88.922 430.172,88.172 C430.922,87.421 431.939,87 433,87 L497,87 C498.061,87 499.078,87.421 499.828,88.172 C500.579,88.922 501,89.939 501,91 L501,111 Z M509,111 L509,91 C509,87.817 507.736,84.765 505.485,82.515 C503.235,80.264 500.183,79 497,79 L433,79 C429.817,79 426.765,80.264 424.515,82.515 C422.264,84.765 421,87.817 421,91 L421,131 C421,134.183 422.264,137.235 424.515,139.485 C426.765,141.736 429.817,143 433,143 L497,143 C500.183,143 503.235,141.736 505.485,139.485 C507.736,137.235 509,134.183 509,131 L509,111 Z" />
        </g>
        <g id="Black-M" transform="translate(0,200)">
            <path d="M681,107 L689,107 C691.209,107 693,105.209 693,103 C693,100.791 691.209,99 689,99 L681,99 C678.791,99 677,100.791 677,103 C677,105.209 678.791,107 681,107 Z" />
            <path d="M681,123 L689,123 C691.209,123 693,121.209 693,119 C693,116.791 691.209,115 689,115 L681,115 C678.791,115 677,116.791 677,119 C677,121.209 678.791,123 681,123 Z" />
            <path d="M645.453,124.327 C646.58,121.125 649.605,118.982 653,118.982 C656.395,118.982 659.42,121.125 660.547,124.327 C661.28,126.411 663.563,127.506 665.647,126.773 C667.731,126.04 668.826,123.757 668.093,121.673 C665.84,115.268 659.79,110.982 653,110.982 C646.21,110.982 640.16,115.268 637.907,121.673 C637.174,123.757 638.269,126.04 640.353,126.773 C642.437,127.506 644.72,126.411 645.453,124.327 Z" />
            <path d="M649,107 C649,104.791 650.791,103 653,103 C655.209,103 657,104.791 657,107 C657,109.209 655.209,111 653,111 C650.791,111 649,109.209 649,107 Z M641,107 C641,113.627 646.373,119 653,119 C659.627,119 665,113.627 665,107 C665,100.373 659.627,95 653,95 C646.373,95 641,100.373 641,107 Z" />
            <path d="M701,111 L701,131 C701,132.061 700.579,133.078 699.828,133.828 C699.078,134.579 698.061,135 697,135 L633,135 C631.939,135 630.922,134.579 630.172,133.828 C629.421,133.078 629,132.061 629,131 L629,91 C629,89.939 629.421,88.922 630.172,88.172 C630.922,87.421 631.939,87 633,87 L697,87 C698.061,87 699.078,87.421 699.828,88.172 C700.579,88.922 701,89.939 701,91 L701,111 Z M709,111 L709,91 C709,87.817 707.736,84.765 705.485,82.515 C703.235,80.264 700.183,79 697,79 L633,79 C629.817,79 626.765,80.264 624.515,82.515 C622.264,84.765 621,87.817 621,91 L621,131 C621,134.183 622.264,137.235 624.515,139.485 C626.765,141.736 629.817,143 633,143 L697,143 C700.183,143 703.235,141.736 705.485,139.485 C707.736,137.235 709,134.183 709,131 L709,111 Z" />
        </g>
    </g>
</svg>