<?xml version="1.0" encoding="UTF-8"?>
<svg height="600" width="800" xmlns="http://www.w3.org/2000/svg" xmlns:xlink="http://www.w3.org/1999/xlink">
    <g id="Notes" font-family="LucidaGrande, 'Lucida Grande', sans-serif" font-size="13">
        <rect fill="white" height="600.0" width="800.0" x="0.0" y="0.0" />
        <g font-size="13">
            <text x="18.0" y="176.0">Small</text>
            <text x="18.0" y="376.0">Medium</text>
            <text x="18.0" y="576.0">Large</text>
        </g>
        <g font-size="9">
            <text x="250.0" y="30.0">Ultralight</text>
            <text x="450.0" y="30.0">Regular</text>
            <text x="650.0" y="30.0">Black</text>
            <text id="template-version" fill="#505050" text-anchor="end" x="785.0" y="575.0">Template v.3.0</text>
            <a href="https://github.com/swhitty/SwiftDraw">
                <text fill="#505050" text-anchor="end" x="785.0" y="590.0">https://github.com/swhitty/SwiftDraw</text>
            </a>
        </g>
    </g>
    <g id="Guides" stroke="rgb(39, 170, 225)" stroke-width="0.5">
        <path id="Capline-S" d="M18,76 l800,0" />
        <path id="H-reference" d="M85,145.755 L87.685,145.755 L113.369,79.287 L114.052,79.287 L114.052,76 L112.148,76 L85,145.755 Z M95.693,121.536 L130.996,121.536 L130.263,119.313 L96.474,119.313 L95.693,121.536 Z M139.15,145.755 L141.787,145.755 L114.638,76 L113.466,76 L113.466,79.287 L139.15,145.755 Z" stroke="none" transform="translate(0,200)" />
        <path id="Baseline-S" d="M18,146 l800,0" />
        <path id="left-margin-Ultralight-M" d="M230,256 l0,110" />
        <path id="right-margin-Ultralight-M" d="M300,256 l0,110" />
        <path id="left-margin-Regular-M" d="M430,256 l0,110" />
        <path id="right-margin-Regular-M" d="M500,256 l0,110" />
        <path id="left-margin-Black-M" d="M630,256 l0,110" />
        <path id="right-margin-Black-M" d="M700,256 l0,110" />
        <path id="Capline-M" d="M18,276 l800,0" />
        <path id="Baseline-M" d="M18,346 l800,0" />
        <path id="Capline-L" d="M18,476 l800,0" />
        <path id="Baseline-L" d="M18,546 l800,0" />
    </g>
    <g id="Symbols">
        <g id="Ultralight-M" transform="translate(0,200)">
            <path d="M283.314,118.948 C291.971,112.735 295.453,101.903 291.938,92.121 C288.423,82.338 278.711,75.831 267.883,76.003 C257.054,76.176 247.574,82.988 244.402,92.877 C243.872,94.311 243.387,95.749 242.861,97.411 C242.815,97.556 241.971,100.268 241.751,100.94 C241.151,102.766 240.659,103.933 239.99,105.05 C238.967,106.76 237.414,108.493 234.751,110.802 C230.525,114.106 228.884,119.759 230.777,124.822 C232.671,129.886 237.691,133.267 243.321,133.271 C257.021,133.271 272.49,127.567 283.445,118.849 C284.859,117.724 285.05,115.717 283.872,114.367 C282.694,113.016 280.592,112.834 279.178,113.959 C269.385,121.753 255.41,126.906 243.323,126.906 C240.51,126.904 238,125.213 237.053,122.682 C236.107,120.15 236.928,117.323 239.104,115.619 C242.373,112.789 244.365,110.567 245.777,108.208 C246.722,106.629 247.379,105.07 248.11,102.844 C248.348,102.119 249.208,99.355 249.24,99.252 C249.74,97.674 250.196,96.323 250.732,94.864 C253.101,87.49 260.053,82.494 267.994,82.367 C275.934,82.241 283.057,87.013 285.634,94.187 C288.212,101.36 285.659,109.303 279.31,113.86 C277.839,114.916 277.542,116.911 278.648,118.316 C279.754,119.721 281.843,120.004 283.314,118.948 Z" />
            <path d="M285.313,93.292 L292.611,107.613 L292.439,107.205 C294.861,114.317 292.265,122.113 285.985,126.582 C276.05,134.482 262.074,139.635 249.988,139.635 C247.47,139.632 245.165,138.269 244.039,136.113 L237.64,123.891 C236.817,122.319 234.815,121.682 233.169,122.468 C231.523,123.254 230.856,125.166 231.679,126.738 L238.077,138.958 C240.329,143.267 244.938,145.993 249.983,146 C263.686,146 279.155,140.297 290.11,131.578 C298.539,125.585 302.083,114.944 298.776,105.236 L298.604,104.828 L291.306,90.507 C290.501,88.927 288.506,88.269 286.851,89.038 C285.197,89.807 284.508,91.712 285.313,93.292 Z" />
            <path d="M263.317,99.856 C263.317,97.219 265.555,95.082 268.316,95.082 C271.076,95.082 273.314,97.219 273.314,99.856 C273.314,102.492 271.076,104.629 268.316,104.629 C265.555,104.629 263.317,102.492 263.317,99.856 Z M256.653,99.856 C256.653,106.007 261.874,110.994 268.316,110.994 C274.757,110.994 279.979,106.007 279.979,99.856 C279.979,93.704 274.757,88.717 268.316,88.717 C261.874,88.717 256.653,93.704 256.653,99.856 Z" />
        </g>
        <g id="Regular-M" transform="translate(0,200)">
            <path d="M483.314,118.948 C491.971,112.735 495.453,101.903 491.938,92.121 C488.423,82.338 478.711,75.831 467.883,76.003 C457.054,76.176 447.574,82.988 444.402,92.877 C443.872,94.311 443.387,95.749 442.861,97.411 C442.815,97.556 441.971,100.268 441.75,100.94 C441.151,102.766 440.659,103.933 439.99,105.05 C438.967,106.76 437.414,108.493 434.751,110.802 C430.525,114.106 428.884,119.759 430.777,124.822 C432.671,129.886 437.691,133.267 443.321,133.271 C457.021,133.271 472.49,127.567 483.445,118.849 C484.859,117.724 485.05,115.717 483.872,114.367 C482.694,113.016 480.592,112.834 479.178,113.959 C469.385,121.753 455.41,126.906 443.323,126.906 C440.51,126.904 438,125.213 437.053,122.682 C436.107,120.15 436.928,117.323 439.104,115.619 C442.373,112.789 444.365,110.567 445.777,108.208 C446.722,106.629 447.379,105.07 448.11,102.844 C448.348,102.119 449.208,99.355 449.24,99.252 C449.74,97.674 450.196,96.323 450.732,94.864 C453.101,87.49 460.053,82.494 467.994,82.367 C475.934,82.241 483.057,87.013 485.634,94.187 C488.212,101.36 485.659,109.303 479.31,113.86 C477.839,114.916 477.542,116.911 478.648,118.316 C479.754,119.721 481.843,120.004 483.314,118.948 Z" />
            <path d="M485.313,93.292 L492.611,107.613 L492.439,107.205 C494.861,114.317 492.265,122.113 485.985,126.582 C476.05,134.482 462.074,139.635 449.988,139.635 C447.47,139.632 445.165,138.269 444.039,136.113 L437.64,123.891 C436.817,122.319 434.815,121.682 433.169,122.468 C431.523,123.254 430.856,125.166 431.679,126.738 L438.077,138.958 C440.329,143.267 444.938,145.993 449.983,146 C463.686,146 479.155,140.297 490.11,131.578 C498.539,125.585 502.083,114.944 498.776,105.236 L498.604,104.828 L491.306,90.507 C490.501,88.927 488.506,88.269 486.851,89.038 C485.197,89.807 484.508,91.712 485.313,93.292 Z" />
            <path d="M463.317,99.856 C463.317,97.219 465.555,95.082 468.316,95.082 C471.076,95.082 473.314,97.219 473.314,99.856 C473.314,102.492 471.076,104.629 468.316,104.629 C465.555,104.629 463.317,102.492 463.317,99.856 Z M456.653,99.856 C456.653,106.007 461.874,110.994 468.316,110.994 C474.757,110.994 479.979,106.007 479.979,99.856 C479.979,93.704 474.757,88.717 468.316,88.717 C461.874,88.717 456.653,93.704 456.653,99.856 Z" />
        </g>
        <g id="Black-M" transform="translate(0,200)">
            <path d="M683.314,118.948 C691.971,112.735 695.453,101.903 691.938,92.121 C688.423,82.338 678.711,75.831 667.883,76.003 C657.054,76.176 647.574,82.988 644.402,92.877 C643.872,94.311 643.387,95.749 642.861,97.411 C642.815,97.556 641.971,100.268 641.75,100.94 C641.151,102.766 640.659,103.933 639.99,105.05 C638.967,106.76 637.414,108.493 634.751,110.802 C630.525,114.106 628.884,119.759 630.777,124.822 C632.671,129.886 637.691,133.267 643.321,133.271 C657.021,133.271 672.49,127.567 683.445,118.849 C684.859,117.724 685.05,115.717 683.872,114.367 C682.694,113.016 680.592,112.834 679.178,113.959 C669.385,121.753 655.41,126.906 643.323,126.906 C640.51,126.904 638,125.213 637.053,122.682 C636.107,120.15 636.928,117.323 639.104,115.619 C642.373,112.789 644.365,110.567 645.776,108.208 C646.722,106.629 647.379,105.07 648.11,102.844 C648.348,102.119 649.208,99.355 649.24,99.252 C649.74,97.674 650.196,96.323 650.732,94.864 C653.101,87.49 660.053,82.494 667.994,82.367 C675.934,82.241 683.057,87.013 685.634,94.187 C688.212,101.36 685.659,109.303 679.31,113.86 C677.839,114.916 677.542,116.911 678.648,118.316 C679.754,119.721 681.843,120.004 683.314,118.948 Z" />
            <path d="M685.313,93.292 L692.611,107.613 L692.439,107.205 C694.861,114.317 692.265,122.113 685.985,126.582 C676.05,134.482 662.074,139.635 649.988,139.635 C647.47,139.632 645.165,138.269 644.039,136.113 L637.64,123.891 C636.817,122.319 634.815,121.682 633.169,122.468 C631.523,123.254 630.856,125.166 631.679,126.738 L638.077,138.958 C640.329,143.267 644.938,145.993 649.983,146 C663.686,146 679.155,140.297 690.11,131.578 C698.539,125.585 702.083,114.944 698.776,105.236 L698.604,104.828 L691.306,90.507 C690.501,88.927 688.506,88.269 686.851,89.038 C685.197,89.807 684.508,91.712 685.313,93.292 Z" />
            <path d="M663.317,99.856 C663.317,97.219 665.555,95.082 668.316,95.082 C671.076,95.082 673.314,97.219 673.314,99.856 C673.314,102.492 671.076,104.629 668.316,104.629 C665.555,104.629 663.317,102.492 663.317,99.856 Z M656.653,99.856 C656.653,106.007 661.874,110.994 668.316,110.994 C674.757,110.994 679.979,106.007 679.979,99.856 C679.979,93.704 674.757,88.717 668.316,88.717 C661.874,88.717 656.653,93.704 656.653,99.856 Z" />
        </g>
    </g>
</svg>