<?xml version="1.0" encoding="UTF-8"?>
<svg height="600" width="800" xmlns="http://www.w3.org/2000/svg" xmlns:xlink="http://www.w3.org/1999/xlink">
    <g id="Notes" font-family="LucidaGrande, 'Lucida Grande', sans-serif" font-size="13">
        <rect fill="white" height="600.0" width="800.0" x="0.0" y="0.0" />
        <g font-size="13">
            <text x="18.0" y="176.0">Small</text>
            <text x="18.0" y="376.0">Medium</text>
            <text x="18.0" y="576.0">Large</text>
        </g>
        <g font-size="9">
            <text x="250.0" y="30.0">Ultralight</text>
            <text x="450.0" y="30.0">Regular</text>
            <text x="650.0" y="30.0">Black</text>
            <text id="template-version" fill="#505050" text-anchor="end" x="785.0" y="575.0">Template v.3.0</text>
            <a href="https://github.com/swhitty/SwiftDraw">
                <text fill="#505050" text-anchor="end" x="785.0" y="590.0">https://github.com/swhitty/SwiftDraw</text>
            </a>
        </g>
    </g>
    <g id="Guides" stroke="rgb(39, 170, 225)" stroke-width="0.5">
        <path id="Capline-S" d="M18,76 l800,0" />
        <path id="H-reference" d="M85,145.755 L87.685,145.755 L113.369,79.287 L114.052,79.287 L114.052,76 L112.148,76 L85,145.755 Z M95.693,121.536 L130.996,121.536 L130.263,119.313 L96.474,119.313 L95.693,121.536 Z M139.15,145.755 L141.787,145.755 L114.638,76 L113.466,76 L113.466,79.287 L139.15,145.755 Z" stroke="none" transform="translate(0,200)" />
        <path id="Baseline-S" d="M18,146 l800,0" />
        <path id="left-margin-Ultralight-M" d="M230,256 l0,110" />
        <path id="right-margin-Ultralight-M" d="M300,256 l0,110" />
        <path id="left-margin-Regular-M" d="M430,256 l0,110" />
        <path id="right-margin-Regular-M" d="M500,256 l0,110" />
        <path id="left-margin-Black-M" d="M630,256 l0,110" />
        <path id="right-margin-Black-M" d="M700,256 l0,110" />
        <path id="Capline-M" d="M18,276 l800,0" />
        <path id="Baseline-M" d="M18,346 l800,0" />
        <path id="Capline-L" d="M18,476 l800,0" />
        <path id="Baseline-L" d="M18,546 l800,0" />
    </g>
    <g id="Symbols">
        <g id="Ultralight-M" transform="translate(0,200)">
            <path d="M293.636,91.909 L293.636,98.273 C293.636,99.117 293.301,99.926 292.704,100.523 C292.108,101.119 291.298,101.455 290.455,101.455 L239.545,101.455 C238.702,101.455 237.892,101.119 237.296,100.523 C236.699,99.926 236.364,99.117 236.364,98.273 L236.364,85.545 C236.364,84.702 236.699,83.892 237.296,83.296 C237.892,82.699 238.702,82.364 239.545,82.364 L290.455,82.364 C291.298,82.364 292.108,82.699 292.704,83.296 C293.301,83.892 293.636,84.702 293.636,85.545 L293.636,91.909 Z M300,91.909 L300,85.545 C300,83.014 298.994,80.586 297.204,78.796 C295.414,77.006 292.986,76 290.455,76 L239.545,76 C237.014,76 234.586,77.006 232.796,78.796 C231.006,80.586 230,83.014 230,85.545 L230,98.273 C230,100.804 231.006,103.232 232.796,105.022 C234.586,106.812 237.014,107.818 239.545,107.818 L290.455,107.818 C292.986,107.818 295.414,106.812 297.204,105.022 C298.994,103.232 300,100.804 300,98.273 L300,91.909 Z" />
            <path d="M293.636,130.091 L293.636,136.455 C293.636,137.298 293.301,138.108 292.704,138.704 C292.108,139.301 291.298,139.636 290.455,139.636 L239.545,139.636 C238.702,139.636 237.892,139.301 237.296,138.704 C236.699,138.108 236.364,137.298 236.364,136.455 L236.364,123.727 C236.364,122.883 236.699,122.074 237.296,121.477 C237.892,120.881 238.702,120.545 239.545,120.545 L290.455,120.545 C291.298,120.545 292.108,120.881 292.704,121.477 C293.301,122.074 293.636,122.883 293.636,123.727 L293.636,130.091 Z M300,130.091 L300,123.727 C300,121.196 298.994,118.768 297.204,116.978 C295.414,115.188 292.986,114.182 290.455,114.182 L239.545,114.182 C237.014,114.182 234.586,115.188 232.796,116.978 C231.006,118.768 230,121.196 230,123.727 L230,136.455 C230,138.986 231.006,141.414 232.796,143.204 C234.586,144.994 237.014,146 239.545,146 L290.455,146 C292.986,146 295.414,144.994 297.204,143.204 C298.994,141.414 300,138.986 300,136.455 L300,130.091 Z" />
            <path d="M245.909,95.091 L245.941,95.091 C247.698,95.091 249.123,93.666 249.123,91.909 C249.123,90.152 247.698,88.727 245.941,88.727 L245.909,88.727 C244.152,88.727 242.727,90.152 242.727,91.909 C242.727,93.666 244.152,95.091 245.909,95.091 Z" />
            <path d="M245.909,133.273 L245.941,133.273 C247.698,133.273 249.123,131.848 249.123,130.091 C249.123,128.334 247.698,126.909 245.941,126.909 L245.909,126.909 C244.152,126.909 242.727,128.334 242.727,130.091 C242.727,131.848 244.152,133.273 245.909,133.273 Z" />
        </g>
        <g id="Regular-M" transform="translate(0,200)">
            <path d="M493.636,91.909 L493.636,98.273 C493.636,99.117 493.301,99.926 492.704,100.523 C492.108,101.119 491.298,101.455 490.455,101.455 L439.545,101.455 C438.702,101.455 437.892,101.119 437.296,100.523 C436.699,99.926 436.364,99.117 436.364,98.273 L436.364,85.545 C436.364,84.702 436.699,83.892 437.296,83.296 C437.892,82.699 438.702,82.364 439.545,82.364 L490.455,82.364 C491.298,82.364 492.108,82.699 492.704,83.296 C493.301,83.892 493.636,84.702 493.636,85.545 L493.636,91.909 Z M500,91.909 L500,85.545 C500,83.014 498.994,80.586 497.204,78.796 C495.414,77.006 492.986,76 490.455,76 L439.545,76 C437.014,76 434.586,77.006 432.796,78.796 C431.006,80.586 430,83.014 430,85.545 L430,98.273 C430,100.804 431.006,103.232 432.796,105.022 C434.586,106.812 437.014,107.818 439.545,107.818 L490.455,107.818 C492.986,107.818 495.414,106.812 497.204,105.022 C498.994,103.232 500,100.804 500,98.273 L500,91.909 Z" />
            <path d="M493.636,130.091 L493.636,136.455 C493.636,137.298 493.301,138.108 492.704,138.704 C492.108,139.301 491.298,139.636 490.455,139.636 L439.545,139.636 C438.702,139.636 437.892,139.301 437.296,138.704 C436.699,138.108 436.364,137.298 436.364,136.455 L436.364,123.727 C436.364,122.883 436.699,122.074 437.296,121.477 C437.892,120.881 438.702,120.545 439.545,120.545 L490.455,120.545 C491.298,120.545 492.108,120.881 492.704,121.477 C493.301,122.074 493.636,122.883 493.636,123.727 L493.636,130.091 Z M500,130.091 L500,123.727 C500,121.196 498.994,118.768 497.204,116.978 C495.414,115.188 492.986,114.182 490.455,114.182 L439.545,114.182 C437.014,114.182 434.586,115.188 432.796,116.978 C431.006,118.768 430,121.196 430,123.727 L430,136.455 C430,138.986 431.006,141.414 432.796,143.204 C434.586,144.994 437.014,146 439.545,146 L490.455,146 C492.986,146 495.414,144.994 497.204,143.204 C498.994,141.414 500,138.986 500,136.455 L500,130.091 Z" />
            <path d="M445.909,95.091 L445.941,95.091 C447.698,95.091 449.123,93.666 449.123,91.909 C449.123,90.152 447.698,88.727 445.941,88.727 L445.909,88.727 C444.152,88.727 442.727,90.152 442.727,91.909 C442.727,93.666 444.152,95.091 445.909,95.091 Z" />
            <path d="M445.909,133.273 L445.941,133.273 C447.698,133.273 449.123,131.848 449.123,130.091 C449.123,128.334 447.698,126.909 445.941,126.909 L445.909,126.909 C444.152,126.909 442.727,128.334 442.727,130.091 C442.727,131.848 444.152,133.273 445.909,133.273 Z" />
        </g>
        <g id="Black-M" transform="translate(0,200)">
            <path d="M693.636,91.909 L693.636,98.273 C693.636,99.117 693.301,99.926 692.704,100.523 C692.108,101.119 691.298,101.455 690.455,101.455 L639.545,101.455 C638.702,101.455 637.892,101.119 637.296,100.523 C636.699,99.926 636.364,99.117 636.364,98.273 L636.364,85.545 C636.364,84.702 636.699,83.892 637.296,83.296 C637.892,82.699 638.702,82.364 639.545,82.364 L690.455,82.364 C691.298,82.364 692.108,82.699 692.704,83.296 C693.301,83.892 693.636,84.702 693.636,85.545 L693.636,91.909 Z M700,91.909 L700,85.545 C700,83.014 698.994,80.586 697.204,78.796 C695.414,77.006 692.986,76 690.455,76 L639.545,76 C637.014,76 634.586,77.006 632.796,78.796 C631.006,80.586 630,83.014 630,85.545 L630,98.273 C630,100.804 631.006,103.232 632.796,105.022 C634.586,106.812 637.014,107.818 639.545,107.818 L690.455,107.818 C692.986,107.818 695.414,106.812 697.204,105.022 C698.994,103.232 700,100.804 700,98.273 L700,91.909 Z" />
            <path d="M693.636,130.091 L693.636,136.455 C693.636,137.298 693.301,138.108 692.704,138.704 C692.108,139.301 691.298,139.636 690.455,139.636 L639.545,139.636 C638.702,139.636 637.892,139.301 637.296,138.704 C636.699,138.108 636.364,137.298 636.364,136.455 L636.364,123.727 C636.364,122.883 636.699,122.074 637.296,121.477 C637.892,120.881 638.702,120.545 639.545,120.545 L690.455,120.545 C691.298,120.545 692.108,120.881 692.704,121.477 C693.301,122.074 693.636,122.883 693.636,123.727 L693.636,130.091 Z M700,130.091 L700,123.727 C700,121.196 698.994,118.768 697.204,116.978 C695.414,115.188 692.986,114.182 690.455,114.182 L639.545,114.182 C637.014,114.182 634.586,115.188 632.796,116.978 C631.006,118.768 630,121.196 630,123.727 L630,136.455 C630,138.986 631.006,141.414 632.796,143.204 C634.586,144.994 637.014,146 639.545,146 L690.455,146 C692.986,146 695.414,144.994 697.204,143.204 C698.994,141.414 700,138.986 700,136.455 L700,130.091 Z" />
            <path d="M645.909,95.091 L645.941,95.091 C647.698,95.091 649.123,93.666 649.123,91.909 C649.123,90.152 647.698,88.727 645.941,88.727 L645.909,88.727 C644.152,88.727 642.727,90.152 642.727,91.909 C642.727,93.666 644.152,95.091 645.909,95.091 Z" />
            <path d="M645.909,133.273 L645.941,133.273 C647.698,133.273 649.123,131.848 649.123,130.091 C649.123,128.334 647.698,126.909 645.941,126.909 L645.909,126.909 C644.152,126.909 642.727,128.334 642.727,130.091 C642.727,131.848 644.152,133.273 645.909,133.273 Z" />
        </g>
    </g>
</svg>