<?xml version="1.0" encoding="UTF-8"?>
<svg height="600" width="800" xmlns="http://www.w3.org/2000/svg" xmlns:xlink="http://www.w3.org/1999/xlink">
    <g id="Notes" font-family="LucidaGrande, 'Lucida Grande', sans-serif" font-size="13">
        <rect fill="white" height="600.0" width="800.0" x="0.0" y="0.0" />
        <g font-size="13">
            <text x="18.0" y="176.0">Small</text>
            <text x="18.0" y="376.0">Medium</text>
            <text x="18.0" y="576.0">Large</text>
        </g>
        <g font-size="9">
            <text x="250.0" y="30.0">Ultralight</text>
            <text x="450.0" y="30.0">Regular</text>
            <text x="650.0" y="30.0">Black</text>
            <text id="template-version" fill="#505050" text-anchor="end" x="785.0" y="575.0">Template v.3.0</text>
            <a href="https://github.com/swhitty/SwiftDraw">
                <text fill="#505050" text-anchor="end" x="785.0" y="590.0">https://github.com/swhitty/SwiftDraw</text>
            </a>
        </g>
    </g>
    <g id="Guides" stroke="rgb(39, 170, 225)" stroke-width="0.5">
        <path id="Capline-S" d="M18,76 l800,0" />
        <path id="H-reference" d="M85,145.755 L87.685,145.755 L113.369,79.287 L114.052,79.287 L114.052,76 L112.148,76 L85,145.755 Z M95.693,121.536 L130.996,121.536 L130.263,119.313 L96.474,119.313 L95.693,121.536 Z M139.15,145.755 L141.787,145.755 L114.638,76 L113.466,76 L113.466,79.287 L139.15,145.755 Z" stroke="none" transform="translate(0,200)" />
        <path id="Baseline-S" d="M18,146 l800,0" />
        <path id="left-margin-Ultralight-M" d="M236.364,256 l0,110" />
        <path id="right-margin-Ultralight-M" d="M293.636,256 l0,110" />
        <path id="left-margin-Regular-M" d="M436.364,256 l0,110" />
        <path id="right-margin-Regular-M" d="M493.636,256 l0,110" />
        <path id="left-margin-Black-M" d="M636.364,256 l0,110" />
        <path id="right-margin-Black-M" d="M693.636,256 l0,110" />
        <path id="Capline-M" d="M18,276 l800,0" />
        <path id="Baseline-M" d="M18,346 l800,0" />
        <path id="Capline-L" d="M18,476 l800,0" />
        <path id="Baseline-L" d="M18,546 l800,0" />
    </g>
    <g id="Symbols">
        <g id="Ultralight-M" transform="translate(0,200)">
            <path d="M287.273,114.177 C287.273,126.759 279.689,134.539 265.035,139.646 C265.061,139.637 265.061,139.637 265.061,139.637 C250.327,134.549 242.727,126.767 242.727,114.177 L242.727,91.908 C242.727,91.908 242.727,91.908 242.727,91.908 C242.727,91.908 242.727,91.908 242.727,91.908 C249.663,91.908 258.307,88.032 264.675,82.469 C264.851,82.319 265.149,82.319 265.351,82.492 C271.709,88.05 280.324,91.908 287.273,91.908 C287.273,91.908 287.273,91.908 287.273,91.908 C287.273,91.908 287.273,91.908 287.273,91.908 L287.273,114.177 Z M293.636,114.177 L293.636,91.908 C293.636,90.221 292.966,88.602 291.772,87.409 C290.579,86.216 288.96,85.545 287.273,85.545 C282.025,85.545 274.822,82.32 269.512,77.678 C266.902,75.448 263.098,75.448 260.515,77.655 C255.195,82.301 247.961,85.545 242.727,85.545 C241.04,85.545 239.421,86.216 238.227,87.409 C237.034,88.602 236.364,90.221 236.364,91.908 L236.364,114.177 C236.364,129.951 245.953,139.77 262.911,145.626 C264.211,146.111 265.717,146.133 267.103,145.663 C284.072,139.75 293.636,129.938 293.636,114.177 Z" />
            <path d="M255.455,114.177 L274.545,114.177 C276.303,114.177 277.727,112.753 277.727,110.996 C277.727,109.239 276.303,107.815 274.545,107.815 L255.455,107.815 C253.697,107.815 252.273,109.239 252.273,110.996 C252.273,112.753 253.697,114.177 255.455,114.177 Z" />
            <path d="M261.818,101.452 L261.818,120.54 C261.818,122.297 263.243,123.721 265,123.721 C266.757,123.721 268.182,122.297 268.182,120.54 L268.182,101.452 C268.182,99.695 266.757,98.271 265,98.271 C263.243,98.271 261.818,99.695 261.818,101.452 Z" />
        </g>
        <g id="Regular-M" transform="translate(0,200)">
            <path d="M487.273,114.177 C487.273,126.759 479.689,134.539 465.035,139.646 C465.061,139.637 465.061,139.637 465.061,139.637 C450.327,134.549 442.727,126.767 442.727,114.177 L442.727,91.908 C442.727,91.908 442.727,91.908 442.727,91.908 C442.727,91.908 442.727,91.908 442.727,91.908 C449.663,91.908 458.307,88.032 464.675,82.469 C464.851,82.319 465.149,82.319 465.351,82.492 C471.709,88.05 480.324,91.908 487.273,91.908 C487.273,91.908 487.273,91.908 487.273,91.908 C487.273,91.908 487.273,91.908 487.273,91.908 L487.273,114.177 Z M493.636,114.177 L493.636,91.908 C493.636,90.221 492.966,88.602 491.773,87.409 C490.579,86.216 488.96,85.545 487.273,85.545 C482.025,85.545 474.822,82.32 469.512,77.678 C466.902,75.448 463.098,75.448 460.515,77.655 C455.195,82.301 447.961,85.545 442.727,85.545 C441.04,85.545 439.421,86.216 438.228,87.409 C437.034,88.602 436.364,90.221 436.364,91.908 L436.364,114.177 C436.364,129.951 445.953,139.77 462.911,145.626 C464.211,146.111 465.717,146.133 467.103,145.663 C484.072,139.75 493.636,129.938 493.636,114.177 Z" />
            <path d="M455.455,114.177 L474.545,114.177 C476.303,114.177 477.727,112.753 477.727,110.996 C477.727,109.239 476.303,107.815 474.545,107.815 L455.455,107.815 C453.697,107.815 452.273,109.239 452.273,110.996 C452.273,112.753 453.697,114.177 455.455,114.177 Z" />
            <path d="M461.818,101.452 L461.818,120.54 C461.818,122.297 463.243,123.721 465,123.721 C466.757,123.721 468.182,122.297 468.182,120.54 L468.182,101.452 C468.182,99.695 466.757,98.271 465,98.271 C463.243,98.271 461.818,99.695 461.818,101.452 Z" />
        </g>
        <g id="Black-M" transform="translate(0,200)">
            <path d="M687.273,114.177 C687.273,126.759 679.689,134.539 665.035,139.646 C665.061,139.637 665.061,139.637 665.061,139.637 C650.327,134.549 642.727,126.767 642.727,114.177 L642.727,91.908 C642.727,91.908 642.727,91.908 642.727,91.908 C642.727,91.908 642.727,91.908 642.727,91.908 C649.663,91.908 658.307,88.032 664.675,82.469 C664.851,82.319 665.149,82.319 665.351,82.492 C671.709,88.05 680.324,91.908 687.273,91.908 C687.273,91.908 687.273,91.908 687.273,91.908 C687.273,91.908 687.273,91.908 687.273,91.908 L687.273,114.177 Z M693.636,114.177 L693.636,91.908 C693.636,90.221 692.966,88.602 691.773,87.409 C690.579,86.216 688.96,85.545 687.273,85.545 C682.025,85.545 674.822,82.32 669.512,77.678 C666.902,75.448 663.098,75.448 660.515,77.655 C655.195,82.301 647.961,85.545 642.727,85.545 C641.04,85.545 639.421,86.216 638.228,87.409 C637.034,88.602 636.364,90.221 636.364,91.908 L636.364,114.177 C636.364,129.951 645.953,139.77 662.911,145.626 C664.211,146.111 665.717,146.133 667.103,145.663 C684.072,139.75 693.636,129.938 693.636,114.177 Z" />
            <path d="M655.455,114.177 L674.545,114.177 C676.303,114.177 677.727,112.753 677.727,110.996 C677.727,109.239 676.303,107.815 674.545,107.815 L655.455,107.815 C653.697,107.815 652.273,109.239 652.273,110.996 C652.273,112.753 653.697,114.177 655.455,114.177 Z" />
            <path d="M661.818,101.452 L661.818,120.54 C661.818,122.297 663.243,123.721 665,123.721 C666.757,123.721 668.182,122.297 668.182,120.54 L668.182,101.452 C668.182,99.695 666.757,98.271 665,98.271 C663.243,98.271 661.818,99.695 661.818,101.452 Z" />
        </g>
    </g>
</svg>