<?xml version="1.0" encoding="UTF-8"?>
<svg height="600" width="800" xmlns="http://www.w3.org/2000/svg" xmlns:xlink="http://www.w3.org/1999/xlink">
    <g id="Notes" font-family="LucidaGrande, 'Lucida Grande', sans-serif" font-size="13">
        <rect fill="white" height="600.0" width="800.0" x="0.0" y="0.0" />
        <g font-size="13">
            <text x="18.0" y="176.0">Small</text>
            <text x="18.0" y="376.0">Medium</text>
            <text x="18.0" y="576.0">Large</text>
        </g>
        <g font-size="9">
            <text x="250.0" y="30.0">Ultralight</text>
            <text x="450.0" y="30.0">Regular</text>
            <text x="650.0" y="30.0">Black</text>
            <text id="template-version" fill="#505050" text-anchor="end" x="785.0" y="575.0">Template v.3.0</text>
            <a href="https://github.com/swhitty/SwiftDraw">
                <text fill="#505050" text-anchor="end" x="785.0" y="590.0">https://github.com/swhitty/SwiftDraw</text>
            </a>
        </g>
    </g>
    <g id="Guides" stroke="rgb(39, 170, 225)" stroke-width="0.5">
        <path id="Capline-S" d="M18,76 l800,0" />
        <path id="H-reference" d="M85,145.755 L87.685,145.755 L113.369,79.287 L114.052,79.287 L114.052,76 L112.148,76 L85,145.755 Z M95.693,121.536 L130.996,121.536 L130.263,119.313 L96.474,119.313 L95.693,121.536 Z M139.15,145.755 L141.787,145.755 L114.638,76 L113.466,76 L113.466,79.287 L139.15,145.755 Z" stroke="none" transform="translate(0,200)" />
        <path id="Baseline-S" d="M18,146 l800,0" />
        <path id="left-margin-Ultralight-M" d="M221,256 l0,110" />
        <path id="right-margin-Ultralight-M" d="M309,256 l0,110" />
        <path id="left-margin-Regular-M" d="M421,256 l0,110" />
        <path id="right-margin-Regular-M" d="M509,256 l0,110" />
        <path id="left-margin-Black-M" d="M621,256 l0,110" />
        <path id="right-margin-Black-M" d="M709,256 l0,110" />
        <path id="Capline-M" d="M18,276 l800,0" />
        <path id="Baseline-M" d="M18,346 l800,0" />
        <path id="Capline-L" d="M18,476 l800,0" />
        <path id="Baseline-L" d="M18,546 l800,0" />
    </g>
    <g id="Symbols">
        <g id="Ultralight-M" transform="translate(0,200)">
            <path d="M225.632,115.163 L262.684,115.163 C265.242,115.163 267.316,113.115 267.316,110.59 C267.316,108.064 265.242,106.017 262.684,106.017 L225.632,106.017 C223.074,106.017 221,108.064 221,110.59 C221,113.115 223.074,115.163 225.632,115.163 Z" />
            <path d="M230.263,138.028 L230.263,83.152 C230.263,80.626 228.19,78.579 225.632,78.579 C223.074,78.579 221,80.626 221,83.152 L221,138.028 C221,140.553 223.074,142.6 225.632,142.6 C228.19,142.6 230.263,140.553 230.263,138.028 Z" />
            <path d="M267.316,138.028 L267.316,83.152 C267.316,80.626 265.242,78.579 262.684,78.579 C260.126,78.579 258.053,80.626 258.053,83.152 L258.053,138.028 C258.053,140.553 260.126,142.6 262.684,142.6 C265.242,142.6 267.316,140.553 267.316,138.028 Z" />
            <path d="M290.506,107.672 C295.127,104.988 299.737,107.135 299.737,110.59 C299.737,111.803 299.249,112.966 298.38,113.823 C297.512,114.681 296.334,115.163 295.105,115.163 C292.547,115.163 290.474,117.21 290.474,119.736 C290.474,122.261 292.547,124.309 295.105,124.309 C298.79,124.309 302.325,122.863 304.93,120.29 C307.536,117.718 309,114.228 309,110.59 C309,99.635 296.277,93.709 285.81,99.789 C283.605,101.069 282.869,103.872 284.166,106.049 C285.463,108.226 288.301,108.952 290.506,107.672 Z" />
            <path d="M283.063,139.399 C294.715,148.027 309,141.68 309,128.882 C309,125.243 307.536,121.754 304.93,119.181 C302.325,116.608 298.79,115.163 295.105,115.163 C292.547,115.163 290.474,117.21 290.474,119.736 C290.474,122.261 292.547,124.309 295.105,124.309 C296.334,124.309 297.512,124.79 298.38,125.648 C299.249,126.506 299.737,127.669 299.737,128.882 C299.737,133.917 294.338,136.316 288.621,132.083 C286.575,130.567 283.672,130.977 282.137,132.997 C280.602,135.018 281.017,137.884 283.063,139.399 Z" />
        </g>
        <g id="Regular-M" transform="translate(0,200)">
            <path d="M425.632,115.163 L462.684,115.163 C465.242,115.163 467.316,113.115 467.316,110.59 C467.316,108.064 465.242,106.017 462.684,106.017 L425.632,106.017 C423.074,106.017 421,108.064 421,110.59 C421,113.115 423.074,115.163 425.632,115.163 Z" />
            <path d="M430.263,138.028 L430.263,83.152 C430.263,80.626 428.19,78.579 425.632,78.579 C423.074,78.579 421,80.626 421,83.152 L421,138.028 C421,140.553 423.074,142.6 425.632,142.6 C428.19,142.6 430.263,140.553 430.263,138.028 Z" />
            <path d="M467.316,138.028 L467.316,83.152 C467.316,80.626 465.242,78.579 462.684,78.579 C460.126,78.579 458.053,80.626 458.053,83.152 L458.053,138.028 C458.053,140.553 460.126,142.6 462.684,142.6 C465.242,142.6 467.316,140.553 467.316,138.028 Z" />
            <path d="M490.506,107.672 C495.127,104.988 499.737,107.135 499.737,110.59 C499.737,111.803 499.249,112.966 498.38,113.823 C497.512,114.681 496.334,115.163 495.105,115.163 C492.547,115.163 490.474,117.21 490.474,119.736 C490.474,122.261 492.547,124.309 495.105,124.309 C498.79,124.309 502.325,122.863 504.93,120.29 C507.536,117.718 509,114.228 509,110.59 C509,99.635 496.277,93.709 485.81,99.789 C483.605,101.069 482.869,103.872 484.166,106.049 C485.463,108.226 488.301,108.952 490.506,107.672 Z" />
            <path d="M483.063,139.399 C494.715,148.027 509,141.68 509,128.882 C509,125.243 507.536,121.754 504.93,119.181 C502.325,116.608 498.79,115.163 495.105,115.163 C492.547,115.163 490.474,117.21 490.474,119.736 C490.474,122.261 492.547,124.309 495.105,124.309 C496.334,124.309 497.512,124.79 498.38,125.648 C499.249,126.506 499.737,127.669 499.737,128.882 C499.737,133.917 494.338,136.316 488.621,132.083 C486.575,130.567 483.672,130.977 482.137,132.997 C480.602,135.018 481.017,137.884 483.063,139.399 Z" />
        </g>
        <g id="Black-M" transform="translate(0,200)">
            <path d="M625.632,115.163 L662.684,115.163 C665.242,115.163 667.316,113.115 667.316,110.59 C667.316,108.064 665.242,106.017 662.684,106.017 L625.632,106.017 C623.074,106.017 621,108.064 621,110.59 C621,113.115 623.074,115.163 625.632,115.163 Z" />
            <path d="M630.263,138.028 L630.263,83.152 C630.263,80.626 628.19,78.579 625.632,78.579 C623.074,78.579 621,80.626 621,83.152 L621,138.028 C621,140.553 623.074,142.6 625.632,142.6 C628.19,142.6 630.263,140.553 630.263,138.028 Z" />
            <path d="M667.316,138.028 L667.316,83.152 C667.316,80.626 665.242,78.579 662.684,78.579 C660.126,78.579 658.053,80.626 658.053,83.152 L658.053,138.028 C658.053,140.553 660.126,142.6 662.684,142.6 C665.242,142.6 667.316,140.553 667.316,138.028 Z" />
            <path d="M690.506,107.672 C695.127,104.988 699.737,107.135 699.737,110.59 C699.737,111.803 699.249,112.966 698.38,113.823 C697.512,114.681 696.334,115.163 695.105,115.163 C692.547,115.163 690.474,117.21 690.474,119.736 C690.474,122.261 692.547,124.309 695.105,124.309 C698.79,124.309 702.325,122.863 704.93,120.29 C707.536,117.718 709,114.228 709,110.59 C709,99.635 696.277,93.709 685.81,99.789 C683.605,101.069 682.869,103.872 684.166,106.049 C685.463,108.226 688.301,108.952 690.506,107.672 Z" />
            <path d="M683.063,139.399 C694.715,148.027 709,141.68 709,128.882 C709,125.243 707.536,121.754 704.93,119.181 C702.325,116.608 698.79,115.163 695.105,115.163 C692.547,115.163 690.474,117.21 690.474,119.736 C690.474,122.261 692.547,124.309 695.105,124.309 C696.334,124.309 697.512,124.79 698.38,125.648 C699.249,126.506 699.737,127.669 699.737,128.882 C699.737,133.917 694.338,136.316 688.621,132.083 C686.575,130.567 683.672,130.977 682.137,132.997 C680.602,135.018 681.017,137.884 683.063,139.399 Z" />
        </g>
    </g>
</svg>