<?xml version="1.0" encoding="UTF-8"?>
<svg height="600" width="800" xmlns="http://www.w3.org/2000/svg" xmlns:xlink="http://www.w3.org/1999/xlink">
    <g id="Notes" font-family="LucidaGrande, 'Lucida Grande', sans-serif" font-size="13">
        <rect fill="white" height="600.0" width="800.0" x="0.0" y="0.0" />
        <g font-size="13">
            <text x="18.0" y="176.0">Small</text>
            <text x="18.0" y="376.0">Medium</text>
            <text x="18.0" y="576.0">Large</text>
        </g>
        <g font-size="9">
            <text x="250.0" y="30.0">Ultralight</text>
            <text x="450.0" y="30.0">Regular</text>
            <text x="650.0" y="30.0">Black</text>
            <text id="template-version" fill="#505050" text-anchor="end" x="785.0" y="575.0">Template v.3.0</text>
            <a href="https://github.com/swhitty/SwiftDraw">
                <text fill="#505050" text-anchor="end" x="785.0" y="590.0">https://github.com/swhitty/SwiftDraw</text>
            </a>
        </g>
    </g>
    <g id="Guides" stroke="rgb(39, 170, 225)" stroke-width="0.5">
        <path id="Capline-S" d="M18,76 l800,0" />
        <path id="H-reference" d="M85,145.755 L87.685,145.755 L113.369,79.287 L114.052,79.287 L114.052,76 L112.148,76 L85,145.755 Z M95.693,121.536 L130.996,121.536 L130.263,119.313 L96.474,119.313 L95.693,121.536 Z M139.15,145.755 L141.787,145.755 L114.638,76 L113.466,76 L113.466,79.287 L139.15,145.755 Z" stroke="none" transform="translate(0,200)" />
        <path id="Baseline-S" d="M18,146 l800,0" />
        <path id="left-margin-Ultralight-M" d="M230,256 l0,110" />
        <path id="right-margin-Ultralight-M" d="M300,256 l0,110" />
        <path id="left-margin-Regular-M" d="M430,256 l0,110" />
        <path id="right-margin-Regular-M" d="M500,256 l0,110" />
        <path id="left-margin-Black-M" d="M630,256 l0,110" />
        <path id="right-margin-Black-M" d="M700,256 l0,110" />
        <path id="Capline-M" d="M18,276 l800,0" />
        <path id="Baseline-M" d="M18,346 l800,0" />
        <path id="Capline-L" d="M18,476 l800,0" />
        <path id="Baseline-L" d="M18,546 l800,0" />
    </g>
    <g id="Symbols">
        <g id="Ultralight-M" transform="translate(0,200)">
            <path d="M236.364,111 C236.364,95.185 249.185,82.364 265,82.364 C280.815,82.364 293.636,95.185 293.636,111 C293.636,126.815 280.815,139.636 265,139.636 C249.185,139.636 236.364,126.815 236.364,111 Z M230,111 C230,130.33 245.67,146 265,146 C284.33,146 300,130.33 300,111 C300,91.67 284.33,76 265,76 C245.67,76 230,91.67 230,111 Z" />
            <path d="M280.273,121.818 C279.5,120.788 278.144,119.373 276.218,117.972 C272.976,115.615 269.215,114.182 265,114.182 C260.785,114.182 257.024,115.615 253.782,117.972 C251.856,119.373 250.5,120.788 249.727,121.818 C248.673,123.224 248.958,125.218 250.364,126.273 C251.769,127.327 253.764,127.042 254.818,125.636 C255.239,125.076 256.17,124.104 257.525,123.119 C259.752,121.499 262.255,120.545 265,120.545 C267.745,120.545 270.248,121.499 272.475,123.119 C273.83,124.104 274.761,125.076 275.182,125.636 C276.236,127.042 278.231,127.327 279.636,126.273 C281.042,125.218 281.327,123.224 280.273,121.818 Z" />
            <path d="M255.455,104.636 L255.486,104.636 C257.244,104.636 258.668,103.212 258.668,101.455 C258.668,99.697 257.244,98.273 255.486,98.273 L255.455,98.273 C253.697,98.273 252.273,99.697 252.273,101.455 C252.273,103.212 253.697,104.636 255.455,104.636 Z" />
            <path d="M274.545,104.636 L274.577,104.636 C276.335,104.636 277.759,103.212 277.759,101.455 C277.759,99.697 276.335,98.273 274.577,98.273 L274.545,98.273 C272.788,98.273 271.364,99.697 271.364,101.455 C271.364,103.212 272.788,104.636 274.545,104.636 Z" />
        </g>
        <g id="Regular-M" transform="translate(0,200)">
            <path d="M436.364,111 C436.364,95.185 449.185,82.364 465,82.364 C480.815,82.364 493.636,95.185 493.636,111 C493.636,126.815 480.815,139.636 465,139.636 C449.185,139.636 436.364,126.815 436.364,111 Z M430,111 C430,130.33 445.67,146 465,146 C484.33,146 500,130.33 500,111 C500,91.67 484.33,76 465,76 C445.67,76 430,91.67 430,111 Z" />
            <path d="M480.273,121.818 C479.5,120.788 478.144,119.373 476.218,117.972 C472.976,115.615 469.215,114.182 465,114.182 C460.785,114.182 457.024,115.615 453.782,117.972 C451.856,119.373 450.5,120.788 449.727,121.818 C448.673,123.224 448.958,125.218 450.364,126.273 C451.769,127.327 453.764,127.042 454.818,125.636 C455.239,125.076 456.17,124.104 457.525,123.119 C459.752,121.499 462.255,120.545 465,120.545 C467.745,120.545 470.248,121.499 472.475,123.119 C473.83,124.104 474.761,125.076 475.182,125.636 C476.236,127.042 478.231,127.327 479.636,126.273 C481.042,125.218 481.327,123.224 480.273,121.818 Z" />
            <path d="M455.455,104.636 L455.486,104.636 C457.244,104.636 458.668,103.212 458.668,101.455 C458.668,99.697 457.244,98.273 455.486,98.273 L455.455,98.273 C453.697,98.273 452.273,99.697 452.273,101.455 C452.273,103.212 453.697,104.636 455.455,104.636 Z" />
            <path d="M474.545,104.636 L474.577,104.636 C476.335,104.636 477.759,103.212 477.759,101.455 C477.759,99.697 476.335,98.273 474.577,98.273 L474.545,98.273 C472.788,98.273 471.364,99.697 471.364,101.455 C471.364,103.212 472.788,104.636 474.545,104.636 Z" />
        </g>
        <g id="Black-M" transform="translate(0,200)">
            <path d="M636.364,111 C636.364,95.185 649.185,82.364 665,82.364 C680.815,82.364 693.636,95.185 693.636,111 C693.636,126.815 680.815,139.636 665,139.636 C649.185,139.636 636.364,126.815 636.364,111 Z M630,111 C630,130.33 645.67,146 665,146 C684.33,146 700,130.33 700,111 C700,91.67 684.33,76 665,76 C645.67,76 630,91.67 630,111 Z" />
            <path d="M680.273,121.818 C679.5,120.788 678.144,119.373 676.218,117.972 C672.977,115.615 669.215,114.182 665,114.182 C660.785,114.182 657.023,115.615 653.782,117.972 C651.856,119.373 650.5,120.788 649.727,121.818 C648.673,123.224 648.958,125.218 650.364,126.273 C651.769,127.327 653.764,127.042 654.818,125.636 C655.239,125.076 656.17,124.104 657.525,123.119 C659.752,121.499 662.255,120.545 665,120.545 C667.745,120.545 670.248,121.499 672.475,123.119 C673.83,124.104 674.761,125.076 675.182,125.636 C676.236,127.042 678.231,127.327 679.636,126.273 C681.042,125.218 681.327,123.224 680.273,121.818 Z" />
            <path d="M655.455,104.636 L655.486,104.636 C657.244,104.636 658.668,103.212 658.668,101.455 C658.668,99.697 657.244,98.273 655.486,98.273 L655.455,98.273 C653.697,98.273 652.273,99.697 652.273,101.455 C652.273,103.212 653.697,104.636 655.455,104.636 Z" />
            <path d="M674.545,104.636 L674.577,104.636 C676.335,104.636 677.759,103.212 677.759,101.455 C677.759,99.697 676.335,98.273 674.577,98.273 L674.545,98.273 C672.788,98.273 671.364,99.697 671.364,101.455 C671.364,103.212 672.788,104.636 674.545,104.636 Z" />
        </g>
    </g>
</svg>