<?xml version="1.0" encoding="UTF-8"?>
<svg height="600" width="800" xmlns="http://www.w3.org/2000/svg" xmlns:xlink="http://www.w3.org/1999/xlink">
    <g id="Notes" font-family="LucidaGrande, 'Lucida Grande', sans-serif" font-size="13">
        <rect fill="white" height="600.0" width="800.0" x="0.0" y="0.0" />
        <g font-size="13">
            <text x="18.0" y="176.0">Small</text>
            <text x="18.0" y="376.0">Medium</text>
            <text x="18.0" y="576.0">Large</text>
        </g>
        <g font-size="9">
            <text x="250.0" y="30.0">Ultralight</text>
            <text x="450.0" y="30.0">Regular</text>
            <text x="650.0" y="30.0">Black</text>
            <text id="template-version" fill="#505050" text-anchor="end" x="785.0" y="575.0">Template v.3.0</text>
            <a href="https://github.com/swhitty/SwiftDraw">
                <text fill="#505050" text-anchor="end" x="785.0" y="590.0">https://github.com/swhitty/SwiftDraw</text>
            </a>
        </g>
    </g>
    <g id="Guides" stroke="rgb(39, 170, 225)" stroke-width="0.5">
        <path id="Capline-S" d="M18,76 l800,0" />
        <path id="H-reference" d="M85,145.755 L87.685,145.755 L113.369,79.287 L114.052,79.287 L114.052,76 L112.148,76 L85,145.755 Z M95.693,121.536 L130.996,121.536 L130.263,119.313 L96.474,119.313 L95.693,121.536 Z M139.15,145.755 L141.787,145.755 L114.638,76 L113.466,76 L113.466,79.287 L139.15,145.755 Z" stroke="none" transform="translate(0,200)" />
        <path id="Baseline-S" d="M18,146 l800,0" />
        <path id="left-margin-Ultralight-M" d="M221,256 l0,110" />
        <path id="right-margin-Ultralight-M" d="M309,256 l0,110" />
        <path id="left-margin-Regular-M" d="M421,256 l0,110" />
        <path id="right-margin-Regular-M" d="M509,256 l0,110" />
        <path id="left-margin-Black-M" d="M621,256 l0,110" />
        <path id="right-margin-Black-M" d="M709,256 l0,110" />
        <path id="Capline-M" d="M18,276 l800,0" />
        <path id="Baseline-M" d="M18,346 l800,0" />
        <path id="Capline-L" d="M18,476 l800,0" />
        <path id="Baseline-L" d="M18,546 l800,0" />
    </g>
    <g id="Symbols">
        <g id="Ultralight-M" transform="translate(0,200)">
            <path d="M245,111 C245,106.582 248.582,103 253,103 C257.418,103 261,106.582 261,111 C261,115.418 257.418,119 253,119 C248.582,119 245,115.418 245,111 Z M237,111 C237,119.837 244.163,127 253,127 C261.837,127 269,119.837 269,111 C269,102.163 261.837,95 253,95 C244.163,95 237,102.163 237,111 Z" />
            <path d="M301,111 C301,117.365 298.471,123.47 293.971,127.971 C289.47,132.471 283.365,135 277,135 L253,135 C246.635,135 240.53,132.471 236.029,127.971 C231.529,123.47 229,117.365 229,111 C229,104.635 231.529,98.53 236.029,94.029 C240.53,89.529 246.635,87 253,87 L277,87 C283.365,87 289.47,89.529 293.971,94.029 C298.471,98.53 301,104.635 301,111 Z M309,111 C309,102.513 305.629,94.374 299.627,88.373 C293.626,82.371 285.487,79 277,79 L253,79 C244.513,79 236.374,82.371 230.373,88.373 C224.371,94.374 221,102.513 221,111 C221,119.487 224.371,127.626 230.373,133.627 C236.374,139.629 244.513,143 253,143 L277,143 C285.487,143 293.626,139.629 299.627,133.627 C305.629,127.626 309,119.487 309,111 Z" />
        </g>
        <g id="Regular-M" transform="translate(0,200)">
            <path d="M445,111 C445,106.582 448.582,103 453,103 C457.418,103 461,106.582 461,111 C461,115.418 457.418,119 453,119 C448.582,119 445,115.418 445,111 Z M437,111 C437,119.837 444.163,127 453,127 C461.837,127 469,119.837 469,111 C469,102.163 461.837,95 453,95 C444.163,95 437,102.163 437,111 Z" />
            <path d="M501,111 C501,117.365 498.471,123.47 493.971,127.971 C489.47,132.471 483.365,135 477,135 L453,135 C446.635,135 440.53,132.471 436.029,127.971 C431.529,123.47 429,117.365 429,111 C429,104.635 431.529,98.53 436.029,94.029 C440.53,89.529 446.635,87 453,87 L477,87 C483.365,87 489.47,89.529 493.971,94.029 C498.471,98.53 501,104.635 501,111 Z M509,111 C509,102.513 505.629,94.374 499.627,88.373 C493.626,82.371 485.487,79 477,79 L453,79 C444.513,79 436.374,82.371 430.373,88.373 C424.371,94.374 421,102.513 421,111 C421,119.487 424.371,127.626 430.373,133.627 C436.374,139.629 444.513,143 453,143 L477,143 C485.487,143 493.626,139.629 499.627,133.627 C505.629,127.626 509,119.487 509,111 Z" />
        </g>
        <g id="Black-M" transform="translate(0,200)">
            <path d="M645,111 C645,106.582 648.582,103 653,103 C657.418,103 661,106.582 661,111 C661,115.418 657.418,119 653,119 C648.582,119 645,115.418 645,111 Z M637,111 C637,119.837 644.163,127 653,127 C661.837,127 669,119.837 669,111 C669,102.163 661.837,95 653,95 C644.163,95 637,102.163 637,111 Z" />
            <path d="M701,111 C701,117.365 698.471,123.47 693.971,127.971 C689.47,132.471 683.365,135 677,135 L653,135 C646.635,135 640.53,132.471 636.029,127.971 C631.529,123.47 629,117.365 629,111 C629,104.635 631.529,98.53 636.029,94.029 C640.53,89.529 646.635,87 653,87 L677,87 C683.365,87 689.47,89.529 693.971,94.029 C698.471,98.53 701,104.635 701,111 Z M709,111 C709,102.513 705.629,94.374 699.627,88.373 C693.626,82.371 685.487,79 677,79 L653,79 C644.513,79 636.374,82.371 630.373,88.373 C624.371,94.374 621,102.513 621,111 C621,119.487 624.371,127.626 630.373,133.627 C636.374,139.629 644.513,143 653,143 L677,143 C685.487,143 693.626,139.629 699.627,133.627 C705.629,127.626 709,119.487 709,111 Z" />
        </g>
    </g>
</svg>