<?xml version="1.0" encoding="UTF-8"?>
<svg height="600" width="800" xmlns="http://www.w3.org/2000/svg" xmlns:xlink="http://www.w3.org/1999/xlink">
    <g id="Notes" font-family="LucidaGrande, 'Lucida Grande', sans-serif" font-size="13">
        <rect fill="white" height="600.0" width="800.0" x="0.0" y="0.0" />
        <g font-size="13">
            <text x="18.0" y="176.0">Small</text>
            <text x="18.0" y="376.0">Medium</text>
            <text x="18.0" y="576.0">Large</text>
        </g>
        <g font-size="9">
            <text x="250.0" y="30.0">Ultralight</text>
            <text x="450.0" y="30.0">Regular</text>
            <text x="650.0" y="30.0">Black</text>
            <text id="template-version" fill="#505050" text-anchor="end" x="785.0" y="575.0">Template v.3.0</text>
            <a href="https://github.com/swhitty/SwiftDraw">
                <text fill="#505050" text-anchor="end" x="785.0" y="590.0">https://github.com/swhitty/SwiftDraw</text>
            </a>
        </g>
    </g>
    <g id="Guides" stroke="rgb(39, 170, 225)" stroke-width="0.5">
        <path id="Capline-S" d="M18,76 l800,0" />
        <path id="H-reference" d="M85,145.755 L87.685,145.755 L113.369,79.287 L114.052,79.287 L114.052,76 L112.148,76 L85,145.755 Z M95.693,121.536 L130.996,121.536 L130.263,119.313 L96.474,119.313 L95.693,121.536 Z M139.15,145.755 L141.787,145.755 L114.638,76 L113.466,76 L113.466,79.287 L139.15,145.755 Z" stroke="none" transform="translate(0,200)" />
        <path id="Baseline-S" d="M18,146 l800,0" />
        <path id="left-margin-Ultralight-M" d="M230,256 l0,110" />
        <path id="right-margin-Ultralight-M" d="M300,256 l0,110" />
        <path id="left-margin-Regular-M" d="M430,256 l0,110" />
        <path id="right-margin-Regular-M" d="M500,256 l0,110" />
        <path id="left-margin-Black-M" d="M630,256 l0,110" />
        <path id="right-margin-Black-M" d="M700,256 l0,110" />
        <path id="Capline-M" d="M18,276 l800,0" />
        <path id="Baseline-M" d="M18,346 l800,0" />
        <path id="Capline-L" d="M18,476 l800,0" />
        <path id="Baseline-L" d="M18,546 l800,0" />
    </g>
    <g id="Symbols">
        <g id="Ultralight-M" transform="translate(0,200)">
            <path d="M261.818,79.181 L261.818,85.544 C261.818,87.301 263.242,88.725 264.999,88.725 C266.757,88.725 268.181,87.301 268.181,85.544 L268.181,79.181 C268.181,77.424 266.757,76 264.999,76 C263.242,76 261.818,77.424 261.818,79.181 Z" />
            <path d="M265.001,95.087 C257.501,95.084 251.017,100.317 249.44,107.648 C247.863,114.979 251.62,122.416 258.459,125.496 C260.061,126.218 261.945,125.504 262.666,123.902 C263.388,122.3 262.674,120.417 261.072,119.695 C256.97,117.847 254.715,113.385 255.661,108.986 C256.608,104.588 260.498,101.448 264.998,101.45 C266.755,101.451 268.18,100.027 268.181,98.27 C268.182,96.513 266.758,95.088 265.001,95.087 Z" />
            <path d="M233.182,114.175 L239.545,114.175 C241.303,114.175 242.727,112.75 242.727,110.993 C242.727,109.237 241.303,107.812 239.545,107.812 L233.182,107.812 C231.425,107.812 230,109.237 230,110.993 C230,112.75 231.425,114.175 233.182,114.175 Z" />
            <path d="M288.863,121.829 C292.604,123.989 294.428,128.392 293.31,132.564 C292.192,136.736 288.41,139.638 284.09,139.638 C279.77,139.638 275.988,136.736 274.87,132.564 C273.752,128.392 275.576,123.989 279.317,121.829 C280.302,121.261 280.908,120.21 280.908,119.074 L280.908,85.544 C280.908,83.787 282.333,82.362 284.09,82.362 C285.847,82.362 287.272,83.787 287.272,85.544 L287.272,119.074 C287.272,120.21 287.878,121.261 288.863,121.829 Z M292.044,116.319 L293.635,119.074 L293.635,85.544 C293.635,80.273 289.362,76 284.09,76 C278.818,76 274.545,80.273 274.545,85.544 L274.545,119.074 L276.136,116.319 C269.9,119.918 266.86,127.257 268.723,134.211 C270.587,141.165 276.89,146 284.09,146 C291.29,146 297.593,141.165 299.457,134.211 C301.32,127.257 298.28,119.918 292.044,116.319 Z" />
            <path d="M240.254,90.752 L244.741,95.237 C245.983,96.48 247.998,96.48 249.24,95.237 C250.483,93.995 250.483,91.981 249.24,90.738 L244.754,86.253 C243.512,85.01 241.497,85.01 240.254,86.253 C239.012,87.495 239.012,89.509 240.254,90.752 Z" />
            <path d="M244.741,126.75 L240.254,131.235 C239.012,132.478 239.012,134.492 240.254,135.734 C241.497,136.977 243.512,136.977 244.754,135.734 L249.24,131.249 C250.483,130.006 250.483,127.992 249.24,126.75 C247.998,125.507 245.983,125.507 244.741,126.75 Z" />
        </g>
        <g id="Regular-M" transform="translate(0,200)">
            <path d="M461.818,79.181 L461.818,85.544 C461.818,87.301 463.242,88.725 464.999,88.725 C466.757,88.725 468.181,87.301 468.181,85.544 L468.181,79.181 C468.181,77.424 466.757,76 464.999,76 C463.242,76 461.818,77.424 461.818,79.181 Z" />
            <path d="M465.001,95.087 C457.501,95.084 451.017,100.317 449.44,107.648 C447.863,114.979 451.621,122.416 458.459,125.496 C460.061,126.218 461.945,125.504 462.666,123.902 C463.388,122.3 462.674,120.417 461.072,119.695 C456.97,117.847 454.715,113.385 455.661,108.986 C456.608,104.588 460.498,101.448 464.998,101.45 C466.755,101.451 468.18,100.027 468.181,98.27 C468.182,96.513 466.758,95.088 465.001,95.087 Z" />
            <path d="M433.182,114.175 L439.545,114.175 C441.303,114.175 442.727,112.75 442.727,110.993 C442.727,109.237 441.303,107.812 439.545,107.812 L433.182,107.812 C431.425,107.812 430,109.237 430,110.993 C430,112.75 431.425,114.175 433.182,114.175 Z" />
            <path d="M488.863,121.829 C492.604,123.989 494.428,128.392 493.31,132.564 C492.192,136.736 488.41,139.638 484.09,139.638 C479.77,139.638 475.988,136.736 474.87,132.564 C473.752,128.392 475.576,123.989 479.317,121.829 C480.302,121.261 480.908,120.21 480.908,119.074 L480.908,85.544 C480.908,83.787 482.333,82.362 484.09,82.362 C485.847,82.362 487.272,83.787 487.272,85.544 L487.272,119.074 C487.272,120.21 487.878,121.261 488.863,121.829 Z M492.044,116.319 L493.635,119.074 L493.635,85.544 C493.635,80.273 489.362,76 484.09,76 C478.818,76 474.545,80.273 474.545,85.544 L474.545,119.074 L476.136,116.319 C469.9,119.918 466.86,127.257 468.723,134.211 C470.587,141.165 476.89,146 484.09,146 C491.29,146 497.593,141.165 499.457,134.211 C501.32,127.257 498.28,119.918 492.044,116.319 Z" />
            <path d="M440.254,90.752 L444.741,95.237 C445.983,96.48 447.998,96.48 449.24,95.237 C450.483,93.995 450.483,91.981 449.24,90.738 L444.754,86.253 C443.512,85.01 441.497,85.01 440.254,86.253 C439.012,87.495 439.012,89.509 440.254,90.752 Z" />
            <path d="M444.741,126.75 L440.254,131.235 C439.012,132.478 439.012,134.492 440.254,135.734 C441.497,136.977 443.512,136.977 444.754,135.734 L449.24,131.249 C450.483,130.006 450.483,127.992 449.24,126.75 C447.998,125.507 445.983,125.507 444.741,126.75 Z" />
        </g>
        <g id="Black-M" transform="translate(0,200)">
            <path d="M661.818,79.181 L661.818,85.544 C661.818,87.301 663.242,88.725 664.999,88.725 C666.757,88.725 668.181,87.301 668.181,85.544 L668.181,79.181 C668.181,77.424 666.757,76 664.999,76 C663.242,76 661.818,77.424 661.818,79.181 Z" />
            <path d="M665.001,95.087 C657.501,95.084 651.017,100.317 649.44,107.648 C647.863,114.979 651.62,122.416 658.458,125.496 C660.061,126.218 661.945,125.504 662.666,123.902 C663.388,122.3 662.674,120.417 661.072,119.695 C656.969,117.847 654.715,113.385 655.661,108.986 C656.608,104.588 660.498,101.448 664.998,101.45 C666.755,101.451 668.18,100.027 668.181,98.27 C668.182,96.513 666.758,95.088 665.001,95.087 Z" />
            <path d="M633.182,114.175 L639.545,114.175 C641.303,114.175 642.727,112.75 642.727,110.993 C642.727,109.237 641.303,107.812 639.545,107.812 L633.182,107.812 C631.424,107.812 630,109.237 630,110.993 C630,112.75 631.424,114.175 633.182,114.175 Z" />
            <path d="M688.863,121.829 C692.604,123.989 694.428,128.392 693.31,132.564 C692.192,136.736 688.41,139.638 684.09,139.638 C679.77,139.638 675.988,136.736 674.87,132.564 C673.752,128.392 675.576,123.989 679.317,121.829 C680.302,121.261 680.908,120.21 680.908,119.074 L680.908,85.544 C680.908,83.787 682.333,82.362 684.09,82.362 C685.847,82.362 687.272,83.787 687.272,85.544 L687.272,119.074 C687.272,120.21 687.878,121.261 688.863,121.829 Z M692.044,116.319 L693.635,119.074 L693.635,85.544 C693.635,80.273 689.362,76 684.09,76 C678.818,76 674.545,80.273 674.545,85.544 L674.545,119.074 L676.136,116.319 C669.9,119.918 666.86,127.257 668.723,134.211 C670.587,141.165 676.89,146 684.09,146 C691.29,146 697.593,141.165 699.457,134.211 C701.32,127.257 698.28,119.918 692.044,116.319 Z" />
            <path d="M640.255,90.752 L644.741,95.237 C645.983,96.48 647.998,96.48 649.24,95.237 C650.483,93.995 650.483,91.981 649.24,90.738 L644.754,86.253 C643.512,85.01 641.497,85.01 640.255,86.253 C639.012,87.495 639.012,89.509 640.255,90.752 Z" />
            <path d="M644.741,126.75 L640.255,131.235 C639.012,132.478 639.012,134.492 640.255,135.734 C641.497,136.977 643.512,136.977 644.754,135.734 L649.24,131.249 C650.483,130.006 650.483,127.992 649.24,126.75 C647.998,125.507 645.983,125.507 644.741,126.75 Z" />
        </g>
    </g>
</svg>