<?xml version="1.0" encoding="UTF-8"?>
<svg height="600" width="800" xmlns="http://www.w3.org/2000/svg" xmlns:xlink="http://www.w3.org/1999/xlink">
    <g id="Notes" font-family="LucidaGrande, 'Lucida Grande', sans-serif" font-size="13">
        <rect fill="white" height="600.0" width="800.0" x="0.0" y="0.0" />
        <g font-size="13">
            <text x="18.0" y="176.0">Small</text>
            <text x="18.0" y="376.0">Medium</text>
            <text x="18.0" y="576.0">Large</text>
        </g>
        <g font-size="9">
            <text x="250.0" y="30.0">Ultralight</text>
            <text x="450.0" y="30.0">Regular</text>
            <text x="650.0" y="30.0">Black</text>
            <text id="template-version" fill="#505050" text-anchor="end" x="785.0" y="575.0">Template v.3.0</text>
            <a href="https://github.com/swhitty/SwiftDraw">
                <text fill="#505050" text-anchor="end" x="785.0" y="590.0">https://github.com/swhitty/SwiftDraw</text>
            </a>
        </g>
    </g>
    <g id="Guides" stroke="rgb(39, 170, 225)" stroke-width="0.5">
        <path id="Capline-S" d="M18,76 l800,0" />
        <path id="H-reference" d="M85,145.755 L87.685,145.755 L113.369,79.287 L114.052,79.287 L114.052,76 L112.148,76 L85,145.755 Z M95.693,121.536 L130.996,121.536 L130.263,119.313 L96.474,119.313 L95.693,121.536 Z M139.15,145.755 L141.787,145.755 L114.638,76 L113.466,76 L113.466,79.287 L139.15,145.755 Z" stroke="none" transform="translate(0,200)" />
        <path id="Baseline-S" d="M18,146 l800,0" />
        <path id="left-margin-Ultralight-M" d="M221,256 l0,110" />
        <path id="right-margin-Ultralight-M" d="M309,256 l0,110" />
        <path id="left-margin-Regular-M" d="M421,256 l0,110" />
        <path id="right-margin-Regular-M" d="M509,256 l0,110" />
        <path id="left-margin-Black-M" d="M621,256 l0,110" />
        <path id="right-margin-Black-M" d="M709,256 l0,110" />
        <path id="Capline-M" d="M18,276 l800,0" />
        <path id="Baseline-M" d="M18,346 l800,0" />
        <path id="Capline-L" d="M18,476 l800,0" />
        <path id="Baseline-L" d="M18,546 l800,0" />
    </g>
    <g id="Symbols">
        <g id="Ultralight-M" transform="translate(0,200)">
            <path d="M245,83 L245,107 C245,109.209 246.791,111 249,111 C251.209,111 253,109.209 253,107 L253,83 C253,80.791 251.209,79 249,79 C246.791,79 245,80.791 245,83 Z" />
            <path d="M273,83 L273,107 C273,109.209 274.791,111 277,111 C279.209,111 281,109.209 281,107 L281,83 C281,80.791 279.209,79 277,79 C274.791,79 273,80.791 273,83 Z" />
            <path d="M225,111 L303.4,111 C305.609,111 307.4,109.209 307.4,107 C307.4,104.791 305.609,103 303.4,103 L225,103 C222.791,103 221,104.791 221,107 C221,109.209 222.791,111 225,111 Z" />
            <path d="M289,135 L301,135 C302.774,135 304.337,133.831 304.837,132.129 C304.966,131.691 305.19,130.925 305.479,129.934 C305.959,128.283 306.439,126.617 306.888,125.039 C306.942,124.851 306.942,124.851 306.995,124.663 C307.404,123.223 307.762,121.94 308.059,120.852 C308.761,118.049 309,116.773 309,115 C309,113.227 308.761,111.951 308.081,109.23 L302.452,89.121 C300.702,83.287 295.096,79 289,79 L233,79 C229.817,79 226.765,80.264 224.515,82.515 C222.264,84.765 221,87.817 221,91 L221,131 C221,133.209 222.791,135 225,135 L237,135 C239.209,135 241,133.209 241,131 C241,128.791 239.209,127 237,127 L225,127 L229,131 L229,91 C229,89.939 229.421,88.922 230.172,88.172 C230.922,87.421 231.939,87 233,87 L289,87 C291.519,87 294.043,88.93 294.769,91.349 L300.348,111.279 C300.839,113.249 301,114.107 301,115 C301,115.893 300.839,116.751 300.319,118.83 C300.052,119.805 299.701,121.063 299.299,122.478 C299.246,122.664 299.246,122.664 299.194,122.85 C298.749,124.41 298.273,126.062 297.797,127.7 C297.511,128.682 297.289,129.441 297.163,129.871 L301,127 L289,127 C286.791,127 285,128.791 285,131 C285,133.209 286.791,135 289,135 Z" />
            <path d="M241,131 C241,128.791 242.791,127 245,127 C247.209,127 249,128.791 249,131 C249,133.209 247.209,135 245,135 C242.791,135 241,133.209 241,131 Z M233,131 C233,137.627 238.373,143 245,143 C251.627,143 257,137.627 257,131 C257,124.373 251.627,119 245,119 C238.373,119 233,124.373 233,131 Z" />
            <path d="M253,135 L273,135 C275.209,135 277,133.209 277,131 C277,128.791 275.209,127 273,127 L253,127 C250.791,127 249,128.791 249,131 C249,133.209 250.791,135 253,135 Z" />
            <path d="M277,131 C277,128.791 278.791,127 281,127 C283.209,127 285,128.791 285,131 C285,133.209 283.209,135 281,135 C278.791,135 277,133.209 277,131 Z M269,131 C269,137.627 274.373,143 281,143 C287.627,143 293,137.627 293,131 C293,124.373 287.627,119 281,119 C274.373,119 269,124.373 269,131 Z" />
        </g>
        <g id="Regular-M" transform="translate(0,200)">
            <path d="M445,83 L445,107 C445,109.209 446.791,111 449,111 C451.209,111 453,109.209 453,107 L453,83 C453,80.791 451.209,79 449,79 C446.791,79 445,80.791 445,83 Z" />
            <path d="M473,83 L473,107 C473,109.209 474.791,111 477,111 C479.209,111 481,109.209 481,107 L481,83 C481,80.791 479.209,79 477,79 C474.791,79 473,80.791 473,83 Z" />
            <path d="M425,111 L503.4,111 C505.609,111 507.4,109.209 507.4,107 C507.4,104.791 505.609,103 503.4,103 L425,103 C422.791,103 421,104.791 421,107 C421,109.209 422.791,111 425,111 Z" />
            <path d="M489,135 L501,135 C502.774,135 504.337,133.831 504.837,132.129 C504.966,131.691 505.19,130.925 505.479,129.934 C505.959,128.283 506.439,126.617 506.888,125.039 C506.942,124.851 506.942,124.851 506.995,124.663 C507.404,123.223 507.762,121.94 508.059,120.852 C508.761,118.049 509,116.773 509,115 C509,113.227 508.761,111.951 508.081,109.23 L502.452,89.121 C500.702,83.287 495.096,79 489,79 L433,79 C429.817,79 426.765,80.264 424.515,82.515 C422.264,84.765 421,87.817 421,91 L421,131 C421,133.209 422.791,135 425,135 L437,135 C439.209,135 441,133.209 441,131 C441,128.791 439.209,127 437,127 L425,127 L429,131 L429,91 C429,89.939 429.421,88.922 430.172,88.172 C430.922,87.421 431.939,87 433,87 L489,87 C491.519,87 494.043,88.93 494.769,91.349 L500.348,111.279 C500.839,113.249 501,114.107 501,115 C501,115.893 500.839,116.751 500.319,118.83 C500.052,119.805 499.701,121.063 499.299,122.478 C499.246,122.664 499.246,122.664 499.194,122.85 C498.749,124.41 498.273,126.062 497.797,127.7 C497.511,128.682 497.289,129.441 497.163,129.871 L501,127 L489,127 C486.791,127 485,128.791 485,131 C485,133.209 486.791,135 489,135 Z" />
            <path d="M441,131 C441,128.791 442.791,127 445,127 C447.209,127 449,128.791 449,131 C449,133.209 447.209,135 445,135 C442.791,135 441,133.209 441,131 Z M433,131 C433,137.627 438.373,143 445,143 C451.627,143 457,137.627 457,131 C457,124.373 451.627,119 445,119 C438.373,119 433,124.373 433,131 Z" />
            <path d="M453,135 L473,135 C475.209,135 477,133.209 477,131 C477,128.791 475.209,127 473,127 L453,127 C450.791,127 449,128.791 449,131 C449,133.209 450.791,135 453,135 Z" />
            <path d="M477,131 C477,128.791 478.791,127 481,127 C483.209,127 485,128.791 485,131 C485,133.209 483.209,135 481,135 C478.791,135 477,133.209 477,131 Z M469,131 C469,137.627 474.373,143 481,143 C487.627,143 493,137.627 493,131 C493,124.373 487.627,119 481,119 C474.373,119 469,124.373 469,131 Z" />
        </g>
        <g id="Black-M" transform="translate(0,200)">
            <path d="M645,83 L645,107 C645,109.209 646.791,111 649,111 C651.209,111 653,109.209 653,107 L653,83 C653,80.791 651.209,79 649,79 C646.791,79 645,80.791 645,83 Z" />
            <path d="M673,83 L673,107 C673,109.209 674.791,111 677,111 C679.209,111 681,109.209 681,107 L681,83 C681,80.791 679.209,79 677,79 C674.791,79 673,80.791 673,83 Z" />
            <path d="M625,111 L703.4,111 C705.609,111 707.4,109.209 707.4,107 C707.4,104.791 705.609,103 703.4,103 L625,103 C622.791,103 621,104.791 621,107 C621,109.209 622.791,111 625,111 Z" />
            <path d="M689,135 L701,135 C702.774,135 704.337,133.831 704.837,132.129 C704.966,131.691 705.19,130.925 705.479,129.934 C705.959,128.283 706.439,126.617 706.888,125.039 C706.942,124.851 706.942,124.851 706.995,124.663 C707.404,123.223 707.762,121.94 708.059,120.852 C708.761,118.049 709,116.773 709,115 C709,113.227 708.761,111.951 708.081,109.23 L702.452,89.121 C700.702,83.287 695.096,79 689,79 L633,79 C629.817,79 626.765,80.264 624.515,82.515 C622.264,84.765 621,87.817 621,91 L621,131 C621,133.209 622.791,135 625,135 L637,135 C639.209,135 641,133.209 641,131 C641,128.791 639.209,127 637,127 L625,127 L629,131 L629,91 C629,89.939 629.421,88.922 630.172,88.172 C630.922,87.421 631.939,87 633,87 L689,87 C691.519,87 694.043,88.93 694.769,91.349 L700.348,111.279 C700.839,113.249 701,114.107 701,115 C701,115.893 700.839,116.751 700.319,118.83 C700.052,119.805 699.701,121.063 699.299,122.478 C699.246,122.664 699.246,122.664 699.194,122.85 C698.749,124.41 698.273,126.062 697.797,127.7 C697.511,128.682 697.289,129.441 697.163,129.871 L701,127 L689,127 C686.791,127 685,128.791 685,131 C685,133.209 686.791,135 689,135 Z" />
            <path d="M641,131 C641,128.791 642.791,127 645,127 C647.209,127 649,128.791 649,131 C649,133.209 647.209,135 645,135 C642.791,135 641,133.209 641,131 Z M633,131 C633,137.627 638.373,143 645,143 C651.627,143 657,137.627 657,131 C657,124.373 651.627,119 645,119 C638.373,119 633,124.373 633,131 Z" />
            <path d="M653,135 L673,135 C675.209,135 677,133.209 677,131 C677,128.791 675.209,127 673,127 L653,127 C650.791,127 649,128.791 649,131 C649,133.209 650.791,135 653,135 Z" />
            <path d="M677,131 C677,128.791 678.791,127 681,127 C683.209,127 685,128.791 685,131 C685,133.209 683.209,135 681,135 C678.791,135 677,133.209 677,131 Z M669,131 C669,137.627 674.373,143 681,143 C687.627,143 693,137.627 693,131 C693,124.373 687.627,119 681,119 C674.373,119 669,124.373 669,131 Z" />
        </g>
    </g>
</svg>