<?xml version="1.0" encoding="UTF-8"?>
<svg height="600" width="800" xmlns="http://www.w3.org/2000/svg" xmlns:xlink="http://www.w3.org/1999/xlink">
    <g id="Notes" font-family="LucidaGrande, 'Lucida Grande', sans-serif" font-size="13">
        <rect fill="white" height="600.0" width="800.0" x="0.0" y="0.0" />
        <g font-size="13">
            <text x="18.0" y="176.0">Small</text>
            <text x="18.0" y="376.0">Medium</text>
            <text x="18.0" y="576.0">Large</text>
        </g>
        <g font-size="9">
            <text x="250.0" y="30.0">Ultralight</text>
            <text x="450.0" y="30.0">Regular</text>
            <text x="650.0" y="30.0">Black</text>
            <text id="template-version" fill="#505050" text-anchor="end" x="785.0" y="575.0">Template v.3.0</text>
            <a href="https://github.com/swhitty/SwiftDraw">
                <text fill="#505050" text-anchor="end" x="785.0" y="590.0">https://github.com/swhitty/SwiftDraw</text>
            </a>
        </g>
    </g>
    <g id="Guides" stroke="rgb(39, 170, 225)" stroke-width="0.5">
        <path id="Capline-S" d="M18,76 l800,0" />
        <path id="H-reference" d="M85,145.755 L87.685,145.755 L113.369,79.287 L114.052,79.287 L114.052,76 L112.148,76 L85,145.755 Z M95.693,121.536 L130.996,121.536 L130.263,119.313 L96.474,119.313 L95.693,121.536 Z M139.15,145.755 L141.787,145.755 L114.638,76 L113.466,76 L113.466,79.287 L139.15,145.755 Z" stroke="none" transform="translate(0,200)" />
        <path id="Baseline-S" d="M18,146 l800,0" />
        <path id="left-margin-Ultralight-M" d="M226.5,256 l0,110" />
        <path id="right-margin-Ultralight-M" d="M303.5,256 l0,110" />
        <path id="left-margin-Regular-M" d="M426.5,256 l0,110" />
        <path id="right-margin-Regular-M" d="M503.5,256 l0,110" />
        <path id="left-margin-Black-M" d="M626.5,256 l0,110" />
        <path id="right-margin-Black-M" d="M703.5,256 l0,110" />
        <path id="Capline-M" d="M18,276 l800,0" />
        <path id="Baseline-M" d="M18,346 l800,0" />
        <path id="Capline-L" d="M18,476 l800,0" />
        <path id="Baseline-L" d="M18,546 l800,0" />
    </g>
    <g id="Symbols">
        <g id="Ultralight-M" transform="translate(0,200)">
            <path d="M230,83 L300,83 C301.933,83 303.5,81.433 303.5,79.5 C303.5,77.567 301.933,76 300,76 L230,76 C228.067,76 226.5,77.567 226.5,79.5 C226.5,81.433 228.067,83 230,83 Z" />
            <path d="M293,79.5 L293,118 C293,118.928 292.631,119.818 291.975,120.475 C291.318,121.131 290.428,121.5 289.5,121.5 L240.5,121.5 C239.572,121.5 238.682,121.131 238.025,120.475 C237.369,119.818 237,118.928 237,118 L237,79.5 C237,77.567 235.433,76 233.5,76 C231.567,76 230,77.567 230,79.5 L230,118 C230,120.785 231.106,123.455 233.075,125.425 C235.045,127.394 237.715,128.5 240.5,128.5 L289.5,128.5 C292.285,128.5 294.956,127.394 296.925,125.425 C298.894,123.455 300,120.785 300,118 L300,79.5 C300,77.567 298.433,76 296.5,76 C294.567,76 293,77.567 293,79.5 Z" />
            <path d="M249.975,144.975 L267.475,127.475 L262.525,127.475 L280.025,144.975 C281.392,146.342 283.608,146.342 284.975,144.975 C286.342,143.608 286.342,141.392 284.975,140.025 L267.475,122.525 C266.108,121.158 263.892,121.158 262.525,122.525 L245.025,140.025 C243.658,141.392 243.658,143.608 245.025,144.975 C246.392,146.342 248.608,146.342 249.975,144.975 Z" />
        </g>
        <g id="Regular-M" transform="translate(0,200)">
            <path d="M430,83 L500,83 C501.933,83 503.5,81.433 503.5,79.5 C503.5,77.567 501.933,76 500,76 L430,76 C428.067,76 426.5,77.567 426.5,79.5 C426.5,81.433 428.067,83 430,83 Z" />
            <path d="M493,79.5 L493,118 C493,118.928 492.631,119.818 491.975,120.475 C491.318,121.131 490.428,121.5 489.5,121.5 L440.5,121.5 C439.572,121.5 438.682,121.131 438.025,120.475 C437.369,119.818 437,118.928 437,118 L437,79.5 C437,77.567 435.433,76 433.5,76 C431.567,76 430,77.567 430,79.5 L430,118 C430,120.785 431.106,123.455 433.075,125.425 C435.044,127.394 437.715,128.5 440.5,128.5 L489.5,128.5 C492.285,128.5 494.956,127.394 496.925,125.425 C498.894,123.455 500,120.785 500,118 L500,79.5 C500,77.567 498.433,76 496.5,76 C494.567,76 493,77.567 493,79.5 Z" />
            <path d="M449.975,144.975 L467.475,127.475 L462.525,127.475 L480.025,144.975 C481.392,146.342 483.608,146.342 484.975,144.975 C486.342,143.608 486.342,141.392 484.975,140.025 L467.475,122.525 C466.108,121.158 463.892,121.158 462.525,122.525 L445.025,140.025 C443.658,141.392 443.658,143.608 445.025,144.975 C446.392,146.342 448.608,146.342 449.975,144.975 Z" />
        </g>
        <g id="Black-M" transform="translate(0,200)">
            <path d="M630,83 L700,83 C701.933,83 703.5,81.433 703.5,79.5 C703.5,77.567 701.933,76 700,76 L630,76 C628.067,76 626.5,77.567 626.5,79.5 C626.5,81.433 628.067,83 630,83 Z" />
            <path d="M693,79.5 L693,118 C693,118.928 692.631,119.818 691.975,120.475 C691.318,121.131 690.428,121.5 689.5,121.5 L640.5,121.5 C639.572,121.5 638.682,121.131 638.025,120.475 C637.369,119.818 637,118.928 637,118 L637,79.5 C637,77.567 635.433,76 633.5,76 C631.567,76 630,77.567 630,79.5 L630,118 C630,120.785 631.106,123.455 633.075,125.425 C635.044,127.394 637.715,128.5 640.5,128.5 L689.5,128.5 C692.285,128.5 694.956,127.394 696.925,125.425 C698.894,123.455 700,120.785 700,118 L700,79.5 C700,77.567 698.433,76 696.5,76 C694.567,76 693,77.567 693,79.5 Z" />
            <path d="M649.975,144.975 L667.475,127.475 L662.525,127.475 L680.025,144.975 C681.392,146.342 683.608,146.342 684.975,144.975 C686.342,143.608 686.342,141.392 684.975,140.025 L667.475,122.525 C666.108,121.158 663.892,121.158 662.525,122.525 L645.025,140.025 C643.658,141.392 643.658,143.608 645.025,144.975 C646.392,146.342 648.608,146.342 649.975,144.975 Z" />
        </g>
    </g>
</svg>