<?xml version="1.0" encoding="UTF-8"?>
<svg height="600" width="800" xmlns="http://www.w3.org/2000/svg" xmlns:xlink="http://www.w3.org/1999/xlink">
    <g id="Notes" font-family="LucidaGrande, 'Lucida Grande', sans-serif" font-size="13">
        <rect fill="white" height="600.0" width="800.0" x="0.0" y="0.0" />
        <g font-size="13">
            <text x="18.0" y="176.0">Small</text>
            <text x="18.0" y="376.0">Medium</text>
            <text x="18.0" y="576.0">Large</text>
        </g>
        <g font-size="9">
            <text x="250.0" y="30.0">Ultralight</text>
            <text x="450.0" y="30.0">Regular</text>
            <text x="650.0" y="30.0">Black</text>
            <text id="template-version" fill="#505050" text-anchor="end" x="785.0" y="575.0">Template v.3.0</text>
            <a href="https://github.com/swhitty/SwiftDraw">
                <text fill="#505050" text-anchor="end" x="785.0" y="590.0">https://github.com/swhitty/SwiftDraw</text>
            </a>
        </g>
    </g>
    <g id="Guides" stroke="rgb(39, 170, 225)" stroke-width="0.5">
        <path id="Capline-S" d="M18,76 l800,0" />
        <path id="H-reference" d="M85,145.755 L87.685,145.755 L113.369,79.287 L114.052,79.287 L114.052,76 L112.148,76 L85,145.755 Z M95.693,121.536 L130.996,121.536 L130.263,119.313 L96.474,119.313 L95.693,121.536 Z M139.15,145.755 L141.787,145.755 L114.638,76 L113.466,76 L113.466,79.287 L139.15,145.755 Z" stroke="none" transform="translate(0,200)" />
        <path id="Baseline-S" d="M18,146 l800,0" />
        <path id="left-margin-Ultralight-M" d="M236.364,256 l0,110" />
        <path id="right-margin-Ultralight-M" d="M293.636,256 l0,110" />
        <path id="left-margin-Regular-M" d="M436.364,256 l0,110" />
        <path id="right-margin-Regular-M" d="M493.636,256 l0,110" />
        <path id="left-margin-Black-M" d="M636.364,256 l0,110" />
        <path id="right-margin-Black-M" d="M693.636,256 l0,110" />
        <path id="Capline-M" d="M18,276 l800,0" />
        <path id="Baseline-M" d="M18,346 l800,0" />
        <path id="Capline-L" d="M18,476 l800,0" />
        <path id="Baseline-L" d="M18,546 l800,0" />
    </g>
    <g id="Symbols">
        <g id="Ultralight-M" transform="translate(0,200)">
            <path d="M287.273,111 L287.273,136.455 C287.273,137.298 286.938,138.108 286.341,138.704 C285.744,139.301 284.935,139.636 284.091,139.636 L245.909,139.636 C245.065,139.636 244.256,139.301 243.659,138.704 C243.062,138.108 242.727,137.298 242.727,136.455 L242.727,85.545 C242.727,84.702 243.062,83.892 243.659,83.296 C244.256,82.699 245.065,82.364 245.909,82.364 L284.091,82.364 C284.935,82.364 285.744,82.699 286.341,83.296 C286.938,83.892 287.273,84.702 287.273,85.545 L287.273,111 Z M293.636,111 L293.636,85.545 C293.636,83.014 292.631,80.586 290.841,78.796 C289.05,77.006 286.623,76 284.091,76 L245.909,76 C243.377,76 240.95,77.006 239.159,78.796 C237.369,80.586 236.364,83.014 236.364,85.545 L236.364,136.455 C236.364,138.986 237.369,141.414 239.159,143.204 C240.95,144.994 243.377,146 245.909,146 L284.091,146 C286.623,146 289.05,144.994 290.841,143.204 C292.631,141.414 293.636,138.986 293.636,136.455 L293.636,111 Z" />
            <path d="M265,133.273 L265.032,133.273 C266.789,133.273 268.214,131.848 268.214,130.091 C268.214,128.334 266.789,126.909 265.032,126.909 L265,126.909 C263.243,126.909 261.818,128.334 261.818,130.091 C261.818,131.848 263.243,133.273 265,133.273 Z" />
        </g>
        <g id="Regular-M" transform="translate(0,200)">
            <path d="M487.273,111 L487.273,136.455 C487.273,137.298 486.938,138.108 486.341,138.704 C485.744,139.301 484.935,139.636 484.091,139.636 L445.909,139.636 C445.065,139.636 444.256,139.301 443.659,138.704 C443.062,138.108 442.727,137.298 442.727,136.455 L442.727,85.545 C442.727,84.702 443.062,83.892 443.659,83.296 C444.256,82.699 445.065,82.364 445.909,82.364 L484.091,82.364 C484.935,82.364 485.744,82.699 486.341,83.296 C486.938,83.892 487.273,84.702 487.273,85.545 L487.273,111 Z M493.636,111 L493.636,85.545 C493.636,83.014 492.631,80.586 490.841,78.796 C489.05,77.006 486.623,76 484.091,76 L445.909,76 C443.378,76 440.95,77.006 439.159,78.796 C437.369,80.586 436.364,83.014 436.364,85.545 L436.364,136.455 C436.364,138.986 437.369,141.414 439.159,143.204 C440.95,144.994 443.378,146 445.909,146 L484.091,146 C486.623,146 489.05,144.994 490.841,143.204 C492.631,141.414 493.636,138.986 493.636,136.455 L493.636,111 Z" />
            <path d="M465,133.273 L465.032,133.273 C466.789,133.273 468.214,131.848 468.214,130.091 C468.214,128.334 466.789,126.909 465.032,126.909 L465,126.909 C463.243,126.909 461.818,128.334 461.818,130.091 C461.818,131.848 463.243,133.273 465,133.273 Z" />
        </g>
        <g id="Black-M" transform="translate(0,200)">
            <path d="M687.273,111 L687.273,136.455 C687.273,137.298 686.938,138.108 686.341,138.704 C685.744,139.301 684.935,139.636 684.091,139.636 L645.909,139.636 C645.065,139.636 644.256,139.301 643.659,138.704 C643.062,138.108 642.727,137.298 642.727,136.455 L642.727,85.545 C642.727,84.702 643.062,83.892 643.659,83.296 C644.256,82.699 645.065,82.364 645.909,82.364 L684.091,82.364 C684.935,82.364 685.744,82.699 686.341,83.296 C686.938,83.892 687.273,84.702 687.273,85.545 L687.273,111 Z M693.636,111 L693.636,85.545 C693.636,83.014 692.631,80.586 690.841,78.796 C689.05,77.006 686.623,76 684.091,76 L645.909,76 C643.378,76 640.95,77.006 639.159,78.796 C637.369,80.586 636.364,83.014 636.364,85.545 L636.364,136.455 C636.364,138.986 637.369,141.414 639.159,143.204 C640.95,144.994 643.378,146 645.909,146 L684.091,146 C686.623,146 689.05,144.994 690.841,143.204 C692.631,141.414 693.636,138.986 693.636,136.455 L693.636,111 Z" />
            <path d="M665,133.273 L665.032,133.273 C666.789,133.273 668.214,131.848 668.214,130.091 C668.214,128.334 666.789,126.909 665.032,126.909 L665,126.909 C663.243,126.909 661.818,128.334 661.818,130.091 C661.818,131.848 663.243,133.273 665,133.273 Z" />
        </g>
    </g>
</svg>