<?xml version="1.0" encoding="UTF-8"?>
<svg height="600" width="800" xmlns="http://www.w3.org/2000/svg" xmlns:xlink="http://www.w3.org/1999/xlink">
    <g id="Notes" font-family="LucidaGrande, 'Lucida Grande', sans-serif" font-size="13">
        <rect fill="white" height="600.0" width="800.0" x="0.0" y="0.0" />
        <g font-size="13">
            <text x="18.0" y="176.0">Small</text>
            <text x="18.0" y="376.0">Medium</text>
            <text x="18.0" y="576.0">Large</text>
        </g>
        <g font-size="9">
            <text x="250.0" y="30.0">Ultralight</text>
            <text x="450.0" y="30.0">Regular</text>
            <text x="650.0" y="30.0">Black</text>
            <text id="template-version" fill="#505050" text-anchor="end" x="785.0" y="575.0">Template v.3.0</text>
            <a href="https://github.com/swhitty/SwiftDraw">
                <text fill="#505050" text-anchor="end" x="785.0" y="590.0">https://github.com/swhitty/SwiftDraw</text>
            </a>
        </g>
    </g>
    <g id="Guides" stroke="rgb(39, 170, 225)" stroke-width="0.5">
        <path id="Capline-S" d="M18,76 l800,0" />
        <path id="H-reference" d="M85,145.755 L87.685,145.755 L113.369,79.287 L114.052,79.287 L114.052,76 L112.148,76 L85,145.755 Z M95.693,121.536 L130.996,121.536 L130.263,119.313 L96.474,119.313 L95.693,121.536 Z M139.15,145.755 L141.787,145.755 L114.638,76 L113.466,76 L113.466,79.287 L139.15,145.755 Z" stroke="none" transform="translate(0,200)" />
        <path id="Baseline-S" d="M18,146 l800,0" />
        <path id="left-margin-Ultralight-M" d="M230,256 l0,110" />
        <path id="right-margin-Ultralight-M" d="M300,256 l0,110" />
        <path id="left-margin-Regular-M" d="M430,256 l0,110" />
        <path id="right-margin-Regular-M" d="M500,256 l0,110" />
        <path id="left-margin-Black-M" d="M630,256 l0,110" />
        <path id="right-margin-Black-M" d="M700,256 l0,110" />
        <path id="Capline-M" d="M18,276 l800,0" />
        <path id="Baseline-M" d="M18,346 l800,0" />
        <path id="Capline-L" d="M18,476 l800,0" />
        <path id="Baseline-L" d="M18,546 l800,0" />
    </g>
    <g id="Symbols">
        <g id="Ultralight-M" transform="translate(0,200)">
            <path d="M255.457,135.997 C255.455,138.524 256.818,140.834 258.976,141.964 L265.34,145.297 C267.314,146.33 269.657,146.219 271.533,145.003 C273.409,143.788 274.551,141.641 274.55,139.33 L274.55,115.999 C274.55,115.174 274.843,114.378 275.372,113.766 L298.358,87.135 C300.043,85.18 300.472,82.372 299.454,79.966 C298.436,77.56 296.163,76.006 293.651,76 L236.363,76 C233.848,76.001 231.569,77.553 230.548,79.96 C229.527,82.367 229.955,85.178 231.64,87.133 L254.633,113.765 C255.163,114.378 255.456,115.175 255.457,116.001 L255.457,135.999 Z M261.821,135.999 L261.821,115.999 C261.82,113.52 260.94,111.13 259.353,109.293 L236.362,82.664 C236.364,82.667 236.364,82.667 236.364,82.667 C236.364,82.667 236.364,82.667 236.364,82.667 L293.643,82.667 C293.636,82.667 293.636,82.667 293.636,82.667 C293.636,82.667 293.636,82.667 293.636,82.667 L270.652,109.294 C269.066,111.13 268.187,113.519 268.185,115.997 L268.185,139.332 C268.185,139.333 268.185,139.333 268.185,139.333 C268.185,139.333 268.185,139.333 268.185,139.333 L261.822,136.001 C261.821,136 261.821,136 261.821,136 Z" />
        </g>
        <g id="Regular-M" transform="translate(0,200)">
            <path d="M455.457,135.997 C455.455,138.524 456.818,140.834 458.976,141.964 L465.34,145.297 C467.314,146.33 469.657,146.219 471.533,145.003 C473.409,143.788 474.551,141.641 474.55,139.33 L474.55,115.999 C474.55,115.174 474.843,114.378 475.372,113.766 L498.358,87.135 C500.043,85.18 500.472,82.372 499.454,79.966 C498.436,77.56 496.163,76.006 493.651,76 L436.363,76 C433.848,76.001 431.569,77.553 430.548,79.96 C429.527,82.367 429.955,85.178 431.64,87.133 L454.633,113.765 C455.163,114.378 455.456,115.175 455.457,116.001 L455.457,135.999 Z M461.821,135.999 L461.821,115.999 C461.82,113.52 460.94,111.13 459.353,109.293 L436.362,82.664 C436.364,82.667 436.364,82.667 436.364,82.667 C436.364,82.667 436.364,82.667 436.364,82.667 L493.643,82.667 C493.636,82.667 493.636,82.667 493.636,82.667 C493.636,82.667 493.636,82.667 493.636,82.667 L470.652,109.294 C469.066,111.13 468.187,113.519 468.185,115.997 L468.185,139.332 C468.185,139.333 468.185,139.333 468.185,139.333 C468.185,139.333 468.185,139.333 468.185,139.333 L461.822,136.001 C461.821,136 461.821,136 461.821,136 Z" />
        </g>
        <g id="Black-M" transform="translate(0,200)">
            <path d="M655.457,135.997 C655.455,138.524 656.818,140.834 658.976,141.964 L665.34,145.297 C667.314,146.33 669.657,146.219 671.533,145.003 C673.409,143.788 674.551,141.641 674.55,139.33 L674.55,115.999 C674.55,115.174 674.843,114.378 675.372,113.766 L698.358,87.135 C700.043,85.18 700.472,82.372 699.454,79.966 C698.437,77.56 696.163,76.006 693.651,76 L636.363,76 C633.848,76.001 631.569,77.553 630.548,79.96 C629.527,82.367 629.955,85.178 631.64,87.133 L654.633,113.765 C655.163,114.378 655.456,115.175 655.457,116.001 L655.457,135.999 Z M661.821,135.999 L661.821,115.999 C661.82,113.52 660.94,111.13 659.353,109.293 L636.362,82.664 C636.365,82.667 636.365,82.667 636.365,82.667 C636.365,82.667 636.365,82.667 636.365,82.667 L693.643,82.667 C693.635,82.667 693.635,82.667 693.635,82.667 C693.635,82.667 693.635,82.667 693.635,82.667 L670.652,109.294 C669.066,111.13 668.187,113.519 668.185,115.997 L668.185,139.332 C668.185,139.333 668.185,139.333 668.185,139.333 C668.185,139.333 668.185,139.333 668.185,139.333 L661.822,136.001 C661.821,136 661.821,136 661.821,136 Z" />
        </g>
    </g>
</svg>