<?xml version="1.0" encoding="UTF-8"?>
<svg height="600" width="800" xmlns="http://www.w3.org/2000/svg" xmlns:xlink="http://www.w3.org/1999/xlink">
    <g id="Notes" font-family="LucidaGrande, 'Lucida Grande', sans-serif" font-size="13">
        <rect fill="white" height="600.0" width="800.0" x="0.0" y="0.0" />
        <g font-size="13">
            <text x="18.0" y="176.0">Small</text>
            <text x="18.0" y="376.0">Medium</text>
            <text x="18.0" y="576.0">Large</text>
        </g>
        <g font-size="9">
            <text x="250.0" y="30.0">Ultralight</text>
            <text x="450.0" y="30.0">Regular</text>
            <text x="650.0" y="30.0">Black</text>
            <text id="template-version" fill="#505050" text-anchor="end" x="785.0" y="575.0">Template v.3.0</text>
            <a href="https://github.com/swhitty/SwiftDraw">
                <text fill="#505050" text-anchor="end" x="785.0" y="590.0">https://github.com/swhitty/SwiftDraw</text>
            </a>
        </g>
    </g>
    <g id="Guides" stroke="rgb(39, 170, 225)" stroke-width="0.5">
        <path id="Capline-S" d="M18,76 l800,0" />
        <path id="H-reference" d="M85,145.755 L87.685,145.755 L113.369,79.287 L114.052,79.287 L114.052,76 L112.148,76 L85,145.755 Z M95.693,121.536 L130.996,121.536 L130.263,119.313 L96.474,119.313 L95.693,121.536 Z M139.15,145.755 L141.787,145.755 L114.638,76 L113.466,76 L113.466,79.287 L139.15,145.755 Z" stroke="none" transform="translate(0,200)" />
        <path id="Baseline-S" d="M18,146 l800,0" />
        <path id="left-margin-Ultralight-M" d="M233.182,256 l0,110" />
        <path id="right-margin-Ultralight-M" d="M296.818,256 l0,110" />
        <path id="left-margin-Regular-M" d="M433.182,256 l0,110" />
        <path id="right-margin-Regular-M" d="M496.818,256 l0,110" />
        <path id="left-margin-Black-M" d="M633.182,256 l0,110" />
        <path id="right-margin-Black-M" d="M696.818,256 l0,110" />
        <path id="Capline-M" d="M18,276 l800,0" />
        <path id="Baseline-M" d="M18,346 l800,0" />
        <path id="Capline-L" d="M18,476 l800,0" />
        <path id="Baseline-L" d="M18,546 l800,0" />
    </g>
    <g id="Symbols">
        <g id="Ultralight-M" transform="translate(0,200)">
            <path d="M271.363,126.91 C271.363,123.396 268.514,120.547 265,120.547 C261.486,120.547 258.637,123.396 258.637,126.91 L258.656,127.262 L260.247,141.579 L263.409,141.228 L260.228,141.228 C260.228,143.863 262.364,146 265,146 C267.636,146 269.772,143.863 269.772,141.228 L266.591,141.228 L269.753,141.579 L271.344,127.262 L271.363,126.91 Z M265,126.91 L268.182,126.91 L265.019,126.559 L263.429,140.876 L263.409,141.228 C263.409,140.349 264.121,139.637 265,139.637 C265.879,139.637 266.591,140.349 266.591,141.228 L266.571,140.876 L264.981,126.559 L261.818,126.91 L265,126.91 C265,126.91 265,126.91 265,126.91 C265,126.91 265,126.91 265,126.91 Z" />
            <path d="M282.145,134.617 C294.049,127.002 299.504,112.448 295.536,98.884 C291.569,85.321 279.131,76 265,76 C250.869,76 238.431,85.321 234.464,98.884 C230.496,112.447 235.951,127.002 247.855,134.617 C249.335,135.564 251.303,135.132 252.249,133.652 C253.196,132.172 252.764,130.204 251.284,129.257 C241.761,123.165 237.397,111.521 240.571,100.671 C243.745,89.82 253.695,82.363 265,82.363 C276.305,82.363 286.255,89.82 289.429,100.671 C292.603,111.521 288.239,123.165 278.716,129.257 C277.236,130.204 276.804,132.172 277.751,133.652 C278.698,135.132 280.665,135.564 282.145,134.617 Z" />
            <path d="M254.819,115.456 C250.881,110.206 251.582,102.822 256.437,98.406 C261.292,93.99 268.708,93.99 273.563,98.406 C278.418,102.822 279.119,110.206 275.181,115.456 C274.127,116.862 274.412,118.856 275.817,119.911 C277.223,120.965 279.217,120.68 280.272,119.274 C286.178,111.399 285.127,100.323 277.845,93.699 C270.563,87.075 259.437,87.075 252.155,93.699 C244.873,100.323 243.822,111.399 249.728,119.274 C250.783,120.68 252.777,120.965 254.183,119.911 C255.588,118.856 255.873,116.862 254.819,115.456 Z" />
            <path d="M265,107.821 C265,107.821 265,107.821 265,107.821 C265,107.821 265,107.821 265,107.821 C265,107.821 265,107.821 265,107.821 C265,107.821 265,107.821 265,107.821 Z M258.637,107.821 C258.637,111.335 261.486,114.184 265,114.184 C268.514,114.184 271.363,111.335 271.363,107.821 C271.363,104.306 268.514,101.457 265,101.457 C261.486,101.457 258.637,104.306 258.637,107.821 Z" />
        </g>
        <g id="Regular-M" transform="translate(0,200)">
            <path d="M471.363,126.91 C471.363,123.396 468.514,120.547 465,120.547 C461.486,120.547 458.637,123.396 458.637,126.91 L458.656,127.262 L460.247,141.579 L463.409,141.228 L460.228,141.228 C460.228,143.863 462.364,146 465,146 C467.636,146 469.772,143.863 469.772,141.228 L466.591,141.228 L469.753,141.579 L471.344,127.262 L471.363,126.91 Z M465,126.91 L468.182,126.91 L465.019,126.559 L463.429,140.876 L463.409,141.228 C463.409,140.349 464.121,139.637 465,139.637 C465.879,139.637 466.591,140.349 466.591,141.228 L466.571,140.876 L464.981,126.559 L461.818,126.91 L465,126.91 C465,126.91 465,126.91 465,126.91 C465,126.91 465,126.91 465,126.91 Z" />
            <path d="M482.145,134.617 C494.049,127.002 499.504,112.448 495.536,98.884 C491.569,85.321 479.131,76 465,76 C450.869,76 438.431,85.321 434.464,98.884 C430.496,112.447 435.951,127.002 447.855,134.617 C449.335,135.564 451.303,135.132 452.249,133.652 C453.196,132.172 452.764,130.204 451.284,129.257 C441.761,123.165 437.397,111.521 440.571,100.671 C443.745,89.82 453.695,82.363 465,82.363 C476.305,82.363 486.255,89.82 489.429,100.671 C492.603,111.521 488.239,123.165 478.716,129.257 C477.236,130.204 476.804,132.172 477.751,133.652 C478.698,135.132 480.665,135.564 482.145,134.617 Z" />
            <path d="M454.819,115.456 C450.881,110.206 451.582,102.822 456.437,98.406 C461.292,93.99 468.708,93.99 473.563,98.406 C478.418,102.822 479.119,110.206 475.181,115.456 C474.127,116.862 474.412,118.856 475.817,119.911 C477.223,120.965 479.217,120.68 480.272,119.274 C486.178,111.399 485.127,100.323 477.845,93.699 C470.563,87.075 459.437,87.075 452.155,93.699 C444.873,100.323 443.822,111.399 449.728,119.274 C450.783,120.68 452.777,120.965 454.183,119.911 C455.588,118.856 455.873,116.862 454.819,115.456 Z" />
            <path d="M465,107.821 C465,107.821 465,107.821 465,107.821 C465,107.821 465,107.821 465,107.821 C465,107.821 465,107.821 465,107.821 C465,107.821 465,107.821 465,107.821 Z M458.637,107.821 C458.637,111.335 461.486,114.184 465,114.184 C468.514,114.184 471.363,111.335 471.363,107.821 C471.363,104.306 468.514,101.457 465,101.457 C461.486,101.457 458.637,104.306 458.637,107.821 Z" />
        </g>
        <g id="Black-M" transform="translate(0,200)">
            <path d="M671.363,126.91 C671.363,123.396 668.514,120.547 665,120.547 C661.486,120.547 658.637,123.396 658.637,126.91 L658.656,127.262 L660.247,141.579 L663.409,141.228 L660.228,141.228 C660.228,143.863 662.364,146 665,146 C667.636,146 669.772,143.863 669.772,141.228 L666.591,141.228 L669.753,141.579 L671.344,127.262 L671.363,126.91 Z M665,126.91 L668.182,126.91 L665.019,126.559 L663.429,140.876 L663.409,141.228 C663.409,140.349 664.121,139.637 665,139.637 C665.879,139.637 666.591,140.349 666.591,141.228 L666.571,140.876 L664.981,126.559 L661.818,126.91 L665,126.91 C665,126.91 665,126.91 665,126.91 C665,126.91 665,126.91 665,126.91 Z" />
            <path d="M682.145,134.617 C694.049,127.002 699.504,112.448 695.536,98.884 C691.569,85.321 679.131,76 665,76 C650.869,76 638.431,85.321 634.464,98.884 C630.496,112.447 635.951,127.002 647.855,134.617 C649.335,135.564 651.302,135.132 652.249,133.652 C653.196,132.172 652.764,130.204 651.284,129.257 C641.761,123.165 637.397,111.521 640.571,100.671 C643.745,89.82 653.695,82.363 665,82.363 C676.305,82.363 686.255,89.82 689.429,100.671 C692.603,111.521 688.239,123.165 678.716,129.257 C677.236,130.204 676.804,132.172 677.751,133.652 C678.698,135.132 680.665,135.564 682.145,134.617 Z" />
            <path d="M654.819,115.456 C650.881,110.206 651.582,102.822 656.437,98.406 C661.292,93.99 668.708,93.99 673.563,98.406 C678.418,102.822 679.119,110.206 675.181,115.456 C674.127,116.862 674.412,118.856 675.817,119.911 C677.223,120.965 679.217,120.68 680.272,119.274 C686.178,111.399 685.127,100.323 677.845,93.699 C670.563,87.075 659.437,87.075 652.155,93.699 C644.873,100.323 643.822,111.399 649.728,119.274 C650.783,120.68 652.777,120.965 654.183,119.911 C655.588,118.856 655.873,116.862 654.819,115.456 Z" />
            <path d="M665,107.821 C665,107.821 665,107.821 665,107.821 C665,107.821 665,107.821 665,107.821 C665,107.821 665,107.821 665,107.821 C665,107.821 665,107.821 665,107.821 Z M658.637,107.821 C658.637,111.335 661.486,114.184 665,114.184 C668.514,114.184 671.363,111.335 671.363,107.821 C671.363,104.306 668.514,101.457 665,101.457 C661.486,101.457 658.637,104.306 658.637,107.821 Z" />
        </g>
    </g>
</svg>