<?xml version="1.0" encoding="UTF-8"?>
<svg height="600" width="800" xmlns="http://www.w3.org/2000/svg" xmlns:xlink="http://www.w3.org/1999/xlink">
    <g id="Notes" font-family="LucidaGrande, 'Lucida Grande', sans-serif" font-size="13">
        <rect fill="white" height="600.0" width="800.0" x="0.0" y="0.0" />
        <g font-size="13">
            <text x="18.0" y="176.0">Small</text>
            <text x="18.0" y="376.0">Medium</text>
            <text x="18.0" y="576.0">Large</text>
        </g>
        <g font-size="9">
            <text x="250.0" y="30.0">Ultralight</text>
            <text x="450.0" y="30.0">Regular</text>
            <text x="650.0" y="30.0">Black</text>
            <text id="template-version" fill="#505050" text-anchor="end" x="785.0" y="575.0">Template v.3.0</text>
            <a href="https://github.com/swhitty/SwiftDraw">
                <text fill="#505050" text-anchor="end" x="785.0" y="590.0">https://github.com/swhitty/SwiftDraw</text>
            </a>
        </g>
    </g>
    <g id="Guides" stroke="rgb(39, 170, 225)" stroke-width="0.5">
        <path id="Capline-S" d="M18,76 l800,0" />
        <path id="H-reference" d="M85,145.755 L87.685,145.755 L113.369,79.287 L114.052,79.287 L114.052,76 L112.148,76 L85,145.755 Z M95.693,121.536 L130.996,121.536 L130.263,119.313 L96.474,119.313 L95.693,121.536 Z M139.15,145.755 L141.787,145.755 L114.638,76 L113.466,76 L113.466,79.287 L139.15,145.755 Z" stroke="none" transform="translate(0,200)" />
        <path id="Baseline-S" d="M18,146 l800,0" />
        <path id="left-margin-Ultralight-M" d="M228.333,256 l0,110" />
        <path id="right-margin-Ultralight-M" d="M301.667,256 l0,110" />
        <path id="left-margin-Regular-M" d="M428.333,256 l0,110" />
        <path id="right-margin-Regular-M" d="M501.667,256 l0,110" />
        <path id="left-margin-Black-M" d="M628.333,256 l0,110" />
        <path id="right-margin-Black-M" d="M701.667,256 l0,110" />
        <path id="Capline-M" d="M18,276 l800,0" />
        <path id="Baseline-M" d="M18,346 l800,0" />
        <path id="Capline-L" d="M18,476 l800,0" />
        <path id="Baseline-L" d="M18,546 l800,0" />
    </g>
    <g id="Symbols">
        <g id="Ultralight-M" transform="translate(0,200)">
            <path d="M268.333,132.667 L238.333,132.667 C237.449,132.667 236.601,132.316 235.976,131.69 C235.351,131.065 235,130.217 235,129.333 L235,86 C235,85.116 235.351,84.268 235.976,83.643 C236.601,83.018 237.449,82.667 238.333,82.667 L251.333,82.667 C252.499,82.656 253.56,83.221 254.183,84.167 L256.904,88.199 C258.732,90.976 261.87,92.666 265.233,92.667 L291.667,92.667 C292.551,92.667 293.399,93.018 294.024,93.643 C294.649,94.268 295,95.116 295,96 L295,100.534 C295,102.374 296.492,103.867 298.333,103.867 C300.174,103.867 301.667,102.374 301.667,100.534 L301.667,96 C301.667,93.348 300.613,90.805 298.738,88.929 C296.862,87.054 294.319,86 291.667,86 L265.233,86 C264.113,86 263.067,85.436 262.451,84.5 L259.729,80.469 C257.882,77.662 254.699,75.967 251.301,76 L238.333,76 C235.681,76 233.138,77.054 231.262,78.929 C229.387,80.805 228.333,83.348 228.333,86 L228.333,129.333 C228.333,131.986 229.387,134.529 231.262,136.404 C233.138,138.28 235.681,139.333 238.333,139.333 L268.333,139.333 C270.174,139.333 271.667,137.841 271.667,136 C271.667,134.159 270.174,132.667 268.333,132.667 Z" />
            <path d="M285,109.333 L285,129.333 C285,131.174 286.492,132.667 288.333,132.667 C290.174,132.667 291.667,131.174 291.667,129.333 L291.667,109.333 C291.667,107.493 290.174,106 288.333,106 C286.492,106 285,107.493 285,109.333 Z" />
            <path d="M288.333,119.333 L295,119.333 C296.841,119.333 298.333,117.841 298.333,116 C298.333,114.159 296.841,112.667 295,112.667 L288.333,112.667 C286.492,112.667 285,114.159 285,116 C285,117.841 286.492,119.333 288.333,119.333 Z" />
            <path d="M285,136 C285,134.159 286.492,132.667 288.333,132.667 C290.174,132.667 291.667,134.159 291.667,136 C291.667,137.841 290.174,139.333 288.333,139.333 C286.492,139.333 285,137.841 285,136 Z M278.333,136 C278.333,141.523 282.81,146 288.333,146 C293.856,146 298.333,141.523 298.333,136 C298.333,130.477 293.856,126 288.333,126 C282.81,126 278.333,130.477 278.333,136 Z" />
        </g>
        <g id="Regular-M" transform="translate(0,200)">
            <path d="M468.333,132.667 L438.333,132.667 C437.449,132.667 436.601,132.316 435.976,131.69 C435.351,131.065 435,130.217 435,129.333 L435,86 C435,85.116 435.351,84.268 435.976,83.643 C436.601,83.018 437.449,82.667 438.333,82.667 L451.333,82.667 C452.499,82.656 453.56,83.221 454.183,84.167 L456.904,88.199 C458.732,90.976 461.87,92.666 465.233,92.667 L491.667,92.667 C492.551,92.667 493.399,93.018 494.024,93.643 C494.649,94.268 495,95.116 495,96 L495,100.534 C495,102.374 496.492,103.867 498.333,103.867 C500.174,103.867 501.667,102.374 501.667,100.534 L501.667,96 C501.667,93.348 500.613,90.805 498.738,88.929 C496.862,87.054 494.319,86 491.667,86 L465.233,86 C464.113,86 463.067,85.436 462.451,84.5 L459.729,80.469 C457.882,77.662 454.699,75.967 451.301,76 L438.333,76 C435.681,76 433.138,77.054 431.262,78.929 C429.387,80.805 428.333,83.348 428.333,86 L428.333,129.333 C428.333,131.986 429.387,134.529 431.262,136.404 C433.138,138.28 435.681,139.333 438.333,139.333 L468.333,139.333 C470.174,139.333 471.667,137.841 471.667,136 C471.667,134.159 470.174,132.667 468.333,132.667 Z" />
            <path d="M485,109.333 L485,129.333 C485,131.174 486.492,132.667 488.333,132.667 C490.174,132.667 491.667,131.174 491.667,129.333 L491.667,109.333 C491.667,107.493 490.174,106 488.333,106 C486.492,106 485,107.493 485,109.333 Z" />
            <path d="M488.333,119.333 L495,119.333 C496.841,119.333 498.333,117.841 498.333,116 C498.333,114.159 496.841,112.667 495,112.667 L488.333,112.667 C486.492,112.667 485,114.159 485,116 C485,117.841 486.492,119.333 488.333,119.333 Z" />
            <path d="M485,136 C485,134.159 486.492,132.667 488.333,132.667 C490.174,132.667 491.667,134.159 491.667,136 C491.667,137.841 490.174,139.333 488.333,139.333 C486.492,139.333 485,137.841 485,136 Z M478.333,136 C478.333,141.523 482.81,146 488.333,146 C493.856,146 498.333,141.523 498.333,136 C498.333,130.477 493.856,126 488.333,126 C482.81,126 478.333,130.477 478.333,136 Z" />
        </g>
        <g id="Black-M" transform="translate(0,200)">
            <path d="M668.333,132.667 L638.333,132.667 C637.449,132.667 636.601,132.316 635.976,131.69 C635.351,131.065 635,130.217 635,129.333 L635,86 C635,85.116 635.351,84.268 635.976,83.643 C636.601,83.018 637.449,82.667 638.333,82.667 L651.333,82.667 C652.499,82.656 653.56,83.221 654.183,84.167 L656.904,88.199 C658.732,90.976 661.87,92.666 665.233,92.667 L691.667,92.667 C692.551,92.667 693.399,93.018 694.024,93.643 C694.649,94.268 695,95.116 695,96 L695,100.534 C695,102.374 696.492,103.867 698.333,103.867 C700.174,103.867 701.667,102.374 701.667,100.534 L701.667,96 C701.667,93.348 700.613,90.805 698.738,88.929 C696.862,87.054 694.319,86 691.667,86 L665.233,86 C664.113,86 663.067,85.436 662.451,84.5 L659.729,80.469 C657.882,77.662 654.699,75.967 651.301,76 L638.333,76 C635.681,76 633.138,77.054 631.262,78.929 C629.387,80.805 628.333,83.348 628.333,86 L628.333,129.333 C628.333,131.986 629.387,134.529 631.262,136.404 C633.138,138.28 635.681,139.333 638.333,139.333 L668.333,139.333 C670.174,139.333 671.667,137.841 671.667,136 C671.667,134.159 670.174,132.667 668.333,132.667 Z" />
            <path d="M685,109.333 L685,129.333 C685,131.174 686.492,132.667 688.333,132.667 C690.174,132.667 691.667,131.174 691.667,129.333 L691.667,109.333 C691.667,107.493 690.174,106 688.333,106 C686.492,106 685,107.493 685,109.333 Z" />
            <path d="M688.333,119.333 L695,119.333 C696.841,119.333 698.333,117.841 698.333,116 C698.333,114.159 696.841,112.667 695,112.667 L688.333,112.667 C686.492,112.667 685,114.159 685,116 C685,117.841 686.492,119.333 688.333,119.333 Z" />
            <path d="M685,136 C685,134.159 686.492,132.667 688.333,132.667 C690.174,132.667 691.667,134.159 691.667,136 C691.667,137.841 690.174,139.333 688.333,139.333 C686.492,139.333 685,137.841 685,136 Z M678.333,136 C678.333,141.523 682.81,146 688.333,146 C693.856,146 698.333,141.523 698.333,136 C698.333,130.477 693.856,126 688.333,126 C682.81,126 678.333,130.477 678.333,136 Z" />
        </g>
    </g>
</svg>