<?xml version="1.0" encoding="UTF-8"?>
<svg height="600" width="800" xmlns="http://www.w3.org/2000/svg" xmlns:xlink="http://www.w3.org/1999/xlink">
    <g id="Notes" font-family="LucidaGrande, 'Lucida Grande', sans-serif" font-size="13">
        <rect fill="white" height="600.0" width="800.0" x="0.0" y="0.0" />
        <g font-size="13">
            <text x="18.0" y="176.0">Small</text>
            <text x="18.0" y="376.0">Medium</text>
            <text x="18.0" y="576.0">Large</text>
        </g>
        <g font-size="9">
            <text x="250.0" y="30.0">Ultralight</text>
            <text x="450.0" y="30.0">Regular</text>
            <text x="650.0" y="30.0">Black</text>
            <text id="template-version" fill="#505050" text-anchor="end" x="785.0" y="575.0">Template v.3.0</text>
            <a href="https://github.com/swhitty/SwiftDraw">
                <text fill="#505050" text-anchor="end" x="785.0" y="590.0">https://github.com/swhitty/SwiftDraw</text>
            </a>
        </g>
    </g>
    <g id="Guides" stroke="rgb(39, 170, 225)" stroke-width="0.5">
        <path id="Capline-S" d="M18,76 l800,0" />
        <path id="H-reference" d="M85,145.755 L87.685,145.755 L113.369,79.287 L114.052,79.287 L114.052,76 L112.148,76 L85,145.755 Z M95.693,121.536 L130.996,121.536 L130.263,119.313 L96.474,119.313 L95.693,121.536 Z M139.15,145.755 L141.787,145.755 L114.638,76 L113.466,76 L113.466,79.287 L139.15,145.755 Z" stroke="none" transform="translate(0,200)" />
        <path id="Baseline-S" d="M18,146 l800,0" />
        <path id="left-margin-Ultralight-M" d="M230,256 l0,110" />
        <path id="right-margin-Ultralight-M" d="M300,256 l0,110" />
        <path id="left-margin-Regular-M" d="M430,256 l0,110" />
        <path id="right-margin-Regular-M" d="M500,256 l0,110" />
        <path id="left-margin-Black-M" d="M630,256 l0,110" />
        <path id="right-margin-Black-M" d="M700,256 l0,110" />
        <path id="Capline-M" d="M18,276 l800,0" />
        <path id="Baseline-M" d="M18,346 l800,0" />
        <path id="Capline-L" d="M18,476 l800,0" />
        <path id="Baseline-L" d="M18,546 l800,0" />
    </g>
    <g id="Symbols">
        <g id="Ultralight-M" transform="translate(0,200)">
            <path d="M230.932,81.432 L294.568,145.068 C295.811,146.311 297.826,146.311 299.068,145.068 C300.311,143.825 300.311,141.811 299.068,140.568 L235.432,76.932 C234.189,75.689 232.175,75.689 230.932,76.932 C229.689,78.175 229.689,80.189 230.932,81.432 Z" />
            <path d="M240.255,86.251 C229.735,96.771 227.014,112.791 233.472,126.193 C233.614,126.575 233.666,127.222 233.53,127.841 L230.221,138.014 L230.132,138.353 C229.688,140.511 230.393,142.746 231.994,144.26 C233.596,145.774 235.867,146.351 237.998,145.785 L248.934,142.588 C249.245,142.54 249.851,142.59 250.408,142.802 C263.529,148.939 279.339,146.157 289.748,135.749 C290.991,134.506 290.991,132.492 289.749,131.249 C288.506,130.006 286.492,130.006 285.249,131.249 C276.732,139.764 263.797,142.041 252.884,136.944 C250.994,136.218 249.177,136.065 247.422,136.414 L236.288,139.656 C236.365,139.635 236.365,139.635 236.365,139.635 C236.365,139.635 236.365,139.635 236.365,139.635 L233.249,138.994 L236.276,139.974 L239.664,129.505 C240.154,127.35 239.998,125.41 239.296,123.64 C233.921,112.465 236.147,99.358 244.754,90.751 C245.997,89.509 245.997,87.494 244.755,86.252 C243.512,85.009 241.497,85.009 240.255,86.251 Z" />
            <path d="M254.544,84.341 C265.139,80.203 277.179,82.728 285.219,90.774 C293.259,98.82 295.774,110.862 291.628,121.454 C290.987,123.09 291.795,124.936 293.431,125.577 C295.067,126.217 296.913,125.41 297.554,123.773 C302.622,110.828 299.547,96.11 289.72,86.276 C279.894,76.442 265.178,73.356 252.229,78.413 C250.592,79.053 249.783,80.898 250.423,82.535 C251.062,84.172 252.907,84.98 254.544,84.341 Z" />
        </g>
        <g id="Regular-M" transform="translate(0,200)">
            <path d="M430.932,81.432 L494.568,145.068 C495.811,146.311 497.826,146.311 499.068,145.068 C500.311,143.825 500.311,141.811 499.068,140.568 L435.432,76.932 C434.189,75.689 432.174,75.689 430.932,76.932 C429.689,78.175 429.689,80.189 430.932,81.432 Z" />
            <path d="M440.255,86.251 C429.735,96.771 427.014,112.791 433.472,126.193 C433.614,126.575 433.666,127.222 433.53,127.841 L430.221,138.014 L430.132,138.353 C429.688,140.511 430.393,142.746 431.994,144.26 C433.596,145.774 435.867,146.351 437.998,145.785 L448.934,142.588 C449.245,142.54 449.851,142.59 450.408,142.802 C463.529,148.939 479.339,146.157 489.748,135.749 C490.991,134.506 490.991,132.492 489.749,131.249 C488.506,130.006 486.492,130.006 485.249,131.249 C476.732,139.764 463.797,142.041 452.884,136.944 C450.994,136.218 449.177,136.065 447.422,136.414 L436.288,139.656 C436.365,139.635 436.365,139.635 436.365,139.635 C436.365,139.635 436.365,139.635 436.365,139.635 L433.249,138.994 L436.276,139.974 L439.664,129.505 C440.154,127.35 439.998,125.41 439.296,123.64 C433.921,112.465 436.147,99.358 444.754,90.751 C445.997,89.509 445.997,87.494 444.755,86.252 C443.512,85.009 441.497,85.009 440.255,86.251 Z" />
            <path d="M454.544,84.341 C465.139,80.203 477.179,82.728 485.219,90.774 C493.259,98.82 495.774,110.862 491.628,121.454 C490.987,123.09 491.795,124.936 493.431,125.577 C495.067,126.217 496.913,125.41 497.554,123.773 C502.622,110.828 499.547,96.11 489.72,86.276 C479.894,76.442 465.178,73.356 452.229,78.413 C450.592,79.053 449.783,80.898 450.423,82.535 C451.062,84.172 452.907,84.98 454.544,84.341 Z" />
        </g>
        <g id="Black-M" transform="translate(0,200)">
            <path d="M630.932,81.432 L694.568,145.068 C695.811,146.311 697.826,146.311 699.068,145.068 C700.311,143.825 700.311,141.811 699.068,140.568 L635.432,76.932 C634.189,75.689 632.174,75.689 630.932,76.932 C629.689,78.175 629.689,80.189 630.932,81.432 Z" />
            <path d="M640.255,86.251 C629.735,96.771 627.014,112.791 633.472,126.193 C633.614,126.575 633.666,127.222 633.53,127.841 L630.221,138.014 L630.132,138.353 C629.688,140.511 630.393,142.746 631.995,144.26 C633.596,145.774 635.867,146.351 637.997,145.785 L648.934,142.588 C649.245,142.54 649.851,142.59 650.408,142.802 C663.529,148.939 679.339,146.157 689.748,135.749 C690.991,134.506 690.991,132.492 689.749,131.249 C688.506,130.006 686.492,130.006 685.249,131.249 C676.732,139.764 663.797,142.041 652.884,136.944 C650.994,136.218 649.177,136.065 647.422,136.414 L636.288,139.656 C636.365,139.635 636.365,139.635 636.365,139.635 C636.365,139.635 636.365,139.635 636.365,139.635 L633.249,138.994 L636.276,139.974 L639.664,129.505 C640.154,127.35 639.998,125.41 639.296,123.64 C633.921,112.465 636.147,99.358 644.754,90.751 C645.997,89.509 645.997,87.494 644.755,86.252 C643.512,85.009 641.497,85.009 640.255,86.251 Z" />
            <path d="M654.544,84.341 C665.139,80.203 677.179,82.728 685.219,90.774 C693.259,98.82 695.774,110.862 691.628,121.454 C690.987,123.09 691.795,124.936 693.431,125.577 C695.067,126.217 696.913,125.41 697.554,123.773 C702.622,110.828 699.547,96.11 689.72,86.276 C679.894,76.442 665.178,73.356 652.229,78.413 C650.592,79.053 649.783,80.898 650.423,82.535 C651.062,84.172 652.907,84.98 654.544,84.341 Z" />
        </g>
    </g>
</svg>