<?xml version="1.0" encoding="UTF-8"?>
<svg height="600" width="800" xmlns="http://www.w3.org/2000/svg" xmlns:xlink="http://www.w3.org/1999/xlink">
    <g id="Notes" font-family="LucidaGrande, 'Lucida Grande', sans-serif" font-size="13">
        <rect fill="white" height="600.0" width="800.0" x="0.0" y="0.0" />
        <g font-size="13">
            <text x="18.0" y="176.0">Small</text>
            <text x="18.0" y="376.0">Medium</text>
            <text x="18.0" y="576.0">Large</text>
        </g>
        <g font-size="9">
            <text x="250.0" y="30.0">Ultralight</text>
            <text x="450.0" y="30.0">Regular</text>
            <text x="650.0" y="30.0">Black</text>
            <text id="template-version" fill="#505050" text-anchor="end" x="785.0" y="575.0">Template v.3.0</text>
            <a href="https://github.com/swhitty/SwiftDraw">
                <text fill="#505050" text-anchor="end" x="785.0" y="590.0">https://github.com/swhitty/SwiftDraw</text>
            </a>
        </g>
    </g>
    <g id="Guides" stroke="rgb(39, 170, 225)" stroke-width="0.5">
        <path id="Capline-S" d="M18,76 l800,0" />
        <path id="H-reference" d="M85,145.755 L87.685,145.755 L113.369,79.287 L114.052,79.287 L114.052,76 L112.148,76 L85,145.755 Z M95.693,121.536 L130.996,121.536 L130.263,119.313 L96.474,119.313 L95.693,121.536 Z M139.15,145.755 L141.787,145.755 L114.638,76 L113.466,76 L113.466,79.287 L139.15,145.755 Z" stroke="none" transform="translate(0,200)" />
        <path id="Baseline-S" d="M18,146 l800,0" />
        <path id="left-margin-Ultralight-M" d="M222.222,256 l0,110" />
        <path id="right-margin-Ultralight-M" d="M307.778,256 l0,110" />
        <path id="left-margin-Regular-M" d="M422.222,256 l0,110" />
        <path id="right-margin-Regular-M" d="M507.778,256 l0,110" />
        <path id="left-margin-Black-M" d="M622.222,256 l0,110" />
        <path id="right-margin-Black-M" d="M707.778,256 l0,110" />
        <path id="Capline-M" d="M18,276 l800,0" />
        <path id="Baseline-M" d="M18,346 l800,0" />
        <path id="Capline-L" d="M18,476 l800,0" />
        <path id="Baseline-L" d="M18,546 l800,0" />
    </g>
    <g id="Symbols">
        <g id="Ultralight-M" transform="translate(0,200)">
            <path d="M300,99.333 L300,87.667 C300,84.572 298.771,81.605 296.583,79.417 C294.395,77.229 291.428,76 288.333,76 L241.667,76 C238.572,76 235.605,77.229 233.417,79.417 C231.229,81.605 230,84.572 230,87.667 L230,99.333 C230,101.481 231.741,103.222 233.889,103.222 C236.037,103.222 237.778,101.481 237.778,99.333 L237.778,87.667 C237.778,86.635 238.188,85.646 238.917,84.917 C239.646,84.188 240.635,83.778 241.667,83.778 L288.333,83.778 C289.365,83.778 290.354,84.188 291.083,84.917 C291.812,85.646 292.222,86.635 292.222,87.667 L292.222,99.333 C292.222,101.481 293.963,103.222 296.111,103.222 C298.259,103.222 300,101.481 300,99.333 Z" />
            <path d="M222.222,126.556 C222.222,129.65 223.451,132.617 225.639,134.805 C227.827,136.993 230.795,138.222 233.889,138.222 L296.111,138.222 C299.205,138.222 302.173,136.993 304.361,134.805 C306.549,132.617 307.778,129.65 307.778,126.556 L307.778,107.111 C307.778,100.668 302.554,95.444 296.111,95.444 C289.668,95.444 284.444,100.668 284.444,107.111 L284.444,112.944 C284.444,112.429 284.649,111.934 285.014,111.57 C285.379,111.205 285.873,111 286.389,111 L243.611,111 C244.127,111 244.621,111.205 244.986,111.57 C245.351,111.934 245.556,112.429 245.556,112.944 L245.556,107.111 C245.556,100.668 240.332,95.444 233.889,95.444 C227.446,95.444 222.222,100.668 222.222,107.111 L222.222,126.556 Z M230,126.556 L230,107.111 C230,104.963 231.741,103.222 233.889,103.222 C236.037,103.222 237.778,104.963 237.778,107.111 L237.778,112.944 C237.778,114.492 238.392,115.975 239.486,117.069 C240.58,118.163 242.064,118.778 243.611,118.778 L286.389,118.778 C287.936,118.778 289.42,118.163 290.514,117.069 C291.608,115.975 292.222,114.492 292.222,112.944 L292.222,107.111 C292.222,104.963 293.963,103.222 296.111,103.222 C298.259,103.222 300,104.963 300,107.111 L300,126.556 C300,127.587 299.59,128.576 298.861,129.305 C298.132,130.035 297.143,130.444 296.111,130.444 L233.889,130.444 C232.857,130.444 231.868,130.035 231.139,129.305 C230.41,128.576 230,127.587 230,126.556 Z" />
            <path d="M230,134.333 L230,142.111 C230,144.259 231.741,146 233.889,146 C236.037,146 237.778,144.259 237.778,142.111 L237.778,134.333 C237.778,132.186 236.037,130.444 233.889,130.444 C231.741,130.444 230,132.186 230,134.333 Z" />
            <path d="M292.222,134.333 L292.222,142.111 C292.222,144.259 293.963,146 296.111,146 C298.259,146 300,144.259 300,142.111 L300,134.333 C300,132.186 298.259,130.444 296.111,130.444 C293.963,130.444 292.222,132.186 292.222,134.333 Z" />
            <path d="M261.111,79.889 L261.111,114.889 C261.111,117.037 262.852,118.778 265,118.778 C267.148,118.778 268.889,117.037 268.889,114.889 L268.889,79.889 C268.889,77.741 267.148,76 265,76 C262.852,76 261.111,77.741 261.111,79.889 Z" />
        </g>
        <g id="Regular-M" transform="translate(0,200)">
            <path d="M500,99.333 L500,87.667 C500,84.572 498.771,81.605 496.583,79.417 C494.395,77.229 491.428,76 488.333,76 L441.667,76 C438.572,76 435.605,77.229 433.417,79.417 C431.229,81.605 430,84.572 430,87.667 L430,99.333 C430,101.481 431.741,103.222 433.889,103.222 C436.037,103.222 437.778,101.481 437.778,99.333 L437.778,87.667 C437.778,86.635 438.188,85.646 438.917,84.917 C439.646,84.188 440.635,83.778 441.667,83.778 L488.333,83.778 C489.365,83.778 490.354,84.188 491.083,84.917 C491.812,85.646 492.222,86.635 492.222,87.667 L492.222,99.333 C492.222,101.481 493.963,103.222 496.111,103.222 C498.259,103.222 500,101.481 500,99.333 Z" />
            <path d="M422.222,126.556 C422.222,129.65 423.451,132.617 425.639,134.805 C427.827,136.993 430.795,138.222 433.889,138.222 L496.111,138.222 C499.205,138.222 502.173,136.993 504.361,134.805 C506.549,132.617 507.778,129.65 507.778,126.556 L507.778,107.111 C507.778,100.668 502.554,95.444 496.111,95.444 C489.668,95.444 484.444,100.668 484.444,107.111 L484.444,112.944 C484.444,112.429 484.649,111.934 485.014,111.57 C485.379,111.205 485.873,111 486.389,111 L443.611,111 C444.127,111 444.621,111.205 444.986,111.57 C445.351,111.934 445.556,112.429 445.556,112.944 L445.556,107.111 C445.556,100.668 440.332,95.444 433.889,95.444 C427.446,95.444 422.222,100.668 422.222,107.111 L422.222,126.556 Z M430,126.556 L430,107.111 C430,104.963 431.741,103.222 433.889,103.222 C436.037,103.222 437.778,104.963 437.778,107.111 L437.778,112.944 C437.778,114.492 438.392,115.975 439.486,117.069 C440.58,118.163 442.064,118.778 443.611,118.778 L486.389,118.778 C487.936,118.778 489.42,118.163 490.514,117.069 C491.608,115.975 492.222,114.492 492.222,112.944 L492.222,107.111 C492.222,104.963 493.963,103.222 496.111,103.222 C498.259,103.222 500,104.963 500,107.111 L500,126.556 C500,127.587 499.59,128.576 498.861,129.305 C498.132,130.035 497.143,130.444 496.111,130.444 L433.889,130.444 C432.857,130.444 431.868,130.035 431.139,129.305 C430.41,128.576 430,127.587 430,126.556 Z" />
            <path d="M430,134.333 L430,142.111 C430,144.259 431.741,146 433.889,146 C436.037,146 437.778,144.259 437.778,142.111 L437.778,134.333 C437.778,132.186 436.037,130.444 433.889,130.444 C431.741,130.444 430,132.186 430,134.333 Z" />
            <path d="M492.222,134.333 L492.222,142.111 C492.222,144.259 493.963,146 496.111,146 C498.259,146 500,144.259 500,142.111 L500,134.333 C500,132.186 498.259,130.444 496.111,130.444 C493.963,130.444 492.222,132.186 492.222,134.333 Z" />
            <path d="M461.111,79.889 L461.111,114.889 C461.111,117.037 462.852,118.778 465,118.778 C467.148,118.778 468.889,117.037 468.889,114.889 L468.889,79.889 C468.889,77.741 467.148,76 465,76 C462.852,76 461.111,77.741 461.111,79.889 Z" />
        </g>
        <g id="Black-M" transform="translate(0,200)">
            <path d="M700,99.333 L700,87.667 C700,84.572 698.771,81.605 696.583,79.417 C694.395,77.229 691.428,76 688.333,76 L641.667,76 C638.573,76 635.605,77.229 633.417,79.417 C631.229,81.605 630,84.572 630,87.667 L630,99.333 C630,101.481 631.741,103.222 633.889,103.222 C636.037,103.222 637.778,101.481 637.778,99.333 L637.778,87.667 C637.778,86.635 638.188,85.646 638.917,84.917 C639.646,84.188 640.635,83.778 641.667,83.778 L688.333,83.778 C689.365,83.778 690.354,84.188 691.083,84.917 C691.812,85.646 692.222,86.635 692.222,87.667 L692.222,99.333 C692.222,101.481 693.963,103.222 696.111,103.222 C698.259,103.222 700,101.481 700,99.333 Z" />
            <path d="M622.222,126.556 C622.222,129.65 623.451,132.617 625.639,134.805 C627.827,136.993 630.795,138.222 633.889,138.222 L696.111,138.222 C699.205,138.222 702.173,136.993 704.361,134.805 C706.549,132.617 707.778,129.65 707.778,126.556 L707.778,107.111 C707.778,100.668 702.554,95.444 696.111,95.444 C689.668,95.444 684.444,100.668 684.444,107.111 L684.444,112.944 C684.444,112.429 684.649,111.934 685.014,111.57 C685.379,111.205 685.873,111 686.389,111 L643.611,111 C644.127,111 644.621,111.205 644.986,111.57 C645.351,111.934 645.556,112.429 645.556,112.944 L645.556,107.111 C645.556,100.668 640.332,95.444 633.889,95.444 C627.446,95.444 622.222,100.668 622.222,107.111 L622.222,126.556 Z M630,126.556 L630,107.111 C630,104.963 631.741,103.222 633.889,103.222 C636.037,103.222 637.778,104.963 637.778,107.111 L637.778,112.944 C637.778,114.492 638.392,115.975 639.486,117.069 C640.58,118.163 642.064,118.778 643.611,118.778 L686.389,118.778 C687.936,118.778 689.42,118.163 690.514,117.069 C691.608,115.975 692.222,114.492 692.222,112.944 L692.222,107.111 C692.222,104.963 693.963,103.222 696.111,103.222 C698.259,103.222 700,104.963 700,107.111 L700,126.556 C700,127.587 699.59,128.576 698.861,129.305 C698.132,130.035 697.143,130.444 696.111,130.444 L633.889,130.444 C632.857,130.444 631.868,130.035 631.139,129.305 C630.41,128.576 630,127.587 630,126.556 Z" />
            <path d="M630,134.333 L630,142.111 C630,144.259 631.741,146 633.889,146 C636.037,146 637.778,144.259 637.778,142.111 L637.778,134.333 C637.778,132.186 636.037,130.444 633.889,130.444 C631.741,130.444 630,132.186 630,134.333 Z" />
            <path d="M692.222,134.333 L692.222,142.111 C692.222,144.259 693.963,146 696.111,146 C698.259,146 700,144.259 700,142.111 L700,134.333 C700,132.186 698.259,130.444 696.111,130.444 C693.963,130.444 692.222,132.186 692.222,134.333 Z" />
            <path d="M661.111,79.889 L661.111,114.889 C661.111,117.037 662.852,118.778 665,118.778 C667.148,118.778 668.889,117.037 668.889,114.889 L668.889,79.889 C668.889,77.741 667.148,76 665,76 C662.852,76 661.111,77.741 661.111,79.889 Z" />
        </g>
    </g>
</svg>